<?xml version="1.0" encoding="UTF-8" standalone="no"?>
<!DOCTYPE svg PUBLIC "-//W3C//DTD SVG 1.1//EN"
 "http://www.w3.org/Graphics/SVG/1.1/DTD/svg11.dtd">
<!-- Generated by graphviz version 9.0.0 (20230911.1827)
 -->
<!-- Title: dKankyo_evil_Packet Pages: 1 -->
<svg width="327pt" height="302pt"
 viewBox="0.00 0.00 326.88 301.75" xmlns="http://www.w3.org/2000/svg" xmlns:xlink="http://www.w3.org/1999/xlink">
<g id="graph0" class="graph" transform="scale(1 1) rotate(0) translate(4 297.75)">
<title>dKankyo_evil_Packet</title>
<!-- Node1 -->
<g id="Node000001" class="node">
<title>Node1</title>
<g id="a_Node000001"><a xlink:title=" ">
<polygon fill="#999999" stroke="#666666" points="171.88,-19.25 62.12,-19.25 62.12,0 171.88,0 171.88,-19.25"/>
<text text-anchor="middle" x="117" y="-5.75" font-family="Helvetica,sans-Serif" font-size="10.00">dKankyo_evil_Packet</text>
</a>
</g>
</g>
<!-- Node2 -->
<g id="Node000002" class="node">
<title>Node2</title>
<g id="a_Node000002"><a xlink:href="classJ3DPacket.html" target="_top" xlink:title=" ">
<polygon fill="white" stroke="#666666" points="64,-87.38 0,-87.38 0,-68.12 64,-68.12 64,-87.38"/>
<text text-anchor="middle" x="32" y="-73.88" font-family="Helvetica,sans-Serif" font-size="10.00">J3DPacket</text>
</a>
</g>
</g>
<!-- Node2&#45;&gt;Node1 -->
<g id="edge1_Node000001_Node000002" class="edge">
<title>Node2&#45;&gt;Node1</title>
<g id="a_edge1_Node000001_Node000002"><a xlink:title=" ">
<path fill="none" stroke="#63b8ff" d="M52.4,-60.88C69.01,-47.96 91.84,-30.19 105.45,-19.61"/>
<polygon fill="#63b8ff" stroke="#63b8ff" points="50.4,-58 44.66,-66.9 54.7,-63.53 50.4,-58"/>
</a>
</g>
</g>
<!-- Node2&#45;&gt;Node2 -->
<g id="edge2_Node000002_Node000002" class="edge">
<title>Node2&#45;&gt;Node2</title>
<g id="a_edge2_Node000002_Node000002"><a xlink:title=" ">
<path fill="none" stroke="#9a32cd" stroke-dasharray="5,2" d="M75.59,-82.93C79.53,-81.85 82,-80.13 82,-77.75 82,-73.53 74.18,-71.35 64.22,-71.22"/>
<polygon fill="#9a32cd" stroke="#9a32cd" points="75.24,-79.45 65.72,-84.1 76.07,-86.4 75.24,-79.45"/>
</a>
</g>
<text text-anchor="middle" x="114.25" y="-79.5" font-family="Helvetica,sans-Serif" font-size="10.00" fill="grey"> mpFirstChild</text>
<text text-anchor="middle" x="114.25" y="-68.25" font-family="Helvetica,sans-Serif" font-size="10.00" fill="grey">mpNextPacket</text>
</g>
<!-- Node3 -->
<g id="Node000003" class="node">
<title>Node3</title>
<g id="a_Node000003"><a xlink:href="structEF__EVIL__EFF.html" target="_top" xlink:title=" ">
<polygon fill="white" stroke="#666666" points="243.12,-87.38 164.88,-87.38 164.88,-68.12 243.12,-68.12 243.12,-87.38"/>
<text text-anchor="middle" x="204" y="-73.88" font-family="Helvetica,sans-Serif" font-size="10.00">EF_EVIL_EFF</text>
</a>
</g>
</g>
<!-- Node3&#45;&gt;Node1 -->
<g id="edge3_Node000001_Node000003" class="edge">
<title>Node3&#45;&gt;Node1</title>
<g id="a_edge3_Node000001_Node000003"><a xlink:title=" ">
<path fill="none" stroke="#9a32cd" stroke-dasharray="5,2" d="M183.12,-60.88C166.12,-47.96 142.75,-30.19 128.83,-19.61"/>
<polygon fill="#9a32cd" stroke="#9a32cd" points="180.98,-63.65 191.06,-66.92 185.22,-58.08 180.98,-63.65"/>
</a>
</g>
<text text-anchor="middle" x="183.62" y="-39" font-family="Helvetica,sans-Serif" font-size="10.00" fill="grey"> mEffect</text>
</g>
<!-- Node4 -->
<g id="Node000004" class="node">
<title>Node4</title>
<g id="a_Node000004"><a xlink:href="structcXyz.html" target="_top" xlink:title=" ">
<polygon fill="white" stroke="#666666" points="158.5,-202.12 121.5,-202.12 121.5,-182.88 158.5,-182.88 158.5,-202.12"/>
<text text-anchor="middle" x="140" y="-188.62" font-family="Helvetica,sans-Serif" font-size="10.00">cXyz</text>
</a>
</g>
</g>
<!-- Node4&#45;&gt;Node3 -->
<g id="edge4_Node000003_Node000004" class="edge">
<title>Node4&#45;&gt;Node3</title>
<g id="a_edge4_Node000003_Node000004"><a xlink:title=" ">
<path fill="none" stroke="#9a32cd" stroke-dasharray="5,2" d="M142.16,-171.25C144.92,-153.04 151.11,-126.27 164.75,-107 170.38,-99.05 178.96,-92.51 186.67,-87.72"/>
<polygon fill="#9a32cd" stroke="#9a32cd" points="138.7,-170.67 140.91,-181.03 145.65,-171.56 138.7,-170.67"/>
</a>
</g>
<text text-anchor="middle" x="190.12" y="-120" font-family="Helvetica,sans-Serif" font-size="10.00" fill="grey"> mBasePos</text>
<text text-anchor="middle" x="190.12" y="-108.75" font-family="Helvetica,sans-Serif" font-size="10.00" fill="grey">mPosition</text>
</g>
<!-- Node4&#45;&gt;Node4 -->
<g id="edge6_Node000004_Node000004" class="edge">
<title>Node4&#45;&gt;Node4</title>
<g id="a_edge6_Node000004_Node000004"><a xlink:title=" ">
<path fill="none" stroke="#9a32cd" stroke-dasharray="5,2" d="M164.77,-204.32C171.43,-203.68 176.5,-199.74 176.5,-192.5 176.5,-181.46 164.74,-178.1 153.48,-182.41"/>
<polygon fill="#9a32cd" stroke="#9a32cd" points="165.39,-200.87 154.97,-202.82 164.33,-207.79 165.39,-200.87"/>
</a>
</g>
<text text-anchor="middle" x="197.5" y="-228" font-family="Helvetica,sans-Serif" font-size="10.00" fill="grey"> BaseX</text>
<text text-anchor="middle" x="197.5" y="-216.75" font-family="Helvetica,sans-Serif" font-size="10.00" fill="grey">BaseXY</text>
<text text-anchor="middle" x="197.5" y="-205.5" font-family="Helvetica,sans-Serif" font-size="10.00" fill="grey">BaseXYZ</text>
<text text-anchor="middle" x="197.5" y="-194.25" font-family="Helvetica,sans-Serif" font-size="10.00" fill="grey">BaseXZ</text>
<text text-anchor="middle" x="197.5" y="-183" font-family="Helvetica,sans-Serif" font-size="10.00" fill="grey">BaseY</text>
<text text-anchor="middle" x="197.5" y="-171.75" font-family="Helvetica,sans-Serif" font-size="10.00" fill="grey">BaseYZ</text>
<text text-anchor="middle" x="197.5" y="-160.5" font-family="Helvetica,sans-Serif" font-size="10.00" fill="grey">BaseZ</text>
<text text-anchor="middle" x="197.5" y="-149.25" font-family="Helvetica,sans-Serif" font-size="10.00" fill="grey">Zero</text>
</g>
<!-- Node5 -->
<g id="Node000005" class="node">
<title>Node5</title>
<g id="a_Node000005"><a xlink:href="structVec.html" target="_top" xlink:title=" ">
<polygon fill="white" stroke="#666666" points="156.62,-293.75 123.38,-293.75 123.38,-274.5 156.62,-274.5 156.62,-293.75"/>
<text text-anchor="middle" x="140" y="-280.25" font-family="Helvetica,sans-Serif" font-size="10.00">Vec</text>
</a>
</g>
</g>
<!-- Node5&#45;&gt;Node4 -->
<g id="edge5_Node000004_Node000005" class="edge">
<title>Node5&#45;&gt;Node4</title>
<g id="a_edge5_Node000004_Node000005"><a xlink:title=" ">
<path fill="none" stroke="#63b8ff" d="M140,-262.94C140,-243.94 140,-216.39 140,-202.39"/>
<polygon fill="#63b8ff" stroke="#63b8ff" points="136.5,-262.69 140,-272.69 143.5,-262.69 136.5,-262.69"/>
</a>
</g>
</g>
<!-- Node6 -->
<g id="Node000006" class="node">
<title>Node6</title>
<g id="a_Node000006"><a xlink:href="structcsXyz.html" target="_top" xlink:title=" ">
<polygon fill="white" stroke="#666666" points="279.12,-202.12 236.88,-202.12 236.88,-182.88 279.12,-182.88 279.12,-202.12"/>
<text text-anchor="middle" x="258" y="-188.62" font-family="Helvetica,sans-Serif" font-size="10.00">csXyz</text>
</a>
</g>
</g>
<!-- Node6&#45;&gt;Node3 -->
<g id="edge7_Node000003_Node000006" class="edge">
<title>Node6&#45;&gt;Node3</title>
<g id="a_edge7_Node000003_Node000006"><a xlink:title=" ">
<path fill="none" stroke="#9a32cd" stroke-dasharray="5,2" d="M248.87,-172.44C237.11,-147.89 217.15,-106.21 208.37,-87.87"/>
<polygon fill="#9a32cd" stroke="#9a32cd" points="245.63,-173.78 253.11,-181.29 251.95,-170.76 245.63,-173.78"/>
</a>
</g>
<text text-anchor="middle" x="250.5" y="-114.38" font-family="Helvetica,sans-Serif" font-size="10.00" fill="grey"> field_0x1c</text>
</g>
<!-- Node6&#45;&gt;Node6 -->
<g id="edge9_Node000006_Node000006" class="edge">
<title>Node6&#45;&gt;Node6</title>
<g id="a_edge9_Node000006_Node000006"><a xlink:title=" ">
<path fill="none" stroke="#9a32cd" stroke-dasharray="5,2" d="M283.78,-204.37C291.3,-203.96 297.12,-200 297.12,-192.5 297.12,-181.46 284.51,-178.1 272.45,-182.41"/>
<polygon fill="#9a32cd" stroke="#9a32cd" points="284.36,-200.92 273.94,-202.82 283.28,-207.83 284.36,-200.92"/>
</a>
</g>
<text text-anchor="middle" x="308" y="-188.62" font-family="Helvetica,sans-Serif" font-size="10.00" fill="grey"> Zero</text>
</g>
<!-- Node7 -->
<g id="Node000007" class="node">
<title>Node7</title>
<g id="a_Node000007"><a xlink:href="structSVec.html" target="_top" xlink:title=" ">
<polygon fill="white" stroke="#666666" points="278,-293.75 238,-293.75 238,-274.5 278,-274.5 278,-293.75"/>
<text text-anchor="middle" x="258" y="-280.25" font-family="Helvetica,sans-Serif" font-size="10.00">SVec</text>
</a>
</g>
</g>
<!-- Node7&#45;&gt;Node6 -->
<g id="edge8_Node000006_Node000007" class="edge">
<title>Node7&#45;&gt;Node6</title>
<g id="a_edge8_Node000006_Node000007"><a xlink:title=" ">
<path fill="none" stroke="#63b8ff" d="M258,-262.94C258,-243.94 258,-216.39 258,-202.39"/>
<polygon fill="#63b8ff" stroke="#63b8ff" points="254.5,-262.69 258,-272.69 261.5,-262.69 254.5,-262.69"/>
</a>
</g>
</g>
</g>
</svg>
