<?xml version="1.0" encoding="UTF-8" standalone="no"?>
<!DOCTYPE svg PUBLIC "-//W3C//DTD SVG 1.1//EN"
 "http://www.w3.org/Graphics/SVG/1.1/DTD/svg11.dtd">
<!-- Generated by graphviz version 9.0.0 (20230911.1827)
 -->
<!-- Title: cCcD_TriAttr Pages: 1 -->
<svg width="175pt" height="193pt"
 viewBox="0.00 0.00 175.25 193.00" xmlns="http://www.w3.org/2000/svg" xmlns:xlink="http://www.w3.org/1999/xlink">

<svg id="main" version="1.1" xmlns="http://www.w3.org/2000/svg" xmlns:xlink="http://www.w3.org/1999/xlink" xml:space="preserve" onload="init(evt)">
<style type="text/css"><![CDATA[
.node, .edge {opacity: 0.7;}
.node.selected, .edge.selected {opacity: 1;}
.edge:hover path { stroke: red; }
.edge:hover polygon { stroke: red; fill: red; }
]]></style>
<script type="application/ecmascript" xlink:href="svg.min.js"/>
<svg id="graph" class="graph">
<g id="graph0" class="graph" transform="scale(1 1) rotate(0) translate(4 189)">
<title>cCcD_TriAttr</title>
<!-- Node1 -->
<g id="Node000001" class="node">
<title>Node1</title>
<g id="a_Node000001"><a xlink:title=" ">
<polygon fill="#999999" stroke="#666666" points="126.5,-74.5 54.25,-74.5 54.25,-55.25 126.5,-55.25 126.5,-74.5"/>
<text text-anchor="middle" x="90.38" y="-61" font-family="Helvetica,sans-Serif" font-size="10.00">cCcD_TriAttr</text>
</a>
</g>
</g>
<!-- Node5 -->
<g id="Node000005" class="node">
<title>Node5</title>
<g id="a_Node000005"><a xlink:href="classdCcD__Tri.html" target="_top" xlink:title=" ">
<polygon fill="white" stroke="#666666" points="118.62,-19.25 62.12,-19.25 62.12,0 118.62,0 118.62,-19.25"/>
<text text-anchor="middle" x="90.38" y="-5.75" font-family="Helvetica,sans-Serif" font-size="10.00">dCcD_Tri</text>
</a>
</g>
</g>
<!-- Node1&#45;&gt;Node5 -->
<g id="edge4_Node000001_Node000005" class="edge">
<title>Node1&#45;&gt;Node5</title>
<g id="a_edge4_Node000001_Node000005"><a xlink:title=" ">
<path fill="none" stroke="#63b8ff" d="M90.38,-43.63C90.38,-35.34 90.38,-26.17 90.38,-19.61"/>
<polygon fill="#63b8ff" stroke="#63b8ff" points="86.88,-43.57 90.38,-53.57 93.88,-43.57 86.88,-43.57"/>
</a>
</g>
</g>
<!-- Node2 -->
<g id="Node000002" class="node">
<title>Node2</title>
<g id="a_Node000002"><a xlink:href="classcCcD__ShapeAttr.html" target="_top" xlink:title=" ">
<polygon fill="white" stroke="#666666" points="88.75,-129.75 0,-129.75 0,-110.5 88.75,-110.5 88.75,-129.75"/>
<text text-anchor="middle" x="44.38" y="-116.25" font-family="Helvetica,sans-Serif" font-size="10.00">cCcD_ShapeAttr</text>
</a>
</g>
</g>
<!-- Node2&#45;&gt;Node1 -->
<g id="edge1_Node000001_Node000002" class="edge">
<title>Node2&#45;&gt;Node1</title>
<g id="a_edge1_Node000001_Node000002"><a xlink:title=" ">
<path fill="none" stroke="#63b8ff" d="M59.38,-101.76C67.13,-92.78 76.28,-82.2 82.61,-74.86"/>
<polygon fill="#63b8ff" stroke="#63b8ff" points="56.85,-99.33 52.96,-109.19 62.15,-103.91 56.85,-99.33"/>
</a>
</g>
</g>
<!-- Node3 -->
<g id="Node000003" class="node">
<title>Node3</title>
<g id="a_Node000003"><a xlink:href="classcM3dGTri.html" target="_top" xlink:title=" ">
<polygon fill="white" stroke="#666666" points="165.75,-129.75 107,-129.75 107,-110.5 165.75,-110.5 165.75,-129.75"/>
<text text-anchor="middle" x="136.38" y="-116.25" font-family="Helvetica,sans-Serif" font-size="10.00">cM3dGTri</text>
</a>
</g>
</g>
<!-- Node3&#45;&gt;Node1 -->
<g id="edge2_Node000001_Node000003" class="edge">
<title>Node3&#45;&gt;Node1</title>
<g id="a_edge2_Node000001_Node000003"><a xlink:title=" ">
<path fill="none" stroke="#63b8ff" d="M121.37,-101.76C113.62,-92.78 104.47,-82.2 98.14,-74.86"/>
<polygon fill="#63b8ff" stroke="#63b8ff" points="118.6,-103.91 127.79,-109.19 123.9,-99.33 118.6,-103.91"/>
</a>
</g>
</g>
<!-- Node4 -->
<g id="Node000004" class="node">
<title>Node4</title>
<g id="a_Node000004"><a xlink:href="structcM3dGPla.html" target="_top" xlink:title=" ">
<polygon fill="white" stroke="#666666" points="167.25,-185 105.5,-185 105.5,-165.75 167.25,-165.75 167.25,-185"/>
<text text-anchor="middle" x="136.38" y="-171.5" font-family="Helvetica,sans-Serif" font-size="10.00">cM3dGPla</text>
</a>
</g>
</g>
<!-- Node4&#45;&gt;Node3 -->
<g id="edge3_Node000003_Node000004" class="edge">
<title>Node4&#45;&gt;Node3</title>
<g id="a_edge3_Node000003_Node000004"><a xlink:title=" ">
<path fill="none" stroke="#63b8ff" d="M136.38,-154.13C136.38,-145.84 136.38,-136.67 136.38,-130.11"/>
<polygon fill="#63b8ff" stroke="#63b8ff" points="132.88,-154.07 136.38,-164.07 139.88,-154.07 132.88,-154.07"/>
</a>
</g>
</g>
</g>
</svg>
</svg>

<style type='text/css'>
<![CDATA[
[data-mouse-over-selected='false'] { opacity: 0.7; }
[data-mouse-over-selected='true']  { opacity: 1.0; }
]]>
</style>
<script type="application/ecmascript"><![CDATA[
document.addEventListener('DOMContentLoaded', (event) => {
  highlightEdges();
  highlightAdjacentNodes();
});
]]></script>
</svg>
