<?xml version="1.0" encoding="UTF-8" standalone="no"?>
<!DOCTYPE svg PUBLIC "-//W3C//DTD SVG 1.1//EN"
 "http://www.w3.org/Graphics/SVG/1.1/DTD/svg11.dtd">
<!-- Generated by graphviz version 9.0.0 (20230911.1827)
 -->
<!-- Title: JAUSection Pages: 1 -->
<svg width="222pt" height="193pt"
 viewBox="0.00 0.00 222.12 193.00" xmlns="http://www.w3.org/2000/svg" xmlns:xlink="http://www.w3.org/1999/xlink">

<svg id="main" version="1.1" xmlns="http://www.w3.org/2000/svg" xmlns:xlink="http://www.w3.org/1999/xlink" xml:space="preserve" onload="init(evt)">
<style type="text/css"><![CDATA[
.node, .edge {opacity: 0.7;}
.node.selected, .edge.selected {opacity: 1;}
.edge:hover path { stroke: red; }
.edge:hover polygon { stroke: red; fill: red; }
]]></style>
<script type="application/ecmascript" xlink:href="svg.min.js"/>
<svg id="graph" class="graph">
<g id="graph0" class="graph" transform="scale(1 1) rotate(0) translate(4 189)">
<title>JAUSection</title>
<!-- Node1 -->
<g id="Node000001" class="node">
<title>Node1</title>
<g id="a_Node000001"><a xlink:title=" ">
<polygon fill="#999999" stroke="#666666" points="128.75,-74.5 60.25,-74.5 60.25,-55.25 128.75,-55.25 128.75,-74.5"/>
<text text-anchor="middle" x="94.5" y="-61" font-family="Helvetica,sans-Serif" font-size="10.00">JAUSection</text>
</a>
</g>
</g>
<!-- Node5 -->
<g id="Node000005" class="node">
<title>Node5</title>
<g id="a_Node000005"><a xlink:href="classJAUSectionHeap.html" target="_top" xlink:title=" ">
<polygon fill="white" stroke="#666666" points="140.38,-19.25 48.62,-19.25 48.62,0 140.38,0 140.38,-19.25"/>
<text text-anchor="middle" x="94.5" y="-5.75" font-family="Helvetica,sans-Serif" font-size="10.00">JAUSectionHeap</text>
</a>
</g>
</g>
<!-- Node1&#45;&gt;Node5 -->
<g id="edge4_Node000001_Node000005" class="edge">
<title>Node1&#45;&gt;Node5</title>
<g id="a_edge4_Node000001_Node000005"><a xlink:title=" ">
<path fill="none" stroke="#63b8ff" d="M94.5,-43.63C94.5,-35.34 94.5,-26.17 94.5,-19.61"/>
<polygon fill="#63b8ff" stroke="#63b8ff" points="91,-43.57 94.5,-53.57 98,-43.57 91,-43.57"/>
</a>
</g>
</g>
<!-- Node2 -->
<g id="Node000002" class="node">
<title>Node2</title>
<g id="a_Node000002"><a xlink:href="classJKRDisposer.html" target="_top" xlink:title=" ">
<polygon fill="white" stroke="#666666" points="73,-129.75 0,-129.75 0,-110.5 73,-110.5 73,-129.75"/>
<text text-anchor="middle" x="36.5" y="-116.25" font-family="Helvetica,sans-Serif" font-size="10.00">JKRDisposer</text>
</a>
</g>
</g>
<!-- Node2&#45;&gt;Node1 -->
<g id="edge1_Node000001_Node000002" class="edge">
<title>Node2&#45;&gt;Node1</title>
<g id="a_edge1_Node000001_Node000002"><a xlink:title=" ">
<path fill="none" stroke="#63b8ff" d="M54.76,-102.36C64.72,-93.22 76.64,-82.28 84.81,-74.77"/>
<polygon fill="#63b8ff" stroke="#63b8ff" points="52.45,-99.73 47.45,-109.07 57.19,-104.88 52.45,-99.73"/>
</a>
</g>
</g>
<!-- Node3 -->
<g id="Node000003" class="node">
<title>Node3</title>
<g id="a_Node000003"><a xlink:href="classJSULink.html" target="_top" xlink:title=" ">
<polygon fill="white" stroke="#666666" points="214.12,-129.75 90.88,-129.75 90.88,-110.5 214.12,-110.5 214.12,-129.75"/>
<text text-anchor="middle" x="152.5" y="-116.25" font-family="Helvetica,sans-Serif" font-size="10.00">JSULink&lt; JAUSection &gt;</text>
</a>
</g>
</g>
<!-- Node3&#45;&gt;Node1 -->
<g id="edge2_Node000001_Node000003" class="edge">
<title>Node3&#45;&gt;Node1</title>
<g id="a_edge2_Node000001_Node000003"><a xlink:title=" ">
<path fill="none" stroke="darkgreen" d="M134.24,-102.36C124.28,-93.22 112.36,-82.28 104.19,-74.77"/>
<polygon fill="darkgreen" stroke="darkgreen" points="131.81,-104.88 141.55,-109.07 136.55,-99.73 131.81,-104.88"/>
</a>
</g>
</g>
<!-- Node4 -->
<g id="Node000004" class="node">
<title>Node4</title>
<g id="a_Node000004"><a xlink:href="classJSUPtrLink.html" target="_top" xlink:title=" ">
<polygon fill="white" stroke="#666666" points="186,-185 119,-185 119,-165.75 186,-165.75 186,-185"/>
<text text-anchor="middle" x="152.5" y="-171.5" font-family="Helvetica,sans-Serif" font-size="10.00">JSUPtrLink</text>
</a>
</g>
</g>
<!-- Node4&#45;&gt;Node3 -->
<g id="edge3_Node000003_Node000004" class="edge">
<title>Node4&#45;&gt;Node3</title>
<g id="a_edge3_Node000003_Node000004"><a xlink:title=" ">
<path fill="none" stroke="#63b8ff" d="M152.5,-154.13C152.5,-145.84 152.5,-136.67 152.5,-130.11"/>
<polygon fill="#63b8ff" stroke="#63b8ff" points="149,-154.07 152.5,-164.07 156,-154.07 149,-154.07"/>
</a>
</g>
</g>
</g>
</svg>
</svg>

<style type='text/css'>
<![CDATA[
[data-mouse-over-selected='false'] { opacity: 0.7; }
[data-mouse-over-selected='true']  { opacity: 1.0; }
]]>
</style>
<script type="application/ecmascript"><![CDATA[
document.addEventListener('DOMContentLoaded', (event) => {
  highlightEdges();
  highlightAdjacentNodes();
});
]]></script>
</svg>
