<?xml version="1.0" encoding="UTF-8" standalone="no"?>
<!DOCTYPE svg PUBLIC "-//W3C//DTD SVG 1.1//EN"
 "http://www.w3.org/Graphics/SVG/1.1/DTD/svg11.dtd">
<!-- Generated by graphviz version 9.0.0 (20230911.1827)
 -->
<!-- Title: fmpTresTypeGroupDataListAll_c Pages: 1 -->
<svg width="200pt" height="316pt"
 viewBox="0.00 0.00 200.25 315.75" xmlns="http://www.w3.org/2000/svg" xmlns:xlink="http://www.w3.org/1999/xlink">

<svg id="main" version="1.1" xmlns="http://www.w3.org/2000/svg" xmlns:xlink="http://www.w3.org/1999/xlink" xml:space="preserve" onload="init(evt)">
<style type="text/css"><![CDATA[
.node, .edge {opacity: 0.7;}
.node.selected, .edge.selected {opacity: 1;}
.edge:hover path { stroke: red; }
.edge:hover polygon { stroke: red; fill: red; }
]]></style>
<script type="application/ecmascript" xlink:href="svg.min.js"/>
<svg id="graph" class="graph">
<g id="graph0" class="graph" transform="scale(1 1) rotate(0) translate(4 311.75)">
<title>fmpTresTypeGroupDataListAll_c</title>
<!-- Node1 -->
<g id="Node000001" class="node">
<title>Node1</title>
<g id="a_Node000001"><a xlink:title=" ">
<polygon fill="#999999" stroke="#666666" points="141.25,-30.5 5.25,-30.5 5.25,0 141.25,0 141.25,-30.5"/>
<text text-anchor="start" x="13.25" y="-17" font-family="Helvetica,sans-Serif" font-size="10.00">fmpTresTypeGroupDataList</text>
<text text-anchor="middle" x="73.25" y="-5.75" font-family="Helvetica,sans-Serif" font-size="10.00">All_c</text>
</a>
</g>
</g>
<!-- Node2 -->
<g id="Node000002" class="node">
<title>Node2</title>
<g id="a_Node000002"><a xlink:href="classfmpTresTypeGroupDataList__c.html" target="_top" xlink:title=" ">
<polygon fill="white" stroke="#666666" points="146.5,-97 0,-97 0,-77.75 146.5,-77.75 146.5,-97"/>
<text text-anchor="middle" x="73.25" y="-83.5" font-family="Helvetica,sans-Serif" font-size="10.00">fmpTresTypeGroupDataList_c</text>
</a>
</g>
</g>
<!-- Node2&#45;&gt;Node1 -->
<g id="edge1_Node000001_Node000002" class="edge">
<title>Node2&#45;&gt;Node1</title>
<g id="a_edge1_Node000001_Node000002"><a xlink:title=" ">
<path fill="none" stroke="#9a32cd" stroke-dasharray="5,2" d="M73.25,-66.17C73.25,-54.91 73.25,-41.14 73.25,-30.92"/>
<polygon fill="#9a32cd" stroke="#9a32cd" points="69.75,-65.98 73.25,-75.98 76.75,-65.98 69.75,-65.98"/>
</a>
</g>
<text text-anchor="middle" x="114.88" y="-50.25" font-family="Helvetica,sans-Serif" font-size="10.00" fill="grey"> mpTypeGroupData</text>
</g>
<!-- Node3 -->
<g id="Node000003" class="node">
<title>Node3</title>
<g id="a_Node000003"><a xlink:href="classfmpTresTypeGroupData__c.html" target="_top" xlink:title=" ">
<polygon fill="white" stroke="#666666" points="138.25,-174.75 8.25,-174.75 8.25,-155.5 138.25,-155.5 138.25,-174.75"/>
<text text-anchor="middle" x="73.25" y="-161.25" font-family="Helvetica,sans-Serif" font-size="10.00">fmpTresTypeGroupData_c</text>
</a>
</g>
</g>
<!-- Node3&#45;&gt;Node2 -->
<g id="edge2_Node000002_Node000003" class="edge">
<title>Node3&#45;&gt;Node2</title>
<g id="a_edge2_Node000002_Node000003"><a xlink:title=" ">
<path fill="none" stroke="#9a32cd" stroke-dasharray="5,2" d="M73.25,-143.85C73.25,-128.7 73.25,-108.73 73.25,-97.35"/>
<polygon fill="#9a32cd" stroke="#9a32cd" points="69.75,-143.62 73.25,-153.62 76.75,-143.62 69.75,-143.62"/>
</a>
</g>
<text text-anchor="middle" x="125.38" y="-128" font-family="Helvetica,sans-Serif" font-size="10.00" fill="grey"> mpNextData</text>
<text text-anchor="middle" x="125.38" y="-116.75" font-family="Helvetica,sans-Serif" font-size="10.00" fill="grey">mpTypeGroupDataHead</text>
</g>
<!-- Node3&#45;&gt;Node3 -->
<g id="edge5_Node000003_Node000003" class="edge">
<title>Node3&#45;&gt;Node3</title>
<g id="a_edge5_Node000003_Node000003"><a xlink:title=" ">
<path fill="none" stroke="#9a32cd" stroke-dasharray="5,2" d="M149.83,-169.23C153.86,-168.22 156.25,-166.85 156.25,-165.12 156.25,-162.14 149.1,-160.22 138.66,-159.38"/>
<polygon fill="#9a32cd" stroke="#9a32cd" points="149.55,-165.73 140.16,-170.65 150.56,-172.66 149.55,-165.73"/>
</a>
</g>
<text text-anchor="middle" x="174.25" y="-161.25" font-family="Helvetica,sans-Serif" font-size="10.00" fill="grey"> mpNext</text>
</g>
<!-- Node4 -->
<g id="Node000004" class="node">
<title>Node4</title>
<g id="a_Node000004"><a xlink:href="structdTres__c_1_1data__s.html" target="_top" xlink:title=" ">
<polygon fill="white" stroke="#666666" points="115.75,-241.25 30.75,-241.25 30.75,-222 115.75,-222 115.75,-241.25"/>
<text text-anchor="middle" x="73.25" y="-227.75" font-family="Helvetica,sans-Serif" font-size="10.00">dTres_c::data_s</text>
</a>
</g>
</g>
<!-- Node4&#45;&gt;Node3 -->
<g id="edge3_Node000003_Node000004" class="edge">
<title>Node4&#45;&gt;Node3</title>
<g id="a_edge3_Node000003_Node000004"><a xlink:title=" ">
<path fill="none" stroke="#9a32cd" stroke-dasharray="5,2" d="M73.25,-210.15C73.25,-198.32 73.25,-184.04 73.25,-175.02"/>
<polygon fill="#9a32cd" stroke="#9a32cd" points="69.75,-210.14 73.25,-220.14 76.75,-210.14 69.75,-210.14"/>
</a>
</g>
<text text-anchor="middle" x="101" y="-194.5" font-family="Helvetica,sans-Serif" font-size="10.00" fill="grey"> mpTresData</text>
</g>
<!-- Node5 -->
<g id="Node000005" class="node">
<title>Node5</title>
<g id="a_Node000005"><a xlink:href="structVec.html" target="_top" xlink:title=" ">
<polygon fill="white" stroke="#666666" points="89.88,-307.75 56.62,-307.75 56.62,-288.5 89.88,-288.5 89.88,-307.75"/>
<text text-anchor="middle" x="73.25" y="-294.25" font-family="Helvetica,sans-Serif" font-size="10.00">Vec</text>
</a>
</g>
</g>
<!-- Node5&#45;&gt;Node4 -->
<g id="edge4_Node000004_Node000005" class="edge">
<title>Node5&#45;&gt;Node4</title>
<g id="a_edge4_Node000004_Node000005"><a xlink:title=" ">
<path fill="none" stroke="#9a32cd" stroke-dasharray="5,2" d="M73.25,-276.65C73.25,-264.82 73.25,-250.54 73.25,-241.52"/>
<polygon fill="#9a32cd" stroke="#9a32cd" points="69.75,-276.64 73.25,-286.64 76.75,-276.64 69.75,-276.64"/>
</a>
</g>
<text text-anchor="middle" x="87.12" y="-261" font-family="Helvetica,sans-Serif" font-size="10.00" fill="grey"> mPos</text>
</g>
</g>
</svg>
</svg>

<style type='text/css'>
<![CDATA[
[data-mouse-over-selected='false'] { opacity: 0.7; }
[data-mouse-over-selected='true']  { opacity: 1.0; }
]]>
</style>
<script type="application/ecmascript"><![CDATA[
document.addEventListener('DOMContentLoaded', (event) => {
  highlightEdges();
  highlightAdjacentNodes();
});
]]></script>
</svg>
