<?xml version="1.0" encoding="UTF-8" standalone="no"?>
<!DOCTYPE svg PUBLIC "-//W3C//DTD SVG 1.1//EN"
 "http://www.w3.org/Graphics/SVG/1.1/DTD/svg11.dtd">
<!-- Generated by graphviz version 9.0.0 (20230911.1827)
 -->
<!-- Title: mDoExt_3DlineMat0_c Pages: 1 -->
<!--zoomable 420 -->

<svg id="main" version="1.1" xmlns="http://www.w3.org/2000/svg" xmlns:xlink="http://www.w3.org/1999/xlink" xml:space="preserve" onload="init(evt)">
<style type="text/css"><![CDATA[
.node, .edge {opacity: 0.7;}
.node.selected, .edge.selected {opacity: 1;}
.edge:hover path { stroke: red; }
.edge:hover polygon { stroke: red; fill: red; }
]]></style>

<defs>
  <circle id="rim" cx="0" cy="0" r="7"/>
  <circle id="rim2" cx="0" cy="0" r="3.5"/>
  <g id="zoomPlus">
    <use xlink:href="#rim" fill="#404040"><set attributeName="fill" to="#808080" begin="zoomplus.mouseover" end="zoomplus.mouseout"/></use>
    <path d="M-4,0h8M0,-4v8" fill="none" stroke="white" stroke-width="1.5" pointer-events="none"/>
  </g>
  <g id="zoomMin">
    <use xlink:href="#rim" fill="#404040"><set attributeName="fill" to="#808080" begin="zoomminus.mouseover" end="zoomminus.mouseout"/></use>
    <path d="M-4,0h8" fill="none" stroke="white" stroke-width="1.5" pointer-events="none"/>
  </g>
  <g id="arrowUp" transform="translate(30 24)">
    <use xlink:href="#rim"/>
    <path pointer-events="none" fill="none" stroke="white" stroke-width="1.5" d="M0,-3.0v7 M-2.5,-0.5L0,-3.0L2.5,-0.5"/>
  </g>
  <g id="arrowRight" transform="rotate(90) translate(36 -43)">
    <use xlink:href="#rim"/>
    <path pointer-events="none" fill="none" stroke="white" stroke-width="1.5" d="M0,-3.0v7 M-2.5,-0.5L0,-3.0L2.5,-0.5"/>
  </g>
  <g id="arrowDown" transform="rotate(180) translate(-30 -48)">
    <use xlink:href="#rim"/>
    <path pointer-events="none" fill="none" stroke="white" stroke-width="1.5" d="M0,-3.0v7 M-2.5,-0.5L0,-3.0L2.5,-0.5"/>
  </g>
  <g id="arrowLeft" transform="rotate(270) translate(-36 17)">
    <use xlink:href="#rim"/>
    <path pointer-events="none" fill="none" stroke="white" stroke-width="1.5" d="M0,-3.0v7 M-2.5,-0.5L0,-3.0L2.5,-0.5"/>
  </g>
  <g id="resetDef">
    <use xlink:href="#rim2" fill="#404040"><set attributeName="fill" to="#808080" begin="reset.mouseover" end="reset.mouseout"/></use>
  </g>
</defs>
<script type="application/ecmascript">
var viewWidth = 550;
var viewHeight = 420;
var sectionId = 'dynsection-1';
</script>
<script type="application/ecmascript" xlink:href="svg.min.js"/>
<svg id="graph" class="graph">
<g id="viewport">
<title>mDoExt_3DlineMat0_c</title>
<!-- Node1 -->
<g id="Node000001" class="node">
<title>Node1</title>
<g id="a_Node000001"><a xlink:title=" ">
<polygon fill="#999999" stroke="#666666" points="300.62,-19.25 186.38,-19.25 186.38,0 300.62,0 300.62,-19.25"/>
<text text-anchor="middle" x="243.5" y="-5.75" font-family="Helvetica,sans-Serif" font-size="10.00">mDoExt_3DlineMat0_c</text>
</a>
</g>
</g>
<!-- Node2 -->
<g id="Node000002" class="node">
<title>Node2</title>
<g id="a_Node000002"><a xlink:href="classmDoExt__3DlineMat__c.html" target="_top" xlink:title=" ">
<polygon fill="white" stroke="#666666" points="109,-85.75 0,-85.75 0,-66.5 109,-66.5 109,-85.75"/>
<text text-anchor="middle" x="54.5" y="-72.25" font-family="Helvetica,sans-Serif" font-size="10.00">mDoExt_3DlineMat_c</text>
</a>
</g>
</g>
<!-- Node2&#45;&gt;Node1 -->
<g id="edge1_Node000001_Node000002" class="edge">
<title>Node2&#45;&gt;Node1</title>
<g id="a_edge1_Node000001_Node000002"><a xlink:title=" ">
<path fill="none" stroke="#63b8ff" d="M92,-62.33C128.92,-49.73 184.38,-30.8 216.96,-19.68"/>
<polygon fill="#63b8ff" stroke="#63b8ff" points="90.94,-58.99 82.61,-65.53 93.21,-65.61 90.94,-58.99"/>
</a>
</g>
</g>
<!-- Node2&#45;&gt;Node2 -->
<g id="edge2_Node000002_Node000002" class="edge">
<title>Node2&#45;&gt;Node2</title>
<g id="a_edge2_Node000002_Node000002"><a xlink:title=" ">
<path fill="none" stroke="#9a32cd" stroke-dasharray="5,2" d="M120.44,-80.48C124.54,-79.46 127,-78 127,-76.12 127,-72.88 119.62,-70.9 109.2,-70.19"/>
<polygon fill="#9a32cd" stroke="#9a32cd" points="120.11,-77 110.69,-81.85 121.08,-83.93 120.11,-77"/>
</a>
</g>
<text text-anchor="middle" x="146.88" y="-72.25" font-family="Helvetica,sans-Serif" font-size="10.00" fill="grey"> field_0x4</text>
</g>
<!-- Node3 -->
<g id="Node000003" class="node">
<title>Node3</title>
<g id="a_Node000003"><a xlink:href="struct__GXColor.html" target="_top" xlink:title=" ">
<polygon fill="white" stroke="#666666" points="291.5,-412.25 233.5,-412.25 233.5,-393 291.5,-393 291.5,-412.25"/>
<text text-anchor="middle" x="262.5" y="-398.75" font-family="Helvetica,sans-Serif" font-size="10.00">_GXColor</text>
</a>
</g>
</g>
<!-- Node3&#45;&gt;Node1 -->
<g id="edge3_Node000001_Node000003" class="edge">
<title>Node3&#45;&gt;Node1</title>
<g id="a_edge3_Node000001_Node000003"><a xlink:title=" ">
<path fill="none" stroke="#9a32cd" stroke-dasharray="5,2" d="M241.79,-385.26C221.79,-367.46 194.5,-337.01 194.5,-303.38 194.5,-303.38 194.5,-303.38 194.5,-75.12 194.5,-51.36 215.85,-30.86 230.37,-19.68"/>
<polygon fill="#9a32cd" stroke="#9a32cd" points="239.3,-387.74 249.19,-391.54 243.83,-382.4 239.3,-387.74"/>
</a>
</g>
<text text-anchor="middle" x="214.38" y="-196.62" font-family="Helvetica,sans-Serif" font-size="10.00" fill="grey"> field_0x8</text>
</g>
<!-- Node6 -->
<g id="Node000006" class="node">
<title>Node6</title>
<g id="a_Node000006"><a xlink:href="classJ3DLightInfo.html" target="_top" xlink:title=" ">
<polygon fill="white" stroke="#666666" points="388.25,-312 316.75,-312 316.75,-292.75 388.25,-292.75 388.25,-312"/>
<text text-anchor="middle" x="352.5" y="-298.5" font-family="Helvetica,sans-Serif" font-size="10.00">J3DLightInfo</text>
</a>
</g>
</g>
<!-- Node3&#45;&gt;Node6 -->
<g id="edge8_Node000006_Node000003" class="edge">
<title>Node3&#45;&gt;Node6</title>
<g id="a_edge8_Node000006_Node000003"><a xlink:title=" ">
<path fill="none" stroke="#9a32cd" stroke-dasharray="5,2" d="M280.14,-384.64C283.05,-381.54 285.95,-378.25 288.5,-375 303.04,-356.46 300.52,-347.31 316.5,-330 322.72,-323.26 330.86,-317.08 337.82,-312.37"/>
<polygon fill="#9a32cd" stroke="#9a32cd" points="277.77,-382.07 273.23,-391.64 282.75,-386.98 277.77,-382.07"/>
</a>
</g>
<text text-anchor="middle" x="333" y="-348.62" font-family="Helvetica,sans-Serif" font-size="10.00" fill="grey"> mColor</text>
</g>
<!-- Node8 -->
<g id="Node000008" class="node">
<title>Node8</title>
<g id="a_Node000008"><a xlink:href="struct__GXLightObj.html" target="_top" xlink:title=" ">
<polygon fill="white" stroke="#666666" points="298.62,-312 226.38,-312 226.38,-292.75 298.62,-292.75 298.62,-312"/>
<text text-anchor="middle" x="262.5" y="-298.5" font-family="Helvetica,sans-Serif" font-size="10.00">_GXLightObj</text>
</a>
</g>
</g>
<!-- Node3&#45;&gt;Node8 -->
<g id="edge10_Node000008_Node000003" class="edge">
<title>Node3&#45;&gt;Node8</title>
<g id="a_edge10_Node000008_Node000003"><a xlink:title=" ">
<path fill="none" stroke="#9a32cd" stroke-dasharray="5,2" d="M262.5,-381.32C262.5,-360.17 262.5,-327.98 262.5,-312.42"/>
<polygon fill="#9a32cd" stroke="#9a32cd" points="259,-381.04 262.5,-391.04 266,-381.04 259,-381.04"/>
</a>
</g>
<text text-anchor="middle" x="274.12" y="-348.62" font-family="Helvetica,sans-Serif" font-size="10.00" fill="grey"> color</text>
</g>
<!-- Node4 -->
<g id="Node000004" class="node">
<title>Node4</title>
<g id="a_Node000004"><a xlink:href="structdKy__tevstr__c.html" target="_top" xlink:title=" ">
<polygon fill="white" stroke="#666666" points="362,-85.75 289,-85.75 289,-66.5 362,-66.5 362,-85.75"/>
<text text-anchor="middle" x="325.5" y="-72.25" font-family="Helvetica,sans-Serif" font-size="10.00">dKy_tevstr_c</text>
</a>
</g>
</g>
<!-- Node4&#45;&gt;Node1 -->
<g id="edge4_Node000001_Node000004" class="edge">
<title>Node4&#45;&gt;Node1</title>
<g id="a_edge4_Node000001_Node000004"><a xlink:title=" ">
<path fill="none" stroke="#9a32cd" stroke-dasharray="5,2" d="M305.11,-59.08C289.33,-46.67 268.04,-29.93 255.07,-19.73"/>
<polygon fill="#9a32cd" stroke="#9a32cd" points="302.88,-61.79 312.91,-65.22 307.21,-56.29 302.88,-61.79"/>
</a>
</g>
<text text-anchor="middle" x="308.38" y="-39" font-family="Helvetica,sans-Serif" font-size="10.00" fill="grey"> field_0xc</text>
</g>
<!-- Node5 -->
<g id="Node000005" class="node">
<title>Node5</title>
<g id="a_Node000005"><a xlink:href="classJ3DLightObj.html" target="_top" xlink:title=" ">
<polygon fill="white" stroke="#666666" points="322.5,-210.12 252.5,-210.12 252.5,-190.88 322.5,-190.88 322.5,-210.12"/>
<text text-anchor="middle" x="287.5" y="-196.62" font-family="Helvetica,sans-Serif" font-size="10.00">J3DLightObj</text>
</a>
</g>
</g>
<!-- Node5&#45;&gt;Node4 -->
<g id="edge5_Node000004_Node000005" class="edge">
<title>Node5&#45;&gt;Node4</title>
<g id="a_edge5_Node000004_Node000005"><a xlink:title=" ">
<path fill="none" stroke="#9a32cd" stroke-dasharray="5,2" d="M282.61,-179.41C278.79,-159.11 275.94,-127.45 288.25,-103.75 292.13,-96.27 299.19,-90.42 306.12,-86.13"/>
<polygon fill="#9a32cd" stroke="#9a32cd" points="279.14,-179.9 284.67,-188.93 285.98,-178.41 279.14,-179.9"/>
</a>
</g>
<text text-anchor="middle" x="311.12" y="-122.38" font-family="Helvetica,sans-Serif" font-size="10.00" fill="grey"> mLightObj</text>
<text text-anchor="middle" x="311.12" y="-111.12" font-family="Helvetica,sans-Serif" font-size="10.00" fill="grey">mLights</text>
</g>
<!-- Node6&#45;&gt;Node5 -->
<g id="edge6_Node000005_Node000006" class="edge">
<title>Node6&#45;&gt;Node5</title>
<g id="a_edge6_Node000005_Node000006"><a xlink:title=" ">
<path fill="none" stroke="#9a32cd" stroke-dasharray="5,2" d="M340.47,-282.89C326.47,-261.38 303.94,-226.75 293.35,-210.49"/>
<polygon fill="#9a32cd" stroke="#9a32cd" points="337.52,-284.77 345.91,-291.24 343.38,-280.95 337.52,-284.77"/>
</a>
</g>
<text text-anchor="middle" x="348" y="-265.25" font-family="Helvetica,sans-Serif" font-size="10.00" fill="grey"> mInfo</text>
</g>
<!-- Node7 -->
<g id="Node000007" class="node">
<title>Node7</title>
<g id="a_Node000007"><a xlink:href="structVec.html" target="_top" xlink:title=" ">
<polygon fill="white" stroke="#666666" points="426.12,-412.25 392.88,-412.25 392.88,-393 426.12,-393 426.12,-412.25"/>
<text text-anchor="middle" x="409.5" y="-398.75" font-family="Helvetica,sans-Serif" font-size="10.00">Vec</text>
</a>
</g>
</g>
<!-- Node7&#45;&gt;Node6 -->
<g id="edge7_Node000006_Node000007" class="edge">
<title>Node7&#45;&gt;Node6</title>
<g id="a_edge7_Node000006_Node000007"><a xlink:title=" ">
<path fill="none" stroke="#9a32cd" stroke-dasharray="5,2" d="M383.23,-388.43C377.95,-384.73 372.9,-380.24 369.25,-375 355.68,-355.5 352.99,-326.53 352.53,-312.14"/>
<polygon fill="#9a32cd" stroke="#9a32cd" points="381.12,-391.24 391.47,-393.48 384.77,-385.27 381.12,-391.24"/>
</a>
</g>
<text text-anchor="middle" x="402.62" y="-365.5" font-family="Helvetica,sans-Serif" font-size="10.00" fill="grey"> mCosAtten</text>
<text text-anchor="middle" x="402.62" y="-354.25" font-family="Helvetica,sans-Serif" font-size="10.00" fill="grey">mDistAtten</text>
<text text-anchor="middle" x="402.62" y="-343" font-family="Helvetica,sans-Serif" font-size="10.00" fill="grey">mLightDirection</text>
<text text-anchor="middle" x="402.62" y="-331.75" font-family="Helvetica,sans-Serif" font-size="10.00" fill="grey">mLightPosition</text>
</g>
<!-- Node9 -->
<g id="Node000009" class="node">
<title>Node9</title>
<g id="a_Node000009"><a xlink:href="structcXyz.html" target="_top" xlink:title=" ">
<polygon fill="white" stroke="#666666" points="471,-210.12 434,-210.12 434,-190.88 471,-190.88 471,-210.12"/>
<text text-anchor="middle" x="452.5" y="-196.62" font-family="Helvetica,sans-Serif" font-size="10.00">cXyz</text>
</a>
</g>
</g>
<!-- Node7&#45;&gt;Node9 -->
<g id="edge12_Node000009_Node000007" class="edge">
<title>Node7&#45;&gt;Node9</title>
<g id="a_edge12_Node000009_Node000007"><a xlink:title=" ">
<path fill="none" stroke="#63b8ff" d="M430.56,-385.05C433.31,-382 435.76,-378.62 437.5,-375 465.16,-317.51 457.41,-236.92 453.84,-210.37"/>
<polygon fill="#63b8ff" stroke="#63b8ff" points="428.4,-382.28 423.54,-391.7 433.21,-387.37 428.4,-382.28"/>
</a>
</g>
</g>
<!-- Node8&#45;&gt;Node5 -->
<g id="edge9_Node000005_Node000008" class="edge">
<title>Node8&#45;&gt;Node5</title>
<g id="a_edge9_Node000005_Node000008"><a xlink:title=" ">
<path fill="none" stroke="#9a32cd" stroke-dasharray="5,2" d="M267.5,-281.39C272.9,-259.81 281.27,-226.38 285.25,-210.49"/>
<polygon fill="#9a32cd" stroke="#9a32cd" points="264.12,-280.49 265.09,-291.04 270.91,-282.19 264.12,-280.49"/>
</a>
</g>
<text text-anchor="middle" x="294.12" y="-265.25" font-family="Helvetica,sans-Serif" font-size="10.00" fill="grey"> mLightObj</text>
</g>
<!-- Node9&#45;&gt;Node4 -->
<g id="edge11_Node000004_Node000009" class="edge">
<title>Node9&#45;&gt;Node4</title>
<g id="a_edge11_Node000004_Node000009"><a xlink:title=" ">
<path fill="none" stroke="#9a32cd" stroke-dasharray="5,2" d="M444,-180.14C432.82,-155.41 413.1,-114.52 400.5,-103.75 389.68,-94.5 375.43,-88.39 362.25,-84.38"/>
<polygon fill="#9a32cd" stroke="#9a32cd" points="440.73,-181.4 448,-189.11 447.12,-178.55 440.73,-181.4"/>
</a>
</g>
<text text-anchor="middle" x="458.5" y="-122.38" font-family="Helvetica,sans-Serif" font-size="10.00" fill="grey"> field_0x32c</text>
<text text-anchor="middle" x="458.5" y="-111.12" font-family="Helvetica,sans-Serif" font-size="10.00" fill="grey">mLightPosWorld</text>
</g>
<!-- Node9&#45;&gt;Node9 -->
<g id="edge13_Node000009_Node000009" class="edge">
<title>Node9&#45;&gt;Node9</title>
<g id="a_edge13_Node000009_Node000009"><a xlink:title=" ">
<path fill="none" stroke="#9a32cd" stroke-dasharray="5,2" d="M475.09,-213.37C482.8,-213.45 489,-209.16 489,-200.5 489,-187.9 475.88,-184.55 464.09,-190.46"/>
<polygon fill="#9a32cd" stroke="#9a32cd" points="476.11,-210.01 465.55,-210.92 474.37,-216.79 476.11,-210.01"/>
</a>
</g>
<text text-anchor="middle" x="510" y="-236" font-family="Helvetica,sans-Serif" font-size="10.00" fill="grey"> BaseX</text>
<text text-anchor="middle" x="510" y="-224.75" font-family="Helvetica,sans-Serif" font-size="10.00" fill="grey">BaseXY</text>
<text text-anchor="middle" x="510" y="-213.5" font-family="Helvetica,sans-Serif" font-size="10.00" fill="grey">BaseXYZ</text>
<text text-anchor="middle" x="510" y="-202.25" font-family="Helvetica,sans-Serif" font-size="10.00" fill="grey">BaseXZ</text>
<text text-anchor="middle" x="510" y="-191" font-family="Helvetica,sans-Serif" font-size="10.00" fill="grey">BaseY</text>
<text text-anchor="middle" x="510" y="-179.75" font-family="Helvetica,sans-Serif" font-size="10.00" fill="grey">BaseYZ</text>
<text text-anchor="middle" x="510" y="-168.5" font-family="Helvetica,sans-Serif" font-size="10.00" fill="grey">BaseZ</text>
<text text-anchor="middle" x="510" y="-157.25" font-family="Helvetica,sans-Serif" font-size="10.00" fill="grey">Zero</text>
</g>
<!-- Node11 -->
<g id="Node000011" class="node">
<title>Node11</title>
<g id="a_Node000011"><a xlink:href="classmDoExt__3Dline__c.html" target="_top" xlink:title=" ">
<polygon fill="white" stroke="#666666" points="536.75,-85.75 444.25,-85.75 444.25,-66.5 536.75,-66.5 536.75,-85.75"/>
<text text-anchor="middle" x="490.5" y="-72.25" font-family="Helvetica,sans-Serif" font-size="10.00">mDoExt_3Dline_c</text>
</a>
</g>
</g>
<!-- Node9&#45;&gt;Node11 -->
<g id="edge16_Node000011_Node000009" class="edge">
<title>Node9&#45;&gt;Node11</title>
<g id="a_edge16_Node000011_Node000009"><a xlink:title=" ">
<path fill="none" stroke="#9a32cd" stroke-dasharray="5,2" d="M470.43,-182.81C481.44,-171.29 494.53,-154.95 500.5,-137.5 505.35,-123.31 503.18,-118.51 500.5,-103.75 499.37,-97.53 496.87,-90.88 494.65,-85.77"/>
<polygon fill="#9a32cd" stroke="#9a32cd" points="468.28,-180.03 463.65,-189.56 473.21,-184.99 468.28,-180.03"/>
</a>
</g>
<text text-anchor="middle" x="522.38" y="-128" font-family="Helvetica,sans-Serif" font-size="10.00" fill="grey"> field_0x0</text>
<text text-anchor="middle" x="522.38" y="-116.75" font-family="Helvetica,sans-Serif" font-size="10.00" fill="grey">field_0x8</text>
<text text-anchor="middle" x="522.38" y="-105.5" font-family="Helvetica,sans-Serif" font-size="10.00" fill="grey">field_0xc</text>
</g>
<!-- Node10 -->
<g id="Node000010" class="node">
<title>Node10</title>
<g id="a_Node000010"><a xlink:href="struct__GXColorS10.html" target="_top" xlink:title=" ">
<polygon fill="white" stroke="#666666" points="416.12,-210.12 340.88,-210.12 340.88,-190.88 416.12,-190.88 416.12,-210.12"/>
<text text-anchor="middle" x="378.5" y="-196.62" font-family="Helvetica,sans-Serif" font-size="10.00">_GXColorS10</text>
</a>
</g>
</g>
<!-- Node10&#45;&gt;Node4 -->
<g id="edge14_Node000004_Node000010" class="edge">
<title>Node10&#45;&gt;Node4</title>
<g id="a_edge14_Node000004_Node000010"><a xlink:title=" ">
<path fill="none" stroke="#9a32cd" stroke-dasharray="5,2" d="M370.2,-180.33C358.6,-153.55 338,-105.99 329.42,-86.18"/>
<polygon fill="#9a32cd" stroke="#9a32cd" points="366.9,-181.52 374.09,-189.31 373.32,-178.74 366.9,-181.52"/>
</a>
</g>
<text text-anchor="middle" x="373.12" y="-128" font-family="Helvetica,sans-Serif" font-size="10.00" fill="grey"> mColorC0</text>
<text text-anchor="middle" x="373.12" y="-116.75" font-family="Helvetica,sans-Serif" font-size="10.00" fill="grey">mColorK0</text>
<text text-anchor="middle" x="373.12" y="-105.5" font-family="Helvetica,sans-Serif" font-size="10.00" fill="grey">mFogColor</text>
</g>
<!-- Node11&#45;&gt;Node1 -->
<g id="edge15_Node000001_Node000011" class="edge">
<title>Node11&#45;&gt;Node1</title>
<g id="a_edge15_Node000001_Node000011"><a xlink:title=" ">
<path fill="none" stroke="#9a32cd" stroke-dasharray="5,2" d="M444.58,-63.13C396.38,-50.55 321.68,-31.04 278.19,-19.68"/>
<polygon fill="#9a32cd" stroke="#9a32cd" points="443.61,-66.5 454.17,-65.64 445.38,-59.72 443.61,-66.5"/>
</a>
</g>
<text text-anchor="middle" x="404" y="-39" font-family="Helvetica,sans-Serif" font-size="10.00" fill="grey"> field_0x18</text>
</g>
</g>
</svg>

<g id="navigator" transform="translate(0 0)" fill="#404254">
  <rect fill="#f2f5e9" fill-opacity="0.5" stroke="#606060" stroke-width=".5" x="0" y="0" width="60" height="60"/>
  <use id="zoomplus" xlink:href="#zoomPlus" x="17" y="9" onmousedown="handleZoom(evt,'in')"/>
  <use id="zoomminus" xlink:href="#zoomMin" x="42" y="9" onmousedown="handleZoom(evt,'out')"/>
  <use id="reset" xlink:href="#resetDef" x="30" y="36" onmousedown="handleReset()"/>
   <use id="arrowup" xlink:href="#arrowUp" x="0" y="0" onmousedown="handlePan(0,-1)"/>
  <use id="arrowright" xlink:href="#arrowRight" x="0" y="0" onmousedown="handlePan(1,0)"/>
  <use id="arrowdown" xlink:href="#arrowDown" x="0" y="0" onmousedown="handlePan(0,1)"/>
  <use id="arrowleft" xlink:href="#arrowLeft" x="0" y="0" onmousedown="handlePan(-1,0)"/>
</g>
<svg viewBox="0 0 15 15" width="100%" height="30px" preserveAspectRatio="xMaxYMin meet">
 <g id="arrow_out" transform="scale(0.3 0.3)">
  <a xlink:href="classmDoExt__3DlineMat0__c__coll__graph_org.svg" target="_base">
   <rect id="button" ry="5" rx="5" y="6" x="6" height="38" width="38"
        fill="#f2f5e9" fill-opacity="0.5" stroke="#606060" stroke-width="1.0"/>
   <path id="arrow"
     d="M 11.500037,31.436501 C 11.940474,20.09759 22.043105,11.32322 32.158766,21.979434 L 37.068811,17.246167 C 37.068811,17.246167 37.088388,32 37.088388,32 L 22.160133,31.978069 C 22.160133,31.978069 26.997745,27.140456 26.997745,27.140456 C 18.528582,18.264221 13.291696,25.230495 11.500037,31.436501 z"
     style="fill:#404040;"/>
  </a>
 </g>
</svg>

<style type='text/css'>
<![CDATA[
[data-mouse-over-selected='false'] { opacity: 0.7; }
[data-mouse-over-selected='true']  { opacity: 1.0; }
]]>
</style>
<script type="application/ecmascript"><![CDATA[
document.addEventListener('DOMContentLoaded', (event) => {
  highlightEdges();
  highlightAdjacentNodes();
});
]]></script>
</svg>
