<?xml version="1.0" encoding="UTF-8" standalone="no"?>
<!DOCTYPE svg PUBLIC "-//W3C//DTD SVG 1.1//EN"
 "http://www.w3.org/Graphics/SVG/1.1/DTD/svg11.dtd">
<!-- Generated by graphviz version 9.0.0 (20230911.1827)
 -->
<!-- Title: dBgS_SphChk Pages: 1 -->
<svg width="455pt" height="287pt"
 viewBox="0.00 0.00 454.75 287.25" xmlns="http://www.w3.org/2000/svg" xmlns:xlink="http://www.w3.org/1999/xlink">
<g id="graph0" class="graph" transform="scale(1 1) rotate(0) translate(4 283.25)">
<title>dBgS_SphChk</title>
<!-- Node1 -->
<g id="Node000001" class="node">
<title>Node1</title>
<g id="a_Node000001"><a xlink:title=" ">
<polygon fill="#999999" stroke="#666666" points="197.25,-19.25 117.5,-19.25 117.5,0 197.25,0 197.25,-19.25"/>
<text text-anchor="middle" x="157.38" y="-5.75" font-family="Helvetica,sans-Serif" font-size="10.00">dBgS_SphChk</text>
</a>
</g>
</g>
<!-- Node1&#45;&gt;Node1 -->
<g id="edge14_Node000001_Node000001" class="edge">
<title>Node1&#45;&gt;Node1</title>
<g id="a_edge14_Node000001_Node000001"><a xlink:title=" ">
<path fill="none" stroke="#9a32cd" stroke-dasharray="5,2" d="M209,-13.56C212.87,-12.68 215.25,-11.37 215.25,-9.62 215.25,-6.52 207.73,-4.79 197.67,-4.42"/>
<polygon fill="#9a32cd" stroke="#9a32cd" points="208.73,-10.07 199.18,-14.66 209.51,-17.03 208.73,-10.07"/>
</a>
</g>
<text text-anchor="middle" x="239.25" y="-5.75" font-family="Helvetica,sans-Serif" font-size="10.00" fill="grey"> mCallback</text>
</g>
<!-- Node2 -->
<g id="Node000002" class="node">
<title>Node2</title>
<g id="a_Node000002"><a xlink:href="structcM3dGSph.html" target="_top" xlink:title=" ">
<polygon fill="white" stroke="#666666" points="64.75,-75.5 0,-75.5 0,-56.25 64.75,-56.25 64.75,-75.5"/>
<text text-anchor="middle" x="32.38" y="-62" font-family="Helvetica,sans-Serif" font-size="10.00">cM3dGSph</text>
</a>
</g>
</g>
<!-- Node2&#45;&gt;Node1 -->
<g id="edge1_Node000001_Node000002" class="edge">
<title>Node2&#45;&gt;Node1</title>
<g id="a_edge1_Node000001_Node000002"><a xlink:title=" ">
<path fill="none" stroke="#63b8ff" d="M63.78,-51.25C86.48,-41.39 116.53,-28.35 136.38,-19.73"/>
<polygon fill="#63b8ff" stroke="#63b8ff" points="62.47,-48 54.69,-55.19 65.25,-54.42 62.47,-48"/>
</a>
</g>
</g>
<!-- Node3 -->
<g id="Node000003" class="node">
<title>Node3</title>
<g id="a_Node000003"><a xlink:href="structcXyz.html" target="_top" xlink:title=" ">
<polygon fill="white" stroke="#666666" points="50.88,-177.38 13.88,-177.38 13.88,-158.12 50.88,-158.12 50.88,-177.38"/>
<text text-anchor="middle" x="32.38" y="-163.88" font-family="Helvetica,sans-Serif" font-size="10.00">cXyz</text>
</a>
</g>
</g>
<!-- Node3&#45;&gt;Node2 -->
<g id="edge2_Node000002_Node000003" class="edge">
<title>Node3&#45;&gt;Node2</title>
<g id="a_edge2_Node000002_Node000003"><a xlink:title=" ">
<path fill="none" stroke="#9a32cd" stroke-dasharray="5,2" d="M32.38,-146.47C32.38,-124.87 32.38,-91.68 32.38,-75.86"/>
<polygon fill="#9a32cd" stroke="#9a32cd" points="28.88,-146.37 32.38,-156.37 35.88,-146.37 28.88,-146.37"/>
</a>
</g>
<text text-anchor="middle" x="51.88" y="-95.25" font-family="Helvetica,sans-Serif" font-size="10.00" fill="grey"> mCenter</text>
</g>
<!-- Node3&#45;&gt;Node3 -->
<g id="edge4_Node000003_Node000003" class="edge">
<title>Node3&#45;&gt;Node3</title>
<g id="a_edge4_Node000003_Node000003"><a xlink:title=" ">
<path fill="none" stroke="#9a32cd" stroke-dasharray="5,2" d="M54.96,-180.62C62.67,-180.7 68.88,-176.41 68.88,-167.75 68.88,-155.15 55.75,-151.8 43.96,-157.71"/>
<polygon fill="#9a32cd" stroke="#9a32cd" points="55.98,-177.26 45.43,-178.17 54.24,-184.04 55.98,-177.26"/>
</a>
</g>
<text text-anchor="middle" x="89.88" y="-203.25" font-family="Helvetica,sans-Serif" font-size="10.00" fill="grey"> BaseX</text>
<text text-anchor="middle" x="89.88" y="-192" font-family="Helvetica,sans-Serif" font-size="10.00" fill="grey">BaseXY</text>
<text text-anchor="middle" x="89.88" y="-180.75" font-family="Helvetica,sans-Serif" font-size="10.00" fill="grey">BaseXYZ</text>
<text text-anchor="middle" x="89.88" y="-169.5" font-family="Helvetica,sans-Serif" font-size="10.00" fill="grey">BaseXZ</text>
<text text-anchor="middle" x="89.88" y="-158.25" font-family="Helvetica,sans-Serif" font-size="10.00" fill="grey">BaseY</text>
<text text-anchor="middle" x="89.88" y="-147" font-family="Helvetica,sans-Serif" font-size="10.00" fill="grey">BaseYZ</text>
<text text-anchor="middle" x="89.88" y="-135.75" font-family="Helvetica,sans-Serif" font-size="10.00" fill="grey">BaseZ</text>
<text text-anchor="middle" x="89.88" y="-124.5" font-family="Helvetica,sans-Serif" font-size="10.00" fill="grey">Zero</text>
</g>
<!-- Node4 -->
<g id="Node000004" class="node">
<title>Node4</title>
<g id="a_Node000004"><a xlink:href="structVec.html" target="_top" xlink:title=" ">
<polygon fill="white" stroke="#666666" points="49,-279.25 15.75,-279.25 15.75,-260 49,-260 49,-279.25"/>
<text text-anchor="middle" x="32.38" y="-265.75" font-family="Helvetica,sans-Serif" font-size="10.00">Vec</text>
</a>
</g>
</g>
<!-- Node4&#45;&gt;Node3 -->
<g id="edge3_Node000003_Node000004" class="edge">
<title>Node4&#45;&gt;Node3</title>
<g id="a_edge3_Node000003_Node000004"><a xlink:title=" ">
<path fill="none" stroke="#63b8ff" d="M32.38,-248.34C32.38,-226.75 32.38,-193.56 32.38,-177.74"/>
<polygon fill="#63b8ff" stroke="#63b8ff" points="28.88,-248.25 32.38,-258.25 35.88,-248.25 28.88,-248.25"/>
</a>
</g>
</g>
<!-- Node5 -->
<g id="Node000005" class="node">
<title>Node5</title>
<g id="a_Node000005"><a xlink:href="structcBgS__PolyInfo.html" target="_top" xlink:title=" ">
<polygon fill="white" stroke="#666666" points="163.62,-75.5 83.12,-75.5 83.12,-56.25 163.62,-56.25 163.62,-75.5"/>
<text text-anchor="middle" x="123.38" y="-62" font-family="Helvetica,sans-Serif" font-size="10.00">cBgS_PolyInfo</text>
</a>
</g>
</g>
<!-- Node5&#45;&gt;Node1 -->
<g id="edge5_Node000001_Node000005" class="edge">
<title>Node5&#45;&gt;Node1</title>
<g id="a_edge5_Node000001_Node000005"><a xlink:title=" ">
<path fill="none" stroke="#63b8ff" d="M135.09,-46.18C140.78,-37.11 147.34,-26.63 151.87,-19.42"/>
<polygon fill="#63b8ff" stroke="#63b8ff" points="132.14,-44.3 129.79,-54.63 138.07,-48.02 132.14,-44.3"/>
</a>
</g>
</g>
<!-- Node6 -->
<g id="Node000006" class="node">
<title>Node6</title>
<g id="a_Node000006"><a xlink:href="classcBgS__Chk.html" target="_top" xlink:title=" ">
<polygon fill="white" stroke="#666666" points="206.62,-177.38 144.12,-177.38 144.12,-158.12 206.62,-158.12 206.62,-177.38"/>
<text text-anchor="middle" x="175.38" y="-163.88" font-family="Helvetica,sans-Serif" font-size="10.00">cBgS_Chk</text>
</a>
</g>
</g>
<!-- Node6&#45;&gt;Node1 -->
<g id="edge6_Node000001_Node000006" class="edge">
<title>Node6&#45;&gt;Node1</title>
<g id="a_edge6_Node000001_Node000006"><a xlink:title=" ">
<path fill="none" stroke="#63b8ff" d="M176.57,-146.48C177.48,-124.19 177.8,-87.39 172.38,-56.25 170.09,-43.11 164.8,-28.57 161.16,-19.52"/>
<polygon fill="#63b8ff" stroke="#63b8ff" points="173.09,-146.11 176.08,-156.27 180.08,-146.46 173.09,-146.11"/>
</a>
</g>
</g>
<!-- Node7 -->
<g id="Node000007" class="node">
<title>Node7</title>
<g id="a_Node000007"><a xlink:href="classcBgS__PolyPassChk.html" target="_top" xlink:title=" ">
<polygon fill="white" stroke="#666666" points="248.25,-279.25 144.5,-279.25 144.5,-260 248.25,-260 248.25,-279.25"/>
<text text-anchor="middle" x="196.38" y="-265.75" font-family="Helvetica,sans-Serif" font-size="10.00">cBgS_PolyPassChk</text>
</a>
</g>
</g>
<!-- Node7&#45;&gt;Node6 -->
<g id="edge7_Node000006_Node000007" class="edge">
<title>Node7&#45;&gt;Node6</title>
<g id="a_edge7_Node000006_Node000007"><a xlink:title=" ">
<path fill="none" stroke="#9a32cd" stroke-dasharray="5,2" d="M188.58,-249.29C187.76,-246.86 187,-244.39 186.38,-242 180.43,-219.1 177.35,-191.28 176.08,-177.44"/>
<polygon fill="#9a32cd" stroke="#9a32cd" points="185.24,-250.36 192.03,-258.48 191.79,-247.89 185.24,-250.36"/>
</a>
</g>
<text text-anchor="middle" x="220.88" y="-232.5" font-family="Helvetica,sans-Serif" font-size="10.00" fill="grey"> mPolyPassChk</text>
</g>
<!-- Node10 -->
<g id="Node000010" class="node">
<title>Node10</title>
<g id="a_Node000010"><a xlink:href="structdBgS__PolyPassChk.html" target="_top" xlink:title=" ">
<polygon fill="white" stroke="#666666" points="328.25,-177.38 224.5,-177.38 224.5,-158.12 328.25,-158.12 328.25,-177.38"/>
<text text-anchor="middle" x="276.38" y="-163.88" font-family="Helvetica,sans-Serif" font-size="10.00">dBgS_PolyPassChk</text>
</a>
</g>
</g>
<!-- Node7&#45;&gt;Node10 -->
<g id="edge11_Node000010_Node000007" class="edge">
<title>Node7&#45;&gt;Node10</title>
<g id="a_edge11_Node000010_Node000007"><a xlink:title=" ">
<path fill="none" stroke="#63b8ff" d="M239.54,-254.6C245.46,-251.21 251,-247.06 255.38,-242 271.64,-223.19 275.34,-192.5 276.16,-177.53"/>
<polygon fill="#63b8ff" stroke="#63b8ff" points="238.15,-251.38 230.72,-258.94 241.24,-257.67 238.15,-251.38"/>
</a>
</g>
</g>
<!-- Node8 -->
<g id="Node000008" class="node">
<title>Node8</title>
<g id="a_Node000008"><a xlink:href="classcBgS__GrpPassChk.html" target="_top" xlink:title=" ">
<polygon fill="white" stroke="#666666" points="405.75,-279.25 305,-279.25 305,-260 405.75,-260 405.75,-279.25"/>
<text text-anchor="middle" x="355.38" y="-265.75" font-family="Helvetica,sans-Serif" font-size="10.00">cBgS_GrpPassChk</text>
</a>
</g>
</g>
<!-- Node8&#45;&gt;Node6 -->
<g id="edge8_Node000006_Node000008" class="edge">
<title>Node8&#45;&gt;Node6</title>
<g id="a_edge8_Node000006_Node000008"><a xlink:title=" ">
<path fill="none" stroke="#9a32cd" stroke-dasharray="5,2" d="M321.59,-255.36C280.91,-239.35 217.7,-214.36 215.38,-212.75 201.29,-202.98 188.65,-187.38 181.51,-177.62"/>
<polygon fill="#9a32cd" stroke="#9a32cd" points="320.15,-258.55 330.74,-258.95 322.71,-252.04 320.15,-258.55"/>
</a>
</g>
<text text-anchor="middle" x="319.38" y="-232.5" font-family="Helvetica,sans-Serif" font-size="10.00" fill="grey"> mGrpPassChk</text>
</g>
<!-- Node11 -->
<g id="Node000011" class="node">
<title>Node11</title>
<g id="a_Node000011"><a xlink:href="classdBgS__GrpPassChk.html" target="_top" xlink:title=" ">
<polygon fill="white" stroke="#666666" points="446.75,-177.38 346,-177.38 346,-158.12 446.75,-158.12 446.75,-177.38"/>
<text text-anchor="middle" x="396.38" y="-163.88" font-family="Helvetica,sans-Serif" font-size="10.00">dBgS_GrpPassChk</text>
</a>
</g>
</g>
<!-- Node8&#45;&gt;Node11 -->
<g id="edge13_Node000011_Node000008" class="edge">
<title>Node8&#45;&gt;Node11</title>
<g id="a_edge13_Node000011_Node000008"><a xlink:title=" ">
<path fill="none" stroke="#63b8ff" d="M373.23,-251.24C375.55,-248.33 377.7,-245.21 379.38,-242 390.48,-220.7 394.41,-192.18 395.73,-177.82"/>
<polygon fill="#63b8ff" stroke="#63b8ff" points="370.72,-248.79 366.59,-258.55 375.9,-253.5 370.72,-248.79"/>
</a>
</g>
</g>
<!-- Node9 -->
<g id="Node000009" class="node">
<title>Node9</title>
<g id="a_Node000009"><a xlink:href="classdBgS__Chk.html" target="_top" xlink:title=" ">
<polygon fill="white" stroke="#666666" points="307.62,-75.5 245.12,-75.5 245.12,-56.25 307.62,-56.25 307.62,-75.5"/>
<text text-anchor="middle" x="276.38" y="-62" font-family="Helvetica,sans-Serif" font-size="10.00">dBgS_Chk</text>
</a>
</g>
</g>
<!-- Node9&#45;&gt;Node1 -->
<g id="edge9_Node000001_Node000009" class="edge">
<title>Node9&#45;&gt;Node1</title>
<g id="a_edge9_Node000001_Node000009"><a xlink:title=" ">
<path fill="none" stroke="#63b8ff" d="M246.19,-51.11C224.61,-41.28 196.17,-28.31 177.36,-19.73"/>
<polygon fill="#63b8ff" stroke="#63b8ff" points="244.53,-54.2 255.08,-55.17 247.43,-47.83 244.53,-54.2"/>
</a>
</g>
</g>
<!-- Node10&#45;&gt;Node9 -->
<g id="edge10_Node000009_Node000010" class="edge">
<title>Node10&#45;&gt;Node9</title>
<g id="a_edge10_Node000009_Node000010"><a xlink:title=" ">
<path fill="none" stroke="#63b8ff" d="M276.38,-146.47C276.38,-124.87 276.38,-91.68 276.38,-75.86"/>
<polygon fill="#63b8ff" stroke="#63b8ff" points="272.88,-146.37 276.38,-156.37 279.88,-146.37 272.88,-146.37"/>
</a>
</g>
</g>
<!-- Node11&#45;&gt;Node9 -->
<g id="edge12_Node000009_Node000011" class="edge">
<title>Node11&#45;&gt;Node9</title>
<g id="a_edge12_Node000009_Node000011"><a xlink:title=" ">
<path fill="none" stroke="#63b8ff" d="M376.93,-150.56C351.39,-129.31 307.43,-92.72 287.17,-75.86"/>
<polygon fill="#63b8ff" stroke="#63b8ff" points="374.64,-153.21 384.56,-156.92 379.12,-147.83 374.64,-153.21"/>
</a>
</g>
</g>
</g>
</svg>
