<?xml version="1.0" encoding="UTF-8" standalone="no"?>
<!DOCTYPE svg PUBLIC "-//W3C//DTD SVG 1.1//EN"
 "http://www.w3.org/Graphics/SVG/1.1/DTD/svg11.dtd">
<!-- Generated by graphviz version 9.0.0 (20230911.1827)
 -->
<!-- Title: dBgS_ObjGndChk_Wtr Pages: 1 -->
<svg width="410pt" height="304pt"
 viewBox="0.00 0.00 409.62 303.50" xmlns="http://www.w3.org/2000/svg" xmlns:xlink="http://www.w3.org/1999/xlink">

<svg id="main" version="1.1" xmlns="http://www.w3.org/2000/svg" xmlns:xlink="http://www.w3.org/1999/xlink" xml:space="preserve" onload="init(evt)">
<style type="text/css"><![CDATA[
.node, .edge {opacity: 0.7;}
.node.selected, .edge.selected {opacity: 1;}
.edge:hover path { stroke: red; }
.edge:hover polygon { stroke: red; fill: red; }
]]></style>
<script type="application/ecmascript" xlink:href="svg.min.js"/>
<svg id="graph" class="graph">
<g id="graph0" class="graph" transform="scale(1 1) rotate(0) translate(4 299.5)">
<title>dBgS_ObjGndChk_Wtr</title>
<!-- Node1 -->
<g id="Node000001" class="node">
<title>Node1</title>
<g id="a_Node000001"><a xlink:title=" ">
<polygon fill="#999999" stroke="#666666" points="234.12,-19.25 118.38,-19.25 118.38,0 234.12,0 234.12,-19.25"/>
<text text-anchor="middle" x="176.25" y="-5.75" font-family="Helvetica,sans-Serif" font-size="10.00">dBgS_ObjGndChk_Wtr</text>
</a>
</g>
</g>
<!-- Node2 -->
<g id="Node000002" class="node">
<title>Node2</title>
<g id="a_Node000002"><a xlink:href="structdBgS__ObjGndChk.html" target="_top" xlink:title=" ">
<polygon fill="white" stroke="#666666" points="224,-74.5 128.5,-74.5 128.5,-55.25 224,-55.25 224,-74.5"/>
<text text-anchor="middle" x="176.25" y="-61" font-family="Helvetica,sans-Serif" font-size="10.00">dBgS_ObjGndChk</text>
</a>
</g>
</g>
<!-- Node2&#45;&gt;Node1 -->
<g id="edge1_Node000001_Node000002" class="edge">
<title>Node2&#45;&gt;Node1</title>
<g id="a_edge1_Node000001_Node000002"><a xlink:title=" ">
<path fill="none" stroke="#63b8ff" d="M176.25,-43.63C176.25,-35.34 176.25,-26.17 176.25,-19.61"/>
<polygon fill="#63b8ff" stroke="#63b8ff" points="172.75,-43.57 176.25,-53.57 179.75,-43.57 172.75,-43.57"/>
</a>
</g>
</g>
<!-- Node3 -->
<g id="Node000003" class="node">
<title>Node3</title>
<g id="a_Node000003"><a xlink:href="structdBgS__GndChk.html" target="_top" xlink:title=" ">
<polygon fill="white" stroke="#666666" points="216.5,-129.75 136,-129.75 136,-110.5 216.5,-110.5 216.5,-129.75"/>
<text text-anchor="middle" x="176.25" y="-116.25" font-family="Helvetica,sans-Serif" font-size="10.00">dBgS_GndChk</text>
</a>
</g>
</g>
<!-- Node3&#45;&gt;Node2 -->
<g id="edge2_Node000002_Node000003" class="edge">
<title>Node3&#45;&gt;Node2</title>
<g id="a_edge2_Node000002_Node000003"><a xlink:title=" ">
<path fill="none" stroke="#63b8ff" d="M176.25,-98.88C176.25,-90.59 176.25,-81.42 176.25,-74.86"/>
<polygon fill="#63b8ff" stroke="#63b8ff" points="172.75,-98.82 176.25,-108.82 179.75,-98.82 172.75,-98.82"/>
</a>
</g>
</g>
<!-- Node4 -->
<g id="Node000004" class="node">
<title>Node4</title>
<g id="a_Node000004"><a xlink:href="structcBgS__GndChk.html" target="_top" xlink:title=" ">
<polygon fill="white" stroke="#666666" points="161.5,-185 81,-185 81,-165.75 161.5,-165.75 161.5,-185"/>
<text text-anchor="middle" x="121.25" y="-171.5" font-family="Helvetica,sans-Serif" font-size="10.00">cBgS_GndChk</text>
</a>
</g>
</g>
<!-- Node4&#45;&gt;Node3 -->
<g id="edge3_Node000003_Node000004" class="edge">
<title>Node4&#45;&gt;Node3</title>
<g id="a_edge3_Node000003_Node000004"><a xlink:title=" ">
<path fill="none" stroke="#63b8ff" d="M138.6,-157.57C148,-148.48 159.23,-137.6 166.97,-130.11"/>
<polygon fill="#63b8ff" stroke="#63b8ff" points="136.17,-155.06 131.42,-164.53 141.04,-160.09 136.17,-155.06"/>
</a>
</g>
</g>
<!-- Node5 -->
<g id="Node000005" class="node">
<title>Node5</title>
<g id="a_Node000005"><a xlink:href="classcBgS__Chk.html" target="_top" xlink:title=" ">
<polygon fill="white" stroke="#666666" points="62.5,-240.25 0,-240.25 0,-221 62.5,-221 62.5,-240.25"/>
<text text-anchor="middle" x="31.25" y="-226.75" font-family="Helvetica,sans-Serif" font-size="10.00">cBgS_Chk</text>
</a>
</g>
</g>
<!-- Node5&#45;&gt;Node4 -->
<g id="edge4_Node000004_Node000005" class="edge">
<title>Node5&#45;&gt;Node4</title>
<g id="a_edge4_Node000004_Node000005"><a xlink:title=" ">
<path fill="none" stroke="#63b8ff" d="M56.27,-214.82C72.19,-205.4 92.31,-193.5 105.91,-185.45"/>
<polygon fill="#63b8ff" stroke="#63b8ff" points="54.64,-211.72 47.82,-219.82 58.21,-217.74 54.64,-211.72"/>
</a>
</g>
</g>
<!-- Node6 -->
<g id="Node000006" class="node">
<title>Node6</title>
<g id="a_Node000006"><a xlink:href="structcBgS__PolyInfo.html" target="_top" xlink:title=" ">
<polygon fill="white" stroke="#666666" points="161.5,-240.25 81,-240.25 81,-221 161.5,-221 161.5,-240.25"/>
<text text-anchor="middle" x="121.25" y="-226.75" font-family="Helvetica,sans-Serif" font-size="10.00">cBgS_PolyInfo</text>
</a>
</g>
</g>
<!-- Node6&#45;&gt;Node4 -->
<g id="edge5_Node000004_Node000006" class="edge">
<title>Node6&#45;&gt;Node4</title>
<g id="a_edge5_Node000004_Node000006"><a xlink:title=" ">
<path fill="none" stroke="#63b8ff" d="M121.25,-209.38C121.25,-201.09 121.25,-191.92 121.25,-185.36"/>
<polygon fill="#63b8ff" stroke="#63b8ff" points="117.75,-209.32 121.25,-219.32 124.75,-209.32 117.75,-209.32"/>
</a>
</g>
</g>
<!-- Node7 -->
<g id="Node000007" class="node">
<title>Node7</title>
<g id="a_Node000007"><a xlink:href="classdBgS__Chk.html" target="_top" xlink:title=" ">
<polygon fill="white" stroke="#666666" points="262.5,-185 200,-185 200,-165.75 262.5,-165.75 262.5,-185"/>
<text text-anchor="middle" x="231.25" y="-171.5" font-family="Helvetica,sans-Serif" font-size="10.00">dBgS_Chk</text>
</a>
</g>
</g>
<!-- Node7&#45;&gt;Node3 -->
<g id="edge6_Node000003_Node000007" class="edge">
<title>Node7&#45;&gt;Node3</title>
<g id="a_edge6_Node000003_Node000007"><a xlink:title=" ">
<path fill="none" stroke="#63b8ff" d="M213.9,-157.57C204.5,-148.48 193.27,-137.6 185.53,-130.11"/>
<polygon fill="#63b8ff" stroke="#63b8ff" points="211.46,-160.09 221.08,-164.53 216.33,-155.06 211.46,-160.09"/>
</a>
</g>
</g>
<!-- Node8 -->
<g id="Node000008" class="node">
<title>Node8</title>
<g id="a_Node000008"><a xlink:href="structdBgS__PolyPassChk.html" target="_top" xlink:title=" ">
<polygon fill="white" stroke="#666666" points="283.12,-240.25 179.38,-240.25 179.38,-221 283.12,-221 283.12,-240.25"/>
<text text-anchor="middle" x="231.25" y="-226.75" font-family="Helvetica,sans-Serif" font-size="10.00">dBgS_PolyPassChk</text>
</a>
</g>
</g>
<!-- Node8&#45;&gt;Node7 -->
<g id="edge7_Node000007_Node000008" class="edge">
<title>Node8&#45;&gt;Node7</title>
<g id="a_edge7_Node000007_Node000008"><a xlink:title=" ">
<path fill="none" stroke="#63b8ff" d="M231.25,-209.38C231.25,-201.09 231.25,-191.92 231.25,-185.36"/>
<polygon fill="#63b8ff" stroke="#63b8ff" points="227.75,-209.32 231.25,-219.32 234.75,-209.32 227.75,-209.32"/>
</a>
</g>
</g>
<!-- Node9 -->
<g id="Node000009" class="node">
<title>Node9</title>
<g id="a_Node000009"><a xlink:href="classcBgS__PolyPassChk.html" target="_top" xlink:title=" ">
<polygon fill="white" stroke="#666666" points="283.12,-295.5 179.38,-295.5 179.38,-276.25 283.12,-276.25 283.12,-295.5"/>
<text text-anchor="middle" x="231.25" y="-282" font-family="Helvetica,sans-Serif" font-size="10.00">cBgS_PolyPassChk</text>
</a>
</g>
</g>
<!-- Node9&#45;&gt;Node8 -->
<g id="edge8_Node000008_Node000009" class="edge">
<title>Node9&#45;&gt;Node8</title>
<g id="a_edge8_Node000008_Node000009"><a xlink:title=" ">
<path fill="none" stroke="#63b8ff" d="M231.25,-264.63C231.25,-256.34 231.25,-247.17 231.25,-240.61"/>
<polygon fill="#63b8ff" stroke="#63b8ff" points="227.75,-264.57 231.25,-274.57 234.75,-264.57 227.75,-264.57"/>
</a>
</g>
</g>
<!-- Node10 -->
<g id="Node000010" class="node">
<title>Node10</title>
<g id="a_Node000010"><a xlink:href="classdBgS__GrpPassChk.html" target="_top" xlink:title=" ">
<polygon fill="white" stroke="#666666" points="401.62,-240.25 300.88,-240.25 300.88,-221 401.62,-221 401.62,-240.25"/>
<text text-anchor="middle" x="351.25" y="-226.75" font-family="Helvetica,sans-Serif" font-size="10.00">dBgS_GrpPassChk</text>
</a>
</g>
</g>
<!-- Node10&#45;&gt;Node7 -->
<g id="edge9_Node000007_Node000010" class="edge">
<title>Node10&#45;&gt;Node7</title>
<g id="a_edge9_Node000007_Node000010"><a xlink:title=" ">
<path fill="none" stroke="#63b8ff" d="M320.59,-216.02C298.98,-206.43 270.62,-193.84 251.71,-185.45"/>
<polygon fill="#63b8ff" stroke="#63b8ff" points="318.95,-219.12 329.51,-219.98 321.79,-212.72 318.95,-219.12"/>
</a>
</g>
</g>
<!-- Node11 -->
<g id="Node000011" class="node">
<title>Node11</title>
<g id="a_Node000011"><a xlink:href="classcBgS__GrpPassChk.html" target="_top" xlink:title=" ">
<polygon fill="white" stroke="#666666" points="401.62,-295.5 300.88,-295.5 300.88,-276.25 401.62,-276.25 401.62,-295.5"/>
<text text-anchor="middle" x="351.25" y="-282" font-family="Helvetica,sans-Serif" font-size="10.00">cBgS_GrpPassChk</text>
</a>
</g>
</g>
<!-- Node11&#45;&gt;Node10 -->
<g id="edge10_Node000010_Node000011" class="edge">
<title>Node11&#45;&gt;Node10</title>
<g id="a_edge10_Node000010_Node000011"><a xlink:title=" ">
<path fill="none" stroke="#63b8ff" d="M351.25,-264.63C351.25,-256.34 351.25,-247.17 351.25,-240.61"/>
<polygon fill="#63b8ff" stroke="#63b8ff" points="347.75,-264.57 351.25,-274.57 354.75,-264.57 347.75,-264.57"/>
</a>
</g>
</g>
</g>
</svg>
</svg>

<style type='text/css'>
<![CDATA[
[data-mouse-over-selected='false'] { opacity: 0.7; }
[data-mouse-over-selected='true']  { opacity: 1.0; }
]]>
</style>
<script type="application/ecmascript"><![CDATA[
document.addEventListener('DOMContentLoaded', (event) => {
  highlightEdges();
  highlightAdjacentNodes();
});
]]></script>
</svg>
