<?xml version="1.0" encoding="UTF-8" standalone="no"?>
<!DOCTYPE svg PUBLIC "-//W3C//DTD SVG 1.1//EN"
 "http://www.w3.org/Graphics/SVG/1.1/DTD/svg11.dtd">
<!-- Generated by graphviz version 9.0.0 (20230911.1827)
 -->
<!-- Title: J2DWindow Pages: 1 -->
<svg width="772pt" height="472pt"
 viewBox="0.00 0.00 772.25 472.25" xmlns="http://www.w3.org/2000/svg" xmlns:xlink="http://www.w3.org/1999/xlink">
<g id="graph0" class="graph" transform="scale(1 1) rotate(0) translate(4 468.25)">
<title>J2DWindow</title>
<!-- Node1 -->
<g id="Node000001" class="node">
<title>Node1</title>
<g id="a_Node000001"><a xlink:title=" ">
<polygon fill="#999999" stroke="#666666" points="519.62,-19.25 451.88,-19.25 451.88,0 519.62,0 519.62,-19.25"/>
<text text-anchor="middle" x="485.75" y="-5.75" font-family="Helvetica,sans-Serif" font-size="10.00">J2DWindow</text>
</a>
</g>
</g>
<!-- Node2 -->
<g id="Node000002" class="node">
<title>Node2</title>
<g id="a_Node000002"><a xlink:href="classJ2DPane.html" target="_top" xlink:title=" ">
<polygon fill="white" stroke="#666666" points="304.62,-142 248.88,-142 248.88,-122.75 304.62,-122.75 304.62,-142"/>
<text text-anchor="middle" x="276.75" y="-128.5" font-family="Helvetica,sans-Serif" font-size="10.00">J2DPane</text>
</a>
</g>
</g>
<!-- Node2&#45;&gt;Node1 -->
<g id="edge1_Node000001_Node000002" class="edge">
<title>Node2&#45;&gt;Node1</title>
<g id="a_edge1_Node000001_Node000002"><a xlink:title=" ">
<path fill="none" stroke="#63b8ff" d="M302.34,-116.59C346.19,-91.26 434.37,-40.31 470.14,-19.64"/>
<polygon fill="#63b8ff" stroke="#63b8ff" points="300.68,-113.51 293.77,-121.54 304.18,-119.57 300.68,-113.51"/>
</a>
</g>
</g>
<!-- Node3 -->
<g id="Node000003" class="node">
<title>Node3</title>
<g id="a_Node000003"><a xlink:href="structJGeometry_1_1TBox2.html" target="_top" xlink:title=" ">
<polygon fill="white" stroke="#666666" points="125.5,-242.25 0,-242.25 0,-223 125.5,-223 125.5,-242.25"/>
<text text-anchor="middle" x="62.75" y="-228.75" font-family="Helvetica,sans-Serif" font-size="10.00">JGeometry::TBox2&lt; f32 &gt;</text>
</a>
</g>
</g>
<!-- Node3&#45;&gt;Node1 -->
<g id="edge20_Node000001_Node000003" class="edge">
<title>Node3&#45;&gt;Node1</title>
<g id="a_edge20_Node000001_Node000003"><a xlink:title=" ">
<path fill="none" stroke="#9a32cd" stroke-dasharray="5,2" d="M63.41,-211.19C64.89,-195.66 69.11,-174.55 80.75,-160 156.33,-65.51 208.72,-74.77 323.75,-37.25 366.56,-23.28 418.24,-16.42 451.53,-13.2"/>
<polygon fill="#9a32cd" stroke="#9a32cd" points="59.92,-210.96 62.8,-221.15 66.9,-211.39 59.92,-210.96"/>
</a>
</g>
<text text-anchor="middle" x="139.88" y="-128.5" font-family="Helvetica,sans-Serif" font-size="10.00" fill="grey"> field_0x114</text>
</g>
<!-- Node3&#45;&gt;Node2 -->
<g id="edge2_Node000002_Node000003" class="edge">
<title>Node3&#45;&gt;Node2</title>
<g id="a_edge2_Node000002_Node000003"><a xlink:title=" ">
<path fill="none" stroke="#9a32cd" stroke-dasharray="5,2" d="M75.4,-214.14C88.45,-197.47 110.36,-173.04 135.25,-160 171.34,-141.09 218.84,-135.47 248.58,-133.88"/>
<polygon fill="#9a32cd" stroke="#9a32cd" points="72.92,-211.61 69.7,-221.7 78.51,-215.82 72.92,-211.61"/>
</a>
</g>
<text text-anchor="middle" x="171" y="-195.5" font-family="Helvetica,sans-Serif" font-size="10.00" fill="grey"> mBounds</text>
<text text-anchor="middle" x="171" y="-184.25" font-family="Helvetica,sans-Serif" font-size="10.00" fill="grey">mClipRect</text>
<text text-anchor="middle" x="171" y="-173" font-family="Helvetica,sans-Serif" font-size="10.00" fill="grey">mGlobalBounds</text>
<text text-anchor="middle" x="171" y="-161.75" font-family="Helvetica,sans-Serif" font-size="10.00" fill="grey">static_mBounds</text>
</g>
<!-- Node4 -->
<g id="Node000004" class="node">
<title>Node4</title>
<g id="a_Node000004"><a xlink:href="structJGeometry_1_1TBox.html" target="_top" xlink:title=" ">
<polygon fill="white" stroke="#666666" points="119.12,-308.75 6.38,-308.75 6.38,-289.5 119.12,-289.5 119.12,-308.75"/>
<text text-anchor="middle" x="62.75" y="-295.25" font-family="Helvetica,sans-Serif" font-size="10.00">JGeometry::TBox&lt; T &gt;</text>
</a>
</g>
</g>
<!-- Node4&#45;&gt;Node3 -->
<g id="edge3_Node000003_Node000004" class="edge">
<title>Node4&#45;&gt;Node3</title>
<g id="a_edge3_Node000003_Node000004"><a xlink:title=" ">
<path fill="none" stroke="#63b8ff" d="M62.75,-277.65C62.75,-265.82 62.75,-251.54 62.75,-242.52"/>
<polygon fill="#63b8ff" stroke="#63b8ff" points="59.25,-277.64 62.75,-287.64 66.25,-277.64 59.25,-277.64"/>
</a>
</g>
</g>
<!-- Node5 -->
<g id="Node000005" class="node">
<title>Node5</title>
<g id="a_Node000005"><a xlink:href="classJSUTree.html" target="_top" xlink:title=" ">
<polygon fill="white" stroke="#666666" points="254.38,-242.25 143.12,-242.25 143.12,-223 254.38,-223 254.38,-242.25"/>
<text text-anchor="middle" x="198.75" y="-228.75" font-family="Helvetica,sans-Serif" font-size="10.00">JSUTree&lt; J2DPane &gt;</text>
</a>
</g>
</g>
<!-- Node5&#45;&gt;Node2 -->
<g id="edge4_Node000002_Node000005" class="edge">
<title>Node5&#45;&gt;Node2</title>
<g id="a_edge4_Node000002_Node000005"><a xlink:title=" ">
<path fill="none" stroke="#9a32cd" stroke-dasharray="5,2" d="M205.33,-212.38C211.32,-196.92 221.37,-175.33 235.25,-160 241.69,-152.89 250.43,-146.91 258.24,-142.42"/>
<polygon fill="#9a32cd" stroke="#9a32cd" points="202.18,-210.79 202.05,-221.38 208.76,-213.18 202.18,-210.79"/>
</a>
</g>
<text text-anchor="middle" x="262" y="-178.62" font-family="Helvetica,sans-Serif" font-size="10.00" fill="grey"> mPaneTree</text>
</g>
<!-- Node6 -->
<g id="Node000006" class="node">
<title>Node6</title>
<g id="a_Node000006"><a xlink:href="classJSUList.html" target="_top" xlink:title=" ">
<polygon fill="white" stroke="#666666" points="192,-346 117.5,-346 117.5,-326.75 192,-326.75 192,-346"/>
<text text-anchor="middle" x="154.75" y="-332.5" font-family="Helvetica,sans-Serif" font-size="10.00">JSUList&lt; T &gt;</text>
</a>
</g>
</g>
<!-- Node6&#45;&gt;Node5 -->
<g id="edge5_Node000005_Node000006" class="edge">
<title>Node6&#45;&gt;Node5</title>
<g id="a_edge5_Node000005_Node000006"><a xlink:title=" ">
<path fill="none" stroke="#63b8ff" d="M162.57,-316.15C165.96,-307.92 170,-298.22 173.75,-289.5 180.9,-272.91 189.58,-253.71 194.6,-242.69"/>
<polygon fill="#63b8ff" stroke="#63b8ff" points="159.44,-314.57 158.89,-325.15 165.92,-317.22 159.44,-314.57"/>
</a>
</g>
</g>
<!-- Node7 -->
<g id="Node000007" class="node">
<title>Node7</title>
<g id="a_Node000007"><a xlink:href="classJSUPtrList.html" target="_top" xlink:title=" ">
<polygon fill="white" stroke="#666666" points="220.12,-464.25 155.38,-464.25 155.38,-445 220.12,-445 220.12,-464.25"/>
<text text-anchor="middle" x="187.75" y="-450.75" font-family="Helvetica,sans-Serif" font-size="10.00">JSUPtrList</text>
</a>
</g>
</g>
<!-- Node7&#45;&gt;Node6 -->
<g id="edge6_Node000006_Node000007" class="edge">
<title>Node7&#45;&gt;Node6</title>
<g id="a_edge6_Node000006_Node000007"><a xlink:title=" ">
<path fill="none" stroke="#63b8ff" d="M180.19,-434.22C179.33,-431.81 178.49,-429.35 177.75,-427 168.58,-397.89 160.35,-362.62 156.72,-346.37"/>
<polygon fill="#63b8ff" stroke="#63b8ff" points="176.85,-435.29 183.64,-443.42 183.4,-432.82 176.85,-435.29"/>
</a>
</g>
</g>
<!-- Node8 -->
<g id="Node000008" class="node">
<title>Node8</title>
<g id="a_Node000008"><a xlink:href="classJSUPtrLink.html" target="_top" xlink:title=" ">
<polygon fill="white" stroke="#666666" points="254.25,-384.88 187.25,-384.88 187.25,-365.62 254.25,-365.62 254.25,-384.88"/>
<text text-anchor="middle" x="220.75" y="-371.38" font-family="Helvetica,sans-Serif" font-size="10.00">JSUPtrLink</text>
</a>
</g>
</g>
<!-- Node7&#45;&gt;Node8 -->
<g id="edge8_Node000008_Node000007" class="edge">
<title>Node7&#45;&gt;Node8</title>
<g id="a_edge8_Node000008_Node000007"><a xlink:title=" ">
<path fill="none" stroke="#9a32cd" stroke-dasharray="5,2" d="M182.18,-433.81C180.63,-424.49 180.38,-413.48 184.75,-404.5 188.71,-396.36 196.28,-389.86 203.47,-385.17"/>
<polygon fill="#9a32cd" stroke="#9a32cd" points="178.71,-434.34 184.37,-443.3 185.53,-432.77 178.71,-434.34"/>
</a>
</g>
<text text-anchor="middle" x="198.25" y="-411.88" font-family="Helvetica,sans-Serif" font-size="10.00" fill="grey"> mList</text>
</g>
<!-- Node8&#45;&gt;Node7 -->
<g id="edge7_Node000007_Node000008" class="edge">
<title>Node8&#45;&gt;Node7</title>
<g id="a_edge7_Node000007_Node000008"><a xlink:title=" ">
<path fill="none" stroke="#9a32cd" stroke-dasharray="5,2" d="M221.96,-396.36C221.76,-406.06 220.34,-417.6 215.75,-427 212.33,-433.99 206.27,-440.11 200.65,-444.72"/>
<polygon fill="#9a32cd" stroke="#9a32cd" points="225.46,-396.43 221.71,-386.52 218.46,-396.6 225.46,-396.43"/>
</a>
</g>
<text text-anchor="middle" x="238.62" y="-417.5" font-family="Helvetica,sans-Serif" font-size="10.00" fill="grey"> mHead</text>
<text text-anchor="middle" x="238.62" y="-406.25" font-family="Helvetica,sans-Serif" font-size="10.00" fill="grey">mTail</text>
</g>
<!-- Node8&#45;&gt;Node8 -->
<g id="edge9_Node000008_Node000008" class="edge">
<title>Node8&#45;&gt;Node8</title>
<g id="a_edge9_Node000008_Node000008"><a xlink:title=" ">
<path fill="none" stroke="#9a32cd" stroke-dasharray="5,2" d="M265.51,-381.07C269.64,-379.87 272.25,-377.93 272.25,-375.25 272.25,-370.62 264.45,-368.19 254.43,-367.98"/>
<polygon fill="#9a32cd" stroke="#9a32cd" points="265.39,-377.55 255.93,-382.33 266.3,-384.5 265.39,-377.55"/>
</a>
</g>
<text text-anchor="middle" x="287.62" y="-377" font-family="Helvetica,sans-Serif" font-size="10.00" fill="grey"> mNext</text>
<text text-anchor="middle" x="287.62" y="-365.75" font-family="Helvetica,sans-Serif" font-size="10.00" fill="grey">mPrev</text>
</g>
<!-- Node9 -->
<g id="Node000009" class="node">
<title>Node9</title>
<g id="a_Node000009"><a xlink:href="classJSULink.html" target="_top" xlink:title=" ">
<polygon fill="white" stroke="#666666" points="259.12,-308.75 182.38,-308.75 182.38,-289.5 259.12,-289.5 259.12,-308.75"/>
<text text-anchor="middle" x="220.75" y="-295.25" font-family="Helvetica,sans-Serif" font-size="10.00">JSULink&lt; T &gt;</text>
</a>
</g>
</g>
<!-- Node8&#45;&gt;Node9 -->
<g id="edge11_Node000009_Node000008" class="edge">
<title>Node8&#45;&gt;Node9</title>
<g id="a_edge11_Node000009_Node000008"><a xlink:title=" ">
<path fill="none" stroke="#63b8ff" d="M220.75,-354.08C220.75,-339.26 220.75,-319.87 220.75,-308.83"/>
<polygon fill="#63b8ff" stroke="#63b8ff" points="217.25,-353.65 220.75,-363.65 224.25,-353.65 217.25,-353.65"/>
</a>
</g>
</g>
<!-- Node9&#45;&gt;Node5 -->
<g id="edge10_Node000005_Node000009" class="edge">
<title>Node9&#45;&gt;Node5</title>
<g id="a_edge10_Node000005_Node000009"><a xlink:title=" ">
<path fill="none" stroke="#63b8ff" d="M214.02,-278.4C209.94,-266.43 204.93,-251.73 201.78,-242.52"/>
<polygon fill="#63b8ff" stroke="#63b8ff" points="210.66,-279.39 217.2,-287.72 217.29,-277.13 210.66,-279.39"/>
</a>
</g>
</g>
<!-- Node10 -->
<g id="Node000010" class="node">
<title>Node10</title>
<g id="a_Node000010"><a xlink:href="classJ2DAnmTransform.html" target="_top" xlink:title=" ">
<polygon fill="white" stroke="#666666" points="370.62,-242.25 272.88,-242.25 272.88,-223 370.62,-223 370.62,-242.25"/>
<text text-anchor="middle" x="321.75" y="-228.75" font-family="Helvetica,sans-Serif" font-size="10.00">J2DAnmTransform</text>
</a>
</g>
</g>
<!-- Node10&#45;&gt;Node2 -->
<g id="edge12_Node000002_Node000010" class="edge">
<title>Node10&#45;&gt;Node2</title>
<g id="a_edge12_Node000002_Node000010"><a xlink:title=" ">
<path fill="none" stroke="#9a32cd" stroke-dasharray="5,2" d="M314.23,-211.95C308.49,-197.41 300.17,-177.22 291.75,-160 288.77,-153.9 285.02,-147.24 282.01,-142.11"/>
<polygon fill="#9a32cd" stroke="#9a32cd" points="310.95,-213.19 317.83,-221.24 317.48,-210.66 310.95,-213.19"/>
</a>
</g>
<text text-anchor="middle" x="339.12" y="-178.62" font-family="Helvetica,sans-Serif" font-size="10.00" fill="grey"> mTransform</text>
</g>
<!-- Node11 -->
<g id="Node000011" class="node">
<title>Node11</title>
<g id="a_Node000011"><a xlink:href="structJ2DAnmBase.html" target="_top" xlink:title=" ">
<polygon fill="white" stroke="#666666" points="359.75,-308.75 283.75,-308.75 283.75,-289.5 359.75,-289.5 359.75,-308.75"/>
<text text-anchor="middle" x="321.75" y="-295.25" font-family="Helvetica,sans-Serif" font-size="10.00">J2DAnmBase</text>
</a>
</g>
</g>
<!-- Node11&#45;&gt;Node10 -->
<g id="edge13_Node000010_Node000011" class="edge">
<title>Node11&#45;&gt;Node10</title>
<g id="a_edge13_Node000010_Node000011"><a xlink:title=" ">
<path fill="none" stroke="#63b8ff" d="M321.75,-277.65C321.75,-265.82 321.75,-251.54 321.75,-242.52"/>
<polygon fill="#63b8ff" stroke="#63b8ff" points="318.25,-277.64 321.75,-287.64 325.25,-277.64 318.25,-277.64"/>
</a>
</g>
</g>
<!-- Node12 -->
<g id="Node000012" class="node">
<title>Node12</title>
<g id="a_Node000012"><a xlink:href="classJUTTexture.html" target="_top" xlink:title=" ">
<polygon fill="white" stroke="#666666" points="519.25,-142 452.25,-142 452.25,-122.75 519.25,-122.75 519.25,-142"/>
<text text-anchor="middle" x="485.75" y="-128.5" font-family="Helvetica,sans-Serif" font-size="10.00">JUTTexture</text>
</a>
</g>
</g>
<!-- Node12&#45;&gt;Node1 -->
<g id="edge14_Node000001_Node000012" class="edge">
<title>Node12&#45;&gt;Node1</title>
<g id="a_edge14_Node000001_Node000012"><a xlink:title=" ">
<path fill="none" stroke="#9a32cd" stroke-dasharray="5,2" d="M485.75,-110.9C485.75,-84.18 485.75,-38.6 485.75,-19.48"/>
<polygon fill="#9a32cd" stroke="#9a32cd" points="482.25,-110.79 485.75,-120.79 489.25,-110.79 482.25,-110.79"/>
</a>
</g>
<text text-anchor="middle" x="510.88" y="-89.62" font-family="Helvetica,sans-Serif" font-size="10.00" fill="grey"> field_0x100</text>
<text text-anchor="middle" x="510.88" y="-78.38" font-family="Helvetica,sans-Serif" font-size="10.00" fill="grey">field_0x104</text>
<text text-anchor="middle" x="510.88" y="-67.12" font-family="Helvetica,sans-Serif" font-size="10.00" fill="grey">field_0x108</text>
<text text-anchor="middle" x="510.88" y="-55.88" font-family="Helvetica,sans-Serif" font-size="10.00" fill="grey">field_0x10c</text>
<text text-anchor="middle" x="510.88" y="-44.62" font-family="Helvetica,sans-Serif" font-size="10.00" fill="grey">field_0x110</text>
</g>
<!-- Node13 -->
<g id="Node000013" class="node">
<title>Node13</title>
<g id="a_Node000013"><a xlink:href="struct__GXTexObj.html" target="_top" xlink:title=" ">
<polygon fill="white" stroke="#666666" points="454.88,-242.25 388.62,-242.25 388.62,-223 454.88,-223 454.88,-242.25"/>
<text text-anchor="middle" x="421.75" y="-228.75" font-family="Helvetica,sans-Serif" font-size="10.00">_GXTexObj</text>
</a>
</g>
</g>
<!-- Node13&#45;&gt;Node12 -->
<g id="edge15_Node000012_Node000013" class="edge">
<title>Node13&#45;&gt;Node12</title>
<g id="a_edge15_Node000012_Node000013"><a xlink:title=" ">
<path fill="none" stroke="#9a32cd" stroke-dasharray="5,2" d="M422.19,-211.36C423.47,-195.91 427.36,-174.84 438.5,-160 444.26,-152.32 452.94,-146.53 461.28,-142.35"/>
<polygon fill="#9a32cd" stroke="#9a32cd" points="418.7,-211.08 421.7,-221.24 425.69,-211.42 418.7,-211.08"/>
</a>
</g>
<text text-anchor="middle" x="459.38" y="-178.62" font-family="Helvetica,sans-Serif" font-size="10.00" fill="grey"> mTexObj</text>
</g>
<!-- Node14 -->
<g id="Node000014" class="node">
<title>Node14</title>
<g id="a_Node000014"><a xlink:href="structResTIMG.html" target="_top" xlink:title="Image data header.">
<polygon fill="white" stroke="#666666" points="530.75,-242.25 472.75,-242.25 472.75,-223 530.75,-223 530.75,-242.25"/>
<text text-anchor="middle" x="501.75" y="-228.75" font-family="Helvetica,sans-Serif" font-size="10.00">ResTIMG</text>
</a>
</g>
</g>
<!-- Node14&#45;&gt;Node12 -->
<g id="edge16_Node000012_Node000014" class="edge">
<title>Node14&#45;&gt;Node12</title>
<g id="a_edge16_Node000012_Node000014"><a xlink:title=" ">
<path fill="none" stroke="#9a32cd" stroke-dasharray="5,2" d="M489.82,-212.66C488.68,-210.16 487.69,-207.57 487,-205 481.14,-183.14 482.98,-156.16 484.54,-142.39"/>
<polygon fill="#9a32cd" stroke="#9a32cd" points="486.75,-214.35 494.65,-221.41 492.88,-210.97 486.75,-214.35"/>
</a>
</g>
<text text-anchor="middle" x="509.12" y="-178.62" font-family="Helvetica,sans-Serif" font-size="10.00" fill="grey"> mTexInfo</text>
</g>
<!-- Node15 -->
<g id="Node000015" class="node">
<title>Node15</title>
<g id="a_Node000015"><a xlink:href="classJUTPalette.html" target="_top" xlink:title=" ">
<polygon fill="white" stroke="#666666" points="636.5,-242.25 571,-242.25 571,-223 636.5,-223 636.5,-242.25"/>
<text text-anchor="middle" x="603.75" y="-228.75" font-family="Helvetica,sans-Serif" font-size="10.00">JUTPalette</text>
</a>
</g>
</g>
<!-- Node15&#45;&gt;Node1 -->
<g id="edge21_Node000001_Node000015" class="edge">
<title>Node15&#45;&gt;Node1</title>
<g id="a_edge21_Node000001_Node000015"><a xlink:title=" ">
<path fill="none" stroke="#9a32cd" stroke-dasharray="5,2" d="M610.34,-212C610.92,-209.66 611.41,-207.29 611.75,-205 614.66,-185.21 616.99,-179.3 611.75,-160 595.17,-98.96 586.06,-80.33 539.75,-37.25 531.71,-29.78 521.19,-23.95 511.56,-19.69"/>
<polygon fill="#9a32cd" stroke="#9a32cd" points="607.03,-210.86 607.51,-221.45 613.74,-212.87 607.03,-210.86"/>
</a>
</g>
<text text-anchor="middle" x="626.38" y="-128.5" font-family="Helvetica,sans-Serif" font-size="10.00" fill="grey"> mPalette</text>
</g>
<!-- Node15&#45;&gt;Node12 -->
<g id="edge17_Node000012_Node000015" class="edge">
<title>Node15&#45;&gt;Node12</title>
<g id="a_edge17_Node000012_Node000015"><a xlink:title=" ">
<path fill="none" stroke="#9a32cd" stroke-dasharray="5,2" d="M569.72,-217.35C563.78,-213.88 558,-209.77 553.25,-205 537.33,-189.01 545.19,-176.45 529.75,-160 523.03,-152.84 513.96,-146.92 505.8,-142.49"/>
<polygon fill="#9a32cd" stroke="#9a32cd" points="567.87,-220.33 578.35,-221.88 571.12,-214.13 567.87,-220.33"/>
</a>
</g>
<text text-anchor="middle" x="583" y="-184.25" font-family="Helvetica,sans-Serif" font-size="10.00" fill="grey"> field_0x2c</text>
<text text-anchor="middle" x="583" y="-173" font-family="Helvetica,sans-Serif" font-size="10.00" fill="grey">mEmbPalette</text>
</g>
<!-- Node16 -->
<g id="Node000016" class="node">
<title>Node16</title>
<g id="a_Node000016"><a xlink:href="struct__GXTlutObj.html" target="_top" xlink:title=" ">
<polygon fill="white" stroke="#666666" points="596.25,-308.75 529.25,-308.75 529.25,-289.5 596.25,-289.5 596.25,-308.75"/>
<text text-anchor="middle" x="562.75" y="-295.25" font-family="Helvetica,sans-Serif" font-size="10.00">_GXTlutObj</text>
</a>
</g>
</g>
<!-- Node16&#45;&gt;Node15 -->
<g id="edge18_Node000015_Node000016" class="edge">
<title>Node16&#45;&gt;Node15</title>
<g id="a_edge18_Node000015_Node000016"><a xlink:title=" ">
<path fill="none" stroke="#9a32cd" stroke-dasharray="5,2" d="M566.91,-278.36C568.73,-272.25 571.27,-265.71 574.75,-260.25 579.08,-253.45 585.58,-247.26 591.33,-242.57"/>
<polygon fill="#9a32cd" stroke="#9a32cd" points="563.61,-277.13 564.59,-287.68 570.4,-278.81 563.61,-277.13"/>
</a>
</g>
<text text-anchor="middle" x="595.75" y="-262" font-family="Helvetica,sans-Serif" font-size="10.00" fill="grey"> mTlutObj</text>
</g>
<!-- Node17 -->
<g id="Node000017" class="node">
<title>Node17</title>
<g id="a_Node000017"><a xlink:href="structResTLUT.html" target="_top" xlink:title=" ">
<polygon fill="white" stroke="#666666" points="673.12,-308.75 614.38,-308.75 614.38,-289.5 673.12,-289.5 673.12,-308.75"/>
<text text-anchor="middle" x="643.75" y="-295.25" font-family="Helvetica,sans-Serif" font-size="10.00">ResTLUT</text>
</a>
</g>
</g>
<!-- Node17&#45;&gt;Node15 -->
<g id="edge19_Node000015_Node000017" class="edge">
<title>Node17&#45;&gt;Node15</title>
<g id="a_edge19_Node000015_Node000017"><a xlink:title=" ">
<path fill="none" stroke="#9a32cd" stroke-dasharray="5,2" d="M632.21,-279.51C624.66,-267.35 615.16,-252.02 609.26,-242.52"/>
<polygon fill="#9a32cd" stroke="#9a32cd" points="629.15,-281.22 637.39,-287.87 635.09,-277.53 629.15,-281.22"/>
</a>
</g>
<text text-anchor="middle" x="654.25" y="-262" font-family="Helvetica,sans-Serif" font-size="10.00" fill="grey"> mColorTable</text>
</g>
<!-- Node18 -->
<g id="Node000018" class="node">
<title>Node18</title>
<g id="a_Node000018"><a xlink:href="structJUtility_1_1TColor.html" target="_top" xlink:title=" ">
<polygon fill="white" stroke="#666666" points="764.25,-142 685.25,-142 685.25,-122.75 764.25,-122.75 764.25,-142"/>
<text text-anchor="middle" x="724.75" y="-128.5" font-family="Helvetica,sans-Serif" font-size="10.00">JUtility::TColor</text>
</a>
</g>
</g>
<!-- Node18&#45;&gt;Node1 -->
<g id="edge22_Node000001_Node000018" class="edge">
<title>Node18&#45;&gt;Node1</title>
<g id="a_edge22_Node000001_Node000018"><a xlink:title=" ">
<path fill="none" stroke="#9a32cd" stroke-dasharray="5,2" d="M713.56,-112.82C699.31,-90.96 672.56,-55.33 639.75,-37.25 602.32,-16.62 552.66,-11.3 519.98,-10.26"/>
<polygon fill="#9a32cd" stroke="#9a32cd" points="710.43,-114.42 718.71,-121.03 716.35,-110.7 710.43,-114.42"/>
</a>
</g>
<text text-anchor="middle" x="731.88" y="-95.25" font-family="Helvetica,sans-Serif" font-size="10.00" fill="grey"> field_0x128</text>
<text text-anchor="middle" x="731.88" y="-84" font-family="Helvetica,sans-Serif" font-size="10.00" fill="grey">field_0x12C</text>
<text text-anchor="middle" x="731.88" y="-72.75" font-family="Helvetica,sans-Serif" font-size="10.00" fill="grey">field_0x130</text>
<text text-anchor="middle" x="731.88" y="-61.5" font-family="Helvetica,sans-Serif" font-size="10.00" fill="grey">field_0x134</text>
<text text-anchor="middle" x="731.88" y="-50.25" font-family="Helvetica,sans-Serif" font-size="10.00" fill="grey">mBlack</text>
<text text-anchor="middle" x="731.88" y="-39" font-family="Helvetica,sans-Serif" font-size="10.00" fill="grey">mWhite</text>
</g>
<!-- Node19 -->
<g id="Node000019" class="node">
<title>Node19</title>
<g id="a_Node000019"><a xlink:href="struct__GXColor.html" target="_top" xlink:title=" ">
<polygon fill="white" stroke="#666666" points="751.12,-242.25 698.38,-242.25 698.38,-223 751.12,-223 751.12,-242.25"/>
<text text-anchor="middle" x="724.75" y="-228.75" font-family="Helvetica,sans-Serif" font-size="10.00">GXColor</text>
</a>
</g>
</g>
<!-- Node19&#45;&gt;Node18 -->
<g id="edge23_Node000018_Node000019" class="edge">
<title>Node19&#45;&gt;Node18</title>
<g id="a_edge23_Node000018_Node000019"><a xlink:title=" ">
<path fill="none" stroke="#63b8ff" d="M724.75,-211.32C724.75,-190.17 724.75,-157.98 724.75,-142.42"/>
<polygon fill="#63b8ff" stroke="#63b8ff" points="721.25,-211.04 724.75,-221.04 728.25,-211.04 721.25,-211.04"/>
</a>
</g>
</g>
</g>
</svg>
