<?xml version="1.0" encoding="UTF-8" standalone="no"?>
<!DOCTYPE svg PUBLIC "-//W3C//DTD SVG 1.1//EN"
 "http://www.w3.org/Graphics/SVG/1.1/DTD/svg11.dtd">
<!-- Generated by graphviz version 9.0.0 (20230911.1827)
 -->
<!-- Title: dRes_info_c Pages: 1 -->
<!--zoomable 641 -->

<svg id="main" version="1.1" xmlns="http://www.w3.org/2000/svg" xmlns:xlink="http://www.w3.org/1999/xlink" xml:space="preserve" onload="init(evt)">
<style type="text/css"><![CDATA[
.node, .edge {opacity: 0.7;}
.node.selected, .edge.selected {opacity: 1;}
.edge:hover path { stroke: red; }
.edge:hover polygon { stroke: red; fill: red; }
]]></style>

<defs>
  <circle id="rim" cx="0" cy="0" r="7"/>
  <circle id="rim2" cx="0" cy="0" r="3.5"/>
  <g id="zoomPlus">
    <use xlink:href="#rim" fill="#404040"><set attributeName="fill" to="#808080" begin="zoomplus.mouseover" end="zoomplus.mouseout"/></use>
    <path d="M-4,0h8M0,-4v8" fill="none" stroke="white" stroke-width="1.5" pointer-events="none"/>
  </g>
  <g id="zoomMin">
    <use xlink:href="#rim" fill="#404040"><set attributeName="fill" to="#808080" begin="zoomminus.mouseover" end="zoomminus.mouseout"/></use>
    <path d="M-4,0h8" fill="none" stroke="white" stroke-width="1.5" pointer-events="none"/>
  </g>
  <g id="arrowUp" transform="translate(30 24)">
    <use xlink:href="#rim"/>
    <path pointer-events="none" fill="none" stroke="white" stroke-width="1.5" d="M0,-3.0v7 M-2.5,-0.5L0,-3.0L2.5,-0.5"/>
  </g>
  <g id="arrowRight" transform="rotate(90) translate(36 -43)">
    <use xlink:href="#rim"/>
    <path pointer-events="none" fill="none" stroke="white" stroke-width="1.5" d="M0,-3.0v7 M-2.5,-0.5L0,-3.0L2.5,-0.5"/>
  </g>
  <g id="arrowDown" transform="rotate(180) translate(-30 -48)">
    <use xlink:href="#rim"/>
    <path pointer-events="none" fill="none" stroke="white" stroke-width="1.5" d="M0,-3.0v7 M-2.5,-0.5L0,-3.0L2.5,-0.5"/>
  </g>
  <g id="arrowLeft" transform="rotate(270) translate(-36 17)">
    <use xlink:href="#rim"/>
    <path pointer-events="none" fill="none" stroke="white" stroke-width="1.5" d="M0,-3.0v7 M-2.5,-0.5L0,-3.0L2.5,-0.5"/>
  </g>
  <g id="resetDef">
    <use xlink:href="#rim2" fill="#404040"><set attributeName="fill" to="#808080" begin="reset.mouseover" end="reset.mouseout"/></use>
  </g>
</defs>
<script type="application/ecmascript">
var viewWidth = 1352;
var viewHeight = 641;
var sectionId = 'dynsection-0';
</script>
<script type="application/ecmascript" xlink:href="svg.min.js"/>
<svg id="graph" class="graph">
<g id="viewport">
<title>dRes_info_c</title>
<!-- Node1 -->
<g id="Node000001" class="node">
<title>Node1</title>
<g id="a_Node000001"><a xlink:title=" ">
<polygon fill="#999999" stroke="#666666" points="723.25,-19.25 653.25,-19.25 653.25,0 723.25,0 723.25,-19.25"/>
<text text-anchor="middle" x="688.25" y="-5.75" font-family="Helvetica,sans-Serif" font-size="10.00">dRes_info_c</text>
</a>
</g>
</g>
<!-- Node2 -->
<g id="Node000002" class="node">
<title>Node2</title>
<g id="a_Node000002"><a xlink:href="structmDoDvdThd__mountArchive__c.html" target="_top" xlink:title=" ">
<polygon fill="white" stroke="#666666" points="612.12,-85.75 466.38,-85.75 466.38,-66.5 612.12,-66.5 612.12,-85.75"/>
<text text-anchor="middle" x="539.25" y="-72.25" font-family="Helvetica,sans-Serif" font-size="10.00">mDoDvdThd_mountArchive_c</text>
</a>
</g>
</g>
<!-- Node2&#45;&gt;Node1 -->
<g id="edge1_Node000001_Node000002" class="edge">
<title>Node2&#45;&gt;Node1</title>
<g id="a_edge1_Node000001_Node000002"><a xlink:title=" ">
<path fill="none" stroke="#9a32cd" stroke-dasharray="5,2" d="M570.71,-61.51C599.79,-48.92 642.19,-30.56 667.32,-19.68"/>
<polygon fill="#9a32cd" stroke="#9a32cd" points="569.46,-58.23 561.67,-65.42 572.24,-64.66 569.46,-58.23"/>
</a>
</g>
<text text-anchor="middle" x="657.12" y="-39" font-family="Helvetica,sans-Serif" font-size="10.00" fill="grey"> mDMCommand</text>
</g>
<!-- Node3 -->
<g id="Node000003" class="node">
<title>Node3</title>
<g id="a_Node000003"><a xlink:href="classmDoDvdThd__command__c.html" target="_top" xlink:title=" ">
<polygon fill="white" stroke="#666666" points="670.5,-152.25 542,-152.25 542,-133 670.5,-133 670.5,-152.25"/>
<text text-anchor="middle" x="606.25" y="-138.75" font-family="Helvetica,sans-Serif" font-size="10.00">mDoDvdThd_command_c</text>
</a>
</g>
</g>
<!-- Node3&#45;&gt;Node2 -->
<g id="edge2_Node000002_Node000003" class="edge">
<title>Node3&#45;&gt;Node2</title>
<g id="a_edge2_Node000002_Node000003"><a xlink:title=" ">
<path fill="none" stroke="#63b8ff" d="M588.8,-124.83C575.91,-112.41 558.85,-96 548.49,-86.02"/>
<polygon fill="#63b8ff" stroke="#63b8ff" points="586.21,-127.19 595.84,-131.61 591.07,-122.15 586.21,-127.19"/>
</a>
</g>
</g>
<!-- Node4 -->
<g id="Node000004" class="node">
<title>Node4</title>
<g id="a_Node000004"><a xlink:href="structnode__class.html" target="_top" xlink:title=" ">
<polygon fill="white" stroke="#666666" points="608,-231.62 542.5,-231.62 542.5,-212.38 608,-212.38 608,-231.62"/>
<text text-anchor="middle" x="575.25" y="-218.12" font-family="Helvetica,sans-Serif" font-size="10.00">node_class</text>
</a>
</g>
</g>
<!-- Node4&#45;&gt;Node3 -->
<g id="edge3_Node000003_Node000004" class="edge">
<title>Node4&#45;&gt;Node3</title>
<g id="a_edge3_Node000003_Node000004"><a xlink:title=" ">
<path fill="none" stroke="#63b8ff" d="M582.91,-201.88C589.24,-186.08 597.95,-164.35 602.74,-152.4"/>
<polygon fill="#63b8ff" stroke="#63b8ff" points="579.84,-200.13 579.37,-210.72 586.34,-202.74 579.84,-200.13"/>
</a>
</g>
</g>
<!-- Node4&#45;&gt;Node4 -->
<g id="edge4_Node000004_Node000004" class="edge">
<title>Node4&#45;&gt;Node4</title>
<g id="a_edge4_Node000004_Node000004"><a xlink:title=" ">
<path fill="none" stroke="#9a32cd" stroke-dasharray="5,2" d="M619.68,-227.13C623.57,-226.05 626,-224.34 626,-222 626,-217.84 618.32,-215.67 608.44,-215.48"/>
<polygon fill="#9a32cd" stroke="#9a32cd" points="619.44,-223.64 609.94,-228.34 620.3,-230.58 619.44,-223.64"/>
</a>
</g>
<text text-anchor="middle" x="655.62" y="-223.75" font-family="Helvetica,sans-Serif" font-size="10.00" fill="grey"> mpNextNode</text>
<text text-anchor="middle" x="655.62" y="-212.5" font-family="Helvetica,sans-Serif" font-size="10.00" fill="grey">mpPrevNode</text>
</g>
<!-- Node5 -->
<g id="Node000005" class="node">
<title>Node5</title>
<g id="a_Node000005"><a xlink:href="classJKRMemArchive.html" target="_top" xlink:title=" ">
<polygon fill="white" stroke="#666666" points="479,-152.25 389.5,-152.25 389.5,-133 479,-133 479,-152.25"/>
<text text-anchor="middle" x="434.25" y="-138.75" font-family="Helvetica,sans-Serif" font-size="10.00">JKRMemArchive</text>
</a>
</g>
</g>
<!-- Node5&#45;&gt;Node2 -->
<g id="edge5_Node000002_Node000005" class="edge">
<title>Node5&#45;&gt;Node2</title>
<g id="a_edge5_Node000002_Node000005"><a xlink:title=" ">
<path fill="none" stroke="#9a32cd" stroke-dasharray="5,2" d="M442.34,-122.13C445.92,-115.51 450.7,-108.58 456.75,-103.75 466.75,-95.77 479.2,-90.16 491.38,-86.21"/>
<polygon fill="#9a32cd" stroke="#9a32cd" points="439.18,-120.63 438.11,-131.17 445.52,-123.6 439.18,-120.63"/>
</a>
</g>
<text text-anchor="middle" x="478" y="-105.5" font-family="Helvetica,sans-Serif" font-size="10.00" fill="grey"> mArchive</text>
</g>
<!-- Node6 -->
<g id="Node000006" class="node">
<title>Node6</title>
<g id="a_Node000006"><a xlink:href="classJKRArchive.html" target="_top" xlink:title=" ">
<polygon fill="white" stroke="#666666" points="381.12,-231.62 313.38,-231.62 313.38,-212.38 381.12,-212.38 381.12,-231.62"/>
<text text-anchor="middle" x="347.25" y="-218.12" font-family="Helvetica,sans-Serif" font-size="10.00">JKRArchive</text>
</a>
</g>
</g>
<!-- Node6&#45;&gt;Node1 -->
<g id="edge48_Node000001_Node000006" class="edge">
<title>Node6&#45;&gt;Node1</title>
<g id="a_edge48_Node000001_Node000006"><a xlink:title=" ">
<path fill="none" stroke="#9a32cd" stroke-dasharray="5,2" d="M351.35,-200.9C357.52,-175.29 371.49,-131.09 398.75,-103.75 469.02,-33.27 592.76,-16.09 653.14,-11.93"/>
<polygon fill="#9a32cd" stroke="#9a32cd" points="347.93,-200.12 349.19,-210.64 354.77,-201.63 347.93,-200.12"/>
</a>
</g>
<text text-anchor="middle" x="421" y="-105.5" font-family="Helvetica,sans-Serif" font-size="10.00" fill="grey"> mArchive</text>
</g>
<!-- Node6&#45;&gt;Node5 -->
<g id="edge6_Node000005_Node000006" class="edge">
<title>Node6&#45;&gt;Node5</title>
<g id="a_edge6_Node000005_Node000006"><a xlink:title=" ">
<path fill="none" stroke="#63b8ff" d="M365.66,-204.63C383.47,-188.78 409.82,-165.35 424.12,-152.64"/>
<polygon fill="#63b8ff" stroke="#63b8ff" points="363.51,-201.86 358.36,-211.12 368.16,-207.09 363.51,-201.86"/>
</a>
</g>
</g>
<!-- Node7 -->
<g id="Node000007" class="node">
<title>Node7</title>
<g id="a_Node000007"><a xlink:href="classJKRFileLoader.html" target="_top" xlink:title=" ">
<polygon fill="white" stroke="#666666" points="80.5,-312.62 0,-312.62 0,-293.38 80.5,-293.38 80.5,-312.62"/>
<text text-anchor="middle" x="40.25" y="-299.12" font-family="Helvetica,sans-Serif" font-size="10.00">JKRFileLoader</text>
</a>
</g>
</g>
<!-- Node7&#45;&gt;Node6 -->
<g id="edge7_Node000006_Node000007" class="edge">
<title>Node7&#45;&gt;Node6</title>
<g id="a_edge7_Node000006_Node000007"><a xlink:title=" ">
<path fill="none" stroke="#63b8ff" d="M86.5,-290.1C148.62,-274.11 257.58,-246.08 312.91,-231.84"/>
<polygon fill="#63b8ff" stroke="#63b8ff" points="85.74,-286.68 76.93,-292.56 87.49,-293.46 85.74,-286.68"/>
</a>
</g>
</g>
<!-- Node7&#45;&gt;Node7 -->
<g id="edge39_Node000007_Node000007" class="edge">
<title>Node7&#45;&gt;Node7</title>
<g id="a_edge39_Node000007_Node000007"><a xlink:title=" ">
<path fill="none" stroke="#9a32cd" stroke-dasharray="5,2" d="M91.88,-309.58C95.97,-308.13 98.5,-305.94 98.5,-303 98.5,-297.91 90.93,-295.07 80.81,-294.47"/>
<polygon fill="#9a32cd" stroke="#9a32cd" points="91.54,-306.08 82.3,-311.27 92.76,-312.97 91.54,-306.08"/>
</a>
</g>
<text text-anchor="middle" x="134.5" y="-299.12" font-family="Helvetica,sans-Serif" font-size="10.00" fill="grey"> sCurrentVolume</text>
</g>
<!-- Node8 -->
<g id="Node000008" class="node">
<title>Node8</title>
<g id="a_Node000008"><a xlink:href="classJKRDisposer.html" target="_top" xlink:title=" ">
<polygon fill="white" stroke="#666666" points="433.75,-403.25 360.75,-403.25 360.75,-384 433.75,-384 433.75,-403.25"/>
<text text-anchor="middle" x="397.25" y="-389.75" font-family="Helvetica,sans-Serif" font-size="10.00">JKRDisposer</text>
</a>
</g>
</g>
<!-- Node8&#45;&gt;Node7 -->
<g id="edge8_Node000007_Node000008" class="edge">
<title>Node8&#45;&gt;Node7</title>
<g id="a_edge8_Node000007_Node000008"><a xlink:title=" ">
<path fill="none" stroke="#63b8ff" d="M367.01,-378.96C341.63,-367.98 304.19,-352.88 270.25,-343.5 235.3,-333.84 136.78,-318.38 80.67,-309.95"/>
<polygon fill="#63b8ff" stroke="#63b8ff" points="365.48,-382.11 376.05,-382.93 368.3,-375.7 365.48,-382.11"/>
</a>
</g>
</g>
<!-- Node9 -->
<g id="Node000009" class="node">
<title>Node9</title>
<g id="a_Node000009"><a xlink:href="structJKRHeap.html" target="_top" xlink:title=" ">
<polygon fill="white" stroke="#666666" points="624.25,-312.62 566.25,-312.62 566.25,-293.38 624.25,-293.38 624.25,-312.62"/>
<text text-anchor="middle" x="595.25" y="-299.12" font-family="Helvetica,sans-Serif" font-size="10.00">JKRHeap</text>
</a>
</g>
</g>
<!-- Node8&#45;&gt;Node9 -->
<g id="edge10_Node000009_Node000008" class="edge">
<title>Node8&#45;&gt;Node9</title>
<g id="a_edge10_Node000009_Node000008"><a xlink:title=" ">
<path fill="none" stroke="#63b8ff" d="M406.01,-373.58C411.9,-362.98 420.7,-350.54 432.25,-343.5 480.18,-314.29 504.13,-343.63 557.25,-325.5 566,-322.51 575.04,-317.49 582.11,-313.05"/>
<polygon fill="#63b8ff" stroke="#63b8ff" points="402.99,-371.79 401.61,-382.3 409.24,-374.94 402.99,-371.79"/>
</a>
</g>
</g>
<!-- Node9&#45;&gt;Node1 -->
<g id="edge49_Node000001_Node000009" class="edge">
<title>Node9&#45;&gt;Node1</title>
<g id="a_edge49_Node000001_Node000009"><a xlink:title=" ">
<path fill="none" stroke="#9a32cd" stroke-dasharray="5,2" d="M635.43,-292.79C669.63,-282.29 713.25,-261.37 713.25,-223 713.25,-223 713.25,-223 713.25,-75.12 713.25,-53.99 701.43,-31.43 694.05,-19.39"/>
<polygon fill="#9a32cd" stroke="#9a32cd" points="634.83,-289.32 626.18,-295.43 636.75,-296.05 634.83,-289.32"/>
</a>
</g>
<text text-anchor="middle" x="724.88" y="-138.75" font-family="Helvetica,sans-Serif" font-size="10.00" fill="grey"> heap</text>
</g>
<!-- Node9&#45;&gt;Node2 -->
<g id="edge47_Node000002_Node000009" class="edge">
<title>Node9&#45;&gt;Node2</title>
<g id="a_edge47_Node000002_Node000009"><a xlink:title=" ">
<path fill="none" stroke="#9a32cd" stroke-dasharray="5,2" d="M574.32,-286.03C559.73,-273.49 541.46,-254.62 533.25,-233.25 513.01,-180.59 529.62,-110.43 536.56,-85.98"/>
<polygon fill="#9a32cd" stroke="#9a32cd" points="571.68,-288.4 581.64,-292.03 576.12,-282.98 571.68,-288.4"/>
</a>
</g>
<text text-anchor="middle" x="541.12" y="-177.62" font-family="Helvetica,sans-Serif" font-size="10.00" fill="grey"> mHeap</text>
</g>
<!-- Node9&#45;&gt;Node6 -->
<g id="edge42_Node000006_Node000009" class="edge">
<title>Node9&#45;&gt;Node6</title>
<g id="a_edge42_Node000006_Node000009"><a xlink:title=" ">
<path fill="none" stroke="#9a32cd" stroke-dasharray="5,2" d="M571.97,-287.3C567.23,-284.75 562.18,-282.33 557.25,-280.5 518.7,-266.19 505.49,-275.56 466.5,-262.5 455.62,-258.85 453.96,-255.38 443.25,-251.25 423.15,-243.49 400,-236.62 381.47,-231.6"/>
<polygon fill="#9a32cd" stroke="#9a32cd" points="569.97,-290.19 580.38,-292.16 573.48,-284.13 569.97,-290.19"/>
</a>
</g>
<text text-anchor="middle" x="483.12" y="-253" font-family="Helvetica,sans-Serif" font-size="10.00" fill="grey"> mHeap</text>
</g>
<!-- Node9&#45;&gt;Node8 -->
<g id="edge9_Node000008_Node000009" class="edge">
<title>Node9&#45;&gt;Node8</title>
<g id="a_edge9_Node000008_Node000009"><a xlink:title=" ">
<path fill="none" stroke="#9a32cd" stroke-dasharray="5,2" d="M571.93,-318.59C567.19,-321.15 562.15,-323.6 557.25,-325.5 523.77,-338.48 511.78,-330.04 478.5,-343.5 452.22,-354.13 424.57,-372.65 409.26,-383.66"/>
<polygon fill="#9a32cd" stroke="#9a32cd" points="573.43,-321.76 580.34,-313.73 569.93,-315.7 573.43,-321.76"/>
</a>
</g>
<text text-anchor="middle" x="495.12" y="-350.88" font-family="Helvetica,sans-Serif" font-size="10.00" fill="grey"> mHeap</text>
</g>
<!-- Node9&#45;&gt;Node9 -->
<g id="edge34_Node000009_Node000009" class="edge">
<title>Node9&#45;&gt;Node9</title>
<g id="a_edge34_Node000009_Node000009"><a xlink:title=" ">
<path fill="none" stroke="#9a32cd" stroke-dasharray="5,2" d="M635.86,-309.99C639.77,-308.57 642.25,-306.24 642.25,-303 642.25,-297.23 634.42,-294.35 624.62,-294.35"/>
<polygon fill="#9a32cd" stroke="#9a32cd" points="635.51,-306.51 626.12,-311.43 636.53,-313.43 635.51,-306.51"/>
</a>
</g>
<text text-anchor="middle" x="673.38" y="-316" font-family="Helvetica,sans-Serif" font-size="10.00" fill="grey"> sCurrentHeap</text>
<text text-anchor="middle" x="673.38" y="-304.75" font-family="Helvetica,sans-Serif" font-size="10.00" fill="grey">sRootHeap</text>
<text text-anchor="middle" x="673.38" y="-293.5" font-family="Helvetica,sans-Serif" font-size="10.00" fill="grey">sRootHeap2</text>
<text text-anchor="middle" x="673.38" y="-282.25" font-family="Helvetica,sans-Serif" font-size="10.00" fill="grey">sSystemHeap</text>
</g>
<!-- Node30 -->
<g id="Node000030" class="node">
<title>Node30</title>
<g id="a_Node000030"><a xlink:href="classJKRSolidHeap.html" target="_top" xlink:title=" ">
<polygon fill="white" stroke="#666666" points="821.12,-231.62 741.38,-231.62 741.38,-212.38 821.12,-212.38 821.12,-231.62"/>
<text text-anchor="middle" x="781.25" y="-218.12" font-family="Helvetica,sans-Serif" font-size="10.00">JKRSolidHeap</text>
</a>
</g>
</g>
<!-- Node9&#45;&gt;Node30 -->
<g id="edge51_Node000030_Node000009" class="edge">
<title>Node9&#45;&gt;Node30</title>
<g id="a_edge51_Node000030_Node000009"><a xlink:title=" ">
<path fill="none" stroke="#63b8ff" d="M635.57,-293.71C662.42,-287.29 698.01,-277.03 727.25,-262.5 743.89,-254.23 760.83,-240.87 771.19,-232.01"/>
<polygon fill="#63b8ff" stroke="#63b8ff" points="635.08,-290.23 626.12,-295.89 636.65,-297.06 635.08,-290.23"/>
</a>
</g>
</g>
<!-- Node10 -->
<g id="Node000010" class="node">
<title>Node10</title>
<g id="a_Node000010"><a xlink:href="structOSMutex.html" target="_top" xlink:title=" ">
<polygon fill="white" stroke="#666666" points="1184.5,-403.25 1128,-403.25 1128,-384 1184.5,-384 1184.5,-403.25"/>
<text text-anchor="middle" x="1156.25" y="-389.75" font-family="Helvetica,sans-Serif" font-size="10.00">OSMutex</text>
</a>
</g>
</g>
<!-- Node10&#45;&gt;Node9 -->
<g id="edge11_Node000009_Node000010" class="edge">
<title>Node10&#45;&gt;Node9</title>
<g id="a_edge11_Node000009_Node000010"><a xlink:title=" ">
<path fill="none" stroke="#9a32cd" stroke-dasharray="5,2" d="M1116.44,-390.43C1061.69,-387.05 960.18,-379.51 874.5,-366 782.28,-351.46 674.9,-324.84 624.37,-311.72"/>
<polygon fill="#9a32cd" stroke="#9a32cd" points="1116.01,-393.91 1126.2,-391.01 1116.43,-386.92 1116.01,-393.91"/>
</a>
</g>
<text text-anchor="middle" x="892.62" y="-350.88" font-family="Helvetica,sans-Serif" font-size="10.00" fill="grey"> mMutex</text>
</g>
<!-- Node12 -->
<g id="Node000012" class="node">
<title>Node12</title>
<g id="a_Node000012"><a xlink:href="structOSThread.html" target="_top" xlink:title=" ">
<polygon fill="white" stroke="#666666" points="1102.38,-231.62 1042.12,-231.62 1042.12,-212.38 1102.38,-212.38 1102.38,-231.62"/>
<text text-anchor="middle" x="1072.25" y="-218.12" font-family="Helvetica,sans-Serif" font-size="10.00">OSThread</text>
</a>
</g>
</g>
<!-- Node10&#45;&gt;Node12 -->
<g id="edge18_Node000012_Node000010" class="edge">
<title>Node10&#45;&gt;Node12</title>
<g id="a_edge18_Node000012_Node000010"><a xlink:title=" ">
<path fill="none" stroke="#9a32cd" stroke-dasharray="5,2" d="M1160.23,-372.59C1164.93,-342.93 1169.03,-287 1142.25,-251.25 1132.82,-238.66 1116.85,-231.67 1102.54,-227.79"/>
<polygon fill="#9a32cd" stroke="#9a32cd" points="1156.85,-371.61 1158.54,-382.07 1163.74,-372.84 1156.85,-371.61"/>
</a>
</g>
<text text-anchor="middle" x="1177.5" y="-299.12" font-family="Helvetica,sans-Serif" font-size="10.00" fill="grey"> mutex</text>
</g>
<!-- Node15 -->
<g id="Node000015" class="node">
<title>Node15</title>
<g id="a_Node000015"><a xlink:href="structOSMutexQueue.html" target="_top" xlink:title=" ">
<polygon fill="white" stroke="#666666" points="1119.75,-312.62 1034.75,-312.62 1034.75,-293.38 1119.75,-293.38 1119.75,-312.62"/>
<text text-anchor="middle" x="1077.25" y="-299.12" font-family="Helvetica,sans-Serif" font-size="10.00">OSMutexQueue</text>
</a>
</g>
</g>
<!-- Node10&#45;&gt;Node15 -->
<g id="edge20_Node000015_Node000010" class="edge">
<title>Node10&#45;&gt;Node15</title>
<g id="a_edge20_Node000015_Node000010"><a xlink:title=" ">
<path fill="none" stroke="#9a32cd" stroke-dasharray="5,2" d="M1131.99,-377.21C1127.43,-373.79 1122.88,-369.99 1119,-366 1102.72,-349.25 1088.69,-325.41 1081.8,-312.72"/>
<polygon fill="#9a32cd" stroke="#9a32cd" points="1129.71,-379.89 1139.91,-382.75 1133.72,-374.15 1129.71,-379.89"/>
</a>
</g>
<text text-anchor="middle" x="1129.88" y="-356.5" font-family="Helvetica,sans-Serif" font-size="10.00" fill="grey"> head</text>
<text text-anchor="middle" x="1129.88" y="-345.25" font-family="Helvetica,sans-Serif" font-size="10.00" fill="grey">tail</text>
</g>
<!-- Node16 -->
<g id="Node000016" class="node">
<title>Node16</title>
<g id="a_Node000016"><a xlink:href="structOSMutexLink.html" target="_top" xlink:title=" ">
<polygon fill="white" stroke="#666666" points="1343.88,-312.62 1268.62,-312.62 1268.62,-293.38 1343.88,-293.38 1343.88,-312.62"/>
<text text-anchor="middle" x="1306.25" y="-299.12" font-family="Helvetica,sans-Serif" font-size="10.00">OSMutexLink</text>
</a>
</g>
</g>
<!-- Node10&#45;&gt;Node16 -->
<g id="edge23_Node000016_Node000010" class="edge">
<title>Node10&#45;&gt;Node16</title>
<g id="a_edge23_Node000016_Node000010"><a xlink:title=" ">
<path fill="none" stroke="#9a32cd" stroke-dasharray="5,2" d="M1195.5,-383.43C1208.75,-379.31 1223.21,-373.61 1235.25,-366 1247.01,-358.57 1246.72,-352.87 1257,-343.5 1269.15,-332.42 1283.97,-320.77 1294.16,-313.01"/>
<polygon fill="#9a32cd" stroke="#9a32cd" points="1194.84,-379.98 1186.2,-386.12 1196.78,-386.71 1194.84,-379.98"/>
</a>
</g>
<text text-anchor="middle" x="1266.38" y="-356.5" font-family="Helvetica,sans-Serif" font-size="10.00" fill="grey"> next</text>
<text text-anchor="middle" x="1266.38" y="-345.25" font-family="Helvetica,sans-Serif" font-size="10.00" fill="grey">prev</text>
</g>
<!-- Node11 -->
<g id="Node000011" class="node">
<title>Node11</title>
<g id="a_Node000011"><a xlink:href="structOSThreadQueue.html" target="_top" xlink:title=" ">
<polygon fill="white" stroke="#666666" points="1002.62,-152.25 913.88,-152.25 913.88,-133 1002.62,-133 1002.62,-152.25"/>
<text text-anchor="middle" x="958.25" y="-138.75" font-family="Helvetica,sans-Serif" font-size="10.00">OSThreadQueue</text>
</a>
</g>
</g>
<!-- Node11&#45;&gt;Node10 -->
<g id="edge12_Node000010_Node000011" class="edge">
<title>Node11&#45;&gt;Node10</title>
<g id="a_edge12_Node000010_Node000011"><a xlink:title=" ">
<path fill="none" stroke="#9a32cd" stroke-dasharray="5,2" d="M949.18,-163.2C933.99,-199.18 908.44,-276.6 944.25,-325.5 986.9,-383.75 1080.36,-392.72 1127.64,-393.32"/>
<polygon fill="#9a32cd" stroke="#9a32cd" points="952.37,-164.63 953.21,-154.07 945.97,-161.8 952.37,-164.63"/>
</a>
</g>
<text text-anchor="middle" x="940.5" y="-253" font-family="Helvetica,sans-Serif" font-size="10.00" fill="grey"> queue</text>
</g>
<!-- Node11&#45;&gt;Node12 -->
<g id="edge15_Node000012_Node000011" class="edge">
<title>Node11&#45;&gt;Node12</title>
<g id="a_edge15_Node000012_Node000011"><a xlink:title=" ">
<path fill="none" stroke="#9a32cd" stroke-dasharray="5,2" d="M975.58,-160.48C986.49,-170.58 1001.17,-183.25 1015.5,-192.75 1026.69,-200.17 1040.1,-206.93 1051.08,-211.98"/>
<polygon fill="#9a32cd" stroke="#9a32cd" points="978.16,-158.11 968.49,-153.78 973.35,-163.19 978.16,-158.11"/>
</a>
</g>
<text text-anchor="middle" x="1039.62" y="-183.25" font-family="Helvetica,sans-Serif" font-size="10.00" fill="grey"> join_queue</text>
<text text-anchor="middle" x="1039.62" y="-172" font-family="Helvetica,sans-Serif" font-size="10.00" fill="grey">queue</text>
</g>
<!-- Node12&#45;&gt;Node10 -->
<g id="edge21_Node000010_Node000012" class="edge">
<title>Node12&#45;&gt;Node10</title>
<g id="a_edge21_Node000010_Node000012"><a xlink:title=" ">
<path fill="none" stroke="#9a32cd" stroke-dasharray="5,2" d="M1113.8,-228.65C1143.71,-235.29 1181.3,-249.63 1196.25,-280.5 1214.08,-317.33 1180.4,-364.26 1164.23,-383.64"/>
<polygon fill="#9a32cd" stroke="#9a32cd" points="1114.75,-225.27 1104.26,-226.76 1113.39,-232.14 1114.75,-225.27"/>
</a>
</g>
<text text-anchor="middle" x="1215.88" y="-299.12" font-family="Helvetica,sans-Serif" font-size="10.00" fill="grey"> thread</text>
</g>
<!-- Node12&#45;&gt;Node11 -->
<g id="edge13_Node000011_Node000012" class="edge">
<title>Node12&#45;&gt;Node11</title>
<g id="a_edge13_Node000011_Node000012"><a xlink:title=" ">
<path fill="none" stroke="#9a32cd" stroke-dasharray="5,2" d="M1030.43,-215.92C1001.99,-211.52 967.97,-204.05 959,-192.75 949.99,-181.39 952.61,-163.46 955.4,-152.69"/>
<polygon fill="#9a32cd" stroke="#9a32cd" points="1029.89,-219.38 1040.28,-217.35 1030.89,-212.45 1029.89,-219.38"/>
</a>
</g>
<text text-anchor="middle" x="969.88" y="-183.25" font-family="Helvetica,sans-Serif" font-size="10.00" fill="grey"> head</text>
<text text-anchor="middle" x="969.88" y="-172" font-family="Helvetica,sans-Serif" font-size="10.00" fill="grey">tail</text>
</g>
<!-- Node14 -->
<g id="Node000014" class="node">
<title>Node14</title>
<g id="a_Node000014"><a xlink:href="structOSThreadLink.html" target="_top" xlink:title=" ">
<polygon fill="white" stroke="#666666" points="1136.75,-152.25 1057.75,-152.25 1057.75,-133 1136.75,-133 1136.75,-152.25"/>
<text text-anchor="middle" x="1097.25" y="-138.75" font-family="Helvetica,sans-Serif" font-size="10.00">OSThreadLink</text>
</a>
</g>
</g>
<!-- Node12&#45;&gt;Node14 -->
<g id="edge17_Node000014_Node000012" class="edge">
<title>Node12&#45;&gt;Node14</title>
<g id="a_edge17_Node000014_Node000012"><a xlink:title=" ">
<path fill="none" stroke="#9a32cd" stroke-dasharray="5,2" d="M1069.32,-200.79C1068.73,-191.22 1069.21,-179.82 1073,-170.25 1075.71,-163.39 1081.08,-157.2 1086.07,-152.51"/>
<polygon fill="#9a32cd" stroke="#9a32cd" points="1065.81,-200.94 1070.36,-210.51 1072.77,-200.19 1065.81,-200.94"/>
</a>
</g>
<text text-anchor="middle" x="1082.38" y="-183.25" font-family="Helvetica,sans-Serif" font-size="10.00" fill="grey"> next</text>
<text text-anchor="middle" x="1082.38" y="-172" font-family="Helvetica,sans-Serif" font-size="10.00" fill="grey">prev</text>
</g>
<!-- Node13 -->
<g id="Node000013" class="node">
<title>Node13</title>
<g id="a_Node000013"><a xlink:href="structOSContext.html" target="_top" xlink:title=" ">
<polygon fill="white" stroke="#666666" points="1016.88,-312.62 953.62,-312.62 953.62,-293.38 1016.88,-293.38 1016.88,-312.62"/>
<text text-anchor="middle" x="985.25" y="-299.12" font-family="Helvetica,sans-Serif" font-size="10.00">OSContext</text>
</a>
</g>
</g>
<!-- Node13&#45;&gt;Node12 -->
<g id="edge14_Node000012_Node000013" class="edge">
<title>Node13&#45;&gt;Node12</title>
<g id="a_edge14_Node000012_Node000013"><a xlink:title=" ">
<path fill="none" stroke="#9a32cd" stroke-dasharray="5,2" d="M999.18,-284.28C1007.67,-274.05 1019.05,-261.26 1030.5,-251.25 1038.67,-244.1 1048.72,-237.25 1056.91,-232.09"/>
<polygon fill="#9a32cd" stroke="#9a32cd" points="996.54,-281.98 992.98,-291.96 1001.98,-286.38 996.54,-281.98"/>
</a>
</g>
<text text-anchor="middle" x="1047.12" y="-253" font-family="Helvetica,sans-Serif" font-size="10.00" fill="grey"> context</text>
</g>
<!-- Node14&#45;&gt;Node12 -->
<g id="edge16_Node000012_Node000014" class="edge">
<title>Node14&#45;&gt;Node12</title>
<g id="a_edge16_Node000012_Node000014"><a xlink:title=" ">
<path fill="none" stroke="#9a32cd" stroke-dasharray="5,2" d="M1100.45,-164.09C1101.06,-173.14 1100.66,-183.75 1097.25,-192.75 1094.42,-200.22 1088.61,-206.99 1083.3,-212.02"/>
<polygon fill="#9a32cd" stroke="#9a32cd" points="1103.93,-163.69 1099.29,-154.17 1096.97,-164.5 1103.93,-163.69"/>
</a>
</g>
<text text-anchor="middle" x="1143.38" y="-183.25" font-family="Helvetica,sans-Serif" font-size="10.00" fill="grey"> active_threads_link</text>
<text text-anchor="middle" x="1143.38" y="-172" font-family="Helvetica,sans-Serif" font-size="10.00" fill="grey">link</text>
</g>
<!-- Node15&#45;&gt;Node12 -->
<g id="edge19_Node000012_Node000015" class="edge">
<title>Node15&#45;&gt;Node12</title>
<g id="a_edge19_Node000012_Node000015"><a xlink:title=" ">
<path fill="none" stroke="#9a32cd" stroke-dasharray="5,2" d="M1072.57,-282.14C1071.31,-275.89 1070.13,-268.94 1069.5,-262.5 1069.02,-257.52 1069.26,-256.24 1069.5,-251.25 1069.82,-244.75 1070.54,-237.45 1071.16,-231.89"/>
<polygon fill="#9a32cd" stroke="#9a32cd" points="1069.07,-282.48 1074.64,-291.5 1075.9,-280.98 1069.07,-282.48"/>
</a>
</g>
<text text-anchor="middle" x="1105.62" y="-253" font-family="Helvetica,sans-Serif" font-size="10.00" fill="grey"> owned_mutexes</text>
</g>
<!-- Node16&#45;&gt;Node10 -->
<g id="edge22_Node000010_Node000016" class="edge">
<title>Node16&#45;&gt;Node10</title>
<g id="a_edge22_Node000010_Node000016"><a xlink:title=" ">
<path fill="none" stroke="#9a32cd" stroke-dasharray="5,2" d="M1303.22,-323.96C1300.08,-337.77 1293.77,-355.48 1281.25,-366 1266.89,-378.06 1217.02,-385.8 1184.77,-389.67"/>
<polygon fill="#9a32cd" stroke="#9a32cd" points="1306.66,-324.65 1305.03,-314.18 1299.77,-323.38 1306.66,-324.65"/>
</a>
</g>
<text text-anchor="middle" x="1304.88" y="-350.88" font-family="Helvetica,sans-Serif" font-size="10.00" fill="grey"> link</text>
</g>
<!-- Node17 -->
<g id="Node000017" class="node">
<title>Node17</title>
<g id="a_Node000017"><a xlink:href="classJSUTree.html" target="_top" xlink:title=" ">
<polygon fill="white" stroke="#666666" points="567,-403.25 453.5,-403.25 453.5,-384 567,-384 567,-403.25"/>
<text text-anchor="middle" x="510.25" y="-389.75" font-family="Helvetica,sans-Serif" font-size="10.00">JSUTree&lt; JKRHeap &gt;</text>
</a>
</g>
</g>
<!-- Node17&#45;&gt;Node9 -->
<g id="edge24_Node000009_Node000017" class="edge">
<title>Node17&#45;&gt;Node9</title>
<g id="a_edge24_Node000009_Node000017"><a xlink:title=" ">
<path fill="none" stroke="#9a32cd" stroke-dasharray="5,2" d="M514.8,-372.76C517.77,-363.13 522.43,-351.86 529.5,-343.5 531.36,-341.3 560.73,-324.03 579.58,-313.07"/>
<polygon fill="#9a32cd" stroke="#9a32cd" points="511.46,-371.72 512.29,-382.28 518.23,-373.51 511.46,-371.72"/>
</a>
</g>
<text text-anchor="middle" x="555.12" y="-350.88" font-family="Helvetica,sans-Serif" font-size="10.00" fill="grey"> mChildTree</text>
</g>
<!-- Node18 -->
<g id="Node000018" class="node">
<title>Node18</title>
<g id="a_Node000018"><a xlink:href="classJSUList.html" target="_top" xlink:title=" ">
<polygon fill="white" stroke="#666666" points="525.5,-515 451,-515 451,-495.75 525.5,-495.75 525.5,-515"/>
<text text-anchor="middle" x="488.25" y="-501.5" font-family="Helvetica,sans-Serif" font-size="10.00">JSUList&lt; T &gt;</text>
</a>
</g>
</g>
<!-- Node18&#45;&gt;Node17 -->
<g id="edge25_Node000017_Node000018" class="edge">
<title>Node18&#45;&gt;Node17</title>
<g id="a_edge25_Node000017_Node000018"><a xlink:title=" ">
<path fill="none" stroke="#63b8ff" d="M525.65,-489.25C529.87,-486.06 533.59,-482.26 536.25,-477.75 550.75,-453.12 529.67,-419.55 517.64,-403.67"/>
<polygon fill="#63b8ff" stroke="#63b8ff" points="523.83,-486.26 517.16,-494.49 527.51,-492.22 523.83,-486.26"/>
</a>
</g>
</g>
<!-- Node19 -->
<g id="Node000019" class="node">
<title>Node19</title>
<g id="a_Node000019"><a xlink:href="classJSUPtrList.html" target="_top" xlink:title=" ">
<polygon fill="white" stroke="#666666" points="461.62,-633.25 396.88,-633.25 396.88,-614 461.62,-614 461.62,-633.25"/>
<text text-anchor="middle" x="429.25" y="-619.75" font-family="Helvetica,sans-Serif" font-size="10.00">JSUPtrList</text>
</a>
</g>
</g>
<!-- Node19&#45;&gt;Node18 -->
<g id="edge26_Node000018_Node000019" class="edge">
<title>Node19&#45;&gt;Node18</title>
<g id="a_edge26_Node000018_Node000019"><a xlink:title=" ">
<path fill="none" stroke="#63b8ff" d="M444.93,-605.13C447.2,-602.19 449.4,-599.09 451.25,-596 467.81,-568.44 480.26,-532.11 485.51,-515.44"/>
<polygon fill="#63b8ff" stroke="#63b8ff" points="442.41,-602.69 438.68,-612.61 447.78,-607.18 442.41,-602.69"/>
</a>
</g>
</g>
<!-- Node20 -->
<g id="Node000020" class="node">
<title>Node20</title>
<g id="a_Node000020"><a xlink:href="classJSUPtrLink.html" target="_top" xlink:title=" ">
<polygon fill="white" stroke="#666666" points="405.75,-553.88 338.75,-553.88 338.75,-534.62 405.75,-534.62 405.75,-553.88"/>
<text text-anchor="middle" x="372.25" y="-540.38" font-family="Helvetica,sans-Serif" font-size="10.00">JSUPtrLink</text>
</a>
</g>
</g>
<!-- Node19&#45;&gt;Node20 -->
<g id="edge28_Node000020_Node000019" class="edge">
<title>Node19&#45;&gt;Node20</title>
<g id="a_edge28_Node000020_Node000019"><a xlink:title=" ">
<path fill="none" stroke="#9a32cd" stroke-dasharray="5,2" d="M422.84,-602.84C419.19,-593.38 413.99,-582.24 407.25,-573.5 401.44,-565.95 393.21,-559.18 386.2,-554.16"/>
<polygon fill="#9a32cd" stroke="#9a32cd" points="419.51,-603.91 426.13,-612.18 426.11,-601.59 419.51,-603.91"/>
</a>
</g>
<text text-anchor="middle" x="433.75" y="-580.88" font-family="Helvetica,sans-Serif" font-size="10.00" fill="grey"> mList</text>
</g>
<!-- Node22 -->
<g id="Node000022" class="node">
<title>Node22</title>
<g id="a_Node000022"><a xlink:href="classJSUList.html" target="_top" xlink:title=" ">
<polygon fill="white" stroke="#666666" points="657,-515 531.5,-515 531.5,-495.75 657,-495.75 657,-515"/>
<text text-anchor="middle" x="594.25" y="-501.5" font-family="Helvetica,sans-Serif" font-size="10.00">JSUList&lt; JKRDisposer &gt;</text>
</a>
</g>
</g>
<!-- Node19&#45;&gt;Node22 -->
<g id="edge33_Node000022_Node000019" class="edge">
<title>Node19&#45;&gt;Node22</title>
<g id="a_edge33_Node000022_Node000019"><a xlink:title=" ">
<path fill="none" stroke="#63b8ff" d="M453.07,-607.44C458.74,-603.75 464.74,-599.78 470.25,-596 511.88,-567.47 560.02,-531.92 582.07,-515.49"/>
<polygon fill="#63b8ff" stroke="#63b8ff" points="451.18,-604.49 444.68,-612.86 454.98,-610.38 451.18,-604.49"/>
</a>
</g>
</g>
<!-- Node25 -->
<g id="Node000025" class="node">
<title>Node25</title>
<g id="a_Node000025"><a xlink:href="classJSUList.html" target="_top" xlink:title=" ">
<polygon fill="white" stroke="#666666" points="169.75,-440.5 36.75,-440.5 36.75,-421.25 169.75,-421.25 169.75,-440.5"/>
<text text-anchor="middle" x="103.25" y="-427" font-family="Helvetica,sans-Serif" font-size="10.00">JSUList&lt; JKRFileLoader &gt;</text>
</a>
</g>
</g>
<!-- Node19&#45;&gt;Node25 -->
<g id="edge41_Node000025_Node000019" class="edge">
<title>Node19&#45;&gt;Node25</title>
<g id="a_edge41_Node000025_Node000019"><a xlink:title=" ">
<path fill="none" stroke="#63b8ff" d="M393.82,-609.41C384.08,-605.42 373.63,-600.82 364.25,-596 264.29,-544.59 152.7,-467.08 115.82,-440.89"/>
<polygon fill="#63b8ff" stroke="#63b8ff" points="392.42,-612.62 403.01,-613.05 395.01,-606.11 392.42,-612.62"/>
</a>
</g>
</g>
<!-- Node20&#45;&gt;Node19 -->
<g id="edge27_Node000019_Node000020" class="edge">
<title>Node20&#45;&gt;Node19</title>
<g id="a_edge27_Node000019_Node000020"><a xlink:title=" ">
<path fill="none" stroke="#9a32cd" stroke-dasharray="5,2" d="M368.05,-565.6C367.12,-575.51 367.77,-587.16 373.5,-596 378.87,-604.28 387.58,-610.05 396.53,-614.04"/>
<polygon fill="#9a32cd" stroke="#9a32cd" points="371.5,-566.24 369.59,-555.82 364.58,-565.16 371.5,-566.24"/>
</a>
</g>
<text text-anchor="middle" x="391.12" y="-586.5" font-family="Helvetica,sans-Serif" font-size="10.00" fill="grey"> mHead</text>
<text text-anchor="middle" x="391.12" y="-575.25" font-family="Helvetica,sans-Serif" font-size="10.00" fill="grey">mTail</text>
</g>
<!-- Node20&#45;&gt;Node20 -->
<g id="edge29_Node000020_Node000020" class="edge">
<title>Node20&#45;&gt;Node20</title>
<g id="a_edge29_Node000020_Node000020"><a xlink:title=" ">
<path fill="none" stroke="#9a32cd" stroke-dasharray="5,2" d="M417.01,-550.07C421.14,-548.87 423.75,-546.93 423.75,-544.25 423.75,-539.62 415.95,-537.19 405.93,-536.98"/>
<polygon fill="#9a32cd" stroke="#9a32cd" points="416.89,-546.55 407.43,-551.33 417.8,-553.5 416.89,-546.55"/>
</a>
</g>
<text text-anchor="middle" x="439.12" y="-546" font-family="Helvetica,sans-Serif" font-size="10.00" fill="grey"> mNext</text>
<text text-anchor="middle" x="439.12" y="-534.75" font-family="Helvetica,sans-Serif" font-size="10.00" fill="grey">mPrev</text>
</g>
<!-- Node21 -->
<g id="Node000021" class="node">
<title>Node21</title>
<g id="a_Node000021"><a xlink:href="classJSULink.html" target="_top" xlink:title=" ">
<polygon fill="white" stroke="#666666" points="527.62,-477.75 450.88,-477.75 450.88,-458.5 527.62,-458.5 527.62,-477.75"/>
<text text-anchor="middle" x="489.25" y="-464.25" font-family="Helvetica,sans-Serif" font-size="10.00">JSULink&lt; T &gt;</text>
</a>
</g>
</g>
<!-- Node20&#45;&gt;Node21 -->
<g id="edge31_Node000021_Node000020" class="edge">
<title>Node20&#45;&gt;Node21</title>
<g id="a_edge31_Node000021_Node000020"><a xlink:title=" ">
<path fill="none" stroke="#63b8ff" d="M394.03,-527.81C407.69,-518.28 425.79,-505.98 442.25,-495.75 452.13,-489.61 463.46,-483.18 472.53,-478.17"/>
<polygon fill="#63b8ff" stroke="#63b8ff" points="392.36,-524.7 386.19,-533.31 396.38,-530.43 392.36,-524.7"/>
</a>
</g>
</g>
<!-- Node23 -->
<g id="Node000023" class="node">
<title>Node23</title>
<g id="a_Node000023"><a xlink:href="classJSULink.html" target="_top" xlink:title=" ">
<polygon fill="white" stroke="#666666" points="433.12,-477.75 305.38,-477.75 305.38,-458.5 433.12,-458.5 433.12,-477.75"/>
<text text-anchor="middle" x="369.25" y="-464.25" font-family="Helvetica,sans-Serif" font-size="10.00">JSULink&lt; JKRDisposer &gt;</text>
</a>
</g>
</g>
<!-- Node20&#45;&gt;Node23 -->
<g id="edge36_Node000023_Node000020" class="edge">
<title>Node20&#45;&gt;Node23</title>
<g id="a_edge36_Node000023_Node000020"><a xlink:title=" ">
<path fill="none" stroke="#63b8ff" d="M371.43,-523.08C370.83,-508.26 370.05,-488.87 369.6,-477.83"/>
<polygon fill="#63b8ff" stroke="#63b8ff" points="367.92,-522.8 371.82,-532.65 374.91,-522.52 367.92,-522.8"/>
</a>
</g>
</g>
<!-- Node24 -->
<g id="Node000024" class="node">
<title>Node24</title>
<g id="a_Node000024"><a xlink:href="classJSULink.html" target="_top" xlink:title=" ">
<polygon fill="white" stroke="#666666" points="331.88,-440.5 196.62,-440.5 196.62,-421.25 331.88,-421.25 331.88,-440.5"/>
<text text-anchor="middle" x="264.25" y="-427" font-family="Helvetica,sans-Serif" font-size="10.00">JSULink&lt; JKRFileLoader &gt;</text>
</a>
</g>
</g>
<!-- Node20&#45;&gt;Node24 -->
<g id="edge38_Node000024_Node000020" class="edge">
<title>Node20&#45;&gt;Node24</title>
<g id="a_edge38_Node000024_Node000020"><a xlink:title=" ">
<path fill="none" stroke="#63b8ff" d="M351.02,-527.32C335.03,-514.79 313.07,-496.38 296.25,-477.75 285.58,-465.93 275.45,-450.43 269.54,-440.81"/>
<polygon fill="#63b8ff" stroke="#63b8ff" points="348.85,-530.07 358.9,-533.4 353.12,-524.52 348.85,-530.07"/>
</a>
</g>
</g>
<!-- Node21&#45;&gt;Node17 -->
<g id="edge30_Node000017_Node000021" class="edge">
<title>Node21&#45;&gt;Node17</title>
<g id="a_edge30_Node000017_Node000021"><a xlink:title=" ">
<path fill="none" stroke="#63b8ff" d="M494.93,-447.53C499.07,-433.22 504.5,-414.49 507.65,-403.59"/>
<polygon fill="#63b8ff" stroke="#63b8ff" points="491.67,-446.2 492.25,-456.78 498.39,-448.15 491.67,-446.2"/>
</a>
</g>
</g>
<!-- Node22&#45;&gt;Node9 -->
<g id="edge32_Node000009_Node000022" class="edge">
<title>Node22&#45;&gt;Node9</title>
<g id="a_edge32_Node000009_Node000022"><a xlink:title=" ">
<path fill="none" stroke="#9a32cd" stroke-dasharray="5,2" d="M594.35,-484.12C594.57,-441.21 595.06,-342.67 595.21,-312.77"/>
<polygon fill="#9a32cd" stroke="#9a32cd" points="590.85,-483.98 594.3,-493.99 597.85,-484.01 590.85,-483.98"/>
</a>
</g>
<text text-anchor="middle" x="626.88" y="-427" font-family="Helvetica,sans-Serif" font-size="10.00" fill="grey"> mDisposerList</text>
</g>
<!-- Node23&#45;&gt;Node8 -->
<g id="edge35_Node000008_Node000023" class="edge">
<title>Node23&#45;&gt;Node8</title>
<g id="a_edge35_Node000008_Node000023"><a xlink:title=" ">
<path fill="none" stroke="#9a32cd" stroke-dasharray="5,2" d="M376.82,-447.53C382.34,-433.22 389.58,-414.49 393.79,-403.59"/>
<polygon fill="#9a32cd" stroke="#9a32cd" points="373.57,-446.23 373.23,-456.82 380.1,-448.76 373.57,-446.23"/>
</a>
</g>
<text text-anchor="middle" x="401.88" y="-427" font-family="Helvetica,sans-Serif" font-size="10.00" fill="grey"> mLink</text>
</g>
<!-- Node24&#45;&gt;Node7 -->
<g id="edge37_Node000007_Node000024" class="edge">
<title>Node24&#45;&gt;Node7</title>
<g id="a_edge37_Node000007_Node000024"><a xlink:title=" ">
<path fill="none" stroke="#9a32cd" stroke-dasharray="5,2" d="M238.16,-415.22C191.35,-388.91 94.41,-334.43 56.21,-312.97"/>
<polygon fill="#9a32cd" stroke="#9a32cd" points="236.39,-418.23 246.82,-420.08 239.82,-412.13 236.39,-418.23"/>
</a>
</g>
<text text-anchor="middle" x="253.75" y="-389.75" font-family="Helvetica,sans-Serif" font-size="10.00" fill="grey"> mFileLoaderLink</text>
</g>
<!-- Node25&#45;&gt;Node7 -->
<g id="edge40_Node000007_Node000025" class="edge">
<title>Node25&#45;&gt;Node7</title>
<g id="a_edge40_Node000007_Node000025"><a xlink:title=" ">
<path fill="none" stroke="#9a32cd" stroke-dasharray="5,2" d="M93.72,-410.84C79.92,-383.27 54.92,-333.3 44.74,-312.97"/>
<polygon fill="#9a32cd" stroke="#9a32cd" points="90.44,-412.09 98.04,-419.47 96.7,-408.96 90.44,-412.09"/>
</a>
</g>
<text text-anchor="middle" x="118.75" y="-389.75" font-family="Helvetica,sans-Serif" font-size="10.00" fill="grey"> sVolumeList</text>
</g>
<!-- Node26 -->
<g id="Node000026" class="node">
<title>Node26</title>
<g id="a_Node000026"><a xlink:href="structSArcDataInfo.html" target="_top" xlink:title=" ">
<polygon fill="white" stroke="#666666" points="263.5,-312.62 189,-312.62 189,-293.38 263.5,-293.38 263.5,-312.62"/>
<text text-anchor="middle" x="226.25" y="-299.12" font-family="Helvetica,sans-Serif" font-size="10.00">SArcDataInfo</text>
</a>
</g>
</g>
<!-- Node26&#45;&gt;Node6 -->
<g id="edge43_Node000006_Node000026" class="edge">
<title>Node26&#45;&gt;Node6</title>
<g id="a_edge43_Node000006_Node000026"><a xlink:title=" ">
<path fill="none" stroke="#9a32cd" stroke-dasharray="5,2" d="M239.93,-284.03C248.82,-273.34 261.2,-260.16 274.5,-251.25 286.77,-243.03 301.78,-236.69 314.97,-232.11"/>
<polygon fill="#9a32cd" stroke="#9a32cd" points="237.25,-281.77 233.76,-291.77 242.73,-286.13 237.25,-281.77"/>
</a>
</g>
<text text-anchor="middle" x="308.62" y="-253" font-family="Helvetica,sans-Serif" font-size="10.00" fill="grey"> mArcInfoBlock</text>
</g>
<!-- Node27 -->
<g id="Node000027" class="node">
<title>Node27</title>
<g id="a_Node000027"><a xlink:href="structJKRArchive_1_1SDIDirEntry.html" target="_top" xlink:title=" ">
<polygon fill="white" stroke="#666666" points="404.5,-312.62 282,-312.62 282,-293.38 404.5,-293.38 404.5,-312.62"/>
<text text-anchor="middle" x="343.25" y="-299.12" font-family="Helvetica,sans-Serif" font-size="10.00">JKRArchive::SDIDirEntry</text>
</a>
</g>
</g>
<!-- Node27&#45;&gt;Node6 -->
<g id="edge44_Node000006_Node000027" class="edge">
<title>Node27&#45;&gt;Node6</title>
<g id="a_edge44_Node000006_Node000027"><a xlink:title=" ">
<path fill="none" stroke="#9a32cd" stroke-dasharray="5,2" d="M344.29,-281.54C345.1,-265.49 346.19,-243.92 346.8,-231.96"/>
<polygon fill="#9a32cd" stroke="#9a32cd" points="340.8,-281.26 343.79,-291.43 347.79,-281.62 340.8,-281.26"/>
</a>
</g>
<text text-anchor="middle" x="365.75" y="-253" font-family="Helvetica,sans-Serif" font-size="10.00" fill="grey"> mNodes</text>
</g>
<!-- Node28 -->
<g id="Node000028" class="node">
<title>Node28</title>
<g id="a_Node000028"><a xlink:href="structJKRArchive_1_1SDIFileEntry.html" target="_top" xlink:title=" ">
<polygon fill="white" stroke="#666666" points="548.38,-312.62 422.12,-312.62 422.12,-293.38 548.38,-293.38 548.38,-312.62"/>
<text text-anchor="middle" x="485.25" y="-299.12" font-family="Helvetica,sans-Serif" font-size="10.00">JKRArchive::SDIFileEntry</text>
</a>
</g>
</g>
<!-- Node28&#45;&gt;Node6 -->
<g id="edge45_Node000006_Node000028" class="edge">
<title>Node28&#45;&gt;Node6</title>
<g id="a_edge45_Node000006_Node000028"><a xlink:title=" ">
<path fill="none" stroke="#9a32cd" stroke-dasharray="5,2" d="M457.94,-287.79C444.01,-280.43 426.87,-271.18 411.75,-262.5 394.21,-252.43 374.44,-240.18 361.46,-232.02"/>
<polygon fill="#9a32cd" stroke="#9a32cd" points="456.05,-290.75 466.53,-292.31 459.31,-284.56 456.05,-290.75"/>
</a>
</g>
<text text-anchor="middle" x="428" y="-253" font-family="Helvetica,sans-Serif" font-size="10.00" fill="grey"> mFiles</text>
</g>
<!-- Node29 -->
<g id="Node000029" class="node">
<title>Node29</title>
<g id="a_Node000029"><a xlink:href="structSArcHeader.html" target="_top" xlink:title=" ">
<polygon fill="white" stroke="#666666" points="468.88,-231.62 399.62,-231.62 399.62,-212.38 468.88,-212.38 468.88,-231.62"/>
<text text-anchor="middle" x="434.25" y="-218.12" font-family="Helvetica,sans-Serif" font-size="10.00">SArcHeader</text>
</a>
</g>
</g>
<!-- Node29&#45;&gt;Node5 -->
<g id="edge46_Node000005_Node000029" class="edge">
<title>Node29&#45;&gt;Node5</title>
<g id="a_edge46_Node000005_Node000029"><a xlink:title=" ">
<path fill="none" stroke="#9a32cd" stroke-dasharray="5,2" d="M434.25,-200.96C434.25,-185.24 434.25,-164.12 434.25,-152.4"/>
<polygon fill="#9a32cd" stroke="#9a32cd" points="430.75,-200.61 434.25,-210.61 437.75,-200.61 430.75,-200.61"/>
</a>
</g>
<text text-anchor="middle" x="462.75" y="-177.62" font-family="Helvetica,sans-Serif" font-size="10.00" fill="grey"> mArcHeader</text>
</g>
<!-- Node30&#45;&gt;Node1 -->
<g id="edge50_Node000001_Node000030" class="edge">
<title>Node30&#45;&gt;Node1</title>
<g id="a_edge50_Node000001_Node000030"><a xlink:title=" ">
<path fill="none" stroke="#9a32cd" stroke-dasharray="5,2" d="M779.73,-200.68C776.12,-164.57 764.35,-88.26 727.25,-37.25 721.95,-29.96 714,-24.02 706.66,-19.61"/>
<polygon fill="#9a32cd" stroke="#9a32cd" points="776.23,-200.87 780.59,-210.53 783.2,-200.26 776.23,-200.87"/>
</a>
</g>
<text text-anchor="middle" x="790.25" y="-105.5" font-family="Helvetica,sans-Serif" font-size="10.00" fill="grey"> mDataHeap</text>
</g>
<!-- Node31 -->
<g id="Node000031" class="node">
<title>Node31</title>
<g id="a_Node000031"><a xlink:href="structJKRSolidHeap_1_1Unknown.html" target="_top" xlink:title=" ">
<polygon fill="white" stroke="#666666" points="848,-312.62 722.5,-312.62 722.5,-293.38 848,-293.38 848,-312.62"/>
<text text-anchor="middle" x="785.25" y="-299.12" font-family="Helvetica,sans-Serif" font-size="10.00">JKRSolidHeap::Unknown</text>
</a>
</g>
</g>
<!-- Node31&#45;&gt;Node30 -->
<g id="edge52_Node000030_Node000031" class="edge">
<title>Node31&#45;&gt;Node30</title>
<g id="a_edge52_Node000030_Node000031"><a xlink:title=" ">
<path fill="none" stroke="#9a32cd" stroke-dasharray="5,2" d="M784.21,-281.54C783.4,-265.49 782.31,-243.92 781.7,-231.96"/>
<polygon fill="#9a32cd" stroke="#9a32cd" points="780.71,-281.62 784.71,-291.43 787.7,-281.26 780.71,-281.62"/>
</a>
</g>
<text text-anchor="middle" x="805.75" y="-253" font-family="Helvetica,sans-Serif" font-size="10.00" fill="grey"> field_0x78</text>
</g>
<!-- Node31&#45;&gt;Node31 -->
<g id="edge53_Node000031_Node000031" class="edge">
<title>Node31&#45;&gt;Node31</title>
<g id="a_edge53_Node000031_Node000031"><a xlink:title=" ">
<path fill="none" stroke="#9a32cd" stroke-dasharray="5,2" d="M859.49,-308.78C863.57,-307.38 866,-305.45 866,-303 866,-298.77 858.74,-296.09 848.22,-294.96"/>
<polygon fill="#9a32cd" stroke="#9a32cd" points="858.83,-305.35 849.71,-310.74 860.2,-312.21 858.83,-305.35"/>
</a>
</g>
<text text-anchor="middle" x="881.38" y="-299.12" font-family="Helvetica,sans-Serif" font-size="10.00" fill="grey"> mNext</text>
</g>
</g>
</svg>

<g id="navigator" transform="translate(0 0)" fill="#404254">
  <rect fill="#f2f5e9" fill-opacity="0.5" stroke="#606060" stroke-width=".5" x="0" y="0" width="60" height="60"/>
  <use id="zoomplus" xlink:href="#zoomPlus" x="17" y="9" onmousedown="handleZoom(evt,'in')"/>
  <use id="zoomminus" xlink:href="#zoomMin" x="42" y="9" onmousedown="handleZoom(evt,'out')"/>
  <use id="reset" xlink:href="#resetDef" x="30" y="36" onmousedown="handleReset()"/>
   <use id="arrowup" xlink:href="#arrowUp" x="0" y="0" onmousedown="handlePan(0,-1)"/>
  <use id="arrowright" xlink:href="#arrowRight" x="0" y="0" onmousedown="handlePan(1,0)"/>
  <use id="arrowdown" xlink:href="#arrowDown" x="0" y="0" onmousedown="handlePan(0,1)"/>
  <use id="arrowleft" xlink:href="#arrowLeft" x="0" y="0" onmousedown="handlePan(-1,0)"/>
</g>
<svg viewBox="0 0 15 15" width="100%" height="30px" preserveAspectRatio="xMaxYMin meet">
 <g id="arrow_out" transform="scale(0.3 0.3)">
  <a xlink:href="classdRes__info__c__coll__graph_org.svg" target="_base">
   <rect id="button" ry="5" rx="5" y="6" x="6" height="38" width="38"
        fill="#f2f5e9" fill-opacity="0.5" stroke="#606060" stroke-width="1.0"/>
   <path id="arrow"
     d="M 11.500037,31.436501 C 11.940474,20.09759 22.043105,11.32322 32.158766,21.979434 L 37.068811,17.246167 C 37.068811,17.246167 37.088388,32 37.088388,32 L 22.160133,31.978069 C 22.160133,31.978069 26.997745,27.140456 26.997745,27.140456 C 18.528582,18.264221 13.291696,25.230495 11.500037,31.436501 z"
     style="fill:#404040;"/>
  </a>
 </g>
</svg>

<style type='text/css'>
<![CDATA[
[data-mouse-over-selected='false'] { opacity: 0.7; }
[data-mouse-over-selected='true']  { opacity: 1.0; }
]]>
</style>
<script type="application/ecmascript"><![CDATA[
document.addEventListener('DOMContentLoaded', (event) => {
  highlightEdges();
  highlightAdjacentNodes();
});
]]></script>
</svg>
