<?xml version="1.0" encoding="UTF-8" standalone="no"?>
<!DOCTYPE svg PUBLIC "-//W3C//DTD SVG 1.1//EN"
 "http://www.w3.org/Graphics/SVG/1.1/DTD/svg11.dtd">
<!-- Generated by graphviz version 9.0.0 (20230911.1827)
 -->
<!-- Title: cBgS_ShdwDraw Pages: 1 -->
<svg width="349pt" height="299pt"
 viewBox="0.00 0.00 348.62 298.50" xmlns="http://www.w3.org/2000/svg" xmlns:xlink="http://www.w3.org/1999/xlink">

<svg id="main" version="1.1" xmlns="http://www.w3.org/2000/svg" xmlns:xlink="http://www.w3.org/1999/xlink" xml:space="preserve" onload="init(evt)">
<style type="text/css"><![CDATA[
.node, .edge {opacity: 0.7;}
.node.selected, .edge.selected {opacity: 1;}
.edge:hover path { stroke: red; }
.edge:hover polygon { stroke: red; fill: red; }
]]></style>
<script type="application/ecmascript" xlink:href="svg.min.js"/>
<svg id="graph" class="graph">
<g id="graph0" class="graph" transform="scale(1 1) rotate(0) translate(4 294.5)">
<title>cBgS_ShdwDraw</title>
<!-- Node1 -->
<g id="Node000001" class="node">
<title>Node1</title>
<g id="a_Node000001"><a xlink:title=" ">
<polygon fill="#999999" stroke="#666666" points="258.12,-19.25 165.62,-19.25 165.62,0 258.12,0 258.12,-19.25"/>
<text text-anchor="middle" x="211.88" y="-5.75" font-family="Helvetica,sans-Serif" font-size="10.00">cBgS_ShdwDraw</text>
</a>
</g>
</g>
<!-- Node1&#45;&gt;Node1 -->
<g id="edge8_Node000001_Node000001" class="edge">
<title>Node1&#45;&gt;Node1</title>
<g id="a_edge8_Node000001_Node000001"><a xlink:title=" ">
<path fill="none" stroke="#9a32cd" stroke-dasharray="5,2" d="M269.53,-14.19C273.62,-13.16 276.12,-11.63 276.12,-9.62 276.12,-6.15 268.64,-4.13 258.37,-3.56"/>
<polygon fill="#9a32cd" stroke="#9a32cd" points="269.31,-10.69 259.87,-15.49 270.24,-17.63 269.31,-10.69"/>
</a>
</g>
<text text-anchor="middle" x="308.38" y="-5.75" font-family="Helvetica,sans-Serif" font-size="10.00" fill="grey"> mCallbackFun</text>
</g>
<!-- Node2 -->
<g id="Node000002" class="node">
<title>Node2</title>
<g id="a_Node000002"><a xlink:href="classcBgS__Chk.html" target="_top" xlink:title=" ">
<polygon fill="white" stroke="#666666" points="203.12,-85.75 140.62,-85.75 140.62,-66.5 203.12,-66.5 203.12,-85.75"/>
<text text-anchor="middle" x="171.88" y="-72.25" font-family="Helvetica,sans-Serif" font-size="10.00">cBgS_Chk</text>
</a>
</g>
</g>
<!-- Node2&#45;&gt;Node1 -->
<g id="edge1_Node000001_Node000002" class="edge">
<title>Node2&#45;&gt;Node1</title>
<g id="a_edge1_Node000001_Node000002"><a xlink:title=" ">
<path fill="none" stroke="#63b8ff" d="M183.42,-56.51C190.96,-44.35 200.47,-29.02 206.36,-19.52"/>
<polygon fill="#63b8ff" stroke="#63b8ff" points="180.53,-54.53 178.23,-64.87 186.48,-58.22 180.53,-54.53"/>
</a>
</g>
</g>
<!-- Node3 -->
<g id="Node000003" class="node">
<title>Node3</title>
<g id="a_Node000003"><a xlink:href="classcBgS__PolyPassChk.html" target="_top" xlink:title=" ">
<polygon fill="white" stroke="#666666" points="103.75,-198.88 0,-198.88 0,-179.62 103.75,-179.62 103.75,-198.88"/>
<text text-anchor="middle" x="51.88" y="-185.38" font-family="Helvetica,sans-Serif" font-size="10.00">cBgS_PolyPassChk</text>
</a>
</g>
</g>
<!-- Node3&#45;&gt;Node2 -->
<g id="edge2_Node000002_Node000003" class="edge">
<title>Node3&#45;&gt;Node2</title>
<g id="a_edge2_Node000002_Node000003"><a xlink:title=" ">
<path fill="none" stroke="#9a32cd" stroke-dasharray="5,2" d="M58.25,-168.54C65.35,-149.5 78.56,-121.08 98.88,-103.75 110.57,-93.77 126.33,-87.4 140.21,-83.4"/>
<polygon fill="#9a32cd" stroke="#9a32cd" points="55.01,-167.21 55.03,-177.81 61.62,-169.51 55.01,-167.21"/>
</a>
</g>
<text text-anchor="middle" x="133.38" y="-111.12" font-family="Helvetica,sans-Serif" font-size="10.00" fill="grey"> mPolyPassChk</text>
</g>
<!-- Node4 -->
<g id="Node000004" class="node">
<title>Node4</title>
<g id="a_Node000004"><a xlink:href="classcBgS__GrpPassChk.html" target="_top" xlink:title=" ">
<polygon fill="white" stroke="#666666" points="222.25,-198.88 121.5,-198.88 121.5,-179.62 222.25,-179.62 222.25,-198.88"/>
<text text-anchor="middle" x="171.88" y="-185.38" font-family="Helvetica,sans-Serif" font-size="10.00">cBgS_GrpPassChk</text>
</a>
</g>
</g>
<!-- Node4&#45;&gt;Node2 -->
<g id="edge3_Node000002_Node000004" class="edge">
<title>Node4&#45;&gt;Node2</title>
<g id="a_edge3_Node000002_Node000004"><a xlink:title=" ">
<path fill="none" stroke="#9a32cd" stroke-dasharray="5,2" d="M171.88,-167.68C171.88,-143.26 171.88,-103.63 171.88,-86.03"/>
<polygon fill="#9a32cd" stroke="#9a32cd" points="168.38,-167.64 171.88,-177.64 175.38,-167.64 168.38,-167.64"/>
</a>
</g>
<text text-anchor="middle" x="204.88" y="-111.12" font-family="Helvetica,sans-Serif" font-size="10.00" fill="grey"> mGrpPassChk</text>
</g>
<!-- Node5 -->
<g id="Node000005" class="node">
<title>Node5</title>
<g id="a_Node000005"><a xlink:href="structcM3dGAab.html" target="_top" xlink:title=" ">
<polygon fill="white" stroke="#666666" points="289.25,-85.75 224.5,-85.75 224.5,-66.5 289.25,-66.5 289.25,-85.75"/>
<text text-anchor="middle" x="256.88" y="-72.25" font-family="Helvetica,sans-Serif" font-size="10.00">cM3dGAab</text>
</a>
</g>
</g>
<!-- Node5&#45;&gt;Node1 -->
<g id="edge4_Node000001_Node000005" class="edge">
<title>Node5&#45;&gt;Node1</title>
<g id="a_edge4_Node000001_Node000005"><a xlink:title=" ">
<path fill="none" stroke="#9a32cd" stroke-dasharray="5,2" d="M244.15,-56.88C235.62,-44.66 224.77,-29.11 218.08,-19.52"/>
<polygon fill="#9a32cd" stroke="#9a32cd" points="241.16,-58.72 249.75,-64.92 246.9,-54.71 241.16,-58.72"/>
</a>
</g>
<text text-anchor="middle" x="263.88" y="-39" font-family="Helvetica,sans-Serif" font-size="10.00" fill="grey"> mM3dGAab</text>
</g>
<!-- Node6 -->
<g id="Node000006" class="node">
<title>Node6</title>
<g id="a_Node000006"><a xlink:href="structcXyz.html" target="_top" xlink:title=" ">
<polygon fill="white" stroke="#666666" points="279.38,-198.88 242.38,-198.88 242.38,-179.62 279.38,-179.62 279.38,-198.88"/>
<text text-anchor="middle" x="260.88" y="-185.38" font-family="Helvetica,sans-Serif" font-size="10.00">cXyz</text>
</a>
</g>
</g>
<!-- Node6&#45;&gt;Node5 -->
<g id="edge5_Node000005_Node000006" class="edge">
<title>Node6&#45;&gt;Node5</title>
<g id="a_edge5_Node000005_Node000006"><a xlink:title=" ">
<path fill="none" stroke="#9a32cd" stroke-dasharray="5,2" d="M260.13,-167.68C259.26,-143.26 257.83,-103.63 257.2,-86.03"/>
<polygon fill="#9a32cd" stroke="#9a32cd" points="256.64,-167.78 260.49,-177.64 263.63,-167.52 256.64,-167.78"/>
</a>
</g>
<text text-anchor="middle" x="272.12" y="-116.75" font-family="Helvetica,sans-Serif" font-size="10.00" fill="grey"> mMax</text>
<text text-anchor="middle" x="272.12" y="-105.5" font-family="Helvetica,sans-Serif" font-size="10.00" fill="grey">mMin</text>
</g>
<!-- Node6&#45;&gt;Node6 -->
<g id="edge7_Node000006_Node000006" class="edge">
<title>Node6&#45;&gt;Node6</title>
<g id="a_edge7_Node000006_Node000006"><a xlink:title=" ">
<path fill="none" stroke="#9a32cd" stroke-dasharray="5,2" d="M285.64,-201.07C292.31,-200.43 297.38,-196.49 297.38,-189.25 297.38,-178.21 285.61,-174.85 274.35,-179.16"/>
<polygon fill="#9a32cd" stroke="#9a32cd" points="286.26,-197.62 275.85,-199.57 285.2,-204.54 286.26,-197.62"/>
</a>
</g>
<text text-anchor="middle" x="318.38" y="-224.75" font-family="Helvetica,sans-Serif" font-size="10.00" fill="grey"> BaseX</text>
<text text-anchor="middle" x="318.38" y="-213.5" font-family="Helvetica,sans-Serif" font-size="10.00" fill="grey">BaseXY</text>
<text text-anchor="middle" x="318.38" y="-202.25" font-family="Helvetica,sans-Serif" font-size="10.00" fill="grey">BaseXYZ</text>
<text text-anchor="middle" x="318.38" y="-191" font-family="Helvetica,sans-Serif" font-size="10.00" fill="grey">BaseXZ</text>
<text text-anchor="middle" x="318.38" y="-179.75" font-family="Helvetica,sans-Serif" font-size="10.00" fill="grey">BaseY</text>
<text text-anchor="middle" x="318.38" y="-168.5" font-family="Helvetica,sans-Serif" font-size="10.00" fill="grey">BaseYZ</text>
<text text-anchor="middle" x="318.38" y="-157.25" font-family="Helvetica,sans-Serif" font-size="10.00" fill="grey">BaseZ</text>
<text text-anchor="middle" x="318.38" y="-146" font-family="Helvetica,sans-Serif" font-size="10.00" fill="grey">Zero</text>
</g>
<!-- Node7 -->
<g id="Node000007" class="node">
<title>Node7</title>
<g id="a_Node000007"><a xlink:href="structVec.html" target="_top" xlink:title=" ">
<polygon fill="white" stroke="#666666" points="277.5,-290.5 244.25,-290.5 244.25,-271.25 277.5,-271.25 277.5,-290.5"/>
<text text-anchor="middle" x="260.88" y="-277" font-family="Helvetica,sans-Serif" font-size="10.00">Vec</text>
</a>
</g>
</g>
<!-- Node7&#45;&gt;Node6 -->
<g id="edge6_Node000006_Node000007" class="edge">
<title>Node7&#45;&gt;Node6</title>
<g id="a_edge6_Node000006_Node000007"><a xlink:title=" ">
<path fill="none" stroke="#63b8ff" d="M260.88,-259.69C260.88,-240.69 260.88,-213.14 260.88,-199.14"/>
<polygon fill="#63b8ff" stroke="#63b8ff" points="257.38,-259.44 260.88,-269.44 264.38,-259.44 257.38,-259.44"/>
</a>
</g>
</g>
</g>
</svg>
</svg>

<style type='text/css'>
<![CDATA[
[data-mouse-over-selected='false'] { opacity: 0.7; }
[data-mouse-over-selected='true']  { opacity: 1.0; }
]]>
</style>
<script type="application/ecmascript"><![CDATA[
document.addEventListener('DOMContentLoaded', (event) => {
  highlightEdges();
  highlightAdjacentNodes();
});
]]></script>
</svg>
