<?xml version="1.0" encoding="UTF-8" standalone="no"?>
<!DOCTYPE svg PUBLIC "-//W3C//DTD SVG 1.1//EN"
 "http://www.w3.org/Graphics/SVG/1.1/DTD/svg11.dtd">
<!-- Generated by graphviz version 9.0.0 (20230911.1827)
 -->
<!-- Title: mDoExt_bpkAnm Pages: 1 -->
<svg width="313pt" height="293pt"
 viewBox="0.00 0.00 312.88 293.25" xmlns="http://www.w3.org/2000/svg" xmlns:xlink="http://www.w3.org/1999/xlink">
<g id="graph0" class="graph" transform="scale(1 1) rotate(0) translate(4 289.25)">
<title>mDoExt_bpkAnm</title>
<!-- Node1 -->
<g id="Node000001" class="node">
<title>Node1</title>
<g id="a_Node000001"><a xlink:title=" ">
<polygon fill="#999999" stroke="#666666" points="144.62,-19.25 53.62,-19.25 53.62,0 144.62,0 144.62,-19.25"/>
<text text-anchor="middle" x="99.12" y="-5.75" font-family="Helvetica,sans-Serif" font-size="10.00">mDoExt_bpkAnm</text>
</a>
</g>
</g>
<!-- Node2 -->
<g id="Node000002" class="node">
<title>Node2</title>
<g id="a_Node000002"><a xlink:href="structmDoExt__baseAnm.html" target="_top" xlink:title=" ">
<polygon fill="white" stroke="#666666" points="96.25,-85.75 0,-85.75 0,-66.5 96.25,-66.5 96.25,-85.75"/>
<text text-anchor="middle" x="48.12" y="-72.25" font-family="Helvetica,sans-Serif" font-size="10.00">mDoExt_baseAnm</text>
</a>
</g>
</g>
<!-- Node2&#45;&gt;Node1 -->
<g id="edge1_Node000001_Node000002" class="edge">
<title>Node2&#45;&gt;Node1</title>
<g id="a_edge1_Node000001_Node000002"><a xlink:title=" ">
<path fill="none" stroke="#63b8ff" d="M62.26,-57.24C71.97,-44.97 84.43,-29.21 92.09,-19.52"/>
<polygon fill="#63b8ff" stroke="#63b8ff" points="59.61,-54.95 56.16,-64.97 65.1,-59.3 59.61,-54.95"/>
</a>
</g>
</g>
<!-- Node3 -->
<g id="Node000003" class="node">
<title>Node3</title>
<g id="a_Node000003"><a xlink:href="structJ3DFrameCtrl.html" target="_top" xlink:title=" ">
<polygon fill="white" stroke="#666666" points="86.12,-152.25 10.12,-152.25 10.12,-133 86.12,-133 86.12,-152.25"/>
<text text-anchor="middle" x="48.12" y="-138.75" font-family="Helvetica,sans-Serif" font-size="10.00">J3DFrameCtrl</text>
</a>
</g>
</g>
<!-- Node3&#45;&gt;Node2 -->
<g id="edge2_Node000002_Node000003" class="edge">
<title>Node3&#45;&gt;Node2</title>
<g id="a_edge2_Node000002_Node000003"><a xlink:title=" ">
<path fill="none" stroke="#9a32cd" stroke-dasharray="5,2" d="M48.12,-121.15C48.12,-109.32 48.12,-95.04 48.12,-86.02"/>
<polygon fill="#9a32cd" stroke="#9a32cd" points="44.63,-121.14 48.13,-131.14 51.63,-121.14 44.63,-121.14"/>
</a>
</g>
<text text-anchor="middle" x="74.75" y="-105.5" font-family="Helvetica,sans-Serif" font-size="10.00" fill="grey"> mFrameCtrl</text>
</g>
<!-- Node4 -->
<g id="Node000004" class="node">
<title>Node4</title>
<g id="a_Node000004"><a xlink:href="classJ3DAnmColor.html" target="_top" xlink:title=" ">
<polygon fill="white" stroke="#666666" points="190.12,-85.75 114.12,-85.75 114.12,-66.5 190.12,-66.5 190.12,-85.75"/>
<text text-anchor="middle" x="152.12" y="-72.25" font-family="Helvetica,sans-Serif" font-size="10.00">J3DAnmColor</text>
</a>
</g>
</g>
<!-- Node4&#45;&gt;Node1 -->
<g id="edge3_Node000001_Node000004" class="edge">
<title>Node4&#45;&gt;Node1</title>
<g id="a_edge3_Node000001_Node000004"><a xlink:title=" ">
<path fill="none" stroke="#9a32cd" stroke-dasharray="5,2" d="M137.73,-57.61C127.61,-45.28 114.47,-29.31 106.43,-19.52"/>
<polygon fill="#9a32cd" stroke="#9a32cd" points="134.74,-59.48 143.79,-64.99 140.15,-55.04 134.74,-59.48"/>
</a>
</g>
<text text-anchor="middle" x="147.12" y="-39" font-family="Helvetica,sans-Serif" font-size="10.00" fill="grey"> mpAnm</text>
</g>
<!-- Node5 -->
<g id="Node000005" class="node">
<title>Node5</title>
<g id="a_Node000005"><a xlink:href="classJ3DAnmBase.html" target="_top" xlink:title=" ">
<polygon fill="white" stroke="#666666" points="185.12,-152.25 109.12,-152.25 109.12,-133 185.12,-133 185.12,-152.25"/>
<text text-anchor="middle" x="147.12" y="-138.75" font-family="Helvetica,sans-Serif" font-size="10.00">J3DAnmBase</text>
</a>
</g>
</g>
<!-- Node5&#45;&gt;Node4 -->
<g id="edge4_Node000004_Node000005" class="edge">
<title>Node5&#45;&gt;Node4</title>
<g id="a_edge4_Node000004_Node000005"><a xlink:title=" ">
<path fill="none" stroke="#63b8ff" d="M148.68,-121.52C149.61,-109.62 150.73,-95.13 151.44,-86.02"/>
<polygon fill="#63b8ff" stroke="#63b8ff" points="145.22,-120.91 147.94,-131.15 152.2,-121.45 145.22,-120.91"/>
</a>
</g>
</g>
<!-- Node6 -->
<g id="Node000006" class="node">
<title>Node6</title>
<g id="a_Node000006"><a xlink:href="structJUTNameTab.html" target="_top" xlink:title=" ">
<polygon fill="white" stroke="#666666" points="280.88,-152.25 203.38,-152.25 203.38,-133 280.88,-133 280.88,-152.25"/>
<text text-anchor="middle" x="242.12" y="-138.75" font-family="Helvetica,sans-Serif" font-size="10.00">JUTNameTab</text>
</a>
</g>
</g>
<!-- Node6&#45;&gt;Node4 -->
<g id="edge5_Node000004_Node000006" class="edge">
<title>Node6&#45;&gt;Node4</title>
<g id="a_edge5_Node000004_Node000006"><a xlink:title=" ">
<path fill="none" stroke="#9a32cd" stroke-dasharray="5,2" d="M220.72,-126.28C203.31,-113.81 179.33,-96.62 164.82,-86.23"/>
<polygon fill="#9a32cd" stroke="#9a32cd" points="218.21,-128.79 228.38,-131.77 222.29,-123.1 218.21,-128.79"/>
</a>
</g>
<text text-anchor="middle" x="253.5" y="-105.5" font-family="Helvetica,sans-Serif" font-size="10.00" fill="grey"> mUpdateMaterialName</text>
</g>
<!-- Node7 -->
<g id="Node000007" class="node">
<title>Node7</title>
<g id="a_Node000007"><a xlink:href="structResNTAB.html" target="_top" xlink:title=" ">
<polygon fill="white" stroke="#666666" points="272.25,-218.75 212,-218.75 212,-199.5 272.25,-199.5 272.25,-218.75"/>
<text text-anchor="middle" x="242.12" y="-205.25" font-family="Helvetica,sans-Serif" font-size="10.00">ResNTAB</text>
</a>
</g>
</g>
<!-- Node7&#45;&gt;Node6 -->
<g id="edge6_Node000006_Node000007" class="edge">
<title>Node7&#45;&gt;Node6</title>
<g id="a_edge6_Node000006_Node000007"><a xlink:title=" ">
<path fill="none" stroke="#9a32cd" stroke-dasharray="5,2" d="M242.12,-187.65C242.12,-175.82 242.12,-161.54 242.12,-152.52"/>
<polygon fill="#9a32cd" stroke="#9a32cd" points="238.63,-187.64 242.13,-197.64 245.63,-187.64 238.63,-187.64"/>
</a>
</g>
<text text-anchor="middle" x="272.5" y="-172" font-family="Helvetica,sans-Serif" font-size="10.00" fill="grey"> mNameTable</text>
</g>
<!-- Node8 -->
<g id="Node000008" class="node">
<title>Node8</title>
<g id="a_Node000008"><a xlink:href="structResNTAB_1_1Entry.html" target="_top" xlink:title=" ">
<polygon fill="white" stroke="#666666" points="285.38,-285.25 198.88,-285.25 198.88,-266 285.38,-266 285.38,-285.25"/>
<text text-anchor="middle" x="242.12" y="-271.75" font-family="Helvetica,sans-Serif" font-size="10.00">ResNTAB::Entry</text>
</a>
</g>
</g>
<!-- Node8&#45;&gt;Node7 -->
<g id="edge7_Node000007_Node000008" class="edge">
<title>Node8&#45;&gt;Node7</title>
<g id="a_edge7_Node000007_Node000008"><a xlink:title=" ">
<path fill="none" stroke="#9a32cd" stroke-dasharray="5,2" d="M242.12,-254.15C242.12,-242.32 242.12,-228.04 242.12,-219.02"/>
<polygon fill="#9a32cd" stroke="#9a32cd" points="238.63,-254.14 242.13,-264.14 245.63,-254.14 238.63,-254.14"/>
</a>
</g>
<text text-anchor="middle" x="262.38" y="-238.5" font-family="Helvetica,sans-Serif" font-size="10.00" fill="grey"> mEntries</text>
</g>
</g>
</svg>
