<?xml version="1.0" encoding="UTF-8" standalone="no"?>
<!DOCTYPE svg PUBLIC "-//W3C//DTD SVG 1.1//EN"
 "http://www.w3.org/Graphics/SVG/1.1/DTD/svg11.dtd">
<!-- Generated by graphviz version 9.0.0 (20230911.1827)
 -->
<!-- Title: JAUBankTableLink Pages: 1 -->
<svg width="244pt" height="138pt"
 viewBox="0.00 0.00 244.38 137.75" xmlns="http://www.w3.org/2000/svg" xmlns:xlink="http://www.w3.org/1999/xlink">

<svg id="main" version="1.1" xmlns="http://www.w3.org/2000/svg" xmlns:xlink="http://www.w3.org/1999/xlink" xml:space="preserve" onload="init(evt)">
<style type="text/css"><![CDATA[
.node, .edge {opacity: 0.7;}
.node.selected, .edge.selected {opacity: 1;}
.edge:hover path { stroke: red; }
.edge:hover polygon { stroke: red; fill: red; }
]]></style>
<script type="application/ecmascript" xlink:href="svg.min.js"/>
<svg id="graph" class="graph">
<g id="graph0" class="graph" transform="scale(1 1) rotate(0) translate(4 133.75)">
<title>JAUBankTableLink</title>
<!-- Node1 -->
<g id="Node000001" class="node">
<title>Node1</title>
<g id="a_Node000001"><a xlink:title=" ">
<polygon fill="#999999" stroke="#666666" points="181.75,-19.25 81,-19.25 81,0 181.75,0 181.75,-19.25"/>
<text text-anchor="middle" x="131.38" y="-5.75" font-family="Helvetica,sans-Serif" font-size="10.00">JAUBankTableLink</text>
</a>
</g>
</g>
<!-- Node2 -->
<g id="Node000002" class="node">
<title>Node2</title>
<g id="a_Node000002"><a xlink:href="classJSULink.html" target="_top" xlink:title=" ">
<polygon fill="white" stroke="#666666" points="136.75,-74.5 0,-74.5 0,-55.25 136.75,-55.25 136.75,-74.5"/>
<text text-anchor="middle" x="68.38" y="-61" font-family="Helvetica,sans-Serif" font-size="10.00">JSULink&lt; JAUBankTable &gt;</text>
</a>
</g>
</g>
<!-- Node2&#45;&gt;Node1 -->
<g id="edge1_Node000001_Node000002" class="edge">
<title>Node2&#45;&gt;Node1</title>
<g id="a_edge1_Node000001_Node000002"><a xlink:title=" ">
<path fill="none" stroke="#63b8ff" d="M87.55,-47.66C98.49,-38.42 111.79,-27.18 120.85,-19.52"/>
<polygon fill="#63b8ff" stroke="#63b8ff" points="85.6,-44.74 80.22,-53.86 90.11,-50.08 85.6,-44.74"/>
</a>
</g>
</g>
<!-- Node3 -->
<g id="Node000003" class="node">
<title>Node3</title>
<g id="a_Node000003"><a xlink:href="classJSUPtrLink.html" target="_top" xlink:title=" ">
<polygon fill="white" stroke="#666666" points="101.88,-129.75 34.88,-129.75 34.88,-110.5 101.88,-110.5 101.88,-129.75"/>
<text text-anchor="middle" x="68.38" y="-116.25" font-family="Helvetica,sans-Serif" font-size="10.00">JSUPtrLink</text>
</a>
</g>
</g>
<!-- Node3&#45;&gt;Node2 -->
<g id="edge2_Node000002_Node000003" class="edge">
<title>Node3&#45;&gt;Node2</title>
<g id="a_edge2_Node000002_Node000003"><a xlink:title=" ">
<path fill="none" stroke="#63b8ff" d="M68.38,-98.88C68.38,-90.59 68.38,-81.42 68.38,-74.86"/>
<polygon fill="#63b8ff" stroke="#63b8ff" points="64.88,-98.82 68.38,-108.82 71.88,-98.82 64.88,-98.82"/>
</a>
</g>
</g>
<!-- Node4 -->
<g id="Node000004" class="node">
<title>Node4</title>
<g id="a_Node000004"><a xlink:href="classJAUBankTable.html" target="_top" xlink:title=" ">
<polygon fill="white" stroke="#666666" points="236.38,-74.5 154.38,-74.5 154.38,-55.25 236.38,-55.25 236.38,-74.5"/>
<text text-anchor="middle" x="195.38" y="-61" font-family="Helvetica,sans-Serif" font-size="10.00">JAUBankTable</text>
</a>
</g>
</g>
<!-- Node4&#45;&gt;Node1 -->
<g id="edge3_Node000001_Node000004" class="edge">
<title>Node4&#45;&gt;Node1</title>
<g id="a_edge3_Node000001_Node000004"><a xlink:title=" ">
<path fill="none" stroke="#63b8ff" d="M175.89,-47.66C164.78,-38.42 151.27,-27.18 142.07,-19.52"/>
<polygon fill="#63b8ff" stroke="#63b8ff" points="173.43,-50.17 183.35,-53.87 177.91,-44.79 173.43,-50.17"/>
</a>
</g>
</g>
<!-- Node5 -->
<g id="Node000005" class="node">
<title>Node5</title>
<g id="a_Node000005"><a xlink:href="classJASBankList.html" target="_top" xlink:title=" ">
<polygon fill="white" stroke="#666666" points="232.25,-129.75 158.5,-129.75 158.5,-110.5 232.25,-110.5 232.25,-129.75"/>
<text text-anchor="middle" x="195.38" y="-116.25" font-family="Helvetica,sans-Serif" font-size="10.00">JASBankList</text>
</a>
</g>
</g>
<!-- Node5&#45;&gt;Node4 -->
<g id="edge4_Node000004_Node000005" class="edge">
<title>Node5&#45;&gt;Node4</title>
<g id="a_edge4_Node000004_Node000005"><a xlink:title=" ">
<path fill="none" stroke="#63b8ff" d="M195.38,-98.88C195.38,-90.59 195.38,-81.42 195.38,-74.86"/>
<polygon fill="#63b8ff" stroke="#63b8ff" points="191.88,-98.82 195.38,-108.82 198.88,-98.82 191.88,-98.82"/>
</a>
</g>
</g>
</g>
</svg>
</svg>

<style type='text/css'>
<![CDATA[
[data-mouse-over-selected='false'] { opacity: 0.7; }
[data-mouse-over-selected='true']  { opacity: 1.0; }
]]>
</style>
<script type="application/ecmascript"><![CDATA[
document.addEventListener('DOMContentLoaded', (event) => {
  highlightEdges();
  highlightAdjacentNodes();
});
]]></script>
</svg>
