<?xml version="1.0" encoding="UTF-8" standalone="no"?>
<!DOCTYPE svg PUBLIC "-//W3C//DTD SVG 1.1//EN"
 "http://www.w3.org/Graphics/SVG/1.1/DTD/svg11.dtd">
<!-- Generated by graphviz version 9.0.0 (20230911.1827)
 -->
<!-- Title: cBgS_GrpPassChk Pages: 1 -->
<!--zoomable 656 -->

<svg id="main" version="1.1" xmlns="http://www.w3.org/2000/svg" xmlns:xlink="http://www.w3.org/1999/xlink" xml:space="preserve" onload="init(evt)">
<style type="text/css"><![CDATA[
.node, .edge {opacity: 0.7;}
.node.selected, .edge.selected {opacity: 1;}
.edge:hover path { stroke: red; }
.edge:hover polygon { stroke: red; fill: red; }
]]></style>

<defs>
  <circle id="rim" cx="0" cy="0" r="7"/>
  <circle id="rim2" cx="0" cy="0" r="3.5"/>
  <g id="zoomPlus">
    <use xlink:href="#rim" fill="#404040"><set attributeName="fill" to="#808080" begin="zoomplus.mouseover" end="zoomplus.mouseout"/></use>
    <path d="M-4,0h8M0,-4v8" fill="none" stroke="white" stroke-width="1.5" pointer-events="none"/>
  </g>
  <g id="zoomMin">
    <use xlink:href="#rim" fill="#404040"><set attributeName="fill" to="#808080" begin="zoomminus.mouseover" end="zoomminus.mouseout"/></use>
    <path d="M-4,0h8" fill="none" stroke="white" stroke-width="1.5" pointer-events="none"/>
  </g>
  <g id="arrowUp" transform="translate(30 24)">
    <use xlink:href="#rim"/>
    <path pointer-events="none" fill="none" stroke="white" stroke-width="1.5" d="M0,-3.0v7 M-2.5,-0.5L0,-3.0L2.5,-0.5"/>
  </g>
  <g id="arrowRight" transform="rotate(90) translate(36 -43)">
    <use xlink:href="#rim"/>
    <path pointer-events="none" fill="none" stroke="white" stroke-width="1.5" d="M0,-3.0v7 M-2.5,-0.5L0,-3.0L2.5,-0.5"/>
  </g>
  <g id="arrowDown" transform="rotate(180) translate(-30 -48)">
    <use xlink:href="#rim"/>
    <path pointer-events="none" fill="none" stroke="white" stroke-width="1.5" d="M0,-3.0v7 M-2.5,-0.5L0,-3.0L2.5,-0.5"/>
  </g>
  <g id="arrowLeft" transform="rotate(270) translate(-36 17)">
    <use xlink:href="#rim"/>
    <path pointer-events="none" fill="none" stroke="white" stroke-width="1.5" d="M0,-3.0v7 M-2.5,-0.5L0,-3.0L2.5,-0.5"/>
  </g>
  <g id="resetDef">
    <use xlink:href="#rim2" fill="#404040"><set attributeName="fill" to="#808080" begin="reset.mouseover" end="reset.mouseout"/></use>
  </g>
</defs>
<script type="application/ecmascript">
var viewWidth = 802;
var viewHeight = 656;
var sectionId = 'dynsection-0';
</script>
<script type="application/ecmascript" xlink:href="svg.min.js"/>
<svg id="graph" class="graph">
<g id="viewport">
<title>cBgS_GrpPassChk</title>
<!-- Node1 -->
<g id="Node000001" class="node">
<title>Node1</title>
<g id="a_Node000001"><a xlink:title=" ">
<polygon fill="#999999" stroke="#666666" points="100.75,-259.25 0,-259.25 0,-240 100.75,-240 100.75,-259.25"/>
<text text-anchor="middle" x="50.38" y="-245.75" font-family="Helvetica,sans-Serif" font-size="10.00">cBgS_GrpPassChk</text>
</a>
</g>
</g>
<!-- Node2 -->
<g id="Node000002" class="node">
<title>Node2</title>
<g id="a_Node000002"><a xlink:href="classdBgS__GrpPassChk.html" target="_top" xlink:title=" ">
<polygon fill="white" stroke="#666666" points="237.5,-259.25 136.75,-259.25 136.75,-240 237.5,-240 237.5,-259.25"/>
<text text-anchor="middle" x="187.12" y="-245.75" font-family="Helvetica,sans-Serif" font-size="10.00">dBgS_GrpPassChk</text>
</a>
</g>
</g>
<!-- Node1&#45;&gt;Node2 -->
<g id="edge1_Node000001_Node000002" class="edge">
<title>Node1&#45;&gt;Node2</title>
<g id="a_edge1_Node000001_Node000002"><a xlink:title=" ">
<path fill="none" stroke="#63b8ff" d="M112.44,-249.62C120.51,-249.62 128.7,-249.62 136.54,-249.62"/>
<polygon fill="#63b8ff" stroke="#63b8ff" points="112.68,-246.13 102.68,-249.63 112.68,-253.13 112.68,-246.13"/>
</a>
</g>
</g>
<!-- Node3 -->
<g id="Node000003" class="node">
<title>Node3</title>
<g id="a_Node000003"><a xlink:href="classdBgS__Chk.html" target="_top" xlink:title=" ">
<polygon fill="white" stroke="#666666" points="336,-259.25 273.5,-259.25 273.5,-240 336,-240 336,-259.25"/>
<text text-anchor="middle" x="304.75" y="-245.75" font-family="Helvetica,sans-Serif" font-size="10.00">dBgS_Chk</text>
</a>
</g>
</g>
<!-- Node2&#45;&gt;Node3 -->
<g id="edge2_Node000002_Node000003" class="edge">
<title>Node2&#45;&gt;Node3</title>
<g id="a_edge2_Node000002_Node000003"><a xlink:title=" ">
<path fill="none" stroke="#63b8ff" d="M249.15,-249.62C257.46,-249.62 265.68,-249.62 273.13,-249.62"/>
<polygon fill="#63b8ff" stroke="#63b8ff" points="249.35,-246.13 239.34,-249.63 249.34,-253.13 249.35,-246.13"/>
</a>
</g>
</g>
<!-- Node4 -->
<g id="Node000004" class="node">
<title>Node4</title>
<g id="a_Node000004"><a xlink:href="structdBgS__Acch.html" target="_top" xlink:title=" ">
<polygon fill="white" stroke="#666666" points="452.12,-574.25 384.38,-574.25 384.38,-555 452.12,-555 452.12,-574.25"/>
<text text-anchor="middle" x="418.25" y="-560.75" font-family="Helvetica,sans-Serif" font-size="10.00">dBgS_Acch</text>
</a>
</g>
</g>
<!-- Node3&#45;&gt;Node4 -->
<g id="edge3_Node000003_Node000004" class="edge">
<title>Node3&#45;&gt;Node4</title>
<g id="a_edge3_Node000003_Node000004"><a xlink:title=" ">
<path fill="none" stroke="#63b8ff" d="M310.71,-270.54C320.46,-310.51 343.66,-400.18 372,-472.62 384.06,-503.46 402.48,-538.05 411.66,-554.67"/>
<polygon fill="#63b8ff" stroke="#63b8ff" points="314.17,-269.98 308.43,-261.08 307.37,-271.62 314.17,-269.98"/>
</a>
</g>
</g>
<!-- Node9 -->
<g id="Node000009" class="node">
<title>Node9</title>
<g id="a_Node000009"><a xlink:href="structdBgS__CaptPoly.html" target="_top" xlink:title=" ">
<polygon fill="white" stroke="#666666" points="460.38,-463.25 376.12,-463.25 376.12,-444 460.38,-444 460.38,-463.25"/>
<text text-anchor="middle" x="418.25" y="-449.75" font-family="Helvetica,sans-Serif" font-size="10.00">dBgS_CaptPoly</text>
</a>
</g>
</g>
<!-- Node3&#45;&gt;Node9 -->
<g id="edge8_Node000003_Node000009" class="edge">
<title>Node3&#45;&gt;Node9</title>
<g id="a_edge8_Node000003_Node000009"><a xlink:title=" ">
<path fill="none" stroke="#63b8ff" d="M307.64,-270.71C312.12,-308.6 326.68,-388.62 372,-435.62 375.05,-438.79 378.73,-441.41 382.66,-443.58"/>
<polygon fill="#63b8ff" stroke="#63b8ff" points="311.16,-270.67 306.64,-261.09 304.2,-271.4 311.16,-270.67"/>
</a>
</g>
</g>
<!-- Node10 -->
<g id="Node000010" class="node">
<title>Node10</title>
<g id="a_Node000010"><a xlink:href="structdBgS__GndChk.html" target="_top" xlink:title=" ">
<polygon fill="white" stroke="#666666" points="458.5,-426.25 378,-426.25 378,-407 458.5,-407 458.5,-426.25"/>
<text text-anchor="middle" x="418.25" y="-412.75" font-family="Helvetica,sans-Serif" font-size="10.00">dBgS_GndChk</text>
</a>
</g>
</g>
<!-- Node3&#45;&gt;Node10 -->
<g id="edge9_Node000003_Node000010" class="edge">
<title>Node3&#45;&gt;Node10</title>
<g id="a_edge9_Node000003_Node000010"><a xlink:title=" ">
<path fill="none" stroke="#63b8ff" d="M318.6,-268.88C342.36,-304.46 392.37,-379.36 410.5,-406.52"/>
<polygon fill="#63b8ff" stroke="#63b8ff" points="321.69,-267.2 313.23,-260.83 315.87,-271.09 321.69,-267.2"/>
</a>
</g>
</g>
<!-- Node18 -->
<g id="Node000018" class="node">
<title>Node18</title>
<g id="a_Node000018"><a xlink:href="structdBgS__LinChk.html" target="_top" xlink:title=" ">
<polygon fill="white" stroke="#666666" points="456.25,-259.25 380.25,-259.25 380.25,-240 456.25,-240 456.25,-259.25"/>
<text text-anchor="middle" x="418.25" y="-245.75" font-family="Helvetica,sans-Serif" font-size="10.00">dBgS_LinChk</text>
</a>
</g>
</g>
<!-- Node3&#45;&gt;Node18 -->
<g id="edge17_Node000003_Node000018" class="edge">
<title>Node3&#45;&gt;Node18</title>
<g id="a_edge17_Node000003_Node000018"><a xlink:title=" ">
<path fill="none" stroke="#63b8ff" d="M347.46,-249.62C358.16,-249.62 369.61,-249.62 380.06,-249.62"/>
<polygon fill="#63b8ff" stroke="#63b8ff" points="347.73,-246.13 337.73,-249.63 347.73,-253.13 347.73,-246.13"/>
</a>
</g>
</g>
<!-- Node28 -->
<g id="Node000028" class="node">
<title>Node28</title>
<g id="a_Node000028"><a xlink:href="classdBgS__RoofChk.html" target="_top" xlink:title=" ">
<polygon fill="white" stroke="#666666" points="459.62,-167.25 376.88,-167.25 376.88,-148 459.62,-148 459.62,-167.25"/>
<text text-anchor="middle" x="418.25" y="-153.75" font-family="Helvetica,sans-Serif" font-size="10.00">dBgS_RoofChk</text>
</a>
</g>
</g>
<!-- Node3&#45;&gt;Node28 -->
<g id="edge27_Node000003_Node000028" class="edge">
<title>Node3&#45;&gt;Node28</title>
<g id="a_edge27_Node000003_Node000028"><a xlink:title=" ">
<path fill="none" stroke="#63b8ff" d="M326.37,-232.61C349.47,-213.55 386.14,-183.29 405.07,-167.68"/>
<polygon fill="#63b8ff" stroke="#63b8ff" points="324.34,-229.75 318.85,-238.82 328.79,-235.15 324.34,-229.75"/>
</a>
</g>
</g>
<!-- Node31 -->
<g id="Node000031" class="node">
<title>Node31</title>
<g id="a_Node000031"><a xlink:href="classdBgS__SphChk.html" target="_top" xlink:title=" ">
<polygon fill="white" stroke="#666666" points="458.12,-130.25 378.38,-130.25 378.38,-111 458.12,-111 458.12,-130.25"/>
<text text-anchor="middle" x="418.25" y="-116.75" font-family="Helvetica,sans-Serif" font-size="10.00">dBgS_SphChk</text>
</a>
</g>
</g>
<!-- Node3&#45;&gt;Node31 -->
<g id="edge30_Node000003_Node000031" class="edge">
<title>Node3&#45;&gt;Node31</title>
<g id="a_edge30_Node000003_Node000031"><a xlink:title=" ">
<path fill="none" stroke="#63b8ff" d="M313.3,-228.91C323.24,-204.27 342.93,-163.39 372,-138.62 375.73,-135.44 380.1,-132.78 384.61,-130.56"/>
<polygon fill="#63b8ff" stroke="#63b8ff" points="310.07,-227.55 309.75,-238.14 316.6,-230.06 310.07,-227.55"/>
</a>
</g>
</g>
<!-- Node32 -->
<g id="Node000032" class="node">
<title>Node32</title>
<g id="a_Node000032"><a xlink:href="classdBgS__SplGrpChk.html" target="_top" xlink:title=" ">
<polygon fill="white" stroke="#666666" points="464.5,-65.25 372,-65.25 372,-46 464.5,-46 464.5,-65.25"/>
<text text-anchor="middle" x="418.25" y="-51.75" font-family="Helvetica,sans-Serif" font-size="10.00">dBgS_SplGrpChk</text>
</a>
</g>
</g>
<!-- Node3&#45;&gt;Node32 -->
<g id="edge31_Node000003_Node000032" class="edge">
<title>Node3&#45;&gt;Node32</title>
<g id="a_edge31_Node000003_Node000032"><a xlink:title=" ">
<path fill="none" stroke="#63b8ff" d="M312.36,-228.95C322.45,-199.2 343.54,-143.31 372,-101.62 381.47,-87.75 395.38,-74.34 405.27,-65.62"/>
<polygon fill="#63b8ff" stroke="#63b8ff" points="309.12,-227.63 309.31,-238.22 315.76,-229.82 309.12,-227.63"/>
</a>
</g>
</g>
<!-- Node5 -->
<g id="Node000005" class="node">
<title>Node5</title>
<g id="a_Node000005"><a xlink:href="classdBgS__BombAcch.html" target="_top" xlink:title=" ">
<polygon fill="white" stroke="#666666" points="609.88,-648.25 516.62,-648.25 516.62,-629 609.88,-629 609.88,-648.25"/>
<text text-anchor="middle" x="563.25" y="-634.75" font-family="Helvetica,sans-Serif" font-size="10.00">dBgS_BombAcch</text>
</a>
</g>
</g>
<!-- Node4&#45;&gt;Node5 -->
<g id="edge4_Node000004_Node000005" class="edge">
<title>Node4&#45;&gt;Node5</title>
<g id="a_edge4_Node000004_Node000005"><a xlink:title=" ">
<path fill="none" stroke="#63b8ff" d="M440.02,-581.73C455.79,-594 478.46,-610.15 500.5,-620.62 506.85,-623.64 513.82,-626.27 520.71,-628.51"/>
<polygon fill="#63b8ff" stroke="#63b8ff" points="442.34,-579.1 432.34,-575.61 437.99,-584.58 442.34,-579.1"/>
</a>
</g>
</g>
<!-- Node6 -->
<g id="Node000006" class="node">
<title>Node6</title>
<g id="a_Node000006"><a xlink:href="classdBgS__LinkAcch.html" target="_top" xlink:title=" ">
<polygon fill="white" stroke="#666666" points="606.5,-611.25 520,-611.25 520,-592 606.5,-592 606.5,-611.25"/>
<text text-anchor="middle" x="563.25" y="-597.75" font-family="Helvetica,sans-Serif" font-size="10.00">dBgS_LinkAcch</text>
</a>
</g>
</g>
<!-- Node4&#45;&gt;Node6 -->
<g id="edge5_Node000004_Node000006" class="edge">
<title>Node4&#45;&gt;Node6</title>
<g id="a_edge5_Node000004_Node000006"><a xlink:title=" ">
<path fill="none" stroke="#63b8ff" d="M463.54,-576.08C482.61,-581.02 504.72,-586.74 523.17,-591.51"/>
<polygon fill="#63b8ff" stroke="#63b8ff" points="464.44,-572.7 453.88,-573.59 462.69,-579.48 464.44,-572.7"/>
</a>
</g>
</g>
<!-- Node7 -->
<g id="Node000007" class="node">
<title>Node7</title>
<g id="a_Node000007"><a xlink:href="structdBgS__ObjAcch.html" target="_top" xlink:title=" ">
<polygon fill="white" stroke="#666666" points="604.62,-574.25 521.88,-574.25 521.88,-555 604.62,-555 604.62,-574.25"/>
<text text-anchor="middle" x="563.25" y="-560.75" font-family="Helvetica,sans-Serif" font-size="10.00">dBgS_ObjAcch</text>
</a>
</g>
</g>
<!-- Node4&#45;&gt;Node7 -->
<g id="edge6_Node000004_Node000007" class="edge">
<title>Node4&#45;&gt;Node7</title>
<g id="a_edge6_Node000004_Node000007"><a xlink:title=" ">
<path fill="none" stroke="#63b8ff" d="M463.8,-564.62C482.27,-564.62 503.56,-564.62 521.61,-564.62"/>
<polygon fill="#63b8ff" stroke="#63b8ff" points="463.93,-561.13 453.93,-564.63 463.93,-568.13 463.93,-561.13"/>
</a>
</g>
</g>
<!-- Node8 -->
<g id="Node000008" class="node">
<title>Node8</title>
<g id="a_Node000008"><a xlink:href="classdBgS__StatueAcch.html" target="_top" xlink:title=" ">
<polygon fill="white" stroke="#666666" points="611.38,-537.25 515.12,-537.25 515.12,-518 611.38,-518 611.38,-537.25"/>
<text text-anchor="middle" x="563.25" y="-523.75" font-family="Helvetica,sans-Serif" font-size="10.00">dBgS_StatueAcch</text>
</a>
</g>
</g>
<!-- Node4&#45;&gt;Node8 -->
<g id="edge7_Node000004_Node000008" class="edge">
<title>Node4&#45;&gt;Node8</title>
<g id="a_edge7_Node000004_Node000008"><a xlink:title=" ">
<path fill="none" stroke="#63b8ff" d="M463.54,-553.17C482.61,-548.23 504.72,-542.51 523.17,-537.74"/>
<polygon fill="#63b8ff" stroke="#63b8ff" points="462.69,-549.77 453.88,-555.66 464.44,-556.55 462.69,-549.77"/>
</a>
</g>
</g>
<!-- Node11 -->
<g id="Node000011" class="node">
<title>Node11</title>
<g id="a_Node000011"><a xlink:href="classdBgS__CamGndChk.html" target="_top" xlink:title=" ">
<polygon fill="white" stroke="#666666" points="613.62,-500.25 512.88,-500.25 512.88,-481 613.62,-481 613.62,-500.25"/>
<text text-anchor="middle" x="563.25" y="-486.75" font-family="Helvetica,sans-Serif" font-size="10.00">dBgS_CamGndChk</text>
</a>
</g>
</g>
<!-- Node10&#45;&gt;Node11 -->
<g id="edge10_Node000010_Node000011" class="edge">
<title>Node10&#45;&gt;Node11</title>
<g id="a_edge10_Node000010_Node000011"><a xlink:title=" ">
<path fill="none" stroke="#63b8ff" d="M459.7,-431.63C461.35,-432.58 462.96,-433.58 464.5,-434.62 483.76,-447.67 480.64,-460.5 500.5,-472.62 505.65,-475.77 511.37,-478.38 517.2,-480.56"/>
<polygon fill="#63b8ff" stroke="#63b8ff" points="461.73,-428.74 451.22,-427.37 458.58,-434.99 461.73,-428.74"/>
</a>
</g>
</g>
<!-- Node13 -->
<g id="Node000013" class="node">
<title>Node13</title>
<g id="a_Node000013"><a xlink:href="classdBgS__LinkGndChk.html" target="_top" xlink:title=" ">
<polygon fill="white" stroke="#666666" points="612.88,-463.25 513.62,-463.25 513.62,-444 612.88,-444 612.88,-463.25"/>
<text text-anchor="middle" x="563.25" y="-449.75" font-family="Helvetica,sans-Serif" font-size="10.00">dBgS_LinkGndChk</text>
</a>
</g>
</g>
<!-- Node10&#45;&gt;Node13 -->
<g id="edge12_Node000010_Node000013" class="edge">
<title>Node10&#45;&gt;Node13</title>
<g id="a_edge12_Node000010_Node000013"><a xlink:title=" ">
<path fill="none" stroke="#63b8ff" d="M469.32,-429.58C487,-434.15 506.6,-439.23 523.22,-443.53"/>
<polygon fill="#63b8ff" stroke="#63b8ff" points="470.35,-426.23 459.79,-427.11 468.6,-433.01 470.35,-426.23"/>
</a>
</g>
</g>
<!-- Node14 -->
<g id="Node000014" class="node">
<title>Node14</title>
<g id="a_Node000014"><a xlink:href="structdBgS__ObjGndChk.html" target="_top" xlink:title=" ">
<polygon fill="white" stroke="#666666" points="611,-426.25 515.5,-426.25 515.5,-407 611,-407 611,-426.25"/>
<text text-anchor="middle" x="563.25" y="-412.75" font-family="Helvetica,sans-Serif" font-size="10.00">dBgS_ObjGndChk</text>
</a>
</g>
</g>
<!-- Node10&#45;&gt;Node14 -->
<g id="edge13_Node000010_Node000014" class="edge">
<title>Node10&#45;&gt;Node14</title>
<g id="a_edge13_Node000010_Node000014"><a xlink:title=" ">
<path fill="none" stroke="#63b8ff" d="M470.12,-416.62C484.75,-416.62 500.65,-416.62 515.05,-416.62"/>
<polygon fill="#63b8ff" stroke="#63b8ff" points="470.22,-413.13 460.22,-416.63 470.22,-420.13 470.22,-413.13"/>
</a>
</g>
</g>
<!-- Node12 -->
<g id="Node000012" class="node">
<title>Node12</title>
<g id="a_Node000012"><a xlink:href="classdBgS__CamGndChk__Wtr.html" target="_top" xlink:title=" ">
<polygon fill="white" stroke="#666666" points="788.62,-500.25 667.62,-500.25 667.62,-481 788.62,-481 788.62,-500.25"/>
<text text-anchor="middle" x="728.12" y="-486.75" font-family="Helvetica,sans-Serif" font-size="10.00">dBgS_CamGndChk_Wtr</text>
</a>
</g>
</g>
<!-- Node11&#45;&gt;Node12 -->
<g id="edge11_Node000011_Node000012" class="edge">
<title>Node11&#45;&gt;Node12</title>
<g id="a_edge11_Node000011_Node000012"><a xlink:title=" ">
<path fill="none" stroke="#63b8ff" d="M625.32,-490.62C639.08,-490.62 653.66,-490.62 667.36,-490.62"/>
<polygon fill="#63b8ff" stroke="#63b8ff" points="625.52,-487.13 615.52,-490.63 625.52,-494.13 625.52,-487.13"/>
</a>
</g>
</g>
<!-- Node15 -->
<g id="Node000015" class="node">
<title>Node15</title>
<g id="a_Node000015"><a xlink:href="classdBgS__ObjGndChk__All.html" target="_top" xlink:title=" ">
<polygon fill="white" stroke="#666666" points="784.12,-463.25 672.12,-463.25 672.12,-444 784.12,-444 784.12,-463.25"/>
<text text-anchor="middle" x="728.12" y="-449.75" font-family="Helvetica,sans-Serif" font-size="10.00">dBgS_ObjGndChk_All</text>
</a>
</g>
</g>
<!-- Node14&#45;&gt;Node15 -->
<g id="edge14_Node000014_Node000015" class="edge">
<title>Node14&#45;&gt;Node15</title>
<g id="a_edge14_Node000014_Node000015"><a xlink:title=" ">
<path fill="none" stroke="#63b8ff" d="M619.86,-429.26C640.35,-433.91 663.29,-439.12 682.67,-443.53"/>
<polygon fill="#63b8ff" stroke="#63b8ff" points="620.76,-425.87 610.23,-427.07 619.21,-432.7 620.76,-425.87"/>
</a>
</g>
</g>
<!-- Node16 -->
<g id="Node000016" class="node">
<title>Node16</title>
<g id="a_Node000016"><a xlink:href="structdBgS__ObjGndChk__Spl.html" target="_top" xlink:title=" ">
<polygon fill="white" stroke="#666666" points="785.62,-426.25 670.62,-426.25 670.62,-407 785.62,-407 785.62,-426.25"/>
<text text-anchor="middle" x="728.12" y="-412.75" font-family="Helvetica,sans-Serif" font-size="10.00">dBgS_ObjGndChk_Spl</text>
</a>
</g>
</g>
<!-- Node14&#45;&gt;Node16 -->
<g id="edge15_Node000014_Node000016" class="edge">
<title>Node14&#45;&gt;Node16</title>
<g id="a_edge15_Node000014_Node000016"><a xlink:title=" ">
<path fill="none" stroke="#63b8ff" d="M622.44,-416.62C638.01,-416.62 654.82,-416.62 670.31,-416.62"/>
<polygon fill="#63b8ff" stroke="#63b8ff" points="622.87,-413.13 612.87,-416.63 622.87,-420.13 622.87,-413.13"/>
</a>
</g>
</g>
<!-- Node17 -->
<g id="Node000017" class="node">
<title>Node17</title>
<g id="a_Node000017"><a xlink:href="classdBgS__ObjGndChk__Wtr.html" target="_top" xlink:title=" ">
<polygon fill="white" stroke="#666666" points="786,-389.25 670.25,-389.25 670.25,-370 786,-370 786,-389.25"/>
<text text-anchor="middle" x="728.12" y="-375.75" font-family="Helvetica,sans-Serif" font-size="10.00">dBgS_ObjGndChk_Wtr</text>
</a>
</g>
</g>
<!-- Node14&#45;&gt;Node17 -->
<g id="edge16_Node000014_Node000017" class="edge">
<title>Node14&#45;&gt;Node17</title>
<g id="a_edge16_Node000014_Node000017"><a xlink:title=" ">
<path fill="none" stroke="#63b8ff" d="M619.86,-403.99C640.35,-399.34 663.29,-394.13 682.67,-389.72"/>
<polygon fill="#63b8ff" stroke="#63b8ff" points="619.21,-400.55 610.23,-406.18 620.76,-407.38 619.21,-400.55"/>
</a>
</g>
</g>
<!-- Node19 -->
<g id="Node000019" class="node">
<title>Node19</title>
<g id="a_Node000019"><a xlink:href="classdBgS__ArrowLinChk.html" target="_top" xlink:title=" ">
<polygon fill="white" stroke="#666666" points="614,-389.25 512.5,-389.25 512.5,-370 614,-370 614,-389.25"/>
<text text-anchor="middle" x="563.25" y="-375.75" font-family="Helvetica,sans-Serif" font-size="10.00">dBgS_ArrowLinChk</text>
</a>
</g>
</g>
<!-- Node18&#45;&gt;Node19 -->
<g id="edge18_Node000018_Node000019" class="edge">
<title>Node18&#45;&gt;Node19</title>
<g id="a_edge18_Node000018_Node000019"><a xlink:title=" ">
<path fill="none" stroke="#63b8ff" d="M428.71,-269.95C441.48,-295.18 466.6,-337.76 500.5,-361.62 504.97,-364.77 510,-367.38 515.2,-369.53"/>
<polygon fill="#63b8ff" stroke="#63b8ff" points="431.92,-268.54 424.39,-261.08 425.62,-271.6 431.92,-268.54"/>
</a>
</g>
</g>
<!-- Node20 -->
<g id="Node000020" class="node">
<title>Node20</title>
<g id="a_Node000020"><a xlink:href="classdBgS__BombLinChk.html" target="_top" xlink:title=" ">
<polygon fill="white" stroke="#666666" points="614,-352.25 512.5,-352.25 512.5,-333 614,-333 614,-352.25"/>
<text text-anchor="middle" x="563.25" y="-338.75" font-family="Helvetica,sans-Serif" font-size="10.00">dBgS_BombLinChk</text>
</a>
</g>
</g>
<!-- Node18&#45;&gt;Node20 -->
<g id="edge19_Node000018_Node000020" class="edge">
<title>Node18&#45;&gt;Node20</title>
<g id="a_edge19_Node000018_Node000020"><a xlink:title=" ">
<path fill="none" stroke="#63b8ff" d="M434.8,-268.24C449.93,-285.23 474.41,-309.88 500.5,-324.62 506.04,-327.76 512.18,-330.39 518.37,-332.58"/>
<polygon fill="#63b8ff" stroke="#63b8ff" points="437.58,-266.11 428.39,-260.84 432.29,-270.69 437.58,-266.11"/>
</a>
</g>
</g>
<!-- Node21 -->
<g id="Node000021" class="node">
<title>Node21</title>
<g id="a_Node000021"><a xlink:href="classdBgS__BoomerangLinChk.html" target="_top" xlink:title=" ">
<polygon fill="white" stroke="#666666" points="626,-315.25 500.5,-315.25 500.5,-296 626,-296 626,-315.25"/>
<text text-anchor="middle" x="563.25" y="-301.75" font-family="Helvetica,sans-Serif" font-size="10.00">dBgS_BoomerangLinChk</text>
</a>
</g>
</g>
<!-- Node18&#45;&gt;Node21 -->
<g id="edge20_Node000018_Node000021" class="edge">
<title>Node18&#45;&gt;Node21</title>
<g id="a_edge20_Node000018_Node000021"><a xlink:title=" ">
<path fill="none" stroke="#63b8ff" d="M448.47,-264.62C463.73,-272.12 482.86,-280.97 500.5,-287.62 508.13,-290.5 516.43,-293.2 524.39,-295.59"/>
<polygon fill="#63b8ff" stroke="#63b8ff" points="450.45,-261.7 439.94,-260.38 447.33,-267.97 450.45,-261.7"/>
</a>
</g>
</g>
<!-- Node22 -->
<g id="Node000022" class="node">
<title>Node22</title>
<g id="a_Node000022"><a xlink:href="classdBgS__CamLinChk.html" target="_top" xlink:title=" ">
<polygon fill="white" stroke="#666666" points="611.38,-278.25 515.12,-278.25 515.12,-259 611.38,-259 611.38,-278.25"/>
<text text-anchor="middle" x="563.25" y="-264.75" font-family="Helvetica,sans-Serif" font-size="10.00">dBgS_CamLinChk</text>
</a>
</g>
</g>
<!-- Node18&#45;&gt;Node22 -->
<g id="edge21_Node000018_Node000022" class="edge">
<title>Node18&#45;&gt;Node22</title>
<g id="a_edge21_Node000018_Node000022"><a xlink:title=" ">
<path fill="none" stroke="#63b8ff" d="M467.7,-256.06C482.87,-258.08 499.6,-260.3 514.71,-262.31"/>
<polygon fill="#63b8ff" stroke="#63b8ff" points="468.32,-252.61 457.95,-254.77 467.4,-259.55 468.32,-252.61"/>
</a>
</g>
</g>
<!-- Node24 -->
<g id="Node000024" class="node">
<title>Node24</title>
<g id="a_Node000024"><a xlink:href="classdBgS__HorseLinChk.html" target="_top" xlink:title=" ">
<polygon fill="white" stroke="#666666" points="614.38,-241.25 512.12,-241.25 512.12,-222 614.38,-222 614.38,-241.25"/>
<text text-anchor="middle" x="563.25" y="-227.75" font-family="Helvetica,sans-Serif" font-size="10.00">dBgS_HorseLinChk</text>
</a>
</g>
</g>
<!-- Node18&#45;&gt;Node24 -->
<g id="edge23_Node000018_Node000024" class="edge">
<title>Node18&#45;&gt;Node24</title>
<g id="a_edge23_Node000018_Node000024"><a xlink:title=" ">
<path fill="none" stroke="#63b8ff" d="M467.53,-243.55C481.77,-241.75 497.4,-239.79 511.78,-237.98"/>
<polygon fill="#63b8ff" stroke="#63b8ff" points="467.43,-240.03 457.95,-244.75 468.31,-246.98 467.43,-240.03"/>
</a>
</g>
</g>
<!-- Node25 -->
<g id="Node000025" class="node">
<title>Node25</title>
<g id="a_Node000025"><a xlink:href="classdBgS__LinkLinChk.html" target="_top" xlink:title=" ">
<polygon fill="white" stroke="#666666" points="610.62,-204.25 515.88,-204.25 515.88,-185 610.62,-185 610.62,-204.25"/>
<text text-anchor="middle" x="563.25" y="-190.75" font-family="Helvetica,sans-Serif" font-size="10.00">dBgS_LinkLinChk</text>
</a>
</g>
</g>
<!-- Node18&#45;&gt;Node25 -->
<g id="edge24_Node000018_Node000025" class="edge">
<title>Node18&#45;&gt;Node25</title>
<g id="a_edge24_Node000018_Node000025"><a xlink:title=" ">
<path fill="none" stroke="#63b8ff" d="M449.57,-234.56C464.66,-227.39 483.31,-219.01 500.5,-212.62 508.14,-209.79 516.45,-207.11 524.42,-204.72"/>
<polygon fill="#63b8ff" stroke="#63b8ff" points="448.13,-231.37 440.64,-238.87 451.17,-237.68 448.13,-231.37"/>
</a>
</g>
</g>
<!-- Node26 -->
<g id="Node000026" class="node">
<title>Node26</title>
<g id="a_Node000026"><a xlink:href="classdBgS__ObjLinChk.html" target="_top" xlink:title=" ">
<polygon fill="white" stroke="#666666" points="608.75,-167.25 517.75,-167.25 517.75,-148 608.75,-148 608.75,-167.25"/>
<text text-anchor="middle" x="563.25" y="-153.75" font-family="Helvetica,sans-Serif" font-size="10.00">dBgS_ObjLinChk</text>
</a>
</g>
</g>
<!-- Node18&#45;&gt;Node26 -->
<g id="edge25_Node000018_Node000026" class="edge">
<title>Node18&#45;&gt;Node26</title>
<g id="a_edge25_Node000018_Node000026"><a xlink:title=" ">
<path fill="none" stroke="#63b8ff" d="M434.85,-231.27C450.02,-214.51 474.53,-190.19 500.5,-175.62 506.05,-172.51 512.19,-169.89 518.38,-167.7"/>
<polygon fill="#63b8ff" stroke="#63b8ff" points="432.41,-228.74 428.43,-238.56 437.66,-233.36 432.41,-228.74"/>
</a>
</g>
</g>
<!-- Node27 -->
<g id="Node000027" class="node">
<title>Node27</title>
<g id="a_Node000027"><a xlink:href="classdBgS__RopeLinChk.html" target="_top" xlink:title=" ">
<polygon fill="white" stroke="#666666" points="612.5,-130.25 514,-130.25 514,-111 612.5,-111 612.5,-130.25"/>
<text text-anchor="middle" x="563.25" y="-116.75" font-family="Helvetica,sans-Serif" font-size="10.00">dBgS_RopeLinChk</text>
</a>
</g>
</g>
<!-- Node18&#45;&gt;Node27 -->
<g id="edge26_Node000018_Node000027" class="edge">
<title>Node18&#45;&gt;Node27</title>
<g id="a_edge26_Node000018_Node000027"><a xlink:title=" ">
<path fill="none" stroke="#63b8ff" d="M431.3,-230.18C449.23,-201.81 482.72,-151.08 500.5,-138.62 504.98,-135.48 510.01,-132.89 515.21,-130.74"/>
<polygon fill="#63b8ff" stroke="#63b8ff" points="428.4,-228.22 426.06,-238.55 434.33,-231.94 428.4,-228.22"/>
</a>
</g>
</g>
<!-- Node23 -->
<g id="Node000023" class="node">
<title>Node23</title>
<g id="a_Node000023"><a xlink:href="classdBgS__CamLinChk__NorWtr.html" target="_top" xlink:title=" ">
<polygon fill="white" stroke="#666666" points="794.25,-278.25 662,-278.25 662,-259 794.25,-259 794.25,-278.25"/>
<text text-anchor="middle" x="728.12" y="-264.75" font-family="Helvetica,sans-Serif" font-size="10.00">dBgS_CamLinChk_NorWtr</text>
</a>
</g>
</g>
<!-- Node22&#45;&gt;Node23 -->
<g id="edge22_Node000022_Node000023" class="edge">
<title>Node22&#45;&gt;Node23</title>
<g id="a_edge22_Node000022_Node000023"><a xlink:title=" ">
<path fill="none" stroke="#63b8ff" d="M623.05,-268.62C635.58,-268.62 648.9,-268.62 661.66,-268.62"/>
<polygon fill="#63b8ff" stroke="#63b8ff" points="623.31,-265.13 613.31,-268.63 623.31,-272.13 623.31,-265.13"/>
</a>
</g>
</g>
<!-- Node29 -->
<g id="Node000029" class="node">
<title>Node29</title>
<g id="a_Node000029"><a xlink:href="classdBgS__LinkRoofChk.html" target="_top" xlink:title=" ">
<polygon fill="white" stroke="#666666" points="614,-93.25 512.5,-93.25 512.5,-74 614,-74 614,-93.25"/>
<text text-anchor="middle" x="563.25" y="-79.75" font-family="Helvetica,sans-Serif" font-size="10.00">dBgS_LinkRoofChk</text>
</a>
</g>
</g>
<!-- Node28&#45;&gt;Node29 -->
<g id="edge28_Node000028_Node000029" class="edge">
<title>Node28&#45;&gt;Node29</title>
<g id="a_edge28_Node000028_Node000029"><a xlink:title=" ">
<path fill="none" stroke="#63b8ff" d="M459.7,-142.62C461.35,-141.67 462.96,-140.67 464.5,-139.62 483.76,-126.58 480.64,-113.75 500.5,-101.62 505.65,-98.48 511.37,-95.87 517.2,-93.69"/>
<polygon fill="#63b8ff" stroke="#63b8ff" points="458.58,-139.26 451.22,-146.88 461.73,-145.51 458.58,-139.26"/>
</a>
</g>
</g>
<!-- Node30 -->
<g id="Node000030" class="node">
<title>Node30</title>
<g id="a_Node000030"><a xlink:href="classdBgS__ObjRoofChk.html" target="_top" xlink:title=" ">
<polygon fill="white" stroke="#666666" points="612.12,-56.25 514.38,-56.25 514.38,-37 612.12,-37 612.12,-56.25"/>
<text text-anchor="middle" x="563.25" y="-42.75" font-family="Helvetica,sans-Serif" font-size="10.00">dBgS_ObjRoofChk</text>
</a>
</g>
</g>
<!-- Node28&#45;&gt;Node30 -->
<g id="edge29_Node000028_Node000030" class="edge">
<title>Node28&#45;&gt;Node30</title>
<g id="a_edge29_Node000028_Node000030"><a xlink:title=" ">
<path fill="none" stroke="#63b8ff" d="M462.56,-141.32C463.23,-140.78 463.87,-140.21 464.5,-139.62 491.53,-114.4 472.3,-88.54 500.5,-64.62 504.5,-61.23 509.12,-58.47 513.98,-56.24"/>
<polygon fill="#63b8ff" stroke="#63b8ff" points="460.81,-138.29 454.34,-146.68 464.63,-144.15 460.81,-138.29"/>
</a>
</g>
</g>
<!-- Node33 -->
<g id="Node000033" class="node">
<title>Node33</title>
<g id="a_Node000033"><a xlink:href="classdBgS__WtrChk.html" target="_top" xlink:title=" ">
<polygon fill="white" stroke="#666666" points="602,-19.25 524.5,-19.25 524.5,0 602,0 602,-19.25"/>
<text text-anchor="middle" x="563.25" y="-5.75" font-family="Helvetica,sans-Serif" font-size="10.00">dBgS_WtrChk</text>
</a>
</g>
</g>
<!-- Node32&#45;&gt;Node33 -->
<g id="edge32_Node000032_Node000033" class="edge">
<title>Node32&#45;&gt;Node33</title>
<g id="a_edge32_Node000032_Node000033"><a xlink:title=" ">
<path fill="none" stroke="#63b8ff" d="M458.11,-41.81C471.5,-37.16 486.61,-32.04 500.5,-27.62 508.91,-24.95 518.01,-22.22 526.57,-19.71"/>
<polygon fill="#63b8ff" stroke="#63b8ff" points="457.05,-38.47 448.77,-45.07 459.36,-45.08 457.05,-38.47"/>
</a>
</g>
</g>
</g>
</svg>

<g id="navigator" transform="translate(0 0)" fill="#404254">
  <rect fill="#f2f5e9" fill-opacity="0.5" stroke="#606060" stroke-width=".5" x="0" y="0" width="60" height="60"/>
  <use id="zoomplus" xlink:href="#zoomPlus" x="17" y="9" onmousedown="handleZoom(evt,'in')"/>
  <use id="zoomminus" xlink:href="#zoomMin" x="42" y="9" onmousedown="handleZoom(evt,'out')"/>
  <use id="reset" xlink:href="#resetDef" x="30" y="36" onmousedown="handleReset()"/>
   <use id="arrowup" xlink:href="#arrowUp" x="0" y="0" onmousedown="handlePan(0,-1)"/>
  <use id="arrowright" xlink:href="#arrowRight" x="0" y="0" onmousedown="handlePan(1,0)"/>
  <use id="arrowdown" xlink:href="#arrowDown" x="0" y="0" onmousedown="handlePan(0,1)"/>
  <use id="arrowleft" xlink:href="#arrowLeft" x="0" y="0" onmousedown="handlePan(-1,0)"/>
</g>
<svg viewBox="0 0 15 15" width="100%" height="30px" preserveAspectRatio="xMaxYMin meet">
 <g id="arrow_out" transform="scale(0.3 0.3)">
  <a xlink:href="classcBgS__GrpPassChk__inherit__graph_org.svg" target="_base">
   <rect id="button" ry="5" rx="5" y="6" x="6" height="38" width="38"
        fill="#f2f5e9" fill-opacity="0.5" stroke="#606060" stroke-width="1.0"/>
   <path id="arrow"
     d="M 11.500037,31.436501 C 11.940474,20.09759 22.043105,11.32322 32.158766,21.979434 L 37.068811,17.246167 C 37.068811,17.246167 37.088388,32 37.088388,32 L 22.160133,31.978069 C 22.160133,31.978069 26.997745,27.140456 26.997745,27.140456 C 18.528582,18.264221 13.291696,25.230495 11.500037,31.436501 z"
     style="fill:#404040;"/>
  </a>
 </g>
</svg>

<style type='text/css'>
<![CDATA[
[data-mouse-over-selected='false'] { opacity: 0.7; }
[data-mouse-over-selected='true']  { opacity: 1.0; }
]]>
</style>
<script type="application/ecmascript"><![CDATA[
document.addEventListener('DOMContentLoaded', (event) => {
  highlightEdges();
  highlightAdjacentNodes();
});
]]></script>
</svg>
