<?xml version="1.0" encoding="UTF-8" standalone="no"?>
<!DOCTYPE svg PUBLIC "-//W3C//DTD SVG 1.1//EN"
 "http://www.w3.org/Graphics/SVG/1.1/DTD/svg11.dtd">
<!-- Generated by graphviz version 9.0.0 (20230911.1827)
 -->
<!-- Title: Z2CreatureRide Pages: 1 -->
<svg width="253pt" height="271pt"
 viewBox="0.00 0.00 253.00 270.75" xmlns="http://www.w3.org/2000/svg" xmlns:xlink="http://www.w3.org/1999/xlink">
<g id="graph0" class="graph" transform="scale(1 1) rotate(0) translate(4 266.75)">
<title>Z2CreatureRide</title>
<!-- Node1 -->
<g id="Node000001" class="node">
<title>Node1</title>
<g id="a_Node000001"><a xlink:title=" ">
<polygon fill="#999999" stroke="#666666" points="124.75,-19.25 41.25,-19.25 41.25,0 124.75,0 124.75,-19.25"/>
<text text-anchor="middle" x="83" y="-5.75" font-family="Helvetica,sans-Serif" font-size="10.00">Z2CreatureRide</text>
</a>
</g>
</g>
<!-- Node2 -->
<g id="Node000002" class="node">
<title>Node2</title>
<g id="a_Node000002"><a xlink:href="structZ2Creature.html" target="_top" xlink:title=" ">
<polygon fill="white" stroke="#666666" points="64,-74.5 0,-74.5 0,-55.25 64,-55.25 64,-74.5"/>
<text text-anchor="middle" x="32" y="-61" font-family="Helvetica,sans-Serif" font-size="10.00">Z2Creature</text>
</a>
</g>
</g>
<!-- Node2&#45;&gt;Node1 -->
<g id="edge1_Node000001_Node000002" class="edge">
<title>Node2&#45;&gt;Node1</title>
<g id="a_edge1_Node000001_Node000002"><a xlink:title=" ">
<path fill="none" stroke="#63b8ff" d="M48.36,-46.79C57.02,-37.75 67.3,-27.02 74.4,-19.61"/>
<polygon fill="#63b8ff" stroke="#63b8ff" points="45.86,-44.35 41.47,-53.99 50.91,-49.19 45.86,-44.35"/>
</a>
</g>
</g>
<!-- Node3 -->
<g id="Node000003" class="node">
<title>Node3</title>
<g id="a_Node000003"><a xlink:href="structZ2RideSoundStarter.html" target="_top" xlink:title=" ">
<polygon fill="white" stroke="#666666" points="185.88,-74.5 82.12,-74.5 82.12,-55.25 185.88,-55.25 185.88,-74.5"/>
<text text-anchor="middle" x="134" y="-61" font-family="Helvetica,sans-Serif" font-size="10.00">Z2RideSoundStarter</text>
</a>
</g>
</g>
<!-- Node3&#45;&gt;Node1 -->
<g id="edge2_Node000001_Node000003" class="edge">
<title>Node3&#45;&gt;Node1</title>
<g id="a_edge2_Node000001_Node000003"><a xlink:title=" ">
<path fill="none" stroke="#63b8ff" d="M117.64,-46.79C108.98,-37.75 98.7,-27.02 91.6,-19.61"/>
<polygon fill="#63b8ff" stroke="#63b8ff" points="115.09,-49.19 124.53,-53.99 120.14,-44.35 115.09,-49.19"/>
</a>
</g>
</g>
<!-- Node4 -->
<g id="Node000004" class="node">
<title>Node4</title>
<g id="a_Node000004"><a xlink:href="structZ2SoundStarter.html" target="_top" xlink:title=" ">
<polygon fill="white" stroke="#666666" points="176.12,-129.75 91.88,-129.75 91.88,-110.5 176.12,-110.5 176.12,-129.75"/>
<text text-anchor="middle" x="134" y="-116.25" font-family="Helvetica,sans-Serif" font-size="10.00">Z2SoundStarter</text>
</a>
</g>
</g>
<!-- Node4&#45;&gt;Node3 -->
<g id="edge3_Node000003_Node000004" class="edge">
<title>Node4&#45;&gt;Node3</title>
<g id="a_edge3_Node000003_Node000004"><a xlink:title=" ">
<path fill="none" stroke="#63b8ff" d="M134,-98.88C134,-90.59 134,-81.42 134,-74.86"/>
<polygon fill="#63b8ff" stroke="#63b8ff" points="130.5,-98.82 134,-108.82 137.5,-98.82 130.5,-98.82"/>
</a>
</g>
</g>
<!-- Node5 -->
<g id="Node000005" class="node">
<title>Node5</title>
<g id="a_Node000005"><a xlink:href="structJAISoundStarter.html" target="_top" xlink:title=" ">
<polygon fill="white" stroke="#666666" points="121,-190.62 33,-190.62 33,-171.38 121,-171.38 121,-190.62"/>
<text text-anchor="middle" x="77" y="-177.12" font-family="Helvetica,sans-Serif" font-size="10.00">JAISoundStarter</text>
</a>
</g>
</g>
<!-- Node5&#45;&gt;Node4 -->
<g id="edge4_Node000004_Node000005" class="edge">
<title>Node5&#45;&gt;Node4</title>
<g id="a_edge4_Node000004_Node000005"><a xlink:title=" ">
<path fill="none" stroke="#63b8ff" d="M93.6,-162.86C103.95,-152.16 116.86,-138.83 125.26,-130.15"/>
<polygon fill="#63b8ff" stroke="#63b8ff" points="91.15,-160.35 86.71,-169.97 96.18,-165.22 91.15,-160.35"/>
</a>
</g>
</g>
<!-- Node6 -->
<g id="Node000006" class="node">
<title>Node6</title>
<g id="a_Node000006"><a xlink:href="classJASGlobalInstance.html" target="_top" xlink:title=" ">
<polygon fill="white" stroke="#666666" points="130,-262.75 24,-262.75 24,-232.25 130,-232.25 130,-262.75"/>
<text text-anchor="start" x="32" y="-249.25" font-family="Helvetica,sans-Serif" font-size="10.00">JASGlobalInstance&lt;</text>
<text text-anchor="middle" x="77" y="-238" font-family="Helvetica,sans-Serif" font-size="10.00"> JAISoundStarter &gt;</text>
</a>
</g>
</g>
<!-- Node6&#45;&gt;Node5 -->
<g id="edge5_Node000005_Node000006" class="edge">
<title>Node6&#45;&gt;Node5</title>
<g id="a_edge5_Node000005_Node000006"><a xlink:title=" ">
<path fill="none" stroke="#63b8ff" d="M77,-220.59C77,-210.01 77,-198.5 77,-190.82"/>
<polygon fill="#63b8ff" stroke="#63b8ff" points="73.5,-220.35 77,-230.35 80.5,-220.35 73.5,-220.35"/>
</a>
</g>
</g>
<!-- Node7 -->
<g id="Node000007" class="node">
<title>Node7</title>
<g id="a_Node000007"><a xlink:href="classJASGlobalInstance.html" target="_top" xlink:title=" ">
<polygon fill="white" stroke="#666666" points="245,-196.25 139,-196.25 139,-165.75 245,-165.75 245,-196.25"/>
<text text-anchor="start" x="147" y="-182.75" font-family="Helvetica,sans-Serif" font-size="10.00">JASGlobalInstance&lt;</text>
<text text-anchor="middle" x="192" y="-171.5" font-family="Helvetica,sans-Serif" font-size="10.00"> Z2SoundStarter &gt;</text>
</a>
</g>
</g>
<!-- Node7&#45;&gt;Node4 -->
<g id="edge6_Node000004_Node000007" class="edge">
<title>Node7&#45;&gt;Node4</title>
<g id="a_edge6_Node000004_Node000007"><a xlink:title=" ">
<path fill="none" stroke="#63b8ff" d="M169.81,-157.47C160.45,-147.98 150.1,-137.47 142.94,-130.2"/>
<polygon fill="#63b8ff" stroke="#63b8ff" points="167.09,-159.7 176.6,-164.37 172.08,-154.79 167.09,-159.7"/>
</a>
</g>
</g>
</g>
</svg>
