<?xml version="1.0" encoding="UTF-8" standalone="no"?>
<!DOCTYPE svg PUBLIC "-//W3C//DTD SVG 1.1//EN"
 "http://www.w3.org/Graphics/SVG/1.1/DTD/svg11.dtd">
<!-- Generated by graphviz version 9.0.0 (20230911.1827)
 -->
<!-- Title: Z2CreatureLink Pages: 1 -->
<svg width="1300pt" height="438pt"
 viewBox="0.00 0.00 1300.25 437.88" xmlns="http://www.w3.org/2000/svg" xmlns:xlink="http://www.w3.org/1999/xlink">
<g id="graph0" class="graph" transform="scale(1 1) rotate(0) translate(4 433.88)">
<title>Z2CreatureLink</title>
<!-- Node1 -->
<g id="Node000001" class="node">
<title>Node1</title>
<g id="a_Node000001"><a xlink:title=" ">
<polygon fill="#999999" stroke="#666666" points="1292.25,-201.88 1209.5,-201.88 1209.5,-182.62 1292.25,-182.62 1292.25,-201.88"/>
<text text-anchor="middle" x="1250.88" y="-188.38" font-family="Helvetica,sans-Serif" font-size="10.00">Z2CreatureLink</text>
</a>
</g>
</g>
<!-- Node1&#45;&gt;Node1 -->
<g id="edge27_Node000001_Node000001" class="edge">
<title>Node1&#45;&gt;Node1</title>
<g id="a_edge27_Node000001_Node000001"><a xlink:title=" ">
<path fill="none" stroke="#9a32cd" stroke-dasharray="5,2" d="M1240.37,-213.61C1241.78,-217.31 1245.28,-219.88 1250.88,-219.88 1261.4,-219.88 1264.52,-210.77 1260.25,-202.16"/>
<polygon fill="#9a32cd" stroke="#9a32cd" points="1243.85,-213.97 1241.35,-203.67 1236.88,-213.28 1243.85,-213.97"/>
</a>
</g>
<text text-anchor="middle" x="1250.88" y="-221.62" font-family="Helvetica,sans-Serif" font-size="10.00" fill="grey"> mLinkPtr</text>
</g>
<!-- Node2 -->
<g id="Node000002" class="node">
<title>Node2</title>
<g id="a_Node000002"><a xlink:href="structZ2Creature.html" target="_top" xlink:title=" ">
<polygon fill="white" stroke="#666666" points="1172.5,-221.88 1108.5,-221.88 1108.5,-202.62 1172.5,-202.62 1172.5,-221.88"/>
<text text-anchor="middle" x="1140.5" y="-208.38" font-family="Helvetica,sans-Serif" font-size="10.00">Z2Creature</text>
</a>
</g>
</g>
<!-- Node2&#45;&gt;Node1 -->
<g id="edge1_Node000001_Node000002" class="edge">
<title>Node2&#45;&gt;Node1</title>
<g id="a_edge1_Node000001_Node000002"><a xlink:title=" ">
<path fill="none" stroke="#63b8ff" d="M1183.92,-204.42C1192.27,-202.88 1201.01,-201.27 1209.31,-199.74"/>
<polygon fill="#63b8ff" stroke="#63b8ff" points="1183.53,-200.93 1174.33,-206.19 1184.8,-207.82 1183.53,-200.93"/>
</a>
</g>
</g>
<!-- Node3 -->
<g id="Node000003" class="node">
<title>Node3</title>
<g id="a_Node000003"><a xlink:href="structVec.html" target="_top" xlink:title=" ">
<polygon fill="white" stroke="#666666" points="230,-277.88 196.75,-277.88 196.75,-258.62 230,-258.62 230,-277.88"/>
<text text-anchor="middle" x="213.38" y="-264.38" font-family="Helvetica,sans-Serif" font-size="10.00">Vec</text>
</a>
</g>
</g>
<!-- Node3&#45;&gt;Node2 -->
<g id="edge2_Node000002_Node000003" class="edge">
<title>Node3&#45;&gt;Node2</title>
<g id="a_edge2_Node000002_Node000003"><a xlink:title=" ">
<path fill="none" stroke="#9a32cd" stroke-dasharray="5,2" d="M241.81,-268.25C284.65,-268.25 370.05,-268.25 442.5,-268.25 442.5,-268.25 442.5,-268.25 935,-268.25 1003.84,-268.25 1081.22,-238.37 1117.94,-222.26"/>
<polygon fill="#9a32cd" stroke="#9a32cd" points="241.93,-264.75 231.93,-268.25 241.93,-271.75 241.93,-264.75"/>
</a>
</g>
<text text-anchor="middle" x="691.62" y="-270" font-family="Helvetica,sans-Serif" font-size="10.00" fill="grey"> mpPos</text>
</g>
<!-- Node14 -->
<g id="Node000014" class="node">
<title>Node14</title>
<g id="a_Node000014"><a xlink:href="structJGeometry_1_1TVec3_3_01f32_01_4.html" target="_top" xlink:title=" ">
<polygon fill="white" stroke="#666666" points="506.62,-202.88 380.38,-202.88 380.38,-183.62 506.62,-183.62 506.62,-202.88"/>
<text text-anchor="middle" x="443.5" y="-189.38" font-family="Helvetica,sans-Serif" font-size="10.00">JGeometry::TVec3&lt; f32 &gt;</text>
</a>
</g>
</g>
<!-- Node3&#45;&gt;Node14 -->
<g id="edge18_Node000014_Node000003" class="edge">
<title>Node3&#45;&gt;Node14</title>
<g id="a_edge18_Node000014_Node000003"><a xlink:title=" ">
<path fill="none" stroke="#63b8ff" d="M240.7,-258.14C272.3,-246.19 326.99,-226.05 374.75,-211.25 383.58,-208.51 393.14,-205.81 402.22,-203.37"/>
<polygon fill="#63b8ff" stroke="#63b8ff" points="239.68,-254.79 231.58,-261.61 242.17,-261.33 239.68,-254.79"/>
</a>
</g>
</g>
<!-- Node21 -->
<g id="Node000021" class="node">
<title>Node21</title>
<g id="a_Node000021"><a xlink:href="structcXyz.html" target="_top" xlink:title=" ">
<polygon fill="white" stroke="#666666" points="593.75,-321.88 556.75,-321.88 556.75,-302.62 593.75,-302.62 593.75,-321.88"/>
<text text-anchor="middle" x="575.25" y="-308.38" font-family="Helvetica,sans-Serif" font-size="10.00">cXyz</text>
</a>
</g>
</g>
<!-- Node3&#45;&gt;Node21 -->
<g id="edge30_Node000021_Node000003" class="edge">
<title>Node3&#45;&gt;Node21</title>
<g id="a_edge30_Node000021_Node000003"><a xlink:title=" ">
<path fill="none" stroke="#63b8ff" d="M241.5,-272.45C260.68,-275.36 287.01,-279.23 310.25,-282.25 402.65,-294.24 513.6,-305.99 556.3,-310.41"/>
<polygon fill="#63b8ff" stroke="#63b8ff" points="242.21,-269.01 231.8,-270.96 241.15,-275.93 242.21,-269.01"/>
</a>
</g>
</g>
<!-- Node4 -->
<g id="Node000004" class="node">
<title>Node4</title>
<g id="a_Node000004"><a xlink:href="classZ2SoundObjAnime.html" target="_top" xlink:title=" ">
<polygon fill="white" stroke="#666666" points="982.88,-226.88 885.12,-226.88 885.12,-207.62 982.88,-207.62 982.88,-226.88"/>
<text text-anchor="middle" x="934" y="-213.38" font-family="Helvetica,sans-Serif" font-size="10.00">Z2SoundObjAnime</text>
</a>
</g>
</g>
<!-- Node4&#45;&gt;Node2 -->
<g id="edge3_Node000002_Node000004" class="edge">
<title>Node4&#45;&gt;Node2</title>
<g id="a_edge3_Node000002_Node000004"><a xlink:title=" ">
<path fill="none" stroke="#9a32cd" stroke-dasharray="5,2" d="M994.42,-215.8C1031.59,-214.89 1077.98,-213.75 1108.15,-213.02"/>
<polygon fill="#9a32cd" stroke="#9a32cd" points="994.63,-212.29 984.72,-216.03 994.8,-219.29 994.63,-212.29"/>
</a>
</g>
<text text-anchor="middle" x="1046.25" y="-218" font-family="Helvetica,sans-Serif" font-size="10.00" fill="grey"> mSoundObjAnime</text>
</g>
<!-- Node5 -->
<g id="Node000005" class="node">
<title>Node5</title>
<g id="a_Node000005"><a xlink:href="classZ2SoundObjBase.html" target="_top" xlink:title=" ">
<polygon fill="white" stroke="#666666" points="737.88,-162.88 645.38,-162.88 645.38,-143.62 737.88,-143.62 737.88,-162.88"/>
<text text-anchor="middle" x="691.62" y="-149.38" font-family="Helvetica,sans-Serif" font-size="10.00">Z2SoundObjBase</text>
</a>
</g>
</g>
<!-- Node5&#45;&gt;Node4 -->
<g id="edge4_Node000004_Node000005" class="edge">
<title>Node5&#45;&gt;Node4</title>
<g id="a_edge4_Node000004_Node000005"><a xlink:title=" ">
<path fill="none" stroke="#63b8ff" d="M741.5,-166.26C786.87,-178.34 853.49,-196.08 895,-207.13"/>
<polygon fill="#63b8ff" stroke="#63b8ff" points="742.47,-162.9 731.91,-163.71 740.67,-169.66 742.47,-162.9"/>
</a>
</g>
</g>
<!-- Node19 -->
<g id="Node000019" class="node">
<title>Node19</title>
<g id="a_Node000019"><a xlink:href="classZ2SoundObjSimple.html" target="_top" xlink:title=" ">
<polygon fill="white" stroke="#666666" points="984,-162.88 884,-162.88 884,-143.62 984,-143.62 984,-162.88"/>
<text text-anchor="middle" x="934" y="-149.38" font-family="Helvetica,sans-Serif" font-size="10.00">Z2SoundObjSimple</text>
</a>
</g>
</g>
<!-- Node5&#45;&gt;Node19 -->
<g id="edge24_Node000019_Node000005" class="edge">
<title>Node5&#45;&gt;Node19</title>
<g id="a_edge24_Node000019_Node000005"><a xlink:title=" ">
<path fill="none" stroke="#63b8ff" d="M749.5,-153.25C790.25,-153.25 844.6,-153.25 883.55,-153.25"/>
<polygon fill="#63b8ff" stroke="#63b8ff" points="749.63,-149.75 739.63,-153.25 749.63,-156.75 749.63,-149.75"/>
</a>
</g>
</g>
<!-- Node6 -->
<g id="Node000006" class="node">
<title>Node6</title>
<g id="a_Node000006"><a xlink:href="classZ2SoundHandles.html" target="_top" xlink:title=" ">
<polygon fill="white" stroke="#666666" points="489,-128.88 398,-128.88 398,-109.62 489,-109.62 489,-128.88"/>
<text text-anchor="middle" x="443.5" y="-115.38" font-family="Helvetica,sans-Serif" font-size="10.00">Z2SoundHandles</text>
</a>
</g>
</g>
<!-- Node6&#45;&gt;Node5 -->
<g id="edge5_Node000005_Node000006" class="edge">
<title>Node6&#45;&gt;Node5</title>
<g id="a_edge5_Node000005_Node000006"><a xlink:title=" ">
<path fill="none" stroke="#63b8ff" d="M500.76,-123.85C535.34,-127.05 580.5,-131.88 620.25,-138.25 628.88,-139.63 638.06,-141.38 646.83,-143.19"/>
<polygon fill="#63b8ff" stroke="#63b8ff" points="501.24,-120.38 490.96,-122.97 500.61,-127.36 501.24,-120.38"/>
</a>
</g>
</g>
<!-- Node7 -->
<g id="Node000007" class="node">
<title>Node7</title>
<g id="a_Node000007"><a xlink:href="classJSUList.html" target="_top" xlink:title=" ">
<polygon fill="white" stroke="#666666" points="292.25,-135.88 134.5,-135.88 134.5,-116.62 292.25,-116.62 292.25,-135.88"/>
<text text-anchor="middle" x="213.38" y="-122.38" font-family="Helvetica,sans-Serif" font-size="10.00">JSUList&lt; Z2SoundHandlePool &gt;</text>
</a>
</g>
</g>
<!-- Node7&#45;&gt;Node6 -->
<g id="edge6_Node000006_Node000007" class="edge">
<title>Node7&#45;&gt;Node6</title>
<g id="a_edge6_Node000006_Node000007"><a xlink:title=" ">
<path fill="none" stroke="darkgreen" d="M303.81,-123.51C336,-122.52 370.92,-121.45 397.68,-120.63"/>
<polygon fill="darkgreen" stroke="darkgreen" points="303.96,-120 294.08,-123.8 304.18,-127 303.96,-120"/>
</a>
</g>
</g>
<!-- Node8 -->
<g id="Node000008" class="node">
<title>Node8</title>
<g id="a_Node000008"><a xlink:href="classJSUPtrList.html" target="_top" xlink:title=" ">
<polygon fill="white" stroke="#666666" points="64.75,-91.88 0,-91.88 0,-72.62 64.75,-72.62 64.75,-91.88"/>
<text text-anchor="middle" x="32.38" y="-78.38" font-family="Helvetica,sans-Serif" font-size="10.00">JSUPtrList</text>
</a>
</g>
</g>
<!-- Node8&#45;&gt;Node7 -->
<g id="edge7_Node000007_Node000008" class="edge">
<title>Node8&#45;&gt;Node7</title>
<g id="a_edge7_Node000007_Node000008"><a xlink:title=" ">
<path fill="none" stroke="#63b8ff" d="M73.7,-95.68C76.75,-96.59 79.79,-97.45 82.75,-98.25 107.87,-105.02 136.07,-111.26 159.74,-116.13"/>
<polygon fill="#63b8ff" stroke="#63b8ff" points="74.77,-92.35 64.18,-92.75 72.7,-99.04 74.77,-92.35"/>
</a>
</g>
</g>
<!-- Node9 -->
<g id="Node000009" class="node">
<title>Node9</title>
<g id="a_Node000009"><a xlink:href="classJSUPtrLink.html" target="_top" xlink:title=" ">
<polygon fill="white" stroke="#666666" points="246.88,-57.88 179.88,-57.88 179.88,-38.62 246.88,-38.62 246.88,-57.88"/>
<text text-anchor="middle" x="213.38" y="-44.38" font-family="Helvetica,sans-Serif" font-size="10.00">JSUPtrLink</text>
</a>
</g>
</g>
<!-- Node8&#45;&gt;Node9 -->
<g id="edge9_Node000009_Node000008" class="edge">
<title>Node8&#45;&gt;Node9</title>
<g id="a_edge9_Node000009_Node000008"><a xlink:title=" ">
<path fill="none" stroke="#9a32cd" stroke-dasharray="5,2" d="M55.42,-66.01C63.6,-60.87 73.21,-55.8 82.75,-53 114.62,-43.64 152.8,-43.49 179.43,-45.04"/>
<polygon fill="#9a32cd" stroke="#9a32cd" points="53.55,-63.05 47.21,-71.54 57.46,-68.86 53.55,-63.05"/>
</a>
</g>
<text text-anchor="middle" x="99.62" y="-55" font-family="Helvetica,sans-Serif" font-size="10.00" fill="grey"> mList</text>
</g>
<!-- Node9&#45;&gt;Node8 -->
<g id="edge8_Node000008_Node000009" class="edge">
<title>Node9&#45;&gt;Node8</title>
<g id="a_edge8_Node000008_Node000009"><a xlink:title=" ">
<path fill="none" stroke="#9a32cd" stroke-dasharray="5,2" d="M168.31,-56.62C136.27,-62.71 93.66,-70.8 64.96,-76.25"/>
<polygon fill="#9a32cd" stroke="#9a32cd" points="168.93,-60.06 178.1,-54.76 167.62,-53.19 168.93,-60.06"/>
</a>
</g>
<text text-anchor="middle" x="99.62" y="-85.25" font-family="Helvetica,sans-Serif" font-size="10.00" fill="grey"> mHead</text>
<text text-anchor="middle" x="99.62" y="-74" font-family="Helvetica,sans-Serif" font-size="10.00" fill="grey">mTail</text>
</g>
<!-- Node9&#45;&gt;Node9 -->
<g id="edge10_Node000009_Node000009" class="edge">
<title>Node9&#45;&gt;Node9</title>
<g id="a_edge10_Node000009_Node000009"><a xlink:title=" ">
<path fill="none" stroke="#9a32cd" stroke-dasharray="5,2" d="M193.18,-69.28C195.71,-73.15 202.44,-75.88 213.38,-75.88 233.37,-75.88 239.31,-66.77 231.18,-58.16"/>
<polygon fill="#9a32cd" stroke="#9a32cd" points="196.58,-70.15 195.25,-59.64 189.73,-68.69 196.58,-70.15"/>
</a>
</g>
<text text-anchor="middle" x="213.38" y="-88.88" font-family="Helvetica,sans-Serif" font-size="10.00" fill="grey"> mNext</text>
<text text-anchor="middle" x="213.38" y="-77.62" font-family="Helvetica,sans-Serif" font-size="10.00" fill="grey">mPrev</text>
</g>
<!-- Node10 -->
<g id="Node000010" class="node">
<title>Node10</title>
<g id="a_Node000010"><a xlink:href="structZ2SoundStarter.html" target="_top" xlink:title=" ">
<polygon fill="white" stroke="#666666" points="485.62,-35.88 401.38,-35.88 401.38,-16.62 485.62,-16.62 485.62,-35.88"/>
<text text-anchor="middle" x="443.5" y="-22.38" font-family="Helvetica,sans-Serif" font-size="10.00">Z2SoundStarter</text>
</a>
</g>
</g>
<!-- Node10&#45;&gt;Node5 -->
<g id="edge11_Node000005_Node000010" class="edge">
<title>Node10&#45;&gt;Node5</title>
<g id="a_edge11_Node000005_Node000010"><a xlink:title=" ">
<path fill="none" stroke="#9a32cd" stroke-dasharray="5,2" d="M496.29,-36.25C501.99,-38.64 507.46,-41.59 512.25,-45.25 524.61,-54.68 518.45,-65.13 530.25,-75.25 563.04,-103.38 581.51,-92.86 620.25,-112 639.68,-121.6 661.02,-134.46 675.05,-143.25"/>
<polygon fill="#9a32cd" stroke="#9a32cd" points="497.89,-33.11 487.3,-33.05 495.55,-39.7 497.89,-33.11"/>
</a>
</g>
<text text-anchor="middle" x="575.25" y="-114" font-family="Helvetica,sans-Serif" font-size="10.00" fill="grey"> mSoundStarter</text>
</g>
<!-- Node13 -->
<g id="Node000013" class="node">
<title>Node13</title>
<g id="a_Node000013"><a xlink:href="classJASGlobalInstance.html" target="_top" xlink:title=" ">
<polygon fill="white" stroke="#666666" points="744.62,-30.5 638.62,-30.5 638.62,0 744.62,0 744.62,-30.5"/>
<text text-anchor="start" x="646.62" y="-17" font-family="Helvetica,sans-Serif" font-size="10.00">JASGlobalInstance&lt;</text>
<text text-anchor="middle" x="691.62" y="-5.75" font-family="Helvetica,sans-Serif" font-size="10.00"> Z2SoundStarter &gt;</text>
</a>
</g>
</g>
<!-- Node10&#45;&gt;Node13 -->
<g id="edge16_Node000013_Node000010" class="edge">
<title>Node10&#45;&gt;Node13</title>
<g id="a_edge16_Node000013_Node000010"><a xlink:title=" ">
<path fill="none" stroke="#9a32cd" stroke-dasharray="5,2" d="M489.81,-13.48C502.76,-10.4 516.97,-7.55 530.25,-6 569.98,-1.37 580.34,-3.39 620.25,-6 626.15,-6.39 632.32,-6.95 638.43,-7.62"/>
<polygon fill="#9a32cd" stroke="#9a32cd" points="489.13,-10.04 480.27,-15.86 490.82,-16.84 489.13,-10.04"/>
</a>
</g>
<text text-anchor="middle" x="575.25" y="-8" font-family="Helvetica,sans-Serif" font-size="10.00" fill="grey"> sInstance</text>
</g>
<!-- Node20 -->
<g id="Node000020" class="node">
<title>Node20</title>
<g id="a_Node000020"><a xlink:href="structZ2LinkSoundStarter.html" target="_top" xlink:title=" ">
<polygon fill="white" stroke="#666666" points="866,-96.88 763,-96.88 763,-77.62 866,-77.62 866,-96.88"/>
<text text-anchor="middle" x="814.5" y="-83.38" font-family="Helvetica,sans-Serif" font-size="10.00">Z2LinkSoundStarter</text>
</a>
</g>
</g>
<!-- Node10&#45;&gt;Node20 -->
<g id="edge26_Node000020_Node000010" class="edge">
<title>Node10&#45;&gt;Node20</title>
<g id="a_edge26_Node000020_Node000010"><a xlink:title=" ">
<path fill="none" stroke="#63b8ff" d="M497.41,-35C568.21,-46.7 692.88,-67.31 762.62,-78.84"/>
<polygon fill="#63b8ff" stroke="#63b8ff" points="498.04,-31.55 487.6,-33.38 496.9,-38.46 498.04,-31.55"/>
</a>
</g>
</g>
<!-- Node11 -->
<g id="Node000011" class="node">
<title>Node11</title>
<g id="a_Node000011"><a xlink:href="structJAISoundStarter.html" target="_top" xlink:title=" ">
<polygon fill="white" stroke="#666666" points="257.38,-20.88 169.38,-20.88 169.38,-1.62 257.38,-1.62 257.38,-20.88"/>
<text text-anchor="middle" x="213.38" y="-7.38" font-family="Helvetica,sans-Serif" font-size="10.00">JAISoundStarter</text>
</a>
</g>
</g>
<!-- Node11&#45;&gt;Node10 -->
<g id="edge12_Node000010_Node000011" class="edge">
<title>Node11&#45;&gt;Node10</title>
<g id="a_edge12_Node000010_Node000011"><a xlink:title=" ">
<path fill="none" stroke="#63b8ff" d="M269.14,-14.85C309.71,-17.52 364.16,-21.1 401.14,-23.53"/>
<polygon fill="#63b8ff" stroke="#63b8ff" points="269.54,-11.37 259.33,-14.21 269.08,-18.35 269.54,-11.37"/>
</a>
</g>
</g>
<!-- Node12 -->
<g id="Node000012" class="node">
<title>Node12</title>
<g id="a_Node000012"><a xlink:href="classJASGlobalInstance.html" target="_top" xlink:title=" ">
<polygon fill="white" stroke="#666666" points="496.5,-84.5 390.5,-84.5 390.5,-54 496.5,-54 496.5,-84.5"/>
<text text-anchor="start" x="398.5" y="-71" font-family="Helvetica,sans-Serif" font-size="10.00">JASGlobalInstance&lt;</text>
<text text-anchor="middle" x="443.5" y="-59.75" font-family="Helvetica,sans-Serif" font-size="10.00"> JAISoundStarter &gt;</text>
</a>
</g>
</g>
<!-- Node11&#45;&gt;Node12 -->
<g id="edge14_Node000012_Node000011" class="edge">
<title>Node11&#45;&gt;Node12</title>
<g id="a_edge14_Node000012_Node000011"><a xlink:title=" ">
<path fill="none" stroke="#9a32cd" stroke-dasharray="5,2" d="M268.69,-19.67C276.87,-22.1 284.99,-25.23 292.25,-29.25 302.14,-34.74 300.19,-42.07 310.25,-47.25 334.78,-59.87 364.93,-65.52 390.25,-67.95"/>
<polygon fill="#9a32cd" stroke="#9a32cd" points="269.6,-16.29 259.04,-17.15 267.84,-23.06 269.6,-16.29"/>
</a>
</g>
<text text-anchor="middle" x="333.5" y="-65" font-family="Helvetica,sans-Serif" font-size="10.00" fill="grey"> sInstance</text>
</g>
<!-- Node12&#45;&gt;Node11 -->
<g id="edge13_Node000011_Node000012" class="edge">
<title>Node12&#45;&gt;Node11</title>
<g id="a_edge13_Node000011_Node000012"><a xlink:title=" ">
<path fill="none" stroke="#63b8ff" d="M379.33,-51.94C352.53,-44.72 320.91,-36.38 292.25,-29.25 281.07,-26.47 268.96,-23.6 257.69,-20.99"/>
<polygon fill="#63b8ff" stroke="#63b8ff" points="378.08,-55.22 388.65,-54.45 379.91,-48.47 378.08,-55.22"/>
</a>
</g>
</g>
<!-- Node13&#45;&gt;Node10 -->
<g id="edge15_Node000010_Node000013" class="edge">
<title>Node13&#45;&gt;Node10</title>
<g id="a_edge15_Node000010_Node000013"><a xlink:title=" ">
<path fill="none" stroke="#63b8ff" d="M626.95,-18.92C624.69,-19.03 622.45,-19.14 620.25,-19.25 574.35,-21.47 521.67,-23.5 486.06,-24.79"/>
<polygon fill="#63b8ff" stroke="#63b8ff" points="627.05,-22.42 636.85,-18.4 626.68,-15.43 627.05,-22.42"/>
</a>
</g>
</g>
<!-- Node14&#45;&gt;Node5 -->
<g id="edge17_Node000005_Node000014" class="edge">
<title>Node14&#45;&gt;Node5</title>
<g id="a_edge17_Node000005_Node000014"><a xlink:title=" ">
<path fill="none" stroke="#9a32cd" stroke-dasharray="5,2" d="M518.32,-185.37C549.85,-181.54 586.97,-176.43 620.25,-170.25 630.63,-168.32 641.78,-165.83 652.07,-163.35"/>
<polygon fill="#9a32cd" stroke="#9a32cd" points="518,-181.88 508.48,-186.54 518.82,-188.83 518,-181.88"/>
</a>
</g>
<text text-anchor="middle" x="575.25" y="-186" font-family="Helvetica,sans-Serif" font-size="10.00" fill="grey"> mSoundPos</text>
</g>
<!-- Node15 -->
<g id="Node000015" class="node">
<title>Node15</title>
<g id="a_Node000015"><a xlink:href="classJAUSoundAnimation.html" target="_top" xlink:title=" ">
<polygon fill="white" stroke="#666666" points="745,-226.88 638.25,-226.88 638.25,-207.62 745,-207.62 745,-226.88"/>
<text text-anchor="middle" x="691.62" y="-213.38" font-family="Helvetica,sans-Serif" font-size="10.00">JAUSoundAnimation</text>
</a>
</g>
</g>
<!-- Node15&#45;&gt;Node4 -->
<g id="edge19_Node000004_Node000015" class="edge">
<title>Node15&#45;&gt;Node4</title>
<g id="a_edge19_Node000004_Node000015"><a xlink:title=" ">
<path fill="none" stroke="#9a32cd" stroke-dasharray="5,2" d="M756.69,-217.25C796.96,-217.25 848.05,-217.25 884.86,-217.25"/>
<polygon fill="#9a32cd" stroke="#9a32cd" points="756.89,-213.75 746.89,-217.25 756.89,-220.75 756.89,-213.75"/>
</a>
</g>
<text text-anchor="middle" x="814.5" y="-219" font-family="Helvetica,sans-Serif" font-size="10.00" fill="grey"> mpAnimation</text>
</g>
<!-- Node16 -->
<g id="Node000016" class="node">
<title>Node16</title>
<g id="a_Node000016"><a xlink:href="classJAUSoundAnimationControl.html" target="_top" xlink:title=" ">
<polygon fill="white" stroke="#666666" points="512.25,-239.88 374.75,-239.88 374.75,-220.62 512.25,-220.62 512.25,-239.88"/>
<text text-anchor="middle" x="443.5" y="-226.38" font-family="Helvetica,sans-Serif" font-size="10.00">JAUSoundAnimationControl</text>
</a>
</g>
</g>
<!-- Node16&#45;&gt;Node15 -->
<g id="edge20_Node000015_Node000016" class="edge">
<title>Node16&#45;&gt;Node15</title>
<g id="a_edge20_Node000015_Node000016"><a xlink:title=" ">
<path fill="none" stroke="#9a32cd" stroke-dasharray="5,2" d="M524.09,-226.05C561.37,-224.08 604.76,-221.79 637.9,-220.03"/>
<polygon fill="#9a32cd" stroke="#9a32cd" points="524.05,-222.54 514.24,-226.57 524.41,-229.53 524.05,-222.54"/>
</a>
</g>
<text text-anchor="middle" x="575.25" y="-228" font-family="Helvetica,sans-Serif" font-size="10.00" fill="grey"> mControl</text>
</g>
<!-- Node17 -->
<g id="Node000017" class="node">
<title>Node17</title>
<g id="a_Node000017"><a xlink:href="classJAUSoundAnimationSound.html" target="_top" xlink:title=" ">
<polygon fill="white" stroke="#666666" points="510.75,-165.88 376.25,-165.88 376.25,-146.62 510.75,-146.62 510.75,-165.88"/>
<text text-anchor="middle" x="443.5" y="-152.38" font-family="Helvetica,sans-Serif" font-size="10.00">JAUSoundAnimationSound</text>
</a>
</g>
</g>
<!-- Node17&#45;&gt;Node15 -->
<g id="edge21_Node000015_Node000017" class="edge">
<title>Node17&#45;&gt;Node15</title>
<g id="a_edge21_Node000015_Node000017"><a xlink:title=" ">
<path fill="none" stroke="#9a32cd" stroke-dasharray="5,2" d="M518.91,-145.35C551,-143.47 588.4,-145.15 620.25,-157 620.7,-157.17 659.25,-190.27 679.09,-207.33"/>
<polygon fill="#9a32cd" stroke="#9a32cd" points="519.03,-141.83 509.3,-146.05 519.53,-148.82 519.03,-141.83"/>
</a>
</g>
<text text-anchor="middle" x="575.25" y="-159" font-family="Helvetica,sans-Serif" font-size="10.00" fill="grey"> mSounds</text>
</g>
<!-- Node18 -->
<g id="Node000018" class="node">
<title>Node18</title>
<g id="a_Node000018"><a xlink:href="structJAISoundID.html" target="_top" xlink:title=" ">
<polygon fill="white" stroke="#666666" points="247.62,-172.88 179.12,-172.88 179.12,-153.62 247.62,-153.62 247.62,-172.88"/>
<text text-anchor="middle" x="213.38" y="-159.38" font-family="Helvetica,sans-Serif" font-size="10.00">JAISoundID</text>
</a>
</g>
</g>
<!-- Node18&#45;&gt;Node17 -->
<g id="edge22_Node000017_Node000018" class="edge">
<title>Node18&#45;&gt;Node17</title>
<g id="a_edge22_Node000017_Node000018"><a xlink:title=" ">
<path fill="none" stroke="#9a32cd" stroke-dasharray="5,2" d="M259.26,-161.87C292.58,-160.85 338.56,-159.44 376.13,-158.29"/>
<polygon fill="#9a32cd" stroke="#9a32cd" points="259.44,-158.37 249.55,-162.17 259.65,-165.36 259.44,-158.37"/>
</a>
</g>
<text text-anchor="middle" x="333.5" y="-162" font-family="Helvetica,sans-Serif" font-size="10.00" fill="grey"> mSoundId</text>
</g>
<!-- Node19&#45;&gt;Node1 -->
<g id="edge28_Node000001_Node000019" class="edge">
<title>Node19&#45;&gt;Node1</title>
<g id="a_edge28_Node000001_Node000019"><a xlink:title=" ">
<path fill="none" stroke="#9a32cd" stroke-dasharray="5,2" d="M995.59,-157.77C1024.39,-160.16 1059.27,-163.4 1090.5,-167.25 1130.94,-172.24 1176.9,-179.63 1209.03,-185.09"/>
<polygon fill="#9a32cd" stroke="#9a32cd" points="996.22,-154.31 985.97,-156.99 995.65,-161.29 996.22,-154.31"/>
</a>
</g>
<text text-anchor="middle" x="1140.5" y="-181" font-family="Helvetica,sans-Serif" font-size="10.00" fill="grey"> mKantera</text>
</g>
<!-- Node19&#45;&gt;Node2 -->
<g id="edge23_Node000002_Node000019" class="edge">
<title>Node19&#45;&gt;Node2</title>
<g id="a_edge23_Node000002_Node000019"><a xlink:title=" ">
<path fill="none" stroke="#9a32cd" stroke-dasharray="5,2" d="M995.47,-163.09C1024.66,-168.74 1059.9,-176.89 1090.5,-187.75 1101.44,-191.63 1113.08,-197.38 1122.27,-202.33"/>
<polygon fill="#9a32cd" stroke="#9a32cd" points="996.15,-159.66 985.68,-161.25 994.86,-166.54 996.15,-159.66"/>
</a>
</g>
<text text-anchor="middle" x="1046.25" y="-201.25" font-family="Helvetica,sans-Serif" font-size="10.00" fill="grey"> mSoundObjSimple1</text>
<text text-anchor="middle" x="1046.25" y="-190" font-family="Helvetica,sans-Serif" font-size="10.00" fill="grey">mSoundObjSimple2</text>
</g>
<!-- Node20&#45;&gt;Node1 -->
<g id="edge25_Node000001_Node000020" class="edge">
<title>Node20&#45;&gt;Node1</title>
<g id="a_edge25_Node000001_Node000020"><a xlink:title=" ">
<path fill="none" stroke="#63b8ff" d="M877.52,-98.89C949.12,-112.81 1070.18,-137.82 1172.5,-166.25 1189.16,-170.88 1207.51,-177 1222.16,-182.14"/>
<polygon fill="#63b8ff" stroke="#63b8ff" points="878.44,-95.5 867.95,-97.04 877.11,-102.38 878.44,-95.5"/>
</a>
</g>
</g>
<!-- Node21&#45;&gt;Node1 -->
<g id="edge29_Node000001_Node000021" class="edge">
<title>Node21&#45;&gt;Node1</title>
<g id="a_edge29_Node000001_Node000021"><a xlink:title=" ">
<path fill="none" stroke="#9a32cd" stroke-dasharray="5,2" d="M605.54,-312.66C650.34,-313.24 738.57,-314.25 813.5,-314.25 813.5,-314.25 813.5,-314.25 1141.5,-314.25 1201.28,-314.25 1236.14,-231.37 1246.55,-202.23"/>
<polygon fill="#9a32cd" stroke="#9a32cd" points="605.67,-309.16 595.62,-312.52 605.57,-316.16 605.67,-309.16"/>
</a>
</g>
<text text-anchor="middle" x="934" y="-316" font-family="Helvetica,sans-Serif" font-size="10.00" fill="grey"> field_0xb4</text>
</g>
<!-- Node21&#45;&gt;Node21 -->
<g id="edge31_Node000021_Node000021" class="edge">
<title>Node21&#45;&gt;Node21</title>
<g id="a_edge31_Node000021_Node000021"><a xlink:title=" ">
<path fill="none" stroke="#9a32cd" stroke-dasharray="5,2" d="M554.59,-333.28C557.18,-337.15 564.06,-339.88 575.25,-339.88 595.71,-339.88 601.78,-330.77 593.47,-322.16"/>
<polygon fill="#9a32cd" stroke="#9a32cd" points="557.98,-334.16 556.71,-323.64 551.15,-332.66 557.98,-334.16"/>
</a>
</g>
<text text-anchor="middle" x="575.25" y="-420.38" font-family="Helvetica,sans-Serif" font-size="10.00" fill="grey"> BaseX</text>
<text text-anchor="middle" x="575.25" y="-409.12" font-family="Helvetica,sans-Serif" font-size="10.00" fill="grey">BaseXY</text>
<text text-anchor="middle" x="575.25" y="-397.88" font-family="Helvetica,sans-Serif" font-size="10.00" fill="grey">BaseXYZ</text>
<text text-anchor="middle" x="575.25" y="-386.62" font-family="Helvetica,sans-Serif" font-size="10.00" fill="grey">BaseXZ</text>
<text text-anchor="middle" x="575.25" y="-375.38" font-family="Helvetica,sans-Serif" font-size="10.00" fill="grey">BaseY</text>
<text text-anchor="middle" x="575.25" y="-364.12" font-family="Helvetica,sans-Serif" font-size="10.00" fill="grey">BaseYZ</text>
<text text-anchor="middle" x="575.25" y="-352.88" font-family="Helvetica,sans-Serif" font-size="10.00" fill="grey">BaseZ</text>
<text text-anchor="middle" x="575.25" y="-341.62" font-family="Helvetica,sans-Serif" font-size="10.00" fill="grey">Zero</text>
</g>
</g>
</svg>
