<?xml version="1.0" encoding="UTF-8" standalone="no"?>
<!DOCTYPE svg PUBLIC "-//W3C//DTD SVG 1.1//EN"
 "http://www.w3.org/Graphics/SVG/1.1/DTD/svg11.dtd">
<!-- Generated by graphviz version 9.0.0 (20230911.1827)
 -->
<!-- Title: JASChannel Pages: 1 -->
<svg width="893pt" height="634pt"
 viewBox="0.00 0.00 892.75 633.88" xmlns="http://www.w3.org/2000/svg" xmlns:xlink="http://www.w3.org/1999/xlink">
<g id="graph0" class="graph" transform="scale(1 1) rotate(0) translate(4 629.88)">
<title>JASChannel</title>
<!-- Node1 -->
<g id="Node000001" class="node">
<title>Node1</title>
<g id="a_Node000001"><a xlink:title=" ">
<polygon fill="#999999" stroke="#666666" points="736,-436.25 666,-436.25 666,-417 736,-417 736,-436.25"/>
<text text-anchor="middle" x="701" y="-422.75" font-family="Helvetica,sans-Serif" font-size="10.00">JASChannel</text>
</a>
</g>
</g>
<!-- Node1&#45;&gt;Node1 -->
<g id="edge5_Node000001_Node000001" class="edge">
<title>Node1&#45;&gt;Node1</title>
<g id="a_edge5_Node000001_Node000001"><a xlink:title=" ">
<path fill="none" stroke="#9a32cd" stroke-dasharray="5,2" d="M688.73,-447.65C690.27,-451.53 694.35,-454.25 701,-454.25 713.15,-454.25 716.76,-445.15 711.82,-436.54"/>
<polygon fill="#9a32cd" stroke="#9a32cd" points="692.16,-448.41 689.98,-438.04 685.22,-447.5 692.16,-448.41"/>
</a>
</g>
<text text-anchor="middle" x="701" y="-456" font-family="Helvetica,sans-Serif" font-size="10.00" fill="grey"> mCallback</text>
</g>
<!-- Node2 -->
<g id="Node000002" class="node">
<title>Node2</title>
<g id="a_Node000002"><a xlink:href="classJASPoolAllocObject__MultiThreaded.html" target="_top" xlink:title=" ">
<polygon fill="white" stroke="#666666" points="534,-625.88 380.75,-625.88 380.75,-595.38 534,-595.38 534,-625.88"/>
<text text-anchor="start" x="388.75" y="-612.38" font-family="Helvetica,sans-Serif" font-size="10.00">JASPoolAllocObject</text>
<text text-anchor="middle" x="457.38" y="-601.12" font-family="Helvetica,sans-Serif" font-size="10.00">_MultiThreaded&lt; JASChannel &gt;</text>
</a>
</g>
</g>
<!-- Node2&#45;&gt;Node1 -->
<g id="edge1_Node000001_Node000002" class="edge">
<title>Node2&#45;&gt;Node1</title>
<g id="a_edge1_Node000001_Node000002"><a xlink:title=" ">
<path fill="none" stroke="#63b8ff" d="M545.51,-609.58C579.4,-605.06 616.49,-594.53 643.5,-571.62 686.15,-535.45 696.77,-462.97 699.27,-436.55"/>
<polygon fill="#63b8ff" stroke="#63b8ff" points="545.19,-606.09 535.66,-610.71 545.99,-613.04 545.19,-606.09"/>
</a>
</g>
</g>
<!-- Node3 -->
<g id="Node000003" class="node">
<title>Node3</title>
<g id="a_Node000003"><a xlink:href="structJASDSPChannel.html" target="_top" xlink:title=" ">
<polygon fill="white" stroke="#666666" points="502.5,-369.25 412.25,-369.25 412.25,-350 502.5,-350 502.5,-369.25"/>
<text text-anchor="middle" x="457.38" y="-355.75" font-family="Helvetica,sans-Serif" font-size="10.00">JASDSPChannel</text>
</a>
</g>
</g>
<!-- Node3&#45;&gt;Node1 -->
<g id="edge2_Node000001_Node000003" class="edge">
<title>Node3&#45;&gt;Node1</title>
<g id="a_edge2_Node000001_Node000003"><a xlink:title=" ">
<path fill="none" stroke="#9a32cd" stroke-dasharray="5,2" d="M505.63,-372.73C552.66,-385.77 623.71,-405.47 665.62,-417.09"/>
<polygon fill="#9a32cd" stroke="#9a32cd" points="506.84,-369.43 496.27,-370.13 504.97,-376.18 506.84,-369.43"/>
</a>
</g>
<text text-anchor="middle" x="597.75" y="-411.38" font-family="Helvetica,sans-Serif" font-size="10.00" fill="grey"> mDspCh</text>
</g>
<!-- Node3&#45;&gt;Node3 -->
<g id="edge3_Node000003_Node000003" class="edge">
<title>Node3&#45;&gt;Node3</title>
<g id="a_edge3_Node000003_Node000003"><a xlink:title=" ">
<path fill="none" stroke="#9a32cd" stroke-dasharray="5,2" d="M434.12,-380.65C437.03,-384.53 444.78,-387.25 457.38,-387.25 480.4,-387.25 487.24,-378.15 477.88,-369.54"/>
<polygon fill="#9a32cd" stroke="#9a32cd" points="437.5,-381.55 436.5,-371.01 430.71,-379.88 437.5,-381.55"/>
</a>
</g>
<text text-anchor="middle" x="457.38" y="-389" font-family="Helvetica,sans-Serif" font-size="10.00" fill="grey"> sDspChannels</text>
</g>
<!-- Node4 -->
<g id="Node000004" class="node">
<title>Node4</title>
<g id="a_Node000004"><a xlink:href="structJASDsp_1_1TChannel.html" target="_top" xlink:title=" ">
<polygon fill="white" stroke="#666666" points="270.5,-369.25 172.75,-369.25 172.75,-350 270.5,-350 270.5,-369.25"/>
<text text-anchor="middle" x="221.62" y="-355.75" font-family="Helvetica,sans-Serif" font-size="10.00">JASDsp::TChannel</text>
</a>
</g>
</g>
<!-- Node4&#45;&gt;Node3 -->
<g id="edge4_Node000003_Node000004" class="edge">
<title>Node4&#45;&gt;Node3</title>
<g id="a_edge4_Node000003_Node000004"><a xlink:title=" ">
<path fill="none" stroke="#9a32cd" stroke-dasharray="5,2" d="M282.09,-359.62C322.48,-359.62 375.05,-359.62 411.85,-359.62"/>
<polygon fill="#9a32cd" stroke="#9a32cd" points="282.29,-356.13 272.29,-359.63 282.29,-363.13 282.29,-356.13"/>
</a>
</g>
<text text-anchor="middle" x="326.38" y="-372.62" font-family="Helvetica,sans-Serif" font-size="10.00" fill="grey"> mCallback</text>
<text text-anchor="middle" x="326.38" y="-361.38" font-family="Helvetica,sans-Serif" font-size="10.00" fill="grey">mChannel</text>
</g>
<!-- Node5 -->
<g id="Node000005" class="node">
<title>Node5</title>
<g id="a_Node000005"><a xlink:href="structJASOscillator.html" target="_top" xlink:title=" ">
<polygon fill="white" stroke="#666666" points="495.38,-577.25 419.38,-577.25 419.38,-558 495.38,-558 495.38,-577.25"/>
<text text-anchor="middle" x="457.38" y="-563.75" font-family="Helvetica,sans-Serif" font-size="10.00">JASOscillator</text>
</a>
</g>
</g>
<!-- Node5&#45;&gt;Node1 -->
<g id="edge6_Node000001_Node000005" class="edge">
<title>Node5&#45;&gt;Node1</title>
<g id="a_edge6_Node000001_Node000005"><a xlink:title=" ">
<path fill="none" stroke="#9a32cd" stroke-dasharray="5,2" d="M507.02,-565.06C547.12,-560.75 603.68,-549.39 643.5,-519.62 672.86,-497.68 690.17,-455.59 696.83,-436.49"/>
<polygon fill="#9a32cd" stroke="#9a32cd" points="506.78,-561.57 497.16,-566 507.45,-568.54 506.78,-561.57"/>
</a>
</g>
<text text-anchor="middle" x="597.75" y="-558.38" font-family="Helvetica,sans-Serif" font-size="10.00" fill="grey"> mOscillators</text>
</g>
<!-- Node6 -->
<g id="Node000006" class="node">
<title>Node6</title>
<g id="a_Node000006"><a xlink:href="structJASOscillator_1_1Data.html" target="_top" xlink:title=" ">
<polygon fill="white" stroke="#666666" points="272,-577.25 171.25,-577.25 171.25,-558 272,-558 272,-577.25"/>
<text text-anchor="middle" x="221.62" y="-563.75" font-family="Helvetica,sans-Serif" font-size="10.00">JASOscillator::Data</text>
</a>
</g>
</g>
<!-- Node6&#45;&gt;Node5 -->
<g id="edge7_Node000005_Node000006" class="edge">
<title>Node6&#45;&gt;Node5</title>
<g id="a_edge7_Node000005_Node000006"><a xlink:title=" ">
<path fill="none" stroke="#9a32cd" stroke-dasharray="5,2" d="M283.94,-567.62C326.9,-567.62 382.89,-567.62 419.24,-567.62"/>
<polygon fill="#9a32cd" stroke="#9a32cd" points="284,-564.13 274,-567.63 284,-571.13 284,-564.13"/>
</a>
</g>
<text text-anchor="middle" x="326.38" y="-569.38" font-family="Helvetica,sans-Serif" font-size="10.00" fill="grey"> mData</text>
</g>
<!-- Node7 -->
<g id="Node000007" class="node">
<title>Node7</title>
<g id="a_Node000007"><a xlink:href="structJASOscillator_1_1Point.html" target="_top" xlink:title=" ">
<polygon fill="white" stroke="#666666" points="103,-577.25 0,-577.25 0,-558 103,-558 103,-577.25"/>
<text text-anchor="middle" x="51.5" y="-563.75" font-family="Helvetica,sans-Serif" font-size="10.00">JASOscillator::Point</text>
</a>
</g>
</g>
<!-- Node7&#45;&gt;Node6 -->
<g id="edge8_Node000006_Node000007" class="edge">
<title>Node7&#45;&gt;Node6</title>
<g id="a_edge8_Node000006_Node000007"><a xlink:title=" ">
<path fill="none" stroke="#9a32cd" stroke-dasharray="5,2" d="M114.68,-567.62C133.17,-567.62 153.17,-567.62 170.77,-567.62"/>
<polygon fill="#9a32cd" stroke="#9a32cd" points="114.91,-564.13 104.91,-567.63 114.91,-571.13 114.91,-564.13"/>
</a>
</g>
<text text-anchor="middle" x="137.12" y="-580.62" font-family="Helvetica,sans-Serif" font-size="10.00" fill="grey"> _0C</text>
<text text-anchor="middle" x="137.12" y="-569.38" font-family="Helvetica,sans-Serif" font-size="10.00" fill="grey">mTable</text>
</g>
<!-- Node8 -->
<g id="Node000008" class="node">
<title>Node8</title>
<g id="a_Node000008"><a xlink:href="structJASLfo.html" target="_top" xlink:title=" ">
<polygon fill="white" stroke="#666666" points="481.88,-510.25 432.88,-510.25 432.88,-491 481.88,-491 481.88,-510.25"/>
<text text-anchor="middle" x="457.38" y="-496.75" font-family="Helvetica,sans-Serif" font-size="10.00">JASLfo</text>
</a>
</g>
</g>
<!-- Node8&#45;&gt;Node1 -->
<g id="edge9_Node000001_Node000008" class="edge">
<title>Node8&#45;&gt;Node1</title>
<g id="a_edge9_Node000001_Node000008"><a xlink:title=" ">
<path fill="none" stroke="#9a32cd" stroke-dasharray="5,2" d="M493.26,-499.75C531.56,-497.67 594.17,-490.96 643.5,-469.62 661.83,-461.7 679.59,-446.58 690.15,-436.55"/>
<polygon fill="#9a32cd" stroke="#9a32cd" points="493.53,-496.23 483.7,-500.18 493.85,-503.22 493.53,-496.23"/>
</a>
</g>
<text text-anchor="middle" x="597.75" y="-505.62" font-family="Helvetica,sans-Serif" font-size="10.00" fill="grey"> mTremolo</text>
<text text-anchor="middle" x="597.75" y="-494.38" font-family="Helvetica,sans-Serif" font-size="10.00" fill="grey">mVibrate</text>
</g>
<!-- Node8&#45;&gt;Node8 -->
<g id="edge10_Node000008_Node000008" class="edge">
<title>Node8&#45;&gt;Node8</title>
<g id="a_edge10_Node000008_Node000008"><a xlink:title=" ">
<path fill="none" stroke="#9a32cd" stroke-dasharray="5,2" d="M434.12,-521.65C437.03,-525.53 444.78,-528.25 457.38,-528.25 480.4,-528.25 487.24,-519.15 477.88,-510.54"/>
<polygon fill="#9a32cd" stroke="#9a32cd" points="437.5,-522.55 436.5,-512.01 430.71,-520.88 437.5,-522.55"/>
</a>
</g>
<text text-anchor="middle" x="457.38" y="-530" font-family="Helvetica,sans-Serif" font-size="10.00" fill="grey"> sFreeRunLfo</text>
</g>
<!-- Node9 -->
<g id="Node000009" class="node">
<title>Node9</title>
<g id="a_Node000009"><a xlink:href="unionJASChannel_1_1MixConfig.html" target="_top" xlink:title=" ">
<polygon fill="white" stroke="#666666" points="515.62,-473.25 399.12,-473.25 399.12,-454 515.62,-454 515.62,-473.25"/>
<text text-anchor="middle" x="457.38" y="-459.75" font-family="Helvetica,sans-Serif" font-size="10.00">JASChannel::MixConfig</text>
</a>
</g>
</g>
<!-- Node9&#45;&gt;Node1 -->
<g id="edge11_Node000001_Node000009" class="edge">
<title>Node9&#45;&gt;Node1</title>
<g id="a_edge11_Node000001_Node000009"><a xlink:title=" ">
<path fill="none" stroke="#9a32cd" stroke-dasharray="5,2" d="M526.9,-457.81C561.96,-454.25 605.2,-448.95 643.5,-441.62 650.68,-440.25 658.29,-438.47 665.52,-436.61"/>
<polygon fill="#9a32cd" stroke="#9a32cd" points="526.93,-454.29 517.33,-458.76 527.62,-461.26 526.93,-454.29"/>
</a>
</g>
<text text-anchor="middle" x="597.75" y="-456.38" font-family="Helvetica,sans-Serif" font-size="10.00" fill="grey"> mMixConfig</text>
</g>
<!-- Node10 -->
<g id="Node000010" class="node">
<title>Node10</title>
<g id="a_Node000010"><a xlink:href="classJASChannelParams.html" target="_top" xlink:title=" ">
<polygon fill="white" stroke="#666666" points="509.25,-436.25 405.5,-436.25 405.5,-417 509.25,-417 509.25,-436.25"/>
<text text-anchor="middle" x="457.38" y="-422.75" font-family="Helvetica,sans-Serif" font-size="10.00">JASChannelParams</text>
</a>
</g>
</g>
<!-- Node10&#45;&gt;Node1 -->
<g id="edge12_Node000001_Node000010" class="edge">
<title>Node10&#45;&gt;Node1</title>
<g id="a_edge12_Node000001_Node000010"><a xlink:title=" ">
<path fill="none" stroke="#9a32cd" stroke-dasharray="5,2" d="M520.99,-426.62C567.07,-426.62 628,-426.62 665.57,-426.62"/>
<polygon fill="#9a32cd" stroke="#9a32cd" points="521.13,-423.13 511.13,-426.63 521.13,-430.13 521.13,-423.13"/>
</a>
</g>
<text text-anchor="middle" x="597.75" y="-428.38" font-family="Helvetica,sans-Serif" font-size="10.00" fill="grey"> mParams</text>
</g>
<!-- Node11 -->
<g id="Node000011" class="node">
<title>Node11</title>
<g id="a_Node000011"><a xlink:href="structJASSoundParams.html" target="_top" xlink:title=" ">
<polygon fill="white" stroke="#666666" points="505.5,-332.25 409.25,-332.25 409.25,-313 505.5,-313 505.5,-332.25"/>
<text text-anchor="middle" x="457.38" y="-318.75" font-family="Helvetica,sans-Serif" font-size="10.00">JASSoundParams</text>
</a>
</g>
</g>
<!-- Node11&#45;&gt;Node1 -->
<g id="edge13_Node000001_Node000011" class="edge">
<title>Node11&#45;&gt;Node1</title>
<g id="a_edge13_Node000001_Node000011"><a xlink:title=" ">
<path fill="none" stroke="#9a32cd" stroke-dasharray="5,2" d="M516.8,-329.87C554.85,-336.48 604.48,-348.82 643.5,-371.38 664.17,-383.32 682.84,-404.55 692.68,-416.93"/>
<polygon fill="#9a32cd" stroke="#9a32cd" points="517.82,-326.49 507.38,-328.32 516.68,-333.39 517.82,-326.49"/>
</a>
</g>
<text text-anchor="middle" x="597.75" y="-372.38" font-family="Helvetica,sans-Serif" font-size="10.00" fill="grey"> mSoundParams</text>
</g>
<!-- Node12 -->
<g id="Node000012" class="node">
<title>Node12</title>
<g id="a_Node000012"><a xlink:href="structJASWaveInfo.html" target="_top" xlink:title=" ">
<polygon fill="white" stroke="#666666" points="495.38,-295.25 419.38,-295.25 419.38,-276 495.38,-276 495.38,-295.25"/>
<text text-anchor="middle" x="457.38" y="-281.75" font-family="Helvetica,sans-Serif" font-size="10.00">JASWaveInfo</text>
</a>
</g>
</g>
<!-- Node12&#45;&gt;Node1 -->
<g id="edge14_Node000001_Node000012" class="edge">
<title>Node12&#45;&gt;Node1</title>
<g id="a_edge14_Node000001_Node000012"><a xlink:title=" ">
<path fill="none" stroke="#9a32cd" stroke-dasharray="5,2" d="M507.18,-284.32C547.39,-285.64 604.01,-293.27 643.5,-322.38 676.31,-346.56 692.17,-395.69 697.67,-416.72"/>
<polygon fill="#9a32cd" stroke="#9a32cd" points="507.37,-280.82 497.3,-284.13 507.23,-287.82 507.37,-280.82"/>
</a>
</g>
<text text-anchor="middle" x="597.75" y="-323.38" font-family="Helvetica,sans-Serif" font-size="10.00" fill="grey"> field_0x4</text>
</g>
<!-- Node13 -->
<g id="Node000013" class="node">
<title>Node13</title>
<g id="a_Node000013"><a xlink:href="structOSMessageQueue.html" target="_top" xlink:title=" ">
<polygon fill="white" stroke="#666666" points="506.62,-221.25 408.12,-221.25 408.12,-202 506.62,-202 506.62,-221.25"/>
<text text-anchor="middle" x="457.38" y="-207.75" font-family="Helvetica,sans-Serif" font-size="10.00">OSMessageQueue</text>
</a>
</g>
</g>
<!-- Node13&#45;&gt;Node1 -->
<g id="edge15_Node000001_Node000013" class="edge">
<title>Node13&#45;&gt;Node1</title>
<g id="a_edge15_Node000001_Node000013"><a xlink:title=" ">
<path fill="none" stroke="#9a32cd" stroke-dasharray="5,2" d="M518.16,-218.05C558.28,-225.29 609.77,-240.68 643.5,-273.38 685.85,-314.42 696.68,-389.94 699.25,-416.81"/>
<polygon fill="#9a32cd" stroke="#9a32cd" points="518.83,-214.61 508.39,-216.42 517.68,-221.52 518.83,-214.61"/>
</a>
</g>
<text text-anchor="middle" x="597.75" y="-274.38" font-family="Helvetica,sans-Serif" font-size="10.00" fill="grey"> sBankDisposeMsgQ</text>
</g>
<!-- Node14 -->
<g id="Node000014" class="node">
<title>Node14</title>
<g id="a_Node000014"><a xlink:href="structOSThreadQueue.html" target="_top" xlink:title=" ">
<polygon fill="white" stroke="#666666" points="266,-123.25 177.25,-123.25 177.25,-104 266,-104 266,-123.25"/>
<text text-anchor="middle" x="221.62" y="-109.75" font-family="Helvetica,sans-Serif" font-size="10.00">OSThreadQueue</text>
</a>
</g>
</g>
<!-- Node14&#45;&gt;Node13 -->
<g id="edge16_Node000013_Node000014" class="edge">
<title>Node14&#45;&gt;Node13</title>
<g id="a_edge16_Node000013_Node000014"><a xlink:title=" ">
<path fill="none" stroke="#9a32cd" stroke-dasharray="5,2" d="M257.26,-128.14C305.26,-148.27 390.8,-184.13 432.37,-201.56"/>
<polygon fill="#9a32cd" stroke="#9a32cd" points="258.73,-124.97 248.16,-124.33 256.02,-131.42 258.73,-124.97"/>
</a>
</g>
<text text-anchor="middle" x="326.38" y="-183.62" font-family="Helvetica,sans-Serif" font-size="10.00" fill="grey"> receiving_queue</text>
<text text-anchor="middle" x="326.38" y="-172.38" font-family="Helvetica,sans-Serif" font-size="10.00" fill="grey">sending_queue</text>
</g>
<!-- Node15 -->
<g id="Node000015" class="node">
<title>Node15</title>
<g id="a_Node000015"><a xlink:href="structOSThread.html" target="_top" xlink:title=" ">
<polygon fill="white" stroke="#666666" points="487.5,-112.25 427.25,-112.25 427.25,-93 487.5,-93 487.5,-112.25"/>
<text text-anchor="middle" x="457.38" y="-98.75" font-family="Helvetica,sans-Serif" font-size="10.00">OSThread</text>
</a>
</g>
</g>
<!-- Node14&#45;&gt;Node15 -->
<g id="edge19_Node000015_Node000014" class="edge">
<title>Node14&#45;&gt;Node15</title>
<g id="a_edge19_Node000015_Node000014"><a xlink:title=" ">
<path fill="none" stroke="#9a32cd" stroke-dasharray="5,2" d="M277.95,-114.51C282.03,-114.56 286.08,-114.6 290,-114.62 322.33,-114.86 330.48,-116.68 362.75,-114.62 384.34,-113.25 408.55,-110.1 426.95,-107.37"/>
<polygon fill="#9a32cd" stroke="#9a32cd" points="278.03,-111.01 267.99,-114.39 277.95,-118.01 278.03,-111.01"/>
</a>
</g>
<text text-anchor="middle" x="326.38" y="-127.62" font-family="Helvetica,sans-Serif" font-size="10.00" fill="grey"> join_queue</text>
<text text-anchor="middle" x="326.38" y="-116.38" font-family="Helvetica,sans-Serif" font-size="10.00" fill="grey">queue</text>
</g>
<!-- Node18 -->
<g id="Node000018" class="node">
<title>Node18</title>
<g id="a_Node000018"><a xlink:href="structOSMutex.html" target="_top" xlink:title=" ">
<polygon fill="white" stroke="#666666" points="729.25,-129.25 672.75,-129.25 672.75,-110 729.25,-110 729.25,-129.25"/>
<text text-anchor="middle" x="701" y="-115.75" font-family="Helvetica,sans-Serif" font-size="10.00">OSMutex</text>
</a>
</g>
</g>
<!-- Node14&#45;&gt;Node18 -->
<g id="edge23_Node000018_Node000014" class="edge">
<title>Node14&#45;&gt;Node18</title>
<g id="a_edge23_Node000018_Node000014"><a xlink:title=" ">
<path fill="none" stroke="#9a32cd" stroke-dasharray="5,2" d="M252.49,-98.69C263.97,-93.51 277.35,-88.13 290,-84.62 329.22,-73.76 340.14,-75.1 380.75,-72.38 497.35,-64.54 533.19,-44.03 643.5,-82.62 660.54,-88.59 677.53,-100.77 688.36,-109.52"/>
<polygon fill="#9a32cd" stroke="#9a32cd" points="251.1,-95.48 243.53,-102.89 254.07,-101.82 251.1,-95.48"/>
</a>
</g>
<text text-anchor="middle" x="457.38" y="-73.38" font-family="Helvetica,sans-Serif" font-size="10.00" fill="grey"> queue</text>
</g>
<!-- Node15&#45;&gt;Node14 -->
<g id="edge17_Node000014_Node000015" class="edge">
<title>Node15&#45;&gt;Node14</title>
<g id="a_edge17_Node000014_Node000015"><a xlink:title=" ">
<path fill="none" stroke="#9a32cd" stroke-dasharray="5,2" d="M415.77,-95.17C381.94,-90.13 332.59,-85.49 290,-92.12 275.68,-94.35 260.25,-99.1 247.77,-103.56"/>
<polygon fill="#9a32cd" stroke="#9a32cd" points="415.13,-98.62 425.55,-96.72 416.22,-91.7 415.13,-98.62"/>
</a>
</g>
<text text-anchor="middle" x="326.38" y="-104.62" font-family="Helvetica,sans-Serif" font-size="10.00" fill="grey"> head</text>
<text text-anchor="middle" x="326.38" y="-93.38" font-family="Helvetica,sans-Serif" font-size="10.00" fill="grey">tail</text>
</g>
<!-- Node17 -->
<g id="Node000017" class="node">
<title>Node17</title>
<g id="a_Node000017"><a xlink:href="structOSThreadLink.html" target="_top" xlink:title=" ">
<polygon fill="white" stroke="#666666" points="740.5,-178.25 661.5,-178.25 661.5,-159 740.5,-159 740.5,-178.25"/>
<text text-anchor="middle" x="701" y="-164.75" font-family="Helvetica,sans-Serif" font-size="10.00">OSThreadLink</text>
</a>
</g>
</g>
<!-- Node15&#45;&gt;Node17 -->
<g id="edge21_Node000017_Node000015" class="edge">
<title>Node15&#45;&gt;Node17</title>
<g id="a_edge21_Node000017_Node000015"><a xlink:title=" ">
<path fill="none" stroke="#9a32cd" stroke-dasharray="5,2" d="M498.76,-114.49C515.24,-119.28 534.51,-124.8 552,-129.62 589.01,-139.84 631.4,-150.95 661.29,-158.69"/>
<polygon fill="#9a32cd" stroke="#9a32cd" points="499.88,-111.17 489.3,-111.74 497.92,-117.89 499.88,-111.17"/>
</a>
</g>
<text text-anchor="middle" x="597.75" y="-165.62" font-family="Helvetica,sans-Serif" font-size="10.00" fill="grey"> next</text>
<text text-anchor="middle" x="597.75" y="-154.38" font-family="Helvetica,sans-Serif" font-size="10.00" fill="grey">prev</text>
</g>
<!-- Node15&#45;&gt;Node18 -->
<g id="edge24_Node000018_Node000015" class="edge">
<title>Node15&#45;&gt;Node18</title>
<g id="a_edge24_Node000018_Node000015"><a xlink:title=" ">
<path fill="none" stroke="#9a32cd" stroke-dasharray="5,2" d="M499.03,-94.47C536.89,-88.31 594.66,-82.58 643.5,-93.38 657.65,-96.5 672.47,-103.55 683.38,-109.55"/>
<polygon fill="#9a32cd" stroke="#9a32cd" points="498.71,-90.97 489.45,-96.12 499.9,-97.87 498.71,-90.97"/>
</a>
</g>
<text text-anchor="middle" x="597.75" y="-94.38" font-family="Helvetica,sans-Serif" font-size="10.00" fill="grey"> thread</text>
</g>
<!-- Node16 -->
<g id="Node000016" class="node">
<title>Node16</title>
<g id="a_Node000016"><a xlink:href="structOSContext.html" target="_top" xlink:title=" ">
<polygon fill="white" stroke="#666666" points="253.25,-19.25 190,-19.25 190,0 253.25,0 253.25,-19.25"/>
<text text-anchor="middle" x="221.62" y="-5.75" font-family="Helvetica,sans-Serif" font-size="10.00">OSContext</text>
</a>
</g>
</g>
<!-- Node16&#45;&gt;Node15 -->
<g id="edge18_Node000015_Node000016" class="edge">
<title>Node16&#45;&gt;Node15</title>
<g id="a_edge18_Node000015_Node000016"><a xlink:title=" ">
<path fill="none" stroke="#9a32cd" stroke-dasharray="5,2" d="M258.1,-23.74C305.8,-42.72 389.44,-75.99 431.19,-92.6"/>
<polygon fill="#9a32cd" stroke="#9a32cd" points="259.63,-20.58 249.05,-20.14 257.04,-27.09 259.63,-20.58"/>
</a>
</g>
<text text-anchor="middle" x="326.38" y="-66.38" font-family="Helvetica,sans-Serif" font-size="10.00" fill="grey"> context</text>
</g>
<!-- Node17&#45;&gt;Node15 -->
<g id="edge20_Node000015_Node000017" class="edge">
<title>Node17&#45;&gt;Node15</title>
<g id="a_edge20_Node000015_Node000017"><a xlink:title=" ">
<path fill="none" stroke="#9a32cd" stroke-dasharray="5,2" d="M663.32,-182.1C632.63,-191.23 588.18,-199.35 552,-185.62 512.8,-170.75 479.49,-131.13 465.47,-112.53"/>
<polygon fill="#9a32cd" stroke="#9a32cd" points="664.04,-185.55 672.52,-179.19 661.93,-178.87 664.04,-185.55"/>
</a>
</g>
<text text-anchor="middle" x="597.75" y="-205.62" font-family="Helvetica,sans-Serif" font-size="10.00" fill="grey"> active_threads_link</text>
<text text-anchor="middle" x="597.75" y="-194.38" font-family="Helvetica,sans-Serif" font-size="10.00" fill="grey">link</text>
</g>
<!-- Node18&#45;&gt;Node15 -->
<g id="edge22_Node000015_Node000018" class="edge">
<title>Node18&#45;&gt;Node15</title>
<g id="a_edge22_Node000015_Node000018"><a xlink:title=" ">
<path fill="none" stroke="#9a32cd" stroke-dasharray="5,2" d="M661.36,-116.91C612.92,-113.5 531,-107.73 487.52,-104.68"/>
<polygon fill="#9a32cd" stroke="#9a32cd" points="660.88,-120.38 671.1,-117.59 661.37,-113.4 660.88,-120.38"/>
</a>
</g>
<text text-anchor="middle" x="597.75" y="-116.38" font-family="Helvetica,sans-Serif" font-size="10.00" fill="grey"> mutex</text>
</g>
<!-- Node19 -->
<g id="Node000019" class="node">
<title>Node19</title>
<g id="a_Node000019"><a xlink:href="structOSMutexLink.html" target="_top" xlink:title=" ">
<polygon fill="white" stroke="#666666" points="879.88,-166.25 804.62,-166.25 804.62,-147 879.88,-147 879.88,-166.25"/>
<text text-anchor="middle" x="842.25" y="-152.75" font-family="Helvetica,sans-Serif" font-size="10.00">OSMutexLink</text>
</a>
</g>
</g>
<!-- Node18&#45;&gt;Node19 -->
<g id="edge26_Node000019_Node000018" class="edge">
<title>Node18&#45;&gt;Node19</title>
<g id="a_edge26_Node000019_Node000018"><a xlink:title=" ">
<path fill="none" stroke="#9a32cd" stroke-dasharray="5,2" d="M725.01,-135.82C734.87,-141.89 746.79,-148.16 758.5,-151.62 773.13,-155.96 789.83,-157.56 804.38,-157.95"/>
<polygon fill="#9a32cd" stroke="#9a32cd" points="727.15,-133.03 716.86,-130.51 723.33,-138.9 727.15,-133.03"/>
</a>
</g>
<text text-anchor="middle" x="770.12" y="-168.62" font-family="Helvetica,sans-Serif" font-size="10.00" fill="grey"> next</text>
<text text-anchor="middle" x="770.12" y="-157.38" font-family="Helvetica,sans-Serif" font-size="10.00" fill="grey">prev</text>
</g>
<!-- Node20 -->
<g id="Node000020" class="node">
<title>Node20</title>
<g id="a_Node000020"><a xlink:href="structOSMutexQueue.html" target="_top" xlink:title=" ">
<polygon fill="white" stroke="#666666" points="884.75,-87.25 799.75,-87.25 799.75,-68 884.75,-68 884.75,-87.25"/>
<text text-anchor="middle" x="842.25" y="-73.75" font-family="Helvetica,sans-Serif" font-size="10.00">OSMutexQueue</text>
</a>
</g>
</g>
<!-- Node18&#45;&gt;Node20 -->
<g id="edge28_Node000020_Node000018" class="edge">
<title>Node18&#45;&gt;Node20</title>
<g id="a_edge28_Node000020_Node000018"><a xlink:title=" ">
<path fill="none" stroke="#9a32cd" stroke-dasharray="5,2" d="M740.39,-108.05C761.56,-101.66 787.59,-93.81 807.9,-87.68"/>
<polygon fill="#9a32cd" stroke="#9a32cd" points="739.52,-104.65 730.96,-110.89 741.55,-111.35 739.52,-104.65"/>
</a>
</g>
<text text-anchor="middle" x="770.12" y="-114.62" font-family="Helvetica,sans-Serif" font-size="10.00" fill="grey"> head</text>
<text text-anchor="middle" x="770.12" y="-103.38" font-family="Helvetica,sans-Serif" font-size="10.00" fill="grey">tail</text>
</g>
<!-- Node19&#45;&gt;Node18 -->
<g id="edge25_Node000018_Node000019" class="edge">
<title>Node19&#45;&gt;Node18</title>
<g id="a_edge25_Node000018_Node000019"><a xlink:title=" ">
<path fill="none" stroke="#9a32cd" stroke-dasharray="5,2" d="M793.4,-143.5C789.46,-142.44 785.54,-141.38 781.75,-140.38 764.47,-135.77 745.05,-130.71 729.7,-126.75"/>
<polygon fill="#9a32cd" stroke="#9a32cd" points="792.42,-146.86 802.99,-146.1 794.26,-140.11 792.42,-146.86"/>
</a>
</g>
<text text-anchor="middle" x="770.12" y="-141.38" font-family="Helvetica,sans-Serif" font-size="10.00" fill="grey"> link</text>
</g>
<!-- Node20&#45;&gt;Node15 -->
<g id="edge27_Node000015_Node000020" class="edge">
<title>Node20&#45;&gt;Node15</title>
<g id="a_edge27_Node000015_Node000020"><a xlink:title=" ">
<path fill="none" stroke="#9a32cd" stroke-dasharray="5,2" d="M787.92,-75.35C729.72,-73.61 633.89,-72.92 552,-82.62 543.86,-83.59 542.01,-84.89 534,-86.62 518.79,-89.92 501.83,-93.52 487.84,-96.46"/>
<polygon fill="#9a32cd" stroke="#9a32cd" points="787.78,-78.84 797.89,-75.67 788.01,-71.85 787.78,-78.84"/>
</a>
</g>
<text text-anchor="middle" x="701" y="-76.38" font-family="Helvetica,sans-Serif" font-size="10.00" fill="grey"> owned_mutexes</text>
</g>
</g>
</svg>
