<?xml version="1.0" encoding="UTF-8" standalone="no"?>
<!DOCTYPE svg PUBLIC "-//W3C//DTD SVG 1.1//EN"
 "http://www.w3.org/Graphics/SVG/1.1/DTD/svg11.dtd">
<!-- Generated by graphviz version 9.0.0 (20230911.1827)
 -->
<!-- Title: JSUPtrList Pages: 1 -->
<svg width="869pt" height="1142pt"
 viewBox="0.00 0.00 869.00 1142.25" xmlns="http://www.w3.org/2000/svg" xmlns:xlink="http://www.w3.org/1999/xlink">
<g id="graph0" class="graph" transform="scale(1 1) rotate(0) translate(4 1138.25)">
<title>JSUPtrList</title>
<!-- Node1 -->
<g id="Node000001" class="node">
<title>Node1</title>
<g id="a_Node000001"><a xlink:title=" ">
<polygon fill="#999999" stroke="#666666" points="64.75,-616.25 0,-616.25 0,-597 64.75,-597 64.75,-616.25"/>
<text text-anchor="middle" x="32.38" y="-602.75" font-family="Helvetica,sans-Serif" font-size="10.00">JSUPtrList</text>
</a>
</g>
</g>
<!-- Node2 -->
<g id="Node000002" class="node">
<title>Node2</title>
<g id="a_Node000002"><a xlink:href="classJSUList.html" target="_top" xlink:title=" ">
<polygon fill="white" stroke="#666666" points="252.5,-1134.25 127,-1134.25 127,-1115 252.5,-1115 252.5,-1134.25"/>
<text text-anchor="middle" x="189.75" y="-1120.75" font-family="Helvetica,sans-Serif" font-size="10.00">JSUList&lt; JASPortCmd &gt;</text>
</a>
</g>
</g>
<!-- Node1&#45;&gt;Node2 -->
<g id="edge1_Node000001_Node000002" class="edge">
<title>Node1&#45;&gt;Node2</title>
<g id="a_edge1_Node000001_Node000002"><a xlink:title=" ">
<path fill="none" stroke="#63b8ff" d="M33.1,-627.97C32.47,-714.23 34.63,-1035.86 100.75,-1106.62 107.78,-1114.15 117.03,-1118.98 126.89,-1122.02"/>
<polygon fill="#63b8ff" stroke="#63b8ff" points="36.6,-628.16 33.2,-618.12 29.6,-628.09 36.6,-628.16"/>
</a>
</g>
</g>
<!-- Node4 -->
<g id="Node000004" class="node">
<title>Node4</title>
<g id="a_Node000004"><a xlink:href="classJSUList.html" target="_top" xlink:title=" ">
<polygon fill="white" stroke="#666666" points="257,-1097.25 122.5,-1097.25 122.5,-1078 257,-1078 257,-1097.25"/>
<text text-anchor="middle" x="189.75" y="-1083.75" font-family="Helvetica,sans-Serif" font-size="10.00">JSUList&lt; JAUBankTable &gt;</text>
</a>
</g>
</g>
<!-- Node1&#45;&gt;Node4 -->
<g id="edge3_Node000001_Node000004" class="edge">
<title>Node1&#45;&gt;Node4</title>
<g id="a_edge3_Node000001_Node000004"><a xlink:title=" ">
<path fill="none" stroke="#63b8ff" d="M33.36,-627.95C33.75,-710.1 39.47,-1004.74 100.75,-1069.62 106.64,-1075.86 114.06,-1080.25 122.08,-1083.29"/>
<polygon fill="#63b8ff" stroke="#63b8ff" points="36.86,-628.16 33.34,-618.17 29.86,-628.18 36.86,-628.16"/>
</a>
</g>
</g>
<!-- Node6 -->
<g id="Node000006" class="node">
<title>Node6</title>
<g id="a_Node000006"><a xlink:href="classJSUList.html" target="_top" xlink:title=" ">
<polygon fill="white" stroke="#666666" points="264.88,-1060.25 114.62,-1060.25 114.62,-1041 264.88,-1041 264.88,-1060.25"/>
<text text-anchor="middle" x="189.75" y="-1046.75" font-family="Helvetica,sans-Serif" font-size="10.00">JSUList&lt; JAUSeqDataBlock &gt;</text>
</a>
</g>
</g>
<!-- Node1&#45;&gt;Node6 -->
<g id="edge5_Node000001_Node000006" class="edge">
<title>Node1&#45;&gt;Node6</title>
<g id="a_edge5_Node000001_Node000006"><a xlink:title=" ">
<path fill="none" stroke="#63b8ff" d="M33.65,-627.73C35.12,-705.35 44.26,-973.54 100.75,-1032.62 104.74,-1036.8 109.41,-1040.14 114.49,-1042.8"/>
<polygon fill="#63b8ff" stroke="#63b8ff" points="37.16,-628.06 33.5,-618.12 30.16,-628.18 37.16,-628.06"/>
</a>
</g>
</g>
<!-- Node8 -->
<g id="Node000008" class="node">
<title>Node8</title>
<g id="a_Node000008"><a xlink:href="classJSUList.html" target="_top" xlink:title=" ">
<polygon fill="white" stroke="#666666" points="268.62,-1023.25 110.88,-1023.25 110.88,-1004 268.62,-1004 268.62,-1023.25"/>
<text text-anchor="middle" x="189.75" y="-1009.75" font-family="Helvetica,sans-Serif" font-size="10.00">JSUList&lt; Z2SoundHandlePool &gt;</text>
</a>
</g>
</g>
<!-- Node1&#45;&gt;Node8 -->
<g id="edge7_Node000001_Node000008" class="edge">
<title>Node1&#45;&gt;Node8</title>
<g id="a_edge7_Node000001_Node000008"><a xlink:title=" ">
<path fill="none" stroke="#63b8ff" d="M34,-627.75C36.62,-700.97 49.09,-942.37 100.75,-995.62 103.79,-998.76 107.22,-1001.42 110.91,-1003.68"/>
<polygon fill="#63b8ff" stroke="#63b8ff" points="37.51,-627.84 33.68,-617.97 30.51,-628.07 37.51,-627.84"/>
</a>
</g>
</g>
<!-- Node17 -->
<g id="Node000017" class="node">
<title>Node17</title>
<g id="a_Node000017"><a xlink:href="classJSUList.html" target="_top" xlink:title=" ">
<polygon fill="white" stroke="#666666" points="262.62,-986.25 116.88,-986.25 116.88,-967 262.62,-967 262.62,-986.25"/>
<text text-anchor="middle" x="189.75" y="-972.75" font-family="Helvetica,sans-Serif" font-size="10.00">JSUList&lt; Z2CreatureEnemy &gt;</text>
</a>
</g>
</g>
<!-- Node1&#45;&gt;Node17 -->
<g id="edge16_Node000001_Node000017" class="edge">
<title>Node1&#45;&gt;Node17</title>
<g id="a_edge16_Node000001_Node000017"><a xlink:title=" ">
<path fill="none" stroke="#63b8ff" d="M34.43,-627.93C38.29,-696.72 53.93,-911.21 100.75,-958.62 105.35,-963.29 110.81,-966.9 116.73,-969.69"/>
<polygon fill="#63b8ff" stroke="#63b8ff" points="37.93,-627.84 33.91,-618.04 30.94,-628.21 37.93,-627.84"/>
</a>
</g>
</g>
<!-- Node21 -->
<g id="Node000021" class="node">
<title>Node21</title>
<g id="a_Node000021"><a xlink:href="classJSUList.html" target="_top" xlink:title=" ">
<polygon fill="white" stroke="#666666" points="243.88,-949.25 135.62,-949.25 135.62,-930 243.88,-930 243.88,-949.25"/>
<text text-anchor="middle" x="189.75" y="-935.75" font-family="Helvetica,sans-Serif" font-size="10.00">JSUList&lt; J2DPane &gt;</text>
</a>
</g>
</g>
<!-- Node1&#45;&gt;Node21 -->
<g id="edge20_Node000001_Node000021" class="edge">
<title>Node1&#45;&gt;Node21</title>
<g id="a_edge20_Node000001_Node000021"><a xlink:title=" ">
<path fill="none" stroke="#63b8ff" d="M34.94,-627.73C40.09,-691.43 58.67,-879.92 100.75,-921.62 110.05,-930.85 122.73,-935.95 135.56,-938.65"/>
<polygon fill="#63b8ff" stroke="#63b8ff" points="38.44,-627.64 34.18,-617.94 31.46,-628.18 38.44,-627.64"/>
</a>
</g>
</g>
<!-- Node22 -->
<g id="Node000022" class="node">
<title>Node22</title>
<g id="a_Node000022"><a xlink:href="classJSUList.html" target="_top" xlink:title=" ">
<polygon fill="white" stroke="#666666" points="237.5,-912.25 142,-912.25 142,-893 237.5,-893 237.5,-912.25"/>
<text text-anchor="middle" x="189.75" y="-898.75" font-family="Helvetica,sans-Serif" font-size="10.00">JSUList&lt; JAISe &gt;</text>
</a>
</g>
</g>
<!-- Node1&#45;&gt;Node22 -->
<g id="edge21_Node000001_Node000022" class="edge">
<title>Node1&#45;&gt;Node22</title>
<g id="a_edge21_Node000001_Node000022"><a xlink:title=" ">
<path fill="none" stroke="#63b8ff" d="M35.6,-627.89C42.19,-686.55 63.45,-848.64 100.75,-884.62 111.64,-895.13 126.91,-900.25 141.68,-902.57"/>
<polygon fill="#63b8ff" stroke="#63b8ff" points="39.09,-627.53 34.53,-617.96 32.13,-628.28 39.09,-627.53"/>
</a>
</g>
</g>
<!-- Node23 -->
<g id="Node000023" class="node">
<title>Node23</title>
<g id="a_Node000023"><a xlink:href="classJSUList.html" target="_top" xlink:title=" ">
<polygon fill="white" stroke="#666666" points="240.12,-875.25 139.38,-875.25 139.38,-856 240.12,-856 240.12,-875.25"/>
<text text-anchor="middle" x="189.75" y="-861.75" font-family="Helvetica,sans-Serif" font-size="10.00">JSUList&lt; JAISeq &gt;</text>
</a>
</g>
</g>
<!-- Node1&#45;&gt;Node23 -->
<g id="edge22_Node000001_Node000023" class="edge">
<title>Node1&#45;&gt;Node23</title>
<g id="a_edge22_Node000001_Node000023"><a xlink:title=" ">
<path fill="none" stroke="#63b8ff" d="M32.5,-628.19C31.85,-675.45 37.41,-788.62 100.75,-847.62 111.13,-857.3 125.25,-862.37 139.14,-864.89"/>
<polygon fill="#63b8ff" stroke="#63b8ff" points="36,-628.31 32.77,-618.22 29,-628.13 36,-628.31"/>
</a>
</g>
</g>
<!-- Node24 -->
<g id="Node000024" class="node">
<title>Node24</title>
<g id="a_Node000024"><a xlink:href="classJSUList.html" target="_top" xlink:title=" ">
<polygon fill="white" stroke="#666666" points="247.25,-838.25 132.25,-838.25 132.25,-819 247.25,-819 247.25,-838.25"/>
<text text-anchor="middle" x="189.75" y="-824.75" font-family="Helvetica,sans-Serif" font-size="10.00">JSUList&lt; JAIStream &gt;</text>
</a>
</g>
</g>
<!-- Node1&#45;&gt;Node24 -->
<g id="edge23_Node000001_Node000024" class="edge">
<title>Node1&#45;&gt;Node24</title>
<g id="a_edge23_Node000001_Node000024"><a xlink:title=" ">
<path fill="none" stroke="#63b8ff" d="M33.79,-627.99C35.82,-669.78 46.56,-762.44 100.75,-810.62 109.49,-818.4 120.66,-823.16 132.09,-826.01"/>
<polygon fill="#63b8ff" stroke="#63b8ff" points="37.29,-627.93 33.45,-618.06 30.29,-628.17 37.29,-627.93"/>
</a>
</g>
</g>
<!-- Node25 -->
<g id="Node000025" class="node">
<title>Node25</title>
<g id="a_Node000025"><a xlink:href="classJSUList.html" target="_top" xlink:title=" ">
<polygon fill="white" stroke="#666666" points="245,-801.25 134.5,-801.25 134.5,-782 245,-782 245,-801.25"/>
<text text-anchor="middle" x="189.75" y="-787.75" font-family="Helvetica,sans-Serif" font-size="10.00">JSUList&lt; JASHeap &gt;</text>
</a>
</g>
</g>
<!-- Node1&#45;&gt;Node25 -->
<g id="edge24_Node000001_Node000025" class="edge">
<title>Node1&#45;&gt;Node25</title>
<g id="a_edge24_Node000001_Node000025"><a xlink:title=" ">
<path fill="none" stroke="#63b8ff" d="M35.56,-627.8C40.44,-663.64 55.61,-736.02 100.75,-773.62 110.22,-781.51 122.22,-786.24 134.29,-789.02"/>
<polygon fill="#63b8ff" stroke="#63b8ff" points="39.03,-627.39 34.37,-617.88 32.08,-628.23 39.03,-627.39"/>
</a>
</g>
</g>
<!-- Node26 -->
<g id="Node000026" class="node">
<title>Node26</title>
<g id="a_Node000026"><a xlink:href="classJSUList.html" target="_top" xlink:title=" ">
<polygon fill="white" stroke="#666666" points="255.5,-764.25 124,-764.25 124,-745 255.5,-745 255.5,-764.25"/>
<text text-anchor="middle" x="189.75" y="-750.75" font-family="Helvetica,sans-Serif" font-size="10.00">JSUList&lt; JAUDisposer_ &gt;</text>
</a>
</g>
</g>
<!-- Node1&#45;&gt;Node26 -->
<g id="edge25_Node000001_Node000026" class="edge">
<title>Node1&#45;&gt;Node26</title>
<g id="a_edge25_Node000001_Node000026"><a xlink:title=" ">
<path fill="none" stroke="#63b8ff" d="M38.21,-627.63C46.08,-656.86 64.55,-709.27 100.75,-736.62 107.59,-741.8 115.56,-745.58 123.84,-748.32"/>
<polygon fill="#63b8ff" stroke="#63b8ff" points="41.65,-626.99 35.83,-618.14 34.86,-628.69 41.65,-626.99"/>
</a>
</g>
</g>
<!-- Node27 -->
<g id="Node000027" class="node">
<title>Node27</title>
<g id="a_Node000027"><a xlink:href="classJSUList.html" target="_top" xlink:title=" ">
<polygon fill="white" stroke="#666666" points="250.25,-727.25 129.25,-727.25 129.25,-708 250.25,-708 250.25,-727.25"/>
<text text-anchor="middle" x="189.75" y="-713.75" font-family="Helvetica,sans-Serif" font-size="10.00">JSUList&lt; JAUSection &gt;</text>
</a>
</g>
</g>
<!-- Node1&#45;&gt;Node27 -->
<g id="edge26_Node000001_Node000027" class="edge">
<title>Node1&#45;&gt;Node27</title>
<g id="a_edge26_Node000001_Node000027"><a xlink:title=" ">
<path fill="none" stroke="#63b8ff" d="M42.49,-626.98C53.24,-648.54 73.2,-681.86 100.75,-699.62 109.27,-705.12 119.13,-708.98 129.11,-711.69"/>
<polygon fill="#63b8ff" stroke="#63b8ff" points="45.69,-625.56 38.24,-618.03 39.37,-628.56 45.69,-625.56"/>
</a>
</g>
</g>
<!-- Node28 -->
<g id="Node000028" class="node">
<title>Node28</title>
<g id="a_Node000028"><a xlink:href="classJSUList.html" target="_top" xlink:title=" ">
<polygon fill="white" stroke="#666666" points="246.88,-690.25 132.62,-690.25 132.62,-671 246.88,-671 246.88,-690.25"/>
<text text-anchor="middle" x="189.75" y="-676.75" font-family="Helvetica,sans-Serif" font-size="10.00">JSUList&lt; JFWAlarm &gt;</text>
</a>
</g>
</g>
<!-- Node1&#45;&gt;Node28 -->
<g id="edge27_Node000001_Node000028" class="edge">
<title>Node1&#45;&gt;Node28</title>
<g id="a_edge27_Node000001_Node000028"><a xlink:title=" ">
<path fill="none" stroke="#63b8ff" d="M50.14,-624.65C62.84,-637.21 81.37,-653.32 100.75,-662.62 110.59,-667.35 121.63,-670.84 132.47,-673.41"/>
<polygon fill="#63b8ff" stroke="#63b8ff" points="52.89,-622.45 43.4,-617.74 47.87,-627.34 52.89,-622.45"/>
</a>
</g>
</g>
<!-- Node29 -->
<g id="Node000029" class="node">
<title>Node29</title>
<g id="a_Node000029"><a xlink:href="classJSUList.html" target="_top" xlink:title=" ">
<polygon fill="white" stroke="#666666" points="263,-653.25 116.5,-653.25 116.5,-634 263,-634 263,-653.25"/>
<text text-anchor="middle" x="189.75" y="-639.75" font-family="Helvetica,sans-Serif" font-size="10.00">JSUList&lt; JKRAMCommand &gt;</text>
</a>
</g>
</g>
<!-- Node1&#45;&gt;Node29 -->
<g id="edge28_Node000001_Node000029" class="edge">
<title>Node1&#45;&gt;Node29</title>
<g id="a_edge28_Node000001_Node000029"><a xlink:title=" ">
<path fill="none" stroke="#63b8ff" d="M76,-619.15C84.19,-621.41 92.71,-623.67 100.75,-625.62 112.27,-628.42 124.7,-631.15 136.49,-633.59"/>
<polygon fill="#63b8ff" stroke="#63b8ff" points="77.15,-615.84 66.58,-616.5 75.26,-622.58 77.15,-615.84"/>
</a>
</g>
</g>
<!-- Node30 -->
<g id="Node000030" class="node">
<title>Node30</title>
<g id="a_Node000030"><a xlink:href="classJSUList.html" target="_top" xlink:title=" ">
<polygon fill="white" stroke="#666666" points="257.38,-616.25 122.12,-616.25 122.12,-597 257.38,-597 257.38,-616.25"/>
<text text-anchor="middle" x="189.75" y="-602.75" font-family="Helvetica,sans-Serif" font-size="10.00">JSUList&lt; JKRAramBlock &gt;</text>
</a>
</g>
</g>
<!-- Node1&#45;&gt;Node30 -->
<g id="edge29_Node000001_Node000030" class="edge">
<title>Node1&#45;&gt;Node30</title>
<g id="a_edge29_Node000001_Node000030"><a xlink:title=" ">
<path fill="none" stroke="#63b8ff" d="M76.46,-606.62C90.48,-606.62 106.37,-606.62 121.71,-606.62"/>
<polygon fill="#63b8ff" stroke="#63b8ff" points="76.71,-603.13 66.71,-606.63 76.71,-610.13 76.71,-603.13"/>
</a>
</g>
</g>
<!-- Node31 -->
<g id="Node000031" class="node">
<title>Node31</title>
<g id="a_Node000031"><a xlink:href="classJSUList.html" target="_top" xlink:title=" ">
<polygon fill="white" stroke="#666666" points="262.25,-579.25 117.25,-579.25 117.25,-560 262.25,-560 262.25,-579.25"/>
<text text-anchor="middle" x="189.75" y="-565.75" font-family="Helvetica,sans-Serif" font-size="10.00">JSUList&lt; JKRADCommand &gt;</text>
</a>
</g>
</g>
<!-- Node1&#45;&gt;Node31 -->
<g id="edge30_Node000001_Node000031" class="edge">
<title>Node1&#45;&gt;Node31</title>
<g id="a_edge30_Node000001_Node000031"><a xlink:title=" ">
<path fill="none" stroke="#63b8ff" d="M76,-594.1C84.19,-591.84 92.71,-589.58 100.75,-587.62 112.27,-584.83 124.7,-582.1 136.49,-579.66"/>
<polygon fill="#63b8ff" stroke="#63b8ff" points="75.26,-590.67 66.58,-596.75 77.15,-597.41 75.26,-590.67"/>
</a>
</g>
</g>
<!-- Node32 -->
<g id="Node000032" class="node">
<title>Node32</title>
<g id="a_Node000032"><a xlink:href="classJSUList.html" target="_top" xlink:title=" ">
<polygon fill="white" stroke="#666666" points="249.88,-542.25 129.62,-542.25 129.62,-523 249.88,-523 249.88,-542.25"/>
<text text-anchor="middle" x="189.75" y="-528.75" font-family="Helvetica,sans-Serif" font-size="10.00">JSUList&lt; JKRDvdFile &gt;</text>
</a>
</g>
</g>
<!-- Node1&#45;&gt;Node32 -->
<g id="edge31_Node000001_Node000032" class="edge">
<title>Node1&#45;&gt;Node32</title>
<g id="a_edge31_Node000001_Node000032"><a xlink:title=" ">
<path fill="none" stroke="#63b8ff" d="M50.14,-588.6C62.84,-576.04 81.37,-559.93 100.75,-550.62 109.61,-546.37 119.43,-543.12 129.22,-540.64"/>
<polygon fill="#63b8ff" stroke="#63b8ff" points="47.87,-585.91 43.4,-595.51 52.89,-590.8 47.87,-585.91"/>
</a>
</g>
</g>
<!-- Node33 -->
<g id="Node000033" class="node">
<title>Node33</title>
<g id="a_Node000033"><a xlink:href="classJSUList.html" target="_top" xlink:title=" ">
<polygon fill="white" stroke="#666666" points="263,-505.25 116.5,-505.25 116.5,-486 263,-486 263,-505.25"/>
<text text-anchor="middle" x="189.75" y="-491.75" font-family="Helvetica,sans-Serif" font-size="10.00">JSUList&lt; JKRDMCommand &gt;</text>
</a>
</g>
</g>
<!-- Node1&#45;&gt;Node33 -->
<g id="edge32_Node000001_Node000033" class="edge">
<title>Node1&#45;&gt;Node33</title>
<g id="a_edge32_Node000001_Node000033"><a xlink:title=" ">
<path fill="none" stroke="#63b8ff" d="M42.49,-586.27C53.24,-564.71 73.2,-531.39 100.75,-513.62 105.6,-510.5 110.88,-507.9 116.38,-505.74"/>
<polygon fill="#63b8ff" stroke="#63b8ff" points="39.37,-584.69 38.24,-595.22 45.69,-587.69 39.37,-584.69"/>
</a>
</g>
</g>
<!-- Node34 -->
<g id="Node000034" class="node">
<title>Node34</title>
<g id="a_Node000034"><a xlink:href="classJSUList.html" target="_top" xlink:title=" ">
<polygon fill="white" stroke="#666666" points="251,-467.88 128.5,-467.88 128.5,-437.38 251,-437.38 251,-467.88"/>
<text text-anchor="start" x="136.5" y="-454.38" font-family="Helvetica,sans-Serif" font-size="10.00">JSUList&lt; JKRFileCache</text>
<text text-anchor="middle" x="189.75" y="-443.12" font-family="Helvetica,sans-Serif" font-size="10.00">::CCacheBlock &gt;</text>
</a>
</g>
</g>
<!-- Node1&#45;&gt;Node34 -->
<g id="edge33_Node000001_Node000034" class="edge">
<title>Node1&#45;&gt;Node34</title>
<g id="a_edge33_Node000001_Node000034"><a xlink:title=" ">
<path fill="none" stroke="#63b8ff" d="M38.46,-585.94C46.62,-557.09 65.45,-505.14 100.75,-476.62 108.76,-470.16 118.37,-465.43 128.26,-461.97"/>
<polygon fill="#63b8ff" stroke="#63b8ff" points="35.16,-584.72 35.98,-595.28 41.92,-586.51 35.16,-584.72"/>
</a>
</g>
</g>
<!-- Node35 -->
<g id="Node000035" class="node">
<title>Node35</title>
<g id="a_Node000035"><a xlink:href="classJSUList.html" target="_top" xlink:title=" ">
<polygon fill="white" stroke="#666666" points="256.25,-419.25 123.25,-419.25 123.25,-400 256.25,-400 256.25,-419.25"/>
<text text-anchor="middle" x="189.75" y="-405.75" font-family="Helvetica,sans-Serif" font-size="10.00">JSUList&lt; JKRFileLoader &gt;</text>
</a>
</g>
</g>
<!-- Node1&#45;&gt;Node35 -->
<g id="edge34_Node000001_Node000035" class="edge">
<title>Node1&#45;&gt;Node35</title>
<g id="a_edge34_Node000001_Node000035"><a xlink:title=" ">
<path fill="none" stroke="#63b8ff" d="M34.98,-585.68C39.04,-548.18 53.05,-469.69 100.75,-428.62 107.15,-423.12 114.76,-419.09 122.79,-416.16"/>
<polygon fill="#63b8ff" stroke="#63b8ff" points="31.54,-584.92 34.1,-595.2 38.51,-585.57 31.54,-584.92"/>
</a>
</g>
</g>
<!-- Node36 -->
<g id="Node000036" class="node">
<title>Node36</title>
<g id="a_Node000036"><a xlink:href="classJSUList.html" target="_top" xlink:title=" ">
<polygon fill="white" stroke="#666666" points="245,-382.25 134.5,-382.25 134.5,-363 245,-363 245,-382.25"/>
<text text-anchor="middle" x="189.75" y="-368.75" font-family="Helvetica,sans-Serif" font-size="10.00">JSUList&lt; JKRHeap &gt;</text>
</a>
</g>
</g>
<!-- Node1&#45;&gt;Node36 -->
<g id="edge35_Node000001_Node000036" class="edge">
<title>Node1&#45;&gt;Node36</title>
<g id="a_edge35_Node000001_Node000036"><a xlink:title=" ">
<path fill="none" stroke="#63b8ff" d="M33.33,-585.22C34.47,-541.62 43.59,-442.31 100.75,-390.62 110,-382.26 122.07,-377.36 134.28,-374.59"/>
<polygon fill="#63b8ff" stroke="#63b8ff" points="29.83,-585.06 33.2,-595.11 36.83,-585.15 29.83,-585.06"/>
</a>
</g>
</g>
<!-- Node37 -->
<g id="Node000037" class="node">
<title>Node37</title>
<g id="a_Node000037"><a xlink:href="classJSUList.html" target="_top" xlink:title=" ">
<polygon fill="white" stroke="#666666" points="252.5,-345.25 127,-345.25 127,-326 252.5,-326 252.5,-345.25"/>
<text text-anchor="middle" x="189.75" y="-331.75" font-family="Helvetica,sans-Serif" font-size="10.00">JSUList&lt; JKRDisposer &gt;</text>
</a>
</g>
</g>
<!-- Node1&#45;&gt;Node37 -->
<g id="edge36_Node000001_Node000037" class="edge">
<title>Node1&#45;&gt;Node37</title>
<g id="a_edge36_Node000001_Node000037"><a xlink:title=" ">
<path fill="none" stroke="#63b8ff" d="M36.14,-585.45C43.73,-530.59 66.62,-385.81 100.75,-353.62 108.01,-346.78 117.14,-342.23 126.75,-339.26"/>
<polygon fill="#63b8ff" stroke="#63b8ff" points="32.71,-584.67 34.85,-595.04 39.65,-585.6 32.71,-584.67"/>
</a>
</g>
</g>
<!-- Node38 -->
<g id="Node000038" class="node">
<title>Node38</title>
<g id="a_Node000038"><a xlink:href="classJSUList.html" target="_top" xlink:title=" ">
<polygon fill="white" stroke="#666666" points="244.25,-308.25 135.25,-308.25 135.25,-289 244.25,-289 244.25,-308.25"/>
<text text-anchor="middle" x="189.75" y="-294.75" font-family="Helvetica,sans-Serif" font-size="10.00">JSUList&lt; JKRTask &gt;</text>
</a>
</g>
</g>
<!-- Node1&#45;&gt;Node38 -->
<g id="edge37_Node000001_Node000038" class="edge">
<title>Node1&#45;&gt;Node38</title>
<g id="a_edge37_Node000001_Node000038"><a xlink:title=" ">
<path fill="none" stroke="#63b8ff" d="M35.39,-585.24C41.51,-524.76 61.94,-354.42 100.75,-316.62 110.02,-307.59 122.53,-302.53 135.21,-299.8"/>
<polygon fill="#63b8ff" stroke="#63b8ff" points="31.9,-584.88 34.41,-595.18 38.87,-585.56 31.9,-584.88"/>
</a>
</g>
</g>
<!-- Node39 -->
<g id="Node000039" class="node">
<title>Node39</title>
<g id="a_Node000039"><a xlink:href="classJSUList.html" target="_top" xlink:title=" ">
<polygon fill="white" stroke="#666666" points="248.38,-271.25 131.12,-271.25 131.12,-252 248.38,-252 248.38,-271.25"/>
<text text-anchor="middle" x="189.75" y="-257.75" font-family="Helvetica,sans-Serif" font-size="10.00">JSUList&lt; JKRThread &gt;</text>
</a>
</g>
</g>
<!-- Node1&#45;&gt;Node39 -->
<g id="edge38_Node000001_Node000039" class="edge">
<title>Node1&#45;&gt;Node39</title>
<g id="a_edge38_Node000001_Node000039"><a xlink:title=" ">
<path fill="none" stroke="#63b8ff" d="M34.75,-585.57C39.46,-520.31 57.11,-323.21 100.75,-279.62 108.92,-271.47 119.71,-266.53 130.94,-263.62"/>
<polygon fill="#63b8ff" stroke="#63b8ff" points="31.28,-585.05 34.08,-595.27 38.27,-585.53 31.28,-585.05"/>
</a>
</g>
</g>
<!-- Node40 -->
<g id="Node000040" class="node">
<title>Node40</title>
<g id="a_Node000040"><a xlink:href="classJSUList.html" target="_top" xlink:title=" ">
<polygon fill="white" stroke="#666666" points="260,-234.25 119.5,-234.25 119.5,-215 260,-215 260,-234.25"/>
<text text-anchor="middle" x="189.75" y="-220.75" font-family="Helvetica,sans-Serif" font-size="10.00">JSUList&lt; JPABaseEmitter &gt;</text>
</a>
</g>
</g>
<!-- Node1&#45;&gt;Node40 -->
<g id="edge39_Node000001_Node000040" class="edge">
<title>Node1&#45;&gt;Node40</title>
<g id="a_edge39_Node000001_Node000040"><a xlink:title=" ">
<path fill="none" stroke="#63b8ff" d="M34.28,-585.51C37.71,-515.39 52.33,-291.96 100.75,-242.62 105.99,-237.28 112.36,-233.31 119.25,-230.38"/>
<polygon fill="#63b8ff" stroke="#63b8ff" points="30.79,-585.08 33.83,-595.23 37.79,-585.4 30.79,-585.08"/>
</a>
</g>
</g>
<!-- Node41 -->
<g id="Node000041" class="node">
<title>Node41</title>
<g id="a_Node000041"><a xlink:href="classJSUList.html" target="_top" xlink:title=" ">
<polygon fill="white" stroke="#666666" points="250.25,-196.88 129.25,-196.88 129.25,-166.38 250.25,-166.38 250.25,-196.88"/>
<text text-anchor="start" x="137.25" y="-183.38" font-family="Helvetica,sans-Serif" font-size="10.00">JSUList&lt; JUTException</text>
<text text-anchor="middle" x="189.75" y="-172.12" font-family="Helvetica,sans-Serif" font-size="10.00">::JUTExMapFile &gt;</text>
</a>
</g>
</g>
<!-- Node1&#45;&gt;Node41 -->
<g id="edge40_Node000001_Node000041" class="edge">
<title>Node1&#45;&gt;Node41</title>
<g id="a_edge40_Node000001_Node000041"><a xlink:title=" ">
<path fill="none" stroke="#63b8ff" d="M34.01,-585.44C36.69,-510.94 49.37,-262.41 100.75,-205.62 108.29,-197.29 118.42,-191.73 129.12,-188.05"/>
<polygon fill="#63b8ff" stroke="#63b8ff" points="30.53,-584.93 33.69,-595.04 37.52,-585.16 30.53,-584.93"/>
</a>
</g>
</g>
<!-- Node42 -->
<g id="Node000042" class="node">
<title>Node42</title>
<g id="a_Node000042"><a xlink:href="classJSUList.html" target="_top" xlink:title=" ">
<polygon fill="white" stroke="#666666" points="255.12,-148.25 124.38,-148.25 124.38,-129 255.12,-129 255.12,-148.25"/>
<text text-anchor="middle" x="189.75" y="-134.75" font-family="Helvetica,sans-Serif" font-size="10.00">JSUList&lt; JUTGamePad &gt;</text>
</a>
</g>
</g>
<!-- Node1&#45;&gt;Node42 -->
<g id="edge41_Node000001_Node000042" class="edge">
<title>Node1&#45;&gt;Node42</title>
<g id="a_edge41_Node000001_Node000042"><a xlink:title=" ">
<path fill="none" stroke="#63b8ff" d="M33.49,-585.44C34.35,-505.11 41.62,-220.65 100.75,-157.62 107.17,-150.79 115.41,-146.11 124.27,-142.96"/>
<polygon fill="#63b8ff" stroke="#63b8ff" points="29.99,-584.97 33.41,-595 36.99,-585.03 29.99,-584.97"/>
</a>
</g>
</g>
<!-- Node43 -->
<g id="Node000043" class="node">
<title>Node43</title>
<g id="a_Node000043"><a xlink:href="classJSUList.html" target="_top" xlink:title=" ">
<polygon fill="white" stroke="#666666" points="278.75,-111.25 100.75,-111.25 100.75,-92 278.75,-92 278.75,-111.25"/>
<text text-anchor="middle" x="189.75" y="-97.75" font-family="Helvetica,sans-Serif" font-size="10.00">JSUList&lt; JUTGamePadLongPress &gt;</text>
</a>
</g>
</g>
<!-- Node1&#45;&gt;Node43 -->
<g id="edge42_Node000001_Node000043" class="edge">
<title>Node1&#45;&gt;Node43</title>
<g id="a_edge42_Node000001_Node000043"><a xlink:title=" ">
<path fill="none" stroke="#63b8ff" d="M33.19,-585.57C32.9,-501.15 36.26,-188.4 100.75,-119.62 103.63,-116.55 106.88,-113.93 110.39,-111.69"/>
<polygon fill="#63b8ff" stroke="#63b8ff" points="29.69,-585.4 33.25,-595.38 36.69,-585.36 29.69,-585.4"/>
</a>
</g>
</g>
<!-- Node44 -->
<g id="Node000044" class="node">
<title>Node44</title>
<g id="a_Node000044"><a xlink:href="classJSUList.html" target="_top" xlink:title=" ">
<polygon fill="white" stroke="#666666" points="227,-74.25 152.5,-74.25 152.5,-55 227,-55 227,-74.25"/>
<text text-anchor="middle" x="189.75" y="-60.75" font-family="Helvetica,sans-Serif" font-size="10.00">JSUList&lt; T &gt;</text>
</a>
</g>
</g>
<!-- Node1&#45;&gt;Node44 -->
<g id="edge43_Node000001_Node000044" class="edge">
<title>Node1&#45;&gt;Node44</title>
<g id="a_edge43_Node000001_Node000044"><a xlink:title=" ">
<path fill="none" stroke="#63b8ff" d="M32.96,-585.12C31.68,-496.04 31.51,-157.18 100.75,-82.62 113.7,-68.68 134.29,-63.94 152.3,-62.8"/>
<polygon fill="#63b8ff" stroke="#63b8ff" points="29.46,-585.14 33.12,-595.08 36.45,-585.02 29.46,-585.14"/>
</a>
</g>
</g>
<!-- Node3 -->
<g id="Node000003" class="node">
<title>Node3</title>
<g id="a_Node000003"><a xlink:href="structJASPortCmd_1_1TPortHead.html" target="_top" xlink:title=" ">
<polygon fill="white" stroke="#666666" points="439.5,-1134.25 314.75,-1134.25 314.75,-1115 439.5,-1115 439.5,-1134.25"/>
<text text-anchor="middle" x="377.12" y="-1120.75" font-family="Helvetica,sans-Serif" font-size="10.00">JASPortCmd::TPortHead</text>
</a>
</g>
</g>
<!-- Node2&#45;&gt;Node3 -->
<g id="edge2_Node000002_Node000003" class="edge">
<title>Node2&#45;&gt;Node3</title>
<g id="a_edge2_Node000002_Node000003"><a xlink:title=" ">
<path fill="none" stroke="#63b8ff" d="M264.31,-1124.62C280.89,-1124.62 298.32,-1124.62 314.36,-1124.62"/>
<polygon fill="#63b8ff" stroke="#63b8ff" points="264.51,-1121.13 254.51,-1124.63 264.51,-1128.13 264.51,-1121.13"/>
</a>
</g>
</g>
<!-- Node5 -->
<g id="Node000005" class="node">
<title>Node5</title>
<g id="a_Node000005"><a xlink:href="structJAUBankTableDictionary.html" target="_top" xlink:title=" ">
<polygon fill="white" stroke="#666666" points="439.5,-1097.25 314.75,-1097.25 314.75,-1078 439.5,-1078 439.5,-1097.25"/>
<text text-anchor="middle" x="377.12" y="-1083.75" font-family="Helvetica,sans-Serif" font-size="10.00">JAUBankTableDictionary</text>
</a>
</g>
</g>
<!-- Node4&#45;&gt;Node5 -->
<g id="edge4_Node000004_Node000005" class="edge">
<title>Node4&#45;&gt;Node5</title>
<g id="a_edge4_Node000004_Node000005"><a xlink:title=" ">
<path fill="none" stroke="#63b8ff" d="M268.89,-1087.62C284.08,-1087.62 299.81,-1087.62 314.38,-1087.62"/>
<polygon fill="#63b8ff" stroke="#63b8ff" points="268.93,-1084.13 258.93,-1087.63 268.93,-1091.13 268.93,-1084.13"/>
</a>
</g>
</g>
<!-- Node7 -->
<g id="Node000007" class="node">
<title>Node7</title>
<g id="a_Node000007"><a xlink:href="classJAUSeqDataBlocks.html" target="_top" xlink:title=" ">
<polygon fill="white" stroke="#666666" points="428.62,-1060.25 325.62,-1060.25 325.62,-1041 428.62,-1041 428.62,-1060.25"/>
<text text-anchor="middle" x="377.12" y="-1046.75" font-family="Helvetica,sans-Serif" font-size="10.00">JAUSeqDataBlocks</text>
</a>
</g>
</g>
<!-- Node6&#45;&gt;Node7 -->
<g id="edge6_Node000006_Node000007" class="edge">
<title>Node6&#45;&gt;Node7</title>
<g id="a_edge6_Node000006_Node000007"><a xlink:title=" ">
<path fill="none" stroke="#63b8ff" d="M276.76,-1050.62C293.36,-1050.62 310.24,-1050.62 325.27,-1050.62"/>
<polygon fill="#63b8ff" stroke="#63b8ff" points="276.86,-1047.13 266.86,-1050.63 276.86,-1054.13 276.86,-1047.13"/>
</a>
</g>
</g>
<!-- Node9 -->
<g id="Node000009" class="node">
<title>Node9</title>
<g id="a_Node000009"><a xlink:href="classZ2SoundHandles.html" target="_top" xlink:title=" ">
<polygon fill="white" stroke="#666666" points="422.62,-1023.25 331.62,-1023.25 331.62,-1004 422.62,-1004 422.62,-1023.25"/>
<text text-anchor="middle" x="377.12" y="-1009.75" font-family="Helvetica,sans-Serif" font-size="10.00">Z2SoundHandles</text>
</a>
</g>
</g>
<!-- Node8&#45;&gt;Node9 -->
<g id="edge8_Node000008_Node000009" class="edge">
<title>Node8&#45;&gt;Node9</title>
<g id="a_edge8_Node000008_Node000009"><a xlink:title=" ">
<path fill="none" stroke="darkgreen" d="M280.37,-1013.62C298.06,-1013.62 315.9,-1013.62 331.31,-1013.62"/>
<polygon fill="darkgreen" stroke="darkgreen" points="280.61,-1010.13 270.61,-1013.63 280.61,-1017.13 280.61,-1010.13"/>
</a>
</g>
</g>
<!-- Node10 -->
<g id="Node000010" class="node">
<title>Node10</title>
<g id="a_Node000010"><a xlink:href="classZ2SoundObjBase.html" target="_top" xlink:title=" ">
<polygon fill="white" stroke="#666666" points="568,-1028.25 475.5,-1028.25 475.5,-1009 568,-1009 568,-1028.25"/>
<text text-anchor="middle" x="521.75" y="-1014.75" font-family="Helvetica,sans-Serif" font-size="10.00">Z2SoundObjBase</text>
</a>
</g>
</g>
<!-- Node9&#45;&gt;Node10 -->
<g id="edge9_Node000009_Node000010" class="edge">
<title>Node9&#45;&gt;Node10</title>
<g id="a_edge9_Node000009_Node000010"><a xlink:title=" ">
<path fill="none" stroke="#63b8ff" d="M434.08,-1015.59C447.7,-1016.06 462.11,-1016.57 475.19,-1017.03"/>
<polygon fill="#63b8ff" stroke="#63b8ff" points="434.49,-1012.1 424.37,-1015.25 434.24,-1019.09 434.49,-1012.1"/>
</a>
</g>
</g>
<!-- Node11 -->
<g id="Node000011" class="node">
<title>Node11</title>
<g id="a_Node000011"><a xlink:href="classZ2DopplerSoundObjBase.html" target="_top" xlink:title=" ">
<polygon fill="white" stroke="#666666" points="729.5,-1102.25 604,-1102.25 604,-1083 729.5,-1083 729.5,-1102.25"/>
<text text-anchor="middle" x="666.75" y="-1088.75" font-family="Helvetica,sans-Serif" font-size="10.00">Z2DopplerSoundObjBase</text>
</a>
</g>
</g>
<!-- Node10&#45;&gt;Node11 -->
<g id="edge10_Node000010_Node000011" class="edge">
<title>Node10&#45;&gt;Node11</title>
<g id="a_edge10_Node000010_Node000011"><a xlink:title=" ">
<path fill="none" stroke="#63b8ff" d="M543.52,-1035.73C559.29,-1048 581.96,-1064.15 604,-1074.62 610.35,-1077.64 617.32,-1080.27 624.21,-1082.51"/>
<polygon fill="#63b8ff" stroke="#63b8ff" points="545.84,-1033.1 535.84,-1029.61 541.49,-1038.58 545.84,-1033.1"/>
</a>
</g>
</g>
<!-- Node13 -->
<g id="Node000013" class="node">
<title>Node13</title>
<g id="a_Node000013"><a xlink:href="classZ2SoundObjAnime.html" target="_top" xlink:title=" ">
<polygon fill="white" stroke="#666666" points="715.62,-1065.25 617.88,-1065.25 617.88,-1046 715.62,-1046 715.62,-1065.25"/>
<text text-anchor="middle" x="666.75" y="-1051.75" font-family="Helvetica,sans-Serif" font-size="10.00">Z2SoundObjAnime</text>
</a>
</g>
</g>
<!-- Node10&#45;&gt;Node13 -->
<g id="edge12_Node000010_Node000013" class="edge">
<title>Node10&#45;&gt;Node13</title>
<g id="a_edge12_Node000010_Node000013"><a xlink:title=" ">
<path fill="none" stroke="#63b8ff" d="M572.82,-1031.58C590.5,-1036.15 610.1,-1041.23 626.72,-1045.53"/>
<polygon fill="#63b8ff" stroke="#63b8ff" points="573.85,-1028.23 563.29,-1029.11 572.1,-1035.01 573.85,-1028.23"/>
</a>
</g>
</g>
<!-- Node15 -->
<g id="Node000015" class="node">
<title>Node15</title>
<g id="a_Node000015"><a xlink:href="classZ2SoundObjBeeGroup.html" target="_top" xlink:title=" ">
<polygon fill="white" stroke="#666666" points="723.5,-1028.25 610,-1028.25 610,-1009 723.5,-1009 723.5,-1028.25"/>
<text text-anchor="middle" x="666.75" y="-1014.75" font-family="Helvetica,sans-Serif" font-size="10.00">Z2SoundObjBeeGroup</text>
</a>
</g>
</g>
<!-- Node10&#45;&gt;Node15 -->
<g id="edge14_Node000010_Node000015" class="edge">
<title>Node10&#45;&gt;Node15</title>
<g id="a_edge14_Node000010_Node000015"><a xlink:title=" ">
<path fill="none" stroke="#63b8ff" d="M579.69,-1018.62C589.51,-1018.62 599.71,-1018.62 609.51,-1018.62"/>
<polygon fill="#63b8ff" stroke="#63b8ff" points="579.9,-1015.13 569.9,-1018.63 579.9,-1022.13 579.9,-1015.13"/>
</a>
</g>
</g>
<!-- Node16 -->
<g id="Node000016" class="node">
<title>Node16</title>
<g id="a_Node000016"><a xlink:href="classZ2SoundObjSimple.html" target="_top" xlink:title=" ">
<polygon fill="white" stroke="#666666" points="716.75,-991.25 616.75,-991.25 616.75,-972 716.75,-972 716.75,-991.25"/>
<text text-anchor="middle" x="666.75" y="-977.75" font-family="Helvetica,sans-Serif" font-size="10.00">Z2SoundObjSimple</text>
</a>
</g>
</g>
<!-- Node10&#45;&gt;Node16 -->
<g id="edge15_Node000010_Node000016" class="edge">
<title>Node10&#45;&gt;Node16</title>
<g id="a_edge15_Node000010_Node000016"><a xlink:title=" ">
<path fill="none" stroke="#63b8ff" d="M572.82,-1005.67C590.5,-1001.1 610.1,-996.02 626.72,-991.72"/>
<polygon fill="#63b8ff" stroke="#63b8ff" points="572.1,-1002.24 563.29,-1008.14 573.85,-1009.02 572.1,-1002.24"/>
</a>
</g>
</g>
<!-- Node12 -->
<g id="Node000012" class="node">
<title>Node12</title>
<g id="a_Node000012"><a xlink:href="classZ2SoundObjArrow.html" target="_top" xlink:title=" ">
<polygon fill="white" stroke="#666666" points="861,-1102.25 765.5,-1102.25 765.5,-1083 861,-1083 861,-1102.25"/>
<text text-anchor="middle" x="813.25" y="-1088.75" font-family="Helvetica,sans-Serif" font-size="10.00">Z2SoundObjArrow</text>
</a>
</g>
</g>
<!-- Node11&#45;&gt;Node12 -->
<g id="edge11_Node000011_Node000012" class="edge">
<title>Node11&#45;&gt;Node12</title>
<g id="a_edge11_Node000011_Node000012"><a xlink:title=" ">
<path fill="none" stroke="#63b8ff" d="M741.26,-1092.62C749.34,-1092.62 757.39,-1092.62 765.02,-1092.62"/>
<polygon fill="#63b8ff" stroke="#63b8ff" points="741.38,-1089.13 731.38,-1092.63 741.38,-1096.13 741.38,-1089.13"/>
</a>
</g>
</g>
<!-- Node14 -->
<g id="Node000014" class="node">
<title>Node14</title>
<g id="a_Node000014"><a xlink:href="classmDoExt__zelAnime.html" target="_top" xlink:title=" ">
<polygon fill="white" stroke="#666666" points="860.62,-1065.25 765.88,-1065.25 765.88,-1046 860.62,-1046 860.62,-1065.25"/>
<text text-anchor="middle" x="813.25" y="-1051.75" font-family="Helvetica,sans-Serif" font-size="10.00">mDoExt_zelAnime</text>
</a>
</g>
</g>
<!-- Node13&#45;&gt;Node14 -->
<g id="edge13_Node000013_Node000014" class="edge">
<title>Node13&#45;&gt;Node14</title>
<g id="a_edge13_Node000013_Node000014"><a xlink:title=" ">
<path fill="none" stroke="#63b8ff" d="M727.04,-1055.62C739.97,-1055.62 753.47,-1055.62 765.81,-1055.62"/>
<polygon fill="#63b8ff" stroke="#63b8ff" points="727.38,-1052.13 717.38,-1055.63 727.38,-1059.13 727.38,-1052.13"/>
</a>
</g>
</g>
<!-- Node18 -->
<g id="Node000018" class="node">
<title>Node18</title>
<g id="a_Node000018"><a xlink:href="structZ2SoundObjMgr.html" target="_top" xlink:title=" ">
<polygon fill="white" stroke="#666666" points="420.38,-968.25 333.88,-968.25 333.88,-949 420.38,-949 420.38,-968.25"/>
<text text-anchor="middle" x="377.12" y="-954.75" font-family="Helvetica,sans-Serif" font-size="10.00">Z2SoundObjMgr</text>
</a>
</g>
</g>
<!-- Node17&#45;&gt;Node18 -->
<g id="edge17_Node000017_Node000018" class="edge">
<title>Node17&#45;&gt;Node18</title>
<g id="a_edge17_Node000017_Node000018"><a xlink:title=" ">
<path fill="none" stroke="darkgreen" d="M274.26,-968.52C294.79,-966.52 315.91,-964.47 333.57,-962.76"/>
<polygon fill="darkgreen" stroke="darkgreen" points="274.07,-965.02 264.46,-969.47 274.75,-971.98 274.07,-965.02"/>
</a>
</g>
</g>
<!-- Node19 -->
<g id="Node000019" class="node">
<title>Node19</title>
<g id="a_Node000019"><a xlink:href="structZ2AudioMgr.html" target="_top" xlink:title=" ">
<polygon fill="white" stroke="#666666" points="556,-963.25 487.5,-963.25 487.5,-944 556,-944 556,-963.25"/>
<text text-anchor="middle" x="521.75" y="-949.75" font-family="Helvetica,sans-Serif" font-size="10.00">Z2AudioMgr</text>
</a>
</g>
</g>
<!-- Node18&#45;&gt;Node19 -->
<g id="edge18_Node000018_Node000019" class="edge">
<title>Node18&#45;&gt;Node19</title>
<g id="a_edge18_Node000018_Node000019"><a xlink:title=" ">
<path fill="none" stroke="#63b8ff" d="M431.86,-956.74C450.49,-956.09 470.82,-955.38 487.33,-954.8"/>
<polygon fill="#63b8ff" stroke="#63b8ff" points="431.91,-953.24 422.04,-957.09 432.16,-960.23 431.91,-953.24"/>
</a>
</g>
</g>
<!-- Node20 -->
<g id="Node000020" class="node">
<title>Node20</title>
<g id="a_Node000020"><a xlink:href="classmDoAud__zelAudio__c.html" target="_top" xlink:title=" ">
<polygon fill="white" stroke="#666666" points="719.75,-954.25 613.75,-954.25 613.75,-935 719.75,-935 719.75,-954.25"/>
<text text-anchor="middle" x="666.75" y="-940.75" font-family="Helvetica,sans-Serif" font-size="10.00">mDoAud_zelAudio_c</text>
</a>
</g>
</g>
<!-- Node19&#45;&gt;Node20 -->
<g id="edge19_Node000019_Node000020" class="edge">
<title>Node19&#45;&gt;Node20</title>
<g id="a_edge19_Node000019_Node000020"><a xlink:title=" ">
<path fill="none" stroke="#63b8ff" d="M567.52,-950.81C582.07,-949.89 598.35,-948.87 613.4,-947.92"/>
<polygon fill="#63b8ff" stroke="#63b8ff" points="567.55,-947.3 557.79,-951.42 567.99,-954.28 567.55,-947.3"/>
</a>
</g>
</g>
<!-- Node45 -->
<g id="Node000045" class="node">
<title>Node45</title>
<g id="a_Node000045"><a xlink:href="classJSUTree.html" target="_top" xlink:title=" ">
<polygon fill="white" stroke="#666666" points="432.75,-130.25 321.5,-130.25 321.5,-111 432.75,-111 432.75,-130.25"/>
<text text-anchor="middle" x="377.12" y="-116.75" font-family="Helvetica,sans-Serif" font-size="10.00">JSUTree&lt; J2DPane &gt;</text>
</a>
</g>
</g>
<!-- Node44&#45;&gt;Node45 -->
<g id="edge44_Node000044_Node000045" class="edge">
<title>Node44&#45;&gt;Node45</title>
<g id="a_edge44_Node000044_Node000045"><a xlink:title=" ">
<path fill="none" stroke="#63b8ff" d="M238.7,-71.68C251.91,-74.36 266.08,-77.94 278.75,-82.62 295.92,-88.98 297.86,-95.56 314.75,-102.62 321.82,-105.58 329.54,-108.25 337.04,-110.58"/>
<polygon fill="#63b8ff" stroke="#63b8ff" points="239.37,-68.24 228.9,-69.83 238.07,-75.12 239.37,-68.24"/>
</a>
</g>
</g>
<!-- Node46 -->
<g id="Node000046" class="node">
<title>Node46</title>
<g id="a_Node000046"><a xlink:href="classJSUTree.html" target="_top" xlink:title=" ">
<polygon fill="white" stroke="#666666" points="433.88,-93.25 320.38,-93.25 320.38,-74 433.88,-74 433.88,-93.25"/>
<text text-anchor="middle" x="377.12" y="-79.75" font-family="Helvetica,sans-Serif" font-size="10.00">JSUTree&lt; JASHeap &gt;</text>
</a>
</g>
</g>
<!-- Node44&#45;&gt;Node46 -->
<g id="edge45_Node000044_Node000046" class="edge">
<title>Node44&#45;&gt;Node46</title>
<g id="a_edge45_Node000044_Node000046"><a xlink:title=" ">
<path fill="none" stroke="#63b8ff" d="M238.74,-69.54C263.66,-72.1 294.24,-75.23 320.22,-77.89"/>
<polygon fill="#63b8ff" stroke="#63b8ff" points="239.18,-66.07 228.88,-68.53 238.47,-73.03 239.18,-66.07"/>
</a>
</g>
</g>
<!-- Node47 -->
<g id="Node000047" class="node">
<title>Node47</title>
<g id="a_Node000047"><a xlink:href="classJSUTree.html" target="_top" xlink:title=" ">
<polygon fill="white" stroke="#666666" points="433.88,-56.25 320.38,-56.25 320.38,-37 433.88,-37 433.88,-56.25"/>
<text text-anchor="middle" x="377.12" y="-42.75" font-family="Helvetica,sans-Serif" font-size="10.00">JSUTree&lt; JKRHeap &gt;</text>
</a>
</g>
</g>
<!-- Node44&#45;&gt;Node47 -->
<g id="edge46_Node000044_Node000047" class="edge">
<title>Node44&#45;&gt;Node47</title>
<g id="a_edge46_Node000044_Node000047"><a xlink:title=" ">
<path fill="none" stroke="#63b8ff" d="M238.74,-59.96C263.66,-57.55 294.24,-54.58 320.22,-52.05"/>
<polygon fill="#63b8ff" stroke="#63b8ff" points="238.5,-56.47 228.88,-60.92 239.17,-63.44 238.5,-56.47"/>
</a>
</g>
</g>
<!-- Node48 -->
<g id="Node000048" class="node">
<title>Node48</title>
<g id="a_Node000048"><a xlink:href="classJSUTree.html" target="_top" xlink:title=" ">
<polygon fill="white" stroke="#666666" points="415.88,-19.25 338.38,-19.25 338.38,0 415.88,0 415.88,-19.25"/>
<text text-anchor="middle" x="377.12" y="-5.75" font-family="Helvetica,sans-Serif" font-size="10.00">JSUTree&lt; T &gt;</text>
</a>
</g>
</g>
<!-- Node44&#45;&gt;Node48 -->
<g id="edge47_Node000044_Node000048" class="edge">
<title>Node44&#45;&gt;Node48</title>
<g id="a_edge47_Node000044_Node000048"><a xlink:title=" ">
<path fill="none" stroke="#63b8ff" d="M235.16,-51.32C258.79,-44.25 288.34,-35.44 314.75,-27.62 323.48,-25.04 332.92,-22.27 341.71,-19.69"/>
<polygon fill="#63b8ff" stroke="#63b8ff" points="234.45,-47.88 225.87,-54.1 236.45,-54.58 234.45,-47.88"/>
</a>
</g>
</g>
</g>
</svg>
