<?xml version="1.0" encoding="UTF-8" standalone="no"?>
<!DOCTYPE svg PUBLIC "-//W3C//DTD SVG 1.1//EN"
 "http://www.w3.org/Graphics/SVG/1.1/DTD/svg11.dtd">
<!-- Generated by graphviz version 9.0.0 (20230911.1827)
 -->
<!-- Title: dStage_dt_c Pages: 1 -->
<svg width="216pt" height="83pt"
 viewBox="0.00 0.00 216.12 82.50" xmlns="http://www.w3.org/2000/svg" xmlns:xlink="http://www.w3.org/1999/xlink">
<g id="graph0" class="graph" transform="scale(1 1) rotate(0) translate(4 78.5)">
<title>dStage_dt_c</title>
<!-- Node1 -->
<g id="Node000001" class="node">
<title>Node1</title>
<g id="a_Node000001"><a xlink:title=" ">
<polygon fill="#999999" stroke="#666666" points="138.38,-74.5 67.62,-74.5 67.62,-55.25 138.38,-55.25 138.38,-74.5"/>
<text text-anchor="middle" x="103" y="-61" font-family="Helvetica,sans-Serif" font-size="10.00">dStage_dt_c</text>
</a>
</g>
</g>
<!-- Node2 -->
<g id="Node000002" class="node">
<title>Node2</title>
<g id="a_Node000002"><a xlink:href="classdStage__roomDt__c.html" target="_top" xlink:title=" ">
<polygon fill="white" stroke="#666666" points="94,-19.25 0,-19.25 0,0 94,0 94,-19.25"/>
<text text-anchor="middle" x="47" y="-5.75" font-family="Helvetica,sans-Serif" font-size="10.00">dStage_roomDt_c</text>
</a>
</g>
</g>
<!-- Node1&#45;&gt;Node2 -->
<g id="edge1_Node000001_Node000002" class="edge">
<title>Node1&#45;&gt;Node2</title>
<g id="a_edge1_Node000001_Node000002"><a xlink:title=" ">
<path fill="none" stroke="#63b8ff" d="M85.37,-47.11C75.76,-37.97 64.25,-27.03 56.36,-19.52"/>
<polygon fill="#63b8ff" stroke="#63b8ff" points="82.74,-49.44 92.4,-53.8 87.57,-44.37 82.74,-49.44"/>
</a>
</g>
</g>
<!-- Node3 -->
<g id="Node000003" class="node">
<title>Node3</title>
<g id="a_Node000003"><a xlink:href="classdStage__stageDt__c.html" target="_top" xlink:title=" ">
<polygon fill="white" stroke="#666666" points="208.12,-19.25 111.88,-19.25 111.88,0 208.12,0 208.12,-19.25"/>
<text text-anchor="middle" x="160" y="-5.75" font-family="Helvetica,sans-Serif" font-size="10.00">dStage_stageDt_c</text>
</a>
</g>
</g>
<!-- Node1&#45;&gt;Node3 -->
<g id="edge2_Node000001_Node000003" class="edge">
<title>Node1&#45;&gt;Node3</title>
<g id="a_edge2_Node000001_Node000003"><a xlink:title=" ">
<path fill="none" stroke="#63b8ff" d="M120.95,-47.11C130.73,-37.97 142.44,-27.03 150.47,-19.52"/>
<polygon fill="#63b8ff" stroke="#63b8ff" points="118.69,-44.42 113.78,-53.81 123.47,-49.54 118.69,-44.42"/>
</a>
</g>
</g>
</g>
</svg>
