<?xml version="1.0" encoding="UTF-8" standalone="no"?>
<!DOCTYPE svg PUBLIC "-//W3C//DTD SVG 1.1//EN"
 "http://www.w3.org/Graphics/SVG/1.1/DTD/svg11.dtd">
<!-- Generated by graphviz version 9.0.0 (20230911.1827)
 -->
<!-- Title: daItemKantera_c Pages: 1 -->
<svg width="98pt" height="193pt"
 viewBox="0.00 0.00 98.25 193.00" xmlns="http://www.w3.org/2000/svg" xmlns:xlink="http://www.w3.org/1999/xlink">
<g id="graph0" class="graph" transform="scale(1 1) rotate(0) translate(4 189)">
<title>daItemKantera_c</title>
<!-- Node1 -->
<g id="Node000001" class="node">
<title>Node1</title>
<g id="a_Node000001"><a xlink:title="Lantern.">
<polygon fill="#999999" stroke="#666666" points="90.25,-19.25 0,-19.25 0,0 90.25,0 90.25,-19.25"/>
<text text-anchor="middle" x="45.12" y="-5.75" font-family="Helvetica,sans-Serif" font-size="10.00">daItemKantera_c</text>
</a>
</g>
</g>
<!-- Node2 -->
<g id="Node000002" class="node">
<title>Node2</title>
<g id="a_Node000002"><a xlink:href="classdaItemBase__c.html" target="_top" xlink:title=" ">
<polygon fill="white" stroke="#666666" points="84.62,-74.5 5.62,-74.5 5.62,-55.25 84.62,-55.25 84.62,-74.5"/>
<text text-anchor="middle" x="45.12" y="-61" font-family="Helvetica,sans-Serif" font-size="10.00">daItemBase_c</text>
</a>
</g>
</g>
<!-- Node2&#45;&gt;Node1 -->
<g id="edge1_Node000001_Node000002" class="edge">
<title>Node2&#45;&gt;Node1</title>
<g id="a_edge1_Node000001_Node000002"><a xlink:title=" ">
<path fill="none" stroke="#63b8ff" d="M45.12,-43.63C45.12,-35.34 45.12,-26.17 45.12,-19.61"/>
<polygon fill="#63b8ff" stroke="#63b8ff" points="41.63,-43.57 45.13,-53.57 48.63,-43.57 41.63,-43.57"/>
</a>
</g>
</g>
<!-- Node3 -->
<g id="Node000003" class="node">
<title>Node3</title>
<g id="a_Node000003"><a xlink:href="structfopAc__ac__c.html" target="_top" xlink:title=" ">
<polygon fill="white" stroke="#666666" points="79,-129.75 11.25,-129.75 11.25,-110.5 79,-110.5 79,-129.75"/>
<text text-anchor="middle" x="45.12" y="-116.25" font-family="Helvetica,sans-Serif" font-size="10.00">fopAc_ac_c</text>
</a>
</g>
</g>
<!-- Node3&#45;&gt;Node2 -->
<g id="edge2_Node000002_Node000003" class="edge">
<title>Node3&#45;&gt;Node2</title>
<g id="a_edge2_Node000002_Node000003"><a xlink:title=" ">
<path fill="none" stroke="#63b8ff" d="M45.12,-98.88C45.12,-90.59 45.12,-81.42 45.12,-74.86"/>
<polygon fill="#63b8ff" stroke="#63b8ff" points="41.63,-98.82 45.13,-108.82 48.63,-98.82 41.63,-98.82"/>
</a>
</g>
</g>
<!-- Node4 -->
<g id="Node000004" class="node">
<title>Node4</title>
<g id="a_Node000004"><a xlink:href="structleafdraw__class.html" target="_top" xlink:title=" ">
<polygon fill="white" stroke="#666666" points="85.75,-185 4.5,-185 4.5,-165.75 85.75,-165.75 85.75,-185"/>
<text text-anchor="middle" x="45.12" y="-171.5" font-family="Helvetica,sans-Serif" font-size="10.00">leafdraw_class</text>
</a>
</g>
</g>
<!-- Node4&#45;&gt;Node3 -->
<g id="edge3_Node000003_Node000004" class="edge">
<title>Node4&#45;&gt;Node3</title>
<g id="a_edge3_Node000003_Node000004"><a xlink:title=" ">
<path fill="none" stroke="#63b8ff" d="M45.12,-154.13C45.12,-145.84 45.12,-136.67 45.12,-130.11"/>
<polygon fill="#63b8ff" stroke="#63b8ff" points="41.63,-154.07 45.13,-164.07 48.63,-154.07 41.63,-154.07"/>
</a>
</g>
</g>
</g>
</svg>
