<?xml version="1.0" encoding="UTF-8" standalone="no"?>
<!DOCTYPE svg PUBLIC "-//W3C//DTD SVG 1.1//EN"
 "http://www.w3.org/Graphics/SVG/1.1/DTD/svg11.dtd">
<!-- Generated by graphviz version 9.0.0 (20230911.1827)
 -->
<!-- Title: JUTResFont Pages: 1 -->
<svg width="666pt" height="250pt"
 viewBox="0.00 0.00 666.38 250.25" xmlns="http://www.w3.org/2000/svg" xmlns:xlink="http://www.w3.org/1999/xlink">
<g id="graph0" class="graph" transform="scale(1 1) rotate(0) translate(4 246.25)">
<title>JUTResFont</title>
<!-- Node1 -->
<g id="Node000001" class="node">
<title>Node1</title>
<g id="a_Node000001"><a xlink:title=" ">
<polygon fill="#999999" stroke="#666666" points="325.25,-19.25 253.75,-19.25 253.75,0 325.25,0 325.25,-19.25"/>
<text text-anchor="middle" x="289.5" y="-5.75" font-family="Helvetica,sans-Serif" font-size="10.00">JUTResFont</text>
</a>
</g>
</g>
<!-- Node2 -->
<g id="Node000002" class="node">
<title>Node2</title>
<g id="a_Node000002"><a xlink:href="classJUTFont.html" target="_top" xlink:title=" ">
<polygon fill="white" stroke="#666666" points="66.62,-85.75 12.38,-85.75 12.38,-66.5 66.62,-66.5 66.62,-85.75"/>
<text text-anchor="middle" x="39.5" y="-72.25" font-family="Helvetica,sans-Serif" font-size="10.00">JUTFont</text>
</a>
</g>
</g>
<!-- Node2&#45;&gt;Node1 -->
<g id="edge1_Node000001_Node000002" class="edge">
<title>Node2&#45;&gt;Node1</title>
<g id="a_edge1_Node000001_Node000002"><a xlink:title=" ">
<path fill="none" stroke="#63b8ff" d="M74.67,-62.29C97.27,-54.35 127.37,-44.37 154.5,-37.25 187.66,-28.56 226.06,-21.24 253.41,-16.49"/>
<polygon fill="#63b8ff" stroke="#63b8ff" points="73.59,-58.96 65.34,-65.6 75.93,-65.55 73.59,-58.96"/>
</a>
</g>
</g>
<!-- Node3 -->
<g id="Node000003" class="node">
<title>Node3</title>
<g id="a_Node000003"><a xlink:href="structJUtility_1_1TColor.html" target="_top" xlink:title=" ">
<polygon fill="white" stroke="#666666" points="79,-186 0,-186 0,-166.75 79,-166.75 79,-186"/>
<text text-anchor="middle" x="39.5" y="-172.5" font-family="Helvetica,sans-Serif" font-size="10.00">JUtility::TColor</text>
</a>
</g>
</g>
<!-- Node3&#45;&gt;Node2 -->
<g id="edge2_Node000002_Node000003" class="edge">
<title>Node3&#45;&gt;Node2</title>
<g id="a_edge2_Node000002_Node000003"><a xlink:title=" ">
<path fill="none" stroke="#9a32cd" stroke-dasharray="5,2" d="M39.5,-155.07C39.5,-133.92 39.5,-101.73 39.5,-86.17"/>
<polygon fill="#9a32cd" stroke="#9a32cd" points="36,-154.79 39.5,-164.79 43,-154.79 36,-154.79"/>
</a>
</g>
<text text-anchor="middle" x="58.62" y="-139.25" font-family="Helvetica,sans-Serif" font-size="10.00" fill="grey"> mColor1</text>
<text text-anchor="middle" x="58.62" y="-128" font-family="Helvetica,sans-Serif" font-size="10.00" fill="grey">mColor2</text>
<text text-anchor="middle" x="58.62" y="-116.75" font-family="Helvetica,sans-Serif" font-size="10.00" fill="grey">mColor3</text>
<text text-anchor="middle" x="58.62" y="-105.5" font-family="Helvetica,sans-Serif" font-size="10.00" fill="grey">mColor4</text>
</g>
<!-- Node4 -->
<g id="Node000004" class="node">
<title>Node4</title>
<g id="a_Node000004"><a xlink:href="struct__GXColor.html" target="_top" xlink:title=" ">
<polygon fill="white" stroke="#666666" points="65.88,-242.25 13.12,-242.25 13.12,-223 65.88,-223 65.88,-242.25"/>
<text text-anchor="middle" x="39.5" y="-228.75" font-family="Helvetica,sans-Serif" font-size="10.00">GXColor</text>
</a>
</g>
</g>
<!-- Node4&#45;&gt;Node3 -->
<g id="edge3_Node000003_Node000004" class="edge">
<title>Node4&#45;&gt;Node3</title>
<g id="a_edge3_Node000003_Node000004"><a xlink:title=" ">
<path fill="none" stroke="#63b8ff" d="M39.5,-211.44C39.5,-202.73 39.5,-192.99 39.5,-186.17"/>
<polygon fill="#63b8ff" stroke="#63b8ff" points="36,-211.15 39.5,-221.15 43,-211.15 36,-211.15"/>
</a>
</g>
</g>
<!-- Node5 -->
<g id="Node000005" class="node">
<title>Node5</title>
<g id="a_Node000005"><a xlink:href="struct__GXTexObj.html" target="_top" xlink:title=" ">
<polygon fill="white" stroke="#666666" points="150.62,-85.75 84.38,-85.75 84.38,-66.5 150.62,-66.5 150.62,-85.75"/>
<text text-anchor="middle" x="117.5" y="-72.25" font-family="Helvetica,sans-Serif" font-size="10.00">_GXTexObj</text>
</a>
</g>
</g>
<!-- Node5&#45;&gt;Node1 -->
<g id="edge4_Node000001_Node000005" class="edge">
<title>Node5&#45;&gt;Node1</title>
<g id="a_edge4_Node000001_Node000005"><a xlink:title=" ">
<path fill="none" stroke="#9a32cd" stroke-dasharray="5,2" d="M138.84,-59.73C150.34,-52.04 165.06,-43.14 179.25,-37.25 203.07,-27.36 231.38,-20.62 253.35,-16.39"/>
<polygon fill="#9a32cd" stroke="#9a32cd" points="137.14,-56.65 130.9,-65.21 141.12,-62.41 137.14,-56.65"/>
</a>
</g>
<text text-anchor="middle" x="200.12" y="-39" font-family="Helvetica,sans-Serif" font-size="10.00" fill="grey"> mTexObj</text>
</g>
<!-- Node6 -->
<g id="Node000006" class="node">
<title>Node6</title>
<g id="a_Node000006"><a xlink:href="structResFONT.html" target="_top" xlink:title=" ">
<polygon fill="white" stroke="#666666" points="228.62,-85.75 168.38,-85.75 168.38,-66.5 228.62,-66.5 228.62,-85.75"/>
<text text-anchor="middle" x="198.5" y="-72.25" font-family="Helvetica,sans-Serif" font-size="10.00">ResFONT</text>
</a>
</g>
</g>
<!-- Node6&#45;&gt;Node1 -->
<g id="edge5_Node000001_Node000006" class="edge">
<title>Node6&#45;&gt;Node1</title>
<g id="a_edge5_Node000001_Node000006"><a xlink:title=" ">
<path fill="none" stroke="#9a32cd" stroke-dasharray="5,2" d="M214.27,-58.11C221.23,-51.15 229.74,-43.33 238.25,-37.25 247.71,-30.49 259.12,-24.39 268.77,-19.74"/>
<polygon fill="#9a32cd" stroke="#9a32cd" points="211.89,-55.54 207.47,-65.17 216.93,-60.4 211.89,-55.54"/>
</a>
</g>
<text text-anchor="middle" x="261.12" y="-39" font-family="Helvetica,sans-Serif" font-size="10.00" fill="grey"> mResFont</text>
</g>
<!-- Node7 -->
<g id="Node000007" class="node">
<title>Node7</title>
<g id="a_Node000007"><a xlink:href="structResFONT_1_1INF1.html" target="_top" xlink:title=" ">
<polygon fill="white" stroke="#666666" points="332.75,-85.75 246.25,-85.75 246.25,-66.5 332.75,-66.5 332.75,-85.75"/>
<text text-anchor="middle" x="289.5" y="-72.25" font-family="Helvetica,sans-Serif" font-size="10.00">ResFONT::INF1</text>
</a>
</g>
</g>
<!-- Node7&#45;&gt;Node1 -->
<g id="edge6_Node000001_Node000007" class="edge">
<title>Node7&#45;&gt;Node1</title>
<g id="a_edge6_Node000001_Node000007"><a xlink:title=" ">
<path fill="none" stroke="#9a32cd" stroke-dasharray="5,2" d="M289.5,-54.65C289.5,-42.82 289.5,-28.54 289.5,-19.52"/>
<polygon fill="#9a32cd" stroke="#9a32cd" points="286,-54.64 289.5,-64.64 293,-54.64 286,-54.64"/>
</a>
</g>
<text text-anchor="middle" x="309.38" y="-39" font-family="Helvetica,sans-Serif" font-size="10.00" fill="grey"> mInf1Ptr</text>
</g>
<!-- Node8 -->
<g id="Node000008" class="node">
<title>Node8</title>
<g id="a_Node000008"><a xlink:href="structResFONT_1_1WID1.html" target="_top" xlink:title=" ">
<polygon fill="white" stroke="#666666" points="439.88,-85.75 351.12,-85.75 351.12,-66.5 439.88,-66.5 439.88,-85.75"/>
<text text-anchor="middle" x="395.5" y="-72.25" font-family="Helvetica,sans-Serif" font-size="10.00">ResFONT::WID1</text>
</a>
</g>
</g>
<!-- Node8&#45;&gt;Node1 -->
<g id="edge7_Node000001_Node000008" class="edge">
<title>Node8&#45;&gt;Node1</title>
<g id="a_edge7_Node000001_Node000008"><a xlink:title=" ">
<path fill="none" stroke="#9a32cd" stroke-dasharray="5,2" d="M371.03,-60.14C359.63,-53.17 345.88,-44.78 333.5,-37.25 323.89,-31.41 313.08,-24.86 304.58,-19.73"/>
<polygon fill="#9a32cd" stroke="#9a32cd" points="369.08,-63.05 379.44,-65.29 372.73,-57.08 369.08,-63.05"/>
</a>
</g>
<text text-anchor="middle" x="385.75" y="-39" font-family="Helvetica,sans-Serif" font-size="10.00" fill="grey"> mpWidthBlocks</text>
</g>
<!-- Node9 -->
<g id="Node000009" class="node">
<title>Node9</title>
<g id="a_Node000009"><a xlink:href="structResFONT_1_1GLY1.html" target="_top" xlink:title=" ">
<polygon fill="white" stroke="#666666" points="548.62,-85.75 458.38,-85.75 458.38,-66.5 548.62,-66.5 548.62,-85.75"/>
<text text-anchor="middle" x="503.5" y="-72.25" font-family="Helvetica,sans-Serif" font-size="10.00">ResFONT::GLY1</text>
</a>
</g>
</g>
<!-- Node9&#45;&gt;Node1 -->
<g id="edge8_Node000001_Node000009" class="edge">
<title>Node9&#45;&gt;Node1</title>
<g id="a_edge8_Node000001_Node000009"><a xlink:title=" ">
<path fill="none" stroke="#9a32cd" stroke-dasharray="5,2" d="M477.9,-60.61C463.01,-52.7 443.65,-43.32 425.5,-37.25 392.53,-26.23 353.45,-19.16 325.66,-15.1"/>
<polygon fill="#9a32cd" stroke="#9a32cd" points="476.09,-63.61 486.55,-65.32 479.44,-57.46 476.09,-63.61"/>
</a>
</g>
<text text-anchor="middle" x="486.75" y="-39" font-family="Helvetica,sans-Serif" font-size="10.00" fill="grey"> mpGlyphBlocks</text>
</g>
<!-- Node10 -->
<g id="Node000010" class="node">
<title>Node10</title>
<g id="a_Node000010"><a xlink:href="structResFONT_1_1MAP1.html" target="_top" xlink:title=" ">
<polygon fill="white" stroke="#666666" points="658.38,-85.75 566.62,-85.75 566.62,-66.5 658.38,-66.5 658.38,-85.75"/>
<text text-anchor="middle" x="612.5" y="-72.25" font-family="Helvetica,sans-Serif" font-size="10.00">ResFONT::MAP1</text>
</a>
</g>
</g>
<!-- Node10&#45;&gt;Node1 -->
<g id="edge9_Node000001_Node000010" class="edge">
<title>Node10&#45;&gt;Node1</title>
<g id="a_edge9_Node000001_Node000010"><a xlink:title=" ">
<path fill="none" stroke="#9a32cd" stroke-dasharray="5,2" d="M585.87,-60.88C569.26,-52.64 547.17,-42.82 526.5,-37.25 456.94,-18.5 372.45,-12.94 325.46,-11.3"/>
<polygon fill="#9a32cd" stroke="#9a32cd" points="584.07,-63.9 594.57,-65.32 587.25,-57.66 584.07,-63.9"/>
</a>
</g>
<text text-anchor="middle" x="589.75" y="-39" font-family="Helvetica,sans-Serif" font-size="10.00" fill="grey"> mpMapBlocks</text>
</g>
</g>
</svg>
