<?xml version="1.0" encoding="UTF-8" standalone="no"?>
<!DOCTYPE svg PUBLIC "-//W3C//DTD SVG 1.1//EN"
 "http://www.w3.org/Graphics/SVG/1.1/DTD/svg11.dtd">
<!-- Generated by graphviz version 9.0.0 (20230911.1827)
 -->
<!-- Title: mDoHIO_entry_c Pages: 1 -->
<!--zoomable 1186 -->

<svg id="main" version="1.1" xmlns="http://www.w3.org/2000/svg" xmlns:xlink="http://www.w3.org/1999/xlink" xml:space="preserve" onload="init(evt)">
<style type="text/css"><![CDATA[
.node, .edge {opacity: 0.7;}
.node.selected, .edge.selected {opacity: 1;}
.edge:hover path { stroke: red; }
.edge:hover polygon { stroke: red; fill: red; }
]]></style>

<defs>
  <circle id="rim" cx="0" cy="0" r="7"/>
  <circle id="rim2" cx="0" cy="0" r="3.5"/>
  <g id="zoomPlus">
    <use xlink:href="#rim" fill="#404040"><set attributeName="fill" to="#808080" begin="zoomplus.mouseover" end="zoomplus.mouseout"/></use>
    <path d="M-4,0h8M0,-4v8" fill="none" stroke="white" stroke-width="1.5" pointer-events="none"/>
  </g>
  <g id="zoomMin">
    <use xlink:href="#rim" fill="#404040"><set attributeName="fill" to="#808080" begin="zoomminus.mouseover" end="zoomminus.mouseout"/></use>
    <path d="M-4,0h8" fill="none" stroke="white" stroke-width="1.5" pointer-events="none"/>
  </g>
  <g id="arrowUp" transform="translate(30 24)">
    <use xlink:href="#rim"/>
    <path pointer-events="none" fill="none" stroke="white" stroke-width="1.5" d="M0,-3.0v7 M-2.5,-0.5L0,-3.0L2.5,-0.5"/>
  </g>
  <g id="arrowRight" transform="rotate(90) translate(36 -43)">
    <use xlink:href="#rim"/>
    <path pointer-events="none" fill="none" stroke="white" stroke-width="1.5" d="M0,-3.0v7 M-2.5,-0.5L0,-3.0L2.5,-0.5"/>
  </g>
  <g id="arrowDown" transform="rotate(180) translate(-30 -48)">
    <use xlink:href="#rim"/>
    <path pointer-events="none" fill="none" stroke="white" stroke-width="1.5" d="M0,-3.0v7 M-2.5,-0.5L0,-3.0L2.5,-0.5"/>
  </g>
  <g id="arrowLeft" transform="rotate(270) translate(-36 17)">
    <use xlink:href="#rim"/>
    <path pointer-events="none" fill="none" stroke="white" stroke-width="1.5" d="M0,-3.0v7 M-2.5,-0.5L0,-3.0L2.5,-0.5"/>
  </g>
  <g id="resetDef">
    <use xlink:href="#rim2" fill="#404040"><set attributeName="fill" to="#808080" begin="reset.mouseover" end="reset.mouseout"/></use>
  </g>
</defs>
<script type="application/ecmascript">
var viewWidth = 407;
var viewHeight = 1186;
var sectionId = 'dynsection-0';
</script>
<script type="application/ecmascript" xlink:href="svg.min.js"/>
<svg id="graph" class="graph">
<g id="viewport">
<title>mDoHIO_entry_c</title>
<!-- Node1 -->
<g id="Node000001" class="node">
<title>Node1</title>
<g id="a_Node000001"><a xlink:title=" ">
<polygon fill="#999999" stroke="#666666" points="91,-641.25 0,-641.25 0,-622 91,-622 91,-641.25"/>
<text text-anchor="middle" x="45.5" y="-627.75" font-family="Helvetica,sans-Serif" font-size="10.00">mDoHIO_entry_c</text>
</a>
</g>
</g>
<!-- Node2 -->
<g id="Node000002" class="node">
<title>Node2</title>
<g id="a_Node000002"><a xlink:href="classdGov__HIO__c.html" target="_top" xlink:title=" ">
<polygon fill="white" stroke="#666666" points="226.62,-1178.25 153.62,-1178.25 153.62,-1159 226.62,-1159 226.62,-1178.25"/>
<text text-anchor="middle" x="190.12" y="-1164.75" font-family="Helvetica,sans-Serif" font-size="10.00">dGov_HIO_c</text>
</a>
</g>
</g>
<!-- Node1&#45;&gt;Node2 -->
<g id="edge1_Node000001_Node000002" class="edge">
<title>Node1&#45;&gt;Node2</title>
<g id="a_edge1_Node000001_Node000002"><a xlink:title=" ">
<path fill="none" stroke="#63b8ff" d="M46.85,-652.81C48.72,-740.59 60.21,-1074.67 127,-1150.62 133.75,-1158.3 143.55,-1162.79 153.38,-1165.39"/>
<polygon fill="#63b8ff" stroke="#63b8ff" points="50.35,-652.95 46.66,-643.02 43.35,-653.09 50.35,-652.95"/>
</a>
</g>
</g>
<!-- Node3 -->
<g id="Node000003" class="node">
<title>Node3</title>
<g id="a_Node000003"><a xlink:href="classdScnPly__preLoad__HIO__c.html" target="_top" xlink:title=" ">
<polygon fill="white" stroke="#666666" points="253.25,-1141.25 127,-1141.25 127,-1122 253.25,-1122 253.25,-1141.25"/>
<text text-anchor="middle" x="190.12" y="-1127.75" font-family="Helvetica,sans-Serif" font-size="10.00">dScnPly_preLoad_HIO_c</text>
</a>
</g>
</g>
<!-- Node1&#45;&gt;Node3 -->
<g id="edge2_Node000001_Node000003" class="edge">
<title>Node1&#45;&gt;Node3</title>
<g id="a_edge2_Node000001_Node000003"><a xlink:title=" ">
<path fill="none" stroke="#63b8ff" d="M47.13,-652.89C50.04,-736.81 64.84,-1043.76 127,-1113.62 129.84,-1116.81 133.2,-1119.45 136.87,-1121.63"/>
<polygon fill="#63b8ff" stroke="#63b8ff" points="50.64,-653 46.81,-643.11 43.64,-653.22 50.64,-653"/>
</a>
</g>
</g>
<!-- Node4 -->
<g id="Node000004" class="node">
<title>Node4</title>
<g id="a_Node000004"><a xlink:href="classdaBarDesk__HIO__c.html" target="_top" xlink:title=" ">
<polygon fill="white" stroke="#666666" points="239,-1104.25 141.25,-1104.25 141.25,-1085 239,-1085 239,-1104.25"/>
<text text-anchor="middle" x="190.12" y="-1090.75" font-family="Helvetica,sans-Serif" font-size="10.00">daBarDesk_HIO_c</text>
</a>
</g>
</g>
<!-- Node1&#45;&gt;Node4 -->
<g id="edge3_Node000001_Node000004" class="edge">
<title>Node1&#45;&gt;Node4</title>
<g id="a_edge3_Node000001_Node000004"><a xlink:title=" ">
<path fill="none" stroke="#63b8ff" d="M47.46,-653.02C51.47,-732.97 69.47,-1012.84 127,-1076.62 130.84,-1080.88 135.61,-1084.15 140.79,-1086.66"/>
<polygon fill="#63b8ff" stroke="#63b8ff" points="50.96,-652.93 46.99,-643.11 43.97,-653.27 50.96,-652.93"/>
</a>
</g>
</g>
<!-- Node5 -->
<g id="Node000005" class="node">
<title>Node5</title>
<g id="a_Node000005"><a xlink:href="classdaBsGate__HIO__c.html" target="_top" xlink:title=" ">
<polygon fill="white" stroke="#666666" points="236.75,-1067.25 143.5,-1067.25 143.5,-1048 236.75,-1048 236.75,-1067.25"/>
<text text-anchor="middle" x="190.12" y="-1053.75" font-family="Helvetica,sans-Serif" font-size="10.00">daBsGate_HIO_c</text>
</a>
</g>
</g>
<!-- Node1&#45;&gt;Node5 -->
<g id="edge4_Node000001_Node000005" class="edge">
<title>Node1&#45;&gt;Node5</title>
<g id="a_edge4_Node000001_Node000005"><a xlink:title=" ">
<path fill="none" stroke="#63b8ff" d="M47.82,-652.69C52.95,-727.89 73.97,-981.76 127,-1039.62 131.4,-1044.43 137,-1047.98 143.02,-1050.6"/>
<polygon fill="#63b8ff" stroke="#63b8ff" points="51.33,-652.76 47.19,-643.01 44.35,-653.22 51.33,-652.76"/>
</a>
</g>
</g>
<!-- Node6 -->
<g id="Node000006" class="node">
<title>Node6</title>
<g id="a_Node000006"><a xlink:href="classdaFireWood2__HIO__c.html" target="_top" xlink:title=" ">
<polygon fill="white" stroke="#666666" points="243.5,-1030.25 136.75,-1030.25 136.75,-1011 243.5,-1011 243.5,-1030.25"/>
<text text-anchor="middle" x="190.12" y="-1016.75" font-family="Helvetica,sans-Serif" font-size="10.00">daFireWood2_HIO_c</text>
</a>
</g>
</g>
<!-- Node1&#45;&gt;Node6 -->
<g id="edge5_Node000001_Node000006" class="edge">
<title>Node1&#45;&gt;Node6</title>
<g id="a_edge5_Node000001_Node000006"><a xlink:title=" ">
<path fill="none" stroke="#63b8ff" d="M48.3,-653.03C54.71,-724.12 78.62,-950.82 127,-1002.62 129.99,-1005.83 133.51,-1008.47 137.33,-1010.65"/>
<polygon fill="#63b8ff" stroke="#63b8ff" points="51.8,-652.81 47.44,-643.15 44.82,-653.42 51.8,-652.81"/>
</a>
</g>
</g>
<!-- Node7 -->
<g id="Node000007" class="node">
<title>Node7</title>
<g id="a_Node000007"><a xlink:href="classdaFireWood__HIO__c.html" target="_top" xlink:title=" ">
<polygon fill="white" stroke="#666666" points="240.88,-993.25 139.38,-993.25 139.38,-974 240.88,-974 240.88,-993.25"/>
<text text-anchor="middle" x="190.12" y="-979.75" font-family="Helvetica,sans-Serif" font-size="10.00">daFireWood_HIO_c</text>
</a>
</g>
</g>
<!-- Node1&#45;&gt;Node7 -->
<g id="edge6_Node000001_Node000007" class="edge">
<title>Node1&#45;&gt;Node7</title>
<g id="a_edge6_Node000001_Node000007"><a xlink:title=" ">
<path fill="none" stroke="#63b8ff" d="M48.86,-653.02C56.58,-719.33 83.15,-919.74 127,-965.62 130.41,-969.2 134.49,-972.07 138.9,-974.39"/>
<polygon fill="#63b8ff" stroke="#63b8ff" points="52.34,-652.67 47.74,-643.13 45.38,-653.46 52.34,-652.67"/>
</a>
</g>
</g>
<!-- Node8 -->
<g id="Node000008" class="node">
<title>Node8</title>
<g id="a_Node000008"><a xlink:href="classdaHeavySw__HIO__c.html" target="_top" xlink:title=" ">
<polygon fill="white" stroke="#666666" points="241.25,-956.25 139,-956.25 139,-937 241.25,-937 241.25,-956.25"/>
<text text-anchor="middle" x="190.12" y="-942.75" font-family="Helvetica,sans-Serif" font-size="10.00">daHeavySw_HIO_c</text>
</a>
</g>
</g>
<!-- Node1&#45;&gt;Node8 -->
<g id="edge7_Node000001_Node000008" class="edge">
<title>Node1&#45;&gt;Node8</title>
<g id="a_edge7_Node000001_Node000008"><a xlink:title=" ">
<path fill="none" stroke="#63b8ff" d="M45.67,-652.92C44.79,-706.93 50.2,-850.48 127,-928.62 130.38,-932.07 134.38,-934.86 138.7,-937.13"/>
<polygon fill="#63b8ff" stroke="#63b8ff" points="49.17,-653.08 45.94,-642.99 42.17,-652.89 49.17,-653.08"/>
</a>
</g>
</g>
<!-- Node9 -->
<g id="Node000009" class="node">
<title>Node9</title>
<g id="a_Node000009"><a xlink:href="classdaHsTarget__HIO__c.html" target="_top" xlink:title=" ">
<polygon fill="white" stroke="#666666" points="240.5,-919.25 139.75,-919.25 139.75,-900 240.5,-900 240.5,-919.25"/>
<text text-anchor="middle" x="190.12" y="-905.75" font-family="Helvetica,sans-Serif" font-size="10.00">daHsTarget_HIO_c</text>
</a>
</g>
</g>
<!-- Node1&#45;&gt;Node9 -->
<g id="edge8_Node000001_Node000009" class="edge">
<title>Node1&#45;&gt;Node9</title>
<g id="a_edge8_Node000001_Node000009"><a xlink:title=" ">
<path fill="none" stroke="#8b1a1a" d="M46.65,-652.89C48.2,-702.15 59.06,-824.92 127,-891.62 130.61,-895.17 134.86,-898.02 139.43,-900.31"/>
<polygon fill="#8b1a1a" stroke="#8b1a1a" points="50.16,-652.98 46.46,-643.06 43.16,-653.12 50.16,-652.98"/>
</a>
</g>
</g>
<!-- Node10 -->
<g id="Node000010" class="node">
<title>Node10</title>
<g id="a_Node000010"><a xlink:href="classdaLv1Cdl00__HIO__c.html" target="_top" xlink:title=" ">
<polygon fill="white" stroke="#666666" points="240.88,-882.25 139.38,-882.25 139.38,-863 240.88,-863 240.88,-882.25"/>
<text text-anchor="middle" x="190.12" y="-868.75" font-family="Helvetica,sans-Serif" font-size="10.00">daLv1Cdl00_HIO_c</text>
</a>
</g>
</g>
<!-- Node1&#45;&gt;Node10 -->
<g id="edge9_Node000001_Node000010" class="edge">
<title>Node1&#45;&gt;Node10</title>
<g id="a_edge9_Node000001_Node000010"><a xlink:title=" ">
<path fill="none" stroke="#63b8ff" d="M47.9,-652.52C51.98,-696.48 67.7,-799.02 127,-854.62 130.52,-857.93 134.61,-860.63 138.99,-862.84"/>
<polygon fill="#63b8ff" stroke="#63b8ff" points="51.41,-652.52 47.12,-642.83 44.43,-653.08 51.41,-652.52"/>
</a>
</g>
</g>
<!-- Node11 -->
<g id="Node000011" class="node">
<title>Node11</title>
<g id="a_Node000011"><a xlink:href="classdaLv1Cdl01__HIO__c.html" target="_top" xlink:title=" ">
<polygon fill="white" stroke="#666666" points="240.88,-845.25 139.38,-845.25 139.38,-826 240.88,-826 240.88,-845.25"/>
<text text-anchor="middle" x="190.12" y="-831.75" font-family="Helvetica,sans-Serif" font-size="10.00">daLv1Cdl01_HIO_c</text>
</a>
</g>
</g>
<!-- Node1&#45;&gt;Node11 -->
<g id="edge10_Node000001_Node000011" class="edge">
<title>Node1&#45;&gt;Node11</title>
<g id="a_edge10_Node000001_Node000011"><a xlink:title=" ">
<path fill="none" stroke="#63b8ff" d="M49.64,-652.7C56.5,-691.21 76.47,-773.12 127,-817.62 130.62,-820.82 134.78,-823.44 139.19,-825.61"/>
<polygon fill="#63b8ff" stroke="#63b8ff" points="53.11,-652.21 48.04,-642.91 46.2,-653.34 53.11,-652.21"/>
</a>
</g>
</g>
<!-- Node12 -->
<g id="Node000012" class="node">
<title>Node12</title>
<g id="a_Node000012"><a xlink:href="classdaLv2Candle__HIO__c.html" target="_top" xlink:title=" ">
<polygon fill="white" stroke="#666666" points="243.5,-808.25 136.75,-808.25 136.75,-789 243.5,-789 243.5,-808.25"/>
<text text-anchor="middle" x="190.12" y="-794.75" font-family="Helvetica,sans-Serif" font-size="10.00">daLv2Candle_HIO_c</text>
</a>
</g>
</g>
<!-- Node1&#45;&gt;Node12 -->
<g id="edge11_Node000001_Node000012" class="edge">
<title>Node1&#45;&gt;Node12</title>
<g id="a_edge11_Node000001_Node000012"><a xlink:title=" ">
<path fill="none" stroke="#63b8ff" d="M52.1,-652.53C61.84,-684.85 84.99,-746.74 127,-780.62 130.93,-783.8 135.4,-786.41 140.1,-788.56"/>
<polygon fill="#63b8ff" stroke="#63b8ff" points="55.54,-651.82 49.43,-643.17 48.81,-653.74 55.54,-651.82"/>
</a>
</g>
</g>
<!-- Node13 -->
<g id="Node000013" class="node">
<title>Node13</title>
<g id="a_Node000013"><a xlink:href="classdaLv3Candle__HIO__c.html" target="_top" xlink:title=" ">
<polygon fill="white" stroke="#666666" points="243.5,-771.25 136.75,-771.25 136.75,-752 243.5,-752 243.5,-771.25"/>
<text text-anchor="middle" x="190.12" y="-757.75" font-family="Helvetica,sans-Serif" font-size="10.00">daLv3Candle_HIO_c</text>
</a>
</g>
</g>
<!-- Node1&#45;&gt;Node13 -->
<g id="edge12_Node000001_Node000013" class="edge">
<title>Node1&#45;&gt;Node13</title>
<g id="a_edge12_Node000001_Node000013"><a xlink:title=" ">
<path fill="none" stroke="#63b8ff" d="M55.82,-651.96C68.42,-677.19 93.24,-719.79 127,-743.62 131.49,-746.8 136.54,-749.42 141.77,-751.58"/>
<polygon fill="#63b8ff" stroke="#63b8ff" points="59.04,-650.59 51.56,-643.09 52.73,-653.62 59.04,-650.59"/>
</a>
</g>
</g>
<!-- Node14 -->
<g id="Node000014" class="node">
<title>Node14</title>
<g id="a_Node000014"><a xlink:href="classdaLv4Gate__HIO__c.html" target="_top" xlink:title=" ">
<polygon fill="white" stroke="#666666" points="239,-734.25 141.25,-734.25 141.25,-715 239,-715 239,-734.25"/>
<text text-anchor="middle" x="190.12" y="-720.75" font-family="Helvetica,sans-Serif" font-size="10.00">daLv4Gate_HIO_c</text>
</a>
</g>
</g>
<!-- Node1&#45;&gt;Node14 -->
<g id="edge13_Node000001_Node000014" class="edge">
<title>Node1&#45;&gt;Node14</title>
<g id="a_edge13_Node000001_Node000014"><a xlink:title=" ">
<path fill="none" stroke="#63b8ff" d="M61.86,-650.26C76.83,-667.26 101.07,-691.91 127,-706.62 132.47,-709.73 138.52,-712.33 144.63,-714.51"/>
<polygon fill="#63b8ff" stroke="#63b8ff" points="64.69,-648.18 55.53,-642.86 59.38,-652.73 64.69,-648.18"/>
</a>
</g>
</g>
<!-- Node15 -->
<g id="Node000015" class="node">
<title>Node15</title>
<g id="a_Node000015"><a xlink:href="classdaLv4HsTarget__HIO__c.html" target="_top" xlink:title=" ">
<polygon fill="white" stroke="#666666" points="248.75,-697.25 131.5,-697.25 131.5,-678 248.75,-678 248.75,-697.25"/>
<text text-anchor="middle" x="190.12" y="-683.75" font-family="Helvetica,sans-Serif" font-size="10.00">daLv4HsTarget_HIO_c</text>
</a>
</g>
</g>
<!-- Node1&#45;&gt;Node15 -->
<g id="edge14_Node000001_Node000015" class="edge">
<title>Node1&#45;&gt;Node15</title>
<g id="a_edge14_Node000001_Node000015"><a xlink:title=" ">
<path fill="none" stroke="#63b8ff" d="M75.87,-646.87C90.91,-654.32 109.67,-663.07 127,-669.62 134.56,-672.48 142.79,-675.16 150.7,-677.53"/>
<polygon fill="#63b8ff" stroke="#63b8ff" points="77.5,-643.77 67,-642.4 74.36,-650.03 77.5,-643.77"/>
</a>
</g>
</g>
<!-- Node16 -->
<g id="Node000016" class="node">
<title>Node16</title>
<g id="a_Node000016"><a xlink:href="classdaLv4PoGate__HIO__c.html" target="_top" xlink:title=" ">
<polygon fill="white" stroke="#666666" points="245,-660.25 135.25,-660.25 135.25,-641 245,-641 245,-660.25"/>
<text text-anchor="middle" x="190.12" y="-646.75" font-family="Helvetica,sans-Serif" font-size="10.00">daLv4PoGate_HIO_c</text>
</a>
</g>
</g>
<!-- Node1&#45;&gt;Node16 -->
<g id="edge15_Node000001_Node000016" class="edge">
<title>Node1&#45;&gt;Node16</title>
<g id="a_edge15_Node000001_Node000016"><a xlink:title=" ">
<path fill="none" stroke="#63b8ff" d="M102.52,-639.09C113.13,-640.5 124.22,-641.98 134.78,-643.39"/>
<polygon fill="#63b8ff" stroke="#63b8ff" points="103.11,-635.64 92.74,-637.78 102.19,-642.57 103.11,-635.64"/>
</a>
</g>
</g>
<!-- Node17 -->
<g id="Node000017" class="node">
<title>Node17</title>
<g id="a_Node000017"><a xlink:href="classdaLv6CstaSw__HIO__c.html" target="_top" xlink:title=" ">
<polygon fill="white" stroke="#666666" points="245.75,-623.25 134.5,-623.25 134.5,-604 245.75,-604 245.75,-623.25"/>
<text text-anchor="middle" x="190.12" y="-609.75" font-family="Helvetica,sans-Serif" font-size="10.00">daLv6CstaSw_HIO_c</text>
</a>
</g>
</g>
<!-- Node1&#45;&gt;Node17 -->
<g id="edge16_Node000001_Node000017" class="edge">
<title>Node1&#45;&gt;Node17</title>
<g id="a_edge16_Node000001_Node000017"><a xlink:title=" ">
<path fill="none" stroke="#63b8ff" d="M102.65,-624.54C112.96,-623.24 123.73,-621.88 134.01,-620.58"/>
<polygon fill="#63b8ff" stroke="#63b8ff" points="102.22,-621.06 92.74,-625.79 103.1,-628.01 102.22,-621.06"/>
</a>
</g>
</g>
<!-- Node18 -->
<g id="Node000018" class="node">
<title>Node18</title>
<g id="a_Node000018"><a xlink:href="classdaMagLiftRot__HIO__c.html" target="_top" xlink:title=" ">
<polygon fill="white" stroke="#666666" points="244.25,-586.25 136,-586.25 136,-567 244.25,-567 244.25,-586.25"/>
<text text-anchor="middle" x="190.12" y="-572.75" font-family="Helvetica,sans-Serif" font-size="10.00">daMagLiftRot_HIO_c</text>
</a>
</g>
</g>
<!-- Node1&#45;&gt;Node18 -->
<g id="edge17_Node000001_Node000018" class="edge">
<title>Node1&#45;&gt;Node18</title>
<g id="a_edge17_Node000001_Node000018"><a xlink:title=" ">
<path fill="none" stroke="#63b8ff" d="M76.52,-616.53C91.47,-609.35 109.95,-600.97 127,-594.62 134.68,-591.76 143.03,-589.07 151.05,-586.68"/>
<polygon fill="#63b8ff" stroke="#63b8ff" points="75.14,-613.31 67.69,-620.84 78.21,-619.6 75.14,-613.31"/>
</a>
</g>
</g>
<!-- Node19 -->
<g id="Node000019" class="node">
<title>Node19</title>
<g id="a_Node000019"><a xlink:href="classdaMyna__HIO__c.html" target="_top" xlink:title=" ">
<polygon fill="white" stroke="#666666" points="231.88,-549.25 148.38,-549.25 148.38,-530 231.88,-530 231.88,-549.25"/>
<text text-anchor="middle" x="190.12" y="-535.75" font-family="Helvetica,sans-Serif" font-size="10.00">daMyna_HIO_c</text>
</a>
</g>
</g>
<!-- Node1&#45;&gt;Node19 -->
<g id="edge18_Node000001_Node000019" class="edge">
<title>Node1&#45;&gt;Node19</title>
<g id="a_edge18_Node000001_Node000019"><a xlink:title=" ">
<path fill="none" stroke="#63b8ff" d="M61.91,-613.25C76.92,-596.48 101.18,-572.16 127,-557.62 133.46,-553.99 140.72,-551.03 147.93,-548.65"/>
<polygon fill="#63b8ff" stroke="#63b8ff" points="59.5,-610.7 55.57,-620.54 64.78,-615.29 59.5,-610.7"/>
</a>
</g>
</g>
<!-- Node20 -->
<g id="Node000020" class="node">
<title>Node20</title>
<g id="a_Node000020"><a xlink:href="classdaRfHole__HIO__c.html" target="_top" xlink:title=" ">
<polygon fill="white" stroke="#666666" points="235.25,-512.25 145,-512.25 145,-493 235.25,-493 235.25,-512.25"/>
<text text-anchor="middle" x="190.12" y="-498.75" font-family="Helvetica,sans-Serif" font-size="10.00">daRfHole_HIO_c</text>
</a>
</g>
</g>
<!-- Node1&#45;&gt;Node20 -->
<g id="edge19_Node000001_Node000020" class="edge">
<title>Node1&#45;&gt;Node20</title>
<g id="a_edge19_Node000001_Node000020"><a xlink:title=" ">
<path fill="none" stroke="#63b8ff" d="M55.87,-611.47C68.51,-586.46 93.39,-544.25 127,-520.62 132.33,-516.88 138.43,-513.91 144.68,-511.55"/>
<polygon fill="#63b8ff" stroke="#63b8ff" points="52.82,-609.73 51.59,-620.26 59.11,-612.8 52.82,-609.73"/>
</a>
</g>
</g>
<!-- Node21 -->
<g id="Node000021" class="node">
<title>Node21</title>
<g id="a_Node000021"><a xlink:href="structdaSaidan__HIO__c.html" target="_top" xlink:title=" ">
<polygon fill="white" stroke="#666666" points="235.25,-475.25 145,-475.25 145,-456 235.25,-456 235.25,-475.25"/>
<text text-anchor="middle" x="190.12" y="-461.75" font-family="Helvetica,sans-Serif" font-size="10.00">daSaidan_HIO_c</text>
</a>
</g>
</g>
<!-- Node1&#45;&gt;Node21 -->
<g id="edge20_Node000001_Node000021" class="edge">
<title>Node1&#45;&gt;Node21</title>
<g id="a_edge20_Node000001_Node000021"><a xlink:title=" ">
<path fill="none" stroke="#63b8ff" d="M52.14,-610.86C61.94,-578.75 85.16,-517.27 127,-483.62 132.16,-479.47 138.25,-476.28 144.55,-473.82"/>
<polygon fill="#63b8ff" stroke="#63b8ff" points="48.87,-609.57 49.45,-620.15 55.59,-611.52 48.87,-609.57"/>
</a>
</g>
</g>
<!-- Node22 -->
<g id="Node000022" class="node">
<title>Node22</title>
<g id="a_Node000022"><a xlink:href="classdaSnowEffTag__HIO__c.html" target="_top" xlink:title=" ">
<polygon fill="white" stroke="#666666" points="246.5,-438.25 133.75,-438.25 133.75,-419 246.5,-419 246.5,-438.25"/>
<text text-anchor="middle" x="190.12" y="-424.75" font-family="Helvetica,sans-Serif" font-size="10.00">daSnowEffTag_HIO_c</text>
</a>
</g>
</g>
<!-- Node1&#45;&gt;Node22 -->
<g id="edge21_Node000001_Node000022" class="edge">
<title>Node1&#45;&gt;Node22</title>
<g id="a_edge21_Node000001_Node000022"><a xlink:title=" ">
<path fill="none" stroke="#63b8ff" d="M49.68,-610.67C56.6,-572.35 76.66,-490.88 127,-446.62 130.63,-443.44 134.79,-440.81 139.2,-438.65"/>
<polygon fill="#63b8ff" stroke="#63b8ff" points="46.25,-609.96 48.06,-620.4 53.15,-611.11 46.25,-609.96"/>
</a>
</g>
</g>
<!-- Node23 -->
<g id="Node000023" class="node">
<title>Node23</title>
<g id="a_Node000023"><a xlink:href="classdaSwShutter__HIO__c.html" target="_top" xlink:title=" ">
<polygon fill="white" stroke="#666666" points="243.12,-401.25 137.12,-401.25 137.12,-382 243.12,-382 243.12,-401.25"/>
<text text-anchor="middle" x="190.12" y="-387.75" font-family="Helvetica,sans-Serif" font-size="10.00">daSwShutter_HIO_c</text>
</a>
</g>
</g>
<!-- Node1&#45;&gt;Node23 -->
<g id="edge22_Node000001_Node000023" class="edge">
<title>Node1&#45;&gt;Node23</title>
<g id="a_edge22_Node000001_Node000023"><a xlink:title=" ">
<path fill="none" stroke="#63b8ff" d="M47.96,-610.53C52.14,-566.61 68.02,-464.85 127,-409.62 130.36,-406.48 134.24,-403.88 138.38,-401.73"/>
<polygon fill="#63b8ff" stroke="#63b8ff" points="44.47,-610.21 47.14,-620.46 51.45,-610.78 44.47,-610.21"/>
</a>
</g>
</g>
<!-- Node24 -->
<g id="Node000024" class="node">
<title>Node24</title>
<g id="a_Node000024"><a xlink:href="classdaTagCstaSw__HIO__c.html" target="_top" xlink:title=" ">
<polygon fill="white" stroke="#666666" points="245.75,-364.25 134.5,-364.25 134.5,-345 245.75,-345 245.75,-364.25"/>
<text text-anchor="middle" x="190.12" y="-350.75" font-family="Helvetica,sans-Serif" font-size="10.00">daTagCstaSw_HIO_c</text>
</a>
</g>
</g>
<!-- Node1&#45;&gt;Node24 -->
<g id="edge23_Node000001_Node000024" class="edge">
<title>Node1&#45;&gt;Node24</title>
<g id="a_edge23_Node000001_Node000024"><a xlink:title=" ">
<path fill="none" stroke="#63b8ff" d="M46.68,-610.44C48.29,-561.37 59.27,-439.06 127,-372.62 130.21,-369.48 133.93,-366.88 137.92,-364.73"/>
<polygon fill="#63b8ff" stroke="#63b8ff" points="43.19,-610.16 46.47,-620.23 50.19,-610.31 43.19,-610.16"/>
</a>
</g>
</g>
<!-- Node25 -->
<g id="Node000025" class="node">
<title>Node25</title>
<g id="a_Node000025"><a xlink:href="classdaTagPoFire__HIO__c.html" target="_top" xlink:title=" ">
<polygon fill="white" stroke="#666666" points="242.75,-327.25 137.5,-327.25 137.5,-308 242.75,-308 242.75,-327.25"/>
<text text-anchor="middle" x="190.12" y="-313.75" font-family="Helvetica,sans-Serif" font-size="10.00">daTagPoFire_HIO_c</text>
</a>
</g>
</g>
<!-- Node1&#45;&gt;Node25 -->
<g id="edge24_Node000001_Node000025" class="edge">
<title>Node1&#45;&gt;Node25</title>
<g id="a_edge24_Node000001_Node000025"><a xlink:title=" ">
<path fill="none" stroke="#63b8ff" d="M45.69,-610.04C44.9,-555.93 50.58,-413.31 127,-335.62 130.15,-332.42 133.83,-329.78 137.8,-327.6"/>
<polygon fill="#63b8ff" stroke="#63b8ff" points="42.19,-610.11 45.95,-620.02 49.19,-609.93 42.19,-610.11"/>
</a>
</g>
</g>
<!-- Node26 -->
<g id="Node000026" class="node">
<title>Node26</title>
<g id="a_Node000026"><a xlink:href="classdaTbox__HIO__c.html" target="_top" xlink:title=" ">
<polygon fill="white" stroke="#666666" points="230.75,-290.25 149.5,-290.25 149.5,-271 230.75,-271 230.75,-290.25"/>
<text text-anchor="middle" x="190.12" y="-276.75" font-family="Helvetica,sans-Serif" font-size="10.00">daTbox_HIO_c</text>
</a>
</g>
</g>
<!-- Node1&#45;&gt;Node26 -->
<g id="edge25_Node000001_Node000026" class="edge">
<title>Node1&#45;&gt;Node26</title>
<g id="a_edge25_Node000001_Node000026"><a xlink:title=" ">
<path fill="none" stroke="#8b1a1a" d="M48.87,-610.3C56.61,-544.18 83.26,-344.37 127,-298.62 132.98,-292.38 140.98,-288.26 149.24,-285.55"/>
<polygon fill="#8b1a1a" stroke="#8b1a1a" points="45.4,-609.82 47.74,-620.15 52.35,-610.61 45.4,-609.82"/>
</a>
</g>
</g>
<!-- Node27 -->
<g id="Node000027" class="node">
<title>Node27</title>
<g id="a_Node000027"><a xlink:href="classdaZrTuraRc__HIO__c.html" target="_top" xlink:title=" ">
<polygon fill="white" stroke="#666666" points="240.5,-253.25 139.75,-253.25 139.75,-234 240.5,-234 240.5,-253.25"/>
<text text-anchor="middle" x="190.12" y="-239.75" font-family="Helvetica,sans-Serif" font-size="10.00">daZrTuraRc_HIO_c</text>
</a>
</g>
</g>
<!-- Node1&#45;&gt;Node27 -->
<g id="edge26_Node000001_Node000027" class="edge">
<title>Node1&#45;&gt;Node27</title>
<g id="a_edge26_Node000001_Node000027"><a xlink:title=" ">
<path fill="none" stroke="#63b8ff" d="M48.31,-610.28C54.74,-539.37 78.73,-313.29 127,-261.62 130.53,-257.85 134.79,-254.85 139.42,-252.47"/>
<polygon fill="#63b8ff" stroke="#63b8ff" points="44.83,-609.86 47.44,-620.13 51.81,-610.47 44.83,-609.86"/>
</a>
</g>
</g>
<!-- Node28 -->
<g id="Node000028" class="node">
<title>Node28</title>
<g id="a_Node000028"><a xlink:href="classdaZrTurara__HIO__c.html" target="_top" xlink:title=" ">
<polygon fill="white" stroke="#666666" points="238.62,-216.25 141.62,-216.25 141.62,-197 238.62,-197 238.62,-216.25"/>
<text text-anchor="middle" x="190.12" y="-202.75" font-family="Helvetica,sans-Serif" font-size="10.00">daZrTurara_HIO_c</text>
</a>
</g>
</g>
<!-- Node1&#45;&gt;Node28 -->
<g id="edge27_Node000001_Node000028" class="edge">
<title>Node1&#45;&gt;Node28</title>
<g id="a_edge27_Node000001_Node000028"><a xlink:title=" ">
<path fill="none" stroke="#63b8ff" d="M47.83,-610.61C52.99,-535.6 74.08,-282.34 127,-224.62 130.95,-220.32 135.85,-217.02 141.17,-214.5"/>
<polygon fill="#63b8ff" stroke="#63b8ff" points="44.36,-610.05 47.19,-620.26 51.34,-610.52 44.36,-610.05"/>
</a>
</g>
</g>
<!-- Node29 -->
<g id="Node000029" class="node">
<title>Node29</title>
<g id="a_Node000029"><a xlink:href="classdalv4CandleDemoTag__HIO__c.html" target="_top" xlink:title=" ">
<polygon fill="white" stroke="#666666" points="245.75,-178.88 134.5,-178.88 134.5,-148.38 245.75,-148.38 245.75,-178.88"/>
<text text-anchor="start" x="142.5" y="-165.38" font-family="Helvetica,sans-Serif" font-size="10.00">dalv4CandleDemoTag</text>
<text text-anchor="middle" x="190.12" y="-154.12" font-family="Helvetica,sans-Serif" font-size="10.00">_HIO_c</text>
</a>
</g>
</g>
<!-- Node1&#45;&gt;Node29 -->
<g id="edge28_Node000001_Node000029" class="edge">
<title>Node1&#45;&gt;Node29</title>
<g id="a_edge28_Node000001_Node000029"><a xlink:title=" ">
<path fill="none" stroke="#63b8ff" d="M47.65,-610.43C52.32,-531.21 72.39,-253.69 127,-187.62 129.65,-184.42 132.79,-181.64 136.22,-179.23"/>
<polygon fill="#63b8ff" stroke="#63b8ff" points="44.16,-610.05 47.09,-620.23 51.15,-610.45 44.16,-610.05"/>
</a>
</g>
</g>
<!-- Node30 -->
<g id="Node000030" class="node">
<title>Node30</title>
<g id="a_Node000030"><a xlink:href="classdalv4CandleTag__HIO__c.html" target="_top" xlink:title=" ">
<polygon fill="white" stroke="#666666" points="249.88,-130.25 130.38,-130.25 130.38,-111 249.88,-111 249.88,-130.25"/>
<text text-anchor="middle" x="190.12" y="-116.75" font-family="Helvetica,sans-Serif" font-size="10.00">dalv4CandleTag_HIO_c</text>
</a>
</g>
</g>
<!-- Node1&#45;&gt;Node30 -->
<g id="edge29_Node000001_Node000030" class="edge">
<title>Node1&#45;&gt;Node30</title>
<g id="a_edge29_Node000001_Node000030"><a xlink:title=" ">
<path fill="none" stroke="#63b8ff" d="M47.08,-610.5C49.81,-525.76 64.1,-211.62 127,-139.62 130.19,-135.97 134.06,-133.01 138.3,-130.61"/>
<polygon fill="#63b8ff" stroke="#63b8ff" points="43.58,-610.25 46.78,-620.35 50.58,-610.46 43.58,-610.25"/>
</a>
</g>
</g>
<!-- Node31 -->
<g id="Node000031" class="node">
<title>Node31</title>
<g id="a_Node000031"><a xlink:href="structfOpAcm__HIO__entry__c.html" target="_top" xlink:title=" ">
<polygon fill="white" stroke="#666666" points="246.12,-93.25 134.12,-93.25 134.12,-74 246.12,-74 246.12,-93.25"/>
<text text-anchor="middle" x="190.12" y="-79.75" font-family="Helvetica,sans-Serif" font-size="10.00">fOpAcm_HIO_entry_c</text>
</a>
</g>
</g>
<!-- Node1&#45;&gt;Node31 -->
<g id="edge30_Node000001_Node000031" class="edge">
<title>Node1&#45;&gt;Node31</title>
<g id="a_edge30_Node000001_Node000031"><a xlink:title=" ">
<path fill="none" stroke="#63b8ff" d="M46.78,-610.27C48.37,-521.07 58.88,-179.34 127,-101.62 129.74,-98.5 132.98,-95.9 136.53,-93.75"/>
<polygon fill="#63b8ff" stroke="#63b8ff" points="43.28,-609.97 46.63,-620.02 50.28,-610.08 43.28,-609.97"/>
</a>
</g>
</g>
<!-- Node32 -->
<g id="Node000032" class="node">
<title>Node32</title>
<g id="a_Node000032"><a xlink:href="classdaBmWindow__HIO__c.html" target="_top" xlink:title=" ">
<polygon fill="white" stroke="#666666" points="399,-167.25 289.25,-167.25 289.25,-148 399,-148 399,-167.25"/>
<text text-anchor="middle" x="344.12" y="-153.75" font-family="Helvetica,sans-Serif" font-size="10.00">daBmWindow_HIO_c</text>
</a>
</g>
</g>
<!-- Node31&#45;&gt;Node32 -->
<g id="edge31_Node000031_Node000032" class="edge">
<title>Node31&#45;&gt;Node32</title>
<g id="a_edge31_Node000031_Node000032"><a xlink:title=" ">
<path fill="none" stroke="#63b8ff" d="M246.94,-98.17C249.12,-99.24 251.23,-100.39 253.25,-101.62 273.12,-113.73 269.63,-127.12 289.25,-139.62 294.16,-142.75 299.66,-145.39 305.23,-147.61"/>
<polygon fill="#63b8ff" stroke="#63b8ff" points="248.41,-94.99 237.84,-94.26 245.65,-101.42 248.41,-94.99"/>
</a>
</g>
</g>
<!-- Node33 -->
<g id="Node000033" class="node">
<title>Node33</title>
<g id="a_Node000033"><a xlink:href="classdaFlorBoad__HIO__c.html" target="_top" xlink:title=" ">
<polygon fill="white" stroke="#666666" points="393.75,-130.25 294.5,-130.25 294.5,-111 393.75,-111 393.75,-130.25"/>
<text text-anchor="middle" x="344.12" y="-116.75" font-family="Helvetica,sans-Serif" font-size="10.00">daFlorBoad_HIO_c</text>
</a>
</g>
</g>
<!-- Node31&#45;&gt;Node33 -->
<g id="edge32_Node000031_Node000033" class="edge">
<title>Node31&#45;&gt;Node33</title>
<g id="a_edge32_Node000031_Node000033"><a xlink:title=" ">
<path fill="none" stroke="#63b8ff" d="M243.82,-96.45C262.74,-101.06 283.8,-106.18 301.64,-110.53"/>
<polygon fill="#63b8ff" stroke="#63b8ff" points="244.67,-93.06 234.13,-94.09 243.02,-99.86 244.67,-93.06"/>
</a>
</g>
</g>
<!-- Node34 -->
<g id="Node000034" class="node">
<title>Node34</title>
<g id="a_Node000034"><a xlink:href="classdaIceWall__HIO__c.html" target="_top" xlink:title=" ">
<polygon fill="white" stroke="#666666" points="390.38,-93.25 297.88,-93.25 297.88,-74 390.38,-74 390.38,-93.25"/>
<text text-anchor="middle" x="344.12" y="-79.75" font-family="Helvetica,sans-Serif" font-size="10.00">daIceWall_HIO_c</text>
</a>
</g>
</g>
<!-- Node31&#45;&gt;Node34 -->
<g id="edge33_Node000031_Node000034" class="edge">
<title>Node31&#45;&gt;Node34</title>
<g id="a_edge33_Node000031_Node000034"><a xlink:title=" ">
<path fill="none" stroke="#63b8ff" d="M257.63,-83.62C271.13,-83.62 285.02,-83.62 297.59,-83.62"/>
<polygon fill="#63b8ff" stroke="#63b8ff" points="257.94,-80.13 247.94,-83.63 257.94,-87.13 257.94,-80.13"/>
</a>
</g>
</g>
<!-- Node35 -->
<g id="Node000035" class="node">
<title>Node35</title>
<g id="a_Node000035"><a xlink:href="classdaLv5SwIce__HIO__c.html" target="_top" xlink:title=" ">
<polygon fill="white" stroke="#666666" points="396.38,-56.25 291.88,-56.25 291.88,-37 396.38,-37 396.38,-56.25"/>
<text text-anchor="middle" x="344.12" y="-42.75" font-family="Helvetica,sans-Serif" font-size="10.00">daLv5SwIce_HIO_c</text>
</a>
</g>
</g>
<!-- Node31&#45;&gt;Node35 -->
<g id="edge34_Node000031_Node000035" class="edge">
<title>Node31&#45;&gt;Node35</title>
<g id="a_edge34_Node000031_Node000035"><a xlink:title=" ">
<path fill="none" stroke="#63b8ff" d="M243.82,-70.8C262.74,-66.19 283.8,-61.07 301.64,-56.72"/>
<polygon fill="#63b8ff" stroke="#63b8ff" points="243.02,-67.39 234.13,-73.16 244.67,-74.19 243.02,-67.39"/>
</a>
</g>
</g>
<!-- Node36 -->
<g id="Node000036" class="node">
<title>Node36</title>
<g id="a_Node000036"><a xlink:href="classdaOnsTaru__HIO__c.html" target="_top" xlink:title=" ">
<polygon fill="white" stroke="#666666" points="393,-19.25 295.25,-19.25 295.25,0 393,0 393,-19.25"/>
<text text-anchor="middle" x="344.12" y="-5.75" font-family="Helvetica,sans-Serif" font-size="10.00">daOnsTaru_HIO_c</text>
</a>
</g>
</g>
<!-- Node31&#45;&gt;Node36 -->
<g id="edge35_Node000031_Node000036" class="edge">
<title>Node31&#45;&gt;Node36</title>
<g id="a_edge35_Node000031_Node000036"><a xlink:title=" ">
<path fill="none" stroke="#63b8ff" d="M216.19,-67.49C235.6,-55.46 263.45,-39.16 289.25,-27.62 295.73,-24.73 302.83,-22.03 309.68,-19.66"/>
<polygon fill="#63b8ff" stroke="#63b8ff" points="214.49,-64.43 207.88,-72.72 218.21,-70.36 214.49,-64.43"/>
</a>
</g>
</g>
</g>
</svg>

<g id="navigator" transform="translate(0 0)" fill="#404254">
  <rect fill="#f2f5e9" fill-opacity="0.5" stroke="#606060" stroke-width=".5" x="0" y="0" width="60" height="60"/>
  <use id="zoomplus" xlink:href="#zoomPlus" x="17" y="9" onmousedown="handleZoom(evt,'in')"/>
  <use id="zoomminus" xlink:href="#zoomMin" x="42" y="9" onmousedown="handleZoom(evt,'out')"/>
  <use id="reset" xlink:href="#resetDef" x="30" y="36" onmousedown="handleReset()"/>
   <use id="arrowup" xlink:href="#arrowUp" x="0" y="0" onmousedown="handlePan(0,-1)"/>
  <use id="arrowright" xlink:href="#arrowRight" x="0" y="0" onmousedown="handlePan(1,0)"/>
  <use id="arrowdown" xlink:href="#arrowDown" x="0" y="0" onmousedown="handlePan(0,1)"/>
  <use id="arrowleft" xlink:href="#arrowLeft" x="0" y="0" onmousedown="handlePan(-1,0)"/>
</g>
<svg viewBox="0 0 15 15" width="100%" height="30px" preserveAspectRatio="xMaxYMin meet">
 <g id="arrow_out" transform="scale(0.3 0.3)">
  <a xlink:href="classmDoHIO__entry__c__inherit__graph_org.svg" target="_base">
   <rect id="button" ry="5" rx="5" y="6" x="6" height="38" width="38"
        fill="#f2f5e9" fill-opacity="0.5" stroke="#606060" stroke-width="1.0"/>
   <path id="arrow"
     d="M 11.500037,31.436501 C 11.940474,20.09759 22.043105,11.32322 32.158766,21.979434 L 37.068811,17.246167 C 37.068811,17.246167 37.088388,32 37.088388,32 L 22.160133,31.978069 C 22.160133,31.978069 26.997745,27.140456 26.997745,27.140456 C 18.528582,18.264221 13.291696,25.230495 11.500037,31.436501 z"
     style="fill:#404040;"/>
  </a>
 </g>
</svg>

<style type='text/css'>
<![CDATA[
[data-mouse-over-selected='false'] { opacity: 0.7; }
[data-mouse-over-selected='true']  { opacity: 1.0; }
]]>
</style>
<script type="application/ecmascript"><![CDATA[
document.addEventListener('DOMContentLoaded', (event) => {
  highlightEdges();
  highlightAdjacentNodes();
});
]]></script>
</svg>
