<?xml version="1.0" encoding="UTF-8" standalone="no"?>
<!DOCTYPE svg PUBLIC "-//W3C//DTD SVG 1.1//EN"
 "http://www.w3.org/Graphics/SVG/1.1/DTD/svg11.dtd">
<!-- Generated by graphviz version 9.0.0 (20230911.1827)
 -->
<!-- Title: dMsgObject_HIO_c Pages: 1 -->
<svg width="276pt" height="411pt"
 viewBox="0.00 0.00 275.50 411.00" xmlns="http://www.w3.org/2000/svg" xmlns:xlink="http://www.w3.org/1999/xlink">
<g id="graph0" class="graph" transform="scale(1 1) rotate(0) translate(4 407)">
<title>dMsgObject_HIO_c</title>
<!-- Node1 -->
<g id="Node000001" class="node">
<title>Node1</title>
<g id="a_Node000001"><a xlink:title=" ">
<polygon fill="#999999" stroke="#666666" points="102.25,-19.25 0,-19.25 0,0 102.25,0 102.25,-19.25"/>
<text text-anchor="middle" x="51.12" y="-5.75" font-family="Helvetica,sans-Serif" font-size="10.00">dMsgObject_HIO_c</text>
</a>
</g>
</g>
<!-- Node2 -->
<g id="Node000002" class="node">
<title>Node2</title>
<g id="a_Node000002"><a xlink:href="structJUtility_1_1TColor.html" target="_top" xlink:title=" ">
<polygon fill="white" stroke="#666666" points="90.62,-346.75 11.62,-346.75 11.62,-327.5 90.62,-327.5 90.62,-346.75"/>
<text text-anchor="middle" x="51.12" y="-333.25" font-family="Helvetica,sans-Serif" font-size="10.00">JUtility::TColor</text>
</a>
</g>
</g>
<!-- Node2&#45;&gt;Node1 -->
<g id="edge1_Node000001_Node000002" class="edge">
<title>Node2&#45;&gt;Node1</title>
<g id="a_edge1_Node000001_Node000002"><a xlink:title=" ">
<path fill="none" stroke="#9a32cd" stroke-dasharray="5,2" d="M49.39,-316.03C45.8,-271.2 38.31,-159.65 44.12,-66.5 45.16,-49.91 47.91,-30.72 49.64,-19.69"/>
<polygon fill="#9a32cd" stroke="#9a32cd" points="45.89,-316.09 50.2,-325.76 52.86,-315.51 45.89,-316.09"/>
</a>
</g>
<text text-anchor="middle" x="89.12" y="-158.25" font-family="Helvetica,sans-Serif" font-size="10.00" fill="grey"> mBoxStartBlack</text>
<text text-anchor="middle" x="89.12" y="-147" font-family="Helvetica,sans-Serif" font-size="10.00" fill="grey">mBoxStartWhite</text>
<text text-anchor="middle" x="89.12" y="-135.75" font-family="Helvetica,sans-Serif" font-size="10.00" fill="grey">mPikariMoyaR0</text>
<text text-anchor="middle" x="89.12" y="-124.5" font-family="Helvetica,sans-Serif" font-size="10.00" fill="grey">mPikariMoyaR1</text>
<text text-anchor="middle" x="89.12" y="-113.25" font-family="Helvetica,sans-Serif" font-size="10.00" fill="grey">mPikariMoyabsR0</text>
<text text-anchor="middle" x="89.12" y="-102" font-family="Helvetica,sans-Serif" font-size="10.00" fill="grey">mPikariMoyabsR1</text>
<text text-anchor="middle" x="89.12" y="-90.75" font-family="Helvetica,sans-Serif" font-size="10.00" fill="grey">mPikariPikaR0</text>
<text text-anchor="middle" x="89.12" y="-79.5" font-family="Helvetica,sans-Serif" font-size="10.00" fill="grey">mPikariPikaR1</text>
<text text-anchor="middle" x="89.12" y="-68.25" font-family="Helvetica,sans-Serif" font-size="10.00" fill="grey">mSelMsgInactiveCol</text>
</g>
<!-- Node4 -->
<g id="Node000004" class="node">
<title>Node4</title>
<g id="a_Node000004"><a xlink:href="classdMsgObject__HowlHIO__c.html" target="_top" xlink:title=" ">
<polygon fill="white" stroke="#666666" points="267.5,-126.75 142.75,-126.75 142.75,-107.5 267.5,-107.5 267.5,-126.75"/>
<text text-anchor="middle" x="205.12" y="-113.25" font-family="Helvetica,sans-Serif" font-size="10.00">dMsgObject_HowlHIO_c</text>
</a>
</g>
</g>
<!-- Node2&#45;&gt;Node4 -->
<g id="edge4_Node000004_Node000002" class="edge">
<title>Node2&#45;&gt;Node4</title>
<g id="a_edge4_Node000004_Node000002"><a xlink:title=" ">
<path fill="none" stroke="#9a32cd" stroke-dasharray="5,2" d="M63.99,-317.91C95.61,-273.15 176.19,-159.09 199.01,-126.77"/>
<polygon fill="#9a32cd" stroke="#9a32cd" points="61.33,-315.61 58.42,-325.8 67.05,-319.65 61.33,-315.61"/>
</a>
</g>
<text text-anchor="middle" x="202.75" y="-300" font-family="Helvetica,sans-Serif" font-size="10.00" fill="grey"> mAnswerLowerBlack</text>
<text text-anchor="middle" x="202.75" y="-288.75" font-family="Helvetica,sans-Serif" font-size="10.00" fill="grey">mAnswerLowerWhite</text>
<text text-anchor="middle" x="202.75" y="-277.5" font-family="Helvetica,sans-Serif" font-size="10.00" fill="grey">mAnswerMidBlack</text>
<text text-anchor="middle" x="202.75" y="-266.25" font-family="Helvetica,sans-Serif" font-size="10.00" fill="grey">mAnswerMidWhite</text>
<text text-anchor="middle" x="202.75" y="-255" font-family="Helvetica,sans-Serif" font-size="10.00" fill="grey">mAnswerUpperBlack</text>
<text text-anchor="middle" x="202.75" y="-243.75" font-family="Helvetica,sans-Serif" font-size="10.00" fill="grey">mAnswerUpperWhite</text>
<text text-anchor="middle" x="202.75" y="-232.5" font-family="Helvetica,sans-Serif" font-size="10.00" fill="grey">mDotBlack</text>
<text text-anchor="middle" x="202.75" y="-221.25" font-family="Helvetica,sans-Serif" font-size="10.00" fill="grey">mDotWhite</text>
<text text-anchor="middle" x="202.75" y="-210" font-family="Helvetica,sans-Serif" font-size="10.00" fill="grey">mGuideLowerBlack</text>
<text text-anchor="middle" x="202.75" y="-198.75" font-family="Helvetica,sans-Serif" font-size="10.00" fill="grey">mGuideLowerWhite</text>
<text text-anchor="middle" x="202.75" y="-187.5" font-family="Helvetica,sans-Serif" font-size="10.00" fill="grey">...</text>
</g>
<!-- Node3 -->
<g id="Node000003" class="node">
<title>Node3</title>
<g id="a_Node000003"><a xlink:href="struct__GXColor.html" target="_top" xlink:title=" ">
<polygon fill="white" stroke="#666666" points="77.5,-403 24.75,-403 24.75,-383.75 77.5,-383.75 77.5,-403"/>
<text text-anchor="middle" x="51.12" y="-389.5" font-family="Helvetica,sans-Serif" font-size="10.00">GXColor</text>
</a>
</g>
</g>
<!-- Node3&#45;&gt;Node2 -->
<g id="edge2_Node000002_Node000003" class="edge">
<title>Node3&#45;&gt;Node2</title>
<g id="a_edge2_Node000002_Node000003"><a xlink:title=" ">
<path fill="none" stroke="#63b8ff" d="M51.12,-372.19C51.12,-363.48 51.12,-353.74 51.12,-346.92"/>
<polygon fill="#63b8ff" stroke="#63b8ff" points="47.63,-371.9 51.13,-381.9 54.63,-371.9 47.63,-371.9"/>
</a>
</g>
</g>
<!-- Node4&#45;&gt;Node1 -->
<g id="edge3_Node000001_Node000004" class="edge">
<title>Node4&#45;&gt;Node1</title>
<g id="a_edge3_Node000001_Node000004"><a xlink:title=" ">
<path fill="none" stroke="#9a32cd" stroke-dasharray="5,2" d="M182.81,-100.84C150.2,-78.5 90.56,-37.64 64.22,-19.6"/>
<polygon fill="#9a32cd" stroke="#9a32cd" points="180.52,-103.51 190.75,-106.27 184.47,-97.74 180.52,-103.51"/>
</a>
</g>
<text text-anchor="middle" x="130.62" y="-39" font-family="Helvetica,sans-Serif" font-size="10.00" fill="grey"> mHowlHIO</text>
</g>
</g>
</svg>
