<?xml version="1.0" encoding="UTF-8" standalone="no"?>
<!DOCTYPE svg PUBLIC "-//W3C//DTD SVG 1.1//EN"
 "http://www.w3.org/Graphics/SVG/1.1/DTD/svg11.dtd">
<!-- Generated by graphviz version 9.0.0 (20230911.1827)
 -->
<!-- Title: J2DPicture Pages: 1 -->
<svg width="944pt" height="461pt"
 viewBox="0.00 0.00 944.00 461.00" xmlns="http://www.w3.org/2000/svg" xmlns:xlink="http://www.w3.org/1999/xlink">
<g id="graph0" class="graph" transform="scale(1 1) rotate(0) translate(4 457)">
<title>J2DPicture</title>
<!-- Node1 -->
<g id="Node000001" class="node">
<title>Node1</title>
<g id="a_Node000001"><a xlink:title=" ">
<polygon fill="#999999" stroke="#666666" points="665.75,-19.25 601.75,-19.25 601.75,0 665.75,0 665.75,-19.25"/>
<text text-anchor="middle" x="633.75" y="-5.75" font-family="Helvetica,sans-Serif" font-size="10.00">J2DPicture</text>
</a>
</g>
</g>
<!-- Node2 -->
<g id="Node000002" class="node">
<title>Node2</title>
<g id="a_Node000002"><a xlink:href="classJ2DPane.html" target="_top" xlink:title=" ">
<polygon fill="white" stroke="#666666" points="287.62,-130.75 231.88,-130.75 231.88,-111.5 287.62,-111.5 287.62,-130.75"/>
<text text-anchor="middle" x="259.75" y="-117.25" font-family="Helvetica,sans-Serif" font-size="10.00">J2DPane</text>
</a>
</g>
</g>
<!-- Node2&#45;&gt;Node1 -->
<g id="edge1_Node000001_Node000002" class="edge">
<title>Node2&#45;&gt;Node1</title>
<g id="a_edge1_Node000001_Node000002"><a xlink:title=" ">
<path fill="none" stroke="#63b8ff" d="M297.91,-107.53C349.55,-90.65 444.66,-60.18 526.75,-37.25 551.64,-30.3 580.03,-23.27 601.32,-18.19"/>
<polygon fill="#63b8ff" stroke="#63b8ff" points="297.12,-104.1 288.71,-110.54 299.3,-110.75 297.12,-104.1"/>
</a>
</g>
</g>
<!-- Node3 -->
<g id="Node000003" class="node">
<title>Node3</title>
<g id="a_Node000003"><a xlink:href="structJGeometry_1_1TBox2.html" target="_top" xlink:title=" ">
<polygon fill="white" stroke="#666666" points="125.5,-231 0,-231 0,-211.75 125.5,-211.75 125.5,-231"/>
<text text-anchor="middle" x="62.75" y="-217.5" font-family="Helvetica,sans-Serif" font-size="10.00">JGeometry::TBox2&lt; f32 &gt;</text>
</a>
</g>
</g>
<!-- Node3&#45;&gt;Node2 -->
<g id="edge2_Node000002_Node000003" class="edge">
<title>Node3&#45;&gt;Node2</title>
<g id="a_edge2_Node000002_Node000003"><a xlink:title=" ">
<path fill="none" stroke="#9a32cd" stroke-dasharray="5,2" d="M76.37,-202.52C89.96,-185.99 112.37,-162.02 137.25,-148.75 167.02,-132.88 205.65,-126.47 231.49,-123.88"/>
<polygon fill="#9a32cd" stroke="#9a32cd" points="73.85,-200.07 70.37,-210.07 79.33,-204.42 73.85,-200.07"/>
</a>
</g>
<text text-anchor="middle" x="173" y="-184.25" font-family="Helvetica,sans-Serif" font-size="10.00" fill="grey"> mBounds</text>
<text text-anchor="middle" x="173" y="-173" font-family="Helvetica,sans-Serif" font-size="10.00" fill="grey">mClipRect</text>
<text text-anchor="middle" x="173" y="-161.75" font-family="Helvetica,sans-Serif" font-size="10.00" fill="grey">mGlobalBounds</text>
<text text-anchor="middle" x="173" y="-150.5" font-family="Helvetica,sans-Serif" font-size="10.00" fill="grey">static_mBounds</text>
</g>
<!-- Node4 -->
<g id="Node000004" class="node">
<title>Node4</title>
<g id="a_Node000004"><a xlink:href="structJGeometry_1_1TBox.html" target="_top" xlink:title=" ">
<polygon fill="white" stroke="#666666" points="119.12,-297.5 6.38,-297.5 6.38,-278.25 119.12,-278.25 119.12,-297.5"/>
<text text-anchor="middle" x="62.75" y="-284" font-family="Helvetica,sans-Serif" font-size="10.00">JGeometry::TBox&lt; T &gt;</text>
</a>
</g>
</g>
<!-- Node4&#45;&gt;Node3 -->
<g id="edge3_Node000003_Node000004" class="edge">
<title>Node4&#45;&gt;Node3</title>
<g id="a_edge3_Node000003_Node000004"><a xlink:title=" ">
<path fill="none" stroke="#63b8ff" d="M62.75,-266.4C62.75,-254.57 62.75,-240.29 62.75,-231.27"/>
<polygon fill="#63b8ff" stroke="#63b8ff" points="59.25,-266.39 62.75,-276.39 66.25,-266.39 59.25,-266.39"/>
</a>
</g>
</g>
<!-- Node5 -->
<g id="Node000005" class="node">
<title>Node5</title>
<g id="a_Node000005"><a xlink:href="classJSUTree.html" target="_top" xlink:title=" ">
<polygon fill="white" stroke="#666666" points="254.38,-231 143.12,-231 143.12,-211.75 254.38,-211.75 254.38,-231"/>
<text text-anchor="middle" x="198.75" y="-217.5" font-family="Helvetica,sans-Serif" font-size="10.00">JSUTree&lt; J2DPane &gt;</text>
</a>
</g>
</g>
<!-- Node5&#45;&gt;Node2 -->
<g id="edge4_Node000002_Node000005" class="edge">
<title>Node5&#45;&gt;Node2</title>
<g id="a_edge4_Node000002_Node000005"><a xlink:title=" ">
<path fill="none" stroke="#9a32cd" stroke-dasharray="5,2" d="M206.84,-201.08C213.5,-186.19 223.68,-165.39 235.25,-148.75 239.7,-142.35 245.58,-135.91 250.47,-130.96"/>
<polygon fill="#9a32cd" stroke="#9a32cd" points="203.67,-199.61 202.91,-210.18 210.09,-202.39 203.67,-199.61"/>
</a>
</g>
<text text-anchor="middle" x="262" y="-167.38" font-family="Helvetica,sans-Serif" font-size="10.00" fill="grey"> mPaneTree</text>
</g>
<!-- Node6 -->
<g id="Node000006" class="node">
<title>Node6</title>
<g id="a_Node000006"><a xlink:href="classJSUList.html" target="_top" xlink:title=" ">
<polygon fill="white" stroke="#666666" points="192,-334.75 117.5,-334.75 117.5,-315.5 192,-315.5 192,-334.75"/>
<text text-anchor="middle" x="154.75" y="-321.25" font-family="Helvetica,sans-Serif" font-size="10.00">JSUList&lt; T &gt;</text>
</a>
</g>
</g>
<!-- Node6&#45;&gt;Node5 -->
<g id="edge5_Node000005_Node000006" class="edge">
<title>Node6&#45;&gt;Node5</title>
<g id="a_edge5_Node000005_Node000006"><a xlink:title=" ">
<path fill="none" stroke="#63b8ff" d="M162.57,-304.9C165.96,-296.67 170,-286.97 173.75,-278.25 180.9,-261.66 189.58,-242.46 194.6,-231.44"/>
<polygon fill="#63b8ff" stroke="#63b8ff" points="159.44,-303.32 158.89,-313.9 165.92,-305.97 159.44,-303.32"/>
</a>
</g>
</g>
<!-- Node7 -->
<g id="Node000007" class="node">
<title>Node7</title>
<g id="a_Node000007"><a xlink:href="classJSUPtrList.html" target="_top" xlink:title=" ">
<polygon fill="white" stroke="#666666" points="220.12,-453 155.38,-453 155.38,-433.75 220.12,-433.75 220.12,-453"/>
<text text-anchor="middle" x="187.75" y="-439.5" font-family="Helvetica,sans-Serif" font-size="10.00">JSUPtrList</text>
</a>
</g>
</g>
<!-- Node7&#45;&gt;Node6 -->
<g id="edge6_Node000006_Node000007" class="edge">
<title>Node7&#45;&gt;Node6</title>
<g id="a_edge6_Node000006_Node000007"><a xlink:title=" ">
<path fill="none" stroke="#63b8ff" d="M180.19,-422.97C179.33,-420.56 178.49,-418.1 177.75,-415.75 168.58,-386.64 160.35,-351.37 156.72,-335.12"/>
<polygon fill="#63b8ff" stroke="#63b8ff" points="176.85,-424.04 183.64,-432.17 183.4,-421.57 176.85,-424.04"/>
</a>
</g>
</g>
<!-- Node8 -->
<g id="Node000008" class="node">
<title>Node8</title>
<g id="a_Node000008"><a xlink:href="classJSUPtrLink.html" target="_top" xlink:title=" ">
<polygon fill="white" stroke="#666666" points="254.25,-373.62 187.25,-373.62 187.25,-354.38 254.25,-354.38 254.25,-373.62"/>
<text text-anchor="middle" x="220.75" y="-360.12" font-family="Helvetica,sans-Serif" font-size="10.00">JSUPtrLink</text>
</a>
</g>
</g>
<!-- Node7&#45;&gt;Node8 -->
<g id="edge8_Node000008_Node000007" class="edge">
<title>Node7&#45;&gt;Node8</title>
<g id="a_edge8_Node000008_Node000007"><a xlink:title=" ">
<path fill="none" stroke="#9a32cd" stroke-dasharray="5,2" d="M182.18,-422.56C180.63,-413.24 180.38,-402.23 184.75,-393.25 188.71,-385.11 196.28,-378.61 203.47,-373.92"/>
<polygon fill="#9a32cd" stroke="#9a32cd" points="178.71,-423.09 184.37,-432.05 185.53,-421.52 178.71,-423.09"/>
</a>
</g>
<text text-anchor="middle" x="198.25" y="-400.62" font-family="Helvetica,sans-Serif" font-size="10.00" fill="grey"> mList</text>
</g>
<!-- Node8&#45;&gt;Node7 -->
<g id="edge7_Node000007_Node000008" class="edge">
<title>Node8&#45;&gt;Node7</title>
<g id="a_edge7_Node000007_Node000008"><a xlink:title=" ">
<path fill="none" stroke="#9a32cd" stroke-dasharray="5,2" d="M221.96,-385.11C221.76,-394.81 220.34,-406.35 215.75,-415.75 212.33,-422.74 206.27,-428.86 200.65,-433.47"/>
<polygon fill="#9a32cd" stroke="#9a32cd" points="225.46,-385.18 221.71,-375.27 218.46,-385.35 225.46,-385.18"/>
</a>
</g>
<text text-anchor="middle" x="238.62" y="-406.25" font-family="Helvetica,sans-Serif" font-size="10.00" fill="grey"> mHead</text>
<text text-anchor="middle" x="238.62" y="-395" font-family="Helvetica,sans-Serif" font-size="10.00" fill="grey">mTail</text>
</g>
<!-- Node8&#45;&gt;Node8 -->
<g id="edge9_Node000008_Node000008" class="edge">
<title>Node8&#45;&gt;Node8</title>
<g id="a_edge9_Node000008_Node000008"><a xlink:title=" ">
<path fill="none" stroke="#9a32cd" stroke-dasharray="5,2" d="M265.51,-369.82C269.64,-368.62 272.25,-366.68 272.25,-364 272.25,-359.37 264.45,-356.94 254.43,-356.73"/>
<polygon fill="#9a32cd" stroke="#9a32cd" points="265.39,-366.3 255.93,-371.08 266.3,-373.25 265.39,-366.3"/>
</a>
</g>
<text text-anchor="middle" x="287.62" y="-365.75" font-family="Helvetica,sans-Serif" font-size="10.00" fill="grey"> mNext</text>
<text text-anchor="middle" x="287.62" y="-354.5" font-family="Helvetica,sans-Serif" font-size="10.00" fill="grey">mPrev</text>
</g>
<!-- Node9 -->
<g id="Node000009" class="node">
<title>Node9</title>
<g id="a_Node000009"><a xlink:href="classJSULink.html" target="_top" xlink:title=" ">
<polygon fill="white" stroke="#666666" points="259.12,-297.5 182.38,-297.5 182.38,-278.25 259.12,-278.25 259.12,-297.5"/>
<text text-anchor="middle" x="220.75" y="-284" font-family="Helvetica,sans-Serif" font-size="10.00">JSULink&lt; T &gt;</text>
</a>
</g>
</g>
<!-- Node8&#45;&gt;Node9 -->
<g id="edge11_Node000009_Node000008" class="edge">
<title>Node8&#45;&gt;Node9</title>
<g id="a_edge11_Node000009_Node000008"><a xlink:title=" ">
<path fill="none" stroke="#63b8ff" d="M220.75,-342.83C220.75,-328.01 220.75,-308.62 220.75,-297.58"/>
<polygon fill="#63b8ff" stroke="#63b8ff" points="217.25,-342.4 220.75,-352.4 224.25,-342.4 217.25,-342.4"/>
</a>
</g>
</g>
<!-- Node9&#45;&gt;Node5 -->
<g id="edge10_Node000005_Node000009" class="edge">
<title>Node9&#45;&gt;Node5</title>
<g id="a_edge10_Node000005_Node000009"><a xlink:title=" ">
<path fill="none" stroke="#63b8ff" d="M214.02,-267.15C209.94,-255.18 204.93,-240.48 201.78,-231.27"/>
<polygon fill="#63b8ff" stroke="#63b8ff" points="210.66,-268.14 217.2,-276.47 217.29,-265.88 210.66,-268.14"/>
</a>
</g>
</g>
<!-- Node10 -->
<g id="Node000010" class="node">
<title>Node10</title>
<g id="a_Node000010"><a xlink:href="classJ2DAnmTransform.html" target="_top" xlink:title=" ">
<polygon fill="white" stroke="#666666" points="370.62,-231 272.88,-231 272.88,-211.75 370.62,-211.75 370.62,-231"/>
<text text-anchor="middle" x="321.75" y="-217.5" font-family="Helvetica,sans-Serif" font-size="10.00">J2DAnmTransform</text>
</a>
</g>
</g>
<!-- Node10&#45;&gt;Node2 -->
<g id="edge12_Node000002_Node000010" class="edge">
<title>Node10&#45;&gt;Node2</title>
<g id="a_edge12_Node000002_Node000010"><a xlink:title=" ">
<path fill="none" stroke="#9a32cd" stroke-dasharray="5,2" d="M314.74,-200.83C308.84,-185.8 299.47,-164.93 287.75,-148.75 283.03,-142.23 276.58,-135.97 271.06,-131.16"/>
<polygon fill="#9a32cd" stroke="#9a32cd" points="311.4,-201.88 318.19,-210.02 317.95,-199.42 311.4,-201.88"/>
</a>
</g>
<text text-anchor="middle" x="340.12" y="-167.38" font-family="Helvetica,sans-Serif" font-size="10.00" fill="grey"> mTransform</text>
</g>
<!-- Node11 -->
<g id="Node000011" class="node">
<title>Node11</title>
<g id="a_Node000011"><a xlink:href="structJ2DAnmBase.html" target="_top" xlink:title=" ">
<polygon fill="white" stroke="#666666" points="359.75,-297.5 283.75,-297.5 283.75,-278.25 359.75,-278.25 359.75,-297.5"/>
<text text-anchor="middle" x="321.75" y="-284" font-family="Helvetica,sans-Serif" font-size="10.00">J2DAnmBase</text>
</a>
</g>
</g>
<!-- Node11&#45;&gt;Node10 -->
<g id="edge13_Node000010_Node000011" class="edge">
<title>Node11&#45;&gt;Node10</title>
<g id="a_edge13_Node000010_Node000011"><a xlink:title=" ">
<path fill="none" stroke="#63b8ff" d="M321.75,-266.4C321.75,-254.57 321.75,-240.29 321.75,-231.27"/>
<polygon fill="#63b8ff" stroke="#63b8ff" points="318.25,-266.39 321.75,-276.39 325.25,-266.39 318.25,-266.39"/>
</a>
</g>
</g>
<!-- Node12 -->
<g id="Node000012" class="node">
<title>Node12</title>
<g id="a_Node000012"><a xlink:href="classJUTTexture.html" target="_top" xlink:title=" ">
<polygon fill="white" stroke="#666666" points="547.25,-130.75 480.25,-130.75 480.25,-111.5 547.25,-111.5 547.25,-130.75"/>
<text text-anchor="middle" x="513.75" y="-117.25" font-family="Helvetica,sans-Serif" font-size="10.00">JUTTexture</text>
</a>
</g>
</g>
<!-- Node12&#45;&gt;Node1 -->
<g id="edge14_Node000001_Node000012" class="edge">
<title>Node12&#45;&gt;Node1</title>
<g id="a_edge14_Node000001_Node000012"><a xlink:title=" ">
<path fill="none" stroke="#9a32cd" stroke-dasharray="5,2" d="M524.48,-101.2C535.65,-82.88 554.61,-55.31 577,-37.25 586.15,-29.87 597.68,-23.98 607.95,-19.63"/>
<polygon fill="#9a32cd" stroke="#9a32cd" points="521.53,-99.31 519.48,-109.7 527.56,-102.86 521.53,-99.31"/>
</a>
</g>
<text text-anchor="middle" x="599.12" y="-61.5" font-family="Helvetica,sans-Serif" font-size="10.00" fill="grey"> mTexture</text>
</g>
<!-- Node13 -->
<g id="Node000013" class="node">
<title>Node13</title>
<g id="a_Node000013"><a xlink:href="struct__GXTexObj.html" target="_top" xlink:title=" ">
<polygon fill="white" stroke="#666666" points="454.88,-231 388.62,-231 388.62,-211.75 454.88,-211.75 454.88,-231"/>
<text text-anchor="middle" x="421.75" y="-217.5" font-family="Helvetica,sans-Serif" font-size="10.00">_GXTexObj</text>
</a>
</g>
</g>
<!-- Node13&#45;&gt;Node12 -->
<g id="edge15_Node000012_Node000013" class="edge">
<title>Node13&#45;&gt;Node12</title>
<g id="a_edge15_Node000012_Node000013"><a xlink:title=" ">
<path fill="none" stroke="#9a32cd" stroke-dasharray="5,2" d="M424.36,-200.52C427.41,-184.67 433.9,-162.86 447.5,-148.75 456.19,-139.73 468.33,-133.69 479.85,-129.67"/>
<polygon fill="#9a32cd" stroke="#9a32cd" points="420.94,-199.76 422.82,-210.19 427.85,-200.87 420.94,-199.76"/>
</a>
</g>
<text text-anchor="middle" x="468.38" y="-167.38" font-family="Helvetica,sans-Serif" font-size="10.00" fill="grey"> mTexObj</text>
</g>
<!-- Node14 -->
<g id="Node000014" class="node">
<title>Node14</title>
<g id="a_Node000014"><a xlink:href="structResTIMG.html" target="_top" xlink:title="Image data header.">
<polygon fill="white" stroke="#666666" points="530.75,-231 472.75,-231 472.75,-211.75 530.75,-211.75 530.75,-231"/>
<text text-anchor="middle" x="501.75" y="-217.5" font-family="Helvetica,sans-Serif" font-size="10.00">ResTIMG</text>
</a>
</g>
</g>
<!-- Node14&#45;&gt;Node12 -->
<g id="edge16_Node000012_Node000014" class="edge">
<title>Node14&#45;&gt;Node12</title>
<g id="a_edge16_Node000012_Node000014"><a xlink:title=" ">
<path fill="none" stroke="#9a32cd" stroke-dasharray="5,2" d="M495.75,-200.53C492.31,-185.9 489.64,-165.68 495,-148.75 497.05,-142.28 501.3,-136.03 505.23,-131.21"/>
<polygon fill="#9a32cd" stroke="#9a32cd" points="492.28,-201.11 498.27,-209.85 499.04,-199.28 492.28,-201.11"/>
</a>
</g>
<text text-anchor="middle" x="517.12" y="-167.38" font-family="Helvetica,sans-Serif" font-size="10.00" fill="grey"> mTexInfo</text>
</g>
<!-- Node15 -->
<g id="Node000015" class="node">
<title>Node15</title>
<g id="a_Node000015"><a xlink:href="classJUTPalette.html" target="_top" xlink:title=" ">
<polygon fill="white" stroke="#666666" points="636.5,-231 571,-231 571,-211.75 636.5,-211.75 636.5,-231"/>
<text text-anchor="middle" x="603.75" y="-217.5" font-family="Helvetica,sans-Serif" font-size="10.00">JUTPalette</text>
</a>
</g>
</g>
<!-- Node15&#45;&gt;Node1 -->
<g id="edge21_Node000001_Node000015" class="edge">
<title>Node15&#45;&gt;Node1</title>
<g id="a_edge21_Node000001_Node000015"><a xlink:title=" ">
<path fill="none" stroke="#9a32cd" stroke-dasharray="5,2" d="M616.39,-201.74C617.72,-199.14 618.89,-196.44 619.75,-193.75 640.19,-129.65 636.45,-46.81 634.5,-19.67"/>
<polygon fill="#9a32cd" stroke="#9a32cd" points="613.44,-199.85 611.28,-210.22 619.44,-203.46 613.44,-199.85"/>
</a>
</g>
<text text-anchor="middle" x="655.38" y="-117.25" font-family="Helvetica,sans-Serif" font-size="10.00" fill="grey"> mPalette</text>
</g>
<!-- Node15&#45;&gt;Node12 -->
<g id="edge17_Node000012_Node000015" class="edge">
<title>Node15&#45;&gt;Node12</title>
<g id="a_edge17_Node000012_Node000015"><a xlink:title=" ">
<path fill="none" stroke="#9a32cd" stroke-dasharray="5,2" d="M575.21,-205.46C570.19,-202.04 565.28,-198.11 561.25,-193.75 545.93,-177.18 550.63,-167.28 537.75,-148.75 533.35,-142.41 527.58,-135.97 522.8,-131.01"/>
<polygon fill="#9a32cd" stroke="#9a32cd" points="573.18,-208.32 583.53,-210.58 576.85,-202.36 573.18,-208.32"/>
</a>
</g>
<text text-anchor="middle" x="591" y="-173" font-family="Helvetica,sans-Serif" font-size="10.00" fill="grey"> field_0x2c</text>
<text text-anchor="middle" x="591" y="-161.75" font-family="Helvetica,sans-Serif" font-size="10.00" fill="grey">mEmbPalette</text>
</g>
<!-- Node16 -->
<g id="Node000016" class="node">
<title>Node16</title>
<g id="a_Node000016"><a xlink:href="struct__GXTlutObj.html" target="_top" xlink:title=" ">
<polygon fill="white" stroke="#666666" points="596.25,-297.5 529.25,-297.5 529.25,-278.25 596.25,-278.25 596.25,-297.5"/>
<text text-anchor="middle" x="562.75" y="-284" font-family="Helvetica,sans-Serif" font-size="10.00">_GXTlutObj</text>
</a>
</g>
</g>
<!-- Node16&#45;&gt;Node15 -->
<g id="edge18_Node000015_Node000016" class="edge">
<title>Node16&#45;&gt;Node15</title>
<g id="a_edge18_Node000015_Node000016"><a xlink:title=" ">
<path fill="none" stroke="#9a32cd" stroke-dasharray="5,2" d="M567.55,-267.15C569.54,-261.05 572.23,-254.49 575.75,-249 580.03,-242.34 586.31,-236.16 591.84,-231.44"/>
<polygon fill="#9a32cd" stroke="#9a32cd" points="564.27,-265.89 564.95,-276.46 571.01,-267.77 564.27,-265.89"/>
</a>
</g>
<text text-anchor="middle" x="596.75" y="-250.75" font-family="Helvetica,sans-Serif" font-size="10.00" fill="grey"> mTlutObj</text>
</g>
<!-- Node17 -->
<g id="Node000017" class="node">
<title>Node17</title>
<g id="a_Node000017"><a xlink:href="structResTLUT.html" target="_top" xlink:title=" ">
<polygon fill="white" stroke="#666666" points="673.12,-297.5 614.38,-297.5 614.38,-278.25 673.12,-278.25 673.12,-297.5"/>
<text text-anchor="middle" x="643.75" y="-284" font-family="Helvetica,sans-Serif" font-size="10.00">ResTLUT</text>
</a>
</g>
</g>
<!-- Node17&#45;&gt;Node15 -->
<g id="edge19_Node000015_Node000017" class="edge">
<title>Node17&#45;&gt;Node15</title>
<g id="a_edge19_Node000015_Node000017"><a xlink:title=" ">
<path fill="none" stroke="#9a32cd" stroke-dasharray="5,2" d="M632.21,-268.26C624.66,-256.1 615.16,-240.77 609.26,-231.27"/>
<polygon fill="#9a32cd" stroke="#9a32cd" points="629.15,-269.97 637.39,-276.62 635.09,-266.28 629.15,-269.97"/>
</a>
</g>
<text text-anchor="middle" x="655.25" y="-250.75" font-family="Helvetica,sans-Serif" font-size="10.00" fill="grey"> mColorTable</text>
</g>
<!-- Node18 -->
<g id="Node000018" class="node">
<title>Node18</title>
<g id="a_Node000018"><a xlink:href="structJGeometry_1_1TVec2.html" target="_top" xlink:title=" ">
<polygon fill="white" stroke="#666666" points="822,-130.75 693.5,-130.75 693.5,-111.5 822,-111.5 822,-130.75"/>
<text text-anchor="middle" x="757.75" y="-117.25" font-family="Helvetica,sans-Serif" font-size="10.00">JGeometry::TVec2&lt; s16 &gt;</text>
</a>
</g>
</g>
<!-- Node18&#45;&gt;Node1 -->
<g id="edge20_Node000001_Node000018" class="edge">
<title>Node18&#45;&gt;Node1</title>
<g id="a_edge20_Node000001_Node000018"><a xlink:title=" ">
<path fill="none" stroke="#9a32cd" stroke-dasharray="5,2" d="M739.2,-103.74C712.72,-80.36 664.96,-38.18 644.04,-19.71"/>
<polygon fill="#9a32cd" stroke="#9a32cd" points="736.66,-106.17 746.47,-110.16 741.29,-100.92 736.66,-106.17"/>
</a>
</g>
<text text-anchor="middle" x="749.88" y="-61.5" font-family="Helvetica,sans-Serif" font-size="10.00" fill="grey"> field_0x10a</text>
</g>
<!-- Node19 -->
<g id="Node000019" class="node">
<title>Node19</title>
<g id="a_Node000019"><a xlink:href="structJUtility_1_1TColor.html" target="_top" xlink:title=" ">
<polygon fill="white" stroke="#666666" points="919.25,-130.75 840.25,-130.75 840.25,-111.5 919.25,-111.5 919.25,-130.75"/>
<text text-anchor="middle" x="879.75" y="-117.25" font-family="Helvetica,sans-Serif" font-size="10.00">JUtility::TColor</text>
</a>
</g>
</g>
<!-- Node19&#45;&gt;Node1 -->
<g id="edge22_Node000001_Node000019" class="edge">
<title>Node19&#45;&gt;Node1</title>
<g id="a_edge22_Node000001_Node000019"><a xlink:title=" ">
<path fill="none" stroke="#9a32cd" stroke-dasharray="5,2" d="M864.23,-102.98C845.81,-83.78 813.21,-53.24 778.75,-37.25 742.41,-20.39 696.32,-14.2 665.97,-11.93"/>
<polygon fill="#9a32cd" stroke="#9a32cd" points="861.45,-105.13 870.84,-110.05 866.57,-100.35 861.45,-105.13"/>
</a>
</g>
<text text-anchor="middle" x="894.38" y="-84" font-family="Helvetica,sans-Serif" font-size="10.00" fill="grey"> mBlack</text>
<text text-anchor="middle" x="894.38" y="-72.75" font-family="Helvetica,sans-Serif" font-size="10.00" fill="grey">mBlendKonstAlpha</text>
<text text-anchor="middle" x="894.38" y="-61.5" font-family="Helvetica,sans-Serif" font-size="10.00" fill="grey">mBlendKonstColor</text>
<text text-anchor="middle" x="894.38" y="-50.25" font-family="Helvetica,sans-Serif" font-size="10.00" fill="grey">mCornerColor</text>
<text text-anchor="middle" x="894.38" y="-39" font-family="Helvetica,sans-Serif" font-size="10.00" fill="grey">mWhite</text>
</g>
<!-- Node20 -->
<g id="Node000020" class="node">
<title>Node20</title>
<g id="a_Node000020"><a xlink:href="struct__GXColor.html" target="_top" xlink:title=" ">
<polygon fill="white" stroke="#666666" points="906.12,-231 853.38,-231 853.38,-211.75 906.12,-211.75 906.12,-231"/>
<text text-anchor="middle" x="879.75" y="-217.5" font-family="Helvetica,sans-Serif" font-size="10.00">GXColor</text>
</a>
</g>
</g>
<!-- Node20&#45;&gt;Node19 -->
<g id="edge23_Node000019_Node000020" class="edge">
<title>Node20&#45;&gt;Node19</title>
<g id="a_edge23_Node000019_Node000020"><a xlink:title=" ">
<path fill="none" stroke="#63b8ff" d="M879.75,-200.07C879.75,-178.92 879.75,-146.73 879.75,-131.17"/>
<polygon fill="#63b8ff" stroke="#63b8ff" points="876.25,-199.79 879.75,-209.79 883.25,-199.79 876.25,-199.79"/>
</a>
</g>
</g>
</g>
</svg>
