<?xml version="1.0" encoding="UTF-8" standalone="no"?>
<!DOCTYPE svg PUBLIC "-//W3C//DTD SVG 1.1//EN"
 "http://www.w3.org/Graphics/SVG/1.1/DTD/svg11.dtd">
<!-- Generated by graphviz version 9.0.0 (20230911.1827)
 -->
<!-- Title: JUTConsoleManager Pages: 1 -->
<!--zoomable 549 -->

<svg id="main" version="1.1" xmlns="http://www.w3.org/2000/svg" xmlns:xlink="http://www.w3.org/1999/xlink" xml:space="preserve" onload="init(evt)">
<style type="text/css"><![CDATA[
.node, .edge {opacity: 0.7;}
.node.selected, .edge.selected {opacity: 1;}
.edge:hover path { stroke: red; }
.edge:hover polygon { stroke: red; fill: red; }
]]></style>

<defs>
  <circle id="rim" cx="0" cy="0" r="7"/>
  <circle id="rim2" cx="0" cy="0" r="3.5"/>
  <g id="zoomPlus">
    <use xlink:href="#rim" fill="#404040"><set attributeName="fill" to="#808080" begin="zoomplus.mouseover" end="zoomplus.mouseout"/></use>
    <path d="M-4,0h8M0,-4v8" fill="none" stroke="white" stroke-width="1.5" pointer-events="none"/>
  </g>
  <g id="zoomMin">
    <use xlink:href="#rim" fill="#404040"><set attributeName="fill" to="#808080" begin="zoomminus.mouseover" end="zoomminus.mouseout"/></use>
    <path d="M-4,0h8" fill="none" stroke="white" stroke-width="1.5" pointer-events="none"/>
  </g>
  <g id="arrowUp" transform="translate(30 24)">
    <use xlink:href="#rim"/>
    <path pointer-events="none" fill="none" stroke="white" stroke-width="1.5" d="M0,-3.0v7 M-2.5,-0.5L0,-3.0L2.5,-0.5"/>
  </g>
  <g id="arrowRight" transform="rotate(90) translate(36 -43)">
    <use xlink:href="#rim"/>
    <path pointer-events="none" fill="none" stroke="white" stroke-width="1.5" d="M0,-3.0v7 M-2.5,-0.5L0,-3.0L2.5,-0.5"/>
  </g>
  <g id="arrowDown" transform="rotate(180) translate(-30 -48)">
    <use xlink:href="#rim"/>
    <path pointer-events="none" fill="none" stroke="white" stroke-width="1.5" d="M0,-3.0v7 M-2.5,-0.5L0,-3.0L2.5,-0.5"/>
  </g>
  <g id="arrowLeft" transform="rotate(270) translate(-36 17)">
    <use xlink:href="#rim"/>
    <path pointer-events="none" fill="none" stroke="white" stroke-width="1.5" d="M0,-3.0v7 M-2.5,-0.5L0,-3.0L2.5,-0.5"/>
  </g>
  <g id="resetDef">
    <use xlink:href="#rim2" fill="#404040"><set attributeName="fill" to="#808080" begin="reset.mouseover" end="reset.mouseout"/></use>
  </g>
</defs>
<script type="application/ecmascript">
var viewWidth = 1123;
var viewHeight = 549;
var sectionId = 'dynsection-0';
</script>
<script type="application/ecmascript" xlink:href="svg.min.js"/>
<svg id="graph" class="graph">
<g id="viewport">
<title>JUTConsoleManager</title>
<!-- Node1 -->
<g id="Node000001" class="node">
<title>Node1</title>
<g id="a_Node000001"><a xlink:title=" ">
<polygon fill="#999999" stroke="#666666" points="234.62,-97 127.12,-97 127.12,-77.75 234.62,-77.75 234.62,-97"/>
<text text-anchor="middle" x="180.88" y="-83.5" font-family="Helvetica,sans-Serif" font-size="10.00">JUTConsoleManager</text>
</a>
</g>
</g>
<!-- Node1&#45;&gt;Node1 -->
<g id="edge1_Node000001_Node000001" class="edge">
<title>Node1&#45;&gt;Node1</title>
<g id="a_edge1_Node000001_Node000001"><a xlink:title=" ">
<path fill="none" stroke="#9a32cd" stroke-dasharray="5,2" d="M246.13,-92.47C250.19,-91.27 252.62,-89.57 252.62,-87.38 252.62,-83.58 245.33,-81.27 235.01,-80.43"/>
<polygon fill="#9a32cd" stroke="#9a32cd" points="245.79,-88.98 236.5,-94.07 246.94,-95.89 245.79,-88.98"/>
</a>
</g>
<text text-anchor="middle" x="275.12" y="-83.5" font-family="Helvetica,sans-Serif" font-size="10.00" fill="grey"> sManager</text>
</g>
<!-- Node2 -->
<g id="Node000002" class="node">
<title>Node2</title>
<g id="a_Node000002"><a xlink:href="structJGadget_1_1TLinkList.html" target="_top" xlink:title=" ">
<polygon fill="white" stroke="#666666" points="181.5,-198.88 46.25,-198.88 46.25,-157.12 181.5,-157.12 181.5,-198.88"/>
<text text-anchor="start" x="54.25" y="-185.38" font-family="Helvetica,sans-Serif" font-size="10.00">JGadget::TLinkList</text>
<text text-anchor="start" x="54.25" y="-174.12" font-family="Helvetica,sans-Serif" font-size="10.00">&lt; JUTConsole, &#45;offsetof</text>
<text text-anchor="middle" x="113.88" y="-162.88" font-family="Helvetica,sans-Serif" font-size="10.00">(JUTConsole, mListNode)&gt;</text>
</a>
</g>
</g>
<!-- Node2&#45;&gt;Node1 -->
<g id="edge2_Node000001_Node000002" class="edge">
<title>Node2&#45;&gt;Node1</title>
<g id="a_edge2_Node000001_Node000002"><a xlink:title=" ">
<path fill="none" stroke="#9a32cd" stroke-dasharray="5,2" d="M135.77,-148.04C149.16,-130.32 165.38,-108.88 174.26,-97.13"/>
<polygon fill="#9a32cd" stroke="#9a32cd" points="133.23,-145.59 129.99,-155.68 138.81,-149.82 133.23,-145.59"/>
</a>
</g>
<text text-anchor="middle" x="178.25" y="-122.38" font-family="Helvetica,sans-Serif" font-size="10.00" fill="grey"> soLink_</text>
</g>
<!-- Node3 -->
<g id="Node000003" class="node">
<title>Node3</title>
<g id="a_Node000003"><a xlink:href="structJGadget_1_1TNodeLinkList.html" target="_top" xlink:title=" ">
<polygon fill="white" stroke="#666666" points="121.75,-279.88 0,-279.88 0,-260.62 121.75,-260.62 121.75,-279.88"/>
<text text-anchor="middle" x="60.88" y="-266.38" font-family="Helvetica,sans-Serif" font-size="10.00">JGadget::TNodeLinkList</text>
</a>
</g>
</g>
<!-- Node3&#45;&gt;Node2 -->
<g id="edge3_Node000002_Node000003" class="edge">
<title>Node3&#45;&gt;Node2</title>
<g id="a_edge3_Node000002_Node000003"><a xlink:title=" ">
<path fill="none" stroke="#63b8ff" d="M71.85,-250.55C80.68,-235.52 93.06,-214.44 102.1,-199.05"/>
<polygon fill="#63b8ff" stroke="#63b8ff" points="68.96,-248.57 66.92,-258.96 75,-252.11 68.96,-248.57"/>
</a>
</g>
</g>
<!-- Node4 -->
<g id="Node000004" class="node">
<title>Node4</title>
<g id="a_Node000004"><a xlink:href="structJGadget_1_1TLinkListNode.html" target="_top" xlink:title=" ">
<polygon fill="white" stroke="#666666" points="157.75,-383.38 36,-383.38 36,-364.12 157.75,-364.12 157.75,-383.38"/>
<text text-anchor="middle" x="96.88" y="-369.88" font-family="Helvetica,sans-Serif" font-size="10.00">JGadget::TLinkListNode</text>
</a>
</g>
</g>
<!-- Node4&#45;&gt;Node3 -->
<g id="edge4_Node000003_Node000004" class="edge">
<title>Node4&#45;&gt;Node3</title>
<g id="a_edge4_Node000003_Node000004"><a xlink:title=" ">
<path fill="none" stroke="#9a32cd" stroke-dasharray="5,2" d="M89.87,-352.99C82.05,-330.95 69.75,-296.26 64.01,-280.09"/>
<polygon fill="#9a32cd" stroke="#9a32cd" points="86.53,-354.06 93.17,-362.32 93.13,-351.72 86.53,-354.06"/>
</a>
</g>
<text text-anchor="middle" x="110.12" y="-318.12" font-family="Helvetica,sans-Serif" font-size="10.00" fill="grey"> ocObject_</text>
</g>
<!-- Node4&#45;&gt;Node4 -->
<g id="edge5_Node000004_Node000004" class="edge">
<title>Node4&#45;&gt;Node4</title>
<g id="a_edge5_Node000004_Node000004"><a xlink:title=" ">
<path fill="none" stroke="#9a32cd" stroke-dasharray="5,2" d="M169.27,-378.66C173.33,-377.47 175.75,-375.84 175.75,-373.75 175.75,-370.14 168.51,-367.88 158.06,-366.95"/>
<polygon fill="#9a32cd" stroke="#9a32cd" points="168.83,-375.19 159.55,-380.3 169.99,-382.09 168.83,-375.19"/>
</a>
</g>
<text text-anchor="middle" x="191.12" y="-375.5" font-family="Helvetica,sans-Serif" font-size="10.00" fill="grey"> mNext</text>
<text text-anchor="middle" x="191.12" y="-364.25" font-family="Helvetica,sans-Serif" font-size="10.00" fill="grey">mPrev</text>
</g>
<!-- Node5 -->
<g id="Node000005" class="node">
<title>Node5</title>
<g id="a_Node000005"><a xlink:href="classJUTConsole.html" target="_top" xlink:title=" ">
<polygon fill="white" stroke="#666666" points="287.88,-187.62 217.88,-187.62 217.88,-168.38 287.88,-168.38 287.88,-187.62"/>
<text text-anchor="middle" x="252.88" y="-174.12" font-family="Helvetica,sans-Serif" font-size="10.00">JUTConsole</text>
</a>
</g>
</g>
<!-- Node4&#45;&gt;Node5 -->
<g id="edge36_Node000005_Node000004" class="edge">
<title>Node4&#45;&gt;Node5</title>
<g id="a_edge36_Node000005_Node000004"><a xlink:title=" ">
<path fill="none" stroke="#9a32cd" stroke-dasharray="5,2" d="M123.73,-357.32C128.59,-353.6 133.26,-349.3 136.88,-344.5 161.08,-312.36 144.61,-292.68 166.62,-259 186.63,-228.4 220.83,-201.48 239.59,-188.05"/>
<polygon fill="#9a32cd" stroke="#9a32cd" points="121.89,-354.33 115.61,-362.86 125.84,-360.11 121.89,-354.33"/>
</a>
</g>
<text text-anchor="middle" x="192" y="-266.38" font-family="Helvetica,sans-Serif" font-size="10.00" fill="grey"> mListNode</text>
</g>
<!-- Node5&#45;&gt;Node1 -->
<g id="edge6_Node000001_Node000005" class="edge">
<title>Node5&#45;&gt;Node1</title>
<g id="a_edge6_Node000001_Node000005"><a xlink:title=" ">
<path fill="none" stroke="#9a32cd" stroke-dasharray="5,2" d="M238.63,-159.47C223.46,-140.79 200.04,-111.97 188.23,-97.42"/>
<polygon fill="#9a32cd" stroke="#9a32cd" points="235.73,-161.45 244.75,-167 241.16,-157.04 235.73,-161.45"/>
</a>
</g>
<text text-anchor="middle" x="255.62" y="-128" font-family="Helvetica,sans-Serif" font-size="10.00" fill="grey"> mActiveConsole</text>
<text text-anchor="middle" x="255.62" y="-116.75" font-family="Helvetica,sans-Serif" font-size="10.00" fill="grey">mDirectConsole</text>
</g>
<!-- Node6 -->
<g id="Node000006" class="node">
<title>Node6</title>
<g id="a_Node000006"><a xlink:href="classJKRDisposer.html" target="_top" xlink:title=" ">
<polygon fill="white" stroke="#666666" points="452.38,-279.88 379.38,-279.88 379.38,-260.62 452.38,-260.62 452.38,-279.88"/>
<text text-anchor="middle" x="415.88" y="-266.38" font-family="Helvetica,sans-Serif" font-size="10.00">JKRDisposer</text>
</a>
</g>
</g>
<!-- Node6&#45;&gt;Node5 -->
<g id="edge7_Node000005_Node000006" class="edge">
<title>Node6&#45;&gt;Node5</title>
<g id="a_edge7_Node000005_Node000006"><a xlink:title=" ">
<path fill="none" stroke="#63b8ff" d="M391.37,-254.27C374.28,-243.95 350.87,-230.07 329.88,-218.5 310.14,-207.63 287.09,-195.93 271.39,-188.11"/>
<polygon fill="#63b8ff" stroke="#63b8ff" points="389.45,-257.2 399.82,-259.39 393.09,-251.21 389.45,-257.2"/>
</a>
</g>
</g>
<!-- Node7 -->
<g id="Node000007" class="node">
<title>Node7</title>
<g id="a_Node000007"><a xlink:href="structJKRHeap.html" target="_top" xlink:title=" ">
<polygon fill="white" stroke="#666666" points="555.88,-187.62 497.88,-187.62 497.88,-168.38 555.88,-168.38 555.88,-187.62"/>
<text text-anchor="middle" x="526.88" y="-174.12" font-family="Helvetica,sans-Serif" font-size="10.00">JKRHeap</text>
</a>
</g>
</g>
<!-- Node6&#45;&gt;Node7 -->
<g id="edge9_Node000007_Node000006" class="edge">
<title>Node6&#45;&gt;Node7</title>
<g id="a_edge9_Node000007_Node000006"><a xlink:title=" ">
<path fill="none" stroke="#63b8ff" d="M424.27,-250.15C429.58,-239.77 437.25,-227.3 446.88,-218.5 461.97,-204.71 482.76,-194.63 499.37,-188.11"/>
<polygon fill="#63b8ff" stroke="#63b8ff" points="421.22,-248.41 420.11,-258.95 427.55,-251.4 421.22,-248.41"/>
</a>
</g>
</g>
<!-- Node7&#45;&gt;Node6 -->
<g id="edge8_Node000006_Node000007" class="edge">
<title>Node7&#45;&gt;Node6</title>
<g id="a_edge8_Node000006_Node000007"><a xlink:title=" ">
<path fill="none" stroke="#9a32cd" stroke-dasharray="5,2" d="M507.14,-195.05C483.75,-214.06 445.62,-245.06 426.92,-260.27"/>
<polygon fill="#9a32cd" stroke="#9a32cd" points="509.15,-197.93 514.7,-188.9 504.73,-192.49 509.15,-197.93"/>
</a>
</g>
<text text-anchor="middle" x="494.75" y="-225.88" font-family="Helvetica,sans-Serif" font-size="10.00" fill="grey"> mHeap</text>
</g>
<!-- Node7&#45;&gt;Node7 -->
<g id="edge33_Node000007_Node000007" class="edge">
<title>Node7&#45;&gt;Node7</title>
<g id="a_edge33_Node000007_Node000007"><a xlink:title=" ">
<path fill="none" stroke="#9a32cd" stroke-dasharray="5,2" d="M567.49,-185.85C571.4,-184.25 573.88,-181.64 573.88,-178 573.88,-171.53 566.04,-168.3 556.25,-168.3"/>
<polygon fill="#9a32cd" stroke="#9a32cd" points="567.04,-182.37 557.74,-187.46 568.18,-189.28 567.04,-182.37"/>
</a>
</g>
<text text-anchor="middle" x="605" y="-191" font-family="Helvetica,sans-Serif" font-size="10.00" fill="grey"> sCurrentHeap</text>
<text text-anchor="middle" x="605" y="-179.75" font-family="Helvetica,sans-Serif" font-size="10.00" fill="grey">sRootHeap</text>
<text text-anchor="middle" x="605" y="-168.5" font-family="Helvetica,sans-Serif" font-size="10.00" fill="grey">sRootHeap2</text>
<text text-anchor="middle" x="605" y="-157.25" font-family="Helvetica,sans-Serif" font-size="10.00" fill="grey">sSystemHeap</text>
</g>
<!-- Node8 -->
<g id="Node000008" class="node">
<title>Node8</title>
<g id="a_Node000008"><a xlink:href="structOSMutex.html" target="_top" xlink:title=" ">
<polygon fill="white" stroke="#666666" points="918.12,-279.88 861.62,-279.88 861.62,-260.62 918.12,-260.62 918.12,-279.88"/>
<text text-anchor="middle" x="889.88" y="-266.38" font-family="Helvetica,sans-Serif" font-size="10.00">OSMutex</text>
</a>
</g>
</g>
<!-- Node8&#45;&gt;Node7 -->
<g id="edge10_Node000007_Node000008" class="edge">
<title>Node8&#45;&gt;Node7</title>
<g id="a_edge10_Node000007_Node000008"><a xlink:title=" ">
<path fill="none" stroke="#9a32cd" stroke-dasharray="5,2" d="M850.13,-267.73C790.55,-264.93 681.32,-257.66 646.12,-241 633.13,-234.85 634.91,-226.38 622.88,-218.5 602.07,-204.88 575.8,-194.46 556,-187.76"/>
<polygon fill="#9a32cd" stroke="#9a32cd" points="849.69,-271.21 859.83,-268.16 850,-264.22 849.69,-271.21"/>
</a>
</g>
<text text-anchor="middle" x="664.25" y="-225.88" font-family="Helvetica,sans-Serif" font-size="10.00" fill="grey"> mMutex</text>
</g>
<!-- Node10 -->
<g id="Node000010" class="node">
<title>Node10</title>
<g id="a_Node000010"><a xlink:href="structOSThread.html" target="_top" xlink:title=" ">
<polygon fill="white" stroke="#666666" points="867,-97 806.75,-97 806.75,-77.75 867,-77.75 867,-97"/>
<text text-anchor="middle" x="836.88" y="-83.5" font-family="Helvetica,sans-Serif" font-size="10.00">OSThread</text>
</a>
</g>
</g>
<!-- Node8&#45;&gt;Node10 -->
<g id="edge17_Node000010_Node000008" class="edge">
<title>Node8&#45;&gt;Node10</title>
<g id="a_edge17_Node000010_Node000008"><a xlink:title=" ">
<path fill="none" stroke="#9a32cd" stroke-dasharray="5,2" d="M872.69,-252.23C860.87,-239.28 846.13,-220.36 839.38,-200.5 826.96,-164 832.25,-116.89 835.29,-97.41"/>
<polygon fill="#9a32cd" stroke="#9a32cd" points="870.14,-254.63 879.58,-259.44 875.2,-249.79 870.14,-254.63"/>
</a>
</g>
<text text-anchor="middle" x="853.12" y="-174.12" font-family="Helvetica,sans-Serif" font-size="10.00" fill="grey"> mutex</text>
</g>
<!-- Node13 -->
<g id="Node000013" class="node">
<title>Node13</title>
<g id="a_Node000013"><a xlink:href="structOSMutexQueue.html" target="_top" xlink:title=" ">
<polygon fill="white" stroke="#666666" points="1115.38,-187.62 1030.38,-187.62 1030.38,-168.38 1115.38,-168.38 1115.38,-187.62"/>
<text text-anchor="middle" x="1072.88" y="-174.12" font-family="Helvetica,sans-Serif" font-size="10.00">OSMutexQueue</text>
</a>
</g>
</g>
<!-- Node8&#45;&gt;Node13 -->
<g id="edge19_Node000013_Node000008" class="edge">
<title>Node8&#45;&gt;Node13</title>
<g id="a_edge19_Node000013_Node000008"><a xlink:title=" ">
<path fill="none" stroke="#9a32cd" stroke-dasharray="5,2" d="M929.45,-260.98C947.49,-256.4 968.82,-249.81 986.88,-241 1016.81,-226.39 1047.41,-201.45 1062.77,-188.08"/>
<polygon fill="#9a32cd" stroke="#9a32cd" points="928.78,-257.54 919.88,-263.29 930.42,-264.34 928.78,-257.54"/>
</a>
</g>
<text text-anchor="middle" x="1032.5" y="-231.5" font-family="Helvetica,sans-Serif" font-size="10.00" fill="grey"> head</text>
<text text-anchor="middle" x="1032.5" y="-220.25" font-family="Helvetica,sans-Serif" font-size="10.00" fill="grey">tail</text>
</g>
<!-- Node14 -->
<g id="Node000014" class="node">
<title>Node14</title>
<g id="a_Node000014"><a xlink:href="structOSMutexLink.html" target="_top" xlink:title=" ">
<polygon fill="white" stroke="#666666" points="1012.5,-187.62 937.25,-187.62 937.25,-168.38 1012.5,-168.38 1012.5,-187.62"/>
<text text-anchor="middle" x="974.88" y="-174.12" font-family="Helvetica,sans-Serif" font-size="10.00">OSMutexLink</text>
</a>
</g>
</g>
<!-- Node8&#45;&gt;Node14 -->
<g id="edge22_Node000014_Node000008" class="edge">
<title>Node8&#45;&gt;Node14</title>
<g id="a_edge22_Node000014_Node000008"><a xlink:title=" ">
<path fill="none" stroke="#9a32cd" stroke-dasharray="5,2" d="M929,-256.04C936.63,-252.11 944.06,-247.16 949.88,-241 964.38,-225.65 970.9,-200.79 973.45,-187.7"/>
<polygon fill="#9a32cd" stroke="#9a32cd" points="927.62,-252.82 919.97,-260.15 930.52,-259.19 927.62,-252.82"/>
</a>
</g>
<text text-anchor="middle" x="973" y="-231.5" font-family="Helvetica,sans-Serif" font-size="10.00" fill="grey"> next</text>
<text text-anchor="middle" x="973" y="-220.25" font-family="Helvetica,sans-Serif" font-size="10.00" fill="grey">prev</text>
</g>
<!-- Node9 -->
<g id="Node000009" class="node">
<title>Node9</title>
<g id="a_Node000009"><a xlink:href="structOSThreadQueue.html" target="_top" xlink:title=" ">
<polygon fill="white" stroke="#666666" points="774.25,-19.25 685.5,-19.25 685.5,0 774.25,0 774.25,-19.25"/>
<text text-anchor="middle" x="729.88" y="-5.75" font-family="Helvetica,sans-Serif" font-size="10.00">OSThreadQueue</text>
</a>
</g>
</g>
<!-- Node9&#45;&gt;Node8 -->
<g id="edge11_Node000008_Node000009" class="edge">
<title>Node9&#45;&gt;Node8</title>
<g id="a_edge11_Node000008_Node000009"><a xlink:title=" ">
<path fill="none" stroke="#9a32cd" stroke-dasharray="5,2" d="M721.25,-29.82C706.2,-66.53 679.98,-147.72 715.88,-200.5 748.66,-248.71 821.02,-263.11 861.33,-267.42"/>
<polygon fill="#9a32cd" stroke="#9a32cd" points="724.33,-31.52 725.06,-20.95 717.9,-28.76 724.33,-31.52"/>
</a>
</g>
<text text-anchor="middle" x="712.12" y="-122.38" font-family="Helvetica,sans-Serif" font-size="10.00" fill="grey"> queue</text>
</g>
<!-- Node9&#45;&gt;Node10 -->
<g id="edge14_Node000010_Node000009" class="edge">
<title>Node9&#45;&gt;Node10</title>
<g id="a_edge14_Node000010_Node000009"><a xlink:title=" ">
<path fill="none" stroke="#9a32cd" stroke-dasharray="5,2" d="M746.93,-27.4C757.66,-37.47 772.09,-50.13 786.12,-59.75 795.81,-66.38 807.35,-72.56 816.98,-77.29"/>
<polygon fill="#9a32cd" stroke="#9a32cd" points="749.61,-25.12 739.97,-20.73 744.77,-30.18 749.61,-25.12"/>
</a>
</g>
<text text-anchor="middle" x="810.25" y="-50.25" font-family="Helvetica,sans-Serif" font-size="10.00" fill="grey"> join_queue</text>
<text text-anchor="middle" x="810.25" y="-39" font-family="Helvetica,sans-Serif" font-size="10.00" fill="grey">queue</text>
</g>
<!-- Node10&#45;&gt;Node8 -->
<g id="edge20_Node000008_Node000010" class="edge">
<title>Node10&#45;&gt;Node8</title>
<g id="a_edge20_Node000008_Node000010"><a xlink:title=" ">
<path fill="none" stroke="#9a32cd" stroke-dasharray="5,2" d="M847.15,-107.36C853.9,-120.54 862.45,-138.68 867.88,-155.5 880.09,-193.41 886.57,-240.72 888.88,-260.22"/>
<polygon fill="#9a32cd" stroke="#9a32cd" points="850.27,-105.77 842.51,-98.55 844.07,-109.03 850.27,-105.77"/>
</a>
</g>
<text text-anchor="middle" x="893.5" y="-174.12" font-family="Helvetica,sans-Serif" font-size="10.00" fill="grey"> thread</text>
</g>
<!-- Node10&#45;&gt;Node9 -->
<g id="edge12_Node000009_Node000010" class="edge">
<title>Node10&#45;&gt;Node9</title>
<g id="a_edge12_Node000009_Node000010"><a xlink:title=" ">
<path fill="none" stroke="#9a32cd" stroke-dasharray="5,2" d="M795.2,-81.18C769.04,-76.97 738.78,-70.04 730.62,-59.75 721.62,-48.39 724.24,-30.45 727.02,-19.68"/>
<polygon fill="#9a32cd" stroke="#9a32cd" points="794.55,-84.62 804.96,-82.65 795.59,-77.7 794.55,-84.62"/>
</a>
</g>
<text text-anchor="middle" x="741.5" y="-50.25" font-family="Helvetica,sans-Serif" font-size="10.00" fill="grey"> head</text>
<text text-anchor="middle" x="741.5" y="-39" font-family="Helvetica,sans-Serif" font-size="10.00" fill="grey">tail</text>
</g>
<!-- Node12 -->
<g id="Node000012" class="node">
<title>Node12</title>
<g id="a_Node000012"><a xlink:href="structOSThreadLink.html" target="_top" xlink:title=" ">
<polygon fill="white" stroke="#666666" points="941.38,-19.25 862.38,-19.25 862.38,0 941.38,0 941.38,-19.25"/>
<text text-anchor="middle" x="901.88" y="-5.75" font-family="Helvetica,sans-Serif" font-size="10.00">OSThreadLink</text>
</a>
</g>
</g>
<!-- Node10&#45;&gt;Node12 -->
<g id="edge16_Node000012_Node000010" class="edge">
<title>Node10&#45;&gt;Node12</title>
<g id="a_edge16_Node000012_Node000010"><a xlink:title=" ">
<path fill="none" stroke="#9a32cd" stroke-dasharray="5,2" d="M878.65,-80.18C902.01,-75.77 927.81,-68.99 934.88,-59.75 940.95,-51.81 939.19,-46.27 934.88,-37.25 931.38,-29.94 924.8,-24 918.42,-19.6"/>
<polygon fill="#9a32cd" stroke="#9a32cd" points="878.2,-76.71 868.96,-81.89 879.42,-83.6 878.2,-76.71"/>
</a>
</g>
<text text-anchor="middle" x="948" y="-50.25" font-family="Helvetica,sans-Serif" font-size="10.00" fill="grey"> next</text>
<text text-anchor="middle" x="948" y="-39" font-family="Helvetica,sans-Serif" font-size="10.00" fill="grey">prev</text>
</g>
<!-- Node11 -->
<g id="Node000011" class="node">
<title>Node11</title>
<g id="a_Node000011"><a xlink:href="structOSContext.html" target="_top" xlink:title=" ">
<polygon fill="white" stroke="#666666" points="788.5,-187.62 725.25,-187.62 725.25,-168.38 788.5,-168.38 788.5,-187.62"/>
<text text-anchor="middle" x="756.88" y="-174.12" font-family="Helvetica,sans-Serif" font-size="10.00">OSContext</text>
</a>
</g>
</g>
<!-- Node11&#45;&gt;Node10 -->
<g id="edge13_Node000010_Node000011" class="edge">
<title>Node11&#45;&gt;Node10</title>
<g id="a_edge13_Node000010_Node000011"><a xlink:title=" ">
<path fill="none" stroke="#9a32cd" stroke-dasharray="5,2" d="M759.15,-157C761.6,-143.7 766.67,-126.6 777.12,-115 784.88,-106.4 795.94,-100.42 806.44,-96.35"/>
<polygon fill="#9a32cd" stroke="#9a32cd" points="755.7,-156.39 757.73,-166.79 762.63,-157.4 755.7,-156.39"/>
</a>
</g>
<text text-anchor="middle" x="793.75" y="-122.38" font-family="Helvetica,sans-Serif" font-size="10.00" fill="grey"> context</text>
</g>
<!-- Node12&#45;&gt;Node10 -->
<g id="edge15_Node000010_Node000012" class="edge">
<title>Node12&#45;&gt;Node10</title>
<g id="a_edge15_Node000010_Node000012"><a xlink:title=" ">
<path fill="none" stroke="#9a32cd" stroke-dasharray="5,2" d="M862.81,-25.01C857.45,-28.35 852.48,-32.39 848.62,-37.25 839.36,-48.93 837.22,-66.76 836.82,-77.42"/>
<polygon fill="#9a32cd" stroke="#9a32cd" points="864.2,-28.23 871.37,-20.43 860.9,-22.06 864.2,-28.23"/>
</a>
</g>
<text text-anchor="middle" x="891" y="-50.25" font-family="Helvetica,sans-Serif" font-size="10.00" fill="grey"> active_threads_link</text>
<text text-anchor="middle" x="891" y="-39" font-family="Helvetica,sans-Serif" font-size="10.00" fill="grey">link</text>
</g>
<!-- Node13&#45;&gt;Node10 -->
<g id="edge18_Node000010_Node000013" class="edge">
<title>Node13&#45;&gt;Node10</title>
<g id="a_edge18_Node000010_Node000013"><a xlink:title=" ">
<path fill="none" stroke="#9a32cd" stroke-dasharray="5,2" d="M1041.62,-163.53C1035.12,-160.81 1028.29,-158.02 1021.88,-155.5 965.73,-133.5 899.06,-109.93 863.07,-97.41"/>
<polygon fill="#9a32cd" stroke="#9a32cd" points="1040.16,-166.71 1050.74,-167.38 1042.89,-160.26 1040.16,-166.71"/>
</a>
</g>
<text text-anchor="middle" x="1007.25" y="-122.38" font-family="Helvetica,sans-Serif" font-size="10.00" fill="grey"> owned_mutexes</text>
</g>
<!-- Node14&#45;&gt;Node8 -->
<g id="edge21_Node000008_Node000014" class="edge">
<title>Node14&#45;&gt;Node8</title>
<g id="a_edge21_Node000008_Node000014"><a xlink:title=" ">
<path fill="none" stroke="#9a32cd" stroke-dasharray="5,2" d="M956.29,-195.49C948.75,-202.41 940.08,-210.65 932.62,-218.5 919.3,-232.53 905.05,-250 896.83,-260.36"/>
<polygon fill="#9a32cd" stroke="#9a32cd" points="958.28,-198.41 963.35,-189.11 953.59,-193.21 958.28,-198.41"/>
</a>
</g>
<text text-anchor="middle" x="940.5" y="-225.88" font-family="Helvetica,sans-Serif" font-size="10.00" fill="grey"> link</text>
</g>
<!-- Node15 -->
<g id="Node000015" class="node">
<title>Node15</title>
<g id="a_Node000015"><a xlink:href="classJSUTree.html" target="_top" xlink:title=" ">
<polygon fill="white" stroke="#666666" points="583.62,-279.88 470.12,-279.88 470.12,-260.62 583.62,-260.62 583.62,-279.88"/>
<text text-anchor="middle" x="526.88" y="-266.38" font-family="Helvetica,sans-Serif" font-size="10.00">JSUTree&lt; JKRHeap &gt;</text>
</a>
</g>
</g>
<!-- Node15&#45;&gt;Node7 -->
<g id="edge23_Node000007_Node000015" class="edge">
<title>Node15&#45;&gt;Node7</title>
<g id="a_edge23_Node000007_Node000015"><a xlink:title=" ">
<path fill="none" stroke="#9a32cd" stroke-dasharray="5,2" d="M526.88,-248.92C526.88,-229.8 526.88,-202.05 526.88,-187.95"/>
<polygon fill="#9a32cd" stroke="#9a32cd" points="523.38,-248.75 526.88,-258.75 530.38,-248.75 523.38,-248.75"/>
</a>
</g>
<text text-anchor="middle" x="552.75" y="-225.88" font-family="Helvetica,sans-Serif" font-size="10.00" fill="grey"> mChildTree</text>
</g>
<!-- Node16 -->
<g id="Node000016" class="node">
<title>Node16</title>
<g id="a_Node000016"><a xlink:href="classJSUList.html" target="_top" xlink:title=" ">
<polygon fill="white" stroke="#666666" points="574.12,-422.25 499.62,-422.25 499.62,-403 574.12,-403 574.12,-422.25"/>
<text text-anchor="middle" x="536.88" y="-408.75" font-family="Helvetica,sans-Serif" font-size="10.00">JSUList&lt; T &gt;</text>
</a>
</g>
</g>
<!-- Node16&#45;&gt;Node15 -->
<g id="edge24_Node000015_Node000016" class="edge">
<title>Node16&#45;&gt;Node15</title>
<g id="a_edge24_Node000015_Node000016"><a xlink:title=" ">
<path fill="none" stroke="#63b8ff" d="M551.14,-393.47C552.67,-390.76 553.99,-387.89 554.88,-385 557.8,-375.44 556.36,-372.39 554.88,-362.5 550.23,-331.53 537.18,-296.55 530.67,-280.36"/>
<polygon fill="#63b8ff" stroke="#63b8ff" points="548.27,-391.48 545.53,-401.71 554.05,-395.42 548.27,-391.48"/>
</a>
</g>
</g>
<!-- Node17 -->
<g id="Node000017" class="node">
<title>Node17</title>
<g id="a_Node000017"><a xlink:href="classJSUPtrList.html" target="_top" xlink:title=" ">
<polygon fill="white" stroke="#666666" points="570.25,-540.5 505.5,-540.5 505.5,-521.25 570.25,-521.25 570.25,-540.5"/>
<text text-anchor="middle" x="537.88" y="-527" font-family="Helvetica,sans-Serif" font-size="10.00">JSUPtrList</text>
</a>
</g>
</g>
<!-- Node17&#45;&gt;Node16 -->
<g id="edge25_Node000016_Node000017" class="edge">
<title>Node17&#45;&gt;Node16</title>
<g id="a_edge25_Node000016_Node000017"><a xlink:title=" ">
<path fill="none" stroke="#63b8ff" d="M547.73,-510.48C548.61,-508.1 549.36,-505.65 549.88,-503.25 552.54,-490.84 546.95,-440.6 546.88,-440.25 545.52,-434.08 543.02,-427.42 540.86,-422.31"/>
<polygon fill="#63b8ff" stroke="#63b8ff" points="544.6,-508.9 543.72,-519.46 551,-511.76 544.6,-508.9"/>
</a>
</g>
</g>
<!-- Node18 -->
<g id="Node000018" class="node">
<title>Node18</title>
<g id="a_Node000018"><a xlink:href="classJSUPtrLink.html" target="_top" xlink:title=" ">
<polygon fill="white" stroke="#666666" points="489.38,-461.12 422.38,-461.12 422.38,-441.88 489.38,-441.88 489.38,-461.12"/>
<text text-anchor="middle" x="455.88" y="-447.62" font-family="Helvetica,sans-Serif" font-size="10.00">JSUPtrLink</text>
</a>
</g>
</g>
<!-- Node17&#45;&gt;Node18 -->
<g id="edge27_Node000018_Node000017" class="edge">
<title>Node17&#45;&gt;Node18</title>
<g id="a_edge27_Node000018_Node000017"><a xlink:title=" ">
<path fill="none" stroke="#9a32cd" stroke-dasharray="5,2" d="M494.12,-524.72C480.77,-520.91 467.39,-514.39 458.88,-503.25 449.66,-491.19 451.47,-472.42 453.66,-461.41"/>
<polygon fill="#9a32cd" stroke="#9a32cd" points="493.21,-528.1 503.74,-526.97 494.8,-521.28 493.21,-528.1"/>
</a>
</g>
<text text-anchor="middle" x="472.38" y="-488.12" font-family="Helvetica,sans-Serif" font-size="10.00" fill="grey"> mList</text>
</g>
<!-- Node20 -->
<g id="Node000020" class="node">
<title>Node20</title>
<g id="a_Node000020"><a xlink:href="classJSUList.html" target="_top" xlink:title=" ">
<polygon fill="white" stroke="#666666" points="704.62,-422.25 579.12,-422.25 579.12,-403 704.62,-403 704.62,-422.25"/>
<text text-anchor="middle" x="641.88" y="-408.75" font-family="Helvetica,sans-Serif" font-size="10.00">JSUList&lt; JKRDisposer &gt;</text>
</a>
</g>
</g>
<!-- Node17&#45;&gt;Node20 -->
<g id="edge32_Node000020_Node000017" class="edge">
<title>Node17&#45;&gt;Node20</title>
<g id="a_edge32_Node000020_Node000017"><a xlink:title=" ">
<path fill="none" stroke="#63b8ff" d="M554.53,-513.11C557.67,-509.87 560.9,-506.48 563.88,-503.25 590.44,-474.44 620.54,-439.02 634.29,-422.68"/>
<polygon fill="#63b8ff" stroke="#63b8ff" points="552.24,-510.45 547.73,-520.04 557.23,-515.35 552.24,-510.45"/>
</a>
</g>
</g>
<!-- Node18&#45;&gt;Node17 -->
<g id="edge26_Node000017_Node000018" class="edge">
<title>Node18&#45;&gt;Node17</title>
<g id="a_edge26_Node000017_Node000018"><a xlink:title=" ">
<path fill="none" stroke="#9a32cd" stroke-dasharray="5,2" d="M475.73,-468.41C480.45,-472.35 485.41,-476.63 489.88,-480.75 504.42,-494.17 520.29,-510.84 529.64,-520.91"/>
<polygon fill="#9a32cd" stroke="#9a32cd" points="478.27,-465.97 468.32,-462.34 473.83,-471.38 478.27,-465.97"/>
</a>
</g>
<text text-anchor="middle" x="528.75" y="-493.75" font-family="Helvetica,sans-Serif" font-size="10.00" fill="grey"> mHead</text>
<text text-anchor="middle" x="528.75" y="-482.5" font-family="Helvetica,sans-Serif" font-size="10.00" fill="grey">mTail</text>
</g>
<!-- Node18&#45;&gt;Node18 -->
<g id="edge28_Node000018_Node000018" class="edge">
<title>Node18&#45;&gt;Node18</title>
<g id="a_edge28_Node000018_Node000018"><a xlink:title=" ">
<path fill="none" stroke="#9a32cd" stroke-dasharray="5,2" d="M500.63,-457.32C504.77,-456.12 507.38,-454.18 507.38,-451.5 507.38,-446.87 499.58,-444.44 489.56,-444.23"/>
<polygon fill="#9a32cd" stroke="#9a32cd" points="500.52,-453.8 491.06,-458.58 501.43,-460.75 500.52,-453.8"/>
</a>
</g>
<text text-anchor="middle" x="522.75" y="-453.25" font-family="Helvetica,sans-Serif" font-size="10.00" fill="grey"> mNext</text>
<text text-anchor="middle" x="522.75" y="-442" font-family="Helvetica,sans-Serif" font-size="10.00" fill="grey">mPrev</text>
</g>
<!-- Node19 -->
<g id="Node000019" class="node">
<title>Node19</title>
<g id="a_Node000019"><a xlink:href="classJSULink.html" target="_top" xlink:title=" ">
<polygon fill="white" stroke="#666666" points="546.25,-383.38 469.5,-383.38 469.5,-364.12 546.25,-364.12 546.25,-383.38"/>
<text text-anchor="middle" x="507.88" y="-369.88" font-family="Helvetica,sans-Serif" font-size="10.00">JSULink&lt; T &gt;</text>
</a>
</g>
</g>
<!-- Node18&#45;&gt;Node19 -->
<g id="edge30_Node000019_Node000018" class="edge">
<title>Node18&#45;&gt;Node19</title>
<g id="a_edge30_Node000019_Node000018"><a xlink:title=" ">
<path fill="none" stroke="#63b8ff" d="M468.26,-432.46C478.81,-417.1 493.51,-395.68 501.71,-383.73"/>
<polygon fill="#63b8ff" stroke="#63b8ff" points="465.67,-430.04 462.9,-440.27 471.45,-434 465.67,-430.04"/>
</a>
</g>
</g>
<!-- Node21 -->
<g id="Node000021" class="node">
<title>Node21</title>
<g id="a_Node000021"><a xlink:href="classJSULink.html" target="_top" xlink:title=" ">
<polygon fill="white" stroke="#666666" points="451.75,-383.38 324,-383.38 324,-364.12 451.75,-364.12 451.75,-383.38"/>
<text text-anchor="middle" x="387.88" y="-369.88" font-family="Helvetica,sans-Serif" font-size="10.00">JSULink&lt; JKRDisposer &gt;</text>
</a>
</g>
</g>
<!-- Node18&#45;&gt;Node21 -->
<g id="edge35_Node000021_Node000018" class="edge">
<title>Node18&#45;&gt;Node21</title>
<g id="a_edge35_Node000021_Node000018"><a xlink:title=" ">
<path fill="none" stroke="#63b8ff" d="M440.46,-433.33C426.62,-417.92 406.87,-395.91 395.93,-383.73"/>
<polygon fill="#63b8ff" stroke="#63b8ff" points="437.51,-435.28 446.8,-440.39 442.72,-430.61 437.51,-435.28"/>
</a>
</g>
</g>
<!-- Node19&#45;&gt;Node15 -->
<g id="edge29_Node000015_Node000019" class="edge">
<title>Node19&#45;&gt;Node15</title>
<g id="a_edge29_Node000015_Node000019"><a xlink:title=" ">
<path fill="none" stroke="#63b8ff" d="M511.63,-352.69C515.76,-330.63 522.21,-296.18 525.22,-280.09"/>
<polygon fill="#63b8ff" stroke="#63b8ff" points="508.24,-351.78 509.84,-362.25 515.12,-353.07 508.24,-351.78"/>
</a>
</g>
</g>
<!-- Node20&#45;&gt;Node7 -->
<g id="edge31_Node000007_Node000020" class="edge">
<title>Node20&#45;&gt;Node7</title>
<g id="a_edge31_Node000007_Node000020"><a xlink:title=" ">
<path fill="none" stroke="#9a32cd" stroke-dasharray="5,2" d="M640.02,-391.34C635.72,-353.91 622.22,-272.87 582.88,-218.5 573.32,-205.3 557.95,-194.91 545.73,-188.11"/>
<polygon fill="#9a32cd" stroke="#9a32cd" points="636.52,-391.55 641.03,-401.14 643.48,-390.83 636.52,-391.55"/>
</a>
</g>
<text text-anchor="middle" x="664.5" y="-318.12" font-family="Helvetica,sans-Serif" font-size="10.00" fill="grey"> mDisposerList</text>
</g>
<!-- Node21&#45;&gt;Node6 -->
<g id="edge34_Node000006_Node000021" class="edge">
<title>Node21&#45;&gt;Node6</title>
<g id="a_edge34_Node000006_Node000021"><a xlink:title=" ">
<path fill="none" stroke="#9a32cd" stroke-dasharray="5,2" d="M393.41,-352.69C399.49,-330.63 409,-296.18 413.44,-280.09"/>
<polygon fill="#9a32cd" stroke="#9a32cd" points="390.05,-351.71 390.76,-362.28 396.8,-353.57 390.05,-351.71"/>
</a>
</g>
<text text-anchor="middle" x="421.5" y="-318.12" font-family="Helvetica,sans-Serif" font-size="10.00" fill="grey"> mLink</text>
</g>
<!-- Node22 -->
<g id="Node000022" class="node">
<title>Node22</title>
<g id="a_Node000022"><a xlink:href="classJUTFont.html" target="_top" xlink:title=" ">
<polygon fill="white" stroke="#666666" points="280,-279.88 225.75,-279.88 225.75,-260.62 280,-260.62 280,-279.88"/>
<text text-anchor="middle" x="252.88" y="-266.38" font-family="Helvetica,sans-Serif" font-size="10.00">JUTFont</text>
</a>
</g>
</g>
<!-- Node22&#45;&gt;Node5 -->
<g id="edge37_Node000005_Node000022" class="edge">
<title>Node22&#45;&gt;Node5</title>
<g id="a_edge37_Node000005_Node000022"><a xlink:title=" ">
<path fill="none" stroke="#9a32cd" stroke-dasharray="5,2" d="M252.88,-248.92C252.88,-229.8 252.88,-202.05 252.88,-187.95"/>
<polygon fill="#9a32cd" stroke="#9a32cd" points="249.38,-248.75 252.88,-258.75 256.38,-248.75 249.38,-248.75"/>
</a>
</g>
<text text-anchor="middle" x="267.88" y="-225.88" font-family="Helvetica,sans-Serif" font-size="10.00" fill="grey"> mFont</text>
</g>
<!-- Node23 -->
<g id="Node000023" class="node">
<title>Node23</title>
<g id="a_Node000023"><a xlink:href="structJUtility_1_1TColor.html" target="_top" xlink:title=" ">
<polygon fill="white" stroke="#666666" points="305.38,-383.38 226.38,-383.38 226.38,-364.12 305.38,-364.12 305.38,-383.38"/>
<text text-anchor="middle" x="265.88" y="-369.88" font-family="Helvetica,sans-Serif" font-size="10.00">JUtility::TColor</text>
</a>
</g>
</g>
<!-- Node23&#45;&gt;Node5 -->
<g id="edge40_Node000005_Node000023" class="edge">
<title>Node23&#45;&gt;Node5</title>
<g id="a_edge40_Node000005_Node000023"><a xlink:title=" ">
<path fill="none" stroke="#9a32cd" stroke-dasharray="5,2" d="M292.16,-356.94C296.09,-353.37 299.58,-349.21 301.88,-344.5 310.62,-326.51 303.7,-319.42 301.88,-299.5 298.53,-263.04 302.7,-251.52 286.88,-218.5 281.17,-206.59 270.91,-195.41 263.15,-188.01"/>
<polygon fill="#9a32cd" stroke="#9a32cd" points="290.17,-354.05 284.36,-362.91 294.43,-359.61 290.17,-354.05"/>
</a>
</g>
<text text-anchor="middle" x="322.38" y="-272" font-family="Helvetica,sans-Serif" font-size="10.00" fill="grey"> field_0x5c</text>
<text text-anchor="middle" x="322.38" y="-260.75" font-family="Helvetica,sans-Serif" font-size="10.00" fill="grey">field_0x60</text>
</g>
<!-- Node23&#45;&gt;Node22 -->
<g id="edge38_Node000022_Node000023" class="edge">
<title>Node23&#45;&gt;Node22</title>
<g id="a_edge38_Node000022_Node000023"><a xlink:title=" ">
<path fill="none" stroke="#9a32cd" stroke-dasharray="5,2" d="M263.27,-352.38C260.44,-330.31 256.06,-296.11 254.01,-280.09"/>
<polygon fill="#9a32cd" stroke="#9a32cd" points="259.79,-352.77 264.53,-362.24 266.73,-351.88 259.79,-352.77"/>
</a>
</g>
<text text-anchor="middle" x="281" y="-335" font-family="Helvetica,sans-Serif" font-size="10.00" fill="grey"> mColor1</text>
<text text-anchor="middle" x="281" y="-323.75" font-family="Helvetica,sans-Serif" font-size="10.00" fill="grey">mColor2</text>
<text text-anchor="middle" x="281" y="-312.5" font-family="Helvetica,sans-Serif" font-size="10.00" fill="grey">mColor3</text>
<text text-anchor="middle" x="281" y="-301.25" font-family="Helvetica,sans-Serif" font-size="10.00" fill="grey">mColor4</text>
</g>
<!-- Node24 -->
<g id="Node000024" class="node">
<title>Node24</title>
<g id="a_Node000024"><a xlink:href="struct__GXColor.html" target="_top" xlink:title=" ">
<polygon fill="white" stroke="#666666" points="292.25,-461.12 239.5,-461.12 239.5,-441.88 292.25,-441.88 292.25,-461.12"/>
<text text-anchor="middle" x="265.88" y="-447.62" font-family="Helvetica,sans-Serif" font-size="10.00">GXColor</text>
</a>
</g>
</g>
<!-- Node24&#45;&gt;Node23 -->
<g id="edge39_Node000023_Node000024" class="edge">
<title>Node24&#45;&gt;Node23</title>
<g id="a_edge39_Node000023_Node000024"><a xlink:title=" ">
<path fill="none" stroke="#63b8ff" d="M265.88,-430.22C265.88,-415.08 265.88,-395.11 265.88,-383.73"/>
<polygon fill="#63b8ff" stroke="#63b8ff" points="262.38,-430 265.88,-440 269.38,-430 262.38,-430"/>
</a>
</g>
</g>
</g>
</svg>

<g id="navigator" transform="translate(0 0)" fill="#404254">
  <rect fill="#f2f5e9" fill-opacity="0.5" stroke="#606060" stroke-width=".5" x="0" y="0" width="60" height="60"/>
  <use id="zoomplus" xlink:href="#zoomPlus" x="17" y="9" onmousedown="handleZoom(evt,'in')"/>
  <use id="zoomminus" xlink:href="#zoomMin" x="42" y="9" onmousedown="handleZoom(evt,'out')"/>
  <use id="reset" xlink:href="#resetDef" x="30" y="36" onmousedown="handleReset()"/>
   <use id="arrowup" xlink:href="#arrowUp" x="0" y="0" onmousedown="handlePan(0,-1)"/>
  <use id="arrowright" xlink:href="#arrowRight" x="0" y="0" onmousedown="handlePan(1,0)"/>
  <use id="arrowdown" xlink:href="#arrowDown" x="0" y="0" onmousedown="handlePan(0,1)"/>
  <use id="arrowleft" xlink:href="#arrowLeft" x="0" y="0" onmousedown="handlePan(-1,0)"/>
</g>
<svg viewBox="0 0 15 15" width="100%" height="30px" preserveAspectRatio="xMaxYMin meet">
 <g id="arrow_out" transform="scale(0.3 0.3)">
  <a xlink:href="classJUTConsoleManager__coll__graph_org.svg" target="_base">
   <rect id="button" ry="5" rx="5" y="6" x="6" height="38" width="38"
        fill="#f2f5e9" fill-opacity="0.5" stroke="#606060" stroke-width="1.0"/>
   <path id="arrow"
     d="M 11.500037,31.436501 C 11.940474,20.09759 22.043105,11.32322 32.158766,21.979434 L 37.068811,17.246167 C 37.068811,17.246167 37.088388,32 37.088388,32 L 22.160133,31.978069 C 22.160133,31.978069 26.997745,27.140456 26.997745,27.140456 C 18.528582,18.264221 13.291696,25.230495 11.500037,31.436501 z"
     style="fill:#404040;"/>
  </a>
 </g>
</svg>

<style type='text/css'>
<![CDATA[
[data-mouse-over-selected='false'] { opacity: 0.7; }
[data-mouse-over-selected='true']  { opacity: 1.0; }
]]>
</style>
<script type="application/ecmascript"><![CDATA[
document.addEventListener('DOMContentLoaded', (event) => {
  highlightEdges();
  highlightAdjacentNodes();
});
]]></script>
</svg>
