<?xml version="1.0" encoding="UTF-8" standalone="no"?>
<!DOCTYPE svg PUBLIC "-//W3C//DTD SVG 1.1//EN"
 "http://www.w3.org/Graphics/SVG/1.1/DTD/svg11.dtd">
<!-- Generated by graphviz version 9.0.0 (20230911.1827)
 -->
<!-- Title: daItemBase_c Pages: 1 -->
<svg width="369pt" height="193pt"
 viewBox="0.00 0.00 368.62 193.00" xmlns="http://www.w3.org/2000/svg" xmlns:xlink="http://www.w3.org/1999/xlink">

<svg id="main" version="1.1" xmlns="http://www.w3.org/2000/svg" xmlns:xlink="http://www.w3.org/1999/xlink" xml:space="preserve" onload="init(evt)">
<style type="text/css"><![CDATA[
.node, .edge {opacity: 0.7;}
.node.selected, .edge.selected {opacity: 1;}
.edge:hover path { stroke: red; }
.edge:hover polygon { stroke: red; fill: red; }
]]></style>
<script type="application/ecmascript" xlink:href="svg.min.js"/>
<svg id="graph" class="graph">
<g id="graph0" class="graph" transform="scale(1 1) rotate(0) translate(4 189)">
<title>daItemBase_c</title>
<!-- Node1 -->
<g id="Node000001" class="node">
<title>Node1</title>
<g id="a_Node000001"><a xlink:title=" ">
<polygon fill="#999999" stroke="#666666" points="218.62,-74.5 139.62,-74.5 139.62,-55.25 218.62,-55.25 218.62,-74.5"/>
<text text-anchor="middle" x="179.12" y="-61" font-family="Helvetica,sans-Serif" font-size="10.00">daItemBase_c</text>
</a>
</g>
</g>
<!-- Node4 -->
<g id="Node000004" class="node">
<title>Node4</title>
<g id="a_Node000004"><a xlink:href="classdaItemKantera__c.html" target="_top" xlink:title="Lantern.">
<polygon fill="white" stroke="#666666" points="90.25,-19.25 0,-19.25 0,0 90.25,0 90.25,-19.25"/>
<text text-anchor="middle" x="45.12" y="-5.75" font-family="Helvetica,sans-Serif" font-size="10.00">daItemKantera_c</text>
</a>
</g>
</g>
<!-- Node1&#45;&gt;Node4 -->
<g id="edge3_Node000001_Node000004" class="edge">
<title>Node1&#45;&gt;Node4</title>
<g id="a_edge3_Node000001_Node000004"><a xlink:title=" ">
<path fill="none" stroke="#63b8ff" d="M145.88,-50.66C121.62,-41.02 89.37,-28.21 67.97,-19.7"/>
<polygon fill="#63b8ff" stroke="#63b8ff" points="144.4,-53.84 154.99,-54.28 146.99,-47.34 144.4,-53.84"/>
</a>
</g>
</g>
<!-- Node5 -->
<g id="Node000005" class="node">
<title>Node5</title>
<g id="a_Node000005"><a xlink:href="classdaItem__c.html" target="_top" xlink:title=" ">
<polygon fill="white" stroke="#666666" points="164.38,-19.25 107.88,-19.25 107.88,0 164.38,0 164.38,-19.25"/>
<text text-anchor="middle" x="136.12" y="-5.75" font-family="Helvetica,sans-Serif" font-size="10.00">daItem_c</text>
</a>
</g>
</g>
<!-- Node1&#45;&gt;Node5 -->
<g id="edge4_Node000001_Node000005" class="edge">
<title>Node1&#45;&gt;Node5</title>
<g id="a_edge4_Node000001_Node000005"><a xlink:title=" ">
<path fill="none" stroke="#63b8ff" d="M164.87,-46.22C157.67,-37.31 149.24,-26.87 143.38,-19.61"/>
<polygon fill="#63b8ff" stroke="#63b8ff" points="162.07,-48.32 171.07,-53.9 167.51,-43.93 162.07,-48.32"/>
</a>
</g>
</g>
<!-- Node6 -->
<g id="Node000006" class="node">
<title>Node6</title>
<g id="a_Node000006"><a xlink:href="classdaObjZCloth__c.html" target="_top" xlink:title="Zora Armor?">
<polygon fill="white" stroke="#666666" points="263.38,-19.25 182.88,-19.25 182.88,0 263.38,0 263.38,-19.25"/>
<text text-anchor="middle" x="223.12" y="-5.75" font-family="Helvetica,sans-Serif" font-size="10.00">daObjZCloth_c</text>
</a>
</g>
</g>
<!-- Node1&#45;&gt;Node6 -->
<g id="edge5_Node000001_Node000006" class="edge">
<title>Node1&#45;&gt;Node6</title>
<g id="a_edge5_Node000001_Node000006"><a xlink:title=" ">
<path fill="none" stroke="#63b8ff" d="M193.71,-46.22C201.08,-37.31 209.7,-26.87 215.7,-19.61"/>
<polygon fill="#63b8ff" stroke="#63b8ff" points="191.03,-43.98 187.35,-53.92 196.42,-48.44 191.03,-43.98"/>
</a>
</g>
</g>
<!-- Node7 -->
<g id="Node000007" class="node">
<title>Node7</title>
<g id="a_Node000007"><a xlink:href="classdaShopItem__c.html" target="_top" xlink:title=" ">
<polygon fill="white" stroke="#666666" points="360.62,-19.25 281.62,-19.25 281.62,0 360.62,0 360.62,-19.25"/>
<text text-anchor="middle" x="321.12" y="-5.75" font-family="Helvetica,sans-Serif" font-size="10.00">daShopItem_c</text>
</a>
</g>
</g>
<!-- Node1&#45;&gt;Node7 -->
<g id="edge6_Node000001_Node000007" class="edge">
<title>Node1&#45;&gt;Node7</title>
<g id="a_edge6_Node000001_Node000007"><a xlink:title=" ">
<path fill="none" stroke="#63b8ff" d="M213.66,-50.92C239.45,-41.25 274.03,-28.29 296.92,-19.7"/>
<polygon fill="#63b8ff" stroke="#63b8ff" points="212.76,-47.52 204.63,-54.31 215.22,-54.08 212.76,-47.52"/>
</a>
</g>
</g>
<!-- Node2 -->
<g id="Node000002" class="node">
<title>Node2</title>
<g id="a_Node000002"><a xlink:href="structfopAc__ac__c.html" target="_top" xlink:title=" ">
<polygon fill="white" stroke="#666666" points="213,-129.75 145.25,-129.75 145.25,-110.5 213,-110.5 213,-129.75"/>
<text text-anchor="middle" x="179.12" y="-116.25" font-family="Helvetica,sans-Serif" font-size="10.00">fopAc_ac_c</text>
</a>
</g>
</g>
<!-- Node2&#45;&gt;Node1 -->
<g id="edge1_Node000001_Node000002" class="edge">
<title>Node2&#45;&gt;Node1</title>
<g id="a_edge1_Node000001_Node000002"><a xlink:title=" ">
<path fill="none" stroke="#63b8ff" d="M179.12,-98.88C179.12,-90.59 179.12,-81.42 179.12,-74.86"/>
<polygon fill="#63b8ff" stroke="#63b8ff" points="175.63,-98.82 179.13,-108.82 182.63,-98.82 175.63,-98.82"/>
</a>
</g>
</g>
<!-- Node3 -->
<g id="Node000003" class="node">
<title>Node3</title>
<g id="a_Node000003"><a xlink:href="structleafdraw__class.html" target="_top" xlink:title=" ">
<polygon fill="white" stroke="#666666" points="219.75,-185 138.5,-185 138.5,-165.75 219.75,-165.75 219.75,-185"/>
<text text-anchor="middle" x="179.12" y="-171.5" font-family="Helvetica,sans-Serif" font-size="10.00">leafdraw_class</text>
</a>
</g>
</g>
<!-- Node3&#45;&gt;Node2 -->
<g id="edge2_Node000002_Node000003" class="edge">
<title>Node3&#45;&gt;Node2</title>
<g id="a_edge2_Node000002_Node000003"><a xlink:title=" ">
<path fill="none" stroke="#63b8ff" d="M179.12,-154.13C179.12,-145.84 179.12,-136.67 179.12,-130.11"/>
<polygon fill="#63b8ff" stroke="#63b8ff" points="175.63,-154.07 179.13,-164.07 182.63,-154.07 175.63,-154.07"/>
</a>
</g>
</g>
</g>
</svg>
</svg>

<style type='text/css'>
<![CDATA[
[data-mouse-over-selected='false'] { opacity: 0.7; }
[data-mouse-over-selected='true']  { opacity: 1.0; }
]]>
</style>
<script type="application/ecmascript"><![CDATA[
document.addEventListener('DOMContentLoaded', (event) => {
  highlightEdges();
  highlightAdjacentNodes();
});
]]></script>
</svg>
