<?xml version="1.0" encoding="UTF-8" standalone="no"?>
<!DOCTYPE svg PUBLIC "-//W3C//DTD SVG 1.1//EN"
 "http://www.w3.org/Graphics/SVG/1.1/DTD/svg11.dtd">
<!-- Generated by graphviz version 9.0.0 (20230911.1827)
 -->
<!-- Title: dDlst_blo_c Pages: 1 -->
<!--zoomable 515 -->

<svg id="main" version="1.1" xmlns="http://www.w3.org/2000/svg" xmlns:xlink="http://www.w3.org/1999/xlink" xml:space="preserve" onload="init(evt)">
<style type="text/css"><![CDATA[
.node, .edge {opacity: 0.7;}
.node.selected, .edge.selected {opacity: 1;}
.edge:hover path { stroke: red; }
.edge:hover polygon { stroke: red; fill: red; }
]]></style>

<defs>
  <circle id="rim" cx="0" cy="0" r="7"/>
  <circle id="rim2" cx="0" cy="0" r="3.5"/>
  <g id="zoomPlus">
    <use xlink:href="#rim" fill="#404040"><set attributeName="fill" to="#808080" begin="zoomplus.mouseover" end="zoomplus.mouseout"/></use>
    <path d="M-4,0h8M0,-4v8" fill="none" stroke="white" stroke-width="1.5" pointer-events="none"/>
  </g>
  <g id="zoomMin">
    <use xlink:href="#rim" fill="#404040"><set attributeName="fill" to="#808080" begin="zoomminus.mouseover" end="zoomminus.mouseout"/></use>
    <path d="M-4,0h8" fill="none" stroke="white" stroke-width="1.5" pointer-events="none"/>
  </g>
  <g id="arrowUp" transform="translate(30 24)">
    <use xlink:href="#rim"/>
    <path pointer-events="none" fill="none" stroke="white" stroke-width="1.5" d="M0,-3.0v7 M-2.5,-0.5L0,-3.0L2.5,-0.5"/>
  </g>
  <g id="arrowRight" transform="rotate(90) translate(36 -43)">
    <use xlink:href="#rim"/>
    <path pointer-events="none" fill="none" stroke="white" stroke-width="1.5" d="M0,-3.0v7 M-2.5,-0.5L0,-3.0L2.5,-0.5"/>
  </g>
  <g id="arrowDown" transform="rotate(180) translate(-30 -48)">
    <use xlink:href="#rim"/>
    <path pointer-events="none" fill="none" stroke="white" stroke-width="1.5" d="M0,-3.0v7 M-2.5,-0.5L0,-3.0L2.5,-0.5"/>
  </g>
  <g id="arrowLeft" transform="rotate(270) translate(-36 17)">
    <use xlink:href="#rim"/>
    <path pointer-events="none" fill="none" stroke="white" stroke-width="1.5" d="M0,-3.0v7 M-2.5,-0.5L0,-3.0L2.5,-0.5"/>
  </g>
  <g id="resetDef">
    <use xlink:href="#rim2" fill="#404040"><set attributeName="fill" to="#808080" begin="reset.mouseover" end="reset.mouseout"/></use>
  </g>
</defs>
<script type="application/ecmascript">
var viewWidth = 1275;
var viewHeight = 515;
var sectionId = 'dynsection-1';
</script>
<script type="application/ecmascript" xlink:href="svg.min.js"/>
<svg id="graph" class="graph">
<g id="viewport">
<title>dDlst_blo_c</title>
<!-- Node1 -->
<g id="Node000001" class="node">
<title>Node1</title>
<g id="a_Node000001"><a xlink:title=" ">
<polygon fill="#999999" stroke="#666666" points="1267.25,-217.25 1200.25,-217.25 1200.25,-198 1267.25,-198 1267.25,-217.25"/>
<text text-anchor="middle" x="1233.75" y="-203.75" font-family="Helvetica,sans-Serif" font-size="10.00">dDlst_blo_c</text>
</a>
</g>
</g>
<!-- Node2 -->
<g id="Node000002" class="node">
<title>Node2</title>
<g id="a_Node000002"><a xlink:href="classdDlst__base__c.html" target="_top" xlink:title=" ">
<polygon fill="white" stroke="#666666" points="1123,-235.25 1047.75,-235.25 1047.75,-216 1123,-216 1123,-235.25"/>
<text text-anchor="middle" x="1085.38" y="-221.75" font-family="Helvetica,sans-Serif" font-size="10.00">dDlst_base_c</text>
</a>
</g>
</g>
<!-- Node2&#45;&gt;Node1 -->
<g id="edge1_Node000001_Node000002" class="edge">
<title>Node2&#45;&gt;Node1</title>
<g id="a_edge1_Node000001_Node000002"><a xlink:title=" ">
<path fill="none" stroke="#63b8ff" d="M1134.49,-219.71C1155.9,-217.08 1180.56,-214.04 1199.82,-211.67"/>
<polygon fill="#63b8ff" stroke="#63b8ff" points="1134.31,-216.2 1124.81,-220.9 1135.17,-223.15 1134.31,-216.2"/>
</a>
</g>
</g>
<!-- Node3 -->
<g id="Node000003" class="node">
<title>Node3</title>
<g id="a_Node000003"><a xlink:href="structJ2DScreen.html" target="_top" xlink:title=" ">
<polygon fill="white" stroke="#666666" points="1117.38,-198.25 1053.38,-198.25 1053.38,-179 1117.38,-179 1117.38,-198.25"/>
<text text-anchor="middle" x="1085.38" y="-184.75" font-family="Helvetica,sans-Serif" font-size="10.00">J2DScreen</text>
</a>
</g>
</g>
<!-- Node3&#45;&gt;Node1 -->
<g id="edge2_Node000001_Node000003" class="edge">
<title>Node3&#45;&gt;Node1</title>
<g id="a_edge2_Node000001_Node000003"><a xlink:title=" ">
<path fill="none" stroke="#9a32cd" stroke-dasharray="5,2" d="M1128.64,-192.19C1145.37,-193.79 1164.75,-195.89 1182.25,-198.38 1187.99,-199.19 1194.06,-200.19 1199.94,-201.22"/>
<polygon fill="#9a32cd" stroke="#9a32cd" points="1129.33,-188.74 1119.05,-191.3 1128.68,-195.71 1129.33,-188.74"/>
</a>
</g>
<text text-anchor="middle" x="1161.62" y="-199.38" font-family="Helvetica,sans-Serif" font-size="10.00" fill="grey"> mScreen</text>
</g>
<!-- Node4 -->
<g id="Node000004" class="node">
<title>Node4</title>
<g id="a_Node000004"><a xlink:href="classJ2DPane.html" target="_top" xlink:title=" ">
<polygon fill="white" stroke="#666666" points="927,-425.25 871.25,-425.25 871.25,-406 927,-406 927,-425.25"/>
<text text-anchor="middle" x="899.12" y="-411.75" font-family="Helvetica,sans-Serif" font-size="10.00">J2DPane</text>
</a>
</g>
</g>
<!-- Node4&#45;&gt;Node3 -->
<g id="edge3_Node000003_Node000004" class="edge">
<title>Node4&#45;&gt;Node3</title>
<g id="a_edge3_Node000003_Node000004"><a xlink:title=" ">
<path fill="none" stroke="#63b8ff" d="M930.7,-400.3C961.01,-383.4 1006.23,-353.28 1029.75,-313.62 1054.35,-272.15 1018.94,-245.3 1047.75,-206.62 1050.12,-203.44 1053.21,-200.79 1056.58,-198.59"/>
<polygon fill="#63b8ff" stroke="#63b8ff" points="929.13,-397.17 921.99,-405 932.46,-403.33 929.13,-397.17"/>
</a>
</g>
</g>
<!-- Node5 -->
<g id="Node000005" class="node">
<title>Node5</title>
<g id="a_Node000005"><a xlink:href="structJGeometry_1_1TBox2.html" target="_top" xlink:title=" ">
<polygon fill="white" stroke="#666666" points="745.25,-490.25 619.75,-490.25 619.75,-471 745.25,-471 745.25,-490.25"/>
<text text-anchor="middle" x="682.5" y="-476.75" font-family="Helvetica,sans-Serif" font-size="10.00">JGeometry::TBox2&lt; f32 &gt;</text>
</a>
</g>
</g>
<!-- Node5&#45;&gt;Node4 -->
<g id="edge4_Node000004_Node000005" class="edge">
<title>Node5&#45;&gt;Node4</title>
<g id="a_edge4_Node000004_Node000005"><a xlink:title=" ">
<path fill="none" stroke="#9a32cd" stroke-dasharray="5,2" d="M739.61,-467.89C768.07,-460.98 803.03,-451.77 833.75,-441.62 847.71,-437.01 862.99,-430.89 875.15,-425.75"/>
<polygon fill="#9a32cd" stroke="#9a32cd" points="739.03,-464.44 730.12,-470.17 740.66,-471.24 739.03,-464.44"/>
</a>
</g>
<text text-anchor="middle" x="798.5" y="-497.12" font-family="Helvetica,sans-Serif" font-size="10.00" fill="grey"> mBounds</text>
<text text-anchor="middle" x="798.5" y="-485.88" font-family="Helvetica,sans-Serif" font-size="10.00" fill="grey">mClipRect</text>
<text text-anchor="middle" x="798.5" y="-474.62" font-family="Helvetica,sans-Serif" font-size="10.00" fill="grey">mGlobalBounds</text>
<text text-anchor="middle" x="798.5" y="-463.38" font-family="Helvetica,sans-Serif" font-size="10.00" fill="grey">static_mBounds</text>
</g>
<!-- Node6 -->
<g id="Node000006" class="node">
<title>Node6</title>
<g id="a_Node000006"><a xlink:href="structJGeometry_1_1TBox.html" target="_top" xlink:title=" ">
<polygon fill="white" stroke="#666666" points="514,-495.25 401.25,-495.25 401.25,-476 514,-476 514,-495.25"/>
<text text-anchor="middle" x="457.62" y="-481.75" font-family="Helvetica,sans-Serif" font-size="10.00">JGeometry::TBox&lt; T &gt;</text>
</a>
</g>
</g>
<!-- Node6&#45;&gt;Node5 -->
<g id="edge5_Node000005_Node000006" class="edge">
<title>Node6&#45;&gt;Node5</title>
<g id="a_edge5_Node000005_Node000006"><a xlink:title=" ">
<path fill="none" stroke="#63b8ff" d="M525.45,-484.13C555.29,-483.46 590.23,-482.67 619.48,-482.02"/>
<polygon fill="#63b8ff" stroke="#63b8ff" points="525.72,-480.62 515.8,-484.34 525.88,-487.62 525.72,-480.62"/>
</a>
</g>
</g>
<!-- Node7 -->
<g id="Node000007" class="node">
<title>Node7</title>
<g id="a_Node000007"><a xlink:href="classJSUTree.html" target="_top" xlink:title=" ">
<polygon fill="white" stroke="#666666" points="738.12,-444.25 626.88,-444.25 626.88,-425 738.12,-425 738.12,-444.25"/>
<text text-anchor="middle" x="682.5" y="-430.75" font-family="Helvetica,sans-Serif" font-size="10.00">JSUTree&lt; J2DPane &gt;</text>
</a>
</g>
</g>
<!-- Node7&#45;&gt;Node4 -->
<g id="edge6_Node000004_Node000007" class="edge">
<title>Node7&#45;&gt;Node4</title>
<g id="a_edge6_Node000004_Node000007"><a xlink:title=" ">
<path fill="none" stroke="#9a32cd" stroke-dasharray="5,2" d="M749.71,-428.76C790.42,-425.16 840.44,-420.73 870.77,-418.05"/>
<polygon fill="#9a32cd" stroke="#9a32cd" points="749.65,-425.25 740,-429.62 750.27,-432.23 749.65,-425.25"/>
</a>
</g>
<text text-anchor="middle" x="798.5" y="-428.38" font-family="Helvetica,sans-Serif" font-size="10.00" fill="grey"> mPaneTree</text>
</g>
<!-- Node8 -->
<g id="Node000008" class="node">
<title>Node8</title>
<g id="a_Node000008"><a xlink:href="classJSUList.html" target="_top" xlink:title=" ">
<polygon fill="white" stroke="#666666" points="383.25,-463.25 308.75,-463.25 308.75,-444 383.25,-444 383.25,-463.25"/>
<text text-anchor="middle" x="346" y="-449.75" font-family="Helvetica,sans-Serif" font-size="10.00">JSUList&lt; T &gt;</text>
</a>
</g>
</g>
<!-- Node8&#45;&gt;Node7 -->
<g id="edge7_Node000007_Node000008" class="edge">
<title>Node8&#45;&gt;Node7</title>
<g id="a_edge7_Node000007_Node000008"><a xlink:title=" ">
<path fill="none" stroke="#63b8ff" d="M394.7,-450.92C455.95,-447.44 562.04,-441.41 626.59,-437.74"/>
<polygon fill="#63b8ff" stroke="#63b8ff" points="394.73,-447.41 384.95,-451.47 395.13,-454.4 394.73,-447.41"/>
</a>
</g>
</g>
<!-- Node9 -->
<g id="Node000009" class="node">
<title>Node9</title>
<g id="a_Node000009"><a xlink:href="classJSUPtrList.html" target="_top" xlink:title=" ">
<polygon fill="white" stroke="#666666" points="83.12,-442.25 18.38,-442.25 18.38,-423 83.12,-423 83.12,-442.25"/>
<text text-anchor="middle" x="50.75" y="-428.75" font-family="Helvetica,sans-Serif" font-size="10.00">JSUPtrList</text>
</a>
</g>
</g>
<!-- Node9&#45;&gt;Node8 -->
<g id="edge8_Node000008_Node000009" class="edge">
<title>Node9&#45;&gt;Node8</title>
<g id="a_edge8_Node000008_Node000009"><a xlink:title=" ">
<path fill="none" stroke="#63b8ff" d="M94.65,-436.77C124.18,-439.52 164.32,-443.09 199.75,-445.62 236.65,-448.26 278.89,-450.5 308.27,-451.93"/>
<polygon fill="#63b8ff" stroke="#63b8ff" points="95.27,-433.31 84.99,-435.86 94.62,-440.28 95.27,-433.31"/>
</a>
</g>
</g>
<!-- Node10 -->
<g id="Node000010" class="node">
<title>Node10</title>
<g id="a_Node000010"><a xlink:href="classJSUPtrLink.html" target="_top" xlink:title=" ">
<polygon fill="white" stroke="#666666" points="278.75,-396.25 211.75,-396.25 211.75,-377 278.75,-377 278.75,-396.25"/>
<text text-anchor="middle" x="245.25" y="-382.75" font-family="Helvetica,sans-Serif" font-size="10.00">JSUPtrLink</text>
</a>
</g>
</g>
<!-- Node9&#45;&gt;Node10 -->
<g id="edge10_Node000010_Node000009" class="edge">
<title>Node9&#45;&gt;Node10</title>
<g id="a_edge10_Node000010_Node000009"><a xlink:title=" ">
<path fill="none" stroke="#9a32cd" stroke-dasharray="5,2" d="M94.58,-427.56C120.15,-424 153.13,-418.46 181.75,-410.62 195.2,-406.94 209.78,-401.44 221.46,-396.63"/>
<polygon fill="#9a32cd" stroke="#9a32cd" points="94.34,-424.06 84.89,-428.86 95.27,-431 94.34,-424.06"/>
</a>
</g>
<text text-anchor="middle" x="150.62" y="-424.38" font-family="Helvetica,sans-Serif" font-size="10.00" fill="grey"> mList</text>
</g>
<!-- Node10&#45;&gt;Node9 -->
<g id="edge9_Node000009_Node000010" class="edge">
<title>Node10&#45;&gt;Node9</title>
<g id="a_edge9_Node000009_Node000010"><a xlink:title=" ">
<path fill="none" stroke="#9a32cd" stroke-dasharray="5,2" d="M200.05,-381.19C175.76,-379.67 145.4,-380.21 119.5,-388.12 97.16,-394.95 75.31,-411.64 62.7,-422.52"/>
<polygon fill="#9a32cd" stroke="#9a32cd" points="199.68,-384.67 209.92,-381.96 200.23,-377.69 199.68,-384.67"/>
</a>
</g>
<text text-anchor="middle" x="150.62" y="-400.62" font-family="Helvetica,sans-Serif" font-size="10.00" fill="grey"> mHead</text>
<text text-anchor="middle" x="150.62" y="-389.38" font-family="Helvetica,sans-Serif" font-size="10.00" fill="grey">mTail</text>
</g>
<!-- Node10&#45;&gt;Node10 -->
<g id="edge11_Node000010_Node000010" class="edge">
<title>Node10&#45;&gt;Node10</title>
<g id="a_edge11_Node000010_Node000010"><a xlink:title=" ">
<path fill="none" stroke="#9a32cd" stroke-dasharray="5,2" d="M228.45,-407.65C230.56,-411.53 236.15,-414.25 245.25,-414.25 261.88,-414.25 266.82,-405.15 260.06,-396.54"/>
<polygon fill="#9a32cd" stroke="#9a32cd" points="231.86,-408.49 230.17,-398.03 224.97,-407.26 231.86,-408.49"/>
</a>
</g>
<text text-anchor="middle" x="245.25" y="-427.25" font-family="Helvetica,sans-Serif" font-size="10.00" fill="grey"> mNext</text>
<text text-anchor="middle" x="245.25" y="-416" font-family="Helvetica,sans-Serif" font-size="10.00" fill="grey">mPrev</text>
</g>
<!-- Node11 -->
<g id="Node000011" class="node">
<title>Node11</title>
<g id="a_Node000011"><a xlink:href="classJSULink.html" target="_top" xlink:title=" ">
<polygon fill="white" stroke="#666666" points="496,-402.25 419.25,-402.25 419.25,-383 496,-383 496,-402.25"/>
<text text-anchor="middle" x="457.62" y="-388.75" font-family="Helvetica,sans-Serif" font-size="10.00">JSULink&lt; T &gt;</text>
</a>
</g>
</g>
<!-- Node10&#45;&gt;Node11 -->
<g id="edge13_Node000011_Node000010" class="edge">
<title>Node10&#45;&gt;Node11</title>
<g id="a_edge13_Node000011_Node000010"><a xlink:title=" ">
<path fill="none" stroke="#63b8ff" d="M290.38,-387.88C328.49,-388.97 382.94,-390.52 419.01,-391.55"/>
<polygon fill="#63b8ff" stroke="#63b8ff" points="290.73,-384.39 280.63,-387.61 290.53,-391.39 290.73,-384.39"/>
</a>
</g>
</g>
<!-- Node11&#45;&gt;Node7 -->
<g id="edge12_Node000007_Node000011" class="edge">
<title>Node11&#45;&gt;Node7</title>
<g id="a_edge12_Node000007_Node000011"><a xlink:title=" ">
<path fill="none" stroke="#63b8ff" d="M507.28,-403.54C515.52,-405.3 524,-407.06 532,-408.62 563.28,-414.75 598.39,-420.9 626.72,-425.67"/>
<polygon fill="#63b8ff" stroke="#63b8ff" points="508.26,-400.17 497.75,-401.47 506.78,-407.01 508.26,-400.17"/>
</a>
</g>
</g>
<!-- Node12 -->
<g id="Node000012" class="node">
<title>Node12</title>
<g id="a_Node000012"><a xlink:href="classJ2DAnmTransform.html" target="_top" xlink:title=" ">
<polygon fill="white" stroke="#666666" points="731.38,-407.25 633.62,-407.25 633.62,-388 731.38,-388 731.38,-407.25"/>
<text text-anchor="middle" x="682.5" y="-393.75" font-family="Helvetica,sans-Serif" font-size="10.00">J2DAnmTransform</text>
</a>
</g>
</g>
<!-- Node12&#45;&gt;Node4 -->
<g id="edge14_Node000004_Node000012" class="edge">
<title>Node12&#45;&gt;Node4</title>
<g id="a_edge14_Node000004_Node000012"><a xlink:title=" ">
<path fill="none" stroke="#9a32cd" stroke-dasharray="5,2" d="M743.21,-395.79C770.86,-395.69 804.08,-396.63 833.75,-400.38 846.06,-401.93 859.44,-404.88 870.79,-407.78"/>
<polygon fill="#9a32cd" stroke="#9a32cd" points="743.21,-392.29 733.24,-395.88 743.28,-399.29 743.21,-392.29"/>
</a>
</g>
<text text-anchor="middle" x="798.5" y="-401.38" font-family="Helvetica,sans-Serif" font-size="10.00" fill="grey"> mTransform</text>
</g>
<!-- Node13 -->
<g id="Node000013" class="node">
<title>Node13</title>
<g id="a_Node000013"><a xlink:href="structJ2DAnmBase.html" target="_top" xlink:title=" ">
<polygon fill="white" stroke="#666666" points="495.62,-356.25 419.62,-356.25 419.62,-337 495.62,-337 495.62,-356.25"/>
<text text-anchor="middle" x="457.62" y="-342.75" font-family="Helvetica,sans-Serif" font-size="10.00">J2DAnmBase</text>
</a>
</g>
</g>
<!-- Node13&#45;&gt;Node12 -->
<g id="edge15_Node000012_Node000013" class="edge">
<title>Node13&#45;&gt;Node12</title>
<g id="a_edge15_Node000012_Node000013"><a xlink:title=" ">
<path fill="none" stroke="#63b8ff" d="M490.27,-361.69C498.07,-365.51 506.37,-369.65 514,-373.62 522.12,-377.85 523.26,-380.92 532,-383.62 564.87,-393.8 603.59,-397.21 633.39,-398.12"/>
<polygon fill="#63b8ff" stroke="#63b8ff" points="491.95,-358.62 481.42,-357.41 488.89,-364.92 491.95,-358.62"/>
</a>
</g>
</g>
<!-- Node34 -->
<g id="Node000034" class="node">
<title>Node34</title>
<g id="a_Node000034"><a xlink:href="structJ2DMaterial_1_1J2DMaterialAnmPointer.html" target="_top" xlink:title=" ">
<polygon fill="white" stroke="#666666" points="744.5,-357.88 620.5,-357.88 620.5,-327.38 744.5,-327.38 744.5,-357.88"/>
<text text-anchor="start" x="628.5" y="-344.38" font-family="Helvetica,sans-Serif" font-size="10.00">J2DMaterial::J2DMaterial</text>
<text text-anchor="middle" x="682.5" y="-333.12" font-family="Helvetica,sans-Serif" font-size="10.00">AnmPointer</text>
</a>
</g>
</g>
<!-- Node13&#45;&gt;Node34 -->
<g id="edge38_Node000034_Node000013" class="edge">
<title>Node13&#45;&gt;Node34</title>
<g id="a_edge38_Node000034_Node000013"><a xlink:title=" ">
<path fill="none" stroke="#9a32cd" stroke-dasharray="5,2" d="M507.3,-340.57C515.53,-339.76 524,-339.06 532,-338.62 560.91,-337.05 592.99,-337.61 620.01,-338.74"/>
<polygon fill="#9a32cd" stroke="#9a32cd" points="506.97,-337.08 497.39,-341.61 507.71,-344.05 506.97,-337.08"/>
</a>
</g>
<text text-anchor="middle" x="566.88" y="-374.12" font-family="Helvetica,sans-Serif" font-size="10.00" fill="grey"> field_0x0</text>
<text text-anchor="middle" x="566.88" y="-362.88" font-family="Helvetica,sans-Serif" font-size="10.00" fill="grey">field_0x4</text>
<text text-anchor="middle" x="566.88" y="-351.62" font-family="Helvetica,sans-Serif" font-size="10.00" fill="grey">field_0x8</text>
<text text-anchor="middle" x="566.88" y="-340.38" font-family="Helvetica,sans-Serif" font-size="10.00" fill="grey">field_0xc</text>
</g>
<!-- Node14 -->
<g id="Node000014" class="node">
<title>Node14</title>
<g id="a_Node000014"><a xlink:href="classJ2DDataManage.html" target="_top" xlink:title=" ">
<polygon fill="white" stroke="#666666" points="943.12,-175.25 855.12,-175.25 855.12,-156 943.12,-156 943.12,-175.25"/>
<text text-anchor="middle" x="899.12" y="-161.75" font-family="Helvetica,sans-Serif" font-size="10.00">J2DDataManage</text>
</a>
</g>
</g>
<!-- Node14&#45;&gt;Node3 -->
<g id="edge16_Node000003_Node000014" class="edge">
<title>Node14&#45;&gt;Node3</title>
<g id="a_edge16_Node000003_Node000014"><a xlink:title=" ">
<path fill="none" stroke="#9a32cd" stroke-dasharray="5,2" d="M954.81,-169.94C977.98,-172.04 1005.24,-174.88 1029.75,-178.38 1037.3,-179.45 1045.39,-180.84 1052.97,-182.25"/>
<polygon fill="#9a32cd" stroke="#9a32cd" points="955.22,-166.46 944.95,-169.07 954.61,-173.43 955.22,-166.46"/>
</a>
</g>
<text text-anchor="middle" x="997.12" y="-179.38" font-family="Helvetica,sans-Serif" font-size="10.00" fill="grey"> mDataManage</text>
</g>
<!-- Node15 -->
<g id="Node000015" class="node">
<title>Node15</title>
<g id="a_Node000015"><a xlink:href="structJ2DataManageLink.html" target="_top" xlink:title=" ">
<polygon fill="white" stroke="#666666" points="732.5,-56.25 632.5,-56.25 632.5,-37 732.5,-37 732.5,-56.25"/>
<text text-anchor="middle" x="682.5" y="-42.75" font-family="Helvetica,sans-Serif" font-size="10.00">J2DataManageLink</text>
</a>
</g>
</g>
<!-- Node15&#45;&gt;Node14 -->
<g id="edge17_Node000014_Node000015" class="edge">
<title>Node15&#45;&gt;Node14</title>
<g id="a_edge17_Node000014_Node000015"><a xlink:title=" ">
<path fill="none" stroke="#9a32cd" stroke-dasharray="5,2" d="M743.76,-53.55C774.14,-59.9 809.57,-72.07 833.75,-95.38 850.53,-111.55 835.9,-127.54 851.75,-144.62 855.96,-149.16 861.33,-152.79 866.92,-155.66"/>
<polygon fill="#9a32cd" stroke="#9a32cd" points="744.79,-50.19 734.31,-51.75 743.48,-57.06 744.79,-50.19"/>
</a>
</g>
<text text-anchor="middle" x="798.5" y="-96.38" font-family="Helvetica,sans-Serif" font-size="10.00" fill="grey"> mList</text>
</g>
<!-- Node15&#45;&gt;Node15 -->
<g id="edge18_Node000015_Node000015" class="edge">
<title>Node15&#45;&gt;Node15</title>
<g id="a_edge18_Node000015_Node000015"><a xlink:title=" ">
<path fill="none" stroke="#9a32cd" stroke-dasharray="5,2" d="M661.98,-67.65C664.54,-71.53 671.38,-74.25 682.5,-74.25 702.82,-74.25 708.86,-65.15 700.6,-56.54"/>
<polygon fill="#9a32cd" stroke="#9a32cd" points="665.37,-68.53 664.08,-58.02 658.53,-67.04 665.37,-68.53"/>
</a>
</g>
<text text-anchor="middle" x="682.5" y="-76" font-family="Helvetica,sans-Serif" font-size="10.00" fill="grey"> mNext</text>
</g>
<!-- Node16 -->
<g id="Node000016" class="node">
<title>Node16</title>
<g id="a_Node000016"><a xlink:href="classJ2DMaterial.html" target="_top" xlink:title=" ">
<polygon fill="white" stroke="#666666" points="933,-215.25 865.25,-215.25 865.25,-196 933,-196 933,-215.25"/>
<text text-anchor="middle" x="899.12" y="-201.75" font-family="Helvetica,sans-Serif" font-size="10.00">J2DMaterial</text>
</a>
</g>
</g>
<!-- Node16&#45;&gt;Node3 -->
<g id="edge19_Node000003_Node000016" class="edge">
<title>Node16&#45;&gt;Node3</title>
<g id="a_edge19_Node000003_Node000016"><a xlink:title=" ">
<path fill="none" stroke="#9a32cd" stroke-dasharray="5,2" d="M944.82,-201.5C978.34,-198.41 1023.37,-194.25 1053.1,-191.51"/>
<polygon fill="#9a32cd" stroke="#9a32cd" points="944.63,-198 935,-202.41 945.28,-204.97 944.63,-198"/>
</a>
</g>
<text text-anchor="middle" x="997.12" y="-201.38" font-family="Helvetica,sans-Serif" font-size="10.00" fill="grey"> mMaterials</text>
</g>
<!-- Node17 -->
<g id="Node000017" class="node">
<title>Node17</title>
<g id="a_Node000017"><a xlink:href="classJ2DColorBlock.html" target="_top" xlink:title=" ">
<polygon fill="white" stroke="#666666" points="722.75,-271.25 642.25,-271.25 642.25,-252 722.75,-252 722.75,-271.25"/>
<text text-anchor="middle" x="682.5" y="-257.75" font-family="Helvetica,sans-Serif" font-size="10.00">J2DColorBlock</text>
</a>
</g>
</g>
<!-- Node17&#45;&gt;Node16 -->
<g id="edge20_Node000016_Node000017" class="edge">
<title>Node17&#45;&gt;Node16</title>
<g id="a_edge20_Node000016_Node000017"><a xlink:title=" ">
<path fill="none" stroke="#9a32cd" stroke-dasharray="5,2" d="M734.46,-253.89C763.82,-248.83 801.24,-241.34 833.75,-231.62 848.19,-227.31 863.87,-221.01 876.15,-215.69"/>
<polygon fill="#9a32cd" stroke="#9a32cd" points="734,-250.42 724.71,-255.52 735.16,-257.32 734,-250.42"/>
</a>
</g>
<text text-anchor="middle" x="798.5" y="-249.38" font-family="Helvetica,sans-Serif" font-size="10.00" fill="grey"> mColorBlock</text>
</g>
<!-- Node18 -->
<g id="Node000018" class="node">
<title>Node18</title>
<g id="a_Node000018"><a xlink:href="structJUtility_1_1TColor.html" target="_top" xlink:title=" ">
<polygon fill="white" stroke="#666666" points="497.12,-296.25 418.12,-296.25 418.12,-277 497.12,-277 497.12,-296.25"/>
<text text-anchor="middle" x="457.62" y="-282.75" font-family="Helvetica,sans-Serif" font-size="10.00">JUtility::TColor</text>
</a>
</g>
</g>
<!-- Node18&#45;&gt;Node3 -->
<g id="edge43_Node000003_Node000018" class="edge">
<title>Node18&#45;&gt;Node3</title>
<g id="a_edge43_Node000003_Node000018"><a xlink:title=" ">
<path fill="none" stroke="#9a32cd" stroke-dasharray="5,2" d="M508.8,-286.62C536.26,-286.52 570.88,-286.27 601.75,-285.62 794.53,-281.59 848.11,-279.33 1029.75,-214.62 1033.29,-213.37 1049.92,-205.4 1063.91,-198.61"/>
<polygon fill="#9a32cd" stroke="#9a32cd" points="509.01,-283.12 499.02,-286.64 509.03,-290.12 509.01,-283.12"/>
</a>
</g>
<text text-anchor="middle" x="798.5" y="-280.38" font-family="Helvetica,sans-Serif" font-size="10.00" fill="grey"> mColor</text>
</g>
<!-- Node18&#45;&gt;Node17 -->
<g id="edge21_Node000017_Node000018" class="edge">
<title>Node18&#45;&gt;Node17</title>
<g id="a_edge21_Node000017_Node000018"><a xlink:title=" ">
<path fill="none" stroke="#9a32cd" stroke-dasharray="5,2" d="M508.62,-277.73C516.43,-276.5 524.42,-275.33 532,-274.38 569.22,-269.69 611.87,-266.24 642.06,-264.12"/>
<polygon fill="#9a32cd" stroke="#9a32cd" points="508.18,-274.25 498.88,-279.31 509.31,-281.16 508.18,-274.25"/>
</a>
</g>
<text text-anchor="middle" x="566.88" y="-275.38" font-family="Helvetica,sans-Serif" font-size="10.00" fill="grey"> mMatColor</text>
</g>
<!-- Node19 -->
<g id="Node000019" class="node">
<title>Node19</title>
<g id="a_Node000019"><a xlink:href="struct__GXColor.html" target="_top" xlink:title=" ">
<polygon fill="white" stroke="#666666" points="271.62,-296.25 218.88,-296.25 218.88,-277 271.62,-277 271.62,-296.25"/>
<text text-anchor="middle" x="245.25" y="-282.75" font-family="Helvetica,sans-Serif" font-size="10.00">GXColor</text>
</a>
</g>
</g>
<!-- Node19&#45;&gt;Node18 -->
<g id="edge22_Node000018_Node000019" class="edge">
<title>Node19&#45;&gt;Node18</title>
<g id="a_edge22_Node000018_Node000019"><a xlink:title=" ">
<path fill="none" stroke="#63b8ff" d="M283.54,-286.62C321.29,-286.62 379.42,-286.62 417.73,-286.62"/>
<polygon fill="#63b8ff" stroke="#63b8ff" points="283.56,-283.13 273.56,-286.63 283.56,-290.13 283.56,-283.13"/>
</a>
</g>
</g>
<!-- Node20 -->
<g id="Node000020" class="node">
<title>Node20</title>
<g id="a_Node000020"><a xlink:href="classJ2DColorChan.html" target="_top" xlink:title=" ">
<polygon fill="white" stroke="#666666" points="496.75,-250.25 418.5,-250.25 418.5,-231 496.75,-231 496.75,-250.25"/>
<text text-anchor="middle" x="457.62" y="-236.75" font-family="Helvetica,sans-Serif" font-size="10.00">J2DColorChan</text>
</a>
</g>
</g>
<!-- Node20&#45;&gt;Node17 -->
<g id="edge23_Node000017_Node000020" class="edge">
<title>Node20&#45;&gt;Node17</title>
<g id="a_edge23_Node000017_Node000020"><a xlink:title=" ">
<path fill="none" stroke="#9a32cd" stroke-dasharray="5,2" d="M508.43,-237.33C536.04,-236.31 570.92,-236.34 601.75,-240.38 610.63,-241.54 629.85,-246.63 647.2,-251.54"/>
<polygon fill="#9a32cd" stroke="#9a32cd" points="508.42,-233.83 498.58,-237.76 508.73,-240.82 508.42,-233.83"/>
</a>
</g>
<text text-anchor="middle" x="566.88" y="-241.38" font-family="Helvetica,sans-Serif" font-size="10.00" fill="grey"> mColorChan</text>
</g>
<!-- Node21 -->
<g id="Node000021" class="node">
<title>Node21</title>
<g id="a_Node000021"><a xlink:href="classJ2DTexGenBlock.html" target="_top" xlink:title=" ">
<polygon fill="white" stroke="#666666" points="728.38,-234.25 636.62,-234.25 636.62,-215 728.38,-215 728.38,-234.25"/>
<text text-anchor="middle" x="682.5" y="-220.75" font-family="Helvetica,sans-Serif" font-size="10.00">J2DTexGenBlock</text>
</a>
</g>
</g>
<!-- Node21&#45;&gt;Node16 -->
<g id="edge24_Node000016_Node000021" class="edge">
<title>Node21&#45;&gt;Node16</title>
<g id="a_edge24_Node000016_Node000021"><a xlink:title=" ">
<path fill="none" stroke="#9a32cd" stroke-dasharray="5,2" d="M740.14,-219.61C779.86,-216.09 831.61,-211.51 864.85,-208.57"/>
<polygon fill="#9a32cd" stroke="#9a32cd" points="739.91,-216.12 730.26,-220.49 740.53,-223.09 739.91,-216.12"/>
</a>
</g>
<text text-anchor="middle" x="798.5" y="-218.38" font-family="Helvetica,sans-Serif" font-size="10.00" fill="grey"> mTexGenBlock</text>
</g>
<!-- Node22 -->
<g id="Node000022" class="node">
<title>Node22</title>
<g id="a_Node000022"><a xlink:href="classJ2DTexCoord.html" target="_top" xlink:title=" ">
<polygon fill="white" stroke="#666666" points="494.88,-213.25 420.38,-213.25 420.38,-194 494.88,-194 494.88,-213.25"/>
<text text-anchor="middle" x="457.62" y="-199.75" font-family="Helvetica,sans-Serif" font-size="10.00">J2DTexCoord</text>
</a>
</g>
</g>
<!-- Node22&#45;&gt;Node21 -->
<g id="edge25_Node000021_Node000022" class="edge">
<title>Node22&#45;&gt;Node21</title>
<g id="a_edge25_Node000021_Node000022"><a xlink:title=" ">
<path fill="none" stroke="#9a32cd" stroke-dasharray="5,2" d="M506.35,-208.12C544.83,-211.75 598.57,-216.81 636.35,-220.37"/>
<polygon fill="#9a32cd" stroke="#9a32cd" points="506.72,-204.64 496.44,-207.19 506.06,-211.61 506.72,-204.64"/>
</a>
</g>
<text text-anchor="middle" x="566.88" y="-217.38" font-family="Helvetica,sans-Serif" font-size="10.00" fill="grey"> mTexGenCoord</text>
</g>
<!-- Node23 -->
<g id="Node000023" class="node">
<title>Node23</title>
<g id="a_Node000023"><a xlink:href="structJ2DTexCoordInfo.html" target="_top" xlink:title=" ">
<polygon fill="white" stroke="#666666" points="290.75,-213.25 199.75,-213.25 199.75,-194 290.75,-194 290.75,-213.25"/>
<text text-anchor="middle" x="245.25" y="-199.75" font-family="Helvetica,sans-Serif" font-size="10.00">J2DTexCoordInfo</text>
</a>
</g>
</g>
<!-- Node23&#45;&gt;Node22 -->
<g id="edge26_Node000022_Node000023" class="edge">
<title>Node23&#45;&gt;Node22</title>
<g id="a_edge26_Node000022_Node000023"><a xlink:title=" ">
<path fill="none" stroke="#9a32cd" stroke-dasharray="5,2" d="M302.31,-203.62C339.56,-203.62 387.41,-203.62 419.88,-203.62"/>
<polygon fill="#9a32cd" stroke="#9a32cd" points="302.64,-200.13 292.64,-203.63 302.64,-207.13 302.64,-200.13"/>
</a>
</g>
<text text-anchor="middle" x="346" y="-205.38" font-family="Helvetica,sans-Serif" font-size="10.00" fill="grey"> mTexCoordInfo</text>
</g>
<!-- Node24 -->
<g id="Node000024" class="node">
<title>Node24</title>
<g id="a_Node000024"><a xlink:href="classJ2DTexMtx.html" target="_top" xlink:title=" ">
<polygon fill="white" stroke="#666666" points="490,-176.25 425.25,-176.25 425.25,-157 490,-157 490,-176.25"/>
<text text-anchor="middle" x="457.62" y="-162.75" font-family="Helvetica,sans-Serif" font-size="10.00">J2DTexMtx</text>
</a>
</g>
</g>
<!-- Node24&#45;&gt;Node21 -->
<g id="edge27_Node000021_Node000024" class="edge">
<title>Node24&#45;&gt;Node21</title>
<g id="a_edge27_Node000021_Node000024"><a xlink:title=" ">
<path fill="none" stroke="#9a32cd" stroke-dasharray="5,2" d="M501.67,-171.16C530.7,-175.2 569.46,-182.54 601.75,-195.38 610.52,-198.86 611.14,-202.77 619.75,-206.62 626.48,-209.64 633.84,-212.29 641.06,-214.58"/>
<polygon fill="#9a32cd" stroke="#9a32cd" points="502.13,-167.69 491.76,-169.87 501.23,-174.63 502.13,-167.69"/>
</a>
</g>
<text text-anchor="middle" x="566.88" y="-196.38" font-family="Helvetica,sans-Serif" font-size="10.00" fill="grey"> mTexMtx</text>
</g>
<!-- Node25 -->
<g id="Node000025" class="node">
<title>Node25</title>
<g id="a_Node000025"><a xlink:href="structJ2DTexMtxInfo.html" target="_top" xlink:title=" ">
<polygon fill="white" stroke="#666666" points="285.88,-176.25 204.62,-176.25 204.62,-157 285.88,-157 285.88,-176.25"/>
<text text-anchor="middle" x="245.25" y="-162.75" font-family="Helvetica,sans-Serif" font-size="10.00">J2DTexMtxInfo</text>
</a>
</g>
</g>
<!-- Node25&#45;&gt;Node24 -->
<g id="edge28_Node000024_Node000025" class="edge">
<title>Node25&#45;&gt;Node24</title>
<g id="a_edge28_Node000024_Node000025"><a xlink:title=" ">
<path fill="none" stroke="#9a32cd" stroke-dasharray="5,2" d="M297.65,-166.62C337.43,-166.62 391.25,-166.62 424.95,-166.62"/>
<polygon fill="#9a32cd" stroke="#9a32cd" points="297.83,-163.13 287.83,-166.63 297.83,-170.13 297.83,-163.13"/>
</a>
</g>
<text text-anchor="middle" x="346" y="-168.38" font-family="Helvetica,sans-Serif" font-size="10.00" fill="grey"> mInfo</text>
</g>
<!-- Node26 -->
<g id="Node000026" class="node">
<title>Node26</title>
<g id="a_Node000026"><a xlink:href="structVec.html" target="_top" xlink:title=" ">
<polygon fill="white" stroke="#666666" points="67.38,-195.25 34.12,-195.25 34.12,-176 67.38,-176 67.38,-195.25"/>
<text text-anchor="middle" x="50.75" y="-181.75" font-family="Helvetica,sans-Serif" font-size="10.00">Vec</text>
</a>
</g>
</g>
<!-- Node26&#45;&gt;Node25 -->
<g id="edge29_Node000025_Node000026" class="edge">
<title>Node26&#45;&gt;Node25</title>
<g id="a_edge29_Node000025_Node000026"><a xlink:title=" ">
<path fill="none" stroke="#9a32cd" stroke-dasharray="5,2" d="M79.19,-182.92C111.86,-179.69 166.71,-174.28 204.14,-170.58"/>
<polygon fill="#9a32cd" stroke="#9a32cd" points="78.95,-179.42 69.34,-183.89 79.63,-186.39 78.95,-179.42"/>
</a>
</g>
<text text-anchor="middle" x="150.62" y="-180.38" font-family="Helvetica,sans-Serif" font-size="10.00" fill="grey"> mCenter</text>
</g>
<!-- Node27 -->
<g id="Node000027" class="node">
<title>Node27</title>
<g id="a_Node000027"><a xlink:href="structJ2DTextureSRTInfo.html" target="_top" xlink:title=" ">
<polygon fill="white" stroke="#666666" points="101.5,-158.25 0,-158.25 0,-139 101.5,-139 101.5,-158.25"/>
<text text-anchor="middle" x="50.75" y="-144.75" font-family="Helvetica,sans-Serif" font-size="10.00">J2DTextureSRTInfo</text>
</a>
</g>
</g>
<!-- Node27&#45;&gt;Node25 -->
<g id="edge30_Node000025_Node000027" class="edge">
<title>Node27&#45;&gt;Node25</title>
<g id="a_edge30_Node000025_Node000027"><a xlink:title=" ">
<path fill="none" stroke="#9a32cd" stroke-dasharray="5,2" d="M113.33,-147.94C135.02,-148.35 159.54,-149.55 181.75,-152.38 189.48,-153.36 197.65,-154.87 205.45,-156.55"/>
<polygon fill="#9a32cd" stroke="#9a32cd" points="113.49,-144.44 103.44,-147.81 113.4,-151.44 113.49,-144.44"/>
</a>
</g>
<text text-anchor="middle" x="150.62" y="-153.38" font-family="Helvetica,sans-Serif" font-size="10.00" fill="grey"> mTexSRTInfo</text>
</g>
<!-- Node28 -->
<g id="Node000028" class="node">
<title>Node28</title>
<g id="a_Node000028"><a xlink:href="classJ2DTevBlock.html" target="_top" xlink:title=" ">
<polygon fill="white" stroke="#666666" points="719.75,-197.25 645.25,-197.25 645.25,-178 719.75,-178 719.75,-197.25"/>
<text text-anchor="middle" x="682.5" y="-183.75" font-family="Helvetica,sans-Serif" font-size="10.00">J2DTevBlock</text>
</a>
</g>
</g>
<!-- Node28&#45;&gt;Node16 -->
<g id="edge31_Node000016_Node000028" class="edge">
<title>Node28&#45;&gt;Node16</title>
<g id="a_edge31_Node000016_Node000028"><a xlink:title=" ">
<path fill="none" stroke="#9a32cd" stroke-dasharray="5,2" d="M731.37,-185.9C760.97,-185.47 799.7,-186.08 833.75,-190.38 844.01,-191.67 855.01,-193.94 864.96,-196.34"/>
<polygon fill="#9a32cd" stroke="#9a32cd" points="731.53,-182.39 721.6,-186.09 731.67,-189.39 731.53,-182.39"/>
</a>
</g>
<text text-anchor="middle" x="798.5" y="-191.38" font-family="Helvetica,sans-Serif" font-size="10.00" fill="grey"> mTevBlock</text>
</g>
<!-- Node29 -->
<g id="Node000029" class="node">
<title>Node29</title>
<g id="a_Node000029"><a xlink:href="classJ2DIndBlock.html" target="_top" xlink:title=" ">
<polygon fill="white" stroke="#666666" points="718.25,-160.25 646.75,-160.25 646.75,-141 718.25,-141 718.25,-160.25"/>
<text text-anchor="middle" x="682.5" y="-146.75" font-family="Helvetica,sans-Serif" font-size="10.00">J2DIndBlock</text>
</a>
</g>
</g>
<!-- Node29&#45;&gt;Node16 -->
<g id="edge32_Node000016_Node000029" class="edge">
<title>Node29&#45;&gt;Node16</title>
<g id="a_edge32_Node000016_Node000029"><a xlink:title=" ">
<path fill="none" stroke="#9a32cd" stroke-dasharray="5,2" d="M729.79,-150.38C760.39,-151.73 800.77,-156.42 833.75,-170.38 843.15,-174.35 843.04,-179.31 851.75,-184.62 858.39,-188.67 865.95,-192.42 873,-195.59"/>
<polygon fill="#9a32cd" stroke="#9a32cd" points="730.2,-146.9 720.1,-150.07 729.98,-153.89 730.2,-146.9"/>
</a>
</g>
<text text-anchor="middle" x="798.5" y="-171.38" font-family="Helvetica,sans-Serif" font-size="10.00" fill="grey"> mIndBlock</text>
</g>
<!-- Node30 -->
<g id="Node000030" class="node">
<title>Node30</title>
<g id="a_Node000030"><a xlink:href="classJ2DPEBlock.html" target="_top" xlink:title=" ">
<polygon fill="white" stroke="#666666" points="717.88,-123.25 647.12,-123.25 647.12,-104 717.88,-104 717.88,-123.25"/>
<text text-anchor="middle" x="682.5" y="-109.75" font-family="Helvetica,sans-Serif" font-size="10.00">J2DPEBlock</text>
</a>
</g>
</g>
<!-- Node30&#45;&gt;Node16 -->
<g id="edge33_Node000016_Node000030" class="edge">
<title>Node30&#45;&gt;Node16</title>
<g id="a_edge33_Node000016_Node000030"><a xlink:title=" ">
<path fill="none" stroke="#9a32cd" stroke-dasharray="5,2" d="M729.6,-109.49C762.1,-109.08 804.8,-113.88 833.75,-137.38 851.2,-151.54 836.35,-168.26 851.75,-184.62 855.99,-189.13 861.38,-192.74 866.97,-195.61"/>
<polygon fill="#9a32cd" stroke="#9a32cd" points="729.54,-105.99 719.65,-109.81 729.76,-112.99 729.54,-105.99"/>
</a>
</g>
<text text-anchor="middle" x="798.5" y="-138.38" font-family="Helvetica,sans-Serif" font-size="10.00" fill="grey"> mPEBlock</text>
</g>
<!-- Node31 -->
<g id="Node000031" class="node">
<title>Node31</title>
<g id="a_Node000031"><a xlink:href="structJ2DAlphaComp.html" target="_top" xlink:title=" ">
<polygon fill="white" stroke="#666666" points="499.38,-132.25 415.88,-132.25 415.88,-113 499.38,-113 499.38,-132.25"/>
<text text-anchor="middle" x="457.62" y="-118.75" font-family="Helvetica,sans-Serif" font-size="10.00">J2DAlphaComp</text>
</a>
</g>
</g>
<!-- Node31&#45;&gt;Node30 -->
<g id="edge34_Node000030_Node000031" class="edge">
<title>Node31&#45;&gt;Node30</title>
<g id="a_edge34_Node000030_Node000031"><a xlink:title=" ">
<path fill="none" stroke="#9a32cd" stroke-dasharray="5,2" d="M511.13,-120.5C553.02,-118.81 610.5,-116.49 646.82,-115.03"/>
<polygon fill="#9a32cd" stroke="#9a32cd" points="511.13,-117 501.28,-120.9 511.41,-124 511.13,-117"/>
</a>
</g>
<text text-anchor="middle" x="566.88" y="-120.38" font-family="Helvetica,sans-Serif" font-size="10.00" fill="grey"> mAlphaComp</text>
</g>
<!-- Node32 -->
<g id="Node000032" class="node">
<title>Node32</title>
<g id="a_Node000032"><a xlink:href="structJ2DBlend.html" target="_top" xlink:title=" ">
<polygon fill="white" stroke="#666666" points="486.62,-95.25 428.62,-95.25 428.62,-76 486.62,-76 486.62,-95.25"/>
<text text-anchor="middle" x="457.62" y="-81.75" font-family="Helvetica,sans-Serif" font-size="10.00">J2DBlend</text>
</a>
</g>
</g>
<!-- Node32&#45;&gt;Node30 -->
<g id="edge35_Node000030_Node000032" class="edge">
<title>Node32&#45;&gt;Node30</title>
<g id="a_edge35_Node000030_Node000032"><a xlink:title=" ">
<path fill="none" stroke="#9a32cd" stroke-dasharray="5,2" d="M498.13,-89.51C526.9,-92.46 566.79,-96.77 601.75,-101.38 616.61,-103.33 632.98,-105.79 647,-108"/>
<polygon fill="#9a32cd" stroke="#9a32cd" points="498.72,-86.05 488.42,-88.53 498.01,-93.02 498.72,-86.05"/>
</a>
</g>
<text text-anchor="middle" x="566.88" y="-102.38" font-family="Helvetica,sans-Serif" font-size="10.00" fill="grey"> mBlend</text>
</g>
<!-- Node33 -->
<g id="Node000033" class="node">
<title>Node33</title>
<g id="a_Node000033"><a xlink:href="structJ2DBlendInfo.html" target="_top" xlink:title=" ">
<polygon fill="white" stroke="#666666" points="282.5,-95.25 208,-95.25 208,-76 282.5,-76 282.5,-95.25"/>
<text text-anchor="middle" x="245.25" y="-81.75" font-family="Helvetica,sans-Serif" font-size="10.00">J2DBlendInfo</text>
</a>
</g>
</g>
<!-- Node33&#45;&gt;Node32 -->
<g id="edge36_Node000032_Node000033" class="edge">
<title>Node33&#45;&gt;Node32</title>
<g id="a_edge36_Node000032_Node000033"><a xlink:title=" ">
<path fill="none" stroke="#9a32cd" stroke-dasharray="5,2" d="M294.33,-85.62C335.65,-85.62 393.84,-85.62 428.15,-85.62"/>
<polygon fill="#9a32cd" stroke="#9a32cd" points="294.41,-82.13 284.41,-85.63 294.41,-89.13 294.41,-82.13"/>
</a>
</g>
<text text-anchor="middle" x="346" y="-87.38" font-family="Helvetica,sans-Serif" font-size="10.00" fill="grey"> mBlendInfo</text>
</g>
<!-- Node34&#45;&gt;Node16 -->
<g id="edge37_Node000016_Node000034" class="edge">
<title>Node34&#45;&gt;Node16</title>
<g id="a_edge37_Node000016_Node000034"><a xlink:title=" ">
<path fill="none" stroke="#9a32cd" stroke-dasharray="5,2" d="M755.84,-341.44C782.28,-337.99 811.21,-330.4 833.75,-314.62 869.58,-289.54 888.6,-237.59 895.3,-215.7"/>
<polygon fill="#9a32cd" stroke="#9a32cd" points="755.74,-337.93 746.18,-342.51 756.51,-344.89 755.74,-337.93"/>
</a>
</g>
<text text-anchor="middle" x="798.5" y="-341.38" font-family="Helvetica,sans-Serif" font-size="10.00" fill="grey"> mAnmPointer</text>
</g>
<!-- Node35 -->
<g id="Node000035" class="node">
<title>Node35</title>
<g id="a_Node000035"><a xlink:href="structJ2DResReference.html" target="_top" xlink:title=" ">
<polygon fill="white" stroke="#666666" points="946.5,-135.25 851.75,-135.25 851.75,-116 946.5,-116 946.5,-135.25"/>
<text text-anchor="middle" x="899.12" y="-121.75" font-family="Helvetica,sans-Serif" font-size="10.00">J2DResReference</text>
</a>
</g>
</g>
<!-- Node35&#45;&gt;Node3 -->
<g id="edge39_Node000003_Node000035" class="edge">
<title>Node35&#45;&gt;Node3</title>
<g id="a_edge39_Node000003_Node000035"><a xlink:title=" ">
<path fill="none" stroke="#9a32cd" stroke-dasharray="5,2" d="M958.14,-127.22C981.2,-129.54 1007.48,-134.38 1029.75,-144.12 1048.13,-152.17 1065.38,-168.17 1075.4,-178.63"/>
<polygon fill="#9a32cd" stroke="#9a32cd" points="958.54,-123.74 948.28,-126.38 957.94,-130.72 958.54,-123.74"/>
</a>
</g>
<text text-anchor="middle" x="997.12" y="-156.62" font-family="Helvetica,sans-Serif" font-size="10.00" fill="grey"> mFontRes</text>
<text text-anchor="middle" x="997.12" y="-145.38" font-family="Helvetica,sans-Serif" font-size="10.00" fill="grey">mTexRes</text>
</g>
<!-- Node36 -->
<g id="Node000036" class="node">
<title>Node36</title>
<g id="a_Node000036"><a xlink:href="structJUTNameTab.html" target="_top" xlink:title=" ">
<polygon fill="white" stroke="#666666" points="937.88,-69.25 860.38,-69.25 860.38,-50 937.88,-50 937.88,-69.25"/>
<text text-anchor="middle" x="899.12" y="-55.75" font-family="Helvetica,sans-Serif" font-size="10.00">JUTNameTab</text>
</a>
</g>
</g>
<!-- Node36&#45;&gt;Node3 -->
<g id="edge40_Node000003_Node000036" class="edge">
<title>Node36&#45;&gt;Node3</title>
<g id="a_edge40_Node000003_Node000036"><a xlink:title=" ">
<path fill="none" stroke="#9a32cd" stroke-dasharray="5,2" d="M948.95,-72.3C974.82,-80.71 1006.05,-93.68 1029.75,-112.38 1053.4,-131.03 1071.4,-162.54 1079.56,-178.59"/>
<polygon fill="#9a32cd" stroke="#9a32cd" points="950.26,-69.05 939.68,-69.43 948.19,-75.73 950.26,-69.05"/>
</a>
</g>
<text text-anchor="middle" x="997.12" y="-113.38" font-family="Helvetica,sans-Serif" font-size="10.00" fill="grey"> mNameTable</text>
</g>
<!-- Node37 -->
<g id="Node000037" class="node">
<title>Node37</title>
<g id="a_Node000037"><a xlink:href="structResNTAB.html" target="_top" xlink:title=" ">
<polygon fill="white" stroke="#666666" points="712.62,-19.25 652.38,-19.25 652.38,0 712.62,0 712.62,-19.25"/>
<text text-anchor="middle" x="682.5" y="-5.75" font-family="Helvetica,sans-Serif" font-size="10.00">ResNTAB</text>
</a>
</g>
</g>
<!-- Node37&#45;&gt;Node36 -->
<g id="edge41_Node000036_Node000037" class="edge">
<title>Node37&#45;&gt;Node36</title>
<g id="a_edge41_Node000036_Node000037"><a xlink:title=" ">
<path fill="none" stroke="#9a32cd" stroke-dasharray="5,2" d="M724.14,-15.93C754.56,-21.01 797.05,-28.85 833.75,-38.38 845.83,-41.51 858.94,-45.69 870.16,-49.52"/>
<polygon fill="#9a32cd" stroke="#9a32cd" points="725.05,-12.53 714.61,-14.37 723.91,-19.44 725.05,-12.53"/>
</a>
</g>
<text text-anchor="middle" x="798.5" y="-40.38" font-family="Helvetica,sans-Serif" font-size="10.00" fill="grey"> mNameTable</text>
</g>
<!-- Node38 -->
<g id="Node000038" class="node">
<title>Node38</title>
<g id="a_Node000038"><a xlink:href="structResNTAB_1_1Entry.html" target="_top" xlink:title=" ">
<polygon fill="white" stroke="#666666" points="500.88,-19.25 414.38,-19.25 414.38,0 500.88,0 500.88,-19.25"/>
<text text-anchor="middle" x="457.62" y="-5.75" font-family="Helvetica,sans-Serif" font-size="10.00">ResNTAB::Entry</text>
</a>
</g>
</g>
<!-- Node38&#45;&gt;Node37 -->
<g id="edge42_Node000037_Node000038" class="edge">
<title>Node38&#45;&gt;Node37</title>
<g id="a_edge42_Node000037_Node000038"><a xlink:title=" ">
<path fill="none" stroke="#9a32cd" stroke-dasharray="5,2" d="M512.67,-9.62C556.52,-9.62 616.68,-9.62 652.09,-9.62"/>
<polygon fill="#9a32cd" stroke="#9a32cd" points="512.85,-6.13 502.85,-9.63 512.85,-13.13 512.85,-6.13"/>
</a>
</g>
<text text-anchor="middle" x="566.88" y="-11.38" font-family="Helvetica,sans-Serif" font-size="10.00" fill="grey"> mEntries</text>
</g>
</g>
</svg>

<g id="navigator" transform="translate(0 0)" fill="#404254">
  <rect fill="#f2f5e9" fill-opacity="0.5" stroke="#606060" stroke-width=".5" x="0" y="0" width="60" height="60"/>
  <use id="zoomplus" xlink:href="#zoomPlus" x="17" y="9" onmousedown="handleZoom(evt,'in')"/>
  <use id="zoomminus" xlink:href="#zoomMin" x="42" y="9" onmousedown="handleZoom(evt,'out')"/>
  <use id="reset" xlink:href="#resetDef" x="30" y="36" onmousedown="handleReset()"/>
   <use id="arrowup" xlink:href="#arrowUp" x="0" y="0" onmousedown="handlePan(0,-1)"/>
  <use id="arrowright" xlink:href="#arrowRight" x="0" y="0" onmousedown="handlePan(1,0)"/>
  <use id="arrowdown" xlink:href="#arrowDown" x="0" y="0" onmousedown="handlePan(0,1)"/>
  <use id="arrowleft" xlink:href="#arrowLeft" x="0" y="0" onmousedown="handlePan(-1,0)"/>
</g>
<svg viewBox="0 0 15 15" width="100%" height="30px" preserveAspectRatio="xMaxYMin meet">
 <g id="arrow_out" transform="scale(0.3 0.3)">
  <a xlink:href="classdDlst__blo__c__coll__graph_org.svg" target="_base">
   <rect id="button" ry="5" rx="5" y="6" x="6" height="38" width="38"
        fill="#f2f5e9" fill-opacity="0.5" stroke="#606060" stroke-width="1.0"/>
   <path id="arrow"
     d="M 11.500037,31.436501 C 11.940474,20.09759 22.043105,11.32322 32.158766,21.979434 L 37.068811,17.246167 C 37.068811,17.246167 37.088388,32 37.088388,32 L 22.160133,31.978069 C 22.160133,31.978069 26.997745,27.140456 26.997745,27.140456 C 18.528582,18.264221 13.291696,25.230495 11.500037,31.436501 z"
     style="fill:#404040;"/>
  </a>
 </g>
</svg>

<style type='text/css'>
<![CDATA[
[data-mouse-over-selected='false'] { opacity: 0.7; }
[data-mouse-over-selected='true']  { opacity: 1.0; }
]]>
</style>
<script type="application/ecmascript"><![CDATA[
document.addEventListener('DOMContentLoaded', (event) => {
  highlightEdges();
  highlightAdjacentNodes();
});
]]></script>
</svg>
