<?xml version="1.0" encoding="UTF-8" standalone="no"?>
<!DOCTYPE svg PUBLIC "-//W3C//DTD SVG 1.1//EN"
 "http://www.w3.org/Graphics/SVG/1.1/DTD/svg11.dtd">
<!-- Generated by graphviz version 9.0.0 (20230911.1827)
 -->
<!-- Title: daObjSwBallA_c Pages: 1 -->
<svg width="199pt" height="138pt"
 viewBox="0.00 0.00 198.50 137.75" xmlns="http://www.w3.org/2000/svg" xmlns:xlink="http://www.w3.org/1999/xlink">

<svg id="main" version="1.1" xmlns="http://www.w3.org/2000/svg" xmlns:xlink="http://www.w3.org/1999/xlink" xml:space="preserve" onload="init(evt)">
<style type="text/css"><![CDATA[
.node, .edge {opacity: 0.7;}
.node.selected, .edge.selected {opacity: 1;}
.edge:hover path { stroke: red; }
.edge:hover polygon { stroke: red; fill: red; }
]]></style>
<script type="application/ecmascript" xlink:href="svg.min.js"/>
<svg id="graph" class="graph">
<g id="graph0" class="graph" transform="scale(1 1) rotate(0) translate(4 133.75)">
<title>daObjSwBallA_c</title>
<!-- Node1 -->
<g id="Node000001" class="node">
<title>Node1</title>
<g id="a_Node000001"><a xlink:title="Ball Switch A.">
<polygon fill="#999999" stroke="#666666" points="135.38,-19.25 45.88,-19.25 45.88,0 135.38,0 135.38,-19.25"/>
<text text-anchor="middle" x="90.62" y="-5.75" font-family="Helvetica,sans-Serif" font-size="10.00">daObjSwBallA_c</text>
</a>
</g>
</g>
<!-- Node2 -->
<g id="Node000002" class="node">
<title>Node2</title>
<g id="a_Node000002"><a xlink:href="structfopAc__ac__c.html" target="_top" xlink:title=" ">
<polygon fill="white" stroke="#666666" points="74.5,-74.5 6.75,-74.5 6.75,-55.25 74.5,-55.25 74.5,-74.5"/>
<text text-anchor="middle" x="40.62" y="-61" font-family="Helvetica,sans-Serif" font-size="10.00">fopAc_ac_c</text>
</a>
</g>
</g>
<!-- Node2&#45;&gt;Node1 -->
<g id="edge1_Node000001_Node000002" class="edge">
<title>Node2&#45;&gt;Node1</title>
<g id="a_edge1_Node000001_Node000002"><a xlink:title=" ">
<path fill="none" stroke="#63b8ff" d="M56.67,-46.79C65.15,-37.75 75.23,-27.02 82.19,-19.61"/>
<polygon fill="#63b8ff" stroke="#63b8ff" points="54.21,-44.29 49.92,-53.98 59.31,-49.08 54.21,-44.29"/>
</a>
</g>
</g>
<!-- Node3 -->
<g id="Node000003" class="node">
<title>Node3</title>
<g id="a_Node000003"><a xlink:href="structleafdraw__class.html" target="_top" xlink:title=" ">
<polygon fill="white" stroke="#666666" points="81.25,-129.75 0,-129.75 0,-110.5 81.25,-110.5 81.25,-129.75"/>
<text text-anchor="middle" x="40.62" y="-116.25" font-family="Helvetica,sans-Serif" font-size="10.00">leafdraw_class</text>
</a>
</g>
</g>
<!-- Node3&#45;&gt;Node2 -->
<g id="edge2_Node000002_Node000003" class="edge">
<title>Node3&#45;&gt;Node2</title>
<g id="a_edge2_Node000002_Node000003"><a xlink:title=" ">
<path fill="none" stroke="#63b8ff" d="M40.62,-98.88C40.62,-90.59 40.62,-81.42 40.62,-74.86"/>
<polygon fill="#63b8ff" stroke="#63b8ff" points="37.13,-98.82 40.63,-108.82 44.13,-98.82 37.13,-98.82"/>
</a>
</g>
</g>
<!-- Node4 -->
<g id="Node000004" class="node">
<title>Node4</title>
<g id="a_Node000004"><a xlink:href="classdEvLib__callback__c.html" target="_top" xlink:title=" ">
<polygon fill="white" stroke="#666666" points="190.5,-74.5 92.75,-74.5 92.75,-55.25 190.5,-55.25 190.5,-74.5"/>
<text text-anchor="middle" x="141.62" y="-61" font-family="Helvetica,sans-Serif" font-size="10.00">dEvLib_callback_c</text>
</a>
</g>
</g>
<!-- Node4&#45;&gt;Node1 -->
<g id="edge3_Node000001_Node000004" class="edge">
<title>Node4&#45;&gt;Node1</title>
<g id="a_edge3_Node000001_Node000004"><a xlink:title=" ">
<path fill="none" stroke="#63b8ff" d="M125.26,-46.79C116.61,-37.75 106.33,-27.02 99.23,-19.61"/>
<polygon fill="#63b8ff" stroke="#63b8ff" points="122.71,-49.19 132.16,-53.99 127.77,-44.35 122.71,-49.19"/>
</a>
</g>
</g>
</g>
</svg>
</svg>

<style type='text/css'>
<![CDATA[
[data-mouse-over-selected='false'] { opacity: 0.7; }
[data-mouse-over-selected='true']  { opacity: 1.0; }
]]>
</style>
<script type="application/ecmascript"><![CDATA[
document.addEventListener('DOMContentLoaded', (event) => {
  highlightEdges();
  highlightAdjacentNodes();
});
]]></script>
</svg>
