<?xml version="1.0" encoding="UTF-8" standalone="no"?>
<!DOCTYPE svg PUBLIC "-//W3C//DTD SVG 1.1//EN"
 "http://www.w3.org/Graphics/SVG/1.1/DTD/svg11.dtd">
<!-- Generated by graphviz version 9.0.0 (20230911.1827)
 -->
<!-- Title: J3DMaterialFactory Pages: 1 -->
<svg width="676pt" height="841pt"
 viewBox="0.00 0.00 676.25 840.99" xmlns="http://www.w3.org/2000/svg" xmlns:xlink="http://www.w3.org/1999/xlink">
<g id="graph0" class="graph" transform="scale(1 1) rotate(0) translate(4 836.99)">
<title>J3DMaterialFactory</title>
<!-- Node1 -->
<g id="Node000001" class="node">
<title>Node1</title>
<g id="a_Node000001"><a xlink:title=" ">
<polygon fill="#999999" stroke="#666666" points="668.25,-380.37 568.25,-380.37 568.25,-361.12 668.25,-361.12 668.25,-380.37"/>
<text text-anchor="middle" x="618.25" y="-366.87" font-family="Helvetica,sans-Serif" font-size="10.00">J3DMaterialFactory</text>
</a>
</g>
</g>
<!-- Node2 -->
<g id="Node000002" class="node">
<title>Node2</title>
<g id="a_Node000002"><a xlink:href="structJ3DMaterialInitData.html" target="_top" xlink:title=" ">
<polygon fill="white" stroke="#666666" points="392,-792.37 290.5,-792.37 290.5,-773.12 392,-773.12 392,-792.37"/>
<text text-anchor="middle" x="341.25" y="-778.87" font-family="Helvetica,sans-Serif" font-size="10.00">J3DMaterialInitData</text>
</a>
</g>
</g>
<!-- Node2&#45;&gt;Node1 -->
<g id="edge1_Node000001_Node000002" class="edge">
<title>Node2&#45;&gt;Node1</title>
<g id="a_edge1_Node000001_Node000002"><a xlink:title=" ">
<path fill="none" stroke="#9a32cd" stroke-dasharray="5,2" d="M403.83,-793.87C450.09,-798.44 511.84,-795.9 550.25,-759.74 607.51,-705.84 615.95,-435.95 617.09,-380.65"/>
<polygon fill="#9a32cd" stroke="#9a32cd" points="404.26,-790.39 393.93,-792.74 403.47,-797.35 404.26,-790.39"/>
</a>
</g>
<text text-anchor="middle" x="489.5" y="-796.49" font-family="Helvetica,sans-Serif" font-size="10.00" fill="grey"> mpMaterialInitData</text>
</g>
<!-- Node3 -->
<g id="Node000003" class="node">
<title>Node3</title>
<g id="a_Node000003"><a xlink:href="structJ3DIndInitData.html" target="_top" xlink:title=" ">
<polygon fill="white" stroke="#666666" points="381.5,-755.37 301,-755.37 301,-736.12 381.5,-736.12 381.5,-755.37"/>
<text text-anchor="middle" x="341.25" y="-741.87" font-family="Helvetica,sans-Serif" font-size="10.00">J3DIndInitData</text>
</a>
</g>
</g>
<!-- Node3&#45;&gt;Node1 -->
<g id="edge2_Node000001_Node000003" class="edge">
<title>Node3&#45;&gt;Node1</title>
<g id="a_edge2_Node000001_Node000003"><a xlink:title=" ">
<path fill="none" stroke="#9a32cd" stroke-dasharray="5,2" d="M392.85,-747.9C440.2,-747.01 509.56,-737.78 550.25,-695.74 595.63,-648.86 613.16,-430.52 616.59,-380.83"/>
<polygon fill="#9a32cd" stroke="#9a32cd" points="393.11,-744.4 383.13,-747.95 393.15,-751.4 393.11,-744.4"/>
</a>
</g>
<text text-anchor="middle" x="489.5" y="-746.49" font-family="Helvetica,sans-Serif" font-size="10.00" fill="grey"> mpIndInitData</text>
</g>
<!-- Node4 -->
<g id="Node000004" class="node">
<title>Node4</title>
<g id="a_Node000004"><a xlink:href="structJ3DIndTexOrderInfo.html" target="_top" xlink:title=" ">
<polygon fill="white" stroke="#666666" points="116.12,-832.37 13.12,-832.37 13.12,-813.12 116.12,-813.12 116.12,-832.37"/>
<text text-anchor="middle" x="64.62" y="-818.87" font-family="Helvetica,sans-Serif" font-size="10.00">J3DIndTexOrderInfo</text>
</a>
</g>
</g>
<!-- Node4&#45;&gt;Node3 -->
<g id="edge3_Node000003_Node000004" class="edge">
<title>Node4&#45;&gt;Node3</title>
<g id="a_edge3_Node000003_Node000004"><a xlink:title=" ">
<path fill="none" stroke="#9a32cd" stroke-dasharray="5,2" d="M127.74,-824.33C166.74,-822.54 216.52,-814.9 253.75,-790.74 265.85,-782.89 260.01,-772.12 271.75,-763.74 280.26,-757.67 290.67,-753.65 300.78,-750.98"/>
<polygon fill="#9a32cd" stroke="#9a32cd" points="127.66,-820.83 117.78,-824.66 127.89,-827.83 127.66,-820.83"/>
</a>
</g>
<text text-anchor="middle" x="200.5" y="-823.49" font-family="Helvetica,sans-Serif" font-size="10.00" fill="grey"> mIndTexOrderInfo</text>
</g>
<!-- Node5 -->
<g id="Node000005" class="node">
<title>Node5</title>
<g id="a_Node000005"><a xlink:href="structJ3DIndTexMtxInfo.html" target="_top" xlink:title=" ">
<polygon fill="white" stroke="#666666" points="112,-795.37 17.25,-795.37 17.25,-776.12 112,-776.12 112,-795.37"/>
<text text-anchor="middle" x="64.62" y="-781.87" font-family="Helvetica,sans-Serif" font-size="10.00">J3DIndTexMtxInfo</text>
</a>
</g>
</g>
<!-- Node5&#45;&gt;Node3 -->
<g id="edge4_Node000003_Node000005" class="edge">
<title>Node5&#45;&gt;Node3</title>
<g id="a_edge4_Node000003_Node000005"><a xlink:title=" ">
<path fill="none" stroke="#9a32cd" stroke-dasharray="5,2" d="M123.31,-779.78C160.61,-775.66 210.17,-769.68 253.75,-762.74 269.17,-760.29 286.03,-757.09 300.74,-754.13"/>
<polygon fill="#9a32cd" stroke="#9a32cd" points="123.21,-776.27 113.65,-780.84 123.97,-783.23 123.21,-776.27"/>
</a>
</g>
<text text-anchor="middle" x="200.5" y="-777.49" font-family="Helvetica,sans-Serif" font-size="10.00" fill="grey"> mIndTexMtxInfo</text>
</g>
<!-- Node6 -->
<g id="Node000006" class="node">
<title>Node6</title>
<g id="a_Node000006"><a xlink:href="structJ3DIndTexCoordScaleInfo.html" target="_top" xlink:title=" ">
<polygon fill="white" stroke="#666666" points="129.25,-758.37 0,-758.37 0,-739.12 129.25,-739.12 129.25,-758.37"/>
<text text-anchor="middle" x="64.62" y="-744.87" font-family="Helvetica,sans-Serif" font-size="10.00">J3DIndTexCoordScaleInfo</text>
</a>
</g>
</g>
<!-- Node6&#45;&gt;Node3 -->
<g id="edge5_Node000003_Node000006" class="edge">
<title>Node6&#45;&gt;Node3</title>
<g id="a_edge5_Node000003_Node000006"><a xlink:title=" ">
<path fill="none" stroke="#9a32cd" stroke-dasharray="5,2" d="M141.12,-747.92C192.79,-747.35 259.23,-746.63 300.79,-746.17"/>
<polygon fill="#9a32cd" stroke="#9a32cd" points="141.14,-744.42 131.18,-748.03 141.22,-751.42 141.14,-744.42"/>
</a>
</g>
<text text-anchor="middle" x="200.5" y="-749.49" font-family="Helvetica,sans-Serif" font-size="10.00" fill="grey"> mIndTexCoordScaleInfo</text>
</g>
<!-- Node7 -->
<g id="Node000007" class="node">
<title>Node7</title>
<g id="a_Node000007"><a xlink:href="structJ3DIndTevStageInfo.html" target="_top" xlink:title=" ">
<polygon fill="white" stroke="#666666" points="117.25,-721.37 12,-721.37 12,-702.12 117.25,-702.12 117.25,-721.37"/>
<text text-anchor="middle" x="64.62" y="-707.87" font-family="Helvetica,sans-Serif" font-size="10.00">J3DIndTevStageInfo</text>
</a>
</g>
</g>
<!-- Node7&#45;&gt;Node3 -->
<g id="edge6_Node000003_Node000007" class="edge">
<title>Node7&#45;&gt;Node3</title>
<g id="a_edge6_Node000003_Node000007"><a xlink:title=" ">
<path fill="none" stroke="#9a32cd" stroke-dasharray="5,2" d="M128.66,-716.83C165.26,-720.09 212.2,-724.77 253.75,-730.49 269.16,-732.62 286.02,-735.47 300.73,-738.13"/>
<polygon fill="#9a32cd" stroke="#9a32cd" points="129.43,-713.39 119.16,-716 128.82,-720.36 129.43,-713.39"/>
</a>
</g>
<text text-anchor="middle" x="200.5" y="-731.49" font-family="Helvetica,sans-Serif" font-size="10.00" fill="grey"> mIndTevStageInfo</text>
</g>
<!-- Node8 -->
<g id="Node000008" class="node">
<title>Node8</title>
<g id="a_Node000008"><a xlink:href="struct__GXColor.html" target="_top" xlink:title=" ">
<polygon fill="white" stroke="#666666" points="93.62,-665.37 35.62,-665.37 35.62,-646.12 93.62,-646.12 93.62,-665.37"/>
<text text-anchor="middle" x="64.62" y="-651.87" font-family="Helvetica,sans-Serif" font-size="10.00">_GXColor</text>
</a>
</g>
</g>
<!-- Node8&#45;&gt;Node1 -->
<g id="edge7_Node000001_Node000008" class="edge">
<title>Node8&#45;&gt;Node1</title>
<g id="a_edge7_Node000001_Node000008"><a xlink:title=" ">
<path fill="none" stroke="#9a32cd" stroke-dasharray="5,2" d="M105.13,-660.17C208.58,-670.85 483.99,-693.21 550.25,-636.74 590.76,-602.22 611.6,-425.23 616.24,-380.85"/>
<polygon fill="#9a32cd" stroke="#9a32cd" points="105.78,-656.72 95.46,-659.15 105.04,-663.68 105.78,-656.72"/>
</a>
</g>
<text text-anchor="middle" x="341.25" y="-696.99" font-family="Helvetica,sans-Serif" font-size="10.00" fill="grey"> mpAmbColor</text>
<text text-anchor="middle" x="341.25" y="-685.74" font-family="Helvetica,sans-Serif" font-size="10.00" fill="grey">mpMatColor</text>
<text text-anchor="middle" x="341.25" y="-674.49" font-family="Helvetica,sans-Serif" font-size="10.00" fill="grey">mpTevKColor</text>
</g>
<!-- Node10 -->
<g id="Node000010" class="node">
<title>Node10</title>
<g id="a_Node000010"><a xlink:href="classJ3DLightInfo.html" target="_top" xlink:title=" ">
<polygon fill="white" stroke="#666666" points="377,-584.37 305.5,-584.37 305.5,-565.12 377,-565.12 377,-584.37"/>
<text text-anchor="middle" x="341.25" y="-570.87" font-family="Helvetica,sans-Serif" font-size="10.00">J3DLightInfo</text>
</a>
</g>
</g>
<!-- Node8&#45;&gt;Node10 -->
<g id="edge11_Node000010_Node000008" class="edge">
<title>Node8&#45;&gt;Node10</title>
<g id="a_edge11_Node000010_Node000008"><a xlink:title=" ">
<path fill="none" stroke="#9a32cd" stroke-dasharray="5,2" d="M95.93,-640.8C111.06,-633.82 129.81,-625.89 147.25,-620.49 193.32,-606.24 207.43,-613.15 253.75,-599.74 262,-597.36 263.59,-595.39 271.75,-592.74 282.51,-589.25 294.38,-585.94 305.18,-583.14"/>
<polygon fill="#9a32cd" stroke="#9a32cd" points="94.55,-637.58 87,-645.01 97.53,-643.91 94.55,-637.58"/>
</a>
</g>
<text text-anchor="middle" x="200.5" y="-621.49" font-family="Helvetica,sans-Serif" font-size="10.00" fill="grey"> mColor</text>
</g>
<!-- Node20 -->
<g id="Node000020" class="node">
<title>Node20</title>
<g id="a_Node000020"><a xlink:href="structJ3DFogInfo.html" target="_top" xlink:title=" ">
<polygon fill="white" stroke="#666666" points="374.38,-621.37 308.12,-621.37 308.12,-602.12 374.38,-602.12 374.38,-621.37"/>
<text text-anchor="middle" x="341.25" y="-607.87" font-family="Helvetica,sans-Serif" font-size="10.00">J3DFogInfo</text>
</a>
</g>
</g>
<!-- Node8&#45;&gt;Node20 -->
<g id="edge22_Node000020_Node000008" class="edge">
<title>Node8&#45;&gt;Node20</title>
<g id="a_edge22_Node000020_Node000008"><a xlink:title=" ">
<path fill="none" stroke="#9a32cd" stroke-dasharray="5,2" d="M104.99,-652.67C143.21,-649.33 202.76,-643.16 253.75,-633.74 271.88,-630.39 291.85,-625.4 308.03,-621.02"/>
<polygon fill="#9a32cd" stroke="#9a32cd" points="105.02,-649.15 95.35,-653.49 105.62,-656.13 105.02,-649.15"/>
</a>
</g>
<text text-anchor="middle" x="200.5" y="-649.49" font-family="Helvetica,sans-Serif" font-size="10.00" fill="grey"> mColor</text>
</g>
<!-- Node9 -->
<g id="Node000009" class="node">
<title>Node9</title>
<g id="a_Node000009"><a xlink:href="structJ3DColorChanInfo.html" target="_top" xlink:title=" ">
<polygon fill="white" stroke="#666666" points="388.62,-473.37 293.88,-473.37 293.88,-454.12 388.62,-454.12 388.62,-473.37"/>
<text text-anchor="middle" x="341.25" y="-459.87" font-family="Helvetica,sans-Serif" font-size="10.00">J3DColorChanInfo</text>
</a>
</g>
</g>
<!-- Node9&#45;&gt;Node1 -->
<g id="edge8_Node000001_Node000009" class="edge">
<title>Node9&#45;&gt;Node1</title>
<g id="a_edge8_Node000001_Node000009"><a xlink:title=" ">
<path fill="none" stroke="#9a32cd" stroke-dasharray="5,2" d="M400.28,-459.3C452.38,-454.6 524.5,-446.15 550.25,-433.74 576.14,-421.27 598.75,-395.19 609.89,-380.8"/>
<polygon fill="#9a32cd" stroke="#9a32cd" points="400,-455.81 390.34,-460.17 400.61,-462.78 400,-455.81"/>
</a>
</g>
<text text-anchor="middle" x="489.5" y="-457.49" font-family="Helvetica,sans-Serif" font-size="10.00" fill="grey"> mpColorChanInfo</text>
</g>
<!-- Node10&#45;&gt;Node1 -->
<g id="edge9_Node000001_Node000010" class="edge">
<title>Node10&#45;&gt;Node1</title>
<g id="a_edge9_Node000001_Node000010"><a xlink:title=" ">
<path fill="none" stroke="#9a32cd" stroke-dasharray="5,2" d="M388.63,-575.38C442.14,-575.19 525.9,-571.71 550.25,-552.74 606.83,-508.67 615.64,-411.94 617,-380.69"/>
<polygon fill="#9a32cd" stroke="#9a32cd" points="388.89,-571.88 378.89,-575.38 388.89,-578.88 388.89,-571.88"/>
</a>
</g>
<text text-anchor="middle" x="489.5" y="-575.49" font-family="Helvetica,sans-Serif" font-size="10.00" fill="grey"> mpLightInfo</text>
</g>
<!-- Node11 -->
<g id="Node000011" class="node">
<title>Node11</title>
<g id="a_Node000011"><a xlink:href="structVec.html" target="_top" xlink:title=" ">
<polygon fill="white" stroke="#666666" points="81.25,-495.37 48,-495.37 48,-476.12 81.25,-476.12 81.25,-495.37"/>
<text text-anchor="middle" x="64.62" y="-481.87" font-family="Helvetica,sans-Serif" font-size="10.00">Vec</text>
</a>
</g>
</g>
<!-- Node11&#45;&gt;Node10 -->
<g id="edge10_Node000010_Node000011" class="edge">
<title>Node11&#45;&gt;Node10</title>
<g id="a_edge10_Node000010_Node000011"><a xlink:title=" ">
<path fill="none" stroke="#9a32cd" stroke-dasharray="5,2" d="M92.94,-490.47C138.4,-498.7 227.25,-516.44 253.75,-533.74 264.62,-540.84 260.91,-549.61 271.75,-556.74 281.71,-563.3 293.96,-567.47 305.33,-570.12"/>
<polygon fill="#9a32cd" stroke="#9a32cd" points="93.55,-487.02 83.09,-488.72 92.33,-493.91 93.55,-487.02"/>
</a>
</g>
<text text-anchor="middle" x="200.5" y="-569.24" font-family="Helvetica,sans-Serif" font-size="10.00" fill="grey"> mCosAtten</text>
<text text-anchor="middle" x="200.5" y="-557.99" font-family="Helvetica,sans-Serif" font-size="10.00" fill="grey">mDistAtten</text>
<text text-anchor="middle" x="200.5" y="-546.74" font-family="Helvetica,sans-Serif" font-size="10.00" fill="grey">mLightDirection</text>
<text text-anchor="middle" x="200.5" y="-535.49" font-family="Helvetica,sans-Serif" font-size="10.00" fill="grey">mLightPosition</text>
</g>
<!-- Node13 -->
<g id="Node000013" class="node">
<title>Node13</title>
<g id="a_Node000013"><a xlink:href="structJ3DTexMtxInfo.html" target="_top" xlink:title=" ">
<polygon fill="white" stroke="#666666" points="381.88,-547.37 300.62,-547.37 300.62,-528.12 381.88,-528.12 381.88,-547.37"/>
<text text-anchor="middle" x="341.25" y="-533.87" font-family="Helvetica,sans-Serif" font-size="10.00">J3DTexMtxInfo</text>
</a>
</g>
</g>
<!-- Node11&#45;&gt;Node13 -->
<g id="edge14_Node000013_Node000011" class="edge">
<title>Node11&#45;&gt;Node13</title>
<g id="a_edge14_Node000013_Node000011"><a xlink:title=" ">
<path fill="none" stroke="#9a32cd" stroke-dasharray="5,2" d="M92.8,-477.76C131.56,-468.07 203.57,-456.46 253.75,-486.49 268.17,-495.12 258.53,-509.36 271.75,-519.74 279.97,-526.2 290.28,-530.35 300.39,-533.02"/>
<polygon fill="#9a32cd" stroke="#9a32cd" points="91.9,-474.38 83.14,-480.34 93.7,-481.15 91.9,-474.38"/>
</a>
</g>
<text text-anchor="middle" x="200.5" y="-487.49" font-family="Helvetica,sans-Serif" font-size="10.00" fill="grey"> mCenter</text>
</g>
<!-- Node25 -->
<g id="Node000025" class="node">
<title>Node25</title>
<g id="a_Node000025"><a xlink:href="structJ3DNBTScaleInfo.html" target="_top" xlink:title=" ">
<polygon fill="white" stroke="#666666" points="388.62,-510.37 293.88,-510.37 293.88,-491.12 388.62,-491.12 388.62,-510.37"/>
<text text-anchor="middle" x="341.25" y="-496.87" font-family="Helvetica,sans-Serif" font-size="10.00">J3DNBTScaleInfo</text>
</a>
</g>
</g>
<!-- Node11&#45;&gt;Node25 -->
<g id="edge28_Node000025_Node000011" class="edge">
<title>Node11&#45;&gt;Node25</title>
<g id="a_edge28_Node000025_Node000011"><a xlink:title=" ">
<path fill="none" stroke="#9a32cd" stroke-dasharray="5,2" d="M91.47,-471.06C129.51,-451.58 201.7,-422.9 253.75,-452.49 267.35,-460.23 259.25,-473.33 271.75,-482.74 278.13,-487.55 285.69,-491.08 293.42,-493.66"/>
<polygon fill="#9a32cd" stroke="#9a32cd" points="90.21,-467.76 83.02,-475.54 93.5,-473.94 90.21,-467.76"/>
</a>
</g>
<text text-anchor="middle" x="200.5" y="-453.49" font-family="Helvetica,sans-Serif" font-size="10.00" fill="grey"> mScale</text>
</g>
<!-- Node12 -->
<g id="Node000012" class="node">
<title>Node12</title>
<g id="a_Node000012"><a xlink:href="structJ3DTexCoordInfo.html" target="_top" xlink:title=" ">
<polygon fill="white" stroke="#666666" points="386.75,-436.37 295.75,-436.37 295.75,-417.12 386.75,-417.12 386.75,-436.37"/>
<text text-anchor="middle" x="341.25" y="-422.87" font-family="Helvetica,sans-Serif" font-size="10.00">J3DTexCoordInfo</text>
</a>
</g>
</g>
<!-- Node12&#45;&gt;Node1 -->
<g id="edge12_Node000001_Node000012" class="edge">
<title>Node12&#45;&gt;Node1</title>
<g id="a_edge12_Node000001_Node000012"><a xlink:title=" ">
<path fill="none" stroke="#9a32cd" stroke-dasharray="5,2" d="M398.56,-422.64C440.83,-418.67 499.86,-411.19 550.25,-397.74 566.12,-393.51 583.3,-386.54 596.28,-380.74"/>
<polygon fill="#9a32cd" stroke="#9a32cd" points="398.26,-419.16 388.61,-423.54 398.89,-426.13 398.26,-419.16"/>
</a>
</g>
<text text-anchor="middle" x="489.5" y="-420.49" font-family="Helvetica,sans-Serif" font-size="10.00" fill="grey"> mpTexCoordInfo</text>
</g>
<!-- Node13&#45;&gt;Node1 -->
<g id="edge13_Node000001_Node000013" class="edge">
<title>Node13&#45;&gt;Node1</title>
<g id="a_edge13_Node000001_Node000013"><a xlink:title=" ">
<path fill="none" stroke="#9a32cd" stroke-dasharray="5,2" d="M393.33,-532.62C450.79,-526.48 537.77,-515.85 550.25,-506.74 594.05,-474.78 610.74,-406.19 615.59,-380.62"/>
<polygon fill="#9a32cd" stroke="#9a32cd" points="392.99,-529.14 383.42,-533.67 393.73,-536.1 392.99,-529.14"/>
</a>
</g>
<text text-anchor="middle" x="489.5" y="-540.74" font-family="Helvetica,sans-Serif" font-size="10.00" fill="grey"> field_0x34</text>
<text text-anchor="middle" x="489.5" y="-529.49" font-family="Helvetica,sans-Serif" font-size="10.00" fill="grey">mpTexMtxInfo</text>
</g>
<!-- Node14 -->
<g id="Node000014" class="node">
<title>Node14</title>
<g id="a_Node000014"><a xlink:href="structJ3DTextureSRTInfo.html" target="_top" xlink:title=" ">
<polygon fill="white" stroke="#666666" points="115.38,-427.37 13.88,-427.37 13.88,-408.12 115.38,-408.12 115.38,-427.37"/>
<text text-anchor="middle" x="64.62" y="-413.87" font-family="Helvetica,sans-Serif" font-size="10.00">J3DTextureSRTInfo</text>
</a>
</g>
</g>
<!-- Node14&#45;&gt;Node13 -->
<g id="edge15_Node000013_Node000014" class="edge">
<title>Node14&#45;&gt;Node13</title>
<g id="a_edge15_Node000013_Node000014"><a xlink:title=" ">
<path fill="none" stroke="#9a32cd" stroke-dasharray="5,2" d="M110,-405.16C152.1,-396.15 214.59,-390.83 253.75,-424.49 286.42,-452.57 242.37,-488.23 271.75,-519.74 279.21,-527.75 289.76,-532.36 300.36,-534.98"/>
<polygon fill="#9a32cd" stroke="#9a32cd" points="109.4,-401.7 100.44,-407.36 110.97,-408.53 109.4,-401.7"/>
</a>
</g>
<text text-anchor="middle" x="200.5" y="-425.49" font-family="Helvetica,sans-Serif" font-size="10.00" fill="grey"> mSRT</text>
</g>
<!-- Node15 -->
<g id="Node000015" class="node">
<title>Node15</title>
<g id="a_Node000015"><a xlink:href="structJ3DTevOrderInfo.html" target="_top" xlink:title=" ">
<polygon fill="white" stroke="#666666" points="386.38,-399.37 296.12,-399.37 296.12,-380.12 386.38,-380.12 386.38,-399.37"/>
<text text-anchor="middle" x="341.25" y="-385.87" font-family="Helvetica,sans-Serif" font-size="10.00">J3DTevOrderInfo</text>
</a>
</g>
</g>
<!-- Node15&#45;&gt;Node1 -->
<g id="edge16_Node000001_Node000015" class="edge">
<title>Node15&#45;&gt;Node1</title>
<g id="a_edge16_Node000001_Node000015"><a xlink:title=" ">
<path fill="none" stroke="#9a32cd" stroke-dasharray="5,2" d="M397.97,-385.89C447.89,-382.44 520.41,-377.43 568.18,-374.13"/>
<polygon fill="#9a32cd" stroke="#9a32cd" points="397.98,-382.38 388.25,-386.56 398.47,-389.37 397.98,-382.38"/>
</a>
</g>
<text text-anchor="middle" x="489.5" y="-384.49" font-family="Helvetica,sans-Serif" font-size="10.00" fill="grey"> mpTevOrderInfo</text>
</g>
<!-- Node16 -->
<g id="Node000016" class="node">
<title>Node16</title>
<g id="a_Node000016"><a xlink:href="struct__GXColorS10.html" target="_top" xlink:title=" ">
<polygon fill="white" stroke="#666666" points="378.88,-362.37 303.62,-362.37 303.62,-343.12 378.88,-343.12 378.88,-362.37"/>
<text text-anchor="middle" x="341.25" y="-348.87" font-family="Helvetica,sans-Serif" font-size="10.00">_GXColorS10</text>
</a>
</g>
</g>
<!-- Node16&#45;&gt;Node1 -->
<g id="edge17_Node000001_Node000016" class="edge">
<title>Node16&#45;&gt;Node1</title>
<g id="a_edge17_Node000001_Node000016"><a xlink:title=" ">
<path fill="none" stroke="#9a32cd" stroke-dasharray="5,2" d="M390.56,-351C432.83,-350.11 495.8,-350.27 550.25,-356.49 558.64,-357.45 567.53,-358.97 575.99,-360.67"/>
<polygon fill="#9a32cd" stroke="#9a32cd" points="390.64,-347.5 380.72,-351.25 390.81,-354.5 390.64,-347.5"/>
</a>
</g>
<text text-anchor="middle" x="489.5" y="-357.49" font-family="Helvetica,sans-Serif" font-size="10.00" fill="grey"> mpTevColor</text>
</g>
<!-- Node17 -->
<g id="Node000017" class="node">
<title>Node17</title>
<g id="a_Node000017"><a xlink:href="structJ3DTevStageInfo.html" target="_top" xlink:title=" ">
<polygon fill="white" stroke="#666666" points="387.12,-325.37 295.38,-325.37 295.38,-306.12 387.12,-306.12 387.12,-325.37"/>
<text text-anchor="middle" x="341.25" y="-311.87" font-family="Helvetica,sans-Serif" font-size="10.00">J3DTevStageInfo</text>
</a>
</g>
</g>
<!-- Node17&#45;&gt;Node1 -->
<g id="edge18_Node000001_Node000017" class="edge">
<title>Node17&#45;&gt;Node1</title>
<g id="a_edge18_Node000001_Node000017"><a xlink:title=" ">
<path fill="none" stroke="#9a32cd" stroke-dasharray="5,2" d="M398.72,-314.72C441.23,-315.4 500.49,-319.48 550.25,-334.49 569.62,-340.34 589.77,-352.14 602.85,-360.7"/>
<polygon fill="#9a32cd" stroke="#9a32cd" points="399.02,-311.22 388.98,-314.63 398.95,-318.22 399.02,-311.22"/>
</a>
</g>
<text text-anchor="middle" x="489.5" y="-335.49" font-family="Helvetica,sans-Serif" font-size="10.00" fill="grey"> mpTevStageInfo</text>
</g>
<!-- Node18 -->
<g id="Node000018" class="node">
<title>Node18</title>
<g id="a_Node000018"><a xlink:href="structJ3DTevSwapModeInfo.html" target="_top" xlink:title=" ">
<polygon fill="white" stroke="#666666" points="398.75,-288.37 283.75,-288.37 283.75,-269.12 398.75,-269.12 398.75,-288.37"/>
<text text-anchor="middle" x="341.25" y="-274.87" font-family="Helvetica,sans-Serif" font-size="10.00">J3DTevSwapModeInfo</text>
</a>
</g>
</g>
<!-- Node18&#45;&gt;Node1 -->
<g id="edge19_Node000001_Node000018" class="edge">
<title>Node18&#45;&gt;Node1</title>
<g id="a_edge19_Node000001_Node000018"><a xlink:title=" ">
<path fill="none" stroke="#9a32cd" stroke-dasharray="5,2" d="M410.31,-274.23C452.6,-274.17 506.97,-279.23 550.25,-300.49 578.23,-314.24 600.76,-344.8 611.11,-360.7"/>
<polygon fill="#9a32cd" stroke="#9a32cd" points="410.47,-270.73 400.52,-274.35 410.56,-277.73 410.47,-270.73"/>
</a>
</g>
<text text-anchor="middle" x="489.5" y="-301.49" font-family="Helvetica,sans-Serif" font-size="10.00" fill="grey"> mpTevSwapModeInfo</text>
</g>
<!-- Node19 -->
<g id="Node000019" class="node">
<title>Node19</title>
<g id="a_Node000019"><a xlink:href="structJ3DTevSwapModeTableInfo.html" target="_top" xlink:title=" ">
<polygon fill="white" stroke="#666666" points="410.75,-251.37 271.75,-251.37 271.75,-232.12 410.75,-232.12 410.75,-251.37"/>
<text text-anchor="middle" x="341.25" y="-237.87" font-family="Helvetica,sans-Serif" font-size="10.00">J3DTevSwapModeTableInfo</text>
</a>
</g>
</g>
<!-- Node19&#45;&gt;Node1 -->
<g id="edge20_Node000001_Node000019" class="edge">
<title>Node19&#45;&gt;Node1</title>
<g id="a_edge20_Node000001_Node000019"><a xlink:title=" ">
<path fill="none" stroke="#9a32cd" stroke-dasharray="5,2" d="M422.22,-231.53C463.33,-230.21 512.57,-235.05 550.25,-258.49 588.98,-282.59 608.2,-338.05 614.66,-360.76"/>
<polygon fill="#9a32cd" stroke="#9a32cd" points="422.2,-228.03 412.37,-231.99 422.52,-235.02 422.2,-228.03"/>
</a>
</g>
<text text-anchor="middle" x="489.5" y="-259.49" font-family="Helvetica,sans-Serif" font-size="10.00" fill="grey"> mpTevSwapModeTableInfo</text>
</g>
<!-- Node20&#45;&gt;Node1 -->
<g id="edge21_Node000001_Node000020" class="edge">
<title>Node20&#45;&gt;Node1</title>
<g id="a_edge21_Node000001_Node000020"><a xlink:title=" ">
<path fill="none" stroke="#9a32cd" stroke-dasharray="5,2" d="M385.67,-619.68C431.81,-625.49 504.32,-626.75 550.25,-588.74 616.44,-533.96 618.56,-415.41 617.67,-380.56"/>
<polygon fill="#9a32cd" stroke="#9a32cd" points="386.42,-616.25 376.04,-618.33 385.46,-623.18 386.42,-616.25"/>
</a>
</g>
<text text-anchor="middle" x="489.5" y="-623.49" font-family="Helvetica,sans-Serif" font-size="10.00" fill="grey"> mpFogInfo</text>
</g>
<!-- Node21 -->
<g id="Node000021" class="node">
<title>Node21</title>
<g id="a_Node000021"><a xlink:href="struct__GXFogAdjTable.html" target="_top" xlink:title=" ">
<polygon fill="white" stroke="#666666" points="109.75,-597.37 19.5,-597.37 19.5,-578.12 109.75,-578.12 109.75,-597.37"/>
<text text-anchor="middle" x="64.62" y="-583.87" font-family="Helvetica,sans-Serif" font-size="10.00">_GXFogAdjTable</text>
</a>
</g>
</g>
<!-- Node21&#45;&gt;Node20 -->
<g id="edge23_Node000020_Node000021" class="edge">
<title>Node21&#45;&gt;Node20</title>
<g id="a_edge23_Node000020_Node000021"><a xlink:title=" ">
<path fill="none" stroke="#9a32cd" stroke-dasharray="5,2" d="M121.21,-583.91C158.82,-582.31 209.52,-582.08 253.75,-588.49 262,-589.69 263.72,-591.52 271.75,-593.74 283.48,-596.99 296.38,-600.42 307.8,-603.4"/>
<polygon fill="#9a32cd" stroke="#9a32cd" points="121.31,-580.4 111.49,-584.38 121.64,-587.4 121.31,-580.4"/>
</a>
</g>
<text text-anchor="middle" x="200.5" y="-589.49" font-family="Helvetica,sans-Serif" font-size="10.00" fill="grey"> mFogAdjTable</text>
</g>
<!-- Node22 -->
<g id="Node000022" class="node">
<title>Node22</title>
<g id="a_Node000022"><a xlink:href="structJ3DAlphaCompInfo.html" target="_top" xlink:title=" ">
<polygon fill="white" stroke="#666666" points="391.25,-214.37 291.25,-214.37 291.25,-195.12 391.25,-195.12 391.25,-214.37"/>
<text text-anchor="middle" x="341.25" y="-200.87" font-family="Helvetica,sans-Serif" font-size="10.00">J3DAlphaCompInfo</text>
</a>
</g>
</g>
<!-- Node22&#45;&gt;Node1 -->
<g id="edge24_Node000001_Node000022" class="edge">
<title>Node22&#45;&gt;Node1</title>
<g id="a_edge24_Node000001_Node000022"><a xlink:title=" ">
<path fill="none" stroke="#9a32cd" stroke-dasharray="5,2" d="M396.84,-192.81C442,-186.16 505.73,-184.54 550.25,-215.49 600.87,-250.68 613.53,-332.61 616.44,-360.91"/>
<polygon fill="#9a32cd" stroke="#9a32cd" points="396.3,-189.36 386.99,-194.41 397.42,-196.27 396.3,-189.36"/>
</a>
</g>
<text text-anchor="middle" x="489.5" y="-216.49" font-family="Helvetica,sans-Serif" font-size="10.00" fill="grey"> mpAlphaCompInfo</text>
</g>
<!-- Node23 -->
<g id="Node000023" class="node">
<title>Node23</title>
<g id="a_Node000023"><a xlink:href="structJ3DBlendInfo.html" target="_top" xlink:title=" ">
<polygon fill="white" stroke="#666666" points="378.5,-177.37 304,-177.37 304,-158.12 378.5,-158.12 378.5,-177.37"/>
<text text-anchor="middle" x="341.25" y="-163.87" font-family="Helvetica,sans-Serif" font-size="10.00">J3DBlendInfo</text>
</a>
</g>
</g>
<!-- Node23&#45;&gt;Node1 -->
<g id="edge25_Node000001_Node000023" class="edge">
<title>Node23&#45;&gt;Node1</title>
<g id="a_edge25_Node000001_Node000023"><a xlink:title=" ">
<path fill="none" stroke="#9a32cd" stroke-dasharray="5,2" d="M388.09,-155.16C433.76,-145.55 503.62,-139.1 550.25,-173.49 612.83,-219.65 617.55,-327.4 617.46,-360.74"/>
<polygon fill="#9a32cd" stroke="#9a32cd" points="387.49,-151.71 378.51,-157.32 389.03,-158.54 387.49,-151.71"/>
</a>
</g>
<text text-anchor="middle" x="489.5" y="-174.49" font-family="Helvetica,sans-Serif" font-size="10.00" fill="grey"> mpBlendInfo</text>
</g>
<!-- Node24 -->
<g id="Node000024" class="node">
<title>Node24</title>
<g id="a_Node000024"><a xlink:href="structJ3DZModeInfo.html" target="_top" xlink:title=" ">
<polygon fill="white" stroke="#666666" points="381.12,-140.37 301.38,-140.37 301.38,-121.12 381.12,-121.12 381.12,-140.37"/>
<text text-anchor="middle" x="341.25" y="-126.87" font-family="Helvetica,sans-Serif" font-size="10.00">J3DZModeInfo</text>
</a>
</g>
</g>
<!-- Node24&#45;&gt;Node1 -->
<g id="edge26_Node000001_Node000024" class="edge">
<title>Node24&#45;&gt;Node1</title>
<g id="a_edge26_Node000001_Node000024"><a xlink:title=" ">
<path fill="none" stroke="#9a32cd" stroke-dasharray="5,2" d="M392.62,-124.21C446.19,-118.4 526.43,-113.36 550.25,-131.49 588.35,-160.49 610.75,-319.12 616.03,-360.74"/>
<polygon fill="#9a32cd" stroke="#9a32cd" points="392.34,-120.72 382.79,-125.32 393.12,-127.67 392.34,-120.72"/>
</a>
</g>
<text text-anchor="middle" x="489.5" y="-132.49" font-family="Helvetica,sans-Serif" font-size="10.00" fill="grey"> mpZModeInfo</text>
</g>
<!-- Node25&#45;&gt;Node1 -->
<g id="edge27_Node000001_Node000025" class="edge">
<title>Node25&#45;&gt;Node1</title>
<g id="a_edge27_Node000001_Node000025"><a xlink:title=" ">
<path fill="none" stroke="#9a32cd" stroke-dasharray="5,2" d="M400.19,-497.63C452.86,-493.87 525.94,-486.04 550.25,-470.74 585.09,-448.81 605.98,-401.41 613.77,-380.73"/>
<polygon fill="#9a32cd" stroke="#9a32cd" points="400.2,-494.12 390.46,-498.29 400.67,-501.11 400.2,-494.12"/>
</a>
</g>
<text text-anchor="middle" x="489.5" y="-496.49" font-family="Helvetica,sans-Serif" font-size="10.00" fill="grey"> mpNBTScaleInfo</text>
</g>
<!-- Node26 -->
<g id="Node000026" class="node">
<title>Node26</title>
<g id="a_Node000026"><a xlink:href="structJ3DDisplayListInit.html" target="_top" xlink:title=" ">
<polygon fill="white" stroke="#666666" points="388.62,-103.37 293.88,-103.37 293.88,-84.12 388.62,-84.12 388.62,-103.37"/>
<text text-anchor="middle" x="341.25" y="-89.87" font-family="Helvetica,sans-Serif" font-size="10.00">J3DDisplayListInit</text>
</a>
</g>
</g>
<!-- Node26&#45;&gt;Node1 -->
<g id="edge29_Node000001_Node000026" class="edge">
<title>Node26&#45;&gt;Node1</title>
<g id="a_edge29_Node000001_Node000026"><a xlink:title=" ">
<path fill="none" stroke="#9a32cd" stroke-dasharray="5,2" d="M389.63,-81.28C435.88,-72.17 505.64,-66.97 550.25,-103.49 591.7,-137.43 611.91,-316.59 616.31,-360.85"/>
<polygon fill="#9a32cd" stroke="#9a32cd" points="388.94,-77.85 379.89,-83.35 390.39,-84.7 388.94,-77.85"/>
</a>
</g>
<text text-anchor="middle" x="489.5" y="-104.49" font-family="Helvetica,sans-Serif" font-size="10.00" fill="grey"> mpDisplayListInit</text>
</g>
<!-- Node27 -->
<g id="Node000027" class="node">
<title>Node27</title>
<g id="a_Node000027"><a xlink:href="structJ3DPatchingInfo.html" target="_top" xlink:title=" ">
<polygon fill="white" stroke="#666666" points="385.25,-66.37 297.25,-66.37 297.25,-47.12 385.25,-47.12 385.25,-66.37"/>
<text text-anchor="middle" x="341.25" y="-52.87" font-family="Helvetica,sans-Serif" font-size="10.00">J3DPatchingInfo</text>
</a>
</g>
</g>
<!-- Node27&#45;&gt;Node1 -->
<g id="edge30_Node000001_Node000027" class="edge">
<title>Node27&#45;&gt;Node1</title>
<g id="a_edge30_Node000001_Node000027"><a xlink:title=" ">
<path fill="none" stroke="#9a32cd" stroke-dasharray="5,2" d="M396.98,-49.76C450.65,-44.2 527.63,-40.05 550.25,-58.49 598.92,-98.17 613.91,-312.07 616.72,-360.84"/>
<polygon fill="#9a32cd" stroke="#9a32cd" points="396.64,-46.28 387.07,-50.84 397.39,-53.24 396.64,-46.28"/>
</a>
</g>
<text text-anchor="middle" x="489.5" y="-59.49" font-family="Helvetica,sans-Serif" font-size="10.00" fill="grey"> mpPatchingInfo</text>
</g>
<!-- Node28 -->
<g id="Node000028" class="node">
<title>Node28</title>
<g id="a_Node000028"><a xlink:href="classJ3DCurrentMtxInfo.html" target="_top" xlink:title=" ">
<polygon fill="white" stroke="#666666" points="389.75,-29.37 292.75,-29.37 292.75,-10.12 389.75,-10.12 389.75,-29.37"/>
<text text-anchor="middle" x="341.25" y="-15.87" font-family="Helvetica,sans-Serif" font-size="10.00">J3DCurrentMtxInfo</text>
</a>
</g>
</g>
<!-- Node28&#45;&gt;Node1 -->
<g id="edge31_Node000001_Node000028" class="edge">
<title>Node28&#45;&gt;Node1</title>
<g id="a_edge31_Node000001_Node000028"><a xlink:title=" ">
<path fill="none" stroke="#9a32cd" stroke-dasharray="5,2" d="M388.97,-7.29C435.55,2.07 506.32,7.57 550.25,-30.49 602.01,-75.34 614.69,-309.19 616.87,-360.7"/>
<polygon fill="#9a32cd" stroke="#9a32cd" points="388.48,-3.81 379.44,-9.34 389.96,-10.66 388.48,-3.81"/>
</a>
</g>
<text text-anchor="middle" x="489.5" y="-32.49" font-family="Helvetica,sans-Serif" font-size="10.00" fill="grey"> mpCurrentMtxInfo</text>
</g>
</g>
</svg>
