<?xml version="1.0" encoding="UTF-8" standalone="no"?>
<!DOCTYPE svg PUBLIC "-//W3C//DTD SVG 1.1//EN"
 "http://www.w3.org/Graphics/SVG/1.1/DTD/svg11.dtd">
<!-- Generated by graphviz version 9.0.0 (20230911.1827)
 -->
<!-- Title: daObjMovebox::Bgc_c Pages: 1 -->
<!--zoomable 499 -->

<svg id="main" version="1.1" xmlns="http://www.w3.org/2000/svg" xmlns:xlink="http://www.w3.org/1999/xlink" xml:space="preserve" onload="init(evt)">
<style type="text/css"><![CDATA[
.node, .edge {opacity: 0.7;}
.node.selected, .edge.selected {opacity: 1;}
.edge:hover path { stroke: red; }
.edge:hover polygon { stroke: red; fill: red; }
]]></style>

<defs>
  <circle id="rim" cx="0" cy="0" r="7"/>
  <circle id="rim2" cx="0" cy="0" r="3.5"/>
  <g id="zoomPlus">
    <use xlink:href="#rim" fill="#404040"><set attributeName="fill" to="#808080" begin="zoomplus.mouseover" end="zoomplus.mouseout"/></use>
    <path d="M-4,0h8M0,-4v8" fill="none" stroke="white" stroke-width="1.5" pointer-events="none"/>
  </g>
  <g id="zoomMin">
    <use xlink:href="#rim" fill="#404040"><set attributeName="fill" to="#808080" begin="zoomminus.mouseover" end="zoomminus.mouseout"/></use>
    <path d="M-4,0h8" fill="none" stroke="white" stroke-width="1.5" pointer-events="none"/>
  </g>
  <g id="arrowUp" transform="translate(30 24)">
    <use xlink:href="#rim"/>
    <path pointer-events="none" fill="none" stroke="white" stroke-width="1.5" d="M0,-3.0v7 M-2.5,-0.5L0,-3.0L2.5,-0.5"/>
  </g>
  <g id="arrowRight" transform="rotate(90) translate(36 -43)">
    <use xlink:href="#rim"/>
    <path pointer-events="none" fill="none" stroke="white" stroke-width="1.5" d="M0,-3.0v7 M-2.5,-0.5L0,-3.0L2.5,-0.5"/>
  </g>
  <g id="arrowDown" transform="rotate(180) translate(-30 -48)">
    <use xlink:href="#rim"/>
    <path pointer-events="none" fill="none" stroke="white" stroke-width="1.5" d="M0,-3.0v7 M-2.5,-0.5L0,-3.0L2.5,-0.5"/>
  </g>
  <g id="arrowLeft" transform="rotate(270) translate(-36 17)">
    <use xlink:href="#rim"/>
    <path pointer-events="none" fill="none" stroke="white" stroke-width="1.5" d="M0,-3.0v7 M-2.5,-0.5L0,-3.0L2.5,-0.5"/>
  </g>
  <g id="resetDef">
    <use xlink:href="#rim2" fill="#404040"><set attributeName="fill" to="#808080" begin="reset.mouseover" end="reset.mouseout"/></use>
  </g>
</defs>
<script type="application/ecmascript">
var viewWidth = 859;
var viewHeight = 499;
var sectionId = 'dynsection-0';
</script>
<script type="application/ecmascript" xlink:href="svg.min.js"/>
<svg id="graph" class="graph">
<g id="viewport">
<title>daObjMovebox::Bgc_c</title>
<!-- Node1 -->
<g id="Node000001" class="node">
<title>Node1</title>
<g id="a_Node000001"><a xlink:title=" ">
<polygon fill="#999999" stroke="#666666" points="303.25,-19.25 190.5,-19.25 190.5,0 303.25,0 303.25,-19.25"/>
<text text-anchor="middle" x="246.88" y="-5.75" font-family="Helvetica,sans-Serif" font-size="10.00">daObjMovebox::Bgc_c</text>
</a>
</g>
</g>
<!-- Node2 -->
<g id="Node000002" class="node">
<title>Node2</title>
<g id="a_Node000002"><a xlink:href="classdaObjMovebox_1_1BgcSrc__c.html" target="_top" xlink:title=" ">
<polygon fill="white" stroke="#666666" points="127.75,-97 0,-97 0,-77.75 127.75,-77.75 127.75,-97"/>
<text text-anchor="middle" x="63.88" y="-83.5" font-family="Helvetica,sans-Serif" font-size="10.00">daObjMovebox::BgcSrc_c</text>
</a>
</g>
</g>
<!-- Node2&#45;&gt;Node1 -->
<g id="edge1_Node000001_Node000002" class="edge">
<title>Node2&#45;&gt;Node1</title>
<g id="a_edge1_Node000001_Node000002"><a xlink:title=" ">
<path fill="none" stroke="#9a32cd" stroke-dasharray="5,2" d="M74.89,-68.15C82.32,-57.48 93.07,-44.67 105.88,-37.25 131.31,-22.52 163.26,-15.71 190.3,-12.65"/>
<polygon fill="#9a32cd" stroke="#9a32cd" points="72.17,-65.93 69.66,-76.23 78.04,-69.74 72.17,-65.93"/>
</a>
</g>
<text text-anchor="middle" x="123.88" y="-50.25" font-family="Helvetica,sans-Serif" font-size="10.00" fill="grey"> M_lin20</text>
<text text-anchor="middle" x="123.88" y="-39" font-family="Helvetica,sans-Serif" font-size="10.00" fill="grey">M_lin5</text>
</g>
<!-- Node3 -->
<g id="Node000003" class="node">
<title>Node3</title>
<g id="a_Node000003"><a xlink:href="classdBgS__ObjGndChk.html" target="_top" xlink:title=" ">
<polygon fill="white" stroke="#666666" points="294.62,-97 199.12,-97 199.12,-77.75 294.62,-77.75 294.62,-97"/>
<text text-anchor="middle" x="246.88" y="-83.5" font-family="Helvetica,sans-Serif" font-size="10.00">dBgS_ObjGndChk</text>
</a>
</g>
</g>
<!-- Node3&#45;&gt;Node1 -->
<g id="edge2_Node000001_Node000003" class="edge">
<title>Node3&#45;&gt;Node1</title>
<g id="a_edge2_Node000001_Node000003"><a xlink:title=" ">
<path fill="none" stroke="#9a32cd" stroke-dasharray="5,2" d="M246.88,-66.1C246.88,-50.95 246.88,-30.98 246.88,-19.6"/>
<polygon fill="#9a32cd" stroke="#9a32cd" points="243.38,-65.87 246.88,-75.87 250.38,-65.87 243.38,-65.87"/>
</a>
</g>
<text text-anchor="middle" x="275.75" y="-44.62" font-family="Helvetica,sans-Serif" font-size="10.00" fill="grey"> M_gnd_work</text>
</g>
<!-- Node4 -->
<g id="Node000004" class="node">
<title>Node4</title>
<g id="a_Node000004"><a xlink:href="classdBgS__GndChk.html" target="_top" xlink:title=" ">
<polygon fill="white" stroke="#666666" points="287.12,-153.25 206.62,-153.25 206.62,-134 287.12,-134 287.12,-153.25"/>
<text text-anchor="middle" x="246.88" y="-139.75" font-family="Helvetica,sans-Serif" font-size="10.00">dBgS_GndChk</text>
</a>
</g>
</g>
<!-- Node4&#45;&gt;Node3 -->
<g id="edge3_Node000003_Node000004" class="edge">
<title>Node4&#45;&gt;Node3</title>
<g id="a_edge3_Node000003_Node000004"><a xlink:title=" ">
<path fill="none" stroke="#63b8ff" d="M246.88,-122.44C246.88,-113.73 246.88,-103.99 246.88,-97.17"/>
<polygon fill="#63b8ff" stroke="#63b8ff" points="243.38,-122.15 246.88,-132.15 250.38,-122.15 243.38,-122.15"/>
</a>
</g>
</g>
<!-- Node5 -->
<g id="Node000005" class="node">
<title>Node5</title>
<g id="a_Node000005"><a xlink:href="classcBgS__GndChk.html" target="_top" xlink:title=" ">
<polygon fill="white" stroke="#666666" points="274.12,-219.75 193.62,-219.75 193.62,-200.5 274.12,-200.5 274.12,-219.75"/>
<text text-anchor="middle" x="233.88" y="-206.25" font-family="Helvetica,sans-Serif" font-size="10.00">cBgS_GndChk</text>
</a>
</g>
</g>
<!-- Node5&#45;&gt;Node4 -->
<g id="edge4_Node000004_Node000005" class="edge">
<title>Node5&#45;&gt;Node4</title>
<g id="a_edge4_Node000004_Node000005"><a xlink:title=" ">
<path fill="none" stroke="#63b8ff" d="M237.93,-189.02C240.33,-177.12 243.25,-162.63 245.08,-153.52"/>
<polygon fill="#63b8ff" stroke="#63b8ff" points="234.53,-188.18 235.98,-198.67 241.39,-189.56 234.53,-188.18"/>
</a>
</g>
</g>
<!-- Node6 -->
<g id="Node000006" class="node">
<title>Node6</title>
<g id="a_Node000006"><a xlink:href="classcBgS__Chk.html" target="_top" xlink:title=" ">
<polygon fill="white" stroke="#666666" points="611.12,-286.25 548.62,-286.25 548.62,-267 611.12,-267 611.12,-286.25"/>
<text text-anchor="middle" x="579.88" y="-272.75" font-family="Helvetica,sans-Serif" font-size="10.00">cBgS_Chk</text>
</a>
</g>
</g>
<!-- Node6&#45;&gt;Node5 -->
<g id="edge5_Node000005_Node000006" class="edge">
<title>Node6&#45;&gt;Node5</title>
<g id="a_edge5_Node000005_Node000006"><a xlink:title=" ">
<path fill="none" stroke="#63b8ff" d="M537.43,-265.63C502.29,-257.54 450.99,-246.14 405.88,-237.75 361.02,-229.4 309.24,-221.64 274.31,-216.68"/>
<polygon fill="#63b8ff" stroke="#63b8ff" points="536.23,-268.95 546.77,-267.79 537.81,-262.13 536.23,-268.95"/>
</a>
</g>
</g>
<!-- Node16 -->
<g id="Node000016" class="node">
<title>Node16</title>
<g id="a_Node000016"><a xlink:href="classdBgS__SplGrpChk.html" target="_top" xlink:title=" ">
<polygon fill="white" stroke="#666666" points="406.12,-153.25 313.62,-153.25 313.62,-134 406.12,-134 406.12,-153.25"/>
<text text-anchor="middle" x="359.88" y="-139.75" font-family="Helvetica,sans-Serif" font-size="10.00">dBgS_SplGrpChk</text>
</a>
</g>
</g>
<!-- Node6&#45;&gt;Node16 -->
<g id="edge20_Node000016_Node000006" class="edge">
<title>Node6&#45;&gt;Node16</title>
<g id="a_edge20_Node000016_Node000006"><a xlink:title=" ">
<path fill="none" stroke="#63b8ff" d="M570.03,-257C560.18,-240.04 543.55,-215.45 522.88,-200.5 488.09,-175.35 441.08,-160.84 406.49,-152.94"/>
<polygon fill="#63b8ff" stroke="#63b8ff" points="566.85,-258.48 574.76,-265.53 572.97,-255.09 566.85,-258.48"/>
</a>
</g>
</g>
<!-- Node19 -->
<g id="Node000019" class="node">
<title>Node19</title>
<g id="a_Node000019"><a xlink:href="classcBgS__LinChk.html" target="_top" xlink:title=" ">
<polygon fill="white" stroke="#666666" points="513.88,-219.75 437.88,-219.75 437.88,-200.5 513.88,-200.5 513.88,-219.75"/>
<text text-anchor="middle" x="475.88" y="-206.25" font-family="Helvetica,sans-Serif" font-size="10.00">cBgS_LinChk</text>
</a>
</g>
</g>
<!-- Node6&#45;&gt;Node19 -->
<g id="edge26_Node000019_Node000006" class="edge">
<title>Node6&#45;&gt;Node19</title>
<g id="a_edge26_Node000019_Node000006"><a xlink:title=" ">
<path fill="none" stroke="#63b8ff" d="M552.45,-261.38C545.34,-257.51 537.75,-253.22 530.88,-249 515.86,-239.78 499.28,-228.16 488.29,-220.24"/>
<polygon fill="#63b8ff" stroke="#63b8ff" points="550.58,-264.35 561.05,-265.98 553.89,-258.18 550.58,-264.35"/>
</a>
</g>
</g>
<!-- Node7 -->
<g id="Node000007" class="node">
<title>Node7</title>
<g id="a_Node000007"><a xlink:href="classcBgS__PolyPassChk.html" target="_top" xlink:title=" ">
<polygon fill="white" stroke="#666666" points="634.75,-399.38 531,-399.38 531,-380.12 634.75,-380.12 634.75,-399.38"/>
<text text-anchor="middle" x="582.88" y="-385.88" font-family="Helvetica,sans-Serif" font-size="10.00">cBgS_PolyPassChk</text>
</a>
</g>
</g>
<!-- Node7&#45;&gt;Node6 -->
<g id="edge6_Node000006_Node000007" class="edge">
<title>Node7&#45;&gt;Node6</title>
<g id="a_edge6_Node000006_Node000007"><a xlink:title=" ">
<path fill="none" stroke="#9a32cd" stroke-dasharray="5,2" d="M582.32,-368.18C581.66,-343.76 580.59,-304.13 580.12,-286.53"/>
<polygon fill="#9a32cd" stroke="#9a32cd" points="578.82,-368.24 582.59,-378.14 585.82,-368.05 578.82,-368.24"/>
</a>
</g>
<text text-anchor="middle" x="616.38" y="-311.62" font-family="Helvetica,sans-Serif" font-size="10.00" fill="grey"> mPolyPassChk</text>
</g>
<!-- Node13 -->
<g id="Node000013" class="node">
<title>Node13</title>
<g id="a_Node000013"><a xlink:href="classdBgS__PolyPassChk.html" target="_top" xlink:title=" ">
<polygon fill="white" stroke="#666666" points="732.75,-286.25 629,-286.25 629,-267 732.75,-267 732.75,-286.25"/>
<text text-anchor="middle" x="680.88" y="-272.75" font-family="Helvetica,sans-Serif" font-size="10.00">dBgS_PolyPassChk</text>
</a>
</g>
</g>
<!-- Node7&#45;&gt;Node13 -->
<g id="edge14_Node000013_Node000007" class="edge">
<title>Node7&#45;&gt;Node13</title>
<g id="a_edge14_Node000013_Node000007"><a xlink:title=" ">
<path fill="none" stroke="#63b8ff" d="M605.41,-372.88C620.68,-361.32 640.61,-344.63 654.88,-326.75 664.98,-314.08 673.02,-296.88 677.35,-286.56"/>
<polygon fill="#63b8ff" stroke="#63b8ff" points="603.35,-370.05 597.37,-378.79 607.5,-375.69 603.35,-370.05"/>
</a>
</g>
</g>
<!-- Node8 -->
<g id="Node000008" class="node">
<title>Node8</title>
<g id="a_Node000008"><a xlink:href="classcBgS__GrpPassChk.html" target="_top" xlink:title=" ">
<polygon fill="white" stroke="#666666" points="758.25,-399.38 657.5,-399.38 657.5,-380.12 758.25,-380.12 758.25,-399.38"/>
<text text-anchor="middle" x="707.88" y="-385.88" font-family="Helvetica,sans-Serif" font-size="10.00">cBgS_GrpPassChk</text>
</a>
</g>
</g>
<!-- Node8&#45;&gt;Node6 -->
<g id="edge7_Node000006_Node000008" class="edge">
<title>Node8&#45;&gt;Node6</title>
<g id="a_edge7_Node000006_Node000008"><a xlink:title=" ">
<path fill="none" stroke="#9a32cd" stroke-dasharray="5,2" d="M700.2,-369.26C691.76,-350.2 676.47,-321.56 654.88,-304.25 642.37,-294.22 625.8,-287.82 611.41,-283.81"/>
<polygon fill="#9a32cd" stroke="#9a32cd" points="696.9,-370.44 703.98,-378.32 703.35,-367.74 696.9,-370.44"/>
</a>
</g>
<text text-anchor="middle" x="707.88" y="-311.62" font-family="Helvetica,sans-Serif" font-size="10.00" fill="grey"> mGrpPassChk</text>
</g>
<!-- Node14 -->
<g id="Node000014" class="node">
<title>Node14</title>
<g id="a_Node000014"><a xlink:href="classdBgS__GrpPassChk.html" target="_top" xlink:title=" ">
<polygon fill="white" stroke="#666666" points="851.25,-286.25 750.5,-286.25 750.5,-267 851.25,-267 851.25,-286.25"/>
<text text-anchor="middle" x="800.88" y="-272.75" font-family="Helvetica,sans-Serif" font-size="10.00">dBgS_GrpPassChk</text>
</a>
</g>
</g>
<!-- Node8&#45;&gt;Node14 -->
<g id="edge16_Node000014_Node000008" class="edge">
<title>Node8&#45;&gt;Node14</title>
<g id="a_edge16_Node000014_Node000008"><a xlink:title=" ">
<path fill="none" stroke="#63b8ff" d="M728.02,-372.75C741.98,-360.99 760.41,-344.11 773.88,-326.75 783.89,-313.83 792.39,-296.71 797.05,-286.47"/>
<polygon fill="#63b8ff" stroke="#63b8ff" points="725.85,-369.99 720.35,-379.05 730.3,-375.4 725.85,-369.99"/>
</a>
</g>
</g>
<!-- Node9 -->
<g id="Node000009" class="node">
<title>Node9</title>
<g id="a_Node000009"><a xlink:href="classcBgS__PolyInfo.html" target="_top" xlink:title=" ">
<polygon fill="white" stroke="#666666" points="332.12,-286.25 251.62,-286.25 251.62,-267 332.12,-267 332.12,-286.25"/>
<text text-anchor="middle" x="291.88" y="-272.75" font-family="Helvetica,sans-Serif" font-size="10.00">cBgS_PolyInfo</text>
</a>
</g>
</g>
<!-- Node9&#45;&gt;Node5 -->
<g id="edge8_Node000005_Node000009" class="edge">
<title>Node9&#45;&gt;Node5</title>
<g id="a_edge8_Node000005_Node000009"><a xlink:title=" ">
<path fill="none" stroke="#63b8ff" d="M276.12,-258.11C265.04,-245.78 250.67,-229.81 241.87,-220.02"/>
<polygon fill="#63b8ff" stroke="#63b8ff" points="273.51,-260.44 282.8,-265.53 278.71,-255.76 273.51,-260.44"/>
</a>
</g>
</g>
<!-- Node9&#45;&gt;Node16 -->
<g id="edge19_Node000016_Node000009" class="edge">
<title>Node9&#45;&gt;Node16</title>
<g id="a_edge19_Node000016_Node000009"><a xlink:title=" ">
<path fill="none" stroke="#63b8ff" d="M301.68,-256.57C312.48,-235.63 330.35,-201.01 345.88,-171.25 348.97,-165.32 352.47,-158.67 355.19,-153.49"/>
<polygon fill="#63b8ff" stroke="#63b8ff" points="298.64,-254.84 297.17,-265.33 304.86,-258.05 298.64,-254.84"/>
</a>
</g>
</g>
<!-- Node9&#45;&gt;Node19 -->
<g id="edge27_Node000019_Node000009" class="edge">
<title>Node9&#45;&gt;Node19</title>
<g id="a_edge27_Node000019_Node000009"><a xlink:title=" ">
<path fill="none" stroke="#63b8ff" d="M309.28,-258.95C318.11,-251.38 329.37,-242.97 340.88,-237.75 371.65,-223.77 409.65,-217.11 437.48,-213.95"/>
<polygon fill="#63b8ff" stroke="#63b8ff" points="306.97,-256.33 301.89,-265.63 311.66,-261.52 306.97,-256.33"/>
</a>
</g>
</g>
<!-- Node10 -->
<g id="Node000010" class="node">
<title>Node10</title>
<g id="a_Node000010"><a xlink:href="structcXyz.html" target="_top" xlink:title=" ">
<polygon fill="white" stroke="#666666" points="378.38,-399.38 341.38,-399.38 341.38,-380.12 378.38,-380.12 378.38,-399.38"/>
<text text-anchor="middle" x="359.88" y="-385.88" font-family="Helvetica,sans-Serif" font-size="10.00">cXyz</text>
</a>
</g>
</g>
<!-- Node10&#45;&gt;Node1 -->
<g id="edge32_Node000001_Node000010" class="edge">
<title>Node10&#45;&gt;Node1</title>
<g id="a_edge32_Node000001_Node000010"><a xlink:title=" ">
<path fill="none" stroke="#9a32cd" stroke-dasharray="5,2" d="M329.94,-386.14C273.25,-379.39 155.88,-355.94 155.88,-277.62 155.88,-277.62 155.88,-277.62 155.88,-86.38 155.88,-52.46 193.68,-30.79 220.55,-19.68"/>
<polygon fill="#9a32cd" stroke="#9a32cd" points="329.23,-389.58 339.54,-387.18 329.98,-382.62 329.23,-389.58"/>
</a>
</g>
<text text-anchor="middle" x="178.38" y="-173" font-family="Helvetica,sans-Serif" font-size="10.00" fill="grey"> field_0x64</text>
</g>
<!-- Node10&#45;&gt;Node5 -->
<g id="edge9_Node000005_Node000010" class="edge">
<title>Node10&#45;&gt;Node5</title>
<g id="a_edge9_Node000005_Node000010"><a xlink:title=" ">
<path fill="none" stroke="#9a32cd" stroke-dasharray="5,2" d="M330.43,-378.27C294.77,-363.79 236.4,-333.93 211.38,-286.25 199.61,-263.83 216.82,-234.33 227.11,-219.87"/>
<polygon fill="#9a32cd" stroke="#9a32cd" points="329.13,-381.52 339.72,-381.88 331.67,-375 329.13,-381.52"/>
</a>
</g>
<text text-anchor="middle" x="227.62" y="-272.75" font-family="Helvetica,sans-Serif" font-size="10.00" fill="grey"> m_pos</text>
</g>
<!-- Node10&#45;&gt;Node10 -->
<g id="edge11_Node000010_Node000010" class="edge">
<title>Node10&#45;&gt;Node10</title>
<g id="a_edge11_Node000010_Node000010"><a xlink:title=" ">
<path fill="none" stroke="#9a32cd" stroke-dasharray="5,2" d="M384.64,-401.57C391.31,-400.93 396.38,-396.99 396.38,-389.75 396.38,-378.71 384.61,-375.35 373.35,-379.66"/>
<polygon fill="#9a32cd" stroke="#9a32cd" points="385.26,-398.12 374.85,-400.07 384.2,-405.04 385.26,-398.12"/>
</a>
</g>
<text text-anchor="middle" x="417.38" y="-425.25" font-family="Helvetica,sans-Serif" font-size="10.00" fill="grey"> BaseX</text>
<text text-anchor="middle" x="417.38" y="-414" font-family="Helvetica,sans-Serif" font-size="10.00" fill="grey">BaseXY</text>
<text text-anchor="middle" x="417.38" y="-402.75" font-family="Helvetica,sans-Serif" font-size="10.00" fill="grey">BaseXYZ</text>
<text text-anchor="middle" x="417.38" y="-391.5" font-family="Helvetica,sans-Serif" font-size="10.00" fill="grey">BaseXZ</text>
<text text-anchor="middle" x="417.38" y="-380.25" font-family="Helvetica,sans-Serif" font-size="10.00" fill="grey">BaseY</text>
<text text-anchor="middle" x="417.38" y="-369" font-family="Helvetica,sans-Serif" font-size="10.00" fill="grey">BaseYZ</text>
<text text-anchor="middle" x="417.38" y="-357.75" font-family="Helvetica,sans-Serif" font-size="10.00" fill="grey">BaseZ</text>
<text text-anchor="middle" x="417.38" y="-346.5" font-family="Helvetica,sans-Serif" font-size="10.00" fill="grey">Zero</text>
</g>
<!-- Node10&#45;&gt;Node16 -->
<g id="edge22_Node000016_Node000010" class="edge">
<title>Node10&#45;&gt;Node16</title>
<g id="a_edge22_Node000016_Node000010"><a xlink:title=" ">
<path fill="none" stroke="#9a32cd" stroke-dasharray="5,2" d="M359.88,-368.55C359.88,-318.28 359.88,-189.04 359.88,-153.68"/>
<polygon fill="#9a32cd" stroke="#9a32cd" points="356.38,-368.26 359.88,-378.26 363.38,-368.26 356.38,-368.26"/>
</a>
</g>
<text text-anchor="middle" x="382.38" y="-239.5" font-family="Helvetica,sans-Serif" font-size="10.00" fill="grey"> m_ground</text>
</g>
<!-- Node10&#45;&gt;Node19 -->
<g id="edge30_Node000019_Node000010" class="edge">
<title>Node10&#45;&gt;Node19</title>
<g id="a_edge30_Node000019_Node000010"><a xlink:title=" ">
<path fill="none" stroke="#9a32cd" stroke-dasharray="5,2" d="M365.96,-369.16C374.38,-343.98 391.26,-299.61 414.88,-267 428.69,-247.92 449.84,-230.36 463.26,-220.2"/>
<polygon fill="#9a32cd" stroke="#9a32cd" points="362.72,-367.82 362.98,-378.41 369.38,-369.97 362.72,-367.82"/>
</a>
</g>
<text text-anchor="middle" x="437.38" y="-272.75" font-family="Helvetica,sans-Serif" font-size="10.00" fill="grey"> field_0x40</text>
</g>
<!-- Node20 -->
<g id="Node000020" class="node">
<title>Node20</title>
<g id="a_Node000020"><a xlink:href="classcM3dGLin.html" target="_top" xlink:title=" ">
<polygon fill="white" stroke="#666666" points="530.38,-286.25 469.38,-286.25 469.38,-267 530.38,-267 530.38,-286.25"/>
<text text-anchor="middle" x="499.88" y="-272.75" font-family="Helvetica,sans-Serif" font-size="10.00">cM3dGLin</text>
</a>
</g>
</g>
<!-- Node10&#45;&gt;Node20 -->
<g id="edge29_Node000020_Node000010" class="edge">
<title>Node10&#45;&gt;Node20</title>
<g id="a_edge29_Node000020_Node000010"><a xlink:title=" ">
<path fill="none" stroke="#9a32cd" stroke-dasharray="5,2" d="M380.09,-372.71C410,-348.96 465.05,-305.27 488.65,-286.53"/>
<polygon fill="#9a32cd" stroke="#9a32cd" points="378.17,-369.76 372.52,-378.72 382.53,-375.24 378.17,-369.76"/>
</a>
</g>
<text text-anchor="middle" x="481.5" y="-317.25" font-family="Helvetica,sans-Serif" font-size="10.00" fill="grey"> mEnd</text>
<text text-anchor="middle" x="481.5" y="-306" font-family="Helvetica,sans-Serif" font-size="10.00" fill="grey">mStart</text>
</g>
<!-- Node11 -->
<g id="Node000011" class="node">
<title>Node11</title>
<g id="a_Node000011"><a xlink:href="structVec.html" target="_top" xlink:title=" ">
<polygon fill="white" stroke="#666666" points="376.5,-491 343.25,-491 343.25,-471.75 376.5,-471.75 376.5,-491"/>
<text text-anchor="middle" x="359.88" y="-477.5" font-family="Helvetica,sans-Serif" font-size="10.00">Vec</text>
</a>
</g>
</g>
<!-- Node11&#45;&gt;Node10 -->
<g id="edge10_Node000010_Node000011" class="edge">
<title>Node11&#45;&gt;Node10</title>
<g id="a_edge10_Node000010_Node000011"><a xlink:title=" ">
<path fill="none" stroke="#63b8ff" d="M359.88,-460.19C359.88,-441.19 359.88,-413.64 359.88,-399.64"/>
<polygon fill="#63b8ff" stroke="#63b8ff" points="356.38,-459.94 359.88,-469.94 363.38,-459.94 356.38,-459.94"/>
</a>
</g>
</g>
<!-- Node12 -->
<g id="Node000012" class="node">
<title>Node12</title>
<g id="a_Node000012"><a xlink:href="classdBgS__Chk.html" target="_top" xlink:title=" ">
<polygon fill="white" stroke="#666666" points="648.12,-219.75 585.62,-219.75 585.62,-200.5 648.12,-200.5 648.12,-219.75"/>
<text text-anchor="middle" x="616.88" y="-206.25" font-family="Helvetica,sans-Serif" font-size="10.00">dBgS_Chk</text>
</a>
</g>
</g>
<!-- Node12&#45;&gt;Node4 -->
<g id="edge12_Node000004_Node000012" class="edge">
<title>Node12&#45;&gt;Node4</title>
<g id="a_edge12_Node000004_Node000012"><a xlink:title=" ">
<path fill="none" stroke="#63b8ff" d="M574,-201.65C502.03,-189.1 357.88,-163.98 287.47,-151.7"/>
<polygon fill="#63b8ff" stroke="#63b8ff" points="573.39,-205.1 583.84,-203.37 574.59,-198.2 573.39,-205.1"/>
</a>
</g>
</g>
<!-- Node12&#45;&gt;Node16 -->
<g id="edge21_Node000016_Node000012" class="edge">
<title>Node12&#45;&gt;Node16</title>
<g id="a_edge21_Node000016_Node000012"><a xlink:title=" ">
<path fill="none" stroke="#63b8ff" d="M596.9,-193.72C585.49,-185.72 570.57,-176.54 555.88,-171.25 506.76,-153.58 446.87,-147.51 406.32,-145.49"/>
<polygon fill="#63b8ff" stroke="#63b8ff" points="594.57,-196.35 604.71,-199.43 598.7,-190.7 594.57,-196.35"/>
</a>
</g>
</g>
<!-- Node18 -->
<g id="Node000018" class="node">
<title>Node18</title>
<g id="a_Node000018"><a xlink:href="classdBgS__LinChk.html" target="_top" xlink:title=" ">
<polygon fill="white" stroke="#666666" points="604.88,-153.25 528.88,-153.25 528.88,-134 604.88,-134 604.88,-153.25"/>
<text text-anchor="middle" x="566.88" y="-139.75" font-family="Helvetica,sans-Serif" font-size="10.00">dBgS_LinChk</text>
</a>
</g>
</g>
<!-- Node12&#45;&gt;Node18 -->
<g id="edge31_Node000018_Node000012" class="edge">
<title>Node12&#45;&gt;Node18</title>
<g id="a_edge31_Node000018_Node000012"><a xlink:title=" ">
<path fill="none" stroke="#63b8ff" d="M611.98,-189.36C609.84,-183.17 606.88,-176.58 602.88,-171.25 597.55,-164.16 589.83,-158.11 582.9,-153.57"/>
<polygon fill="#63b8ff" stroke="#63b8ff" points="608.58,-190.22 614.72,-198.85 615.31,-188.27 608.58,-190.22"/>
</a>
</g>
</g>
<!-- Node13&#45;&gt;Node12 -->
<g id="edge13_Node000012_Node000013" class="edge">
<title>Node13&#45;&gt;Node12</title>
<g id="a_edge13_Node000012_Node000013"><a xlink:title=" ">
<path fill="none" stroke="#63b8ff" d="M664.21,-258.83C651.89,-246.41 635.6,-230 625.7,-220.02"/>
<polygon fill="#63b8ff" stroke="#63b8ff" points="661.38,-260.95 670.91,-265.58 666.35,-256.02 661.38,-260.95"/>
</a>
</g>
</g>
<!-- Node14&#45;&gt;Node12 -->
<g id="edge15_Node000012_Node000014" class="edge">
<title>Node14&#45;&gt;Node12</title>
<g id="a_edge15_Node000012_Node000014"><a xlink:title=" ">
<path fill="none" stroke="#63b8ff" d="M764.37,-262.83C728.43,-250.23 674.43,-231.3 642.72,-220.18"/>
<polygon fill="#63b8ff" stroke="#63b8ff" points="762.88,-266.01 773.47,-266.02 765.2,-259.41 762.88,-266.01"/>
</a>
</g>
</g>
<!-- Node15 -->
<g id="Node000015" class="node">
<title>Node15</title>
<g id="a_Node000015"><a xlink:href="classdBgS__WtrChk.html" target="_top" xlink:title=" ">
<polygon fill="white" stroke="#666666" points="395.62,-97 318.12,-97 318.12,-77.75 395.62,-77.75 395.62,-97"/>
<text text-anchor="middle" x="356.88" y="-83.5" font-family="Helvetica,sans-Serif" font-size="10.00">dBgS_WtrChk</text>
</a>
</g>
</g>
<!-- Node15&#45;&gt;Node1 -->
<g id="edge17_Node000001_Node000015" class="edge">
<title>Node15&#45;&gt;Node1</title>
<g id="a_edge17_Node000001_Node000015"><a xlink:title=" ">
<path fill="none" stroke="#9a32cd" stroke-dasharray="5,2" d="M342.76,-68.8C333.86,-58.58 321.67,-46.03 308.88,-37.25 298.35,-30.03 285.54,-24.13 274.31,-19.73"/>
<polygon fill="#9a32cd" stroke="#9a32cd" points="339.85,-70.77 348.95,-76.19 345.21,-66.28 339.85,-70.77"/>
</a>
</g>
<text text-anchor="middle" x="362.62" y="-44.62" font-family="Helvetica,sans-Serif" font-size="10.00" fill="grey"> M_wrt_work</text>
</g>
<!-- Node16&#45;&gt;Node15 -->
<g id="edge18_Node000015_Node000016" class="edge">
<title>Node16&#45;&gt;Node15</title>
<g id="a_edge18_Node000015_Node000016"><a xlink:title=" ">
<path fill="none" stroke="#63b8ff" d="M358.76,-122.44C358.28,-113.73 357.74,-103.99 357.36,-97.17"/>
<polygon fill="#63b8ff" stroke="#63b8ff" points="355.25,-122.36 359.3,-132.16 362.24,-121.98 355.25,-122.36"/>
</a>
</g>
</g>
<!-- Node17 -->
<g id="Node000017" class="node">
<title>Node17</title>
<g id="a_Node000017"><a xlink:href="classdBgS__ObjLinChk.html" target="_top" xlink:title=" ">
<polygon fill="white" stroke="#666666" points="559.38,-97 468.38,-97 468.38,-77.75 559.38,-77.75 559.38,-97"/>
<text text-anchor="middle" x="513.88" y="-83.5" font-family="Helvetica,sans-Serif" font-size="10.00">dBgS_ObjLinChk</text>
</a>
</g>
</g>
<!-- Node17&#45;&gt;Node1 -->
<g id="edge23_Node000001_Node000017" class="edge">
<title>Node17&#45;&gt;Node1</title>
<g id="a_edge23_Node000001_Node000017"><a xlink:title=" ">
<path fill="none" stroke="#9a32cd" stroke-dasharray="5,2" d="M485.04,-72.57C461.11,-61.6 425.92,-46.6 393.88,-37.25 364.62,-28.71 331.25,-22.41 303.71,-18.08"/>
<polygon fill="#9a32cd" stroke="#9a32cd" points="483.28,-75.61 493.82,-76.65 486.23,-69.26 483.28,-75.61"/>
</a>
</g>
<text text-anchor="middle" x="483.5" y="-44.62" font-family="Helvetica,sans-Serif" font-size="10.00" fill="grey"> M_wall_work</text>
</g>
<!-- Node18&#45;&gt;Node17 -->
<g id="edge24_Node000017_Node000018" class="edge">
<title>Node18&#45;&gt;Node17</title>
<g id="a_edge24_Node000017_Node000018"><a xlink:title=" ">
<path fill="none" stroke="#63b8ff" d="M550.33,-125.69C541.1,-116.24 529.98,-104.86 522.46,-97.17"/>
<polygon fill="#63b8ff" stroke="#63b8ff" points="547.57,-127.88 557.07,-132.58 552.58,-122.99 547.57,-127.88"/>
</a>
</g>
</g>
<!-- Node19&#45;&gt;Node18 -->
<g id="edge25_Node000018_Node000019" class="edge">
<title>Node19&#45;&gt;Node18</title>
<g id="a_edge25_Node000018_Node000019"><a xlink:title=" ">
<path fill="none" stroke="#63b8ff" d="M497.52,-193.78C515.12,-181.31 539.37,-164.12 554.04,-153.73"/>
<polygon fill="#63b8ff" stroke="#63b8ff" points="495.9,-190.64 489.76,-199.28 499.95,-196.35 495.9,-190.64"/>
</a>
</g>
</g>
<!-- Node20&#45;&gt;Node19 -->
<g id="edge28_Node000019_Node000020" class="edge">
<title>Node20&#45;&gt;Node19</title>
<g id="a_edge28_Node000019_Node000020"><a xlink:title=" ">
<path fill="none" stroke="#9a32cd" stroke-dasharray="5,2" d="M483.49,-257.64C481.66,-254.9 480.04,-251.98 478.88,-249 475.22,-239.66 474.85,-228.06 475.15,-220.18"/>
<polygon fill="#9a32cd" stroke="#9a32cd" points="480.7,-259.76 489.64,-265.45 486.2,-255.43 480.7,-259.76"/>
</a>
</g>
<text text-anchor="middle" x="490.88" y="-239.5" font-family="Helvetica,sans-Serif" font-size="10.00" fill="grey"> mLin</text>
</g>
</g>
</svg>

<g id="navigator" transform="translate(0 0)" fill="#404254">
  <rect fill="#f2f5e9" fill-opacity="0.5" stroke="#606060" stroke-width=".5" x="0" y="0" width="60" height="60"/>
  <use id="zoomplus" xlink:href="#zoomPlus" x="17" y="9" onmousedown="handleZoom(evt,'in')"/>
  <use id="zoomminus" xlink:href="#zoomMin" x="42" y="9" onmousedown="handleZoom(evt,'out')"/>
  <use id="reset" xlink:href="#resetDef" x="30" y="36" onmousedown="handleReset()"/>
   <use id="arrowup" xlink:href="#arrowUp" x="0" y="0" onmousedown="handlePan(0,-1)"/>
  <use id="arrowright" xlink:href="#arrowRight" x="0" y="0" onmousedown="handlePan(1,0)"/>
  <use id="arrowdown" xlink:href="#arrowDown" x="0" y="0" onmousedown="handlePan(0,1)"/>
  <use id="arrowleft" xlink:href="#arrowLeft" x="0" y="0" onmousedown="handlePan(-1,0)"/>
</g>
<svg viewBox="0 0 15 15" width="100%" height="30px" preserveAspectRatio="xMaxYMin meet">
 <g id="arrow_out" transform="scale(0.3 0.3)">
  <a xlink:href="classdaObjMovebox_1_1Bgc__c__coll__graph_org.svg" target="_base">
   <rect id="button" ry="5" rx="5" y="6" x="6" height="38" width="38"
        fill="#f2f5e9" fill-opacity="0.5" stroke="#606060" stroke-width="1.0"/>
   <path id="arrow"
     d="M 11.500037,31.436501 C 11.940474,20.09759 22.043105,11.32322 32.158766,21.979434 L 37.068811,17.246167 C 37.068811,17.246167 37.088388,32 37.088388,32 L 22.160133,31.978069 C 22.160133,31.978069 26.997745,27.140456 26.997745,27.140456 C 18.528582,18.264221 13.291696,25.230495 11.500037,31.436501 z"
     style="fill:#404040;"/>
  </a>
 </g>
</svg>

<style type='text/css'>
<![CDATA[
[data-mouse-over-selected='false'] { opacity: 0.7; }
[data-mouse-over-selected='true']  { opacity: 1.0; }
]]>
</style>
<script type="application/ecmascript"><![CDATA[
document.addEventListener('DOMContentLoaded', (event) => {
  highlightEdges();
  highlightAdjacentNodes();
});
]]></script>
</svg>
