<?xml version="1.0" encoding="UTF-8" standalone="no"?>
<!DOCTYPE svg PUBLIC "-//W3C//DTD SVG 1.1//EN"
 "http://www.w3.org/Graphics/SVG/1.1/DTD/svg11.dtd">
<!-- Generated by graphviz version 9.0.0 (20230911.1827)
 -->
<!-- Title: J2DTextBoxEx Pages: 1 -->
<!--zoomable 516 -->

<svg id="main" version="1.1" xmlns="http://www.w3.org/2000/svg" xmlns:xlink="http://www.w3.org/1999/xlink" xml:space="preserve" onload="init(evt)">
<style type="text/css"><![CDATA[
.node, .edge {opacity: 0.7;}
.node.selected, .edge.selected {opacity: 1;}
.edge:hover path { stroke: red; }
.edge:hover polygon { stroke: red; fill: red; }
]]></style>

<defs>
  <circle id="rim" cx="0" cy="0" r="7"/>
  <circle id="rim2" cx="0" cy="0" r="3.5"/>
  <g id="zoomPlus">
    <use xlink:href="#rim" fill="#404040"><set attributeName="fill" to="#808080" begin="zoomplus.mouseover" end="zoomplus.mouseout"/></use>
    <path d="M-4,0h8M0,-4v8" fill="none" stroke="white" stroke-width="1.5" pointer-events="none"/>
  </g>
  <g id="zoomMin">
    <use xlink:href="#rim" fill="#404040"><set attributeName="fill" to="#808080" begin="zoomminus.mouseover" end="zoomminus.mouseout"/></use>
    <path d="M-4,0h8" fill="none" stroke="white" stroke-width="1.5" pointer-events="none"/>
  </g>
  <g id="arrowUp" transform="translate(30 24)">
    <use xlink:href="#rim"/>
    <path pointer-events="none" fill="none" stroke="white" stroke-width="1.5" d="M0,-3.0v7 M-2.5,-0.5L0,-3.0L2.5,-0.5"/>
  </g>
  <g id="arrowRight" transform="rotate(90) translate(36 -43)">
    <use xlink:href="#rim"/>
    <path pointer-events="none" fill="none" stroke="white" stroke-width="1.5" d="M0,-3.0v7 M-2.5,-0.5L0,-3.0L2.5,-0.5"/>
  </g>
  <g id="arrowDown" transform="rotate(180) translate(-30 -48)">
    <use xlink:href="#rim"/>
    <path pointer-events="none" fill="none" stroke="white" stroke-width="1.5" d="M0,-3.0v7 M-2.5,-0.5L0,-3.0L2.5,-0.5"/>
  </g>
  <g id="arrowLeft" transform="rotate(270) translate(-36 17)">
    <use xlink:href="#rim"/>
    <path pointer-events="none" fill="none" stroke="white" stroke-width="1.5" d="M0,-3.0v7 M-2.5,-0.5L0,-3.0L2.5,-0.5"/>
  </g>
  <g id="resetDef">
    <use xlink:href="#rim2" fill="#404040"><set attributeName="fill" to="#808080" begin="reset.mouseover" end="reset.mouseout"/></use>
  </g>
</defs>
<script type="application/ecmascript">
var viewWidth = 1299;
var viewHeight = 516;
var sectionId = 'dynsection-1';
</script>
<script type="application/ecmascript" xlink:href="svg.min.js"/>
<svg id="graph" class="graph">
<g id="viewport">
<title>J2DTextBoxEx</title>
<!-- Node1 -->
<g id="Node000001" class="node">
<title>Node1</title>
<g id="a_Node000001"><a xlink:title=" ">
<polygon fill="#999999" stroke="#666666" points="1290.75,-145.25 1211.75,-145.25 1211.75,-126 1290.75,-126 1290.75,-145.25"/>
<text text-anchor="middle" x="1251.25" y="-131.75" font-family="Helvetica,sans-Serif" font-size="10.00">J2DTextBoxEx</text>
</a>
</g>
</g>
<!-- Node2 -->
<g id="Node000002" class="node">
<title>Node2</title>
<g id="a_Node000002"><a xlink:href="classJ2DTextBox.html" target="_top" xlink:title=" ">
<polygon fill="white" stroke="#666666" points="1130.75,-333.25 1062.25,-333.25 1062.25,-314 1130.75,-314 1130.75,-333.25"/>
<text text-anchor="middle" x="1096.5" y="-319.75" font-family="Helvetica,sans-Serif" font-size="10.00">J2DTextBox</text>
</a>
</g>
</g>
<!-- Node2&#45;&gt;Node1 -->
<g id="edge1_Node000001_Node000002" class="edge">
<title>Node2&#45;&gt;Node1</title>
<g id="a_edge1_Node000001_Node000002"><a xlink:title=" ">
<path fill="none" stroke="#63b8ff" d="M1112.95,-304.61C1145.11,-265.03 1218.24,-175.02 1242.37,-145.33"/>
<polygon fill="#63b8ff" stroke="#63b8ff" points="1110.26,-302.37 1106.67,-312.34 1115.69,-306.79 1110.26,-302.37"/>
</a>
</g>
</g>
<!-- Node3 -->
<g id="Node000003" class="node">
<title>Node3</title>
<g id="a_Node000003"><a xlink:href="classJ2DPane.html" target="_top" xlink:title=" ">
<polygon fill="white" stroke="#666666" points="939.25,-429.25 883.5,-429.25 883.5,-410 939.25,-410 939.25,-429.25"/>
<text text-anchor="middle" x="911.38" y="-415.75" font-family="Helvetica,sans-Serif" font-size="10.00">J2DPane</text>
</a>
</g>
</g>
<!-- Node3&#45;&gt;Node2 -->
<g id="edge2_Node000002_Node000003" class="edge">
<title>Node3&#45;&gt;Node2</title>
<g id="a_edge2_Node000002_Node000003"><a xlink:title=" ">
<path fill="none" stroke="#63b8ff" d="M950.34,-408.87C977.62,-400.22 1014.64,-386.57 1044.25,-368.62 1060.45,-358.81 1076.42,-343.68 1086.12,-333.72"/>
<polygon fill="#63b8ff" stroke="#63b8ff" points="949.65,-405.42 941.12,-411.71 951.71,-412.11 949.65,-405.42"/>
</a>
</g>
</g>
<!-- Node4 -->
<g id="Node000004" class="node">
<title>Node4</title>
<g id="a_Node000004"><a xlink:href="structJGeometry_1_1TBox2.html" target="_top" xlink:title=" ">
<polygon fill="white" stroke="#666666" points="705.5,-479.25 580,-479.25 580,-460 705.5,-460 705.5,-479.25"/>
<text text-anchor="middle" x="642.75" y="-465.75" font-family="Helvetica,sans-Serif" font-size="10.00">JGeometry::TBox2&lt; f32 &gt;</text>
</a>
</g>
</g>
<!-- Node4&#45;&gt;Node3 -->
<g id="edge3_Node000003_Node000004" class="edge">
<title>Node4&#45;&gt;Node3</title>
<g id="a_edge3_Node000003_Node000004"><a xlink:title=" ">
<path fill="none" stroke="#9a32cd" stroke-dasharray="5,2" d="M717.2,-463.81C756.28,-459.74 804.93,-453.1 847.5,-442.62 860.71,-439.38 874.97,-434.29 886.57,-429.73"/>
<polygon fill="#9a32cd" stroke="#9a32cd" points="717.03,-460.31 707.43,-464.79 717.73,-467.28 717.03,-460.31"/>
</a>
</g>
<text text-anchor="middle" x="785.5" y="-498.12" font-family="Helvetica,sans-Serif" font-size="10.00" fill="grey"> mBounds</text>
<text text-anchor="middle" x="785.5" y="-486.88" font-family="Helvetica,sans-Serif" font-size="10.00" fill="grey">mClipRect</text>
<text text-anchor="middle" x="785.5" y="-475.62" font-family="Helvetica,sans-Serif" font-size="10.00" fill="grey">mGlobalBounds</text>
<text text-anchor="middle" x="785.5" y="-464.38" font-family="Helvetica,sans-Serif" font-size="10.00" fill="grey">static_mBounds</text>
</g>
<!-- Node5 -->
<g id="Node000005" class="node">
<title>Node5</title>
<g id="a_Node000005"><a xlink:href="structJGeometry_1_1TBox.html" target="_top" xlink:title=" ">
<polygon fill="white" stroke="#666666" points="467.5,-479.25 354.75,-479.25 354.75,-460 467.5,-460 467.5,-479.25"/>
<text text-anchor="middle" x="411.12" y="-465.75" font-family="Helvetica,sans-Serif" font-size="10.00">JGeometry::TBox&lt; T &gt;</text>
</a>
</g>
</g>
<!-- Node5&#45;&gt;Node4 -->
<g id="edge4_Node000004_Node000005" class="edge">
<title>Node5&#45;&gt;Node4</title>
<g id="a_edge4_Node000004_Node000005"><a xlink:title=" ">
<path fill="none" stroke="#63b8ff" d="M479.13,-469.62C510.93,-469.62 548.68,-469.62 579.8,-469.62"/>
<polygon fill="#63b8ff" stroke="#63b8ff" points="479.22,-466.13 469.22,-469.63 479.22,-473.13 479.22,-466.13"/>
</a>
</g>
</g>
<!-- Node6 -->
<g id="Node000006" class="node">
<title>Node6</title>
<g id="a_Node000006"><a xlink:href="classJSUTree.html" target="_top" xlink:title=" ">
<polygon fill="white" stroke="#666666" points="698.38,-441.25 587.12,-441.25 587.12,-422 698.38,-422 698.38,-441.25"/>
<text text-anchor="middle" x="642.75" y="-427.75" font-family="Helvetica,sans-Serif" font-size="10.00">JSUTree&lt; J2DPane &gt;</text>
</a>
</g>
</g>
<!-- Node6&#45;&gt;Node3 -->
<g id="edge5_Node000003_Node000006" class="edge">
<title>Node6&#45;&gt;Node3</title>
<g id="a_edge5_Node000003_Node000006"><a xlink:title=" ">
<path fill="none" stroke="#9a32cd" stroke-dasharray="5,2" d="M709.89,-428.65C765.72,-426.14 842.84,-422.66 883.22,-420.85"/>
<polygon fill="#9a32cd" stroke="#9a32cd" points="710.02,-425.14 700.18,-429.09 710.33,-432.13 710.02,-425.14"/>
</a>
</g>
<text text-anchor="middle" x="785.5" y="-429.38" font-family="Helvetica,sans-Serif" font-size="10.00" fill="grey"> mPaneTree</text>
</g>
<!-- Node7 -->
<g id="Node000007" class="node">
<title>Node7</title>
<g id="a_Node000007"><a xlink:href="classJSUList.html" target="_top" xlink:title=" ">
<polygon fill="white" stroke="#666666" points="328.5,-446.25 254,-446.25 254,-427 328.5,-427 328.5,-446.25"/>
<text text-anchor="middle" x="291.25" y="-432.75" font-family="Helvetica,sans-Serif" font-size="10.00">JSUList&lt; T &gt;</text>
</a>
</g>
</g>
<!-- Node7&#45;&gt;Node6 -->
<g id="edge6_Node000006_Node000007" class="edge">
<title>Node7&#45;&gt;Node6</title>
<g id="a_edge6_Node000006_Node000007"><a xlink:title=" ">
<path fill="none" stroke="#63b8ff" d="M340.43,-435.94C404.88,-435.01 518.89,-433.38 586.67,-432.41"/>
<polygon fill="#63b8ff" stroke="#63b8ff" points="340.45,-432.43 330.51,-436.08 340.55,-439.43 340.45,-432.43"/>
</a>
</g>
</g>
<!-- Node8 -->
<g id="Node000008" class="node">
<title>Node8</title>
<g id="a_Node000008"><a xlink:href="classJSUPtrList.html" target="_top" xlink:title=" ">
<polygon fill="white" stroke="#666666" points="64.75,-405.25 0,-405.25 0,-386 64.75,-386 64.75,-405.25"/>
<text text-anchor="middle" x="32.38" y="-391.75" font-family="Helvetica,sans-Serif" font-size="10.00">JSUPtrList</text>
</a>
</g>
</g>
<!-- Node8&#45;&gt;Node7 -->
<g id="edge7_Node000007_Node000008" class="edge">
<title>Node8&#45;&gt;Node7</title>
<g id="a_edge7_Node000007_Node000008"><a xlink:title=" ">
<path fill="none" stroke="#63b8ff" d="M75.8,-408.82C78.15,-409.46 80.47,-410.06 82.75,-410.62 141.6,-425.21 211.97,-431.83 253.79,-434.67"/>
<polygon fill="#63b8ff" stroke="#63b8ff" points="76.88,-405.49 66.3,-406.13 74.97,-412.22 76.88,-405.49"/>
</a>
</g>
</g>
<!-- Node9 -->
<g id="Node000009" class="node">
<title>Node9</title>
<g id="a_Node000009"><a xlink:href="classJSUPtrLink.html" target="_top" xlink:title=" ">
<polygon fill="white" stroke="#666666" points="218.75,-371.25 151.75,-371.25 151.75,-352 218.75,-352 218.75,-371.25"/>
<text text-anchor="middle" x="185.25" y="-357.75" font-family="Helvetica,sans-Serif" font-size="10.00">JSUPtrLink</text>
</a>
</g>
</g>
<!-- Node8&#45;&gt;Node9 -->
<g id="edge9_Node000009_Node000008" class="edge">
<title>Node8&#45;&gt;Node9</title>
<g id="a_edge9_Node000009_Node000008"><a xlink:title=" ">
<path fill="none" stroke="#9a32cd" stroke-dasharray="5,2" d="M52.45,-378.33C61.06,-371.66 71.75,-364.82 82.75,-361.38 104.95,-354.43 131.24,-354.71 151.5,-356.62"/>
<polygon fill="#9a32cd" stroke="#9a32cd" points="50.32,-375.55 44.87,-384.64 54.8,-380.93 50.32,-375.55"/>
</a>
</g>
<text text-anchor="middle" x="99.62" y="-362.38" font-family="Helvetica,sans-Serif" font-size="10.00" fill="grey"> mList</text>
</g>
<!-- Node9&#45;&gt;Node8 -->
<g id="edge8_Node000008_Node000009" class="edge">
<title>Node9&#45;&gt;Node8</title>
<g id="a_edge8_Node000008_Node000009"><a xlink:title=" ">
<path fill="none" stroke="#9a32cd" stroke-dasharray="5,2" d="M140.34,-371.52C116.22,-376.95 86.86,-383.57 65,-388.5"/>
<polygon fill="#9a32cd" stroke="#9a32cd" points="140.9,-374.98 149.88,-369.37 139.36,-368.15 140.9,-374.98"/>
</a>
</g>
<text text-anchor="middle" x="99.62" y="-396.62" font-family="Helvetica,sans-Serif" font-size="10.00" fill="grey"> mHead</text>
<text text-anchor="middle" x="99.62" y="-385.38" font-family="Helvetica,sans-Serif" font-size="10.00" fill="grey">mTail</text>
</g>
<!-- Node9&#45;&gt;Node9 -->
<g id="edge10_Node000009_Node000009" class="edge">
<title>Node9&#45;&gt;Node9</title>
<g id="a_edge10_Node000009_Node000009"><a xlink:title=" ">
<path fill="none" stroke="#9a32cd" stroke-dasharray="5,2" d="M170.05,-382.65C171.95,-386.53 177.02,-389.25 185.25,-389.25 200.3,-389.25 204.77,-380.15 198.66,-371.54"/>
<polygon fill="#9a32cd" stroke="#9a32cd" points="173.47,-383.46 171.6,-373.03 166.56,-382.35 173.47,-383.46"/>
</a>
</g>
<text text-anchor="middle" x="185.25" y="-402.25" font-family="Helvetica,sans-Serif" font-size="10.00" fill="grey"> mNext</text>
<text text-anchor="middle" x="185.25" y="-391" font-family="Helvetica,sans-Serif" font-size="10.00" fill="grey">mPrev</text>
</g>
<!-- Node10 -->
<g id="Node000010" class="node">
<title>Node10</title>
<g id="a_Node000010"><a xlink:href="classJSULink.html" target="_top" xlink:title=" ">
<polygon fill="white" stroke="#666666" points="449.5,-383.25 372.75,-383.25 372.75,-364 449.5,-364 449.5,-383.25"/>
<text text-anchor="middle" x="411.12" y="-369.75" font-family="Helvetica,sans-Serif" font-size="10.00">JSULink&lt; T &gt;</text>
</a>
</g>
</g>
<!-- Node9&#45;&gt;Node10 -->
<g id="edge12_Node000010_Node000009" class="edge">
<title>Node9&#45;&gt;Node10</title>
<g id="a_edge12_Node000010_Node000009"><a xlink:title=" ">
<path fill="none" stroke="#63b8ff" d="M230.18,-363.98C271.59,-366.2 333,-369.49 372.29,-371.6"/>
<polygon fill="#63b8ff" stroke="#63b8ff" points="230.49,-360.49 220.31,-363.45 230.11,-367.48 230.49,-360.49"/>
</a>
</g>
</g>
<!-- Node10&#45;&gt;Node6 -->
<g id="edge11_Node000006_Node000010" class="edge">
<title>Node10&#45;&gt;Node6</title>
<g id="a_edge11_Node000006_Node000010"><a xlink:title=" ">
<path fill="none" stroke="#63b8ff" d="M460.84,-385.93C502.78,-396.52 562.57,-411.62 601.75,-421.52"/>
<polygon fill="#63b8ff" stroke="#63b8ff" points="461.81,-382.56 451.25,-383.51 460.09,-389.35 461.81,-382.56"/>
</a>
</g>
</g>
<!-- Node11 -->
<g id="Node000011" class="node">
<title>Node11</title>
<g id="a_Node000011"><a xlink:href="classJ2DAnmTransform.html" target="_top" xlink:title=" ">
<polygon fill="white" stroke="#666666" points="691.62,-375.25 593.88,-375.25 593.88,-356 691.62,-356 691.62,-375.25"/>
<text text-anchor="middle" x="642.75" y="-361.75" font-family="Helvetica,sans-Serif" font-size="10.00">J2DAnmTransform</text>
</a>
</g>
</g>
<!-- Node11&#45;&gt;Node3 -->
<g id="edge13_Node000003_Node000011" class="edge">
<title>Node11&#45;&gt;Node3</title>
<g id="a_edge13_Node000003_Node000011"><a xlink:title=" ">
<path fill="none" stroke="#9a32cd" stroke-dasharray="5,2" d="M703.01,-377.31C743.69,-385.37 798.89,-396.39 847.5,-406.38 859.19,-408.78 872.09,-411.48 883.15,-413.82"/>
<polygon fill="#9a32cd" stroke="#9a32cd" points="703.92,-373.92 693.43,-375.41 702.56,-380.79 703.92,-373.92"/>
</a>
</g>
<text text-anchor="middle" x="785.5" y="-407.38" font-family="Helvetica,sans-Serif" font-size="10.00" fill="grey"> mTransform</text>
</g>
<!-- Node12 -->
<g id="Node000012" class="node">
<title>Node12</title>
<g id="a_Node000012"><a xlink:href="structJ2DAnmBase.html" target="_top" xlink:title=" ">
<polygon fill="white" stroke="#666666" points="449.12,-209.25 373.12,-209.25 373.12,-190 449.12,-190 449.12,-209.25"/>
<text text-anchor="middle" x="411.12" y="-195.75" font-family="Helvetica,sans-Serif" font-size="10.00">J2DAnmBase</text>
</a>
</g>
</g>
<!-- Node12&#45;&gt;Node11 -->
<g id="edge14_Node000011_Node000012" class="edge">
<title>Node12&#45;&gt;Node11</title>
<g id="a_edge14_Node000011_Node000012"><a xlink:title=" ">
<path fill="none" stroke="#63b8ff" d="M434.92,-216.11C482.17,-250.26 589.55,-327.89 627.85,-355.58"/>
<polygon fill="#63b8ff" stroke="#63b8ff" points="437.18,-213.42 427.03,-210.4 433.08,-219.09 437.18,-213.42"/>
</a>
</g>
</g>
<!-- Node32 -->
<g id="Node000032" class="node">
<title>Node32</title>
<g id="a_Node000032"><a xlink:href="structJ2DMaterial_1_1J2DMaterialAnmPointer.html" target="_top" xlink:title=" ">
<polygon fill="white" stroke="#666666" points="847.5,-214.88 723.5,-214.88 723.5,-184.38 847.5,-184.38 847.5,-214.88"/>
<text text-anchor="start" x="731.5" y="-201.38" font-family="Helvetica,sans-Serif" font-size="10.00">J2DMaterial::J2DMaterial</text>
<text text-anchor="middle" x="785.5" y="-190.12" font-family="Helvetica,sans-Serif" font-size="10.00">AnmPointer</text>
</a>
</g>
</g>
<!-- Node12&#45;&gt;Node32 -->
<g id="edge37_Node000032_Node000012" class="edge">
<title>Node12&#45;&gt;Node32</title>
<g id="a_edge37_Node000032_Node000012"><a xlink:title=" ">
<path fill="none" stroke="#9a32cd" stroke-dasharray="5,2" d="M460.65,-199.62C527.96,-199.62 649.65,-199.62 723.17,-199.62"/>
<polygon fill="#9a32cd" stroke="#9a32cd" points="461.05,-196.13 451.05,-199.63 461.05,-203.13 461.05,-196.13"/>
</a>
</g>
<text text-anchor="middle" x="527.88" y="-235.12" font-family="Helvetica,sans-Serif" font-size="10.00" fill="grey"> field_0x0</text>
<text text-anchor="middle" x="527.88" y="-223.88" font-family="Helvetica,sans-Serif" font-size="10.00" fill="grey">field_0x4</text>
<text text-anchor="middle" x="527.88" y="-212.62" font-family="Helvetica,sans-Serif" font-size="10.00" fill="grey">field_0x8</text>
<text text-anchor="middle" x="527.88" y="-201.38" font-family="Helvetica,sans-Serif" font-size="10.00" fill="grey">field_0xc</text>
</g>
<!-- Node33 -->
<g id="Node000033" class="node">
<title>Node33</title>
<g id="a_Node000033"><a xlink:href="structJ2DAnmVisibilityFull.html" target="_top" xlink:title=" ">
<polygon fill="white" stroke="#666666" points="695.38,-19.25 590.12,-19.25 590.12,0 695.38,0 695.38,-19.25"/>
<text text-anchor="middle" x="642.75" y="-5.75" font-family="Helvetica,sans-Serif" font-size="10.00">J2DAnmVisibilityFull</text>
</a>
</g>
</g>
<!-- Node12&#45;&gt;Node33 -->
<g id="edge39_Node000033_Node000012" class="edge">
<title>Node12&#45;&gt;Node33</title>
<g id="a_edge39_Node000033_Node000012"><a xlink:title=" ">
<path fill="none" stroke="#63b8ff" d="M460.29,-187.26C501.46,-176.25 555.12,-160.67 562,-152.62 597.33,-111.3 545.47,-73.62 580,-31.62 584.19,-26.53 589.65,-22.61 595.6,-19.6"/>
<polygon fill="#63b8ff" stroke="#63b8ff" points="459.56,-183.83 450.79,-189.77 461.35,-190.6 459.56,-183.83"/>
</a>
</g>
</g>
<!-- Node13 -->
<g id="Node000013" class="node">
<title>Node13</title>
<g id="a_Node000013"><a xlink:href="structJUTFont.html" target="_top" xlink:title=" ">
<polygon fill="white" stroke="#666666" points="938.5,-380.25 884.25,-380.25 884.25,-361 938.5,-361 938.5,-380.25"/>
<text text-anchor="middle" x="911.38" y="-366.75" font-family="Helvetica,sans-Serif" font-size="10.00">JUTFont</text>
</a>
</g>
</g>
<!-- Node13&#45;&gt;Node2 -->
<g id="edge15_Node000002_Node000013" class="edge">
<title>Node13&#45;&gt;Node2</title>
<g id="a_edge15_Node000002_Node000013"><a xlink:title=" ">
<path fill="none" stroke="#9a32cd" stroke-dasharray="5,2" d="M949.59,-361.07C982.49,-352.63 1030.06,-340.42 1061.85,-332.26"/>
<polygon fill="#9a32cd" stroke="#9a32cd" points="948.89,-357.64 940.08,-363.51 950.63,-364.42 948.89,-357.64"/>
</a>
</g>
<text text-anchor="middle" x="1009.75" y="-355.38" font-family="Helvetica,sans-Serif" font-size="10.00" fill="grey"> mFont</text>
</g>
<!-- Node14 -->
<g id="Node000014" class="node">
<title>Node14</title>
<g id="a_Node000014"><a xlink:href="structJUtility_1_1TColor.html" target="_top" xlink:title=" ">
<polygon fill="white" stroke="#666666" points="682.25,-307.25 603.25,-307.25 603.25,-288 682.25,-288 682.25,-307.25"/>
<text text-anchor="middle" x="642.75" y="-293.75" font-family="Helvetica,sans-Serif" font-size="10.00">JUtility::TColor</text>
</a>
</g>
</g>
<!-- Node14&#45;&gt;Node2 -->
<g id="edge18_Node000002_Node000014" class="edge">
<title>Node14&#45;&gt;Node2</title>
<g id="a_edge18_Node000002_Node000014"><a xlink:title=" ">
<path fill="none" stroke="#9a32cd" stroke-dasharray="5,2" d="M693.8,-297.62C755.74,-297.94 864.42,-299.6 957.25,-306.62 993.06,-309.33 1033.84,-314.62 1061.78,-318.58"/>
<polygon fill="#9a32cd" stroke="#9a32cd" points="693.95,-294.12 683.93,-297.58 693.92,-301.12 693.95,-294.12"/>
</a>
</g>
<text text-anchor="middle" x="911.38" y="-342.12" font-family="Helvetica,sans-Serif" font-size="10.00" fill="grey"> mBlackColor</text>
<text text-anchor="middle" x="911.38" y="-330.88" font-family="Helvetica,sans-Serif" font-size="10.00" fill="grey">mCharColor</text>
<text text-anchor="middle" x="911.38" y="-319.62" font-family="Helvetica,sans-Serif" font-size="10.00" fill="grey">mGradientColor</text>
<text text-anchor="middle" x="911.38" y="-308.38" font-family="Helvetica,sans-Serif" font-size="10.00" fill="grey">mWhiteColor</text>
</g>
<!-- Node14&#45;&gt;Node13 -->
<g id="edge16_Node000013_Node000014" class="edge">
<title>Node14&#45;&gt;Node13</title>
<g id="a_edge16_Node000013_Node000014"><a xlink:title=" ">
<path fill="none" stroke="#9a32cd" stroke-dasharray="5,2" d="M693.68,-304.9C749.41,-313.23 833.64,-326.51 847.5,-332.62 856.77,-336.72 857,-341.1 865.5,-346.62 873.21,-351.63 882.06,-356.53 889.85,-360.58"/>
<polygon fill="#9a32cd" stroke="#9a32cd" points="694.5,-301.49 684.09,-303.48 693.47,-308.41 694.5,-301.49"/>
</a>
</g>
<text text-anchor="middle" x="785.5" y="-368.12" font-family="Helvetica,sans-Serif" font-size="10.00" fill="grey"> mColor1</text>
<text text-anchor="middle" x="785.5" y="-356.88" font-family="Helvetica,sans-Serif" font-size="10.00" fill="grey">mColor2</text>
<text text-anchor="middle" x="785.5" y="-345.62" font-family="Helvetica,sans-Serif" font-size="10.00" fill="grey">mColor3</text>
<text text-anchor="middle" x="785.5" y="-334.38" font-family="Helvetica,sans-Serif" font-size="10.00" fill="grey">mColor4</text>
</g>
<!-- Node17 -->
<g id="Node000017" class="node">
<title>Node17</title>
<g id="a_Node000017"><a xlink:href="classJ2DColorBlock.html" target="_top" xlink:title=" ">
<polygon fill="white" stroke="#666666" points="951.62,-248.25 871.12,-248.25 871.12,-229 951.62,-229 951.62,-248.25"/>
<text text-anchor="middle" x="911.38" y="-234.75" font-family="Helvetica,sans-Serif" font-size="10.00">J2DColorBlock</text>
</a>
</g>
</g>
<!-- Node14&#45;&gt;Node17 -->
<g id="edge21_Node000017_Node000014" class="edge">
<title>Node14&#45;&gt;Node17</title>
<g id="a_edge21_Node000017_Node000014"><a xlink:title=" ">
<path fill="none" stroke="#9a32cd" stroke-dasharray="5,2" d="M683.07,-284.08C695.87,-279.96 710.2,-275.67 723.5,-272.38 730.62,-270.61 818.19,-254.98 870.88,-245.62"/>
<polygon fill="#9a32cd" stroke="#9a32cd" points="682.14,-280.7 673.73,-287.14 684.32,-287.35 682.14,-280.7"/>
</a>
</g>
<text text-anchor="middle" x="785.5" y="-273.38" font-family="Helvetica,sans-Serif" font-size="10.00" fill="grey"> mMatColor</text>
</g>
<!-- Node15 -->
<g id="Node000015" class="node">
<title>Node15</title>
<g id="a_Node000015"><a xlink:href="struct__GXColor.html" target="_top" xlink:title=" ">
<polygon fill="white" stroke="#666666" points="437.5,-307.25 384.75,-307.25 384.75,-288 437.5,-288 437.5,-307.25"/>
<text text-anchor="middle" x="411.12" y="-293.75" font-family="Helvetica,sans-Serif" font-size="10.00">GXColor</text>
</a>
</g>
</g>
<!-- Node15&#45;&gt;Node14 -->
<g id="edge17_Node000014_Node000015" class="edge">
<title>Node15&#45;&gt;Node14</title>
<g id="a_edge17_Node000014_Node000015"><a xlink:title=" ">
<path fill="none" stroke="#63b8ff" d="M448.97,-297.62C491.1,-297.62 559.79,-297.62 602.79,-297.62"/>
<polygon fill="#63b8ff" stroke="#63b8ff" points="449.09,-294.13 439.09,-297.63 449.09,-301.13 449.09,-294.13"/>
</a>
</g>
</g>
<!-- Node16 -->
<g id="Node000016" class="node">
<title>Node16</title>
<g id="a_Node000016"><a xlink:href="classJ2DMaterial.html" target="_top" xlink:title=" ">
<polygon fill="white" stroke="#666666" points="1130.38,-145.25 1062.62,-145.25 1062.62,-126 1130.38,-126 1130.38,-145.25"/>
<text text-anchor="middle" x="1096.5" y="-131.75" font-family="Helvetica,sans-Serif" font-size="10.00">J2DMaterial</text>
</a>
</g>
</g>
<!-- Node16&#45;&gt;Node1 -->
<g id="edge19_Node000001_Node000016" class="edge">
<title>Node16&#45;&gt;Node1</title>
<g id="a_edge19_Node000001_Node000016"><a xlink:title=" ">
<path fill="none" stroke="#9a32cd" stroke-dasharray="5,2" d="M1142.04,-135.62C1164.04,-135.62 1190.34,-135.62 1211.5,-135.62"/>
<polygon fill="#9a32cd" stroke="#9a32cd" points="1142.16,-132.13 1132.16,-135.63 1142.16,-139.13 1142.16,-132.13"/>
</a>
</g>
<text text-anchor="middle" x="1171.25" y="-137.38" font-family="Helvetica,sans-Serif" font-size="10.00" fill="grey"> mMaterial</text>
</g>
<!-- Node17&#45;&gt;Node16 -->
<g id="edge20_Node000016_Node000017" class="edge">
<title>Node17&#45;&gt;Node16</title>
<g id="a_edge20_Node000016_Node000017"><a xlink:title=" ">
<path fill="none" stroke="#9a32cd" stroke-dasharray="5,2" d="M963.26,-238.24C989.35,-235.86 1020.53,-229.45 1044.25,-213.62 1069.59,-196.72 1085.35,-162.58 1091.94,-145.63"/>
<polygon fill="#9a32cd" stroke="#9a32cd" points="963.29,-234.73 953.56,-238.94 963.79,-241.71 963.29,-234.73"/>
</a>
</g>
<text text-anchor="middle" x="1009.75" y="-238.38" font-family="Helvetica,sans-Serif" font-size="10.00" fill="grey"> mColorBlock</text>
</g>
<!-- Node18 -->
<g id="Node000018" class="node">
<title>Node18</title>
<g id="a_Node000018"><a xlink:href="classJ2DColorChan.html" target="_top" xlink:title=" ">
<polygon fill="white" stroke="#666666" points="681.88,-247.25 603.62,-247.25 603.62,-228 681.88,-228 681.88,-247.25"/>
<text text-anchor="middle" x="642.75" y="-233.75" font-family="Helvetica,sans-Serif" font-size="10.00">J2DColorChan</text>
</a>
</g>
</g>
<!-- Node18&#45;&gt;Node17 -->
<g id="edge22_Node000017_Node000018" class="edge">
<title>Node18&#45;&gt;Node17</title>
<g id="a_edge22_Node000017_Node000018"><a xlink:title=" ">
<path fill="none" stroke="#9a32cd" stroke-dasharray="5,2" d="M693.43,-237.8C734.68,-237.95 794.91,-238.17 847.5,-238.38 855.03,-238.4 863.07,-238.44 870.8,-238.47"/>
<polygon fill="#9a32cd" stroke="#9a32cd" points="693.58,-234.3 683.57,-237.77 693.55,-241.3 693.58,-234.3"/>
</a>
</g>
<text text-anchor="middle" x="785.5" y="-239.38" font-family="Helvetica,sans-Serif" font-size="10.00" fill="grey"> mColorChan</text>
</g>
<!-- Node19 -->
<g id="Node000019" class="node">
<title>Node19</title>
<g id="a_Node000019"><a xlink:href="classJ2DTexGenBlock.html" target="_top" xlink:title=" ">
<polygon fill="white" stroke="#666666" points="957.25,-126.25 865.5,-126.25 865.5,-107 957.25,-107 957.25,-126.25"/>
<text text-anchor="middle" x="911.38" y="-112.75" font-family="Helvetica,sans-Serif" font-size="10.00">J2DTexGenBlock</text>
</a>
</g>
</g>
<!-- Node19&#45;&gt;Node16 -->
<g id="edge23_Node000016_Node000019" class="edge">
<title>Node19&#45;&gt;Node16</title>
<g id="a_edge23_Node000016_Node000019"><a xlink:title=" ">
<path fill="none" stroke="#9a32cd" stroke-dasharray="5,2" d="M969.15,-118.76C992.48,-120.06 1019.73,-122.12 1044.25,-125.38 1050.1,-126.15 1056.28,-127.19 1062.25,-128.32"/>
<polygon fill="#9a32cd" stroke="#9a32cd" points="969.37,-115.27 959.2,-118.24 969,-122.26 969.37,-115.27"/>
</a>
</g>
<text text-anchor="middle" x="1009.75" y="-126.38" font-family="Helvetica,sans-Serif" font-size="10.00" fill="grey"> mTexGenBlock</text>
</g>
<!-- Node20 -->
<g id="Node000020" class="node">
<title>Node20</title>
<g id="a_Node000020"><a xlink:href="classJ2DTexCoord.html" target="_top" xlink:title=" ">
<polygon fill="white" stroke="#666666" points="680,-60.25 605.5,-60.25 605.5,-41 680,-41 680,-60.25"/>
<text text-anchor="middle" x="642.75" y="-46.75" font-family="Helvetica,sans-Serif" font-size="10.00">J2DTexCoord</text>
</a>
</g>
</g>
<!-- Node20&#45;&gt;Node19 -->
<g id="edge24_Node000019_Node000020" class="edge">
<title>Node20&#45;&gt;Node19</title>
<g id="a_edge24_Node000019_Node000020"><a xlink:title=" ">
<path fill="none" stroke="#9a32cd" stroke-dasharray="5,2" d="M691.67,-42.69C735.65,-37.99 800.86,-37.8 847.5,-67.38 861.04,-75.96 853.4,-88.12 865.5,-98.62 869.18,-101.82 873.49,-104.49 877.97,-106.71"/>
<polygon fill="#9a32cd" stroke="#9a32cd" points="691.43,-39.19 681.92,-43.86 692.26,-46.14 691.43,-39.19"/>
</a>
</g>
<text text-anchor="middle" x="785.5" y="-69.38" font-family="Helvetica,sans-Serif" font-size="10.00" fill="grey"> mTexGenCoord</text>
</g>
<!-- Node21 -->
<g id="Node000021" class="node">
<title>Node21</title>
<g id="a_Node000021"><a xlink:href="structJ2DTexCoordInfo.html" target="_top" xlink:title=" ">
<polygon fill="white" stroke="#666666" points="456.62,-60.25 365.62,-60.25 365.62,-41 456.62,-41 456.62,-60.25"/>
<text text-anchor="middle" x="411.12" y="-46.75" font-family="Helvetica,sans-Serif" font-size="10.00">J2DTexCoordInfo</text>
</a>
</g>
</g>
<!-- Node21&#45;&gt;Node20 -->
<g id="edge25_Node000020_Node000021" class="edge">
<title>Node21&#45;&gt;Node20</title>
<g id="a_edge25_Node000020_Node000021"><a xlink:title=" ">
<path fill="none" stroke="#9a32cd" stroke-dasharray="5,2" d="M468.29,-50.62C510.99,-50.62 568.5,-50.62 605.35,-50.62"/>
<polygon fill="#9a32cd" stroke="#9a32cd" points="468.46,-47.13 458.46,-50.63 468.46,-54.13 468.46,-47.13"/>
</a>
</g>
<text text-anchor="middle" x="527.88" y="-52.38" font-family="Helvetica,sans-Serif" font-size="10.00" fill="grey"> mTexCoordInfo</text>
</g>
<!-- Node22 -->
<g id="Node000022" class="node">
<title>Node22</title>
<g id="a_Node000022"><a xlink:href="classJ2DTexMtx.html" target="_top" xlink:title=" ">
<polygon fill="white" stroke="#666666" points="675.12,-97.25 610.38,-97.25 610.38,-78 675.12,-78 675.12,-97.25"/>
<text text-anchor="middle" x="642.75" y="-83.75" font-family="Helvetica,sans-Serif" font-size="10.00">J2DTexMtx</text>
</a>
</g>
</g>
<!-- Node22&#45;&gt;Node19 -->
<g id="edge26_Node000019_Node000022" class="edge">
<title>Node22&#45;&gt;Node19</title>
<g id="a_edge26_Node000019_Node000022"><a xlink:title=" ">
<path fill="none" stroke="#9a32cd" stroke-dasharray="5,2" d="M686.91,-83.92C728.49,-81.41 792.95,-80.28 847.5,-91.38 855.95,-93.09 857.5,-95.41 865.5,-98.62 871.89,-101.19 878.79,-103.96 885.21,-106.54"/>
<polygon fill="#9a32cd" stroke="#9a32cd" points="686.81,-80.42 677.06,-84.58 687.27,-87.41 686.81,-80.42"/>
</a>
</g>
<text text-anchor="middle" x="785.5" y="-93.38" font-family="Helvetica,sans-Serif" font-size="10.00" fill="grey"> mTexMtx</text>
</g>
<!-- Node23 -->
<g id="Node000023" class="node">
<title>Node23</title>
<g id="a_Node000023"><a xlink:href="structJ2DTexMtxInfo.html" target="_top" xlink:title=" ">
<polygon fill="white" stroke="#666666" points="451.75,-97.25 370.5,-97.25 370.5,-78 451.75,-78 451.75,-97.25"/>
<text text-anchor="middle" x="411.12" y="-83.75" font-family="Helvetica,sans-Serif" font-size="10.00">J2DTexMtxInfo</text>
</a>
</g>
</g>
<!-- Node23&#45;&gt;Node22 -->
<g id="edge27_Node000022_Node000023" class="edge">
<title>Node23&#45;&gt;Node22</title>
<g id="a_edge27_Node000022_Node000023"><a xlink:title=" ">
<path fill="none" stroke="#9a32cd" stroke-dasharray="5,2" d="M463.39,-87.62C508.27,-87.62 572.08,-87.62 609.96,-87.62"/>
<polygon fill="#9a32cd" stroke="#9a32cd" points="463.64,-84.13 453.64,-87.63 463.64,-91.13 463.64,-84.13"/>
</a>
</g>
<text text-anchor="middle" x="527.88" y="-89.38" font-family="Helvetica,sans-Serif" font-size="10.00" fill="grey"> mInfo</text>
</g>
<!-- Node24 -->
<g id="Node000024" class="node">
<title>Node24</title>
<g id="a_Node000024"><a xlink:href="structVec.html" target="_top" xlink:title=" ">
<polygon fill="white" stroke="#666666" points="201.88,-115.25 168.62,-115.25 168.62,-96 201.88,-96 201.88,-115.25"/>
<text text-anchor="middle" x="185.25" y="-101.75" font-family="Helvetica,sans-Serif" font-size="10.00">Vec</text>
</a>
</g>
</g>
<!-- Node24&#45;&gt;Node23 -->
<g id="edge28_Node000023_Node000024" class="edge">
<title>Node24&#45;&gt;Node23</title>
<g id="a_edge28_Node000023_Node000024"><a xlink:title=" ">
<path fill="none" stroke="#9a32cd" stroke-dasharray="5,2" d="M213.59,-103.43C252.74,-100.28 324.99,-94.47 370.14,-90.84"/>
<polygon fill="#9a32cd" stroke="#9a32cd" points="213.55,-99.92 203.86,-104.21 214.11,-106.9 213.55,-99.92"/>
</a>
</g>
<text text-anchor="middle" x="291.25" y="-102.38" font-family="Helvetica,sans-Serif" font-size="10.00" fill="grey"> mCenter</text>
</g>
<!-- Node25 -->
<g id="Node000025" class="node">
<title>Node25</title>
<g id="a_Node000025"><a xlink:href="structJ2DTextureSRTInfo.html" target="_top" xlink:title=" ">
<polygon fill="white" stroke="#666666" points="236,-78.25 134.5,-78.25 134.5,-59 236,-59 236,-78.25"/>
<text text-anchor="middle" x="185.25" y="-64.75" font-family="Helvetica,sans-Serif" font-size="10.00">J2DTextureSRTInfo</text>
</a>
</g>
</g>
<!-- Node25&#45;&gt;Node23 -->
<g id="edge29_Node000023_Node000025" class="edge">
<title>Node25&#45;&gt;Node23</title>
<g id="a_edge29_Node000023_Node000025"><a xlink:title=" ">
<path fill="none" stroke="#9a32cd" stroke-dasharray="5,2" d="M247.52,-72.91C272.63,-74.76 301.97,-77.03 328.5,-79.38 342.12,-80.58 357,-82.04 370.29,-83.39"/>
<polygon fill="#9a32cd" stroke="#9a32cd" points="248.05,-69.44 237.82,-72.21 247.54,-76.42 248.05,-69.44"/>
</a>
</g>
<text text-anchor="middle" x="291.25" y="-81.38" font-family="Helvetica,sans-Serif" font-size="10.00" fill="grey"> mTexSRTInfo</text>
</g>
<!-- Node26 -->
<g id="Node000026" class="node">
<title>Node26</title>
<g id="a_Node000026"><a xlink:href="classJ2DTevBlock.html" target="_top" xlink:title=" ">
<polygon fill="white" stroke="#666666" points="948.62,-89.25 874.12,-89.25 874.12,-70 948.62,-70 948.62,-89.25"/>
<text text-anchor="middle" x="911.38" y="-75.75" font-family="Helvetica,sans-Serif" font-size="10.00">J2DTevBlock</text>
</a>
</g>
</g>
<!-- Node26&#45;&gt;Node16 -->
<g id="edge30_Node000016_Node000026" class="edge">
<title>Node26&#45;&gt;Node16</title>
<g id="a_edge30_Node000016_Node000026"><a xlink:title=" ">
<path fill="none" stroke="#9a32cd" stroke-dasharray="5,2" d="M960.21,-83.77C985.79,-87.09 1017.45,-92.98 1044.25,-103.38 1058.36,-108.85 1072.82,-118.37 1082.76,-125.65"/>
<polygon fill="#9a32cd" stroke="#9a32cd" points="960.78,-80.31 950.43,-82.6 959.95,-87.27 960.78,-80.31"/>
</a>
</g>
<text text-anchor="middle" x="1009.75" y="-105.38" font-family="Helvetica,sans-Serif" font-size="10.00" fill="grey"> mTevBlock</text>
</g>
<!-- Node27 -->
<g id="Node000027" class="node">
<title>Node27</title>
<g id="a_Node000027"><a xlink:href="classJ2DIndBlock.html" target="_top" xlink:title=" ">
<polygon fill="white" stroke="#666666" points="947.12,-52.25 875.62,-52.25 875.62,-33 947.12,-33 947.12,-52.25"/>
<text text-anchor="middle" x="911.38" y="-38.75" font-family="Helvetica,sans-Serif" font-size="10.00">J2DIndBlock</text>
</a>
</g>
</g>
<!-- Node27&#45;&gt;Node16 -->
<g id="edge31_Node000016_Node000027" class="edge">
<title>Node27&#45;&gt;Node16</title>
<g id="a_edge31_Node000016_Node000027"><a xlink:title=" ">
<path fill="none" stroke="#9a32cd" stroke-dasharray="5,2" d="M958.9,-45.09C985.56,-48.3 1018.68,-55.48 1044.25,-71.38 1066.06,-84.93 1082.54,-111.19 1090.4,-125.58"/>
<polygon fill="#9a32cd" stroke="#9a32cd" points="959.36,-41.62 949.05,-44.07 958.63,-48.58 959.36,-41.62"/>
</a>
</g>
<text text-anchor="middle" x="1009.75" y="-73.38" font-family="Helvetica,sans-Serif" font-size="10.00" fill="grey"> mIndBlock</text>
</g>
<!-- Node28 -->
<g id="Node000028" class="node">
<title>Node28</title>
<g id="a_Node000028"><a xlink:href="classJ2DPEBlock.html" target="_top" xlink:title=" ">
<polygon fill="white" stroke="#666666" points="946.75,-163.25 876,-163.25 876,-144 946.75,-144 946.75,-163.25"/>
<text text-anchor="middle" x="911.38" y="-149.75" font-family="Helvetica,sans-Serif" font-size="10.00">J2DPEBlock</text>
</a>
</g>
</g>
<!-- Node28&#45;&gt;Node16 -->
<g id="edge32_Node000016_Node000028" class="edge">
<title>Node28&#45;&gt;Node16</title>
<g id="a_edge32_Node000016_Node000028"><a xlink:title=" ">
<path fill="none" stroke="#9a32cd" stroke-dasharray="5,2" d="M958.21,-149.12C990.51,-145.94 1033.03,-141.77 1062.14,-138.9"/>
<polygon fill="#9a32cd" stroke="#9a32cd" points="957.94,-145.63 948.33,-150.09 958.62,-152.6 957.94,-145.63"/>
</a>
</g>
<text text-anchor="middle" x="1009.75" y="-148.38" font-family="Helvetica,sans-Serif" font-size="10.00" fill="grey"> mPEBlock</text>
</g>
<!-- Node29 -->
<g id="Node000029" class="node">
<title>Node29</title>
<g id="a_Node000029"><a xlink:href="structJ2DAlphaComp.html" target="_top" xlink:title=" ">
<polygon fill="white" stroke="#666666" points="684.5,-134.25 601,-134.25 601,-115 684.5,-115 684.5,-134.25"/>
<text text-anchor="middle" x="642.75" y="-120.75" font-family="Helvetica,sans-Serif" font-size="10.00">J2DAlphaComp</text>
</a>
</g>
</g>
<!-- Node29&#45;&gt;Node28 -->
<g id="edge33_Node000028_Node000029" class="edge">
<title>Node29&#45;&gt;Node28</title>
<g id="a_edge33_Node000028_Node000029"><a xlink:title=" ">
<path fill="none" stroke="#9a32cd" stroke-dasharray="5,2" d="M696.35,-126.26C737.63,-128.06 796.46,-131.79 847.5,-139.38 856.69,-140.74 866.53,-142.72 875.63,-144.77"/>
<polygon fill="#9a32cd" stroke="#9a32cd" points="696.57,-122.76 686.44,-125.85 696.29,-129.76 696.57,-122.76"/>
</a>
</g>
<text text-anchor="middle" x="785.5" y="-140.38" font-family="Helvetica,sans-Serif" font-size="10.00" fill="grey"> mAlphaComp</text>
</g>
<!-- Node30 -->
<g id="Node000030" class="node">
<title>Node30</title>
<g id="a_Node000030"><a xlink:href="structJ2DBlend.html" target="_top" xlink:title=" ">
<polygon fill="white" stroke="#666666" points="671.75,-171.25 613.75,-171.25 613.75,-152 671.75,-152 671.75,-171.25"/>
<text text-anchor="middle" x="642.75" y="-157.75" font-family="Helvetica,sans-Serif" font-size="10.00">J2DBlend</text>
</a>
</g>
</g>
<!-- Node30&#45;&gt;Node28 -->
<g id="edge34_Node000028_Node000030" class="edge">
<title>Node30&#45;&gt;Node28</title>
<g id="a_edge34_Node000028_Node000030"><a xlink:title=" ">
<path fill="none" stroke="#9a32cd" stroke-dasharray="5,2" d="M683.47,-160.43C735.58,-158.87 826.21,-156.15 875.69,-154.67"/>
<polygon fill="#9a32cd" stroke="#9a32cd" points="683.43,-156.93 673.54,-160.73 683.64,-163.93 683.43,-156.93"/>
</a>
</g>
<text text-anchor="middle" x="785.5" y="-160.38" font-family="Helvetica,sans-Serif" font-size="10.00" fill="grey"> mBlend</text>
</g>
<!-- Node31 -->
<g id="Node000031" class="node">
<title>Node31</title>
<g id="a_Node000031"><a xlink:href="structJ2DBlendInfo.html" target="_top" xlink:title=" ">
<polygon fill="white" stroke="#666666" points="448.38,-150.25 373.88,-150.25 373.88,-131 448.38,-131 448.38,-150.25"/>
<text text-anchor="middle" x="411.12" y="-136.75" font-family="Helvetica,sans-Serif" font-size="10.00">J2DBlendInfo</text>
</a>
</g>
</g>
<!-- Node31&#45;&gt;Node30 -->
<g id="edge35_Node000030_Node000031" class="edge">
<title>Node31&#45;&gt;Node30</title>
<g id="a_edge35_Node000030_Node000031"><a xlink:title=" ">
<path fill="none" stroke="#9a32cd" stroke-dasharray="5,2" d="M460.05,-145.01C506.49,-149.25 575.33,-155.55 613.57,-159.05"/>
<polygon fill="#9a32cd" stroke="#9a32cd" points="460.55,-141.54 450.27,-144.11 459.91,-148.51 460.55,-141.54"/>
</a>
</g>
<text text-anchor="middle" x="527.88" y="-155.38" font-family="Helvetica,sans-Serif" font-size="10.00" fill="grey"> mBlendInfo</text>
</g>
<!-- Node32&#45;&gt;Node16 -->
<g id="edge36_Node000016_Node000032" class="edge">
<title>Node32&#45;&gt;Node16</title>
<g id="a_edge36_Node000016_Node000032"><a xlink:title=" ">
<path fill="none" stroke="#9a32cd" stroke-dasharray="5,2" d="M859.11,-195.2C911.55,-190.51 983.51,-180.94 1044.25,-161.62 1056.42,-157.75 1069.23,-151.25 1079,-145.72"/>
<polygon fill="#9a32cd" stroke="#9a32cd" points="859.08,-191.69 849.41,-196.03 859.67,-198.67 859.08,-191.69"/>
</a>
</g>
<text text-anchor="middle" x="911.38" y="-195.38" font-family="Helvetica,sans-Serif" font-size="10.00" fill="grey"> mAnmPointer</text>
</g>
<!-- Node33&#45;&gt;Node1 -->
<g id="edge38_Node000001_Node000033" class="edge">
<title>Node33&#45;&gt;Node1</title>
<g id="a_edge38_Node000001_Node000033"><a xlink:title=" ">
<path fill="none" stroke="#9a32cd" stroke-dasharray="5,2" d="M706.93,-4.62C787.12,-0.21 928.86,1.11 1044.25,-32.38 1120.32,-54.45 1201.95,-104.14 1235.03,-125.53"/>
<polygon fill="#9a32cd" stroke="#9a32cd" points="706.85,-1.12 697.07,-5.2 707.26,-8.11 706.85,-1.12"/>
</a>
</g>
<text text-anchor="middle" x="1009.75" y="-34.38" font-family="Helvetica,sans-Serif" font-size="10.00" fill="grey"> mVisibilityAnm</text>
</g>
<!-- Node34 -->
<g id="Node000034" class="node">
<title>Node34</title>
<g id="a_Node000034"><a xlink:href="structJ3DAnmVisibilityFullTable.html" target="_top" xlink:title=" ">
<polygon fill="white" stroke="#666666" points="475.75,-19.25 346.5,-19.25 346.5,0 475.75,0 475.75,-19.25"/>
<text text-anchor="middle" x="411.12" y="-5.75" font-family="Helvetica,sans-Serif" font-size="10.00">J3DAnmVisibilityFullTable</text>
</a>
</g>
</g>
<!-- Node34&#45;&gt;Node33 -->
<g id="edge40_Node000033_Node000034" class="edge">
<title>Node34&#45;&gt;Node33</title>
<g id="a_edge40_Node000033_Node000034"><a xlink:title=" ">
<path fill="none" stroke="#9a32cd" stroke-dasharray="5,2" d="M487.24,-9.62C520.77,-9.62 559.45,-9.62 589.72,-9.62"/>
<polygon fill="#9a32cd" stroke="#9a32cd" points="487.6,-6.13 477.6,-9.63 487.6,-13.13 487.6,-6.13"/>
</a>
</g>
<text text-anchor="middle" x="527.88" y="-11.38" font-family="Helvetica,sans-Serif" font-size="10.00" fill="grey"> mTable</text>
</g>
</g>
</svg>

<g id="navigator" transform="translate(0 0)" fill="#404254">
  <rect fill="#f2f5e9" fill-opacity="0.5" stroke="#606060" stroke-width=".5" x="0" y="0" width="60" height="60"/>
  <use id="zoomplus" xlink:href="#zoomPlus" x="17" y="9" onmousedown="handleZoom(evt,'in')"/>
  <use id="zoomminus" xlink:href="#zoomMin" x="42" y="9" onmousedown="handleZoom(evt,'out')"/>
  <use id="reset" xlink:href="#resetDef" x="30" y="36" onmousedown="handleReset()"/>
   <use id="arrowup" xlink:href="#arrowUp" x="0" y="0" onmousedown="handlePan(0,-1)"/>
  <use id="arrowright" xlink:href="#arrowRight" x="0" y="0" onmousedown="handlePan(1,0)"/>
  <use id="arrowdown" xlink:href="#arrowDown" x="0" y="0" onmousedown="handlePan(0,1)"/>
  <use id="arrowleft" xlink:href="#arrowLeft" x="0" y="0" onmousedown="handlePan(-1,0)"/>
</g>
<svg viewBox="0 0 15 15" width="100%" height="30px" preserveAspectRatio="xMaxYMin meet">
 <g id="arrow_out" transform="scale(0.3 0.3)">
  <a xlink:href="classJ2DTextBoxEx__coll__graph_org.svg" target="_base">
   <rect id="button" ry="5" rx="5" y="6" x="6" height="38" width="38"
        fill="#f2f5e9" fill-opacity="0.5" stroke="#606060" stroke-width="1.0"/>
   <path id="arrow"
     d="M 11.500037,31.436501 C 11.940474,20.09759 22.043105,11.32322 32.158766,21.979434 L 37.068811,17.246167 C 37.068811,17.246167 37.088388,32 37.088388,32 L 22.160133,31.978069 C 22.160133,31.978069 26.997745,27.140456 26.997745,27.140456 C 18.528582,18.264221 13.291696,25.230495 11.500037,31.436501 z"
     style="fill:#404040;"/>
  </a>
 </g>
</svg>

<style type='text/css'>
<![CDATA[
[data-mouse-over-selected='false'] { opacity: 0.7; }
[data-mouse-over-selected='true']  { opacity: 1.0; }
]]>
</style>
<script type="application/ecmascript"><![CDATA[
document.addEventListener('DOMContentLoaded', (event) => {
  highlightEdges();
  highlightAdjacentNodes();
});
]]></script>
</svg>
