<?xml version="1.0" encoding="UTF-8" standalone="no"?>
<!DOCTYPE svg PUBLIC "-//W3C//DTD SVG 1.1//EN"
 "http://www.w3.org/Graphics/SVG/1.1/DTD/svg11.dtd">
<!-- Generated by graphviz version 9.0.0 (20230911.1827)
 -->
<!-- Title: JKRFileLoader Pages: 1 -->
<svg width="420pt" height="193pt"
 viewBox="0.00 0.00 420.25 193.00" xmlns="http://www.w3.org/2000/svg" xmlns:xlink="http://www.w3.org/1999/xlink">

<svg id="main" version="1.1" xmlns="http://www.w3.org/2000/svg" xmlns:xlink="http://www.w3.org/1999/xlink" xml:space="preserve" onload="init(evt)">
<style type="text/css"><![CDATA[
.node, .edge {opacity: 0.7;}
.node.selected, .edge.selected {opacity: 1;}
.edge:hover path { stroke: red; }
.edge:hover polygon { stroke: red; fill: red; }
]]></style>
<script type="application/ecmascript" xlink:href="svg.min.js"/>
<svg id="graph" class="graph">
<g id="graph0" class="graph" transform="scale(1 1) rotate(0) translate(4 189)">
<title>JKRFileLoader</title>
<!-- Node1 -->
<g id="Node000001" class="node">
<title>Node1</title>
<g id="a_Node000001"><a xlink:title=" ">
<polygon fill="#999999" stroke="#666666" points="293.75,-129.75 213.25,-129.75 213.25,-110.5 293.75,-110.5 293.75,-129.75"/>
<text text-anchor="middle" x="253.5" y="-116.25" font-family="Helvetica,sans-Serif" font-size="10.00">JKRFileLoader</text>
</a>
</g>
</g>
<!-- Node3 -->
<g id="Node000003" class="node">
<title>Node3</title>
<g id="a_Node000003"><a xlink:href="structJKRArchive.html" target="_top" xlink:title=" ">
<polygon fill="white" stroke="#666666" points="242.38,-74.5 174.62,-74.5 174.62,-55.25 242.38,-55.25 242.38,-74.5"/>
<text text-anchor="middle" x="208.5" y="-61" font-family="Helvetica,sans-Serif" font-size="10.00">JKRArchive</text>
</a>
</g>
</g>
<!-- Node1&#45;&gt;Node3 -->
<g id="edge2_Node000001_Node000003" class="edge">
<title>Node1&#45;&gt;Node3</title>
<g id="a_edge2_Node000001_Node000003"><a xlink:title=" ">
<path fill="none" stroke="#63b8ff" d="M238.82,-101.76C231.24,-92.78 222.29,-82.2 216.09,-74.86"/>
<polygon fill="#63b8ff" stroke="#63b8ff" points="235.96,-103.8 245.09,-109.18 241.31,-99.28 235.96,-103.8"/>
</a>
</g>
</g>
<!-- Node8 -->
<g id="Node000008" class="node">
<title>Node8</title>
<g id="a_Node000008"><a xlink:href="classJKRFileCache.html" target="_top" xlink:title=" ">
<polygon fill="white" stroke="#666666" points="338.62,-74.5 260.38,-74.5 260.38,-55.25 338.62,-55.25 338.62,-74.5"/>
<text text-anchor="middle" x="299.5" y="-61" font-family="Helvetica,sans-Serif" font-size="10.00">JKRFileCache</text>
</a>
</g>
</g>
<!-- Node1&#45;&gt;Node8 -->
<g id="edge7_Node000001_Node000008" class="edge">
<title>Node1&#45;&gt;Node8</title>
<g id="a_edge7_Node000001_Node000008"><a xlink:title=" ">
<path fill="none" stroke="#63b8ff" d="M268.5,-101.76C276.26,-92.78 285.4,-82.2 291.74,-74.86"/>
<polygon fill="#63b8ff" stroke="#63b8ff" points="265.97,-99.33 262.09,-109.19 271.27,-103.91 265.97,-99.33"/>
</a>
</g>
</g>
<!-- Node2 -->
<g id="Node000002" class="node">
<title>Node2</title>
<g id="a_Node000002"><a xlink:href="classJKRDisposer.html" target="_top" xlink:title=" ">
<polygon fill="white" stroke="#666666" points="290,-185 217,-185 217,-165.75 290,-165.75 290,-185"/>
<text text-anchor="middle" x="253.5" y="-171.5" font-family="Helvetica,sans-Serif" font-size="10.00">JKRDisposer</text>
</a>
</g>
</g>
<!-- Node2&#45;&gt;Node1 -->
<g id="edge1_Node000001_Node000002" class="edge">
<title>Node2&#45;&gt;Node1</title>
<g id="a_edge1_Node000001_Node000002"><a xlink:title=" ">
<path fill="none" stroke="#63b8ff" d="M253.5,-154.13C253.5,-145.84 253.5,-136.67 253.5,-130.11"/>
<polygon fill="#63b8ff" stroke="#63b8ff" points="250,-154.07 253.5,-164.07 257,-154.07 250,-154.07"/>
</a>
</g>
</g>
<!-- Node4 -->
<g id="Node000004" class="node">
<title>Node4</title>
<g id="a_Node000004"><a xlink:href="structJKRAramArchive.html" target="_top" xlink:title=" ">
<polygon fill="white" stroke="#666666" points="91,-19.25 0,-19.25 0,0 91,0 91,-19.25"/>
<text text-anchor="middle" x="45.5" y="-5.75" font-family="Helvetica,sans-Serif" font-size="10.00">JKRAramArchive</text>
</a>
</g>
</g>
<!-- Node3&#45;&gt;Node4 -->
<g id="edge3_Node000003_Node000004" class="edge">
<title>Node3&#45;&gt;Node4</title>
<g id="a_edge3_Node000003_Node000004"><a xlink:title=" ">
<path fill="none" stroke="#63b8ff" d="M170.04,-51.31C140.32,-41.6 99.91,-28.4 73.29,-19.7"/>
<polygon fill="#63b8ff" stroke="#63b8ff" points="168.82,-54.59 179.41,-54.37 170.99,-47.94 168.82,-54.59"/>
</a>
</g>
</g>
<!-- Node5 -->
<g id="Node000005" class="node">
<title>Node5</title>
<g id="a_Node000005"><a xlink:href="classJKRCompArchive.html" target="_top" xlink:title=" ">
<polygon fill="white" stroke="#666666" points="202.12,-19.25 108.88,-19.25 108.88,0 202.12,0 202.12,-19.25"/>
<text text-anchor="middle" x="155.5" y="-5.75" font-family="Helvetica,sans-Serif" font-size="10.00">JKRCompArchive</text>
</a>
</g>
</g>
<!-- Node3&#45;&gt;Node5 -->
<g id="edge4_Node000003_Node000005" class="edge">
<title>Node3&#45;&gt;Node5</title>
<g id="a_edge4_Node000003_Node000005"><a xlink:title=" ">
<path fill="none" stroke="#63b8ff" d="M191.78,-47.07C182.72,-37.98 171.9,-27.1 164.44,-19.61"/>
<polygon fill="#63b8ff" stroke="#63b8ff" points="189.15,-49.39 198.68,-54.01 194.11,-44.45 189.15,-49.39"/>
</a>
</g>
</g>
<!-- Node6 -->
<g id="Node000006" class="node">
<title>Node6</title>
<g id="a_Node000006"><a xlink:href="classJKRDvdArchive.html" target="_top" xlink:title=" ">
<polygon fill="white" stroke="#666666" points="305,-19.25 220,-19.25 220,0 305,0 305,-19.25"/>
<text text-anchor="middle" x="262.5" y="-5.75" font-family="Helvetica,sans-Serif" font-size="10.00">JKRDvdArchive</text>
</a>
</g>
</g>
<!-- Node3&#45;&gt;Node6 -->
<g id="edge5_Node000003_Node000006" class="edge">
<title>Node3&#45;&gt;Node6</title>
<g id="a_edge5_Node000003_Node000006"><a xlink:title=" ">
<path fill="none" stroke="#63b8ff" d="M225.54,-47.07C234.76,-37.98 245.79,-27.1 253.39,-19.61"/>
<polygon fill="#63b8ff" stroke="#63b8ff" points="223.16,-44.51 218.49,-54.02 228.07,-49.49 223.16,-44.51"/>
</a>
</g>
</g>
<!-- Node7 -->
<g id="Node000007" class="node">
<title>Node7</title>
<g id="a_Node000007"><a xlink:href="classJKRMemArchive.html" target="_top" xlink:title=" ">
<polygon fill="white" stroke="#666666" points="412.25,-19.25 322.75,-19.25 322.75,0 412.25,0 412.25,-19.25"/>
<text text-anchor="middle" x="367.5" y="-5.75" font-family="Helvetica,sans-Serif" font-size="10.00">JKRMemArchive</text>
</a>
</g>
</g>
<!-- Node3&#45;&gt;Node7 -->
<g id="edge6_Node000003_Node000007" class="edge">
<title>Node3&#45;&gt;Node7</title>
<g id="a_edge6_Node000003_Node000007"><a xlink:title=" ">
<path fill="none" stroke="#63b8ff" d="M246.02,-51.31C275,-41.6 314.42,-28.4 340.4,-19.7"/>
<polygon fill="#63b8ff" stroke="#63b8ff" points="245.28,-47.87 236.91,-54.36 247.5,-54.5 245.28,-47.87"/>
</a>
</g>
</g>
</g>
</svg>
</svg>

<style type='text/css'>
<![CDATA[
[data-mouse-over-selected='false'] { opacity: 0.7; }
[data-mouse-over-selected='true']  { opacity: 1.0; }
]]>
</style>
<script type="application/ecmascript"><![CDATA[
document.addEventListener('DOMContentLoaded', (event) => {
  highlightEdges();
  highlightAdjacentNodes();
});
]]></script>
</svg>
