<?xml version="1.0" encoding="UTF-8" standalone="no"?>
<!DOCTYPE svg PUBLIC "-//W3C//DTD SVG 1.1//EN"
 "http://www.w3.org/Graphics/SVG/1.1/DTD/svg11.dtd">
<!-- Generated by graphviz version 9.0.0 (20230911.1827)
 -->
<!-- Title: mDoExt_transAnmBas Pages: 1 -->
<svg width="262pt" height="239pt"
 viewBox="0.00 0.00 262.00 239.00" xmlns="http://www.w3.org/2000/svg" xmlns:xlink="http://www.w3.org/1999/xlink">

<svg id="main" version="1.1" xmlns="http://www.w3.org/2000/svg" xmlns:xlink="http://www.w3.org/1999/xlink" xml:space="preserve" onload="init(evt)">
<style type="text/css"><![CDATA[
.node, .edge {opacity: 0.7;}
.node.selected, .edge.selected {opacity: 1;}
.edge:hover path { stroke: red; }
.edge:hover polygon { stroke: red; fill: red; }
]]></style>
<script type="application/ecmascript" xlink:href="svg.min.js"/>
<svg id="graph" class="graph">
<g id="graph0" class="graph" transform="scale(1 1) rotate(0) translate(4 235)">
<title>mDoExt_transAnmBas</title>
<!-- Node1 -->
<g id="Node000001" class="node">
<title>Node1</title>
<g id="a_Node000001"><a xlink:title=" ">
<polygon fill="#999999" stroke="#666666" points="173,-19.25 58.75,-19.25 58.75,0 173,0 173,-19.25"/>
<text text-anchor="middle" x="115.88" y="-5.75" font-family="Helvetica,sans-Serif" font-size="10.00">mDoExt_transAnmBas</text>
</a>
</g>
</g>
<!-- Node2 -->
<g id="Node000002" class="node">
<title>Node2</title>
<g id="a_Node000002"><a xlink:href="structJ3DAnmTransformKey.html" target="_top" xlink:title=" ">
<polygon fill="white" stroke="#666666" points="173,-75.5 58.75,-75.5 58.75,-56.25 173,-56.25 173,-75.5"/>
<text text-anchor="middle" x="115.88" y="-62" font-family="Helvetica,sans-Serif" font-size="10.00">J3DAnmTransformKey</text>
</a>
</g>
</g>
<!-- Node2&#45;&gt;Node1 -->
<g id="edge1_Node000001_Node000002" class="edge">
<title>Node2&#45;&gt;Node1</title>
<g id="a_edge1_Node000001_Node000002"><a xlink:title=" ">
<path fill="none" stroke="#63b8ff" d="M115.88,-44.69C115.88,-35.98 115.88,-26.24 115.88,-19.42"/>
<polygon fill="#63b8ff" stroke="#63b8ff" points="112.38,-44.4 115.88,-54.4 119.38,-44.4 112.38,-44.4"/>
</a>
</g>
</g>
<!-- Node3 -->
<g id="Node000003" class="node">
<title>Node3</title>
<g id="a_Node000003"><a xlink:href="structJ3DAnmTransform.html" target="_top" xlink:title=" ">
<polygon fill="white" stroke="#666666" points="97.75,-142 0,-142 0,-122.75 97.75,-122.75 97.75,-142"/>
<text text-anchor="middle" x="48.88" y="-128.5" font-family="Helvetica,sans-Serif" font-size="10.00">J3DAnmTransform</text>
</a>
</g>
</g>
<!-- Node3&#45;&gt;Node2 -->
<g id="edge2_Node000002_Node000003" class="edge">
<title>Node3&#45;&gt;Node2</title>
<g id="a_edge2_Node000002_Node000003"><a xlink:title=" ">
<path fill="none" stroke="#63b8ff" d="M66.32,-114.58C79.22,-102.16 96.27,-85.75 106.64,-75.77"/>
<polygon fill="#63b8ff" stroke="#63b8ff" points="64.06,-111.9 59.28,-121.36 68.91,-116.94 64.06,-111.9"/>
</a>
</g>
</g>
<!-- Node4 -->
<g id="Node000004" class="node">
<title>Node4</title>
<g id="a_Node000004"><a xlink:href="classJ3DAnmBase.html" target="_top" xlink:title=" ">
<polygon fill="white" stroke="#666666" points="86.88,-231 10.88,-231 10.88,-211.75 86.88,-211.75 86.88,-231"/>
<text text-anchor="middle" x="48.88" y="-217.5" font-family="Helvetica,sans-Serif" font-size="10.00">J3DAnmBase</text>
</a>
</g>
</g>
<!-- Node4&#45;&gt;Node3 -->
<g id="edge3_Node000003_Node000004" class="edge">
<title>Node4&#45;&gt;Node3</title>
<g id="a_edge3_Node000003_Node000004"><a xlink:title=" ">
<path fill="none" stroke="#63b8ff" d="M48.88,-200.01C48.88,-181.8 48.88,-155.97 48.88,-142.44"/>
<polygon fill="#63b8ff" stroke="#63b8ff" points="45.38,-199.88 48.88,-209.88 52.38,-199.88 45.38,-199.88"/>
</a>
</g>
</g>
<!-- Node5 -->
<g id="Node000005" class="node">
<title>Node5</title>
<g id="a_Node000005"><a xlink:href="structJ3DAnmTransformKeyTable.html" target="_top" xlink:title=" ">
<polygon fill="white" stroke="#666666" points="254,-142 115.75,-142 115.75,-122.75 254,-122.75 254,-142"/>
<text text-anchor="middle" x="184.88" y="-128.5" font-family="Helvetica,sans-Serif" font-size="10.00">J3DAnmTransformKeyTable</text>
</a>
</g>
</g>
<!-- Node5&#45;&gt;Node2 -->
<g id="edge4_Node000002_Node000005" class="edge">
<title>Node5&#45;&gt;Node2</title>
<g id="a_edge4_Node000002_Node000005"><a xlink:title=" ">
<path fill="none" stroke="#9a32cd" stroke-dasharray="5,2" d="M166.91,-114.58C153.63,-102.16 136.06,-85.75 125.39,-75.77"/>
<polygon fill="#9a32cd" stroke="#9a32cd" points="164.48,-117.1 174.18,-121.37 169.26,-111.99 164.48,-117.1"/>
</a>
</g>
<text text-anchor="middle" x="181.25" y="-95.25" font-family="Helvetica,sans-Serif" font-size="10.00" fill="grey"> mAnmTable</text>
</g>
<!-- Node6 -->
<g id="Node000006" class="node">
<title>Node6</title>
<g id="a_Node000006"><a xlink:href="structJ3DAnmKeyTableBase.html" target="_top" xlink:title=" ">
<polygon fill="white" stroke="#666666" points="243.12,-231 126.62,-231 126.62,-211.75 243.12,-211.75 243.12,-231"/>
<text text-anchor="middle" x="184.88" y="-217.5" font-family="Helvetica,sans-Serif" font-size="10.00">J3DAnmKeyTableBase</text>
</a>
</g>
</g>
<!-- Node6&#45;&gt;Node5 -->
<g id="edge5_Node000005_Node000006" class="edge">
<title>Node6&#45;&gt;Node5</title>
<g id="a_edge5_Node000005_Node000006"><a xlink:title=" ">
<path fill="none" stroke="#9a32cd" stroke-dasharray="5,2" d="M184.88,-200.01C184.88,-181.8 184.88,-155.97 184.88,-142.44"/>
<polygon fill="#9a32cd" stroke="#9a32cd" points="181.38,-199.88 184.88,-209.88 188.38,-199.88 181.38,-199.88"/>
</a>
</g>
<text text-anchor="middle" x="217.5" y="-184.25" font-family="Helvetica,sans-Serif" font-size="10.00" fill="grey"> mRotationInfo</text>
<text text-anchor="middle" x="217.5" y="-173" font-family="Helvetica,sans-Serif" font-size="10.00" fill="grey">mScaleInfo</text>
<text text-anchor="middle" x="217.5" y="-161.75" font-family="Helvetica,sans-Serif" font-size="10.00" fill="grey">mTranslateInfo</text>
</g>
</g>
</svg>
</svg>

<style type='text/css'>
<![CDATA[
[data-mouse-over-selected='false'] { opacity: 0.7; }
[data-mouse-over-selected='true']  { opacity: 1.0; }
]]>
</style>
<script type="application/ecmascript"><![CDATA[
document.addEventListener('DOMContentLoaded', (event) => {
  highlightEdges();
  highlightAdjacentNodes();
});
]]></script>
</svg>
