<?xml version="1.0" encoding="UTF-8" standalone="no"?>
<!DOCTYPE svg PUBLIC "-//W3C//DTD SVG 1.1//EN"
 "http://www.w3.org/Graphics/SVG/1.1/DTD/svg11.dtd">
<!-- Generated by graphviz version 9.0.0 (20230911.1827)
 -->
<!-- Title: JASVoiceBank Pages: 1 -->
<svg width="212pt" height="183pt"
 viewBox="0.00 0.00 211.50 182.75" xmlns="http://www.w3.org/2000/svg" xmlns:xlink="http://www.w3.org/1999/xlink">

<svg id="main" version="1.1" xmlns="http://www.w3.org/2000/svg" xmlns:xlink="http://www.w3.org/1999/xlink" xml:space="preserve" onload="init(evt)">
<style type="text/css"><![CDATA[
.node, .edge {opacity: 0.7;}
.node.selected, .edge.selected {opacity: 1;}
.edge:hover path { stroke: red; }
.edge:hover polygon { stroke: red; fill: red; }
]]></style>
<script type="application/ecmascript" xlink:href="svg.min.js"/>
<svg id="graph" class="graph">
<g id="graph0" class="graph" transform="scale(1 1) rotate(0) translate(4 178.75)">
<title>JASVoiceBank</title>
<!-- Node1 -->
<g id="Node000001" class="node">
<title>Node1</title>
<g id="a_Node000001"><a xlink:title=" ">
<polygon fill="#999999" stroke="#666666" points="134,-19.25 52,-19.25 52,0 134,0 134,-19.25"/>
<text text-anchor="middle" x="93" y="-5.75" font-family="Helvetica,sans-Serif" font-size="10.00">JASVoiceBank</text>
</a>
</g>
</g>
<!-- Node2 -->
<g id="Node000002" class="node">
<title>Node2</title>
<g id="a_Node000002"><a xlink:href="classJASBank.html" target="_top" xlink:title=" ">
<polygon fill="white" stroke="#666666" points="73.62,-97 16.38,-97 16.38,-77.75 73.62,-77.75 73.62,-97"/>
<text text-anchor="middle" x="45" y="-83.5" font-family="Helvetica,sans-Serif" font-size="10.00">JASBank</text>
</a>
</g>
</g>
<!-- Node2&#45;&gt;Node1 -->
<g id="edge1_Node000001_Node000002" class="edge">
<title>Node2&#45;&gt;Node1</title>
<g id="a_edge1_Node000001_Node000002"><a xlink:title=" ">
<path fill="none" stroke="#63b8ff" d="M56.71,-67.89C66.42,-52.56 79.81,-31.44 87.31,-19.6"/>
<polygon fill="#63b8ff" stroke="#63b8ff" points="53.9,-65.79 51.5,-76.11 59.81,-69.54 53.9,-65.79"/>
</a>
</g>
</g>
<!-- Node3 -->
<g id="Node000003" class="node">
<title>Node3</title>
<g id="a_Node000003"><a xlink:href="classJASWaveBank.html" target="_top" xlink:title=" ">
<polygon fill="white" stroke="#666666" points="82,-174.75 0,-174.75 0,-155.5 82,-155.5 82,-174.75"/>
<text text-anchor="middle" x="41" y="-161.25" font-family="Helvetica,sans-Serif" font-size="10.00">JASWaveBank</text>
</a>
</g>
</g>
<!-- Node3&#45;&gt;Node2 -->
<g id="edge2_Node000002_Node000003" class="edge">
<title>Node3&#45;&gt;Node2</title>
<g id="a_edge2_Node000002_Node000003"><a xlink:title=" ">
<path fill="none" stroke="#9a32cd" stroke-dasharray="5,2" d="M42.07,-143.85C42.87,-128.7 43.92,-108.73 44.53,-97.35"/>
<polygon fill="#9a32cd" stroke="#9a32cd" points="38.59,-143.46 41.55,-153.63 45.58,-143.83 38.59,-143.46"/>
</a>
</g>
<text text-anchor="middle" x="72.88" y="-122.38" font-family="Helvetica,sans-Serif" font-size="10.00" fill="grey"> mWaveBank</text>
</g>
<!-- Node4 -->
<g id="Node000004" class="node">
<title>Node4</title>
<g id="a_Node000004"><a xlink:href="structJASOscillator_1_1Data.html" target="_top" xlink:title=" ">
<polygon fill="white" stroke="#666666" points="199.38,-97 98.62,-97 98.62,-77.75 199.38,-77.75 199.38,-97"/>
<text text-anchor="middle" x="149" y="-83.5" font-family="Helvetica,sans-Serif" font-size="10.00">JASOscillator::Data</text>
</a>
</g>
</g>
<!-- Node4&#45;&gt;Node1 -->
<g id="edge3_Node000001_Node000004" class="edge">
<title>Node4&#45;&gt;Node1</title>
<g id="a_edge3_Node000001_Node000004"><a xlink:title=" ">
<path fill="none" stroke="#9a32cd" stroke-dasharray="5,2" d="M135.66,-68.33C124.31,-52.97 108.47,-31.55 99.64,-19.6"/>
<polygon fill="#9a32cd" stroke="#9a32cd" points="132.7,-70.21 141.46,-76.17 138.33,-66.05 132.7,-70.21"/>
</a>
</g>
<text text-anchor="middle" x="153.62" y="-50.25" font-family="Helvetica,sans-Serif" font-size="10.00" fill="grey"> sOscData</text>
<text text-anchor="middle" x="153.62" y="-39" font-family="Helvetica,sans-Serif" font-size="10.00" fill="grey">sOscTable</text>
</g>
<!-- Node5 -->
<g id="Node000005" class="node">
<title>Node5</title>
<g id="a_Node000005"><a xlink:href="structJASOscillator_1_1Point.html" target="_top" xlink:title=" ">
<polygon fill="white" stroke="#666666" points="203.5,-174.75 100.5,-174.75 100.5,-155.5 203.5,-155.5 203.5,-174.75"/>
<text text-anchor="middle" x="152" y="-161.25" font-family="Helvetica,sans-Serif" font-size="10.00">JASOscillator::Point</text>
</a>
</g>
</g>
<!-- Node5&#45;&gt;Node4 -->
<g id="edge4_Node000004_Node000005" class="edge">
<title>Node5&#45;&gt;Node4</title>
<g id="a_edge4_Node000004_Node000005"><a xlink:title=" ">
<path fill="none" stroke="#9a32cd" stroke-dasharray="5,2" d="M151.2,-143.85C150.6,-128.7 149.81,-108.73 149.36,-97.35"/>
<polygon fill="#9a32cd" stroke="#9a32cd" points="147.69,-143.77 151.58,-153.63 154.69,-143.49 147.69,-143.77"/>
</a>
</g>
<text text-anchor="middle" x="167.12" y="-128" font-family="Helvetica,sans-Serif" font-size="10.00" fill="grey"> _0C</text>
<text text-anchor="middle" x="167.12" y="-116.75" font-family="Helvetica,sans-Serif" font-size="10.00" fill="grey">mTable</text>
</g>
</g>
</svg>
</svg>

<style type='text/css'>
<![CDATA[
[data-mouse-over-selected='false'] { opacity: 0.7; }
[data-mouse-over-selected='true']  { opacity: 1.0; }
]]>
</style>
<script type="application/ecmascript"><![CDATA[
document.addEventListener('DOMContentLoaded', (event) => {
  highlightEdges();
  highlightAdjacentNodes();
});
]]></script>
</svg>
