<?xml version="1.0" encoding="UTF-8" standalone="no"?>
<!DOCTYPE svg PUBLIC "-//W3C//DTD SVG 1.1//EN"
 "http://www.w3.org/Graphics/SVG/1.1/DTD/svg11.dtd">
<!-- Generated by graphviz version 9.0.0 (20230911.1827)
 -->
<!-- Title: J2DPictureEx Pages: 1 -->
<svg width="1314pt" height="639pt"
 viewBox="0.00 0.00 1313.75 638.75" xmlns="http://www.w3.org/2000/svg" xmlns:xlink="http://www.w3.org/1999/xlink">
<g id="graph0" class="graph" transform="scale(1 1) rotate(0) translate(4 634.75)">
<title>J2DPictureEx</title>
<!-- Node1 -->
<g id="Node000001" class="node">
<title>Node1</title>
<g id="a_Node000001"><a xlink:title=" ">
<polygon fill="#999999" stroke="#666666" points="1305.75,-209.25 1231.25,-209.25 1231.25,-190 1305.75,-190 1305.75,-209.25"/>
<text text-anchor="middle" x="1268.5" y="-195.75" font-family="Helvetica,sans-Serif" font-size="10.00">J2DPictureEx</text>
</a>
</g>
</g>
<!-- Node2 -->
<g id="Node000002" class="node">
<title>Node2</title>
<g id="a_Node000002"><a xlink:href="classJ2DPicture.html" target="_top" xlink:title=" ">
<polygon fill="white" stroke="#666666" points="1148.38,-326.25 1084.38,-326.25 1084.38,-307 1148.38,-307 1148.38,-326.25"/>
<text text-anchor="middle" x="1116.38" y="-312.75" font-family="Helvetica,sans-Serif" font-size="10.00">J2DPicture</text>
</a>
</g>
</g>
<!-- Node2&#45;&gt;Node1 -->
<g id="edge1_Node000001_Node000002" class="edge">
<title>Node2&#45;&gt;Node1</title>
<g id="a_edge1_Node000001_Node000002"><a xlink:title=" ">
<path fill="none" stroke="#63b8ff" d="M1139.13,-299.67C1170.91,-274.9 1229.06,-229.59 1254.73,-209.58"/>
<polygon fill="#63b8ff" stroke="#63b8ff" points="1137.1,-296.81 1131.37,-305.72 1141.41,-302.33 1137.1,-296.81"/>
</a>
</g>
</g>
<!-- Node3 -->
<g id="Node000003" class="node">
<title>Node3</title>
<g id="a_Node000003"><a xlink:href="classJ2DPane.html" target="_top" xlink:title=" ">
<polygon fill="white" stroke="#666666" points="941.12,-504.25 885.38,-504.25 885.38,-485 941.12,-485 941.12,-504.25"/>
<text text-anchor="middle" x="913.25" y="-490.75" font-family="Helvetica,sans-Serif" font-size="10.00">J2DPane</text>
</a>
</g>
</g>
<!-- Node3&#45;&gt;Node2 -->
<g id="edge2_Node000002_Node000003" class="edge">
<title>Node3&#45;&gt;Node2</title>
<g id="a_edge2_Node000002_Node000003"><a xlink:title=" ">
<path fill="none" stroke="#63b8ff" d="M952.17,-485.42C985.69,-475.52 1033.88,-456.69 1064.5,-424.62 1092.7,-395.1 1107.62,-347.06 1113.01,-326.48"/>
<polygon fill="#63b8ff" stroke="#63b8ff" points="951.55,-481.96 942.87,-488.04 953.44,-488.7 951.55,-481.96"/>
</a>
</g>
</g>
<!-- Node4 -->
<g id="Node000004" class="node">
<title>Node4</title>
<g id="a_Node000004"><a xlink:href="structJGeometry_1_1TBox2.html" target="_top" xlink:title=" ">
<polygon fill="white" stroke="#666666" points="689,-499.25 563.5,-499.25 563.5,-480 689,-480 689,-499.25"/>
<text text-anchor="middle" x="626.25" y="-485.75" font-family="Helvetica,sans-Serif" font-size="10.00">JGeometry::TBox2&lt; f32 &gt;</text>
</a>
</g>
</g>
<!-- Node4&#45;&gt;Node3 -->
<g id="edge3_Node000003_Node000004" class="edge">
<title>Node4&#45;&gt;Node3</title>
<g id="a_edge3_Node000003_Node000004"><a xlink:title=" ">
<path fill="none" stroke="#9a32cd" stroke-dasharray="5,2" d="M700.43,-489.2C739.23,-489.17 787.71,-489.45 831,-490.62 849.07,-491.11 869.38,-492.11 885.18,-492.99"/>
<polygon fill="#9a32cd" stroke="#9a32cd" points="700.74,-485.7 690.75,-489.22 700.75,-492.7 700.74,-485.7"/>
</a>
</g>
<text text-anchor="middle" x="769" y="-526.12" font-family="Helvetica,sans-Serif" font-size="10.00" fill="grey"> mBounds</text>
<text text-anchor="middle" x="769" y="-514.88" font-family="Helvetica,sans-Serif" font-size="10.00" fill="grey">mClipRect</text>
<text text-anchor="middle" x="769" y="-503.62" font-family="Helvetica,sans-Serif" font-size="10.00" fill="grey">mGlobalBounds</text>
<text text-anchor="middle" x="769" y="-492.38" font-family="Helvetica,sans-Serif" font-size="10.00" fill="grey">static_mBounds</text>
</g>
<!-- Node5 -->
<g id="Node000005" class="node">
<title>Node5</title>
<g id="a_Node000005"><a xlink:href="structJGeometry_1_1TBox.html" target="_top" xlink:title=" ">
<polygon fill="white" stroke="#666666" points="459.25,-499.25 346.5,-499.25 346.5,-480 459.25,-480 459.25,-499.25"/>
<text text-anchor="middle" x="402.88" y="-485.75" font-family="Helvetica,sans-Serif" font-size="10.00">JGeometry::TBox&lt; T &gt;</text>
</a>
</g>
</g>
<!-- Node5&#45;&gt;Node4 -->
<g id="edge4_Node000004_Node000005" class="edge">
<title>Node5&#45;&gt;Node4</title>
<g id="a_edge4_Node000004_Node000005"><a xlink:title=" ">
<path fill="none" stroke="#63b8ff" d="M471.12,-489.62C500.39,-489.62 534.49,-489.62 563.16,-489.62"/>
<polygon fill="#63b8ff" stroke="#63b8ff" points="471.25,-486.13 461.25,-489.63 471.25,-493.13 471.25,-486.13"/>
</a>
</g>
</g>
<!-- Node6 -->
<g id="Node000006" class="node">
<title>Node6</title>
<g id="a_Node000006"><a xlink:href="classJSUTree.html" target="_top" xlink:title=" ">
<polygon fill="white" stroke="#666666" points="681.88,-567.25 570.62,-567.25 570.62,-548 681.88,-548 681.88,-567.25"/>
<text text-anchor="middle" x="626.25" y="-553.75" font-family="Helvetica,sans-Serif" font-size="10.00">JSUTree&lt; J2DPane &gt;</text>
</a>
</g>
</g>
<!-- Node6&#45;&gt;Node3 -->
<g id="edge5_Node000003_Node000006" class="edge">
<title>Node6&#45;&gt;Node3</title>
<g id="a_edge5_Node000003_Node000006"><a xlink:title=" ">
<path fill="none" stroke="#9a32cd" stroke-dasharray="5,2" d="M693.68,-556.46C734.09,-554.28 786.34,-548.83 831,-535.62 855.24,-528.46 880.92,-514.23 896.77,-504.57"/>
<polygon fill="#9a32cd" stroke="#9a32cd" points="693.68,-552.95 683.86,-556.93 694.01,-559.95 693.68,-552.95"/>
</a>
</g>
<text text-anchor="middle" x="769" y="-556.38" font-family="Helvetica,sans-Serif" font-size="10.00" fill="grey"> mPaneTree</text>
</g>
<!-- Node7 -->
<g id="Node000007" class="node">
<title>Node7</title>
<g id="a_Node000007"><a xlink:href="classJSUList.html" target="_top" xlink:title=" ">
<polygon fill="white" stroke="#666666" points="328.5,-552.25 254,-552.25 254,-533 328.5,-533 328.5,-552.25"/>
<text text-anchor="middle" x="291.25" y="-538.75" font-family="Helvetica,sans-Serif" font-size="10.00">JSUList&lt; T &gt;</text>
</a>
</g>
</g>
<!-- Node7&#45;&gt;Node6 -->
<g id="edge6_Node000006_Node000007" class="edge">
<title>Node7&#45;&gt;Node6</title>
<g id="a_edge6_Node000006_Node000007"><a xlink:title=" ">
<path fill="none" stroke="#63b8ff" d="M340.05,-544.78C401.03,-547.53 506.25,-552.26 570.41,-555.15"/>
<polygon fill="#63b8ff" stroke="#63b8ff" points="340.5,-541.29 330.35,-544.34 340.18,-548.29 340.5,-541.29"/>
</a>
</g>
</g>
<!-- Node8 -->
<g id="Node000008" class="node">
<title>Node8</title>
<g id="a_Node000008"><a xlink:href="classJSUPtrList.html" target="_top" xlink:title=" ">
<polygon fill="white" stroke="#666666" points="64.75,-585.25 0,-585.25 0,-566 64.75,-566 64.75,-585.25"/>
<text text-anchor="middle" x="32.38" y="-571.75" font-family="Helvetica,sans-Serif" font-size="10.00">JSUPtrList</text>
</a>
</g>
</g>
<!-- Node8&#45;&gt;Node7 -->
<g id="edge7_Node000007_Node000008" class="edge">
<title>Node8&#45;&gt;Node7</title>
<g id="a_edge7_Node000007_Node000008"><a xlink:title=" ">
<path fill="none" stroke="#63b8ff" d="M76.52,-569.5C94.45,-566.99 115.47,-564.1 134.5,-561.62 175.29,-556.31 222.15,-550.66 253.72,-546.91"/>
<polygon fill="#63b8ff" stroke="#63b8ff" points="76.15,-566.01 66.74,-570.87 77.13,-572.94 76.15,-566.01"/>
</a>
</g>
</g>
<!-- Node9 -->
<g id="Node000009" class="node">
<title>Node9</title>
<g id="a_Node000009"><a xlink:href="classJSUPtrLink.html" target="_top" xlink:title=" ">
<polygon fill="white" stroke="#666666" points="218.75,-590.25 151.75,-590.25 151.75,-571 218.75,-571 218.75,-590.25"/>
<text text-anchor="middle" x="185.25" y="-576.75" font-family="Helvetica,sans-Serif" font-size="10.00">JSUPtrLink</text>
</a>
</g>
</g>
<!-- Node8&#45;&gt;Node9 -->
<g id="edge9_Node000009_Node000008" class="edge">
<title>Node8&#45;&gt;Node9</title>
<g id="a_edge9_Node000009_Node000008"><a xlink:title=" ">
<path fill="none" stroke="#9a32cd" stroke-dasharray="5,2" d="M59.21,-590.89C66.57,-594.47 74.76,-597.79 82.75,-599.62 109.13,-605.7 139.7,-598 160.35,-590.66"/>
<polygon fill="#9a32cd" stroke="#9a32cd" points="60.96,-587.85 50.48,-586.28 57.69,-594.04 60.96,-587.85"/>
</a>
</g>
<text text-anchor="middle" x="99.62" y="-603.38" font-family="Helvetica,sans-Serif" font-size="10.00" fill="grey"> mList</text>
</g>
<!-- Node9&#45;&gt;Node8 -->
<g id="edge8_Node000008_Node000009" class="edge">
<title>Node9&#45;&gt;Node8</title>
<g id="a_edge8_Node000008_Node000009"><a xlink:title=" ">
<path fill="none" stroke="#9a32cd" stroke-dasharray="5,2" d="M140.22,-578.14C132.33,-577.75 124.17,-577.39 116.5,-577.12 99.48,-576.53 80.49,-576.17 64.96,-575.95"/>
<polygon fill="#9a32cd" stroke="#9a32cd" points="139.85,-581.62 150.01,-578.63 140.2,-574.63 139.85,-581.62"/>
</a>
</g>
<text text-anchor="middle" x="99.62" y="-589.62" font-family="Helvetica,sans-Serif" font-size="10.00" fill="grey"> mHead</text>
<text text-anchor="middle" x="99.62" y="-578.38" font-family="Helvetica,sans-Serif" font-size="10.00" fill="grey">mTail</text>
</g>
<!-- Node9&#45;&gt;Node9 -->
<g id="edge10_Node000009_Node000009" class="edge">
<title>Node9&#45;&gt;Node9</title>
<g id="a_edge10_Node000009_Node000009"><a xlink:title=" ">
<path fill="none" stroke="#9a32cd" stroke-dasharray="5,2" d="M170.05,-601.65C171.95,-605.53 177.02,-608.25 185.25,-608.25 200.3,-608.25 204.77,-599.15 198.66,-590.54"/>
<polygon fill="#9a32cd" stroke="#9a32cd" points="173.47,-602.46 171.6,-592.03 166.56,-601.35 173.47,-602.46"/>
</a>
</g>
<text text-anchor="middle" x="185.25" y="-621.25" font-family="Helvetica,sans-Serif" font-size="10.00" fill="grey"> mNext</text>
<text text-anchor="middle" x="185.25" y="-610" font-family="Helvetica,sans-Serif" font-size="10.00" fill="grey">mPrev</text>
</g>
<!-- Node10 -->
<g id="Node000010" class="node">
<title>Node10</title>
<g id="a_Node000010"><a xlink:href="classJSULink.html" target="_top" xlink:title=" ">
<polygon fill="white" stroke="#666666" points="441.25,-590.25 364.5,-590.25 364.5,-571 441.25,-571 441.25,-590.25"/>
<text text-anchor="middle" x="402.88" y="-576.75" font-family="Helvetica,sans-Serif" font-size="10.00">JSULink&lt; T &gt;</text>
</a>
</g>
</g>
<!-- Node9&#45;&gt;Node10 -->
<g id="edge12_Node000010_Node000009" class="edge">
<title>Node9&#45;&gt;Node10</title>
<g id="a_edge12_Node000010_Node000009"><a xlink:title=" ">
<path fill="none" stroke="#63b8ff" d="M230.36,-580.62C269.73,-580.62 326.77,-580.62 364.09,-580.62"/>
<polygon fill="#63b8ff" stroke="#63b8ff" points="230.51,-577.13 220.51,-580.63 230.51,-584.13 230.51,-577.13"/>
</a>
</g>
</g>
<!-- Node10&#45;&gt;Node6 -->
<g id="edge11_Node000006_Node000010" class="edge">
<title>Node10&#45;&gt;Node6</title>
<g id="a_edge11_Node000006_Node000010"><a xlink:title=" ">
<path fill="none" stroke="#63b8ff" d="M452.96,-575.53C487.66,-571.92 534.2,-567.08 570.17,-563.35"/>
<polygon fill="#63b8ff" stroke="#63b8ff" points="452.77,-572.03 443.18,-576.54 453.49,-578.99 452.77,-572.03"/>
</a>
</g>
</g>
<!-- Node11 -->
<g id="Node000011" class="node">
<title>Node11</title>
<g id="a_Node000011"><a xlink:href="classJ2DAnmTransform.html" target="_top" xlink:title=" ">
<polygon fill="white" stroke="#666666" points="675.12,-457.25 577.38,-457.25 577.38,-438 675.12,-438 675.12,-457.25"/>
<text text-anchor="middle" x="626.25" y="-443.75" font-family="Helvetica,sans-Serif" font-size="10.00">J2DAnmTransform</text>
</a>
</g>
</g>
<!-- Node11&#45;&gt;Node3 -->
<g id="edge13_Node000003_Node000011" class="edge">
<title>Node11&#45;&gt;Node3</title>
<g id="a_edge13_Node000003_Node000011"><a xlink:title=" ">
<path fill="none" stroke="#9a32cd" stroke-dasharray="5,2" d="M686.66,-453.07C727.47,-457.32 782.78,-464.06 831,-473.38 849.18,-476.89 869.32,-482.14 885,-486.55"/>
<polygon fill="#9a32cd" stroke="#9a32cd" points="687.09,-449.6 676.79,-452.07 686.38,-456.56 687.09,-449.6"/>
</a>
</g>
<text text-anchor="middle" x="769" y="-474.38" font-family="Helvetica,sans-Serif" font-size="10.00" fill="grey"> mTransform</text>
</g>
<!-- Node12 -->
<g id="Node000012" class="node">
<title>Node12</title>
<g id="a_Node000012"><a xlink:href="structJ2DAnmBase.html" target="_top" xlink:title=" ">
<polygon fill="white" stroke="#666666" points="440.88,-381.25 364.88,-381.25 364.88,-362 440.88,-362 440.88,-381.25"/>
<text text-anchor="middle" x="402.88" y="-367.75" font-family="Helvetica,sans-Serif" font-size="10.00">J2DAnmBase</text>
</a>
</g>
</g>
<!-- Node12&#45;&gt;Node11 -->
<g id="edge14_Node000011_Node000012" class="edge">
<title>Node12&#45;&gt;Node11</title>
<g id="a_edge14_Node000011_Node000012"><a xlink:title=" ">
<path fill="none" stroke="#63b8ff" d="M444.12,-385.44C488,-400.51 557.14,-424.24 596.08,-437.61"/>
<polygon fill="#63b8ff" stroke="#63b8ff" points="445.3,-382.15 434.7,-382.21 443.03,-388.77 445.3,-382.15"/>
</a>
</g>
</g>
<!-- Node38 -->
<g id="Node000038" class="node">
<title>Node38</title>
<g id="a_Node000038"><a xlink:href="structJ2DMaterial_1_1J2DMaterialAnmPointer.html" target="_top" xlink:title=" ">
<polygon fill="white" stroke="#666666" points="831,-327.88 707,-327.88 707,-297.38 831,-297.38 831,-327.88"/>
<text text-anchor="start" x="715" y="-314.38" font-family="Helvetica,sans-Serif" font-size="10.00">J2DMaterial::J2DMaterial</text>
<text text-anchor="middle" x="769" y="-303.12" font-family="Helvetica,sans-Serif" font-size="10.00">AnmPointer</text>
</a>
</g>
</g>
<!-- Node12&#45;&gt;Node38 -->
<g id="edge43_Node000038_Node000012" class="edge">
<title>Node12&#45;&gt;Node38</title>
<g id="a_edge43_Node000038_Node000012"><a xlink:title=" ">
<path fill="none" stroke="#9a32cd" stroke-dasharray="5,2" d="M442.47,-358.12C453.59,-354.62 465.81,-351.13 477.25,-348.62 555.51,-331.51 647.53,-321.83 706.75,-316.91"/>
<polygon fill="#9a32cd" stroke="#9a32cd" points="441.65,-354.71 433.22,-361.13 443.82,-361.36 441.65,-354.71"/>
</a>
</g>
<text text-anchor="middle" x="511.38" y="-384.12" font-family="Helvetica,sans-Serif" font-size="10.00" fill="grey"> field_0x0</text>
<text text-anchor="middle" x="511.38" y="-372.88" font-family="Helvetica,sans-Serif" font-size="10.00" fill="grey">field_0x4</text>
<text text-anchor="middle" x="511.38" y="-361.62" font-family="Helvetica,sans-Serif" font-size="10.00" fill="grey">field_0x8</text>
<text text-anchor="middle" x="511.38" y="-350.38" font-family="Helvetica,sans-Serif" font-size="10.00" fill="grey">field_0xc</text>
</g>
<!-- Node13 -->
<g id="Node000013" class="node">
<title>Node13</title>
<g id="a_Node000013"><a xlink:href="classJUTTexture.html" target="_top" xlink:title=" ">
<polygon fill="white" stroke="#666666" points="946.75,-252.25 879.75,-252.25 879.75,-233 946.75,-233 946.75,-252.25"/>
<text text-anchor="middle" x="913.25" y="-238.75" font-family="Helvetica,sans-Serif" font-size="10.00">JUTTexture</text>
</a>
</g>
</g>
<!-- Node13&#45;&gt;Node2 -->
<g id="edge15_Node000002_Node000013" class="edge">
<title>Node13&#45;&gt;Node2</title>
<g id="a_edge15_Node000002_Node000013"><a xlink:title=" ">
<path fill="none" stroke="#9a32cd" stroke-dasharray="5,2" d="M958.32,-243.93C989.42,-246.37 1031.28,-252.82 1064.5,-269.38 1082.41,-278.3 1098.48,-295.52 1107.57,-306.52"/>
<polygon fill="#9a32cd" stroke="#9a32cd" points="958.7,-240.45 948.49,-243.28 958.23,-247.43 958.7,-240.45"/>
</a>
</g>
<text text-anchor="middle" x="1030" y="-270.38" font-family="Helvetica,sans-Serif" font-size="10.00" fill="grey"> mTexture</text>
</g>
<!-- Node14 -->
<g id="Node000014" class="node">
<title>Node14</title>
<g id="a_Node000014"><a xlink:href="struct__GXTexObj.html" target="_top" xlink:title=" ">
<polygon fill="white" stroke="#666666" points="659.38,-290.25 593.12,-290.25 593.12,-271 659.38,-271 659.38,-290.25"/>
<text text-anchor="middle" x="626.25" y="-276.75" font-family="Helvetica,sans-Serif" font-size="10.00">_GXTexObj</text>
</a>
</g>
</g>
<!-- Node14&#45;&gt;Node13 -->
<g id="edge16_Node000013_Node000014" class="edge">
<title>Node14&#45;&gt;Node13</title>
<g id="a_edge16_Node000013_Node000014"><a xlink:title=" ">
<path fill="none" stroke="#9a32cd" stroke-dasharray="5,2" d="M671.11,-276.57C712.45,-272.54 776.08,-265.78 831,-257.62 847.03,-255.24 864.74,-252.04 879.52,-249.21"/>
<polygon fill="#9a32cd" stroke="#9a32cd" points="670.93,-273.07 661.31,-277.52 671.6,-280.04 670.93,-273.07"/>
</a>
</g>
<text text-anchor="middle" x="769" y="-273.38" font-family="Helvetica,sans-Serif" font-size="10.00" fill="grey"> mTexObj</text>
</g>
<!-- Node15 -->
<g id="Node000015" class="node">
<title>Node15</title>
<g id="a_Node000015"><a xlink:href="structResTIMG.html" target="_top" xlink:title="Image data header.">
<polygon fill="white" stroke="#666666" points="655.25,-253.25 597.25,-253.25 597.25,-234 655.25,-234 655.25,-253.25"/>
<text text-anchor="middle" x="626.25" y="-239.75" font-family="Helvetica,sans-Serif" font-size="10.00">ResTIMG</text>
</a>
</g>
</g>
<!-- Node15&#45;&gt;Node13 -->
<g id="edge17_Node000013_Node000015" class="edge">
<title>Node15&#45;&gt;Node13</title>
<g id="a_edge17_Node000013_Node000015"><a xlink:title=" ">
<path fill="none" stroke="#9a32cd" stroke-dasharray="5,2" d="M667,-243.49C723.79,-243.29 827.09,-242.92 879.65,-242.74"/>
<polygon fill="#9a32cd" stroke="#9a32cd" points="667.12,-239.98 657.13,-243.52 667.14,-246.98 667.12,-239.98"/>
</a>
</g>
<text text-anchor="middle" x="769" y="-244.38" font-family="Helvetica,sans-Serif" font-size="10.00" fill="grey"> mTexInfo</text>
</g>
<!-- Node16 -->
<g id="Node000016" class="node">
<title>Node16</title>
<g id="a_Node000016"><a xlink:href="classJUTPalette.html" target="_top" xlink:title=" ">
<polygon fill="white" stroke="#666666" points="659,-193.25 593.5,-193.25 593.5,-174 659,-174 659,-193.25"/>
<text text-anchor="middle" x="626.25" y="-179.75" font-family="Helvetica,sans-Serif" font-size="10.00">JUTPalette</text>
</a>
</g>
</g>
<!-- Node16&#45;&gt;Node2 -->
<g id="edge22_Node000002_Node000016" class="edge">
<title>Node16&#45;&gt;Node2</title>
<g id="a_edge22_Node000002_Node000016"><a xlink:title=" ">
<path fill="none" stroke="#9a32cd" stroke-dasharray="5,2" d="M670.59,-182.44C737.56,-181.66 869.72,-184.33 977.5,-212.38 1017.41,-222.76 1031.8,-219.49 1064.5,-244.62 1086.71,-261.69 1103.16,-291.15 1110.74,-306.56"/>
<polygon fill="#9a32cd" stroke="#9a32cd" points="670.71,-178.94 660.77,-182.59 670.82,-185.94 670.71,-178.94"/>
</a>
</g>
<text text-anchor="middle" x="913.25" y="-213.38" font-family="Helvetica,sans-Serif" font-size="10.00" fill="grey"> mPalette</text>
</g>
<!-- Node16&#45;&gt;Node13 -->
<g id="edge18_Node000013_Node000016" class="edge">
<title>Node16&#45;&gt;Node13</title>
<g id="a_edge18_Node000013_Node000016"><a xlink:title=" ">
<path fill="none" stroke="#9a32cd" stroke-dasharray="5,2" d="M670.66,-188.54C712.18,-193.71 776.37,-202.95 831,-216.12 849.32,-220.54 869.46,-227.1 885.1,-232.59"/>
<polygon fill="#9a32cd" stroke="#9a32cd" points="671.17,-185.08 660.82,-187.34 670.32,-192.03 671.17,-185.08"/>
</a>
</g>
<text text-anchor="middle" x="769" y="-228.62" font-family="Helvetica,sans-Serif" font-size="10.00" fill="grey"> field_0x2c</text>
<text text-anchor="middle" x="769" y="-217.38" font-family="Helvetica,sans-Serif" font-size="10.00" fill="grey">mEmbPalette</text>
</g>
<!-- Node17 -->
<g id="Node000017" class="node">
<title>Node17</title>
<g id="a_Node000017"><a xlink:href="struct__GXTlutObj.html" target="_top" xlink:title=" ">
<polygon fill="white" stroke="#666666" points="436.38,-211.25 369.38,-211.25 369.38,-192 436.38,-192 436.38,-211.25"/>
<text text-anchor="middle" x="402.88" y="-197.75" font-family="Helvetica,sans-Serif" font-size="10.00">_GXTlutObj</text>
</a>
</g>
</g>
<!-- Node17&#45;&gt;Node16 -->
<g id="edge19_Node000016_Node000017" class="edge">
<title>Node17&#45;&gt;Node16</title>
<g id="a_edge19_Node000016_Node000017"><a xlink:title=" ">
<path fill="none" stroke="#9a32cd" stroke-dasharray="5,2" d="M447.76,-198.06C490.63,-194.57 554.87,-189.35 593.17,-186.23"/>
<polygon fill="#9a32cd" stroke="#9a32cd" points="447.73,-194.55 438.05,-198.85 448.3,-201.52 447.73,-194.55"/>
</a>
</g>
<text text-anchor="middle" x="511.38" y="-196.38" font-family="Helvetica,sans-Serif" font-size="10.00" fill="grey"> mTlutObj</text>
</g>
<!-- Node18 -->
<g id="Node000018" class="node">
<title>Node18</title>
<g id="a_Node000018"><a xlink:href="structResTLUT.html" target="_top" xlink:title=" ">
<polygon fill="white" stroke="#666666" points="432.25,-174.25 373.5,-174.25 373.5,-155 432.25,-155 432.25,-174.25"/>
<text text-anchor="middle" x="402.88" y="-160.75" font-family="Helvetica,sans-Serif" font-size="10.00">ResTLUT</text>
</a>
</g>
</g>
<!-- Node18&#45;&gt;Node16 -->
<g id="edge20_Node000016_Node000018" class="edge">
<title>Node18&#45;&gt;Node16</title>
<g id="a_edge20_Node000016_Node000018"><a xlink:title=" ">
<path fill="none" stroke="#9a32cd" stroke-dasharray="5,2" d="M444.13,-166.89C472.5,-168.62 511.36,-171.22 545.5,-174.38 561.18,-175.82 578.56,-177.8 593.08,-179.55"/>
<polygon fill="#9a32cd" stroke="#9a32cd" points="444.36,-163.4 434.17,-166.3 443.94,-170.39 444.36,-163.4"/>
</a>
</g>
<text text-anchor="middle" x="511.38" y="-175.38" font-family="Helvetica,sans-Serif" font-size="10.00" fill="grey"> mColorTable</text>
</g>
<!-- Node19 -->
<g id="Node000019" class="node">
<title>Node19</title>
<g id="a_Node000019"><a xlink:href="structJGeometry_1_1TVec2.html" target="_top" xlink:title=" ">
<polygon fill="white" stroke="#666666" points="977.5,-374.25 849,-374.25 849,-355 977.5,-355 977.5,-374.25"/>
<text text-anchor="middle" x="913.25" y="-360.75" font-family="Helvetica,sans-Serif" font-size="10.00">JGeometry::TVec2&lt; s16 &gt;</text>
</a>
</g>
</g>
<!-- Node19&#45;&gt;Node2 -->
<g id="edge21_Node000002_Node000019" class="edge">
<title>Node19&#45;&gt;Node2</title>
<g id="a_edge21_Node000002_Node000019"><a xlink:title=" ">
<path fill="none" stroke="#9a32cd" stroke-dasharray="5,2" d="M967.56,-351.9C1004.72,-343.03 1053.02,-331.51 1084.12,-324.08"/>
<polygon fill="#9a32cd" stroke="#9a32cd" points="966.8,-348.49 957.88,-354.21 968.42,-355.29 966.8,-348.49"/>
</a>
</g>
<text text-anchor="middle" x="1030" y="-346.38" font-family="Helvetica,sans-Serif" font-size="10.00" fill="grey"> field_0x10a</text>
</g>
<!-- Node20 -->
<g id="Node000020" class="node">
<title>Node20</title>
<g id="a_Node000020"><a xlink:href="structJUtility_1_1TColor.html" target="_top" xlink:title=" ">
<polygon fill="white" stroke="#666666" points="665.75,-403.25 586.75,-403.25 586.75,-384 665.75,-384 665.75,-403.25"/>
<text text-anchor="middle" x="626.25" y="-389.75" font-family="Helvetica,sans-Serif" font-size="10.00">JUtility::TColor</text>
</a>
</g>
</g>
<!-- Node20&#45;&gt;Node2 -->
<g id="edge23_Node000002_Node000020" class="edge">
<title>Node20&#45;&gt;Node2</title>
<g id="a_edge23_Node000002_Node000020"><a xlink:title=" ">
<path fill="none" stroke="#9a32cd" stroke-dasharray="5,2" d="M677.27,-396.87C745.67,-400.25 871.96,-402.7 977.5,-383.62 1016.97,-376.49 1029.02,-378.34 1064.5,-359.62 1080.87,-350.99 1096.65,-336.35 1106.18,-326.59"/>
<polygon fill="#9a32cd" stroke="#9a32cd" points="677.67,-393.38 667.5,-396.36 677.31,-400.37 677.67,-393.38"/>
</a>
</g>
<text text-anchor="middle" x="913.25" y="-443.38" font-family="Helvetica,sans-Serif" font-size="10.00" fill="grey"> mBlack</text>
<text text-anchor="middle" x="913.25" y="-432.12" font-family="Helvetica,sans-Serif" font-size="10.00" fill="grey">mBlendKonstAlpha</text>
<text text-anchor="middle" x="913.25" y="-420.88" font-family="Helvetica,sans-Serif" font-size="10.00" fill="grey">mBlendKonstColor</text>
<text text-anchor="middle" x="913.25" y="-409.62" font-family="Helvetica,sans-Serif" font-size="10.00" fill="grey">mCornerColor</text>
<text text-anchor="middle" x="913.25" y="-398.38" font-family="Helvetica,sans-Serif" font-size="10.00" fill="grey">mWhite</text>
</g>
<!-- Node23 -->
<g id="Node000023" class="node">
<title>Node23</title>
<g id="a_Node000023"><a xlink:href="classJ2DColorBlock.html" target="_top" xlink:title=" ">
<polygon fill="white" stroke="#666666" points="953.5,-337.25 873,-337.25 873,-318 953.5,-318 953.5,-337.25"/>
<text text-anchor="middle" x="913.25" y="-323.75" font-family="Helvetica,sans-Serif" font-size="10.00">J2DColorBlock</text>
</a>
</g>
</g>
<!-- Node20&#45;&gt;Node23 -->
<g id="edge27_Node000023_Node000020" class="edge">
<title>Node20&#45;&gt;Node23</title>
<g id="a_edge27_Node000023_Node000020"><a xlink:title=" ">
<path fill="none" stroke="#9a32cd" stroke-dasharray="5,2" d="M677.28,-387.6C733.1,-380.62 817.42,-369.25 831,-362.62 840.89,-357.8 839.43,-351.06 849,-345.62 856.24,-341.51 864.5,-338.27 872.6,-335.75"/>
<polygon fill="#9a32cd" stroke="#9a32cd" points="677.17,-384.08 667.68,-388.79 678.03,-391.03 677.17,-384.08"/>
</a>
</g>
<text text-anchor="middle" x="769" y="-384.38" font-family="Helvetica,sans-Serif" font-size="10.00" fill="grey"> mMatColor</text>
</g>
<!-- Node21 -->
<g id="Node000021" class="node">
<title>Node21</title>
<g id="a_Node000021"><a xlink:href="struct__GXColor.html" target="_top" xlink:title=" ">
<polygon fill="white" stroke="#666666" points="429.25,-295.25 376.5,-295.25 376.5,-276 429.25,-276 429.25,-295.25"/>
<text text-anchor="middle" x="402.88" y="-281.75" font-family="Helvetica,sans-Serif" font-size="10.00">GXColor</text>
</a>
</g>
</g>
<!-- Node21&#45;&gt;Node20 -->
<g id="edge24_Node000020_Node000021" class="edge">
<title>Node21&#45;&gt;Node20</title>
<g id="a_edge24_Node000020_Node000021"><a xlink:title=" ">
<path fill="none" stroke="#63b8ff" d="M440.54,-278.5C472.16,-274.6 517.09,-274.79 545.5,-299.62 571.63,-322.47 539.59,-350.46 563.5,-375.62 569.65,-382.1 577.99,-386.29 586.55,-388.98"/>
<polygon fill="#63b8ff" stroke="#63b8ff" points="440.45,-274.97 431.05,-279.86 441.45,-281.9 440.45,-274.97"/>
</a>
</g>
</g>
<!-- Node22 -->
<g id="Node000022" class="node">
<title>Node22</title>
<g id="a_Node000022"><a xlink:href="classJ2DMaterial.html" target="_top" xlink:title=" ">
<polygon fill="white" stroke="#666666" points="1150.25,-167.25 1082.5,-167.25 1082.5,-148 1150.25,-148 1150.25,-167.25"/>
<text text-anchor="middle" x="1116.38" y="-153.75" font-family="Helvetica,sans-Serif" font-size="10.00">J2DMaterial</text>
</a>
</g>
</g>
<!-- Node22&#45;&gt;Node1 -->
<g id="edge25_Node000001_Node000022" class="edge">
<title>Node22&#45;&gt;Node1</title>
<g id="a_edge25_Node000001_Node000022"><a xlink:title=" ">
<path fill="none" stroke="#9a32cd" stroke-dasharray="5,2" d="M1161.54,-169.98C1183.78,-176.2 1210.39,-183.65 1231.39,-189.52"/>
<polygon fill="#9a32cd" stroke="#9a32cd" points="1162.72,-166.68 1152.15,-167.35 1160.84,-173.42 1162.72,-166.68"/>
</a>
</g>
<text text-anchor="middle" x="1190.75" y="-184.38" font-family="Helvetica,sans-Serif" font-size="10.00" fill="grey"> mMaterial</text>
</g>
<!-- Node23&#45;&gt;Node22 -->
<g id="edge26_Node000022_Node000023" class="edge">
<title>Node23&#45;&gt;Node22</title>
<g id="a_edge26_Node000022_Node000023"><a xlink:title=" ">
<path fill="none" stroke="#9a32cd" stroke-dasharray="5,2" d="M964.72,-316.69C1002.34,-307.67 1049.68,-294.18 1064.5,-280.62 1098.94,-249.12 1110.71,-190.75 1114.14,-167.53"/>
<polygon fill="#9a32cd" stroke="#9a32cd" points="964.31,-313.19 955.37,-318.88 965.91,-320.01 964.31,-313.19"/>
</a>
</g>
<text text-anchor="middle" x="1030" y="-309.38" font-family="Helvetica,sans-Serif" font-size="10.00" fill="grey"> mColorBlock</text>
</g>
<!-- Node24 -->
<g id="Node000024" class="node">
<title>Node24</title>
<g id="a_Node000024"><a xlink:href="classJ2DColorChan.html" target="_top" xlink:title=" ">
<polygon fill="white" stroke="#666666" points="665.38,-366.25 587.12,-366.25 587.12,-347 665.38,-347 665.38,-366.25"/>
<text text-anchor="middle" x="626.25" y="-352.75" font-family="Helvetica,sans-Serif" font-size="10.00">J2DColorChan</text>
</a>
</g>
</g>
<!-- Node24&#45;&gt;Node23 -->
<g id="edge28_Node000023_Node000024" class="edge">
<title>Node24&#45;&gt;Node23</title>
<g id="a_edge28_Node000023_Node000024"><a xlink:title=" ">
<path fill="none" stroke="#9a32cd" stroke-dasharray="5,2" d="M677.02,-351.56C732.61,-345.9 821.49,-336.86 872.59,-331.66"/>
<polygon fill="#9a32cd" stroke="#9a32cd" points="676.79,-348.07 667.19,-352.56 677.5,-355.03 676.79,-348.07"/>
</a>
</g>
<text text-anchor="middle" x="769" y="-349.38" font-family="Helvetica,sans-Serif" font-size="10.00" fill="grey"> mColorChan</text>
</g>
<!-- Node25 -->
<g id="Node000025" class="node">
<title>Node25</title>
<g id="a_Node000025"><a xlink:href="classJ2DTexGenBlock.html" target="_top" xlink:title=" ">
<polygon fill="white" stroke="#666666" points="959.12,-56.25 867.38,-56.25 867.38,-37 959.12,-37 959.12,-56.25"/>
<text text-anchor="middle" x="913.25" y="-42.75" font-family="Helvetica,sans-Serif" font-size="10.00">J2DTexGenBlock</text>
</a>
</g>
</g>
<!-- Node25&#45;&gt;Node22 -->
<g id="edge29_Node000022_Node000025" class="edge">
<title>Node25&#45;&gt;Node22</title>
<g id="a_edge29_Node000022_Node000025"><a xlink:title=" ">
<path fill="none" stroke="#9a32cd" stroke-dasharray="5,2" d="M970.75,-48.71C1000.82,-52.21 1037.13,-60.47 1064.5,-79.38 1089.57,-96.69 1105.25,-130.77 1111.82,-147.66"/>
<polygon fill="#9a32cd" stroke="#9a32cd" points="971.36,-45.26 961.06,-47.74 970.67,-52.22 971.36,-45.26"/>
</a>
</g>
<text text-anchor="middle" x="1030" y="-81.38" font-family="Helvetica,sans-Serif" font-size="10.00" fill="grey"> mTexGenBlock</text>
</g>
<!-- Node26 -->
<g id="Node000026" class="node">
<title>Node26</title>
<g id="a_Node000026"><a xlink:href="classJ2DTexCoord.html" target="_top" xlink:title=" ">
<polygon fill="white" stroke="#666666" points="663.5,-19.25 589,-19.25 589,0 663.5,0 663.5,-19.25"/>
<text text-anchor="middle" x="626.25" y="-5.75" font-family="Helvetica,sans-Serif" font-size="10.00">J2DTexCoord</text>
</a>
</g>
</g>
<!-- Node26&#45;&gt;Node25 -->
<g id="edge30_Node000025_Node000026" class="edge">
<title>Node26&#45;&gt;Node25</title>
<g id="a_edge30_Node000025_Node000026"><a xlink:title=" ">
<path fill="none" stroke="#9a32cd" stroke-dasharray="5,2" d="M675.18,-13.66C716.55,-17.4 777.87,-23.57 831,-31.38 842.79,-33.11 855.47,-35.32 867.23,-37.52"/>
<polygon fill="#9a32cd" stroke="#9a32cd" points="675.58,-10.18 665.31,-12.78 674.96,-17.16 675.58,-10.18"/>
</a>
</g>
<text text-anchor="middle" x="769" y="-33.38" font-family="Helvetica,sans-Serif" font-size="10.00" fill="grey"> mTexGenCoord</text>
</g>
<!-- Node27 -->
<g id="Node000027" class="node">
<title>Node27</title>
<g id="a_Node000027"><a xlink:href="structJ2DTexCoordInfo.html" target="_top" xlink:title=" ">
<polygon fill="white" stroke="#666666" points="448.38,-19.25 357.38,-19.25 357.38,0 448.38,0 448.38,-19.25"/>
<text text-anchor="middle" x="402.88" y="-5.75" font-family="Helvetica,sans-Serif" font-size="10.00">J2DTexCoordInfo</text>
</a>
</g>
</g>
<!-- Node27&#45;&gt;Node26 -->
<g id="edge31_Node000026_Node000027" class="edge">
<title>Node27&#45;&gt;Node26</title>
<g id="a_edge31_Node000026_Node000027"><a xlink:title=" ">
<path fill="none" stroke="#9a32cd" stroke-dasharray="5,2" d="M459.95,-9.62C500.3,-9.62 553.56,-9.62 588.58,-9.62"/>
<polygon fill="#9a32cd" stroke="#9a32cd" points="460.19,-6.13 450.19,-9.63 460.19,-13.13 460.19,-6.13"/>
</a>
</g>
<text text-anchor="middle" x="511.38" y="-11.38" font-family="Helvetica,sans-Serif" font-size="10.00" fill="grey"> mTexCoordInfo</text>
</g>
<!-- Node28 -->
<g id="Node000028" class="node">
<title>Node28</title>
<g id="a_Node000028"><a xlink:href="classJ2DTexMtx.html" target="_top" xlink:title=" ">
<polygon fill="white" stroke="#666666" points="658.62,-56.25 593.88,-56.25 593.88,-37 658.62,-37 658.62,-56.25"/>
<text text-anchor="middle" x="626.25" y="-42.75" font-family="Helvetica,sans-Serif" font-size="10.00">J2DTexMtx</text>
</a>
</g>
</g>
<!-- Node28&#45;&gt;Node25 -->
<g id="edge32_Node000025_Node000028" class="edge">
<title>Node28&#45;&gt;Node25</title>
<g id="a_edge32_Node000025_Node000028"><a xlink:title=" ">
<path fill="none" stroke="#9a32cd" stroke-dasharray="5,2" d="M670.49,-46.62C723.55,-46.62 813.09,-46.62 867.03,-46.62"/>
<polygon fill="#9a32cd" stroke="#9a32cd" points="670.63,-43.13 660.63,-46.63 670.63,-50.13 670.63,-43.13"/>
</a>
</g>
<text text-anchor="middle" x="769" y="-48.38" font-family="Helvetica,sans-Serif" font-size="10.00" fill="grey"> mTexMtx</text>
</g>
<!-- Node29 -->
<g id="Node000029" class="node">
<title>Node29</title>
<g id="a_Node000029"><a xlink:href="structJ2DTexMtxInfo.html" target="_top" xlink:title=" ">
<polygon fill="white" stroke="#666666" points="443.5,-56.25 362.25,-56.25 362.25,-37 443.5,-37 443.5,-56.25"/>
<text text-anchor="middle" x="402.88" y="-42.75" font-family="Helvetica,sans-Serif" font-size="10.00">J2DTexMtxInfo</text>
</a>
</g>
</g>
<!-- Node29&#45;&gt;Node28 -->
<g id="edge33_Node000028_Node000029" class="edge">
<title>Node29&#45;&gt;Node28</title>
<g id="a_edge33_Node000028_Node000029"><a xlink:title=" ">
<path fill="none" stroke="#9a32cd" stroke-dasharray="5,2" d="M455.28,-46.62C498.07,-46.62 557.62,-46.62 593.69,-46.62"/>
<polygon fill="#9a32cd" stroke="#9a32cd" points="455.48,-43.13 445.48,-46.63 455.48,-50.13 455.48,-43.13"/>
</a>
</g>
<text text-anchor="middle" x="511.38" y="-48.38" font-family="Helvetica,sans-Serif" font-size="10.00" fill="grey"> mInfo</text>
</g>
<!-- Node30 -->
<g id="Node000030" class="node">
<title>Node30</title>
<g id="a_Node000030"><a xlink:href="structVec.html" target="_top" xlink:title=" ">
<polygon fill="white" stroke="#666666" points="201.88,-74.25 168.62,-74.25 168.62,-55 201.88,-55 201.88,-74.25"/>
<text text-anchor="middle" x="185.25" y="-60.75" font-family="Helvetica,sans-Serif" font-size="10.00">Vec</text>
</a>
</g>
</g>
<!-- Node30&#45;&gt;Node29 -->
<g id="edge34_Node000029_Node000030" class="edge">
<title>Node30&#45;&gt;Node29</title>
<g id="a_edge34_Node000029_Node000030"><a xlink:title=" ">
<path fill="none" stroke="#9a32cd" stroke-dasharray="5,2" d="M213.09,-62.38C250.47,-59.26 318.48,-53.59 361.85,-49.97"/>
<polygon fill="#9a32cd" stroke="#9a32cd" points="213.29,-58.86 203.61,-63.18 213.87,-65.83 213.29,-58.86"/>
</a>
</g>
<text text-anchor="middle" x="291.25" y="-61.38" font-family="Helvetica,sans-Serif" font-size="10.00" fill="grey"> mCenter</text>
</g>
<!-- Node31 -->
<g id="Node000031" class="node">
<title>Node31</title>
<g id="a_Node000031"><a xlink:href="structJ2DTextureSRTInfo.html" target="_top" xlink:title=" ">
<polygon fill="white" stroke="#666666" points="236,-37.25 134.5,-37.25 134.5,-18 236,-18 236,-37.25"/>
<text text-anchor="middle" x="185.25" y="-23.75" font-family="Helvetica,sans-Serif" font-size="10.00">J2DTextureSRTInfo</text>
</a>
</g>
</g>
<!-- Node31&#45;&gt;Node29 -->
<g id="edge35_Node000029_Node000031" class="edge">
<title>Node31&#45;&gt;Node29</title>
<g id="a_edge35_Node000029_Node000031"><a xlink:title=" ">
<path fill="none" stroke="#9a32cd" stroke-dasharray="5,2" d="M247.54,-31.76C272.65,-33.59 301.98,-35.88 328.5,-38.38 339.35,-39.39 351.08,-40.65 361.92,-41.86"/>
<polygon fill="#9a32cd" stroke="#9a32cd" points="248.05,-28.29 237.83,-31.07 247.55,-35.27 248.05,-28.29"/>
</a>
</g>
<text text-anchor="middle" x="291.25" y="-40.38" font-family="Helvetica,sans-Serif" font-size="10.00" fill="grey"> mTexSRTInfo</text>
</g>
<!-- Node32 -->
<g id="Node000032" class="node">
<title>Node32</title>
<g id="a_Node000032"><a xlink:href="classJ2DTevBlock.html" target="_top" xlink:title=" ">
<polygon fill="white" stroke="#666666" points="950.5,-167.25 876,-167.25 876,-148 950.5,-148 950.5,-167.25"/>
<text text-anchor="middle" x="913.25" y="-153.75" font-family="Helvetica,sans-Serif" font-size="10.00">J2DTevBlock</text>
</a>
</g>
</g>
<!-- Node32&#45;&gt;Node22 -->
<g id="edge36_Node000022_Node000032" class="edge">
<title>Node32&#45;&gt;Node22</title>
<g id="a_edge36_Node000022_Node000032"><a xlink:title=" ">
<path fill="none" stroke="#9a32cd" stroke-dasharray="5,2" d="M961.71,-157.62C998.8,-157.62 1049.4,-157.62 1082.23,-157.62"/>
<polygon fill="#9a32cd" stroke="#9a32cd" points="962.19,-154.13 952.19,-157.63 962.19,-161.13 962.19,-154.13"/>
</a>
</g>
<text text-anchor="middle" x="1030" y="-159.38" font-family="Helvetica,sans-Serif" font-size="10.00" fill="grey"> mTevBlock</text>
</g>
<!-- Node33 -->
<g id="Node000033" class="node">
<title>Node33</title>
<g id="a_Node000033"><a xlink:href="classJ2DIndBlock.html" target="_top" xlink:title=" ">
<polygon fill="white" stroke="#666666" points="949,-130.25 877.5,-130.25 877.5,-111 949,-111 949,-130.25"/>
<text text-anchor="middle" x="913.25" y="-116.75" font-family="Helvetica,sans-Serif" font-size="10.00">J2DIndBlock</text>
</a>
</g>
</g>
<!-- Node33&#45;&gt;Node22 -->
<g id="edge37_Node000022_Node000033" class="edge">
<title>Node33&#45;&gt;Node22</title>
<g id="a_edge37_Node000022_Node000033"><a xlink:title=" ">
<path fill="none" stroke="#9a32cd" stroke-dasharray="5,2" d="M960.77,-125.56C990.61,-129.17 1030.08,-134.77 1064.5,-142.38 1070.98,-143.81 1077.84,-145.64 1084.36,-147.54"/>
<polygon fill="#9a32cd" stroke="#9a32cd" points="961.27,-122.1 950.93,-124.41 960.45,-129.05 961.27,-122.1"/>
</a>
</g>
<text text-anchor="middle" x="1030" y="-144.38" font-family="Helvetica,sans-Serif" font-size="10.00" fill="grey"> mIndBlock</text>
</g>
<!-- Node34 -->
<g id="Node000034" class="node">
<title>Node34</title>
<g id="a_Node000034"><a xlink:href="classJ2DPEBlock.html" target="_top" xlink:title=" ">
<polygon fill="white" stroke="#666666" points="948.62,-93.25 877.88,-93.25 877.88,-74 948.62,-74 948.62,-93.25"/>
<text text-anchor="middle" x="913.25" y="-79.75" font-family="Helvetica,sans-Serif" font-size="10.00">J2DPEBlock</text>
</a>
</g>
</g>
<!-- Node34&#45;&gt;Node22 -->
<g id="edge38_Node000022_Node000034" class="edge">
<title>Node34&#45;&gt;Node22</title>
<g id="a_edge38_Node000022_Node000034"><a xlink:title=" ">
<path fill="none" stroke="#9a32cd" stroke-dasharray="5,2" d="M960.1,-88.01C990.82,-92.27 1031.53,-100.53 1064.5,-116.38 1080.69,-124.16 1096.28,-138.05 1105.84,-147.54"/>
<polygon fill="#9a32cd" stroke="#9a32cd" points="960.71,-84.56 950.35,-86.75 959.82,-91.5 960.71,-84.56"/>
</a>
</g>
<text text-anchor="middle" x="1030" y="-118.38" font-family="Helvetica,sans-Serif" font-size="10.00" fill="grey"> mPEBlock</text>
</g>
<!-- Node35 -->
<g id="Node000035" class="node">
<title>Node35</title>
<g id="a_Node000035"><a xlink:href="structJ2DAlphaComp.html" target="_top" xlink:title=" ">
<polygon fill="white" stroke="#666666" points="668,-130.25 584.5,-130.25 584.5,-111 668,-111 668,-130.25"/>
<text text-anchor="middle" x="626.25" y="-116.75" font-family="Helvetica,sans-Serif" font-size="10.00">J2DAlphaComp</text>
</a>
</g>
</g>
<!-- Node35&#45;&gt;Node34 -->
<g id="edge39_Node000034_Node000035" class="edge">
<title>Node35&#45;&gt;Node34</title>
<g id="a_edge39_Node000034_Node000035"><a xlink:title=" ">
<path fill="none" stroke="#9a32cd" stroke-dasharray="5,2" d="M679.75,-116.05C720.98,-112.19 779.78,-106.11 831,-98.62 846.33,-96.39 863.19,-93.37 877.55,-90.62"/>
<polygon fill="#9a32cd" stroke="#9a32cd" points="679.48,-112.56 669.85,-116.96 680.13,-119.53 679.48,-112.56"/>
</a>
</g>
<text text-anchor="middle" x="769" y="-115.38" font-family="Helvetica,sans-Serif" font-size="10.00" fill="grey"> mAlphaComp</text>
</g>
<!-- Node36 -->
<g id="Node000036" class="node">
<title>Node36</title>
<g id="a_Node000036"><a xlink:href="structJ2DBlend.html" target="_top" xlink:title=" ">
<polygon fill="white" stroke="#666666" points="655.25,-93.25 597.25,-93.25 597.25,-74 655.25,-74 655.25,-93.25"/>
<text text-anchor="middle" x="626.25" y="-79.75" font-family="Helvetica,sans-Serif" font-size="10.00">J2DBlend</text>
</a>
</g>
</g>
<!-- Node36&#45;&gt;Node34 -->
<g id="edge40_Node000034_Node000036" class="edge">
<title>Node36&#45;&gt;Node34</title>
<g id="a_edge40_Node000034_Node000036"><a xlink:title=" ">
<path fill="none" stroke="#9a32cd" stroke-dasharray="5,2" d="M666.84,-83.62C722.79,-83.62 824.13,-83.62 877.39,-83.62"/>
<polygon fill="#9a32cd" stroke="#9a32cd" points="667.13,-80.13 657.13,-83.63 667.13,-87.13 667.13,-80.13"/>
</a>
</g>
<text text-anchor="middle" x="769" y="-85.38" font-family="Helvetica,sans-Serif" font-size="10.00" fill="grey"> mBlend</text>
</g>
<!-- Node37 -->
<g id="Node000037" class="node">
<title>Node37</title>
<g id="a_Node000037"><a xlink:href="structJ2DBlendInfo.html" target="_top" xlink:title=" ">
<polygon fill="white" stroke="#666666" points="440.12,-93.25 365.62,-93.25 365.62,-74 440.12,-74 440.12,-93.25"/>
<text text-anchor="middle" x="402.88" y="-79.75" font-family="Helvetica,sans-Serif" font-size="10.00">J2DBlendInfo</text>
</a>
</g>
</g>
<!-- Node37&#45;&gt;Node36 -->
<g id="edge41_Node000036_Node000037" class="edge">
<title>Node37&#45;&gt;Node36</title>
<g id="a_edge41_Node000036_Node000037"><a xlink:title=" ">
<path fill="none" stroke="#9a32cd" stroke-dasharray="5,2" d="M451.8,-83.62C496.12,-83.62 560.51,-83.62 597.08,-83.62"/>
<polygon fill="#9a32cd" stroke="#9a32cd" points="451.94,-80.13 441.94,-83.63 451.94,-87.13 451.94,-80.13"/>
</a>
</g>
<text text-anchor="middle" x="511.38" y="-85.38" font-family="Helvetica,sans-Serif" font-size="10.00" fill="grey"> mBlendInfo</text>
</g>
<!-- Node38&#45;&gt;Node22 -->
<g id="edge42_Node000022_Node000038" class="edge">
<title>Node38&#45;&gt;Node22</title>
<g id="a_edge42_Node000022_Node000038"><a xlink:title=" ">
<path fill="none" stroke="#9a32cd" stroke-dasharray="5,2" d="M842.62,-296.69C897.51,-284.32 965.41,-268.22 977.5,-261.62 987.16,-256.36 987.03,-251.65 995.5,-244.62 1031.53,-214.75 1076.92,-183.38 1100.15,-167.74"/>
<polygon fill="#9a32cd" stroke="#9a32cd" points="841.95,-293.25 832.96,-298.86 843.49,-300.08 841.95,-293.25"/>
</a>
</g>
<text text-anchor="middle" x="913.25" y="-296.38" font-family="Helvetica,sans-Serif" font-size="10.00" fill="grey"> mAnmPointer</text>
</g>
</g>
</svg>
