<?xml version="1.0" encoding="UTF-8" standalone="no"?>
<!DOCTYPE svg PUBLIC "-//W3C//DTD SVG 1.1//EN"
 "http://www.w3.org/Graphics/SVG/1.1/DTD/svg11.dtd">
<!-- Generated by graphviz version 9.0.0 (20230911.1827)
 -->
<!-- Title: JKRAramStreamCommand Pages: 1 -->
<!--zoomable 508 -->

<svg id="main" version="1.1" xmlns="http://www.w3.org/2000/svg" xmlns:xlink="http://www.w3.org/1999/xlink" xml:space="preserve" onload="init(evt)">
<style type="text/css"><![CDATA[
.node, .edge {opacity: 0.7;}
.node.selected, .edge.selected {opacity: 1;}
.edge:hover path { stroke: red; }
.edge:hover polygon { stroke: red; fill: red; }
]]></style>

<defs>
  <circle id="rim" cx="0" cy="0" r="7"/>
  <circle id="rim2" cx="0" cy="0" r="3.5"/>
  <g id="zoomPlus">
    <use xlink:href="#rim" fill="#404040"><set attributeName="fill" to="#808080" begin="zoomplus.mouseover" end="zoomplus.mouseout"/></use>
    <path d="M-4,0h8M0,-4v8" fill="none" stroke="white" stroke-width="1.5" pointer-events="none"/>
  </g>
  <g id="zoomMin">
    <use xlink:href="#rim" fill="#404040"><set attributeName="fill" to="#808080" begin="zoomminus.mouseover" end="zoomminus.mouseout"/></use>
    <path d="M-4,0h8" fill="none" stroke="white" stroke-width="1.5" pointer-events="none"/>
  </g>
  <g id="arrowUp" transform="translate(30 24)">
    <use xlink:href="#rim"/>
    <path pointer-events="none" fill="none" stroke="white" stroke-width="1.5" d="M0,-3.0v7 M-2.5,-0.5L0,-3.0L2.5,-0.5"/>
  </g>
  <g id="arrowRight" transform="rotate(90) translate(36 -43)">
    <use xlink:href="#rim"/>
    <path pointer-events="none" fill="none" stroke="white" stroke-width="1.5" d="M0,-3.0v7 M-2.5,-0.5L0,-3.0L2.5,-0.5"/>
  </g>
  <g id="arrowDown" transform="rotate(180) translate(-30 -48)">
    <use xlink:href="#rim"/>
    <path pointer-events="none" fill="none" stroke="white" stroke-width="1.5" d="M0,-3.0v7 M-2.5,-0.5L0,-3.0L2.5,-0.5"/>
  </g>
  <g id="arrowLeft" transform="rotate(270) translate(-36 17)">
    <use xlink:href="#rim"/>
    <path pointer-events="none" fill="none" stroke="white" stroke-width="1.5" d="M0,-3.0v7 M-2.5,-0.5L0,-3.0L2.5,-0.5"/>
  </g>
  <g id="resetDef">
    <use xlink:href="#rim2" fill="#404040"><set attributeName="fill" to="#808080" begin="reset.mouseover" end="reset.mouseout"/></use>
  </g>
</defs>
<script type="application/ecmascript">
var viewWidth = 906;
var viewHeight = 508;
var sectionId = 'dynsection-0';
</script>
<script type="application/ecmascript" xlink:href="svg.min.js"/>
<svg id="graph" class="graph">
<g id="viewport">
<title>JKRAramStreamCommand</title>
<!-- Node1 -->
<g id="Node000001" class="node">
<title>Node1</title>
<g id="a_Node000001"><a xlink:title=" ">
<polygon fill="#999999" stroke="#666666" points="360.25,-19.25 226.5,-19.25 226.5,0 360.25,0 360.25,-19.25"/>
<text text-anchor="middle" x="293.38" y="-5.75" font-family="Helvetica,sans-Serif" font-size="10.00">JKRAramStreamCommand</text>
</a>
</g>
</g>
<!-- Node2 -->
<g id="Node000002" class="node">
<title>Node2</title>
<g id="a_Node000002"><a xlink:href="classJSUFileInputStream.html" target="_top" xlink:title=" ">
<polygon fill="white" stroke="#666666" points="257.62,-85.75 153.12,-85.75 153.12,-66.5 257.62,-66.5 257.62,-85.75"/>
<text text-anchor="middle" x="205.38" y="-72.25" font-family="Helvetica,sans-Serif" font-size="10.00">JSUFileInputStream</text>
</a>
</g>
</g>
<!-- Node2&#45;&gt;Node1 -->
<g id="edge1_Node000001_Node000002" class="edge">
<title>Node2&#45;&gt;Node1</title>
<g id="a_edge1_Node000001_Node000002"><a xlink:title=" ">
<path fill="none" stroke="#9a32cd" stroke-dasharray="5,2" d="M218.2,-56.86C223.57,-50.1 230.23,-42.76 237.38,-37.25 246.75,-30.02 258.41,-24.09 268.66,-19.67"/>
<polygon fill="#9a32cd" stroke="#9a32cd" points="215.42,-54.73 212.24,-64.84 221.03,-58.92 215.42,-54.73"/>
</a>
</g>
<text text-anchor="middle" x="258.38" y="-39" font-family="Helvetica,sans-Serif" font-size="10.00" fill="grey"> mStream</text>
</g>
<!-- Node3 -->
<g id="Node000003" class="node">
<title>Node3</title>
<g id="a_Node000003"><a xlink:href="classJSURandomInputStream.html" target="_top" xlink:title=" ">
<polygon fill="white" stroke="#666666" points="153.75,-176.38 29,-176.38 29,-157.12 153.75,-157.12 153.75,-176.38"/>
<text text-anchor="middle" x="91.38" y="-162.88" font-family="Helvetica,sans-Serif" font-size="10.00">JSURandomInputStream</text>
</a>
</g>
</g>
<!-- Node3&#45;&gt;Node2 -->
<g id="edge2_Node000002_Node000003" class="edge">
<title>Node3&#45;&gt;Node2</title>
<g id="a_edge2_Node000002_Node000003"><a xlink:title=" ">
<path fill="none" stroke="#63b8ff" d="M111.65,-149.98C135.55,-131.41 174.43,-101.18 193.73,-86.17"/>
<polygon fill="#63b8ff" stroke="#63b8ff" points="109.66,-147.1 103.92,-156 113.96,-152.62 109.66,-147.1"/>
</a>
</g>
</g>
<!-- Node4 -->
<g id="Node000004" class="node">
<title>Node4</title>
<g id="a_Node000004"><a xlink:href="classJSUInputStream.html" target="_top" xlink:title=" ">
<polygon fill="white" stroke="#666666" points="88.75,-267 0,-267 0,-247.75 88.75,-247.75 88.75,-267"/>
<text text-anchor="middle" x="44.38" y="-253.5" font-family="Helvetica,sans-Serif" font-size="10.00">JSUInputStream</text>
</a>
</g>
</g>
<!-- Node4&#45;&gt;Node3 -->
<g id="edge3_Node000003_Node000004" class="edge">
<title>Node4&#45;&gt;Node3</title>
<g id="a_edge3_Node000003_Node000004"><a xlink:title=" ">
<path fill="none" stroke="#63b8ff" d="M54.36,-237.54C64.27,-218.85 79.04,-191.01 86.58,-176.8"/>
<polygon fill="#63b8ff" stroke="#63b8ff" points="51.36,-235.74 49.76,-246.22 57.54,-239.02 51.36,-235.74"/>
</a>
</g>
</g>
<!-- Node5 -->
<g id="Node000005" class="node">
<title>Node5</title>
<g id="a_Node000005"><a xlink:href="classJSUIosBase.html" target="_top" xlink:title=" ">
<polygon fill="white" stroke="#666666" points="80.12,-341.5 8.62,-341.5 8.62,-322.25 80.12,-322.25 80.12,-341.5"/>
<text text-anchor="middle" x="44.38" y="-328" font-family="Helvetica,sans-Serif" font-size="10.00">JSUIosBase</text>
</a>
</g>
</g>
<!-- Node5&#45;&gt;Node4 -->
<g id="edge4_Node000004_Node000005" class="edge">
<title>Node5&#45;&gt;Node4</title>
<g id="a_edge4_Node000004_Node000005"><a xlink:title=" ">
<path fill="none" stroke="#63b8ff" d="M44.38,-310.85C44.38,-296.6 44.38,-278.13 44.38,-267.34"/>
<polygon fill="#63b8ff" stroke="#63b8ff" points="40.88,-310.47 44.38,-320.47 47.88,-310.47 40.88,-310.47"/>
</a>
</g>
</g>
<!-- Node6 -->
<g id="Node000006" class="node">
<title>Node6</title>
<g id="a_Node000006"><a xlink:href="classJKRFile.html" target="_top" xlink:title=" ">
<polygon fill="white" stroke="#666666" points="240.62,-176.38 190.12,-176.38 190.12,-157.12 240.62,-157.12 240.62,-176.38"/>
<text text-anchor="middle" x="215.38" y="-162.88" font-family="Helvetica,sans-Serif" font-size="10.00">JKRFile</text>
</a>
</g>
</g>
<!-- Node6&#45;&gt;Node2 -->
<g id="edge5_Node000002_Node000006" class="edge">
<title>Node6&#45;&gt;Node2</title>
<g id="a_edge5_Node000002_Node000006"><a xlink:title=" ">
<path fill="none" stroke="#9a32cd" stroke-dasharray="5,2" d="M213.1,-145.59C210.99,-126.93 207.96,-100.05 206.4,-86.17"/>
<polygon fill="#9a32cd" stroke="#9a32cd" points="209.61,-145.88 214.21,-155.42 216.57,-145.09 209.61,-145.88"/>
</a>
</g>
<text text-anchor="middle" x="223.5" y="-111.12" font-family="Helvetica,sans-Serif" font-size="10.00" fill="grey"> mFile</text>
</g>
<!-- Node7 -->
<g id="Node000007" class="node">
<title>Node7</title>
<g id="a_Node000007"><a xlink:href="classJKRDisposer.html" target="_top" xlink:title=" ">
<polygon fill="white" stroke="#666666" points="280.88,-267 207.88,-267 207.88,-247.75 280.88,-247.75 280.88,-267"/>
<text text-anchor="middle" x="244.38" y="-253.5" font-family="Helvetica,sans-Serif" font-size="10.00">JKRDisposer</text>
</a>
</g>
</g>
<!-- Node7&#45;&gt;Node6 -->
<g id="edge6_Node000006_Node000007" class="edge">
<title>Node7&#45;&gt;Node6</title>
<g id="a_edge6_Node000006_Node000007"><a xlink:title=" ">
<path fill="none" stroke="#63b8ff" d="M236.08,-236.98C235.13,-234.56 234.2,-232.11 233.38,-229.75 226.85,-211.13 220.79,-188.81 217.64,-176.68"/>
<polygon fill="#63b8ff" stroke="#63b8ff" points="232.83,-238.29 239.89,-246.19 239.3,-235.62 232.83,-238.29"/>
</a>
</g>
</g>
<!-- Node8 -->
<g id="Node000008" class="node">
<title>Node8</title>
<g id="a_Node000008"><a xlink:href="structJKRHeap.html" target="_top" xlink:title=" ">
<polygon fill="white" stroke="#666666" points="320.38,-176.38 262.38,-176.38 262.38,-157.12 320.38,-157.12 320.38,-176.38"/>
<text text-anchor="middle" x="291.38" y="-162.88" font-family="Helvetica,sans-Serif" font-size="10.00">JKRHeap</text>
</a>
</g>
</g>
<!-- Node7&#45;&gt;Node8 -->
<g id="edge8_Node000008_Node000007" class="edge">
<title>Node7&#45;&gt;Node8</title>
<g id="a_edge8_Node000008_Node000007"><a xlink:title=" ">
<path fill="none" stroke="#63b8ff" d="M249.68,-236.51C252.52,-227.32 256.46,-216.43 261.38,-207.25 267.47,-195.86 276.72,-184.26 283.34,-176.6"/>
<polygon fill="#63b8ff" stroke="#63b8ff" points="246.39,-235.29 247,-245.87 253.12,-237.22 246.39,-235.29"/>
</a>
</g>
</g>
<!-- Node8&#45;&gt;Node1 -->
<g id="edge35_Node000001_Node000008" class="edge">
<title>Node8&#45;&gt;Node1</title>
<g id="a_edge35_Node000001_Node000008"><a xlink:title=" ">
<path fill="none" stroke="#9a32cd" stroke-dasharray="5,2" d="M291.63,-145.76C292.07,-111.8 292.94,-44.14 293.26,-19.7"/>
<polygon fill="#9a32cd" stroke="#9a32cd" points="288.14,-145.41 291.51,-155.45 295.14,-145.5 288.14,-145.41"/>
</a>
</g>
<text text-anchor="middle" x="309.25" y="-72.25" font-family="Helvetica,sans-Serif" font-size="10.00" fill="grey"> mHeap</text>
</g>
<!-- Node8&#45;&gt;Node7 -->
<g id="edge7_Node000007_Node000008" class="edge">
<title>Node8&#45;&gt;Node7</title>
<g id="a_edge7_Node000007_Node000008"><a xlink:title=" ">
<path fill="none" stroke="#9a32cd" stroke-dasharray="5,2" d="M282.67,-187.21C276.97,-199.58 269.15,-215.83 261.38,-229.75 257.95,-235.88 253.7,-242.53 250.31,-247.66"/>
<polygon fill="#9a32cd" stroke="#9a32cd" points="285.85,-188.68 286.8,-178.13 279.48,-185.78 285.85,-188.68"/>
</a>
</g>
<text text-anchor="middle" x="289.25" y="-214.62" font-family="Helvetica,sans-Serif" font-size="10.00" fill="grey"> mHeap</text>
</g>
<!-- Node8&#45;&gt;Node8 -->
<g id="edge32_Node000008_Node000008" class="edge">
<title>Node8&#45;&gt;Node8</title>
<g id="a_edge32_Node000008_Node000008"><a xlink:title=" ">
<path fill="none" stroke="#9a32cd" stroke-dasharray="5,2" d="M331.99,-174.6C335.9,-173 338.38,-170.39 338.38,-166.75 338.38,-160.28 330.54,-157.05 320.75,-157.05"/>
<polygon fill="#9a32cd" stroke="#9a32cd" points="331.54,-171.12 322.24,-176.21 332.68,-178.03 331.54,-171.12"/>
</a>
</g>
<text text-anchor="middle" x="369.5" y="-179.75" font-family="Helvetica,sans-Serif" font-size="10.00" fill="grey"> sCurrentHeap</text>
<text text-anchor="middle" x="369.5" y="-168.5" font-family="Helvetica,sans-Serif" font-size="10.00" fill="grey">sRootHeap</text>
<text text-anchor="middle" x="369.5" y="-157.25" font-family="Helvetica,sans-Serif" font-size="10.00" fill="grey">sRootHeap2</text>
<text text-anchor="middle" x="369.5" y="-146" font-family="Helvetica,sans-Serif" font-size="10.00" fill="grey">sSystemHeap</text>
</g>
<!-- Node9 -->
<g id="Node000009" class="node">
<title>Node9</title>
<g id="a_Node000009"><a xlink:href="structOSMutex.html" target="_top" xlink:title=" ">
<polygon fill="white" stroke="#666666" points="678.62,-420.88 622.12,-420.88 622.12,-401.62 678.62,-401.62 678.62,-420.88"/>
<text text-anchor="middle" x="650.38" y="-407.38" font-family="Helvetica,sans-Serif" font-size="10.00">OSMutex</text>
</a>
</g>
</g>
<!-- Node9&#45;&gt;Node8 -->
<g id="edge9_Node000008_Node000009" class="edge">
<title>Node9&#45;&gt;Node8</title>
<g id="a_edge9_Node000008_Node000009"><a xlink:title=" ">
<path fill="none" stroke="#9a32cd" stroke-dasharray="5,2" d="M610.34,-406.83C586.11,-403.33 555.37,-396.27 531.38,-382 445.59,-331.01 469.91,-267.53 390.38,-207.25 369.58,-191.49 341.66,-181.11 320.77,-174.96"/>
<polygon fill="#9a32cd" stroke="#9a32cd" points="609.78,-410.28 620.15,-408.08 610.67,-403.34 609.78,-410.28"/>
</a>
</g>
<text text-anchor="middle" x="478.75" y="-290.75" font-family="Helvetica,sans-Serif" font-size="10.00" fill="grey"> mMutex</text>
</g>
<!-- Node11 -->
<g id="Node000011" class="node">
<title>Node11</title>
<g id="a_Node000011"><a xlink:href="structOSThread.html" target="_top" xlink:title=" ">
<polygon fill="white" stroke="#666666" points="681.5,-267 621.25,-267 621.25,-247.75 681.5,-247.75 681.5,-267"/>
<text text-anchor="middle" x="651.38" y="-253.5" font-family="Helvetica,sans-Serif" font-size="10.00">OSThread</text>
</a>
</g>
</g>
<!-- Node9&#45;&gt;Node11 -->
<g id="edge16_Node000011_Node000009" class="edge">
<title>Node9&#45;&gt;Node11</title>
<g id="a_edge16_Node000011_Node000009"><a xlink:title=" ">
<path fill="none" stroke="#9a32cd" stroke-dasharray="5,2" d="M650.51,-390.11C650.73,-356.65 651.16,-290.91 651.32,-267.18"/>
<polygon fill="#9a32cd" stroke="#9a32cd" points="647.01,-389.67 650.44,-399.69 654.01,-389.71 647.01,-389.67"/>
</a>
</g>
<text text-anchor="middle" x="664.62" y="-328" font-family="Helvetica,sans-Serif" font-size="10.00" fill="grey"> mutex</text>
</g>
<!-- Node14 -->
<g id="Node000014" class="node">
<title>Node14</title>
<g id="a_Node000014"><a xlink:href="structOSMutexQueue.html" target="_top" xlink:title=" ">
<polygon fill="white" stroke="#666666" points="613.88,-341.5 528.88,-341.5 528.88,-322.25 613.88,-322.25 613.88,-341.5"/>
<text text-anchor="middle" x="571.38" y="-328" font-family="Helvetica,sans-Serif" font-size="10.00">OSMutexQueue</text>
</a>
</g>
</g>
<!-- Node9&#45;&gt;Node14 -->
<g id="edge18_Node000014_Node000009" class="edge">
<title>Node9&#45;&gt;Node14</title>
<g id="a_edge18_Node000014_Node000009"><a xlink:title=" ">
<path fill="none" stroke="#9a32cd" stroke-dasharray="5,2" d="M627.82,-394.4C622.81,-390.54 617.65,-386.28 613.12,-382 599.46,-369.08 585.75,-351.96 577.94,-341.72"/>
<polygon fill="#9a32cd" stroke="#9a32cd" points="625.72,-397.2 635.84,-400.33 629.89,-391.57 625.72,-397.2"/>
</a>
</g>
<text text-anchor="middle" x="624" y="-372.5" font-family="Helvetica,sans-Serif" font-size="10.00" fill="grey"> head</text>
<text text-anchor="middle" x="624" y="-361.25" font-family="Helvetica,sans-Serif" font-size="10.00" fill="grey">tail</text>
</g>
<!-- Node15 -->
<g id="Node000015" class="node">
<title>Node15</title>
<g id="a_Node000015"><a xlink:href="structOSMutexLink.html" target="_top" xlink:title=" ">
<polygon fill="white" stroke="#666666" points="772,-341.5 696.75,-341.5 696.75,-322.25 772,-322.25 772,-341.5"/>
<text text-anchor="middle" x="734.38" y="-328" font-family="Helvetica,sans-Serif" font-size="10.00">OSMutexLink</text>
</a>
</g>
</g>
<!-- Node9&#45;&gt;Node15 -->
<g id="edge21_Node000015_Node000009" class="edge">
<title>Node9&#45;&gt;Node15</title>
<g id="a_edge21_Node000015_Node000009"><a xlink:title=" ">
<path fill="none" stroke="#9a32cd" stroke-dasharray="5,2" d="M659.95,-391.28C665.87,-380.94 674.22,-368.47 684.12,-359.5 692.1,-352.28 702.4,-346.38 711.59,-341.99"/>
<polygon fill="#9a32cd" stroke="#9a32cd" points="656.89,-389.59 655.25,-400.05 663.06,-392.9 656.89,-389.59"/>
</a>
</g>
<text text-anchor="middle" x="693.5" y="-372.5" font-family="Helvetica,sans-Serif" font-size="10.00" fill="grey"> next</text>
<text text-anchor="middle" x="693.5" y="-361.25" font-family="Helvetica,sans-Serif" font-size="10.00" fill="grey">prev</text>
</g>
<!-- Node10 -->
<g id="Node000010" class="node">
<title>Node10</title>
<g id="a_Node000010"><a xlink:href="structOSThreadQueue.html" target="_top" xlink:title=" ">
<polygon fill="white" stroke="#666666" points="561.75,-176.38 473,-176.38 473,-157.12 561.75,-157.12 561.75,-176.38"/>
<text text-anchor="middle" x="517.38" y="-162.88" font-family="Helvetica,sans-Serif" font-size="10.00">OSThreadQueue</text>
</a>
</g>
</g>
<!-- Node10&#45;&gt;Node9 -->
<g id="edge10_Node000009_Node000010" class="edge">
<title>Node10&#45;&gt;Node9</title>
<g id="a_edge10_Node000009_Node000010"><a xlink:title=" ">
<path fill="none" stroke="#9a32cd" stroke-dasharray="5,2" d="M511.8,-187.3C503.28,-221.39 490.91,-292.75 520.38,-341.5 542.36,-377.88 590.74,-396.02 621.88,-404.26"/>
<polygon fill="#9a32cd" stroke="#9a32cd" points="515.08,-188.56 514.29,-177.99 508.32,-186.75 515.08,-188.56"/>
</a>
</g>
<text text-anchor="middle" x="519.62" y="-290.75" font-family="Helvetica,sans-Serif" font-size="10.00" fill="grey"> queue</text>
</g>
<!-- Node10&#45;&gt;Node11 -->
<g id="edge13_Node000011_Node000010" class="edge">
<title>Node10&#45;&gt;Node11</title>
<g id="a_edge13_Node000011_Node000010"><a xlink:title=" ">
<path fill="none" stroke="#9a32cd" stroke-dasharray="5,2" d="M516.39,-187.86C516.85,-201.46 519.81,-218.87 530.62,-229.75 543.07,-242.28 589.38,-249.7 620.89,-253.4"/>
<polygon fill="#9a32cd" stroke="#9a32cd" points="519.88,-188.29 516.5,-178.25 512.88,-188.21 519.88,-188.29"/>
</a>
</g>
<text text-anchor="middle" x="554.75" y="-220.25" font-family="Helvetica,sans-Serif" font-size="10.00" fill="grey"> join_queue</text>
<text text-anchor="middle" x="554.75" y="-209" font-family="Helvetica,sans-Serif" font-size="10.00" fill="grey">queue</text>
</g>
<!-- Node23 -->
<g id="Node000023" class="node">
<title>Node23</title>
<g id="a_Node000023"><a xlink:href="structOSMessageQueue.html" target="_top" xlink:title=" ">
<polygon fill="white" stroke="#666666" points="513.62,-85.75 415.12,-85.75 415.12,-66.5 513.62,-66.5 513.62,-85.75"/>
<text text-anchor="middle" x="464.38" y="-72.25" font-family="Helvetica,sans-Serif" font-size="10.00">OSMessageQueue</text>
</a>
</g>
</g>
<!-- Node10&#45;&gt;Node23 -->
<g id="edge37_Node000023_Node000010" class="edge">
<title>Node10&#45;&gt;Node23</title>
<g id="a_edge37_Node000023_Node000010"><a xlink:title=" ">
<path fill="none" stroke="#9a32cd" stroke-dasharray="5,2" d="M506.27,-147.18C495.09,-128.49 478.32,-100.45 469.79,-86.17"/>
<polygon fill="#9a32cd" stroke="#9a32cd" points="503.19,-148.84 511.32,-155.63 509.19,-145.25 503.19,-148.84"/>
</a>
</g>
<text text-anchor="middle" x="528.75" y="-116.75" font-family="Helvetica,sans-Serif" font-size="10.00" fill="grey"> receiving_queue</text>
<text text-anchor="middle" x="528.75" y="-105.5" font-family="Helvetica,sans-Serif" font-size="10.00" fill="grey">sending_queue</text>
</g>
<!-- Node11&#45;&gt;Node9 -->
<g id="edge19_Node000009_Node000011" class="edge">
<title>Node11&#45;&gt;Node9</title>
<g id="a_edge19_Node000009_Node000011"><a xlink:title=" ">
<path fill="none" stroke="#9a32cd" stroke-dasharray="5,2" d="M693.32,-262.63C722.32,-266.43 761.45,-273.26 794.38,-285 826.83,-296.58 844.81,-292.6 862.38,-322.25 903.71,-392.02 745.37,-406.47 678.68,-409.47"/>
<polygon fill="#9a32cd" stroke="#9a32cd" points="693.81,-259.17 683.46,-261.42 692.96,-266.11 693.81,-259.17"/>
</a>
</g>
<text text-anchor="middle" x="883" y="-328" font-family="Helvetica,sans-Serif" font-size="10.00" fill="grey"> thread</text>
</g>
<!-- Node11&#45;&gt;Node10 -->
<g id="edge11_Node000010_Node000011" class="edge">
<title>Node11&#45;&gt;Node10</title>
<g id="a_edge11_Node000010_Node000011"><a xlink:title=" ">
<path fill="none" stroke="#9a32cd" stroke-dasharray="5,2" d="M630.35,-240.47C617.08,-230.61 599.46,-217.85 583.38,-207.25 566.65,-196.23 546.86,-184.56 533.35,-176.79"/>
<polygon fill="#9a32cd" stroke="#9a32cd" points="628.24,-243.26 638.35,-246.45 632.44,-237.66 628.24,-243.26"/>
</a>
</g>
<text text-anchor="middle" x="627" y="-220.25" font-family="Helvetica,sans-Serif" font-size="10.00" fill="grey"> head</text>
<text text-anchor="middle" x="627" y="-209" font-family="Helvetica,sans-Serif" font-size="10.00" fill="grey">tail</text>
</g>
<!-- Node13 -->
<g id="Node000013" class="node">
<title>Node13</title>
<g id="a_Node000013"><a xlink:href="structOSThreadLink.html" target="_top" xlink:title=" ">
<polygon fill="white" stroke="#666666" points="712.88,-176.38 633.88,-176.38 633.88,-157.12 712.88,-157.12 712.88,-176.38"/>
<text text-anchor="middle" x="673.38" y="-162.88" font-family="Helvetica,sans-Serif" font-size="10.00">OSThreadLink</text>
</a>
</g>
</g>
<!-- Node11&#45;&gt;Node13 -->
<g id="edge15_Node000013_Node000011" class="edge">
<title>Node11&#45;&gt;Node13</title>
<g id="a_edge15_Node000013_Node000011"><a xlink:title=" ">
<path fill="none" stroke="#9a32cd" stroke-dasharray="5,2" d="M646.92,-236.15C645.73,-227.15 645.42,-216.51 648.12,-207.25 651.5,-195.69 659.42,-184.29 665.49,-176.74"/>
<polygon fill="#9a32cd" stroke="#9a32cd" points="643.48,-236.77 648.71,-245.99 650.37,-235.53 643.48,-236.77"/>
</a>
</g>
<text text-anchor="middle" x="657.5" y="-220.25" font-family="Helvetica,sans-Serif" font-size="10.00" fill="grey"> next</text>
<text text-anchor="middle" x="657.5" y="-209" font-family="Helvetica,sans-Serif" font-size="10.00" fill="grey">prev</text>
</g>
<!-- Node12 -->
<g id="Node000012" class="node">
<title>Node12</title>
<g id="a_Node000012"><a xlink:href="structOSContext.html" target="_top" xlink:title=" ">
<polygon fill="white" stroke="#666666" points="853,-341.5 789.75,-341.5 789.75,-322.25 853,-322.25 853,-341.5"/>
<text text-anchor="middle" x="821.38" y="-328" font-family="Helvetica,sans-Serif" font-size="10.00">OSContext</text>
</a>
</g>
</g>
<!-- Node12&#45;&gt;Node11 -->
<g id="edge12_Node000011_Node000012" class="edge">
<title>Node12&#45;&gt;Node11</title>
<g id="a_edge12_Node000011_Node000012"><a xlink:title=" ">
<path fill="none" stroke="#9a32cd" stroke-dasharray="5,2" d="M789.83,-317.42C755.64,-302.84 702.04,-279.98 672.56,-267.41"/>
<polygon fill="#9a32cd" stroke="#9a32cd" points="788.22,-320.54 798.8,-321.25 790.97,-314.1 788.22,-320.54"/>
</a>
</g>
<text text-anchor="middle" x="773.25" y="-290.75" font-family="Helvetica,sans-Serif" font-size="10.00" fill="grey"> context</text>
</g>
<!-- Node13&#45;&gt;Node11 -->
<g id="edge14_Node000011_Node000013" class="edge">
<title>Node13&#45;&gt;Node11</title>
<g id="a_edge14_Node000011_Node000013"><a xlink:title=" ">
<path fill="none" stroke="#9a32cd" stroke-dasharray="5,2" d="M676.25,-187.84C677.26,-200.27 677.14,-216.35 672.38,-229.75 670.01,-236.41 665.24,-242.67 660.85,-247.45"/>
<polygon fill="#9a32cd" stroke="#9a32cd" points="679.74,-187.52 675.12,-177.99 672.78,-188.32 679.74,-187.52"/>
</a>
</g>
<text text-anchor="middle" x="719.5" y="-220.25" font-family="Helvetica,sans-Serif" font-size="10.00" fill="grey"> active_threads_link</text>
<text text-anchor="middle" x="719.5" y="-209" font-family="Helvetica,sans-Serif" font-size="10.00" fill="grey">link</text>
</g>
<!-- Node14&#45;&gt;Node11 -->
<g id="edge17_Node000011_Node000014" class="edge">
<title>Node14&#45;&gt;Node11</title>
<g id="a_edge17_Node000011_Node000014"><a xlink:title=" ">
<path fill="none" stroke="#9a32cd" stroke-dasharray="5,2" d="M561.91,-311.34C559.1,-302.55 558.07,-292.49 563.62,-285 576.71,-267.35 601.19,-260.99 620.97,-258.88"/>
<polygon fill="#9a32cd" stroke="#9a32cd" points="558.61,-312.52 565.64,-320.44 565.08,-309.86 558.61,-312.52"/>
</a>
</g>
<text text-anchor="middle" x="599.75" y="-290.75" font-family="Helvetica,sans-Serif" font-size="10.00" fill="grey"> owned_mutexes</text>
</g>
<!-- Node15&#45;&gt;Node9 -->
<g id="edge20_Node000009_Node000015" class="edge">
<title>Node15&#45;&gt;Node9</title>
<g id="a_edge20_Node000009_Node000015"><a xlink:title=" ">
<path fill="none" stroke="#9a32cd" stroke-dasharray="5,2" d="M727.44,-352.39C723.16,-362.24 716.85,-373.8 708.38,-382 699.76,-390.33 688.21,-396.63 677.69,-401.15"/>
<polygon fill="#9a32cd" stroke="#9a32cd" points="730.6,-353.92 730.98,-343.33 724.08,-351.37 730.6,-353.92"/>
</a>
</g>
<text text-anchor="middle" x="732" y="-366.88" font-family="Helvetica,sans-Serif" font-size="10.00" fill="grey"> link</text>
</g>
<!-- Node16 -->
<g id="Node000016" class="node">
<title>Node16</title>
<g id="a_Node000016"><a xlink:href="classJSUTree.html" target="_top" xlink:title=" ">
<polygon fill="white" stroke="#666666" points="412.12,-267 298.62,-267 298.62,-247.75 412.12,-247.75 412.12,-267"/>
<text text-anchor="middle" x="355.38" y="-253.5" font-family="Helvetica,sans-Serif" font-size="10.00">JSUTree&lt; JKRHeap &gt;</text>
</a>
</g>
</g>
<!-- Node16&#45;&gt;Node8 -->
<g id="edge22_Node000008_Node000016" class="edge">
<title>Node16&#45;&gt;Node8</title>
<g id="a_edge22_Node000008_Node000016"><a xlink:title=" ">
<path fill="none" stroke="#9a32cd" stroke-dasharray="5,2" d="M342.34,-238.33C328.85,-219.64 308.32,-191.21 297.91,-176.8"/>
<polygon fill="#9a32cd" stroke="#9a32cd" points="339.43,-240.27 348.12,-246.33 345.1,-236.17 339.43,-240.27"/>
</a>
</g>
<text text-anchor="middle" x="360.25" y="-214.62" font-family="Helvetica,sans-Serif" font-size="10.00" fill="grey"> mChildTree</text>
</g>
<!-- Node17 -->
<g id="Node000017" class="node">
<title>Node17</title>
<g id="a_Node000017"><a xlink:href="classJSUList.html" target="_top" xlink:title=" ">
<polygon fill="white" stroke="#666666" points="420.62,-380.38 346.12,-380.38 346.12,-361.12 420.62,-361.12 420.62,-380.38"/>
<text text-anchor="middle" x="383.38" y="-366.88" font-family="Helvetica,sans-Serif" font-size="10.00">JSUList&lt; T &gt;</text>
</a>
</g>
</g>
<!-- Node17&#45;&gt;Node16 -->
<g id="edge23_Node000016_Node000017" class="edge">
<title>Node17&#45;&gt;Node16</title>
<g id="a_edge23_Node000016_Node000017"><a xlink:title=" ">
<path fill="none" stroke="#63b8ff" d="M385.2,-349.43C385.49,-340.95 385.22,-331.04 383.38,-322.25 379.05,-301.63 367.67,-279.53 360.82,-267.49"/>
<polygon fill="#63b8ff" stroke="#63b8ff" points="381.71,-349.17 384.55,-359.37 388.69,-349.62 381.71,-349.17"/>
</a>
</g>
</g>
<!-- Node18 -->
<g id="Node000018" class="node">
<title>Node18</title>
<g id="a_Node000018"><a xlink:href="classJSUPtrList.html" target="_top" xlink:title=" ">
<polygon fill="white" stroke="#666666" points="275.75,-500.25 211,-500.25 211,-481 275.75,-481 275.75,-500.25"/>
<text text-anchor="middle" x="243.38" y="-486.75" font-family="Helvetica,sans-Serif" font-size="10.00">JSUPtrList</text>
</a>
</g>
</g>
<!-- Node18&#45;&gt;Node17 -->
<g id="edge24_Node000017_Node000018" class="edge">
<title>Node18&#45;&gt;Node17</title>
<g id="a_edge24_Node000017_Node000018"><a xlink:title=" ">
<path fill="none" stroke="#63b8ff" d="M265.81,-474.09C270.95,-470.48 276.37,-466.63 281.38,-463 305.66,-445.39 312.99,-442.47 335.38,-422.5 350.58,-408.94 366.5,-391.32 375.65,-380.81"/>
<polygon fill="#63b8ff" stroke="#63b8ff" points="263.9,-471.15 257.7,-479.74 267.91,-476.89 263.9,-471.15"/>
</a>
</g>
</g>
<!-- Node19 -->
<g id="Node000019" class="node">
<title>Node19</title>
<g id="a_Node000019"><a xlink:href="classJSUPtrLink.html" target="_top" xlink:title=" ">
<polygon fill="white" stroke="#666666" points="277.88,-420.88 210.88,-420.88 210.88,-401.62 277.88,-401.62 277.88,-420.88"/>
<text text-anchor="middle" x="244.38" y="-407.38" font-family="Helvetica,sans-Serif" font-size="10.00">JSUPtrLink</text>
</a>
</g>
</g>
<!-- Node18&#45;&gt;Node19 -->
<g id="edge26_Node000019_Node000018" class="edge">
<title>Node18&#45;&gt;Node19</title>
<g id="a_edge26_Node000019_Node000018"><a xlink:title=" ">
<path fill="none" stroke="#9a32cd" stroke-dasharray="5,2" d="M249.15,-469.96C249.65,-467.63 250.08,-465.28 250.38,-463 251.66,-453.08 251.42,-450.45 250.38,-440.5 249.68,-433.92 248.11,-426.61 246.75,-421.08"/>
<polygon fill="#9a32cd" stroke="#9a32cd" points="245.82,-468.84 246.67,-479.4 252.59,-470.61 245.82,-468.84"/>
</a>
</g>
<text text-anchor="middle" x="263.88" y="-447.88" font-family="Helvetica,sans-Serif" font-size="10.00" fill="grey"> mList</text>
</g>
<!-- Node21 -->
<g id="Node000021" class="node">
<title>Node21</title>
<g id="a_Node000021"><a xlink:href="classJSUList.html" target="_top" xlink:title=" ">
<polygon fill="white" stroke="#666666" points="187.12,-304.25 61.62,-304.25 61.62,-285 187.12,-285 187.12,-304.25"/>
<text text-anchor="middle" x="124.38" y="-290.75" font-family="Helvetica,sans-Serif" font-size="10.00">JSUList&lt; JKRDisposer &gt;</text>
</a>
</g>
</g>
<!-- Node18&#45;&gt;Node21 -->
<g id="edge31_Node000021_Node000018" class="edge">
<title>Node18&#45;&gt;Node21</title>
<g id="a_edge31_Node000021_Node000018"><a xlink:title=" ">
<path fill="none" stroke="#63b8ff" d="M220.34,-473.7C216.42,-470.42 212.59,-466.8 209.38,-463 164.97,-410.5 136.02,-330.84 127.21,-304.45"/>
<polygon fill="#63b8ff" stroke="#63b8ff" points="218.11,-476.4 228.17,-479.72 222.38,-470.85 218.11,-476.4"/>
</a>
</g>
</g>
<!-- Node19&#45;&gt;Node18 -->
<g id="edge25_Node000018_Node000019" class="edge">
<title>Node19&#45;&gt;Node18</title>
<g id="a_edge25_Node000018_Node000019"><a xlink:title=" ">
<path fill="none" stroke="#9a32cd" stroke-dasharray="5,2" d="M223.74,-429.25C220.84,-432.66 218.28,-436.44 216.62,-440.5 212.84,-449.76 212.79,-453.77 216.62,-463 219.49,-469.9 225.11,-475.93 230.46,-480.5"/>
<polygon fill="#9a32cd" stroke="#9a32cd" points="226.12,-431.82 230.77,-422.3 221.2,-426.84 226.12,-431.82"/>
</a>
</g>
<text text-anchor="middle" x="233.25" y="-453.5" font-family="Helvetica,sans-Serif" font-size="10.00" fill="grey"> mHead</text>
<text text-anchor="middle" x="233.25" y="-442.25" font-family="Helvetica,sans-Serif" font-size="10.00" fill="grey">mTail</text>
</g>
<!-- Node19&#45;&gt;Node19 -->
<g id="edge27_Node000019_Node000019" class="edge">
<title>Node19&#45;&gt;Node19</title>
<g id="a_edge27_Node000019_Node000019"><a xlink:title=" ">
<path fill="none" stroke="#9a32cd" stroke-dasharray="5,2" d="M289.13,-417.31C293.27,-416.06 295.88,-414.04 295.88,-411.25 295.88,-406.42 288.08,-403.9 278.06,-403.67"/>
<polygon fill="#9a32cd" stroke="#9a32cd" points="288.99,-413.8 279.56,-418.62 289.94,-420.74 288.99,-413.8"/>
</a>
</g>
<text text-anchor="middle" x="311.25" y="-413" font-family="Helvetica,sans-Serif" font-size="10.00" fill="grey"> mNext</text>
<text text-anchor="middle" x="311.25" y="-401.75" font-family="Helvetica,sans-Serif" font-size="10.00" fill="grey">mPrev</text>
</g>
<!-- Node20 -->
<g id="Node000020" class="node">
<title>Node20</title>
<g id="a_Node000020"><a xlink:href="classJSULink.html" target="_top" xlink:title=" ">
<polygon fill="white" stroke="#666666" points="374.75,-341.5 298,-341.5 298,-322.25 374.75,-322.25 374.75,-341.5"/>
<text text-anchor="middle" x="336.38" y="-328" font-family="Helvetica,sans-Serif" font-size="10.00">JSULink&lt; T &gt;</text>
</a>
</g>
</g>
<!-- Node19&#45;&gt;Node20 -->
<g id="edge29_Node000020_Node000019" class="edge">
<title>Node19&#45;&gt;Node20</title>
<g id="a_edge29_Node000020_Node000019"><a xlink:title=" ">
<path fill="none" stroke="#63b8ff" d="M263.58,-394.1C282.42,-378.25 310.47,-354.66 325.66,-341.89"/>
<polygon fill="#63b8ff" stroke="#63b8ff" points="261.49,-391.28 256.09,-400.4 265.99,-396.64 261.49,-391.28"/>
</a>
</g>
</g>
<!-- Node22 -->
<g id="Node000022" class="node">
<title>Node22</title>
<g id="a_Node000022"><a xlink:href="classJSULink.html" target="_top" xlink:title=" ">
<polygon fill="white" stroke="#666666" points="280.25,-341.5 152.5,-341.5 152.5,-322.25 280.25,-322.25 280.25,-341.5"/>
<text text-anchor="middle" x="216.38" y="-328" font-family="Helvetica,sans-Serif" font-size="10.00">JSULink&lt; JKRDisposer &gt;</text>
</a>
</g>
</g>
<!-- Node19&#45;&gt;Node22 -->
<g id="edge34_Node000022_Node000019" class="edge">
<title>Node19&#45;&gt;Node22</title>
<g id="a_edge34_Node000022_Node000019"><a xlink:title=" ">
<path fill="none" stroke="#63b8ff" d="M237.29,-390.67C231.58,-374.91 223.83,-353.49 219.55,-341.65"/>
<polygon fill="#63b8ff" stroke="#63b8ff" points="233.95,-391.74 240.65,-399.95 240.54,-389.36 233.95,-391.74"/>
</a>
</g>
</g>
<!-- Node20&#45;&gt;Node16 -->
<g id="edge28_Node000016_Node000020" class="edge">
<title>Node20&#45;&gt;Node16</title>
<g id="a_edge28_Node000016_Node000020"><a xlink:title=" ">
<path fill="none" stroke="#63b8ff" d="M341.51,-311.28C345.26,-296.97 350.17,-278.24 353.03,-267.34"/>
<polygon fill="#63b8ff" stroke="#63b8ff" points="338.24,-309.96 339.09,-320.52 345.01,-311.73 338.24,-309.96"/>
</a>
</g>
</g>
<!-- Node21&#45;&gt;Node8 -->
<g id="edge30_Node000008_Node000021" class="edge">
<title>Node21&#45;&gt;Node8</title>
<g id="a_edge30_Node000008_Node000021"><a xlink:title=" ">
<path fill="none" stroke="#9a32cd" stroke-dasharray="5,2" d="M124.9,-273.16C126.03,-264.58 128.59,-254.95 134.12,-247.75 169.13,-202.2 198.2,-215.34 249.38,-189.25 257.4,-185.16 266.29,-180.61 273.81,-176.76"/>
<polygon fill="#9a32cd" stroke="#9a32cd" points="121.41,-272.84 124.2,-283.07 128.4,-273.34 121.41,-272.84"/>
</a>
</g>
<text text-anchor="middle" x="166" y="-253.5" font-family="Helvetica,sans-Serif" font-size="10.00" fill="grey"> mDisposerList</text>
</g>
<!-- Node22&#45;&gt;Node7 -->
<g id="edge33_Node000007_Node000022" class="edge">
<title>Node22&#45;&gt;Node7</title>
<g id="a_edge33_Node000007_Node000022"><a xlink:title=" ">
<path fill="none" stroke="#9a32cd" stroke-dasharray="5,2" d="M223.94,-311.28C229.47,-296.97 236.7,-278.24 240.91,-267.34"/>
<polygon fill="#9a32cd" stroke="#9a32cd" points="220.69,-309.98 220.35,-320.57 227.22,-312.51 220.69,-309.98"/>
</a>
</g>
<text text-anchor="middle" x="248" y="-290.75" font-family="Helvetica,sans-Serif" font-size="10.00" fill="grey"> mLink</text>
</g>
<!-- Node23&#45;&gt;Node1 -->
<g id="edge36_Node000001_Node000023" class="edge">
<title>Node23&#45;&gt;Node1</title>
<g id="a_edge36_Node000001_Node000023"><a xlink:title=" ">
<path fill="none" stroke="#9a32cd" stroke-dasharray="5,2" d="M429.58,-62C396.18,-49.4 346.61,-30.71 317.39,-19.68"/>
<polygon fill="#9a32cd" stroke="#9a32cd" points="428.23,-65.23 438.82,-65.49 430.7,-58.68 428.23,-65.23"/>
</a>
</g>
<text text-anchor="middle" x="427.75" y="-39" font-family="Helvetica,sans-Serif" font-size="10.00" fill="grey"> mMessageQueue</text>
</g>
</g>
</svg>

<g id="navigator" transform="translate(0 0)" fill="#404254">
  <rect fill="#f2f5e9" fill-opacity="0.5" stroke="#606060" stroke-width=".5" x="0" y="0" width="60" height="60"/>
  <use id="zoomplus" xlink:href="#zoomPlus" x="17" y="9" onmousedown="handleZoom(evt,'in')"/>
  <use id="zoomminus" xlink:href="#zoomMin" x="42" y="9" onmousedown="handleZoom(evt,'out')"/>
  <use id="reset" xlink:href="#resetDef" x="30" y="36" onmousedown="handleReset()"/>
   <use id="arrowup" xlink:href="#arrowUp" x="0" y="0" onmousedown="handlePan(0,-1)"/>
  <use id="arrowright" xlink:href="#arrowRight" x="0" y="0" onmousedown="handlePan(1,0)"/>
  <use id="arrowdown" xlink:href="#arrowDown" x="0" y="0" onmousedown="handlePan(0,1)"/>
  <use id="arrowleft" xlink:href="#arrowLeft" x="0" y="0" onmousedown="handlePan(-1,0)"/>
</g>
<svg viewBox="0 0 15 15" width="100%" height="30px" preserveAspectRatio="xMaxYMin meet">
 <g id="arrow_out" transform="scale(0.3 0.3)">
  <a xlink:href="classJKRAramStreamCommand__coll__graph_org.svg" target="_base">
   <rect id="button" ry="5" rx="5" y="6" x="6" height="38" width="38"
        fill="#f2f5e9" fill-opacity="0.5" stroke="#606060" stroke-width="1.0"/>
   <path id="arrow"
     d="M 11.500037,31.436501 C 11.940474,20.09759 22.043105,11.32322 32.158766,21.979434 L 37.068811,17.246167 C 37.068811,17.246167 37.088388,32 37.088388,32 L 22.160133,31.978069 C 22.160133,31.978069 26.997745,27.140456 26.997745,27.140456 C 18.528582,18.264221 13.291696,25.230495 11.500037,31.436501 z"
     style="fill:#404040;"/>
  </a>
 </g>
</svg>

<style type='text/css'>
<![CDATA[
[data-mouse-over-selected='false'] { opacity: 0.7; }
[data-mouse-over-selected='true']  { opacity: 1.0; }
]]>
</style>
<script type="application/ecmascript"><![CDATA[
document.addEventListener('DOMContentLoaded', (event) => {
  highlightEdges();
  highlightAdjacentNodes();
});
]]></script>
</svg>
