<?xml version="1.0" encoding="UTF-8" standalone="no"?>
<!DOCTYPE svg PUBLIC "-//W3C//DTD SVG 1.1//EN"
 "http://www.w3.org/Graphics/SVG/1.1/DTD/svg11.dtd">
<!-- Generated by graphviz version 9.0.0 (20230911.1827)
 -->
<!-- Title: JKRMemArchive Pages: 1 -->
<svg width="1276pt" height="505pt"
 viewBox="0.00 0.00 1276.12 505.00" xmlns="http://www.w3.org/2000/svg" xmlns:xlink="http://www.w3.org/1999/xlink">
<g id="graph0" class="graph" transform="scale(1 1) rotate(0) translate(4 501)">
<title>JKRMemArchive</title>
<!-- Node1 -->
<g id="Node000001" class="node">
<title>Node1</title>
<g id="a_Node000001"><a xlink:title=" ">
<polygon fill="#999999" stroke="#666666" points="497.25,-19.25 407.75,-19.25 407.75,0 497.25,0 497.25,-19.25"/>
<text text-anchor="middle" x="452.5" y="-5.75" font-family="Helvetica,sans-Serif" font-size="10.00">JKRMemArchive</text>
</a>
</g>
</g>
<!-- Node2 -->
<g id="Node000002" class="node">
<title>Node2</title>
<g id="a_Node000002"><a xlink:href="classJKRArchive.html" target="_top" xlink:title=" ">
<polygon fill="white" stroke="#666666" points="533.38,-97 465.62,-97 465.62,-77.75 533.38,-77.75 533.38,-97"/>
<text text-anchor="middle" x="499.5" y="-83.5" font-family="Helvetica,sans-Serif" font-size="10.00">JKRArchive</text>
</a>
</g>
</g>
<!-- Node2&#45;&gt;Node1 -->
<g id="edge1_Node000001_Node000002" class="edge">
<title>Node2&#45;&gt;Node1</title>
<g id="a_edge1_Node000001_Node000002"><a xlink:title=" ">
<path fill="none" stroke="#63b8ff" d="M493.08,-66.9C489.52,-57.52 484.58,-46.36 478.5,-37.25 474.19,-30.8 468.21,-24.55 463.07,-19.72"/>
<polygon fill="#63b8ff" stroke="#63b8ff" points="489.7,-67.85 496.33,-76.12 496.31,-65.52 489.7,-67.85"/>
</a>
</g>
</g>
<!-- Node3 -->
<g id="Node000003" class="node">
<title>Node3</title>
<g id="a_Node000003"><a xlink:href="classJKRFileLoader.html" target="_top" xlink:title=" ">
<polygon fill="white" stroke="#666666" points="197.75,-176.38 117.25,-176.38 117.25,-157.12 197.75,-157.12 197.75,-176.38"/>
<text text-anchor="middle" x="157.5" y="-162.88" font-family="Helvetica,sans-Serif" font-size="10.00">JKRFileLoader</text>
</a>
</g>
</g>
<!-- Node3&#45;&gt;Node2 -->
<g id="edge2_Node000002_Node000003" class="edge">
<title>Node3&#45;&gt;Node2</title>
<g id="a_edge2_Node000002_Node000003"><a xlink:title=" ">
<path fill="none" stroke="#63b8ff" d="M208.6,-154.19C279.38,-138.18 405.31,-109.68 465.56,-96.05"/>
<polygon fill="#63b8ff" stroke="#63b8ff" points="208.19,-150.69 199.21,-156.31 209.74,-157.52 208.19,-150.69"/>
</a>
</g>
</g>
<!-- Node3&#45;&gt;Node3 -->
<g id="edge34_Node000003_Node000003" class="edge">
<title>Node3&#45;&gt;Node3</title>
<g id="a_edge34_Node000003_Node000003"><a xlink:title=" ">
<path fill="none" stroke="#9a32cd" stroke-dasharray="5,2" d="M209.13,-173.33C213.22,-171.88 215.75,-169.69 215.75,-166.75 215.75,-161.66 208.18,-158.82 198.06,-158.22"/>
<polygon fill="#9a32cd" stroke="#9a32cd" points="208.79,-169.83 199.55,-175.02 210.01,-176.72 208.79,-169.83"/>
</a>
</g>
<text text-anchor="middle" x="251.75" y="-162.88" font-family="Helvetica,sans-Serif" font-size="10.00" fill="grey"> sCurrentVolume</text>
</g>
<!-- Node4 -->
<g id="Node000004" class="node">
<title>Node4</title>
<g id="a_Node000004"><a xlink:href="classJKRDisposer.html" target="_top" xlink:title=" ">
<polygon fill="white" stroke="#666666" points="324,-267 251,-267 251,-247.75 324,-247.75 324,-267"/>
<text text-anchor="middle" x="287.5" y="-253.5" font-family="Helvetica,sans-Serif" font-size="10.00">JKRDisposer</text>
</a>
</g>
</g>
<!-- Node4&#45;&gt;Node3 -->
<g id="edge3_Node000003_Node000004" class="edge">
<title>Node4&#45;&gt;Node3</title>
<g id="a_edge3_Node000003_Node000004"><a xlink:title=" ">
<path fill="none" stroke="#63b8ff" d="M265.1,-241.1C237.92,-222.57 192.99,-191.94 170.77,-176.8"/>
<polygon fill="#63b8ff" stroke="#63b8ff" points="263.08,-243.96 273.31,-246.7 267.02,-238.18 263.08,-243.96"/>
</a>
</g>
</g>
<!-- Node5 -->
<g id="Node000005" class="node">
<title>Node5</title>
<g id="a_Node000005"><a xlink:href="structJKRHeap.html" target="_top" xlink:title=" ">
<polygon fill="white" stroke="#666666" points="363.5,-176.38 305.5,-176.38 305.5,-157.12 363.5,-157.12 363.5,-176.38"/>
<text text-anchor="middle" x="334.5" y="-162.88" font-family="Helvetica,sans-Serif" font-size="10.00">JKRHeap</text>
</a>
</g>
</g>
<!-- Node4&#45;&gt;Node5 -->
<g id="edge5_Node000005_Node000004" class="edge">
<title>Node4&#45;&gt;Node5</title>
<g id="a_edge5_Node000005_Node000004"><a xlink:title=" ">
<path fill="none" stroke="#63b8ff" d="M294.83,-237.04C298.56,-227.84 303.38,-216.79 308.5,-207.25 314.41,-196.26 322.47,-184.39 328.04,-176.57"/>
<polygon fill="#63b8ff" stroke="#63b8ff" points="291.69,-235.46 291.31,-246.05 298.21,-238.01 291.69,-235.46"/>
</a>
</g>
</g>
<!-- Node5&#45;&gt;Node2 -->
<g id="edge37_Node000002_Node000005" class="edge">
<title>Node5&#45;&gt;Node2</title>
<g id="a_edge37_Node000002_Node000005"><a xlink:title=" ">
<path fill="none" stroke="#9a32cd" stroke-dasharray="5,2" d="M363.87,-151.98C397.44,-136.23 451.43,-110.92 480.12,-97.46"/>
<polygon fill="#9a32cd" stroke="#9a32cd" points="362.69,-148.67 355.12,-156.08 365.66,-155 362.69,-148.67"/>
</a>
</g>
<text text-anchor="middle" x="458.38" y="-116.75" font-family="Helvetica,sans-Serif" font-size="10.00" fill="grey"> mHeap</text>
</g>
<!-- Node5&#45;&gt;Node4 -->
<g id="edge4_Node000004_Node000005" class="edge">
<title>Node5&#45;&gt;Node4</title>
<g id="a_edge4_Node000004_Node000005"><a xlink:title=" ">
<path fill="none" stroke="#9a32cd" stroke-dasharray="5,2" d="M327.92,-187.14C323.28,-199.7 316.49,-216.19 308.5,-229.75 304.79,-236.04 299.75,-242.48 295.54,-247.46"/>
<polygon fill="#9a32cd" stroke="#9a32cd" points="331.13,-188.55 331.16,-177.95 324.53,-186.21 331.13,-188.55"/>
</a>
</g>
<text text-anchor="middle" x="336.38" y="-214.62" font-family="Helvetica,sans-Serif" font-size="10.00" fill="grey"> mHeap</text>
</g>
<!-- Node5&#45;&gt;Node5 -->
<g id="edge29_Node000005_Node000005" class="edge">
<title>Node5&#45;&gt;Node5</title>
<g id="a_edge29_Node000005_Node000005"><a xlink:title=" ">
<path fill="none" stroke="#9a32cd" stroke-dasharray="5,2" d="M375.11,-173.74C379.02,-172.32 381.5,-169.99 381.5,-166.75 381.5,-160.98 373.67,-158.1 363.88,-158.1"/>
<polygon fill="#9a32cd" stroke="#9a32cd" points="374.76,-170.26 365.37,-175.18 375.78,-177.18 374.76,-170.26"/>
</a>
</g>
<text text-anchor="middle" x="412.62" y="-179.75" font-family="Helvetica,sans-Serif" font-size="10.00" fill="grey"> sCurrentHeap</text>
<text text-anchor="middle" x="412.62" y="-168.5" font-family="Helvetica,sans-Serif" font-size="10.00" fill="grey">sRootHeap</text>
<text text-anchor="middle" x="412.62" y="-157.25" font-family="Helvetica,sans-Serif" font-size="10.00" fill="grey">sRootHeap2</text>
<text text-anchor="middle" x="412.62" y="-146" font-family="Helvetica,sans-Serif" font-size="10.00" fill="grey">sSystemHeap</text>
</g>
<!-- Node6 -->
<g id="Node000006" class="node">
<title>Node6</title>
<g id="a_Node000006"><a xlink:href="structOSMutex.html" target="_top" xlink:title=" ">
<polygon fill="white" stroke="#666666" points="1108.75,-267 1052.25,-267 1052.25,-247.75 1108.75,-247.75 1108.75,-267"/>
<text text-anchor="middle" x="1080.5" y="-253.5" font-family="Helvetica,sans-Serif" font-size="10.00">OSMutex</text>
</a>
</g>
</g>
<!-- Node6&#45;&gt;Node5 -->
<g id="edge6_Node000005_Node000006" class="edge">
<title>Node6&#45;&gt;Node5</title>
<g id="a_edge6_Node000005_Node000006"><a xlink:title=" ">
<path fill="none" stroke="#9a32cd" stroke-dasharray="5,2" d="M1040.68,-253.26C941.28,-245.22 674.35,-222.12 453.5,-189.25 422.77,-184.68 387.8,-178.2 363.76,-173.56"/>
<polygon fill="#9a32cd" stroke="#9a32cd" points="1040.2,-256.73 1050.45,-254.04 1040.76,-249.75 1040.2,-256.73"/>
</a>
</g>
<text text-anchor="middle" x="795.88" y="-214.62" font-family="Helvetica,sans-Serif" font-size="10.00" fill="grey"> mMutex</text>
</g>
<!-- Node8 -->
<g id="Node000008" class="node">
<title>Node8</title>
<g id="a_Node000008"><a xlink:href="structOSThread.html" target="_top" xlink:title=" ">
<polygon fill="white" stroke="#666666" points="1026.62,-97 966.38,-97 966.38,-77.75 1026.62,-77.75 1026.62,-97"/>
<text text-anchor="middle" x="996.5" y="-83.5" font-family="Helvetica,sans-Serif" font-size="10.00">OSThread</text>
</a>
</g>
</g>
<!-- Node6&#45;&gt;Node8 -->
<g id="edge13_Node000008_Node000006" class="edge">
<title>Node6&#45;&gt;Node8</title>
<g id="a_edge13_Node000008_Node000006"><a xlink:title=" ">
<path fill="none" stroke="#9a32cd" stroke-dasharray="5,2" d="M1084.57,-236.27C1089.39,-206.53 1093.64,-150.48 1066.5,-115 1057.1,-102.71 1041.31,-96.09 1027.11,-92.53"/>
<polygon fill="#9a32cd" stroke="#9a32cd" points="1081.19,-235.32 1082.84,-245.79 1088.08,-236.58 1081.19,-235.32"/>
</a>
</g>
<text text-anchor="middle" x="1101.75" y="-162.88" font-family="Helvetica,sans-Serif" font-size="10.00" fill="grey"> mutex</text>
</g>
<!-- Node11 -->
<g id="Node000011" class="node">
<title>Node11</title>
<g id="a_Node000011"><a xlink:href="structOSMutexQueue.html" target="_top" xlink:title=" ">
<polygon fill="white" stroke="#666666" points="1044,-176.38 959,-176.38 959,-157.12 1044,-157.12 1044,-176.38"/>
<text text-anchor="middle" x="1001.5" y="-162.88" font-family="Helvetica,sans-Serif" font-size="10.00">OSMutexQueue</text>
</a>
</g>
</g>
<!-- Node6&#45;&gt;Node11 -->
<g id="edge15_Node000011_Node000006" class="edge">
<title>Node6&#45;&gt;Node11</title>
<g id="a_edge15_Node000011_Node000006"><a xlink:title=" ">
<path fill="none" stroke="#9a32cd" stroke-dasharray="5,2" d="M1056.24,-240.96C1051.68,-237.54 1047.13,-233.74 1043.25,-229.75 1026.97,-213 1012.94,-189.16 1006.05,-176.47"/>
<polygon fill="#9a32cd" stroke="#9a32cd" points="1053.96,-243.64 1064.16,-246.5 1057.97,-237.9 1053.96,-243.64"/>
</a>
</g>
<text text-anchor="middle" x="1054.12" y="-220.25" font-family="Helvetica,sans-Serif" font-size="10.00" fill="grey"> head</text>
<text text-anchor="middle" x="1054.12" y="-209" font-family="Helvetica,sans-Serif" font-size="10.00" fill="grey">tail</text>
</g>
<!-- Node12 -->
<g id="Node000012" class="node">
<title>Node12</title>
<g id="a_Node000012"><a xlink:href="structOSMutexLink.html" target="_top" xlink:title=" ">
<polygon fill="white" stroke="#666666" points="1268.12,-176.38 1192.88,-176.38 1192.88,-157.12 1268.12,-157.12 1268.12,-176.38"/>
<text text-anchor="middle" x="1230.5" y="-162.88" font-family="Helvetica,sans-Serif" font-size="10.00">OSMutexLink</text>
</a>
</g>
</g>
<!-- Node6&#45;&gt;Node12 -->
<g id="edge18_Node000012_Node000006" class="edge">
<title>Node6&#45;&gt;Node12</title>
<g id="a_edge18_Node000012_Node000006"><a xlink:title=" ">
<path fill="none" stroke="#9a32cd" stroke-dasharray="5,2" d="M1119.75,-247.18C1133,-243.06 1147.46,-237.36 1159.5,-229.75 1171.26,-222.32 1170.97,-216.62 1181.25,-207.25 1193.4,-196.17 1208.22,-184.52 1218.41,-176.76"/>
<polygon fill="#9a32cd" stroke="#9a32cd" points="1119.09,-243.73 1110.45,-249.87 1121.03,-250.46 1119.09,-243.73"/>
</a>
</g>
<text text-anchor="middle" x="1190.62" y="-220.25" font-family="Helvetica,sans-Serif" font-size="10.00" fill="grey"> next</text>
<text text-anchor="middle" x="1190.62" y="-209" font-family="Helvetica,sans-Serif" font-size="10.00" fill="grey">prev</text>
</g>
<!-- Node7 -->
<g id="Node000007" class="node">
<title>Node7</title>
<g id="a_Node000007"><a xlink:href="structOSThreadQueue.html" target="_top" xlink:title=" ">
<polygon fill="white" stroke="#666666" points="926.88,-19.25 838.12,-19.25 838.12,0 926.88,0 926.88,-19.25"/>
<text text-anchor="middle" x="882.5" y="-5.75" font-family="Helvetica,sans-Serif" font-size="10.00">OSThreadQueue</text>
</a>
</g>
</g>
<!-- Node7&#45;&gt;Node6 -->
<g id="edge7_Node000006_Node000007" class="edge">
<title>Node7&#45;&gt;Node6</title>
<g id="a_edge7_Node000006_Node000007"><a xlink:title=" ">
<path fill="none" stroke="#9a32cd" stroke-dasharray="5,2" d="M873.55,-29.85C858.56,-65.18 833.33,-141.22 868.5,-189.25 911.15,-247.5 1004.61,-256.47 1051.89,-257.07"/>
<polygon fill="#9a32cd" stroke="#9a32cd" points="876.66,-31.47 877.52,-20.91 870.26,-28.63 876.66,-31.47"/>
</a>
</g>
<text text-anchor="middle" x="864.75" y="-116.75" font-family="Helvetica,sans-Serif" font-size="10.00" fill="grey"> queue</text>
</g>
<!-- Node7&#45;&gt;Node8 -->
<g id="edge10_Node000008_Node000007" class="edge">
<title>Node7&#45;&gt;Node8</title>
<g id="a_edge10_Node000008_Node000007"><a xlink:title=" ">
<path fill="none" stroke="#9a32cd" stroke-dasharray="5,2" d="M899.36,-27.24C910.28,-37.44 925.14,-50.31 939.75,-59.75 950.35,-66.6 963,-72.71 973.66,-77.35"/>
<polygon fill="#9a32cd" stroke="#9a32cd" points="901.95,-24.87 892.3,-20.49 897.11,-29.93 901.95,-24.87"/>
</a>
</g>
<text text-anchor="middle" x="963.88" y="-50.25" font-family="Helvetica,sans-Serif" font-size="10.00" fill="grey"> join_queue</text>
<text text-anchor="middle" x="963.88" y="-39" font-family="Helvetica,sans-Serif" font-size="10.00" fill="grey">queue</text>
</g>
<!-- Node8&#45;&gt;Node6 -->
<g id="edge16_Node000006_Node000008" class="edge">
<title>Node8&#45;&gt;Node6</title>
<g id="a_edge16_Node000006_Node000008"><a xlink:title=" ">
<path fill="none" stroke="#9a32cd" stroke-dasharray="5,2" d="M1038.09,-93.46C1068.02,-99.69 1105.63,-113.53 1120.5,-144.25 1138.33,-181.08 1104.65,-228.01 1088.48,-247.39"/>
<polygon fill="#9a32cd" stroke="#9a32cd" points="1039.02,-90.07 1028.55,-91.7 1037.75,-96.95 1039.02,-90.07"/>
</a>
</g>
<text text-anchor="middle" x="1140.12" y="-162.88" font-family="Helvetica,sans-Serif" font-size="10.00" fill="grey"> thread</text>
</g>
<!-- Node8&#45;&gt;Node7 -->
<g id="edge8_Node000007_Node000008" class="edge">
<title>Node8&#45;&gt;Node7</title>
<g id="a_edge8_Node000007_Node000008"><a xlink:title=" ">
<path fill="none" stroke="#9a32cd" stroke-dasharray="5,2" d="M954.71,-81.92C926.28,-77.93 892.26,-70.95 883.25,-59.75 874.16,-48.45 876.81,-30.5 879.62,-19.71"/>
<polygon fill="#9a32cd" stroke="#9a32cd" points="954.18,-85.38 964.55,-83.2 955.09,-78.44 954.18,-85.38"/>
</a>
</g>
<text text-anchor="middle" x="894.12" y="-50.25" font-family="Helvetica,sans-Serif" font-size="10.00" fill="grey"> head</text>
<text text-anchor="middle" x="894.12" y="-39" font-family="Helvetica,sans-Serif" font-size="10.00" fill="grey">tail</text>
</g>
<!-- Node10 -->
<g id="Node000010" class="node">
<title>Node10</title>
<g id="a_Node000010"><a xlink:href="structOSThreadLink.html" target="_top" xlink:title=" ">
<polygon fill="white" stroke="#666666" points="1061,-19.25 982,-19.25 982,0 1061,0 1061,-19.25"/>
<text text-anchor="middle" x="1021.5" y="-5.75" font-family="Helvetica,sans-Serif" font-size="10.00">OSThreadLink</text>
</a>
</g>
</g>
<!-- Node8&#45;&gt;Node10 -->
<g id="edge12_Node000010_Node000008" class="edge">
<title>Node8&#45;&gt;Node10</title>
<g id="a_edge12_Node000010_Node000008"><a xlink:title=" ">
<path fill="none" stroke="#9a32cd" stroke-dasharray="5,2" d="M993.62,-65.86C993.14,-56.8 993.71,-46.2 997.25,-37.25 999.97,-30.39 1005.33,-24.2 1010.32,-19.51"/>
<polygon fill="#9a32cd" stroke="#9a32cd" points="990.13,-66.21 994.63,-75.8 997.1,-65.5 990.13,-66.21"/>
</a>
</g>
<text text-anchor="middle" x="1006.62" y="-50.25" font-family="Helvetica,sans-Serif" font-size="10.00" fill="grey"> next</text>
<text text-anchor="middle" x="1006.62" y="-39" font-family="Helvetica,sans-Serif" font-size="10.00" fill="grey">prev</text>
</g>
<!-- Node9 -->
<g id="Node000009" class="node">
<title>Node9</title>
<g id="a_Node000009"><a xlink:href="structOSContext.html" target="_top" xlink:title=" ">
<polygon fill="white" stroke="#666666" points="941.12,-176.38 877.88,-176.38 877.88,-157.12 941.12,-157.12 941.12,-176.38"/>
<text text-anchor="middle" x="909.5" y="-162.88" font-family="Helvetica,sans-Serif" font-size="10.00">OSContext</text>
</a>
</g>
</g>
<!-- Node9&#45;&gt;Node8 -->
<g id="edge9_Node000008_Node000009" class="edge">
<title>Node9&#45;&gt;Node8</title>
<g id="a_edge9_Node000008_Node000009"><a xlink:title=" ">
<path fill="none" stroke="#9a32cd" stroke-dasharray="5,2" d="M923.33,-147.92C931.79,-137.65 943.17,-124.86 954.75,-115 962.61,-108.31 972.27,-102.05 980.32,-97.27"/>
<polygon fill="#9a32cd" stroke="#9a32cd" points="920.67,-145.64 917.16,-155.64 926.14,-150.01 920.67,-145.64"/>
</a>
</g>
<text text-anchor="middle" x="971.38" y="-116.75" font-family="Helvetica,sans-Serif" font-size="10.00" fill="grey"> context</text>
</g>
<!-- Node10&#45;&gt;Node8 -->
<g id="edge11_Node000008_Node000010" class="edge">
<title>Node10&#45;&gt;Node8</title>
<g id="a_edge11_Node000008_Node000010"><a xlink:title=" ">
<path fill="none" stroke="#9a32cd" stroke-dasharray="5,2" d="M1024.8,-30.83C1025.47,-39.96 1025.08,-50.7 1021.5,-59.75 1018.79,-66.59 1013.41,-72.7 1008.32,-77.33"/>
<polygon fill="#9a32cd" stroke="#9a32cd" points="1028.31,-30.69 1023.62,-21.19 1021.36,-31.54 1028.31,-30.69"/>
</a>
</g>
<text text-anchor="middle" x="1067.62" y="-50.25" font-family="Helvetica,sans-Serif" font-size="10.00" fill="grey"> active_threads_link</text>
<text text-anchor="middle" x="1067.62" y="-39" font-family="Helvetica,sans-Serif" font-size="10.00" fill="grey">link</text>
</g>
<!-- Node11&#45;&gt;Node8 -->
<g id="edge14_Node000008_Node000011" class="edge">
<title>Node11&#45;&gt;Node8</title>
<g id="a_edge14_Node000008_Node000011"><a xlink:title=" ">
<path fill="none" stroke="#9a32cd" stroke-dasharray="5,2" d="M996.82,-145.89C995.56,-139.64 994.38,-132.69 993.75,-126.25 993.27,-121.27 993.49,-119.99 993.75,-115 994.06,-109.06 994.74,-102.4 995.35,-97.23"/>
<polygon fill="#9a32cd" stroke="#9a32cd" points="993.32,-146.23 998.89,-155.25 1000.15,-144.73 993.32,-146.23"/>
</a>
</g>
<text text-anchor="middle" x="1029.88" y="-116.75" font-family="Helvetica,sans-Serif" font-size="10.00" fill="grey"> owned_mutexes</text>
</g>
<!-- Node12&#45;&gt;Node6 -->
<g id="edge17_Node000006_Node000012" class="edge">
<title>Node12&#45;&gt;Node6</title>
<g id="a_edge17_Node000006_Node000012"><a xlink:title=" ">
<path fill="none" stroke="#9a32cd" stroke-dasharray="5,2" d="M1227.47,-187.71C1224.33,-201.52 1218.02,-219.23 1205.5,-229.75 1191.14,-241.81 1141.27,-249.55 1109.02,-253.42"/>
<polygon fill="#9a32cd" stroke="#9a32cd" points="1230.91,-188.4 1229.28,-177.93 1224.02,-187.13 1230.91,-188.4"/>
</a>
</g>
<text text-anchor="middle" x="1229.12" y="-214.62" font-family="Helvetica,sans-Serif" font-size="10.00" fill="grey"> link</text>
</g>
<!-- Node13 -->
<g id="Node000013" class="node">
<title>Node13</title>
<g id="a_Node000013"><a xlink:href="classJSUTree.html" target="_top" xlink:title=" ">
<polygon fill="white" stroke="#666666" points="455.25,-267 341.75,-267 341.75,-247.75 455.25,-247.75 455.25,-267"/>
<text text-anchor="middle" x="398.5" y="-253.5" font-family="Helvetica,sans-Serif" font-size="10.00">JSUTree&lt; JKRHeap &gt;</text>
</a>
</g>
</g>
<!-- Node13&#45;&gt;Node5 -->
<g id="edge19_Node000005_Node000013" class="edge">
<title>Node13&#45;&gt;Node5</title>
<g id="a_edge19_Node000005_Node000013"><a xlink:title=" ">
<path fill="none" stroke="#9a32cd" stroke-dasharray="5,2" d="M385.47,-238.33C371.97,-219.64 351.44,-191.21 341.04,-176.8"/>
<polygon fill="#9a32cd" stroke="#9a32cd" points="382.55,-240.27 391.24,-246.33 388.23,-236.17 382.55,-240.27"/>
</a>
</g>
<text text-anchor="middle" x="404.38" y="-214.62" font-family="Helvetica,sans-Serif" font-size="10.00" fill="grey"> mChildTree</text>
</g>
<!-- Node14 -->
<g id="Node000014" class="node">
<title>Node14</title>
<g id="a_Node000014"><a xlink:href="classJSUList.html" target="_top" xlink:title=" ">
<polygon fill="white" stroke="#666666" points="454.75,-378.75 380.25,-378.75 380.25,-359.5 454.75,-359.5 454.75,-378.75"/>
<text text-anchor="middle" x="417.5" y="-365.25" font-family="Helvetica,sans-Serif" font-size="10.00">JSUList&lt; T &gt;</text>
</a>
</g>
</g>
<!-- Node14&#45;&gt;Node13 -->
<g id="edge20_Node000013_Node000014" class="edge">
<title>Node14&#45;&gt;Node13</title>
<g id="a_edge20_Node000013_Node000014"><a xlink:title=" ">
<path fill="none" stroke="#63b8ff" d="M416.38,-348.02C415.76,-339.98 414.84,-330.64 413.5,-322.25 410.33,-302.45 404.43,-279.69 401.05,-267.39"/>
<polygon fill="#63b8ff" stroke="#63b8ff" points="412.87,-348.02 417.01,-357.77 419.85,-347.57 412.87,-348.02"/>
</a>
</g>
</g>
<!-- Node15 -->
<g id="Node000015" class="node">
<title>Node15</title>
<g id="a_Node000015"><a xlink:href="classJSUPtrList.html" target="_top" xlink:title=" ">
<polygon fill="white" stroke="#666666" points="357.88,-497 293.12,-497 293.12,-477.75 357.88,-477.75 357.88,-497"/>
<text text-anchor="middle" x="325.5" y="-483.5" font-family="Helvetica,sans-Serif" font-size="10.00">JSUPtrList</text>
</a>
</g>
</g>
<!-- Node15&#45;&gt;Node14 -->
<g id="edge21_Node000014_Node000015" class="edge">
<title>Node15&#45;&gt;Node14</title>
<g id="a_edge21_Node000014_Node000015"><a xlink:title=" ">
<path fill="none" stroke="#63b8ff" d="M340.01,-468.96C342.52,-465.9 345.1,-462.74 347.5,-459.75 370.99,-430.51 398.17,-395.3 410.63,-379.09"/>
<polygon fill="#63b8ff" stroke="#63b8ff" points="337.54,-466.45 333.86,-476.38 342.93,-470.91 337.54,-466.45"/>
</a>
</g>
</g>
<!-- Node16 -->
<g id="Node000016" class="node">
<title>Node16</title>
<g id="a_Node000016"><a xlink:href="classJSUPtrLink.html" target="_top" xlink:title=" ">
<polygon fill="white" stroke="#666666" points="302,-417.62 235,-417.62 235,-398.38 302,-398.38 302,-417.62"/>
<text text-anchor="middle" x="268.5" y="-404.12" font-family="Helvetica,sans-Serif" font-size="10.00">JSUPtrLink</text>
</a>
</g>
</g>
<!-- Node15&#45;&gt;Node16 -->
<g id="edge23_Node000016_Node000015" class="edge">
<title>Node15&#45;&gt;Node16</title>
<g id="a_edge23_Node000016_Node000015"><a xlink:title=" ">
<path fill="none" stroke="#9a32cd" stroke-dasharray="5,2" d="M319.09,-466.59C315.44,-457.13 310.24,-445.99 303.5,-437.25 297.69,-429.7 289.46,-422.93 282.45,-417.91"/>
<polygon fill="#9a32cd" stroke="#9a32cd" points="315.76,-467.66 322.38,-475.93 322.36,-465.34 315.76,-467.66"/>
</a>
</g>
<text text-anchor="middle" x="330" y="-444.62" font-family="Helvetica,sans-Serif" font-size="10.00" fill="grey"> mList</text>
</g>
<!-- Node18 -->
<g id="Node000018" class="node">
<title>Node18</title>
<g id="a_Node000018"><a xlink:href="classJSUList.html" target="_top" xlink:title=" ">
<polygon fill="white" stroke="#666666" points="573.25,-304.25 447.75,-304.25 447.75,-285 573.25,-285 573.25,-304.25"/>
<text text-anchor="middle" x="510.5" y="-290.75" font-family="Helvetica,sans-Serif" font-size="10.00">JSUList&lt; JKRDisposer &gt;</text>
</a>
</g>
</g>
<!-- Node15&#45;&gt;Node18 -->
<g id="edge28_Node000018_Node000015" class="edge">
<title>Node15&#45;&gt;Node18</title>
<g id="a_edge28_Node000018_Node000015"><a xlink:title=" ">
<path fill="none" stroke="#63b8ff" d="M352.15,-471.69C358.31,-468 364.75,-463.9 370.5,-459.75 414.94,-427.66 428.85,-421.22 463.5,-378.75 483.31,-354.47 499.49,-320.73 506.6,-304.74"/>
<polygon fill="#63b8ff" stroke="#63b8ff" points="350.41,-468.66 343.51,-476.7 353.92,-474.71 350.41,-468.66"/>
</a>
</g>
</g>
<!-- Node21 -->
<g id="Node000021" class="node">
<title>Node21</title>
<g id="a_Node000021"><a xlink:href="classJSUList.html" target="_top" xlink:title=" ">
<polygon fill="white" stroke="#666666" points="133,-378.75 0,-378.75 0,-359.5 133,-359.5 133,-378.75"/>
<text text-anchor="middle" x="66.5" y="-365.25" font-family="Helvetica,sans-Serif" font-size="10.00">JSUList&lt; JKRFileLoader &gt;</text>
</a>
</g>
</g>
<!-- Node15&#45;&gt;Node21 -->
<g id="edge36_Node000021_Node000015" class="edge">
<title>Node15&#45;&gt;Node21</title>
<g id="a_edge36_Node000021_Node000015"><a xlink:title=" ">
<path fill="none" stroke="#63b8ff" d="M292,-472.98C281.84,-468.83 270.68,-464.18 260.5,-459.75 195.7,-431.53 119.92,-395.68 85.38,-379.18"/>
<polygon fill="#63b8ff" stroke="#63b8ff" points="290.55,-476.17 301.13,-476.69 293.18,-469.68 290.55,-476.17"/>
</a>
</g>
</g>
<!-- Node16&#45;&gt;Node15 -->
<g id="edge22_Node000015_Node000016" class="edge">
<title>Node16&#45;&gt;Node15</title>
<g id="a_edge22_Node000015_Node000016"><a xlink:title=" ">
<path fill="none" stroke="#9a32cd" stroke-dasharray="5,2" d="M264.3,-429.35C263.37,-439.26 264.02,-450.91 269.75,-459.75 275.12,-468.03 283.83,-473.8 292.78,-477.79"/>
<polygon fill="#9a32cd" stroke="#9a32cd" points="267.75,-429.99 265.84,-419.57 260.83,-428.91 267.75,-429.99"/>
</a>
</g>
<text text-anchor="middle" x="287.38" y="-450.25" font-family="Helvetica,sans-Serif" font-size="10.00" fill="grey"> mHead</text>
<text text-anchor="middle" x="287.38" y="-439" font-family="Helvetica,sans-Serif" font-size="10.00" fill="grey">mTail</text>
</g>
<!-- Node16&#45;&gt;Node16 -->
<g id="edge24_Node000016_Node000016" class="edge">
<title>Node16&#45;&gt;Node16</title>
<g id="a_edge24_Node000016_Node000016"><a xlink:title=" ">
<path fill="none" stroke="#9a32cd" stroke-dasharray="5,2" d="M313.26,-413.82C317.39,-412.62 320,-410.68 320,-408 320,-403.37 312.2,-400.94 302.18,-400.73"/>
<polygon fill="#9a32cd" stroke="#9a32cd" points="313.14,-410.3 303.68,-415.08 314.05,-417.25 313.14,-410.3"/>
</a>
</g>
<text text-anchor="middle" x="335.38" y="-409.75" font-family="Helvetica,sans-Serif" font-size="10.00" fill="grey"> mNext</text>
<text text-anchor="middle" x="335.38" y="-398.5" font-family="Helvetica,sans-Serif" font-size="10.00" fill="grey">mPrev</text>
</g>
<!-- Node17 -->
<g id="Node000017" class="node">
<title>Node17</title>
<g id="a_Node000017"><a xlink:href="classJSULink.html" target="_top" xlink:title=" ">
<polygon fill="white" stroke="#666666" points="404.88,-341.5 328.12,-341.5 328.12,-322.25 404.88,-322.25 404.88,-341.5"/>
<text text-anchor="middle" x="366.5" y="-328" font-family="Helvetica,sans-Serif" font-size="10.00">JSULink&lt; T &gt;</text>
</a>
</g>
</g>
<!-- Node16&#45;&gt;Node17 -->
<g id="edge26_Node000017_Node000016" class="edge">
<title>Node16&#45;&gt;Node17</title>
<g id="a_edge26_Node000017_Node000016"><a xlink:title=" ">
<path fill="none" stroke="#63b8ff" d="M289.44,-391.16C309.34,-376.11 338.55,-354.02 354.69,-341.81"/>
<polygon fill="#63b8ff" stroke="#63b8ff" points="287.59,-388.17 281.72,-397 291.81,-393.76 287.59,-388.17"/>
</a>
</g>
</g>
<!-- Node19 -->
<g id="Node000019" class="node">
<title>Node19</title>
<g id="a_Node000019"><a xlink:href="classJSULink.html" target="_top" xlink:title=" ">
<polygon fill="white" stroke="#666666" points="310.38,-341.5 182.62,-341.5 182.62,-322.25 310.38,-322.25 310.38,-341.5"/>
<text text-anchor="middle" x="246.5" y="-328" font-family="Helvetica,sans-Serif" font-size="10.00">JSULink&lt; JKRDisposer &gt;</text>
</a>
</g>
</g>
<!-- Node16&#45;&gt;Node19 -->
<g id="edge31_Node000019_Node000016" class="edge">
<title>Node16&#45;&gt;Node19</title>
<g id="a_edge31_Node000019_Node000016"><a xlink:title=" ">
<path fill="none" stroke="#63b8ff" d="M262.64,-387.27C258.23,-372.4 252.39,-352.73 249.08,-341.58"/>
<polygon fill="#63b8ff" stroke="#63b8ff" points="259.17,-387.87 265.37,-396.46 265.88,-385.88 259.17,-387.87"/>
</a>
</g>
</g>
<!-- Node20 -->
<g id="Node000020" class="node">
<title>Node20</title>
<g id="a_Node000020"><a xlink:href="classJSULink.html" target="_top" xlink:title=" ">
<polygon fill="white" stroke="#666666" points="251.12,-304.25 115.88,-304.25 115.88,-285 251.12,-285 251.12,-304.25"/>
<text text-anchor="middle" x="183.5" y="-290.75" font-family="Helvetica,sans-Serif" font-size="10.00">JSULink&lt; JKRFileLoader &gt;</text>
</a>
</g>
</g>
<!-- Node16&#45;&gt;Node20 -->
<g id="edge33_Node000020_Node000016" class="edge">
<title>Node16&#45;&gt;Node20</title>
<g id="a_edge33_Node000020_Node000016"><a xlink:title=" ">
<path fill="none" stroke="#63b8ff" d="M234.1,-393.37C212.43,-382.76 186.23,-365.73 173.5,-341.5 167.28,-329.66 173.14,-314.17 178.15,-304.56"/>
<polygon fill="#63b8ff" stroke="#63b8ff" points="232.38,-396.42 242.92,-397.43 235.3,-390.07 232.38,-396.42"/>
</a>
</g>
</g>
<!-- Node17&#45;&gt;Node13 -->
<g id="edge25_Node000013_Node000017" class="edge">
<title>Node17&#45;&gt;Node13</title>
<g id="a_edge25_Node000013_Node000017"><a xlink:title=" ">
<path fill="none" stroke="#63b8ff" d="M374.96,-311.7C381.3,-297.35 389.68,-278.35 394.54,-267.34"/>
<polygon fill="#63b8ff" stroke="#63b8ff" points="371.87,-310.04 371.03,-320.6 378.27,-312.87 371.87,-310.04"/>
</a>
</g>
</g>
<!-- Node18&#45;&gt;Node5 -->
<g id="edge27_Node000005_Node000018" class="edge">
<title>Node18&#45;&gt;Node5</title>
<g id="a_edge27_Node000005_Node000018"><a xlink:title=" ">
<path fill="none" stroke="#9a32cd" stroke-dasharray="5,2" d="M498.2,-275.07C484.62,-255.81 461.11,-225.96 434.5,-207.25 412.97,-192.11 384.82,-181.67 363.87,-175.34"/>
<polygon fill="#9a32cd" stroke="#9a32cd" points="495.29,-277.01 503.83,-283.29 501.07,-273.06 495.29,-277.01"/>
</a>
</g>
<text text-anchor="middle" x="525.12" y="-253.5" font-family="Helvetica,sans-Serif" font-size="10.00" fill="grey"> mDisposerList</text>
</g>
<!-- Node19&#45;&gt;Node4 -->
<g id="edge30_Node000004_Node000019" class="edge">
<title>Node19&#45;&gt;Node4</title>
<g id="a_edge30_Node000004_Node000019"><a xlink:title=" ">
<path fill="none" stroke="#9a32cd" stroke-dasharray="5,2" d="M257.1,-312.13C265.25,-297.72 276.14,-278.46 282.43,-267.34"/>
<polygon fill="#9a32cd" stroke="#9a32cd" points="254.15,-310.24 252.27,-320.67 260.24,-313.69 254.15,-310.24"/>
</a>
</g>
<text text-anchor="middle" x="287.12" y="-290.75" font-family="Helvetica,sans-Serif" font-size="10.00" fill="grey"> mLink</text>
</g>
<!-- Node20&#45;&gt;Node3 -->
<g id="edge32_Node000003_Node000020" class="edge">
<title>Node20&#45;&gt;Node3</title>
<g id="a_edge32_Node000003_Node000020"><a xlink:title=" ">
<path fill="none" stroke="#9a32cd" stroke-dasharray="5,2" d="M170.26,-275.33C168.78,-272.63 167.46,-269.82 166.5,-267 155.64,-235.24 156.07,-194.62 156.92,-176.81"/>
<polygon fill="#9a32cd" stroke="#9a32cd" points="167.19,-277.02 175.54,-283.55 173.08,-273.24 167.19,-277.02"/>
</a>
</g>
<text text-anchor="middle" x="204" y="-253.5" font-family="Helvetica,sans-Serif" font-size="10.00" fill="grey"> mFileLoaderLink</text>
</g>
<!-- Node21&#45;&gt;Node3 -->
<g id="edge35_Node000003_Node000021" class="edge">
<title>Node21&#45;&gt;Node3</title>
<g id="a_edge35_Node000003_Node000021"><a xlink:title=" ">
<path fill="none" stroke="#9a32cd" stroke-dasharray="5,2" d="M56.66,-349.19C49.1,-331.99 41.24,-306.16 49.5,-285 68.82,-235.5 119.91,-194.3 144.25,-176.79"/>
<polygon fill="#9a32cd" stroke="#9a32cd" points="53.28,-350.23 60.75,-357.74 59.59,-347.21 53.28,-350.23"/>
</a>
</g>
<text text-anchor="middle" x="78" y="-290.75" font-family="Helvetica,sans-Serif" font-size="10.00" fill="grey"> sVolumeList</text>
</g>
<!-- Node22 -->
<g id="Node000022" class="node">
<title>Node22</title>
<g id="a_Node000022"><a xlink:href="structSArcDataInfo.html" target="_top" xlink:title=" ">
<polygon fill="white" stroke="#666666" points="536.75,-176.38 462.25,-176.38 462.25,-157.12 536.75,-157.12 536.75,-176.38"/>
<text text-anchor="middle" x="499.5" y="-162.88" font-family="Helvetica,sans-Serif" font-size="10.00">SArcDataInfo</text>
</a>
</g>
</g>
<!-- Node22&#45;&gt;Node2 -->
<g id="edge38_Node000002_Node000022" class="edge">
<title>Node22&#45;&gt;Node2</title>
<g id="a_edge38_Node000002_Node000022"><a xlink:title=" ">
<path fill="none" stroke="#9a32cd" stroke-dasharray="5,2" d="M499.5,-145.71C499.5,-129.99 499.5,-108.87 499.5,-97.15"/>
<polygon fill="#9a32cd" stroke="#9a32cd" points="496,-145.36 499.5,-155.36 503,-145.36 496,-145.36"/>
</a>
</g>
<text text-anchor="middle" x="532.88" y="-116.75" font-family="Helvetica,sans-Serif" font-size="10.00" fill="grey"> mArcInfoBlock</text>
</g>
<!-- Node23 -->
<g id="Node000023" class="node">
<title>Node23</title>
<g id="a_Node000023"><a xlink:href="structJKRArchive_1_1SDIDirEntry.html" target="_top" xlink:title=" ">
<polygon fill="white" stroke="#666666" points="677.75,-176.38 555.25,-176.38 555.25,-157.12 677.75,-157.12 677.75,-176.38"/>
<text text-anchor="middle" x="616.5" y="-162.88" font-family="Helvetica,sans-Serif" font-size="10.00">JKRArchive::SDIDirEntry</text>
</a>
</g>
</g>
<!-- Node23&#45;&gt;Node2 -->
<g id="edge39_Node000002_Node000023" class="edge">
<title>Node23&#45;&gt;Node2</title>
<g id="a_edge39_Node000002_Node000023"><a xlink:title=" ">
<path fill="none" stroke="#9a32cd" stroke-dasharray="5,2" d="M603.66,-147.7C595.25,-136.97 583.45,-123.8 570.5,-115 559.39,-107.46 545.86,-101.7 533.61,-97.5"/>
<polygon fill="#9a32cd" stroke="#9a32cd" points="600.66,-149.53 609.45,-155.44 606.27,-145.34 600.66,-149.53"/>
</a>
</g>
<text text-anchor="middle" x="604" y="-116.75" font-family="Helvetica,sans-Serif" font-size="10.00" fill="grey"> mNodes</text>
</g>
<!-- Node24 -->
<g id="Node000024" class="node">
<title>Node24</title>
<g id="a_Node000024"><a xlink:href="structJKRArchive_1_1SDIFileEntry.html" target="_top" xlink:title=" ">
<polygon fill="white" stroke="#666666" points="821.62,-176.38 695.38,-176.38 695.38,-157.12 821.62,-157.12 821.62,-176.38"/>
<text text-anchor="middle" x="758.5" y="-162.88" font-family="Helvetica,sans-Serif" font-size="10.00">JKRArchive::SDIFileEntry</text>
</a>
</g>
</g>
<!-- Node24&#45;&gt;Node2 -->
<g id="edge40_Node000002_Node000024" class="edge">
<title>Node24&#45;&gt;Node2</title>
<g id="a_edge40_Node000002_Node000024"><a xlink:title=" ">
<path fill="none" stroke="#9a32cd" stroke-dasharray="5,2" d="M728.03,-152.3C701.79,-141.11 662.7,-125.4 627.5,-115 596.26,-105.77 559.83,-98.52 533.83,-93.93"/>
<polygon fill="#9a32cd" stroke="#9a32cd" points="726.48,-155.44 737.05,-156.18 729.25,-149.01 726.48,-155.44"/>
</a>
</g>
<text text-anchor="middle" x="676.25" y="-116.75" font-family="Helvetica,sans-Serif" font-size="10.00" fill="grey"> mFiles</text>
</g>
<!-- Node25 -->
<g id="Node000025" class="node">
<title>Node25</title>
<g id="a_Node000025"><a xlink:href="structSArcHeader.html" target="_top" xlink:title=" ">
<polygon fill="white" stroke="#666666" points="447.12,-97 377.88,-97 377.88,-77.75 447.12,-77.75 447.12,-97"/>
<text text-anchor="middle" x="412.5" y="-83.5" font-family="Helvetica,sans-Serif" font-size="10.00">SArcHeader</text>
</a>
</g>
</g>
<!-- Node25&#45;&gt;Node1 -->
<g id="edge41_Node000001_Node000025" class="edge">
<title>Node25&#45;&gt;Node1</title>
<g id="a_edge41_Node000001_Node000025"><a xlink:title=" ">
<path fill="none" stroke="#9a32cd" stroke-dasharray="5,2" d="M413.15,-66.07C414.19,-56.78 416.51,-45.93 421.5,-37.25 425.53,-30.24 432.11,-24.19 438.18,-19.64"/>
<polygon fill="#9a32cd" stroke="#9a32cd" points="409.67,-65.71 412.49,-75.92 416.65,-66.18 409.67,-65.71"/>
</a>
</g>
<text text-anchor="middle" x="450" y="-44.62" font-family="Helvetica,sans-Serif" font-size="10.00" fill="grey"> mArcHeader</text>
</g>
</g>
</svg>
