<?xml version="1.0" encoding="UTF-8" standalone="no"?>
<!DOCTYPE svg PUBLIC "-//W3C//DTD SVG 1.1//EN"
 "http://www.w3.org/Graphics/SVG/1.1/DTD/svg11.dtd">
<!-- Generated by graphviz version 9.0.0 (20230911.1827)
 -->
<!-- Title: dBgS_ObjLinChk Pages: 1 -->
<svg width="570pt" height="411pt"
 viewBox="0.00 0.00 569.88 411.00" xmlns="http://www.w3.org/2000/svg" xmlns:xlink="http://www.w3.org/1999/xlink">
<g id="graph0" class="graph" transform="scale(1 1) rotate(0) translate(4 407)">
<title>dBgS_ObjLinChk</title>
<!-- Node1 -->
<g id="Node000001" class="node">
<title>Node1</title>
<g id="a_Node000001"><a xlink:title=" ">
<polygon fill="#999999" stroke="#666666" points="336,-19.25 245,-19.25 245,0 336,0 336,-19.25"/>
<text text-anchor="middle" x="290.5" y="-5.75" font-family="Helvetica,sans-Serif" font-size="10.00">dBgS_ObjLinChk</text>
</a>
</g>
</g>
<!-- Node2 -->
<g id="Node000002" class="node">
<title>Node2</title>
<g id="a_Node000002"><a xlink:href="structdBgS__LinChk.html" target="_top" xlink:title=" ">
<polygon fill="white" stroke="#666666" points="328.5,-75.5 252.5,-75.5 252.5,-56.25 328.5,-56.25 328.5,-75.5"/>
<text text-anchor="middle" x="290.5" y="-62" font-family="Helvetica,sans-Serif" font-size="10.00">dBgS_LinChk</text>
</a>
</g>
</g>
<!-- Node2&#45;&gt;Node1 -->
<g id="edge1_Node000001_Node000002" class="edge">
<title>Node2&#45;&gt;Node1</title>
<g id="a_edge1_Node000001_Node000002"><a xlink:title=" ">
<path fill="none" stroke="#63b8ff" d="M290.5,-44.69C290.5,-35.98 290.5,-26.24 290.5,-19.42"/>
<polygon fill="#63b8ff" stroke="#63b8ff" points="287,-44.4 290.5,-54.4 294,-44.4 287,-44.4"/>
</a>
</g>
</g>
<!-- Node3 -->
<g id="Node000003" class="node">
<title>Node3</title>
<g id="a_Node000003"><a xlink:href="structcBgS__LinChk.html" target="_top" xlink:title=" ">
<polygon fill="white" stroke="#666666" points="229.5,-131.75 153.5,-131.75 153.5,-112.5 229.5,-112.5 229.5,-131.75"/>
<text text-anchor="middle" x="191.5" y="-118.25" font-family="Helvetica,sans-Serif" font-size="10.00">cBgS_LinChk</text>
</a>
</g>
</g>
<!-- Node3&#45;&gt;Node2 -->
<g id="edge2_Node000002_Node000003" class="edge">
<title>Node3&#45;&gt;Node2</title>
<g id="a_edge2_Node000002_Node000003"><a xlink:title=" ">
<path fill="none" stroke="#63b8ff" d="M217.94,-106.64C235.81,-96.84 258.86,-84.21 274.13,-75.85"/>
<polygon fill="#63b8ff" stroke="#63b8ff" points="216.26,-103.56 209.18,-111.44 219.63,-109.7 216.26,-103.56"/>
</a>
</g>
</g>
<!-- Node4 -->
<g id="Node000004" class="node">
<title>Node4</title>
<g id="a_Node000004"><a xlink:href="classcBgS__Chk.html" target="_top" xlink:title=" ">
<polygon fill="white" stroke="#666666" points="222.75,-198.25 160.25,-198.25 160.25,-179 222.75,-179 222.75,-198.25"/>
<text text-anchor="middle" x="191.5" y="-184.75" font-family="Helvetica,sans-Serif" font-size="10.00">cBgS_Chk</text>
</a>
</g>
</g>
<!-- Node4&#45;&gt;Node3 -->
<g id="edge3_Node000003_Node000004" class="edge">
<title>Node4&#45;&gt;Node3</title>
<g id="a_edge3_Node000003_Node000004"><a xlink:title=" ">
<path fill="none" stroke="#63b8ff" d="M191.5,-167.15C191.5,-155.32 191.5,-141.04 191.5,-132.02"/>
<polygon fill="#63b8ff" stroke="#63b8ff" points="188,-167.14 191.5,-177.14 195,-167.14 188,-167.14"/>
</a>
</g>
</g>
<!-- Node5 -->
<g id="Node000005" class="node">
<title>Node5</title>
<g id="a_Node000005"><a xlink:href="classcBgS__PolyPassChk.html" target="_top" xlink:title=" ">
<polygon fill="white" stroke="#666666" points="301.38,-311.38 197.62,-311.38 197.62,-292.12 301.38,-292.12 301.38,-311.38"/>
<text text-anchor="middle" x="249.5" y="-297.88" font-family="Helvetica,sans-Serif" font-size="10.00">cBgS_PolyPassChk</text>
</a>
</g>
</g>
<!-- Node5&#45;&gt;Node4 -->
<g id="edge4_Node000004_Node000005" class="edge">
<title>Node5&#45;&gt;Node4</title>
<g id="a_edge4_Node000004_Node000005"><a xlink:title=" ">
<path fill="none" stroke="#9a32cd" stroke-dasharray="5,2" d="M239.46,-281.51C226.78,-257.23 205.5,-216.46 196.15,-198.53"/>
<polygon fill="#9a32cd" stroke="#9a32cd" points="236.32,-283.07 244.05,-290.31 242.53,-279.83 236.32,-283.07"/>
</a>
</g>
<text text-anchor="middle" x="251" y="-223.62" font-family="Helvetica,sans-Serif" font-size="10.00" fill="grey"> mPolyPassChk</text>
</g>
<!-- Node12 -->
<g id="Node000012" class="node">
<title>Node12</title>
<g id="a_Node000012"><a xlink:href="structdBgS__PolyPassChk.html" target="_top" xlink:title=" ">
<polygon fill="white" stroke="#666666" points="443.38,-198.25 339.62,-198.25 339.62,-179 443.38,-179 443.38,-198.25"/>
<text text-anchor="middle" x="391.5" y="-184.75" font-family="Helvetica,sans-Serif" font-size="10.00">dBgS_PolyPassChk</text>
</a>
</g>
</g>
<!-- Node5&#45;&gt;Node12 -->
<g id="edge14_Node000012_Node000005" class="edge">
<title>Node5&#45;&gt;Node12</title>
<g id="a_edge14_Node000012_Node000005"><a xlink:title=" ">
<path fill="none" stroke="#63b8ff" d="M263.11,-282.81C278,-264.19 303.37,-235.17 330.5,-216.25 340.93,-208.98 353.65,-203.04 364.78,-198.63"/>
<polygon fill="#63b8ff" stroke="#63b8ff" points="260.48,-280.5 257.09,-290.54 266,-284.81 260.48,-280.5"/>
</a>
</g>
</g>
<!-- Node6 -->
<g id="Node000006" class="node">
<title>Node6</title>
<g id="a_Node000006"><a xlink:href="classcBgS__GrpPassChk.html" target="_top" xlink:title=" ">
<polygon fill="white" stroke="#666666" points="464.88,-311.38 364.12,-311.38 364.12,-292.12 464.88,-292.12 464.88,-311.38"/>
<text text-anchor="middle" x="414.5" y="-297.88" font-family="Helvetica,sans-Serif" font-size="10.00">cBgS_GrpPassChk</text>
</a>
</g>
</g>
<!-- Node6&#45;&gt;Node4 -->
<g id="edge5_Node000004_Node000006" class="edge">
<title>Node6&#45;&gt;Node4</title>
<g id="a_edge5_Node000004_Node000006"><a xlink:title=" ">
<path fill="none" stroke="#9a32cd" stroke-dasharray="5,2" d="M395.21,-284.71C371.64,-265.85 329.89,-234.77 289.5,-216.25 277.64,-210.81 246.74,-202.76 222.78,-196.94"/>
<polygon fill="#9a32cd" stroke="#9a32cd" points="392.72,-287.2 402.69,-290.79 397.14,-281.77 392.72,-287.2"/>
</a>
</g>
<text text-anchor="middle" x="361.5" y="-223.62" font-family="Helvetica,sans-Serif" font-size="10.00" fill="grey"> mGrpPassChk</text>
</g>
<!-- Node13 -->
<g id="Node000013" class="node">
<title>Node13</title>
<g id="a_Node000013"><a xlink:href="classdBgS__GrpPassChk.html" target="_top" xlink:title=" ">
<polygon fill="white" stroke="#666666" points="561.88,-198.25 461.12,-198.25 461.12,-179 561.88,-179 561.88,-198.25"/>
<text text-anchor="middle" x="511.5" y="-184.75" font-family="Helvetica,sans-Serif" font-size="10.00">dBgS_GrpPassChk</text>
</a>
</g>
</g>
<!-- Node6&#45;&gt;Node13 -->
<g id="edge16_Node000013_Node000006" class="edge">
<title>Node6&#45;&gt;Node13</title>
<g id="a_edge16_Node000013_Node000006"><a xlink:title=" ">
<path fill="none" stroke="#63b8ff" d="M429.87,-283.14C450.87,-259.08 487.73,-216.86 503.72,-198.53"/>
<polygon fill="#63b8ff" stroke="#63b8ff" points="427.37,-280.68 423.43,-290.52 432.65,-285.28 427.37,-280.68"/>
</a>
</g>
</g>
<!-- Node7 -->
<g id="Node000007" class="node">
<title>Node7</title>
<g id="a_Node000007"><a xlink:href="structcBgS__PolyInfo.html" target="_top" xlink:title=" ">
<polygon fill="white" stroke="#666666" points="321.75,-198.25 241.25,-198.25 241.25,-179 321.75,-179 321.75,-198.25"/>
<text text-anchor="middle" x="281.5" y="-184.75" font-family="Helvetica,sans-Serif" font-size="10.00">cBgS_PolyInfo</text>
</a>
</g>
</g>
<!-- Node7&#45;&gt;Node3 -->
<g id="edge6_Node000003_Node000007" class="edge">
<title>Node7&#45;&gt;Node3</title>
<g id="a_edge6_Node000003_Node000007"><a xlink:title=" ">
<path fill="none" stroke="#63b8ff" d="M260.09,-172.28C242.68,-159.81 218.71,-142.62 204.2,-132.23"/>
<polygon fill="#63b8ff" stroke="#63b8ff" points="257.59,-174.79 267.76,-177.77 261.67,-169.1 257.59,-174.79"/>
</a>
</g>
</g>
<!-- Node8 -->
<g id="Node000008" class="node">
<title>Node8</title>
<g id="a_Node000008"><a xlink:href="structcM3dGLin.html" target="_top" xlink:title=" ">
<polygon fill="white" stroke="#666666" points="61,-198.25 0,-198.25 0,-179 61,-179 61,-198.25"/>
<text text-anchor="middle" x="30.5" y="-184.75" font-family="Helvetica,sans-Serif" font-size="10.00">cM3dGLin</text>
</a>
</g>
</g>
<!-- Node8&#45;&gt;Node3 -->
<g id="edge7_Node000003_Node000008" class="edge">
<title>Node8&#45;&gt;Node3</title>
<g id="a_edge7_Node000003_Node000008"><a xlink:title=" ">
<path fill="none" stroke="#9a32cd" stroke-dasharray="5,2" d="M40.83,-168.94C45.63,-161.9 51.95,-154.47 59.5,-149.75 87.66,-132.17 125.19,-125.9 153.04,-123.8"/>
<polygon fill="#9a32cd" stroke="#9a32cd" points="37.94,-166.95 35.72,-177.31 43.92,-170.6 37.94,-166.95"/>
</a>
</g>
<text text-anchor="middle" x="71.5" y="-151.5" font-family="Helvetica,sans-Serif" font-size="10.00" fill="grey"> mLin</text>
</g>
<!-- Node9 -->
<g id="Node000009" class="node">
<title>Node9</title>
<g id="a_Node000009"><a xlink:href="structcXyz.html" target="_top" xlink:title=" ">
<polygon fill="white" stroke="#666666" points="83,-311.38 46,-311.38 46,-292.12 83,-292.12 83,-311.38"/>
<text text-anchor="middle" x="64.5" y="-297.88" font-family="Helvetica,sans-Serif" font-size="10.00">cXyz</text>
</a>
</g>
</g>
<!-- Node9&#45;&gt;Node3 -->
<g id="edge11_Node000003_Node000009" class="edge">
<title>Node9&#45;&gt;Node3</title>
<g id="a_edge11_Node000003_Node000009"><a xlink:title=" ">
<path fill="none" stroke="#9a32cd" stroke-dasharray="5,2" d="M69.64,-280.98C77.76,-250.85 93.9,-195.21 106.5,-179 123.41,-157.25 151.27,-141.26 170.46,-132.08"/>
<polygon fill="#9a32cd" stroke="#9a32cd" points="66.34,-279.79 67.16,-290.35 73.11,-281.58 66.34,-279.79"/>
</a>
</g>
<text text-anchor="middle" x="129" y="-184.75" font-family="Helvetica,sans-Serif" font-size="10.00" fill="grey"> field_0x40</text>
</g>
<!-- Node9&#45;&gt;Node8 -->
<g id="edge8_Node000008_Node000009" class="edge">
<title>Node9&#45;&gt;Node8</title>
<g id="a_edge8_Node000008_Node000009"><a xlink:title=" ">
<path fill="none" stroke="#9a32cd" stroke-dasharray="5,2" d="M58.41,-280.85C50.96,-256.49 38.66,-216.29 33.23,-198.53"/>
<polygon fill="#9a32cd" stroke="#9a32cd" points="55,-281.67 61.27,-290.21 61.7,-279.62 55,-281.67"/>
</a>
</g>
<text text-anchor="middle" x="60.12" y="-229.25" font-family="Helvetica,sans-Serif" font-size="10.00" fill="grey"> mEnd</text>
<text text-anchor="middle" x="60.12" y="-218" font-family="Helvetica,sans-Serif" font-size="10.00" fill="grey">mStart</text>
</g>
<!-- Node9&#45;&gt;Node9 -->
<g id="edge10_Node000009_Node000009" class="edge">
<title>Node9&#45;&gt;Node9</title>
<g id="a_edge10_Node000009_Node000009"><a xlink:title=" ">
<path fill="none" stroke="#9a32cd" stroke-dasharray="5,2" d="M89.27,-313.57C95.93,-312.93 101,-308.99 101,-301.75 101,-290.71 89.24,-287.35 77.98,-291.66"/>
<polygon fill="#9a32cd" stroke="#9a32cd" points="89.89,-310.12 79.47,-312.07 88.83,-317.04 89.89,-310.12"/>
</a>
</g>
<text text-anchor="middle" x="122" y="-337.25" font-family="Helvetica,sans-Serif" font-size="10.00" fill="grey"> BaseX</text>
<text text-anchor="middle" x="122" y="-326" font-family="Helvetica,sans-Serif" font-size="10.00" fill="grey">BaseXY</text>
<text text-anchor="middle" x="122" y="-314.75" font-family="Helvetica,sans-Serif" font-size="10.00" fill="grey">BaseXYZ</text>
<text text-anchor="middle" x="122" y="-303.5" font-family="Helvetica,sans-Serif" font-size="10.00" fill="grey">BaseXZ</text>
<text text-anchor="middle" x="122" y="-292.25" font-family="Helvetica,sans-Serif" font-size="10.00" fill="grey">BaseY</text>
<text text-anchor="middle" x="122" y="-281" font-family="Helvetica,sans-Serif" font-size="10.00" fill="grey">BaseYZ</text>
<text text-anchor="middle" x="122" y="-269.75" font-family="Helvetica,sans-Serif" font-size="10.00" fill="grey">BaseZ</text>
<text text-anchor="middle" x="122" y="-258.5" font-family="Helvetica,sans-Serif" font-size="10.00" fill="grey">Zero</text>
</g>
<!-- Node10 -->
<g id="Node000010" class="node">
<title>Node10</title>
<g id="a_Node000010"><a xlink:href="structVec.html" target="_top" xlink:title=" ">
<polygon fill="white" stroke="#666666" points="81.12,-403 47.88,-403 47.88,-383.75 81.12,-383.75 81.12,-403"/>
<text text-anchor="middle" x="64.5" y="-389.5" font-family="Helvetica,sans-Serif" font-size="10.00">Vec</text>
</a>
</g>
</g>
<!-- Node10&#45;&gt;Node9 -->
<g id="edge9_Node000009_Node000010" class="edge">
<title>Node10&#45;&gt;Node9</title>
<g id="a_edge9_Node000009_Node000010"><a xlink:title=" ">
<path fill="none" stroke="#63b8ff" d="M64.5,-372.19C64.5,-353.19 64.5,-325.64 64.5,-311.64"/>
<polygon fill="#63b8ff" stroke="#63b8ff" points="61,-371.94 64.5,-381.94 68,-371.94 61,-371.94"/>
</a>
</g>
</g>
<!-- Node11 -->
<g id="Node000011" class="node">
<title>Node11</title>
<g id="a_Node000011"><a xlink:href="classdBgS__Chk.html" target="_top" xlink:title=" ">
<polygon fill="white" stroke="#666666" points="422.75,-131.75 360.25,-131.75 360.25,-112.5 422.75,-112.5 422.75,-131.75"/>
<text text-anchor="middle" x="391.5" y="-118.25" font-family="Helvetica,sans-Serif" font-size="10.00">dBgS_Chk</text>
</a>
</g>
</g>
<!-- Node11&#45;&gt;Node2 -->
<g id="edge12_Node000002_Node000011" class="edge">
<title>Node11&#45;&gt;Node2</title>
<g id="a_edge12_Node000002_Node000011"><a xlink:title=" ">
<path fill="none" stroke="#63b8ff" d="M364.79,-106.78C346.51,-96.96 322.85,-84.25 307.2,-75.85"/>
<polygon fill="#63b8ff" stroke="#63b8ff" points="363.02,-109.8 373.49,-111.45 366.34,-103.64 363.02,-109.8"/>
</a>
</g>
</g>
<!-- Node12&#45;&gt;Node11 -->
<g id="edge13_Node000011_Node000012" class="edge">
<title>Node12&#45;&gt;Node11</title>
<g id="a_edge13_Node000011_Node000012"><a xlink:title=" ">
<path fill="none" stroke="#63b8ff" d="M391.5,-167.15C391.5,-155.32 391.5,-141.04 391.5,-132.02"/>
<polygon fill="#63b8ff" stroke="#63b8ff" points="388,-167.14 391.5,-177.14 395,-167.14 388,-167.14"/>
</a>
</g>
</g>
<!-- Node13&#45;&gt;Node11 -->
<g id="edge15_Node000011_Node000013" class="edge">
<title>Node13&#45;&gt;Node11</title>
<g id="a_edge15_Node000011_Node000013"><a xlink:title=" ">
<path fill="none" stroke="#63b8ff" d="M484.6,-173.17C461.24,-160.61 428.15,-142.82 408.35,-132.18"/>
<polygon fill="#63b8ff" stroke="#63b8ff" points="482.76,-176.15 493.23,-177.8 486.08,-169.99 482.76,-176.15"/>
</a>
</g>
</g>
</g>
</svg>
