<?xml version="1.0" encoding="UTF-8" standalone="no"?>
<!DOCTYPE svg PUBLIC "-//W3C//DTD SVG 1.1//EN"
 "http://www.w3.org/Graphics/SVG/1.1/DTD/svg11.dtd">
<!-- Generated by graphviz version 9.0.0 (20230911.1827)
 -->
<!-- Title: mDoAud_zelAudio_c Pages: 1 -->
<svg width="624pt" height="272pt"
 viewBox="0.00 0.00 623.50 271.88" xmlns="http://www.w3.org/2000/svg" xmlns:xlink="http://www.w3.org/1999/xlink">
<g id="graph0" class="graph" transform="scale(1 1) rotate(0) translate(4 267.88)">
<title>mDoAud_zelAudio_c</title>
<!-- Node1 -->
<g id="Node000001" class="node">
<title>Node1</title>
<g id="a_Node000001"><a xlink:title=" ">
<polygon fill="#999999" stroke="#666666" points="615.5,-160.25 509.5,-160.25 509.5,-141 615.5,-141 615.5,-160.25"/>
<text text-anchor="middle" x="562.5" y="-146.75" font-family="Helvetica,sans-Serif" font-size="10.00">mDoAud_zelAudio_c</text>
</a>
</g>
</g>
<!-- Node2 -->
<g id="Node000002" class="node">
<title>Node2</title>
<g id="a_Node000002"><a xlink:href="structZ2AudioMgr.html" target="_top" xlink:title=" ">
<polygon fill="white" stroke="#666666" points="473.5,-160.25 405,-160.25 405,-141 473.5,-141 473.5,-160.25"/>
<text text-anchor="middle" x="439.25" y="-146.75" font-family="Helvetica,sans-Serif" font-size="10.00">Z2AudioMgr</text>
</a>
</g>
</g>
<!-- Node2&#45;&gt;Node1 -->
<g id="edge1_Node000001_Node000002" class="edge">
<title>Node2&#45;&gt;Node1</title>
<g id="a_edge1_Node000001_Node000002"><a xlink:title=" ">
<path fill="none" stroke="#63b8ff" d="M485.15,-150.62C492.94,-150.62 501.09,-150.62 509.05,-150.62"/>
<polygon fill="#63b8ff" stroke="#63b8ff" points="485.22,-147.13 475.22,-150.63 485.22,-154.13 485.22,-147.13"/>
</a>
</g>
</g>
<!-- Node3 -->
<g id="Node000003" class="node">
<title>Node3</title>
<g id="a_Node000003"><a xlink:href="structZ2SeMgr.html" target="_top" xlink:title=" ">
<polygon fill="white" stroke="#666666" points="353.62,-249.25 297.88,-249.25 297.88,-230 353.62,-230 353.62,-249.25"/>
<text text-anchor="middle" x="325.75" y="-235.75" font-family="Helvetica,sans-Serif" font-size="10.00">Z2SeMgr</text>
</a>
</g>
</g>
<!-- Node3&#45;&gt;Node2 -->
<g id="edge2_Node000002_Node000003" class="edge">
<title>Node3&#45;&gt;Node2</title>
<g id="a_edge2_Node000002_Node000003"><a xlink:title=" ">
<path fill="none" stroke="#63b8ff" d="M353.01,-223.78C358.41,-220.26 363.97,-216.44 369,-212.62 391.36,-195.65 415.32,-173.1 428.37,-160.41"/>
<polygon fill="#63b8ff" stroke="#63b8ff" points="351.48,-220.6 344.9,-228.9 355.22,-226.52 351.48,-220.6"/>
</a>
</g>
</g>
<!-- Node4 -->
<g id="Node000004" class="node">
<title>Node4</title>
<g id="a_Node000004"><a xlink:href="classJASGlobalInstance.html" target="_top" xlink:title=" ">
<polygon fill="white" stroke="#666666" points="226.62,-263.88 120.62,-263.88 120.62,-233.38 226.62,-233.38 226.62,-263.88"/>
<text text-anchor="start" x="128.62" y="-250.38" font-family="Helvetica,sans-Serif" font-size="10.00">JASGlobalInstance&lt;</text>
<text text-anchor="middle" x="173.62" y="-239.12" font-family="Helvetica,sans-Serif" font-size="10.00"> Z2SeMgr &gt;</text>
</a>
</g>
</g>
<!-- Node4&#45;&gt;Node3 -->
<g id="edge3_Node000003_Node000004" class="edge">
<title>Node4&#45;&gt;Node3</title>
<g id="a_edge3_Node000003_Node000004"><a xlink:title=" ">
<path fill="none" stroke="#63b8ff" d="M238.11,-244.82C258.94,-243.57 280.99,-242.25 297.63,-241.25"/>
<polygon fill="#63b8ff" stroke="#63b8ff" points="237.99,-241.32 228.22,-245.41 238.41,-248.31 237.99,-241.32"/>
</a>
</g>
</g>
<!-- Node5 -->
<g id="Node000005" class="node">
<title>Node5</title>
<g id="a_Node000005"><a xlink:href="structZ2SeqMgr.html" target="_top" xlink:title=" ">
<polygon fill="white" stroke="#666666" points="356.25,-203.25 295.25,-203.25 295.25,-184 356.25,-184 356.25,-203.25"/>
<text text-anchor="middle" x="325.75" y="-189.75" font-family="Helvetica,sans-Serif" font-size="10.00">Z2SeqMgr</text>
</a>
</g>
</g>
<!-- Node5&#45;&gt;Node2 -->
<g id="edge4_Node000002_Node000005" class="edge">
<title>Node5&#45;&gt;Node2</title>
<g id="a_edge4_Node000002_Node000005"><a xlink:title=" ">
<path fill="none" stroke="#63b8ff" d="M363.49,-179.46C379.44,-173.3 397.76,-166.24 412.27,-160.64"/>
<polygon fill="#63b8ff" stroke="#63b8ff" points="362.37,-176.13 354.3,-183 364.89,-182.67 362.37,-176.13"/>
</a>
</g>
</g>
<!-- Node6 -->
<g id="Node000006" class="node">
<title>Node6</title>
<g id="a_Node000006"><a xlink:href="classJASGlobalInstance.html" target="_top" xlink:title=" ">
<polygon fill="white" stroke="#666666" points="226.62,-214.88 120.62,-214.88 120.62,-184.38 226.62,-184.38 226.62,-214.88"/>
<text text-anchor="start" x="128.62" y="-201.38" font-family="Helvetica,sans-Serif" font-size="10.00">JASGlobalInstance&lt;</text>
<text text-anchor="middle" x="173.62" y="-190.12" font-family="Helvetica,sans-Serif" font-size="10.00"> Z2SeqMgr &gt;</text>
</a>
</g>
</g>
<!-- Node6&#45;&gt;Node5 -->
<g id="edge5_Node000005_Node000006" class="edge">
<title>Node6&#45;&gt;Node5</title>
<g id="a_edge5_Node000005_Node000006"><a xlink:title=" ">
<path fill="none" stroke="#63b8ff" d="M238.18,-197.09C257.94,-196.3 278.79,-195.46 295.07,-194.81"/>
<polygon fill="#63b8ff" stroke="#63b8ff" points="238.07,-193.59 228.22,-197.48 238.35,-200.58 238.07,-193.59"/>
</a>
</g>
</g>
<!-- Node7 -->
<g id="Node000007" class="node">
<title>Node7</title>
<g id="a_Node000007"><a xlink:href="classZ2SceneMgr.html" target="_top" xlink:title=" ">
<polygon fill="white" stroke="#666666" points="361.5,-160.25 290,-160.25 290,-141 361.5,-141 361.5,-160.25"/>
<text text-anchor="middle" x="325.75" y="-146.75" font-family="Helvetica,sans-Serif" font-size="10.00">Z2SceneMgr</text>
</a>
</g>
</g>
<!-- Node7&#45;&gt;Node2 -->
<g id="edge6_Node000002_Node000007" class="edge">
<title>Node7&#45;&gt;Node2</title>
<g id="a_edge6_Node000002_Node000007"><a xlink:title=" ">
<path fill="none" stroke="#63b8ff" d="M372.95,-150.62C383.54,-150.62 394.6,-150.62 404.54,-150.62"/>
<polygon fill="#63b8ff" stroke="#63b8ff" points="373.24,-147.13 363.24,-150.63 373.24,-154.13 373.24,-147.13"/>
</a>
</g>
</g>
<!-- Node8 -->
<g id="Node000008" class="node">
<title>Node8</title>
<g id="a_Node000008"><a xlink:href="classJASGlobalInstance.html" target="_top" xlink:title=" ">
<polygon fill="white" stroke="#666666" points="226.62,-165.88 120.62,-165.88 120.62,-135.38 226.62,-135.38 226.62,-165.88"/>
<text text-anchor="start" x="128.62" y="-152.38" font-family="Helvetica,sans-Serif" font-size="10.00">JASGlobalInstance&lt;</text>
<text text-anchor="middle" x="173.62" y="-141.12" font-family="Helvetica,sans-Serif" font-size="10.00"> Z2SceneMgr &gt;</text>
</a>
</g>
</g>
<!-- Node8&#45;&gt;Node7 -->
<g id="edge7_Node000007_Node000008" class="edge">
<title>Node8&#45;&gt;Node7</title>
<g id="a_edge7_Node000007_Node000008"><a xlink:title=" ">
<path fill="none" stroke="#63b8ff" d="M238.15,-150.62C255.82,-150.62 274.36,-150.62 289.73,-150.62"/>
<polygon fill="#63b8ff" stroke="#63b8ff" points="238.22,-147.13 228.22,-150.63 238.22,-154.13 238.22,-147.13"/>
</a>
</g>
</g>
<!-- Node9 -->
<g id="Node000009" class="node">
<title>Node9</title>
<g id="a_Node000009"><a xlink:href="structZ2StatusMgr.html" target="_top" xlink:title=" ">
<polygon fill="white" stroke="#666666" points="361.88,-117.25 289.62,-117.25 289.62,-98 361.88,-98 361.88,-117.25"/>
<text text-anchor="middle" x="325.75" y="-103.75" font-family="Helvetica,sans-Serif" font-size="10.00">Z2StatusMgr</text>
</a>
</g>
</g>
<!-- Node9&#45;&gt;Node2 -->
<g id="edge8_Node000002_Node000009" class="edge">
<title>Node9&#45;&gt;Node2</title>
<g id="a_edge8_Node000002_Node000009"><a xlink:title=" ">
<path fill="none" stroke="#63b8ff" d="M363.49,-121.79C379.44,-127.95 397.76,-135.01 412.27,-140.61"/>
<polygon fill="#63b8ff" stroke="#63b8ff" points="364.89,-118.58 354.3,-118.25 362.37,-125.12 364.89,-118.58"/>
</a>
</g>
</g>
<!-- Node10 -->
<g id="Node000010" class="node">
<title>Node10</title>
<g id="a_Node000010"><a xlink:href="classJASGlobalInstance.html" target="_top" xlink:title=" ">
<polygon fill="white" stroke="#666666" points="226.62,-116.88 120.62,-116.88 120.62,-86.38 226.62,-86.38 226.62,-116.88"/>
<text text-anchor="start" x="128.62" y="-103.38" font-family="Helvetica,sans-Serif" font-size="10.00">JASGlobalInstance&lt;</text>
<text text-anchor="middle" x="173.62" y="-92.12" font-family="Helvetica,sans-Serif" font-size="10.00"> Z2StatusMgr &gt;</text>
</a>
</g>
</g>
<!-- Node10&#45;&gt;Node9 -->
<g id="edge9_Node000009_Node000010" class="edge">
<title>Node10&#45;&gt;Node9</title>
<g id="a_edge9_Node000009_Node000010"><a xlink:title=" ">
<path fill="none" stroke="#63b8ff" d="M238.06,-104.16C255.58,-104.86 273.96,-105.6 289.27,-106.21"/>
<polygon fill="#63b8ff" stroke="#63b8ff" points="238.35,-100.67 228.22,-103.77 238.07,-107.66 238.35,-100.67"/>
</a>
</g>
</g>
<!-- Node11 -->
<g id="Node000011" class="node">
<title>Node11</title>
<g id="a_Node000011"><a xlink:href="classZ2SoundObjMgr.html" target="_top" xlink:title=" ">
<polygon fill="white" stroke="#666666" points="369,-62.25 282.5,-62.25 282.5,-43 369,-43 369,-62.25"/>
<text text-anchor="middle" x="325.75" y="-48.75" font-family="Helvetica,sans-Serif" font-size="10.00">Z2SoundObjMgr</text>
</a>
</g>
</g>
<!-- Node11&#45;&gt;Node2 -->
<g id="edge10_Node000002_Node000011" class="edge">
<title>Node11&#45;&gt;Node2</title>
<g id="a_edge10_Node000002_Node000011"><a xlink:title=" ">
<path fill="none" stroke="#63b8ff" d="M347.41,-70.06C354.31,-75.92 362.01,-82.52 369,-88.62 389.9,-106.88 413.98,-128.6 427.53,-140.88"/>
<polygon fill="#63b8ff" stroke="#63b8ff" points="349.7,-67.41 339.81,-63.61 345.18,-72.75 349.7,-67.41"/>
</a>
</g>
</g>
<!-- Node12 -->
<g id="Node000012" class="node">
<title>Node12</title>
<g id="a_Node000012"><a xlink:href="classJASGlobalInstance.html" target="_top" xlink:title=" ">
<polygon fill="white" stroke="#666666" points="226.62,-67.88 120.62,-67.88 120.62,-37.38 226.62,-37.38 226.62,-67.88"/>
<text text-anchor="start" x="128.62" y="-54.38" font-family="Helvetica,sans-Serif" font-size="10.00">JASGlobalInstance&lt;</text>
<text text-anchor="middle" x="173.62" y="-43.12" font-family="Helvetica,sans-Serif" font-size="10.00"> Z2SoundObjMgr &gt;</text>
</a>
</g>
</g>
<!-- Node12&#45;&gt;Node11 -->
<g id="edge11_Node000011_Node000012" class="edge">
<title>Node12&#45;&gt;Node11</title>
<g id="a_edge11_Node000011_Node000012"><a xlink:title=" ">
<path fill="none" stroke="#63b8ff" d="M237.96,-52.62C252.88,-52.62 268.44,-52.62 282.19,-52.62"/>
<polygon fill="#63b8ff" stroke="#63b8ff" points="238.22,-49.13 228.22,-52.63 238.22,-56.13 238.22,-49.13"/>
</a>
</g>
</g>
<!-- Node13 -->
<g id="Node000013" class="node">
<title>Node13</title>
<g id="a_Node000013"><a xlink:href="classJSUList.html" target="_top" xlink:title=" ">
<polygon fill="white" stroke="#666666" points="246.5,-19.25 100.75,-19.25 100.75,0 246.5,0 246.5,-19.25"/>
<text text-anchor="middle" x="173.62" y="-5.75" font-family="Helvetica,sans-Serif" font-size="10.00">JSUList&lt; Z2CreatureEnemy &gt;</text>
</a>
</g>
</g>
<!-- Node13&#45;&gt;Node11 -->
<g id="edge12_Node000011_Node000013" class="edge">
<title>Node13&#45;&gt;Node11</title>
<g id="a_edge12_Node000011_Node000013"><a xlink:title=" ">
<path fill="none" stroke="darkgreen" d="M224.79,-22.62C232.08,-24.58 239.49,-26.63 246.5,-28.62 261.8,-32.99 278.69,-38.13 292.85,-42.53"/>
<polygon fill="darkgreen" stroke="darkgreen" points="225.9,-19.29 215.33,-20.09 224.09,-26.05 225.9,-19.29"/>
</a>
</g>
</g>
<!-- Node14 -->
<g id="Node000014" class="node">
<title>Node14</title>
<g id="a_Node000014"><a xlink:href="classJSUPtrList.html" target="_top" xlink:title=" ">
<polygon fill="white" stroke="#666666" points="64.75,-19.25 0,-19.25 0,0 64.75,0 64.75,-19.25"/>
<text text-anchor="middle" x="32.38" y="-5.75" font-family="Helvetica,sans-Serif" font-size="10.00">JSUPtrList</text>
</a>
</g>
</g>
<!-- Node14&#45;&gt;Node13 -->
<g id="edge13_Node000013_Node000014" class="edge">
<title>Node14&#45;&gt;Node13</title>
<g id="a_edge13_Node000013_Node000014"><a xlink:title=" ">
<path fill="none" stroke="#63b8ff" d="M76.43,-9.62C84.03,-9.62 92.11,-9.62 100.25,-9.62"/>
<polygon fill="#63b8ff" stroke="#63b8ff" points="76.49,-6.13 66.49,-9.63 76.49,-13.13 76.49,-6.13"/>
</a>
</g>
</g>
</g>
</svg>
