<?xml version="1.0" encoding="UTF-8" standalone="no"?>
<!DOCTYPE svg PUBLIC "-//W3C//DTD SVG 1.1//EN"
 "http://www.w3.org/Graphics/SVG/1.1/DTD/svg11.dtd">
<!-- Generated by graphviz version 9.0.0 (20230911.1827)
 -->
<!-- Title: cCcD_DivideArea Pages: 1 -->
<svg width="133pt" height="288pt"
 viewBox="0.00 0.00 132.75 288.25" xmlns="http://www.w3.org/2000/svg" xmlns:xlink="http://www.w3.org/1999/xlink">
<g id="graph0" class="graph" transform="scale(1 1) rotate(0) translate(4 284.25)">
<title>cCcD_DivideArea</title>
<!-- Node1 -->
<g id="Node000001" class="node">
<title>Node1</title>
<g id="a_Node000001"><a xlink:title=" ">
<polygon fill="#999999" stroke="#666666" points="92.5,-19.25 0,-19.25 0,0 92.5,0 92.5,-19.25"/>
<text text-anchor="middle" x="46.25" y="-5.75" font-family="Helvetica,sans-Serif" font-size="10.00">cCcD_DivideArea</text>
</a>
</g>
</g>
<!-- Node2 -->
<g id="Node000002" class="node">
<title>Node2</title>
<g id="a_Node000002"><a xlink:href="structcM3dGAab.html" target="_top" xlink:title=" ">
<polygon fill="white" stroke="#666666" points="78.62,-75.5 13.88,-75.5 13.88,-56.25 78.62,-56.25 78.62,-75.5"/>
<text text-anchor="middle" x="46.25" y="-62" font-family="Helvetica,sans-Serif" font-size="10.00">cM3dGAab</text>
</a>
</g>
</g>
<!-- Node2&#45;&gt;Node1 -->
<g id="edge1_Node000001_Node000002" class="edge">
<title>Node2&#45;&gt;Node1</title>
<g id="a_edge1_Node000001_Node000002"><a xlink:title=" ">
<path fill="none" stroke="#63b8ff" d="M46.25,-44.69C46.25,-35.98 46.25,-26.24 46.25,-19.42"/>
<polygon fill="#63b8ff" stroke="#63b8ff" points="42.75,-44.4 46.25,-54.4 49.75,-44.4 42.75,-44.4"/>
</a>
</g>
</g>
<!-- Node3 -->
<g id="Node000003" class="node">
<title>Node3</title>
<g id="a_Node000003"><a xlink:href="structcXyz.html" target="_top" xlink:title=" ">
<polygon fill="white" stroke="#666666" points="64.75,-188.62 27.75,-188.62 27.75,-169.38 64.75,-169.38 64.75,-188.62"/>
<text text-anchor="middle" x="46.25" y="-175.12" font-family="Helvetica,sans-Serif" font-size="10.00">cXyz</text>
</a>
</g>
</g>
<!-- Node3&#45;&gt;Node2 -->
<g id="edge2_Node000002_Node000003" class="edge">
<title>Node3&#45;&gt;Node2</title>
<g id="a_edge2_Node000002_Node000003"><a xlink:title=" ">
<path fill="none" stroke="#9a32cd" stroke-dasharray="5,2" d="M46.25,-157.43C46.25,-133.01 46.25,-93.38 46.25,-75.78"/>
<polygon fill="#9a32cd" stroke="#9a32cd" points="42.75,-157.39 46.25,-167.39 49.75,-157.39 42.75,-157.39"/>
</a>
</g>
<text text-anchor="middle" x="60.5" y="-106.5" font-family="Helvetica,sans-Serif" font-size="10.00" fill="grey"> mMax</text>
<text text-anchor="middle" x="60.5" y="-95.25" font-family="Helvetica,sans-Serif" font-size="10.00" fill="grey">mMin</text>
</g>
<!-- Node3&#45;&gt;Node3 -->
<g id="edge4_Node000003_Node000003" class="edge">
<title>Node3&#45;&gt;Node3</title>
<g id="a_edge4_Node000003_Node000003"><a xlink:title=" ">
<path fill="none" stroke="#9a32cd" stroke-dasharray="5,2" d="M71.02,-190.82C77.68,-190.18 82.75,-186.24 82.75,-179 82.75,-167.96 70.99,-164.6 59.73,-168.91"/>
<polygon fill="#9a32cd" stroke="#9a32cd" points="71.64,-187.37 61.22,-189.32 70.58,-194.29 71.64,-187.37"/>
</a>
</g>
<text text-anchor="middle" x="103.75" y="-214.5" font-family="Helvetica,sans-Serif" font-size="10.00" fill="grey"> BaseX</text>
<text text-anchor="middle" x="103.75" y="-203.25" font-family="Helvetica,sans-Serif" font-size="10.00" fill="grey">BaseXY</text>
<text text-anchor="middle" x="103.75" y="-192" font-family="Helvetica,sans-Serif" font-size="10.00" fill="grey">BaseXYZ</text>
<text text-anchor="middle" x="103.75" y="-180.75" font-family="Helvetica,sans-Serif" font-size="10.00" fill="grey">BaseXZ</text>
<text text-anchor="middle" x="103.75" y="-169.5" font-family="Helvetica,sans-Serif" font-size="10.00" fill="grey">BaseY</text>
<text text-anchor="middle" x="103.75" y="-158.25" font-family="Helvetica,sans-Serif" font-size="10.00" fill="grey">BaseYZ</text>
<text text-anchor="middle" x="103.75" y="-147" font-family="Helvetica,sans-Serif" font-size="10.00" fill="grey">BaseZ</text>
<text text-anchor="middle" x="103.75" y="-135.75" font-family="Helvetica,sans-Serif" font-size="10.00" fill="grey">Zero</text>
</g>
<!-- Node4 -->
<g id="Node000004" class="node">
<title>Node4</title>
<g id="a_Node000004"><a xlink:href="structVec.html" target="_top" xlink:title=" ">
<polygon fill="white" stroke="#666666" points="62.88,-280.25 29.62,-280.25 29.62,-261 62.88,-261 62.88,-280.25"/>
<text text-anchor="middle" x="46.25" y="-266.75" font-family="Helvetica,sans-Serif" font-size="10.00">Vec</text>
</a>
</g>
</g>
<!-- Node4&#45;&gt;Node3 -->
<g id="edge3_Node000003_Node000004" class="edge">
<title>Node4&#45;&gt;Node3</title>
<g id="a_edge3_Node000003_Node000004"><a xlink:title=" ">
<path fill="none" stroke="#63b8ff" d="M46.25,-249.44C46.25,-230.44 46.25,-202.89 46.25,-188.89"/>
<polygon fill="#63b8ff" stroke="#63b8ff" points="42.75,-249.19 46.25,-259.19 49.75,-249.19 42.75,-249.19"/>
</a>
</g>
</g>
</g>
</svg>
