<?xml version="1.0" encoding="UTF-8" standalone="no"?>
<!DOCTYPE svg PUBLIC "-//W3C//DTD SVG 1.1//EN"
 "http://www.w3.org/Graphics/SVG/1.1/DTD/svg11.dtd">
<!-- Generated by graphviz version 9.0.0 (20230911.1827)
 -->
<!-- Title: Z2CreatureRide Pages: 1 -->
<!--zoomable 315 -->

<svg id="main" version="1.1" xmlns="http://www.w3.org/2000/svg" xmlns:xlink="http://www.w3.org/1999/xlink" xml:space="preserve" onload="init(evt)">
<style type="text/css"><![CDATA[
.node, .edge {opacity: 0.7;}
.node.selected, .edge.selected {opacity: 1;}
.edge:hover path { stroke: red; }
.edge:hover polygon { stroke: red; fill: red; }
]]></style>

<defs>
  <circle id="rim" cx="0" cy="0" r="7"/>
  <circle id="rim2" cx="0" cy="0" r="3.5"/>
  <g id="zoomPlus">
    <use xlink:href="#rim" fill="#404040"><set attributeName="fill" to="#808080" begin="zoomplus.mouseover" end="zoomplus.mouseout"/></use>
    <path d="M-4,0h8M0,-4v8" fill="none" stroke="white" stroke-width="1.5" pointer-events="none"/>
  </g>
  <g id="zoomMin">
    <use xlink:href="#rim" fill="#404040"><set attributeName="fill" to="#808080" begin="zoomminus.mouseover" end="zoomminus.mouseout"/></use>
    <path d="M-4,0h8" fill="none" stroke="white" stroke-width="1.5" pointer-events="none"/>
  </g>
  <g id="arrowUp" transform="translate(30 24)">
    <use xlink:href="#rim"/>
    <path pointer-events="none" fill="none" stroke="white" stroke-width="1.5" d="M0,-3.0v7 M-2.5,-0.5L0,-3.0L2.5,-0.5"/>
  </g>
  <g id="arrowRight" transform="rotate(90) translate(36 -43)">
    <use xlink:href="#rim"/>
    <path pointer-events="none" fill="none" stroke="white" stroke-width="1.5" d="M0,-3.0v7 M-2.5,-0.5L0,-3.0L2.5,-0.5"/>
  </g>
  <g id="arrowDown" transform="rotate(180) translate(-30 -48)">
    <use xlink:href="#rim"/>
    <path pointer-events="none" fill="none" stroke="white" stroke-width="1.5" d="M0,-3.0v7 M-2.5,-0.5L0,-3.0L2.5,-0.5"/>
  </g>
  <g id="arrowLeft" transform="rotate(270) translate(-36 17)">
    <use xlink:href="#rim"/>
    <path pointer-events="none" fill="none" stroke="white" stroke-width="1.5" d="M0,-3.0v7 M-2.5,-0.5L0,-3.0L2.5,-0.5"/>
  </g>
  <g id="resetDef">
    <use xlink:href="#rim2" fill="#404040"><set attributeName="fill" to="#808080" begin="reset.mouseover" end="reset.mouseout"/></use>
  </g>
</defs>
<script type="application/ecmascript">
var viewWidth = 1405;
var viewHeight = 315;
var sectionId = 'dynsection-1';
</script>
<script type="application/ecmascript" xlink:href="svg.min.js"/>
<svg id="graph" class="graph">
<g id="viewport">
<title>Z2CreatureRide</title>
<!-- Node1 -->
<g id="Node000001" class="node">
<title>Node1</title>
<g id="a_Node000001"><a xlink:title=" ">
<polygon fill="#999999" stroke="#666666" points="1226.75,-142.25 1143.25,-142.25 1143.25,-123 1226.75,-123 1226.75,-142.25"/>
<text text-anchor="middle" x="1185" y="-128.75" font-family="Helvetica,sans-Serif" font-size="10.00">Z2CreatureRide</text>
</a>
</g>
</g>
<!-- Node20 -->
<g id="Node000020" class="node">
<title>Node20</title>
<g id="a_Node000020"><a xlink:href="structZ2RideSoundStarter.html" target="_top" xlink:title=" ">
<polygon fill="white" stroke="#666666" points="1396.5,-116.25 1292.75,-116.25 1292.75,-97 1396.5,-97 1396.5,-116.25"/>
<text text-anchor="middle" x="1344.62" y="-102.75" font-family="Helvetica,sans-Serif" font-size="10.00">Z2RideSoundStarter</text>
</a>
</g>
</g>
<!-- Node1&#45;&gt;Node20 -->
<g id="edge27_Node000020_Node000001" class="edge">
<title>Node1&#45;&gt;Node20</title>
<g id="a_edge27_Node000020_Node000001"><a xlink:title=" ">
<path fill="none" stroke="#9a32cd" stroke-dasharray="5,2" d="M1212.24,-117.49C1222.1,-112.61 1233.62,-107.83 1244.75,-105.38 1260.01,-102.01 1276.91,-101.19 1292.36,-101.54"/>
<polygon fill="#9a32cd" stroke="#9a32cd" points="1210.85,-114.27 1203.62,-122.02 1214.1,-120.47 1210.85,-114.27"/>
</a>
</g>
<text text-anchor="middle" x="1259.75" y="-107.38" font-family="Helvetica,sans-Serif" font-size="10.00" fill="grey"> mRide</text>
</g>
<!-- Node2 -->
<g id="Node000002" class="node">
<title>Node2</title>
<g id="a_Node000002"><a xlink:href="structZ2Creature.html" target="_top" xlink:title=" ">
<polygon fill="white" stroke="#666666" points="1106.25,-202.25 1042.25,-202.25 1042.25,-183 1106.25,-183 1106.25,-202.25"/>
<text text-anchor="middle" x="1074.25" y="-188.75" font-family="Helvetica,sans-Serif" font-size="10.00">Z2Creature</text>
</a>
</g>
</g>
<!-- Node2&#45;&gt;Node1 -->
<g id="edge1_Node000001_Node000002" class="edge">
<title>Node2&#45;&gt;Node1</title>
<g id="a_edge1_Node000001_Node000002"><a xlink:title=" ">
<path fill="none" stroke="#63b8ff" d="M1103.13,-177.25C1122.78,-166.4 1148.54,-152.19 1165.65,-142.75"/>
<polygon fill="#63b8ff" stroke="#63b8ff" points="1101.6,-174.09 1094.53,-181.99 1104.98,-180.22 1101.6,-174.09"/>
</a>
</g>
</g>
<!-- Node3 -->
<g id="Node000003" class="node">
<title>Node3</title>
<g id="a_Node000003"><a xlink:href="structVec.html" target="_top" xlink:title=" ">
<polygon fill="white" stroke="#666666" points="230,-205.25 196.75,-205.25 196.75,-186 230,-186 230,-205.25"/>
<text text-anchor="middle" x="213.38" y="-191.75" font-family="Helvetica,sans-Serif" font-size="10.00">Vec</text>
</a>
</g>
</g>
<!-- Node3&#45;&gt;Node2 -->
<g id="edge2_Node000002_Node000003" class="edge">
<title>Node3&#45;&gt;Node2</title>
<g id="a_edge2_Node000002_Node000003"><a xlink:title=" ">
<path fill="none" stroke="#9a32cd" stroke-dasharray="5,2" d="M241.77,-198.59C284.56,-202.96 369.89,-210.62 442.5,-210.62 442.5,-210.62 442.5,-210.62 868.75,-210.62 930.23,-210.62 1001.71,-202.45 1041.8,-197.12"/>
<polygon fill="#9a32cd" stroke="#9a32cd" points="242.21,-195.12 231.9,-197.56 241.48,-202.08 242.21,-195.12"/>
</a>
</g>
<text text-anchor="middle" x="669.12" y="-212.38" font-family="Helvetica,sans-Serif" font-size="10.00" fill="grey"> mpPos</text>
</g>
<!-- Node14 -->
<g id="Node000014" class="node">
<title>Node14</title>
<g id="a_Node000014"><a xlink:href="structJGeometry_1_1TVec3_3_01f32_01_4.html" target="_top" xlink:title=" ">
<polygon fill="white" stroke="#666666" points="506.62,-182.25 380.38,-182.25 380.38,-163 506.62,-163 506.62,-182.25"/>
<text text-anchor="middle" x="443.5" y="-168.75" font-family="Helvetica,sans-Serif" font-size="10.00">JGeometry::TVec3&lt; f32 &gt;</text>
</a>
</g>
</g>
<!-- Node3&#45;&gt;Node14 -->
<g id="edge18_Node000014_Node000003" class="edge">
<title>Node3&#45;&gt;Node14</title>
<g id="a_edge18_Node000014_Node000003"><a xlink:title=" ">
<path fill="none" stroke="#63b8ff" d="M241.72,-192.87C275.69,-189.44 334.66,-183.5 379.94,-178.93"/>
<polygon fill="#63b8ff" stroke="#63b8ff" points="241.52,-189.37 231.92,-193.86 242.22,-196.33 241.52,-189.37"/>
</a>
</g>
</g>
<!-- Node4 -->
<g id="Node000004" class="node">
<title>Node4</title>
<g id="a_Node000004"><a xlink:href="classZ2SoundObjAnime.html" target="_top" xlink:title=" ">
<polygon fill="white" stroke="#666666" points="916.62,-258.25 818.88,-258.25 818.88,-239 916.62,-239 916.62,-258.25"/>
<text text-anchor="middle" x="867.75" y="-244.75" font-family="Helvetica,sans-Serif" font-size="10.00">Z2SoundObjAnime</text>
</a>
</g>
</g>
<!-- Node4&#45;&gt;Node2 -->
<g id="edge3_Node000002_Node000004" class="edge">
<title>Node4&#45;&gt;Node2</title>
<g id="a_edge3_Node000002_Node000004"><a xlink:title=" ">
<path fill="none" stroke="#9a32cd" stroke-dasharray="5,2" d="M928.41,-244.72C957.97,-241.37 993.77,-235.16 1024.25,-223.62 1037.62,-218.57 1051.23,-209.58 1060.71,-202.58"/>
<polygon fill="#9a32cd" stroke="#9a32cd" points="928.08,-241.23 918.5,-245.75 928.8,-248.2 928.08,-241.23"/>
</a>
</g>
<text text-anchor="middle" x="980" y="-245.38" font-family="Helvetica,sans-Serif" font-size="10.00" fill="grey"> mSoundObjAnime</text>
</g>
<!-- Node5 -->
<g id="Node000005" class="node">
<title>Node5</title>
<g id="a_Node000005"><a xlink:href="classZ2SoundObjBase.html" target="_top" xlink:title=" ">
<polygon fill="white" stroke="#666666" points="715.38,-174.25 622.88,-174.25 622.88,-155 715.38,-155 715.38,-174.25"/>
<text text-anchor="middle" x="669.12" y="-160.75" font-family="Helvetica,sans-Serif" font-size="10.00">Z2SoundObjBase</text>
</a>
</g>
</g>
<!-- Node5&#45;&gt;Node4 -->
<g id="edge4_Node000004_Node000005" class="edge">
<title>Node5&#45;&gt;Node4</title>
<g id="a_edge4_Node000004_Node000005"><a xlink:title=" ">
<path fill="none" stroke="#63b8ff" d="M703.94,-179.07C743.65,-196.04 808.49,-223.74 843.15,-238.54"/>
<polygon fill="#63b8ff" stroke="#63b8ff" points="705.42,-175.9 694.84,-175.19 702.67,-182.33 705.42,-175.9"/>
</a>
</g>
</g>
<!-- Node19 -->
<g id="Node000019" class="node">
<title>Node19</title>
<g id="a_Node000019"><a xlink:href="classZ2SoundObjSimple.html" target="_top" xlink:title=" ">
<polygon fill="white" stroke="#666666" points="917.75,-180.25 817.75,-180.25 817.75,-161 917.75,-161 917.75,-180.25"/>
<text text-anchor="middle" x="867.75" y="-166.75" font-family="Helvetica,sans-Serif" font-size="10.00">Z2SoundObjSimple</text>
</a>
</g>
</g>
<!-- Node5&#45;&gt;Node19 -->
<g id="edge24_Node000019_Node000005" class="edge">
<title>Node5&#45;&gt;Node19</title>
<g id="a_edge24_Node000019_Node000005"><a xlink:title=" ">
<path fill="none" stroke="#63b8ff" d="M727.16,-166.37C755.68,-167.24 789.86,-168.28 817.26,-169.11"/>
<polygon fill="#63b8ff" stroke="#63b8ff" points="727.34,-162.87 717.24,-166.06 727.13,-169.87 727.34,-162.87"/>
</a>
</g>
</g>
<!-- Node6 -->
<g id="Node000006" class="node">
<title>Node6</title>
<g id="a_Node000006"><a xlink:href="classZ2SoundHandles.html" target="_top" xlink:title=" ">
<polygon fill="white" stroke="#666666" points="489,-145.25 398,-145.25 398,-126 489,-126 489,-145.25"/>
<text text-anchor="middle" x="443.5" y="-131.75" font-family="Helvetica,sans-Serif" font-size="10.00">Z2SoundHandles</text>
</a>
</g>
</g>
<!-- Node6&#45;&gt;Node5 -->
<g id="edge5_Node000005_Node000006" class="edge">
<title>Node6&#45;&gt;Node5</title>
<g id="a_edge5_Node000005_Node000006"><a xlink:title=" ">
<path fill="none" stroke="#63b8ff" d="M500.77,-142.92C538.38,-147.8 587.24,-154.14 622.44,-158.7"/>
<polygon fill="#63b8ff" stroke="#63b8ff" points="501.35,-139.47 490.99,-141.65 500.45,-146.41 501.35,-139.47"/>
</a>
</g>
</g>
<!-- Node7 -->
<g id="Node000007" class="node">
<title>Node7</title>
<g id="a_Node000007"><a xlink:href="classJSUList.html" target="_top" xlink:title=" ">
<polygon fill="white" stroke="#666666" points="292.25,-141.25 134.5,-141.25 134.5,-122 292.25,-122 292.25,-141.25"/>
<text text-anchor="middle" x="213.38" y="-127.75" font-family="Helvetica,sans-Serif" font-size="10.00">JSUList&lt; Z2SoundHandlePool &gt;</text>
</a>
</g>
</g>
<!-- Node7&#45;&gt;Node6 -->
<g id="edge6_Node000006_Node000007" class="edge">
<title>Node7&#45;&gt;Node6</title>
<g id="a_edge6_Node000006_Node000007"><a xlink:title=" ">
<path fill="none" stroke="darkgreen" d="M303.81,-133.19C336,-133.76 370.92,-134.37 397.68,-134.84"/>
<polygon fill="darkgreen" stroke="darkgreen" points="304.14,-129.7 294.08,-133.02 304.01,-136.7 304.14,-129.7"/>
</a>
</g>
</g>
<!-- Node8 -->
<g id="Node000008" class="node">
<title>Node8</title>
<g id="a_Node000008"><a xlink:href="classJSUPtrList.html" target="_top" xlink:title=" ">
<polygon fill="white" stroke="#666666" points="64.75,-53.25 0,-53.25 0,-34 64.75,-34 64.75,-53.25"/>
<text text-anchor="middle" x="32.38" y="-39.75" font-family="Helvetica,sans-Serif" font-size="10.00">JSUPtrList</text>
</a>
</g>
</g>
<!-- Node8&#45;&gt;Node7 -->
<g id="edge7_Node000007_Node000008" class="edge">
<title>Node8&#45;&gt;Node7</title>
<g id="a_edge7_Node000007_Node000008"><a xlink:title=" ">
<path fill="none" stroke="#63b8ff" d="M55.99,-59.98C75.9,-73.83 106.08,-93.46 134.5,-106.62 147.25,-112.53 161.79,-117.61 174.82,-121.62"/>
<polygon fill="#63b8ff" stroke="#63b8ff" points="58.26,-57.3 48.07,-54.4 54.22,-63.02 58.26,-57.3"/>
</a>
</g>
</g>
<!-- Node9 -->
<g id="Node000009" class="node">
<title>Node9</title>
<g id="a_Node000009"><a xlink:href="classJSUPtrLink.html" target="_top" xlink:title=" ">
<polygon fill="white" stroke="#666666" points="246.88,-19.25 179.88,-19.25 179.88,0 246.88,0 246.88,-19.25"/>
<text text-anchor="middle" x="213.38" y="-5.75" font-family="Helvetica,sans-Serif" font-size="10.00">JSUPtrLink</text>
</a>
</g>
</g>
<!-- Node8&#45;&gt;Node9 -->
<g id="edge9_Node000009_Node000008" class="edge">
<title>Node8&#45;&gt;Node9</title>
<g id="a_edge9_Node000009_Node000008"><a xlink:title=" ">
<path fill="none" stroke="#9a32cd" stroke-dasharray="5,2" d="M55.42,-27.38C63.6,-22.24 73.21,-17.18 82.75,-14.38 114.62,-5.01 152.8,-4.86 179.43,-6.42"/>
<polygon fill="#9a32cd" stroke="#9a32cd" points="53.55,-24.43 47.21,-32.92 57.46,-30.23 53.55,-24.43"/>
</a>
</g>
<text text-anchor="middle" x="99.62" y="-16.38" font-family="Helvetica,sans-Serif" font-size="10.00" fill="grey"> mList</text>
</g>
<!-- Node9&#45;&gt;Node8 -->
<g id="edge8_Node000008_Node000009" class="edge">
<title>Node9&#45;&gt;Node8</title>
<g id="a_edge8_Node000008_Node000009"><a xlink:title=" ">
<path fill="none" stroke="#9a32cd" stroke-dasharray="5,2" d="M168.31,-18C136.27,-24.08 93.66,-32.17 64.96,-37.62"/>
<polygon fill="#9a32cd" stroke="#9a32cd" points="168.93,-21.44 178.1,-16.14 167.62,-14.56 168.93,-21.44"/>
</a>
</g>
<text text-anchor="middle" x="99.62" y="-46.62" font-family="Helvetica,sans-Serif" font-size="10.00" fill="grey"> mHead</text>
<text text-anchor="middle" x="99.62" y="-35.38" font-family="Helvetica,sans-Serif" font-size="10.00" fill="grey">mTail</text>
</g>
<!-- Node9&#45;&gt;Node9 -->
<g id="edge10_Node000009_Node000009" class="edge">
<title>Node9&#45;&gt;Node9</title>
<g id="a_edge10_Node000009_Node000009"><a xlink:title=" ">
<path fill="none" stroke="#9a32cd" stroke-dasharray="5,2" d="M193.18,-30.65C195.71,-34.53 202.44,-37.25 213.38,-37.25 233.37,-37.25 239.31,-28.15 231.18,-19.54"/>
<polygon fill="#9a32cd" stroke="#9a32cd" points="196.58,-31.53 195.25,-21.02 189.73,-30.06 196.58,-31.53"/>
</a>
</g>
<text text-anchor="middle" x="213.38" y="-50.25" font-family="Helvetica,sans-Serif" font-size="10.00" fill="grey"> mNext</text>
<text text-anchor="middle" x="213.38" y="-39" font-family="Helvetica,sans-Serif" font-size="10.00" fill="grey">mPrev</text>
</g>
<!-- Node10 -->
<g id="Node000010" class="node">
<title>Node10</title>
<g id="a_Node000010"><a xlink:href="structZ2SoundStarter.html" target="_top" xlink:title=" ">
<polygon fill="white" stroke="#666666" points="485.62,-59.25 401.38,-59.25 401.38,-40 485.62,-40 485.62,-59.25"/>
<text text-anchor="middle" x="443.5" y="-45.75" font-family="Helvetica,sans-Serif" font-size="10.00">Z2SoundStarter</text>
</a>
</g>
</g>
<!-- Node10&#45;&gt;Node5 -->
<g id="edge11_Node000005_Node000010" class="edge">
<title>Node10&#45;&gt;Node5</title>
<g id="a_edge11_Node000005_Node000010"><a xlink:title=" ">
<path fill="none" stroke="#9a32cd" stroke-dasharray="5,2" d="M496.83,-62.71C502.11,-64.5 507.33,-66.47 512.25,-68.62 513.18,-69.03 612.09,-130.05 651.85,-154.58"/>
<polygon fill="#9a32cd" stroke="#9a32cd" points="498.02,-59.41 487.43,-59.74 495.91,-66.09 498.02,-59.41"/>
</a>
</g>
<text text-anchor="middle" x="564" y="-122.38" font-family="Helvetica,sans-Serif" font-size="10.00" fill="grey"> mSoundStarter</text>
</g>
<!-- Node13 -->
<g id="Node000013" class="node">
<title>Node13</title>
<g id="a_Node000013"><a xlink:href="classJASGlobalInstance.html" target="_top" xlink:title=" ">
<polygon fill="white" stroke="#666666" points="722.12,-83.88 616.12,-83.88 616.12,-53.38 722.12,-53.38 722.12,-83.88"/>
<text text-anchor="start" x="624.12" y="-70.38" font-family="Helvetica,sans-Serif" font-size="10.00">JASGlobalInstance&lt;</text>
<text text-anchor="middle" x="669.12" y="-59.12" font-family="Helvetica,sans-Serif" font-size="10.00"> Z2SoundStarter &gt;</text>
</a>
</g>
</g>
<!-- Node10&#45;&gt;Node13 -->
<g id="edge16_Node000013_Node000010" class="edge">
<title>Node10&#45;&gt;Node13</title>
<g id="a_edge16_Node000013_Node000010"><a xlink:title=" ">
<path fill="none" stroke="#9a32cd" stroke-dasharray="5,2" d="M497.36,-46.04C527,-44.9 564.58,-44.92 597.75,-49.38 604.03,-50.22 610.54,-51.47 616.95,-52.93"/>
<polygon fill="#9a32cd" stroke="#9a32cd" points="497.35,-42.54 487.51,-46.48 497.66,-49.53 497.35,-42.54"/>
</a>
</g>
<text text-anchor="middle" x="564" y="-51.38" font-family="Helvetica,sans-Serif" font-size="10.00" fill="grey"> sInstance</text>
</g>
<!-- Node10&#45;&gt;Node20 -->
<g id="edge26_Node000020_Node000010" class="edge">
<title>Node10&#45;&gt;Node20</title>
<g id="a_edge26_Node000020_Node000010"><a xlink:title=" ">
<path fill="none" stroke="#63b8ff" d="M497.14,-37.78C542.27,-28.67 609.14,-17.62 668.12,-17.62 668.12,-17.62 668.12,-17.62 1186,-17.62 1249.8,-17.62 1311.53,-73.59 1334.36,-96.76"/>
<polygon fill="#63b8ff" stroke="#63b8ff" points="496.44,-34.35 487.36,-39.8 497.86,-41.21 496.44,-34.35"/>
</a>
</g>
</g>
<!-- Node11 -->
<g id="Node000011" class="node">
<title>Node11</title>
<g id="a_Node000011"><a xlink:href="structJAISoundStarter.html" target="_top" xlink:title=" ">
<polygon fill="white" stroke="#666666" points="257.38,-97.25 169.38,-97.25 169.38,-78 257.38,-78 257.38,-97.25"/>
<text text-anchor="middle" x="213.38" y="-83.75" font-family="Helvetica,sans-Serif" font-size="10.00">JAISoundStarter</text>
</a>
</g>
</g>
<!-- Node11&#45;&gt;Node10 -->
<g id="edge12_Node000010_Node000011" class="edge">
<title>Node11&#45;&gt;Node10</title>
<g id="a_edge12_Node000010_Node000011"><a xlink:title=" ">
<path fill="none" stroke="#63b8ff" d="M269.14,-78.5C309.71,-71.74 364.16,-62.67 401.14,-56.51"/>
<polygon fill="#63b8ff" stroke="#63b8ff" points="268.6,-75.04 259.31,-80.14 269.75,-81.95 268.6,-75.04"/>
</a>
</g>
</g>
<!-- Node12 -->
<g id="Node000012" class="node">
<title>Node12</title>
<g id="a_Node000012"><a xlink:href="classJASGlobalInstance.html" target="_top" xlink:title=" ">
<polygon fill="white" stroke="#666666" points="496.5,-107.88 390.5,-107.88 390.5,-77.38 496.5,-77.38 496.5,-107.88"/>
<text text-anchor="start" x="398.5" y="-94.38" font-family="Helvetica,sans-Serif" font-size="10.00">JASGlobalInstance&lt;</text>
<text text-anchor="middle" x="443.5" y="-83.12" font-family="Helvetica,sans-Serif" font-size="10.00"> JAISoundStarter &gt;</text>
</a>
</g>
</g>
<!-- Node11&#45;&gt;Node12 -->
<g id="edge14_Node000012_Node000011" class="edge">
<title>Node11&#45;&gt;Node12</title>
<g id="a_edge14_Node000012_Node000011"><a xlink:title=" ">
<path fill="none" stroke="#9a32cd" stroke-dasharray="5,2" d="M269.06,-83.15C295.55,-81.61 327.82,-80.65 356.75,-82.38 367.68,-83.03 379.34,-84.14 390.44,-85.4"/>
<polygon fill="#9a32cd" stroke="#9a32cd" points="268.97,-79.65 259.21,-83.77 269.41,-86.63 268.97,-79.65"/>
</a>
</g>
<text text-anchor="middle" x="333.5" y="-84.38" font-family="Helvetica,sans-Serif" font-size="10.00" fill="grey"> sInstance</text>
</g>
<!-- Node12&#45;&gt;Node11 -->
<g id="edge13_Node000011_Node000012" class="edge">
<title>Node12&#45;&gt;Node11</title>
<g id="a_edge13_Node000011_Node000012"><a xlink:title=" ">
<path fill="none" stroke="#63b8ff" d="M379.04,-95.09C371.53,-95.31 363.97,-95.5 356.75,-95.62 336.09,-95.99 330.9,-96.48 310.25,-95.62 293.06,-94.91 274.18,-93.47 257.76,-92.01"/>
<polygon fill="#63b8ff" stroke="#63b8ff" points="378.96,-98.6 388.85,-94.79 378.74,-91.6 378.96,-98.6"/>
</a>
</g>
</g>
<!-- Node13&#45;&gt;Node10 -->
<g id="edge15_Node000010_Node000013" class="edge">
<title>Node13&#45;&gt;Node10</title>
<g id="a_edge15_Node000010_Node000013"><a xlink:title=" ">
<path fill="none" stroke="#63b8ff" d="M604.47,-67.28C581.09,-66.41 554.43,-64.98 530.25,-62.62 515.71,-61.21 499.88,-59 485.82,-56.8"/>
<polygon fill="#63b8ff" stroke="#63b8ff" points="604.03,-70.76 614.14,-67.61 604.27,-63.77 604.03,-70.76"/>
</a>
</g>
</g>
<!-- Node14&#45;&gt;Node5 -->
<g id="edge17_Node000005_Node000014" class="edge">
<title>Node14&#45;&gt;Node5</title>
<g id="a_edge17_Node000005_Node000014"><a xlink:title=" ">
<path fill="none" stroke="#9a32cd" stroke-dasharray="5,2" d="M518.52,-169.98C552.91,-168.75 592.7,-167.32 622.6,-166.25"/>
<polygon fill="#9a32cd" stroke="#9a32cd" points="518.47,-166.48 508.6,-170.33 518.72,-173.47 518.47,-166.48"/>
</a>
</g>
<text text-anchor="middle" x="564" y="-170.38" font-family="Helvetica,sans-Serif" font-size="10.00" fill="grey"> mSoundPos</text>
</g>
<!-- Node15 -->
<g id="Node000015" class="node">
<title>Node15</title>
<g id="a_Node000015"><a xlink:href="classJAUSoundAnimation.html" target="_top" xlink:title=" ">
<polygon fill="white" stroke="#666666" points="722.5,-278.25 615.75,-278.25 615.75,-259 722.5,-259 722.5,-278.25"/>
<text text-anchor="middle" x="669.12" y="-264.75" font-family="Helvetica,sans-Serif" font-size="10.00">JAUSoundAnimation</text>
</a>
</g>
</g>
<!-- Node15&#45;&gt;Node4 -->
<g id="edge19_Node000004_Node000015" class="edge">
<title>Node15&#45;&gt;Node4</title>
<g id="a_edge19_Node000004_Node000015"><a xlink:title=" ">
<path fill="none" stroke="#9a32cd" stroke-dasharray="5,2" d="M733.93,-262.13C761.46,-259.33 793.13,-256.11 818.63,-253.52"/>
<polygon fill="#9a32cd" stroke="#9a32cd" points="733.92,-258.62 724.32,-263.11 734.63,-265.58 733.92,-258.62"/>
</a>
</g>
<text text-anchor="middle" x="770.12" y="-262.38" font-family="Helvetica,sans-Serif" font-size="10.00" fill="grey"> mpAnimation</text>
</g>
<!-- Node16 -->
<g id="Node000016" class="node">
<title>Node16</title>
<g id="a_Node000016"><a xlink:href="classJAUSoundAnimationControl.html" target="_top" xlink:title=" ">
<polygon fill="white" stroke="#666666" points="512.25,-268.25 374.75,-268.25 374.75,-249 512.25,-249 512.25,-268.25"/>
<text text-anchor="middle" x="443.5" y="-254.75" font-family="Helvetica,sans-Serif" font-size="10.00">JAUSoundAnimationControl</text>
</a>
</g>
</g>
<!-- Node16&#45;&gt;Node15 -->
<g id="edge20_Node000015_Node000016" class="edge">
<title>Node16&#45;&gt;Node15</title>
<g id="a_edge20_Node000015_Node000016"><a xlink:title=" ">
<path fill="none" stroke="#9a32cd" stroke-dasharray="5,2" d="M523.91,-257.94C547.68,-258.17 573.79,-258.84 597.75,-260.38 603.52,-260.75 609.54,-261.26 615.53,-261.85"/>
<polygon fill="#9a32cd" stroke="#9a32cd" points="523.99,-254.44 513.97,-257.88 523.95,-261.44 523.99,-254.44"/>
</a>
</g>
<text text-anchor="middle" x="564" y="-261.38" font-family="Helvetica,sans-Serif" font-size="10.00" fill="grey"> mControl</text>
</g>
<!-- Node17 -->
<g id="Node000017" class="node">
<title>Node17</title>
<g id="a_Node000017"><a xlink:href="classJAUSoundAnimationSound.html" target="_top" xlink:title=" ">
<polygon fill="white" stroke="#666666" points="510.75,-305.25 376.25,-305.25 376.25,-286 510.75,-286 510.75,-305.25"/>
<text text-anchor="middle" x="443.5" y="-291.75" font-family="Helvetica,sans-Serif" font-size="10.00">JAUSoundAnimationSound</text>
</a>
</g>
</g>
<!-- Node17&#45;&gt;Node15 -->
<g id="edge21_Node000015_Node000017" class="edge">
<title>Node17&#45;&gt;Node15</title>
<g id="a_edge21_Node000015_Node000017"><a xlink:title=" ">
<path fill="none" stroke="#9a32cd" stroke-dasharray="5,2" d="M522.14,-286.25C552.94,-282.53 587.57,-278.35 615.36,-275"/>
<polygon fill="#9a32cd" stroke="#9a32cd" points="522,-282.74 512.49,-287.42 522.84,-289.69 522,-282.74"/>
</a>
</g>
<text text-anchor="middle" x="564" y="-285.38" font-family="Helvetica,sans-Serif" font-size="10.00" fill="grey"> mSounds</text>
</g>
<!-- Node18 -->
<g id="Node000018" class="node">
<title>Node18</title>
<g id="a_Node000018"><a xlink:href="structJAISoundID.html" target="_top" xlink:title=" ">
<polygon fill="white" stroke="#666666" points="247.62,-305.25 179.12,-305.25 179.12,-286 247.62,-286 247.62,-305.25"/>
<text text-anchor="middle" x="213.38" y="-291.75" font-family="Helvetica,sans-Serif" font-size="10.00">JAISoundID</text>
</a>
</g>
</g>
<!-- Node18&#45;&gt;Node17 -->
<g id="edge22_Node000017_Node000018" class="edge">
<title>Node18&#45;&gt;Node17</title>
<g id="a_edge22_Node000017_Node000018"><a xlink:title=" ">
<path fill="none" stroke="#9a32cd" stroke-dasharray="5,2" d="M259.26,-295.62C292.58,-295.62 338.56,-295.62 376.13,-295.62"/>
<polygon fill="#9a32cd" stroke="#9a32cd" points="259.55,-292.13 249.55,-295.63 259.55,-299.13 259.55,-292.13"/>
</a>
</g>
<text text-anchor="middle" x="333.5" y="-297.38" font-family="Helvetica,sans-Serif" font-size="10.00" fill="grey"> mSoundId</text>
</g>
<!-- Node19&#45;&gt;Node2 -->
<g id="edge23_Node000002_Node000019" class="edge">
<title>Node19&#45;&gt;Node2</title>
<g id="a_edge23_Node000002_Node000019"><a xlink:title=" ">
<path fill="none" stroke="#9a32cd" stroke-dasharray="5,2" d="M929.42,-167.27C958.37,-166.87 993.36,-168.13 1024.25,-174.12 1033.35,-175.89 1042.98,-179.19 1051.27,-182.51"/>
<polygon fill="#9a32cd" stroke="#9a32cd" points="929.66,-163.76 919.74,-167.48 929.81,-170.76 929.66,-163.76"/>
</a>
</g>
<text text-anchor="middle" x="980" y="-186.62" font-family="Helvetica,sans-Serif" font-size="10.00" fill="grey"> mSoundObjSimple1</text>
<text text-anchor="middle" x="980" y="-175.38" font-family="Helvetica,sans-Serif" font-size="10.00" fill="grey">mSoundObjSimple2</text>
</g>
<!-- Node20&#45;&gt;Node1 -->
<g id="edge25_Node000001_Node000020" class="edge">
<title>Node20&#45;&gt;Node1</title>
<g id="a_edge25_Node000001_Node000020"><a xlink:title=" ">
<path fill="none" stroke="#63b8ff" d="M1281.31,-117.53C1279.1,-117.9 1276.91,-118.27 1274.75,-118.62 1259.21,-121.2 1242.12,-123.93 1227.11,-126.28"/>
<polygon fill="#63b8ff" stroke="#63b8ff" points="1281.72,-121.01 1291,-115.88 1280.55,-114.11 1281.72,-121.01"/>
</a>
</g>
</g>
</g>
</svg>

<g id="navigator" transform="translate(0 0)" fill="#404254">
  <rect fill="#f2f5e9" fill-opacity="0.5" stroke="#606060" stroke-width=".5" x="0" y="0" width="60" height="60"/>
  <use id="zoomplus" xlink:href="#zoomPlus" x="17" y="9" onmousedown="handleZoom(evt,'in')"/>
  <use id="zoomminus" xlink:href="#zoomMin" x="42" y="9" onmousedown="handleZoom(evt,'out')"/>
  <use id="reset" xlink:href="#resetDef" x="30" y="36" onmousedown="handleReset()"/>
   <use id="arrowup" xlink:href="#arrowUp" x="0" y="0" onmousedown="handlePan(0,-1)"/>
  <use id="arrowright" xlink:href="#arrowRight" x="0" y="0" onmousedown="handlePan(1,0)"/>
  <use id="arrowdown" xlink:href="#arrowDown" x="0" y="0" onmousedown="handlePan(0,1)"/>
  <use id="arrowleft" xlink:href="#arrowLeft" x="0" y="0" onmousedown="handlePan(-1,0)"/>
</g>
<svg viewBox="0 0 15 15" width="100%" height="30px" preserveAspectRatio="xMaxYMin meet">
 <g id="arrow_out" transform="scale(0.3 0.3)">
  <a xlink:href="classZ2CreatureRide__coll__graph_org.svg" target="_base">
   <rect id="button" ry="5" rx="5" y="6" x="6" height="38" width="38"
        fill="#f2f5e9" fill-opacity="0.5" stroke="#606060" stroke-width="1.0"/>
   <path id="arrow"
     d="M 11.500037,31.436501 C 11.940474,20.09759 22.043105,11.32322 32.158766,21.979434 L 37.068811,17.246167 C 37.068811,17.246167 37.088388,32 37.088388,32 L 22.160133,31.978069 C 22.160133,31.978069 26.997745,27.140456 26.997745,27.140456 C 18.528582,18.264221 13.291696,25.230495 11.500037,31.436501 z"
     style="fill:#404040;"/>
  </a>
 </g>
</svg>

<style type='text/css'>
<![CDATA[
[data-mouse-over-selected='false'] { opacity: 0.7; }
[data-mouse-over-selected='true']  { opacity: 1.0; }
]]>
</style>
<script type="application/ecmascript"><![CDATA[
document.addEventListener('DOMContentLoaded', (event) => {
  highlightEdges();
  highlightAdjacentNodes();
});
]]></script>
</svg>
