<?xml version="1.0" encoding="UTF-8" standalone="no"?>
<!DOCTYPE svg PUBLIC "-//W3C//DTD SVG 1.1//EN"
 "http://www.w3.org/Graphics/SVG/1.1/DTD/svg11.dtd">
<!-- Generated by graphviz version 9.0.0 (20230911.1827)
 -->
<!-- Title: JSUFileInputStream Pages: 1 -->
<!--zoomable 497 -->

<svg id="main" version="1.1" xmlns="http://www.w3.org/2000/svg" xmlns:xlink="http://www.w3.org/1999/xlink" xml:space="preserve" onload="init(evt)">
<style type="text/css"><![CDATA[
.node, .edge {opacity: 0.7;}
.node.selected, .edge.selected {opacity: 1;}
.edge:hover path { stroke: red; }
.edge:hover polygon { stroke: red; fill: red; }
]]></style>

<defs>
  <circle id="rim" cx="0" cy="0" r="7"/>
  <circle id="rim2" cx="0" cy="0" r="3.5"/>
  <g id="zoomPlus">
    <use xlink:href="#rim" fill="#404040"><set attributeName="fill" to="#808080" begin="zoomplus.mouseover" end="zoomplus.mouseout"/></use>
    <path d="M-4,0h8M0,-4v8" fill="none" stroke="white" stroke-width="1.5" pointer-events="none"/>
  </g>
  <g id="zoomMin">
    <use xlink:href="#rim" fill="#404040"><set attributeName="fill" to="#808080" begin="zoomminus.mouseover" end="zoomminus.mouseout"/></use>
    <path d="M-4,0h8" fill="none" stroke="white" stroke-width="1.5" pointer-events="none"/>
  </g>
  <g id="arrowUp" transform="translate(30 24)">
    <use xlink:href="#rim"/>
    <path pointer-events="none" fill="none" stroke="white" stroke-width="1.5" d="M0,-3.0v7 M-2.5,-0.5L0,-3.0L2.5,-0.5"/>
  </g>
  <g id="arrowRight" transform="rotate(90) translate(36 -43)">
    <use xlink:href="#rim"/>
    <path pointer-events="none" fill="none" stroke="white" stroke-width="1.5" d="M0,-3.0v7 M-2.5,-0.5L0,-3.0L2.5,-0.5"/>
  </g>
  <g id="arrowDown" transform="rotate(180) translate(-30 -48)">
    <use xlink:href="#rim"/>
    <path pointer-events="none" fill="none" stroke="white" stroke-width="1.5" d="M0,-3.0v7 M-2.5,-0.5L0,-3.0L2.5,-0.5"/>
  </g>
  <g id="arrowLeft" transform="rotate(270) translate(-36 17)">
    <use xlink:href="#rim"/>
    <path pointer-events="none" fill="none" stroke="white" stroke-width="1.5" d="M0,-3.0v7 M-2.5,-0.5L0,-3.0L2.5,-0.5"/>
  </g>
  <g id="resetDef">
    <use xlink:href="#rim2" fill="#404040"><set attributeName="fill" to="#808080" begin="reset.mouseover" end="reset.mouseout"/></use>
  </g>
</defs>
<script type="application/ecmascript">
var viewWidth = 896;
var viewHeight = 497;
var sectionId = 'dynsection-1';
</script>
<script type="application/ecmascript" xlink:href="svg.min.js"/>
<svg id="graph" class="graph">
<g id="viewport">
<title>JSUFileInputStream</title>
<!-- Node1 -->
<g id="Node000001" class="node">
<title>Node1</title>
<g id="a_Node000001"><a xlink:title=" ">
<polygon fill="#999999" stroke="#666666" points="159.62,-97 55.12,-97 55.12,-77.75 159.62,-77.75 159.62,-97"/>
<text text-anchor="middle" x="107.38" y="-83.5" font-family="Helvetica,sans-Serif" font-size="10.00">JSUFileInputStream</text>
</a>
</g>
</g>
<!-- Node2 -->
<g id="Node000002" class="node">
<title>Node2</title>
<g id="a_Node000002"><a xlink:href="classJSURandomInputStream.html" target="_top" xlink:title=" ">
<polygon fill="white" stroke="#666666" points="124.75,-176.38 0,-176.38 0,-157.12 124.75,-157.12 124.75,-176.38"/>
<text text-anchor="middle" x="62.38" y="-162.88" font-family="Helvetica,sans-Serif" font-size="10.00">JSURandomInputStream</text>
</a>
</g>
</g>
<!-- Node2&#45;&gt;Node1 -->
<g id="edge1_Node000001_Node000002" class="edge">
<title>Node2&#45;&gt;Node1</title>
<g id="a_edge1_Node000001_Node000002"><a xlink:title=" ">
<path fill="none" stroke="#63b8ff" d="M73.23,-147.09C82.44,-131.25 95.25,-109.22 102.27,-97.15"/>
<polygon fill="#63b8ff" stroke="#63b8ff" points="70.3,-145.16 68.3,-155.57 76.35,-148.68 70.3,-145.16"/>
</a>
</g>
</g>
<!-- Node3 -->
<g id="Node000003" class="node">
<title>Node3</title>
<g id="a_Node000003"><a xlink:href="classJSUInputStream.html" target="_top" xlink:title=" ">
<polygon fill="white" stroke="#666666" points="88.75,-267 0,-267 0,-247.75 88.75,-247.75 88.75,-267"/>
<text text-anchor="middle" x="44.38" y="-253.5" font-family="Helvetica,sans-Serif" font-size="10.00">JSUInputStream</text>
</a>
</g>
</g>
<!-- Node3&#45;&gt;Node2 -->
<g id="edge2_Node000002_Node000003" class="edge">
<title>Node3&#45;&gt;Node2</title>
<g id="a_edge2_Node000002_Node000003"><a xlink:title=" ">
<path fill="none" stroke="#63b8ff" d="M48.42,-236.48C52.21,-217.81 57.71,-190.74 60.54,-176.8"/>
<polygon fill="#63b8ff" stroke="#63b8ff" points="45.03,-235.57 46.47,-246.07 51.89,-236.97 45.03,-235.57"/>
</a>
</g>
</g>
<!-- Node4 -->
<g id="Node000004" class="node">
<title>Node4</title>
<g id="a_Node000004"><a xlink:href="classJSUIosBase.html" target="_top" xlink:title=" ">
<polygon fill="white" stroke="#666666" points="79.12,-333.5 7.62,-333.5 7.62,-314.25 79.12,-314.25 79.12,-333.5"/>
<text text-anchor="middle" x="43.38" y="-320" font-family="Helvetica,sans-Serif" font-size="10.00">JSUIosBase</text>
</a>
</g>
</g>
<!-- Node4&#45;&gt;Node3 -->
<g id="edge3_Node000003_Node000004" class="edge">
<title>Node4&#45;&gt;Node3</title>
<g id="a_edge3_Node000003_Node000004"><a xlink:title=" ">
<path fill="none" stroke="#63b8ff" d="M43.69,-302.4C43.88,-290.57 44.1,-276.29 44.24,-267.27"/>
<polygon fill="#63b8ff" stroke="#63b8ff" points="40.19,-302.34 43.54,-312.39 47.19,-302.45 40.19,-302.34"/>
</a>
</g>
</g>
<!-- Node5 -->
<g id="Node000005" class="node">
<title>Node5</title>
<g id="a_Node000005"><a xlink:href="classJKRFile.html" target="_top" xlink:title=" ">
<polygon fill="white" stroke="#666666" points="194.62,-176.38 144.12,-176.38 144.12,-157.12 194.62,-157.12 194.62,-176.38"/>
<text text-anchor="middle" x="169.38" y="-162.88" font-family="Helvetica,sans-Serif" font-size="10.00">JKRFile</text>
</a>
</g>
</g>
<!-- Node5&#45;&gt;Node1 -->
<g id="edge4_Node000001_Node000005" class="edge">
<title>Node5&#45;&gt;Node1</title>
<g id="a_edge4_Node000001_Node000005"><a xlink:title=" ">
<path fill="none" stroke="#9a32cd" stroke-dasharray="5,2" d="M155.15,-148C142.41,-132.1 124.26,-109.45 114.4,-97.15"/>
<polygon fill="#9a32cd" stroke="#9a32cd" points="152.33,-150.08 161.32,-155.69 157.79,-145.7 152.33,-150.08"/>
</a>
</g>
<text text-anchor="middle" x="150.5" y="-116.75" font-family="Helvetica,sans-Serif" font-size="10.00" fill="grey"> mFile</text>
</g>
<!-- Node6 -->
<g id="Node000006" class="node">
<title>Node6</title>
<g id="a_Node000006"><a xlink:href="classJKRDisposer.html" target="_top" xlink:title=" ">
<polygon fill="white" stroke="#666666" points="214.88,-267 141.88,-267 141.88,-247.75 214.88,-247.75 214.88,-267"/>
<text text-anchor="middle" x="178.38" y="-253.5" font-family="Helvetica,sans-Serif" font-size="10.00">JKRDisposer</text>
</a>
</g>
</g>
<!-- Node6&#45;&gt;Node5 -->
<g id="edge5_Node000005_Node000006" class="edge">
<title>Node6&#45;&gt;Node5</title>
<g id="a_edge5_Node000005_Node000006"><a xlink:title=" ">
<path fill="none" stroke="#63b8ff" d="M176.33,-236.21C174.43,-217.55 171.7,-190.68 170.29,-176.8"/>
<polygon fill="#63b8ff" stroke="#63b8ff" points="172.83,-236.45 177.33,-246.05 179.8,-235.75 172.83,-236.45"/>
</a>
</g>
</g>
<!-- Node7 -->
<g id="Node000007" class="node">
<title>Node7</title>
<g id="a_Node000007"><a xlink:href="structJKRHeap.html" target="_top" xlink:title=" ">
<polygon fill="white" stroke="#666666" points="320.38,-176.38 262.38,-176.38 262.38,-157.12 320.38,-157.12 320.38,-176.38"/>
<text text-anchor="middle" x="291.38" y="-162.88" font-family="Helvetica,sans-Serif" font-size="10.00">JKRHeap</text>
</a>
</g>
</g>
<!-- Node6&#45;&gt;Node7 -->
<g id="edge7_Node000007_Node000006" class="edge">
<title>Node6&#45;&gt;Node7</title>
<g id="a_edge7_Node000007_Node000006"><a xlink:title=" ">
<path fill="none" stroke="#63b8ff" d="M188.3,-237.59C194.27,-227.63 202.59,-215.73 212.38,-207.25 228.01,-193.69 249.13,-183.44 265.59,-176.79"/>
<polygon fill="#63b8ff" stroke="#63b8ff" points="185.39,-235.63 183.54,-246.06 191.49,-239.06 185.39,-235.63"/>
</a>
</g>
</g>
<!-- Node7&#45;&gt;Node6 -->
<g id="edge6_Node000006_Node000007" class="edge">
<title>Node7&#45;&gt;Node6</title>
<g id="a_edge6_Node000006_Node000007"><a xlink:title=" ">
<path fill="none" stroke="#9a32cd" stroke-dasharray="5,2" d="M270.91,-183.8C247.08,-202.49 208.56,-232.7 189.62,-247.55"/>
<polygon fill="#9a32cd" stroke="#9a32cd" points="272.94,-186.66 278.65,-177.73 268.62,-181.15 272.94,-186.66"/>
</a>
</g>
<text text-anchor="middle" x="255.25" y="-214.62" font-family="Helvetica,sans-Serif" font-size="10.00" fill="grey"> mHeap</text>
</g>
<!-- Node7&#45;&gt;Node7 -->
<g id="edge31_Node000007_Node000007" class="edge">
<title>Node7&#45;&gt;Node7</title>
<g id="a_edge31_Node000007_Node000007"><a xlink:title=" ">
<path fill="none" stroke="#9a32cd" stroke-dasharray="5,2" d="M331.99,-173.74C335.9,-172.32 338.38,-169.99 338.38,-166.75 338.38,-160.98 330.54,-158.1 320.75,-158.1"/>
<polygon fill="#9a32cd" stroke="#9a32cd" points="331.63,-170.26 322.25,-175.18 332.65,-177.18 331.63,-170.26"/>
</a>
</g>
<text text-anchor="middle" x="369.5" y="-179.75" font-family="Helvetica,sans-Serif" font-size="10.00" fill="grey"> sCurrentHeap</text>
<text text-anchor="middle" x="369.5" y="-168.5" font-family="Helvetica,sans-Serif" font-size="10.00" fill="grey">sRootHeap</text>
<text text-anchor="middle" x="369.5" y="-157.25" font-family="Helvetica,sans-Serif" font-size="10.00" fill="grey">sRootHeap2</text>
<text text-anchor="middle" x="369.5" y="-146" font-family="Helvetica,sans-Serif" font-size="10.00" fill="grey">sSystemHeap</text>
</g>
<!-- Node8 -->
<g id="Node000008" class="node">
<title>Node8</title>
<g id="a_Node000008"><a xlink:href="structOSMutex.html" target="_top" xlink:title=" ">
<polygon fill="white" stroke="#666666" points="609.62,-267 553.12,-267 553.12,-247.75 609.62,-247.75 609.62,-267"/>
<text text-anchor="middle" x="581.38" y="-253.5" font-family="Helvetica,sans-Serif" font-size="10.00">OSMutex</text>
</a>
</g>
</g>
<!-- Node8&#45;&gt;Node7 -->
<g id="edge8_Node000007_Node000008" class="edge">
<title>Node8&#45;&gt;Node7</title>
<g id="a_edge8_Node000007_Node000008"><a xlink:title=" ">
<path fill="none" stroke="#9a32cd" stroke-dasharray="5,2" d="M541.56,-256.36C507.51,-254.87 458.06,-249.08 419.62,-229.75 406.78,-223.29 408.52,-214.94 396.38,-207.25 372.68,-192.25 342.42,-181.62 320.48,-175.2"/>
<polygon fill="#9a32cd" stroke="#9a32cd" points="541.3,-259.86 551.4,-256.68 541.52,-252.86 541.3,-259.86"/>
</a>
</g>
<text text-anchor="middle" x="437.75" y="-214.62" font-family="Helvetica,sans-Serif" font-size="10.00" fill="grey"> mMutex</text>
</g>
<!-- Node10 -->
<g id="Node000010" class="node">
<title>Node10</title>
<g id="a_Node000010"><a xlink:href="structOSThread.html" target="_top" xlink:title=" ">
<polygon fill="white" stroke="#666666" points="631.5,-97 571.25,-97 571.25,-77.75 631.5,-77.75 631.5,-97"/>
<text text-anchor="middle" x="601.38" y="-83.5" font-family="Helvetica,sans-Serif" font-size="10.00">OSThread</text>
</a>
</g>
</g>
<!-- Node8&#45;&gt;Node10 -->
<g id="edge15_Node000010_Node000008" class="edge">
<title>Node8&#45;&gt;Node10</title>
<g id="a_edge15_Node000010_Node000008"><a xlink:title=" ">
<path fill="none" stroke="#9a32cd" stroke-dasharray="5,2" d="M563.66,-239.45C551.85,-226.88 537.35,-208.62 530.88,-189.25 524.54,-170.28 522.22,-162.28 530.88,-144.25 541.35,-122.43 564.99,-106.55 582.01,-97.41"/>
<polygon fill="#9a32cd" stroke="#9a32cd" points="561.05,-241.79 570.56,-246.46 566.03,-236.88 561.05,-241.79"/>
</a>
</g>
<text text-anchor="middle" x="544.62" y="-162.88" font-family="Helvetica,sans-Serif" font-size="10.00" fill="grey"> mutex</text>
</g>
<!-- Node13 -->
<g id="Node000013" class="node">
<title>Node13</title>
<g id="a_Node000013"><a xlink:href="structOSMutexQueue.html" target="_top" xlink:title=" ">
<polygon fill="white" stroke="#666666" points="794.88,-176.38 709.88,-176.38 709.88,-157.12 794.88,-157.12 794.88,-176.38"/>
<text text-anchor="middle" x="752.38" y="-162.88" font-family="Helvetica,sans-Serif" font-size="10.00">OSMutexQueue</text>
</a>
</g>
</g>
<!-- Node8&#45;&gt;Node13 -->
<g id="edge17_Node000013_Node000008" class="edge">
<title>Node8&#45;&gt;Node13</title>
<g id="a_edge17_Node000013_Node000008"><a xlink:title=" ">
<path fill="none" stroke="#9a32cd" stroke-dasharray="5,2" d="M608.87,-242.13C644.41,-223.71 705.26,-192.17 734.99,-176.76"/>
<polygon fill="#9a32cd" stroke="#9a32cd" points="607.32,-238.98 600.06,-246.69 610.55,-245.2 607.32,-238.98"/>
</a>
</g>
<text text-anchor="middle" x="683" y="-220.25" font-family="Helvetica,sans-Serif" font-size="10.00" fill="grey"> head</text>
<text text-anchor="middle" x="683" y="-209" font-family="Helvetica,sans-Serif" font-size="10.00" fill="grey">tail</text>
</g>
<!-- Node14 -->
<g id="Node000014" class="node">
<title>Node14</title>
<g id="a_Node000014"><a xlink:href="structOSMutexLink.html" target="_top" xlink:title=" ">
<polygon fill="white" stroke="#666666" points="888,-176.38 812.75,-176.38 812.75,-157.12 888,-157.12 888,-176.38"/>
<text text-anchor="middle" x="850.38" y="-162.88" font-family="Helvetica,sans-Serif" font-size="10.00">OSMutexLink</text>
</a>
</g>
</g>
<!-- Node8&#45;&gt;Node14 -->
<g id="edge20_Node000014_Node000008" class="edge">
<title>Node8&#45;&gt;Node14</title>
<g id="a_edge20_Node000014_Node000008"><a xlink:title=" ">
<path fill="none" stroke="#9a32cd" stroke-dasharray="5,2" d="M621.02,-248.81C643.85,-244.09 672.96,-237.45 698.38,-229.75 746.64,-215.12 757.94,-208.94 804.38,-189.25 813.46,-185.4 823.41,-180.8 831.71,-176.85"/>
<polygon fill="#9a32cd" stroke="#9a32cd" points="620.63,-245.31 611.52,-250.73 622.02,-252.17 620.63,-245.31"/>
</a>
</g>
<text text-anchor="middle" x="770.5" y="-220.25" font-family="Helvetica,sans-Serif" font-size="10.00" fill="grey"> next</text>
<text text-anchor="middle" x="770.5" y="-209" font-family="Helvetica,sans-Serif" font-size="10.00" fill="grey">prev</text>
</g>
<!-- Node9 -->
<g id="Node000009" class="node">
<title>Node9</title>
<g id="a_Node000009"><a xlink:href="structOSThreadQueue.html" target="_top" xlink:title=" ">
<polygon fill="white" stroke="#666666" points="547.75,-19.25 459,-19.25 459,0 547.75,0 547.75,-19.25"/>
<text text-anchor="middle" x="503.38" y="-5.75" font-family="Helvetica,sans-Serif" font-size="10.00">OSThreadQueue</text>
</a>
</g>
</g>
<!-- Node9&#45;&gt;Node8 -->
<g id="edge9_Node000008_Node000009" class="edge">
<title>Node9&#45;&gt;Node8</title>
<g id="a_edge9_Node000008_Node000009"><a xlink:title=" ">
<path fill="none" stroke="#9a32cd" stroke-dasharray="5,2" d="M495.23,-29.88C494.47,-32.32 493.82,-34.82 493.38,-37.25 491.59,-47.09 492.35,-49.8 493.38,-59.75 499.78,-121.81 511.49,-202.26 534.38,-229.75 540.61,-237.25 549.54,-243.05 557.94,-247.29"/>
<polygon fill="#9a32cd" stroke="#9a32cd" points="498.44,-31.28 498.69,-20.69 491.89,-28.81 498.44,-31.28"/>
</a>
</g>
<text text-anchor="middle" x="515.62" y="-116.75" font-family="Helvetica,sans-Serif" font-size="10.00" fill="grey"> queue</text>
</g>
<!-- Node9&#45;&gt;Node10 -->
<g id="edge12_Node000010_Node000009" class="edge">
<title>Node9&#45;&gt;Node10</title>
<g id="a_edge12_Node000010_Node000009"><a xlink:title=" ">
<path fill="none" stroke="#9a32cd" stroke-dasharray="5,2" d="M519.47,-27.59C529.39,-37.57 542.66,-50.08 555.62,-59.75 564.46,-66.34 575.07,-72.61 583.84,-77.4"/>
<polygon fill="#9a32cd" stroke="#9a32cd" points="522.25,-25.43 512.76,-20.7 517.23,-30.31 522.25,-25.43"/>
</a>
</g>
<text text-anchor="middle" x="579.75" y="-50.25" font-family="Helvetica,sans-Serif" font-size="10.00" fill="grey"> join_queue</text>
<text text-anchor="middle" x="579.75" y="-39" font-family="Helvetica,sans-Serif" font-size="10.00" fill="grey">queue</text>
</g>
<!-- Node10&#45;&gt;Node8 -->
<g id="edge18_Node000008_Node000010" class="edge">
<title>Node10&#45;&gt;Node8</title>
<g id="a_edge18_Node000008_Node000010"><a xlink:title=" ">
<path fill="none" stroke="#9a32cd" stroke-dasharray="5,2" d="M596.73,-108.4C594.43,-119 591.79,-132.27 590.12,-144.25 584.82,-182.35 582.5,-228.21 581.71,-247.32"/>
<polygon fill="#9a32cd" stroke="#9a32cd" points="600.09,-109.42 598.87,-98.89 593.26,-107.88 600.09,-109.42"/>
</a>
</g>
<text text-anchor="middle" x="604" y="-162.88" font-family="Helvetica,sans-Serif" font-size="10.00" fill="grey"> thread</text>
</g>
<!-- Node10&#45;&gt;Node9 -->
<g id="edge10_Node000009_Node000010" class="edge">
<title>Node10&#45;&gt;Node9</title>
<g id="a_edge10_Node000009_Node000010"><a xlink:title=" ">
<path fill="none" stroke="#9a32cd" stroke-dasharray="5,2" d="M559.7,-85.95C539.62,-83.38 517.12,-76.52 504.12,-59.75 495.24,-48.29 497.83,-30.39 500.56,-19.65"/>
<polygon fill="#9a32cd" stroke="#9a32cd" points="559.36,-89.44 569.64,-86.87 560.01,-82.47 559.36,-89.44"/>
</a>
</g>
<text text-anchor="middle" x="515" y="-50.25" font-family="Helvetica,sans-Serif" font-size="10.00" fill="grey"> head</text>
<text text-anchor="middle" x="515" y="-39" font-family="Helvetica,sans-Serif" font-size="10.00" fill="grey">tail</text>
</g>
<!-- Node12 -->
<g id="Node000012" class="node">
<title>Node12</title>
<g id="a_Node000012"><a xlink:href="structOSThreadLink.html" target="_top" xlink:title=" ">
<polygon fill="white" stroke="#666666" points="681.88,-19.25 602.88,-19.25 602.88,0 681.88,0 681.88,-19.25"/>
<text text-anchor="middle" x="642.38" y="-5.75" font-family="Helvetica,sans-Serif" font-size="10.00">OSThreadLink</text>
</a>
</g>
</g>
<!-- Node10&#45;&gt;Node12 -->
<g id="edge14_Node000012_Node000010" class="edge">
<title>Node10&#45;&gt;Node12</title>
<g id="a_edge14_Node000012_Node000010"><a xlink:title=" ">
<path fill="none" stroke="#9a32cd" stroke-dasharray="5,2" d="M606.1,-66.64C608.82,-57.33 612.77,-46.31 618.12,-37.25 621.94,-30.79 627.51,-24.54 632.35,-19.71"/>
<polygon fill="#9a32cd" stroke="#9a32cd" points="602.76,-65.55 603.61,-76.11 609.53,-67.33 602.76,-65.55"/>
</a>
</g>
<text text-anchor="middle" x="627.5" y="-50.25" font-family="Helvetica,sans-Serif" font-size="10.00" fill="grey"> next</text>
<text text-anchor="middle" x="627.5" y="-39" font-family="Helvetica,sans-Serif" font-size="10.00" fill="grey">prev</text>
</g>
<!-- Node11 -->
<g id="Node000011" class="node">
<title>Node11</title>
<g id="a_Node000011"><a xlink:href="structOSContext.html" target="_top" xlink:title=" ">
<polygon fill="white" stroke="#666666" points="692,-176.38 628.75,-176.38 628.75,-157.12 692,-157.12 692,-176.38"/>
<text text-anchor="middle" x="660.38" y="-162.88" font-family="Helvetica,sans-Serif" font-size="10.00">OSContext</text>
</a>
</g>
</g>
<!-- Node11&#45;&gt;Node10 -->
<g id="edge11_Node000010_Node000011" class="edge">
<title>Node11&#45;&gt;Node10</title>
<g id="a_edge11_Node000010_Node000011"><a xlink:title=" ">
<path fill="none" stroke="#9a32cd" stroke-dasharray="5,2" d="M646.84,-148C634.72,-132.1 617.44,-109.45 608.06,-97.15"/>
<polygon fill="#9a32cd" stroke="#9a32cd" points="643.84,-149.84 652.69,-155.67 649.41,-145.6 643.84,-149.84"/>
</a>
</g>
<text text-anchor="middle" x="645.25" y="-116.75" font-family="Helvetica,sans-Serif" font-size="10.00" fill="grey"> context</text>
</g>
<!-- Node12&#45;&gt;Node10 -->
<g id="edge13_Node000010_Node000012" class="edge">
<title>Node12&#45;&gt;Node10</title>
<g id="a_edge13_Node000010_Node000012"><a xlink:title=" ">
<path fill="none" stroke="#9a32cd" stroke-dasharray="5,2" d="M646.62,-30.95C647.53,-40.25 647.08,-51.09 642.38,-59.75 638.24,-67.36 630.9,-73.13 623.55,-77.32"/>
<polygon fill="#9a32cd" stroke="#9a32cd" points="650.08,-30.4 645.04,-21.08 643.17,-31.51 650.08,-30.4"/>
</a>
</g>
<text text-anchor="middle" x="689.5" y="-50.25" font-family="Helvetica,sans-Serif" font-size="10.00" fill="grey"> active_threads_link</text>
<text text-anchor="middle" x="689.5" y="-39" font-family="Helvetica,sans-Serif" font-size="10.00" fill="grey">link</text>
</g>
<!-- Node13&#45;&gt;Node10 -->
<g id="edge16_Node000010_Node000013" class="edge">
<title>Node13&#45;&gt;Node10</title>
<g id="a_edge16_Node000010_Node000013"><a xlink:title=" ">
<path fill="none" stroke="#9a32cd" stroke-dasharray="5,2" d="M728.78,-150.57C711.78,-139.95 688.11,-125.79 666.38,-115 653.27,-108.49 638.17,-102.23 625.82,-97.42"/>
<polygon fill="#9a32cd" stroke="#9a32cd" points="726.82,-153.47 737.14,-155.86 730.56,-147.56 726.82,-153.47"/>
</a>
</g>
<text text-anchor="middle" x="721.75" y="-116.75" font-family="Helvetica,sans-Serif" font-size="10.00" fill="grey"> owned_mutexes</text>
</g>
<!-- Node14&#45;&gt;Node8 -->
<g id="edge19_Node000008_Node000014" class="edge">
<title>Node14&#45;&gt;Node8</title>
<g id="a_edge19_Node000008_Node000014"><a xlink:title=" ">
<path fill="none" stroke="#9a32cd" stroke-dasharray="5,2" d="M838.5,-186.23C828.17,-200.64 811.81,-219.83 792.38,-229.75 761.14,-245.7 660.04,-252.64 609.99,-255.16"/>
<polygon fill="#9a32cd" stroke="#9a32cd" points="841.35,-188.27 844.07,-178.03 835.56,-184.33 841.35,-188.27"/>
</a>
</g>
<text text-anchor="middle" x="828" y="-214.62" font-family="Helvetica,sans-Serif" font-size="10.00" fill="grey"> link</text>
</g>
<!-- Node15 -->
<g id="Node000015" class="node">
<title>Node15</title>
<g id="a_Node000015"><a xlink:href="classJSUTree.html" target="_top" xlink:title=" ">
<polygon fill="white" stroke="#666666" points="348.12,-267 234.62,-267 234.62,-247.75 348.12,-247.75 348.12,-267"/>
<text text-anchor="middle" x="291.38" y="-253.5" font-family="Helvetica,sans-Serif" font-size="10.00">JSUTree&lt; JKRHeap &gt;</text>
</a>
</g>
</g>
<!-- Node15&#45;&gt;Node7 -->
<g id="edge21_Node000007_Node000015" class="edge">
<title>Node15&#45;&gt;Node7</title>
<g id="a_edge21_Node000007_Node000015"><a xlink:title=" ">
<path fill="none" stroke="#9a32cd" stroke-dasharray="5,2" d="M291.38,-236.21C291.38,-217.55 291.38,-190.68 291.38,-176.8"/>
<polygon fill="#9a32cd" stroke="#9a32cd" points="287.88,-236.04 291.38,-246.04 294.88,-236.04 287.88,-236.04"/>
</a>
</g>
<text text-anchor="middle" x="317.25" y="-214.62" font-family="Helvetica,sans-Serif" font-size="10.00" fill="grey"> mChildTree</text>
</g>
<!-- Node16 -->
<g id="Node000016" class="node">
<title>Node16</title>
<g id="a_Node000016"><a xlink:href="classJSUList.html" target="_top" xlink:title=" ">
<polygon fill="white" stroke="#666666" points="290.62,-370.75 216.12,-370.75 216.12,-351.5 290.62,-351.5 290.62,-370.75"/>
<text text-anchor="middle" x="253.38" y="-357.25" font-family="Helvetica,sans-Serif" font-size="10.00">JSUList&lt; T &gt;</text>
</a>
</g>
</g>
<!-- Node16&#45;&gt;Node15 -->
<g id="edge22_Node000015_Node000016" class="edge">
<title>Node16&#45;&gt;Node15</title>
<g id="a_edge22_Node000015_Node000016"><a xlink:title=" ">
<path fill="none" stroke="#63b8ff" d="M260.77,-340.32C269.02,-318.22 282.01,-283.45 288.06,-267.24"/>
<polygon fill="#63b8ff" stroke="#63b8ff" points="257.5,-339.08 257.28,-349.68 264.05,-341.53 257.5,-339.08"/>
</a>
</g>
</g>
<!-- Node17 -->
<g id="Node000017" class="node">
<title>Node17</title>
<g id="a_Node000017"><a xlink:href="classJSUPtrList.html" target="_top" xlink:title=" ">
<polygon fill="white" stroke="#666666" points="312.75,-489 248,-489 248,-469.75 312.75,-469.75 312.75,-489"/>
<text text-anchor="middle" x="280.38" y="-475.5" font-family="Helvetica,sans-Serif" font-size="10.00">JSUPtrList</text>
</a>
</g>
</g>
<!-- Node17&#45;&gt;Node16 -->
<g id="edge23_Node000016_Node000017" class="edge">
<title>Node17&#45;&gt;Node16</title>
<g id="a_edge23_Node000016_Node000017"><a xlink:title=" ">
<path fill="none" stroke="#63b8ff" d="M291.05,-459.04C292,-456.64 292.81,-454.18 293.38,-451.75 299.69,-424.41 303.22,-413.15 289.38,-388.75 285.23,-381.45 278.18,-375.57 271.4,-371.21"/>
<polygon fill="#63b8ff" stroke="#63b8ff" points="287.9,-457.51 286.69,-468.03 294.2,-460.56 287.9,-457.51"/>
</a>
</g>
</g>
<!-- Node18 -->
<g id="Node000018" class="node">
<title>Node18</title>
<g id="a_Node000018"><a xlink:href="classJSUPtrLink.html" target="_top" xlink:title=" ">
<polygon fill="white" stroke="#666666" points="231.88,-409.62 164.88,-409.62 164.88,-390.38 231.88,-390.38 231.88,-409.62"/>
<text text-anchor="middle" x="198.38" y="-396.12" font-family="Helvetica,sans-Serif" font-size="10.00">JSUPtrLink</text>
</a>
</g>
</g>
<!-- Node17&#45;&gt;Node18 -->
<g id="edge25_Node000018_Node000017" class="edge">
<title>Node17&#45;&gt;Node18</title>
<g id="a_edge25_Node000018_Node000017"><a xlink:title=" ">
<path fill="none" stroke="#9a32cd" stroke-dasharray="5,2" d="M236.62,-473.22C223.27,-469.41 209.89,-462.89 201.38,-451.75 192.16,-439.69 193.97,-420.92 196.16,-409.91"/>
<polygon fill="#9a32cd" stroke="#9a32cd" points="235.71,-476.6 246.24,-475.47 237.3,-469.78 235.71,-476.6"/>
</a>
</g>
<text text-anchor="middle" x="214.88" y="-436.62" font-family="Helvetica,sans-Serif" font-size="10.00" fill="grey"> mList</text>
</g>
<!-- Node20 -->
<g id="Node000020" class="node">
<title>Node20</title>
<g id="a_Node000020"><a xlink:href="classJSUList.html" target="_top" xlink:title=" ">
<polygon fill="white" stroke="#666666" points="447.12,-370.75 321.62,-370.75 321.62,-351.5 447.12,-351.5 447.12,-370.75"/>
<text text-anchor="middle" x="384.38" y="-357.25" font-family="Helvetica,sans-Serif" font-size="10.00">JSUList&lt; JKRDisposer &gt;</text>
</a>
</g>
</g>
<!-- Node17&#45;&gt;Node20 -->
<g id="edge30_Node000020_Node000017" class="edge">
<title>Node17&#45;&gt;Node20</title>
<g id="a_edge30_Node000020_Node000017"><a xlink:title=" ">
<path fill="none" stroke="#63b8ff" d="M299.86,-461.87C303.45,-458.61 307.1,-455.15 310.38,-451.75 337.14,-424.02 365.16,-387.78 377.66,-371.16"/>
<polygon fill="#63b8ff" stroke="#63b8ff" points="297.64,-459.17 292.43,-468.4 302.26,-464.43 297.64,-459.17"/>
</a>
</g>
</g>
<!-- Node18&#45;&gt;Node17 -->
<g id="edge24_Node000017_Node000018" class="edge">
<title>Node18&#45;&gt;Node17</title>
<g id="a_edge24_Node000017_Node000018"><a xlink:title=" ">
<path fill="none" stroke="#9a32cd" stroke-dasharray="5,2" d="M218.23,-416.91C222.95,-420.85 227.91,-425.13 232.38,-429.25 246.92,-442.67 262.79,-459.34 272.14,-469.41"/>
<polygon fill="#9a32cd" stroke="#9a32cd" points="220.77,-414.47 210.82,-410.84 216.33,-419.88 220.77,-414.47"/>
</a>
</g>
<text text-anchor="middle" x="272.25" y="-442.25" font-family="Helvetica,sans-Serif" font-size="10.00" fill="grey"> mHead</text>
<text text-anchor="middle" x="272.25" y="-431" font-family="Helvetica,sans-Serif" font-size="10.00" fill="grey">mTail</text>
</g>
<!-- Node18&#45;&gt;Node18 -->
<g id="edge26_Node000018_Node000018" class="edge">
<title>Node18&#45;&gt;Node18</title>
<g id="a_edge26_Node000018_Node000018"><a xlink:title=" ">
<path fill="none" stroke="#9a32cd" stroke-dasharray="5,2" d="M243.13,-405.82C247.27,-404.62 249.88,-402.68 249.88,-400 249.88,-395.37 242.08,-392.94 232.06,-392.73"/>
<polygon fill="#9a32cd" stroke="#9a32cd" points="243.02,-402.3 233.56,-407.08 243.93,-409.25 243.02,-402.3"/>
</a>
</g>
<text text-anchor="middle" x="265.25" y="-401.75" font-family="Helvetica,sans-Serif" font-size="10.00" fill="grey"> mNext</text>
<text text-anchor="middle" x="265.25" y="-390.5" font-family="Helvetica,sans-Serif" font-size="10.00" fill="grey">mPrev</text>
</g>
<!-- Node19 -->
<g id="Node000019" class="node">
<title>Node19</title>
<g id="a_Node000019"><a xlink:href="classJSULink.html" target="_top" xlink:title=" ">
<polygon fill="white" stroke="#666666" points="357.75,-333.5 281,-333.5 281,-314.25 357.75,-314.25 357.75,-333.5"/>
<text text-anchor="middle" x="319.38" y="-320" font-family="Helvetica,sans-Serif" font-size="10.00">JSULink&lt; T &gt;</text>
</a>
</g>
</g>
<!-- Node18&#45;&gt;Node19 -->
<g id="edge28_Node000019_Node000018" class="edge">
<title>Node18&#45;&gt;Node19</title>
<g id="a_edge28_Node000019_Node000018"><a xlink:title=" ">
<path fill="none" stroke="#63b8ff" d="M243.3,-392.62C260.02,-388.51 278.32,-381.78 292.38,-370.75 304.73,-361.05 312.59,-344 316.47,-333.64"/>
<polygon fill="#63b8ff" stroke="#63b8ff" points="242.56,-389.2 233.54,-394.74 244.05,-396.04 242.56,-389.2"/>
</a>
</g>
</g>
<!-- Node21 -->
<g id="Node000021" class="node">
<title>Node21</title>
<g id="a_Node000021"><a xlink:href="classJSULink.html" target="_top" xlink:title=" ">
<polygon fill="white" stroke="#666666" points="225.25,-333.5 97.5,-333.5 97.5,-314.25 225.25,-314.25 225.25,-333.5"/>
<text text-anchor="middle" x="161.38" y="-320" font-family="Helvetica,sans-Serif" font-size="10.00">JSULink&lt; JKRDisposer &gt;</text>
</a>
</g>
</g>
<!-- Node18&#45;&gt;Node21 -->
<g id="edge33_Node000021_Node000018" class="edge">
<title>Node18&#45;&gt;Node21</title>
<g id="a_edge33_Node000021_Node000018"><a xlink:title=" ">
<path fill="none" stroke="#63b8ff" d="M188.75,-379.71C181.3,-364.79 171.34,-344.84 165.72,-333.58"/>
<polygon fill="#63b8ff" stroke="#63b8ff" points="185.56,-381.17 193.16,-388.56 191.83,-378.05 185.56,-381.17"/>
</a>
</g>
</g>
<!-- Node19&#45;&gt;Node15 -->
<g id="edge27_Node000015_Node000019" class="edge">
<title>Node19&#45;&gt;Node15</title>
<g id="a_edge27_Node000015_Node000019"><a xlink:title=" ">
<path fill="none" stroke="#63b8ff" d="M310.97,-303.52C305.75,-291.48 299.28,-276.58 295.24,-267.27"/>
<polygon fill="#63b8ff" stroke="#63b8ff" points="307.69,-304.74 314.88,-312.52 314.11,-301.95 307.69,-304.74"/>
</a>
</g>
</g>
<!-- Node20&#45;&gt;Node7 -->
<g id="edge29_Node000007_Node000020" class="edge">
<title>Node20&#45;&gt;Node7</title>
<g id="a_edge29_Node000007_Node000020"><a xlink:title=" ">
<path fill="none" stroke="#9a32cd" stroke-dasharray="5,2" d="M383.94,-339.92C382.35,-308.82 375.54,-248.49 347.38,-207.25 338.25,-193.89 323.01,-183.58 310.74,-176.84"/>
<polygon fill="#9a32cd" stroke="#9a32cd" points="380.44,-339.94 384.29,-349.81 387.43,-339.69 380.44,-339.94"/>
</a>
</g>
<text text-anchor="middle" x="411" y="-286.75" font-family="Helvetica,sans-Serif" font-size="10.00" fill="grey"> mDisposerList</text>
</g>
<!-- Node21&#45;&gt;Node6 -->
<g id="edge32_Node000006_Node000021" class="edge">
<title>Node21&#45;&gt;Node6</title>
<g id="a_edge32_Node000006_Node000021"><a xlink:title=" ">
<path fill="none" stroke="#9a32cd" stroke-dasharray="5,2" d="M166.57,-303.15C169.73,-291.18 173.6,-276.48 176.03,-267.27"/>
<polygon fill="#9a32cd" stroke="#9a32cd" points="163.29,-301.88 164.12,-312.44 170.06,-303.67 163.29,-301.88"/>
</a>
</g>
<text text-anchor="middle" x="186" y="-286.75" font-family="Helvetica,sans-Serif" font-size="10.00" fill="grey"> mLink</text>
</g>
</g>
</svg>

<g id="navigator" transform="translate(0 0)" fill="#404254">
  <rect fill="#f2f5e9" fill-opacity="0.5" stroke="#606060" stroke-width=".5" x="0" y="0" width="60" height="60"/>
  <use id="zoomplus" xlink:href="#zoomPlus" x="17" y="9" onmousedown="handleZoom(evt,'in')"/>
  <use id="zoomminus" xlink:href="#zoomMin" x="42" y="9" onmousedown="handleZoom(evt,'out')"/>
  <use id="reset" xlink:href="#resetDef" x="30" y="36" onmousedown="handleReset()"/>
   <use id="arrowup" xlink:href="#arrowUp" x="0" y="0" onmousedown="handlePan(0,-1)"/>
  <use id="arrowright" xlink:href="#arrowRight" x="0" y="0" onmousedown="handlePan(1,0)"/>
  <use id="arrowdown" xlink:href="#arrowDown" x="0" y="0" onmousedown="handlePan(0,1)"/>
  <use id="arrowleft" xlink:href="#arrowLeft" x="0" y="0" onmousedown="handlePan(-1,0)"/>
</g>
<svg viewBox="0 0 15 15" width="100%" height="30px" preserveAspectRatio="xMaxYMin meet">
 <g id="arrow_out" transform="scale(0.3 0.3)">
  <a xlink:href="classJSUFileInputStream__coll__graph_org.svg" target="_base">
   <rect id="button" ry="5" rx="5" y="6" x="6" height="38" width="38"
        fill="#f2f5e9" fill-opacity="0.5" stroke="#606060" stroke-width="1.0"/>
   <path id="arrow"
     d="M 11.500037,31.436501 C 11.940474,20.09759 22.043105,11.32322 32.158766,21.979434 L 37.068811,17.246167 C 37.068811,17.246167 37.088388,32 37.088388,32 L 22.160133,31.978069 C 22.160133,31.978069 26.997745,27.140456 26.997745,27.140456 C 18.528582,18.264221 13.291696,25.230495 11.500037,31.436501 z"
     style="fill:#404040;"/>
  </a>
 </g>
</svg>

<style type='text/css'>
<![CDATA[
[data-mouse-over-selected='false'] { opacity: 0.7; }
[data-mouse-over-selected='true']  { opacity: 1.0; }
]]>
</style>
<script type="application/ecmascript"><![CDATA[
document.addEventListener('DOMContentLoaded', (event) => {
  highlightEdges();
  highlightAdjacentNodes();
});
]]></script>
</svg>
