<?xml version="1.0" encoding="UTF-8" standalone="no"?>
<!DOCTYPE svg PUBLIC "-//W3C//DTD SVG 1.1//EN"
 "http://www.w3.org/Graphics/SVG/1.1/DTD/svg11.dtd">
<!-- Generated by graphviz version 9.0.0 (20230911.1827)
 -->
<!-- Title: dMenuFmapIconDisp_c Pages: 1 -->
<!--zoomable 368 -->

<svg id="main" version="1.1" xmlns="http://www.w3.org/2000/svg" xmlns:xlink="http://www.w3.org/1999/xlink" xml:space="preserve" onload="init(evt)">
<style type="text/css"><![CDATA[
.node, .edge {opacity: 0.7;}
.node.selected, .edge.selected {opacity: 1;}
.edge:hover path { stroke: red; }
.edge:hover polygon { stroke: red; fill: red; }
]]></style>

<defs>
  <circle id="rim" cx="0" cy="0" r="7"/>
  <circle id="rim2" cx="0" cy="0" r="3.5"/>
  <g id="zoomPlus">
    <use xlink:href="#rim" fill="#404040"><set attributeName="fill" to="#808080" begin="zoomplus.mouseover" end="zoomplus.mouseout"/></use>
    <path d="M-4,0h8M0,-4v8" fill="none" stroke="white" stroke-width="1.5" pointer-events="none"/>
  </g>
  <g id="zoomMin">
    <use xlink:href="#rim" fill="#404040"><set attributeName="fill" to="#808080" begin="zoomminus.mouseover" end="zoomminus.mouseout"/></use>
    <path d="M-4,0h8" fill="none" stroke="white" stroke-width="1.5" pointer-events="none"/>
  </g>
  <g id="arrowUp" transform="translate(30 24)">
    <use xlink:href="#rim"/>
    <path pointer-events="none" fill="none" stroke="white" stroke-width="1.5" d="M0,-3.0v7 M-2.5,-0.5L0,-3.0L2.5,-0.5"/>
  </g>
  <g id="arrowRight" transform="rotate(90) translate(36 -43)">
    <use xlink:href="#rim"/>
    <path pointer-events="none" fill="none" stroke="white" stroke-width="1.5" d="M0,-3.0v7 M-2.5,-0.5L0,-3.0L2.5,-0.5"/>
  </g>
  <g id="arrowDown" transform="rotate(180) translate(-30 -48)">
    <use xlink:href="#rim"/>
    <path pointer-events="none" fill="none" stroke="white" stroke-width="1.5" d="M0,-3.0v7 M-2.5,-0.5L0,-3.0L2.5,-0.5"/>
  </g>
  <g id="arrowLeft" transform="rotate(270) translate(-36 17)">
    <use xlink:href="#rim"/>
    <path pointer-events="none" fill="none" stroke="white" stroke-width="1.5" d="M0,-3.0v7 M-2.5,-0.5L0,-3.0L2.5,-0.5"/>
  </g>
  <g id="resetDef">
    <use xlink:href="#rim2" fill="#404040"><set attributeName="fill" to="#808080" begin="reset.mouseover" end="reset.mouseout"/></use>
  </g>
</defs>
<script type="application/ecmascript">
var viewWidth = 1800;
var viewHeight = 368;
var sectionId = 'dynsection-1';
</script>
<script type="application/ecmascript" xlink:href="svg.min.js"/>
<svg id="graph" class="graph">
<g id="viewport">
<title>dMenuFmapIconDisp_c</title>
<!-- Node1 -->
<g id="Node000001" class="node">
<title>Node1</title>
<g id="a_Node000001"><a xlink:title=" ">
<polygon fill="#999999" stroke="#666666" points="1791.5,-165.62 1672.75,-165.62 1672.75,-146.38 1791.5,-146.38 1791.5,-165.62"/>
<text text-anchor="middle" x="1732.12" y="-152.12" font-family="Helvetica,sans-Serif" font-size="10.00">dMenuFmapIconDisp_c</text>
</a>
</g>
</g>
<!-- Node2 -->
<g id="Node000002" class="node">
<title>Node2</title>
<g id="a_Node000002"><a xlink:href="classdMenuFmapIconPointer__c.html" target="_top" xlink:title=" ">
<polygon fill="white" stroke="#666666" points="1635.75,-165.62 1505.75,-165.62 1505.75,-146.38 1635.75,-146.38 1635.75,-165.62"/>
<text text-anchor="middle" x="1570.75" y="-152.12" font-family="Helvetica,sans-Serif" font-size="10.00">dMenuFmapIconPointer_c</text>
</a>
</g>
</g>
<!-- Node2&#45;&gt;Node1 -->
<g id="edge1_Node000001_Node000002" class="edge">
<title>Node2&#45;&gt;Node1</title>
<g id="a_edge1_Node000001_Node000002"><a xlink:title=" ">
<path fill="none" stroke="#63b8ff" d="M1647.48,-156C1655.86,-156 1664.31,-156 1672.44,-156"/>
<polygon fill="#63b8ff" stroke="#63b8ff" points="1647.63,-152.5 1637.63,-156 1647.63,-159.5 1647.63,-152.5"/>
</a>
</g>
</g>
<!-- Node3 -->
<g id="Node000003" class="node">
<title>Node3</title>
<g id="a_Node000003"><a xlink:href="classdMenu__Fmap__region__data__c.html" target="_top" xlink:title=" ">
<polygon fill="white" stroke="#666666" points="1399.38,-289.62 1258.12,-289.62 1258.12,-270.38 1399.38,-270.38 1399.38,-289.62"/>
<text text-anchor="middle" x="1328.75" y="-276.12" font-family="Helvetica,sans-Serif" font-size="10.00">dMenu_Fmap_region_data_c</text>
</a>
</g>
</g>
<!-- Node3&#45;&gt;Node2 -->
<g id="edge2_Node000002_Node000003" class="edge">
<title>Node3&#45;&gt;Node2</title>
<g id="a_edge2_Node000002_Node000003"><a xlink:title=" ">
<path fill="none" stroke="#9a32cd" stroke-dasharray="5,2" d="M1386.32,-266.87C1392.26,-265.07 1398.17,-263.12 1403.75,-261 1442.97,-246.14 1452.22,-240.29 1487.75,-218 1514.06,-201.5 1542.48,-178.79 1558,-165.93"/>
<polygon fill="#9a32cd" stroke="#9a32cd" points="1385.76,-263.39 1377.1,-269.49 1387.67,-270.12 1385.76,-263.39"/>
</a>
</g>
<text text-anchor="middle" x="1454.75" y="-255.75" font-family="Helvetica,sans-Serif" font-size="10.00" fill="grey"> mpRegionData</text>
</g>
<!-- Node3&#45;&gt;Node3 -->
<g id="edge26_Node000003_Node000003" class="edge">
<title>Node3&#45;&gt;Node3</title>
<g id="a_edge26_Node000003_Node000003"><a xlink:title=" ">
<path fill="none" stroke="#9a32cd" stroke-dasharray="5,2" d="M1306.39,-301.03C1309.18,-304.9 1316.64,-307.62 1328.75,-307.62 1350.9,-307.62 1357.47,-298.52 1348.48,-289.91"/>
<polygon fill="#9a32cd" stroke="#9a32cd" points="1309.77,-301.92 1308.67,-291.39 1302.96,-300.31 1309.77,-301.92"/>
</a>
</g>
<text text-anchor="middle" x="1328.75" y="-309.38" font-family="Helvetica,sans-Serif" font-size="10.00" fill="grey"> mpNextData</text>
</g>
<!-- Node4 -->
<g id="Node000004" class="node">
<title>Node4</title>
<g id="a_Node000004"><a xlink:href="classdMenu__Fmap__stage__data__c.html" target="_top" xlink:title=" ">
<polygon fill="white" stroke="#666666" points="1065.5,-324.62 926.5,-324.62 926.5,-305.38 1065.5,-305.38 1065.5,-324.62"/>
<text text-anchor="middle" x="996" y="-311.12" font-family="Helvetica,sans-Serif" font-size="10.00">dMenu_Fmap_stage_data_c</text>
</a>
</g>
</g>
<!-- Node4&#45;&gt;Node2 -->
<g id="edge27_Node000002_Node000004" class="edge">
<title>Node4&#45;&gt;Node2</title>
<g id="a_edge27_Node000002_Node000004"><a xlink:title=" ">
<path fill="none" stroke="#9a32cd" stroke-dasharray="5,2" d="M1049.14,-327.46C1128.01,-343.94 1281.43,-366.66 1403.75,-328 1488.83,-301.11 1548.09,-198.07 1564.89,-165.75"/>
<polygon fill="#9a32cd" stroke="#9a32cd" points="1050.04,-324.08 1039.53,-325.4 1048.58,-330.92 1050.04,-324.08"/>
</a>
</g>
<text text-anchor="middle" x="1328.75" y="-350.75" font-family="Helvetica,sans-Serif" font-size="10.00" fill="grey"> mpStageData</text>
</g>
<!-- Node4&#45;&gt;Node3 -->
<g id="edge3_Node000003_Node000004" class="edge">
<title>Node4&#45;&gt;Node3</title>
<g id="a_edge3_Node000003_Node000004"><a xlink:title=" ">
<path fill="none" stroke="#9a32cd" stroke-dasharray="5,2" d="M1076.99,-308.6C1123.4,-304.65 1182.94,-299.16 1235.75,-293 1243.28,-292.12 1251.15,-291.13 1258.97,-290.09"/>
<polygon fill="#9a32cd" stroke="#9a32cd" points="1076.97,-305.09 1067.3,-309.42 1077.56,-312.07 1076.97,-305.09"/>
</a>
</g>
<text text-anchor="middle" x="1159.62" y="-309.75" font-family="Helvetica,sans-Serif" font-size="10.00" fill="grey"> mpMenuFmapStageDataTop</text>
</g>
<!-- Node4&#45;&gt;Node4 -->
<g id="edge25_Node000004_Node000004" class="edge">
<title>Node4&#45;&gt;Node4</title>
<g id="a_edge25_Node000004_Node000004"><a xlink:title=" ">
<path fill="none" stroke="#9a32cd" stroke-dasharray="5,2" d="M973.08,-336.03C975.95,-339.9 983.59,-342.62 996,-342.62 1018.7,-342.62 1025.44,-333.52 1016.22,-324.91"/>
<polygon fill="#9a32cd" stroke="#9a32cd" points="976.46,-336.93 975.43,-326.38 969.66,-335.27 976.46,-336.93"/>
</a>
</g>
<text text-anchor="middle" x="996" y="-344.38" font-family="Helvetica,sans-Serif" font-size="10.00" fill="grey"> mpNextData</text>
</g>
<!-- Node6 -->
<g id="Node000006" class="node">
<title>Node6</title>
<g id="a_Node000006"><a xlink:href="classdMenu__Fmap__room__data__c.html" target="_top" xlink:title=" ">
<polygon fill="white" stroke="#666666" points="1397.12,-222.62 1260.38,-222.62 1260.38,-203.38 1397.12,-203.38 1397.12,-222.62"/>
<text text-anchor="middle" x="1328.75" y="-209.12" font-family="Helvetica,sans-Serif" font-size="10.00">dMenu_Fmap_room_data_c</text>
</a>
</g>
</g>
<!-- Node4&#45;&gt;Node6 -->
<g id="edge24_Node000006_Node000004" class="edge">
<title>Node4&#45;&gt;Node6</title>
<g id="a_edge24_Node000006_Node000004"><a xlink:title=" ">
<path fill="none" stroke="#9a32cd" stroke-dasharray="5,2" d="M1013.89,-296.72C1030.07,-280.46 1056.04,-257.5 1083.5,-245.75 1085.55,-244.87 1188.56,-231.24 1260.14,-221.85"/>
<polygon fill="#9a32cd" stroke="#9a32cd" points="1011.43,-294.23 1007.01,-303.86 1016.47,-299.09 1011.43,-294.23"/>
</a>
</g>
<text text-anchor="middle" x="1159.62" y="-247.75" font-family="Helvetica,sans-Serif" font-size="10.00" fill="grey"> mp_parentStage</text>
</g>
<!-- Node5 -->
<g id="Node000005" class="node">
<title>Node5</title>
<g id="a_Node000005"><a xlink:href="classdMenu__Fmap__stage__arc__data__c.html" target="_top" xlink:title=" ">
<polygon fill="white" stroke="#666666" points="795.62,-345.25 672.38,-345.25 672.38,-314.75 795.62,-314.75 795.62,-345.25"/>
<text text-anchor="start" x="680.38" y="-331.75" font-family="Helvetica,sans-Serif" font-size="10.00">dMenu_Fmap_stage_arc</text>
<text text-anchor="middle" x="734" y="-320.5" font-family="Helvetica,sans-Serif" font-size="10.00">_data_c</text>
</a>
</g>
</g>
<!-- Node5&#45;&gt;Node4 -->
<g id="edge4_Node000004_Node000005" class="edge">
<title>Node5&#45;&gt;Node4</title>
<g id="a_edge4_Node000004_Node000005"><a xlink:title=" ">
<path fill="none" stroke="#9a32cd" stroke-dasharray="5,2" d="M807.22,-325.83C844.4,-323.69 889.49,-321.09 926.17,-318.97"/>
<polygon fill="#9a32cd" stroke="#9a32cd" points="807.25,-322.33 797.47,-326.4 807.65,-329.31 807.25,-322.33"/>
</a>
</g>
<text text-anchor="middle" x="866.88" y="-325.75" font-family="Helvetica,sans-Serif" font-size="10.00" fill="grey"> mpStageArc</text>
</g>
<!-- Node6&#45;&gt;Node2 -->
<g id="edge28_Node000002_Node000006" class="edge">
<title>Node6&#45;&gt;Node2</title>
<g id="a_edge28_Node000002_Node000006"><a xlink:title=" ">
<path fill="none" stroke="#9a32cd" stroke-dasharray="5,2" d="M1408.49,-204.7C1434.04,-201.04 1462.34,-195.94 1487.75,-189 1509.07,-183.18 1532.35,-173.46 1548.64,-166.08"/>
<polygon fill="#9a32cd" stroke="#9a32cd" points="1408.28,-201.19 1398.85,-206.02 1409.24,-208.13 1408.28,-201.19"/>
</a>
</g>
<text text-anchor="middle" x="1454.75" y="-204.75" font-family="Helvetica,sans-Serif" font-size="10.00" fill="grey"> mpRoomData</text>
</g>
<!-- Node6&#45;&gt;Node4 -->
<g id="edge5_Node000004_Node000006" class="edge">
<title>Node6&#45;&gt;Node4</title>
<g id="a_edge5_Node000004_Node000006"><a xlink:title=" ">
<path fill="none" stroke="#9a32cd" stroke-dasharray="5,2" d="M1302.11,-228.69C1284.17,-238.94 1259.28,-251.73 1235.75,-259 1170.5,-279.15 1149.48,-262.11 1083.5,-279.75 1060.16,-285.99 1034.68,-296.91 1017.47,-304.94"/>
<polygon fill="#9a32cd" stroke="#9a32cd" points="1303.65,-231.85 1310.51,-223.77 1300.11,-225.81 1303.65,-231.85"/>
</a>
</g>
<text text-anchor="middle" x="1159.62" y="-281.75" font-family="Helvetica,sans-Serif" font-size="10.00" fill="grey"> mp_roomTop</text>
</g>
<!-- Node6&#45;&gt;Node6 -->
<g id="edge23_Node000006_Node000006" class="edge">
<title>Node6&#45;&gt;Node6</title>
<g id="a_edge23_Node000006_Node000006"><a xlink:title=" ">
<path fill="none" stroke="#9a32cd" stroke-dasharray="5,2" d="M1306.39,-234.03C1309.18,-237.9 1316.64,-240.62 1328.75,-240.62 1350.9,-240.62 1357.47,-231.52 1348.48,-222.91"/>
<polygon fill="#9a32cd" stroke="#9a32cd" points="1309.77,-234.92 1308.67,-224.39 1302.96,-233.31 1309.77,-234.92"/>
</a>
</g>
<text text-anchor="middle" x="1328.75" y="-242.38" font-family="Helvetica,sans-Serif" font-size="10.00" fill="grey"> mp_nextData</text>
</g>
<!-- Node7 -->
<g id="Node000007" class="node">
<title>Node7</title>
<g id="a_Node000007"><a xlink:href="classdMenu__Fmap__data__c.html" target="_top" xlink:title=" ">
<polygon fill="white" stroke="#666666" points="1050.88,-241.62 941.12,-241.62 941.12,-222.38 1050.88,-222.38 1050.88,-241.62"/>
<text text-anchor="middle" x="996" y="-228.12" font-family="Helvetica,sans-Serif" font-size="10.00">dMenu_Fmap_data_c</text>
</a>
</g>
</g>
<!-- Node7&#45;&gt;Node6 -->
<g id="edge6_Node000006_Node000007" class="edge">
<title>Node7&#45;&gt;Node6</title>
<g id="a_edge6_Node000006_Node000007"><a xlink:title=" ">
<path fill="none" stroke="#9a32cd" stroke-dasharray="5,2" d="M1047.36,-219.56C1059.14,-217.16 1071.7,-215 1083.5,-213.75 1142.85,-207.46 1210.77,-207.86 1259.9,-209.5"/>
<polygon fill="#9a32cd" stroke="#9a32cd" points="1046.87,-216.09 1037.83,-221.61 1048.34,-222.93 1046.87,-216.09"/>
</a>
</g>
<text text-anchor="middle" x="1159.62" y="-215.75" font-family="Helvetica,sans-Serif" font-size="10.00" fill="grey"> mp_fmapData</text>
</g>
<!-- Node8 -->
<g id="Node000008" class="node">
<title>Node8</title>
<g id="a_Node000008"><a xlink:href="structdTres__c_1_1list__class.html" target="_top" xlink:title=" ">
<polygon fill="white" stroke="#666666" points="782.5,-222.62 685.5,-222.62 685.5,-203.38 782.5,-203.38 782.5,-222.62"/>
<text text-anchor="middle" x="734" y="-209.12" font-family="Helvetica,sans-Serif" font-size="10.00">dTres_c::list_class</text>
</a>
</g>
</g>
<!-- Node8&#45;&gt;Node7 -->
<g id="edge7_Node000007_Node000008" class="edge">
<title>Node8&#45;&gt;Node7</title>
<g id="a_edge7_Node000007_Node000008"><a xlink:title=" ">
<path fill="none" stroke="#9a32cd" stroke-dasharray="5,2" d="M794.35,-216.19C827.88,-218.11 870.55,-220.77 908.5,-223.75 919.03,-224.58 930.26,-225.57 941.04,-226.57"/>
<polygon fill="#9a32cd" stroke="#9a32cd" points="794.59,-212.7 784.41,-215.62 794.19,-219.69 794.59,-212.7"/>
</a>
</g>
<text text-anchor="middle" x="866.88" y="-225.75" font-family="Helvetica,sans-Serif" font-size="10.00" fill="grey"> mp_tresure</text>
</g>
<!-- Node9 -->
<g id="Node000009" class="node">
<title>Node9</title>
<g id="a_Node000009"><a xlink:href="structdTres__c_1_1typeGroupData__c.html" target="_top" xlink:title=" ">
<polygon fill="white" stroke="#666666" points="520.5,-184.62 389.75,-184.62 389.75,-165.38 520.5,-165.38 520.5,-184.62"/>
<text text-anchor="middle" x="455.12" y="-171.12" font-family="Helvetica,sans-Serif" font-size="10.00">dTres_c::typeGroupData_c</text>
</a>
</g>
</g>
<!-- Node9&#45;&gt;Node2 -->
<g id="edge32_Node000002_Node000009" class="edge">
<title>Node9&#45;&gt;Node2</title>
<g id="a_edge32_Node000002_Node000009"><a xlink:title=" ">
<path fill="none" stroke="#9a32cd" stroke-dasharray="5,2" d="M531.92,-175C587.57,-175 664.98,-175 733,-175 733,-175 733,-175 1329.75,-175 1389.42,-175 1457.16,-169.09 1505.43,-163.87"/>
<polygon fill="#9a32cd" stroke="#9a32cd" points="532.25,-171.5 522.25,-175 532.25,-178.5 532.25,-171.5"/>
</a>
</g>
<text text-anchor="middle" x="996" y="-176.75" font-family="Helvetica,sans-Serif" font-size="10.00" fill="grey"> mpTresTypeGroupData</text>
</g>
<!-- Node9&#45;&gt;Node8 -->
<g id="edge8_Node000008_Node000009" class="edge">
<title>Node9&#45;&gt;Node8</title>
<g id="a_edge8_Node000008_Node000009"><a xlink:title=" ">
<path fill="none" stroke="#9a32cd" stroke-dasharray="5,2" d="M524.38,-186.85C529.16,-187.6 533.9,-188.33 538.5,-189 588.49,-196.33 645.93,-203.23 685.36,-207.73"/>
<polygon fill="#9a32cd" stroke="#9a32cd" points="525.16,-183.43 514.73,-185.29 524.05,-190.34 525.16,-183.43"/>
</a>
</g>
<text text-anchor="middle" x="590.62" y="-204.75" font-family="Helvetica,sans-Serif" font-size="10.00" fill="grey"> field_0x4</text>
</g>
<!-- Node9&#45;&gt;Node9 -->
<g id="edge11_Node000009_Node000009" class="edge">
<title>Node9&#45;&gt;Node9</title>
<g id="a_edge11_Node000009_Node000009"><a xlink:title=" ">
<path fill="none" stroke="#9a32cd" stroke-dasharray="5,2" d="M435.4,-196.03C437.87,-199.9 444.44,-202.62 455.12,-202.62 474.66,-202.62 480.46,-193.52 472.52,-184.91"/>
<polygon fill="#9a32cd" stroke="#9a32cd" points="438.79,-196.9 437.42,-186.39 431.94,-195.46 438.79,-196.9"/>
</a>
</g>
<text text-anchor="middle" x="455.12" y="-204.38" font-family="Helvetica,sans-Serif" font-size="10.00" fill="grey"> mNextData</text>
</g>
<!-- Node10 -->
<g id="Node000010" class="node">
<title>Node10</title>
<g id="a_Node000010"><a xlink:href="structdTres__c_1_1data__s.html" target="_top" xlink:title=" ">
<polygon fill="white" stroke="#666666" points="289.25,-138.62 204.25,-138.62 204.25,-119.38 289.25,-119.38 289.25,-138.62"/>
<text text-anchor="middle" x="246.75" y="-125.12" font-family="Helvetica,sans-Serif" font-size="10.00">dTres_c::data_s</text>
</a>
</g>
</g>
<!-- Node10&#45;&gt;Node2 -->
<g id="edge33_Node000002_Node000010" class="edge">
<title>Node10&#45;&gt;Node2</title>
<g id="a_edge33_Node000002_Node000010"><a xlink:title=" ">
<path fill="none" stroke="#9a32cd" stroke-dasharray="5,2" d="M300.91,-129C342.59,-129 402.05,-129 454.12,-129 454.12,-129 454.12,-129 867.88,-129 1102.92,-129 1381.92,-144.31 1505.43,-151.87"/>
<polygon fill="#9a32cd" stroke="#9a32cd" points="301.16,-125.5 291.16,-129 301.16,-132.5 301.16,-125.5"/>
</a>
</g>
<text text-anchor="middle" x="866.88" y="-130.75" font-family="Helvetica,sans-Serif" font-size="10.00" fill="grey"> mpTresData</text>
</g>
<!-- Node10&#45;&gt;Node9 -->
<g id="edge9_Node000009_Node000010" class="edge">
<title>Node10&#45;&gt;Node9</title>
<g id="a_edge9_Node000009_Node000010"><a xlink:title=" ">
<path fill="none" stroke="#63b8ff" d="M300.48,-140.75C333.98,-148.22 376.89,-157.78 408.84,-164.91"/>
<polygon fill="#63b8ff" stroke="#63b8ff" points="301.51,-137.4 290.99,-138.64 299.99,-144.23 301.51,-137.4"/>
</a>
</g>
</g>
<!-- Node20 -->
<g id="Node000020" class="node">
<title>Node20</title>
<g id="a_Node000020"><a xlink:href="classfmpTresTypeGroupData__c.html" target="_top" xlink:title=" ">
<polygon fill="white" stroke="#666666" points="520.12,-60.62 390.12,-60.62 390.12,-41.38 520.12,-41.38 520.12,-60.62"/>
<text text-anchor="middle" x="455.12" y="-47.12" font-family="Helvetica,sans-Serif" font-size="10.00">fmpTresTypeGroupData_c</text>
</a>
</g>
</g>
<!-- Node10&#45;&gt;Node20 -->
<g id="edge21_Node000020_Node000010" class="edge">
<title>Node10&#45;&gt;Node20</title>
<g id="a_edge21_Node000020_Node000010"><a xlink:title=" ">
<path fill="none" stroke="#9a32cd" stroke-dasharray="5,2" d="M284.95,-114.94C325.99,-99.43 391.02,-74.85 427.34,-61.12"/>
<polygon fill="#9a32cd" stroke="#9a32cd" points="283.84,-111.62 275.72,-118.43 286.31,-118.17 283.84,-111.62"/>
</a>
</g>
<text text-anchor="middle" x="344" y="-103.75" font-family="Helvetica,sans-Serif" font-size="10.00" fill="grey"> mpTresData</text>
</g>
<!-- Node11 -->
<g id="Node000011" class="node">
<title>Node11</title>
<g id="a_Node000011"><a xlink:href="structVec.html" target="_top" xlink:title=" ">
<polygon fill="white" stroke="#666666" points="79,-138.62 45.75,-138.62 45.75,-119.38 79,-119.38 79,-138.62"/>
<text text-anchor="middle" x="62.38" y="-125.12" font-family="Helvetica,sans-Serif" font-size="10.00">Vec</text>
</a>
</g>
</g>
<!-- Node11&#45;&gt;Node10 -->
<g id="edge10_Node000010_Node000011" class="edge">
<title>Node11&#45;&gt;Node10</title>
<g id="a_edge10_Node000010_Node000011"><a xlink:title=" ">
<path fill="none" stroke="#9a32cd" stroke-dasharray="5,2" d="M90.49,-129C120.48,-129 169.16,-129 204.02,-129"/>
<polygon fill="#9a32cd" stroke="#9a32cd" points="90.75,-125.5 80.75,-129 90.75,-132.5 90.75,-125.5"/>
</a>
</g>
<text text-anchor="middle" x="160" y="-130.75" font-family="Helvetica,sans-Serif" font-size="10.00" fill="grey"> mPos</text>
</g>
<!-- Node12 -->
<g id="Node000012" class="node">
<title>Node12</title>
<g id="a_Node000012"><a xlink:href="classdStage__FileList2__dt__c.html" target="_top" xlink:title=" ">
<polygon fill="white" stroke="#666666" points="790.75,-296.62 677.25,-296.62 677.25,-277.38 790.75,-277.38 790.75,-296.62"/>
<text text-anchor="middle" x="734" y="-283.12" font-family="Helvetica,sans-Serif" font-size="10.00">dStage_FileList2_dt_c</text>
</a>
</g>
</g>
<!-- Node12&#45;&gt;Node7 -->
<g id="edge12_Node000007_Node000012" class="edge">
<title>Node12&#45;&gt;Node7</title>
<g id="a_edge12_Node000007_Node000012"><a xlink:title=" ">
<path fill="none" stroke="#9a32cd" stroke-dasharray="5,2" d="M802.02,-278.46C834.4,-273.76 873.7,-267.2 908.5,-259 928.1,-254.38 949.73,-247.63 966.45,-242.04"/>
<polygon fill="#9a32cd" stroke="#9a32cd" points="801.78,-274.96 792.37,-279.83 802.77,-281.89 801.78,-274.96"/>
</a>
</g>
<text text-anchor="middle" x="866.88" y="-276.75" font-family="Helvetica,sans-Serif" font-size="10.00" fill="grey"> m_fileList2</text>
</g>
<!-- Node13 -->
<g id="Node000013" class="node">
<title>Node13</title>
<g id="a_Node000013"><a xlink:href="structdDrawPath__c_1_1room__class.html" target="_top" xlink:title=" ">
<polygon fill="white" stroke="#666666" points="798.62,-259.62 669.38,-259.62 669.38,-240.38 798.62,-240.38 798.62,-259.62"/>
<text text-anchor="middle" x="734" y="-246.12" font-family="Helvetica,sans-Serif" font-size="10.00">dDrawPath_c::room_class</text>
</a>
</g>
</g>
<!-- Node13&#45;&gt;Node7 -->
<g id="edge13_Node000007_Node000013" class="edge">
<title>Node13&#45;&gt;Node7</title>
<g id="a_edge13_Node000007_Node000013"><a xlink:title=" ">
<path fill="none" stroke="#9a32cd" stroke-dasharray="5,2" d="M810.19,-244.79C852.02,-241.9 903.12,-238.36 940.98,-235.74"/>
<polygon fill="#9a32cd" stroke="#9a32cd" points="810.18,-241.29 800.45,-245.47 810.66,-248.27 810.18,-241.29"/>
</a>
</g>
<text text-anchor="middle" x="866.88" y="-245.75" font-family="Helvetica,sans-Serif" font-size="10.00" fill="grey"> mp_mapPath</text>
</g>
<!-- Node14 -->
<g id="Node000014" class="node">
<title>Node14</title>
<g id="a_Node000014"><a xlink:href="structdDrawPath__c_1_1floor__class.html" target="_top" xlink:title=" ">
<polygon fill="white" stroke="#666666" points="503.62,-265.25 406.62,-265.25 406.62,-234.75 503.62,-234.75 503.62,-265.25"/>
<text text-anchor="start" x="414.62" y="-251.75" font-family="Helvetica,sans-Serif" font-size="10.00">dDrawPath_c::floor</text>
<text text-anchor="middle" x="455.12" y="-240.5" font-family="Helvetica,sans-Serif" font-size="10.00">_class</text>
</a>
</g>
</g>
<!-- Node14&#45;&gt;Node13 -->
<g id="edge14_Node000013_Node000014" class="edge">
<title>Node14&#45;&gt;Node13</title>
<g id="a_edge14_Node000013_Node000014"><a xlink:title=" ">
<path fill="none" stroke="#9a32cd" stroke-dasharray="5,2" d="M515.43,-250C560.64,-250 622.78,-250 669.08,-250"/>
<polygon fill="#9a32cd" stroke="#9a32cd" points="515.55,-246.5 505.55,-250 515.55,-253.5 515.55,-246.5"/>
</a>
</g>
<text text-anchor="middle" x="590.62" y="-251.75" font-family="Helvetica,sans-Serif" font-size="10.00" fill="grey"> mpFloor</text>
</g>
<!-- Node15 -->
<g id="Node000015" class="node">
<title>Node15</title>
<g id="a_Node000015"><a xlink:href="structdDrawPath__c_1_1group__class.html" target="_top" xlink:title=" ">
<polygon fill="white" stroke="#666666" points="298.25,-265.25 195.25,-265.25 195.25,-234.75 298.25,-234.75 298.25,-265.25"/>
<text text-anchor="start" x="203.25" y="-251.75" font-family="Helvetica,sans-Serif" font-size="10.00">dDrawPath_c::group</text>
<text text-anchor="middle" x="246.75" y="-240.5" font-family="Helvetica,sans-Serif" font-size="10.00">_class</text>
</a>
</g>
</g>
<!-- Node15&#45;&gt;Node14 -->
<g id="edge15_Node000014_Node000015" class="edge">
<title>Node15&#45;&gt;Node14</title>
<g id="a_edge15_Node000014_Node000015"><a xlink:title=" ">
<path fill="none" stroke="#9a32cd" stroke-dasharray="5,2" d="M309.63,-250C340.65,-250 377.62,-250 406.41,-250"/>
<polygon fill="#9a32cd" stroke="#9a32cd" points="310.01,-246.5 300.01,-250 310.01,-253.5 310.01,-246.5"/>
</a>
</g>
<text text-anchor="middle" x="344" y="-251.75" font-family="Helvetica,sans-Serif" font-size="10.00" fill="grey"> mpGroup</text>
</g>
<!-- Node16 -->
<g id="Node000016" class="node">
<title>Node16</title>
<g id="a_Node000016"><a xlink:href="structdDrawPath__c_1_1line__class.html" target="_top" xlink:title=" ">
<polygon fill="white" stroke="#666666" points="123.62,-240.62 1.12,-240.62 1.12,-221.38 123.62,-221.38 123.62,-240.62"/>
<text text-anchor="middle" x="62.38" y="-227.12" font-family="Helvetica,sans-Serif" font-size="10.00">dDrawPath_c::line_class</text>
</a>
</g>
</g>
<!-- Node16&#45;&gt;Node15 -->
<g id="edge16_Node000015_Node000016" class="edge">
<title>Node16&#45;&gt;Node15</title>
<g id="a_edge16_Node000015_Node000016"><a xlink:title=" ">
<path fill="none" stroke="#9a32cd" stroke-dasharray="5,2" d="M135.06,-237.48C149.06,-238.83 163.62,-240.29 177.25,-241.75 182.97,-242.36 188.95,-243.04 194.89,-243.73"/>
<polygon fill="#9a32cd" stroke="#9a32cd" points="135.77,-234.04 125.49,-236.57 135.11,-241 135.77,-234.04"/>
</a>
</g>
<text text-anchor="middle" x="160" y="-243.75" font-family="Helvetica,sans-Serif" font-size="10.00" fill="grey"> mpLine</text>
</g>
<!-- Node17 -->
<g id="Node000017" class="node">
<title>Node17</title>
<g id="a_Node000017"><a xlink:href="structdDrawPath__c_1_1poly__class.html" target="_top" xlink:title=" ">
<polygon fill="white" stroke="#666666" points="124.75,-277.62 0,-277.62 0,-258.38 124.75,-258.38 124.75,-277.62"/>
<text text-anchor="middle" x="62.38" y="-264.12" font-family="Helvetica,sans-Serif" font-size="10.00">dDrawPath_c::poly_class</text>
</a>
</g>
</g>
<!-- Node17&#45;&gt;Node15 -->
<g id="edge17_Node000015_Node000017" class="edge">
<title>Node17&#45;&gt;Node15</title>
<g id="a_edge17_Node000015_Node000017"><a xlink:title=" ">
<path fill="none" stroke="#9a32cd" stroke-dasharray="5,2" d="M136.5,-260.78C156.11,-258.85 176.88,-256.8 194.98,-255.01"/>
<polygon fill="#9a32cd" stroke="#9a32cd" points="136.23,-257.29 126.63,-261.76 136.92,-264.26 136.23,-257.29"/>
</a>
</g>
<text text-anchor="middle" x="160" y="-262.75" font-family="Helvetica,sans-Serif" font-size="10.00" fill="grey"> mpPoly</text>
</g>
<!-- Node18 -->
<g id="Node000018" class="node">
<title>Node18</title>
<g id="a_Node000018"><a xlink:href="classfmpTresTypeGroupDataListAll__c.html" target="_top" xlink:title=" ">
<polygon fill="white" stroke="#666666" points="1064,-97.25 928,-97.25 928,-66.75 1064,-66.75 1064,-97.25"/>
<text text-anchor="start" x="936" y="-83.75" font-family="Helvetica,sans-Serif" font-size="10.00">fmpTresTypeGroupDataList</text>
<text text-anchor="middle" x="996" y="-72.5" font-family="Helvetica,sans-Serif" font-size="10.00">All_c</text>
</a>
</g>
</g>
<!-- Node18&#45;&gt;Node2 -->
<g id="edge29_Node000002_Node000018" class="edge">
<title>Node18&#45;&gt;Node2</title>
<g id="a_edge29_Node000002_Node000018"><a xlink:title=" ">
<path fill="none" stroke="#9a32cd" stroke-dasharray="5,2" d="M1075.42,-80.23C1173.5,-79.9 1345.81,-85.56 1487.75,-123 1509.27,-128.67 1532.71,-138.51 1549,-145.97"/>
<polygon fill="#9a32cd" stroke="#9a32cd" points="1075.62,-76.73 1065.64,-80.29 1075.66,-83.73 1075.62,-76.73"/>
</a>
</g>
<text text-anchor="middle" x="1328.75" y="-106.75" font-family="Helvetica,sans-Serif" font-size="10.00" fill="grey"> mpFmpTresTypeGroupDataListAll</text>
</g>
<!-- Node18&#45;&gt;Node6 -->
<g id="edge18_Node000006_Node000018" class="edge">
<title>Node18&#45;&gt;Node6</title>
<g id="a_edge18_Node000006_Node000018"><a xlink:title=" ">
<path fill="none" stroke="#9a32cd" stroke-dasharray="5,2" d="M1047.13,-101.85C1118.77,-130.23 1247.79,-181.33 1302.32,-202.93"/>
<polygon fill="#9a32cd" stroke="#9a32cd" points="1048.56,-98.66 1037.97,-98.23 1045.98,-105.17 1048.56,-98.66"/>
</a>
</g>
<text text-anchor="middle" x="1159.62" y="-176.75" font-family="Helvetica,sans-Serif" font-size="10.00" fill="grey"> mp_fmpTresTypeGroupDataListAll</text>
</g>
<!-- Node19 -->
<g id="Node000019" class="node">
<title>Node19</title>
<g id="a_Node000019"><a xlink:href="classfmpTresTypeGroupDataList__c.html" target="_top" xlink:title=" ">
<polygon fill="white" stroke="#666666" points="807.25,-60.62 660.75,-60.62 660.75,-41.38 807.25,-41.38 807.25,-60.62"/>
<text text-anchor="middle" x="734" y="-47.12" font-family="Helvetica,sans-Serif" font-size="10.00">fmpTresTypeGroupDataList_c</text>
</a>
</g>
</g>
<!-- Node19&#45;&gt;Node2 -->
<g id="edge30_Node000002_Node000019" class="edge">
<title>Node19&#45;&gt;Node2</title>
<g id="a_edge30_Node000002_Node000019"><a xlink:title=" ">
<path fill="none" stroke="#9a32cd" stroke-dasharray="5,2" d="M818.65,-48.01C946.05,-45.02 1195.86,-45.33 1403.75,-83 1441.72,-89.88 1452.3,-89.75 1487.75,-105 1513.62,-116.13 1540.85,-134.62 1556.51,-146.01"/>
<polygon fill="#9a32cd" stroke="#9a32cd" points="818.87,-44.5 808.96,-48.25 819.05,-51.5 818.87,-44.5"/>
</a>
</g>
<text text-anchor="middle" x="1159.62" y="-61.75" font-family="Helvetica,sans-Serif" font-size="10.00" fill="grey"> mpFmpTresTypeGroupDataList</text>
</g>
<!-- Node19&#45;&gt;Node18 -->
<g id="edge19_Node000018_Node000019" class="edge">
<title>Node19&#45;&gt;Node18</title>
<g id="a_edge19_Node000018_Node000019"><a xlink:title=" ">
<path fill="none" stroke="#9a32cd" stroke-dasharray="5,2" d="M818.69,-60.98C854,-65.19 894.56,-70.02 927.87,-74"/>
<polygon fill="#9a32cd" stroke="#9a32cd" points="819.27,-57.52 808.93,-59.81 818.44,-64.47 819.27,-57.52"/>
</a>
</g>
<text text-anchor="middle" x="866.88" y="-73.75" font-family="Helvetica,sans-Serif" font-size="10.00" fill="grey"> mpTypeGroupData</text>
</g>
<!-- Node20&#45;&gt;Node2 -->
<g id="edge31_Node000002_Node000020" class="edge">
<title>Node20&#45;&gt;Node2</title>
<g id="a_edge31_Node000002_Node000020"><a xlink:title=" ">
<path fill="none" stroke="#9a32cd" stroke-dasharray="5,2" d="M499.93,-37.83C554.13,-22.71 649.49,0 733,0 733,0 733,0 1329.75,0 1437.59,0 1535.05,-112.09 1562.25,-146.24"/>
<polygon fill="#9a32cd" stroke="#9a32cd" points="499.13,-34.41 490.46,-40.51 501.04,-41.15 499.13,-34.41"/>
</a>
</g>
<text text-anchor="middle" x="996" y="-1.75" font-family="Helvetica,sans-Serif" font-size="10.00" fill="grey"> mpFmpTresTypeGroupData</text>
</g>
<!-- Node20&#45;&gt;Node19 -->
<g id="edge20_Node000019_Node000020" class="edge">
<title>Node20&#45;&gt;Node19</title>
<g id="a_edge20_Node000019_Node000020"><a xlink:title=" ">
<path fill="none" stroke="#9a32cd" stroke-dasharray="5,2" d="M531.66,-51C571.73,-51 620.72,-51 660.34,-51"/>
<polygon fill="#9a32cd" stroke="#9a32cd" points="531.86,-47.5 521.86,-51 531.86,-54.5 531.86,-47.5"/>
</a>
</g>
<text text-anchor="middle" x="590.62" y="-64" font-family="Helvetica,sans-Serif" font-size="10.00" fill="grey"> mpNextData</text>
<text text-anchor="middle" x="590.62" y="-52.75" font-family="Helvetica,sans-Serif" font-size="10.00" fill="grey">mpTypeGroupDataHead</text>
</g>
<!-- Node20&#45;&gt;Node20 -->
<g id="edge22_Node000020_Node000020" class="edge">
<title>Node20&#45;&gt;Node20</title>
<g id="a_edge22_Node000020_Node000020"><a xlink:title=" ">
<path fill="none" stroke="#9a32cd" stroke-dasharray="5,2" d="M435.4,-72.03C437.87,-75.9 444.44,-78.62 455.12,-78.62 474.66,-78.62 480.46,-69.52 472.52,-60.91"/>
<polygon fill="#9a32cd" stroke="#9a32cd" points="438.79,-72.9 437.42,-62.39 431.94,-71.46 438.79,-72.9"/>
</a>
</g>
<text text-anchor="middle" x="455.12" y="-80.38" font-family="Helvetica,sans-Serif" font-size="10.00" fill="grey"> mpNext</text>
</g>
</g>
</svg>

<g id="navigator" transform="translate(0 0)" fill="#404254">
  <rect fill="#f2f5e9" fill-opacity="0.5" stroke="#606060" stroke-width=".5" x="0" y="0" width="60" height="60"/>
  <use id="zoomplus" xlink:href="#zoomPlus" x="17" y="9" onmousedown="handleZoom(evt,'in')"/>
  <use id="zoomminus" xlink:href="#zoomMin" x="42" y="9" onmousedown="handleZoom(evt,'out')"/>
  <use id="reset" xlink:href="#resetDef" x="30" y="36" onmousedown="handleReset()"/>
   <use id="arrowup" xlink:href="#arrowUp" x="0" y="0" onmousedown="handlePan(0,-1)"/>
  <use id="arrowright" xlink:href="#arrowRight" x="0" y="0" onmousedown="handlePan(1,0)"/>
  <use id="arrowdown" xlink:href="#arrowDown" x="0" y="0" onmousedown="handlePan(0,1)"/>
  <use id="arrowleft" xlink:href="#arrowLeft" x="0" y="0" onmousedown="handlePan(-1,0)"/>
</g>
<svg viewBox="0 0 15 15" width="100%" height="30px" preserveAspectRatio="xMaxYMin meet">
 <g id="arrow_out" transform="scale(0.3 0.3)">
  <a xlink:href="classdMenuFmapIconDisp__c__coll__graph_org.svg" target="_base">
   <rect id="button" ry="5" rx="5" y="6" x="6" height="38" width="38"
        fill="#f2f5e9" fill-opacity="0.5" stroke="#606060" stroke-width="1.0"/>
   <path id="arrow"
     d="M 11.500037,31.436501 C 11.940474,20.09759 22.043105,11.32322 32.158766,21.979434 L 37.068811,17.246167 C 37.068811,17.246167 37.088388,32 37.088388,32 L 22.160133,31.978069 C 22.160133,31.978069 26.997745,27.140456 26.997745,27.140456 C 18.528582,18.264221 13.291696,25.230495 11.500037,31.436501 z"
     style="fill:#404040;"/>
  </a>
 </g>
</svg>

<style type='text/css'>
<![CDATA[
[data-mouse-over-selected='false'] { opacity: 0.7; }
[data-mouse-over-selected='true']  { opacity: 1.0; }
]]>
</style>
<script type="application/ecmascript"><![CDATA[
document.addEventListener('DOMContentLoaded', (event) => {
  highlightEdges();
  highlightAdjacentNodes();
});
]]></script>
</svg>
