<?xml version="1.0" encoding="UTF-8" standalone="no"?>
<!DOCTYPE svg PUBLIC "-//W3C//DTD SVG 1.1//EN"
 "http://www.w3.org/Graphics/SVG/1.1/DTD/svg11.dtd">
<!-- Generated by graphviz version 9.0.0 (20230911.1827)
 -->
<!-- Title: Z2SoundHandlePool Pages: 1 -->
<svg width="1048pt" height="402pt"
 viewBox="0.00 0.00 1048.25 401.73" xmlns="http://www.w3.org/2000/svg" xmlns:xlink="http://www.w3.org/1999/xlink">
<g id="graph0" class="graph" transform="scale(1 1) rotate(0) translate(4 397.73)">
<title>Z2SoundHandlePool</title>
<!-- Node1 -->
<g id="Node000001" class="node">
<title>Node1</title>
<g id="a_Node000001"><a xlink:title=" ">
<polygon fill="#999999" stroke="#666666" points="1040.25,-97.11 935,-97.11 935,-77.86 1040.25,-77.86 1040.25,-97.11"/>
<text text-anchor="middle" x="987.62" y="-83.61" font-family="Helvetica,sans-Serif" font-size="10.00">Z2SoundHandlePool</text>
</a>
</g>
</g>
<!-- Node2 -->
<g id="Node000002" class="node">
<title>Node2</title>
<g id="a_Node000002"><a xlink:href="classJAISoundHandle.html" target="_top" xlink:title=" ">
<polygon fill="white" stroke="#666666" points="817.25,-142.11 727.75,-142.11 727.75,-122.86 817.25,-122.86 817.25,-142.11"/>
<text text-anchor="middle" x="772.5" y="-128.61" font-family="Helvetica,sans-Serif" font-size="10.00">JAISoundHandle</text>
</a>
</g>
</g>
<!-- Node2&#45;&gt;Node1 -->
<g id="edge1_Node000001_Node000002" class="edge">
<title>Node2&#45;&gt;Node1</title>
<g id="a_edge1_Node000001_Node000002"><a xlink:title=" ">
<path fill="none" stroke="#63b8ff" d="M828.84,-120.8C862.94,-113.6 906.21,-104.46 938.82,-97.58"/>
<polygon fill="#63b8ff" stroke="#63b8ff" points="828.2,-117.36 819.14,-122.85 829.65,-124.21 828.2,-117.36"/>
</a>
</g>
</g>
<!-- Node3 -->
<g id="Node000003" class="node">
<title>Node3</title>
<g id="a_Node000003"><a xlink:href="classJAISound.html" target="_top" xlink:title=" ">
<polygon fill="white" stroke="#666666" points="1017,-261.11 958.25,-261.11 958.25,-241.86 1017,-241.86 1017,-261.11"/>
<text text-anchor="middle" x="987.62" y="-247.61" font-family="Helvetica,sans-Serif" font-size="10.00">JAISound</text>
</a>
</g>
</g>
<!-- Node2&#45;&gt;Node3 -->
<g id="edge3_Node000003_Node000002" class="edge">
<title>Node2&#45;&gt;Node3</title>
<g id="a_edge3_Node000003_Node000002"><a xlink:title=" ">
<path fill="none" stroke="#9a32cd" stroke-dasharray="5,2" d="M828.94,-130.93C857.12,-132.5 890.85,-138.2 917,-154.23 951.7,-175.5 974.08,-221.21 982.66,-241.47"/>
<polygon fill="#9a32cd" stroke="#9a32cd" points="829.28,-127.44 819.15,-130.55 829.01,-134.43 829.28,-127.44"/>
</a>
</g>
<text text-anchor="middle" x="893.75" y="-155.23" font-family="Helvetica,sans-Serif" font-size="10.00" fill="grey"> handle_</text>
</g>
<!-- Node3&#45;&gt;Node2 -->
<g id="edge2_Node000002_Node000003" class="edge">
<title>Node3&#45;&gt;Node2</title>
<g id="a_edge2_Node000002_Node000003"><a xlink:title=" ">
<path fill="none" stroke="#9a32cd" stroke-dasharray="5,2" d="M968.15,-233.83C954.71,-221.63 935.68,-205.61 917,-194.23 880.06,-171.72 833.44,-153.29 803.55,-142.6"/>
<polygon fill="#9a32cd" stroke="#9a32cd" points="965.66,-236.3 975.37,-240.53 970.42,-231.17 965.66,-236.3"/>
</a>
</g>
<text text-anchor="middle" x="893.75" y="-195.23" font-family="Helvetica,sans-Serif" font-size="10.00" fill="grey"> sound_</text>
</g>
<!-- Node4 -->
<g id="Node000004" class="node">
<title>Node4</title>
<g id="a_Node000004"><a xlink:href="classJAIAudible.html" target="_top" xlink:title=" ">
<polygon fill="white" stroke="#666666" points="804.12,-204.11 740.88,-204.11 740.88,-184.86 804.12,-184.86 804.12,-204.11"/>
<text text-anchor="middle" x="772.5" y="-190.61" font-family="Helvetica,sans-Serif" font-size="10.00">JAIAudible</text>
</a>
</g>
</g>
<!-- Node4&#45;&gt;Node3 -->
<g id="edge4_Node000003_Node000004" class="edge">
<title>Node4&#45;&gt;Node3</title>
<g id="a_edge4_Node000003_Node000004"><a xlink:title=" ">
<path fill="none" stroke="#9a32cd" stroke-dasharray="5,2" d="M815.83,-199.81C844.73,-204.07 883.67,-211.03 917,-221.23 934.26,-226.52 952.99,-234.81 966.67,-241.38"/>
<polygon fill="#9a32cd" stroke="#9a32cd" points="816.39,-196.36 805.99,-198.42 815.4,-203.29 816.39,-196.36"/>
</a>
</g>
<text text-anchor="middle" x="893.75" y="-222.23" font-family="Helvetica,sans-Serif" font-size="10.00" fill="grey"> audible_</text>
</g>
<!-- Node5 -->
<g id="Node000005" class="node">
<title>Node5</title>
<g id="a_Node000005"><a xlink:href="structJGeometry_1_1TVec3.html" target="_top" xlink:title=" ">
<polygon fill="white" stroke="#666666" points="610,-204.11 479.25,-204.11 479.25,-184.86 610,-184.86 610,-204.11"/>
<text text-anchor="middle" x="544.62" y="-190.61" font-family="Helvetica,sans-Serif" font-size="10.00">JGeometry::TVec3&lt; float &gt;</text>
</a>
</g>
</g>
<!-- Node5&#45;&gt;Node4 -->
<g id="edge5_Node000004_Node000005" class="edge">
<title>Node5&#45;&gt;Node4</title>
<g id="a_edge5_Node000004_Node000005"><a xlink:title=" ">
<path fill="none" stroke="#9a32cd" stroke-dasharray="5,2" d="M621.61,-194.48C662.26,-194.48 710.09,-194.48 740.59,-194.48"/>
<polygon fill="#9a32cd" stroke="#9a32cd" points="621.87,-190.98 611.87,-194.48 621.87,-197.98 621.87,-190.98"/>
</a>
</g>
<text text-anchor="middle" x="651.25" y="-196.23" font-family="Helvetica,sans-Serif" font-size="10.00" fill="grey"> mPos</text>
</g>
<!-- Node6 -->
<g id="Node000006" class="node">
<title>Node6</title>
<g id="a_Node000006"><a xlink:href="structJAIAudience.html" target="_top" xlink:title=" ">
<polygon fill="white" stroke="#666666" points="808.25,-352.11 736.75,-352.11 736.75,-332.86 808.25,-332.86 808.25,-352.11"/>
<text text-anchor="middle" x="772.5" y="-338.61" font-family="Helvetica,sans-Serif" font-size="10.00">JAIAudience</text>
</a>
</g>
</g>
<!-- Node6&#45;&gt;Node3 -->
<g id="edge6_Node000003_Node000006" class="edge">
<title>Node6&#45;&gt;Node3</title>
<g id="a_edge6_Node000003_Node000006"><a xlink:title=" ">
<path fill="none" stroke="#9a32cd" stroke-dasharray="5,2" d="M819.69,-333.9C848.74,-327.33 886.38,-316.61 917,-300.48 938.45,-289.19 960.99,-272.26 974.42,-261.54"/>
<polygon fill="#9a32cd" stroke="#9a32cd" points="819.13,-330.44 810.1,-335.98 820.61,-337.28 819.13,-330.44"/>
</a>
</g>
<text text-anchor="middle" x="893.75" y="-320.23" font-family="Helvetica,sans-Serif" font-size="10.00" fill="grey"> audience_</text>
</g>
<!-- Node7 -->
<g id="Node000007" class="node">
<title>Node7</title>
<g id="a_Node000007"><a xlink:href="structJAISoundID.html" target="_top" xlink:title=" ">
<polygon fill="white" stroke="#666666" points="806.75,-315.11 738.25,-315.11 738.25,-295.86 806.75,-295.86 806.75,-315.11"/>
<text text-anchor="middle" x="772.5" y="-301.61" font-family="Helvetica,sans-Serif" font-size="10.00">JAISoundID</text>
</a>
</g>
</g>
<!-- Node7&#45;&gt;Node3 -->
<g id="edge7_Node000003_Node000007" class="edge">
<title>Node7&#45;&gt;Node3</title>
<g id="a_edge7_Node000003_Node000007"><a xlink:title=" ">
<path fill="none" stroke="#9a32cd" stroke-dasharray="5,2" d="M818.35,-297.61C846.82,-292.25 884.33,-284.49 917,-275.48 931.42,-271.51 947.2,-266.15 960.09,-261.51"/>
<polygon fill="#9a32cd" stroke="#9a32cd" points="817.81,-294.15 808.62,-299.42 819.09,-301.03 817.81,-294.15"/>
</a>
</g>
<text text-anchor="middle" x="893.75" y="-287.23" font-family="Helvetica,sans-Serif" font-size="10.00" fill="grey"> soundID</text>
</g>
<!-- Node8 -->
<g id="Node000008" class="node">
<title>Node8</title>
<g id="a_Node000008"><a xlink:href="structJAISoundStatus__.html" target="_top" xlink:title=" ">
<polygon fill="white" stroke="#666666" points="818.75,-278.11 726.25,-278.11 726.25,-258.86 818.75,-258.86 818.75,-278.11"/>
<text text-anchor="middle" x="772.5" y="-264.61" font-family="Helvetica,sans-Serif" font-size="10.00">JAISoundStatus_</text>
</a>
</g>
</g>
<!-- Node8&#45;&gt;Node3 -->
<g id="edge8_Node000003_Node000008" class="edge">
<title>Node8&#45;&gt;Node3</title>
<g id="a_edge8_Node000003_Node000008"><a xlink:title=" ">
<path fill="none" stroke="#9a32cd" stroke-dasharray="5,2" d="M830.46,-263.94C871.61,-260.66 925.46,-256.36 957.97,-253.77"/>
<polygon fill="#9a32cd" stroke="#9a32cd" points="830.42,-260.43 820.73,-264.72 830.98,-267.41 830.42,-260.43"/>
</a>
</g>
<text text-anchor="middle" x="893.75" y="-262.23" font-family="Helvetica,sans-Serif" font-size="10.00" fill="grey"> status_</text>
</g>
<!-- Node9 -->
<g id="Node000009" class="node">
<title>Node9</title>
<g id="a_Node000009"><a xlink:href="structJAISoundFader.html" target="_top" xlink:title=" ">
<polygon fill="white" stroke="#666666" points="461.25,-381.11 377.75,-381.11 377.75,-361.86 461.25,-361.86 461.25,-381.11"/>
<text text-anchor="middle" x="419.5" y="-367.61" font-family="Helvetica,sans-Serif" font-size="10.00">JAISoundFader</text>
</a>
</g>
</g>
<!-- Node9&#45;&gt;Node3 -->
<g id="edge9_Node000003_Node000009" class="edge">
<title>Node9&#45;&gt;Node3</title>
<g id="a_edge9_Node000003_Node000009"><a xlink:title=" ">
<path fill="none" stroke="#9a32cd" stroke-dasharray="5,2" d="M472.89,-376.68C554.94,-383.39 718.28,-390.99 852.5,-361.48 883.02,-354.78 891.9,-352.1 917,-333.48 945.2,-312.57 969.53,-278.15 980.47,-261.34"/>
<polygon fill="#9a32cd" stroke="#9a32cd" points="473.39,-373.21 463.13,-375.85 472.8,-380.18 473.39,-373.21"/>
</a>
</g>
<text text-anchor="middle" x="651.25" y="-384.23" font-family="Helvetica,sans-Serif" font-size="10.00" fill="grey"> fader</text>
</g>
<!-- Node10 -->
<g id="Node000010" class="node">
<title>Node10</title>
<g id="a_Node000010"><a xlink:href="structJAISoundParamsTransition_1_1TTransition.html" target="_top" xlink:title=" ">
<polygon fill="white" stroke="#666666" points="135.25,-320.73 0,-320.73 0,-290.23 135.25,-290.23 135.25,-320.73"/>
<text text-anchor="start" x="8" y="-307.23" font-family="Helvetica,sans-Serif" font-size="10.00">JAISoundParamsTransition</text>
<text text-anchor="middle" x="67.62" y="-295.98" font-family="Helvetica,sans-Serif" font-size="10.00">::TTransition</text>
</a>
</g>
</g>
<!-- Node10&#45;&gt;Node9 -->
<g id="edge10_Node000009_Node000010" class="edge">
<title>Node10&#45;&gt;Node9</title>
<g id="a_edge10_Node000009_Node000010"><a xlink:title=" ">
<path fill="none" stroke="#9a32cd" stroke-dasharray="5,2" d="M123.83,-324.52C133.56,-327.46 143.64,-330.26 153.25,-332.48 231.7,-350.64 325.25,-362.07 377.67,-367.57"/>
<polygon fill="#9a32cd" stroke="#9a32cd" points="125.08,-321.24 114.49,-321.6 122.99,-327.92 125.08,-321.24"/>
</a>
</g>
<text text-anchor="middle" x="179.88" y="-344.23" font-family="Helvetica,sans-Serif" font-size="10.00" fill="grey"> mTransition</text>
</g>
<!-- Node15 -->
<g id="Node000015" class="node">
<title>Node15</title>
<g id="a_Node000015"><a xlink:href="structJAISoundParamsTransition.html" target="_top" xlink:title=" ">
<polygon fill="white" stroke="#666666" points="359.75,-241.11 224.5,-241.11 224.5,-221.86 359.75,-221.86 359.75,-241.11"/>
<text text-anchor="middle" x="292.12" y="-227.61" font-family="Helvetica,sans-Serif" font-size="10.00">JAISoundParamsTransition</text>
</a>
</g>
</g>
<!-- Node10&#45;&gt;Node15 -->
<g id="edge16_Node000015_Node000010" class="edge">
<title>Node10&#45;&gt;Node15</title>
<g id="a_edge16_Node000015_Node000010"><a xlink:title=" ">
<path fill="none" stroke="#9a32cd" stroke-dasharray="5,2" d="M120.05,-285.82C150.26,-274.57 189.32,-260.54 224.5,-249.48 233.3,-246.72 242.84,-243.99 251.87,-241.52"/>
<polygon fill="#9a32cd" stroke="#9a32cd" points="118.9,-282.52 110.76,-289.3 121.35,-289.07 118.9,-282.52"/>
</a>
</g>
<text text-anchor="middle" x="179.88" y="-319.23" font-family="Helvetica,sans-Serif" font-size="10.00" fill="grey"> mDolby</text>
<text text-anchor="middle" x="179.88" y="-307.98" font-family="Helvetica,sans-Serif" font-size="10.00" fill="grey">mFxMix</text>
<text text-anchor="middle" x="179.88" y="-296.73" font-family="Helvetica,sans-Serif" font-size="10.00" fill="grey">mPan</text>
<text text-anchor="middle" x="179.88" y="-285.48" font-family="Helvetica,sans-Serif" font-size="10.00" fill="grey">mPitch</text>
<text text-anchor="middle" x="179.88" y="-274.23" font-family="Helvetica,sans-Serif" font-size="10.00" fill="grey">mVolume</text>
</g>
<!-- Node11 -->
<g id="Node000011" class="node">
<title>Node11</title>
<g id="a_Node000011"><a xlink:href="structJAISoundParams.html" target="_top" xlink:title=" ">
<polygon fill="white" stroke="#666666" points="818.75,-241.11 726.25,-241.11 726.25,-221.86 818.75,-221.86 818.75,-241.11"/>
<text text-anchor="middle" x="772.5" y="-227.61" font-family="Helvetica,sans-Serif" font-size="10.00">JAISoundParams</text>
</a>
</g>
</g>
<!-- Node11&#45;&gt;Node3 -->
<g id="edge11_Node000003_Node000011" class="edge">
<title>Node11&#45;&gt;Node3</title>
<g id="a_edge11_Node000003_Node000011"><a xlink:title=" ">
<path fill="none" stroke="#9a32cd" stroke-dasharray="5,2" d="M830.47,-234.33C856.84,-235.91 888.56,-238.18 917,-241.23 930.48,-242.68 945.37,-244.8 957.9,-246.74"/>
<polygon fill="#9a32cd" stroke="#9a32cd" points="830.84,-230.84 820.65,-233.76 830.43,-237.83 830.84,-230.84"/>
</a>
</g>
<text text-anchor="middle" x="893.75" y="-242.23" font-family="Helvetica,sans-Serif" font-size="10.00" fill="grey"> params</text>
</g>
<!-- Node12 -->
<g id="Node000012" class="node">
<title>Node12</title>
<g id="a_Node000012"><a xlink:href="structJAISoundParamsProperty.html" target="_top" xlink:title=" ">
<polygon fill="white" stroke="#666666" points="608.88,-278.11 480.38,-278.11 480.38,-258.86 608.88,-258.86 608.88,-278.11"/>
<text text-anchor="middle" x="544.62" y="-264.61" font-family="Helvetica,sans-Serif" font-size="10.00">JAISoundParamsProperty</text>
</a>
</g>
</g>
<!-- Node12&#45;&gt;Node11 -->
<g id="edge12_Node000011_Node000012" class="edge">
<title>Node12&#45;&gt;Node11</title>
<g id="a_edge12_Node000011_Node000012"><a xlink:title=" ">
<path fill="none" stroke="#9a32cd" stroke-dasharray="5,2" d="M618.58,-256.53C653.9,-250.75 695.2,-243.98 725.98,-238.94"/>
<polygon fill="#9a32cd" stroke="#9a32cd" points="618.14,-253.06 608.84,-258.13 619.27,-259.97 618.14,-253.06"/>
</a>
</g>
<text text-anchor="middle" x="651.25" y="-255.23" font-family="Helvetica,sans-Serif" font-size="10.00" fill="grey"> mProperty</text>
</g>
<!-- Node13 -->
<g id="Node000013" class="node">
<title>Node13</title>
<g id="a_Node000013"><a xlink:href="structJAISoundParamsMove.html" target="_top" xlink:title=" ">
<polygon fill="white" stroke="#666666" points="602.88,-241.11 486.38,-241.11 486.38,-221.86 602.88,-221.86 602.88,-241.11"/>
<text text-anchor="middle" x="544.62" y="-227.61" font-family="Helvetica,sans-Serif" font-size="10.00">JAISoundParamsMove</text>
</a>
</g>
</g>
<!-- Node13&#45;&gt;Node11 -->
<g id="edge13_Node000011_Node000013" class="edge">
<title>Node13&#45;&gt;Node11</title>
<g id="a_edge13_Node000011_Node000013"><a xlink:title=" ">
<path fill="none" stroke="#9a32cd" stroke-dasharray="5,2" d="M614.65,-231.48C650.71,-231.48 693.86,-231.48 725.76,-231.48"/>
<polygon fill="#9a32cd" stroke="#9a32cd" points="614.72,-227.98 604.72,-231.48 614.72,-234.98 614.72,-227.98"/>
</a>
</g>
<text text-anchor="middle" x="651.25" y="-233.23" font-family="Helvetica,sans-Serif" font-size="10.00" fill="grey"> mMove</text>
</g>
<!-- Node14 -->
<g id="Node000014" class="node">
<title>Node14</title>
<g id="a_Node000014"><a xlink:href="structJASSoundParams.html" target="_top" xlink:title=" ">
<polygon fill="white" stroke="#666666" points="340.25,-278.11 244,-278.11 244,-258.86 340.25,-258.86 340.25,-278.11"/>
<text text-anchor="middle" x="292.12" y="-264.61" font-family="Helvetica,sans-Serif" font-size="10.00">JASSoundParams</text>
</a>
</g>
</g>
<!-- Node14&#45;&gt;Node13 -->
<g id="edge14_Node000013_Node000014" class="edge">
<title>Node14&#45;&gt;Node13</title>
<g id="a_edge14_Node000013_Node000014"><a xlink:title=" ">
<path fill="none" stroke="#9a32cd" stroke-dasharray="5,2" d="M351.75,-261.54C384.1,-257.53 424.96,-252.16 461.25,-246.48 470.73,-245 480.8,-243.29 490.52,-241.56"/>
<polygon fill="#9a32cd" stroke="#9a32cd" points="351.68,-258.02 342.18,-262.72 352.54,-264.97 351.68,-258.02"/>
</a>
</g>
<text text-anchor="middle" x="419.5" y="-259.23" font-family="Helvetica,sans-Serif" font-size="10.00" fill="grey"> mParams</text>
</g>
<!-- Node15&#45;&gt;Node13 -->
<g id="edge15_Node000013_Node000015" class="edge">
<title>Node15&#45;&gt;Node13</title>
<g id="a_edge15_Node000013_Node000015"><a xlink:title=" ">
<path fill="none" stroke="#9a32cd" stroke-dasharray="5,2" d="M371.22,-231.48C408.32,-231.48 451.89,-231.48 485.95,-231.48"/>
<polygon fill="#9a32cd" stroke="#9a32cd" points="371.44,-227.98 361.44,-231.48 371.44,-234.98 371.44,-227.98"/>
</a>
</g>
<text text-anchor="middle" x="419.5" y="-233.23" font-family="Helvetica,sans-Serif" font-size="10.00" fill="grey"> mTransition</text>
</g>
<!-- Node16 -->
<g id="Node000016" class="node">
<title>Node16</title>
<g id="a_Node000016"><a xlink:href="classJSULink.html" target="_top" xlink:title=" ">
<polygon fill="white" stroke="#666666" points="852.5,-84.11 692.5,-84.11 692.5,-64.86 852.5,-64.86 852.5,-84.11"/>
<text text-anchor="middle" x="772.5" y="-70.61" font-family="Helvetica,sans-Serif" font-size="10.00">JSULink&lt; Z2SoundHandlePool &gt;</text>
</a>
</g>
</g>
<!-- Node16&#45;&gt;Node1 -->
<g id="edge17_Node000001_Node000016" class="edge">
<title>Node16&#45;&gt;Node1</title>
<g id="a_edge17_Node000001_Node000016"><a xlink:title=" ">
<path fill="none" stroke="#63b8ff" d="M864.2,-80.02C888.27,-81.49 913.46,-83.02 934.68,-84.32"/>
<polygon fill="#63b8ff" stroke="#63b8ff" points="864.57,-76.53 854.37,-79.42 864.14,-83.52 864.57,-76.53"/>
</a>
</g>
</g>
<!-- Node17 -->
<g id="Node000017" class="node">
<title>Node17</title>
<g id="a_Node000017"><a xlink:href="classJSUPtrLink.html" target="_top" xlink:title=" ">
<polygon fill="white" stroke="#666666" points="578.12,-46.11 511.12,-46.11 511.12,-26.86 578.12,-26.86 578.12,-46.11"/>
<text text-anchor="middle" x="544.62" y="-32.61" font-family="Helvetica,sans-Serif" font-size="10.00">JSUPtrLink</text>
</a>
</g>
</g>
<!-- Node17&#45;&gt;Node16 -->
<g id="edge18_Node000016_Node000017" class="edge">
<title>Node17&#45;&gt;Node16</title>
<g id="a_edge18_Node000016_Node000017"><a xlink:title=" ">
<path fill="none" stroke="#63b8ff" d="M589.3,-48.76C601.73,-51.94 615.34,-55.13 628,-57.48 648.72,-61.34 671.29,-64.49 692.27,-66.99"/>
<polygon fill="#63b8ff" stroke="#63b8ff" points="590.3,-45.4 579.74,-46.25 588.52,-52.17 590.3,-45.4"/>
</a>
</g>
</g>
<!-- Node17&#45;&gt;Node17 -->
<g id="edge21_Node000017_Node000017" class="edge">
<title>Node17&#45;&gt;Node17</title>
<g id="a_edge21_Node000017_Node000017"><a xlink:title=" ">
<path fill="none" stroke="#9a32cd" stroke-dasharray="5,2" d="M525.7,-57.51C528.07,-61.39 534.38,-64.11 544.62,-64.11 563.37,-64.11 568.93,-55 561.32,-46.4"/>
<polygon fill="#9a32cd" stroke="#9a32cd" points="529.1,-58.37 527.63,-47.88 522.23,-57 529.1,-58.37"/>
</a>
</g>
<text text-anchor="middle" x="544.62" y="-77.11" font-family="Helvetica,sans-Serif" font-size="10.00" fill="grey"> mNext</text>
<text text-anchor="middle" x="544.62" y="-65.86" font-family="Helvetica,sans-Serif" font-size="10.00" fill="grey">mPrev</text>
</g>
<!-- Node18 -->
<g id="Node000018" class="node">
<title>Node18</title>
<g id="a_Node000018"><a xlink:href="classJSUPtrList.html" target="_top" xlink:title=" ">
<polygon fill="white" stroke="#666666" points="804.88,-29.11 740.12,-29.11 740.12,-9.86 804.88,-9.86 804.88,-29.11"/>
<text text-anchor="middle" x="772.5" y="-15.61" font-family="Helvetica,sans-Serif" font-size="10.00">JSUPtrList</text>
</a>
</g>
</g>
<!-- Node17&#45;&gt;Node18 -->
<g id="edge20_Node000018_Node000017" class="edge">
<title>Node17&#45;&gt;Node18</title>
<g id="a_edge20_Node000018_Node000017"><a xlink:title=" ">
<path fill="none" stroke="#9a32cd" stroke-dasharray="5,2" d="M589.71,-33.17C633.81,-29.85 700.55,-24.82 739.71,-21.88"/>
<polygon fill="#9a32cd" stroke="#9a32cd" points="589.69,-29.66 579.98,-33.9 590.21,-36.64 589.69,-29.66"/>
</a>
</g>
<text text-anchor="middle" x="651.25" y="-43.48" font-family="Helvetica,sans-Serif" font-size="10.00" fill="grey"> mHead</text>
<text text-anchor="middle" x="651.25" y="-32.23" font-family="Helvetica,sans-Serif" font-size="10.00" fill="grey">mTail</text>
</g>
<!-- Node18&#45;&gt;Node17 -->
<g id="edge19_Node000017_Node000018" class="edge">
<title>Node18&#45;&gt;Node17</title>
<g id="a_edge19_Node000017_Node000018"><a xlink:title=" ">
<path fill="none" stroke="#9a32cd" stroke-dasharray="5,2" d="M728.78,-7.89C700.1,-1.76 661.57,3.29 628,-3.23 605.29,-7.64 580.91,-18.3 564.62,-26.37"/>
<polygon fill="#9a32cd" stroke="#9a32cd" points="727.64,-11.22 738.17,-10.03 729.2,-4.39 727.64,-11.22"/>
</a>
</g>
<text text-anchor="middle" x="651.25" y="-5.23" font-family="Helvetica,sans-Serif" font-size="10.00" fill="grey"> mList</text>
</g>
</g>
</svg>
