<?xml version="1.0" encoding="UTF-8" standalone="no"?>
<!DOCTYPE svg PUBLIC "-//W3C//DTD SVG 1.1//EN"
 "http://www.w3.org/Graphics/SVG/1.1/DTD/svg11.dtd">
<!-- Generated by graphviz version 9.0.0 (20230911.1827)
 -->
<!-- Title: dBgS_BombLinChk Pages: 1 -->
<svg width="410pt" height="248pt"
 viewBox="0.00 0.00 409.62 248.25" xmlns="http://www.w3.org/2000/svg" xmlns:xlink="http://www.w3.org/1999/xlink">
<g id="graph0" class="graph" transform="scale(1 1) rotate(0) translate(4 244.25)">
<title>dBgS_BombLinChk</title>
<!-- Node1 -->
<g id="Node000001" class="node">
<title>Node1</title>
<g id="a_Node000001"><a xlink:title=" ">
<polygon fill="#999999" stroke="#666666" points="227,-19.25 125.5,-19.25 125.5,0 227,0 227,-19.25"/>
<text text-anchor="middle" x="176.25" y="-5.75" font-family="Helvetica,sans-Serif" font-size="10.00">dBgS_BombLinChk</text>
</a>
</g>
</g>
<!-- Node2 -->
<g id="Node000002" class="node">
<title>Node2</title>
<g id="a_Node000002"><a xlink:href="structdBgS__LinChk.html" target="_top" xlink:title=" ">
<polygon fill="white" stroke="#666666" points="214.25,-74.5 138.25,-74.5 138.25,-55.25 214.25,-55.25 214.25,-74.5"/>
<text text-anchor="middle" x="176.25" y="-61" font-family="Helvetica,sans-Serif" font-size="10.00">dBgS_LinChk</text>
</a>
</g>
</g>
<!-- Node2&#45;&gt;Node1 -->
<g id="edge1_Node000001_Node000002" class="edge">
<title>Node2&#45;&gt;Node1</title>
<g id="a_edge1_Node000001_Node000002"><a xlink:title=" ">
<path fill="none" stroke="#63b8ff" d="M176.25,-43.63C176.25,-35.34 176.25,-26.17 176.25,-19.61"/>
<polygon fill="#63b8ff" stroke="#63b8ff" points="172.75,-43.57 176.25,-53.57 179.75,-43.57 172.75,-43.57"/>
</a>
</g>
</g>
<!-- Node3 -->
<g id="Node000003" class="node">
<title>Node3</title>
<g id="a_Node000003"><a xlink:href="structcBgS__LinChk.html" target="_top" xlink:title=" ">
<polygon fill="white" stroke="#666666" points="159.25,-129.75 83.25,-129.75 83.25,-110.5 159.25,-110.5 159.25,-129.75"/>
<text text-anchor="middle" x="121.25" y="-116.25" font-family="Helvetica,sans-Serif" font-size="10.00">cBgS_LinChk</text>
</a>
</g>
</g>
<!-- Node3&#45;&gt;Node2 -->
<g id="edge2_Node000002_Node000003" class="edge">
<title>Node3&#45;&gt;Node2</title>
<g id="a_edge2_Node000002_Node000003"><a xlink:title=" ">
<path fill="none" stroke="#63b8ff" d="M138.6,-102.32C148,-93.23 159.23,-82.35 166.97,-74.86"/>
<polygon fill="#63b8ff" stroke="#63b8ff" points="136.17,-99.81 131.42,-109.28 141.04,-104.84 136.17,-99.81"/>
</a>
</g>
</g>
<!-- Node4 -->
<g id="Node000004" class="node">
<title>Node4</title>
<g id="a_Node000004"><a xlink:href="classcBgS__Chk.html" target="_top" xlink:title=" ">
<polygon fill="white" stroke="#666666" points="62.5,-185 0,-185 0,-165.75 62.5,-165.75 62.5,-185"/>
<text text-anchor="middle" x="31.25" y="-171.5" font-family="Helvetica,sans-Serif" font-size="10.00">cBgS_Chk</text>
</a>
</g>
</g>
<!-- Node4&#45;&gt;Node3 -->
<g id="edge3_Node000003_Node000004" class="edge">
<title>Node4&#45;&gt;Node3</title>
<g id="a_edge3_Node000003_Node000004"><a xlink:title=" ">
<path fill="none" stroke="#63b8ff" d="M56.27,-159.57C72.19,-150.15 92.31,-138.25 105.91,-130.2"/>
<polygon fill="#63b8ff" stroke="#63b8ff" points="54.64,-156.47 47.82,-164.57 58.21,-162.49 54.64,-156.47"/>
</a>
</g>
</g>
<!-- Node5 -->
<g id="Node000005" class="node">
<title>Node5</title>
<g id="a_Node000005"><a xlink:href="structcBgS__PolyInfo.html" target="_top" xlink:title=" ">
<polygon fill="white" stroke="#666666" points="161.5,-185 81,-185 81,-165.75 161.5,-165.75 161.5,-185"/>
<text text-anchor="middle" x="121.25" y="-171.5" font-family="Helvetica,sans-Serif" font-size="10.00">cBgS_PolyInfo</text>
</a>
</g>
</g>
<!-- Node5&#45;&gt;Node3 -->
<g id="edge4_Node000003_Node000005" class="edge">
<title>Node5&#45;&gt;Node3</title>
<g id="a_edge4_Node000003_Node000005"><a xlink:title=" ">
<path fill="none" stroke="#63b8ff" d="M121.25,-154.13C121.25,-145.84 121.25,-136.67 121.25,-130.11"/>
<polygon fill="#63b8ff" stroke="#63b8ff" points="117.75,-154.07 121.25,-164.07 124.75,-154.07 117.75,-154.07"/>
</a>
</g>
</g>
<!-- Node6 -->
<g id="Node000006" class="node">
<title>Node6</title>
<g id="a_Node000006"><a xlink:href="classdBgS__Chk.html" target="_top" xlink:title=" ">
<polygon fill="white" stroke="#666666" points="262.5,-129.75 200,-129.75 200,-110.5 262.5,-110.5 262.5,-129.75"/>
<text text-anchor="middle" x="231.25" y="-116.25" font-family="Helvetica,sans-Serif" font-size="10.00">dBgS_Chk</text>
</a>
</g>
</g>
<!-- Node6&#45;&gt;Node2 -->
<g id="edge5_Node000002_Node000006" class="edge">
<title>Node6&#45;&gt;Node2</title>
<g id="a_edge5_Node000002_Node000006"><a xlink:title=" ">
<path fill="none" stroke="#63b8ff" d="M213.9,-102.32C204.5,-93.23 193.27,-82.35 185.53,-74.86"/>
<polygon fill="#63b8ff" stroke="#63b8ff" points="211.46,-104.84 221.08,-109.28 216.33,-99.81 211.46,-104.84"/>
</a>
</g>
</g>
<!-- Node7 -->
<g id="Node000007" class="node">
<title>Node7</title>
<g id="a_Node000007"><a xlink:href="structdBgS__PolyPassChk.html" target="_top" xlink:title=" ">
<polygon fill="white" stroke="#666666" points="283.12,-185 179.38,-185 179.38,-165.75 283.12,-165.75 283.12,-185"/>
<text text-anchor="middle" x="231.25" y="-171.5" font-family="Helvetica,sans-Serif" font-size="10.00">dBgS_PolyPassChk</text>
</a>
</g>
</g>
<!-- Node7&#45;&gt;Node6 -->
<g id="edge6_Node000006_Node000007" class="edge">
<title>Node7&#45;&gt;Node6</title>
<g id="a_edge6_Node000006_Node000007"><a xlink:title=" ">
<path fill="none" stroke="#63b8ff" d="M231.25,-154.13C231.25,-145.84 231.25,-136.67 231.25,-130.11"/>
<polygon fill="#63b8ff" stroke="#63b8ff" points="227.75,-154.07 231.25,-164.07 234.75,-154.07 227.75,-154.07"/>
</a>
</g>
</g>
<!-- Node8 -->
<g id="Node000008" class="node">
<title>Node8</title>
<g id="a_Node000008"><a xlink:href="classcBgS__PolyPassChk.html" target="_top" xlink:title=" ">
<polygon fill="white" stroke="#666666" points="283.12,-240.25 179.38,-240.25 179.38,-221 283.12,-221 283.12,-240.25"/>
<text text-anchor="middle" x="231.25" y="-226.75" font-family="Helvetica,sans-Serif" font-size="10.00">cBgS_PolyPassChk</text>
</a>
</g>
</g>
<!-- Node8&#45;&gt;Node7 -->
<g id="edge7_Node000007_Node000008" class="edge">
<title>Node8&#45;&gt;Node7</title>
<g id="a_edge7_Node000007_Node000008"><a xlink:title=" ">
<path fill="none" stroke="#63b8ff" d="M231.25,-209.38C231.25,-201.09 231.25,-191.92 231.25,-185.36"/>
<polygon fill="#63b8ff" stroke="#63b8ff" points="227.75,-209.32 231.25,-219.32 234.75,-209.32 227.75,-209.32"/>
</a>
</g>
</g>
<!-- Node9 -->
<g id="Node000009" class="node">
<title>Node9</title>
<g id="a_Node000009"><a xlink:href="classdBgS__GrpPassChk.html" target="_top" xlink:title=" ">
<polygon fill="white" stroke="#666666" points="401.62,-185 300.88,-185 300.88,-165.75 401.62,-165.75 401.62,-185"/>
<text text-anchor="middle" x="351.25" y="-171.5" font-family="Helvetica,sans-Serif" font-size="10.00">dBgS_GrpPassChk</text>
</a>
</g>
</g>
<!-- Node9&#45;&gt;Node6 -->
<g id="edge8_Node000006_Node000009" class="edge">
<title>Node9&#45;&gt;Node6</title>
<g id="a_edge8_Node000006_Node000009"><a xlink:title=" ">
<path fill="none" stroke="#63b8ff" d="M320.59,-160.77C298.98,-151.18 270.62,-138.59 251.71,-130.2"/>
<polygon fill="#63b8ff" stroke="#63b8ff" points="318.95,-163.87 329.51,-164.73 321.79,-157.47 318.95,-163.87"/>
</a>
</g>
</g>
<!-- Node10 -->
<g id="Node000010" class="node">
<title>Node10</title>
<g id="a_Node000010"><a xlink:href="classcBgS__GrpPassChk.html" target="_top" xlink:title=" ">
<polygon fill="white" stroke="#666666" points="401.62,-240.25 300.88,-240.25 300.88,-221 401.62,-221 401.62,-240.25"/>
<text text-anchor="middle" x="351.25" y="-226.75" font-family="Helvetica,sans-Serif" font-size="10.00">cBgS_GrpPassChk</text>
</a>
</g>
</g>
<!-- Node10&#45;&gt;Node9 -->
<g id="edge9_Node000009_Node000010" class="edge">
<title>Node10&#45;&gt;Node9</title>
<g id="a_edge9_Node000009_Node000010"><a xlink:title=" ">
<path fill="none" stroke="#63b8ff" d="M351.25,-209.38C351.25,-201.09 351.25,-191.92 351.25,-185.36"/>
<polygon fill="#63b8ff" stroke="#63b8ff" points="347.75,-209.32 351.25,-219.32 354.75,-209.32 347.75,-209.32"/>
</a>
</g>
</g>
</g>
</svg>
