<?xml version="1.0" encoding="UTF-8" standalone="no"?>
<!DOCTYPE svg PUBLIC "-//W3C//DTD SVG 1.1//EN"
 "http://www.w3.org/Graphics/SVG/1.1/DTD/svg11.dtd">
<!-- Generated by graphviz version 9.0.0 (20230911.1827)
 -->
<!-- Title: daBg_brkAnm_c Pages: 1 -->
<svg width="564pt" height="405pt"
 viewBox="0.00 0.00 564.25 404.75" xmlns="http://www.w3.org/2000/svg" xmlns:xlink="http://www.w3.org/1999/xlink">
<g id="graph0" class="graph" transform="scale(1 1) rotate(0) translate(4 400.75)">
<title>daBg_brkAnm_c</title>
<!-- Node1 -->
<g id="Node000001" class="node">
<title>Node1</title>
<g id="a_Node000001"><a xlink:title=" ">
<polygon fill="#999999" stroke="#666666" points="159,-19.25 71,-19.25 71,0 159,0 159,-19.25"/>
<text text-anchor="middle" x="115" y="-5.75" font-family="Helvetica,sans-Serif" font-size="10.00">daBg_brkAnm_c</text>
</a>
</g>
</g>
<!-- Node2 -->
<g id="Node000002" class="node">
<title>Node2</title>
<g id="a_Node000002"><a xlink:href="structmDoExt__brkAnm.html" target="_top" xlink:title=" ">
<polygon fill="white" stroke="#666666" points="159.38,-85.75 70.62,-85.75 70.62,-66.5 159.38,-66.5 159.38,-85.75"/>
<text text-anchor="middle" x="115" y="-72.25" font-family="Helvetica,sans-Serif" font-size="10.00">mDoExt_brkAnm</text>
</a>
</g>
</g>
<!-- Node2&#45;&gt;Node1 -->
<g id="edge1_Node000001_Node000002" class="edge">
<title>Node2&#45;&gt;Node1</title>
<g id="a_edge1_Node000001_Node000002"><a xlink:title=" ">
<path fill="none" stroke="#9a32cd" stroke-dasharray="5,2" d="M115,-54.65C115,-42.82 115,-28.54 115,-19.52"/>
<polygon fill="#9a32cd" stroke="#9a32cd" points="111.5,-54.64 115,-64.64 118.5,-54.64 111.5,-54.64"/>
</a>
</g>
<text text-anchor="middle" x="130.38" y="-39" font-family="Helvetica,sans-Serif" font-size="10.00" fill="grey"> mpBrk</text>
</g>
<!-- Node3 -->
<g id="Node000003" class="node">
<title>Node3</title>
<g id="a_Node000003"><a xlink:href="structmDoExt__baseAnm.html" target="_top" xlink:title=" ">
<polygon fill="white" stroke="#666666" points="105.12,-152.25 8.88,-152.25 8.88,-133 105.12,-133 105.12,-152.25"/>
<text text-anchor="middle" x="57" y="-138.75" font-family="Helvetica,sans-Serif" font-size="10.00">mDoExt_baseAnm</text>
</a>
</g>
</g>
<!-- Node3&#45;&gt;Node2 -->
<g id="edge2_Node000002_Node000003" class="edge">
<title>Node3&#45;&gt;Node2</title>
<g id="a_edge2_Node000002_Node000003"><a xlink:title=" ">
<path fill="none" stroke="#63b8ff" d="M72.75,-124.11C83.83,-111.78 98.2,-95.81 107,-86.02"/>
<polygon fill="#63b8ff" stroke="#63b8ff" points="70.16,-121.76 66.08,-131.53 75.37,-126.44 70.16,-121.76"/>
</a>
</g>
</g>
<!-- Node4 -->
<g id="Node000004" class="node">
<title>Node4</title>
<g id="a_Node000004"><a xlink:href="structJ3DFrameCtrl.html" target="_top" xlink:title=" ">
<polygon fill="white" stroke="#666666" points="76,-230 0,-230 0,-210.75 76,-210.75 76,-230"/>
<text text-anchor="middle" x="38" y="-216.5" font-family="Helvetica,sans-Serif" font-size="10.00">J3DFrameCtrl</text>
</a>
</g>
</g>
<!-- Node4&#45;&gt;Node3 -->
<g id="edge3_Node000003_Node000004" class="edge">
<title>Node4&#45;&gt;Node3</title>
<g id="a_edge3_Node000003_Node000004"><a xlink:title=" ">
<path fill="none" stroke="#9a32cd" stroke-dasharray="5,2" d="M42.97,-199.55C46.78,-184.35 51.86,-164.1 54.75,-152.6"/>
<polygon fill="#9a32cd" stroke="#9a32cd" points="39.66,-198.37 40.62,-208.92 46.45,-200.07 39.66,-198.37"/>
</a>
</g>
<text text-anchor="middle" x="77.62" y="-177.62" font-family="Helvetica,sans-Serif" font-size="10.00" fill="grey"> mFrameCtrl</text>
</g>
<!-- Node5 -->
<g id="Node000005" class="node">
<title>Node5</title>
<g id="a_Node000005"><a xlink:href="structJ3DAnmTevRegKey.html" target="_top" xlink:title=" ">
<polygon fill="white" stroke="#666666" points="244.88,-152.25 141.12,-152.25 141.12,-133 244.88,-133 244.88,-152.25"/>
<text text-anchor="middle" x="193" y="-138.75" font-family="Helvetica,sans-Serif" font-size="10.00">J3DAnmTevRegKey</text>
</a>
</g>
</g>
<!-- Node5&#45;&gt;Node2 -->
<g id="edge4_Node000002_Node000005" class="edge">
<title>Node5&#45;&gt;Node2</title>
<g id="a_edge4_Node000002_Node000005"><a xlink:title=" ">
<path fill="none" stroke="#9a32cd" stroke-dasharray="5,2" d="M173.55,-125.54C158.44,-113.05 138.05,-96.19 125.75,-86.02"/>
<polygon fill="#9a32cd" stroke="#9a32cd" points="171.05,-128.02 180.99,-131.69 175.51,-122.62 171.05,-128.02"/>
</a>
</g>
<text text-anchor="middle" x="177" y="-105.5" font-family="Helvetica,sans-Serif" font-size="10.00" fill="grey"> mpAnm</text>
</g>
<!-- Node6 -->
<g id="Node000006" class="node">
<title>Node6</title>
<g id="a_Node000006"><a xlink:href="classJ3DAnmBase.html" target="_top" xlink:title=" ">
<polygon fill="white" stroke="#666666" points="170,-230 94,-230 94,-210.75 170,-210.75 170,-230"/>
<text text-anchor="middle" x="132" y="-216.5" font-family="Helvetica,sans-Serif" font-size="10.00">J3DAnmBase</text>
</a>
</g>
</g>
<!-- Node6&#45;&gt;Node5 -->
<g id="edge5_Node000005_Node000006" class="edge">
<title>Node6&#45;&gt;Node5</title>
<g id="a_edge5_Node000005_Node000006"><a xlink:title=" ">
<path fill="none" stroke="#63b8ff" d="M146.18,-201.77C158.57,-186.38 176.06,-164.67 185.77,-152.6"/>
<polygon fill="#63b8ff" stroke="#63b8ff" points="143.73,-199.23 140.19,-209.21 149.18,-203.62 143.73,-199.23"/>
</a>
</g>
</g>
<!-- Node7 -->
<g id="Node000007" class="node">
<title>Node7</title>
<g id="a_Node000007"><a xlink:href="structJUTNameTab.html" target="_top" xlink:title=" ">
<polygon fill="white" stroke="#666666" points="265.75,-230 188.25,-230 188.25,-210.75 265.75,-210.75 265.75,-230"/>
<text text-anchor="middle" x="227" y="-216.5" font-family="Helvetica,sans-Serif" font-size="10.00">JUTNameTab</text>
</a>
</g>
</g>
<!-- Node7&#45;&gt;Node5 -->
<g id="edge6_Node000005_Node000007" class="edge">
<title>Node7&#45;&gt;Node5</title>
<g id="a_edge6_Node000005_Node000007"><a xlink:title=" ">
<path fill="none" stroke="#9a32cd" stroke-dasharray="5,2" d="M201.97,-203.15C198.87,-200.07 196.14,-196.59 194.25,-192.75 187.93,-179.89 189.37,-162.75 191.1,-152.49"/>
<polygon fill="#9a32cd" stroke="#9a32cd" points="199.56,-205.7 209.5,-209.37 204.02,-200.3 199.56,-205.7"/>
</a>
</g>
<text text-anchor="middle" x="258.38" y="-183.25" font-family="Helvetica,sans-Serif" font-size="10.00" fill="grey"> mCRegUpdateMaterialName</text>
<text text-anchor="middle" x="258.38" y="-172" font-family="Helvetica,sans-Serif" font-size="10.00" fill="grey">mKRegUpdateMaterialName</text>
</g>
<!-- Node8 -->
<g id="Node000008" class="node">
<title>Node8</title>
<g id="a_Node000008"><a xlink:href="structResNTAB.html" target="_top" xlink:title=" ">
<polygon fill="white" stroke="#666666" points="257.12,-330.25 196.88,-330.25 196.88,-311 257.12,-311 257.12,-330.25"/>
<text text-anchor="middle" x="227" y="-316.75" font-family="Helvetica,sans-Serif" font-size="10.00">ResNTAB</text>
</a>
</g>
</g>
<!-- Node8&#45;&gt;Node7 -->
<g id="edge7_Node000007_Node000008" class="edge">
<title>Node8&#45;&gt;Node7</title>
<g id="a_edge7_Node000007_Node000008"><a xlink:title=" ">
<path fill="none" stroke="#9a32cd" stroke-dasharray="5,2" d="M227,-299.32C227,-278.17 227,-245.98 227,-230.42"/>
<polygon fill="#9a32cd" stroke="#9a32cd" points="223.5,-299.04 227,-309.04 230.5,-299.04 223.5,-299.04"/>
</a>
</g>
<text text-anchor="middle" x="257.38" y="-266.62" font-family="Helvetica,sans-Serif" font-size="10.00" fill="grey"> mNameTable</text>
</g>
<!-- Node9 -->
<g id="Node000009" class="node">
<title>Node9</title>
<g id="a_Node000009"><a xlink:href="structResNTAB_1_1Entry.html" target="_top" xlink:title=" ">
<polygon fill="white" stroke="#666666" points="270.25,-396.75 183.75,-396.75 183.75,-377.5 270.25,-377.5 270.25,-396.75"/>
<text text-anchor="middle" x="227" y="-383.25" font-family="Helvetica,sans-Serif" font-size="10.00">ResNTAB::Entry</text>
</a>
</g>
</g>
<!-- Node9&#45;&gt;Node8 -->
<g id="edge8_Node000008_Node000009" class="edge">
<title>Node9&#45;&gt;Node8</title>
<g id="a_edge8_Node000008_Node000009"><a xlink:title=" ">
<path fill="none" stroke="#9a32cd" stroke-dasharray="5,2" d="M227,-365.65C227,-353.82 227,-339.54 227,-330.52"/>
<polygon fill="#9a32cd" stroke="#9a32cd" points="223.5,-365.64 227,-375.64 230.5,-365.64 223.5,-365.64"/>
</a>
</g>
<text text-anchor="middle" x="247.25" y="-350" font-family="Helvetica,sans-Serif" font-size="10.00" fill="grey"> mEntries</text>
</g>
<!-- Node10 -->
<g id="Node000010" class="node">
<title>Node10</title>
<g id="a_Node000010"><a xlink:href="structJ3DAnmCRegKeyTable.html" target="_top" xlink:title=" ">
<polygon fill="white" stroke="#666666" points="402,-230 284,-230 284,-210.75 402,-210.75 402,-230"/>
<text text-anchor="middle" x="343" y="-216.5" font-family="Helvetica,sans-Serif" font-size="10.00">J3DAnmCRegKeyTable</text>
</a>
</g>
</g>
<!-- Node10&#45;&gt;Node5 -->
<g id="edge9_Node000005_Node000010" class="edge">
<title>Node10&#45;&gt;Node5</title>
<g id="a_edge9_Node000005_Node000010"><a xlink:title=" ">
<path fill="none" stroke="#9a32cd" stroke-dasharray="5,2" d="M338.77,-199.72C335.57,-189.47 330.11,-177.58 321,-170.25 309.24,-160.79 275.15,-153.97 245.11,-149.61"/>
<polygon fill="#9a32cd" stroke="#9a32cd" points="335.32,-200.34 341.2,-209.15 342.09,-198.6 335.32,-200.34"/>
</a>
</g>
<text text-anchor="middle" x="384.62" y="-177.62" font-family="Helvetica,sans-Serif" font-size="10.00" fill="grey"> mAnmCRegKeyTable</text>
</g>
<!-- Node11 -->
<g id="Node000011" class="node">
<title>Node11</title>
<g id="a_Node000011"><a xlink:href="structJ3DAnmKeyTableBase.html" target="_top" xlink:title=" ">
<polygon fill="white" stroke="#666666" points="451.25,-330.25 334.75,-330.25 334.75,-311 451.25,-311 451.25,-330.25"/>
<text text-anchor="middle" x="393" y="-316.75" font-family="Helvetica,sans-Serif" font-size="10.00">J3DAnmKeyTableBase</text>
</a>
</g>
</g>
<!-- Node11&#45;&gt;Node10 -->
<g id="edge10_Node000010_Node000011" class="edge">
<title>Node11&#45;&gt;Node10</title>
<g id="a_edge10_Node000010_Node000011"><a xlink:title=" ">
<path fill="none" stroke="#9a32cd" stroke-dasharray="5,2" d="M383.27,-300.5C372.52,-279.38 355.67,-246.27 347.6,-230.42"/>
<polygon fill="#9a32cd" stroke="#9a32cd" points="380.04,-301.88 387.7,-309.21 386.28,-298.71 380.04,-301.88"/>
</a>
</g>
<text text-anchor="middle" x="399.62" y="-283.5" font-family="Helvetica,sans-Serif" font-size="10.00" fill="grey"> mATable</text>
<text text-anchor="middle" x="399.62" y="-272.25" font-family="Helvetica,sans-Serif" font-size="10.00" fill="grey">mBTable</text>
<text text-anchor="middle" x="399.62" y="-261" font-family="Helvetica,sans-Serif" font-size="10.00" fill="grey">mGTable</text>
<text text-anchor="middle" x="399.62" y="-249.75" font-family="Helvetica,sans-Serif" font-size="10.00" fill="grey">mRTable</text>
</g>
<!-- Node12 -->
<g id="Node000012" class="node">
<title>Node12</title>
<g id="a_Node000012"><a xlink:href="structJ3DAnmKRegKeyTable.html" target="_top" xlink:title=" ">
<polygon fill="white" stroke="#666666" points="538,-230 420,-230 420,-210.75 538,-210.75 538,-230"/>
<text text-anchor="middle" x="479" y="-216.5" font-family="Helvetica,sans-Serif" font-size="10.00">J3DAnmKRegKeyTable</text>
</a>
</g>
</g>
<!-- Node11&#45;&gt;Node12 -->
<g id="edge12_Node000012_Node000011" class="edge">
<title>Node11&#45;&gt;Node12</title>
<g id="a_edge12_Node000012_Node000011"><a xlink:title=" ">
<path fill="none" stroke="#9a32cd" stroke-dasharray="5,2" d="M413.44,-303.12C417.08,-299.89 420.75,-296.44 424,-293 443.83,-272.05 463.57,-244.21 473.1,-230.21"/>
<polygon fill="#9a32cd" stroke="#9a32cd" points="411.21,-300.42 405.85,-309.56 415.74,-305.76 411.21,-300.42"/>
</a>
</g>
<text text-anchor="middle" x="479.62" y="-283.5" font-family="Helvetica,sans-Serif" font-size="10.00" fill="grey"> mATable</text>
<text text-anchor="middle" x="479.62" y="-272.25" font-family="Helvetica,sans-Serif" font-size="10.00" fill="grey">mBTable</text>
<text text-anchor="middle" x="479.62" y="-261" font-family="Helvetica,sans-Serif" font-size="10.00" fill="grey">mGTable</text>
<text text-anchor="middle" x="479.62" y="-249.75" font-family="Helvetica,sans-Serif" font-size="10.00" fill="grey">mRTable</text>
</g>
<!-- Node12&#45;&gt;Node5 -->
<g id="edge11_Node000005_Node000012" class="edge">
<title>Node12&#45;&gt;Node5</title>
<g id="a_edge11_Node000005_Node000012"><a xlink:title=" ">
<path fill="none" stroke="#9a32cd" stroke-dasharray="5,2" d="M467.82,-200.8C460.26,-189.98 449.25,-177.16 436,-170.25 403.87,-153.5 306.49,-147.25 245.21,-144.94"/>
<polygon fill="#9a32cd" stroke="#9a32cd" points="464.78,-202.53 473.15,-209.02 470.65,-198.72 464.78,-202.53"/>
</a>
</g>
<text text-anchor="middle" x="508.62" y="-177.62" font-family="Helvetica,sans-Serif" font-size="10.00" fill="grey"> mAnmKRegKeyTable</text>
</g>
</g>
</svg>
