<?xml version="1.0" encoding="UTF-8" standalone="no"?>
<!DOCTYPE svg PUBLIC "-//W3C//DTD SVG 1.1//EN"
 "http://www.w3.org/Graphics/SVG/1.1/DTD/svg11.dtd">
<!-- Generated by graphviz version 9.0.0 (20230911.1827)
 -->
<!-- Title: JAUDynamicSeqDataBlocks Pages: 1 -->
<svg width="1954pt" height="521pt"
 viewBox="0.00 0.00 1953.75 521.09" xmlns="http://www.w3.org/2000/svg" xmlns:xlink="http://www.w3.org/1999/xlink">
<g id="graph0" class="graph" transform="scale(1 1) rotate(0) translate(4 517.09)">
<title>JAUDynamicSeqDataBlocks</title>
<!-- Node1 -->
<g id="Node000001" class="node">
<title>Node1</title>
<g id="a_Node000001"><a xlink:title=" ">
<polygon fill="#999999" stroke="#666666" points="1945.75,-414.96 1805.25,-414.96 1805.25,-395.71 1945.75,-395.71 1945.75,-414.96"/>
<text text-anchor="middle" x="1875.5" y="-401.46" font-family="Helvetica,sans-Serif" font-size="10.00">JAUDynamicSeqDataBlocks</text>
</a>
</g>
</g>
<!-- Node2 -->
<g id="Node000002" class="node">
<title>Node2</title>
<g id="a_Node000002"><a xlink:href="classJAUSeqDataBlocks.html" target="_top" xlink:title=" ">
<polygon fill="white" stroke="#666666" points="1182.75,-488.96 1079.75,-488.96 1079.75,-469.71 1182.75,-469.71 1182.75,-488.96"/>
<text text-anchor="middle" x="1131.25" y="-475.46" font-family="Helvetica,sans-Serif" font-size="10.00">JAUSeqDataBlocks</text>
</a>
</g>
</g>
<!-- Node2&#45;&gt;Node1 -->
<g id="edge1_Node000001_Node000002" class="edge">
<title>Node2&#45;&gt;Node1</title>
<g id="a_edge1_Node000001_Node000002"><a xlink:title=" ">
<path fill="none" stroke="#9a32cd" stroke-dasharray="5,2" d="M1194.61,-479.34C1234.45,-479.34 1287.2,-479.34 1333.88,-479.34 1333.88,-479.34 1333.88,-479.34 1659.88,-479.34 1737.52,-479.34 1822.76,-435.52 1857.93,-415.32"/>
<polygon fill="#9a32cd" stroke="#9a32cd" points="1194.73,-475.84 1184.73,-479.34 1194.73,-482.84 1194.73,-475.84"/>
</a>
</g>
<text text-anchor="middle" x="1459.12" y="-503.59" font-family="Helvetica,sans-Serif" font-size="10.00" fill="grey"> field_0xc</text>
<text text-anchor="middle" x="1459.12" y="-492.34" font-family="Helvetica,sans-Serif" font-size="10.00" fill="grey">mFreeBlocks</text>
<text text-anchor="middle" x="1459.12" y="-481.09" font-family="Helvetica,sans-Serif" font-size="10.00" fill="grey">mLoadedBlocks</text>
</g>
<!-- Node3 -->
<g id="Node000003" class="node">
<title>Node3</title>
<g id="a_Node000003"><a xlink:href="classJSUList.html" target="_top" xlink:title=" ">
<polygon fill="white" stroke="#666666" points="284.75,-489.96 134.5,-489.96 134.5,-470.71 284.75,-470.71 284.75,-489.96"/>
<text text-anchor="middle" x="209.62" y="-476.46" font-family="Helvetica,sans-Serif" font-size="10.00">JSUList&lt; JAUSeqDataBlock &gt;</text>
</a>
</g>
</g>
<!-- Node3&#45;&gt;Node2 -->
<g id="edge2_Node000002_Node000003" class="edge">
<title>Node3&#45;&gt;Node2</title>
<g id="a_edge2_Node000002_Node000003"><a xlink:title=" ">
<path fill="none" stroke="#63b8ff" d="M296.28,-480.34C350.07,-480.34 420.9,-480.34 483.62,-480.34 483.62,-480.34 483.62,-480.34 892.12,-480.34 956.82,-480.34 1031.41,-479.97 1079.62,-479.68"/>
<polygon fill="#63b8ff" stroke="#63b8ff" points="296.58,-476.84 286.58,-480.34 296.58,-483.84 296.58,-476.84"/>
</a>
</g>
</g>
<!-- Node4 -->
<g id="Node000004" class="node">
<title>Node4</title>
<g id="a_Node000004"><a xlink:href="classJSUPtrList.html" target="_top" xlink:title=" ">
<polygon fill="white" stroke="#666666" points="64.75,-379.96 0,-379.96 0,-360.71 64.75,-360.71 64.75,-379.96"/>
<text text-anchor="middle" x="32.38" y="-366.46" font-family="Helvetica,sans-Serif" font-size="10.00">JSUPtrList</text>
</a>
</g>
</g>
<!-- Node4&#45;&gt;Node3 -->
<g id="edge3_Node000003_Node000004" class="edge">
<title>Node4&#45;&gt;Node3</title>
<g id="a_edge3_Node000003_Node000004"><a xlink:title=" ">
<path fill="none" stroke="#63b8ff" d="M39.87,-391.22C47.11,-410.9 60.79,-439.65 82.75,-455.34 97.71,-466.02 116.1,-472.42 134.15,-476.18"/>
<polygon fill="#63b8ff" stroke="#63b8ff" points="43.19,-390.11 36.66,-381.77 36.56,-392.36 43.19,-390.11"/>
</a>
</g>
</g>
<!-- Node5 -->
<g id="Node000005" class="node">
<title>Node5</title>
<g id="a_Node000005"><a xlink:href="classJSUPtrLink.html" target="_top" xlink:title=" ">
<polygon fill="white" stroke="#666666" points="243.12,-372.96 176.12,-372.96 176.12,-353.71 243.12,-353.71 243.12,-372.96"/>
<text text-anchor="middle" x="209.62" y="-359.46" font-family="Helvetica,sans-Serif" font-size="10.00">JSUPtrLink</text>
</a>
</g>
</g>
<!-- Node4&#45;&gt;Node5 -->
<g id="edge5_Node000005_Node000004" class="edge">
<title>Node4&#45;&gt;Node5</title>
<g id="a_edge5_Node000005_Node000004"><a xlink:title=" ">
<path fill="none" stroke="#9a32cd" stroke-dasharray="5,2" d="M66.24,-356.37C71.67,-354.6 77.3,-353.06 82.75,-352.09 114.07,-346.49 150.29,-350.84 175.81,-355.67"/>
<polygon fill="#9a32cd" stroke="#9a32cd" points="65.15,-353.05 56.94,-359.74 67.54,-359.63 65.15,-353.05"/>
</a>
</g>
<text text-anchor="middle" x="99.62" y="-353.09" font-family="Helvetica,sans-Serif" font-size="10.00" fill="grey"> mList</text>
</g>
<!-- Node18 -->
<g id="Node000018" class="node">
<title>Node18</title>
<g id="a_Node000018"><a xlink:href="classJSUList.html" target="_top" xlink:title=" ">
<polygon fill="white" stroke="#666666" points="402.75,-306.96 328.25,-306.96 328.25,-287.71 402.75,-287.71 402.75,-306.96"/>
<text text-anchor="middle" x="365.5" y="-293.46" font-family="Helvetica,sans-Serif" font-size="10.00">JSUList&lt; T &gt;</text>
</a>
</g>
</g>
<!-- Node4&#45;&gt;Node18 -->
<g id="edge27_Node000018_Node000004" class="edge">
<title>Node4&#45;&gt;Node18</title>
<g id="a_edge27_Node000018_Node000004"><a xlink:title=" ">
<path fill="none" stroke="#63b8ff" d="M60.34,-354.86C67.45,-351.29 75.24,-347.82 82.75,-345.34 168.04,-317.2 273.57,-304.85 328.08,-300.04"/>
<polygon fill="#63b8ff" stroke="#63b8ff" points="58.73,-351.75 51.53,-359.52 62.01,-357.93 58.73,-351.75"/>
</a>
</g>
</g>
<!-- Node20 -->
<g id="Node000020" class="node">
<title>Node20</title>
<g id="a_Node000020"><a xlink:href="classJSUList.html" target="_top" xlink:title=" ">
<polygon fill="white" stroke="#666666" points="428.25,-266.96 302.75,-266.96 302.75,-247.71 428.25,-247.71 428.25,-266.96"/>
<text text-anchor="middle" x="365.5" y="-253.46" font-family="Helvetica,sans-Serif" font-size="10.00">JSUList&lt; JKRDisposer &gt;</text>
</a>
</g>
</g>
<!-- Node4&#45;&gt;Node20 -->
<g id="edge31_Node000020_Node000004" class="edge">
<title>Node4&#45;&gt;Node20</title>
<g id="a_edge31_Node000020_Node000004"><a xlink:title=" ">
<path fill="none" stroke="#63b8ff" d="M52.61,-352.95C71.84,-336.65 103.01,-313.09 134.5,-301.34 189.35,-280.87 255.27,-269.51 302.44,-263.48"/>
<polygon fill="#63b8ff" stroke="#63b8ff" points="50.57,-350.08 45.32,-359.29 55.16,-355.37 50.57,-350.08"/>
</a>
</g>
</g>
<!-- Node23 -->
<g id="Node000023" class="node">
<title>Node23</title>
<g id="a_Node000023"><a xlink:href="classJSUList.html" target="_top" xlink:title=" ">
<polygon fill="white" stroke="#666666" points="674,-450.96 541,-450.96 541,-431.71 674,-431.71 674,-450.96"/>
<text text-anchor="middle" x="607.5" y="-437.46" font-family="Helvetica,sans-Serif" font-size="10.00">JSUList&lt; JKRFileLoader &gt;</text>
</a>
</g>
</g>
<!-- Node4&#45;&gt;Node23 -->
<g id="edge39_Node000023_Node000004" class="edge">
<title>Node4&#45;&gt;Node23</title>
<g id="a_edge39_Node000023_Node000004"><a xlink:title=" ">
<path fill="none" stroke="#63b8ff" d="M57.64,-386.66C77.4,-398.98 106.51,-414.96 134.5,-422.34 275.46,-459.48 448.23,-454.2 540.67,-447.51"/>
<polygon fill="#63b8ff" stroke="#63b8ff" points="59.54,-383.72 49.23,-381.27 55.76,-389.61 59.54,-383.72"/>
</a>
</g>
</g>
<!-- Node5&#45;&gt;Node4 -->
<g id="edge4_Node000004_Node000005" class="edge">
<title>Node5&#45;&gt;Node4</title>
<g id="a_edge4_Node000004_Node000005"><a xlink:title=" ">
<path fill="none" stroke="#9a32cd" stroke-dasharray="5,2" d="M164.3,-365.11C133.38,-366.35 92.84,-367.96 65.11,-369.07"/>
<polygon fill="#9a32cd" stroke="#9a32cd" points="164.27,-368.61 174.12,-364.72 163.99,-361.62 164.27,-368.61"/>
</a>
</g>
<text text-anchor="middle" x="99.62" y="-380.34" font-family="Helvetica,sans-Serif" font-size="10.00" fill="grey"> mHead</text>
<text text-anchor="middle" x="99.62" y="-369.09" font-family="Helvetica,sans-Serif" font-size="10.00" fill="grey">mTail</text>
</g>
<!-- Node5&#45;&gt;Node5 -->
<g id="edge6_Node000005_Node000005" class="edge">
<title>Node5&#45;&gt;Node5</title>
<g id="a_edge6_Node000005_Node000005"><a xlink:title=" ">
<path fill="none" stroke="#9a32cd" stroke-dasharray="5,2" d="M190.1,-384.37C192.54,-388.24 199.05,-390.96 209.62,-390.96 228.96,-390.96 234.7,-381.86 226.85,-373.25"/>
<polygon fill="#9a32cd" stroke="#9a32cd" points="193.49,-385.24 192.1,-374.73 186.64,-383.82 193.49,-385.24"/>
</a>
</g>
<text text-anchor="middle" x="209.62" y="-403.96" font-family="Helvetica,sans-Serif" font-size="10.00" fill="grey"> mNext</text>
<text text-anchor="middle" x="209.62" y="-392.71" font-family="Helvetica,sans-Serif" font-size="10.00" fill="grey">mPrev</text>
</g>
<!-- Node19 -->
<g id="Node000019" class="node">
<title>Node19</title>
<g id="a_Node000019"><a xlink:href="classJSULink.html" target="_top" xlink:title=" ">
<polygon fill="white" stroke="#666666" points="523,-335.96 446.25,-335.96 446.25,-316.71 523,-316.71 523,-335.96"/>
<text text-anchor="middle" x="484.62" y="-322.46" font-family="Helvetica,sans-Serif" font-size="10.00">JSULink&lt; T &gt;</text>
</a>
</g>
</g>
<!-- Node5&#45;&gt;Node19 -->
<g id="edge29_Node000019_Node000005" class="edge">
<title>Node5&#45;&gt;Node19</title>
<g id="a_edge29_Node000019_Node000005"><a xlink:title=" ">
<path fill="none" stroke="#63b8ff" d="M254.66,-357.05C269.89,-354.9 287.06,-352.49 302.75,-350.34 352.18,-343.57 409.25,-336.05 445.85,-331.26"/>
<polygon fill="#63b8ff" stroke="#63b8ff" points="254.35,-353.56 244.94,-358.43 255.34,-360.49 254.35,-353.56"/>
</a>
</g>
</g>
<!-- Node21 -->
<g id="Node000021" class="node">
<title>Node21</title>
<g id="a_Node000021"><a xlink:href="classJSULink.html" target="_top" xlink:title=" ">
<polygon fill="white" stroke="#666666" points="671.38,-370.96 543.62,-370.96 543.62,-351.71 671.38,-351.71 671.38,-370.96"/>
<text text-anchor="middle" x="607.5" y="-357.46" font-family="Helvetica,sans-Serif" font-size="10.00">JSULink&lt; JKRDisposer &gt;</text>
</a>
</g>
</g>
<!-- Node5&#45;&gt;Node21 -->
<g id="edge34_Node000021_Node000005" class="edge">
<title>Node5&#45;&gt;Node21</title>
<g id="a_edge34_Node000021_Node000005"><a xlink:title=" ">
<path fill="none" stroke="#63b8ff" d="M254.85,-363.12C325.12,-362.76 462.52,-362.07 543.19,-361.66"/>
<polygon fill="#63b8ff" stroke="#63b8ff" points="254.85,-359.62 244.87,-363.17 254.89,-366.62 254.85,-359.62"/>
</a>
</g>
</g>
<!-- Node22 -->
<g id="Node000022" class="node">
<title>Node22</title>
<g id="a_Node000022"><a xlink:href="classJSULink.html" target="_top" xlink:title=" ">
<polygon fill="white" stroke="#666666" points="958.75,-408.96 823.5,-408.96 823.5,-389.71 958.75,-389.71 958.75,-408.96"/>
<text text-anchor="middle" x="891.12" y="-395.46" font-family="Helvetica,sans-Serif" font-size="10.00">JSULink&lt; JKRFileLoader &gt;</text>
</a>
</g>
</g>
<!-- Node5&#45;&gt;Node22 -->
<g id="edge36_Node000022_Node000005" class="edge">
<title>Node5&#45;&gt;Node22</title>
<g id="a_edge36_Node000022_Node000005"><a xlink:title=" ">
<path fill="none" stroke="#63b8ff" d="M254.56,-370.46C269.78,-372.68 286.98,-374.92 302.75,-376.34 490.79,-393.24 713.8,-397.73 823.04,-398.91"/>
<polygon fill="#63b8ff" stroke="#63b8ff" points="255.27,-367.03 244.86,-369 254.23,-373.95 255.27,-367.03"/>
</a>
</g>
</g>
<!-- Node6 -->
<g id="Node000006" class="node">
<title>Node6</title>
<g id="a_Node000006"><a xlink:href="classJKRArchive.html" target="_top" xlink:title=" ">
<polygon fill="white" stroke="#666666" points="1692.75,-297.96 1625,-297.96 1625,-278.71 1692.75,-278.71 1692.75,-297.96"/>
<text text-anchor="middle" x="1658.88" y="-284.46" font-family="Helvetica,sans-Serif" font-size="10.00">JKRArchive</text>
</a>
</g>
</g>
<!-- Node6&#45;&gt;Node1 -->
<g id="edge7_Node000001_Node000006" class="edge">
<title>Node6&#45;&gt;Node1</title>
<g id="a_edge7_Node000001_Node000006"><a xlink:title=" ">
<path fill="none" stroke="#9a32cd" stroke-dasharray="5,2" d="M1688.06,-303.71C1732.66,-328.02 1818.28,-374.69 1855.94,-395.22"/>
<polygon fill="#9a32cd" stroke="#9a32cd" points="1689.96,-300.75 1679.5,-299.04 1686.61,-306.9 1689.96,-300.75"/>
</a>
</g>
<text text-anchor="middle" x="1749" y="-358.09" font-family="Helvetica,sans-Serif" font-size="10.00" fill="grey"> seqDataArchive_</text>
</g>
<!-- Node7 -->
<g id="Node000007" class="node">
<title>Node7</title>
<g id="a_Node000007"><a xlink:href="classJKRFileLoader.html" target="_top" xlink:title=" ">
<polygon fill="white" stroke="#666666" points="1499.38,-340.96 1418.88,-340.96 1418.88,-321.71 1499.38,-321.71 1499.38,-340.96"/>
<text text-anchor="middle" x="1459.12" y="-327.46" font-family="Helvetica,sans-Serif" font-size="10.00">JKRFileLoader</text>
</a>
</g>
</g>
<!-- Node7&#45;&gt;Node6 -->
<g id="edge8_Node000006_Node000007" class="edge">
<title>Node7&#45;&gt;Node6</title>
<g id="a_edge8_Node000006_Node000007"><a xlink:title=" ">
<path fill="none" stroke="#63b8ff" d="M1510.86,-320.31C1546.64,-312.53 1593.54,-302.33 1624.64,-295.57"/>
<polygon fill="#63b8ff" stroke="#63b8ff" points="1510.17,-316.87 1501.15,-322.42 1511.66,-323.71 1510.17,-316.87"/>
</a>
</g>
</g>
<!-- Node7&#45;&gt;Node7 -->
<g id="edge37_Node000007_Node000007" class="edge">
<title>Node7&#45;&gt;Node7</title>
<g id="a_edge37_Node000007_Node000007"><a xlink:title=" ">
<path fill="none" stroke="#9a32cd" stroke-dasharray="5,2" d="M1438.8,-352.37C1441.34,-356.24 1448.12,-358.96 1459.12,-358.96 1479.25,-358.96 1485.23,-349.86 1477.05,-341.25"/>
<polygon fill="#9a32cd" stroke="#9a32cd" points="1442.19,-353.25 1440.88,-342.73 1435.35,-351.77 1442.19,-353.25"/>
</a>
</g>
<text text-anchor="middle" x="1459.12" y="-360.71" font-family="Helvetica,sans-Serif" font-size="10.00" fill="grey"> sCurrentVolume</text>
</g>
<!-- Node8 -->
<g id="Node000008" class="node">
<title>Node8</title>
<g id="a_Node000008"><a xlink:href="classJKRDisposer.html" target="_top" xlink:title=" ">
<polygon fill="white" stroke="#666666" points="1273.75,-340.96 1200.75,-340.96 1200.75,-321.71 1273.75,-321.71 1273.75,-340.96"/>
<text text-anchor="middle" x="1237.25" y="-327.46" font-family="Helvetica,sans-Serif" font-size="10.00">JKRDisposer</text>
</a>
</g>
</g>
<!-- Node8&#45;&gt;Node7 -->
<g id="edge9_Node000007_Node000008" class="edge">
<title>Node8&#45;&gt;Node7</title>
<g id="a_edge9_Node000007_Node000008"><a xlink:title=" ">
<path fill="none" stroke="#63b8ff" d="M1285.56,-331.34C1325.25,-331.34 1381.28,-331.34 1418.61,-331.34"/>
<polygon fill="#63b8ff" stroke="#63b8ff" points="1285.58,-327.84 1275.58,-331.34 1285.58,-334.84 1285.58,-327.84"/>
</a>
</g>
</g>
<!-- Node9 -->
<g id="Node000009" class="node">
<title>Node9</title>
<g id="a_Node000009"><a xlink:href="structJKRHeap.html" target="_top" xlink:title=" ">
<polygon fill="white" stroke="#666666" points="1048.25,-265.96 990.25,-265.96 990.25,-246.71 1048.25,-246.71 1048.25,-265.96"/>
<text text-anchor="middle" x="1019.25" y="-252.46" font-family="Helvetica,sans-Serif" font-size="10.00">JKRHeap</text>
</a>
</g>
</g>
<!-- Node8&#45;&gt;Node9 -->
<g id="edge11_Node000009_Node000008" class="edge">
<title>Node8&#45;&gt;Node9</title>
<g id="a_edge11_Node000009_Node000008"><a xlink:title=" ">
<path fill="none" stroke="#63b8ff" d="M1198.56,-317.55C1193.27,-315.73 1187.89,-313.95 1182.75,-312.34 1137.48,-298.17 1124.27,-300.72 1079.75,-284.34 1065.93,-279.25 1050.93,-272.18 1039.45,-266.42"/>
<polygon fill="#63b8ff" stroke="#63b8ff" points="1197.14,-320.76 1207.74,-320.77 1199.46,-314.16 1197.14,-320.76"/>
</a>
</g>
</g>
<!-- Node9&#45;&gt;Node6 -->
<g id="edge40_Node000006_Node000009" class="edge">
<title>Node9&#45;&gt;Node6</title>
<g id="a_edge40_Node000006_Node000009"><a xlink:title=" ">
<path fill="none" stroke="#9a32cd" stroke-dasharray="5,2" d="M1059.65,-258.32C1176.03,-264.16 1516.88,-281.26 1624.74,-286.68"/>
<polygon fill="#9a32cd" stroke="#9a32cd" points="1060.15,-254.84 1049.98,-257.83 1059.79,-261.83 1060.15,-254.84"/>
</a>
</g>
<text text-anchor="middle" x="1334.88" y="-276.09" font-family="Helvetica,sans-Serif" font-size="10.00" fill="grey"> mHeap</text>
</g>
<!-- Node9&#45;&gt;Node8 -->
<g id="edge10_Node000008_Node000009" class="edge">
<title>Node9&#45;&gt;Node8</title>
<g id="a_edge10_Node000008_Node000009"><a xlink:title=" ">
<path fill="none" stroke="#9a32cd" stroke-dasharray="5,2" d="M1035.32,-274.46C1046.34,-286.4 1062.34,-301.28 1079.75,-309.34 1118.34,-327.21 1167.57,-331.51 1200.41,-332.11"/>
<polygon fill="#9a32cd" stroke="#9a32cd" points="1038.16,-272.39 1028.93,-267.19 1032.91,-277.01 1038.16,-272.39"/>
</a>
</g>
<text text-anchor="middle" x="1131.25" y="-333.09" font-family="Helvetica,sans-Serif" font-size="10.00" fill="grey"> mHeap</text>
</g>
<!-- Node9&#45;&gt;Node9 -->
<g id="edge32_Node000009_Node000009" class="edge">
<title>Node9&#45;&gt;Node9</title>
<g id="a_edge32_Node000009_Node000009"><a xlink:title=" ">
<path fill="none" stroke="#9a32cd" stroke-dasharray="5,2" d="M999.37,-277.37C1001.86,-281.24 1008.48,-283.96 1019.25,-283.96 1038.94,-283.96 1044.78,-274.86 1036.78,-266.25"/>
<polygon fill="#9a32cd" stroke="#9a32cd" points="1002.76,-278.24 1001.4,-267.73 995.91,-276.8 1002.76,-278.24"/>
</a>
</g>
<text text-anchor="middle" x="1019.25" y="-319.46" font-family="Helvetica,sans-Serif" font-size="10.00" fill="grey"> sCurrentHeap</text>
<text text-anchor="middle" x="1019.25" y="-308.21" font-family="Helvetica,sans-Serif" font-size="10.00" fill="grey">sRootHeap</text>
<text text-anchor="middle" x="1019.25" y="-296.96" font-family="Helvetica,sans-Serif" font-size="10.00" fill="grey">sRootHeap2</text>
<text text-anchor="middle" x="1019.25" y="-285.71" font-family="Helvetica,sans-Serif" font-size="10.00" fill="grey">sSystemHeap</text>
</g>
<!-- Node10 -->
<g id="Node000010" class="node">
<title>Node10</title>
<g id="a_Node000010"><a xlink:href="structOSMutex.html" target="_top" xlink:title=" ">
<polygon fill="white" stroke="#666666" points="777,-116.96 720.5,-116.96 720.5,-97.71 777,-97.71 777,-116.96"/>
<text text-anchor="middle" x="748.75" y="-103.46" font-family="Helvetica,sans-Serif" font-size="10.00">OSMutex</text>
</a>
</g>
</g>
<!-- Node10&#45;&gt;Node9 -->
<g id="edge12_Node000009_Node000010" class="edge">
<title>Node10&#45;&gt;Node9</title>
<g id="a_edge12_Node000009_Node000010"><a xlink:title=" ">
<path fill="none" stroke="#9a32cd" stroke-dasharray="5,2" d="M759.48,-127.39C771.35,-149.55 793.6,-184.47 823.5,-202.34 875.82,-233.61 900.99,-205.62 958.75,-225.09 974.45,-230.38 991.04,-239.42 1002.7,-246.42"/>
<polygon fill="#9a32cd" stroke="#9a32cd" points="762.72,-126.05 755.05,-118.74 756.49,-129.24 762.72,-126.05"/>
</a>
</g>
<text text-anchor="middle" x="891.12" y="-227.09" font-family="Helvetica,sans-Serif" font-size="10.00" fill="grey"> mMutex</text>
</g>
<!-- Node12 -->
<g id="Node000012" class="node">
<title>Node12</title>
<g id="a_Node000012"><a xlink:href="structOSThread.html" target="_top" xlink:title=" ">
<polygon fill="white" stroke="#666666" points="1267.38,-79.96 1207.12,-79.96 1207.12,-60.71 1267.38,-60.71 1267.38,-79.96"/>
<text text-anchor="middle" x="1237.25" y="-66.46" font-family="Helvetica,sans-Serif" font-size="10.00">OSThread</text>
</a>
</g>
</g>
<!-- Node10&#45;&gt;Node12 -->
<g id="edge19_Node000012_Node000010" class="edge">
<title>Node10&#45;&gt;Node12</title>
<g id="a_edge19_Node000012_Node000010"><a xlink:title=" ">
<path fill="none" stroke="#9a32cd" stroke-dasharray="5,2" d="M761.62,-87.73C774.35,-68.6 796.44,-40.38 823.5,-26.34 884.43,5.27 908.24,-11.38 976.75,-7.09 1068.53,-1.35 1098.9,11.41 1182.75,-26.34 1200.73,-34.44 1217.63,-50.22 1227.46,-60.51"/>
<polygon fill="#9a32cd" stroke="#9a32cd" points="758.77,-85.69 756.35,-96.01 764.67,-89.45 758.77,-85.69"/>
</a>
</g>
<text text-anchor="middle" x="1019.25" y="-9.09" font-family="Helvetica,sans-Serif" font-size="10.00" fill="grey"> mutex</text>
</g>
<!-- Node15 -->
<g id="Node000015" class="node">
<title>Node15</title>
<g id="a_Node000015"><a xlink:href="structOSMutexQueue.html" target="_top" xlink:title=" ">
<polygon fill="white" stroke="#666666" points="1061.75,-162.96 976.75,-162.96 976.75,-143.71 1061.75,-143.71 1061.75,-162.96"/>
<text text-anchor="middle" x="1019.25" y="-149.46" font-family="Helvetica,sans-Serif" font-size="10.00">OSMutexQueue</text>
</a>
</g>
</g>
<!-- Node10&#45;&gt;Node15 -->
<g id="edge21_Node000015_Node000010" class="edge">
<title>Node10&#45;&gt;Node15</title>
<g id="a_edge21_Node000015_Node000010"><a xlink:title=" ">
<path fill="none" stroke="#9a32cd" stroke-dasharray="5,2" d="M786.98,-121.07C798.55,-124.9 811.43,-128.72 823.5,-131.34 875.54,-142.63 936.74,-148.33 976.44,-151.07"/>
<polygon fill="#9a32cd" stroke="#9a32cd" points="788.39,-117.86 777.8,-117.93 786.12,-124.48 788.39,-117.86"/>
</a>
</g>
<text text-anchor="middle" x="891.12" y="-163.34" font-family="Helvetica,sans-Serif" font-size="10.00" fill="grey"> head</text>
<text text-anchor="middle" x="891.12" y="-152.09" font-family="Helvetica,sans-Serif" font-size="10.00" fill="grey">tail</text>
</g>
<!-- Node16 -->
<g id="Node000016" class="node">
<title>Node16</title>
<g id="a_Node000016"><a xlink:href="structOSMutexLink.html" target="_top" xlink:title=" ">
<polygon fill="white" stroke="#666666" points="1056.88,-125.96 981.62,-125.96 981.62,-106.71 1056.88,-106.71 1056.88,-125.96"/>
<text text-anchor="middle" x="1019.25" y="-112.46" font-family="Helvetica,sans-Serif" font-size="10.00">OSMutexLink</text>
</a>
</g>
</g>
<!-- Node10&#45;&gt;Node16 -->
<g id="edge24_Node000016_Node000010" class="edge">
<title>Node10&#45;&gt;Node16</title>
<g id="a_edge24_Node000016_Node000010"><a xlink:title=" ">
<path fill="none" stroke="#9a32cd" stroke-dasharray="5,2" d="M788.53,-106.25C830.53,-105.39 899.47,-104.9 958.75,-108.84 966.02,-109.32 973.77,-110.1 981.18,-110.98"/>
<polygon fill="#9a32cd" stroke="#9a32cd" points="788.61,-102.75 778.69,-106.47 788.76,-109.75 788.61,-102.75"/>
</a>
</g>
<text text-anchor="middle" x="891.12" y="-122.34" font-family="Helvetica,sans-Serif" font-size="10.00" fill="grey"> next</text>
<text text-anchor="middle" x="891.12" y="-111.09" font-family="Helvetica,sans-Serif" font-size="10.00" fill="grey">prev</text>
</g>
<!-- Node11 -->
<g id="Node000011" class="node">
<title>Node11</title>
<g id="a_Node000011"><a xlink:href="structOSThreadQueue.html" target="_top" xlink:title=" ">
<polygon fill="white" stroke="#666666" points="1503.5,-162.96 1414.75,-162.96 1414.75,-143.71 1503.5,-143.71 1503.5,-162.96"/>
<text text-anchor="middle" x="1459.12" y="-149.46" font-family="Helvetica,sans-Serif" font-size="10.00">OSThreadQueue</text>
</a>
</g>
</g>
<!-- Node11&#45;&gt;Node10 -->
<g id="edge13_Node000010_Node000011" class="edge">
<title>Node11&#45;&gt;Node10</title>
<g id="a_edge13_Node000010_Node000011"><a xlink:title=" ">
<path fill="none" stroke="#9a32cd" stroke-dasharray="5,2" d="M1420.82,-166.97C1407.5,-171.18 1392.26,-175.25 1378,-177.34 1340.07,-182.9 1330.08,-177.38 1291.75,-177.34 1187.69,-177.23 920.24,-214.66 823.5,-176.34 793.18,-164.33 767.99,-133.35 756.48,-117.3"/>
<polygon fill="#9a32cd" stroke="#9a32cd" points="1421.66,-170.38 1430.06,-163.92 1419.46,-163.73 1421.66,-170.38"/>
</a>
</g>
<text text-anchor="middle" x="1131.25" y="-192.09" font-family="Helvetica,sans-Serif" font-size="10.00" fill="grey"> queue</text>
</g>
<!-- Node11&#45;&gt;Node12 -->
<g id="edge16_Node000012_Node000011" class="edge">
<title>Node11&#45;&gt;Node12</title>
<g id="a_edge16_Node000012_Node000011"><a xlink:title=" ">
<path fill="none" stroke="#9a32cd" stroke-dasharray="5,2" d="M1403.45,-155.64C1369.47,-154.84 1325.91,-149.61 1291.75,-131.34 1269.39,-119.38 1252.03,-94.08 1243.68,-80.11"/>
<polygon fill="#9a32cd" stroke="#9a32cd" points="1403.03,-159.14 1413.06,-155.74 1403.1,-152.14 1403.03,-159.14"/>
</a>
</g>
<text text-anchor="middle" x="1334.88" y="-167.34" font-family="Helvetica,sans-Serif" font-size="10.00" fill="grey"> join_queue</text>
<text text-anchor="middle" x="1334.88" y="-156.09" font-family="Helvetica,sans-Serif" font-size="10.00" fill="grey">queue</text>
</g>
<!-- Node12&#45;&gt;Node10 -->
<g id="edge22_Node000010_Node000012" class="edge">
<title>Node12&#45;&gt;Node10</title>
<g id="a_edge22_Node000010_Node000012"><a xlink:title=" ">
<path fill="none" stroke="#9a32cd" stroke-dasharray="5,2" d="M1195.8,-59.6C1120.26,-41.53 953.63,-11.14 823.5,-55.34 797.69,-64.11 772.89,-84.98 759.66,-97.45"/>
<polygon fill="#9a32cd" stroke="#9a32cd" points="1194.68,-62.93 1205.23,-61.91 1196.35,-56.13 1194.68,-62.93"/>
</a>
</g>
<text text-anchor="middle" x="1019.25" y="-39.09" font-family="Helvetica,sans-Serif" font-size="10.00" fill="grey"> thread</text>
</g>
<!-- Node12&#45;&gt;Node11 -->
<g id="edge14_Node000011_Node000012" class="edge">
<title>Node12&#45;&gt;Node11</title>
<g id="a_edge14_Node000011_Node000012"><a xlink:title=" ">
<path fill="none" stroke="#9a32cd" stroke-dasharray="5,2" d="M1278.57,-81.68C1283.02,-82.92 1287.48,-84.16 1291.75,-85.34 1330.04,-95.92 1341.2,-93.86 1378,-108.84 1401.58,-118.44 1426.98,-133.42 1442.72,-143.31"/>
<polygon fill="#9a32cd" stroke="#9a32cd" points="1279.7,-78.36 1269.13,-79.04 1277.82,-85.1 1279.7,-78.36"/>
</a>
</g>
<text text-anchor="middle" x="1334.88" y="-122.34" font-family="Helvetica,sans-Serif" font-size="10.00" fill="grey"> head</text>
<text text-anchor="middle" x="1334.88" y="-111.09" font-family="Helvetica,sans-Serif" font-size="10.00" fill="grey">tail</text>
</g>
<!-- Node14 -->
<g id="Node000014" class="node">
<title>Node14</title>
<g id="a_Node000014"><a xlink:href="structOSThreadLink.html" target="_top" xlink:title=" ">
<polygon fill="white" stroke="#666666" points="1498.62,-47.96 1419.62,-47.96 1419.62,-28.71 1498.62,-28.71 1498.62,-47.96"/>
<text text-anchor="middle" x="1459.12" y="-34.46" font-family="Helvetica,sans-Serif" font-size="10.00">OSThreadLink</text>
</a>
</g>
</g>
<!-- Node12&#45;&gt;Node14 -->
<g id="edge18_Node000014_Node000012" class="edge">
<title>Node12&#45;&gt;Node14</title>
<g id="a_edge18_Node000014_Node000012"><a xlink:title=" ">
<path fill="none" stroke="#9a32cd" stroke-dasharray="5,2" d="M1253.58,-52.08C1263.32,-41.95 1276.88,-30.31 1291.75,-24.84 1336.76,-8.29 1393.11,-18.78 1427.33,-28.26"/>
<polygon fill="#9a32cd" stroke="#9a32cd" points="1251.17,-49.52 1247.07,-59.29 1256.37,-54.21 1251.17,-49.52"/>
</a>
</g>
<text text-anchor="middle" x="1334.88" y="-38.34" font-family="Helvetica,sans-Serif" font-size="10.00" fill="grey"> next</text>
<text text-anchor="middle" x="1334.88" y="-27.09" font-family="Helvetica,sans-Serif" font-size="10.00" fill="grey">prev</text>
</g>
<!-- Node13 -->
<g id="Node000013" class="node">
<title>Node13</title>
<g id="a_Node000013"><a xlink:href="structOSContext.html" target="_top" xlink:title=" ">
<polygon fill="white" stroke="#666666" points="1050.88,-88.96 987.62,-88.96 987.62,-69.71 1050.88,-69.71 1050.88,-88.96"/>
<text text-anchor="middle" x="1019.25" y="-75.46" font-family="Helvetica,sans-Serif" font-size="10.00">OSContext</text>
</a>
</g>
</g>
<!-- Node13&#45;&gt;Node12 -->
<g id="edge15_Node000012_Node000013" class="edge">
<title>Node13&#45;&gt;Node12</title>
<g id="a_edge15_Node000012_Node000013"><a xlink:title=" ">
<path fill="none" stroke="#9a32cd" stroke-dasharray="5,2" d="M1062.57,-77.58C1105.07,-75.81 1169.47,-73.12 1206.75,-71.57"/>
<polygon fill="#9a32cd" stroke="#9a32cd" points="1062.56,-74.07 1052.71,-77.99 1062.85,-81.07 1062.56,-74.07"/>
</a>
</g>
<text text-anchor="middle" x="1131.25" y="-79.09" font-family="Helvetica,sans-Serif" font-size="10.00" fill="grey"> context</text>
</g>
<!-- Node14&#45;&gt;Node12 -->
<g id="edge17_Node000012_Node000014" class="edge">
<title>Node14&#45;&gt;Node12</title>
<g id="a_edge17_Node000012_Node000014"><a xlink:title=" ">
<path fill="none" stroke="#9a32cd" stroke-dasharray="5,2" d="M1407.98,-45.64C1364.56,-51.96 1303.26,-60.88 1267.45,-66.09"/>
<polygon fill="#9a32cd" stroke="#9a32cd" points="1408.27,-49.13 1417.66,-44.23 1407.26,-42.21 1408.27,-49.13"/>
</a>
</g>
<text text-anchor="middle" x="1334.88" y="-75.34" font-family="Helvetica,sans-Serif" font-size="10.00" fill="grey"> active_threads_link</text>
<text text-anchor="middle" x="1334.88" y="-64.09" font-family="Helvetica,sans-Serif" font-size="10.00" fill="grey">link</text>
</g>
<!-- Node15&#45;&gt;Node12 -->
<g id="edge20_Node000012_Node000015" class="edge">
<title>Node15&#45;&gt;Node12</title>
<g id="a_edge20_Node000012_Node000015"><a xlink:title=" ">
<path fill="none" stroke="#9a32cd" stroke-dasharray="5,2" d="M1058.51,-139.36C1091.52,-127.21 1140.42,-108.98 1182.75,-92.34 1192.47,-88.52 1203.12,-84.17 1212.34,-80.36"/>
<polygon fill="#9a32cd" stroke="#9a32cd" points="1057.55,-135.98 1049.37,-142.72 1059.97,-142.55 1057.55,-135.98"/>
</a>
</g>
<text text-anchor="middle" x="1131.25" y="-133.09" font-family="Helvetica,sans-Serif" font-size="10.00" fill="grey"> owned_mutexes</text>
</g>
<!-- Node16&#45;&gt;Node10 -->
<g id="edge23_Node000010_Node000016" class="edge">
<title>Node16&#45;&gt;Node10</title>
<g id="a_edge23_Node000010_Node000016"><a xlink:title=" ">
<path fill="none" stroke="#9a32cd" stroke-dasharray="5,2" d="M980.21,-100.87C979.01,-100.06 977.86,-99.22 976.75,-98.34 966.24,-90 970.74,-80.12 958.75,-74.09 905.05,-47.07 882.27,-61.45 823.5,-74.09 802.9,-78.52 781.12,-89.17 766.62,-97.24"/>
<polygon fill="#9a32cd" stroke="#9a32cd" points="978.15,-103.73 988.57,-105.67 981.64,-97.66 978.15,-103.73"/>
</a>
</g>
<text text-anchor="middle" x="891.12" y="-76.09" font-family="Helvetica,sans-Serif" font-size="10.00" fill="grey"> link</text>
</g>
<!-- Node17 -->
<g id="Node000017" class="node">
<title>Node17</title>
<g id="a_Node000017"><a xlink:href="classJSUTree.html" target="_top" xlink:title=" ">
<polygon fill="white" stroke="#666666" points="805.5,-297.96 692,-297.96 692,-278.71 805.5,-278.71 805.5,-297.96"/>
<text text-anchor="middle" x="748.75" y="-284.46" font-family="Helvetica,sans-Serif" font-size="10.00">JSUTree&lt; JKRHeap &gt;</text>
</a>
</g>
</g>
<!-- Node17&#45;&gt;Node9 -->
<g id="edge25_Node000009_Node000017" class="edge">
<title>Node17&#45;&gt;Node9</title>
<g id="a_edge25_Node000009_Node000017"><a xlink:title=" ">
<path fill="none" stroke="#9a32cd" stroke-dasharray="5,2" d="M816.89,-280.96C857.89,-276.38 911.38,-270.24 958.75,-264.34 968.89,-263.08 979.98,-261.61 989.82,-260.28"/>
<polygon fill="#9a32cd" stroke="#9a32cd" points="816.73,-277.46 807.18,-282.05 817.5,-284.42 816.73,-277.46"/>
</a>
</g>
<text text-anchor="middle" x="891.12" y="-282.09" font-family="Helvetica,sans-Serif" font-size="10.00" fill="grey"> mChildTree</text>
</g>
<!-- Node18&#45;&gt;Node17 -->
<g id="edge26_Node000017_Node000018" class="edge">
<title>Node18&#45;&gt;Node17</title>
<g id="a_edge26_Node000017_Node000018"><a xlink:title=" ">
<path fill="none" stroke="#63b8ff" d="M414.25,-296.21C484.82,-294.55 616.69,-291.43 691.73,-289.66"/>
<polygon fill="#63b8ff" stroke="#63b8ff" points="414.48,-292.71 404.57,-296.44 414.65,-299.7 414.48,-292.71"/>
</a>
</g>
</g>
<!-- Node19&#45;&gt;Node17 -->
<g id="edge28_Node000017_Node000019" class="edge">
<title>Node19&#45;&gt;Node17</title>
<g id="a_edge28_Node000017_Node000019"><a xlink:title=" ">
<path fill="none" stroke="#63b8ff" d="M534.53,-320.94C572.62,-316.53 626.79,-309.82 674,-302.34 681.34,-301.18 689.06,-299.84 696.64,-298.46"/>
<polygon fill="#63b8ff" stroke="#63b8ff" points="534.29,-317.44 524.75,-322.06 535.09,-324.4 534.29,-317.44"/>
</a>
</g>
</g>
<!-- Node20&#45;&gt;Node9 -->
<g id="edge30_Node000009_Node000020" class="edge">
<title>Node20&#45;&gt;Node9</title>
<g id="a_edge30_Node000009_Node000020"><a xlink:title=" ">
<path fill="none" stroke="#9a32cd" stroke-dasharray="5,2" d="M439.97,-257.23C583.33,-257.01 894.7,-256.53 989.98,-256.38"/>
<polygon fill="#9a32cd" stroke="#9a32cd" points="440.21,-253.73 430.21,-257.24 440.22,-260.73 440.21,-253.73"/>
</a>
</g>
<text text-anchor="middle" x="607.5" y="-259.09" font-family="Helvetica,sans-Serif" font-size="10.00" fill="grey"> mDisposerList</text>
</g>
<!-- Node21&#45;&gt;Node8 -->
<g id="edge33_Node000008_Node000021" class="edge">
<title>Node21&#45;&gt;Node8</title>
<g id="a_edge33_Node000008_Node000021"><a xlink:title=" ">
<path fill="none" stroke="#9a32cd" stroke-dasharray="5,2" d="M682.96,-363.48C792.8,-365.63 1004.51,-365.92 1182.75,-343.34 1188.51,-342.61 1194.56,-341.55 1200.44,-340.35"/>
<polygon fill="#9a32cd" stroke="#9a32cd" points="683.27,-359.99 673.2,-363.28 683.12,-366.99 683.27,-359.99"/>
</a>
</g>
<text text-anchor="middle" x="891.12" y="-365.09" font-family="Helvetica,sans-Serif" font-size="10.00" fill="grey"> mLink</text>
</g>
<!-- Node22&#45;&gt;Node7 -->
<g id="edge35_Node000007_Node000022" class="edge">
<title>Node22&#45;&gt;Node7</title>
<g id="a_edge35_Node000007_Node000022"><a xlink:title=" ">
<path fill="none" stroke="#9a32cd" stroke-dasharray="5,2" d="M970.46,-392.15C1066.66,-382.97 1234.69,-365.8 1378,-345.34 1391.28,-343.44 1405.74,-341.03 1418.67,-338.74"/>
<polygon fill="#9a32cd" stroke="#9a32cd" points="970.23,-388.66 960.6,-393.08 970.89,-395.62 970.23,-388.66"/>
</a>
</g>
<text text-anchor="middle" x="1131.25" y="-382.09" font-family="Helvetica,sans-Serif" font-size="10.00" fill="grey"> mFileLoaderLink</text>
</g>
<!-- Node23&#45;&gt;Node7 -->
<g id="edge38_Node000007_Node000023" class="edge">
<title>Node23&#45;&gt;Node7</title>
<g id="a_edge38_Node000007_Node000023"><a xlink:title=" ">
<path fill="none" stroke="#9a32cd" stroke-dasharray="5,2" d="M685.6,-441.34C742.2,-441.34 820.94,-441.34 890.12,-441.34 890.12,-441.34 890.12,-441.34 1238.25,-441.34 1282.75,-441.34 1400.61,-368.37 1442.82,-341.3"/>
<polygon fill="#9a32cd" stroke="#9a32cd" points="685.74,-437.84 675.74,-441.34 685.74,-444.84 685.74,-437.84"/>
</a>
</g>
<text text-anchor="middle" x="1019.25" y="-443.09" font-family="Helvetica,sans-Serif" font-size="10.00" fill="grey"> sVolumeList</text>
</g>
<!-- Node24 -->
<g id="Node000024" class="node">
<title>Node24</title>
<g id="a_Node000024"><a xlink:href="structSArcDataInfo.html" target="_top" xlink:title=" ">
<polygon fill="white" stroke="#666666" points="1496.38,-244.96 1421.88,-244.96 1421.88,-225.71 1496.38,-225.71 1496.38,-244.96"/>
<text text-anchor="middle" x="1459.12" y="-231.46" font-family="Helvetica,sans-Serif" font-size="10.00">SArcDataInfo</text>
</a>
</g>
</g>
<!-- Node24&#45;&gt;Node6 -->
<g id="edge41_Node000006_Node000024" class="edge">
<title>Node24&#45;&gt;Node6</title>
<g id="a_edge41_Node000006_Node000024"><a xlink:title=" ">
<path fill="none" stroke="#9a32cd" stroke-dasharray="5,2" d="M1508.03,-232.64C1537.54,-232.62 1575.6,-235.62 1607,-248.09 1623.75,-254.74 1639.43,-268.8 1648.84,-278.41"/>
<polygon fill="#9a32cd" stroke="#9a32cd" points="1508.23,-229.14 1498.28,-232.77 1508.33,-236.14 1508.23,-229.14"/>
</a>
</g>
<text text-anchor="middle" x="1573.62" y="-250.09" font-family="Helvetica,sans-Serif" font-size="10.00" fill="grey"> mArcInfoBlock</text>
</g>
<!-- Node25 -->
<g id="Node000025" class="node">
<title>Node25</title>
<g id="a_Node000025"><a xlink:href="structJKRArchive_1_1SDIDirEntry.html" target="_top" xlink:title=" ">
<polygon fill="white" stroke="#666666" points="1520.38,-207.96 1397.88,-207.96 1397.88,-188.71 1520.38,-188.71 1520.38,-207.96"/>
<text text-anchor="middle" x="1459.12" y="-194.46" font-family="Helvetica,sans-Serif" font-size="10.00">JKRArchive::SDIDirEntry</text>
</a>
</g>
</g>
<!-- Node25&#45;&gt;Node6 -->
<g id="edge42_Node000006_Node000025" class="edge">
<title>Node25&#45;&gt;Node6</title>
<g id="a_edge42_Node000006_Node000025"><a xlink:title=" ">
<path fill="none" stroke="#9a32cd" stroke-dasharray="5,2" d="M1532.21,-197.3C1557.33,-199.75 1584.76,-205.8 1607,-219.09 1630.56,-233.17 1646.54,-262.79 1653.66,-278.33"/>
<polygon fill="#9a32cd" stroke="#9a32cd" points="1532.6,-193.82 1522.36,-196.54 1532.06,-200.8 1532.6,-193.82"/>
</a>
</g>
<text text-anchor="middle" x="1573.62" y="-221.09" font-family="Helvetica,sans-Serif" font-size="10.00" fill="grey"> mNodes</text>
</g>
<!-- Node26 -->
<g id="Node000026" class="node">
<title>Node26</title>
<g id="a_Node000026"><a xlink:href="structJKRArchive_1_1SDIFileEntry.html" target="_top" xlink:title=" ">
<polygon fill="white" stroke="#666666" points="1522.25,-407.96 1396,-407.96 1396,-388.71 1522.25,-388.71 1522.25,-407.96"/>
<text text-anchor="middle" x="1459.12" y="-394.46" font-family="Helvetica,sans-Serif" font-size="10.00">JKRArchive::SDIFileEntry</text>
</a>
</g>
</g>
<!-- Node26&#45;&gt;Node6 -->
<g id="edge43_Node000006_Node000026" class="edge">
<title>Node26&#45;&gt;Node6</title>
<g id="a_edge43_Node000006_Node000026"><a xlink:title=" ">
<path fill="none" stroke="#9a32cd" stroke-dasharray="5,2" d="M1509.86,-384.58C1514.11,-382.97 1518.3,-381.22 1522.25,-379.34 1571.16,-356.08 1622.58,-316.87 1645.54,-298.46"/>
<polygon fill="#9a32cd" stroke="#9a32cd" points="1508.94,-381.19 1500.66,-387.8 1511.26,-387.8 1508.94,-381.19"/>
</a>
</g>
<text text-anchor="middle" x="1573.62" y="-370.09" font-family="Helvetica,sans-Serif" font-size="10.00" fill="grey"> mFiles</text>
</g>
</g>
</svg>
