<?xml version="1.0" encoding="UTF-8" standalone="no"?>
<!DOCTYPE svg PUBLIC "-//W3C//DTD SVG 1.1//EN"
 "http://www.w3.org/Graphics/SVG/1.1/DTD/svg11.dtd">
<!-- Generated by graphviz version 9.0.0 (20230911.1827)
 -->
<!-- Title: Z2CreatureEnemy Pages: 1 -->
<svg width="1325pt" height="311pt"
 viewBox="0.00 0.00 1325.00 310.51" xmlns="http://www.w3.org/2000/svg" xmlns:xlink="http://www.w3.org/1999/xlink">
<g id="graph0" class="graph" transform="scale(1 1) rotate(0) translate(4 306.51)">
<title>Z2CreatureEnemy</title>
<!-- Node1 -->
<g id="Node000001" class="node">
<title>Node1</title>
<g id="a_Node000001"><a xlink:title=" ">
<polygon fill="#999999" stroke="#666666" points="1317,-135.51 1223.75,-135.51 1223.75,-116.26 1317,-116.26 1317,-135.51"/>
<text text-anchor="middle" x="1270.38" y="-122.01" font-family="Helvetica,sans-Serif" font-size="10.00">Z2CreatureEnemy</text>
</a>
</g>
</g>
<!-- Node2 -->
<g id="Node000002" class="node">
<title>Node2</title>
<g id="a_Node000002"><a xlink:href="structZ2Creature.html" target="_top" xlink:title=" ">
<polygon fill="white" stroke="#666666" points="1186.75,-174.51 1122.75,-174.51 1122.75,-155.26 1186.75,-155.26 1186.75,-174.51"/>
<text text-anchor="middle" x="1154.75" y="-161.01" font-family="Helvetica,sans-Serif" font-size="10.00">Z2Creature</text>
</a>
</g>
</g>
<!-- Node2&#45;&gt;Node1 -->
<g id="edge1_Node000001_Node000002" class="edge">
<title>Node2&#45;&gt;Node1</title>
<g id="a_edge1_Node000001_Node000002"><a xlink:title=" ">
<path fill="none" stroke="#63b8ff" d="M1195.81,-151.13C1210.45,-146.11 1226.71,-140.53 1240.21,-135.89"/>
<polygon fill="#63b8ff" stroke="#63b8ff" points="1194.76,-147.79 1186.44,-154.35 1197.04,-154.41 1194.76,-147.79"/>
</a>
</g>
</g>
<!-- Node3 -->
<g id="Node000003" class="node">
<title>Node3</title>
<g id="a_Node000003"><a xlink:href="structVec.html" target="_top" xlink:title=" ">
<polygon fill="white" stroke="#666666" points="230,-216.51 196.75,-216.51 196.75,-197.26 230,-197.26 230,-216.51"/>
<text text-anchor="middle" x="213.38" y="-203.01" font-family="Helvetica,sans-Serif" font-size="10.00">Vec</text>
</a>
</g>
</g>
<!-- Node3&#45;&gt;Node2 -->
<g id="edge2_Node000002_Node000003" class="edge">
<title>Node3&#45;&gt;Node2</title>
<g id="a_edge2_Node000002_Node000003"><a xlink:title=" ">
<path fill="none" stroke="#9a32cd" stroke-dasharray="5,2" d="M241.79,-209.06C284.6,-212.26 369.96,-217.88 442.5,-217.88 442.5,-217.88 442.5,-217.88 949.25,-217.88 1019.55,-217.88 1038.01,-210.99 1104.75,-188.88 1115.54,-185.31 1126.98,-179.81 1136.09,-174.98"/>
<polygon fill="#9a32cd" stroke="#9a32cd" points="242.15,-205.58 231.91,-208.3 241.62,-212.56 242.15,-205.58"/>
</a>
</g>
<text text-anchor="middle" x="749.62" y="-219.63" font-family="Helvetica,sans-Serif" font-size="10.00" fill="grey"> mpPos</text>
</g>
<!-- Node14 -->
<g id="Node000014" class="node">
<title>Node14</title>
<g id="a_Node000014"><a xlink:href="structJGeometry_1_1TVec3_3_01f32_01_4.html" target="_top" xlink:title=" ">
<polygon fill="white" stroke="#666666" points="506.62,-189.51 380.38,-189.51 380.38,-170.26 506.62,-170.26 506.62,-189.51"/>
<text text-anchor="middle" x="443.5" y="-176.01" font-family="Helvetica,sans-Serif" font-size="10.00">JGeometry::TVec3&lt; f32 &gt;</text>
</a>
</g>
</g>
<!-- Node3&#45;&gt;Node14 -->
<g id="edge18_Node000014_Node000003" class="edge">
<title>Node3&#45;&gt;Node14</title>
<g id="a_edge18_Node000014_Node000003"><a xlink:title=" ">
<path fill="none" stroke="#63b8ff" d="M241.72,-203.65C275.69,-199.63 334.66,-192.65 379.94,-187.29"/>
<polygon fill="#63b8ff" stroke="#63b8ff" points="241.44,-200.15 231.92,-204.81 242.26,-207.11 241.44,-200.15"/>
</a>
</g>
</g>
<!-- Node4 -->
<g id="Node000004" class="node">
<title>Node4</title>
<g id="a_Node000004"><a xlink:href="classZ2SoundObjAnime.html" target="_top" xlink:title=" ">
<polygon fill="white" stroke="#666666" points="997.12,-189.51 899.38,-189.51 899.38,-170.26 997.12,-170.26 997.12,-189.51"/>
<text text-anchor="middle" x="948.25" y="-176.01" font-family="Helvetica,sans-Serif" font-size="10.00">Z2SoundObjAnime</text>
</a>
</g>
</g>
<!-- Node4&#45;&gt;Node2 -->
<g id="edge3_Node000002_Node000004" class="edge">
<title>Node4&#45;&gt;Node2</title>
<g id="a_edge3_Node000002_Node000004"><a xlink:title=" ">
<path fill="none" stroke="#9a32cd" stroke-dasharray="5,2" d="M1008.67,-175.52C1045.84,-172.8 1092.23,-169.39 1122.4,-167.18"/>
<polygon fill="#9a32cd" stroke="#9a32cd" points="1008.68,-172.01 998.96,-176.24 1009.19,-178.99 1008.68,-172.01"/>
</a>
</g>
<text text-anchor="middle" x="1060.5" y="-175.63" font-family="Helvetica,sans-Serif" font-size="10.00" fill="grey"> mSoundObjAnime</text>
</g>
<!-- Node5 -->
<g id="Node000005" class="node">
<title>Node5</title>
<g id="a_Node000005"><a xlink:href="classZ2SoundObjBase.html" target="_top" xlink:title=" ">
<polygon fill="white" stroke="#666666" points="795.88,-152.51 703.38,-152.51 703.38,-133.26 795.88,-133.26 795.88,-152.51"/>
<text text-anchor="middle" x="749.62" y="-139.01" font-family="Helvetica,sans-Serif" font-size="10.00">Z2SoundObjBase</text>
</a>
</g>
</g>
<!-- Node5&#45;&gt;Node4 -->
<g id="edge4_Node000004_Node000005" class="edge">
<title>Node5&#45;&gt;Node4</title>
<g id="a_edge4_Node000004_Node000005"><a xlink:title=" ">
<path fill="none" stroke="#63b8ff" d="M807.03,-154.19C811.75,-155.11 816.46,-156.02 821,-156.88 846.72,-161.78 875.42,-167.03 898.96,-171.27"/>
<polygon fill="#63b8ff" stroke="#63b8ff" points="808,-150.81 797.52,-152.32 806.66,-157.68 808,-150.81"/>
</a>
</g>
</g>
<!-- Node19 -->
<g id="Node000019" class="node">
<title>Node19</title>
<g id="a_Node000019"><a xlink:href="classZ2SoundObjSimple.html" target="_top" xlink:title=" ">
<polygon fill="white" stroke="#666666" points="998.25,-152.51 898.25,-152.51 898.25,-133.26 998.25,-133.26 998.25,-152.51"/>
<text text-anchor="middle" x="948.25" y="-139.01" font-family="Helvetica,sans-Serif" font-size="10.00">Z2SoundObjSimple</text>
</a>
</g>
</g>
<!-- Node5&#45;&gt;Node19 -->
<g id="edge24_Node000019_Node000005" class="edge">
<title>Node5&#45;&gt;Node19</title>
<g id="a_edge24_Node000019_Node000005"><a xlink:title=" ">
<path fill="none" stroke="#63b8ff" d="M807.66,-142.88C836.18,-142.88 870.36,-142.88 897.76,-142.88"/>
<polygon fill="#63b8ff" stroke="#63b8ff" points="807.74,-139.38 797.74,-142.88 807.74,-146.38 807.74,-139.38"/>
</a>
</g>
</g>
<!-- Node6 -->
<g id="Node000006" class="node">
<title>Node6</title>
<g id="a_Node000006"><a xlink:href="classZ2SoundHandles.html" target="_top" xlink:title=" ">
<polygon fill="white" stroke="#666666" points="489,-152.51 398,-152.51 398,-133.26 489,-133.26 489,-152.51"/>
<text text-anchor="middle" x="443.5" y="-139.01" font-family="Helvetica,sans-Serif" font-size="10.00">Z2SoundHandles</text>
</a>
</g>
</g>
<!-- Node6&#45;&gt;Node5 -->
<g id="edge5_Node000005_Node000006" class="edge">
<title>Node6&#45;&gt;Node5</title>
<g id="a_edge5_Node000005_Node000006"><a xlink:title=" ">
<path fill="none" stroke="#63b8ff" d="M500.59,-142.88C558.89,-142.88 649.01,-142.88 703.07,-142.88"/>
<polygon fill="#63b8ff" stroke="#63b8ff" points="500.89,-139.38 490.89,-142.88 500.89,-146.38 500.89,-139.38"/>
</a>
</g>
</g>
<!-- Node7 -->
<g id="Node000007" class="node">
<title>Node7</title>
<g id="a_Node000007"><a xlink:href="classJSUList.html" target="_top" xlink:title=" ">
<polygon fill="white" stroke="#666666" points="292.25,-174.51 134.5,-174.51 134.5,-155.26 292.25,-155.26 292.25,-174.51"/>
<text text-anchor="middle" x="213.38" y="-161.01" font-family="Helvetica,sans-Serif" font-size="10.00">JSUList&lt; Z2SoundHandlePool &gt;</text>
</a>
</g>
</g>
<!-- Node7&#45;&gt;Node6 -->
<g id="edge6_Node000006_Node000007" class="edge">
<title>Node7&#45;&gt;Node6</title>
<g id="a_edge6_Node000006_Node000007"><a xlink:title=" ">
<path fill="none" stroke="darkgreen" d="M303.81,-156.26C336,-153.15 370.92,-149.79 397.68,-147.21"/>
<polygon fill="darkgreen" stroke="darkgreen" points="303.69,-152.75 294.07,-157.2 304.36,-159.72 303.69,-152.75"/>
</a>
</g>
</g>
<!-- Node8 -->
<g id="Node000008" class="node">
<title>Node8</title>
<g id="a_Node000008"><a xlink:href="classJSUPtrList.html" target="_top" xlink:title=" ">
<polygon fill="white" stroke="#666666" points="64.75,-130.51 0,-130.51 0,-111.26 64.75,-111.26 64.75,-130.51"/>
<text text-anchor="middle" x="32.38" y="-117.01" font-family="Helvetica,sans-Serif" font-size="10.00">JSUPtrList</text>
</a>
</g>
</g>
<!-- Node8&#45;&gt;Node7 -->
<g id="edge7_Node000007_Node000008" class="edge">
<title>Node8&#45;&gt;Node7</title>
<g id="a_edge7_Node000007_Node000008"><a xlink:title=" ">
<path fill="none" stroke="#63b8ff" d="M73.7,-134.31C76.75,-135.22 79.79,-136.09 82.75,-136.88 107.87,-143.65 136.07,-149.9 159.74,-154.77"/>
<polygon fill="#63b8ff" stroke="#63b8ff" points="74.77,-130.98 64.18,-131.38 72.7,-137.67 74.77,-130.98"/>
</a>
</g>
</g>
<!-- Node9 -->
<g id="Node000009" class="node">
<title>Node9</title>
<g id="a_Node000009"><a xlink:href="classJSUPtrLink.html" target="_top" xlink:title=" ">
<polygon fill="white" stroke="#666666" points="246.88,-96.51 179.88,-96.51 179.88,-77.26 246.88,-77.26 246.88,-96.51"/>
<text text-anchor="middle" x="213.38" y="-83.01" font-family="Helvetica,sans-Serif" font-size="10.00">JSUPtrLink</text>
</a>
</g>
</g>
<!-- Node8&#45;&gt;Node9 -->
<g id="edge9_Node000009_Node000008" class="edge">
<title>Node8&#45;&gt;Node9</title>
<g id="a_edge9_Node000009_Node000008"><a xlink:title=" ">
<path fill="none" stroke="#9a32cd" stroke-dasharray="5,2" d="M54.72,-104.45C63.02,-98.99 72.89,-93.57 82.75,-90.63 114.58,-81.16 152.76,-81.36 179.41,-83.23"/>
<polygon fill="#9a32cd" stroke="#9a32cd" points="52.89,-101.46 46.73,-110.08 56.92,-107.18 52.89,-101.46"/>
</a>
</g>
<text text-anchor="middle" x="99.62" y="-91.63" font-family="Helvetica,sans-Serif" font-size="10.00" fill="grey"> mList</text>
</g>
<!-- Node9&#45;&gt;Node8 -->
<g id="edge8_Node000008_Node000009" class="edge">
<title>Node9&#45;&gt;Node8</title>
<g id="a_edge8_Node000008_Node000009"><a xlink:title=" ">
<path fill="none" stroke="#9a32cd" stroke-dasharray="5,2" d="M168.31,-95.25C136.27,-101.34 93.66,-109.43 64.96,-114.88"/>
<polygon fill="#9a32cd" stroke="#9a32cd" points="168.93,-98.7 178.1,-93.39 167.62,-91.82 168.93,-98.7"/>
</a>
</g>
<text text-anchor="middle" x="99.62" y="-122.88" font-family="Helvetica,sans-Serif" font-size="10.00" fill="grey"> mHead</text>
<text text-anchor="middle" x="99.62" y="-111.63" font-family="Helvetica,sans-Serif" font-size="10.00" fill="grey">mTail</text>
</g>
<!-- Node9&#45;&gt;Node9 -->
<g id="edge10_Node000009_Node000009" class="edge">
<title>Node9&#45;&gt;Node9</title>
<g id="a_edge10_Node000009_Node000009"><a xlink:title=" ">
<path fill="none" stroke="#9a32cd" stroke-dasharray="5,2" d="M193.18,-107.91C195.71,-111.78 202.44,-114.51 213.38,-114.51 233.37,-114.51 239.31,-105.4 231.18,-96.8"/>
<polygon fill="#9a32cd" stroke="#9a32cd" points="196.58,-108.79 195.25,-98.28 189.73,-107.32 196.58,-108.79"/>
</a>
</g>
<text text-anchor="middle" x="213.38" y="-127.51" font-family="Helvetica,sans-Serif" font-size="10.00" fill="grey"> mNext</text>
<text text-anchor="middle" x="213.38" y="-116.26" font-family="Helvetica,sans-Serif" font-size="10.00" fill="grey">mPrev</text>
</g>
<!-- Node20 -->
<g id="Node000020" class="node">
<title>Node20</title>
<g id="a_Node000020"><a xlink:href="classJSULink.html" target="_top" xlink:title=" ">
<polygon fill="white" stroke="#666666" points="678.25,-114.51 530.25,-114.51 530.25,-95.26 678.25,-95.26 678.25,-114.51"/>
<text text-anchor="middle" x="604.25" y="-101.01" font-family="Helvetica,sans-Serif" font-size="10.00">JSULink&lt; Z2CreatureEnemy &gt;</text>
</a>
</g>
</g>
<!-- Node9&#45;&gt;Node20 -->
<g id="edge26_Node000020_Node000009" class="edge">
<title>Node9&#45;&gt;Node20</title>
<g id="a_edge26_Node000020_Node000009"><a xlink:title=" ">
<path fill="none" stroke="#63b8ff" d="M258.43,-88.92C324.51,-91.98 450.04,-97.79 530.03,-101.49"/>
<polygon fill="#63b8ff" stroke="#63b8ff" points="258.86,-85.44 248.71,-88.47 258.53,-92.43 258.86,-85.44"/>
</a>
</g>
</g>
<!-- Node10 -->
<g id="Node000010" class="node">
<title>Node10</title>
<g id="a_Node000010"><a xlink:href="structZ2SoundStarter.html" target="_top" xlink:title=" ">
<polygon fill="white" stroke="#666666" points="485.62,-28.51 401.38,-28.51 401.38,-9.26 485.62,-9.26 485.62,-28.51"/>
<text text-anchor="middle" x="443.5" y="-15.01" font-family="Helvetica,sans-Serif" font-size="10.00">Z2SoundStarter</text>
</a>
</g>
</g>
<!-- Node10&#45;&gt;Node5 -->
<g id="edge11_Node000005_Node000010" class="edge">
<title>Node10&#45;&gt;Node5</title>
<g id="a_edge11_Node000005_Node000010"><a xlink:title=" ">
<path fill="none" stroke="#9a32cd" stroke-dasharray="5,2" d="M496.82,-28.01C555.78,-38.89 647.42,-57.7 678.25,-74.63 705.4,-89.54 729.52,-117.75 741.19,-132.81"/>
<polygon fill="#9a32cd" stroke="#9a32cd" points="497.81,-24.64 487.34,-26.29 496.55,-31.52 497.81,-24.64"/>
</a>
</g>
<text text-anchor="middle" x="604.25" y="-75.63" font-family="Helvetica,sans-Serif" font-size="10.00" fill="grey"> mSoundStarter</text>
</g>
<!-- Node13 -->
<g id="Node000013" class="node">
<title>Node13</title>
<g id="a_Node000013"><a xlink:href="classJASGlobalInstance.html" target="_top" xlink:title=" ">
<polygon fill="white" stroke="#666666" points="802.62,-34.13 696.62,-34.13 696.62,-3.63 802.62,-3.63 802.62,-34.13"/>
<text text-anchor="start" x="704.62" y="-20.63" font-family="Helvetica,sans-Serif" font-size="10.00">JASGlobalInstance&lt;</text>
<text text-anchor="middle" x="749.62" y="-9.38" font-family="Helvetica,sans-Serif" font-size="10.00"> Z2SoundStarter &gt;</text>
</a>
</g>
</g>
<!-- Node10&#45;&gt;Node13 -->
<g id="edge16_Node000013_Node000010" class="edge">
<title>Node10&#45;&gt;Node13</title>
<g id="a_edge16_Node000013_Node000010"><a xlink:title=" ">
<path fill="none" stroke="#9a32cd" stroke-dasharray="5,2" d="M496.94,-8.76C507.9,-7.04 519.42,-5.53 530.25,-4.63 595.8,0.78 612.8,1.93 678.25,-4.63 684.08,-5.22 690.14,-6.07 696.15,-7.07"/>
<polygon fill="#9a32cd" stroke="#9a32cd" points="496.55,-5.28 487.26,-10.37 497.69,-12.19 496.55,-5.28"/>
</a>
</g>
<text text-anchor="middle" x="604.25" y="-6.63" font-family="Helvetica,sans-Serif" font-size="10.00" fill="grey"> sInstance</text>
</g>
<!-- Node11 -->
<g id="Node000011" class="node">
<title>Node11</title>
<g id="a_Node000011"><a xlink:href="structJAISoundStarter.html" target="_top" xlink:title=" ">
<polygon fill="white" stroke="#666666" points="257.38,-53.51 169.38,-53.51 169.38,-34.26 257.38,-34.26 257.38,-53.51"/>
<text text-anchor="middle" x="213.38" y="-40.01" font-family="Helvetica,sans-Serif" font-size="10.00">JAISoundStarter</text>
</a>
</g>
</g>
<!-- Node11&#45;&gt;Node10 -->
<g id="edge12_Node000010_Node000011" class="edge">
<title>Node11&#45;&gt;Node10</title>
<g id="a_edge12_Node000010_Node000011"><a xlink:title=" ">
<path fill="none" stroke="#63b8ff" d="M269.14,-37.88C309.71,-33.43 364.16,-27.47 401.14,-23.42"/>
<polygon fill="#63b8ff" stroke="#63b8ff" points="268.88,-34.39 259.33,-38.96 269.65,-41.35 268.88,-34.39"/>
</a>
</g>
</g>
<!-- Node12 -->
<g id="Node000012" class="node">
<title>Node12</title>
<g id="a_Node000012"><a xlink:href="classJASGlobalInstance.html" target="_top" xlink:title=" ">
<polygon fill="white" stroke="#666666" points="496.5,-77.13 390.5,-77.13 390.5,-46.63 496.5,-46.63 496.5,-77.13"/>
<text text-anchor="start" x="398.5" y="-63.63" font-family="Helvetica,sans-Serif" font-size="10.00">JASGlobalInstance&lt;</text>
<text text-anchor="middle" x="443.5" y="-52.38" font-family="Helvetica,sans-Serif" font-size="10.00"> JAISoundStarter &gt;</text>
</a>
</g>
</g>
<!-- Node11&#45;&gt;Node12 -->
<g id="edge14_Node000012_Node000011" class="edge">
<title>Node11&#45;&gt;Node12</title>
<g id="a_edge14_Node000012_Node000011"><a xlink:title=" ">
<path fill="none" stroke="#9a32cd" stroke-dasharray="5,2" d="M268.84,-50.72C282.35,-52.25 296.82,-53.76 310.25,-54.88 336.6,-57.09 365.96,-58.73 390.32,-59.86"/>
<polygon fill="#9a32cd" stroke="#9a32cd" points="269.59,-47.28 259.25,-49.6 268.78,-54.24 269.59,-47.28"/>
</a>
</g>
<text text-anchor="middle" x="333.5" y="-60.63" font-family="Helvetica,sans-Serif" font-size="10.00" fill="grey"> sInstance</text>
</g>
<!-- Node12&#45;&gt;Node11 -->
<g id="edge13_Node000011_Node000012" class="edge">
<title>Node12&#45;&gt;Node11</title>
<g id="a_edge13_Node000011_Node000012"><a xlink:title=" ">
<path fill="none" stroke="#63b8ff" d="M378.88,-56.86C340.29,-53.82 292.06,-50.01 257.82,-47.31"/>
<polygon fill="#63b8ff" stroke="#63b8ff" points="378.25,-60.32 388.5,-57.62 378.8,-53.35 378.25,-60.32"/>
</a>
</g>
</g>
<!-- Node13&#45;&gt;Node10 -->
<g id="edge15_Node000010_Node000013" class="edge">
<title>Node13&#45;&gt;Node10</title>
<g id="a_edge15_Node000010_Node000013"><a xlink:title=" ">
<path fill="none" stroke="#63b8ff" d="M684.94,-18.88C625.04,-18.88 537.1,-18.88 485.83,-18.88"/>
<polygon fill="#63b8ff" stroke="#63b8ff" points="684.65,-22.38 694.65,-18.88 684.65,-15.38 684.65,-22.38"/>
</a>
</g>
</g>
<!-- Node14&#45;&gt;Node5 -->
<g id="edge17_Node000005_Node000014" class="edge">
<title>Node14&#45;&gt;Node5</title>
<g id="a_edge17_Node000005_Node000014"><a xlink:title=" ">
<path fill="none" stroke="#9a32cd" stroke-dasharray="5,2" d="M518.08,-173.85C564.2,-169.7 624.83,-163.55 678.25,-155.88 686.24,-154.74 694.72,-153.33 702.91,-151.88"/>
<polygon fill="#9a32cd" stroke="#9a32cd" points="517.84,-170.36 508.18,-174.73 518.46,-177.33 517.84,-170.36"/>
</a>
</g>
<text text-anchor="middle" x="604.25" y="-173.63" font-family="Helvetica,sans-Serif" font-size="10.00" fill="grey"> mSoundPos</text>
</g>
<!-- Node15 -->
<g id="Node000015" class="node">
<title>Node15</title>
<g id="a_Node000015"><a xlink:href="classJAUSoundAnimation.html" target="_top" xlink:title=" ">
<polygon fill="white" stroke="#666666" points="803,-266.51 696.25,-266.51 696.25,-247.26 803,-247.26 803,-266.51"/>
<text text-anchor="middle" x="749.62" y="-253.01" font-family="Helvetica,sans-Serif" font-size="10.00">JAUSoundAnimation</text>
</a>
</g>
</g>
<!-- Node15&#45;&gt;Node4 -->
<g id="edge19_Node000004_Node000015" class="edge">
<title>Node15&#45;&gt;Node4</title>
<g id="a_edge19_Node000004_Node000015"><a xlink:title=" ">
<path fill="none" stroke="#9a32cd" stroke-dasharray="5,2" d="M786.97,-242.65C826.04,-227.35 887.16,-203.41 921.54,-189.95"/>
<polygon fill="#9a32cd" stroke="#9a32cd" points="785.77,-239.36 777.74,-246.26 788.33,-245.88 785.77,-239.36"/>
</a>
</g>
<text text-anchor="middle" x="850.62" y="-228.63" font-family="Helvetica,sans-Serif" font-size="10.00" fill="grey"> mpAnimation</text>
</g>
<!-- Node16 -->
<g id="Node000016" class="node">
<title>Node16</title>
<g id="a_Node000016"><a xlink:href="classJAUSoundAnimationControl.html" target="_top" xlink:title=" ">
<polygon fill="white" stroke="#666666" points="512.25,-302.51 374.75,-302.51 374.75,-283.26 512.25,-283.26 512.25,-302.51"/>
<text text-anchor="middle" x="443.5" y="-289.01" font-family="Helvetica,sans-Serif" font-size="10.00">JAUSoundAnimationControl</text>
</a>
</g>
</g>
<!-- Node16&#45;&gt;Node15 -->
<g id="edge20_Node000015_Node000016" class="edge">
<title>Node16&#45;&gt;Node15</title>
<g id="a_edge20_Node000015_Node000016"><a xlink:title=" ">
<path fill="none" stroke="#9a32cd" stroke-dasharray="5,2" d="M523.98,-287.43C569.32,-283.82 627.13,-278.35 678.25,-270.88 685.77,-269.78 693.7,-268.41 701.42,-266.96"/>
<polygon fill="#9a32cd" stroke="#9a32cd" points="523.94,-283.93 514.25,-288.2 524.49,-290.91 523.94,-283.93"/>
</a>
</g>
<text text-anchor="middle" x="604.25" y="-287.63" font-family="Helvetica,sans-Serif" font-size="10.00" fill="grey"> mControl</text>
</g>
<!-- Node17 -->
<g id="Node000017" class="node">
<title>Node17</title>
<g id="a_Node000017"><a xlink:href="classJAUSoundAnimationSound.html" target="_top" xlink:title=" ">
<polygon fill="white" stroke="#666666" points="510.75,-265.51 376.25,-265.51 376.25,-246.26 510.75,-246.26 510.75,-265.51"/>
<text text-anchor="middle" x="443.5" y="-252.01" font-family="Helvetica,sans-Serif" font-size="10.00">JAUSoundAnimationSound</text>
</a>
</g>
</g>
<!-- Node17&#45;&gt;Node15 -->
<g id="edge21_Node000015_Node000017" class="edge">
<title>Node17&#45;&gt;Node15</title>
<g id="a_edge21_Node000015_Node000017"><a xlink:title=" ">
<path fill="none" stroke="#9a32cd" stroke-dasharray="5,2" d="M522.6,-256.14C577.1,-256.32 648.35,-256.55 696.16,-256.71"/>
<polygon fill="#9a32cd" stroke="#9a32cd" points="522.77,-252.64 512.76,-256.11 522.74,-259.64 522.77,-252.64"/>
</a>
</g>
<text text-anchor="middle" x="604.25" y="-257.63" font-family="Helvetica,sans-Serif" font-size="10.00" fill="grey"> mSounds</text>
</g>
<!-- Node18 -->
<g id="Node000018" class="node">
<title>Node18</title>
<g id="a_Node000018"><a xlink:href="structJAISoundID.html" target="_top" xlink:title=" ">
<polygon fill="white" stroke="#666666" points="247.62,-265.51 179.12,-265.51 179.12,-246.26 247.62,-246.26 247.62,-265.51"/>
<text text-anchor="middle" x="213.38" y="-252.01" font-family="Helvetica,sans-Serif" font-size="10.00">JAISoundID</text>
</a>
</g>
</g>
<!-- Node18&#45;&gt;Node17 -->
<g id="edge22_Node000017_Node000018" class="edge">
<title>Node18&#45;&gt;Node17</title>
<g id="a_edge22_Node000017_Node000018"><a xlink:title=" ">
<path fill="none" stroke="#9a32cd" stroke-dasharray="5,2" d="M259.26,-255.88C292.58,-255.88 338.56,-255.88 376.13,-255.88"/>
<polygon fill="#9a32cd" stroke="#9a32cd" points="259.55,-252.38 249.55,-255.88 259.55,-259.38 259.55,-252.38"/>
</a>
</g>
<text text-anchor="middle" x="333.5" y="-257.63" font-family="Helvetica,sans-Serif" font-size="10.00" fill="grey"> mSoundId</text>
</g>
<!-- Node19&#45;&gt;Node2 -->
<g id="edge23_Node000002_Node000019" class="edge">
<title>Node19&#45;&gt;Node2</title>
<g id="a_edge23_Node000002_Node000019"><a xlink:title=" ">
<path fill="none" stroke="#9a32cd" stroke-dasharray="5,2" d="M1009.78,-135.84C1038.84,-134.09 1073.96,-134.38 1104.75,-141.38 1116.34,-144.02 1128.39,-149.75 1137.64,-154.9"/>
<polygon fill="#9a32cd" stroke="#9a32cd" points="1009.79,-132.33 1000.06,-136.53 1010.28,-139.31 1009.79,-132.33"/>
</a>
</g>
<text text-anchor="middle" x="1060.5" y="-153.88" font-family="Helvetica,sans-Serif" font-size="10.00" fill="grey"> mSoundObjSimple1</text>
<text text-anchor="middle" x="1060.5" y="-142.63" font-family="Helvetica,sans-Serif" font-size="10.00" fill="grey">mSoundObjSimple2</text>
</g>
<!-- Node20&#45;&gt;Node1 -->
<g id="edge25_Node000001_Node000020" class="edge">
<title>Node20&#45;&gt;Node1</title>
<g id="a_edge25_Node000001_Node000020"><a xlink:title=" ">
<path fill="none" stroke="#63b8ff" d="M689.87,-104.88C736.92,-104.88 796.52,-104.88 849.62,-104.88 849.62,-104.88 849.62,-104.88 1155.75,-104.88 1182.13,-104.88 1211.39,-110.42 1233.61,-115.81"/>
<polygon fill="#63b8ff" stroke="#63b8ff" points="690.01,-101.38 680.01,-104.88 690.01,-108.38 690.01,-101.38"/>
</a>
</g>
</g>
</g>
</svg>
