<?xml version="1.0" encoding="UTF-8" standalone="no"?>
<!DOCTYPE svg PUBLIC "-//W3C//DTD SVG 1.1//EN"
 "http://www.w3.org/Graphics/SVG/1.1/DTD/svg11.dtd">
<!-- Generated by graphviz version 9.0.0 (20230911.1827)
 -->
<!-- Title: dMenu_Fmap_stage_data_c Pages: 1 -->
<!--zoomable 240 -->

<svg id="main" version="1.1" xmlns="http://www.w3.org/2000/svg" xmlns:xlink="http://www.w3.org/1999/xlink" xml:space="preserve" onload="init(evt)">
<style type="text/css"><![CDATA[
.node, .edge {opacity: 0.7;}
.node.selected, .edge.selected {opacity: 1;}
.edge:hover path { stroke: red; }
.edge:hover polygon { stroke: red; fill: red; }
]]></style>

<defs>
  <circle id="rim" cx="0" cy="0" r="7"/>
  <circle id="rim2" cx="0" cy="0" r="3.5"/>
  <g id="zoomPlus">
    <use xlink:href="#rim" fill="#404040"><set attributeName="fill" to="#808080" begin="zoomplus.mouseover" end="zoomplus.mouseout"/></use>
    <path d="M-4,0h8M0,-4v8" fill="none" stroke="white" stroke-width="1.5" pointer-events="none"/>
  </g>
  <g id="zoomMin">
    <use xlink:href="#rim" fill="#404040"><set attributeName="fill" to="#808080" begin="zoomminus.mouseover" end="zoomminus.mouseout"/></use>
    <path d="M-4,0h8" fill="none" stroke="white" stroke-width="1.5" pointer-events="none"/>
  </g>
  <g id="arrowUp" transform="translate(30 24)">
    <use xlink:href="#rim"/>
    <path pointer-events="none" fill="none" stroke="white" stroke-width="1.5" d="M0,-3.0v7 M-2.5,-0.5L0,-3.0L2.5,-0.5"/>
  </g>
  <g id="arrowRight" transform="rotate(90) translate(36 -43)">
    <use xlink:href="#rim"/>
    <path pointer-events="none" fill="none" stroke="white" stroke-width="1.5" d="M0,-3.0v7 M-2.5,-0.5L0,-3.0L2.5,-0.5"/>
  </g>
  <g id="arrowDown" transform="rotate(180) translate(-30 -48)">
    <use xlink:href="#rim"/>
    <path pointer-events="none" fill="none" stroke="white" stroke-width="1.5" d="M0,-3.0v7 M-2.5,-0.5L0,-3.0L2.5,-0.5"/>
  </g>
  <g id="arrowLeft" transform="rotate(270) translate(-36 17)">
    <use xlink:href="#rim"/>
    <path pointer-events="none" fill="none" stroke="white" stroke-width="1.5" d="M0,-3.0v7 M-2.5,-0.5L0,-3.0L2.5,-0.5"/>
  </g>
  <g id="resetDef">
    <use xlink:href="#rim2" fill="#404040"><set attributeName="fill" to="#808080" begin="reset.mouseover" end="reset.mouseout"/></use>
  </g>
</defs>
<script type="application/ecmascript">
var viewWidth = 1399;
var viewHeight = 240;
var sectionId = 'dynsection-0';
</script>
<script type="application/ecmascript" xlink:href="svg.min.js"/>
<svg id="graph" class="graph">
<g id="viewport">
<title>dMenu_Fmap_stage_data_c</title>
<!-- Node1 -->
<g id="Node000001" class="node">
<title>Node1</title>
<g id="a_Node000001"><a xlink:title=" ">
<polygon fill="#999999" stroke="#666666" points="1065.5,-36.88 926.5,-36.88 926.5,-17.62 1065.5,-17.62 1065.5,-36.88"/>
<text text-anchor="middle" x="996" y="-23.38" font-family="Helvetica,sans-Serif" font-size="10.00">dMenu_Fmap_stage_data_c</text>
</a>
</g>
</g>
<!-- Node1&#45;&gt;Node1 -->
<g id="edge22_Node000001_Node000001" class="edge">
<title>Node1&#45;&gt;Node1</title>
<g id="a_edge22_Node000001_Node000001"><a xlink:title=" ">
<path fill="none" stroke="#9a32cd" stroke-dasharray="5,2" d="M973.08,-48.28C975.95,-52.15 983.59,-54.88 996,-54.88 1018.7,-54.88 1025.44,-45.77 1016.22,-37.16"/>
<polygon fill="#9a32cd" stroke="#9a32cd" points="976.46,-49.18 975.43,-38.63 969.66,-47.52 976.46,-49.18"/>
</a>
</g>
<text text-anchor="middle" x="996" y="-56.62" font-family="Helvetica,sans-Serif" font-size="10.00" fill="grey"> mpNextData</text>
</g>
<!-- Node3 -->
<g id="Node000003" class="node">
<title>Node3</title>
<g id="a_Node000003"><a xlink:href="classdMenu__Fmap__room__data__c.html" target="_top" xlink:title=" ">
<polygon fill="white" stroke="#666666" points="1390.5,-87.88 1253.75,-87.88 1253.75,-68.62 1390.5,-68.62 1390.5,-87.88"/>
<text text-anchor="middle" x="1322.12" y="-74.38" font-family="Helvetica,sans-Serif" font-size="10.00">dMenu_Fmap_room_data_c</text>
</a>
</g>
</g>
<!-- Node1&#45;&gt;Node3 -->
<g id="edge21_Node000003_Node000001" class="edge">
<title>Node1&#45;&gt;Node3</title>
<g id="a_edge21_Node000003_Node000001"><a xlink:title=" ">
<path fill="none" stroke="#9a32cd" stroke-dasharray="5,2" d="M1072.31,-39.1C1128.28,-47.91 1203.83,-59.79 1256.94,-68.15"/>
<polygon fill="#9a32cd" stroke="#9a32cd" points="1072.95,-35.66 1062.53,-37.56 1071.87,-42.57 1072.95,-35.66"/>
</a>
</g>
<text text-anchor="middle" x="1159.62" y="-66" font-family="Helvetica,sans-Serif" font-size="10.00" fill="grey"> mp_parentStage</text>
</g>
<!-- Node2 -->
<g id="Node000002" class="node">
<title>Node2</title>
<g id="a_Node000002"><a xlink:href="classdMenu__Fmap__stage__arc__data__c.html" target="_top" xlink:title=" ">
<polygon fill="white" stroke="#666666" points="795.62,-30.5 672.38,-30.5 672.38,0 795.62,0 795.62,-30.5"/>
<text text-anchor="start" x="680.38" y="-17" font-family="Helvetica,sans-Serif" font-size="10.00">dMenu_Fmap_stage_arc</text>
<text text-anchor="middle" x="734" y="-5.75" font-family="Helvetica,sans-Serif" font-size="10.00">_data_c</text>
</a>
</g>
</g>
<!-- Node2&#45;&gt;Node1 -->
<g id="edge1_Node000001_Node000002" class="edge">
<title>Node2&#45;&gt;Node1</title>
<g id="a_edge1_Node000001_Node000002"><a xlink:title=" ">
<path fill="none" stroke="#9a32cd" stroke-dasharray="5,2" d="M807.22,-18.58C844.4,-20.3 889.49,-22.38 926.17,-24.07"/>
<polygon fill="#9a32cd" stroke="#9a32cd" points="807.62,-15.1 797.47,-18.13 807.3,-22.09 807.62,-15.1"/>
</a>
</g>
<text text-anchor="middle" x="866.88" y="-25" font-family="Helvetica,sans-Serif" font-size="10.00" fill="grey"> mpStageArc</text>
</g>
<!-- Node3&#45;&gt;Node1 -->
<g id="edge2_Node000001_Node000003" class="edge">
<title>Node3&#45;&gt;Node1</title>
<g id="a_edge2_Node000001_Node000003"><a xlink:title=" ">
<path fill="none" stroke="#9a32cd" stroke-dasharray="5,2" d="M1300.33,-61.72C1283.87,-49.76 1259.74,-34.58 1235.75,-28 1180.08,-12.74 1114.34,-13.86 1065.94,-18.05"/>
<polygon fill="#9a32cd" stroke="#9a32cd" points="1297.77,-64.18 1307.86,-67.4 1301.98,-58.59 1297.77,-64.18"/>
</a>
</g>
<text text-anchor="middle" x="1159.62" y="-30" font-family="Helvetica,sans-Serif" font-size="10.00" fill="grey"> mp_roomTop</text>
</g>
<!-- Node3&#45;&gt;Node3 -->
<g id="edge20_Node000003_Node000003" class="edge">
<title>Node3&#45;&gt;Node3</title>
<g id="a_edge20_Node000003_Node000003"><a xlink:title=" ">
<path fill="none" stroke="#9a32cd" stroke-dasharray="5,2" d="M1292.99,-98.94C1296.34,-102.99 1306.06,-105.88 1322.12,-105.88 1350.69,-105.88 1359.17,-96.77 1347.57,-88.16"/>
<polygon fill="#9a32cd" stroke="#9a32cd" points="1296.26,-100.19 1296.19,-89.59 1289.64,-97.92 1296.26,-100.19"/>
</a>
</g>
<text text-anchor="middle" x="1322.12" y="-107.62" font-family="Helvetica,sans-Serif" font-size="10.00" fill="grey"> mp_nextData</text>
</g>
<!-- Node4 -->
<g id="Node000004" class="node">
<title>Node4</title>
<g id="a_Node000004"><a xlink:href="classdMenu__Fmap__data__c.html" target="_top" xlink:title=" ">
<polygon fill="white" stroke="#666666" points="1050.88,-104.88 941.12,-104.88 941.12,-85.62 1050.88,-85.62 1050.88,-104.88"/>
<text text-anchor="middle" x="996" y="-91.38" font-family="Helvetica,sans-Serif" font-size="10.00">dMenu_Fmap_data_c</text>
</a>
</g>
</g>
<!-- Node4&#45;&gt;Node3 -->
<g id="edge3_Node000003_Node000004" class="edge">
<title>Node4&#45;&gt;Node3</title>
<g id="a_edge3_Node000003_Node000004"><a xlink:title=" ">
<path fill="none" stroke="#9a32cd" stroke-dasharray="5,2" d="M1062.72,-91.8C1118.23,-88.89 1197.41,-84.74 1253.46,-81.8"/>
<polygon fill="#9a32cd" stroke="#9a32cd" points="1062.57,-88.31 1052.76,-92.33 1062.93,-95.3 1062.57,-88.31"/>
</a>
</g>
<text text-anchor="middle" x="1159.62" y="-92" font-family="Helvetica,sans-Serif" font-size="10.00" fill="grey"> mp_fmapData</text>
</g>
<!-- Node5 -->
<g id="Node000005" class="node">
<title>Node5</title>
<g id="a_Node000005"><a xlink:href="structdTres__c_1_1list__class.html" target="_top" xlink:title=" ">
<polygon fill="white" stroke="#666666" points="782.5,-141.88 685.5,-141.88 685.5,-122.62 782.5,-122.62 782.5,-141.88"/>
<text text-anchor="middle" x="734" y="-128.38" font-family="Helvetica,sans-Serif" font-size="10.00">dTres_c::list_class</text>
</a>
</g>
</g>
<!-- Node5&#45;&gt;Node4 -->
<g id="edge4_Node000004_Node000005" class="edge">
<title>Node5&#45;&gt;Node4</title>
<g id="a_edge4_Node000004_Node000005"><a xlink:title=" ">
<path fill="none" stroke="#9a32cd" stroke-dasharray="5,2" d="M793.9,-124.28C827.5,-119.69 870.37,-113.75 908.5,-108.25 919.02,-106.73 930.26,-105.07 941.03,-103.46"/>
<polygon fill="#9a32cd" stroke="#9a32cd" points="793.82,-120.75 784.39,-125.57 794.77,-127.69 793.82,-120.75"/>
</a>
</g>
<text text-anchor="middle" x="866.88" y="-121" font-family="Helvetica,sans-Serif" font-size="10.00" fill="grey"> mp_tresure</text>
</g>
<!-- Node6 -->
<g id="Node000006" class="node">
<title>Node6</title>
<g id="a_Node000006"><a xlink:href="structdTres__c_1_1typeGroupData__c.html" target="_top" xlink:title=" ">
<polygon fill="white" stroke="#666666" points="520.5,-135.88 389.75,-135.88 389.75,-116.62 520.5,-116.62 520.5,-135.88"/>
<text text-anchor="middle" x="455.12" y="-122.38" font-family="Helvetica,sans-Serif" font-size="10.00">dTres_c::typeGroupData_c</text>
</a>
</g>
</g>
<!-- Node6&#45;&gt;Node5 -->
<g id="edge5_Node000005_Node000006" class="edge">
<title>Node6&#45;&gt;Node5</title>
<g id="a_edge5_Node000005_Node000006"><a xlink:title=" ">
<path fill="none" stroke="#9a32cd" stroke-dasharray="5,2" d="M532.19,-127.9C581.1,-128.96 643.16,-130.3 685.25,-131.22"/>
<polygon fill="#9a32cd" stroke="#9a32cd" points="532.28,-124.4 522.2,-127.68 532.13,-131.4 532.28,-124.4"/>
</a>
</g>
<text text-anchor="middle" x="590.62" y="-131" font-family="Helvetica,sans-Serif" font-size="10.00" fill="grey"> field_0x4</text>
</g>
<!-- Node6&#45;&gt;Node6 -->
<g id="edge8_Node000006_Node000006" class="edge">
<title>Node6&#45;&gt;Node6</title>
<g id="a_edge8_Node000006_Node000006"><a xlink:title=" ">
<path fill="none" stroke="#9a32cd" stroke-dasharray="5,2" d="M435.4,-147.28C437.87,-151.15 444.44,-153.88 455.12,-153.88 474.66,-153.88 480.46,-144.77 472.52,-136.16"/>
<polygon fill="#9a32cd" stroke="#9a32cd" points="438.79,-148.15 437.42,-137.64 431.94,-146.71 438.79,-148.15"/>
</a>
</g>
<text text-anchor="middle" x="455.12" y="-155.62" font-family="Helvetica,sans-Serif" font-size="10.00" fill="grey"> mNextData</text>
</g>
<!-- Node7 -->
<g id="Node000007" class="node">
<title>Node7</title>
<g id="a_Node000007"><a xlink:href="structdTres__c_1_1data__s.html" target="_top" xlink:title=" ">
<polygon fill="white" stroke="#666666" points="289.25,-151.88 204.25,-151.88 204.25,-132.62 289.25,-132.62 289.25,-151.88"/>
<text text-anchor="middle" x="246.75" y="-138.38" font-family="Helvetica,sans-Serif" font-size="10.00">dTres_c::data_s</text>
</a>
</g>
</g>
<!-- Node7&#45;&gt;Node6 -->
<g id="edge6_Node000006_Node000007" class="edge">
<title>Node7&#45;&gt;Node6</title>
<g id="a_edge6_Node000006_Node000007"><a xlink:title=" ">
<path fill="none" stroke="#63b8ff" d="M300.68,-138.15C327.67,-136.05 360.74,-133.49 389.26,-131.28"/>
<polygon fill="#63b8ff" stroke="#63b8ff" points="300.72,-134.63 291.02,-138.9 301.26,-141.61 300.72,-134.63"/>
</a>
</g>
</g>
<!-- Node17 -->
<g id="Node000017" class="node">
<title>Node17</title>
<g id="a_Node000017"><a xlink:href="classfmpTresTypeGroupData__c.html" target="_top" xlink:title=" ">
<polygon fill="white" stroke="#666666" points="520.12,-202.88 390.12,-202.88 390.12,-183.62 520.12,-183.62 520.12,-202.88"/>
<text text-anchor="middle" x="455.12" y="-189.38" font-family="Helvetica,sans-Serif" font-size="10.00">fmpTresTypeGroupData_c</text>
</a>
</g>
</g>
<!-- Node7&#45;&gt;Node17 -->
<g id="edge18_Node000017_Node000007" class="edge">
<title>Node7&#45;&gt;Node17</title>
<g id="a_edge18_Node000017_Node000007"><a xlink:title=" ">
<path fill="none" stroke="#9a32cd" stroke-dasharray="5,2" d="M299.56,-155.05C334.82,-163.77 380.81,-175.13 413.44,-183.19"/>
<polygon fill="#9a32cd" stroke="#9a32cd" points="300.54,-151.69 289.99,-152.69 298.86,-158.49 300.54,-151.69"/>
</a>
</g>
<text text-anchor="middle" x="344" y="-174" font-family="Helvetica,sans-Serif" font-size="10.00" fill="grey"> mpTresData</text>
</g>
<!-- Node8 -->
<g id="Node000008" class="node">
<title>Node8</title>
<g id="a_Node000008"><a xlink:href="structVec.html" target="_top" xlink:title=" ">
<polygon fill="white" stroke="#666666" points="79,-151.88 45.75,-151.88 45.75,-132.62 79,-132.62 79,-151.88"/>
<text text-anchor="middle" x="62.38" y="-138.38" font-family="Helvetica,sans-Serif" font-size="10.00">Vec</text>
</a>
</g>
</g>
<!-- Node8&#45;&gt;Node7 -->
<g id="edge7_Node000007_Node000008" class="edge">
<title>Node8&#45;&gt;Node7</title>
<g id="a_edge7_Node000007_Node000008"><a xlink:title=" ">
<path fill="none" stroke="#9a32cd" stroke-dasharray="5,2" d="M90.49,-142.25C120.48,-142.25 169.16,-142.25 204.02,-142.25"/>
<polygon fill="#9a32cd" stroke="#9a32cd" points="90.75,-138.75 80.75,-142.25 90.75,-145.75 90.75,-138.75"/>
</a>
</g>
<text text-anchor="middle" x="160" y="-144" font-family="Helvetica,sans-Serif" font-size="10.00" fill="grey"> mPos</text>
</g>
<!-- Node9 -->
<g id="Node000009" class="node">
<title>Node9</title>
<g id="a_Node000009"><a xlink:href="classdStage__FileList2__dt__c.html" target="_top" xlink:title=" ">
<polygon fill="white" stroke="#666666" points="790.75,-104.88 677.25,-104.88 677.25,-85.62 790.75,-85.62 790.75,-104.88"/>
<text text-anchor="middle" x="734" y="-91.38" font-family="Helvetica,sans-Serif" font-size="10.00">dStage_FileList2_dt_c</text>
</a>
</g>
</g>
<!-- Node9&#45;&gt;Node4 -->
<g id="edge9_Node000004_Node000009" class="edge">
<title>Node9&#45;&gt;Node4</title>
<g id="a_edge9_Node000004_Node000009"><a xlink:title=" ">
<path fill="none" stroke="#9a32cd" stroke-dasharray="5,2" d="M802.33,-95.25C845.41,-95.25 900.54,-95.25 940.79,-95.25"/>
<polygon fill="#9a32cd" stroke="#9a32cd" points="802.61,-91.75 792.61,-95.25 802.61,-98.75 802.61,-91.75"/>
</a>
</g>
<text text-anchor="middle" x="866.88" y="-97" font-family="Helvetica,sans-Serif" font-size="10.00" fill="grey"> m_fileList2</text>
</g>
<!-- Node10 -->
<g id="Node000010" class="node">
<title>Node10</title>
<g id="a_Node000010"><a xlink:href="structdDrawPath__c_1_1room__class.html" target="_top" xlink:title=" ">
<polygon fill="white" stroke="#666666" points="798.62,-67.88 669.38,-67.88 669.38,-48.62 798.62,-48.62 798.62,-67.88"/>
<text text-anchor="middle" x="734" y="-54.38" font-family="Helvetica,sans-Serif" font-size="10.00">dDrawPath_c::room_class</text>
</a>
</g>
</g>
<!-- Node10&#45;&gt;Node4 -->
<g id="edge10_Node000004_Node000010" class="edge">
<title>Node10&#45;&gt;Node4</title>
<g id="a_edge10_Node000004_Node000010"><a xlink:title=" ">
<path fill="none" stroke="#9a32cd" stroke-dasharray="5,2" d="M810.39,-66.87C840.9,-70.58 876.43,-75.17 908.5,-80 919.06,-81.59 930.31,-83.45 941.08,-85.32"/>
<polygon fill="#9a32cd" stroke="#9a32cd" points="810.81,-63.4 800.47,-65.68 809.98,-70.35 810.81,-63.4"/>
</a>
</g>
<text text-anchor="middle" x="866.88" y="-81" font-family="Helvetica,sans-Serif" font-size="10.00" fill="grey"> mp_mapPath</text>
</g>
<!-- Node11 -->
<g id="Node000011" class="node">
<title>Node11</title>
<g id="a_Node000011"><a xlink:href="structdDrawPath__c_1_1floor__class.html" target="_top" xlink:title=" ">
<polygon fill="white" stroke="#666666" points="503.62,-73.5 406.62,-73.5 406.62,-43 503.62,-43 503.62,-73.5"/>
<text text-anchor="start" x="414.62" y="-60" font-family="Helvetica,sans-Serif" font-size="10.00">dDrawPath_c::floor</text>
<text text-anchor="middle" x="455.12" y="-48.75" font-family="Helvetica,sans-Serif" font-size="10.00">_class</text>
</a>
</g>
</g>
<!-- Node11&#45;&gt;Node10 -->
<g id="edge11_Node000010_Node000011" class="edge">
<title>Node11&#45;&gt;Node10</title>
<g id="a_edge11_Node000010_Node000011"><a xlink:title=" ">
<path fill="none" stroke="#9a32cd" stroke-dasharray="5,2" d="M515.43,-58.25C560.64,-58.25 622.78,-58.25 669.08,-58.25"/>
<polygon fill="#9a32cd" stroke="#9a32cd" points="515.55,-54.75 505.55,-58.25 515.55,-61.75 515.55,-54.75"/>
</a>
</g>
<text text-anchor="middle" x="590.62" y="-60" font-family="Helvetica,sans-Serif" font-size="10.00" fill="grey"> mpFloor</text>
</g>
<!-- Node12 -->
<g id="Node000012" class="node">
<title>Node12</title>
<g id="a_Node000012"><a xlink:href="structdDrawPath__c_1_1group__class.html" target="_top" xlink:title=" ">
<polygon fill="white" stroke="#666666" points="298.25,-73.5 195.25,-73.5 195.25,-43 298.25,-43 298.25,-73.5"/>
<text text-anchor="start" x="203.25" y="-60" font-family="Helvetica,sans-Serif" font-size="10.00">dDrawPath_c::group</text>
<text text-anchor="middle" x="246.75" y="-48.75" font-family="Helvetica,sans-Serif" font-size="10.00">_class</text>
</a>
</g>
</g>
<!-- Node12&#45;&gt;Node11 -->
<g id="edge12_Node000011_Node000012" class="edge">
<title>Node12&#45;&gt;Node11</title>
<g id="a_edge12_Node000011_Node000012"><a xlink:title=" ">
<path fill="none" stroke="#9a32cd" stroke-dasharray="5,2" d="M309.63,-58.25C340.65,-58.25 377.62,-58.25 406.41,-58.25"/>
<polygon fill="#9a32cd" stroke="#9a32cd" points="310.01,-54.75 300.01,-58.25 310.01,-61.75 310.01,-54.75"/>
</a>
</g>
<text text-anchor="middle" x="344" y="-60" font-family="Helvetica,sans-Serif" font-size="10.00" fill="grey"> mpGroup</text>
</g>
<!-- Node13 -->
<g id="Node000013" class="node">
<title>Node13</title>
<g id="a_Node000013"><a xlink:href="structdDrawPath__c_1_1line__class.html" target="_top" xlink:title=" ">
<polygon fill="white" stroke="#666666" points="123.62,-96.88 1.12,-96.88 1.12,-77.62 123.62,-77.62 123.62,-96.88"/>
<text text-anchor="middle" x="62.38" y="-83.38" font-family="Helvetica,sans-Serif" font-size="10.00">dDrawPath_c::line_class</text>
</a>
</g>
</g>
<!-- Node13&#45;&gt;Node12 -->
<g id="edge13_Node000012_Node000013" class="edge">
<title>Node13&#45;&gt;Node12</title>
<g id="a_edge13_Node000012_Node000013"><a xlink:title=" ">
<path fill="none" stroke="#9a32cd" stroke-dasharray="5,2" d="M135.35,-75.8C155.31,-72.63 176.55,-69.25 195.02,-66.32"/>
<polygon fill="#9a32cd" stroke="#9a32cd" points="134.92,-72.33 125.6,-77.36 136.02,-79.24 134.92,-72.33"/>
</a>
</g>
<text text-anchor="middle" x="160" y="-76" font-family="Helvetica,sans-Serif" font-size="10.00" fill="grey"> mpLine</text>
</g>
<!-- Node14 -->
<g id="Node000014" class="node">
<title>Node14</title>
<g id="a_Node000014"><a xlink:href="structdDrawPath__c_1_1poly__class.html" target="_top" xlink:title=" ">
<polygon fill="white" stroke="#666666" points="124.75,-59.88 0,-59.88 0,-40.62 124.75,-40.62 124.75,-59.88"/>
<text text-anchor="middle" x="62.38" y="-46.38" font-family="Helvetica,sans-Serif" font-size="10.00">dDrawPath_c::poly_class</text>
</a>
</g>
</g>
<!-- Node14&#45;&gt;Node12 -->
<g id="edge14_Node000012_Node000014" class="edge">
<title>Node14&#45;&gt;Node12</title>
<g id="a_edge14_Node000012_Node000014"><a xlink:title=" ">
<path fill="none" stroke="#9a32cd" stroke-dasharray="5,2" d="M136.41,-52.34C149.99,-52.82 164.05,-53.37 177.25,-54 182.96,-54.27 188.94,-54.59 194.89,-54.93"/>
<polygon fill="#9a32cd" stroke="#9a32cd" points="136.77,-48.85 126.66,-52.01 136.54,-55.85 136.77,-48.85"/>
</a>
</g>
<text text-anchor="middle" x="160" y="-56" font-family="Helvetica,sans-Serif" font-size="10.00" fill="grey"> mpPoly</text>
</g>
<!-- Node15 -->
<g id="Node000015" class="node">
<title>Node15</title>
<g id="a_Node000015"><a xlink:href="classfmpTresTypeGroupDataListAll__c.html" target="_top" xlink:title=" ">
<polygon fill="white" stroke="#666666" points="1064,-165.5 928,-165.5 928,-135 1064,-135 1064,-165.5"/>
<text text-anchor="start" x="936" y="-152" font-family="Helvetica,sans-Serif" font-size="10.00">fmpTresTypeGroupDataList</text>
<text text-anchor="middle" x="996" y="-140.75" font-family="Helvetica,sans-Serif" font-size="10.00">All_c</text>
</a>
</g>
</g>
<!-- Node15&#45;&gt;Node3 -->
<g id="edge15_Node000003_Node000015" class="edge">
<title>Node15&#45;&gt;Node3</title>
<g id="a_edge15_Node000003_Node000015"><a xlink:title=" ">
<path fill="none" stroke="#9a32cd" stroke-dasharray="5,2" d="M1075.65,-137.87C1122.46,-129.9 1182.84,-118.55 1235.75,-105.25 1254.75,-100.47 1275.73,-93.86 1292.13,-88.37"/>
<polygon fill="#9a32cd" stroke="#9a32cd" points="1075.13,-134.41 1065.85,-139.52 1076.3,-141.31 1075.13,-134.41"/>
</a>
</g>
<text text-anchor="middle" x="1159.62" y="-137" font-family="Helvetica,sans-Serif" font-size="10.00" fill="grey"> mp_fmpTresTypeGroupDataListAll</text>
</g>
<!-- Node16 -->
<g id="Node000016" class="node">
<title>Node16</title>
<g id="a_Node000016"><a xlink:href="classfmpTresTypeGroupDataList__c.html" target="_top" xlink:title=" ">
<polygon fill="white" stroke="#666666" points="807.25,-192.88 660.75,-192.88 660.75,-173.62 807.25,-173.62 807.25,-192.88"/>
<text text-anchor="middle" x="734" y="-179.38" font-family="Helvetica,sans-Serif" font-size="10.00">fmpTresTypeGroupDataList_c</text>
</a>
</g>
</g>
<!-- Node16&#45;&gt;Node15 -->
<g id="edge16_Node000015_Node000016" class="edge">
<title>Node16&#45;&gt;Node15</title>
<g id="a_edge16_Node000015_Node000016"><a xlink:title=" ">
<path fill="none" stroke="#9a32cd" stroke-dasharray="5,2" d="M818.69,-172.63C854,-168.15 894.56,-163 927.87,-158.77"/>
<polygon fill="#9a32cd" stroke="#9a32cd" points="818.41,-169.14 808.93,-173.87 819.29,-176.08 818.41,-169.14"/>
</a>
</g>
<text text-anchor="middle" x="866.88" y="-173" font-family="Helvetica,sans-Serif" font-size="10.00" fill="grey"> mpTypeGroupData</text>
</g>
<!-- Node17&#45;&gt;Node16 -->
<g id="edge17_Node000016_Node000017" class="edge">
<title>Node17&#45;&gt;Node16</title>
<g id="a_edge17_Node000016_Node000017"><a xlink:title=" ">
<path fill="none" stroke="#9a32cd" stroke-dasharray="5,2" d="M531.66,-190.52C571.73,-189.07 620.72,-187.31 660.34,-185.87"/>
<polygon fill="#9a32cd" stroke="#9a32cd" points="531.72,-187.02 521.85,-190.88 531.97,-194.01 531.72,-187.02"/>
</a>
</g>
<text text-anchor="middle" x="590.62" y="-202.25" font-family="Helvetica,sans-Serif" font-size="10.00" fill="grey"> mpNextData</text>
<text text-anchor="middle" x="590.62" y="-191" font-family="Helvetica,sans-Serif" font-size="10.00" fill="grey">mpTypeGroupDataHead</text>
</g>
<!-- Node17&#45;&gt;Node17 -->
<g id="edge19_Node000017_Node000017" class="edge">
<title>Node17&#45;&gt;Node17</title>
<g id="a_edge19_Node000017_Node000017"><a xlink:title=" ">
<path fill="none" stroke="#9a32cd" stroke-dasharray="5,2" d="M435.4,-214.28C437.87,-218.15 444.44,-220.88 455.12,-220.88 474.66,-220.88 480.46,-211.77 472.52,-203.16"/>
<polygon fill="#9a32cd" stroke="#9a32cd" points="438.79,-215.15 437.42,-204.64 431.94,-213.71 438.79,-215.15"/>
</a>
</g>
<text text-anchor="middle" x="455.12" y="-222.62" font-family="Helvetica,sans-Serif" font-size="10.00" fill="grey"> mpNext</text>
</g>
</g>
</svg>

<g id="navigator" transform="translate(0 0)" fill="#404254">
  <rect fill="#f2f5e9" fill-opacity="0.5" stroke="#606060" stroke-width=".5" x="0" y="0" width="60" height="60"/>
  <use id="zoomplus" xlink:href="#zoomPlus" x="17" y="9" onmousedown="handleZoom(evt,'in')"/>
  <use id="zoomminus" xlink:href="#zoomMin" x="42" y="9" onmousedown="handleZoom(evt,'out')"/>
  <use id="reset" xlink:href="#resetDef" x="30" y="36" onmousedown="handleReset()"/>
   <use id="arrowup" xlink:href="#arrowUp" x="0" y="0" onmousedown="handlePan(0,-1)"/>
  <use id="arrowright" xlink:href="#arrowRight" x="0" y="0" onmousedown="handlePan(1,0)"/>
  <use id="arrowdown" xlink:href="#arrowDown" x="0" y="0" onmousedown="handlePan(0,1)"/>
  <use id="arrowleft" xlink:href="#arrowLeft" x="0" y="0" onmousedown="handlePan(-1,0)"/>
</g>
<svg viewBox="0 0 15 15" width="100%" height="30px" preserveAspectRatio="xMaxYMin meet">
 <g id="arrow_out" transform="scale(0.3 0.3)">
  <a xlink:href="classdMenu__Fmap__stage__data__c__coll__graph_org.svg" target="_base">
   <rect id="button" ry="5" rx="5" y="6" x="6" height="38" width="38"
        fill="#f2f5e9" fill-opacity="0.5" stroke="#606060" stroke-width="1.0"/>
   <path id="arrow"
     d="M 11.500037,31.436501 C 11.940474,20.09759 22.043105,11.32322 32.158766,21.979434 L 37.068811,17.246167 C 37.068811,17.246167 37.088388,32 37.088388,32 L 22.160133,31.978069 C 22.160133,31.978069 26.997745,27.140456 26.997745,27.140456 C 18.528582,18.264221 13.291696,25.230495 11.500037,31.436501 z"
     style="fill:#404040;"/>
  </a>
 </g>
</svg>

<style type='text/css'>
<![CDATA[
[data-mouse-over-selected='false'] { opacity: 0.7; }
[data-mouse-over-selected='true']  { opacity: 1.0; }
]]>
</style>
<script type="application/ecmascript"><![CDATA[
document.addEventListener('DOMContentLoaded', (event) => {
  highlightEdges();
  highlightAdjacentNodes();
});
]]></script>
</svg>
