<?xml version="1.0" encoding="UTF-8" standalone="no"?>
<!DOCTYPE svg PUBLIC "-//W3C//DTD SVG 1.1//EN"
 "http://www.w3.org/Graphics/SVG/1.1/DTD/svg11.dtd">
<!-- Generated by graphviz version 9.0.0 (20230911.1827)
 -->
<!-- Title: dPa_simpleData_c Pages: 1 -->
<svg width="182pt" height="232pt"
 viewBox="0.00 0.00 181.50 232.00" xmlns="http://www.w3.org/2000/svg" xmlns:xlink="http://www.w3.org/1999/xlink">
<g id="graph0" class="graph" transform="scale(1 1) rotate(0) translate(4 228)">
<title>dPa_simpleData_c</title>
<!-- Node1 -->
<g id="Node000001" class="node">
<title>Node1</title>
<g id="a_Node000001"><a xlink:title=" ">
<polygon fill="#999999" stroke="#666666" points="130.38,-19.25 32.62,-19.25 32.62,0 130.38,0 130.38,-19.25"/>
<text text-anchor="middle" x="81.5" y="-5.75" font-family="Helvetica,sans-Serif" font-size="10.00">dPa_simpleData_c</text>
</a>
</g>
</g>
<!-- Node2 -->
<g id="Node000002" class="node">
<title>Node2</title>
<g id="a_Node000002"><a xlink:href="structcXyz.html" target="_top" xlink:title=" ">
<polygon fill="white" stroke="#666666" points="37,-132.38 0,-132.38 0,-113.12 37,-113.12 37,-132.38"/>
<text text-anchor="middle" x="18.5" y="-118.88" font-family="Helvetica,sans-Serif" font-size="10.00">cXyz</text>
</a>
</g>
</g>
<!-- Node2&#45;&gt;Node1 -->
<g id="edge1_Node000001_Node000002" class="edge">
<title>Node2&#45;&gt;Node1</title>
<g id="a_edge1_Node000001_Node000002"><a xlink:title=" ">
<path fill="none" stroke="#9a32cd" stroke-dasharray="5,2" d="M29.22,-102.84C42.96,-78.6 66.24,-37.54 76.45,-19.53"/>
<polygon fill="#9a32cd" stroke="#9a32cd" points="26.29,-100.91 24.4,-111.34 32.38,-104.37 26.29,-100.91"/>
</a>
</g>
<text text-anchor="middle" x="89" y="-44.62" font-family="Helvetica,sans-Serif" font-size="10.00" fill="grey"> field_0x00</text>
</g>
<!-- Node2&#45;&gt;Node2 -->
<g id="edge3_Node000002_Node000002" class="edge">
<title>Node2&#45;&gt;Node2</title>
<g id="a_edge3_Node000002_Node000002"><a xlink:title=" ">
<path fill="none" stroke="#9a32cd" stroke-dasharray="5,2" d="M43.27,-134.57C49.93,-133.93 55,-129.99 55,-122.75 55,-111.71 43.24,-108.35 31.98,-112.66"/>
<polygon fill="#9a32cd" stroke="#9a32cd" points="43.89,-131.12 33.47,-133.07 42.83,-138.04 43.89,-131.12"/>
</a>
</g>
<text text-anchor="middle" x="76" y="-158.25" font-family="Helvetica,sans-Serif" font-size="10.00" fill="grey"> BaseX</text>
<text text-anchor="middle" x="76" y="-147" font-family="Helvetica,sans-Serif" font-size="10.00" fill="grey">BaseXY</text>
<text text-anchor="middle" x="76" y="-135.75" font-family="Helvetica,sans-Serif" font-size="10.00" fill="grey">BaseXYZ</text>
<text text-anchor="middle" x="76" y="-124.5" font-family="Helvetica,sans-Serif" font-size="10.00" fill="grey">BaseXZ</text>
<text text-anchor="middle" x="76" y="-113.25" font-family="Helvetica,sans-Serif" font-size="10.00" fill="grey">BaseY</text>
<text text-anchor="middle" x="76" y="-102" font-family="Helvetica,sans-Serif" font-size="10.00" fill="grey">BaseYZ</text>
<text text-anchor="middle" x="76" y="-90.75" font-family="Helvetica,sans-Serif" font-size="10.00" fill="grey">BaseZ</text>
<text text-anchor="middle" x="76" y="-79.5" font-family="Helvetica,sans-Serif" font-size="10.00" fill="grey">Zero</text>
</g>
<!-- Node3 -->
<g id="Node000003" class="node">
<title>Node3</title>
<g id="a_Node000003"><a xlink:href="structVec.html" target="_top" xlink:title=" ">
<polygon fill="white" stroke="#666666" points="35.12,-224 1.88,-224 1.88,-204.75 35.12,-204.75 35.12,-224"/>
<text text-anchor="middle" x="18.5" y="-210.5" font-family="Helvetica,sans-Serif" font-size="10.00">Vec</text>
</a>
</g>
</g>
<!-- Node3&#45;&gt;Node2 -->
<g id="edge2_Node000002_Node000003" class="edge">
<title>Node3&#45;&gt;Node2</title>
<g id="a_edge2_Node000002_Node000003"><a xlink:title=" ">
<path fill="none" stroke="#63b8ff" d="M18.5,-193.19C18.5,-174.19 18.5,-146.64 18.5,-132.64"/>
<polygon fill="#63b8ff" stroke="#63b8ff" points="15,-192.94 18.5,-202.94 22,-192.94 15,-192.94"/>
</a>
</g>
</g>
<!-- Node4 -->
<g id="Node000004" class="node">
<title>Node4</title>
<g id="a_Node000004"><a xlink:href="struct__GXColor.html" target="_top" xlink:title=" ">
<polygon fill="white" stroke="#666666" points="173.5,-132.38 115.5,-132.38 115.5,-113.12 173.5,-113.12 173.5,-132.38"/>
<text text-anchor="middle" x="144.5" y="-118.88" font-family="Helvetica,sans-Serif" font-size="10.00">_GXColor</text>
</a>
</g>
</g>
<!-- Node4&#45;&gt;Node1 -->
<g id="edge4_Node000001_Node000004" class="edge">
<title>Node4&#45;&gt;Node1</title>
<g id="a_edge4_Node000001_Node000004"><a xlink:title=" ">
<path fill="none" stroke="#9a32cd" stroke-dasharray="5,2" d="M140.99,-101.62C137.07,-83.49 129.39,-56.77 115.5,-37.25 110.54,-30.29 103.26,-24.25 96.7,-19.69"/>
<polygon fill="#9a32cd" stroke="#9a32cd" points="137.54,-102.2 142.87,-111.36 144.41,-100.87 137.54,-102.2"/>
</a>
</g>
<text text-anchor="middle" x="149" y="-50.25" font-family="Helvetica,sans-Serif" font-size="10.00" fill="grey"> field_0x0c</text>
<text text-anchor="middle" x="149" y="-39" font-family="Helvetica,sans-Serif" font-size="10.00" fill="grey">field_0x10</text>
</g>
</g>
</svg>
