<?xml version="1.0" encoding="UTF-8" standalone="no"?>
<!DOCTYPE svg PUBLIC "-//W3C//DTD SVG 1.1//EN"
 "http://www.w3.org/Graphics/SVG/1.1/DTD/svg11.dtd">
<!-- Generated by graphviz version 9.0.0 (20230911.1827)
 -->
<!-- Title: JAUSectionHeap Pages: 1 -->
<svg width="364pt" height="204pt"
 viewBox="0.00 0.00 364.00 204.25" xmlns="http://www.w3.org/2000/svg" xmlns:xlink="http://www.w3.org/1999/xlink">
<g id="graph0" class="graph" transform="scale(1 1) rotate(0) translate(4 200.25)">
<title>JAUSectionHeap</title>
<!-- Node1 -->
<g id="Node000001" class="node">
<title>Node1</title>
<g id="a_Node000001"><a xlink:title=" ">
<polygon fill="#999999" stroke="#666666" points="245.38,-19.25 153.62,-19.25 153.62,0 245.38,0 245.38,-19.25"/>
<text text-anchor="middle" x="199.5" y="-5.75" font-family="Helvetica,sans-Serif" font-size="10.00">JAUSectionHeap</text>
</a>
</g>
</g>
<!-- Node2 -->
<g id="Node000002" class="node">
<title>Node2</title>
<g id="a_Node000002"><a xlink:href="classJAUSection.html" target="_top" xlink:title=" ">
<polygon fill="white" stroke="#666666" points="128.75,-80.12 60.25,-80.12 60.25,-60.88 128.75,-60.88 128.75,-80.12"/>
<text text-anchor="middle" x="94.5" y="-66.62" font-family="Helvetica,sans-Serif" font-size="10.00">JAUSection</text>
</a>
</g>
</g>
<!-- Node2&#45;&gt;Node1 -->
<g id="edge1_Node000001_Node000002" class="edge">
<title>Node2&#45;&gt;Node1</title>
<g id="a_edge1_Node000001_Node000002"><a xlink:title=" ">
<path fill="none" stroke="#63b8ff" d="M120.32,-55.02C140.05,-43.96 166.62,-29.06 183.4,-19.65"/>
<polygon fill="#63b8ff" stroke="#63b8ff" points="118.78,-51.87 111.77,-59.82 122.2,-57.98 118.78,-51.87"/>
</a>
</g>
</g>
<!-- Node3 -->
<g id="Node000003" class="node">
<title>Node3</title>
<g id="a_Node000003"><a xlink:href="classJKRDisposer.html" target="_top" xlink:title=" ">
<polygon fill="white" stroke="#666666" points="73,-141 0,-141 0,-121.75 73,-121.75 73,-141"/>
<text text-anchor="middle" x="36.5" y="-127.5" font-family="Helvetica,sans-Serif" font-size="10.00">JKRDisposer</text>
</a>
</g>
</g>
<!-- Node3&#45;&gt;Node2 -->
<g id="edge2_Node000002_Node000003" class="edge">
<title>Node3&#45;&gt;Node2</title>
<g id="a_edge2_Node000002_Node000003"><a xlink:title=" ">
<path fill="none" stroke="#63b8ff" d="M53.07,-113.55C63.66,-102.8 76.98,-89.29 85.61,-80.53"/>
<polygon fill="#63b8ff" stroke="#63b8ff" points="50.9,-110.77 46.37,-120.35 55.88,-115.69 50.9,-110.77"/>
</a>
</g>
</g>
<!-- Node4 -->
<g id="Node000004" class="node">
<title>Node4</title>
<g id="a_Node000004"><a xlink:href="classJSULink.html" target="_top" xlink:title=" ">
<polygon fill="white" stroke="#666666" points="214.12,-141 90.88,-141 90.88,-121.75 214.12,-121.75 214.12,-141"/>
<text text-anchor="middle" x="152.5" y="-127.5" font-family="Helvetica,sans-Serif" font-size="10.00">JSULink&lt; JAUSection &gt;</text>
</a>
</g>
</g>
<!-- Node4&#45;&gt;Node2 -->
<g id="edge3_Node000002_Node000004" class="edge">
<title>Node4&#45;&gt;Node2</title>
<g id="a_edge3_Node000002_Node000004"><a xlink:title=" ">
<path fill="none" stroke="darkgreen" d="M135.93,-113.55C125.34,-102.8 112.02,-89.29 103.39,-80.53"/>
<polygon fill="darkgreen" stroke="darkgreen" points="133.12,-115.69 142.63,-120.35 138.1,-110.77 133.12,-115.69"/>
</a>
</g>
</g>
<!-- Node5 -->
<g id="Node000005" class="node">
<title>Node5</title>
<g id="a_Node000005"><a xlink:href="classJSUPtrLink.html" target="_top" xlink:title=" ">
<polygon fill="white" stroke="#666666" points="186,-196.25 119,-196.25 119,-177 186,-177 186,-196.25"/>
<text text-anchor="middle" x="152.5" y="-182.75" font-family="Helvetica,sans-Serif" font-size="10.00">JSUPtrLink</text>
</a>
</g>
</g>
<!-- Node5&#45;&gt;Node4 -->
<g id="edge4_Node000004_Node000005" class="edge">
<title>Node5&#45;&gt;Node4</title>
<g id="a_edge4_Node000004_Node000005"><a xlink:title=" ">
<path fill="none" stroke="#63b8ff" d="M152.5,-165.38C152.5,-157.09 152.5,-147.92 152.5,-141.36"/>
<polygon fill="#63b8ff" stroke="#63b8ff" points="149,-165.32 152.5,-175.32 156,-165.32 149,-165.32"/>
</a>
</g>
</g>
<!-- Node6 -->
<g id="Node000006" class="node">
<title>Node6</title>
<g id="a_Node000006"><a xlink:href="classJASGlobalInstance.html" target="_top" xlink:title=" ">
<polygon fill="white" stroke="#666666" points="252.5,-85.75 146.5,-85.75 146.5,-55.25 252.5,-55.25 252.5,-85.75"/>
<text text-anchor="start" x="154.5" y="-72.25" font-family="Helvetica,sans-Serif" font-size="10.00">JASGlobalInstance&lt;</text>
<text text-anchor="middle" x="199.5" y="-61" font-family="Helvetica,sans-Serif" font-size="10.00"> JAUSectionHeap &gt;</text>
</a>
</g>
</g>
<!-- Node6&#45;&gt;Node1 -->
<g id="edge5_Node000001_Node000006" class="edge">
<title>Node6&#45;&gt;Node1</title>
<g id="a_edge5_Node000001_Node000006"><a xlink:title=" ">
<path fill="none" stroke="#63b8ff" d="M199.5,-43.48C199.5,-34.98 199.5,-26.09 199.5,-19.7"/>
<polygon fill="#63b8ff" stroke="#63b8ff" points="196,-43.43 199.5,-53.43 203,-43.43 196,-43.43"/>
</a>
</g>
</g>
<!-- Node7 -->
<g id="Node000007" class="node">
<title>Node7</title>
<g id="a_Node000007"><a xlink:href="structJAISeqDataMgr.html" target="_top" xlink:title=" ">
<polygon fill="white" stroke="#666666" points="356,-80.12 271,-80.12 271,-60.88 356,-60.88 356,-80.12"/>
<text text-anchor="middle" x="313.5" y="-66.62" font-family="Helvetica,sans-Serif" font-size="10.00">JAISeqDataMgr</text>
</a>
</g>
</g>
<!-- Node7&#45;&gt;Node1 -->
<g id="edge6_Node000001_Node000007" class="edge">
<title>Node7&#45;&gt;Node1</title>
<g id="a_edge6_Node000001_Node000007"><a xlink:title=" ">
<path fill="none" stroke="#63b8ff" d="M286.05,-55.33C264.58,-44.24 235.37,-29.15 216.98,-19.65"/>
<polygon fill="#63b8ff" stroke="#63b8ff" points="284.35,-58.38 294.84,-59.86 287.56,-52.17 284.35,-58.38"/>
</a>
</g>
</g>
</g>
</svg>
