<?xml version="1.0" encoding="UTF-8" standalone="no"?>
<!DOCTYPE svg PUBLIC "-//W3C//DTD SVG 1.1//EN"
 "http://www.w3.org/Graphics/SVG/1.1/DTD/svg11.dtd">
<!-- Generated by graphviz version 9.0.0 (20230911.1827)
 -->
<!-- Title: dBgS_CamLinChk_NorWtr Pages: 1 -->
<svg width="570pt" height="467pt"
 viewBox="0.00 0.00 569.88 467.25" xmlns="http://www.w3.org/2000/svg" xmlns:xlink="http://www.w3.org/1999/xlink">
<g id="graph0" class="graph" transform="scale(1 1) rotate(0) translate(4 463.25)">
<title>dBgS_CamLinChk_NorWtr</title>
<!-- Node1 -->
<g id="Node000001" class="node">
<title>Node1</title>
<g id="a_Node000001"><a xlink:title=" ">
<polygon fill="#999999" stroke="#666666" points="356.62,-19.25 224.38,-19.25 224.38,0 356.62,0 356.62,-19.25"/>
<text text-anchor="middle" x="290.5" y="-5.75" font-family="Helvetica,sans-Serif" font-size="10.00">dBgS_CamLinChk_NorWtr</text>
</a>
</g>
</g>
<!-- Node2 -->
<g id="Node000002" class="node">
<title>Node2</title>
<g id="a_Node000002"><a xlink:href="classdBgS__CamLinChk.html" target="_top" xlink:title=" ">
<polygon fill="white" stroke="#666666" points="338.62,-75.5 242.38,-75.5 242.38,-56.25 338.62,-56.25 338.62,-75.5"/>
<text text-anchor="middle" x="290.5" y="-62" font-family="Helvetica,sans-Serif" font-size="10.00">dBgS_CamLinChk</text>
</a>
</g>
</g>
<!-- Node2&#45;&gt;Node1 -->
<g id="edge1_Node000001_Node000002" class="edge">
<title>Node2&#45;&gt;Node1</title>
<g id="a_edge1_Node000001_Node000002"><a xlink:title=" ">
<path fill="none" stroke="#63b8ff" d="M290.5,-44.69C290.5,-35.98 290.5,-26.24 290.5,-19.42"/>
<polygon fill="#63b8ff" stroke="#63b8ff" points="287,-44.4 290.5,-54.4 294,-44.4 287,-44.4"/>
</a>
</g>
</g>
<!-- Node3 -->
<g id="Node000003" class="node">
<title>Node3</title>
<g id="a_Node000003"><a xlink:href="structdBgS__LinChk.html" target="_top" xlink:title=" ">
<polygon fill="white" stroke="#666666" points="328.5,-131.75 252.5,-131.75 252.5,-112.5 328.5,-112.5 328.5,-131.75"/>
<text text-anchor="middle" x="290.5" y="-118.25" font-family="Helvetica,sans-Serif" font-size="10.00">dBgS_LinChk</text>
</a>
</g>
</g>
<!-- Node3&#45;&gt;Node2 -->
<g id="edge2_Node000002_Node000003" class="edge">
<title>Node3&#45;&gt;Node2</title>
<g id="a_edge2_Node000002_Node000003"><a xlink:title=" ">
<path fill="none" stroke="#63b8ff" d="M290.5,-100.94C290.5,-92.23 290.5,-82.49 290.5,-75.67"/>
<polygon fill="#63b8ff" stroke="#63b8ff" points="287,-100.65 290.5,-110.65 294,-100.65 287,-100.65"/>
</a>
</g>
</g>
<!-- Node4 -->
<g id="Node000004" class="node">
<title>Node4</title>
<g id="a_Node000004"><a xlink:href="structcBgS__LinChk.html" target="_top" xlink:title=" ">
<polygon fill="white" stroke="#666666" points="229.5,-188 153.5,-188 153.5,-168.75 229.5,-168.75 229.5,-188"/>
<text text-anchor="middle" x="191.5" y="-174.5" font-family="Helvetica,sans-Serif" font-size="10.00">cBgS_LinChk</text>
</a>
</g>
</g>
<!-- Node4&#45;&gt;Node3 -->
<g id="edge3_Node000003_Node000004" class="edge">
<title>Node4&#45;&gt;Node3</title>
<g id="a_edge3_Node000003_Node000004"><a xlink:title=" ">
<path fill="none" stroke="#63b8ff" d="M217.94,-162.89C235.81,-153.09 258.86,-140.46 274.13,-132.1"/>
<polygon fill="#63b8ff" stroke="#63b8ff" points="216.26,-159.81 209.18,-167.69 219.63,-165.95 216.26,-159.81"/>
</a>
</g>
</g>
<!-- Node5 -->
<g id="Node000005" class="node">
<title>Node5</title>
<g id="a_Node000005"><a xlink:href="classcBgS__Chk.html" target="_top" xlink:title=" ">
<polygon fill="white" stroke="#666666" points="222.75,-254.5 160.25,-254.5 160.25,-235.25 222.75,-235.25 222.75,-254.5"/>
<text text-anchor="middle" x="191.5" y="-241" font-family="Helvetica,sans-Serif" font-size="10.00">cBgS_Chk</text>
</a>
</g>
</g>
<!-- Node5&#45;&gt;Node4 -->
<g id="edge4_Node000004_Node000005" class="edge">
<title>Node5&#45;&gt;Node4</title>
<g id="a_edge4_Node000004_Node000005"><a xlink:title=" ">
<path fill="none" stroke="#63b8ff" d="M191.5,-223.4C191.5,-211.57 191.5,-197.29 191.5,-188.27"/>
<polygon fill="#63b8ff" stroke="#63b8ff" points="188,-223.39 191.5,-233.39 195,-223.39 188,-223.39"/>
</a>
</g>
</g>
<!-- Node6 -->
<g id="Node000006" class="node">
<title>Node6</title>
<g id="a_Node000006"><a xlink:href="classcBgS__PolyPassChk.html" target="_top" xlink:title=" ">
<polygon fill="white" stroke="#666666" points="301.38,-367.62 197.62,-367.62 197.62,-348.38 301.38,-348.38 301.38,-367.62"/>
<text text-anchor="middle" x="249.5" y="-354.12" font-family="Helvetica,sans-Serif" font-size="10.00">cBgS_PolyPassChk</text>
</a>
</g>
</g>
<!-- Node6&#45;&gt;Node5 -->
<g id="edge5_Node000005_Node000006" class="edge">
<title>Node6&#45;&gt;Node5</title>
<g id="a_edge5_Node000005_Node000006"><a xlink:title=" ">
<path fill="none" stroke="#9a32cd" stroke-dasharray="5,2" d="M239.46,-337.76C226.78,-313.48 205.5,-272.71 196.15,-254.78"/>
<polygon fill="#9a32cd" stroke="#9a32cd" points="236.32,-339.32 244.05,-346.56 242.53,-336.08 236.32,-339.32"/>
</a>
</g>
<text text-anchor="middle" x="251" y="-279.88" font-family="Helvetica,sans-Serif" font-size="10.00" fill="grey"> mPolyPassChk</text>
</g>
<!-- Node13 -->
<g id="Node000013" class="node">
<title>Node13</title>
<g id="a_Node000013"><a xlink:href="structdBgS__PolyPassChk.html" target="_top" xlink:title=" ">
<polygon fill="white" stroke="#666666" points="443.38,-254.5 339.62,-254.5 339.62,-235.25 443.38,-235.25 443.38,-254.5"/>
<text text-anchor="middle" x="391.5" y="-241" font-family="Helvetica,sans-Serif" font-size="10.00">dBgS_PolyPassChk</text>
</a>
</g>
</g>
<!-- Node6&#45;&gt;Node13 -->
<g id="edge15_Node000013_Node000006" class="edge">
<title>Node6&#45;&gt;Node13</title>
<g id="a_edge15_Node000013_Node000006"><a xlink:title=" ">
<path fill="none" stroke="#63b8ff" d="M263.11,-339.06C278,-320.44 303.37,-291.42 330.5,-272.5 340.93,-265.23 353.65,-259.29 364.78,-254.88"/>
<polygon fill="#63b8ff" stroke="#63b8ff" points="260.48,-336.75 257.09,-346.79 266,-341.06 260.48,-336.75"/>
</a>
</g>
</g>
<!-- Node7 -->
<g id="Node000007" class="node">
<title>Node7</title>
<g id="a_Node000007"><a xlink:href="classcBgS__GrpPassChk.html" target="_top" xlink:title=" ">
<polygon fill="white" stroke="#666666" points="464.88,-367.62 364.12,-367.62 364.12,-348.38 464.88,-348.38 464.88,-367.62"/>
<text text-anchor="middle" x="414.5" y="-354.12" font-family="Helvetica,sans-Serif" font-size="10.00">cBgS_GrpPassChk</text>
</a>
</g>
</g>
<!-- Node7&#45;&gt;Node5 -->
<g id="edge6_Node000005_Node000007" class="edge">
<title>Node7&#45;&gt;Node5</title>
<g id="a_edge6_Node000005_Node000007"><a xlink:title=" ">
<path fill="none" stroke="#9a32cd" stroke-dasharray="5,2" d="M395.21,-340.96C371.64,-322.1 329.89,-291.02 289.5,-272.5 277.64,-267.06 246.74,-259.01 222.78,-253.19"/>
<polygon fill="#9a32cd" stroke="#9a32cd" points="392.72,-343.45 402.69,-347.04 397.14,-338.02 392.72,-343.45"/>
</a>
</g>
<text text-anchor="middle" x="361.5" y="-279.88" font-family="Helvetica,sans-Serif" font-size="10.00" fill="grey"> mGrpPassChk</text>
</g>
<!-- Node14 -->
<g id="Node000014" class="node">
<title>Node14</title>
<g id="a_Node000014"><a xlink:href="classdBgS__GrpPassChk.html" target="_top" xlink:title=" ">
<polygon fill="white" stroke="#666666" points="561.88,-254.5 461.12,-254.5 461.12,-235.25 561.88,-235.25 561.88,-254.5"/>
<text text-anchor="middle" x="511.5" y="-241" font-family="Helvetica,sans-Serif" font-size="10.00">dBgS_GrpPassChk</text>
</a>
</g>
</g>
<!-- Node7&#45;&gt;Node14 -->
<g id="edge17_Node000014_Node000007" class="edge">
<title>Node7&#45;&gt;Node14</title>
<g id="a_edge17_Node000014_Node000007"><a xlink:title=" ">
<path fill="none" stroke="#63b8ff" d="M429.87,-339.39C450.87,-315.33 487.73,-273.11 503.72,-254.78"/>
<polygon fill="#63b8ff" stroke="#63b8ff" points="427.37,-336.93 423.43,-346.77 432.65,-341.53 427.37,-336.93"/>
</a>
</g>
</g>
<!-- Node8 -->
<g id="Node000008" class="node">
<title>Node8</title>
<g id="a_Node000008"><a xlink:href="structcBgS__PolyInfo.html" target="_top" xlink:title=" ">
<polygon fill="white" stroke="#666666" points="321.75,-254.5 241.25,-254.5 241.25,-235.25 321.75,-235.25 321.75,-254.5"/>
<text text-anchor="middle" x="281.5" y="-241" font-family="Helvetica,sans-Serif" font-size="10.00">cBgS_PolyInfo</text>
</a>
</g>
</g>
<!-- Node8&#45;&gt;Node4 -->
<g id="edge7_Node000004_Node000008" class="edge">
<title>Node8&#45;&gt;Node4</title>
<g id="a_edge7_Node000004_Node000008"><a xlink:title=" ">
<path fill="none" stroke="#63b8ff" d="M260.09,-228.53C242.68,-216.06 218.71,-198.87 204.2,-188.48"/>
<polygon fill="#63b8ff" stroke="#63b8ff" points="257.59,-231.04 267.76,-234.02 261.67,-225.35 257.59,-231.04"/>
</a>
</g>
</g>
<!-- Node9 -->
<g id="Node000009" class="node">
<title>Node9</title>
<g id="a_Node000009"><a xlink:href="structcM3dGLin.html" target="_top" xlink:title=" ">
<polygon fill="white" stroke="#666666" points="61,-254.5 0,-254.5 0,-235.25 61,-235.25 61,-254.5"/>
<text text-anchor="middle" x="30.5" y="-241" font-family="Helvetica,sans-Serif" font-size="10.00">cM3dGLin</text>
</a>
</g>
</g>
<!-- Node9&#45;&gt;Node4 -->
<g id="edge8_Node000004_Node000009" class="edge">
<title>Node9&#45;&gt;Node4</title>
<g id="a_edge8_Node000004_Node000009"><a xlink:title=" ">
<path fill="none" stroke="#9a32cd" stroke-dasharray="5,2" d="M40.83,-225.19C45.63,-218.15 51.95,-210.72 59.5,-206 87.66,-188.42 125.19,-182.15 153.04,-180.05"/>
<polygon fill="#9a32cd" stroke="#9a32cd" points="37.94,-223.2 35.72,-233.56 43.92,-226.85 37.94,-223.2"/>
</a>
</g>
<text text-anchor="middle" x="71.5" y="-207.75" font-family="Helvetica,sans-Serif" font-size="10.00" fill="grey"> mLin</text>
</g>
<!-- Node10 -->
<g id="Node000010" class="node">
<title>Node10</title>
<g id="a_Node000010"><a xlink:href="structcXyz.html" target="_top" xlink:title=" ">
<polygon fill="white" stroke="#666666" points="83,-367.62 46,-367.62 46,-348.38 83,-348.38 83,-367.62"/>
<text text-anchor="middle" x="64.5" y="-354.12" font-family="Helvetica,sans-Serif" font-size="10.00">cXyz</text>
</a>
</g>
</g>
<!-- Node10&#45;&gt;Node4 -->
<g id="edge12_Node000004_Node000010" class="edge">
<title>Node10&#45;&gt;Node4</title>
<g id="a_edge12_Node000004_Node000010"><a xlink:title=" ">
<path fill="none" stroke="#9a32cd" stroke-dasharray="5,2" d="M69.64,-337.23C77.76,-307.1 93.9,-251.46 106.5,-235.25 123.41,-213.5 151.27,-197.51 170.46,-188.33"/>
<polygon fill="#9a32cd" stroke="#9a32cd" points="66.34,-336.04 67.16,-346.6 73.11,-337.83 66.34,-336.04"/>
</a>
</g>
<text text-anchor="middle" x="129" y="-241" font-family="Helvetica,sans-Serif" font-size="10.00" fill="grey"> field_0x40</text>
</g>
<!-- Node10&#45;&gt;Node9 -->
<g id="edge9_Node000009_Node000010" class="edge">
<title>Node10&#45;&gt;Node9</title>
<g id="a_edge9_Node000009_Node000010"><a xlink:title=" ">
<path fill="none" stroke="#9a32cd" stroke-dasharray="5,2" d="M58.41,-337.1C50.96,-312.74 38.66,-272.54 33.23,-254.78"/>
<polygon fill="#9a32cd" stroke="#9a32cd" points="55,-337.92 61.27,-346.46 61.7,-335.87 55,-337.92"/>
</a>
</g>
<text text-anchor="middle" x="60.12" y="-285.5" font-family="Helvetica,sans-Serif" font-size="10.00" fill="grey"> mEnd</text>
<text text-anchor="middle" x="60.12" y="-274.25" font-family="Helvetica,sans-Serif" font-size="10.00" fill="grey">mStart</text>
</g>
<!-- Node10&#45;&gt;Node10 -->
<g id="edge11_Node000010_Node000010" class="edge">
<title>Node10&#45;&gt;Node10</title>
<g id="a_edge11_Node000010_Node000010"><a xlink:title=" ">
<path fill="none" stroke="#9a32cd" stroke-dasharray="5,2" d="M89.27,-369.82C95.93,-369.18 101,-365.24 101,-358 101,-346.96 89.24,-343.6 77.98,-347.91"/>
<polygon fill="#9a32cd" stroke="#9a32cd" points="89.89,-366.37 79.47,-368.32 88.83,-373.29 89.89,-366.37"/>
</a>
</g>
<text text-anchor="middle" x="122" y="-393.5" font-family="Helvetica,sans-Serif" font-size="10.00" fill="grey"> BaseX</text>
<text text-anchor="middle" x="122" y="-382.25" font-family="Helvetica,sans-Serif" font-size="10.00" fill="grey">BaseXY</text>
<text text-anchor="middle" x="122" y="-371" font-family="Helvetica,sans-Serif" font-size="10.00" fill="grey">BaseXYZ</text>
<text text-anchor="middle" x="122" y="-359.75" font-family="Helvetica,sans-Serif" font-size="10.00" fill="grey">BaseXZ</text>
<text text-anchor="middle" x="122" y="-348.5" font-family="Helvetica,sans-Serif" font-size="10.00" fill="grey">BaseY</text>
<text text-anchor="middle" x="122" y="-337.25" font-family="Helvetica,sans-Serif" font-size="10.00" fill="grey">BaseYZ</text>
<text text-anchor="middle" x="122" y="-326" font-family="Helvetica,sans-Serif" font-size="10.00" fill="grey">BaseZ</text>
<text text-anchor="middle" x="122" y="-314.75" font-family="Helvetica,sans-Serif" font-size="10.00" fill="grey">Zero</text>
</g>
<!-- Node11 -->
<g id="Node000011" class="node">
<title>Node11</title>
<g id="a_Node000011"><a xlink:href="structVec.html" target="_top" xlink:title=" ">
<polygon fill="white" stroke="#666666" points="81.12,-459.25 47.88,-459.25 47.88,-440 81.12,-440 81.12,-459.25"/>
<text text-anchor="middle" x="64.5" y="-445.75" font-family="Helvetica,sans-Serif" font-size="10.00">Vec</text>
</a>
</g>
</g>
<!-- Node11&#45;&gt;Node10 -->
<g id="edge10_Node000010_Node000011" class="edge">
<title>Node11&#45;&gt;Node10</title>
<g id="a_edge10_Node000010_Node000011"><a xlink:title=" ">
<path fill="none" stroke="#63b8ff" d="M64.5,-428.44C64.5,-409.44 64.5,-381.89 64.5,-367.89"/>
<polygon fill="#63b8ff" stroke="#63b8ff" points="61,-428.19 64.5,-438.19 68,-428.19 61,-428.19"/>
</a>
</g>
</g>
<!-- Node12 -->
<g id="Node000012" class="node">
<title>Node12</title>
<g id="a_Node000012"><a xlink:href="classdBgS__Chk.html" target="_top" xlink:title=" ">
<polygon fill="white" stroke="#666666" points="422.75,-188 360.25,-188 360.25,-168.75 422.75,-168.75 422.75,-188"/>
<text text-anchor="middle" x="391.5" y="-174.5" font-family="Helvetica,sans-Serif" font-size="10.00">dBgS_Chk</text>
</a>
</g>
</g>
<!-- Node12&#45;&gt;Node3 -->
<g id="edge13_Node000003_Node000012" class="edge">
<title>Node12&#45;&gt;Node3</title>
<g id="a_edge13_Node000003_Node000012"><a xlink:title=" ">
<path fill="none" stroke="#63b8ff" d="M364.79,-163.03C346.51,-153.21 322.85,-140.5 307.2,-132.1"/>
<polygon fill="#63b8ff" stroke="#63b8ff" points="363.02,-166.05 373.49,-167.7 366.34,-159.89 363.02,-166.05"/>
</a>
</g>
</g>
<!-- Node13&#45;&gt;Node12 -->
<g id="edge14_Node000012_Node000013" class="edge">
<title>Node13&#45;&gt;Node12</title>
<g id="a_edge14_Node000012_Node000013"><a xlink:title=" ">
<path fill="none" stroke="#63b8ff" d="M391.5,-223.4C391.5,-211.57 391.5,-197.29 391.5,-188.27"/>
<polygon fill="#63b8ff" stroke="#63b8ff" points="388,-223.39 391.5,-233.39 395,-223.39 388,-223.39"/>
</a>
</g>
</g>
<!-- Node14&#45;&gt;Node12 -->
<g id="edge16_Node000012_Node000014" class="edge">
<title>Node14&#45;&gt;Node12</title>
<g id="a_edge16_Node000012_Node000014"><a xlink:title=" ">
<path fill="none" stroke="#63b8ff" d="M484.6,-229.42C461.24,-216.86 428.15,-199.07 408.35,-188.43"/>
<polygon fill="#63b8ff" stroke="#63b8ff" points="482.76,-232.4 493.23,-234.05 486.08,-226.24 482.76,-232.4"/>
</a>
</g>
</g>
</g>
</svg>
