<?xml version="1.0" encoding="UTF-8" standalone="no"?>
<!DOCTYPE svg PUBLIC "-//W3C//DTD SVG 1.1//EN"
 "http://www.w3.org/Graphics/SVG/1.1/DTD/svg11.dtd">
<!-- Generated by graphviz version 9.0.0 (20230911.1827)
 -->
<!-- Title: COutFont_c Pages: 1 -->
<svg width="744pt" height="586pt"
 viewBox="0.00 0.00 743.75 586.00" xmlns="http://www.w3.org/2000/svg" xmlns:xlink="http://www.w3.org/1999/xlink">
<g id="graph0" class="graph" transform="scale(1 1) rotate(0) translate(4 582)">
<title>COutFont_c</title>
<!-- Node1 -->
<g id="Node000001" class="node">
<title>Node1</title>
<g id="a_Node000001"><a xlink:title=" ">
<polygon fill="#999999" stroke="#666666" points="326.75,-19.25 258.25,-19.25 258.25,0 326.75,0 326.75,-19.25"/>
<text text-anchor="middle" x="292.5" y="-5.75" font-family="Helvetica,sans-Serif" font-size="10.00">COutFont_c</text>
</a>
</g>
</g>
<!-- Node2 -->
<g id="Node000002" class="node">
<title>Node2</title>
<g id="a_Node000002"><a xlink:href="classCOutFontSet__c.html" target="_top" xlink:title=" ">
<polygon fill="white" stroke="#666666" points="295.25,-85.75 211.75,-85.75 211.75,-66.5 295.25,-66.5 295.25,-85.75"/>
<text text-anchor="middle" x="253.5" y="-72.25" font-family="Helvetica,sans-Serif" font-size="10.00">COutFontSet_c</text>
</a>
</g>
</g>
<!-- Node2&#45;&gt;Node1 -->
<g id="edge1_Node000001_Node000002" class="edge">
<title>Node2&#45;&gt;Node1</title>
<g id="a_edge1_Node000001_Node000002"><a xlink:title=" ">
<path fill="none" stroke="#9a32cd" stroke-dasharray="5,2" d="M264.75,-56.51C272.11,-44.35 281.38,-29.02 287.12,-19.52"/>
<polygon fill="#9a32cd" stroke="#9a32cd" points="261.89,-54.49 259.71,-64.86 267.88,-58.12 261.89,-54.49"/>
</a>
</g>
<text text-anchor="middle" x="290.25" y="-39" font-family="Helvetica,sans-Serif" font-size="10.00" fill="grey"> mpOfs</text>
</g>
<!-- Node3 -->
<g id="Node000003" class="node">
<title>Node3</title>
<g id="a_Node000003"><a xlink:href="classJ2DTextBox.html" target="_top" xlink:title=" ">
<polygon fill="white" stroke="#666666" points="283.75,-152.25 215.25,-152.25 215.25,-133 283.75,-133 283.75,-152.25"/>
<text text-anchor="middle" x="249.5" y="-138.75" font-family="Helvetica,sans-Serif" font-size="10.00">J2DTextBox</text>
</a>
</g>
</g>
<!-- Node3&#45;&gt;Node2 -->
<g id="edge2_Node000002_Node000003" class="edge">
<title>Node3&#45;&gt;Node2</title>
<g id="a_edge2_Node000002_Node000003"><a xlink:title=" ">
<path fill="none" stroke="#9a32cd" stroke-dasharray="5,2" d="M250.75,-121.52C251.48,-109.62 252.38,-95.13 252.95,-86.02"/>
<polygon fill="#9a32cd" stroke="#9a32cd" points="247.28,-120.95 250.15,-131.15 254.26,-121.38 247.28,-120.95"/>
</a>
</g>
<text text-anchor="middle" x="284.38" y="-105.5" font-family="Helvetica,sans-Serif" font-size="10.00" fill="grey"> mpTextBoxPtr</text>
</g>
<!-- Node4 -->
<g id="Node000004" class="node">
<title>Node4</title>
<g id="a_Node000004"><a xlink:href="classJ2DPane.html" target="_top" xlink:title=" ">
<polygon fill="white" stroke="#666666" points="346.38,-237.25 290.62,-237.25 290.62,-218 346.38,-218 346.38,-237.25"/>
<text text-anchor="middle" x="318.5" y="-223.75" font-family="Helvetica,sans-Serif" font-size="10.00">J2DPane</text>
</a>
</g>
</g>
<!-- Node4&#45;&gt;Node3 -->
<g id="edge3_Node000003_Node000004" class="edge">
<title>Node4&#45;&gt;Node3</title>
<g id="a_edge3_Node000003_Node000004"><a xlink:title=" ">
<path fill="none" stroke="#63b8ff" d="M303.98,-209.16C289.65,-191.92 268.28,-166.22 257.04,-152.7"/>
<polygon fill="#63b8ff" stroke="#63b8ff" points="301.06,-211.13 310.15,-216.58 306.45,-206.65 301.06,-211.13"/>
</a>
</g>
</g>
<!-- Node17 -->
<g id="Node000017" class="node">
<title>Node17</title>
<g id="a_Node000017"><a xlink:href="classJ2DPicture.html" target="_top" xlink:title=" ">
<polygon fill="white" stroke="#666666" points="419.5,-152.25 355.5,-152.25 355.5,-133 419.5,-133 419.5,-152.25"/>
<text text-anchor="middle" x="387.5" y="-138.75" font-family="Helvetica,sans-Serif" font-size="10.00">J2DPicture</text>
</a>
</g>
</g>
<!-- Node4&#45;&gt;Node17 -->
<g id="edge21_Node000017_Node000004" class="edge">
<title>Node4&#45;&gt;Node17</title>
<g id="a_edge21_Node000017_Node000004"><a xlink:title=" ">
<path fill="none" stroke="#63b8ff" d="M333.02,-209.16C347.35,-191.92 368.72,-166.22 379.96,-152.7"/>
<polygon fill="#63b8ff" stroke="#63b8ff" points="330.55,-206.65 326.85,-216.58 335.94,-211.13 330.55,-206.65"/>
</a>
</g>
</g>
<!-- Node5 -->
<g id="Node000005" class="node">
<title>Node5</title>
<g id="a_Node000005"><a xlink:href="structJGeometry_1_1TBox2.html" target="_top" xlink:title=" ">
<polygon fill="white" stroke="#666666" points="468.25,-356 342.75,-356 342.75,-336.75 468.25,-336.75 468.25,-356"/>
<text text-anchor="middle" x="405.5" y="-342.5" font-family="Helvetica,sans-Serif" font-size="10.00">JGeometry::TBox2&lt; f32 &gt;</text>
</a>
</g>
</g>
<!-- Node5&#45;&gt;Node4 -->
<g id="edge4_Node000004_Node000005" class="edge">
<title>Node5&#45;&gt;Node4</title>
<g id="a_edge4_Node000004_Node000005"><a xlink:title=" ">
<path fill="none" stroke="#9a32cd" stroke-dasharray="5,2" d="M386.71,-328.78C383.61,-325.61 380.58,-322.2 378,-318.75 364.5,-300.67 366.81,-292.66 354.5,-273.75 345.86,-260.48 334.17,-246.4 326.49,-237.57"/>
<polygon fill="#9a32cd" stroke="#9a32cd" points="384.02,-331.06 393.68,-335.42 388.85,-325.99 384.02,-331.06"/>
</a>
</g>
<text text-anchor="middle" x="412.75" y="-309.25" font-family="Helvetica,sans-Serif" font-size="10.00" fill="grey"> mBounds</text>
<text text-anchor="middle" x="412.75" y="-298" font-family="Helvetica,sans-Serif" font-size="10.00" fill="grey">mClipRect</text>
<text text-anchor="middle" x="412.75" y="-286.75" font-family="Helvetica,sans-Serif" font-size="10.00" fill="grey">mGlobalBounds</text>
<text text-anchor="middle" x="412.75" y="-275.5" font-family="Helvetica,sans-Serif" font-size="10.00" fill="grey">static_mBounds</text>
</g>
<!-- Node6 -->
<g id="Node000006" class="node">
<title>Node6</title>
<g id="a_Node000006"><a xlink:href="structJGeometry_1_1TBox.html" target="_top" xlink:title=" ">
<polygon fill="white" stroke="#666666" points="461.88,-422.5 349.12,-422.5 349.12,-403.25 461.88,-403.25 461.88,-422.5"/>
<text text-anchor="middle" x="405.5" y="-409" font-family="Helvetica,sans-Serif" font-size="10.00">JGeometry::TBox&lt; T &gt;</text>
</a>
</g>
</g>
<!-- Node6&#45;&gt;Node5 -->
<g id="edge5_Node000005_Node000006" class="edge">
<title>Node6&#45;&gt;Node5</title>
<g id="a_edge5_Node000005_Node000006"><a xlink:title=" ">
<path fill="none" stroke="#63b8ff" d="M405.5,-391.4C405.5,-379.57 405.5,-365.29 405.5,-356.27"/>
<polygon fill="#63b8ff" stroke="#63b8ff" points="402,-391.39 405.5,-401.39 409,-391.39 402,-391.39"/>
</a>
</g>
</g>
<!-- Node7 -->
<g id="Node000007" class="node">
<title>Node7</title>
<g id="a_Node000007"><a xlink:href="classJSUTree.html" target="_top" xlink:title=" ">
<polygon fill="white" stroke="#666666" points="208.12,-356 96.88,-356 96.88,-336.75 208.12,-336.75 208.12,-356"/>
<text text-anchor="middle" x="152.5" y="-342.5" font-family="Helvetica,sans-Serif" font-size="10.00">JSUTree&lt; J2DPane &gt;</text>
</a>
</g>
</g>
<!-- Node7&#45;&gt;Node4 -->
<g id="edge6_Node000004_Node000007" class="edge">
<title>Node7&#45;&gt;Node4</title>
<g id="a_edge6_Node000004_Node000007"><a xlink:title=" ">
<path fill="none" stroke="#9a32cd" stroke-dasharray="5,2" d="M184.01,-331.08C189.89,-327.56 195.69,-323.44 200.5,-318.75 217.12,-302.55 209.15,-288.59 227,-273.75 245,-258.78 255.54,-266.17 276.5,-255.75 286.92,-250.57 297.94,-243.39 306.07,-237.71"/>
<polygon fill="#9a32cd" stroke="#9a32cd" points="182.65,-327.84 175.53,-335.69 185.99,-333.99 182.65,-327.84"/>
</a>
</g>
<text text-anchor="middle" x="253.75" y="-292.38" font-family="Helvetica,sans-Serif" font-size="10.00" fill="grey"> mPaneTree</text>
</g>
<!-- Node8 -->
<g id="Node000008" class="node">
<title>Node8</title>
<g id="a_Node000008"><a xlink:href="classJSUList.html" target="_top" xlink:title=" ">
<polygon fill="white" stroke="#666666" points="247.75,-459.75 173.25,-459.75 173.25,-440.5 247.75,-440.5 247.75,-459.75"/>
<text text-anchor="middle" x="210.5" y="-446.25" font-family="Helvetica,sans-Serif" font-size="10.00">JSUList&lt; T &gt;</text>
</a>
</g>
</g>
<!-- Node8&#45;&gt;Node7 -->
<g id="edge7_Node000007_Node000008" class="edge">
<title>Node8&#45;&gt;Node7</title>
<g id="a_edge7_Node000007_Node000008"><a xlink:title=" ">
<path fill="none" stroke="#63b8ff" d="M199.73,-430.23C187.17,-408.19 166.92,-372.67 157.55,-356.24"/>
<polygon fill="#63b8ff" stroke="#63b8ff" points="196.61,-431.83 204.6,-438.78 202.69,-428.36 196.61,-431.83"/>
</a>
</g>
</g>
<!-- Node9 -->
<g id="Node000009" class="node">
<title>Node9</title>
<g id="a_Node000009"><a xlink:href="classJSUPtrList.html" target="_top" xlink:title=" ">
<polygon fill="white" stroke="#666666" points="192.88,-578 128.12,-578 128.12,-558.75 192.88,-558.75 192.88,-578"/>
<text text-anchor="middle" x="160.5" y="-564.5" font-family="Helvetica,sans-Serif" font-size="10.00">JSUPtrList</text>
</a>
</g>
</g>
<!-- Node9&#45;&gt;Node8 -->
<g id="edge8_Node000008_Node000009" class="edge">
<title>Node9&#45;&gt;Node8</title>
<g id="a_edge8_Node000008_Node000009"><a xlink:title=" ">
<path fill="none" stroke="#63b8ff" d="M176.42,-550.02C178.66,-547.06 180.78,-543.92 182.5,-540.75 197.34,-513.38 205.62,-476.96 208.87,-460.23"/>
<polygon fill="#63b8ff" stroke="#63b8ff" points="173.9,-547.58 170.16,-557.49 179.27,-552.07 173.9,-547.58"/>
</a>
</g>
</g>
<!-- Node10 -->
<g id="Node000010" class="node">
<title>Node10</title>
<g id="a_Node000010"><a xlink:href="classJSUPtrLink.html" target="_top" xlink:title=" ">
<polygon fill="white" stroke="#666666" points="137,-498.62 70,-498.62 70,-479.38 137,-479.38 137,-498.62"/>
<text text-anchor="middle" x="103.5" y="-485.12" font-family="Helvetica,sans-Serif" font-size="10.00">JSUPtrLink</text>
</a>
</g>
</g>
<!-- Node9&#45;&gt;Node10 -->
<g id="edge10_Node000010_Node000009" class="edge">
<title>Node9&#45;&gt;Node10</title>
<g id="a_edge10_Node000010_Node000009"><a xlink:title=" ">
<path fill="none" stroke="#9a32cd" stroke-dasharray="5,2" d="M154.09,-547.59C150.44,-538.13 145.24,-526.99 138.5,-518.25 132.69,-510.7 124.46,-503.93 117.45,-498.91"/>
<polygon fill="#9a32cd" stroke="#9a32cd" points="150.76,-548.66 157.38,-556.93 157.36,-546.34 150.76,-548.66"/>
</a>
</g>
<text text-anchor="middle" x="165" y="-525.62" font-family="Helvetica,sans-Serif" font-size="10.00" fill="grey"> mList</text>
</g>
<!-- Node10&#45;&gt;Node9 -->
<g id="edge9_Node000009_Node000010" class="edge">
<title>Node10&#45;&gt;Node9</title>
<g id="a_edge9_Node000009_Node000010"><a xlink:title=" ">
<path fill="none" stroke="#9a32cd" stroke-dasharray="5,2" d="M99.3,-510.35C98.37,-520.26 99.02,-531.91 104.75,-540.75 110.12,-549.03 118.83,-554.8 127.78,-558.79"/>
<polygon fill="#9a32cd" stroke="#9a32cd" points="102.75,-510.99 100.84,-500.57 95.83,-509.91 102.75,-510.99"/>
</a>
</g>
<text text-anchor="middle" x="122.38" y="-531.25" font-family="Helvetica,sans-Serif" font-size="10.00" fill="grey"> mHead</text>
<text text-anchor="middle" x="122.38" y="-520" font-family="Helvetica,sans-Serif" font-size="10.00" fill="grey">mTail</text>
</g>
<!-- Node10&#45;&gt;Node10 -->
<g id="edge11_Node000010_Node000010" class="edge">
<title>Node10&#45;&gt;Node10</title>
<g id="a_edge11_Node000010_Node000010"><a xlink:title=" ">
<path fill="none" stroke="#9a32cd" stroke-dasharray="5,2" d="M148.26,-494.82C152.39,-493.62 155,-491.68 155,-489 155,-484.37 147.2,-481.94 137.18,-481.73"/>
<polygon fill="#9a32cd" stroke="#9a32cd" points="148.14,-491.3 138.68,-496.08 149.05,-498.25 148.14,-491.3"/>
</a>
</g>
<text text-anchor="middle" x="170.38" y="-490.75" font-family="Helvetica,sans-Serif" font-size="10.00" fill="grey"> mNext</text>
<text text-anchor="middle" x="170.38" y="-479.5" font-family="Helvetica,sans-Serif" font-size="10.00" fill="grey">mPrev</text>
</g>
<!-- Node11 -->
<g id="Node000011" class="node">
<title>Node11</title>
<g id="a_Node000011"><a xlink:href="classJSULink.html" target="_top" xlink:title=" ">
<polygon fill="white" stroke="#666666" points="166.88,-422.5 90.12,-422.5 90.12,-403.25 166.88,-403.25 166.88,-422.5"/>
<text text-anchor="middle" x="128.5" y="-409" font-family="Helvetica,sans-Serif" font-size="10.00">JSULink&lt; T &gt;</text>
</a>
</g>
</g>
<!-- Node10&#45;&gt;Node11 -->
<g id="edge13_Node000011_Node000010" class="edge">
<title>Node10&#45;&gt;Node11</title>
<g id="a_edge13_Node000011_Node000010"><a xlink:title=" ">
<path fill="none" stroke="#63b8ff" d="M110.15,-468.27C115.17,-453.4 121.8,-433.73 125.56,-422.58"/>
<polygon fill="#63b8ff" stroke="#63b8ff" points="106.93,-466.88 107.05,-477.48 113.56,-469.12 106.93,-466.88"/>
</a>
</g>
</g>
<!-- Node11&#45;&gt;Node7 -->
<g id="edge12_Node000007_Node000011" class="edge">
<title>Node11&#45;&gt;Node7</title>
<g id="a_edge12_Node000007_Node000011"><a xlink:title=" ">
<path fill="none" stroke="#63b8ff" d="M135.84,-392.15C140.29,-380.18 145.76,-365.48 149.19,-356.27"/>
<polygon fill="#63b8ff" stroke="#63b8ff" points="132.57,-390.9 132.36,-401.49 139.13,-393.34 132.57,-390.9"/>
</a>
</g>
</g>
<!-- Node12 -->
<g id="Node000012" class="node">
<title>Node12</title>
<g id="a_Node000012"><a xlink:href="classJ2DAnmTransform.html" target="_top" xlink:title=" ">
<polygon fill="white" stroke="#666666" points="324.38,-356 226.62,-356 226.62,-336.75 324.38,-336.75 324.38,-356"/>
<text text-anchor="middle" x="275.5" y="-342.5" font-family="Helvetica,sans-Serif" font-size="10.00">J2DAnmTransform</text>
</a>
</g>
</g>
<!-- Node12&#45;&gt;Node4 -->
<g id="edge14_Node000004_Node000012" class="edge">
<title>Node12&#45;&gt;Node4</title>
<g id="a_edge14_Node000004_Node000012"><a xlink:title=" ">
<path fill="none" stroke="#9a32cd" stroke-dasharray="5,2" d="M281.72,-325.85C286.42,-311.38 293.17,-291.22 299.75,-273.75 304.53,-261.05 310.66,-246.6 314.59,-237.54"/>
<polygon fill="#9a32cd" stroke="#9a32cd" points="278.49,-324.45 278.76,-335.04 285.15,-326.6 278.49,-324.45"/>
</a>
</g>
<text text-anchor="middle" x="326.88" y="-292.38" font-family="Helvetica,sans-Serif" font-size="10.00" fill="grey"> mTransform</text>
</g>
<!-- Node13 -->
<g id="Node000013" class="node">
<title>Node13</title>
<g id="a_Node000013"><a xlink:href="structJ2DAnmBase.html" target="_top" xlink:title=" ">
<polygon fill="white" stroke="#666666" points="313.5,-422.5 237.5,-422.5 237.5,-403.25 313.5,-403.25 313.5,-422.5"/>
<text text-anchor="middle" x="275.5" y="-409" font-family="Helvetica,sans-Serif" font-size="10.00">J2DAnmBase</text>
</a>
</g>
</g>
<!-- Node13&#45;&gt;Node12 -->
<g id="edge15_Node000012_Node000013" class="edge">
<title>Node13&#45;&gt;Node12</title>
<g id="a_edge15_Node000012_Node000013"><a xlink:title=" ">
<path fill="none" stroke="#63b8ff" d="M275.5,-391.4C275.5,-379.57 275.5,-365.29 275.5,-356.27"/>
<polygon fill="#63b8ff" stroke="#63b8ff" points="272,-391.39 275.5,-401.39 279,-391.39 272,-391.39"/>
</a>
</g>
</g>
<!-- Node14 -->
<g id="Node000014" class="node">
<title>Node14</title>
<g id="a_Node000014"><a xlink:href="classJUTFont.html" target="_top" xlink:title=" ">
<polygon fill="white" stroke="#666666" points="153.62,-237.25 99.38,-237.25 99.38,-218 153.62,-218 153.62,-237.25"/>
<text text-anchor="middle" x="126.5" y="-223.75" font-family="Helvetica,sans-Serif" font-size="10.00">JUTFont</text>
</a>
</g>
</g>
<!-- Node14&#45;&gt;Node3 -->
<g id="edge16_Node000003_Node000014" class="edge">
<title>Node14&#45;&gt;Node3</title>
<g id="a_edge16_Node000003_Node000014"><a xlink:title=" ">
<path fill="none" stroke="#9a32cd" stroke-dasharray="5,2" d="M128.52,-206.32C130.76,-194.25 135.5,-179.53 145.5,-170.25 164.21,-152.88 192.68,-146.48 215.11,-144.28"/>
<polygon fill="#9a32cd" stroke="#9a32cd" points="125.07,-205.71 127.17,-216.1 132,-206.67 125.07,-205.71"/>
</a>
</g>
<text text-anchor="middle" x="160.5" y="-172" font-family="Helvetica,sans-Serif" font-size="10.00" fill="grey"> mFont</text>
</g>
<!-- Node15 -->
<g id="Node000015" class="node">
<title>Node15</title>
<g id="a_Node000015"><a xlink:href="structJUtility_1_1TColor.html" target="_top" xlink:title=" ">
<polygon fill="white" stroke="#666666" points="79,-356 0,-356 0,-336.75 79,-336.75 79,-356"/>
<text text-anchor="middle" x="39.5" y="-342.5" font-family="Helvetica,sans-Serif" font-size="10.00">JUtility::TColor</text>
</a>
</g>
</g>
<!-- Node15&#45;&gt;Node3 -->
<g id="edge19_Node000003_Node000015" class="edge">
<title>Node15&#45;&gt;Node3</title>
<g id="a_edge19_Node000003_Node000015"><a xlink:title=" ">
<path fill="none" stroke="#9a32cd" stroke-dasharray="5,2" d="M29.62,-326.28C15.51,-296.03 -5.71,-236.72 23,-199.5 46.26,-169.36 157.51,-153.35 214.97,-146.98"/>
<polygon fill="#9a32cd" stroke="#9a32cd" points="26.35,-327.55 33.89,-334.98 32.63,-324.46 26.35,-327.55"/>
</a>
</g>
<text text-anchor="middle" x="57.25" y="-240.62" font-family="Helvetica,sans-Serif" font-size="10.00" fill="grey"> mBlackColor</text>
<text text-anchor="middle" x="57.25" y="-229.38" font-family="Helvetica,sans-Serif" font-size="10.00" fill="grey">mCharColor</text>
<text text-anchor="middle" x="57.25" y="-218.12" font-family="Helvetica,sans-Serif" font-size="10.00" fill="grey">mGradientColor</text>
<text text-anchor="middle" x="57.25" y="-206.88" font-family="Helvetica,sans-Serif" font-size="10.00" fill="grey">mWhiteColor</text>
</g>
<!-- Node15&#45;&gt;Node14 -->
<g id="edge17_Node000014_Node000015" class="edge">
<title>Node15&#45;&gt;Node14</title>
<g id="a_edge17_Node000014_Node000015"><a xlink:title=" ">
<path fill="none" stroke="#9a32cd" stroke-dasharray="5,2" d="M52.67,-327.7C71.55,-302.37 105.58,-256.7 119.88,-237.5"/>
<polygon fill="#9a32cd" stroke="#9a32cd" points="50.11,-325.28 46.94,-335.39 55.73,-329.46 50.11,-325.28"/>
</a>
</g>
<text text-anchor="middle" x="110.62" y="-309.25" font-family="Helvetica,sans-Serif" font-size="10.00" fill="grey"> mColor1</text>
<text text-anchor="middle" x="110.62" y="-298" font-family="Helvetica,sans-Serif" font-size="10.00" fill="grey">mColor2</text>
<text text-anchor="middle" x="110.62" y="-286.75" font-family="Helvetica,sans-Serif" font-size="10.00" fill="grey">mColor3</text>
<text text-anchor="middle" x="110.62" y="-275.5" font-family="Helvetica,sans-Serif" font-size="10.00" fill="grey">mColor4</text>
</g>
<!-- Node15&#45;&gt;Node17 -->
<g id="edge30_Node000017_Node000015" class="edge">
<title>Node15&#45;&gt;Node17</title>
<g id="a_edge30_Node000017_Node000015"><a xlink:title=" ">
<path fill="none" stroke="#9a32cd" stroke-dasharray="5,2" d="M90.17,-334.73C108.45,-330.12 126.34,-324.48 133.5,-318.75 180.6,-281.08 151.36,-237.43 198.25,-199.5 244.33,-162.22 314.55,-149.81 355.25,-145.68"/>
<polygon fill="#9a32cd" stroke="#9a32cd" points="89.52,-331.28 80.61,-337.03 91.15,-338.09 89.52,-331.28"/>
</a>
</g>
<text text-anchor="middle" x="240.12" y="-246.25" font-family="Helvetica,sans-Serif" font-size="10.00" fill="grey"> mBlack</text>
<text text-anchor="middle" x="240.12" y="-235" font-family="Helvetica,sans-Serif" font-size="10.00" fill="grey">mBlendKonstAlpha</text>
<text text-anchor="middle" x="240.12" y="-223.75" font-family="Helvetica,sans-Serif" font-size="10.00" fill="grey">mBlendKonstColor</text>
<text text-anchor="middle" x="240.12" y="-212.5" font-family="Helvetica,sans-Serif" font-size="10.00" fill="grey">mCornerColor</text>
<text text-anchor="middle" x="240.12" y="-201.25" font-family="Helvetica,sans-Serif" font-size="10.00" fill="grey">mWhite</text>
</g>
<!-- Node16 -->
<g id="Node000016" class="node">
<title>Node16</title>
<g id="a_Node000016"><a xlink:href="struct__GXColor.html" target="_top" xlink:title=" ">
<polygon fill="white" stroke="#666666" points="65.88,-422.5 13.12,-422.5 13.12,-403.25 65.88,-403.25 65.88,-422.5"/>
<text text-anchor="middle" x="39.5" y="-409" font-family="Helvetica,sans-Serif" font-size="10.00">GXColor</text>
</a>
</g>
</g>
<!-- Node16&#45;&gt;Node15 -->
<g id="edge18_Node000015_Node000016" class="edge">
<title>Node16&#45;&gt;Node15</title>
<g id="a_edge18_Node000015_Node000016"><a xlink:title=" ">
<path fill="none" stroke="#63b8ff" d="M39.5,-391.4C39.5,-379.57 39.5,-365.29 39.5,-356.27"/>
<polygon fill="#63b8ff" stroke="#63b8ff" points="36,-391.39 39.5,-401.39 43,-391.39 36,-391.39"/>
</a>
</g>
</g>
<!-- Node17&#45;&gt;Node1 -->
<g id="edge20_Node000001_Node000017" class="edge">
<title>Node17&#45;&gt;Node1</title>
<g id="a_edge20_Node000001_Node000017"><a xlink:title=" ">
<path fill="none" stroke="#9a32cd" stroke-dasharray="5,2" d="M374.28,-123.4C353.66,-94.96 314.58,-41.07 299.08,-19.69"/>
<polygon fill="#9a32cd" stroke="#9a32cd" points="371.38,-125.35 380.08,-131.4 377.04,-121.25 371.38,-125.35"/>
</a>
</g>
<text text-anchor="middle" x="364.62" y="-72.25" font-family="Helvetica,sans-Serif" font-size="10.00" fill="grey"> mpPane</text>
</g>
<!-- Node18 -->
<g id="Node000018" class="node">
<title>Node18</title>
<g id="a_Node000018"><a xlink:href="classJUTTexture.html" target="_top" xlink:title=" ">
<polygon fill="white" stroke="#666666" points="589,-237.25 522,-237.25 522,-218 589,-218 589,-237.25"/>
<text text-anchor="middle" x="555.5" y="-223.75" font-family="Helvetica,sans-Serif" font-size="10.00">JUTTexture</text>
</a>
</g>
</g>
<!-- Node18&#45;&gt;Node17 -->
<g id="edge22_Node000017_Node000018" class="edge">
<title>Node18&#45;&gt;Node17</title>
<g id="a_edge22_Node000017_Node000018"><a xlink:title=" ">
<path fill="none" stroke="#9a32cd" stroke-dasharray="5,2" d="M536.96,-210.69C521.62,-198.21 498.81,-181.17 476.5,-170.25 458.54,-161.46 437.1,-154.94 419.76,-150.55"/>
<polygon fill="#9a32cd" stroke="#9a32cd" points="534.38,-213.11 544.31,-216.82 538.86,-207.73 534.38,-213.11"/>
</a>
</g>
<text text-anchor="middle" x="515.88" y="-172" font-family="Helvetica,sans-Serif" font-size="10.00" fill="grey"> mTexture</text>
</g>
<!-- Node19 -->
<g id="Node000019" class="node">
<title>Node19</title>
<g id="a_Node000019"><a xlink:href="struct__GXTexObj.html" target="_top" xlink:title=" ">
<polygon fill="white" stroke="#666666" points="713.62,-356 647.38,-356 647.38,-336.75 713.62,-336.75 713.62,-356"/>
<text text-anchor="middle" x="680.5" y="-342.5" font-family="Helvetica,sans-Serif" font-size="10.00">_GXTexObj</text>
</a>
</g>
</g>
<!-- Node19&#45;&gt;Node18 -->
<g id="edge23_Node000018_Node000019" class="edge">
<title>Node19&#45;&gt;Node18</title>
<g id="a_edge23_Node000018_Node000019"><a xlink:title=" ">
<path fill="none" stroke="#9a32cd" stroke-dasharray="5,2" d="M673.43,-326.04C666.78,-310.18 655.46,-288.1 639.5,-273.75 624.7,-260.44 616.08,-265.08 598.5,-255.75 588.21,-250.28 577.1,-243.24 568.75,-237.71"/>
<polygon fill="#9a32cd" stroke="#9a32cd" points="670.15,-327.26 677.05,-335.3 676.67,-324.71 670.15,-327.26"/>
</a>
</g>
<text text-anchor="middle" x="689.12" y="-292.38" font-family="Helvetica,sans-Serif" font-size="10.00" fill="grey"> mTexObj</text>
</g>
<!-- Node20 -->
<g id="Node000020" class="node">
<title>Node20</title>
<g id="a_Node000020"><a xlink:href="structResTIMG.html" target="_top" xlink:title="Image data header.">
<polygon fill="white" stroke="#666666" points="629.5,-356 571.5,-356 571.5,-336.75 629.5,-336.75 629.5,-356"/>
<text text-anchor="middle" x="600.5" y="-342.5" font-family="Helvetica,sans-Serif" font-size="10.00">ResTIMG</text>
</a>
</g>
</g>
<!-- Node20&#45;&gt;Node18 -->
<g id="edge24_Node000018_Node000020" class="edge">
<title>Node20&#45;&gt;Node18</title>
<g id="a_edge24_Node000018_Node000020"><a xlink:title=" ">
<path fill="none" stroke="#9a32cd" stroke-dasharray="5,2" d="M595.44,-325.66C591.46,-311.09 585.44,-290.89 578.5,-273.75 573.29,-260.87 565.75,-246.7 560.74,-237.74"/>
<polygon fill="#9a32cd" stroke="#9a32cd" points="591.95,-326.15 597.89,-334.92 598.71,-324.36 591.95,-326.15"/>
</a>
</g>
<text text-anchor="middle" x="613.88" y="-292.38" font-family="Helvetica,sans-Serif" font-size="10.00" fill="grey"> mTexInfo</text>
</g>
<!-- Node21 -->
<g id="Node000021" class="node">
<title>Node21</title>
<g id="a_Node000021"><a xlink:href="classJUTPalette.html" target="_top" xlink:title=" ">
<polygon fill="white" stroke="#666666" points="552.25,-356 486.75,-356 486.75,-336.75 552.25,-336.75 552.25,-356"/>
<text text-anchor="middle" x="519.5" y="-342.5" font-family="Helvetica,sans-Serif" font-size="10.00">JUTPalette</text>
</a>
</g>
</g>
<!-- Node21&#45;&gt;Node17 -->
<g id="edge29_Node000017_Node000021" class="edge">
<title>Node21&#45;&gt;Node17</title>
<g id="a_edge29_Node000017_Node000021"><a xlink:title=" ">
<path fill="none" stroke="#9a32cd" stroke-dasharray="5,2" d="M507.41,-326.89C479.86,-284.79 413.27,-183.02 393.27,-152.45"/>
<polygon fill="#9a32cd" stroke="#9a32cd" points="504.43,-328.73 512.83,-335.18 510.28,-324.89 504.43,-328.73"/>
</a>
</g>
<text text-anchor="middle" x="480.12" y="-223.75" font-family="Helvetica,sans-Serif" font-size="10.00" fill="grey"> mPalette</text>
</g>
<!-- Node21&#45;&gt;Node18 -->
<g id="edge25_Node000018_Node000021" class="edge">
<title>Node21&#45;&gt;Node18</title>
<g id="a_edge25_Node000018_Node000021"><a xlink:title=" ">
<path fill="none" stroke="#9a32cd" stroke-dasharray="5,2" d="M516.25,-325.43C514.65,-310.72 514.15,-290.45 520,-273.75 525.07,-259.26 536.89,-245.87 545.5,-237.51"/>
<polygon fill="#9a32cd" stroke="#9a32cd" points="512.76,-325.76 517.6,-335.19 519.7,-324.81 512.76,-325.76"/>
</a>
</g>
<text text-anchor="middle" x="548.75" y="-298" font-family="Helvetica,sans-Serif" font-size="10.00" fill="grey"> field_0x2c</text>
<text text-anchor="middle" x="548.75" y="-286.75" font-family="Helvetica,sans-Serif" font-size="10.00" fill="grey">mEmbPalette</text>
</g>
<!-- Node22 -->
<g id="Node000022" class="node">
<title>Node22</title>
<g id="a_Node000022"><a xlink:href="struct__GXTlutObj.html" target="_top" xlink:title=" ">
<polygon fill="white" stroke="#666666" points="550,-422.5 483,-422.5 483,-403.25 550,-403.25 550,-422.5"/>
<text text-anchor="middle" x="516.5" y="-409" font-family="Helvetica,sans-Serif" font-size="10.00">_GXTlutObj</text>
</a>
</g>
</g>
<!-- Node22&#45;&gt;Node21 -->
<g id="edge26_Node000021_Node000022" class="edge">
<title>Node22&#45;&gt;Node21</title>
<g id="a_edge26_Node000021_Node000022"><a xlink:title=" ">
<path fill="none" stroke="#9a32cd" stroke-dasharray="5,2" d="M517.43,-391.77C517.99,-379.87 518.66,-365.38 519.09,-356.27"/>
<polygon fill="#9a32cd" stroke="#9a32cd" points="513.96,-391.24 516.99,-401.39 520.95,-391.57 513.96,-391.24"/>
</a>
</g>
<text text-anchor="middle" x="538.5" y="-375.75" font-family="Helvetica,sans-Serif" font-size="10.00" fill="grey"> mTlutObj</text>
</g>
<!-- Node23 -->
<g id="Node000023" class="node">
<title>Node23</title>
<g id="a_Node000023"><a xlink:href="structResTLUT.html" target="_top" xlink:title=" ">
<polygon fill="white" stroke="#666666" points="626.88,-422.5 568.12,-422.5 568.12,-403.25 626.88,-403.25 626.88,-422.5"/>
<text text-anchor="middle" x="597.5" y="-409" font-family="Helvetica,sans-Serif" font-size="10.00">ResTLUT</text>
</a>
</g>
</g>
<!-- Node23&#45;&gt;Node21 -->
<g id="edge27_Node000021_Node000023" class="edge">
<title>Node23&#45;&gt;Node21</title>
<g id="a_edge27_Node000021_Node000023"><a xlink:title=" ">
<path fill="none" stroke="#9a32cd" stroke-dasharray="5,2" d="M583.57,-394.23C577.77,-387.48 570.71,-379.97 563.5,-374 555.39,-367.28 545.4,-361.1 537,-356.39"/>
<polygon fill="#9a32cd" stroke="#9a32cd" points="580.58,-396.1 589.64,-401.59 585.98,-391.65 580.58,-396.1"/>
</a>
</g>
<text text-anchor="middle" x="603" y="-375.75" font-family="Helvetica,sans-Serif" font-size="10.00" fill="grey"> mColorTable</text>
</g>
<!-- Node24 -->
<g id="Node000024" class="node">
<title>Node24</title>
<g id="a_Node000024"><a xlink:href="structJGeometry_1_1TVec2.html" target="_top" xlink:title=" ">
<polygon fill="white" stroke="#666666" points="735.75,-237.25 607.25,-237.25 607.25,-218 735.75,-218 735.75,-237.25"/>
<text text-anchor="middle" x="671.5" y="-223.75" font-family="Helvetica,sans-Serif" font-size="10.00">JGeometry::TVec2&lt; s16 &gt;</text>
</a>
</g>
</g>
<!-- Node24&#45;&gt;Node17 -->
<g id="edge28_Node000017_Node000024" class="edge">
<title>Node24&#45;&gt;Node17</title>
<g id="a_edge28_Node000017_Node000024"><a xlink:title=" ">
<path fill="none" stroke="#9a32cd" stroke-dasharray="5,2" d="M644.2,-212.5C618.37,-199.7 578.21,-181.21 541.5,-170.25 500.42,-157.98 451.39,-150.72 419.87,-146.95"/>
<polygon fill="#9a32cd" stroke="#9a32cd" points="642.48,-215.56 652.98,-216.92 645.62,-209.3 642.48,-215.56"/>
</a>
</g>
<text text-anchor="middle" x="595.62" y="-172" font-family="Helvetica,sans-Serif" font-size="10.00" fill="grey"> field_0x10a</text>
</g>
</g>
</svg>
