<?xml version="1.0" encoding="UTF-8" standalone="no"?>
<!DOCTYPE svg PUBLIC "-//W3C//DTD SVG 1.1//EN"
 "http://www.w3.org/Graphics/SVG/1.1/DTD/svg11.dtd">
<!-- Generated by graphviz version 9.0.0 (20230911.1827)
 -->
<!-- Title: dDlst_base_c Pages: 1 -->
<!--zoomable 1507 -->

<svg id="main" version="1.1" xmlns="http://www.w3.org/2000/svg" xmlns:xlink="http://www.w3.org/1999/xlink" xml:space="preserve" onload="init(evt)">
<style type="text/css"><![CDATA[
.node, .edge {opacity: 0.7;}
.node.selected, .edge.selected {opacity: 1;}
.edge:hover path { stroke: red; }
.edge:hover polygon { stroke: red; fill: red; }
]]></style>

<defs>
  <circle id="rim" cx="0" cy="0" r="7"/>
  <circle id="rim2" cx="0" cy="0" r="3.5"/>
  <g id="zoomPlus">
    <use xlink:href="#rim" fill="#404040"><set attributeName="fill" to="#808080" begin="zoomplus.mouseover" end="zoomplus.mouseout"/></use>
    <path d="M-4,0h8M0,-4v8" fill="none" stroke="white" stroke-width="1.5" pointer-events="none"/>
  </g>
  <g id="zoomMin">
    <use xlink:href="#rim" fill="#404040"><set attributeName="fill" to="#808080" begin="zoomminus.mouseover" end="zoomminus.mouseout"/></use>
    <path d="M-4,0h8" fill="none" stroke="white" stroke-width="1.5" pointer-events="none"/>
  </g>
  <g id="arrowUp" transform="translate(30 24)">
    <use xlink:href="#rim"/>
    <path pointer-events="none" fill="none" stroke="white" stroke-width="1.5" d="M0,-3.0v7 M-2.5,-0.5L0,-3.0L2.5,-0.5"/>
  </g>
  <g id="arrowRight" transform="rotate(90) translate(36 -43)">
    <use xlink:href="#rim"/>
    <path pointer-events="none" fill="none" stroke="white" stroke-width="1.5" d="M0,-3.0v7 M-2.5,-0.5L0,-3.0L2.5,-0.5"/>
  </g>
  <g id="arrowDown" transform="rotate(180) translate(-30 -48)">
    <use xlink:href="#rim"/>
    <path pointer-events="none" fill="none" stroke="white" stroke-width="1.5" d="M0,-3.0v7 M-2.5,-0.5L0,-3.0L2.5,-0.5"/>
  </g>
  <g id="arrowLeft" transform="rotate(270) translate(-36 17)">
    <use xlink:href="#rim"/>
    <path pointer-events="none" fill="none" stroke="white" stroke-width="1.5" d="M0,-3.0v7 M-2.5,-0.5L0,-3.0L2.5,-0.5"/>
  </g>
  <g id="resetDef">
    <use xlink:href="#rim2" fill="#404040"><set attributeName="fill" to="#808080" begin="reset.mouseover" end="reset.mouseout"/></use>
  </g>
</defs>
<script type="application/ecmascript">
var viewWidth = 463;
var viewHeight = 1507;
var sectionId = 'dynsection-0';
</script>
<script type="application/ecmascript" xlink:href="svg.min.js"/>
<svg id="graph" class="graph">
<g id="viewport">
<title>dDlst_base_c</title>
<!-- Node1 -->
<g id="Node000001" class="node">
<title>Node1</title>
<g id="a_Node000001"><a xlink:title=" ">
<polygon fill="#999999" stroke="#666666" points="75.25,-759.25 0,-759.25 0,-740 75.25,-740 75.25,-759.25"/>
<text text-anchor="middle" x="37.62" y="-745.75" font-family="Helvetica,sans-Serif" font-size="10.00">dDlst_base_c</text>
</a>
</g>
</g>
<!-- Node2 -->
<g id="Node000002" class="node">
<title>Node2</title>
<g id="a_Node000002"><a xlink:href="classdDlst__2DT2__c.html" target="_top" xlink:title=" ">
<polygon fill="white" stroke="#666666" points="225.5,-1499.25 148,-1499.25 148,-1480 225.5,-1480 225.5,-1499.25"/>
<text text-anchor="middle" x="186.75" y="-1485.75" font-family="Helvetica,sans-Serif" font-size="10.00">dDlst_2DT2_c</text>
</a>
</g>
</g>
<!-- Node1&#45;&gt;Node2 -->
<g id="edge1_Node000001_Node000002" class="edge">
<title>Node1&#45;&gt;Node2</title>
<g id="a_edge1_Node000001_Node000002"><a xlink:title=" ">
<path fill="none" stroke="#63b8ff" d="M39.31,-770.67C43.2,-883.89 63.92,-1417.33 111.25,-1471.62 120.34,-1482.06 134.34,-1486.98 147.76,-1489.16"/>
<polygon fill="#63b8ff" stroke="#63b8ff" points="42.82,-770.9 38.99,-761.02 35.83,-771.13 42.82,-770.9"/>
</a>
</g>
</g>
<!-- Node3 -->
<g id="Node000003" class="node">
<title>Node3</title>
<g id="a_Node000003"><a xlink:href="classdDlst__2DT__c.html" target="_top" xlink:title=" ">
<polygon fill="white" stroke="#666666" points="222.88,-1462.25 150.62,-1462.25 150.62,-1443 222.88,-1443 222.88,-1462.25"/>
<text text-anchor="middle" x="186.75" y="-1448.75" font-family="Helvetica,sans-Serif" font-size="10.00">dDlst_2DT_c</text>
</a>
</g>
</g>
<!-- Node1&#45;&gt;Node3 -->
<g id="edge2_Node000001_Node000003" class="edge">
<title>Node1&#45;&gt;Node3</title>
<g id="a_edge2_Node000001_Node000003"><a xlink:title=" ">
<path fill="none" stroke="#63b8ff" d="M39.44,-770.95C43.87,-881.2 66.37,-1383.42 111.25,-1434.62 120.99,-1445.73 136.28,-1450.59 150.49,-1452.53"/>
<polygon fill="#63b8ff" stroke="#63b8ff" points="42.94,-770.87 39.05,-761.02 35.95,-771.15 42.94,-770.87"/>
</a>
</g>
</g>
<!-- Node4 -->
<g id="Node000004" class="node">
<title>Node4</title>
<g id="a_Node000004"><a xlink:href="classdDlst__2D__c.html" target="_top" xlink:title=" ">
<polygon fill="white" stroke="#666666" points="219.88,-1425.25 153.62,-1425.25 153.62,-1406 219.88,-1406 219.88,-1425.25"/>
<text text-anchor="middle" x="186.75" y="-1411.75" font-family="Helvetica,sans-Serif" font-size="10.00">dDlst_2D_c</text>
</a>
</g>
</g>
<!-- Node1&#45;&gt;Node4 -->
<g id="edge3_Node000001_Node000004" class="edge">
<title>Node1&#45;&gt;Node4</title>
<g id="a_edge3_Node000001_Node000004"><a xlink:title=" ">
<path fill="none" stroke="#63b8ff" d="M39.57,-770.79C44.51,-877.08 68.75,-1349.43 111.25,-1397.62 121.63,-1409.4 138.27,-1414.15 153.2,-1415.84"/>
<polygon fill="#63b8ff" stroke="#63b8ff" points="43.08,-770.8 39.12,-760.97 36.08,-771.12 43.08,-770.8"/>
</a>
</g>
</g>
<!-- Node5 -->
<g id="Node000005" class="node">
<title>Node5</title>
<g id="a_Node000005"><a xlink:href="classdDlst__BrightCheck__c.html" target="_top" xlink:title=" ">
<polygon fill="white" stroke="#666666" points="240.5,-1388.25 133,-1388.25 133,-1369 240.5,-1369 240.5,-1388.25"/>
<text text-anchor="middle" x="186.75" y="-1374.75" font-family="Helvetica,sans-Serif" font-size="10.00">dDlst_BrightCheck_c</text>
</a>
</g>
</g>
<!-- Node1&#45;&gt;Node5 -->
<g id="edge4_Node000001_Node000005" class="edge">
<title>Node1&#45;&gt;Node5</title>
<g id="a_edge4_Node000001_Node000005"><a xlink:title=" ">
<path fill="none" stroke="#63b8ff" d="M39.73,-770.85C45.24,-873.51 71.16,-1315.47 111.25,-1360.62 116.99,-1367.09 124.62,-1371.44 132.81,-1374.32"/>
<polygon fill="#63b8ff" stroke="#63b8ff" points="43.22,-770.68 39.2,-760.88 36.23,-771.05 43.22,-770.68"/>
</a>
</g>
</g>
<!-- Node6 -->
<g id="Node000006" class="node">
<title>Node6</title>
<g id="a_Node000006"><a xlink:href="classdDlst__FileInfo__c.html" target="_top" xlink:title=" ">
<polygon fill="white" stroke="#666666" points="230,-1351.25 143.5,-1351.25 143.5,-1332 230,-1332 230,-1351.25"/>
<text text-anchor="middle" x="186.75" y="-1337.75" font-family="Helvetica,sans-Serif" font-size="10.00">dDlst_FileInfo_c</text>
</a>
</g>
</g>
<!-- Node1&#45;&gt;Node6 -->
<g id="edge5_Node000001_Node000006" class="edge">
<title>Node1&#45;&gt;Node6</title>
<g id="a_edge5_Node000001_Node000006"><a xlink:title=" ">
<path fill="none" stroke="#63b8ff" d="M38.22,-771C36.89,-864.91 36.42,-1239.97 111.25,-1323.62 119.41,-1332.75 131.33,-1337.64 143.25,-1340.16"/>
<polygon fill="#63b8ff" stroke="#63b8ff" points="41.72,-771.24 38.38,-761.19 34.72,-771.13 41.72,-771.24"/>
</a>
</g>
</g>
<!-- Node7 -->
<g id="Node000007" class="node">
<title>Node7</title>
<g id="a_Node000007"><a xlink:href="classdDlst__FileWarn__c.html" target="_top" xlink:title=" ">
<polygon fill="white" stroke="#666666" points="233,-1314.25 140.5,-1314.25 140.5,-1295 233,-1295 233,-1314.25"/>
<text text-anchor="middle" x="186.75" y="-1300.75" font-family="Helvetica,sans-Serif" font-size="10.00">dDlst_FileWarn_c</text>
</a>
</g>
</g>
<!-- Node1&#45;&gt;Node7 -->
<g id="edge6_Node000001_Node000007" class="edge">
<title>Node1&#45;&gt;Node7</title>
<g id="a_edge6_Node000001_Node000007"><a xlink:title=" ">
<path fill="none" stroke="#63b8ff" d="M38.43,-770.75C38.04,-860.46 41.12,-1208.9 111.25,-1286.62 118.74,-1294.92 129.33,-1299.71 140.19,-1302.41"/>
<polygon fill="#63b8ff" stroke="#63b8ff" points="41.93,-770.99 38.49,-760.96 34.93,-770.94 41.93,-770.99"/>
</a>
</g>
</g>
<!-- Node8 -->
<g id="Node000008" class="node">
<title>Node8</title>
<g id="a_Node000008"><a xlink:href="classdDlst__GameOverScrnDraw__c.html" target="_top" xlink:title=" ">
<polygon fill="white" stroke="#666666" points="258.88,-1277.25 114.62,-1277.25 114.62,-1258 258.88,-1258 258.88,-1277.25"/>
<text text-anchor="middle" x="186.75" y="-1263.75" font-family="Helvetica,sans-Serif" font-size="10.00">dDlst_GameOverScrnDraw_c</text>
</a>
</g>
</g>
<!-- Node1&#45;&gt;Node8 -->
<g id="edge7_Node000001_Node000008" class="edge">
<title>Node1&#45;&gt;Node8</title>
<g id="a_edge7_Node000001_Node000008"><a xlink:title=" ">
<path fill="none" stroke="#63b8ff" d="M38.66,-770.92C39.27,-856.98 45.92,-1177.93 111.25,-1249.62 114.12,-1252.77 117.43,-1255.41 121.04,-1257.63"/>
<polygon fill="#63b8ff" stroke="#63b8ff" points="42.17,-771.08 38.62,-761.1 35.17,-771.12 42.17,-771.08"/>
</a>
</g>
</g>
<!-- Node9 -->
<g id="Node000009" class="node">
<title>Node9</title>
<g id="a_Node000009"><a xlink:href="classdDlst__Gameover__CAPTURE__c.html" target="_top" xlink:title=" ">
<polygon fill="white" stroke="#666666" points="262.25,-1240.25 111.25,-1240.25 111.25,-1221 262.25,-1221 262.25,-1240.25"/>
<text text-anchor="middle" x="186.75" y="-1226.75" font-family="Helvetica,sans-Serif" font-size="10.00">dDlst_Gameover_CAPTURE_c</text>
</a>
</g>
</g>
<!-- Node1&#45;&gt;Node9 -->
<g id="edge8_Node000001_Node000009" class="edge">
<title>Node1&#45;&gt;Node9</title>
<g id="a_edge8_Node000001_Node000009"><a xlink:title=" ">
<path fill="none" stroke="#63b8ff" d="M38.94,-770.9C40.58,-852.86 50.66,-1146.89 111.25,-1212.62 114.14,-1215.76 117.46,-1218.39 121.08,-1220.59"/>
<polygon fill="#63b8ff" stroke="#63b8ff" points="42.44,-771.08 38.77,-761.15 35.44,-771.21 42.44,-771.08"/>
</a>
</g>
</g>
<!-- Node10 -->
<g id="Node000010" class="node">
<title>Node10</title>
<g id="a_Node000010"><a xlink:href="classdDlst__KanteraIcon__c.html" target="_top" xlink:title=" ">
<polygon fill="white" stroke="#666666" points="240.12,-1203.25 133.38,-1203.25 133.38,-1184 240.12,-1184 240.12,-1203.25"/>
<text text-anchor="middle" x="186.75" y="-1189.75" font-family="Helvetica,sans-Serif" font-size="10.00">dDlst_KanteraIcon_c</text>
</a>
</g>
</g>
<!-- Node1&#45;&gt;Node10 -->
<g id="edge9_Node000001_Node000010" class="edge">
<title>Node1&#45;&gt;Node10</title>
<g id="a_edge9_Node000001_Node000010"><a xlink:title=" ">
<path fill="none" stroke="#63b8ff" d="M39.25,-770.68C41.97,-848.12 55.34,-1115.77 111.25,-1175.62 117.15,-1181.95 124.86,-1186.22 133.08,-1189.07"/>
<polygon fill="#63b8ff" stroke="#63b8ff" points="42.76,-770.98 38.94,-761.1 35.76,-771.2 42.76,-770.98"/>
</a>
</g>
</g>
<!-- Node11 -->
<g id="Node000011" class="node">
<title>Node11</title>
<g id="a_Node000011"><a xlink:href="classdDlst__MENU__CAPTURE__c.html" target="_top" xlink:title=" ">
<polygon fill="white" stroke="#666666" points="254.38,-1166.25 119.12,-1166.25 119.12,-1147 254.38,-1147 254.38,-1166.25"/>
<text text-anchor="middle" x="186.75" y="-1152.75" font-family="Helvetica,sans-Serif" font-size="10.00">dDlst_MENU_CAPTURE_c</text>
</a>
</g>
</g>
<!-- Node1&#45;&gt;Node11 -->
<g id="edge10_Node000001_Node000011" class="edge">
<title>Node1&#45;&gt;Node11</title>
<g id="a_edge10_Node000001_Node000011"><a xlink:title=" ">
<path fill="none" stroke="#63b8ff" d="M39.62,-770.7C43.51,-843.76 60.06,-1084.68 111.25,-1138.62 114.27,-1141.81 117.75,-1144.47 121.52,-1146.7"/>
<polygon fill="#63b8ff" stroke="#63b8ff" points="43.13,-770.75 39.13,-760.94 36.14,-771.1 43.13,-770.75"/>
</a>
</g>
</g>
<!-- Node12 -->
<g id="Node000012" class="node">
<title>Node12</title>
<g id="a_Node000012"><a xlink:href="classdDlst__MenuSaveExplain__c.html" target="_top" xlink:title=" ">
<polygon fill="white" stroke="#666666" points="252.5,-1129.25 121,-1129.25 121,-1110 252.5,-1110 252.5,-1129.25"/>
<text text-anchor="middle" x="186.75" y="-1115.75" font-family="Helvetica,sans-Serif" font-size="10.00">dDlst_MenuSaveExplain_c</text>
</a>
</g>
</g>
<!-- Node1&#45;&gt;Node12 -->
<g id="edge11_Node000001_Node000012" class="edge">
<title>Node1&#45;&gt;Node12</title>
<g id="a_edge11_Node000001_Node000012"><a xlink:title=" ">
<path fill="none" stroke="#63b8ff" d="M40.09,-770.88C45.24,-839.51 64.8,-1053.58 111.25,-1101.62 114.3,-1104.78 117.81,-1107.42 121.59,-1109.63"/>
<polygon fill="#63b8ff" stroke="#63b8ff" points="43.59,-770.73 39.38,-761.01 36.6,-771.24 43.59,-770.73"/>
</a>
</g>
</g>
<!-- Node13 -->
<g id="Node000013" class="node">
<title>Node13</title>
<g id="a_Node000013"><a xlink:href="classdDlst__MenuSave__c.html" target="_top" xlink:title=" ">
<polygon fill="white" stroke="#666666" points="237.12,-1092.25 136.38,-1092.25 136.38,-1073 237.12,-1073 237.12,-1092.25"/>
<text text-anchor="middle" x="186.75" y="-1078.75" font-family="Helvetica,sans-Serif" font-size="10.00">dDlst_MenuSave_c</text>
</a>
</g>
</g>
<!-- Node1&#45;&gt;Node13 -->
<g id="edge12_Node000001_Node000013" class="edge">
<title>Node1&#45;&gt;Node13</title>
<g id="a_edge12_Node000001_Node000013"><a xlink:title=" ">
<path fill="none" stroke="#63b8ff" d="M40.67,-771.11C47.18,-835.07 69.52,-1022.45 111.25,-1064.62 117.99,-1071.43 126.83,-1075.84 136.06,-1078.65"/>
<polygon fill="#63b8ff" stroke="#63b8ff" points="44.16,-770.85 39.69,-761.24 37.19,-771.53 44.16,-770.85"/>
</a>
</g>
</g>
<!-- Node14 -->
<g id="Node000014" class="node">
<title>Node14</title>
<g id="a_Node000014"><a xlink:href="classdDlst__NameIN__c.html" target="_top" xlink:title=" ">
<polygon fill="white" stroke="#666666" points="232.25,-1055.25 141.25,-1055.25 141.25,-1036 232.25,-1036 232.25,-1055.25"/>
<text text-anchor="middle" x="186.75" y="-1041.75" font-family="Helvetica,sans-Serif" font-size="10.00">dDlst_NameIN_c</text>
</a>
</g>
</g>
<!-- Node1&#45;&gt;Node14 -->
<g id="edge13_Node000001_Node000014" class="edge">
<title>Node1&#45;&gt;Node14</title>
<g id="a_edge13_Node000001_Node000014"><a xlink:title=" ">
<path fill="none" stroke="#63b8ff" d="M41.34,-770.87C49.26,-829.41 74.11,-991.16 111.25,-1027.62 119.23,-1035.46 129.99,-1040.08 140.85,-1042.77"/>
<polygon fill="#63b8ff" stroke="#63b8ff" points="44.85,-770.69 40.07,-761.24 37.91,-771.61 44.85,-770.69"/>
</a>
</g>
</g>
<!-- Node15 -->
<g id="Node000015" class="node">
<title>Node15</title>
<g id="a_Node000015"><a xlink:href="classdDlst__TimerScrnDraw__c.html" target="_top" xlink:title=" ">
<polygon fill="white" stroke="#666666" points="247.62,-1018.25 125.88,-1018.25 125.88,-999 247.62,-999 247.62,-1018.25"/>
<text text-anchor="middle" x="186.75" y="-1004.75" font-family="Helvetica,sans-Serif" font-size="10.00">dDlst_TimerScrnDraw_c</text>
</a>
</g>
</g>
<!-- Node1&#45;&gt;Node15 -->
<g id="edge14_Node000001_Node000015" class="edge">
<title>Node1&#45;&gt;Node15</title>
<g id="a_edge14_Node000001_Node000015"><a xlink:title=" ">
<path fill="none" stroke="#63b8ff" d="M38.42,-771.07C39.21,-818.09 47.99,-930.79 111.25,-990.62 115.41,-994.56 120.27,-997.68 125.48,-1000.14"/>
<polygon fill="#63b8ff" stroke="#63b8ff" points="41.92,-771.15 38.38,-761.17 34.92,-771.18 41.92,-771.15"/>
</a>
</g>
</g>
<!-- Node16 -->
<g id="Node000016" class="node">
<title>Node16</title>
<g id="a_Node000016"><a xlink:href="classdDlst__blo__c.html" target="_top" xlink:title=" ">
<polygon fill="white" stroke="#666666" points="220.25,-981.25 153.25,-981.25 153.25,-962 220.25,-962 220.25,-981.25"/>
<text text-anchor="middle" x="186.75" y="-967.75" font-family="Helvetica,sans-Serif" font-size="10.00">dDlst_blo_c</text>
</a>
</g>
</g>
<!-- Node1&#45;&gt;Node16 -->
<g id="edge15_Node000001_Node000016" class="edge">
<title>Node1&#45;&gt;Node16</title>
<g id="a_edge15_Node000001_Node000016"><a xlink:title=" ">
<path fill="none" stroke="#63b8ff" d="M39.78,-770.87C43.23,-812.43 56.93,-904.72 111.25,-953.62 122.52,-963.77 138.53,-968.45 152.82,-970.52"/>
<polygon fill="#63b8ff" stroke="#63b8ff" points="43.28,-770.73 39.1,-761 36.3,-771.21 43.28,-770.73"/>
</a>
</g>
</g>
<!-- Node17 -->
<g id="Node000017" class="node">
<title>Node17</title>
<g id="a_Node000017"><a xlink:href="classdDlst__daTitle__c.html" target="_top" xlink:title=" ">
<polygon fill="white" stroke="#666666" points="228.5,-944.25 145,-944.25 145,-925 228.5,-925 228.5,-944.25"/>
<text text-anchor="middle" x="186.75" y="-930.75" font-family="Helvetica,sans-Serif" font-size="10.00">dDlst_daTitle_c</text>
</a>
</g>
</g>
<!-- Node1&#45;&gt;Node17 -->
<g id="edge16_Node000001_Node000017" class="edge">
<title>Node1&#45;&gt;Node17</title>
<g id="a_edge16_Node000001_Node000017"><a xlink:title=" ">
<path fill="none" stroke="#63b8ff" d="M41.66,-770.7C47.94,-806.36 65.78,-878.42 111.25,-916.62 120.62,-924.5 132.88,-929.04 144.74,-931.62"/>
<polygon fill="#63b8ff" stroke="#63b8ff" points="45.18,-770.54 40.13,-761.22 38.26,-771.65 45.18,-770.54"/>
</a>
</g>
</g>
<!-- Node18 -->
<g id="Node000018" class="node">
<title>Node18</title>
<g id="a_Node000018"><a xlink:href="classdDlst__effectLine__c.html" target="_top" xlink:title=" ">
<polygon fill="white" stroke="#666666" points="235.25,-907.25 138.25,-907.25 138.25,-888 235.25,-888 235.25,-907.25"/>
<text text-anchor="middle" x="186.75" y="-893.75" font-family="Helvetica,sans-Serif" font-size="10.00">dDlst_effectLine_c</text>
</a>
</g>
</g>
<!-- Node1&#45;&gt;Node18 -->
<g id="edge17_Node000001_Node000018" class="edge">
<title>Node1&#45;&gt;Node18</title>
<g id="a_edge17_Node000001_Node000018"><a xlink:title=" ">
<path fill="none" stroke="#63b8ff" d="M44.46,-770.48C53.68,-799.53 74.49,-851.73 111.25,-879.62 118.99,-885.5 128.37,-889.48 137.83,-892.18"/>
<polygon fill="#63b8ff" stroke="#63b8ff" points="47.85,-769.62 41.63,-761.04 41.14,-771.62 47.85,-769.62"/>
</a>
</g>
</g>
<!-- Node19 -->
<g id="Node000019" class="node">
<title>Node19</title>
<g id="a_Node000019"><a xlink:href="classdDlst__snapShot__c.html" target="_top" xlink:title=" ">
<polygon fill="white" stroke="#666666" points="234.5,-870.25 139,-870.25 139,-851 234.5,-851 234.5,-870.25"/>
<text text-anchor="middle" x="186.75" y="-856.75" font-family="Helvetica,sans-Serif" font-size="10.00">dDlst_snapShot_c</text>
</a>
</g>
</g>
<!-- Node1&#45;&gt;Node19 -->
<g id="edge18_Node000001_Node000019" class="edge">
<title>Node1&#45;&gt;Node19</title>
<g id="a_edge18_Node000001_Node000019"><a xlink:title=" ">
<path fill="none" stroke="#63b8ff" d="M48.82,-769.5C60.83,-790.89 82.8,-824.29 111.25,-842.62 119.53,-847.96 129.24,-851.71 138.88,-854.36"/>
<polygon fill="#63b8ff" stroke="#63b8ff" points="52,-768.04 44.18,-760.89 45.84,-771.36 52,-768.04"/>
</a>
</g>
</g>
<!-- Node20 -->
<g id="Node000020" class="node">
<title>Node20</title>
<g id="a_Node000020"><a xlink:href="structdDrawPath__c.html" target="_top" xlink:title=" ">
<polygon fill="white" stroke="#666666" points="224,-833.25 149.5,-833.25 149.5,-814 224,-814 224,-833.25"/>
<text text-anchor="middle" x="186.75" y="-819.75" font-family="Helvetica,sans-Serif" font-size="10.00">dDrawPath_c</text>
</a>
</g>
</g>
<!-- Node1&#45;&gt;Node20 -->
<g id="edge19_Node000001_Node000020" class="edge">
<title>Node1&#45;&gt;Node20</title>
<g id="a_edge19_Node000001_Node000020"><a xlink:title=" ">
<path fill="none" stroke="#63b8ff" d="M56.66,-767.04C70.54,-779.52 90.76,-795.8 111.25,-805.62 123.01,-811.26 136.68,-815.22 149.08,-817.96"/>
<polygon fill="#63b8ff" stroke="#63b8ff" points="59.34,-764.75 49.63,-760.52 54.58,-769.89 59.34,-764.75"/>
</a>
</g>
</g>
<!-- Node31 -->
<g id="Node000031" class="node">
<title>Node31</title>
<g id="a_Node000031"><a xlink:href="classdMenu__Collect2DTop__c.html" target="_top" xlink:title=" ">
<polygon fill="white" stroke="#666666" points="246.5,-796.25 127,-796.25 127,-777 246.5,-777 246.5,-796.25"/>
<text text-anchor="middle" x="186.75" y="-782.75" font-family="Helvetica,sans-Serif" font-size="10.00">dMenu_Collect2DTop_c</text>
</a>
</g>
</g>
<!-- Node1&#45;&gt;Node31 -->
<g id="edge21_Node000001_Node000031" class="edge">
<title>Node1&#45;&gt;Node31</title>
<g id="a_edge21_Node000001_Node000031"><a xlink:title=" ">
<path fill="none" stroke="#63b8ff" d="M86.55,-762.3C94.78,-764.44 103.26,-766.61 111.25,-768.62 121.7,-771.25 133,-774.02 143.56,-776.58"/>
<polygon fill="#63b8ff" stroke="#63b8ff" points="87.56,-758.95 77,-759.81 85.79,-765.72 87.56,-758.95"/>
</a>
</g>
</g>
<!-- Node32 -->
<g id="Node000032" class="node">
<title>Node32</title>
<g id="a_Node000032"><a xlink:href="classdMenu__Collect2D__c.html" target="_top" xlink:title=" ">
<polygon fill="white" stroke="#666666" points="238.25,-759.25 135.25,-759.25 135.25,-740 238.25,-740 238.25,-759.25"/>
<text text-anchor="middle" x="186.75" y="-745.75" font-family="Helvetica,sans-Serif" font-size="10.00">dMenu_Collect2D_c</text>
</a>
</g>
</g>
<!-- Node1&#45;&gt;Node32 -->
<g id="edge22_Node000001_Node000032" class="edge">
<title>Node1&#45;&gt;Node32</title>
<g id="a_edge22_Node000001_Node000032"><a xlink:title=" ">
<path fill="none" stroke="#63b8ff" d="M86.75,-749.62C102.13,-749.62 119.2,-749.62 134.78,-749.62"/>
<polygon fill="#63b8ff" stroke="#63b8ff" points="86.88,-746.13 76.88,-749.63 86.88,-753.13 86.88,-746.13"/>
</a>
</g>
</g>
<!-- Node33 -->
<g id="Node000033" class="node">
<title>Node33</title>
<g id="a_Node000033"><a xlink:href="structdMenu__DmapBg__c.html" target="_top" xlink:title=" ">
<polygon fill="white" stroke="#666666" points="236,-722.25 137.5,-722.25 137.5,-703 236,-703 236,-722.25"/>
<text text-anchor="middle" x="186.75" y="-708.75" font-family="Helvetica,sans-Serif" font-size="10.00">dMenu_DmapBg_c</text>
</a>
</g>
</g>
<!-- Node1&#45;&gt;Node33 -->
<g id="edge23_Node000001_Node000033" class="edge">
<title>Node1&#45;&gt;Node33</title>
<g id="a_edge23_Node000001_Node000033"><a xlink:title=" ">
<path fill="none" stroke="#63b8ff" d="M86.55,-736.95C94.78,-734.81 103.26,-732.64 111.25,-730.62 121.7,-728 133,-725.23 143.56,-722.67"/>
<polygon fill="#63b8ff" stroke="#63b8ff" points="85.79,-733.53 77,-739.44 87.56,-740.3 85.79,-733.53"/>
</a>
</g>
</g>
<!-- Node34 -->
<g id="Node000034" class="node">
<title>Node34</title>
<g id="a_Node000034"><a xlink:href="classdMenu__Fishing__c.html" target="_top" xlink:title=" ">
<polygon fill="white" stroke="#666666" points="233,-685.25 140.5,-685.25 140.5,-666 233,-666 233,-685.25"/>
<text text-anchor="middle" x="186.75" y="-671.75" font-family="Helvetica,sans-Serif" font-size="10.00">dMenu_Fishing_c</text>
</a>
</g>
</g>
<!-- Node1&#45;&gt;Node34 -->
<g id="edge24_Node000001_Node000034" class="edge">
<title>Node1&#45;&gt;Node34</title>
<g id="a_edge24_Node000001_Node000034"><a xlink:title=" ">
<path fill="none" stroke="#63b8ff" d="M56.66,-732.21C70.54,-719.73 90.76,-703.45 111.25,-693.62 120.25,-689.31 130.37,-685.98 140.18,-683.43"/>
<polygon fill="#63b8ff" stroke="#63b8ff" points="54.58,-729.36 49.63,-738.73 59.34,-734.5 54.58,-729.36"/>
</a>
</g>
</g>
<!-- Node35 -->
<g id="Node000035" class="node">
<title>Node35</title>
<g id="a_Node000035"><a xlink:href="classdMenu__Fmap2DBack__c.html" target="_top" xlink:title=" ">
<polygon fill="white" stroke="#666666" points="246.88,-648.25 126.62,-648.25 126.62,-629 246.88,-629 246.88,-648.25"/>
<text text-anchor="middle" x="186.75" y="-634.75" font-family="Helvetica,sans-Serif" font-size="10.00">dMenu_Fmap2DBack_c</text>
</a>
</g>
</g>
<!-- Node1&#45;&gt;Node35 -->
<g id="edge25_Node000001_Node000035" class="edge">
<title>Node1&#45;&gt;Node35</title>
<g id="a_edge25_Node000001_Node000035"><a xlink:title=" ">
<path fill="none" stroke="#63b8ff" d="M48.82,-729.75C60.83,-708.36 82.8,-674.96 111.25,-656.62 116.17,-653.45 121.6,-650.84 127.22,-648.69"/>
<polygon fill="#63b8ff" stroke="#63b8ff" points="45.84,-727.89 44.18,-738.36 52,-731.21 45.84,-727.89"/>
</a>
</g>
</g>
<!-- Node36 -->
<g id="Node000036" class="node">
<title>Node36</title>
<g id="a_Node000036"><a xlink:href="classdMenu__Fmap2DTop__c.html" target="_top" xlink:title=" ">
<polygon fill="white" stroke="#666666" points="243.88,-611.25 129.62,-611.25 129.62,-592 243.88,-592 243.88,-611.25"/>
<text text-anchor="middle" x="186.75" y="-597.75" font-family="Helvetica,sans-Serif" font-size="10.00">dMenu_Fmap2DTop_c</text>
</a>
</g>
</g>
<!-- Node1&#45;&gt;Node36 -->
<g id="edge26_Node000001_Node000036" class="edge">
<title>Node1&#45;&gt;Node36</title>
<g id="a_edge26_Node000001_Node000036"><a xlink:title=" ">
<path fill="none" stroke="#63b8ff" d="M44.46,-728.77C53.68,-699.72 74.49,-647.52 111.25,-619.62 116.66,-615.52 122.86,-612.34 129.34,-609.87"/>
<polygon fill="#63b8ff" stroke="#63b8ff" points="41.14,-727.63 41.63,-738.21 47.85,-729.63 41.14,-727.63"/>
</a>
</g>
</g>
<!-- Node37 -->
<g id="Node000037" class="node">
<title>Node37</title>
<g id="a_Node000037"><a xlink:href="classdMenu__Insect__c.html" target="_top" xlink:title=" ">
<polygon fill="white" stroke="#666666" points="230.75,-574.25 142.75,-574.25 142.75,-555 230.75,-555 230.75,-574.25"/>
<text text-anchor="middle" x="186.75" y="-560.75" font-family="Helvetica,sans-Serif" font-size="10.00">dMenu_Insect_c</text>
</a>
</g>
</g>
<!-- Node1&#45;&gt;Node37 -->
<g id="edge27_Node000001_Node000037" class="edge">
<title>Node1&#45;&gt;Node37</title>
<g id="a_edge27_Node000001_Node000037"><a xlink:title=" ">
<path fill="none" stroke="#63b8ff" d="M41.66,-728.55C47.94,-692.89 65.78,-620.83 111.25,-582.62 120.01,-575.26 131.29,-570.82 142.41,-568.16"/>
<polygon fill="#63b8ff" stroke="#63b8ff" points="38.26,-727.6 40.13,-738.03 45.18,-728.71 38.26,-727.6"/>
</a>
</g>
</g>
<!-- Node38 -->
<g id="Node000038" class="node">
<title>Node38</title>
<g id="a_Node000038"><a xlink:href="classdMenu__Letter__c.html" target="_top" xlink:title=" ">
<polygon fill="white" stroke="#666666" points="230,-537.25 143.5,-537.25 143.5,-518 230,-518 230,-537.25"/>
<text text-anchor="middle" x="186.75" y="-523.75" font-family="Helvetica,sans-Serif" font-size="10.00">dMenu_Letter_c</text>
</a>
</g>
</g>
<!-- Node1&#45;&gt;Node38 -->
<g id="edge28_Node000001_Node000038" class="edge">
<title>Node1&#45;&gt;Node38</title>
<g id="a_edge28_Node000001_Node000038"><a xlink:title=" ">
<path fill="none" stroke="#63b8ff" d="M39.78,-728.38C43.23,-686.82 56.93,-594.53 111.25,-545.62 120.05,-537.7 131.74,-533.11 143.24,-530.5"/>
<polygon fill="#63b8ff" stroke="#63b8ff" points="36.3,-728.04 39.1,-738.25 43.28,-728.52 36.3,-728.04"/>
</a>
</g>
</g>
<!-- Node39 -->
<g id="Node000039" class="node">
<title>Node39</title>
<g id="a_Node000039"><a xlink:href="classdMenu__Option__c.html" target="_top" xlink:title=" ">
<polygon fill="white" stroke="#666666" points="231.5,-500.25 142,-500.25 142,-481 231.5,-481 231.5,-500.25"/>
<text text-anchor="middle" x="186.75" y="-486.75" font-family="Helvetica,sans-Serif" font-size="10.00">dMenu_Option_c</text>
</a>
</g>
</g>
<!-- Node1&#45;&gt;Node39 -->
<g id="edge29_Node000001_Node000039" class="edge">
<title>Node1&#45;&gt;Node39</title>
<g id="a_edge29_Node000001_Node000039"><a xlink:title=" ">
<path fill="none" stroke="#63b8ff" d="M38.42,-728.18C39.21,-681.16 47.99,-568.46 111.25,-508.62 119.56,-500.76 130.7,-496.15 141.82,-493.49"/>
<polygon fill="#63b8ff" stroke="#63b8ff" points="34.92,-728.07 38.38,-738.08 41.92,-728.1 34.92,-728.07"/>
</a>
</g>
</g>
<!-- Node40 -->
<g id="Node000040" class="node">
<title>Node40</title>
<g id="a_Node000040"><a xlink:href="classdMenu__Ring__c.html" target="_top" xlink:title=" ">
<polygon fill="white" stroke="#666666" points="227,-463.25 146.5,-463.25 146.5,-444 227,-444 227,-463.25"/>
<text text-anchor="middle" x="186.75" y="-449.75" font-family="Helvetica,sans-Serif" font-size="10.00">dMenu_Ring_c</text>
</a>
</g>
</g>
<!-- Node1&#45;&gt;Node40 -->
<g id="edge30_Node000001_Node000040" class="edge">
<title>Node1&#45;&gt;Node40</title>
<g id="a_edge30_Node000001_Node000040"><a xlink:title=" ">
<path fill="none" stroke="#63b8ff" d="M41.34,-728.38C49.26,-669.84 74.11,-508.09 111.25,-471.62 120.56,-462.49 133.65,-457.71 146.28,-455.29"/>
<polygon fill="#63b8ff" stroke="#63b8ff" points="37.91,-727.64 40.07,-738.01 44.85,-728.56 37.91,-727.64"/>
</a>
</g>
</g>
<!-- Node41 -->
<g id="Node000041" class="node">
<title>Node41</title>
<g id="a_Node000041"><a xlink:href="classdMenu__Skill__c.html" target="_top" xlink:title=" ">
<polygon fill="white" stroke="#666666" points="226.62,-426.25 146.88,-426.25 146.88,-407 226.62,-407 226.62,-426.25"/>
<text text-anchor="middle" x="186.75" y="-412.75" font-family="Helvetica,sans-Serif" font-size="10.00">dMenu_Skill_c</text>
</a>
</g>
</g>
<!-- Node1&#45;&gt;Node41 -->
<g id="edge31_Node000001_Node000041" class="edge">
<title>Node1&#45;&gt;Node41</title>
<g id="a_edge31_Node000001_Node000041"><a xlink:title=" ">
<path fill="none" stroke="#63b8ff" d="M40.67,-728.14C47.18,-664.18 69.52,-476.8 111.25,-434.62 120.52,-425.26 133.76,-420.45 146.51,-418.07"/>
<polygon fill="#63b8ff" stroke="#63b8ff" points="37.19,-727.72 39.69,-738.01 44.16,-728.4 37.19,-727.72"/>
</a>
</g>
</g>
<!-- Node42 -->
<g id="Node000042" class="node">
<title>Node42</title>
<g id="a_Node000042"><a xlink:href="classdMeter2Draw__c.html" target="_top" xlink:title=" ">
<polygon fill="white" stroke="#666666" points="228.88,-389.25 144.62,-389.25 144.62,-370 228.88,-370 228.88,-389.25"/>
<text text-anchor="middle" x="186.75" y="-375.75" font-family="Helvetica,sans-Serif" font-size="10.00">dMeter2Draw_c</text>
</a>
</g>
</g>
<!-- Node1&#45;&gt;Node42 -->
<g id="edge32_Node000001_Node000042" class="edge">
<title>Node1&#45;&gt;Node42</title>
<g id="a_edge32_Node000001_Node000042"><a xlink:title=" ">
<path fill="none" stroke="#63b8ff" d="M40.09,-728.37C45.24,-659.74 64.8,-445.67 111.25,-397.62 119.94,-388.63 132.3,-383.82 144.45,-381.32"/>
<polygon fill="#63b8ff" stroke="#63b8ff" points="36.6,-728.01 39.38,-738.24 43.59,-728.52 36.6,-728.01"/>
</a>
</g>
</g>
<!-- Node43 -->
<g id="Node000043" class="node">
<title>Node43</title>
<g id="a_Node000043"><a xlink:href="classdMeterButton__c.html" target="_top" xlink:title=" ">
<polygon fill="white" stroke="#666666" points="229.25,-352.25 144.25,-352.25 144.25,-333 229.25,-333 229.25,-352.25"/>
<text text-anchor="middle" x="186.75" y="-338.75" font-family="Helvetica,sans-Serif" font-size="10.00">dMeterButton_c</text>
</a>
</g>
</g>
<!-- Node1&#45;&gt;Node43 -->
<g id="edge33_Node000001_Node000043" class="edge">
<title>Node1&#45;&gt;Node43</title>
<g id="a_edge33_Node000001_Node000043"><a xlink:title=" ">
<path fill="none" stroke="#63b8ff" d="M39.62,-728.55C43.51,-655.49 60.06,-414.57 111.25,-360.62 119.77,-351.65 131.93,-346.82 143.96,-344.31"/>
<polygon fill="#63b8ff" stroke="#63b8ff" points="36.14,-728.15 39.13,-738.31 43.13,-728.5 36.14,-728.15"/>
</a>
</g>
</g>
<!-- Node44 -->
<g id="Node000044" class="node">
<title>Node44</title>
<g id="a_Node000044"><a xlink:href="classdMeterMap__c.html" target="_top" xlink:title=" ">
<polygon fill="white" stroke="#666666" points="224.38,-315.25 149.12,-315.25 149.12,-296 224.38,-296 224.38,-315.25"/>
<text text-anchor="middle" x="186.75" y="-301.75" font-family="Helvetica,sans-Serif" font-size="10.00">dMeterMap_c</text>
</a>
</g>
</g>
<!-- Node1&#45;&gt;Node44 -->
<g id="edge34_Node000001_Node000044" class="edge">
<title>Node1&#45;&gt;Node44</title>
<g id="a_edge34_Node000001_Node000044"><a xlink:title=" ">
<path fill="none" stroke="#63b8ff" d="M39.25,-728.57C41.97,-651.13 55.34,-383.48 111.25,-323.62 120.88,-313.32 135.31,-308.46 148.91,-306.31"/>
<polygon fill="#63b8ff" stroke="#63b8ff" points="35.76,-728.05 38.94,-738.15 42.76,-728.27 35.76,-728.05"/>
</a>
</g>
</g>
<!-- Node45 -->
<g id="Node000045" class="node">
<title>Node45</title>
<g id="a_Node000045"><a xlink:href="classdMeterSub__c.html" target="_top" xlink:title=" ">
<polygon fill="white" stroke="#666666" points="223.62,-278.25 149.88,-278.25 149.88,-259 223.62,-259 223.62,-278.25"/>
<text text-anchor="middle" x="186.75" y="-264.75" font-family="Helvetica,sans-Serif" font-size="10.00">dMeterSub_c</text>
</a>
</g>
</g>
<!-- Node1&#45;&gt;Node45 -->
<g id="edge35_Node000001_Node000045" class="edge">
<title>Node1&#45;&gt;Node45</title>
<g id="a_edge35_Node000001_Node000045"><a xlink:title=" ">
<path fill="none" stroke="#63b8ff" d="M38.94,-728.35C40.58,-646.39 50.66,-352.36 111.25,-286.62 120.99,-276.06 135.77,-271.2 149.61,-269.12"/>
<polygon fill="#63b8ff" stroke="#63b8ff" points="35.44,-728.04 38.77,-738.1 42.44,-728.17 35.44,-728.04"/>
</a>
</g>
</g>
<!-- Node50 -->
<g id="Node000050" class="node">
<title>Node50</title>
<g id="a_Node000050"><a xlink:href="classdMsgScrnBase__c.html" target="_top" xlink:title=" ">
<polygon fill="#fff0f0" stroke="red" points="233.38,-241.25 140.12,-241.25 140.12,-222 233.38,-222 233.38,-241.25"/>
<text text-anchor="middle" x="186.75" y="-227.75" font-family="Helvetica,sans-Serif" font-size="10.00">dMsgScrnBase_c</text>
</a>
</g>
</g>
<!-- Node1&#45;&gt;Node50 -->
<g id="edge40_Node000001_Node000050" class="edge">
<title>Node1&#45;&gt;Node50</title>
<g id="a_edge40_Node000001_Node000050"><a xlink:title=" ">
<path fill="none" stroke="#63b8ff" d="M38.66,-728.33C39.27,-642.27 45.92,-321.32 111.25,-249.62 118.69,-241.46 129.14,-236.7 139.86,-233.99"/>
<polygon fill="#63b8ff" stroke="#63b8ff" points="35.17,-728.13 38.62,-738.15 42.17,-728.17 35.17,-728.13"/>
</a>
</g>
</g>
<!-- Node60 -->
<g id="Node000060" class="node">
<title>Node60</title>
<g id="a_Node000060"><a xlink:href="classdOvlpFd2__dlst__c.html" target="_top" xlink:title=" ">
<polygon fill="white" stroke="#666666" points="231.5,-204.25 142,-204.25 142,-185 231.5,-185 231.5,-204.25"/>
<text text-anchor="middle" x="186.75" y="-190.75" font-family="Helvetica,sans-Serif" font-size="10.00">dOvlpFd2_dlst_c</text>
</a>
</g>
</g>
<!-- Node1&#45;&gt;Node60 -->
<g id="edge43_Node000001_Node000060" class="edge">
<title>Node1&#45;&gt;Node60</title>
<g id="a_edge43_Node000001_Node000060"><a xlink:title=" ">
<path fill="none" stroke="#63b8ff" d="M38.43,-728.5C38.04,-638.79 41.12,-290.35 111.25,-212.62 119.09,-203.93 130.35,-199.09 141.74,-196.47"/>
<polygon fill="#63b8ff" stroke="#63b8ff" points="34.93,-728.31 38.49,-738.29 41.93,-728.26 34.93,-728.31"/>
</a>
</g>
</g>
<!-- Node61 -->
<g id="Node000061" class="node">
<title>Node61</title>
<g id="a_Node000061"><a xlink:href="classdOvlpFd3__dlst__c.html" target="_top" xlink:title=" ">
<polygon fill="white" stroke="#666666" points="231.5,-167.25 142,-167.25 142,-148 231.5,-148 231.5,-167.25"/>
<text text-anchor="middle" x="186.75" y="-153.75" font-family="Helvetica,sans-Serif" font-size="10.00">dOvlpFd3_dlst_c</text>
</a>
</g>
</g>
<!-- Node1&#45;&gt;Node61 -->
<g id="edge44_Node000001_Node000061" class="edge">
<title>Node1&#45;&gt;Node61</title>
<g id="a_edge44_Node000001_Node000061"><a xlink:title=" ">
<path fill="none" stroke="#63b8ff" d="M38.22,-728.25C36.89,-634.34 36.42,-259.28 111.25,-175.62 119.06,-166.9 130.3,-162.04 141.69,-159.43"/>
<polygon fill="#63b8ff" stroke="#63b8ff" points="34.72,-728.12 38.38,-738.06 41.72,-728.01 34.72,-728.12"/>
</a>
</g>
</g>
<!-- Node62 -->
<g id="Node000062" class="node">
<title>Node62</title>
<g id="a_Node000062"><a xlink:href="classdSelect__cursor__c.html" target="_top" xlink:title=" ">
<polygon fill="white" stroke="#666666" points="232.62,-130.25 140.88,-130.25 140.88,-111 232.62,-111 232.62,-130.25"/>
<text text-anchor="middle" x="186.75" y="-116.75" font-family="Helvetica,sans-Serif" font-size="10.00">dSelect_cursor_c</text>
</a>
</g>
</g>
<!-- Node1&#45;&gt;Node62 -->
<g id="edge45_Node000001_Node000062" class="edge">
<title>Node1&#45;&gt;Node62</title>
<g id="a_edge45_Node000001_Node000062"><a xlink:title=" ">
<path fill="none" stroke="#63b8ff" d="M39.73,-728.4C45.24,-625.74 71.16,-183.78 111.25,-138.62 118.76,-130.17 129.49,-125.34 140.49,-122.67"/>
<polygon fill="#63b8ff" stroke="#63b8ff" points="36.23,-728.2 39.2,-738.37 43.22,-728.57 36.23,-728.2"/>
</a>
</g>
</g>
<!-- Node63 -->
<g id="Node000063" class="node">
<title>Node63</title>
<g id="a_Node000063"><a xlink:href="classdaAlink__lockCursor__c.html" target="_top" xlink:title=" ">
<polygon fill="white" stroke="#666666" points="242,-93.25 131.5,-93.25 131.5,-74 242,-74 242,-93.25"/>
<text text-anchor="middle" x="186.75" y="-79.75" font-family="Helvetica,sans-Serif" font-size="10.00">daAlink_lockCursor_c</text>
</a>
</g>
</g>
<!-- Node1&#45;&gt;Node63 -->
<g id="edge46_Node000001_Node000063" class="edge">
<title>Node1&#45;&gt;Node63</title>
<g id="a_edge46_Node000001_Node000063"><a xlink:title=" ">
<path fill="none" stroke="#63b8ff" d="M39.57,-728.46C44.51,-622.17 68.75,-149.82 111.25,-101.62 116.62,-95.54 123.66,-91.33 131.27,-88.45"/>
<polygon fill="#63b8ff" stroke="#63b8ff" points="36.08,-728.13 39.12,-738.28 43.08,-728.45 36.08,-728.13"/>
</a>
</g>
</g>
<!-- Node64 -->
<g id="Node000064" class="node">
<title>Node64</title>
<g id="a_Node000064"><a xlink:href="classdaBalloon2D__c_1_1c__list.html" target="_top" xlink:title=" ">
<polygon fill="white" stroke="#666666" points="241.25,-56.25 132.25,-56.25 132.25,-37 241.25,-37 241.25,-56.25"/>
<text text-anchor="middle" x="186.75" y="-42.75" font-family="Helvetica,sans-Serif" font-size="10.00">daBalloon2D_c::c_list</text>
</a>
</g>
</g>
<!-- Node1&#45;&gt;Node64 -->
<g id="edge47_Node000001_Node000064" class="edge">
<title>Node1&#45;&gt;Node64</title>
<g id="a_edge47_Node000001_Node000064"><a xlink:title=" ">
<path fill="none" stroke="#63b8ff" d="M39.44,-728.3C43.87,-618.05 66.37,-115.83 111.25,-64.62 116.78,-58.32 124.09,-54.03 131.99,-51.14"/>
<polygon fill="#63b8ff" stroke="#63b8ff" points="35.95,-728.1 39.05,-738.23 42.94,-728.38 35.95,-728.1"/>
</a>
</g>
</g>
<!-- Node65 -->
<g id="Node000065" class="node">
<title>Node65</title>
<g id="a_Node000065"><a xlink:href="classdaPy__sightPacket__c.html" target="_top" xlink:title=" ">
<polygon fill="#fff0f0" stroke="red" points="239.38,-19.25 134.12,-19.25 134.12,0 239.38,0 239.38,-19.25"/>
<text text-anchor="middle" x="186.75" y="-5.75" font-family="Helvetica,sans-Serif" font-size="10.00">daPy_sightPacket_c</text>
</a>
</g>
</g>
<!-- Node1&#45;&gt;Node65 -->
<g id="edge48_Node000001_Node000065" class="edge">
<title>Node1&#45;&gt;Node65</title>
<g id="a_edge48_Node000001_Node000065"><a xlink:title=" ">
<path fill="none" stroke="#63b8ff" d="M39.31,-728.58C43.2,-615.36 63.92,-81.92 111.25,-27.62 117.2,-20.8 125.24,-16.34 133.85,-13.45"/>
<polygon fill="#63b8ff" stroke="#63b8ff" points="35.83,-728.12 38.99,-738.23 42.82,-728.35 35.83,-728.12"/>
</a>
</g>
</g>
<!-- Node21 -->
<g id="Node000021" class="node">
<title>Node21</title>
<g id="a_Node000021"><a xlink:href="classdDrawPathWithNormalPattern__c.html" target="_top" xlink:title=" ">
<polygon fill="#fff0f0" stroke="red" points="455.25,-833.25 298.25,-833.25 298.25,-814 455.25,-814 455.25,-833.25"/>
<text text-anchor="middle" x="376.75" y="-819.75" font-family="Helvetica,sans-Serif" font-size="10.00">dDrawPathWithNormalPattern_c</text>
</a>
</g>
</g>
<!-- Node20&#45;&gt;Node21 -->
<g id="edge20_Node000020_Node000021" class="edge">
<title>Node20&#45;&gt;Node21</title>
<g id="a_edge20_Node000020_Node000021"><a xlink:title=" ">
<path fill="none" stroke="#63b8ff" d="M235.75,-823.62C254.65,-823.62 276.85,-823.62 297.92,-823.62"/>
<polygon fill="#63b8ff" stroke="#63b8ff" points="235.96,-820.13 225.96,-823.63 235.96,-827.13 235.96,-820.13"/>
</a>
</g>
</g>
<!-- Node46 -->
<g id="Node000046" class="node">
<title>Node46</title>
<g id="a_Node000046"><a xlink:href="classdMeterHaihai__c.html" target="_top" xlink:title=" ">
<polygon fill="white" stroke="#666666" points="418.88,-371.25 334.62,-371.25 334.62,-352 418.88,-352 418.88,-371.25"/>
<text text-anchor="middle" x="376.75" y="-357.75" font-family="Helvetica,sans-Serif" font-size="10.00">dMeterHaihai_c</text>
</a>
</g>
</g>
<!-- Node45&#45;&gt;Node46 -->
<g id="edge36_Node000045_Node000046" class="edge">
<title>Node45&#45;&gt;Node46</title>
<g id="a_edge36_Node000045_Node000046"><a xlink:title=" ">
<path fill="none" stroke="#63b8ff" d="M235.03,-274.28C244.64,-276.96 254.25,-280.88 262.25,-286.62 286.6,-304.09 273.83,-326.27 298.25,-343.62 308.72,-351.07 321.81,-355.48 334.24,-358.08"/>
<polygon fill="#63b8ff" stroke="#63b8ff" points="235.85,-270.87 225.31,-272.01 234.26,-277.69 235.85,-270.87"/>
</a>
</g>
</g>
<!-- Node47 -->
<g id="Node000047" class="node">
<title>Node47</title>
<g id="a_Node000047"><a xlink:href="classdMeterHakusha__c.html" target="_top" xlink:title=" ">
<polygon fill="white" stroke="#666666" points="424.5,-334.25 329,-334.25 329,-315 424.5,-315 424.5,-334.25"/>
<text text-anchor="middle" x="376.75" y="-320.75" font-family="Helvetica,sans-Serif" font-size="10.00">dMeterHakusha_c</text>
</a>
</g>
</g>
<!-- Node45&#45;&gt;Node47 -->
<g id="edge37_Node000045_Node000047" class="edge">
<title>Node45&#45;&gt;Node47</title>
<g id="a_edge37_Node000045_Node000047"><a xlink:title=" ">
<path fill="none" stroke="#63b8ff" d="M234.97,-277.99C244.16,-280.39 253.61,-283.25 262.25,-286.62 279.3,-293.28 281.17,-300.05 298.25,-306.62 307.92,-310.35 318.57,-313.44 328.81,-315.94"/>
<polygon fill="#63b8ff" stroke="#63b8ff" points="235.99,-274.64 225.44,-275.67 234.33,-281.44 235.99,-274.64"/>
</a>
</g>
</g>
<!-- Node48 -->
<g id="Node000048" class="node">
<title>Node48</title>
<g id="a_Node000048"><a xlink:href="classdMeterString__c.html" target="_top" xlink:title=" ">
<polygon fill="white" stroke="#666666" points="417.75,-297.25 335.75,-297.25 335.75,-278 417.75,-278 417.75,-297.25"/>
<text text-anchor="middle" x="376.75" y="-283.75" font-family="Helvetica,sans-Serif" font-size="10.00">dMeterString_c</text>
</a>
</g>
</g>
<!-- Node45&#45;&gt;Node48 -->
<g id="edge38_Node000045_Node000048" class="edge">
<title>Node45&#45;&gt;Node48</title>
<g id="a_edge38_Node000045_Node000048"><a xlink:title=" ">
<path fill="none" stroke="#63b8ff" d="M235.36,-273.44C266.24,-276.56 306.04,-280.58 335.38,-283.54"/>
<polygon fill="#63b8ff" stroke="#63b8ff" points="235.81,-269.96 225.5,-272.44 235.1,-276.93 235.81,-269.96"/>
</a>
</g>
</g>
<!-- Node49 -->
<g id="Node000049" class="node">
<title>Node49</title>
<g id="a_Node000049"><a xlink:href="classdScope__c.html" target="_top" xlink:title=" ">
<polygon fill="white" stroke="#666666" points="406.5,-260.25 347,-260.25 347,-241 406.5,-241 406.5,-260.25"/>
<text text-anchor="middle" x="376.75" y="-246.75" font-family="Helvetica,sans-Serif" font-size="10.00">dScope_c</text>
</a>
</g>
</g>
<!-- Node45&#45;&gt;Node49 -->
<g id="edge39_Node000045_Node000049" class="edge">
<title>Node45&#45;&gt;Node49</title>
<g id="a_edge39_Node000045_Node000049"><a xlink:title=" ">
<path fill="none" stroke="#63b8ff" d="M235.41,-264.06C270.48,-260.7 317.03,-256.25 346.7,-253.41"/>
<polygon fill="#63b8ff" stroke="#63b8ff" points="235.13,-260.57 225.5,-265.01 235.79,-267.54 235.13,-260.57"/>
</a>
</g>
</g>
<!-- Node51 -->
<g id="Node000051" class="node">
<title>Node51</title>
<g id="a_Node000051"><a xlink:href="classdMsgScrnBoss__c.html" target="_top" xlink:title=" ">
<polygon fill="white" stroke="#666666" points="423.38,-223.25 330.12,-223.25 330.12,-204 423.38,-204 423.38,-223.25"/>
<text text-anchor="middle" x="376.75" y="-209.75" font-family="Helvetica,sans-Serif" font-size="10.00">dMsgScrnBoss_c</text>
</a>
</g>
</g>
<!-- Node50&#45;&gt;Node51 -->
<g id="edge41_Node000050_Node000051" class="edge">
<title>Node50&#45;&gt;Node51</title>
<g id="a_edge41_Node000050_Node000051"><a xlink:title=" ">
<path fill="none" stroke="#63b8ff" d="M245.07,-226.14C272.28,-223.53 304.35,-220.46 329.91,-218.01"/>
<polygon fill="#63b8ff" stroke="#63b8ff" points="244.87,-222.64 235.25,-227.08 245.53,-229.61 244.87,-222.64"/>
</a>
</g>
</g>
<!-- Node52 -->
<g id="Node000052" class="node">
<title>Node52</title>
<g id="a_Node000052"><a xlink:href="structdMsgScrnHowl__c.html" target="_top" xlink:title=" ">
<polygon fill="white" stroke="#666666" points="423.38,-186.25 330.12,-186.25 330.12,-167 423.38,-167 423.38,-186.25"/>
<text text-anchor="middle" x="376.75" y="-172.75" font-family="Helvetica,sans-Serif" font-size="10.00">dMsgScrnHowl_c</text>
</a>
</g>
</g>
<!-- Node50&#45;&gt;Node52 -->
<g id="edge42_Node000050_Node000052" class="edge">
<title>Node50&#45;&gt;Node52</title>
<g id="a_edge42_Node000050_Node000052"><a xlink:title=" ">
<path fill="none" stroke="#63b8ff" d="M244.49,-219.48C250.55,-217.72 256.57,-215.77 262.25,-213.62 279.17,-207.23 281.3,-200.95 298.25,-194.62 308.22,-190.91 319.2,-187.8 329.68,-185.27"/>
<polygon fill="#63b8ff" stroke="#63b8ff" points="243.79,-216.05 235.06,-222.05 245.63,-222.8 243.79,-216.05"/>
</a>
</g>
</g>
</g>
</svg>

<g id="navigator" transform="translate(0 0)" fill="#404254">
  <rect fill="#f2f5e9" fill-opacity="0.5" stroke="#606060" stroke-width=".5" x="0" y="0" width="60" height="60"/>
  <use id="zoomplus" xlink:href="#zoomPlus" x="17" y="9" onmousedown="handleZoom(evt,'in')"/>
  <use id="zoomminus" xlink:href="#zoomMin" x="42" y="9" onmousedown="handleZoom(evt,'out')"/>
  <use id="reset" xlink:href="#resetDef" x="30" y="36" onmousedown="handleReset()"/>
   <use id="arrowup" xlink:href="#arrowUp" x="0" y="0" onmousedown="handlePan(0,-1)"/>
  <use id="arrowright" xlink:href="#arrowRight" x="0" y="0" onmousedown="handlePan(1,0)"/>
  <use id="arrowdown" xlink:href="#arrowDown" x="0" y="0" onmousedown="handlePan(0,1)"/>
  <use id="arrowleft" xlink:href="#arrowLeft" x="0" y="0" onmousedown="handlePan(-1,0)"/>
</g>
<svg viewBox="0 0 15 15" width="100%" height="30px" preserveAspectRatio="xMaxYMin meet">
 <g id="arrow_out" transform="scale(0.3 0.3)">
  <a xlink:href="classdDlst__base__c__inherit__graph_org.svg" target="_base">
   <rect id="button" ry="5" rx="5" y="6" x="6" height="38" width="38"
        fill="#f2f5e9" fill-opacity="0.5" stroke="#606060" stroke-width="1.0"/>
   <path id="arrow"
     d="M 11.500037,31.436501 C 11.940474,20.09759 22.043105,11.32322 32.158766,21.979434 L 37.068811,17.246167 C 37.068811,17.246167 37.088388,32 37.088388,32 L 22.160133,31.978069 C 22.160133,31.978069 26.997745,27.140456 26.997745,27.140456 C 18.528582,18.264221 13.291696,25.230495 11.500037,31.436501 z"
     style="fill:#404040;"/>
  </a>
 </g>
</svg>

<style type='text/css'>
<![CDATA[
[data-mouse-over-selected='false'] { opacity: 0.7; }
[data-mouse-over-selected='true']  { opacity: 1.0; }
]]>
</style>
<script type="application/ecmascript"><![CDATA[
document.addEventListener('DOMContentLoaded', (event) => {
  highlightEdges();
  highlightAdjacentNodes();
});
]]></script>
</svg>
