<?xml version="1.0" encoding="UTF-8" standalone="no"?>
<!DOCTYPE svg PUBLIC "-//W3C//DTD SVG 1.1//EN"
 "http://www.w3.org/Graphics/SVG/1.1/DTD/svg11.dtd">
<!-- Generated by graphviz version 9.0.0 (20230911.1827)
 -->
<!-- Title: cCcD_CpsAttr Pages: 1 -->
<svg width="180pt" height="193pt"
 viewBox="0.00 0.00 179.75 193.00" xmlns="http://www.w3.org/2000/svg" xmlns:xlink="http://www.w3.org/1999/xlink">

<svg id="main" version="1.1" xmlns="http://www.w3.org/2000/svg" xmlns:xlink="http://www.w3.org/1999/xlink" xml:space="preserve" onload="init(evt)">
<style type="text/css"><![CDATA[
.node, .edge {opacity: 0.7;}
.node.selected, .edge.selected {opacity: 1;}
.edge:hover path { stroke: red; }
.edge:hover polygon { stroke: red; fill: red; }
]]></style>
<script type="application/ecmascript" xlink:href="svg.min.js"/>
<svg id="graph" class="graph">
<g id="graph0" class="graph" transform="scale(1 1) rotate(0) translate(4 189)">
<title>cCcD_CpsAttr</title>
<!-- Node1 -->
<g id="Node000001" class="node">
<title>Node1</title>
<g id="a_Node000001"><a xlink:title=" ">
<polygon fill="#999999" stroke="#666666" points="130.5,-74.5 52.25,-74.5 52.25,-55.25 130.5,-55.25 130.5,-74.5"/>
<text text-anchor="middle" x="91.38" y="-61" font-family="Helvetica,sans-Serif" font-size="10.00">cCcD_CpsAttr</text>
</a>
</g>
</g>
<!-- Node5 -->
<g id="Node000005" class="node">
<title>Node5</title>
<g id="a_Node000005"><a xlink:href="classdCcD__Cps.html" target="_top" xlink:title=" ">
<polygon fill="white" stroke="#666666" points="122.62,-19.25 60.12,-19.25 60.12,0 122.62,0 122.62,-19.25"/>
<text text-anchor="middle" x="91.38" y="-5.75" font-family="Helvetica,sans-Serif" font-size="10.00">dCcD_Cps</text>
</a>
</g>
</g>
<!-- Node1&#45;&gt;Node5 -->
<g id="edge4_Node000001_Node000005" class="edge">
<title>Node1&#45;&gt;Node5</title>
<g id="a_edge4_Node000001_Node000005"><a xlink:title=" ">
<path fill="none" stroke="#63b8ff" d="M91.38,-43.63C91.38,-35.34 91.38,-26.17 91.38,-19.61"/>
<polygon fill="#63b8ff" stroke="#63b8ff" points="87.88,-43.57 91.38,-53.57 94.88,-43.57 87.88,-43.57"/>
</a>
</g>
</g>
<!-- Node2 -->
<g id="Node000002" class="node">
<title>Node2</title>
<g id="a_Node000002"><a xlink:href="classcCcD__ShapeAttr.html" target="_top" xlink:title=" ">
<polygon fill="white" stroke="#666666" points="88.75,-129.75 0,-129.75 0,-110.5 88.75,-110.5 88.75,-129.75"/>
<text text-anchor="middle" x="44.38" y="-116.25" font-family="Helvetica,sans-Serif" font-size="10.00">cCcD_ShapeAttr</text>
</a>
</g>
</g>
<!-- Node2&#45;&gt;Node1 -->
<g id="edge1_Node000001_Node000002" class="edge">
<title>Node2&#45;&gt;Node1</title>
<g id="a_edge1_Node000001_Node000002"><a xlink:title=" ">
<path fill="none" stroke="#63b8ff" d="M59.7,-101.76C67.63,-92.78 76.97,-82.2 83.45,-74.86"/>
<polygon fill="#63b8ff" stroke="#63b8ff" points="57.13,-99.38 53.14,-109.2 62.38,-104.02 57.13,-99.38"/>
</a>
</g>
</g>
<!-- Node3 -->
<g id="Node000003" class="node">
<title>Node3</title>
<g id="a_Node000003"><a xlink:href="classcM3dGCps.html" target="_top" xlink:title=" ">
<polygon fill="white" stroke="#666666" points="171.75,-129.75 107,-129.75 107,-110.5 171.75,-110.5 171.75,-129.75"/>
<text text-anchor="middle" x="139.38" y="-116.25" font-family="Helvetica,sans-Serif" font-size="10.00">cM3dGCps</text>
</a>
</g>
</g>
<!-- Node3&#45;&gt;Node1 -->
<g id="edge2_Node000001_Node000003" class="edge">
<title>Node3&#45;&gt;Node1</title>
<g id="a_edge2_Node000001_Node000003"><a xlink:title=" ">
<path fill="none" stroke="#63b8ff" d="M123.98,-102.04C115.83,-93 106.16,-82.27 99.47,-74.86"/>
<polygon fill="#63b8ff" stroke="#63b8ff" points="121.14,-104.12 130.44,-109.21 126.34,-99.44 121.14,-104.12"/>
</a>
</g>
</g>
<!-- Node4 -->
<g id="Node000004" class="node">
<title>Node4</title>
<g id="a_Node000004"><a xlink:href="structcM3dGLin.html" target="_top" xlink:title=" ">
<polygon fill="white" stroke="#666666" points="169.88,-185 108.88,-185 108.88,-165.75 169.88,-165.75 169.88,-185"/>
<text text-anchor="middle" x="139.38" y="-171.5" font-family="Helvetica,sans-Serif" font-size="10.00">cM3dGLin</text>
</a>
</g>
</g>
<!-- Node4&#45;&gt;Node3 -->
<g id="edge3_Node000003_Node000004" class="edge">
<title>Node4&#45;&gt;Node3</title>
<g id="a_edge3_Node000003_Node000004"><a xlink:title=" ">
<path fill="none" stroke="#63b8ff" d="M139.38,-154.13C139.38,-145.84 139.38,-136.67 139.38,-130.11"/>
<polygon fill="#63b8ff" stroke="#63b8ff" points="135.88,-154.07 139.38,-164.07 142.88,-154.07 135.88,-154.07"/>
</a>
</g>
</g>
</g>
</svg>
</svg>

<style type='text/css'>
<![CDATA[
[data-mouse-over-selected='false'] { opacity: 0.7; }
[data-mouse-over-selected='true']  { opacity: 1.0; }
]]>
</style>
<script type="application/ecmascript"><![CDATA[
document.addEventListener('DOMContentLoaded', (event) => {
  highlightEdges();
  highlightAdjacentNodes();
});
]]></script>
</svg>
