<?xml version="1.0" encoding="UTF-8" standalone="no"?>
<!DOCTYPE svg PUBLIC "-//W3C//DTD SVG 1.1//EN"
 "http://www.w3.org/Graphics/SVG/1.1/DTD/svg11.dtd">
<!-- Generated by graphviz version 9.0.0 (20230911.1827)
 -->
<!-- Title: COutFontSet_c Pages: 1 -->
<!--zoomable 498 -->

<svg id="main" version="1.1" xmlns="http://www.w3.org/2000/svg" xmlns:xlink="http://www.w3.org/1999/xlink" xml:space="preserve" onload="init(evt)">
<style type="text/css"><![CDATA[
.node, .edge {opacity: 0.7;}
.node.selected, .edge.selected {opacity: 1;}
.edge:hover path { stroke: red; }
.edge:hover polygon { stroke: red; fill: red; }
]]></style>

<defs>
  <circle id="rim" cx="0" cy="0" r="7"/>
  <circle id="rim2" cx="0" cy="0" r="3.5"/>
  <g id="zoomPlus">
    <use xlink:href="#rim" fill="#404040"><set attributeName="fill" to="#808080" begin="zoomplus.mouseover" end="zoomplus.mouseout"/></use>
    <path d="M-4,0h8M0,-4v8" fill="none" stroke="white" stroke-width="1.5" pointer-events="none"/>
  </g>
  <g id="zoomMin">
    <use xlink:href="#rim" fill="#404040"><set attributeName="fill" to="#808080" begin="zoomminus.mouseover" end="zoomminus.mouseout"/></use>
    <path d="M-4,0h8" fill="none" stroke="white" stroke-width="1.5" pointer-events="none"/>
  </g>
  <g id="arrowUp" transform="translate(30 24)">
    <use xlink:href="#rim"/>
    <path pointer-events="none" fill="none" stroke="white" stroke-width="1.5" d="M0,-3.0v7 M-2.5,-0.5L0,-3.0L2.5,-0.5"/>
  </g>
  <g id="arrowRight" transform="rotate(90) translate(36 -43)">
    <use xlink:href="#rim"/>
    <path pointer-events="none" fill="none" stroke="white" stroke-width="1.5" d="M0,-3.0v7 M-2.5,-0.5L0,-3.0L2.5,-0.5"/>
  </g>
  <g id="arrowDown" transform="rotate(180) translate(-30 -48)">
    <use xlink:href="#rim"/>
    <path pointer-events="none" fill="none" stroke="white" stroke-width="1.5" d="M0,-3.0v7 M-2.5,-0.5L0,-3.0L2.5,-0.5"/>
  </g>
  <g id="arrowLeft" transform="rotate(270) translate(-36 17)">
    <use xlink:href="#rim"/>
    <path pointer-events="none" fill="none" stroke="white" stroke-width="1.5" d="M0,-3.0v7 M-2.5,-0.5L0,-3.0L2.5,-0.5"/>
  </g>
  <g id="resetDef">
    <use xlink:href="#rim2" fill="#404040"><set attributeName="fill" to="#808080" begin="reset.mouseover" end="reset.mouseout"/></use>
  </g>
</defs>
<script type="application/ecmascript">
var viewWidth = 495;
var viewHeight = 498;
var sectionId = 'dynsection-0';
</script>
<script type="application/ecmascript" xlink:href="svg.min.js"/>
<svg id="graph" class="graph">
<g id="viewport">
<title>COutFontSet_c</title>
<!-- Node1 -->
<g id="Node000001" class="node">
<title>Node1</title>
<g id="a_Node000001"><a xlink:title=" ">
<polygon fill="#999999" stroke="#666666" points="386.5,-19.25 303,-19.25 303,0 386.5,0 386.5,-19.25"/>
<text text-anchor="middle" x="344.75" y="-5.75" font-family="Helvetica,sans-Serif" font-size="10.00">COutFontSet_c</text>
</a>
</g>
</g>
<!-- Node2 -->
<g id="Node000002" class="node">
<title>Node2</title>
<g id="a_Node000002"><a xlink:href="classJ2DTextBox.html" target="_top" xlink:title=" ">
<polygon fill="white" stroke="#666666" points="379,-85.75 310.5,-85.75 310.5,-66.5 379,-66.5 379,-85.75"/>
<text text-anchor="middle" x="344.75" y="-72.25" font-family="Helvetica,sans-Serif" font-size="10.00">J2DTextBox</text>
</a>
</g>
</g>
<!-- Node2&#45;&gt;Node1 -->
<g id="edge1_Node000001_Node000002" class="edge">
<title>Node2&#45;&gt;Node1</title>
<g id="a_edge1_Node000001_Node000002"><a xlink:title=" ">
<path fill="none" stroke="#9a32cd" stroke-dasharray="5,2" d="M344.75,-54.65C344.75,-42.82 344.75,-28.54 344.75,-19.52"/>
<polygon fill="#9a32cd" stroke="#9a32cd" points="341.25,-54.64 344.75,-64.64 348.25,-54.64 341.25,-54.64"/>
</a>
</g>
<text text-anchor="middle" x="376.62" y="-39" font-family="Helvetica,sans-Serif" font-size="10.00" fill="grey"> mpTextBoxPtr</text>
</g>
<!-- Node3 -->
<g id="Node000003" class="node">
<title>Node3</title>
<g id="a_Node000003"><a xlink:href="classJ2DPane.html" target="_top" xlink:title=" ">
<polygon fill="white" stroke="#666666" points="264.62,-165.12 208.88,-165.12 208.88,-145.88 264.62,-145.88 264.62,-165.12"/>
<text text-anchor="middle" x="236.75" y="-151.62" font-family="Helvetica,sans-Serif" font-size="10.00">J2DPane</text>
</a>
</g>
</g>
<!-- Node3&#45;&gt;Node2 -->
<g id="edge2_Node000002_Node000003" class="edge">
<title>Node3&#45;&gt;Node2</title>
<g id="a_edge2_Node000002_Node000003"><a xlink:title=" ">
<path fill="none" stroke="#63b8ff" d="M258.4,-138.99C280.51,-123.15 314.09,-99.09 332.17,-86.14"/>
<polygon fill="#63b8ff" stroke="#63b8ff" points="256.46,-136.07 250.37,-144.74 260.54,-141.76 256.46,-136.07"/>
</a>
</g>
</g>
<!-- Node4 -->
<g id="Node000004" class="node">
<title>Node4</title>
<g id="a_Node000004"><a xlink:href="structJGeometry_1_1TBox2.html" target="_top" xlink:title=" ">
<polygon fill="white" stroke="#666666" points="125.5,-278.25 0,-278.25 0,-259 125.5,-259 125.5,-278.25"/>
<text text-anchor="middle" x="62.75" y="-264.75" font-family="Helvetica,sans-Serif" font-size="10.00">JGeometry::TBox2&lt; f32 &gt;</text>
</a>
</g>
</g>
<!-- Node4&#45;&gt;Node3 -->
<g id="edge3_Node000003_Node000004" class="edge">
<title>Node4&#45;&gt;Node3</title>
<g id="a_edge3_Node000003_Node000004"><a xlink:title=" ">
<path fill="none" stroke="#9a32cd" stroke-dasharray="5,2" d="M73.24,-249.35C83.36,-233.21 100.1,-210.1 120.25,-196 147.2,-177.14 183.88,-166.68 208.84,-161.33"/>
<polygon fill="#9a32cd" stroke="#9a32cd" points="70.49,-247.12 68.35,-257.49 76.5,-250.72 70.49,-247.12"/>
</a>
</g>
<text text-anchor="middle" x="156" y="-231.5" font-family="Helvetica,sans-Serif" font-size="10.00" fill="grey"> mBounds</text>
<text text-anchor="middle" x="156" y="-220.25" font-family="Helvetica,sans-Serif" font-size="10.00" fill="grey">mClipRect</text>
<text text-anchor="middle" x="156" y="-209" font-family="Helvetica,sans-Serif" font-size="10.00" fill="grey">mGlobalBounds</text>
<text text-anchor="middle" x="156" y="-197.75" font-family="Helvetica,sans-Serif" font-size="10.00" fill="grey">static_mBounds</text>
</g>
<!-- Node5 -->
<g id="Node000005" class="node">
<title>Node5</title>
<g id="a_Node000005"><a xlink:href="structJGeometry_1_1TBox.html" target="_top" xlink:title=" ">
<polygon fill="white" stroke="#666666" points="119.12,-334.5 6.38,-334.5 6.38,-315.25 119.12,-315.25 119.12,-334.5"/>
<text text-anchor="middle" x="62.75" y="-321" font-family="Helvetica,sans-Serif" font-size="10.00">JGeometry::TBox&lt; T &gt;</text>
</a>
</g>
</g>
<!-- Node5&#45;&gt;Node4 -->
<g id="edge4_Node000004_Node000005" class="edge">
<title>Node5&#45;&gt;Node4</title>
<g id="a_edge4_Node000004_Node000005"><a xlink:title=" ">
<path fill="none" stroke="#63b8ff" d="M62.75,-303.69C62.75,-294.98 62.75,-285.24 62.75,-278.42"/>
<polygon fill="#63b8ff" stroke="#63b8ff" points="59.25,-303.4 62.75,-313.4 66.25,-303.4 59.25,-303.4"/>
</a>
</g>
</g>
<!-- Node6 -->
<g id="Node000006" class="node">
<title>Node6</title>
<g id="a_Node000006"><a xlink:href="classJSUTree.html" target="_top" xlink:title=" ">
<polygon fill="white" stroke="#666666" points="254.38,-278.25 143.12,-278.25 143.12,-259 254.38,-259 254.38,-278.25"/>
<text text-anchor="middle" x="198.75" y="-264.75" font-family="Helvetica,sans-Serif" font-size="10.00">JSUTree&lt; J2DPane &gt;</text>
</a>
</g>
</g>
<!-- Node6&#45;&gt;Node3 -->
<g id="edge5_Node000003_Node000006" class="edge">
<title>Node6&#45;&gt;Node3</title>
<g id="a_edge5_Node000003_Node000006"><a xlink:title=" ">
<path fill="none" stroke="#9a32cd" stroke-dasharray="5,2" d="M195.46,-247.51C193.9,-232.71 193.63,-212.41 200.25,-196 205.28,-183.53 216.2,-172.59 224.79,-165.41"/>
<polygon fill="#9a32cd" stroke="#9a32cd" points="191.98,-247.92 196.8,-257.35 198.92,-246.97 191.98,-247.92"/>
</a>
</g>
<text text-anchor="middle" x="227" y="-214.62" font-family="Helvetica,sans-Serif" font-size="10.00" fill="grey"> mPaneTree</text>
</g>
<!-- Node7 -->
<g id="Node000007" class="node">
<title>Node7</title>
<g id="a_Node000007"><a xlink:href="classJSUList.html" target="_top" xlink:title=" ">
<polygon fill="white" stroke="#666666" points="192,-371.75 117.5,-371.75 117.5,-352.5 192,-352.5 192,-371.75"/>
<text text-anchor="middle" x="154.75" y="-358.25" font-family="Helvetica,sans-Serif" font-size="10.00">JSUList&lt; T &gt;</text>
</a>
</g>
</g>
<!-- Node7&#45;&gt;Node6 -->
<g id="edge6_Node000006_Node000007" class="edge">
<title>Node7&#45;&gt;Node6</title>
<g id="a_edge6_Node000006_Node000007"><a xlink:title=" ">
<path fill="none" stroke="#63b8ff" d="M162.23,-341.75C165.56,-333.49 169.65,-323.81 173.75,-315.25 180,-302.22 188.2,-287.65 193.48,-278.56"/>
<polygon fill="#63b8ff" stroke="#63b8ff" points="159.08,-340.21 158.67,-350.8 165.59,-342.78 159.08,-340.21"/>
</a>
</g>
</g>
<!-- Node8 -->
<g id="Node000008" class="node">
<title>Node8</title>
<g id="a_Node000008"><a xlink:href="classJSUPtrList.html" target="_top" xlink:title=" ">
<polygon fill="white" stroke="#666666" points="220.12,-490 155.38,-490 155.38,-470.75 220.12,-470.75 220.12,-490"/>
<text text-anchor="middle" x="187.75" y="-476.5" font-family="Helvetica,sans-Serif" font-size="10.00">JSUPtrList</text>
</a>
</g>
</g>
<!-- Node8&#45;&gt;Node7 -->
<g id="edge7_Node000007_Node000008" class="edge">
<title>Node8&#45;&gt;Node7</title>
<g id="a_edge7_Node000007_Node000008"><a xlink:title=" ">
<path fill="none" stroke="#63b8ff" d="M180.19,-459.97C179.33,-457.56 178.49,-455.1 177.75,-452.75 168.58,-423.64 160.35,-388.37 156.72,-372.12"/>
<polygon fill="#63b8ff" stroke="#63b8ff" points="176.85,-461.04 183.64,-469.17 183.4,-458.57 176.85,-461.04"/>
</a>
</g>
</g>
<!-- Node9 -->
<g id="Node000009" class="node">
<title>Node9</title>
<g id="a_Node000009"><a xlink:href="classJSUPtrLink.html" target="_top" xlink:title=" ">
<polygon fill="white" stroke="#666666" points="254.25,-410.62 187.25,-410.62 187.25,-391.38 254.25,-391.38 254.25,-410.62"/>
<text text-anchor="middle" x="220.75" y="-397.12" font-family="Helvetica,sans-Serif" font-size="10.00">JSUPtrLink</text>
</a>
</g>
</g>
<!-- Node8&#45;&gt;Node9 -->
<g id="edge9_Node000009_Node000008" class="edge">
<title>Node8&#45;&gt;Node9</title>
<g id="a_edge9_Node000009_Node000008"><a xlink:title=" ">
<path fill="none" stroke="#9a32cd" stroke-dasharray="5,2" d="M182.18,-459.56C180.63,-450.24 180.38,-439.23 184.75,-430.25 188.71,-422.11 196.28,-415.61 203.47,-410.92"/>
<polygon fill="#9a32cd" stroke="#9a32cd" points="178.71,-460.09 184.37,-469.05 185.53,-458.52 178.71,-460.09"/>
</a>
</g>
<text text-anchor="middle" x="198.25" y="-437.62" font-family="Helvetica,sans-Serif" font-size="10.00" fill="grey"> mList</text>
</g>
<!-- Node9&#45;&gt;Node8 -->
<g id="edge8_Node000008_Node000009" class="edge">
<title>Node9&#45;&gt;Node8</title>
<g id="a_edge8_Node000008_Node000009"><a xlink:title=" ">
<path fill="none" stroke="#9a32cd" stroke-dasharray="5,2" d="M221.96,-422.11C221.76,-431.81 220.34,-443.35 215.75,-452.75 212.33,-459.74 206.27,-465.86 200.65,-470.47"/>
<polygon fill="#9a32cd" stroke="#9a32cd" points="225.46,-422.18 221.71,-412.27 218.46,-422.35 225.46,-422.18"/>
</a>
</g>
<text text-anchor="middle" x="238.62" y="-443.25" font-family="Helvetica,sans-Serif" font-size="10.00" fill="grey"> mHead</text>
<text text-anchor="middle" x="238.62" y="-432" font-family="Helvetica,sans-Serif" font-size="10.00" fill="grey">mTail</text>
</g>
<!-- Node9&#45;&gt;Node9 -->
<g id="edge10_Node000009_Node000009" class="edge">
<title>Node9&#45;&gt;Node9</title>
<g id="a_edge10_Node000009_Node000009"><a xlink:title=" ">
<path fill="none" stroke="#9a32cd" stroke-dasharray="5,2" d="M265.51,-406.82C269.64,-405.62 272.25,-403.68 272.25,-401 272.25,-396.37 264.45,-393.94 254.43,-393.73"/>
<polygon fill="#9a32cd" stroke="#9a32cd" points="265.39,-403.3 255.93,-408.08 266.3,-410.25 265.39,-403.3"/>
</a>
</g>
<text text-anchor="middle" x="287.62" y="-402.75" font-family="Helvetica,sans-Serif" font-size="10.00" fill="grey"> mNext</text>
<text text-anchor="middle" x="287.62" y="-391.5" font-family="Helvetica,sans-Serif" font-size="10.00" fill="grey">mPrev</text>
</g>
<!-- Node10 -->
<g id="Node000010" class="node">
<title>Node10</title>
<g id="a_Node000010"><a xlink:href="classJSULink.html" target="_top" xlink:title=" ">
<polygon fill="white" stroke="#666666" points="259.12,-334.5 182.38,-334.5 182.38,-315.25 259.12,-315.25 259.12,-334.5"/>
<text text-anchor="middle" x="220.75" y="-321" font-family="Helvetica,sans-Serif" font-size="10.00">JSULink&lt; T &gt;</text>
</a>
</g>
</g>
<!-- Node9&#45;&gt;Node10 -->
<g id="edge12_Node000010_Node000009" class="edge">
<title>Node9&#45;&gt;Node10</title>
<g id="a_edge12_Node000010_Node000009"><a xlink:title=" ">
<path fill="none" stroke="#63b8ff" d="M220.75,-379.83C220.75,-365.01 220.75,-345.62 220.75,-334.58"/>
<polygon fill="#63b8ff" stroke="#63b8ff" points="217.25,-379.4 220.75,-389.4 224.25,-379.4 217.25,-379.4"/>
</a>
</g>
</g>
<!-- Node10&#45;&gt;Node6 -->
<g id="edge11_Node000006_Node000010" class="edge">
<title>Node10&#45;&gt;Node6</title>
<g id="a_edge11_Node000006_Node000010"><a xlink:title=" ">
<path fill="none" stroke="#63b8ff" d="M212.81,-304.29C209.21,-295.43 205.15,-285.4 202.32,-278.42"/>
<polygon fill="#63b8ff" stroke="#63b8ff" points="209.55,-305.56 216.55,-313.51 216.03,-302.93 209.55,-305.56"/>
</a>
</g>
</g>
<!-- Node11 -->
<g id="Node000011" class="node">
<title>Node11</title>
<g id="a_Node000011"><a xlink:href="classJ2DAnmTransform.html" target="_top" xlink:title=" ">
<polygon fill="white" stroke="#666666" points="370.62,-278.25 272.88,-278.25 272.88,-259 370.62,-259 370.62,-278.25"/>
<text text-anchor="middle" x="321.75" y="-264.75" font-family="Helvetica,sans-Serif" font-size="10.00">J2DAnmTransform</text>
</a>
</g>
</g>
<!-- Node11&#45;&gt;Node3 -->
<g id="edge13_Node000003_Node000011" class="edge">
<title>Node11&#45;&gt;Node3</title>
<g id="a_edge13_Node000003_Node000011"><a xlink:title=" ">
<path fill="none" stroke="#9a32cd" stroke-dasharray="5,2" d="M290.66,-253.03C285.34,-249.6 280.18,-245.58 276,-241 270.5,-234.96 249.24,-185.84 240.52,-165.39"/>
<polygon fill="#9a32cd" stroke="#9a32cd" points="288.54,-255.85 298.95,-257.82 292.04,-249.79 288.54,-255.85"/>
</a>
</g>
<text text-anchor="middle" x="304.12" y="-214.62" font-family="Helvetica,sans-Serif" font-size="10.00" fill="grey"> mTransform</text>
</g>
<!-- Node12 -->
<g id="Node000012" class="node">
<title>Node12</title>
<g id="a_Node000012"><a xlink:href="structJ2DAnmBase.html" target="_top" xlink:title=" ">
<polygon fill="white" stroke="#666666" points="359.75,-334.5 283.75,-334.5 283.75,-315.25 359.75,-315.25 359.75,-334.5"/>
<text text-anchor="middle" x="321.75" y="-321" font-family="Helvetica,sans-Serif" font-size="10.00">J2DAnmBase</text>
</a>
</g>
</g>
<!-- Node12&#45;&gt;Node11 -->
<g id="edge14_Node000011_Node000012" class="edge">
<title>Node12&#45;&gt;Node11</title>
<g id="a_edge14_Node000011_Node000012"><a xlink:title=" ">
<path fill="none" stroke="#63b8ff" d="M321.75,-303.69C321.75,-294.98 321.75,-285.24 321.75,-278.42"/>
<polygon fill="#63b8ff" stroke="#63b8ff" points="318.25,-303.4 321.75,-313.4 325.25,-303.4 318.25,-303.4"/>
</a>
</g>
</g>
<!-- Node13 -->
<g id="Node000013" class="node">
<title>Node13</title>
<g id="a_Node000013"><a xlink:href="classJUTFont.html" target="_top" xlink:title=" ">
<polygon fill="white" stroke="#666666" points="484.88,-165.12 430.62,-165.12 430.62,-145.88 484.88,-145.88 484.88,-165.12"/>
<text text-anchor="middle" x="457.75" y="-151.62" font-family="Helvetica,sans-Serif" font-size="10.00">JUTFont</text>
</a>
</g>
</g>
<!-- Node13&#45;&gt;Node2 -->
<g id="edge15_Node000002_Node000013" class="edge">
<title>Node13&#45;&gt;Node2</title>
<g id="a_edge15_Node000002_Node000013"><a xlink:title=" ">
<path fill="none" stroke="#9a32cd" stroke-dasharray="5,2" d="M435.41,-139.21C412.28,-123.36 376.91,-99.15 357.91,-86.14"/>
<polygon fill="#9a32cd" stroke="#9a32cd" points="433.31,-142.01 443.54,-144.77 437.26,-136.23 433.31,-142.01"/>
</a>
</g>
<text text-anchor="middle" x="413.75" y="-105.5" font-family="Helvetica,sans-Serif" font-size="10.00" fill="grey"> mFont</text>
</g>
<!-- Node14 -->
<g id="Node000014" class="node">
<title>Node14</title>
<g id="a_Node000014"><a xlink:href="structJUtility_1_1TColor.html" target="_top" xlink:title=" ">
<polygon fill="white" stroke="#666666" points="475.25,-278.25 396.25,-278.25 396.25,-259 475.25,-259 475.25,-278.25"/>
<text text-anchor="middle" x="435.75" y="-264.75" font-family="Helvetica,sans-Serif" font-size="10.00">JUtility::TColor</text>
</a>
</g>
</g>
<!-- Node14&#45;&gt;Node2 -->
<g id="edge18_Node000002_Node000014" class="edge">
<title>Node14&#45;&gt;Node2</title>
<g id="a_edge18_Node000002_Node000014"><a xlink:title=" ">
<path fill="none" stroke="#9a32cd" stroke-dasharray="5,2" d="M414.7,-251.41C395.32,-235.16 367.61,-208.26 354.25,-178 340.39,-146.62 342.13,-104.52 343.75,-86.23"/>
<polygon fill="#9a32cd" stroke="#9a32cd" points="412.29,-253.97 422.27,-257.55 416.7,-248.54 412.29,-253.97"/>
</a>
</g>
<text text-anchor="middle" x="388.5" y="-168.5" font-family="Helvetica,sans-Serif" font-size="10.00" fill="grey"> mBlackColor</text>
<text text-anchor="middle" x="388.5" y="-157.25" font-family="Helvetica,sans-Serif" font-size="10.00" fill="grey">mCharColor</text>
<text text-anchor="middle" x="388.5" y="-146" font-family="Helvetica,sans-Serif" font-size="10.00" fill="grey">mGradientColor</text>
<text text-anchor="middle" x="388.5" y="-134.75" font-family="Helvetica,sans-Serif" font-size="10.00" fill="grey">mWhiteColor</text>
</g>
<!-- Node14&#45;&gt;Node13 -->
<g id="edge16_Node000013_Node000014" class="edge">
<title>Node14&#45;&gt;Node13</title>
<g id="a_edge16_Node000013_Node000014"><a xlink:title=" ">
<path fill="none" stroke="#9a32cd" stroke-dasharray="5,2" d="M439.76,-247.39C444.58,-223 452.49,-183.09 455.99,-165.41"/>
<polygon fill="#9a32cd" stroke="#9a32cd" points="436.35,-246.56 437.84,-257.05 443.22,-247.92 436.35,-246.56"/>
</a>
</g>
<text text-anchor="middle" x="467.88" y="-231.5" font-family="Helvetica,sans-Serif" font-size="10.00" fill="grey"> mColor1</text>
<text text-anchor="middle" x="467.88" y="-220.25" font-family="Helvetica,sans-Serif" font-size="10.00" fill="grey">mColor2</text>
<text text-anchor="middle" x="467.88" y="-209" font-family="Helvetica,sans-Serif" font-size="10.00" fill="grey">mColor3</text>
<text text-anchor="middle" x="467.88" y="-197.75" font-family="Helvetica,sans-Serif" font-size="10.00" fill="grey">mColor4</text>
</g>
<!-- Node15 -->
<g id="Node000015" class="node">
<title>Node15</title>
<g id="a_Node000015"><a xlink:href="struct__GXColor.html" target="_top" xlink:title=" ">
<polygon fill="white" stroke="#666666" points="462.12,-334.5 409.38,-334.5 409.38,-315.25 462.12,-315.25 462.12,-334.5"/>
<text text-anchor="middle" x="435.75" y="-321" font-family="Helvetica,sans-Serif" font-size="10.00">GXColor</text>
</a>
</g>
</g>
<!-- Node15&#45;&gt;Node14 -->
<g id="edge17_Node000014_Node000015" class="edge">
<title>Node15&#45;&gt;Node14</title>
<g id="a_edge17_Node000014_Node000015"><a xlink:title=" ">
<path fill="none" stroke="#63b8ff" d="M435.75,-303.69C435.75,-294.98 435.75,-285.24 435.75,-278.42"/>
<polygon fill="#63b8ff" stroke="#63b8ff" points="432.25,-303.4 435.75,-313.4 439.25,-303.4 432.25,-303.4"/>
</a>
</g>
</g>
</g>
</svg>

<g id="navigator" transform="translate(0 0)" fill="#404254">
  <rect fill="#f2f5e9" fill-opacity="0.5" stroke="#606060" stroke-width=".5" x="0" y="0" width="60" height="60"/>
  <use id="zoomplus" xlink:href="#zoomPlus" x="17" y="9" onmousedown="handleZoom(evt,'in')"/>
  <use id="zoomminus" xlink:href="#zoomMin" x="42" y="9" onmousedown="handleZoom(evt,'out')"/>
  <use id="reset" xlink:href="#resetDef" x="30" y="36" onmousedown="handleReset()"/>
   <use id="arrowup" xlink:href="#arrowUp" x="0" y="0" onmousedown="handlePan(0,-1)"/>
  <use id="arrowright" xlink:href="#arrowRight" x="0" y="0" onmousedown="handlePan(1,0)"/>
  <use id="arrowdown" xlink:href="#arrowDown" x="0" y="0" onmousedown="handlePan(0,1)"/>
  <use id="arrowleft" xlink:href="#arrowLeft" x="0" y="0" onmousedown="handlePan(-1,0)"/>
</g>
<svg viewBox="0 0 15 15" width="100%" height="30px" preserveAspectRatio="xMaxYMin meet">
 <g id="arrow_out" transform="scale(0.3 0.3)">
  <a xlink:href="classCOutFontSet__c__coll__graph_org.svg" target="_base">
   <rect id="button" ry="5" rx="5" y="6" x="6" height="38" width="38"
        fill="#f2f5e9" fill-opacity="0.5" stroke="#606060" stroke-width="1.0"/>
   <path id="arrow"
     d="M 11.500037,31.436501 C 11.940474,20.09759 22.043105,11.32322 32.158766,21.979434 L 37.068811,17.246167 C 37.068811,17.246167 37.088388,32 37.088388,32 L 22.160133,31.978069 C 22.160133,31.978069 26.997745,27.140456 26.997745,27.140456 C 18.528582,18.264221 13.291696,25.230495 11.500037,31.436501 z"
     style="fill:#404040;"/>
  </a>
 </g>
</svg>

<style type='text/css'>
<![CDATA[
[data-mouse-over-selected='false'] { opacity: 0.7; }
[data-mouse-over-selected='true']  { opacity: 1.0; }
]]>
</style>
<script type="application/ecmascript"><![CDATA[
document.addEventListener('DOMContentLoaded', (event) => {
  highlightEdges();
  highlightAdjacentNodes();
});
]]></script>
</svg>
