<?xml version="1.0" encoding="UTF-8" standalone="no"?>
<!DOCTYPE svg PUBLIC "-//W3C//DTD SVG 1.1//EN"
 "http://www.w3.org/Graphics/SVG/1.1/DTD/svg11.dtd">
<!-- Generated by graphviz version 9.0.0 (20230911.1827)
 -->
<!-- Title: dPa_hermiteEcallBack_c Pages: 1 -->
<svg width="227pt" height="243pt"
 viewBox="0.00 0.00 226.75 243.25" xmlns="http://www.w3.org/2000/svg" xmlns:xlink="http://www.w3.org/1999/xlink">
<g id="graph0" class="graph" transform="scale(1 1) rotate(0) translate(4 239.25)">
<title>dPa_hermiteEcallBack_c</title>
<!-- Node1 -->
<g id="Node000001" class="node">
<title>Node1</title>
<g id="a_Node000001"><a xlink:title=" ">
<polygon fill="#999999" stroke="#666666" points="157.62,-19.25 32.88,-19.25 32.88,0 157.62,0 157.62,-19.25"/>
<text text-anchor="middle" x="95.25" y="-5.75" font-family="Helvetica,sans-Serif" font-size="10.00">dPa_hermiteEcallBack_c</text>
</a>
</g>
</g>
<!-- Node2 -->
<g id="Node000002" class="node">
<title>Node2</title>
<g id="a_Node000002"><a xlink:href="structdPa__levelEcallBack.html" target="_top" xlink:title=" ">
<polygon fill="white" stroke="#666666" points="103.38,-143.62 1.12,-143.62 1.12,-124.38 103.38,-124.38 103.38,-143.62"/>
<text text-anchor="middle" x="52.25" y="-130.12" font-family="Helvetica,sans-Serif" font-size="10.00">dPa_levelEcallBack</text>
</a>
</g>
</g>
<!-- Node2&#45;&gt;Node1 -->
<g id="edge1_Node000001_Node000002" class="edge">
<title>Node2&#45;&gt;Node1</title>
<g id="a_edge1_Node000001_Node000002"><a xlink:title=" ">
<path fill="none" stroke="#63b8ff" d="M59.11,-113.47C68.55,-86.62 85.14,-39.4 92.07,-19.68"/>
<polygon fill="#63b8ff" stroke="#63b8ff" points="55.86,-112.18 55.84,-122.77 62.46,-114.5 55.86,-112.18"/>
</a>
</g>
</g>
<!-- Node3 -->
<g id="Node000003" class="node">
<title>Node3</title>
<g id="a_Node000003"><a xlink:href="classJPAEmitterCallBack.html" target="_top" xlink:title=" ">
<polygon fill="white" stroke="#666666" points="104.5,-235.25 0,-235.25 0,-216 104.5,-216 104.5,-235.25"/>
<text text-anchor="middle" x="52.25" y="-221.75" font-family="Helvetica,sans-Serif" font-size="10.00">JPAEmitterCallBack</text>
</a>
</g>
</g>
<!-- Node3&#45;&gt;Node2 -->
<g id="edge2_Node000002_Node000003" class="edge">
<title>Node3&#45;&gt;Node2</title>
<g id="a_edge2_Node000002_Node000003"><a xlink:title=" ">
<path fill="none" stroke="#63b8ff" d="M52.25,-204.44C52.25,-185.44 52.25,-157.89 52.25,-143.89"/>
<polygon fill="#63b8ff" stroke="#63b8ff" points="48.75,-204.19 52.25,-214.19 55.75,-204.19 48.75,-204.19"/>
</a>
</g>
</g>
<!-- Node4 -->
<g id="Node000004" class="node">
<title>Node4</title>
<g id="a_Node000004"><a xlink:href="structcXyz.html" target="_top" xlink:title=" ">
<polygon fill="white" stroke="#666666" points="158.75,-143.62 121.75,-143.62 121.75,-124.38 158.75,-124.38 158.75,-143.62"/>
<text text-anchor="middle" x="140.25" y="-130.12" font-family="Helvetica,sans-Serif" font-size="10.00">cXyz</text>
</a>
</g>
</g>
<!-- Node4&#45;&gt;Node1 -->
<g id="edge3_Node000001_Node000004" class="edge">
<title>Node4&#45;&gt;Node1</title>
<g id="a_edge3_Node000001_Node000004"><a xlink:title=" ">
<path fill="none" stroke="#9a32cd" stroke-dasharray="5,2" d="M133.07,-113.47C123.19,-86.62 105.83,-39.4 98.58,-19.68"/>
<polygon fill="#9a32cd" stroke="#9a32cd" points="129.76,-114.6 136.49,-122.78 136.32,-112.19 129.76,-114.6"/>
</a>
</g>
<text text-anchor="middle" x="139.75" y="-61.5" font-family="Helvetica,sans-Serif" font-size="10.00" fill="grey"> field_0x10</text>
<text text-anchor="middle" x="139.75" y="-50.25" font-family="Helvetica,sans-Serif" font-size="10.00" fill="grey">field_0x14</text>
<text text-anchor="middle" x="139.75" y="-39" font-family="Helvetica,sans-Serif" font-size="10.00" fill="grey">field_0xc</text>
</g>
<!-- Node4&#45;&gt;Node4 -->
<g id="edge5_Node000004_Node000004" class="edge">
<title>Node4&#45;&gt;Node4</title>
<g id="a_edge5_Node000004_Node000004"><a xlink:title=" ">
<path fill="none" stroke="#9a32cd" stroke-dasharray="5,2" d="M165.02,-145.82C171.68,-145.18 176.75,-141.24 176.75,-134 176.75,-122.96 164.99,-119.6 153.73,-123.91"/>
<polygon fill="#9a32cd" stroke="#9a32cd" points="165.64,-142.37 155.22,-144.32 164.58,-149.29 165.64,-142.37"/>
</a>
</g>
<text text-anchor="middle" x="197.75" y="-169.5" font-family="Helvetica,sans-Serif" font-size="10.00" fill="grey"> BaseX</text>
<text text-anchor="middle" x="197.75" y="-158.25" font-family="Helvetica,sans-Serif" font-size="10.00" fill="grey">BaseXY</text>
<text text-anchor="middle" x="197.75" y="-147" font-family="Helvetica,sans-Serif" font-size="10.00" fill="grey">BaseXYZ</text>
<text text-anchor="middle" x="197.75" y="-135.75" font-family="Helvetica,sans-Serif" font-size="10.00" fill="grey">BaseXZ</text>
<text text-anchor="middle" x="197.75" y="-124.5" font-family="Helvetica,sans-Serif" font-size="10.00" fill="grey">BaseY</text>
<text text-anchor="middle" x="197.75" y="-113.25" font-family="Helvetica,sans-Serif" font-size="10.00" fill="grey">BaseYZ</text>
<text text-anchor="middle" x="197.75" y="-102" font-family="Helvetica,sans-Serif" font-size="10.00" fill="grey">BaseZ</text>
<text text-anchor="middle" x="197.75" y="-90.75" font-family="Helvetica,sans-Serif" font-size="10.00" fill="grey">Zero</text>
</g>
<!-- Node5 -->
<g id="Node000005" class="node">
<title>Node5</title>
<g id="a_Node000005"><a xlink:href="structVec.html" target="_top" xlink:title=" ">
<polygon fill="white" stroke="#666666" points="156.88,-235.25 123.62,-235.25 123.62,-216 156.88,-216 156.88,-235.25"/>
<text text-anchor="middle" x="140.25" y="-221.75" font-family="Helvetica,sans-Serif" font-size="10.00">Vec</text>
</a>
</g>
</g>
<!-- Node5&#45;&gt;Node4 -->
<g id="edge4_Node000004_Node000005" class="edge">
<title>Node5&#45;&gt;Node4</title>
<g id="a_edge4_Node000004_Node000005"><a xlink:title=" ">
<path fill="none" stroke="#63b8ff" d="M140.25,-204.44C140.25,-185.44 140.25,-157.89 140.25,-143.89"/>
<polygon fill="#63b8ff" stroke="#63b8ff" points="136.75,-204.19 140.25,-214.19 143.75,-204.19 136.75,-204.19"/>
</a>
</g>
</g>
</g>
</svg>
