<?xml version="1.0" encoding="UTF-8" standalone="no"?>
<!DOCTYPE svg PUBLIC "-//W3C//DTD SVG 1.1//EN"
 "http://www.w3.org/Graphics/SVG/1.1/DTD/svg11.dtd">
<!-- Generated by graphviz version 9.0.0 (20230911.1827)
 -->
<!-- Title: J2DWindowEx Pages: 1 -->
<svg width="1377pt" height="722pt"
 viewBox="0.00 0.00 1376.75 721.88" xmlns="http://www.w3.org/2000/svg" xmlns:xlink="http://www.w3.org/1999/xlink">
<g id="graph0" class="graph" transform="scale(1 1) rotate(0) translate(4 717.88)">
<title>J2DWindowEx</title>
<!-- Node1 -->
<g id="Node000001" class="node">
<title>Node1</title>
<g id="a_Node000001"><a xlink:title=" ">
<polygon fill="#999999" stroke="#666666" points="1368.75,-85.25 1290.5,-85.25 1290.5,-66 1368.75,-66 1368.75,-85.25"/>
<text text-anchor="middle" x="1329.62" y="-71.75" font-family="Helvetica,sans-Serif" font-size="10.00">J2DWindowEx</text>
</a>
</g>
</g>
<!-- Node2 -->
<g id="Node000002" class="node">
<title>Node2</title>
<g id="a_Node000002"><a xlink:href="classJ2DWindow.html" target="_top" xlink:title=" ">
<polygon fill="white" stroke="#666666" points="1170.5,-535.25 1102.75,-535.25 1102.75,-516 1170.5,-516 1170.5,-535.25"/>
<text text-anchor="middle" x="1136.62" y="-521.75" font-family="Helvetica,sans-Serif" font-size="10.00">J2DWindow</text>
</a>
</g>
</g>
<!-- Node2&#45;&gt;Node1 -->
<g id="edge1_Node000001_Node000002" class="edge">
<title>Node2&#45;&gt;Node1</title>
<g id="a_edge1_Node000001_Node000002"><a xlink:title=" ">
<path fill="none" stroke="#63b8ff" d="M1146.22,-505.37C1179.62,-426.69 1300.08,-142.87 1324.35,-85.7"/>
<polygon fill="#63b8ff" stroke="#63b8ff" points="1143.07,-503.84 1142.38,-514.41 1149.51,-506.58 1143.07,-503.84"/>
</a>
</g>
</g>
<!-- Node3 -->
<g id="Node000003" class="node">
<title>Node3</title>
<g id="a_Node000003"><a xlink:href="classJ2DPane.html" target="_top" xlink:title=" ">
<polygon fill="white" stroke="#666666" points="966.25,-478.25 910.5,-478.25 910.5,-459 966.25,-459 966.25,-478.25"/>
<text text-anchor="middle" x="938.38" y="-464.75" font-family="Helvetica,sans-Serif" font-size="10.00">J2DPane</text>
</a>
</g>
</g>
<!-- Node3&#45;&gt;Node2 -->
<g id="edge2_Node000002_Node000003" class="edge">
<title>Node3&#45;&gt;Node2</title>
<g id="a_edge2_Node000002_Node000003"><a xlink:title=" ">
<path fill="none" stroke="#63b8ff" d="M977.3,-479.64C1013.57,-490.17 1067.71,-505.9 1102.34,-515.96"/>
<polygon fill="#63b8ff" stroke="#63b8ff" points="978.7,-476.4 968.12,-476.97 976.74,-483.12 978.7,-476.4"/>
</a>
</g>
</g>
<!-- Node4 -->
<g id="Node000004" class="node">
<title>Node4</title>
<g id="a_Node000004"><a xlink:href="structJGeometry_1_1TBox2.html" target="_top" xlink:title=" ">
<polygon fill="white" stroke="#666666" points="732.5,-545.25 607,-545.25 607,-526 732.5,-526 732.5,-545.25"/>
<text text-anchor="middle" x="669.75" y="-531.75" font-family="Helvetica,sans-Serif" font-size="10.00">JGeometry::TBox2&lt; f32 &gt;</text>
</a>
</g>
</g>
<!-- Node4&#45;&gt;Node2 -->
<g id="edge21_Node000002_Node000004" class="edge">
<title>Node4&#45;&gt;Node2</title>
<g id="a_edge21_Node000002_Node000004"><a xlink:title=" ">
<path fill="none" stroke="#9a32cd" stroke-dasharray="5,2" d="M743.92,-534.25C782.72,-533.5 831.2,-532.55 874.5,-531.62 956.56,-529.88 1053.12,-527.6 1102.65,-526.42"/>
<polygon fill="#9a32cd" stroke="#9a32cd" points="744.17,-530.74 734.24,-534.43 744.3,-537.74 744.17,-530.74"/>
</a>
</g>
<text text-anchor="middle" x="938.38" y="-533.38" font-family="Helvetica,sans-Serif" font-size="10.00" fill="grey"> field_0x114</text>
</g>
<!-- Node4&#45;&gt;Node3 -->
<g id="edge3_Node000003_Node000004" class="edge">
<title>Node4&#45;&gt;Node3</title>
<g id="a_edge3_Node000003_Node000004"><a xlink:title=" ">
<path fill="none" stroke="#9a32cd" stroke-dasharray="5,2" d="M692.2,-518.69C707.53,-507.56 729.14,-493.79 750.5,-486.62 805.04,-468.34 873.21,-466.71 910.28,-467.46"/>
<polygon fill="#9a32cd" stroke="#9a32cd" points="690.21,-515.81 684.31,-524.61 694.41,-521.4 690.21,-515.81"/>
</a>
</g>
<text text-anchor="middle" x="812.5" y="-522.12" font-family="Helvetica,sans-Serif" font-size="10.00" fill="grey"> mBounds</text>
<text text-anchor="middle" x="812.5" y="-510.88" font-family="Helvetica,sans-Serif" font-size="10.00" fill="grey">mClipRect</text>
<text text-anchor="middle" x="812.5" y="-499.62" font-family="Helvetica,sans-Serif" font-size="10.00" fill="grey">mGlobalBounds</text>
<text text-anchor="middle" x="812.5" y="-488.38" font-family="Helvetica,sans-Serif" font-size="10.00" fill="grey">static_mBounds</text>
</g>
<!-- Node5 -->
<g id="Node000005" class="node">
<title>Node5</title>
<g id="a_Node000005"><a xlink:href="structJGeometry_1_1TBox.html" target="_top" xlink:title=" ">
<polygon fill="white" stroke="#666666" points="469.75,-545.25 357,-545.25 357,-526 469.75,-526 469.75,-545.25"/>
<text text-anchor="middle" x="413.38" y="-531.75" font-family="Helvetica,sans-Serif" font-size="10.00">JGeometry::TBox&lt; T &gt;</text>
</a>
</g>
</g>
<!-- Node5&#45;&gt;Node4 -->
<g id="edge4_Node000004_Node000005" class="edge">
<title>Node5&#45;&gt;Node4</title>
<g id="a_edge4_Node000004_Node000005"><a xlink:title=" ">
<path fill="none" stroke="#63b8ff" d="M481.4,-535.62C520.26,-535.62 568.85,-535.62 606.81,-535.62"/>
<polygon fill="#63b8ff" stroke="#63b8ff" points="481.71,-532.13 471.71,-535.63 481.71,-539.13 481.71,-532.13"/>
</a>
</g>
</g>
<!-- Node6 -->
<g id="Node000006" class="node">
<title>Node6</title>
<g id="a_Node000006"><a xlink:href="classJSUTree.html" target="_top" xlink:title=" ">
<polygon fill="white" stroke="#666666" points="725.38,-463.25 614.12,-463.25 614.12,-444 725.38,-444 725.38,-463.25"/>
<text text-anchor="middle" x="669.75" y="-449.75" font-family="Helvetica,sans-Serif" font-size="10.00">JSUTree&lt; J2DPane &gt;</text>
</a>
</g>
</g>
<!-- Node6&#45;&gt;Node3 -->
<g id="edge5_Node000003_Node000006" class="edge">
<title>Node6&#45;&gt;Node3</title>
<g id="a_edge5_Node000003_Node000006"><a xlink:title=" ">
<path fill="none" stroke="#9a32cd" stroke-dasharray="5,2" d="M736.94,-448.81C776.93,-446.99 828.83,-446.57 874.5,-452.38 886.36,-453.88 899.17,-456.93 910.12,-459.98"/>
<polygon fill="#9a32cd" stroke="#9a32cd" points="736.79,-445.31 726.98,-449.3 737.14,-452.3 736.79,-445.31"/>
</a>
</g>
<text text-anchor="middle" x="812.5" y="-454.38" font-family="Helvetica,sans-Serif" font-size="10.00" fill="grey"> mPaneTree</text>
</g>
<!-- Node7 -->
<g id="Node000007" class="node">
<title>Node7</title>
<g id="a_Node000007"><a xlink:href="classJSUList.html" target="_top" xlink:title=" ">
<polygon fill="white" stroke="#666666" points="328.5,-463.25 254,-463.25 254,-444 328.5,-444 328.5,-463.25"/>
<text text-anchor="middle" x="291.25" y="-449.75" font-family="Helvetica,sans-Serif" font-size="10.00">JSUList&lt; T &gt;</text>
</a>
</g>
</g>
<!-- Node7&#45;&gt;Node6 -->
<g id="edge6_Node000006_Node000007" class="edge">
<title>Node7&#45;&gt;Node6</title>
<g id="a_edge6_Node000006_Node000007"><a xlink:title=" ">
<path fill="none" stroke="#63b8ff" d="M339.79,-453.62C409.71,-453.62 539.98,-453.62 613.87,-453.62"/>
<polygon fill="#63b8ff" stroke="#63b8ff" points="340.21,-450.13 330.21,-453.63 340.21,-457.13 340.21,-450.13"/>
</a>
</g>
</g>
<!-- Node8 -->
<g id="Node000008" class="node">
<title>Node8</title>
<g id="a_Node000008"><a xlink:href="classJSUPtrList.html" target="_top" xlink:title=" ">
<polygon fill="white" stroke="#666666" points="64.75,-496.25 0,-496.25 0,-477 64.75,-477 64.75,-496.25"/>
<text text-anchor="middle" x="32.38" y="-482.75" font-family="Helvetica,sans-Serif" font-size="10.00">JSUPtrList</text>
</a>
</g>
</g>
<!-- Node8&#45;&gt;Node7 -->
<g id="edge7_Node000007_Node000008" class="edge">
<title>Node8&#45;&gt;Node7</title>
<g id="a_edge7_Node000007_Node000008"><a xlink:title=" ">
<path fill="none" stroke="#63b8ff" d="M76.52,-480.5C94.45,-477.99 115.47,-475.1 134.5,-472.62 175.29,-467.31 222.15,-461.66 253.72,-457.91"/>
<polygon fill="#63b8ff" stroke="#63b8ff" points="76.15,-477.01 66.74,-481.87 77.13,-483.94 76.15,-477.01"/>
</a>
</g>
</g>
<!-- Node9 -->
<g id="Node000009" class="node">
<title>Node9</title>
<g id="a_Node000009"><a xlink:href="classJSUPtrLink.html" target="_top" xlink:title=" ">
<polygon fill="white" stroke="#666666" points="218.75,-501.25 151.75,-501.25 151.75,-482 218.75,-482 218.75,-501.25"/>
<text text-anchor="middle" x="185.25" y="-487.75" font-family="Helvetica,sans-Serif" font-size="10.00">JSUPtrLink</text>
</a>
</g>
</g>
<!-- Node8&#45;&gt;Node9 -->
<g id="edge9_Node000009_Node000008" class="edge">
<title>Node8&#45;&gt;Node9</title>
<g id="a_edge9_Node000009_Node000008"><a xlink:title=" ">
<path fill="none" stroke="#9a32cd" stroke-dasharray="5,2" d="M76.53,-485.47C78.64,-485.43 80.72,-485.4 82.75,-485.38 97.75,-485.19 101.52,-484.69 116.5,-485.38 127.95,-485.9 140.44,-486.93 151.56,-488"/>
<polygon fill="#9a32cd" stroke="#9a32cd" points="76.68,-481.96 66.76,-485.67 76.83,-488.96 76.68,-481.96"/>
</a>
</g>
<text text-anchor="middle" x="99.62" y="-487.38" font-family="Helvetica,sans-Serif" font-size="10.00" fill="grey"> mList</text>
</g>
<!-- Node9&#45;&gt;Node8 -->
<g id="edge8_Node000008_Node000009" class="edge">
<title>Node9&#45;&gt;Node8</title>
<g id="a_edge8_Node000008_Node000009"><a xlink:title=" ">
<path fill="none" stroke="#9a32cd" stroke-dasharray="5,2" d="M140.01,-498.28C122.19,-500.02 101.45,-500.87 82.75,-498.62 76.97,-497.93 70.89,-496.8 65.04,-495.5"/>
<polygon fill="#9a32cd" stroke="#9a32cd" points="140.2,-501.78 149.75,-497.2 139.43,-494.82 140.2,-501.78"/>
</a>
</g>
<text text-anchor="middle" x="99.62" y="-513.62" font-family="Helvetica,sans-Serif" font-size="10.00" fill="grey"> mHead</text>
<text text-anchor="middle" x="99.62" y="-502.38" font-family="Helvetica,sans-Serif" font-size="10.00" fill="grey">mTail</text>
</g>
<!-- Node9&#45;&gt;Node9 -->
<g id="edge10_Node000009_Node000009" class="edge">
<title>Node9&#45;&gt;Node9</title>
<g id="a_edge10_Node000009_Node000009"><a xlink:title=" ">
<path fill="none" stroke="#9a32cd" stroke-dasharray="5,2" d="M170.05,-512.65C171.95,-516.53 177.02,-519.25 185.25,-519.25 200.3,-519.25 204.77,-510.15 198.66,-501.54"/>
<polygon fill="#9a32cd" stroke="#9a32cd" points="173.47,-513.46 171.6,-503.03 166.56,-512.35 173.47,-513.46"/>
</a>
</g>
<text text-anchor="middle" x="185.25" y="-532.25" font-family="Helvetica,sans-Serif" font-size="10.00" fill="grey"> mNext</text>
<text text-anchor="middle" x="185.25" y="-521" font-family="Helvetica,sans-Serif" font-size="10.00" fill="grey">mPrev</text>
</g>
<!-- Node10 -->
<g id="Node000010" class="node">
<title>Node10</title>
<g id="a_Node000010"><a xlink:href="classJSULink.html" target="_top" xlink:title=" ">
<polygon fill="white" stroke="#666666" points="451.75,-501.25 375,-501.25 375,-482 451.75,-482 451.75,-501.25"/>
<text text-anchor="middle" x="413.38" y="-487.75" font-family="Helvetica,sans-Serif" font-size="10.00">JSULink&lt; T &gt;</text>
</a>
</g>
</g>
<!-- Node9&#45;&gt;Node10 -->
<g id="edge12_Node000010_Node000009" class="edge">
<title>Node9&#45;&gt;Node10</title>
<g id="a_edge12_Node000010_Node000009"><a xlink:title=" ">
<path fill="none" stroke="#63b8ff" d="M230.39,-491.62C272.35,-491.62 334.8,-491.62 374.55,-491.62"/>
<polygon fill="#63b8ff" stroke="#63b8ff" points="230.64,-488.13 220.64,-491.63 230.64,-495.13 230.64,-488.13"/>
</a>
</g>
</g>
<!-- Node10&#45;&gt;Node6 -->
<g id="edge11_Node000006_Node000010" class="edge">
<title>Node10&#45;&gt;Node6</title>
<g id="a_edge11_Node000006_Node000010"><a xlink:title=" ">
<path fill="none" stroke="#63b8ff" d="M463.59,-485.36C498.62,-480.78 546.76,-474.23 589,-467.62 597.06,-466.36 605.55,-464.96 613.88,-463.53"/>
<polygon fill="#63b8ff" stroke="#63b8ff" points="463.21,-481.88 453.75,-486.64 464.11,-488.82 463.21,-481.88"/>
</a>
</g>
</g>
<!-- Node11 -->
<g id="Node000011" class="node">
<title>Node11</title>
<g id="a_Node000011"><a xlink:href="classJ2DAnmTransform.html" target="_top" xlink:title=" ">
<polygon fill="white" stroke="#666666" points="718.62,-383.25 620.88,-383.25 620.88,-364 718.62,-364 718.62,-383.25"/>
<text text-anchor="middle" x="669.75" y="-369.75" font-family="Helvetica,sans-Serif" font-size="10.00">J2DAnmTransform</text>
</a>
</g>
</g>
<!-- Node11&#45;&gt;Node3 -->
<g id="edge13_Node000003_Node000011" class="edge">
<title>Node11&#45;&gt;Node3</title>
<g id="a_edge13_Node000003_Node000011"><a xlink:title=" ">
<path fill="none" stroke="#9a32cd" stroke-dasharray="5,2" d="M730.4,-370.22C781.95,-368.44 851.67,-369.2 874.5,-384.38 889.81,-394.55 882.02,-406.51 892.5,-421.62 902.27,-435.72 916.26,-449.64 926.01,-458.63"/>
<polygon fill="#9a32cd" stroke="#9a32cd" points="730.41,-366.72 720.56,-370.6 730.68,-373.71 730.41,-366.72"/>
</a>
</g>
<text text-anchor="middle" x="812.5" y="-386.38" font-family="Helvetica,sans-Serif" font-size="10.00" fill="grey"> mTransform</text>
</g>
<!-- Node12 -->
<g id="Node000012" class="node">
<title>Node12</title>
<g id="a_Node000012"><a xlink:href="structJ2DAnmBase.html" target="_top" xlink:title=" ">
<polygon fill="white" stroke="#666666" points="451.38,-124.25 375.38,-124.25 375.38,-105 451.38,-105 451.38,-124.25"/>
<text text-anchor="middle" x="413.38" y="-110.75" font-family="Helvetica,sans-Serif" font-size="10.00">J2DAnmBase</text>
</a>
</g>
</g>
<!-- Node12&#45;&gt;Node11 -->
<g id="edge14_Node000011_Node000012" class="edge">
<title>Node12&#45;&gt;Node11</title>
<g id="a_edge14_Node000011_Node000012"><a xlink:title=" ">
<path fill="none" stroke="#63b8ff" d="M436.9,-131.6C451.27,-143.55 469.21,-160.74 480.25,-179.62 495.6,-205.87 482.7,-219.5 498.25,-245.62 532.46,-303.09 550.58,-313.71 607,-349.62 615.83,-355.25 626.18,-359.9 635.86,-363.57"/>
<polygon fill="#63b8ff" stroke="#63b8ff" points="439.26,-129.01 429.27,-125.49 434.88,-134.47 439.26,-129.01"/>
</a>
</g>
</g>
<!-- Node37 -->
<g id="Node000037" class="node">
<title>Node37</title>
<g id="a_Node000037"><a xlink:href="structJ2DMaterial_1_1J2DMaterialAnmPointer.html" target="_top" xlink:title=" ">
<polygon fill="white" stroke="#666666" points="874.5,-152.88 750.5,-152.88 750.5,-122.38 874.5,-122.38 874.5,-152.88"/>
<text text-anchor="start" x="758.5" y="-139.38" font-family="Helvetica,sans-Serif" font-size="10.00">J2DMaterial::J2DMaterial</text>
<text text-anchor="middle" x="812.5" y="-128.12" font-family="Helvetica,sans-Serif" font-size="10.00">AnmPointer</text>
</a>
</g>
</g>
<!-- Node12&#45;&gt;Node37 -->
<g id="edge43_Node000037_Node000012" class="edge">
<title>Node12&#45;&gt;Node37</title>
<g id="a_edge43_Node000037_Node000012"><a xlink:title=" ">
<path fill="none" stroke="#9a32cd" stroke-dasharray="5,2" d="M463.21,-117.45C535.55,-121.64 671.12,-129.49 750.1,-134.07"/>
<polygon fill="#9a32cd" stroke="#9a32cd" points="463.43,-113.96 453.25,-116.88 463.03,-120.95 463.43,-113.96"/>
</a>
</g>
<text text-anchor="middle" x="543.62" y="-161.12" font-family="Helvetica,sans-Serif" font-size="10.00" fill="grey"> field_0x0</text>
<text text-anchor="middle" x="543.62" y="-149.88" font-family="Helvetica,sans-Serif" font-size="10.00" fill="grey">field_0x4</text>
<text text-anchor="middle" x="543.62" y="-138.62" font-family="Helvetica,sans-Serif" font-size="10.00" fill="grey">field_0x8</text>
<text text-anchor="middle" x="543.62" y="-127.38" font-family="Helvetica,sans-Serif" font-size="10.00" fill="grey">field_0xc</text>
</g>
<!-- Node38 -->
<g id="Node000038" class="node">
<title>Node38</title>
<g id="a_Node000038"><a xlink:href="structJ2DAnmVisibilityFull.html" target="_top" xlink:title=" ">
<polygon fill="white" stroke="#666666" points="722.38,-69.25 617.12,-69.25 617.12,-50 722.38,-50 722.38,-69.25"/>
<text text-anchor="middle" x="669.75" y="-55.75" font-family="Helvetica,sans-Serif" font-size="10.00">J2DAnmVisibilityFull</text>
</a>
</g>
</g>
<!-- Node12&#45;&gt;Node38 -->
<g id="edge45_Node000038_Node000012" class="edge">
<title>Node12&#45;&gt;Node38</title>
<g id="a_edge45_Node000038_Node000012"><a xlink:title=" ">
<path fill="none" stroke="#63b8ff" d="M462.7,-107.6C497.93,-102.1 546.7,-93.71 589,-83.62 605.46,-79.7 623.53,-74.35 638.3,-69.7"/>
<polygon fill="#63b8ff" stroke="#63b8ff" points="462.61,-104.07 453.26,-109.05 463.68,-110.99 462.61,-104.07"/>
</a>
</g>
</g>
<!-- Node40 -->
<g id="Node000040" class="node">
<title>Node40</title>
<g id="a_Node000040"><a xlink:href="structJ2DAnmVtxColor.html" target="_top" xlink:title=" ">
<polygon fill="white" stroke="#666666" points="714.88,-31.25 624.62,-31.25 624.62,-12 714.88,-12 714.88,-31.25"/>
<text text-anchor="middle" x="669.75" y="-17.75" font-family="Helvetica,sans-Serif" font-size="10.00">J2DAnmVtxColor</text>
</a>
</g>
</g>
<!-- Node12&#45;&gt;Node40 -->
<g id="edge48_Node000040_Node000012" class="edge">
<title>Node12&#45;&gt;Node40</title>
<g id="a_edge48_Node000040_Node000012"><a xlink:title=" ">
<path fill="none" stroke="#63b8ff" d="M454.48,-101.03C468.33,-96.39 483.95,-91.22 498.25,-86.62 538.44,-73.72 552.85,-80.41 589,-58.62 598.69,-52.79 597.31,-46.46 607,-40.62 612.96,-37.04 619.65,-34.07 626.38,-31.64"/>
<polygon fill="#63b8ff" stroke="#63b8ff" points="453.62,-97.63 445.26,-104.13 455.85,-104.26 453.62,-97.63"/>
</a>
</g>
</g>
<!-- Node13 -->
<g id="Node000013" class="node">
<title>Node13</title>
<g id="a_Node000013"><a xlink:href="classJUTTexture.html" target="_top" xlink:title=" ">
<polygon fill="white" stroke="#666666" points="971.88,-608.25 904.88,-608.25 904.88,-589 971.88,-589 971.88,-608.25"/>
<text text-anchor="middle" x="938.38" y="-594.75" font-family="Helvetica,sans-Serif" font-size="10.00">JUTTexture</text>
</a>
</g>
</g>
<!-- Node13&#45;&gt;Node2 -->
<g id="edge15_Node000002_Node000013" class="edge">
<title>Node13&#45;&gt;Node2</title>
<g id="a_edge15_Node000002_Node000013"><a xlink:title=" ">
<path fill="none" stroke="#9a32cd" stroke-dasharray="5,2" d="M983.38,-590.74C1012.9,-584.51 1052.18,-574.39 1084.75,-559.62 1098.88,-553.22 1113.44,-543.06 1123.34,-535.52"/>
<polygon fill="#9a32cd" stroke="#9a32cd" points="982.77,-587.29 973.66,-592.71 984.16,-594.15 982.77,-587.29"/>
</a>
</g>
<text text-anchor="middle" x="1043.5" y="-633.38" font-family="Helvetica,sans-Serif" font-size="10.00" fill="grey"> field_0x100</text>
<text text-anchor="middle" x="1043.5" y="-622.12" font-family="Helvetica,sans-Serif" font-size="10.00" fill="grey">field_0x104</text>
<text text-anchor="middle" x="1043.5" y="-610.88" font-family="Helvetica,sans-Serif" font-size="10.00" fill="grey">field_0x108</text>
<text text-anchor="middle" x="1043.5" y="-599.62" font-family="Helvetica,sans-Serif" font-size="10.00" fill="grey">field_0x10c</text>
<text text-anchor="middle" x="1043.5" y="-588.38" font-family="Helvetica,sans-Serif" font-size="10.00" fill="grey">field_0x110</text>
</g>
<!-- Node14 -->
<g id="Node000014" class="node">
<title>Node14</title>
<g id="a_Node000014"><a xlink:href="struct__GXTexObj.html" target="_top" xlink:title=" ">
<polygon fill="white" stroke="#666666" points="702.88,-586.25 636.62,-586.25 636.62,-567 702.88,-567 702.88,-586.25"/>
<text text-anchor="middle" x="669.75" y="-572.75" font-family="Helvetica,sans-Serif" font-size="10.00">_GXTexObj</text>
</a>
</g>
</g>
<!-- Node14&#45;&gt;Node13 -->
<g id="edge16_Node000013_Node000014" class="edge">
<title>Node14&#45;&gt;Node13</title>
<g id="a_edge16_Node000013_Node000014"><a xlink:title=" ">
<path fill="none" stroke="#9a32cd" stroke-dasharray="5,2" d="M714.62,-577.37C755.98,-578.44 819.62,-581.04 874.5,-587.38 884.3,-588.51 894.89,-590.21 904.53,-591.95"/>
<polygon fill="#9a32cd" stroke="#9a32cd" points="714.91,-573.87 704.83,-577.13 714.75,-580.87 714.91,-573.87"/>
</a>
</g>
<text text-anchor="middle" x="812.5" y="-589.38" font-family="Helvetica,sans-Serif" font-size="10.00" fill="grey"> mTexObj</text>
</g>
<!-- Node15 -->
<g id="Node000015" class="node">
<title>Node15</title>
<g id="a_Node000015"><a xlink:href="structResTIMG.html" target="_top" xlink:title="Image data header.">
<polygon fill="white" stroke="#666666" points="698.75,-623.25 640.75,-623.25 640.75,-604 698.75,-604 698.75,-623.25"/>
<text text-anchor="middle" x="669.75" y="-609.75" font-family="Helvetica,sans-Serif" font-size="10.00">ResTIMG</text>
</a>
</g>
</g>
<!-- Node15&#45;&gt;Node13 -->
<g id="edge17_Node000013_Node000015" class="edge">
<title>Node15&#45;&gt;Node13</title>
<g id="a_edge17_Node000013_Node000015"><a xlink:title=" ">
<path fill="none" stroke="#9a32cd" stroke-dasharray="5,2" d="M710.27,-611.4C762.96,-608.44 855.28,-603.24 904.42,-600.48"/>
<polygon fill="#9a32cd" stroke="#9a32cd" points="710.33,-607.89 700.54,-611.95 710.72,-614.88 710.33,-607.89"/>
</a>
</g>
<text text-anchor="middle" x="812.5" y="-611.38" font-family="Helvetica,sans-Serif" font-size="10.00" fill="grey"> mTexInfo</text>
</g>
<!-- Node16 -->
<g id="Node000016" class="node">
<title>Node16</title>
<g id="a_Node000016"><a xlink:href="classJUTPalette.html" target="_top" xlink:title=" ">
<polygon fill="white" stroke="#666666" points="702.5,-677.25 637,-677.25 637,-658 702.5,-658 702.5,-677.25"/>
<text text-anchor="middle" x="669.75" y="-663.75" font-family="Helvetica,sans-Serif" font-size="10.00">JUTPalette</text>
</a>
</g>
</g>
<!-- Node16&#45;&gt;Node2 -->
<g id="edge22_Node000002_Node000016" class="edge">
<title>Node16&#45;&gt;Node2</title>
<g id="a_edge22_Node000002_Node000016"><a xlink:title=" ">
<path fill="none" stroke="#9a32cd" stroke-dasharray="5,2" d="M713.83,-679.67C795.32,-699.66 973.79,-729.8 1084.75,-646.62 1121.77,-618.88 1132.07,-559.05 1134.75,-535.47"/>
<polygon fill="#9a32cd" stroke="#9a32cd" points="715.01,-676.36 704.46,-677.3 713.3,-683.14 715.01,-676.36"/>
</a>
</g>
<text text-anchor="middle" x="938.38" y="-704.38" font-family="Helvetica,sans-Serif" font-size="10.00" fill="grey"> mPalette</text>
</g>
<!-- Node16&#45;&gt;Node13 -->
<g id="edge18_Node000013_Node000016" class="edge">
<title>Node16&#45;&gt;Node13</title>
<g id="a_edge18_Node000013_Node000016"><a xlink:title=" ">
<path fill="none" stroke="#9a32cd" stroke-dasharray="5,2" d="M713.85,-656.65C725.7,-653.75 738.57,-650.71 750.5,-648.12 805.32,-636.24 820.75,-640.65 874.5,-624.62 888.76,-620.37 904.22,-614.01 916.24,-608.64"/>
<polygon fill="#9a32cd" stroke="#9a32cd" points="713.2,-653.2 704.34,-659 714.88,-660 713.2,-653.2"/>
</a>
</g>
<text text-anchor="middle" x="812.5" y="-661.62" font-family="Helvetica,sans-Serif" font-size="10.00" fill="grey"> field_0x2c</text>
<text text-anchor="middle" x="812.5" y="-650.38" font-family="Helvetica,sans-Serif" font-size="10.00" fill="grey">mEmbPalette</text>
</g>
<!-- Node17 -->
<g id="Node000017" class="node">
<title>Node17</title>
<g id="a_Node000017"><a xlink:href="struct__GXTlutObj.html" target="_top" xlink:title=" ">
<polygon fill="white" stroke="#666666" points="446.88,-658.25 379.88,-658.25 379.88,-639 446.88,-639 446.88,-658.25"/>
<text text-anchor="middle" x="413.38" y="-644.75" font-family="Helvetica,sans-Serif" font-size="10.00">_GXTlutObj</text>
</a>
</g>
</g>
<!-- Node17&#45;&gt;Node16 -->
<g id="edge19_Node000016_Node000017" class="edge">
<title>Node17&#45;&gt;Node16</title>
<g id="a_edge19_Node000016_Node000017"><a xlink:title=" ">
<path fill="none" stroke="#9a32cd" stroke-dasharray="5,2" d="M458.6,-650.36C493.94,-651.93 544.7,-654.57 589,-658.38 604.69,-659.72 622.07,-661.68 636.59,-663.45"/>
<polygon fill="#9a32cd" stroke="#9a32cd" points="458.9,-646.87 448.76,-649.94 458.6,-653.87 458.9,-646.87"/>
</a>
</g>
<text text-anchor="middle" x="543.62" y="-660.38" font-family="Helvetica,sans-Serif" font-size="10.00" fill="grey"> mTlutObj</text>
</g>
<!-- Node18 -->
<g id="Node000018" class="node">
<title>Node18</title>
<g id="a_Node000018"><a xlink:href="structResTLUT.html" target="_top" xlink:title=" ">
<polygon fill="white" stroke="#666666" points="442.75,-695.25 384,-695.25 384,-676 442.75,-676 442.75,-695.25"/>
<text text-anchor="middle" x="413.38" y="-681.75" font-family="Helvetica,sans-Serif" font-size="10.00">ResTLUT</text>
</a>
</g>
</g>
<!-- Node18&#45;&gt;Node16 -->
<g id="edge20_Node000016_Node000018" class="edge">
<title>Node18&#45;&gt;Node16</title>
<g id="a_edge20_Node000016_Node000018"><a xlink:title=" ">
<path fill="none" stroke="#9a32cd" stroke-dasharray="5,2" d="M454.46,-682.79C504.83,-679.22 590.26,-673.18 636.58,-669.9"/>
<polygon fill="#9a32cd" stroke="#9a32cd" points="454.3,-679.29 444.57,-683.49 454.79,-686.27 454.3,-679.29"/>
</a>
</g>
<text text-anchor="middle" x="543.62" y="-681.38" font-family="Helvetica,sans-Serif" font-size="10.00" fill="grey"> mColorTable</text>
</g>
<!-- Node19 -->
<g id="Node000019" class="node">
<title>Node19</title>
<g id="a_Node000019"><a xlink:href="structJUtility_1_1TColor.html" target="_top" xlink:title=" ">
<polygon fill="white" stroke="#666666" points="709.25,-303.25 630.25,-303.25 630.25,-284 709.25,-284 709.25,-303.25"/>
<text text-anchor="middle" x="669.75" y="-289.75" font-family="Helvetica,sans-Serif" font-size="10.00">JUtility::TColor</text>
</a>
</g>
</g>
<!-- Node19&#45;&gt;Node2 -->
<g id="edge23_Node000002_Node000019" class="edge">
<title>Node19&#45;&gt;Node2</title>
<g id="a_edge23_Node000002_Node000019"><a xlink:title=" ">
<path fill="none" stroke="#9a32cd" stroke-dasharray="5,2" d="M719.97,-304.63C724.4,-306.59 728.65,-308.91 732.5,-311.62 743.68,-319.53 738.97,-329.24 750.5,-336.62 839.63,-393.7 890.15,-333.68 984.25,-382.12 1050.89,-416.44 1108.73,-489.08 1128.44,-515.64"/>
<polygon fill="#9a32cd" stroke="#9a32cd" points="721.46,-301.45 710.86,-301.18 718.98,-308 721.46,-301.45"/>
</a>
</g>
<text text-anchor="middle" x="938.38" y="-440.62" font-family="Helvetica,sans-Serif" font-size="10.00" fill="grey"> field_0x128</text>
<text text-anchor="middle" x="938.38" y="-429.38" font-family="Helvetica,sans-Serif" font-size="10.00" fill="grey">field_0x12C</text>
<text text-anchor="middle" x="938.38" y="-418.12" font-family="Helvetica,sans-Serif" font-size="10.00" fill="grey">field_0x130</text>
<text text-anchor="middle" x="938.38" y="-406.88" font-family="Helvetica,sans-Serif" font-size="10.00" fill="grey">field_0x134</text>
<text text-anchor="middle" x="938.38" y="-395.62" font-family="Helvetica,sans-Serif" font-size="10.00" fill="grey">mBlack</text>
<text text-anchor="middle" x="938.38" y="-384.38" font-family="Helvetica,sans-Serif" font-size="10.00" fill="grey">mWhite</text>
</g>
<!-- Node22 -->
<g id="Node000022" class="node">
<title>Node22</title>
<g id="a_Node000022"><a xlink:href="classJ2DColorBlock.html" target="_top" xlink:title=" ">
<polygon fill="white" stroke="#666666" points="978.62,-266.25 898.12,-266.25 898.12,-247 978.62,-247 978.62,-266.25"/>
<text text-anchor="middle" x="938.38" y="-252.75" font-family="Helvetica,sans-Serif" font-size="10.00">J2DColorBlock</text>
</a>
</g>
</g>
<!-- Node19&#45;&gt;Node22 -->
<g id="edge27_Node000022_Node000019" class="edge">
<title>Node19&#45;&gt;Node22</title>
<g id="a_edge27_Node000022_Node000019"><a xlink:title=" ">
<path fill="none" stroke="#9a32cd" stroke-dasharray="5,2" d="M720.94,-288.41C762.26,-283.89 822.31,-276.8 874.5,-268.62 882.08,-267.44 890.14,-266.02 897.87,-264.58"/>
<polygon fill="#9a32cd" stroke="#9a32cd" points="720.61,-284.92 711.04,-289.48 721.36,-291.88 720.61,-284.92"/>
</a>
</g>
<text text-anchor="middle" x="812.5" y="-287.38" font-family="Helvetica,sans-Serif" font-size="10.00" fill="grey"> mMatColor</text>
</g>
<!-- Node20 -->
<g id="Node000020" class="node">
<title>Node20</title>
<g id="a_Node000020"><a xlink:href="struct__GXColor.html" target="_top" xlink:title=" ">
<polygon fill="white" stroke="#666666" points="439.75,-303.25 387,-303.25 387,-284 439.75,-284 439.75,-303.25"/>
<text text-anchor="middle" x="413.38" y="-289.75" font-family="Helvetica,sans-Serif" font-size="10.00">GXColor</text>
</a>
</g>
</g>
<!-- Node20&#45;&gt;Node19 -->
<g id="edge24_Node000019_Node000020" class="edge">
<title>Node20&#45;&gt;Node19</title>
<g id="a_edge24_Node000019_Node000020"><a xlink:title=" ">
<path fill="none" stroke="#63b8ff" d="M451.51,-293.62C499.22,-293.62 581.66,-293.62 630.1,-293.62"/>
<polygon fill="#63b8ff" stroke="#63b8ff" points="451.68,-290.13 441.68,-293.63 451.68,-297.13 451.68,-290.13"/>
</a>
</g>
</g>
<!-- Node21 -->
<g id="Node000021" class="node">
<title>Node21</title>
<g id="a_Node000021"><a xlink:href="classJ2DMaterial.html" target="_top" xlink:title=" ">
<polygon fill="white" stroke="#666666" points="1170.5,-190.25 1102.75,-190.25 1102.75,-171 1170.5,-171 1170.5,-190.25"/>
<text text-anchor="middle" x="1136.62" y="-176.75" font-family="Helvetica,sans-Serif" font-size="10.00">J2DMaterial</text>
</a>
</g>
</g>
<!-- Node21&#45;&gt;Node1 -->
<g id="edge25_Node000001_Node000021" class="edge">
<title>Node21&#45;&gt;Node1</title>
<g id="a_edge25_Node000001_Node000021"><a xlink:title=" ">
<path fill="none" stroke="#9a32cd" stroke-dasharray="5,2" d="M1165.78,-165.15C1205.51,-143.31 1276.9,-104.06 1310.37,-85.66"/>
<polygon fill="#9a32cd" stroke="#9a32cd" points="1164.34,-161.94 1157.27,-169.83 1167.71,-168.08 1164.34,-161.94"/>
</a>
</g>
<text text-anchor="middle" x="1230.5" y="-165.62" font-family="Helvetica,sans-Serif" font-size="10.00" fill="grey"> mContentsMaterial</text>
<text text-anchor="middle" x="1230.5" y="-154.38" font-family="Helvetica,sans-Serif" font-size="10.00" fill="grey">mFrameMaterial</text>
</g>
<!-- Node22&#45;&gt;Node21 -->
<g id="edge26_Node000021_Node000022" class="edge">
<title>Node22&#45;&gt;Node21</title>
<g id="a_edge26_Node000021_Node000022"><a xlink:title=" ">
<path fill="none" stroke="#9a32cd" stroke-dasharray="5,2" d="M990.18,-251.7C1019.08,-247.4 1055.28,-239.4 1084.75,-224.62 1101.66,-216.14 1117.54,-200.78 1126.92,-190.64"/>
<polygon fill="#9a32cd" stroke="#9a32cd" points="990.02,-248.19 980.59,-253.02 990.97,-255.13 990.02,-248.19"/>
</a>
</g>
<text text-anchor="middle" x="1043.5" y="-251.38" font-family="Helvetica,sans-Serif" font-size="10.00" fill="grey"> mColorBlock</text>
</g>
<!-- Node23 -->
<g id="Node000023" class="node">
<title>Node23</title>
<g id="a_Node000023"><a xlink:href="classJ2DColorChan.html" target="_top" xlink:title=" ">
<polygon fill="white" stroke="#666666" points="708.88,-266.25 630.62,-266.25 630.62,-247 708.88,-247 708.88,-266.25"/>
<text text-anchor="middle" x="669.75" y="-252.75" font-family="Helvetica,sans-Serif" font-size="10.00">J2DColorChan</text>
</a>
</g>
</g>
<!-- Node23&#45;&gt;Node22 -->
<g id="edge28_Node000022_Node000023" class="edge">
<title>Node23&#45;&gt;Node22</title>
<g id="a_edge28_Node000022_Node000023"><a xlink:title=" ">
<path fill="none" stroke="#9a32cd" stroke-dasharray="5,2" d="M720.7,-256.62C772.05,-256.62 850.95,-256.62 898.03,-256.62"/>
<polygon fill="#9a32cd" stroke="#9a32cd" points="720.75,-253.13 710.75,-256.63 720.75,-260.13 720.75,-253.13"/>
</a>
</g>
<text text-anchor="middle" x="812.5" y="-258.38" font-family="Helvetica,sans-Serif" font-size="10.00" fill="grey"> mColorChan</text>
</g>
<!-- Node24 -->
<g id="Node000024" class="node">
<title>Node24</title>
<g id="a_Node000024"><a xlink:href="classJ2DTexGenBlock.html" target="_top" xlink:title=" ">
<polygon fill="white" stroke="#666666" points="984.25,-229.25 892.5,-229.25 892.5,-210 984.25,-210 984.25,-229.25"/>
<text text-anchor="middle" x="938.38" y="-215.75" font-family="Helvetica,sans-Serif" font-size="10.00">J2DTexGenBlock</text>
</a>
</g>
</g>
<!-- Node24&#45;&gt;Node21 -->
<g id="edge29_Node000021_Node000024" class="edge">
<title>Node24&#45;&gt;Node21</title>
<g id="a_edge29_Node000021_Node000024"><a xlink:title=" ">
<path fill="none" stroke="#9a32cd" stroke-dasharray="5,2" d="M995.67,-211.26C1022.73,-206.91 1055.55,-201.14 1084.75,-194.62 1090.47,-193.35 1096.51,-191.84 1102.36,-190.28"/>
<polygon fill="#9a32cd" stroke="#9a32cd" points="995.28,-207.78 985.95,-212.81 996.38,-214.7 995.28,-207.78"/>
</a>
</g>
<text text-anchor="middle" x="1043.5" y="-211.38" font-family="Helvetica,sans-Serif" font-size="10.00" fill="grey"> mTexGenBlock</text>
</g>
<!-- Node25 -->
<g id="Node000025" class="node">
<title>Node25</title>
<g id="a_Node000025"><a xlink:href="classJ2DTexCoord.html" target="_top" xlink:title=" ">
<polygon fill="white" stroke="#666666" points="707,-192.25 632.5,-192.25 632.5,-173 707,-173 707,-192.25"/>
<text text-anchor="middle" x="669.75" y="-178.75" font-family="Helvetica,sans-Serif" font-size="10.00">J2DTexCoord</text>
</a>
</g>
</g>
<!-- Node25&#45;&gt;Node24 -->
<g id="edge30_Node000024_Node000025" class="edge">
<title>Node25&#45;&gt;Node24</title>
<g id="a_edge30_Node000024_Node000025"><a xlink:title=" ">
<path fill="none" stroke="#9a32cd" stroke-dasharray="5,2" d="M718.79,-185.96C760.24,-189.26 821.59,-195.18 874.5,-204.38 882.58,-205.78 891.16,-207.62 899.31,-209.54"/>
<polygon fill="#9a32cd" stroke="#9a32cd" points="719.14,-182.48 708.9,-185.19 718.6,-189.46 719.14,-182.48"/>
</a>
</g>
<text text-anchor="middle" x="812.5" y="-206.38" font-family="Helvetica,sans-Serif" font-size="10.00" fill="grey"> mTexGenCoord</text>
</g>
<!-- Node26 -->
<g id="Node000026" class="node">
<title>Node26</title>
<g id="a_Node000026"><a xlink:href="structJ2DTexCoordInfo.html" target="_top" xlink:title=" ">
<polygon fill="white" stroke="#666666" points="458.88,-208.25 367.88,-208.25 367.88,-189 458.88,-189 458.88,-208.25"/>
<text text-anchor="middle" x="413.38" y="-194.75" font-family="Helvetica,sans-Serif" font-size="10.00">J2DTexCoordInfo</text>
</a>
</g>
</g>
<!-- Node26&#45;&gt;Node25 -->
<g id="edge31_Node000025_Node000026" class="edge">
<title>Node26&#45;&gt;Node25</title>
<g id="a_edge31_Node000025_Node000026"><a xlink:title=" ">
<path fill="none" stroke="#9a32cd" stroke-dasharray="5,2" d="M470.67,-195.08C519.87,-191.99 589.87,-187.59 632.13,-184.93"/>
<polygon fill="#9a32cd" stroke="#9a32cd" points="470.54,-191.59 460.78,-195.71 470.98,-198.57 470.54,-191.59"/>
</a>
</g>
<text text-anchor="middle" x="543.62" y="-195.38" font-family="Helvetica,sans-Serif" font-size="10.00" fill="grey"> mTexCoordInfo</text>
</g>
<!-- Node27 -->
<g id="Node000027" class="node">
<title>Node27</title>
<g id="a_Node000027"><a xlink:href="classJ2DTexMtx.html" target="_top" xlink:title=" ">
<polygon fill="white" stroke="#666666" points="702.12,-229.25 637.38,-229.25 637.38,-210 702.12,-210 702.12,-229.25"/>
<text text-anchor="middle" x="669.75" y="-215.75" font-family="Helvetica,sans-Serif" font-size="10.00">J2DTexMtx</text>
</a>
</g>
</g>
<!-- Node27&#45;&gt;Node24 -->
<g id="edge32_Node000024_Node000027" class="edge">
<title>Node27&#45;&gt;Node24</title>
<g id="a_edge32_Node000024_Node000027"><a xlink:title=" ">
<path fill="none" stroke="#9a32cd" stroke-dasharray="5,2" d="M713.86,-219.62C762.91,-219.62 842.67,-219.62 892.46,-219.62"/>
<polygon fill="#9a32cd" stroke="#9a32cd" points="713.9,-216.13 703.9,-219.63 713.9,-223.13 713.9,-216.13"/>
</a>
</g>
<text text-anchor="middle" x="812.5" y="-221.38" font-family="Helvetica,sans-Serif" font-size="10.00" fill="grey"> mTexMtx</text>
</g>
<!-- Node28 -->
<g id="Node000028" class="node">
<title>Node28</title>
<g id="a_Node000028"><a xlink:href="structJ2DTexMtxInfo.html" target="_top" xlink:title=" ">
<polygon fill="white" stroke="#666666" points="454,-245.25 372.75,-245.25 372.75,-226 454,-226 454,-245.25"/>
<text text-anchor="middle" x="413.38" y="-231.75" font-family="Helvetica,sans-Serif" font-size="10.00">J2DTexMtxInfo</text>
</a>
</g>
</g>
<!-- Node28&#45;&gt;Node27 -->
<g id="edge33_Node000027_Node000028" class="edge">
<title>Node28&#45;&gt;Node27</title>
<g id="a_edge33_Node000027_Node000028"><a xlink:title=" ">
<path fill="none" stroke="#9a32cd" stroke-dasharray="5,2" d="M465.88,-232.39C517.11,-229.16 594.1,-224.32 636.99,-221.62"/>
<polygon fill="#9a32cd" stroke="#9a32cd" points="465.67,-228.89 455.91,-233.01 466.11,-235.88 465.67,-228.89"/>
</a>
</g>
<text text-anchor="middle" x="543.62" y="-232.38" font-family="Helvetica,sans-Serif" font-size="10.00" fill="grey"> mInfo</text>
</g>
<!-- Node29 -->
<g id="Node000029" class="node">
<title>Node29</title>
<g id="a_Node000029"><a xlink:href="structVec.html" target="_top" xlink:title=" ">
<polygon fill="white" stroke="#666666" points="201.88,-263.25 168.62,-263.25 168.62,-244 201.88,-244 201.88,-263.25"/>
<text text-anchor="middle" x="185.25" y="-249.75" font-family="Helvetica,sans-Serif" font-size="10.00">Vec</text>
</a>
</g>
</g>
<!-- Node29&#45;&gt;Node28 -->
<g id="edge34_Node000028_Node000029" class="edge">
<title>Node29&#45;&gt;Node28</title>
<g id="a_edge34_Node000028_Node000029"><a xlink:title=" ">
<path fill="none" stroke="#9a32cd" stroke-dasharray="5,2" d="M213.48,-251.46C253.01,-248.31 326.52,-242.46 372.25,-238.82"/>
<polygon fill="#9a32cd" stroke="#9a32cd" points="213.35,-247.96 203.66,-252.24 213.91,-254.93 213.35,-247.96"/>
</a>
</g>
<text text-anchor="middle" x="291.25" y="-250.38" font-family="Helvetica,sans-Serif" font-size="10.00" fill="grey"> mCenter</text>
</g>
<!-- Node30 -->
<g id="Node000030" class="node">
<title>Node30</title>
<g id="a_Node000030"><a xlink:href="structJ2DTextureSRTInfo.html" target="_top" xlink:title=" ">
<polygon fill="white" stroke="#666666" points="236,-226.25 134.5,-226.25 134.5,-207 236,-207 236,-226.25"/>
<text text-anchor="middle" x="185.25" y="-212.75" font-family="Helvetica,sans-Serif" font-size="10.00">J2DTextureSRTInfo</text>
</a>
</g>
</g>
<!-- Node30&#45;&gt;Node28 -->
<g id="edge35_Node000028_Node000030" class="edge">
<title>Node30&#45;&gt;Node28</title>
<g id="a_edge35_Node000028_Node000030"><a xlink:title=" ">
<path fill="none" stroke="#9a32cd" stroke-dasharray="5,2" d="M247.52,-220.95C272.63,-222.8 301.97,-225.07 328.5,-227.38 342.79,-228.62 358.42,-230.12 372.29,-231.5"/>
<polygon fill="#9a32cd" stroke="#9a32cd" points="248.04,-217.48 237.81,-220.24 247.53,-224.46 248.04,-217.48"/>
</a>
</g>
<text text-anchor="middle" x="291.25" y="-229.38" font-family="Helvetica,sans-Serif" font-size="10.00" fill="grey"> mTexSRTInfo</text>
</g>
<!-- Node31 -->
<g id="Node000031" class="node">
<title>Node31</title>
<g id="a_Node000031"><a xlink:href="classJ2DTevBlock.html" target="_top" xlink:title=" ">
<polygon fill="white" stroke="#666666" points="975.62,-144.25 901.12,-144.25 901.12,-125 975.62,-125 975.62,-144.25"/>
<text text-anchor="middle" x="938.38" y="-130.75" font-family="Helvetica,sans-Serif" font-size="10.00">J2DTevBlock</text>
</a>
</g>
</g>
<!-- Node31&#45;&gt;Node21 -->
<g id="edge36_Node000021_Node000031" class="edge">
<title>Node31&#45;&gt;Node21</title>
<g id="a_edge36_Node000021_Node000031"><a xlink:title=" ">
<path fill="none" stroke="#9a32cd" stroke-dasharray="5,2" d="M987.31,-137.61C1016.06,-140.34 1053.08,-145.54 1084.75,-155.38 1096.61,-159.06 1109.12,-165.24 1118.77,-170.56"/>
<polygon fill="#9a32cd" stroke="#9a32cd" points="987.7,-134.13 977.43,-136.74 987.09,-141.1 987.7,-134.13"/>
</a>
</g>
<text text-anchor="middle" x="1043.5" y="-157.38" font-family="Helvetica,sans-Serif" font-size="10.00" fill="grey"> mTevBlock</text>
</g>
<!-- Node32 -->
<g id="Node000032" class="node">
<title>Node32</title>
<g id="a_Node000032"><a xlink:href="classJ2DIndBlock.html" target="_top" xlink:title=" ">
<polygon fill="white" stroke="#666666" points="974.12,-107.25 902.62,-107.25 902.62,-88 974.12,-88 974.12,-107.25"/>
<text text-anchor="middle" x="938.38" y="-93.75" font-family="Helvetica,sans-Serif" font-size="10.00">J2DIndBlock</text>
</a>
</g>
</g>
<!-- Node32&#45;&gt;Node21 -->
<g id="edge37_Node000021_Node000032" class="edge">
<title>Node32&#45;&gt;Node21</title>
<g id="a_edge37_Node000021_Node000032"><a xlink:title=" ">
<path fill="none" stroke="#9a32cd" stroke-dasharray="5,2" d="M985.78,-98.59C1015.68,-100.98 1054.48,-107.49 1084.75,-124.38 1104.99,-135.66 1121.45,-158.02 1129.75,-170.89"/>
<polygon fill="#9a32cd" stroke="#9a32cd" points="986.1,-95.1 975.9,-97.94 985.64,-102.09 986.1,-95.1"/>
</a>
</g>
<text text-anchor="middle" x="1043.5" y="-126.38" font-family="Helvetica,sans-Serif" font-size="10.00" fill="grey"> mIndBlock</text>
</g>
<!-- Node33 -->
<g id="Node000033" class="node">
<title>Node33</title>
<g id="a_Node000033"><a xlink:href="classJ2DPEBlock.html" target="_top" xlink:title=" ">
<polygon fill="white" stroke="#666666" points="973.75,-314.25 903,-314.25 903,-295 973.75,-295 973.75,-314.25"/>
<text text-anchor="middle" x="938.38" y="-300.75" font-family="Helvetica,sans-Serif" font-size="10.00">J2DPEBlock</text>
</a>
</g>
</g>
<!-- Node33&#45;&gt;Node21 -->
<g id="edge38_Node000021_Node000033" class="edge">
<title>Node33&#45;&gt;Node21</title>
<g id="a_edge38_Node000021_Node000033"><a xlink:title=" ">
<path fill="none" stroke="#9a32cd" stroke-dasharray="5,2" d="M985.27,-300.84C1016.01,-296.32 1055.96,-286.39 1084.75,-264.62 1110.59,-245.09 1126.1,-208.28 1132.38,-190.6"/>
<polygon fill="#9a32cd" stroke="#9a32cd" points="984.95,-297.35 975.49,-302.12 985.86,-304.29 984.95,-297.35"/>
</a>
</g>
<text text-anchor="middle" x="1043.5" y="-300.38" font-family="Helvetica,sans-Serif" font-size="10.00" fill="grey"> mPEBlock</text>
</g>
<!-- Node34 -->
<g id="Node000034" class="node">
<title>Node34</title>
<g id="a_Node000034"><a xlink:href="structJ2DAlphaComp.html" target="_top" xlink:title=" ">
<polygon fill="white" stroke="#666666" points="711.5,-340.25 628,-340.25 628,-321 711.5,-321 711.5,-340.25"/>
<text text-anchor="middle" x="669.75" y="-326.75" font-family="Helvetica,sans-Serif" font-size="10.00">J2DAlphaComp</text>
</a>
</g>
</g>
<!-- Node34&#45;&gt;Node33 -->
<g id="edge39_Node000033_Node000034" class="edge">
<title>Node34&#45;&gt;Node33</title>
<g id="a_edge39_Node000033_Node000034"><a xlink:title=" ">
<path fill="none" stroke="#9a32cd" stroke-dasharray="5,2" d="M723.05,-325.53C776.16,-320.35 856.91,-312.47 902.63,-308.01"/>
<polygon fill="#9a32cd" stroke="#9a32cd" points="722.95,-322.02 713.33,-326.47 723.62,-328.99 722.95,-322.02"/>
</a>
</g>
<text text-anchor="middle" x="812.5" y="-324.38" font-family="Helvetica,sans-Serif" font-size="10.00" fill="grey"> mAlphaComp</text>
</g>
<!-- Node35 -->
<g id="Node000035" class="node">
<title>Node35</title>
<g id="a_Node000035"><a xlink:href="structJ2DBlend.html" target="_top" xlink:title=" ">
<polygon fill="white" stroke="#666666" points="698.75,-426.25 640.75,-426.25 640.75,-407 698.75,-407 698.75,-426.25"/>
<text text-anchor="middle" x="669.75" y="-412.75" font-family="Helvetica,sans-Serif" font-size="10.00">J2DBlend</text>
</a>
</g>
</g>
<!-- Node35&#45;&gt;Node33 -->
<g id="edge40_Node000033_Node000035" class="edge">
<title>Node35&#45;&gt;Node33</title>
<g id="a_edge40_Node000033_Node000035"><a xlink:title=" ">
<path fill="none" stroke="#9a32cd" stroke-dasharray="5,2" d="M710.02,-424.58C755.18,-431.29 828.93,-434.44 874.5,-395.62 897.97,-375.63 873.33,-352.77 892.5,-328.62 897.11,-322.81 903.53,-318.23 910.07,-314.7"/>
<polygon fill="#9a32cd" stroke="#9a32cd" points="710.85,-421.17 700.41,-423.01 709.72,-428.07 710.85,-421.17"/>
</a>
</g>
<text text-anchor="middle" x="812.5" y="-431.38" font-family="Helvetica,sans-Serif" font-size="10.00" fill="grey"> mBlend</text>
</g>
<!-- Node36 -->
<g id="Node000036" class="node">
<title>Node36</title>
<g id="a_Node000036"><a xlink:href="structJ2DBlendInfo.html" target="_top" xlink:title=" ">
<polygon fill="white" stroke="#666666" points="450.62,-425.25 376.12,-425.25 376.12,-406 450.62,-406 450.62,-425.25"/>
<text text-anchor="middle" x="413.38" y="-411.75" font-family="Helvetica,sans-Serif" font-size="10.00">J2DBlendInfo</text>
</a>
</g>
</g>
<!-- Node36&#45;&gt;Node35 -->
<g id="edge41_Node000035_Node000036" class="edge">
<title>Node36&#45;&gt;Node35</title>
<g id="a_edge41_Node000035_Node000036"><a xlink:title=" ">
<path fill="none" stroke="#9a32cd" stroke-dasharray="5,2" d="M462.46,-415.81C514.95,-416.02 597.24,-416.34 640.31,-416.51"/>
<polygon fill="#9a32cd" stroke="#9a32cd" points="462.62,-412.31 452.61,-415.78 462.59,-419.31 462.62,-412.31"/>
</a>
</g>
<text text-anchor="middle" x="543.62" y="-418.38" font-family="Helvetica,sans-Serif" font-size="10.00" fill="grey"> mBlendInfo</text>
</g>
<!-- Node37&#45;&gt;Node21 -->
<g id="edge42_Node000021_Node000037" class="edge">
<title>Node37&#45;&gt;Node21</title>
<g id="a_edge42_Node000021_Node000037"><a xlink:title=" ">
<path fill="none" stroke="#9a32cd" stroke-dasharray="5,2" d="M885.89,-152.53C888.12,-152.91 890.32,-153.28 892.5,-153.62 967.14,-165.58 1055.53,-173.97 1102.46,-177.96"/>
<polygon fill="#9a32cd" stroke="#9a32cd" points="886.6,-149.1 876.14,-150.79 885.37,-155.99 886.6,-149.1"/>
</a>
</g>
<text text-anchor="middle" x="938.38" y="-168.38" font-family="Helvetica,sans-Serif" font-size="10.00" fill="grey"> mAnmPointer</text>
</g>
<!-- Node38&#45;&gt;Node1 -->
<g id="edge44_Node000001_Node000038" class="edge">
<title>Node38&#45;&gt;Node1</title>
<g id="a_edge44_Node000001_Node000038"><a xlink:title=" ">
<path fill="none" stroke="#9a32cd" stroke-dasharray="5,2" d="M733.97,-61.16C868.75,-64.44 1180.95,-72.03 1290.11,-74.69"/>
<polygon fill="#9a32cd" stroke="#9a32cd" points="734.24,-57.67 724.16,-60.92 734.07,-64.67 734.24,-57.67"/>
</a>
</g>
<text text-anchor="middle" x="1043.5" y="-72.38" font-family="Helvetica,sans-Serif" font-size="10.00" fill="grey"> mAnmVisibilityFull</text>
</g>
<!-- Node39 -->
<g id="Node000039" class="node">
<title>Node39</title>
<g id="a_Node000039"><a xlink:href="structJ3DAnmVisibilityFullTable.html" target="_top" xlink:title=" ">
<polygon fill="white" stroke="#666666" points="478,-56.25 348.75,-56.25 348.75,-37 478,-37 478,-56.25"/>
<text text-anchor="middle" x="413.38" y="-42.75" font-family="Helvetica,sans-Serif" font-size="10.00">J3DAnmVisibilityFullTable</text>
</a>
</g>
</g>
<!-- Node39&#45;&gt;Node38 -->
<g id="edge46_Node000038_Node000039" class="edge">
<title>Node39&#45;&gt;Node38</title>
<g id="a_edge46_Node000038_Node000039"><a xlink:title=" ">
<path fill="none" stroke="#9a32cd" stroke-dasharray="5,2" d="M489.54,-50.47C530.52,-52.56 580.2,-55.1 616.84,-56.97"/>
<polygon fill="#9a32cd" stroke="#9a32cd" points="489.91,-46.98 479.75,-49.97 489.56,-53.97 489.91,-46.98"/>
</a>
</g>
<text text-anchor="middle" x="543.62" y="-57.38" font-family="Helvetica,sans-Serif" font-size="10.00" fill="grey"> mTable</text>
</g>
<!-- Node40&#45;&gt;Node1 -->
<g id="edge47_Node000001_Node000040" class="edge">
<title>Node40&#45;&gt;Node1</title>
<g id="a_edge47_Node000001_Node000040"><a xlink:title=" ">
<path fill="none" stroke="#9a32cd" stroke-dasharray="5,2" d="M726.76,-25.08C833.22,-31.84 1072.06,-47.99 1272.5,-68.62 1278.17,-69.21 1284.14,-69.89 1290,-70.59"/>
<polygon fill="#9a32cd" stroke="#9a32cd" points="727.07,-21.59 716.87,-24.45 726.63,-28.57 727.07,-21.59"/>
</a>
</g>
<text text-anchor="middle" x="1043.5" y="-53.38" font-family="Helvetica,sans-Serif" font-size="10.00" fill="grey"> mAnmVtxColor</text>
</g>
<!-- Node41 -->
<g id="Node000041" class="node">
<title>Node41</title>
<g id="a_Node000041"><a xlink:href="structJ3DAnmVtxColorIndexData.html" target="_top" xlink:title=" ">
<polygon fill="white" stroke="#666666" points="480.25,-19.25 346.5,-19.25 346.5,0 480.25,0 480.25,-19.25"/>
<text text-anchor="middle" x="413.38" y="-5.75" font-family="Helvetica,sans-Serif" font-size="10.00">J3DAnmVtxColorIndexData</text>
</a>
</g>
</g>
<!-- Node41&#45;&gt;Node40 -->
<g id="edge49_Node000040_Node000041" class="edge">
<title>Node41&#45;&gt;Node40</title>
<g id="a_edge49_Node000040_Node000041"><a xlink:title=" ">
<path fill="none" stroke="#9a32cd" stroke-dasharray="5,2" d="M491.73,-9.93C522.08,-10.41 557.2,-11.39 589,-13.38 600.53,-14.09 612.97,-15.21 624.51,-16.4"/>
<polygon fill="#9a32cd" stroke="#9a32cd" points="491.91,-6.43 481.86,-9.79 491.81,-13.43 491.91,-6.43"/>
</a>
</g>
<text text-anchor="middle" x="543.62" y="-15.38" font-family="Helvetica,sans-Serif" font-size="10.00" fill="grey"> mVtxColorIndexData</text>
</g>
</g>
</svg>
