<?xml version="1.0" encoding="UTF-8" standalone="no"?>
<!DOCTYPE svg PUBLIC "-//W3C//DTD SVG 1.1//EN"
 "http://www.w3.org/Graphics/SVG/1.1/DTD/svg11.dtd">
<!-- Generated by graphviz version 9.0.0 (20230911.1827)
 -->
<!-- Title: HeapCheck Pages: 1 -->
<!--zoomable 460 -->

<svg id="main" version="1.1" xmlns="http://www.w3.org/2000/svg" xmlns:xlink="http://www.w3.org/1999/xlink" xml:space="preserve" onload="init(evt)">
<style type="text/css"><![CDATA[
.node, .edge {opacity: 0.7;}
.node.selected, .edge.selected {opacity: 1;}
.edge:hover path { stroke: red; }
.edge:hover polygon { stroke: red; fill: red; }
]]></style>

<defs>
  <circle id="rim" cx="0" cy="0" r="7"/>
  <circle id="rim2" cx="0" cy="0" r="3.5"/>
  <g id="zoomPlus">
    <use xlink:href="#rim" fill="#404040"><set attributeName="fill" to="#808080" begin="zoomplus.mouseover" end="zoomplus.mouseout"/></use>
    <path d="M-4,0h8M0,-4v8" fill="none" stroke="white" stroke-width="1.5" pointer-events="none"/>
  </g>
  <g id="zoomMin">
    <use xlink:href="#rim" fill="#404040"><set attributeName="fill" to="#808080" begin="zoomminus.mouseover" end="zoomminus.mouseout"/></use>
    <path d="M-4,0h8" fill="none" stroke="white" stroke-width="1.5" pointer-events="none"/>
  </g>
  <g id="arrowUp" transform="translate(30 24)">
    <use xlink:href="#rim"/>
    <path pointer-events="none" fill="none" stroke="white" stroke-width="1.5" d="M0,-3.0v7 M-2.5,-0.5L0,-3.0L2.5,-0.5"/>
  </g>
  <g id="arrowRight" transform="rotate(90) translate(36 -43)">
    <use xlink:href="#rim"/>
    <path pointer-events="none" fill="none" stroke="white" stroke-width="1.5" d="M0,-3.0v7 M-2.5,-0.5L0,-3.0L2.5,-0.5"/>
  </g>
  <g id="arrowDown" transform="rotate(180) translate(-30 -48)">
    <use xlink:href="#rim"/>
    <path pointer-events="none" fill="none" stroke="white" stroke-width="1.5" d="M0,-3.0v7 M-2.5,-0.5L0,-3.0L2.5,-0.5"/>
  </g>
  <g id="arrowLeft" transform="rotate(270) translate(-36 17)">
    <use xlink:href="#rim"/>
    <path pointer-events="none" fill="none" stroke="white" stroke-width="1.5" d="M0,-3.0v7 M-2.5,-0.5L0,-3.0L2.5,-0.5"/>
  </g>
  <g id="resetDef">
    <use xlink:href="#rim2" fill="#404040"><set attributeName="fill" to="#808080" begin="reset.mouseover" end="reset.mouseout"/></use>
  </g>
</defs>
<script type="application/ecmascript">
var viewWidth = 1336;
var viewHeight = 460;
var sectionId = 'dynsection-0';
</script>
<script type="application/ecmascript" xlink:href="svg.min.js"/>
<svg id="graph" class="graph">
<g id="viewport">
<title>HeapCheck</title>
<!-- Node1 -->
<g id="Node000001" class="node">
<title>Node1</title>
<g id="a_Node000001"><a xlink:title=" ">
<polygon fill="#999999" stroke="#666666" points="1316.62,-341.98 1249.62,-341.98 1249.62,-322.73 1316.62,-322.73 1316.62,-341.98"/>
<text text-anchor="middle" x="1283.12" y="-328.48" font-family="Helvetica,sans-Serif" font-size="10.00">HeapCheck</text>
</a>
</g>
</g>
<!-- Node2 -->
<g id="Node000002" class="node">
<title>Node2</title>
<g id="a_Node000002"><a xlink:href="structJKRExpHeap.html" target="_top" xlink:title=" ">
<polygon fill="white" stroke="#666666" points="1116.5,-341.98 1042.75,-341.98 1042.75,-322.73 1116.5,-322.73 1116.5,-341.98"/>
<text text-anchor="middle" x="1079.62" y="-328.48" font-family="Helvetica,sans-Serif" font-size="10.00">JKRExpHeap</text>
</a>
</g>
</g>
<!-- Node2&#45;&gt;Node1 -->
<g id="edge1_Node000001_Node000002" class="edge">
<title>Node2&#45;&gt;Node1</title>
<g id="a_edge1_Node000001_Node000002"><a xlink:title=" ">
<path fill="none" stroke="#9a32cd" stroke-dasharray="5,2" d="M1127.77,-332.36C1165.15,-332.36 1216.42,-332.36 1249.41,-332.36"/>
<polygon fill="#9a32cd" stroke="#9a32cd" points="1128.16,-328.86 1118.16,-332.36 1128.16,-335.86 1128.16,-328.86"/>
</a>
</g>
<text text-anchor="middle" x="1177.62" y="-334.11" font-family="Helvetica,sans-Serif" font-size="10.00" fill="grey"> mHeap</text>
</g>
<!-- Node3 -->
<g id="Node000003" class="node">
<title>Node3</title>
<g id="a_Node000003"><a xlink:href="structJKRHeap.html" target="_top" xlink:title=" ">
<polygon fill="white" stroke="#666666" points="897.25,-272.98 839.25,-272.98 839.25,-253.73 897.25,-253.73 897.25,-272.98"/>
<text text-anchor="middle" x="868.25" y="-259.48" font-family="Helvetica,sans-Serif" font-size="10.00">JKRHeap</text>
</a>
</g>
</g>
<!-- Node3&#45;&gt;Node2 -->
<g id="edge2_Node000002_Node000003" class="edge">
<title>Node3&#45;&gt;Node2</title>
<g id="a_edge2_Node000002_Node000003"><a xlink:title=" ">
<path fill="none" stroke="#63b8ff" d="M906.36,-277.25C920.58,-282.46 936.99,-288.33 952,-293.36 983.08,-303.77 1018.79,-314.67 1044.35,-322.3"/>
<polygon fill="#63b8ff" stroke="#63b8ff" points="907.98,-274.12 897.39,-273.94 905.56,-280.68 907.98,-274.12"/>
</a>
</g>
</g>
<!-- Node3&#45;&gt;Node3 -->
<g id="edge30_Node000003_Node000003" class="edge">
<title>Node3&#45;&gt;Node3</title>
<g id="a_edge30_Node000003_Node000003"><a xlink:title=" ">
<path fill="none" stroke="#9a32cd" stroke-dasharray="5,2" d="M848.79,-284.38C851.23,-288.26 857.71,-290.98 868.25,-290.98 887.52,-290.98 893.24,-281.88 885.41,-273.27"/>
<polygon fill="#9a32cd" stroke="#9a32cd" points="852.19,-285.25 850.78,-274.75 845.33,-283.84 852.19,-285.25"/>
</a>
</g>
<text text-anchor="middle" x="868.25" y="-326.48" font-family="Helvetica,sans-Serif" font-size="10.00" fill="grey"> sCurrentHeap</text>
<text text-anchor="middle" x="868.25" y="-315.23" font-family="Helvetica,sans-Serif" font-size="10.00" fill="grey">sRootHeap</text>
<text text-anchor="middle" x="868.25" y="-303.98" font-family="Helvetica,sans-Serif" font-size="10.00" fill="grey">sRootHeap2</text>
<text text-anchor="middle" x="868.25" y="-292.73" font-family="Helvetica,sans-Serif" font-size="10.00" fill="grey">sSystemHeap</text>
</g>
<!-- Node4 -->
<g id="Node000004" class="node">
<title>Node4</title>
<g id="a_Node000004"><a xlink:href="classJKRDisposer.html" target="_top" xlink:title=" ">
<polygon fill="white" stroke="#666666" points="1116.12,-298.98 1043.12,-298.98 1043.12,-279.73 1116.12,-279.73 1116.12,-298.98"/>
<text text-anchor="middle" x="1079.62" y="-285.48" font-family="Helvetica,sans-Serif" font-size="10.00">JKRDisposer</text>
</a>
</g>
</g>
<!-- Node3&#45;&gt;Node4 -->
<g id="edge4_Node000004_Node000003" class="edge">
<title>Node3&#45;&gt;Node4</title>
<g id="a_edge4_Node000004_Node000003"><a xlink:title=" ">
<path fill="none" stroke="#9a32cd" stroke-dasharray="5,2" d="M908.56,-257.89C940.36,-254.69 986.04,-252.87 1024.75,-262.11 1038.82,-265.46 1053.38,-273.12 1063.81,-279.46"/>
<polygon fill="#9a32cd" stroke="#9a32cd" points="908.57,-254.36 899.02,-258.94 909.34,-261.32 908.57,-254.36"/>
</a>
</g>
<text text-anchor="middle" x="988.38" y="-263.11" font-family="Helvetica,sans-Serif" font-size="10.00" fill="grey"> mHeap</text>
</g>
<!-- Node4&#45;&gt;Node3 -->
<g id="edge3_Node000003_Node000004" class="edge">
<title>Node4&#45;&gt;Node3</title>
<g id="a_edge3_Node000003_Node000004"><a xlink:title=" ">
<path fill="none" stroke="#63b8ff" d="M1031.61,-284.54C1007.74,-282 978.3,-278.72 952,-275.36 933.86,-273.04 913.53,-270.09 897.56,-267.7"/>
<polygon fill="#63b8ff" stroke="#63b8ff" points="1031.02,-288 1041.33,-285.57 1031.75,-281.04 1031.02,-288"/>
</a>
</g>
</g>
<!-- Node5 -->
<g id="Node000005" class="node">
<title>Node5</title>
<g id="a_Node000005"><a xlink:href="classJSULink.html" target="_top" xlink:title=" ">
<polygon fill="white" stroke="#666666" points="347.25,-373.98 219.5,-373.98 219.5,-354.73 347.25,-354.73 347.25,-373.98"/>
<text text-anchor="middle" x="283.38" y="-360.48" font-family="Helvetica,sans-Serif" font-size="10.00">JSULink&lt; JKRDisposer &gt;</text>
</a>
</g>
</g>
<!-- Node5&#45;&gt;Node4 -->
<g id="edge5_Node000004_Node000005" class="edge">
<title>Node5&#45;&gt;Node4</title>
<g id="a_edge5_Node000004_Node000005"><a xlink:title=" ">
<path fill="none" stroke="#9a32cd" stroke-dasharray="5,2" d="M359.17,-364.36C405.37,-364.36 465.88,-364.36 519.5,-364.36 519.5,-364.36 519.5,-364.36 869.25,-364.36 945.31,-364.36 1028.3,-319.94 1062.51,-299.47"/>
<polygon fill="#9a32cd" stroke="#9a32cd" points="359.26,-360.86 349.26,-364.36 359.26,-367.86 359.26,-360.86"/>
</a>
</g>
<text text-anchor="middle" x="658" y="-366.11" font-family="Helvetica,sans-Serif" font-size="10.00" fill="grey"> mLink</text>
</g>
<!-- Node6 -->
<g id="Node000006" class="node">
<title>Node6</title>
<g id="a_Node000006"><a xlink:href="classJSUPtrLink.html" target="_top" xlink:title=" ">
<polygon fill="white" stroke="#666666" points="67,-316.98 0,-316.98 0,-297.73 67,-297.73 67,-316.98"/>
<text text-anchor="middle" x="33.5" y="-303.48" font-family="Helvetica,sans-Serif" font-size="10.00">JSUPtrLink</text>
</a>
</g>
</g>
<!-- Node6&#45;&gt;Node5 -->
<g id="edge6_Node000005_Node000006" class="edge">
<title>Node6&#45;&gt;Node5</title>
<g id="a_edge6_Node000005_Node000006"><a xlink:title=" ">
<path fill="none" stroke="#63b8ff" d="M67.83,-321.59C73.5,-323.71 79.37,-325.73 85,-327.36 129.21,-340.13 180.31,-349.56 219.43,-355.71"/>
<polygon fill="#63b8ff" stroke="#63b8ff" points="69.3,-318.41 58.71,-318.02 66.74,-324.93 69.3,-318.41"/>
</a>
</g>
</g>
<!-- Node6&#45;&gt;Node6 -->
<g id="edge9_Node000006_Node000006" class="edge">
<title>Node6&#45;&gt;Node6</title>
<g id="a_edge9_Node000006_Node000006"><a xlink:title=" ">
<path fill="none" stroke="#9a32cd" stroke-dasharray="5,2" d="M21.36,-328.38C22.88,-332.26 26.93,-334.98 33.5,-334.98 45.52,-334.98 49.09,-325.88 44.2,-317.27"/>
<polygon fill="#9a32cd" stroke="#9a32cd" points="24.8,-329.14 22.6,-318.77 17.85,-328.24 24.8,-329.14"/>
</a>
</g>
<text text-anchor="middle" x="33.5" y="-347.98" font-family="Helvetica,sans-Serif" font-size="10.00" fill="grey"> mNext</text>
<text text-anchor="middle" x="33.5" y="-336.73" font-family="Helvetica,sans-Serif" font-size="10.00" fill="grey">mPrev</text>
</g>
<!-- Node7 -->
<g id="Node000007" class="node">
<title>Node7</title>
<g id="a_Node000007"><a xlink:href="classJSUPtrList.html" target="_top" xlink:title=" ">
<polygon fill="white" stroke="#666666" points="201.5,-277.98 136.75,-277.98 136.75,-258.73 201.5,-258.73 201.5,-277.98"/>
<text text-anchor="middle" x="169.12" y="-264.48" font-family="Helvetica,sans-Serif" font-size="10.00">JSUPtrList</text>
</a>
</g>
</g>
<!-- Node6&#45;&gt;Node7 -->
<g id="edge8_Node000007_Node000006" class="edge">
<title>Node6&#45;&gt;Node7</title>
<g id="a_edge8_Node000007_Node000006"><a xlink:title=" ">
<path fill="none" stroke="#9a32cd" stroke-dasharray="5,2" d="M72.97,-293.67C77.02,-292.33 81.08,-291.04 85,-289.86 101.84,-284.77 120.81,-279.8 136.38,-275.93"/>
<polygon fill="#9a32cd" stroke="#9a32cd" points="72.2,-290.23 63.85,-296.75 74.44,-296.86 72.2,-290.23"/>
</a>
</g>
<text text-anchor="middle" x="101.88" y="-302.36" font-family="Helvetica,sans-Serif" font-size="10.00" fill="grey"> mHead</text>
<text text-anchor="middle" x="101.88" y="-291.11" font-family="Helvetica,sans-Serif" font-size="10.00" fill="grey">mTail</text>
</g>
<!-- Node17 -->
<g id="Node000017" class="node">
<title>Node17</title>
<g id="a_Node000017"><a xlink:href="classJSULink.html" target="_top" xlink:title=" ">
<polygon fill="white" stroke="#666666" points="321.75,-335.98 245,-335.98 245,-316.73 321.75,-316.73 321.75,-335.98"/>
<text text-anchor="middle" x="283.38" y="-322.48" font-family="Helvetica,sans-Serif" font-size="10.00">JSULink&lt; T &gt;</text>
</a>
</g>
</g>
<!-- Node6&#45;&gt;Node17 -->
<g id="edge27_Node000017_Node000006" class="edge">
<title>Node6&#45;&gt;Node17</title>
<g id="a_edge27_Node000017_Node000006"><a xlink:title=" ">
<path fill="none" stroke="#63b8ff" d="M78.73,-311.81C80.85,-312 82.95,-312.18 85,-312.36 140.45,-317.07 204.76,-321.42 244.51,-323.98"/>
<polygon fill="#63b8ff" stroke="#63b8ff" points="79.15,-308.33 68.86,-310.88 78.49,-315.3 79.15,-308.33"/>
</a>
</g>
</g>
<!-- Node7&#45;&gt;Node6 -->
<g id="edge7_Node000006_Node000007" class="edge">
<title>Node7&#45;&gt;Node6</title>
<g id="a_edge7_Node000006_Node000007"><a xlink:title=" ">
<path fill="none" stroke="#9a32cd" stroke-dasharray="5,2" d="M134.69,-254.85C119.1,-250.58 100.59,-248.49 85,-255.11 64.79,-263.68 48.72,-284.74 40.5,-297.35"/>
<polygon fill="#9a32cd" stroke="#9a32cd" points="133.41,-258.11 144,-257.79 135.52,-251.44 133.41,-258.11"/>
</a>
</g>
<text text-anchor="middle" x="101.88" y="-256.11" font-family="Helvetica,sans-Serif" font-size="10.00" fill="grey"> mList</text>
</g>
<!-- Node16 -->
<g id="Node000016" class="node">
<title>Node16</title>
<g id="a_Node000016"><a xlink:href="classJSUList.html" target="_top" xlink:title=" ">
<polygon fill="white" stroke="#666666" points="439.75,-297.98 365.25,-297.98 365.25,-278.73 439.75,-278.73 439.75,-297.98"/>
<text text-anchor="middle" x="402.5" y="-284.48" font-family="Helvetica,sans-Serif" font-size="10.00">JSUList&lt; T &gt;</text>
</a>
</g>
</g>
<!-- Node7&#45;&gt;Node16 -->
<g id="edge25_Node000016_Node000007" class="edge">
<title>Node7&#45;&gt;Node16</title>
<g id="a_edge25_Node000016_Node000007"><a xlink:title=" ">
<path fill="none" stroke="#63b8ff" d="M213.2,-272.08C256.85,-275.85 323.67,-281.63 364.86,-285.19"/>
<polygon fill="#63b8ff" stroke="#63b8ff" points="213.58,-268.6 203.32,-271.23 212.98,-275.57 213.58,-268.6"/>
</a>
</g>
</g>
<!-- Node18 -->
<g id="Node000018" class="node">
<title>Node18</title>
<g id="a_Node000018"><a xlink:href="classJSUList.html" target="_top" xlink:title=" ">
<polygon fill="white" stroke="#666666" points="583.25,-263.98 457.75,-263.98 457.75,-244.73 583.25,-244.73 583.25,-263.98"/>
<text text-anchor="middle" x="520.5" y="-250.48" font-family="Helvetica,sans-Serif" font-size="10.00">JSUList&lt; JKRDisposer &gt;</text>
</a>
</g>
</g>
<!-- Node7&#45;&gt;Node18 -->
<g id="edge29_Node000018_Node000007" class="edge">
<title>Node7&#45;&gt;Node18</title>
<g id="a_edge29_Node000018_Node000007"><a xlink:title=" ">
<path fill="none" stroke="#63b8ff" d="M212.91,-266.64C274.08,-264.19 386.92,-259.67 457.33,-256.85"/>
<polygon fill="#63b8ff" stroke="#63b8ff" points="213.11,-263.13 203.26,-267.03 213.39,-270.12 213.11,-263.13"/>
</a>
</g>
</g>
<!-- Node8 -->
<g id="Node000008" class="node">
<title>Node8</title>
<g id="a_Node000008"><a xlink:href="structOSMutex.html" target="_top" xlink:title=" ">
<polygon fill="white" stroke="#666666" points="686.25,-133.98 629.75,-133.98 629.75,-114.73 686.25,-114.73 686.25,-133.98"/>
<text text-anchor="middle" x="658" y="-120.48" font-family="Helvetica,sans-Serif" font-size="10.00">OSMutex</text>
</a>
</g>
</g>
<!-- Node8&#45;&gt;Node3 -->
<g id="edge10_Node000003_Node000008" class="edge">
<title>Node8&#45;&gt;Node3</title>
<g id="a_edge10_Node000003_Node000008"><a xlink:title=" ">
<path fill="none" stroke="#9a32cd" stroke-dasharray="5,2" d="M670.9,-143.71C683.91,-163.41 706.44,-193.66 732.75,-212.36 741.73,-218.74 802.26,-240.56 838.99,-253.5"/>
<polygon fill="#9a32cd" stroke="#9a32cd" points="674,-142.04 665.66,-135.5 668.1,-145.82 674,-142.04"/>
</a>
</g>
<text text-anchor="middle" x="758.62" y="-235.11" font-family="Helvetica,sans-Serif" font-size="10.00" fill="grey"> mMutex</text>
</g>
<!-- Node10 -->
<g id="Node000010" class="node">
<title>Node10</title>
<g id="a_Node000010"><a xlink:href="structOSThread.html" target="_top" xlink:title=" ">
<polygon fill="white" stroke="#666666" points="1109.75,-83.98 1049.5,-83.98 1049.5,-64.73 1109.75,-64.73 1109.75,-83.98"/>
<text text-anchor="middle" x="1079.62" y="-70.48" font-family="Helvetica,sans-Serif" font-size="10.00">OSThread</text>
</a>
</g>
</g>
<!-- Node8&#45;&gt;Node10 -->
<g id="edge17_Node000010_Node000008" class="edge">
<title>Node8&#45;&gt;Node10</title>
<g id="a_edge17_Node000010_Node000008"><a xlink:title=" ">
<path fill="none" stroke="#9a32cd" stroke-dasharray="5,2" d="M673.95,-105.74C697.65,-78.06 746.91,-27.63 802.5,-12.11 898.83,14.79 933.33,-6.8 1024.75,-47.36 1036.61,-52.62 1049.62,-59.12 1059.88,-64.42"/>
<polygon fill="#9a32cd" stroke="#9a32cd" points="671.34,-103.4 667.63,-113.33 676.72,-107.88 671.34,-103.4"/>
</a>
</g>
<text text-anchor="middle" x="868.25" y="-14.11" font-family="Helvetica,sans-Serif" font-size="10.00" fill="grey"> mutex</text>
</g>
<!-- Node13 -->
<g id="Node000013" class="node">
<title>Node13</title>
<g id="a_Node000013"><a xlink:href="structOSMutexQueue.html" target="_top" xlink:title=" ">
<polygon fill="white" stroke="#666666" points="910.75,-88.98 825.75,-88.98 825.75,-69.73 910.75,-69.73 910.75,-88.98"/>
<text text-anchor="middle" x="868.25" y="-75.48" font-family="Helvetica,sans-Serif" font-size="10.00">OSMutexQueue</text>
</a>
</g>
</g>
<!-- Node8&#45;&gt;Node13 -->
<g id="edge19_Node000013_Node000008" class="edge">
<title>Node8&#45;&gt;Node13</title>
<g id="a_edge19_Node000013_Node000008"><a xlink:title=" ">
<path fill="none" stroke="#9a32cd" stroke-dasharray="5,2" d="M674.11,-105.76C687.65,-90.68 709,-70.57 732.75,-61.86 754.34,-53.94 761.62,-59.46 784.5,-61.86 798.81,-63.35 814.29,-66.27 827.95,-69.3"/>
<polygon fill="#9a32cd" stroke="#9a32cd" points="671.58,-103.33 667.72,-113.2 676.89,-107.89 671.58,-103.33"/>
</a>
</g>
<text text-anchor="middle" x="758.62" y="-75.36" font-family="Helvetica,sans-Serif" font-size="10.00" fill="grey"> head</text>
<text text-anchor="middle" x="758.62" y="-64.11" font-family="Helvetica,sans-Serif" font-size="10.00" fill="grey">tail</text>
</g>
<!-- Node14 -->
<g id="Node000014" class="node">
<title>Node14</title>
<g id="a_Node000014"><a xlink:href="structOSMutexLink.html" target="_top" xlink:title=" ">
<polygon fill="white" stroke="#666666" points="905.88,-125.98 830.62,-125.98 830.62,-106.73 905.88,-106.73 905.88,-125.98"/>
<text text-anchor="middle" x="868.25" y="-112.48" font-family="Helvetica,sans-Serif" font-size="10.00">OSMutexLink</text>
</a>
</g>
</g>
<!-- Node8&#45;&gt;Node14 -->
<g id="edge22_Node000014_Node000008" class="edge">
<title>Node8&#45;&gt;Node14</title>
<g id="a_edge22_Node000014_Node000008"><a xlink:title=" ">
<path fill="none" stroke="#9a32cd" stroke-dasharray="5,2" d="M697.76,-122.87C735.69,-121.41 793.06,-119.21 830.34,-117.77"/>
<polygon fill="#9a32cd" stroke="#9a32cd" points="698.02,-119.35 688.17,-123.24 698.29,-126.35 698.02,-119.35"/>
</a>
</g>
<text text-anchor="middle" x="758.62" y="-134.36" font-family="Helvetica,sans-Serif" font-size="10.00" fill="grey"> next</text>
<text text-anchor="middle" x="758.62" y="-123.11" font-family="Helvetica,sans-Serif" font-size="10.00" fill="grey">prev</text>
</g>
<!-- Node9 -->
<g id="Node000009" class="node">
<title>Node9</title>
<g id="a_Node000009"><a xlink:href="structOSThreadQueue.html" target="_top" xlink:title=" ">
<polygon fill="white" stroke="#666666" points="1327.5,-172.98 1238.75,-172.98 1238.75,-153.73 1327.5,-153.73 1327.5,-172.98"/>
<text text-anchor="middle" x="1283.12" y="-159.48" font-family="Helvetica,sans-Serif" font-size="10.00">OSThreadQueue</text>
</a>
</g>
</g>
<!-- Node9&#45;&gt;Node8 -->
<g id="edge11_Node000008_Node000009" class="edge">
<title>Node9&#45;&gt;Node8</title>
<g id="a_edge11_Node000008_Node000009"><a xlink:title=" ">
<path fill="none" stroke="#9a32cd" stroke-dasharray="5,2" d="M1251.65,-177.85C1241.99,-181.74 1231.12,-185.4 1220.75,-187.36 1183.08,-194.46 1172.82,-188.5 1134.5,-187.36 955.71,-182.02 905,-211.59 732.75,-163.36 710.71,-157.18 687.79,-143.78 673.46,-134.41"/>
<polygon fill="#9a32cd" stroke="#9a32cd" points="1252.74,-181.19 1260.56,-174.04 1249.99,-174.75 1252.74,-181.19"/>
</a>
</g>
<text text-anchor="middle" x="988.38" y="-193.11" font-family="Helvetica,sans-Serif" font-size="10.00" fill="grey"> queue</text>
</g>
<!-- Node9&#45;&gt;Node10 -->
<g id="edge14_Node000010_Node000009" class="edge">
<title>Node9&#45;&gt;Node10</title>
<g id="a_edge14_Node000010_Node000009"><a xlink:title=" ">
<path fill="none" stroke="#9a32cd" stroke-dasharray="5,2" d="M1227.11,-164.59C1197.9,-163.01 1162.38,-157.35 1134.5,-141.36 1110.81,-127.77 1093.46,-99.37 1085.49,-84.28"/>
<polygon fill="#9a32cd" stroke="#9a32cd" points="1226.74,-168.08 1236.86,-164.97 1227,-161.09 1226.74,-168.08"/>
</a>
</g>
<text text-anchor="middle" x="1177.62" y="-177.36" font-family="Helvetica,sans-Serif" font-size="10.00" fill="grey"> join_queue</text>
<text text-anchor="middle" x="1177.62" y="-166.11" font-family="Helvetica,sans-Serif" font-size="10.00" fill="grey">queue</text>
</g>
<!-- Node10&#45;&gt;Node8 -->
<g id="edge20_Node000008_Node000010" class="edge">
<title>Node10&#45;&gt;Node8</title>
<g id="a_edge20_Node000008_Node000010"><a xlink:title=" ">
<path fill="none" stroke="#9a32cd" stroke-dasharray="5,2" d="M1050.05,-89.64C1021.53,-104.11 976.02,-125.09 934,-135.36 913.35,-140.4 784.59,-155.25 732.75,-147.36 716.31,-144.85 698.49,-139.38 684.49,-134.4"/>
<polygon fill="#9a32cd" stroke="#9a32cd" points="1051.48,-92.84 1058.76,-85.14 1048.27,-86.62 1051.48,-92.84"/>
</a>
</g>
<text text-anchor="middle" x="868.25" y="-151.11" font-family="Helvetica,sans-Serif" font-size="10.00" fill="grey"> thread</text>
</g>
<!-- Node10&#45;&gt;Node9 -->
<g id="edge12_Node000009_Node000010" class="edge">
<title>Node10&#45;&gt;Node9</title>
<g id="a_edge12_Node000009_Node000010"><a xlink:title=" ">
<path fill="none" stroke="#9a32cd" stroke-dasharray="5,2" d="M1117.26,-88.4C1123.01,-90.47 1128.89,-92.52 1134.5,-94.36 1172.38,-106.74 1184.9,-101.45 1220.75,-118.86 1239.93,-128.17 1259.41,-143.52 1271.13,-153.53"/>
<polygon fill="#9a32cd" stroke="#9a32cd" points="1118.53,-85.13 1107.93,-84.96 1116.11,-91.7 1118.53,-85.13"/>
</a>
</g>
<text text-anchor="middle" x="1177.62" y="-132.36" font-family="Helvetica,sans-Serif" font-size="10.00" fill="grey"> head</text>
<text text-anchor="middle" x="1177.62" y="-121.11" font-family="Helvetica,sans-Serif" font-size="10.00" fill="grey">tail</text>
</g>
<!-- Node12 -->
<g id="Node000012" class="node">
<title>Node12</title>
<g id="a_Node000012"><a xlink:href="structOSThreadLink.html" target="_top" xlink:title=" ">
<polygon fill="white" stroke="#666666" points="1322.62,-57.98 1243.62,-57.98 1243.62,-38.73 1322.62,-38.73 1322.62,-57.98"/>
<text text-anchor="middle" x="1283.12" y="-44.48" font-family="Helvetica,sans-Serif" font-size="10.00">OSThreadLink</text>
</a>
</g>
</g>
<!-- Node10&#45;&gt;Node12 -->
<g id="edge16_Node000012_Node000010" class="edge">
<title>Node10&#45;&gt;Node12</title>
<g id="a_edge16_Node000012_Node000010"><a xlink:title=" ">
<path fill="none" stroke="#9a32cd" stroke-dasharray="5,2" d="M1120.9,-69.16C1156.57,-64.56 1208.29,-57.88 1243.47,-53.34"/>
<polygon fill="#9a32cd" stroke="#9a32cd" points="1120.9,-65.63 1111.43,-70.38 1121.79,-72.57 1120.9,-65.63"/>
</a>
</g>
<text text-anchor="middle" x="1177.62" y="-81.36" font-family="Helvetica,sans-Serif" font-size="10.00" fill="grey"> next</text>
<text text-anchor="middle" x="1177.62" y="-70.11" font-family="Helvetica,sans-Serif" font-size="10.00" fill="grey">prev</text>
</g>
<!-- Node11 -->
<g id="Node000011" class="node">
<title>Node11</title>
<g id="a_Node000011"><a xlink:href="structOSContext.html" target="_top" xlink:title=" ">
<polygon fill="white" stroke="#666666" points="899.88,-51.98 836.62,-51.98 836.62,-32.73 899.88,-32.73 899.88,-51.98"/>
<text text-anchor="middle" x="868.25" y="-38.48" font-family="Helvetica,sans-Serif" font-size="10.00">OSContext</text>
</a>
</g>
</g>
<!-- Node11&#45;&gt;Node10 -->
<g id="edge13_Node000010_Node000011" class="edge">
<title>Node11&#45;&gt;Node10</title>
<g id="a_edge13_Node000010_Node000011"><a xlink:title=" ">
<path fill="none" stroke="#9a32cd" stroke-dasharray="5,2" d="M911.49,-46.05C942.88,-49.14 986.68,-54.16 1024.75,-61.11 1032.71,-62.56 1041.25,-64.48 1049.12,-66.42"/>
<polygon fill="#9a32cd" stroke="#9a32cd" points="911.89,-42.58 901.61,-45.11 911.23,-49.54 911.89,-42.58"/>
</a>
</g>
<text text-anchor="middle" x="988.38" y="-63.11" font-family="Helvetica,sans-Serif" font-size="10.00" fill="grey"> context</text>
</g>
<!-- Node12&#45;&gt;Node10 -->
<g id="edge15_Node000010_Node000012" class="edge">
<title>Node12&#45;&gt;Node10</title>
<g id="a_edge15_Node000010_Node000012"><a xlink:title=" ">
<path fill="none" stroke="#9a32cd" stroke-dasharray="5,2" d="M1248.84,-34.32C1218.23,-23.54 1172.05,-12.67 1134.5,-26.86 1114.67,-34.35 1097.42,-52.84 1088.07,-64.41"/>
<polygon fill="#9a32cd" stroke="#9a32cd" points="1247.35,-37.51 1257.95,-37.72 1249.8,-30.95 1247.35,-37.51"/>
</a>
</g>
<text text-anchor="middle" x="1177.62" y="-40.36" font-family="Helvetica,sans-Serif" font-size="10.00" fill="grey"> active_threads_link</text>
<text text-anchor="middle" x="1177.62" y="-29.11" font-family="Helvetica,sans-Serif" font-size="10.00" fill="grey">link</text>
</g>
<!-- Node13&#45;&gt;Node10 -->
<g id="edge18_Node000010_Node000013" class="edge">
<title>Node13&#45;&gt;Node10</title>
<g id="a_edge18_Node000010_Node000013"><a xlink:title=" ">
<path fill="none" stroke="#9a32cd" stroke-dasharray="5,2" d="M922.61,-78.08C962.85,-77.12 1016.55,-75.84 1049.3,-75.06"/>
<polygon fill="#9a32cd" stroke="#9a32cd" points="922.54,-74.58 912.63,-78.32 922.71,-81.58 922.54,-74.58"/>
</a>
</g>
<text text-anchor="middle" x="988.38" y="-79.11" font-family="Helvetica,sans-Serif" font-size="10.00" fill="grey"> owned_mutexes</text>
</g>
<!-- Node14&#45;&gt;Node8 -->
<g id="edge21_Node000008_Node000014" class="edge">
<title>Node14&#45;&gt;Node8</title>
<g id="a_edge21_Node000008_Node000014"><a xlink:title=" ">
<path fill="none" stroke="#9a32cd" stroke-dasharray="5,2" d="M819.45,-103.72C813.71,-102.01 807.95,-100.21 802.5,-98.36 794.33,-95.59 792.97,-92.75 784.5,-91.11 761.92,-86.73 755.24,-86.27 732.75,-91.11 712.15,-95.53 690.37,-106.19 675.87,-114.25"/>
<polygon fill="#9a32cd" stroke="#9a32cd" points="818.36,-107.05 828.94,-106.46 820.3,-100.32 818.36,-107.05"/>
</a>
</g>
<text text-anchor="middle" x="758.62" y="-93.11" font-family="Helvetica,sans-Serif" font-size="10.00" fill="grey"> link</text>
</g>
<!-- Node15 -->
<g id="Node000015" class="node">
<title>Node15</title>
<g id="a_Node000015"><a xlink:href="classJSUTree.html" target="_top" xlink:title=" ">
<polygon fill="white" stroke="#666666" points="714.75,-308.98 601.25,-308.98 601.25,-289.73 714.75,-289.73 714.75,-308.98"/>
<text text-anchor="middle" x="658" y="-295.48" font-family="Helvetica,sans-Serif" font-size="10.00">JSUTree&lt; JKRHeap &gt;</text>
</a>
</g>
</g>
<!-- Node15&#45;&gt;Node3 -->
<g id="edge23_Node000003_Node000015" class="edge">
<title>Node15&#45;&gt;Node3</title>
<g id="a_edge23_Node000003_Node000015"><a xlink:title=" ">
<path fill="none" stroke="#9a32cd" stroke-dasharray="5,2" d="M726.13,-287.75C764.28,-281.16 810.03,-273.25 838.88,-268.26"/>
<polygon fill="#9a32cd" stroke="#9a32cd" points="725.83,-284.25 716.57,-289.4 727.02,-291.15 725.83,-284.25"/>
</a>
</g>
<text text-anchor="middle" x="758.62" y="-287.11" font-family="Helvetica,sans-Serif" font-size="10.00" fill="grey"> mChildTree</text>
</g>
<!-- Node16&#45;&gt;Node15 -->
<g id="edge24_Node000015_Node000016" class="edge">
<title>Node16&#45;&gt;Node15</title>
<g id="a_edge24_Node000015_Node000016"><a xlink:title=" ">
<path fill="none" stroke="#63b8ff" d="M451.52,-290.44C493.99,-292.28 555.99,-294.97 600.77,-296.92"/>
<polygon fill="#63b8ff" stroke="#63b8ff" points="451.74,-286.95 441.6,-290.01 451.44,-293.94 451.74,-286.95"/>
</a>
</g>
</g>
<!-- Node17&#45;&gt;Node15 -->
<g id="edge26_Node000015_Node000017" class="edge">
<title>Node17&#45;&gt;Node15</title>
<g id="a_edge26_Node000015_Node000017"><a xlink:title=" ">
<path fill="none" stroke="#63b8ff" d="M333.41,-323.91C392.66,-320.8 495.35,-314.91 583.25,-307.36 589.02,-306.86 595.05,-306.29 601.05,-305.69"/>
<polygon fill="#63b8ff" stroke="#63b8ff" points="333.48,-320.4 323.67,-324.42 333.84,-327.39 333.48,-320.4"/>
</a>
</g>
</g>
<!-- Node18&#45;&gt;Node3 -->
<g id="edge28_Node000003_Node000018" class="edge">
<title>Node18&#45;&gt;Node3</title>
<g id="a_edge28_Node000003_Node000018"><a xlink:title=" ">
<path fill="none" stroke="#9a32cd" stroke-dasharray="5,2" d="M595.13,-256.27C671.32,-258.26 786.43,-261.25 839.12,-262.62"/>
<polygon fill="#9a32cd" stroke="#9a32cd" points="595.31,-252.78 585.23,-256.01 595.13,-259.77 595.31,-252.78"/>
</a>
</g>
<text text-anchor="middle" x="658" y="-260.11" font-family="Helvetica,sans-Serif" font-size="10.00" fill="grey"> mDisposerList</text>
</g>
<!-- Node19 -->
<g id="Node000019" class="node">
<title>Node19</title>
<g id="a_Node000019"><a xlink:href="classJKRExpHeap_1_1CMemBlock.html" target="_top" xlink:title=" ">
<polygon fill="white" stroke="#666666" points="934,-411.98 802.5,-411.98 802.5,-392.73 934,-392.73 934,-411.98"/>
<text text-anchor="middle" x="868.25" y="-398.48" font-family="Helvetica,sans-Serif" font-size="10.00">JKRExpHeap::CMemBlock</text>
</a>
</g>
</g>
<!-- Node19&#45;&gt;Node2 -->
<g id="edge31_Node000002_Node000019" class="edge">
<title>Node19&#45;&gt;Node2</title>
<g id="a_edge31_Node000002_Node000019"><a xlink:title=" ">
<path fill="none" stroke="#9a32cd" stroke-dasharray="5,2" d="M945.63,-398.29C971.61,-394.79 1000.26,-388.52 1024.75,-377.36 1042.94,-369.07 1059.93,-352.93 1069.8,-342.4"/>
<polygon fill="#9a32cd" stroke="#9a32cd" points="945.29,-394.8 935.79,-399.48 946.14,-401.75 945.29,-394.8"/>
</a>
</g>
<text text-anchor="middle" x="988.38" y="-431.86" font-family="Helvetica,sans-Serif" font-size="10.00" fill="grey"> mHeadFreeList</text>
<text text-anchor="middle" x="988.38" y="-420.61" font-family="Helvetica,sans-Serif" font-size="10.00" fill="grey">mHeadUsedList</text>
<text text-anchor="middle" x="988.38" y="-409.36" font-family="Helvetica,sans-Serif" font-size="10.00" fill="grey">mTailFreeList</text>
<text text-anchor="middle" x="988.38" y="-398.11" font-family="Helvetica,sans-Serif" font-size="10.00" fill="grey">mTailUsedList</text>
</g>
<!-- Node19&#45;&gt;Node19 -->
<g id="edge32_Node000019_Node000019" class="edge">
<title>Node19&#45;&gt;Node19</title>
<g id="a_edge32_Node000019_Node000019"><a xlink:title=" ">
<path fill="none" stroke="#9a32cd" stroke-dasharray="5,2" d="M848.79,-423.38C851.23,-427.26 857.71,-429.98 868.25,-429.98 887.52,-429.98 893.24,-420.88 885.41,-412.27"/>
<polygon fill="#9a32cd" stroke="#9a32cd" points="852.19,-424.25 850.78,-413.75 845.33,-422.84 852.19,-424.25"/>
</a>
</g>
<text text-anchor="middle" x="868.25" y="-442.98" font-family="Helvetica,sans-Serif" font-size="10.00" fill="grey"> mNext</text>
<text text-anchor="middle" x="868.25" y="-431.73" font-family="Helvetica,sans-Serif" font-size="10.00" fill="grey">mPrev</text>
</g>
</g>
</svg>

<g id="navigator" transform="translate(0 0)" fill="#404254">
  <rect fill="#f2f5e9" fill-opacity="0.5" stroke="#606060" stroke-width=".5" x="0" y="0" width="60" height="60"/>
  <use id="zoomplus" xlink:href="#zoomPlus" x="17" y="9" onmousedown="handleZoom(evt,'in')"/>
  <use id="zoomminus" xlink:href="#zoomMin" x="42" y="9" onmousedown="handleZoom(evt,'out')"/>
  <use id="reset" xlink:href="#resetDef" x="30" y="36" onmousedown="handleReset()"/>
   <use id="arrowup" xlink:href="#arrowUp" x="0" y="0" onmousedown="handlePan(0,-1)"/>
  <use id="arrowright" xlink:href="#arrowRight" x="0" y="0" onmousedown="handlePan(1,0)"/>
  <use id="arrowdown" xlink:href="#arrowDown" x="0" y="0" onmousedown="handlePan(0,1)"/>
  <use id="arrowleft" xlink:href="#arrowLeft" x="0" y="0" onmousedown="handlePan(-1,0)"/>
</g>
<svg viewBox="0 0 15 15" width="100%" height="30px" preserveAspectRatio="xMaxYMin meet">
 <g id="arrow_out" transform="scale(0.3 0.3)">
  <a xlink:href="classHeapCheck__coll__graph_org.svg" target="_base">
   <rect id="button" ry="5" rx="5" y="6" x="6" height="38" width="38"
        fill="#f2f5e9" fill-opacity="0.5" stroke="#606060" stroke-width="1.0"/>
   <path id="arrow"
     d="M 11.500037,31.436501 C 11.940474,20.09759 22.043105,11.32322 32.158766,21.979434 L 37.068811,17.246167 C 37.068811,17.246167 37.088388,32 37.088388,32 L 22.160133,31.978069 C 22.160133,31.978069 26.997745,27.140456 26.997745,27.140456 C 18.528582,18.264221 13.291696,25.230495 11.500037,31.436501 z"
     style="fill:#404040;"/>
  </a>
 </g>
</svg>

<style type='text/css'>
<![CDATA[
[data-mouse-over-selected='false'] { opacity: 0.7; }
[data-mouse-over-selected='true']  { opacity: 1.0; }
]]>
</style>
<script type="application/ecmascript"><![CDATA[
document.addEventListener('DOMContentLoaded', (event) => {
  highlightEdges();
  highlightAdjacentNodes();
});
]]></script>
</svg>
