<?xml version="1.0" encoding="UTF-8" standalone="no"?>
<!DOCTYPE svg PUBLIC "-//W3C//DTD SVG 1.1//EN"
 "http://www.w3.org/Graphics/SVG/1.1/DTD/svg11.dtd">
<!-- Generated by graphviz version 9.0.0 (20230911.1827)
 -->
<!-- Title: cCcD_CylAttr Pages: 1 -->
<svg width="217pt" height="363pt"
 viewBox="0.00 0.00 216.83 362.75" xmlns="http://www.w3.org/2000/svg" xmlns:xlink="http://www.w3.org/1999/xlink">
<g id="graph0" class="graph" transform="scale(1 1) rotate(0) translate(4 358.75)">
<title>cCcD_CylAttr</title>
<!-- Node1 -->
<g id="Node000001" class="node">
<title>Node1</title>
<g id="a_Node000001"><a xlink:title=" ">
<polygon fill="#999999" stroke="#666666" points="179.58,-19.25 105.08,-19.25 105.08,0 179.58,0 179.58,-19.25"/>
<text text-anchor="middle" x="142.33" y="-5.75" font-family="Helvetica,sans-Serif" font-size="10.00">cCcD_CylAttr</text>
</a>
</g>
</g>
<!-- Node2 -->
<g id="Node000002" class="node">
<title>Node2</title>
<g id="a_Node000002"><a xlink:href="classcCcD__ShapeAttr.html" target="_top" xlink:title=" ">
<polygon fill="white" stroke="#666666" points="150.71,-75.5 61.96,-75.5 61.96,-56.25 150.71,-56.25 150.71,-75.5"/>
<text text-anchor="middle" x="106.33" y="-62" font-family="Helvetica,sans-Serif" font-size="10.00">cCcD_ShapeAttr</text>
</a>
</g>
</g>
<!-- Node2&#45;&gt;Node1 -->
<g id="edge1_Node000001_Node000002" class="edge">
<title>Node2&#45;&gt;Node1</title>
<g id="a_edge1_Node000001_Node000002"><a xlink:title=" ">
<path fill="none" stroke="#63b8ff" d="M118.54,-46.48C124.61,-37.34 131.66,-26.71 136.5,-19.42"/>
<polygon fill="#63b8ff" stroke="#63b8ff" points="115.73,-44.39 113.11,-54.66 121.56,-48.26 115.73,-44.39"/>
</a>
</g>
</g>
<!-- Node3 -->
<g id="Node000003" class="node">
<title>Node3</title>
<g id="a_Node000003"><a xlink:href="structcM3dGAab.html" target="_top" xlink:title=" ">
<polygon fill="white" stroke="#666666" points="150.71,-150 85.96,-150 85.96,-130.75 150.71,-130.75 150.71,-150"/>
<text text-anchor="middle" x="118.33" y="-136.5" font-family="Helvetica,sans-Serif" font-size="10.00">cM3dGAab</text>
</a>
</g>
</g>
<!-- Node3&#45;&gt;Node2 -->
<g id="edge2_Node000002_Node000003" class="edge">
<title>Node3&#45;&gt;Node2</title>
<g id="a_edge2_Node000002_Node000003"><a xlink:title=" ">
<path fill="none" stroke="#9a32cd" stroke-dasharray="5,2" d="M112.15,-119.7C111.56,-117.38 111.01,-115.02 110.58,-112.75 108.16,-100.02 107.1,-85.03 106.65,-75.74"/>
<polygon fill="#9a32cd" stroke="#9a32cd" points="108.75,-120.52 114.9,-129.15 115.47,-118.57 108.75,-120.52"/>
</a>
</g>
<text text-anchor="middle" x="125.21" y="-99.25" font-family="Helvetica,sans-Serif" font-size="10.00" fill="grey"> mAab</text>
</g>
<!-- Node4 -->
<g id="Node000004" class="node">
<title>Node4</title>
<g id="a_Node000004"><a xlink:href="structcXyz.html" target="_top" xlink:title=" ">
<polygon fill="white" stroke="#666666" points="136.83,-263.12 99.83,-263.12 99.83,-243.88 136.83,-243.88 136.83,-263.12"/>
<text text-anchor="middle" x="118.33" y="-249.62" font-family="Helvetica,sans-Serif" font-size="10.00">cXyz</text>
</a>
</g>
</g>
<!-- Node4&#45;&gt;Node2 -->
<g id="edge6_Node000002_Node000004" class="edge">
<title>Node4&#45;&gt;Node2</title>
<g id="a_edge6_Node000002_Node000004"><a xlink:title=" ">
<path fill="none" stroke="#9a32cd" stroke-dasharray="5,2" d="M91.28,-237.78C63.24,-220.81 21.05,-190.03 3.08,-150 -13.22,-113.68 39.66,-88.49 75.67,-75.97"/>
<polygon fill="#9a32cd" stroke="#9a32cd" points="89.19,-240.62 99.59,-242.64 92.72,-234.57 89.19,-240.62"/>
</a>
</g>
<text text-anchor="middle" x="40.46" y="-136.5" font-family="Helvetica,sans-Serif" font-size="10.00" fill="grey"> m_virtual_center</text>
</g>
<!-- Node4&#45;&gt;Node3 -->
<g id="edge3_Node000003_Node000004" class="edge">
<title>Node4&#45;&gt;Node3</title>
<g id="a_edge3_Node000003_Node000004"><a xlink:title=" ">
<path fill="none" stroke="#9a32cd" stroke-dasharray="5,2" d="M118.33,-231.93C118.33,-207.51 118.33,-167.88 118.33,-150.28"/>
<polygon fill="#9a32cd" stroke="#9a32cd" points="114.83,-231.89 118.33,-241.89 121.83,-231.89 114.83,-231.89"/>
</a>
</g>
<text text-anchor="middle" x="132.58" y="-181" font-family="Helvetica,sans-Serif" font-size="10.00" fill="grey"> mMax</text>
<text text-anchor="middle" x="132.58" y="-169.75" font-family="Helvetica,sans-Serif" font-size="10.00" fill="grey">mMin</text>
</g>
<!-- Node4&#45;&gt;Node4 -->
<g id="edge5_Node000004_Node000004" class="edge">
<title>Node4&#45;&gt;Node4</title>
<g id="a_edge5_Node000004_Node000004"><a xlink:title=" ">
<path fill="none" stroke="#9a32cd" stroke-dasharray="5,2" d="M143.1,-265.32C149.77,-264.68 154.83,-260.74 154.83,-253.5 154.83,-242.46 143.07,-239.1 131.81,-243.41"/>
<polygon fill="#9a32cd" stroke="#9a32cd" points="143.72,-261.87 133.31,-263.82 142.66,-268.79 143.72,-261.87"/>
</a>
</g>
<text text-anchor="middle" x="175.83" y="-289" font-family="Helvetica,sans-Serif" font-size="10.00" fill="grey"> BaseX</text>
<text text-anchor="middle" x="175.83" y="-277.75" font-family="Helvetica,sans-Serif" font-size="10.00" fill="grey">BaseXY</text>
<text text-anchor="middle" x="175.83" y="-266.5" font-family="Helvetica,sans-Serif" font-size="10.00" fill="grey">BaseXYZ</text>
<text text-anchor="middle" x="175.83" y="-255.25" font-family="Helvetica,sans-Serif" font-size="10.00" fill="grey">BaseXZ</text>
<text text-anchor="middle" x="175.83" y="-244" font-family="Helvetica,sans-Serif" font-size="10.00" fill="grey">BaseY</text>
<text text-anchor="middle" x="175.83" y="-232.75" font-family="Helvetica,sans-Serif" font-size="10.00" fill="grey">BaseYZ</text>
<text text-anchor="middle" x="175.83" y="-221.5" font-family="Helvetica,sans-Serif" font-size="10.00" fill="grey">BaseZ</text>
<text text-anchor="middle" x="175.83" y="-210.25" font-family="Helvetica,sans-Serif" font-size="10.00" fill="grey">Zero</text>
</g>
<!-- Node6 -->
<g id="Node000006" class="node">
<title>Node6</title>
<g id="a_Node000006"><a xlink:href="structcM3dGCyl.html" target="_top" xlink:title=" ">
<polygon fill="white" stroke="#666666" points="208.83,-112.75 147.83,-112.75 147.83,-93.5 208.83,-93.5 208.83,-112.75"/>
<text text-anchor="middle" x="178.33" y="-99.25" font-family="Helvetica,sans-Serif" font-size="10.00">cM3dGCyl</text>
</a>
</g>
</g>
<!-- Node4&#45;&gt;Node6 -->
<g id="edge8_Node000006_Node000004" class="edge">
<title>Node4&#45;&gt;Node6</title>
<g id="a_edge8_Node000006_Node000004"><a xlink:title=" ">
<path fill="none" stroke="#9a32cd" stroke-dasharray="5,2" d="M129.5,-233.74C136.39,-221.67 145.07,-205.49 151.33,-190.5 162.79,-163.1 172.05,-129.08 176.11,-113.15"/>
<polygon fill="#9a32cd" stroke="#9a32cd" points="126.57,-231.81 124.56,-242.21 132.62,-235.33 126.57,-231.81"/>
</a>
</g>
<text text-anchor="middle" x="178.83" y="-175.38" font-family="Helvetica,sans-Serif" font-size="10.00" fill="grey"> mCenter</text>
</g>
<!-- Node5 -->
<g id="Node000005" class="node">
<title>Node5</title>
<g id="a_Node000005"><a xlink:href="structVec.html" target="_top" xlink:title=" ">
<polygon fill="white" stroke="#666666" points="134.96,-354.75 101.71,-354.75 101.71,-335.5 134.96,-335.5 134.96,-354.75"/>
<text text-anchor="middle" x="118.33" y="-341.25" font-family="Helvetica,sans-Serif" font-size="10.00">Vec</text>
</a>
</g>
</g>
<!-- Node5&#45;&gt;Node4 -->
<g id="edge4_Node000004_Node000005" class="edge">
<title>Node5&#45;&gt;Node4</title>
<g id="a_edge4_Node000004_Node000005"><a xlink:title=" ">
<path fill="none" stroke="#63b8ff" d="M118.33,-323.94C118.33,-304.94 118.33,-277.39 118.33,-263.39"/>
<polygon fill="#63b8ff" stroke="#63b8ff" points="114.83,-323.69 118.33,-333.69 121.83,-323.69 114.83,-323.69"/>
</a>
</g>
</g>
<!-- Node6&#45;&gt;Node1 -->
<g id="edge7_Node000001_Node000006" class="edge">
<title>Node6&#45;&gt;Node1</title>
<g id="a_edge7_Node000001_Node000006"><a xlink:title=" ">
<path fill="none" stroke="#63b8ff" d="M170.55,-82.35C162.91,-62.94 151.61,-34.2 145.9,-19.7"/>
<polygon fill="#63b8ff" stroke="#63b8ff" points="167.28,-83.58 174.2,-91.61 173.79,-81.02 167.28,-83.58"/>
</a>
</g>
</g>
</g>
</svg>
