<?xml version="1.0" encoding="UTF-8" standalone="no"?>
<!DOCTYPE svg PUBLIC "-//W3C//DTD SVG 1.1//EN"
 "http://www.w3.org/Graphics/SVG/1.1/DTD/svg11.dtd">
<!-- Generated by graphviz version 9.0.0 (20230911.1827)
 -->
<!-- Title: daAlink_matAnm_c Pages: 1 -->
<!--zoomable 435 -->

<svg id="main" version="1.1" xmlns="http://www.w3.org/2000/svg" xmlns:xlink="http://www.w3.org/1999/xlink" xml:space="preserve" onload="init(evt)">
<style type="text/css"><![CDATA[
.node, .edge {opacity: 0.7;}
.node.selected, .edge.selected {opacity: 1;}
.edge:hover path { stroke: red; }
.edge:hover polygon { stroke: red; fill: red; }
]]></style>

<defs>
  <circle id="rim" cx="0" cy="0" r="7"/>
  <circle id="rim2" cx="0" cy="0" r="3.5"/>
  <g id="zoomPlus">
    <use xlink:href="#rim" fill="#404040"><set attributeName="fill" to="#808080" begin="zoomplus.mouseover" end="zoomplus.mouseout"/></use>
    <path d="M-4,0h8M0,-4v8" fill="none" stroke="white" stroke-width="1.5" pointer-events="none"/>
  </g>
  <g id="zoomMin">
    <use xlink:href="#rim" fill="#404040"><set attributeName="fill" to="#808080" begin="zoomminus.mouseover" end="zoomminus.mouseout"/></use>
    <path d="M-4,0h8" fill="none" stroke="white" stroke-width="1.5" pointer-events="none"/>
  </g>
  <g id="arrowUp" transform="translate(30 24)">
    <use xlink:href="#rim"/>
    <path pointer-events="none" fill="none" stroke="white" stroke-width="1.5" d="M0,-3.0v7 M-2.5,-0.5L0,-3.0L2.5,-0.5"/>
  </g>
  <g id="arrowRight" transform="rotate(90) translate(36 -43)">
    <use xlink:href="#rim"/>
    <path pointer-events="none" fill="none" stroke="white" stroke-width="1.5" d="M0,-3.0v7 M-2.5,-0.5L0,-3.0L2.5,-0.5"/>
  </g>
  <g id="arrowDown" transform="rotate(180) translate(-30 -48)">
    <use xlink:href="#rim"/>
    <path pointer-events="none" fill="none" stroke="white" stroke-width="1.5" d="M0,-3.0v7 M-2.5,-0.5L0,-3.0L2.5,-0.5"/>
  </g>
  <g id="arrowLeft" transform="rotate(270) translate(-36 17)">
    <use xlink:href="#rim"/>
    <path pointer-events="none" fill="none" stroke="white" stroke-width="1.5" d="M0,-3.0v7 M-2.5,-0.5L0,-3.0L2.5,-0.5"/>
  </g>
  <g id="resetDef">
    <use xlink:href="#rim2" fill="#404040"><set attributeName="fill" to="#808080" begin="reset.mouseover" end="reset.mouseout"/></use>
  </g>
</defs>
<script type="application/ecmascript">
var viewWidth = 1365;
var viewHeight = 435;
var sectionId = 'dynsection-1';
</script>
<script type="application/ecmascript" xlink:href="svg.min.js"/>
<svg id="graph" class="graph">
<g id="viewport">
<title>daAlink_matAnm_c</title>
<!-- Node1 -->
<g id="Node000001" class="node">
<title>Node1</title>
<g id="a_Node000001"><a xlink:title=" ">
<polygon fill="#999999" stroke="#666666" points="1357.25,-258.25 1256.5,-258.25 1256.5,-239 1357.25,-239 1357.25,-258.25"/>
<text text-anchor="middle" x="1306.88" y="-244.75" font-family="Helvetica,sans-Serif" font-size="10.00">daAlink_matAnm_c</text>
</a>
</g>
</g>
<!-- Node2 -->
<g id="Node000002" class="node">
<title>Node2</title>
<g id="a_Node000002"><a xlink:href="structJ3DMaterialAnm.html" target="_top" xlink:title=" ">
<polygon fill="white" stroke="#666666" points="1219.5,-258.25 1131.5,-258.25 1131.5,-239 1219.5,-239 1219.5,-258.25"/>
<text text-anchor="middle" x="1175.5" y="-244.75" font-family="Helvetica,sans-Serif" font-size="10.00">J3DMaterialAnm</text>
</a>
</g>
</g>
<!-- Node2&#45;&gt;Node1 -->
<g id="edge1_Node000001_Node000002" class="edge">
<title>Node2&#45;&gt;Node1</title>
<g id="a_edge1_Node000001_Node000002"><a xlink:title=" ">
<path fill="none" stroke="#63b8ff" d="M1231.34,-248.62C1239.55,-248.62 1247.98,-248.62 1256.07,-248.62"/>
<polygon fill="#63b8ff" stroke="#63b8ff" points="1231.45,-245.13 1221.45,-248.63 1231.45,-252.13 1231.45,-245.13"/>
</a>
</g>
</g>
<!-- Node3 -->
<g id="Node000003" class="node">
<title>Node3</title>
<g id="a_Node000003"><a xlink:href="structJ3DMatColorAnm.html" target="_top" xlink:title=" ">
<polygon fill="white" stroke="#666666" points="1015.62,-221.25 923.12,-221.25 923.12,-202 1015.62,-202 1015.62,-221.25"/>
<text text-anchor="middle" x="969.38" y="-207.75" font-family="Helvetica,sans-Serif" font-size="10.00">J3DMatColorAnm</text>
</a>
</g>
</g>
<!-- Node3&#45;&gt;Node2 -->
<g id="edge2_Node000002_Node000003" class="edge">
<title>Node3&#45;&gt;Node2</title>
<g id="a_edge2_Node000002_Node000003"><a xlink:title=" ">
<path fill="none" stroke="#9a32cd" stroke-dasharray="5,2" d="M1027.32,-219.02C1053.65,-222.77 1085.27,-227.71 1113.5,-233.38 1120.99,-234.88 1128.95,-236.7 1136.55,-238.55"/>
<polygon fill="#9a32cd" stroke="#9a32cd" points="1027.9,-215.57 1017.51,-217.65 1026.93,-222.5 1027.9,-215.57"/>
</a>
</g>
<text text-anchor="middle" x="1075.25" y="-234.38" font-family="Helvetica,sans-Serif" font-size="10.00" fill="grey"> mMatColorAnm</text>
</g>
<!-- Node4 -->
<g id="Node000004" class="node">
<title>Node4</title>
<g id="a_Node000004"><a xlink:href="classJ3DAnmColor.html" target="_top" xlink:title=" ">
<polygon fill="white" stroke="#666666" points="782.88,-221.25 706.88,-221.25 706.88,-202 782.88,-202 782.88,-221.25"/>
<text text-anchor="middle" x="744.88" y="-207.75" font-family="Helvetica,sans-Serif" font-size="10.00">J3DAnmColor</text>
</a>
</g>
</g>
<!-- Node4&#45;&gt;Node3 -->
<g id="edge3_Node000003_Node000004" class="edge">
<title>Node4&#45;&gt;Node3</title>
<g id="a_edge3_Node000003_Node000004"><a xlink:title=" ">
<path fill="none" stroke="#9a32cd" stroke-dasharray="5,2" d="M794.7,-211.62C832.8,-211.62 885.34,-211.62 922.63,-211.62"/>
<polygon fill="#9a32cd" stroke="#9a32cd" points="794.88,-208.13 784.88,-211.63 794.88,-215.13 794.88,-208.13"/>
</a>
</g>
<text text-anchor="middle" x="862.75" y="-213.38" font-family="Helvetica,sans-Serif" font-size="10.00" fill="grey"> mAnmColor</text>
</g>
<!-- Node5 -->
<g id="Node000005" class="node">
<title>Node5</title>
<g id="a_Node000005"><a xlink:href="classJ3DAnmBase.html" target="_top" xlink:title=" ">
<polygon fill="white" stroke="#666666" points="489,-317.25 413,-317.25 413,-298 489,-298 489,-317.25"/>
<text text-anchor="middle" x="451" y="-303.75" font-family="Helvetica,sans-Serif" font-size="10.00">J3DAnmBase</text>
</a>
</g>
</g>
<!-- Node5&#45;&gt;Node4 -->
<g id="edge4_Node000004_Node000005" class="edge">
<title>Node5&#45;&gt;Node4</title>
<g id="a_edge4_Node000004_Node000005"><a xlink:title=" ">
<path fill="none" stroke="#63b8ff" d="M499.91,-296.49C507.5,-293.42 514.92,-289.54 521.25,-284.62 532.94,-275.55 527.11,-265.08 539.25,-256.62 565.97,-238.03 655.37,-223.44 706.73,-216.34"/>
<polygon fill="#63b8ff" stroke="#63b8ff" points="498.83,-293.16 490.58,-299.81 501.17,-299.76 498.83,-293.16"/>
</a>
</g>
</g>
<!-- Node10 -->
<g id="Node000010" class="node">
<title>Node10</title>
<g id="a_Node000010"><a xlink:href="structJ3DAnmTextureSRTKey.html" target="_top" xlink:title=" ">
<polygon fill="white" stroke="#666666" points="805.75,-99.25 684,-99.25 684,-80 805.75,-80 805.75,-99.25"/>
<text text-anchor="middle" x="744.88" y="-85.75" font-family="Helvetica,sans-Serif" font-size="10.00">J3DAnmTextureSRTKey</text>
</a>
</g>
</g>
<!-- Node5&#45;&gt;Node10 -->
<g id="edge10_Node000010_Node000005" class="edge">
<title>Node5&#45;&gt;Node10</title>
<g id="a_edge10_Node000010_Node000005"><a xlink:title=" ">
<path fill="none" stroke="#63b8ff" d="M500.02,-299.5C508.12,-296.12 515.7,-291.35 521.25,-284.62 560.36,-237.28 498.77,-193.81 539.25,-147.62 577.69,-103.76 609.95,-129.77 666,-113.62 681.23,-109.24 698.03,-104.1 712.13,-99.7"/>
<polygon fill="#63b8ff" stroke="#63b8ff" points="498.95,-296.17 490.61,-302.71 501.21,-302.79 498.95,-296.17"/>
</a>
</g>
</g>
<!-- Node15 -->
<g id="Node000015" class="node">
<title>Node15</title>
<g id="a_Node000015"><a xlink:href="structJ3DAnmTexPattern.html" target="_top" xlink:title=" ">
<polygon fill="white" stroke="#666666" points="795.25,-373.25 694.5,-373.25 694.5,-354 795.25,-354 795.25,-373.25"/>
<text text-anchor="middle" x="744.88" y="-359.75" font-family="Helvetica,sans-Serif" font-size="10.00">J3DAnmTexPattern</text>
</a>
</g>
</g>
<!-- Node5&#45;&gt;Node15 -->
<g id="edge17_Node000015_Node000005" class="edge">
<title>Node5&#45;&gt;Node15</title>
<g id="a_edge17_Node000015_Node000005"><a xlink:title=" ">
<path fill="none" stroke="#63b8ff" d="M500.31,-317.88C507.92,-321.05 515.24,-325.2 521.25,-330.62 535.72,-343.69 522.88,-360.04 539.25,-370.62 593.73,-405.85 674.52,-387.29 716.43,-373.74"/>
<polygon fill="#63b8ff" stroke="#63b8ff" points="501.5,-314.59 490.9,-314.52 499.14,-321.18 501.5,-314.59"/>
</a>
</g>
</g>
<!-- Node18 -->
<g id="Node000018" class="node">
<title>Node18</title>
<g id="a_Node000018"><a xlink:href="structJ3DAnmTevRegKey.html" target="_top" xlink:title=" ">
<polygon fill="white" stroke="#666666" points="796.75,-295.25 693,-295.25 693,-276 796.75,-276 796.75,-295.25"/>
<text text-anchor="middle" x="744.88" y="-281.75" font-family="Helvetica,sans-Serif" font-size="10.00">J3DAnmTevRegKey</text>
</a>
</g>
</g>
<!-- Node5&#45;&gt;Node18 -->
<g id="edge22_Node000018_Node000005" class="edge">
<title>Node5&#45;&gt;Node18</title>
<g id="a_edge22_Node000018_Node000005"><a xlink:title=" ">
<path fill="none" stroke="#63b8ff" d="M500.82,-313.48C544.43,-317.54 609.89,-320.74 666,-311.62 684.85,-308.56 705.31,-301.58 720.52,-295.62"/>
<polygon fill="#63b8ff" stroke="#63b8ff" points="501.2,-310 490.91,-312.5 500.51,-316.96 501.2,-310"/>
</a>
</g>
</g>
<!-- Node6 -->
<g id="Node000006" class="node">
<title>Node6</title>
<g id="a_Node000006"><a xlink:href="structJUTNameTab.html" target="_top" xlink:title=" ">
<polygon fill="white" stroke="#666666" points="489.75,-187.25 412.25,-187.25 412.25,-168 489.75,-168 489.75,-187.25"/>
<text text-anchor="middle" x="451" y="-173.75" font-family="Helvetica,sans-Serif" font-size="10.00">JUTNameTab</text>
</a>
</g>
</g>
<!-- Node6&#45;&gt;Node4 -->
<g id="edge5_Node000004_Node000006" class="edge">
<title>Node6&#45;&gt;Node4</title>
<g id="a_edge5_Node000004_Node000006"><a xlink:title=" ">
<path fill="none" stroke="#9a32cd" stroke-dasharray="5,2" d="M497.44,-164.94C541.45,-154.8 609.61,-144.76 666,-161.38 692.86,-169.29 719.18,-189.66 733.29,-201.9"/>
<polygon fill="#9a32cd" stroke="#9a32cd" points="496.89,-161.48 487.99,-167.22 498.53,-168.28 496.89,-161.48"/>
</a>
</g>
<text text-anchor="middle" x="602.62" y="-162.38" font-family="Helvetica,sans-Serif" font-size="10.00" fill="grey"> mUpdateMaterialName</text>
</g>
<!-- Node6&#45;&gt;Node10 -->
<g id="edge13_Node000010_Node000006" class="edge">
<title>Node6&#45;&gt;Node10</title>
<g id="a_edge13_Node000010_Node000006"><a xlink:title=" ">
<path fill="none" stroke="#9a32cd" stroke-dasharray="5,2" d="M464.45,-158.38C479.34,-137.34 506.42,-104.78 539.25,-91.12 588.12,-70.79 649.42,-73.62 692.13,-79.54"/>
<polygon fill="#9a32cd" stroke="#9a32cd" points="461.73,-156.17 459,-166.41 467.52,-160.1 461.73,-156.17"/>
</a>
</g>
<text text-anchor="middle" x="602.62" y="-103.62" font-family="Helvetica,sans-Serif" font-size="10.00" fill="grey"> mPostUpdateMaterialName</text>
<text text-anchor="middle" x="602.62" y="-92.38" font-family="Helvetica,sans-Serif" font-size="10.00" fill="grey">mUpdateMaterialName</text>
</g>
<!-- Node6&#45;&gt;Node15 -->
<g id="edge19_Node000015_Node000006" class="edge">
<title>Node6&#45;&gt;Node15</title>
<g id="a_edge19_Node000015_Node000006"><a xlink:title=" ">
<path fill="none" stroke="#9a32cd" stroke-dasharray="5,2" d="M472.08,-195.01C486.72,-208.28 506.49,-227.48 521.25,-246.62 530.98,-259.24 526.63,-267.91 539.25,-277.62 585.53,-313.26 612.78,-288.3 666,-312.38 690.77,-323.58 716.57,-342.15 731.38,-353.59"/>
<polygon fill="#9a32cd" stroke="#9a32cd" points="474.65,-192.61 464.85,-188.57 469.99,-197.84 474.65,-192.61"/>
</a>
</g>
<text text-anchor="middle" x="602.62" y="-313.38" font-family="Helvetica,sans-Serif" font-size="10.00" fill="grey"> mUpdateMaterialName</text>
</g>
<!-- Node6&#45;&gt;Node18 -->
<g id="edge23_Node000018_Node000006" class="edge">
<title>Node6&#45;&gt;Node18</title>
<g id="a_edge23_Node000018_Node000006"><a xlink:title=" ">
<path fill="none" stroke="#9a32cd" stroke-dasharray="5,2" d="M501.05,-185.85C545.45,-194.38 611.97,-209.92 666,-234.12 691,-245.33 716.93,-264.18 731.67,-275.7"/>
<polygon fill="#9a32cd" stroke="#9a32cd" points="501.94,-182.45 491.47,-184.06 500.66,-189.34 501.94,-182.45"/>
</a>
</g>
<text text-anchor="middle" x="602.62" y="-246.62" font-family="Helvetica,sans-Serif" font-size="10.00" fill="grey"> mCRegUpdateMaterialName</text>
<text text-anchor="middle" x="602.62" y="-235.38" font-family="Helvetica,sans-Serif" font-size="10.00" fill="grey">mKRegUpdateMaterialName</text>
</g>
<!-- Node7 -->
<g id="Node000007" class="node">
<title>Node7</title>
<g id="a_Node000007"><a xlink:href="structResNTAB.html" target="_top" xlink:title=" ">
<polygon fill="white" stroke="#666666" points="251.38,-187.25 191.12,-187.25 191.12,-168 251.38,-168 251.38,-187.25"/>
<text text-anchor="middle" x="221.25" y="-173.75" font-family="Helvetica,sans-Serif" font-size="10.00">ResNTAB</text>
</a>
</g>
</g>
<!-- Node7&#45;&gt;Node6 -->
<g id="edge6_Node000006_Node000007" class="edge">
<title>Node7&#45;&gt;Node6</title>
<g id="a_edge6_Node000006_Node000007"><a xlink:title=" ">
<path fill="none" stroke="#9a32cd" stroke-dasharray="5,2" d="M262.82,-177.62C305.1,-177.62 370.83,-177.62 412.09,-177.62"/>
<polygon fill="#9a32cd" stroke="#9a32cd" points="263.07,-174.13 253.07,-177.63 263.07,-181.13 263.07,-174.13"/>
</a>
</g>
<text text-anchor="middle" x="330.12" y="-179.38" font-family="Helvetica,sans-Serif" font-size="10.00" fill="grey"> mNameTable</text>
</g>
<!-- Node8 -->
<g id="Node000008" class="node">
<title>Node8</title>
<g id="a_Node000008"><a xlink:href="structResNTAB_1_1Entry.html" target="_top" xlink:title=" ">
<polygon fill="white" stroke="#666666" points="86.5,-187.25 0,-187.25 0,-168 86.5,-168 86.5,-187.25"/>
<text text-anchor="middle" x="43.25" y="-173.75" font-family="Helvetica,sans-Serif" font-size="10.00">ResNTAB::Entry</text>
</a>
</g>
</g>
<!-- Node8&#45;&gt;Node7 -->
<g id="edge7_Node000007_Node000008" class="edge">
<title>Node8&#45;&gt;Node7</title>
<g id="a_edge7_Node000007_Node000008"><a xlink:title=" ">
<path fill="none" stroke="#9a32cd" stroke-dasharray="5,2" d="M98.17,-177.62C128.62,-177.62 165.5,-177.62 190.7,-177.62"/>
<polygon fill="#9a32cd" stroke="#9a32cd" points="98.37,-174.13 88.37,-177.63 98.37,-181.13 98.37,-174.13"/>
</a>
</g>
<text text-anchor="middle" x="124.75" y="-179.38" font-family="Helvetica,sans-Serif" font-size="10.00" fill="grey"> mEntries</text>
</g>
<!-- Node9 -->
<g id="Node000009" class="node">
<title>Node9</title>
<g id="a_Node000009"><a xlink:href="structJ3DTexMtxAnm.html" target="_top" xlink:title=" ">
<polygon fill="white" stroke="#666666" points="1011.88,-168.25 926.88,-168.25 926.88,-149 1011.88,-149 1011.88,-168.25"/>
<text text-anchor="middle" x="969.38" y="-154.75" font-family="Helvetica,sans-Serif" font-size="10.00">J3DTexMtxAnm</text>
</a>
</g>
</g>
<!-- Node9&#45;&gt;Node2 -->
<g id="edge8_Node000002_Node000009" class="edge">
<title>Node9&#45;&gt;Node2</title>
<g id="a_edge8_Node000002_Node000009"><a xlink:title=" ">
<path fill="none" stroke="#9a32cd" stroke-dasharray="5,2" d="M1023.14,-171.74C1050.84,-179.64 1084.87,-190.97 1113.5,-205.38 1131.82,-214.6 1150.76,-228.91 1162.58,-238.52"/>
<polygon fill="#9a32cd" stroke="#9a32cd" points="1024.11,-168.38 1013.54,-169.08 1022.24,-175.12 1024.11,-168.38"/>
</a>
</g>
<text text-anchor="middle" x="1075.25" y="-206.38" font-family="Helvetica,sans-Serif" font-size="10.00" fill="grey"> mTexMtxAnm</text>
</g>
<!-- Node10&#45;&gt;Node9 -->
<g id="edge9_Node000009_Node000010" class="edge">
<title>Node10&#45;&gt;Node9</title>
<g id="a_edge9_Node000009_Node000010"><a xlink:title=" ">
<path fill="none" stroke="#9a32cd" stroke-dasharray="5,2" d="M789.2,-103.06C832.24,-116.41 897.24,-136.57 935.98,-148.58"/>
<polygon fill="#9a32cd" stroke="#9a32cd" points="790.26,-99.73 779.67,-100.11 788.19,-106.41 790.26,-99.73"/>
</a>
</g>
<text text-anchor="middle" x="862.75" y="-137.38" font-family="Helvetica,sans-Serif" font-size="10.00" fill="grey"> mAnmTransform</text>
</g>
<!-- Node11 -->
<g id="Node000011" class="node">
<title>Node11</title>
<g id="a_Node000011"><a xlink:href="structJ3DAnmTransformKeyTable.html" target="_top" xlink:title=" ">
<polygon fill="white" stroke="#666666" points="520.12,-77.25 381.88,-77.25 381.88,-58 520.12,-58 520.12,-77.25"/>
<text text-anchor="middle" x="451" y="-63.75" font-family="Helvetica,sans-Serif" font-size="10.00">J3DAnmTransformKeyTable</text>
</a>
</g>
</g>
<!-- Node11&#45;&gt;Node10 -->
<g id="edge11_Node000010_Node000011" class="edge">
<title>Node11&#45;&gt;Node10</title>
<g id="a_edge11_Node000010_Node000011"><a xlink:title=" ">
<path fill="none" stroke="#9a32cd" stroke-dasharray="5,2" d="M515.57,-55.94C558.48,-50.09 616.15,-46.18 666,-56.38 687.6,-60.79 710.63,-71.45 725.99,-79.52"/>
<polygon fill="#9a32cd" stroke="#9a32cd" points="515.34,-52.44 505.94,-57.33 516.34,-59.37 515.34,-52.44"/>
</a>
</g>
<text text-anchor="middle" x="602.62" y="-57.38" font-family="Helvetica,sans-Serif" font-size="10.00" fill="grey"> mAnmTable</text>
</g>
<!-- Node12 -->
<g id="Node000012" class="node">
<title>Node12</title>
<g id="a_Node000012"><a xlink:href="structJ3DAnmKeyTableBase.html" target="_top" xlink:title=" ">
<polygon fill="white" stroke="#666666" points="279.5,-275.25 163,-275.25 163,-256 279.5,-256 279.5,-275.25"/>
<text text-anchor="middle" x="221.25" y="-261.75" font-family="Helvetica,sans-Serif" font-size="10.00">J3DAnmKeyTableBase</text>
</a>
</g>
</g>
<!-- Node12&#45;&gt;Node11 -->
<g id="edge12_Node000011_Node000012" class="edge">
<title>Node12&#45;&gt;Node11</title>
<g id="a_edge12_Node000011_Node000012"><a xlink:title=" ">
<path fill="none" stroke="#9a32cd" stroke-dasharray="5,2" d="M240.49,-247.67C252.97,-234.53 269.07,-215.72 279.5,-196.62 292.18,-173.4 280.1,-159.81 297.5,-139.88 326.21,-106.99 373.16,-87.91 407.39,-77.71"/>
<polygon fill="#9a32cd" stroke="#9a32cd" points="238.09,-245.12 233.61,-254.72 243.1,-250.01 238.09,-245.12"/>
</a>
</g>
<text text-anchor="middle" x="330.12" y="-163.88" font-family="Helvetica,sans-Serif" font-size="10.00" fill="grey"> mRotationInfo</text>
<text text-anchor="middle" x="330.12" y="-152.62" font-family="Helvetica,sans-Serif" font-size="10.00" fill="grey">mScaleInfo</text>
<text text-anchor="middle" x="330.12" y="-141.38" font-family="Helvetica,sans-Serif" font-size="10.00" fill="grey">mTranslateInfo</text>
</g>
<!-- Node19 -->
<g id="Node000019" class="node">
<title>Node19</title>
<g id="a_Node000019"><a xlink:href="structJ3DAnmCRegKeyTable.html" target="_top" xlink:title=" ">
<polygon fill="white" stroke="#666666" points="510,-275.25 392,-275.25 392,-256 510,-256 510,-275.25"/>
<text text-anchor="middle" x="451" y="-261.75" font-family="Helvetica,sans-Serif" font-size="10.00">J3DAnmCRegKeyTable</text>
</a>
</g>
</g>
<!-- Node12&#45;&gt;Node19 -->
<g id="edge25_Node000019_Node000012" class="edge">
<title>Node12&#45;&gt;Node19</title>
<g id="a_edge25_Node000019_Node000012"><a xlink:title=" ">
<path fill="none" stroke="#9a32cd" stroke-dasharray="5,2" d="M290.84,-265.62C323.03,-265.62 360.99,-265.62 391.76,-265.62"/>
<polygon fill="#9a32cd" stroke="#9a32cd" points="291.23,-262.13 281.23,-265.63 291.23,-269.13 291.23,-262.13"/>
</a>
</g>
<text text-anchor="middle" x="330.12" y="-301.12" font-family="Helvetica,sans-Serif" font-size="10.00" fill="grey"> mATable</text>
<text text-anchor="middle" x="330.12" y="-289.88" font-family="Helvetica,sans-Serif" font-size="10.00" fill="grey">mBTable</text>
<text text-anchor="middle" x="330.12" y="-278.62" font-family="Helvetica,sans-Serif" font-size="10.00" fill="grey">mGTable</text>
<text text-anchor="middle" x="330.12" y="-267.38" font-family="Helvetica,sans-Serif" font-size="10.00" fill="grey">mRTable</text>
</g>
<!-- Node20 -->
<g id="Node000020" class="node">
<title>Node20</title>
<g id="a_Node000020"><a xlink:href="structJ3DAnmKRegKeyTable.html" target="_top" xlink:title=" ">
<polygon fill="white" stroke="#666666" points="510,-359.25 392,-359.25 392,-340 510,-340 510,-359.25"/>
<text text-anchor="middle" x="451" y="-345.75" font-family="Helvetica,sans-Serif" font-size="10.00">J3DAnmKRegKeyTable</text>
</a>
</g>
</g>
<!-- Node12&#45;&gt;Node20 -->
<g id="edge27_Node000020_Node000012" class="edge">
<title>Node12&#45;&gt;Node20</title>
<g id="a_edge27_Node000020_Node000012"><a xlink:title=" ">
<path fill="none" stroke="#9a32cd" stroke-dasharray="5,2" d="M243.59,-282.44C258.06,-293.09 278.03,-306.36 297.5,-314.62 327.38,-327.31 362.59,-335.78 391.65,-341.2"/>
<polygon fill="#9a32cd" stroke="#9a32cd" points="245.82,-279.74 235.73,-276.5 241.59,-285.32 245.82,-279.74"/>
</a>
</g>
<text text-anchor="middle" x="330.12" y="-369.12" font-family="Helvetica,sans-Serif" font-size="10.00" fill="grey"> mATable</text>
<text text-anchor="middle" x="330.12" y="-357.88" font-family="Helvetica,sans-Serif" font-size="10.00" fill="grey">mBTable</text>
<text text-anchor="middle" x="330.12" y="-346.62" font-family="Helvetica,sans-Serif" font-size="10.00" fill="grey">mGTable</text>
<text text-anchor="middle" x="330.12" y="-335.38" font-family="Helvetica,sans-Serif" font-size="10.00" fill="grey">mRTable</text>
</g>
<!-- Node13 -->
<g id="Node000013" class="node">
<title>Node13</title>
<g id="a_Node000013"><a xlink:href="structVec.html" target="_top" xlink:title=" ">
<polygon fill="white" stroke="#666666" points="467.62,-19.25 434.38,-19.25 434.38,0 467.62,0 467.62,-19.25"/>
<text text-anchor="middle" x="451" y="-5.75" font-family="Helvetica,sans-Serif" font-size="10.00">Vec</text>
</a>
</g>
</g>
<!-- Node13&#45;&gt;Node10 -->
<g id="edge14_Node000010_Node000013" class="edge">
<title>Node13&#45;&gt;Node10</title>
<g id="a_edge14_Node000010_Node000013"><a xlink:title=" ">
<path fill="none" stroke="#9a32cd" stroke-dasharray="5,2" d="M479.23,-6.02C521.1,-1.62 603.04,2.38 666,-23.12 696.32,-35.41 723.29,-64.39 736.05,-79.72"/>
<polygon fill="#9a32cd" stroke="#9a32cd" points="479.1,-2.51 469.56,-7.13 479.9,-9.46 479.1,-2.51"/>
</a>
</g>
<text text-anchor="middle" x="602.62" y="-35.62" font-family="Helvetica,sans-Serif" font-size="10.00" fill="grey"> mPostSRTCenter</text>
<text text-anchor="middle" x="602.62" y="-24.38" font-family="Helvetica,sans-Serif" font-size="10.00" fill="grey">mSRTCenter</text>
</g>
<!-- Node14 -->
<g id="Node000014" class="node">
<title>Node14</title>
<g id="a_Node000014"><a xlink:href="structJ3DTexNoAnm.html" target="_top" xlink:title=" ">
<polygon fill="white" stroke="#666666" points="1010.38,-343.25 928.38,-343.25 928.38,-324 1010.38,-324 1010.38,-343.25"/>
<text text-anchor="middle" x="969.38" y="-329.75" font-family="Helvetica,sans-Serif" font-size="10.00">J3DTexNoAnm</text>
</a>
</g>
</g>
<!-- Node14&#45;&gt;Node2 -->
<g id="edge15_Node000002_Node000014" class="edge">
<title>Node14&#45;&gt;Node2</title>
<g id="a_edge15_Node000002_Node000014"><a xlink:title=" ">
<path fill="none" stroke="#9a32cd" stroke-dasharray="5,2" d="M1021.84,-321.73C1049.71,-314.32 1084.32,-303.54 1113.5,-289.62 1131.47,-281.06 1150.19,-267.71 1162.07,-258.58"/>
<polygon fill="#9a32cd" stroke="#9a32cd" points="1021.01,-318.33 1012.2,-324.22 1022.76,-325.11 1021.01,-318.33"/>
</a>
</g>
<text text-anchor="middle" x="1075.25" y="-318.38" font-family="Helvetica,sans-Serif" font-size="10.00" fill="grey"> mTexNoAnm</text>
</g>
<!-- Node15&#45;&gt;Node14 -->
<g id="edge16_Node000014_Node000015" class="edge">
<title>Node15&#45;&gt;Node14</title>
<g id="a_edge16_Node000014_Node000015"><a xlink:title=" ">
<path fill="none" stroke="#9a32cd" stroke-dasharray="5,2" d="M806.65,-355.43C845.31,-350.22 894.28,-343.62 928.15,-339.05"/>
<polygon fill="#9a32cd" stroke="#9a32cd" points="806.47,-351.92 797.03,-356.73 807.41,-358.86 806.47,-351.92"/>
</a>
</g>
<text text-anchor="middle" x="862.75" y="-354.38" font-family="Helvetica,sans-Serif" font-size="10.00" fill="grey"> mAnmTexPattern</text>
</g>
<!-- Node16 -->
<g id="Node000016" class="node">
<title>Node16</title>
<g id="a_Node000016"><a xlink:href="structJ3DAnmTexPatternFullTable.html" target="_top" xlink:title=" ">
<polygon fill="white" stroke="#666666" points="521.25,-427.25 380.75,-427.25 380.75,-408 521.25,-408 521.25,-427.25"/>
<text text-anchor="middle" x="451" y="-413.75" font-family="Helvetica,sans-Serif" font-size="10.00">J3DAnmTexPatternFullTable</text>
</a>
</g>
</g>
<!-- Node16&#45;&gt;Node15 -->
<g id="edge18_Node000015_Node000016" class="edge">
<title>Node16&#45;&gt;Node15</title>
<g id="a_edge18_Node000015_Node000016"><a xlink:title=" ">
<path fill="none" stroke="#9a32cd" stroke-dasharray="5,2" d="M532.74,-414.81C573.22,-412.02 622.72,-406.5 666,-395.62 686.41,-390.5 708.5,-381.01 723.92,-373.7"/>
<polygon fill="#9a32cd" stroke="#9a32cd" points="532.56,-411.31 522.81,-415.44 533.01,-418.3 532.56,-411.31"/>
</a>
</g>
<text text-anchor="middle" x="602.62" y="-415.38" font-family="Helvetica,sans-Serif" font-size="10.00" fill="grey"> mAnmTable</text>
</g>
<!-- Node17 -->
<g id="Node000017" class="node">
<title>Node17</title>
<g id="a_Node000017"><a xlink:href="structJ3DTevColorAnm.html" target="_top" xlink:title=" ">
<polygon fill="white" stroke="#666666" points="1015.62,-258.25 923.12,-258.25 923.12,-239 1015.62,-239 1015.62,-258.25"/>
<text text-anchor="middle" x="969.38" y="-244.75" font-family="Helvetica,sans-Serif" font-size="10.00">J3DTevColorAnm</text>
</a>
</g>
</g>
<!-- Node17&#45;&gt;Node2 -->
<g id="edge20_Node000002_Node000017" class="edge">
<title>Node17&#45;&gt;Node2</title>
<g id="a_edge20_Node000002_Node000017"><a xlink:title=" ">
<path fill="none" stroke="#9a32cd" stroke-dasharray="5,2" d="M1027.21,-248.62C1060.12,-248.62 1100.88,-248.62 1131.18,-248.62"/>
<polygon fill="#9a32cd" stroke="#9a32cd" points="1027.44,-245.13 1017.44,-248.63 1027.44,-252.13 1027.44,-245.13"/>
</a>
</g>
<text text-anchor="middle" x="1075.25" y="-250.38" font-family="Helvetica,sans-Serif" font-size="10.00" fill="grey"> mTevColorAnm</text>
</g>
<!-- Node18&#45;&gt;Node17 -->
<g id="edge21_Node000017_Node000018" class="edge">
<title>Node18&#45;&gt;Node17</title>
<g id="a_edge21_Node000017_Node000018"><a xlink:title=" ">
<path fill="none" stroke="#9a32cd" stroke-dasharray="5,2" d="M806.69,-273.45C812.45,-272.37 818.21,-271.33 823.75,-270.38 856.78,-264.66 894.19,-259.06 922.7,-254.97"/>
<polygon fill="#9a32cd" stroke="#9a32cd" points="806.33,-269.95 797.15,-275.25 807.63,-276.83 806.33,-269.95"/>
</a>
</g>
<text text-anchor="middle" x="862.75" y="-271.38" font-family="Helvetica,sans-Serif" font-size="10.00" fill="grey"> mAnmTevReg</text>
</g>
<!-- Node21 -->
<g id="Node000021" class="node">
<title>Node21</title>
<g id="a_Node000021"><a xlink:href="structJ3DTevKColorAnm.html" target="_top" xlink:title=" ">
<polygon fill="white" stroke="#666666" points="1019,-295.25 919.75,-295.25 919.75,-276 1019,-276 1019,-295.25"/>
<text text-anchor="middle" x="969.38" y="-281.75" font-family="Helvetica,sans-Serif" font-size="10.00">J3DTevKColorAnm</text>
</a>
</g>
</g>
<!-- Node18&#45;&gt;Node21 -->
<g id="edge29_Node000021_Node000018" class="edge">
<title>Node18&#45;&gt;Node21</title>
<g id="a_edge29_Node000021_Node000018"><a xlink:title=" ">
<path fill="none" stroke="#9a32cd" stroke-dasharray="5,2" d="M808.32,-285.62C843.54,-285.62 886.9,-285.62 919.6,-285.62"/>
<polygon fill="#9a32cd" stroke="#9a32cd" points="808.71,-282.13 798.71,-285.63 808.71,-289.13 808.71,-282.13"/>
</a>
</g>
<text text-anchor="middle" x="862.75" y="-287.38" font-family="Helvetica,sans-Serif" font-size="10.00" fill="grey"> mAnmTevReg</text>
</g>
<!-- Node19&#45;&gt;Node18 -->
<g id="edge24_Node000018_Node000019" class="edge">
<title>Node19&#45;&gt;Node18</title>
<g id="a_edge24_Node000018_Node000019"><a xlink:title=" ">
<path fill="none" stroke="#9a32cd" stroke-dasharray="5,2" d="M521.85,-261.68C563.8,-260.35 618.14,-260.46 666,-266.38 680.79,-268.2 696.82,-271.86 710.47,-275.51"/>
<polygon fill="#9a32cd" stroke="#9a32cd" points="521.75,-258.18 511.88,-262.04 522,-265.18 521.75,-258.18"/>
</a>
</g>
<text text-anchor="middle" x="602.62" y="-267.38" font-family="Helvetica,sans-Serif" font-size="10.00" fill="grey"> mAnmCRegKeyTable</text>
</g>
<!-- Node20&#45;&gt;Node18 -->
<g id="edge26_Node000018_Node000020" class="edge">
<title>Node20&#45;&gt;Node18</title>
<g id="a_edge26_Node000018_Node000020"><a xlink:title=" ">
<path fill="none" stroke="#9a32cd" stroke-dasharray="5,2" d="M521.8,-349.3C564.3,-347.44 619.24,-342.01 666,-327.62 689.64,-320.35 714.34,-305.61 729.43,-295.68"/>
<polygon fill="#9a32cd" stroke="#9a32cd" points="521.81,-345.8 511.95,-349.67 522.08,-352.8 521.81,-345.8"/>
</a>
</g>
<text text-anchor="middle" x="602.62" y="-349.38" font-family="Helvetica,sans-Serif" font-size="10.00" fill="grey"> mAnmKRegKeyTable</text>
</g>
<!-- Node21&#45;&gt;Node2 -->
<g id="edge28_Node000002_Node000021" class="edge">
<title>Node21&#45;&gt;Node2</title>
<g id="a_edge28_Node000002_Node000021"><a xlink:title=" ">
<path fill="none" stroke="#9a32cd" stroke-dasharray="5,2" d="M1030.54,-276.14C1056.15,-271.94 1086.33,-266.79 1113.5,-261.62 1119.24,-260.53 1125.28,-259.32 1131.23,-258.09"/>
<polygon fill="#9a32cd" stroke="#9a32cd" points="1030.29,-272.63 1020.98,-277.69 1031.41,-279.54 1030.29,-272.63"/>
</a>
</g>
<text text-anchor="middle" x="1075.25" y="-276.38" font-family="Helvetica,sans-Serif" font-size="10.00" fill="grey"> mTevKColorAnm</text>
</g>
</g>
</svg>

<g id="navigator" transform="translate(0 0)" fill="#404254">
  <rect fill="#f2f5e9" fill-opacity="0.5" stroke="#606060" stroke-width=".5" x="0" y="0" width="60" height="60"/>
  <use id="zoomplus" xlink:href="#zoomPlus" x="17" y="9" onmousedown="handleZoom(evt,'in')"/>
  <use id="zoomminus" xlink:href="#zoomMin" x="42" y="9" onmousedown="handleZoom(evt,'out')"/>
  <use id="reset" xlink:href="#resetDef" x="30" y="36" onmousedown="handleReset()"/>
   <use id="arrowup" xlink:href="#arrowUp" x="0" y="0" onmousedown="handlePan(0,-1)"/>
  <use id="arrowright" xlink:href="#arrowRight" x="0" y="0" onmousedown="handlePan(1,0)"/>
  <use id="arrowdown" xlink:href="#arrowDown" x="0" y="0" onmousedown="handlePan(0,1)"/>
  <use id="arrowleft" xlink:href="#arrowLeft" x="0" y="0" onmousedown="handlePan(-1,0)"/>
</g>
<svg viewBox="0 0 15 15" width="100%" height="30px" preserveAspectRatio="xMaxYMin meet">
 <g id="arrow_out" transform="scale(0.3 0.3)">
  <a xlink:href="classdaAlink__matAnm__c__coll__graph_org.svg" target="_base">
   <rect id="button" ry="5" rx="5" y="6" x="6" height="38" width="38"
        fill="#f2f5e9" fill-opacity="0.5" stroke="#606060" stroke-width="1.0"/>
   <path id="arrow"
     d="M 11.500037,31.436501 C 11.940474,20.09759 22.043105,11.32322 32.158766,21.979434 L 37.068811,17.246167 C 37.068811,17.246167 37.088388,32 37.088388,32 L 22.160133,31.978069 C 22.160133,31.978069 26.997745,27.140456 26.997745,27.140456 C 18.528582,18.264221 13.291696,25.230495 11.500037,31.436501 z"
     style="fill:#404040;"/>
  </a>
 </g>
</svg>

<style type='text/css'>
<![CDATA[
[data-mouse-over-selected='false'] { opacity: 0.7; }
[data-mouse-over-selected='true']  { opacity: 1.0; }
]]>
</style>
<script type="application/ecmascript"><![CDATA[
document.addEventListener('DOMContentLoaded', (event) => {
  highlightEdges();
  highlightAdjacentNodes();
});
]]></script>
</svg>
