<?xml version="1.0" encoding="UTF-8" standalone="no"?>
<!DOCTYPE svg PUBLIC "-//W3C//DTD SVG 1.1//EN"
 "http://www.w3.org/Graphics/SVG/1.1/DTD/svg11.dtd">
<!-- Generated by graphviz version 9.0.0 (20230911.1827)
 -->
<!-- Title: dMenu_Fmap_region_data_c Pages: 1 -->
<svg width="1403pt" height="257pt"
 viewBox="0.00 0.00 1403.00 256.50" xmlns="http://www.w3.org/2000/svg" xmlns:xlink="http://www.w3.org/1999/xlink">
<g id="graph0" class="graph" transform="scale(1 1) rotate(0) translate(4 252.5)">
<title>dMenu_Fmap_region_data_c</title>
<!-- Node1 -->
<g id="Node000001" class="node">
<title>Node1</title>
<g id="a_Node000001"><a xlink:title=" ">
<polygon fill="#999999" stroke="#666666" points="1395,-19.25 1253.75,-19.25 1253.75,0 1395,0 1395,-19.25"/>
<text text-anchor="middle" x="1324.38" y="-5.75" font-family="Helvetica,sans-Serif" font-size="10.00">dMenu_Fmap_region_data_c</text>
</a>
</g>
</g>
<!-- Node1&#45;&gt;Node1 -->
<g id="edge24_Node000001_Node000001" class="edge">
<title>Node1&#45;&gt;Node1</title>
<g id="a_edge24_Node000001_Node000001"><a xlink:title=" ">
<path fill="none" stroke="#9a32cd" stroke-dasharray="5,2" d="M1294.83,-30.32C1298.24,-34.37 1308.09,-37.25 1324.38,-37.25 1353.33,-37.25 1361.93,-28.15 1350.17,-19.54"/>
<polygon fill="#9a32cd" stroke="#9a32cd" points="1298.11,-31.56 1298.09,-20.97 1291.49,-29.26 1298.11,-31.56"/>
</a>
</g>
<text text-anchor="middle" x="1324.38" y="-39" font-family="Helvetica,sans-Serif" font-size="10.00" fill="grey"> mpNextData</text>
</g>
<!-- Node2 -->
<g id="Node000002" class="node">
<title>Node2</title>
<g id="a_Node000002"><a xlink:href="classdMenu__Fmap__stage__data__c.html" target="_top" xlink:title=" ">
<polygon fill="white" stroke="#666666" points="1065.5,-47.25 926.5,-47.25 926.5,-28 1065.5,-28 1065.5,-47.25"/>
<text text-anchor="middle" x="996" y="-33.75" font-family="Helvetica,sans-Serif" font-size="10.00">dMenu_Fmap_stage_data_c</text>
</a>
</g>
</g>
<!-- Node2&#45;&gt;Node1 -->
<g id="edge1_Node000001_Node000002" class="edge">
<title>Node2&#45;&gt;Node1</title>
<g id="a_edge1_Node000001_Node000002"><a xlink:title=" ">
<path fill="none" stroke="#9a32cd" stroke-dasharray="5,2" d="M1032.51,-23.77C1047.93,-18.46 1066.35,-13.04 1083.5,-10.38 1140.19,-1.57 1205.32,-2.02 1253.4,-4.32"/>
<polygon fill="#9a32cd" stroke="#9a32cd" points="1031.54,-20.41 1023.3,-27.07 1033.9,-27 1031.54,-20.41"/>
</a>
</g>
<text text-anchor="middle" x="1159.62" y="-12.38" font-family="Helvetica,sans-Serif" font-size="10.00" fill="grey"> mpMenuFmapStageDataTop</text>
</g>
<!-- Node2&#45;&gt;Node2 -->
<g id="edge23_Node000002_Node000002" class="edge">
<title>Node2&#45;&gt;Node2</title>
<g id="a_edge23_Node000002_Node000002"><a xlink:title=" ">
<path fill="none" stroke="#9a32cd" stroke-dasharray="5,2" d="M973.08,-58.65C975.95,-62.53 983.59,-65.25 996,-65.25 1018.7,-65.25 1025.44,-56.15 1016.22,-47.54"/>
<polygon fill="#9a32cd" stroke="#9a32cd" points="976.46,-59.55 975.43,-49.01 969.66,-57.9 976.46,-59.55"/>
</a>
</g>
<text text-anchor="middle" x="996" y="-67" font-family="Helvetica,sans-Serif" font-size="10.00" fill="grey"> mpNextData</text>
</g>
<!-- Node4 -->
<g id="Node000004" class="node">
<title>Node4</title>
<g id="a_Node000004"><a xlink:href="classdMenu__Fmap__room__data__c.html" target="_top" xlink:title=" ">
<polygon fill="white" stroke="#666666" points="1392.75,-104.25 1256,-104.25 1256,-85 1392.75,-85 1392.75,-104.25"/>
<text text-anchor="middle" x="1324.38" y="-90.75" font-family="Helvetica,sans-Serif" font-size="10.00">dMenu_Fmap_room_data_c</text>
</a>
</g>
</g>
<!-- Node2&#45;&gt;Node4 -->
<g id="edge22_Node000004_Node000002" class="edge">
<title>Node2&#45;&gt;Node4</title>
<g id="a_edge22_Node000004_Node000002"><a xlink:title=" ">
<path fill="none" stroke="#9a32cd" stroke-dasharray="5,2" d="M1072.57,-26.45C1120.8,-22.35 1183.78,-22.73 1235.75,-42.38 1245.56,-46.08 1245.07,-51.74 1253.75,-57.62 1269.05,-67.99 1287.57,-77.72 1301.67,-84.59"/>
<polygon fill="#9a32cd" stroke="#9a32cd" points="1072.41,-22.95 1062.78,-27.37 1073.06,-29.92 1072.41,-22.95"/>
</a>
</g>
<text text-anchor="middle" x="1159.62" y="-44.38" font-family="Helvetica,sans-Serif" font-size="10.00" fill="grey"> mp_parentStage</text>
</g>
<!-- Node3 -->
<g id="Node000003" class="node">
<title>Node3</title>
<g id="a_Node000003"><a xlink:href="classdMenu__Fmap__stage__arc__data__c.html" target="_top" xlink:title=" ">
<polygon fill="white" stroke="#666666" points="795.62,-46.88 672.38,-46.88 672.38,-16.38 795.62,-16.38 795.62,-46.88"/>
<text text-anchor="start" x="680.38" y="-33.38" font-family="Helvetica,sans-Serif" font-size="10.00">dMenu_Fmap_stage_arc</text>
<text text-anchor="middle" x="734" y="-22.12" font-family="Helvetica,sans-Serif" font-size="10.00">_data_c</text>
</a>
</g>
</g>
<!-- Node3&#45;&gt;Node2 -->
<g id="edge2_Node000002_Node000003" class="edge">
<title>Node3&#45;&gt;Node2</title>
<g id="a_edge2_Node000002_Node000003"><a xlink:title=" ">
<path fill="none" stroke="#9a32cd" stroke-dasharray="5,2" d="M807.22,-33.29C844.4,-34.15 889.49,-35.19 926.17,-36.04"/>
<polygon fill="#9a32cd" stroke="#9a32cd" points="807.55,-29.8 797.47,-33.07 807.39,-36.8 807.55,-29.8"/>
</a>
</g>
<text text-anchor="middle" x="866.88" y="-37.38" font-family="Helvetica,sans-Serif" font-size="10.00" fill="grey"> mpStageArc</text>
</g>
<!-- Node4&#45;&gt;Node2 -->
<g id="edge3_Node000002_Node000004" class="edge">
<title>Node4&#45;&gt;Node2</title>
<g id="a_edge3_Node000002_Node000004"><a xlink:title=" ">
<path fill="none" stroke="#9a32cd" stroke-dasharray="5,2" d="M1244.97,-82.77C1198.04,-75.45 1137.25,-65.58 1083.5,-55.62 1070.53,-53.22 1056.51,-50.4 1043.61,-47.72"/>
<polygon fill="#9a32cd" stroke="#9a32cd" points="1244.37,-86.22 1254.79,-84.29 1245.45,-79.3 1244.37,-86.22"/>
</a>
</g>
<text text-anchor="middle" x="1159.62" y="-82.38" font-family="Helvetica,sans-Serif" font-size="10.00" fill="grey"> mp_roomTop</text>
</g>
<!-- Node4&#45;&gt;Node4 -->
<g id="edge21_Node000004_Node000004" class="edge">
<title>Node4&#45;&gt;Node4</title>
<g id="a_edge21_Node000004_Node000004"><a xlink:title=" ">
<path fill="none" stroke="#9a32cd" stroke-dasharray="5,2" d="M1294.83,-115.32C1298.24,-119.37 1308.09,-122.25 1324.38,-122.25 1353.33,-122.25 1361.93,-113.15 1350.17,-104.54"/>
<polygon fill="#9a32cd" stroke="#9a32cd" points="1298.11,-116.56 1298.09,-105.97 1291.49,-114.26 1298.11,-116.56"/>
</a>
</g>
<text text-anchor="middle" x="1324.38" y="-124" font-family="Helvetica,sans-Serif" font-size="10.00" fill="grey"> mp_nextData</text>
</g>
<!-- Node5 -->
<g id="Node000005" class="node">
<title>Node5</title>
<g id="a_Node000005"><a xlink:href="classdMenu__Fmap__data__c.html" target="_top" xlink:title=" ">
<polygon fill="white" stroke="#666666" points="1050.88,-121.25 941.12,-121.25 941.12,-102 1050.88,-102 1050.88,-121.25"/>
<text text-anchor="middle" x="996" y="-107.75" font-family="Helvetica,sans-Serif" font-size="10.00">dMenu_Fmap_data_c</text>
</a>
</g>
</g>
<!-- Node5&#45;&gt;Node4 -->
<g id="edge4_Node000004_Node000005" class="edge">
<title>Node5&#45;&gt;Node4</title>
<g id="a_edge4_Node000004_Node000005"><a xlink:title=" ">
<path fill="none" stroke="#9a32cd" stroke-dasharray="5,2" d="M1062.49,-108.21C1118.55,-105.29 1198.98,-101.1 1255.67,-98.15"/>
<polygon fill="#9a32cd" stroke="#9a32cd" points="1062.58,-104.7 1052.77,-108.72 1062.94,-111.69 1062.58,-104.7"/>
</a>
</g>
<text text-anchor="middle" x="1159.62" y="-108.38" font-family="Helvetica,sans-Serif" font-size="10.00" fill="grey"> mp_fmapData</text>
</g>
<!-- Node6 -->
<g id="Node000006" class="node">
<title>Node6</title>
<g id="a_Node000006"><a xlink:href="structdTres__c_1_1list__class.html" target="_top" xlink:title=" ">
<polygon fill="white" stroke="#666666" points="782.5,-158.25 685.5,-158.25 685.5,-139 782.5,-139 782.5,-158.25"/>
<text text-anchor="middle" x="734" y="-144.75" font-family="Helvetica,sans-Serif" font-size="10.00">dTres_c::list_class</text>
</a>
</g>
</g>
<!-- Node6&#45;&gt;Node5 -->
<g id="edge5_Node000005_Node000006" class="edge">
<title>Node6&#45;&gt;Node5</title>
<g id="a_edge5_Node000005_Node000006"><a xlink:title=" ">
<path fill="none" stroke="#9a32cd" stroke-dasharray="5,2" d="M793.9,-140.65C827.5,-136.06 870.37,-130.13 908.5,-124.62 919.02,-123.11 930.26,-121.45 941.03,-119.84"/>
<polygon fill="#9a32cd" stroke="#9a32cd" points="793.82,-137.13 784.39,-141.95 794.77,-144.07 793.82,-137.13"/>
</a>
</g>
<text text-anchor="middle" x="866.88" y="-137.38" font-family="Helvetica,sans-Serif" font-size="10.00" fill="grey"> mp_tresure</text>
</g>
<!-- Node7 -->
<g id="Node000007" class="node">
<title>Node7</title>
<g id="a_Node000007"><a xlink:href="structdTres__c_1_1typeGroupData__c.html" target="_top" xlink:title=" ">
<polygon fill="white" stroke="#666666" points="520.5,-152.25 389.75,-152.25 389.75,-133 520.5,-133 520.5,-152.25"/>
<text text-anchor="middle" x="455.12" y="-138.75" font-family="Helvetica,sans-Serif" font-size="10.00">dTres_c::typeGroupData_c</text>
</a>
</g>
</g>
<!-- Node7&#45;&gt;Node6 -->
<g id="edge6_Node000006_Node000007" class="edge">
<title>Node7&#45;&gt;Node6</title>
<g id="a_edge6_Node000006_Node000007"><a xlink:title=" ">
<path fill="none" stroke="#9a32cd" stroke-dasharray="5,2" d="M532.19,-144.27C581.1,-145.33 643.16,-146.68 685.25,-147.59"/>
<polygon fill="#9a32cd" stroke="#9a32cd" points="532.28,-140.77 522.2,-144.06 532.13,-147.77 532.28,-140.77"/>
</a>
</g>
<text text-anchor="middle" x="590.62" y="-147.38" font-family="Helvetica,sans-Serif" font-size="10.00" fill="grey"> field_0x4</text>
</g>
<!-- Node7&#45;&gt;Node7 -->
<g id="edge9_Node000007_Node000007" class="edge">
<title>Node7&#45;&gt;Node7</title>
<g id="a_edge9_Node000007_Node000007"><a xlink:title=" ">
<path fill="none" stroke="#9a32cd" stroke-dasharray="5,2" d="M435.4,-163.65C437.87,-167.53 444.44,-170.25 455.12,-170.25 474.66,-170.25 480.46,-161.15 472.52,-152.54"/>
<polygon fill="#9a32cd" stroke="#9a32cd" points="438.79,-164.52 437.42,-154.02 431.94,-163.09 438.79,-164.52"/>
</a>
</g>
<text text-anchor="middle" x="455.12" y="-172" font-family="Helvetica,sans-Serif" font-size="10.00" fill="grey"> mNextData</text>
</g>
<!-- Node8 -->
<g id="Node000008" class="node">
<title>Node8</title>
<g id="a_Node000008"><a xlink:href="structdTres__c_1_1data__s.html" target="_top" xlink:title=" ">
<polygon fill="white" stroke="#666666" points="289.25,-168.25 204.25,-168.25 204.25,-149 289.25,-149 289.25,-168.25"/>
<text text-anchor="middle" x="246.75" y="-154.75" font-family="Helvetica,sans-Serif" font-size="10.00">dTres_c::data_s</text>
</a>
</g>
</g>
<!-- Node8&#45;&gt;Node7 -->
<g id="edge7_Node000007_Node000008" class="edge">
<title>Node8&#45;&gt;Node7</title>
<g id="a_edge7_Node000007_Node000008"><a xlink:title=" ">
<path fill="none" stroke="#63b8ff" d="M300.68,-154.52C327.67,-152.43 360.74,-149.87 389.26,-147.65"/>
<polygon fill="#63b8ff" stroke="#63b8ff" points="300.72,-151.01 291.02,-155.27 301.26,-157.99 300.72,-151.01"/>
</a>
</g>
</g>
<!-- Node18 -->
<g id="Node000018" class="node">
<title>Node18</title>
<g id="a_Node000018"><a xlink:href="classfmpTresTypeGroupData__c.html" target="_top" xlink:title=" ">
<polygon fill="white" stroke="#666666" points="520.12,-219.25 390.12,-219.25 390.12,-200 520.12,-200 520.12,-219.25"/>
<text text-anchor="middle" x="455.12" y="-205.75" font-family="Helvetica,sans-Serif" font-size="10.00">fmpTresTypeGroupData_c</text>
</a>
</g>
</g>
<!-- Node8&#45;&gt;Node18 -->
<g id="edge19_Node000018_Node000008" class="edge">
<title>Node8&#45;&gt;Node18</title>
<g id="a_edge19_Node000018_Node000008"><a xlink:title=" ">
<path fill="none" stroke="#9a32cd" stroke-dasharray="5,2" d="M299.56,-171.43C334.82,-180.14 380.81,-191.51 413.44,-199.57"/>
<polygon fill="#9a32cd" stroke="#9a32cd" points="300.54,-168.07 289.99,-169.06 298.86,-174.86 300.54,-168.07"/>
</a>
</g>
<text text-anchor="middle" x="344" y="-190.38" font-family="Helvetica,sans-Serif" font-size="10.00" fill="grey"> mpTresData</text>
</g>
<!-- Node9 -->
<g id="Node000009" class="node">
<title>Node9</title>
<g id="a_Node000009"><a xlink:href="structVec.html" target="_top" xlink:title=" ">
<polygon fill="white" stroke="#666666" points="79,-168.25 45.75,-168.25 45.75,-149 79,-149 79,-168.25"/>
<text text-anchor="middle" x="62.38" y="-154.75" font-family="Helvetica,sans-Serif" font-size="10.00">Vec</text>
</a>
</g>
</g>
<!-- Node9&#45;&gt;Node8 -->
<g id="edge8_Node000008_Node000009" class="edge">
<title>Node9&#45;&gt;Node8</title>
<g id="a_edge8_Node000008_Node000009"><a xlink:title=" ">
<path fill="none" stroke="#9a32cd" stroke-dasharray="5,2" d="M90.49,-158.62C120.48,-158.62 169.16,-158.62 204.02,-158.62"/>
<polygon fill="#9a32cd" stroke="#9a32cd" points="90.75,-155.13 80.75,-158.63 90.75,-162.13 90.75,-155.13"/>
</a>
</g>
<text text-anchor="middle" x="160" y="-160.38" font-family="Helvetica,sans-Serif" font-size="10.00" fill="grey"> mPos</text>
</g>
<!-- Node10 -->
<g id="Node000010" class="node">
<title>Node10</title>
<g id="a_Node000010"><a xlink:href="classdStage__FileList2__dt__c.html" target="_top" xlink:title=" ">
<polygon fill="white" stroke="#666666" points="790.75,-121.25 677.25,-121.25 677.25,-102 790.75,-102 790.75,-121.25"/>
<text text-anchor="middle" x="734" y="-107.75" font-family="Helvetica,sans-Serif" font-size="10.00">dStage_FileList2_dt_c</text>
</a>
</g>
</g>
<!-- Node10&#45;&gt;Node5 -->
<g id="edge10_Node000005_Node000010" class="edge">
<title>Node10&#45;&gt;Node5</title>
<g id="a_edge10_Node000005_Node000010"><a xlink:title=" ">
<path fill="none" stroke="#9a32cd" stroke-dasharray="5,2" d="M802.33,-111.62C845.41,-111.62 900.54,-111.62 940.79,-111.62"/>
<polygon fill="#9a32cd" stroke="#9a32cd" points="802.61,-108.13 792.61,-111.63 802.61,-115.13 802.61,-108.13"/>
</a>
</g>
<text text-anchor="middle" x="866.88" y="-113.38" font-family="Helvetica,sans-Serif" font-size="10.00" fill="grey"> m_fileList2</text>
</g>
<!-- Node11 -->
<g id="Node000011" class="node">
<title>Node11</title>
<g id="a_Node000011"><a xlink:href="structdDrawPath__c_1_1room__class.html" target="_top" xlink:title=" ">
<polygon fill="white" stroke="#666666" points="798.62,-84.25 669.38,-84.25 669.38,-65 798.62,-65 798.62,-84.25"/>
<text text-anchor="middle" x="734" y="-70.75" font-family="Helvetica,sans-Serif" font-size="10.00">dDrawPath_c::room_class</text>
</a>
</g>
</g>
<!-- Node11&#45;&gt;Node5 -->
<g id="edge11_Node000005_Node000011" class="edge">
<title>Node11&#45;&gt;Node5</title>
<g id="a_edge11_Node000005_Node000011"><a xlink:title=" ">
<path fill="none" stroke="#9a32cd" stroke-dasharray="5,2" d="M810.39,-83.25C840.9,-86.95 876.43,-91.54 908.5,-96.38 919.06,-97.97 930.31,-99.83 941.08,-101.69"/>
<polygon fill="#9a32cd" stroke="#9a32cd" points="810.81,-79.77 800.47,-82.05 809.98,-86.72 810.81,-79.77"/>
</a>
</g>
<text text-anchor="middle" x="866.88" y="-97.38" font-family="Helvetica,sans-Serif" font-size="10.00" fill="grey"> mp_mapPath</text>
</g>
<!-- Node12 -->
<g id="Node000012" class="node">
<title>Node12</title>
<g id="a_Node000012"><a xlink:href="structdDrawPath__c_1_1floor__class.html" target="_top" xlink:title=" ">
<polygon fill="white" stroke="#666666" points="503.62,-89.88 406.62,-89.88 406.62,-59.38 503.62,-59.38 503.62,-89.88"/>
<text text-anchor="start" x="414.62" y="-76.38" font-family="Helvetica,sans-Serif" font-size="10.00">dDrawPath_c::floor</text>
<text text-anchor="middle" x="455.12" y="-65.12" font-family="Helvetica,sans-Serif" font-size="10.00">_class</text>
</a>
</g>
</g>
<!-- Node12&#45;&gt;Node11 -->
<g id="edge12_Node000011_Node000012" class="edge">
<title>Node12&#45;&gt;Node11</title>
<g id="a_edge12_Node000011_Node000012"><a xlink:title=" ">
<path fill="none" stroke="#9a32cd" stroke-dasharray="5,2" d="M515.43,-74.62C560.64,-74.62 622.78,-74.62 669.08,-74.62"/>
<polygon fill="#9a32cd" stroke="#9a32cd" points="515.55,-71.13 505.55,-74.63 515.55,-78.13 515.55,-71.13"/>
</a>
</g>
<text text-anchor="middle" x="590.62" y="-76.38" font-family="Helvetica,sans-Serif" font-size="10.00" fill="grey"> mpFloor</text>
</g>
<!-- Node13 -->
<g id="Node000013" class="node">
<title>Node13</title>
<g id="a_Node000013"><a xlink:href="structdDrawPath__c_1_1group__class.html" target="_top" xlink:title=" ">
<polygon fill="white" stroke="#666666" points="298.25,-89.88 195.25,-89.88 195.25,-59.38 298.25,-59.38 298.25,-89.88"/>
<text text-anchor="start" x="203.25" y="-76.38" font-family="Helvetica,sans-Serif" font-size="10.00">dDrawPath_c::group</text>
<text text-anchor="middle" x="246.75" y="-65.12" font-family="Helvetica,sans-Serif" font-size="10.00">_class</text>
</a>
</g>
</g>
<!-- Node13&#45;&gt;Node12 -->
<g id="edge13_Node000012_Node000013" class="edge">
<title>Node13&#45;&gt;Node12</title>
<g id="a_edge13_Node000012_Node000013"><a xlink:title=" ">
<path fill="none" stroke="#9a32cd" stroke-dasharray="5,2" d="M309.63,-74.62C340.65,-74.62 377.62,-74.62 406.41,-74.62"/>
<polygon fill="#9a32cd" stroke="#9a32cd" points="310.01,-71.13 300.01,-74.63 310.01,-78.13 310.01,-71.13"/>
</a>
</g>
<text text-anchor="middle" x="344" y="-76.38" font-family="Helvetica,sans-Serif" font-size="10.00" fill="grey"> mpGroup</text>
</g>
<!-- Node14 -->
<g id="Node000014" class="node">
<title>Node14</title>
<g id="a_Node000014"><a xlink:href="structdDrawPath__c_1_1line__class.html" target="_top" xlink:title=" ">
<polygon fill="white" stroke="#666666" points="123.62,-113.25 1.12,-113.25 1.12,-94 123.62,-94 123.62,-113.25"/>
<text text-anchor="middle" x="62.38" y="-99.75" font-family="Helvetica,sans-Serif" font-size="10.00">dDrawPath_c::line_class</text>
</a>
</g>
</g>
<!-- Node14&#45;&gt;Node13 -->
<g id="edge14_Node000013_Node000014" class="edge">
<title>Node14&#45;&gt;Node13</title>
<g id="a_edge14_Node000013_Node000014"><a xlink:title=" ">
<path fill="none" stroke="#9a32cd" stroke-dasharray="5,2" d="M135.35,-92.18C155.31,-89.01 176.55,-85.63 195.02,-82.69"/>
<polygon fill="#9a32cd" stroke="#9a32cd" points="134.92,-88.7 125.6,-93.73 136.02,-95.62 134.92,-88.7"/>
</a>
</g>
<text text-anchor="middle" x="160" y="-92.38" font-family="Helvetica,sans-Serif" font-size="10.00" fill="grey"> mpLine</text>
</g>
<!-- Node15 -->
<g id="Node000015" class="node">
<title>Node15</title>
<g id="a_Node000015"><a xlink:href="structdDrawPath__c_1_1poly__class.html" target="_top" xlink:title=" ">
<polygon fill="white" stroke="#666666" points="124.75,-76.25 0,-76.25 0,-57 124.75,-57 124.75,-76.25"/>
<text text-anchor="middle" x="62.38" y="-62.75" font-family="Helvetica,sans-Serif" font-size="10.00">dDrawPath_c::poly_class</text>
</a>
</g>
</g>
<!-- Node15&#45;&gt;Node13 -->
<g id="edge15_Node000013_Node000015" class="edge">
<title>Node15&#45;&gt;Node13</title>
<g id="a_edge15_Node000013_Node000015"><a xlink:title=" ">
<path fill="none" stroke="#9a32cd" stroke-dasharray="5,2" d="M136.41,-68.72C149.99,-69.19 164.05,-69.75 177.25,-70.38 182.96,-70.65 188.94,-70.97 194.89,-71.3"/>
<polygon fill="#9a32cd" stroke="#9a32cd" points="136.77,-65.23 126.66,-68.38 136.54,-72.22 136.77,-65.23"/>
</a>
</g>
<text text-anchor="middle" x="160" y="-72.38" font-family="Helvetica,sans-Serif" font-size="10.00" fill="grey"> mpPoly</text>
</g>
<!-- Node16 -->
<g id="Node000016" class="node">
<title>Node16</title>
<g id="a_Node000016"><a xlink:href="classfmpTresTypeGroupDataListAll__c.html" target="_top" xlink:title=" ">
<polygon fill="white" stroke="#666666" points="1064,-181.88 928,-181.88 928,-151.38 1064,-151.38 1064,-181.88"/>
<text text-anchor="start" x="936" y="-168.38" font-family="Helvetica,sans-Serif" font-size="10.00">fmpTresTypeGroupDataList</text>
<text text-anchor="middle" x="996" y="-157.12" font-family="Helvetica,sans-Serif" font-size="10.00">All_c</text>
</a>
</g>
</g>
<!-- Node16&#45;&gt;Node4 -->
<g id="edge16_Node000004_Node000016" class="edge">
<title>Node16&#45;&gt;Node4</title>
<g id="a_edge16_Node000004_Node000016"><a xlink:title=" ">
<path fill="none" stroke="#9a32cd" stroke-dasharray="5,2" d="M1075.61,-154.1C1122.41,-146.08 1182.79,-134.73 1235.75,-121.62 1255.22,-116.81 1276.75,-110.19 1293.6,-104.71"/>
<polygon fill="#9a32cd" stroke="#9a32cd" points="1075.09,-150.64 1065.82,-155.76 1076.27,-157.54 1075.09,-150.64"/>
</a>
</g>
<text text-anchor="middle" x="1159.62" y="-153.38" font-family="Helvetica,sans-Serif" font-size="10.00" fill="grey"> mp_fmpTresTypeGroupDataListAll</text>
</g>
<!-- Node17 -->
<g id="Node000017" class="node">
<title>Node17</title>
<g id="a_Node000017"><a xlink:href="classfmpTresTypeGroupDataList__c.html" target="_top" xlink:title=" ">
<polygon fill="white" stroke="#666666" points="807.25,-209.25 660.75,-209.25 660.75,-190 807.25,-190 807.25,-209.25"/>
<text text-anchor="middle" x="734" y="-195.75" font-family="Helvetica,sans-Serif" font-size="10.00">fmpTresTypeGroupDataList_c</text>
</a>
</g>
</g>
<!-- Node17&#45;&gt;Node16 -->
<g id="edge17_Node000016_Node000017" class="edge">
<title>Node17&#45;&gt;Node16</title>
<g id="a_edge17_Node000016_Node000017"><a xlink:title=" ">
<path fill="none" stroke="#9a32cd" stroke-dasharray="5,2" d="M818.69,-189C854,-184.52 894.56,-179.37 927.87,-175.15"/>
<polygon fill="#9a32cd" stroke="#9a32cd" points="818.41,-185.51 808.93,-190.24 819.29,-192.46 818.41,-185.51"/>
</a>
</g>
<text text-anchor="middle" x="866.88" y="-189.38" font-family="Helvetica,sans-Serif" font-size="10.00" fill="grey"> mpTypeGroupData</text>
</g>
<!-- Node18&#45;&gt;Node17 -->
<g id="edge18_Node000017_Node000018" class="edge">
<title>Node18&#45;&gt;Node17</title>
<g id="a_edge18_Node000017_Node000018"><a xlink:title=" ">
<path fill="none" stroke="#9a32cd" stroke-dasharray="5,2" d="M531.66,-206.9C571.73,-205.45 620.72,-203.68 660.34,-202.25"/>
<polygon fill="#9a32cd" stroke="#9a32cd" points="531.72,-203.39 521.85,-207.25 531.97,-210.39 531.72,-203.39"/>
</a>
</g>
<text text-anchor="middle" x="590.62" y="-218.62" font-family="Helvetica,sans-Serif" font-size="10.00" fill="grey"> mpNextData</text>
<text text-anchor="middle" x="590.62" y="-207.38" font-family="Helvetica,sans-Serif" font-size="10.00" fill="grey">mpTypeGroupDataHead</text>
</g>
<!-- Node18&#45;&gt;Node18 -->
<g id="edge20_Node000018_Node000018" class="edge">
<title>Node18&#45;&gt;Node18</title>
<g id="a_edge20_Node000018_Node000018"><a xlink:title=" ">
<path fill="none" stroke="#9a32cd" stroke-dasharray="5,2" d="M435.4,-230.65C437.87,-234.53 444.44,-237.25 455.12,-237.25 474.66,-237.25 480.46,-228.15 472.52,-219.54"/>
<polygon fill="#9a32cd" stroke="#9a32cd" points="438.79,-231.52 437.42,-221.02 431.94,-230.09 438.79,-231.52"/>
</a>
</g>
<text text-anchor="middle" x="455.12" y="-239" font-family="Helvetica,sans-Serif" font-size="10.00" fill="grey"> mpNext</text>
</g>
</g>
</svg>
