<?xml version="1.0" encoding="UTF-8" standalone="no"?>
<!DOCTYPE svg PUBLIC "-//W3C//DTD SVG 1.1//EN"
 "http://www.w3.org/Graphics/SVG/1.1/DTD/svg11.dtd">
<!-- Generated by graphviz version 9.0.0 (20230911.1827)
 -->
<!-- Title: JASWaveBank Pages: 1 -->
<svg width="244pt" height="83pt"
 viewBox="0.00 0.00 244.38 82.50" xmlns="http://www.w3.org/2000/svg" xmlns:xlink="http://www.w3.org/1999/xlink">
<g id="graph0" class="graph" transform="scale(1 1) rotate(0) translate(4 78.5)">
<title>JASWaveBank</title>
<!-- Node1 -->
<g id="Node000001" class="node">
<title>Node1</title>
<g id="a_Node000001"><a xlink:title=" ">
<polygon fill="#999999" stroke="#666666" points="157.38,-74.5 75.38,-74.5 75.38,-55.25 157.38,-55.25 157.38,-74.5"/>
<text text-anchor="middle" x="116.38" y="-61" font-family="Helvetica,sans-Serif" font-size="10.00">JASWaveBank</text>
</a>
</g>
</g>
<!-- Node2 -->
<g id="Node000002" class="node">
<title>Node2</title>
<g id="a_Node000002"><a xlink:href="structJASBasicWaveBank.html" target="_top" xlink:title=" ">
<polygon fill="white" stroke="#666666" points="106.75,-19.25 0,-19.25 0,0 106.75,0 106.75,-19.25"/>
<text text-anchor="middle" x="53.38" y="-5.75" font-family="Helvetica,sans-Serif" font-size="10.00">JASBasicWaveBank</text>
</a>
</g>
</g>
<!-- Node1&#45;&gt;Node2 -->
<g id="edge1_Node000001_Node000002" class="edge">
<title>Node1&#45;&gt;Node2</title>
<g id="a_edge1_Node000001_Node000002"><a xlink:title=" ">
<path fill="none" stroke="#63b8ff" d="M97.2,-47.66C86.26,-38.42 72.96,-27.18 63.9,-19.52"/>
<polygon fill="#63b8ff" stroke="#63b8ff" points="94.64,-50.08 104.53,-53.86 99.15,-44.74 94.64,-50.08"/>
</a>
</g>
</g>
<!-- Node3 -->
<g id="Node000003" class="node">
<title>Node3</title>
<g id="a_Node000003"><a xlink:href="structJASSimpleWaveBank.html" target="_top" xlink:title=" ">
<polygon fill="white" stroke="#666666" points="236.38,-19.25 124.38,-19.25 124.38,0 236.38,0 236.38,-19.25"/>
<text text-anchor="middle" x="180.38" y="-5.75" font-family="Helvetica,sans-Serif" font-size="10.00">JASSimpleWaveBank</text>
</a>
</g>
</g>
<!-- Node1&#45;&gt;Node3 -->
<g id="edge2_Node000001_Node000003" class="edge">
<title>Node1&#45;&gt;Node3</title>
<g id="a_edge2_Node000001_Node000003"><a xlink:title=" ">
<path fill="none" stroke="#63b8ff" d="M135.86,-47.66C146.97,-38.42 160.48,-27.18 169.68,-19.52"/>
<polygon fill="#63b8ff" stroke="#63b8ff" points="133.84,-44.79 128.4,-53.87 138.32,-50.17 133.84,-44.79"/>
</a>
</g>
</g>
</g>
</svg>
