<?xml version="1.0" encoding="UTF-8" standalone="no"?>
<!DOCTYPE svg PUBLIC "-//W3C//DTD SVG 1.1//EN"
 "http://www.w3.org/Graphics/SVG/1.1/DTD/svg11.dtd">
<!-- Generated by graphviz version 9.0.0 (20230911.1827)
 -->
<!-- Title: daAlink_hsChainLight_c Pages: 1 -->
<svg width="280pt" height="421pt"
 viewBox="0.00 0.00 280.12 421.25" xmlns="http://www.w3.org/2000/svg" xmlns:xlink="http://www.w3.org/1999/xlink">
<g id="graph0" class="graph" transform="scale(1 1) rotate(0) translate(4 417.25)">
<title>daAlink_hsChainLight_c</title>
<!-- Node1 -->
<g id="Node000001" class="node">
<title>Node1</title>
<g id="a_Node000001"><a xlink:title=" ">
<polygon fill="#999999" stroke="#666666" points="204,-19.25 83,-19.25 83,0 204,0 204,-19.25"/>
<text text-anchor="middle" x="143.5" y="-5.75" font-family="Helvetica,sans-Serif" font-size="10.00">daAlink_hsChainLight_c</text>
</a>
</g>
</g>
<!-- Node2 -->
<g id="Node000002" class="node">
<title>Node2</title>
<g id="a_Node000002"><a xlink:href="structdKy__tevstr__c.html" target="_top" xlink:title=" ">
<polygon fill="white" stroke="#666666" points="180,-75.5 107,-75.5 107,-56.25 180,-56.25 180,-75.5"/>
<text text-anchor="middle" x="143.5" y="-62" font-family="Helvetica,sans-Serif" font-size="10.00">dKy_tevstr_c</text>
</a>
</g>
</g>
<!-- Node2&#45;&gt;Node1 -->
<g id="edge1_Node000001_Node000002" class="edge">
<title>Node2&#45;&gt;Node1</title>
<g id="a_edge1_Node000001_Node000002"><a xlink:title=" ">
<path fill="none" stroke="#63b8ff" d="M143.5,-44.69C143.5,-35.98 143.5,-26.24 143.5,-19.42"/>
<polygon fill="#63b8ff" stroke="#63b8ff" points="140,-44.4 143.5,-54.4 147,-44.4 140,-44.4"/>
</a>
</g>
</g>
<!-- Node3 -->
<g id="Node000003" class="node">
<title>Node3</title>
<g id="a_Node000003"><a xlink:href="classJ3DLightObj.html" target="_top" xlink:title=" ">
<polygon fill="white" stroke="#666666" points="178.5,-166.12 108.5,-166.12 108.5,-146.88 178.5,-146.88 178.5,-166.12"/>
<text text-anchor="middle" x="143.5" y="-152.62" font-family="Helvetica,sans-Serif" font-size="10.00">J3DLightObj</text>
</a>
</g>
</g>
<!-- Node3&#45;&gt;Node2 -->
<g id="edge2_Node000002_Node000003" class="edge">
<title>Node3&#45;&gt;Node2</title>
<g id="a_edge2_Node000002_Node000003"><a xlink:title=" ">
<path fill="none" stroke="#9a32cd" stroke-dasharray="5,2" d="M143.5,-135.34C143.5,-116.68 143.5,-89.8 143.5,-75.92"/>
<polygon fill="#9a32cd" stroke="#9a32cd" points="140,-135.16 143.5,-145.16 147,-135.16 140,-135.16"/>
</a>
</g>
<text text-anchor="middle" x="167.12" y="-112.12" font-family="Helvetica,sans-Serif" font-size="10.00" fill="grey"> mLightObj</text>
<text text-anchor="middle" x="167.12" y="-100.88" font-family="Helvetica,sans-Serif" font-size="10.00" fill="grey">mLights</text>
</g>
<!-- Node4 -->
<g id="Node000004" class="node">
<title>Node4</title>
<g id="a_Node000004"><a xlink:href="classJ3DLightInfo.html" target="_top" xlink:title=" ">
<polygon fill="white" stroke="#666666" points="144.25,-313 72.75,-313 72.75,-293.75 144.25,-293.75 144.25,-313"/>
<text text-anchor="middle" x="108.5" y="-299.5" font-family="Helvetica,sans-Serif" font-size="10.00">J3DLightInfo</text>
</a>
</g>
</g>
<!-- Node4&#45;&gt;Node3 -->
<g id="edge3_Node000003_Node000004" class="edge">
<title>Node4&#45;&gt;Node3</title>
<g id="a_edge3_Node000003_Node000004"><a xlink:title=" ">
<path fill="none" stroke="#9a32cd" stroke-dasharray="5,2" d="M113.35,-282.32C121.04,-250.45 135.76,-189.52 141.31,-166.56"/>
<polygon fill="#9a32cd" stroke="#9a32cd" points="109.99,-281.3 111.04,-291.84 116.8,-282.94 109.99,-281.3"/>
</a>
</g>
<text text-anchor="middle" x="149" y="-226.88" font-family="Helvetica,sans-Serif" font-size="10.00" fill="grey"> mInfo</text>
</g>
<!-- Node5 -->
<g id="Node000005" class="node">
<title>Node5</title>
<g id="a_Node000005"><a xlink:href="structVec.html" target="_top" xlink:title=" ">
<polygon fill="white" stroke="#666666" points="52.12,-413.25 18.88,-413.25 18.88,-394 52.12,-394 52.12,-413.25"/>
<text text-anchor="middle" x="35.5" y="-399.75" font-family="Helvetica,sans-Serif" font-size="10.00">Vec</text>
</a>
</g>
</g>
<!-- Node5&#45;&gt;Node4 -->
<g id="edge4_Node000004_Node000005" class="edge">
<title>Node5&#45;&gt;Node4</title>
<g id="a_edge4_Node000004_Node000005"><a xlink:title=" ">
<path fill="none" stroke="#9a32cd" stroke-dasharray="5,2" d="M34.59,-382.13C34.95,-366.56 37.84,-345.43 49.25,-331 55.55,-323.04 64.74,-317.38 74.01,-313.4"/>
<polygon fill="#9a32cd" stroke="#9a32cd" points="31.09,-382.17 34.72,-392.12 38.09,-382.07 31.09,-382.17"/>
</a>
</g>
<text text-anchor="middle" x="83.62" y="-366.5" font-family="Helvetica,sans-Serif" font-size="10.00" fill="grey"> mCosAtten</text>
<text text-anchor="middle" x="83.62" y="-355.25" font-family="Helvetica,sans-Serif" font-size="10.00" fill="grey">mDistAtten</text>
<text text-anchor="middle" x="83.62" y="-344" font-family="Helvetica,sans-Serif" font-size="10.00" fill="grey">mLightDirection</text>
<text text-anchor="middle" x="83.62" y="-332.75" font-family="Helvetica,sans-Serif" font-size="10.00" fill="grey">mLightPosition</text>
</g>
<!-- Node8 -->
<g id="Node000008" class="node">
<title>Node8</title>
<g id="a_Node000008"><a xlink:href="structcXyz.html" target="_top" xlink:title=" ">
<polygon fill="white" stroke="#666666" points="37,-240.38 0,-240.38 0,-221.12 37,-221.12 37,-240.38"/>
<text text-anchor="middle" x="18.5" y="-226.88" font-family="Helvetica,sans-Serif" font-size="10.00">cXyz</text>
</a>
</g>
</g>
<!-- Node5&#45;&gt;Node8 -->
<g id="edge9_Node000008_Node000005" class="edge">
<title>Node5&#45;&gt;Node8</title>
<g id="a_edge9_Node000008_Node000005"><a xlink:title=" ">
<path fill="none" stroke="#63b8ff" d="M33.21,-382.57C32.96,-380.35 32.72,-378.13 32.5,-376 27.15,-324.95 21.44,-263.66 19.34,-240.87"/>
<polygon fill="#63b8ff" stroke="#63b8ff" points="29.7,-382.7 34.3,-392.25 36.66,-381.92 29.7,-382.7"/>
</a>
</g>
</g>
<!-- Node6 -->
<g id="Node000006" class="node">
<title>Node6</title>
<g id="a_Node000006"><a xlink:href="struct__GXColor.html" target="_top" xlink:title=" ">
<polygon fill="white" stroke="#666666" points="199.5,-413.25 141.5,-413.25 141.5,-394 199.5,-394 199.5,-413.25"/>
<text text-anchor="middle" x="170.5" y="-399.75" font-family="Helvetica,sans-Serif" font-size="10.00">_GXColor</text>
</a>
</g>
</g>
<!-- Node6&#45;&gt;Node4 -->
<g id="edge5_Node000004_Node000006" class="edge">
<title>Node6&#45;&gt;Node4</title>
<g id="a_edge5_Node000004_Node000006"><a xlink:title=" ">
<path fill="none" stroke="#9a32cd" stroke-dasharray="5,2" d="M150.34,-386.09C147.15,-382.94 144.07,-379.52 141.5,-376 140.5,-374.62 121.11,-332.11 112.53,-313.24"/>
<polygon fill="#9a32cd" stroke="#9a32cd" points="147.85,-388.55 157.61,-392.66 152.54,-383.36 147.85,-388.55"/>
</a>
</g>
<text text-anchor="middle" x="158" y="-349.62" font-family="Helvetica,sans-Serif" font-size="10.00" fill="grey"> mColor</text>
</g>
<!-- Node7 -->
<g id="Node000007" class="node">
<title>Node7</title>
<g id="a_Node000007"><a xlink:href="struct__GXLightObj.html" target="_top" xlink:title=" ">
<polygon fill="white" stroke="#666666" points="234.62,-313 162.38,-313 162.38,-293.75 234.62,-293.75 234.62,-313"/>
<text text-anchor="middle" x="198.5" y="-299.5" font-family="Helvetica,sans-Serif" font-size="10.00">_GXLightObj</text>
</a>
</g>
</g>
<!-- Node6&#45;&gt;Node7 -->
<g id="edge7_Node000007_Node000006" class="edge">
<title>Node6&#45;&gt;Node7</title>
<g id="a_edge7_Node000007_Node000006"><a xlink:title=" ">
<path fill="none" stroke="#9a32cd" stroke-dasharray="5,2" d="M176.2,-382.62C182.23,-361.47 191.47,-329.05 195.92,-313.42"/>
<polygon fill="#9a32cd" stroke="#9a32cd" points="172.87,-381.53 173.5,-392.1 179.61,-383.44 172.87,-381.53"/>
</a>
</g>
<text text-anchor="middle" x="201.12" y="-349.62" font-family="Helvetica,sans-Serif" font-size="10.00" fill="grey"> color</text>
</g>
<!-- Node7&#45;&gt;Node3 -->
<g id="edge6_Node000003_Node000007" class="edge">
<title>Node7&#45;&gt;Node3</title>
<g id="a_edge6_Node000003_Node000007"><a xlink:title=" ">
<path fill="none" stroke="#9a32cd" stroke-dasharray="5,2" d="M195.59,-282.28C191.54,-258.27 182.8,-217.39 166.5,-185.75 162.85,-178.67 157.22,-171.71 152.45,-166.48"/>
<polygon fill="#9a32cd" stroke="#9a32cd" points="192.1,-282.6 197.1,-291.94 199.02,-281.52 192.1,-282.6"/>
</a>
</g>
<text text-anchor="middle" x="217.12" y="-226.88" font-family="Helvetica,sans-Serif" font-size="10.00" fill="grey"> mLightObj</text>
</g>
<!-- Node8&#45;&gt;Node2 -->
<g id="edge8_Node000002_Node000008" class="edge">
<title>Node8&#45;&gt;Node2</title>
<g id="a_edge8_Node000002_Node000008"><a xlink:title=" ">
<path fill="none" stroke="#9a32cd" stroke-dasharray="5,2" d="M16.08,-209.62C14.91,-191.5 15.76,-164.78 27.5,-145.25 48.54,-110.26 91.92,-87.44 119.26,-75.89"/>
<polygon fill="#9a32cd" stroke="#9a32cd" points="12.57,-209.71 17,-219.34 19.54,-209.05 12.57,-209.71"/>
</a>
</g>
<text text-anchor="middle" x="63.5" y="-158.25" font-family="Helvetica,sans-Serif" font-size="10.00" fill="grey"> field_0x32c</text>
<text text-anchor="middle" x="63.5" y="-147" font-family="Helvetica,sans-Serif" font-size="10.00" fill="grey">mLightPosWorld</text>
</g>
<!-- Node8&#45;&gt;Node8 -->
<g id="edge10_Node000008_Node000008" class="edge">
<title>Node8&#45;&gt;Node8</title>
<g id="a_edge10_Node000008_Node000008"><a xlink:title=" ">
<path fill="none" stroke="#9a32cd" stroke-dasharray="5,2" d="M39.8,-244.31C48.09,-244.94 55,-240.42 55,-230.75 55,-216.99 41.03,-213.66 28.96,-220.75"/>
<polygon fill="#9a32cd" stroke="#9a32cd" points="40.99,-241.02 30.4,-241.22 38.81,-247.67 40.99,-241.02"/>
</a>
</g>
<text text-anchor="middle" x="76" y="-266.25" font-family="Helvetica,sans-Serif" font-size="10.00" fill="grey"> BaseX</text>
<text text-anchor="middle" x="76" y="-255" font-family="Helvetica,sans-Serif" font-size="10.00" fill="grey">BaseXY</text>
<text text-anchor="middle" x="76" y="-243.75" font-family="Helvetica,sans-Serif" font-size="10.00" fill="grey">BaseXYZ</text>
<text text-anchor="middle" x="76" y="-232.5" font-family="Helvetica,sans-Serif" font-size="10.00" fill="grey">BaseXZ</text>
<text text-anchor="middle" x="76" y="-221.25" font-family="Helvetica,sans-Serif" font-size="10.00" fill="grey">BaseY</text>
<text text-anchor="middle" x="76" y="-210" font-family="Helvetica,sans-Serif" font-size="10.00" fill="grey">BaseYZ</text>
<text text-anchor="middle" x="76" y="-198.75" font-family="Helvetica,sans-Serif" font-size="10.00" fill="grey">BaseZ</text>
<text text-anchor="middle" x="76" y="-187.5" font-family="Helvetica,sans-Serif" font-size="10.00" fill="grey">Zero</text>
</g>
<!-- Node9 -->
<g id="Node000009" class="node">
<title>Node9</title>
<g id="a_Node000009"><a xlink:href="struct__GXColorS10.html" target="_top" xlink:title=" ">
<polygon fill="white" stroke="#666666" points="272.12,-166.12 196.88,-166.12 196.88,-146.88 272.12,-146.88 272.12,-166.12"/>
<text text-anchor="middle" x="234.5" y="-152.62" font-family="Helvetica,sans-Serif" font-size="10.00">_GXColorS10</text>
</a>
</g>
</g>
<!-- Node9&#45;&gt;Node2 -->
<g id="edge11_Node000002_Node000009" class="edge">
<title>Node9&#45;&gt;Node2</title>
<g id="a_edge11_Node000002_Node000009"><a xlink:title=" ">
<path fill="none" stroke="#9a32cd" stroke-dasharray="5,2" d="M225.56,-136.47C218.57,-123.15 207.81,-105.64 194.5,-93.5 186.53,-86.23 176.21,-80.36 166.94,-75.99"/>
<polygon fill="#9a32cd" stroke="#9a32cd" points="222.27,-137.7 229.85,-145.1 228.53,-134.59 222.27,-137.7"/>
</a>
</g>
<text text-anchor="middle" x="243.12" y="-117.75" font-family="Helvetica,sans-Serif" font-size="10.00" fill="grey"> mColorC0</text>
<text text-anchor="middle" x="243.12" y="-106.5" font-family="Helvetica,sans-Serif" font-size="10.00" fill="grey">mColorK0</text>
<text text-anchor="middle" x="243.12" y="-95.25" font-family="Helvetica,sans-Serif" font-size="10.00" fill="grey">mFogColor</text>
</g>
</g>
</svg>
