<?xml version="1.0" encoding="UTF-8" standalone="no"?>
<!DOCTYPE svg PUBLIC "-//W3C//DTD SVG 1.1//EN"
 "http://www.w3.org/Graphics/SVG/1.1/DTD/svg11.dtd">
<!-- Generated by graphviz version 9.0.0 (20230911.1827)
 -->
<!-- Title: JUTDbPrint Pages: 1 -->
<!--zoomable 566 -->

<svg id="main" version="1.1" xmlns="http://www.w3.org/2000/svg" xmlns:xlink="http://www.w3.org/1999/xlink" xml:space="preserve" onload="init(evt)">
<style type="text/css"><![CDATA[
.node, .edge {opacity: 0.7;}
.node.selected, .edge.selected {opacity: 1;}
.edge:hover path { stroke: red; }
.edge:hover polygon { stroke: red; fill: red; }
]]></style>

<defs>
  <circle id="rim" cx="0" cy="0" r="7"/>
  <circle id="rim2" cx="0" cy="0" r="3.5"/>
  <g id="zoomPlus">
    <use xlink:href="#rim" fill="#404040"><set attributeName="fill" to="#808080" begin="zoomplus.mouseover" end="zoomplus.mouseout"/></use>
    <path d="M-4,0h8M0,-4v8" fill="none" stroke="white" stroke-width="1.5" pointer-events="none"/>
  </g>
  <g id="zoomMin">
    <use xlink:href="#rim" fill="#404040"><set attributeName="fill" to="#808080" begin="zoomminus.mouseover" end="zoomminus.mouseout"/></use>
    <path d="M-4,0h8" fill="none" stroke="white" stroke-width="1.5" pointer-events="none"/>
  </g>
  <g id="arrowUp" transform="translate(30 24)">
    <use xlink:href="#rim"/>
    <path pointer-events="none" fill="none" stroke="white" stroke-width="1.5" d="M0,-3.0v7 M-2.5,-0.5L0,-3.0L2.5,-0.5"/>
  </g>
  <g id="arrowRight" transform="rotate(90) translate(36 -43)">
    <use xlink:href="#rim"/>
    <path pointer-events="none" fill="none" stroke="white" stroke-width="1.5" d="M0,-3.0v7 M-2.5,-0.5L0,-3.0L2.5,-0.5"/>
  </g>
  <g id="arrowDown" transform="rotate(180) translate(-30 -48)">
    <use xlink:href="#rim"/>
    <path pointer-events="none" fill="none" stroke="white" stroke-width="1.5" d="M0,-3.0v7 M-2.5,-0.5L0,-3.0L2.5,-0.5"/>
  </g>
  <g id="arrowLeft" transform="rotate(270) translate(-36 17)">
    <use xlink:href="#rim"/>
    <path pointer-events="none" fill="none" stroke="white" stroke-width="1.5" d="M0,-3.0v7 M-2.5,-0.5L0,-3.0L2.5,-0.5"/>
  </g>
  <g id="resetDef">
    <use xlink:href="#rim2" fill="#404040"><set attributeName="fill" to="#808080" begin="reset.mouseover" end="reset.mouseout"/></use>
  </g>
</defs>
<script type="application/ecmascript">
var viewWidth = 1240;
var viewHeight = 566;
var sectionId = 'dynsection-0';
</script>
<script type="application/ecmascript" xlink:href="svg.min.js"/>
<svg id="graph" class="graph">
<g id="viewport">
<title>JUTDbPrint</title>
<!-- Node1 -->
<g id="Node000001" class="node">
<title>Node1</title>
<g id="a_Node000001"><a xlink:title=" ">
<polygon fill="#999999" stroke="#666666" points="1017.5,-470.59 950.5,-470.59 950.5,-451.34 1017.5,-451.34 1017.5,-470.59"/>
<text text-anchor="middle" x="984" y="-457.09" font-family="Helvetica,sans-Serif" font-size="10.00">JUTDbPrint</text>
</a>
</g>
</g>
<!-- Node1&#45;&gt;Node1 -->
<g id="edge1_Node000001_Node000001" class="edge">
<title>Node1&#45;&gt;Node1</title>
<g id="a_edge1_Node000001_Node000001"><a xlink:title=" ">
<path fill="none" stroke="#9a32cd" stroke-dasharray="5,2" d="M967.87,-481.99C969.89,-485.86 975.26,-488.59 984,-488.59 999.97,-488.59 1004.72,-479.48 998.23,-470.88"/>
<polygon fill="#9a32cd" stroke="#9a32cd" points="971.28,-482.81 969.52,-472.37 964.38,-481.63 971.28,-482.81"/>
</a>
</g>
<text text-anchor="middle" x="984" y="-490.34" font-family="Helvetica,sans-Serif" font-size="10.00" fill="grey"> sDebugPrint</text>
</g>
<!-- Node2 -->
<g id="Node000002" class="node">
<title>Node2</title>
<g id="a_Node000002"><a xlink:href="structunk__print.html" target="_top" xlink:title=" ">
<polygon fill="white" stroke="#666666" points="824.12,-528.59 768.38,-528.59 768.38,-509.34 824.12,-509.34 824.12,-528.59"/>
<text text-anchor="middle" x="796.25" y="-515.09" font-family="Helvetica,sans-Serif" font-size="10.00">unk_print</text>
</a>
</g>
</g>
<!-- Node2&#45;&gt;Node1 -->
<g id="edge2_Node000001_Node000002" class="edge">
<title>Node2&#45;&gt;Node1</title>
<g id="a_edge2_Node000001_Node000002"><a xlink:title=" ">
<path fill="none" stroke="#9a32cd" stroke-dasharray="5,2" d="M835.72,-513.46C862.55,-508.92 898.89,-501.35 929.5,-489.96 942.77,-485.02 956.8,-477.31 967.17,-471.08"/>
<polygon fill="#9a32cd" stroke="#9a32cd" points="835.29,-509.99 825.97,-515.04 836.41,-516.9 835.29,-509.99"/>
</a>
</g>
<text text-anchor="middle" x="893.12" y="-510.71" font-family="Helvetica,sans-Serif" font-size="10.00" fill="grey"> mFirst</text>
</g>
<!-- Node2&#45;&gt;Node2 -->
<g id="edge3_Node000002_Node000002" class="edge">
<title>Node2&#45;&gt;Node2</title>
<g id="a_edge3_Node000002_Node000002"><a xlink:title=" ">
<path fill="none" stroke="#9a32cd" stroke-dasharray="5,2" d="M780.92,-539.99C782.84,-543.86 787.95,-546.59 796.25,-546.59 811.43,-546.59 815.94,-537.48 809.77,-528.88"/>
<polygon fill="#9a32cd" stroke="#9a32cd" points="784.33,-540.8 782.48,-530.37 777.42,-539.68 784.33,-540.8"/>
</a>
</g>
<text text-anchor="middle" x="796.25" y="-548.34" font-family="Helvetica,sans-Serif" font-size="10.00" fill="grey"> mNext</text>
</g>
<!-- Node3 -->
<g id="Node000003" class="node">
<title>Node3</title>
<g id="a_Node000003"><a xlink:href="classJUTFont.html" target="_top" xlink:title=" ">
<polygon fill="white" stroke="#666666" points="823.38,-491.59 769.12,-491.59 769.12,-472.34 823.38,-472.34 823.38,-491.59"/>
<text text-anchor="middle" x="796.25" y="-478.09" font-family="Helvetica,sans-Serif" font-size="10.00">JUTFont</text>
</a>
</g>
</g>
<!-- Node3&#45;&gt;Node1 -->
<g id="edge4_Node000001_Node000003" class="edge">
<title>Node3&#45;&gt;Node1</title>
<g id="a_edge4_Node000001_Node000003"><a xlink:title=" ">
<path fill="none" stroke="#9a32cd" stroke-dasharray="5,2" d="M835.14,-477.68C868.96,-473.85 917.99,-468.31 950.17,-464.67"/>
<polygon fill="#9a32cd" stroke="#9a32cd" points="834.91,-474.18 825.37,-478.78 835.7,-481.14 834.91,-474.18"/>
</a>
</g>
<text text-anchor="middle" x="893.12" y="-476.71" font-family="Helvetica,sans-Serif" font-size="10.00" fill="grey"> mFont</text>
</g>
<!-- Node4 -->
<g id="Node000004" class="node">
<title>Node4</title>
<g id="a_Node000004"><a xlink:href="structJUtility_1_1TColor.html" target="_top" xlink:title=" ">
<polygon fill="white" stroke="#666666" points="648.75,-454.59 569.75,-454.59 569.75,-435.34 648.75,-435.34 648.75,-454.59"/>
<text text-anchor="middle" x="609.25" y="-441.09" font-family="Helvetica,sans-Serif" font-size="10.00">JUtility::TColor</text>
</a>
</g>
</g>
<!-- Node4&#45;&gt;Node1 -->
<g id="edge7_Node000001_Node000004" class="edge">
<title>Node4&#45;&gt;Node1</title>
<g id="a_edge7_Node000001_Node000004"><a xlink:title=" ">
<path fill="none" stroke="#9a32cd" stroke-dasharray="5,2" d="M660.3,-445.94C706.61,-446.97 777.35,-448.84 838.75,-451.71 876.98,-453.5 920.85,-456.44 950.08,-458.53"/>
<polygon fill="#9a32cd" stroke="#9a32cd" points="660.67,-442.45 650.59,-445.73 660.51,-449.45 660.67,-442.45"/>
</a>
</g>
<text text-anchor="middle" x="796.25" y="-452.71" font-family="Helvetica,sans-Serif" font-size="10.00" fill="grey"> mColor</text>
</g>
<!-- Node4&#45;&gt;Node3 -->
<g id="edge5_Node000003_Node000004" class="edge">
<title>Node4&#45;&gt;Node3</title>
<g id="a_edge5_Node000003_Node000004"><a xlink:title=" ">
<path fill="none" stroke="#9a32cd" stroke-dasharray="5,2" d="M659.99,-454.91C694.99,-461.91 740.47,-471.01 768.75,-476.66"/>
<polygon fill="#9a32cd" stroke="#9a32cd" points="661.01,-451.54 650.52,-453.02 659.64,-458.41 661.01,-451.54"/>
</a>
</g>
<text text-anchor="middle" x="709.88" y="-505.46" font-family="Helvetica,sans-Serif" font-size="10.00" fill="grey"> mColor1</text>
<text text-anchor="middle" x="709.88" y="-494.21" font-family="Helvetica,sans-Serif" font-size="10.00" fill="grey">mColor2</text>
<text text-anchor="middle" x="709.88" y="-482.96" font-family="Helvetica,sans-Serif" font-size="10.00" fill="grey">mColor3</text>
<text text-anchor="middle" x="709.88" y="-471.71" font-family="Helvetica,sans-Serif" font-size="10.00" fill="grey">mColor4</text>
</g>
<!-- Node5 -->
<g id="Node000005" class="node">
<title>Node5</title>
<g id="a_Node000005"><a xlink:href="struct__GXColor.html" target="_top" xlink:title=" ">
<polygon fill="white" stroke="#666666" points="377.88,-454.59 325.12,-454.59 325.12,-435.34 377.88,-435.34 377.88,-454.59"/>
<text text-anchor="middle" x="351.5" y="-441.09" font-family="Helvetica,sans-Serif" font-size="10.00">GXColor</text>
</a>
</g>
</g>
<!-- Node5&#45;&gt;Node4 -->
<g id="edge6_Node000004_Node000005" class="edge">
<title>Node5&#45;&gt;Node4</title>
<g id="a_edge6_Node000004_Node000005"><a xlink:title=" ">
<path fill="none" stroke="#63b8ff" d="M389.35,-444.96C437.34,-444.96 520.84,-444.96 569.67,-444.96"/>
<polygon fill="#63b8ff" stroke="#63b8ff" points="389.47,-441.46 379.47,-444.96 389.47,-448.46 389.47,-441.46"/>
</a>
</g>
</g>
<!-- Node6 -->
<g id="Node000006" class="node">
<title>Node6</title>
<g id="a_Node000006"><a xlink:href="structJKRHeap.html" target="_top" xlink:title=" ">
<polygon fill="white" stroke="#666666" points="825.25,-343.59 767.25,-343.59 767.25,-324.34 825.25,-324.34 825.25,-343.59"/>
<text text-anchor="middle" x="796.25" y="-330.09" font-family="Helvetica,sans-Serif" font-size="10.00">JKRHeap</text>
</a>
</g>
</g>
<!-- Node6&#45;&gt;Node1 -->
<g id="edge8_Node000001_Node000006" class="edge">
<title>Node6&#45;&gt;Node1</title>
<g id="a_edge8_Node000001_Node000006"><a xlink:title=" ">
<path fill="none" stroke="#9a32cd" stroke-dasharray="5,2" d="M823.94,-349.62C851.07,-365.83 894.06,-392.29 929.5,-417.71 944.45,-428.43 960.77,-441.91 971.41,-450.94"/>
<polygon fill="#9a32cd" stroke="#9a32cd" points="826.05,-346.8 815.66,-344.71 822.47,-352.82 826.05,-346.8"/>
</a>
</g>
<text text-anchor="middle" x="893.12" y="-418.71" font-family="Helvetica,sans-Serif" font-size="10.00" fill="grey"> mHeap</text>
</g>
<!-- Node6&#45;&gt;Node6 -->
<g id="edge36_Node000006_Node000006" class="edge">
<title>Node6&#45;&gt;Node6</title>
<g id="a_edge36_Node000006_Node000006"><a xlink:title=" ">
<path fill="none" stroke="#9a32cd" stroke-dasharray="5,2" d="M780.92,-354.99C782.84,-358.86 787.95,-361.59 796.25,-361.59 811.43,-361.59 815.94,-352.48 809.77,-343.88"/>
<polygon fill="#9a32cd" stroke="#9a32cd" points="784.33,-355.8 782.48,-345.37 777.42,-354.68 784.33,-355.8"/>
</a>
</g>
<text text-anchor="middle" x="796.25" y="-397.09" font-family="Helvetica,sans-Serif" font-size="10.00" fill="grey"> sCurrentHeap</text>
<text text-anchor="middle" x="796.25" y="-385.84" font-family="Helvetica,sans-Serif" font-size="10.00" fill="grey">sRootHeap</text>
<text text-anchor="middle" x="796.25" y="-374.59" font-family="Helvetica,sans-Serif" font-size="10.00" fill="grey">sRootHeap2</text>
<text text-anchor="middle" x="796.25" y="-363.34" font-family="Helvetica,sans-Serif" font-size="10.00" fill="grey">sSystemHeap</text>
</g>
<!-- Node7 -->
<g id="Node000007" class="node">
<title>Node7</title>
<g id="a_Node000007"><a xlink:href="classJKRDisposer.html" target="_top" xlink:title=" ">
<polygon fill="white" stroke="#666666" points="1020.5,-326.59 947.5,-326.59 947.5,-307.34 1020.5,-307.34 1020.5,-326.59"/>
<text text-anchor="middle" x="984" y="-313.09" font-family="Helvetica,sans-Serif" font-size="10.00">JKRDisposer</text>
</a>
</g>
</g>
<!-- Node6&#45;&gt;Node7 -->
<g id="edge10_Node000007_Node000006" class="edge">
<title>Node6&#45;&gt;Node7</title>
<g id="a_edge10_Node000007_Node000006"><a xlink:title=" ">
<path fill="none" stroke="#9a32cd" stroke-dasharray="5,2" d="M837.16,-333.78C863.47,-333.27 898.65,-331.81 929.5,-327.96 935.24,-327.25 941.28,-326.25 947.16,-325.14"/>
<polygon fill="#9a32cd" stroke="#9a32cd" points="837.19,-330.28 827.25,-333.94 837.3,-337.28 837.19,-330.28"/>
</a>
</g>
<text text-anchor="middle" x="893.12" y="-334.71" font-family="Helvetica,sans-Serif" font-size="10.00" fill="grey"> mHeap</text>
</g>
<!-- Node7&#45;&gt;Node6 -->
<g id="edge9_Node000006_Node000007" class="edge">
<title>Node7&#45;&gt;Node6</title>
<g id="a_edge9_Node000006_Node000007"><a xlink:title=" ">
<path fill="none" stroke="#63b8ff" d="M935.85,-321.28C901.01,-324.47 854.73,-328.7 825.46,-331.38"/>
<polygon fill="#63b8ff" stroke="#63b8ff" points="936.04,-324.77 945.68,-320.38 935.4,-317.8 936.04,-324.77"/>
</a>
</g>
</g>
<!-- Node8 -->
<g id="Node000008" class="node">
<title>Node8</title>
<g id="a_Node000008"><a xlink:href="classJSULink.html" target="_top" xlink:title=" ">
<polygon fill="white" stroke="#666666" points="534.5,-300.59 406.75,-300.59 406.75,-281.34 534.5,-281.34 534.5,-300.59"/>
<text text-anchor="middle" x="470.62" y="-287.09" font-family="Helvetica,sans-Serif" font-size="10.00">JSULink&lt; JKRDisposer &gt;</text>
</a>
</g>
</g>
<!-- Node8&#45;&gt;Node7 -->
<g id="edge11_Node000007_Node000008" class="edge">
<title>Node8&#45;&gt;Node7</title>
<g id="a_edge11_Node000007_Node000008"><a xlink:title=" ">
<path fill="none" stroke="#9a32cd" stroke-dasharray="5,2" d="M546,-294.74C657.68,-300.42 864.41,-310.93 947.28,-315.15"/>
<polygon fill="#9a32cd" stroke="#9a32cd" points="546.52,-291.27 536.35,-294.25 546.16,-298.26 546.52,-291.27"/>
</a>
</g>
<text text-anchor="middle" x="709.88" y="-305.71" font-family="Helvetica,sans-Serif" font-size="10.00" fill="grey"> mLink</text>
</g>
<!-- Node9 -->
<g id="Node000009" class="node">
<title>Node9</title>
<g id="a_Node000009"><a xlink:href="classJSUPtrLink.html" target="_top" xlink:title=" ">
<polygon fill="white" stroke="#666666" points="67,-353.59 0,-353.59 0,-334.34 67,-334.34 67,-353.59"/>
<text text-anchor="middle" x="33.5" y="-340.09" font-family="Helvetica,sans-Serif" font-size="10.00">JSUPtrLink</text>
</a>
</g>
</g>
<!-- Node9&#45;&gt;Node8 -->
<g id="edge12_Node000008_Node000009" class="edge">
<title>Node9&#45;&gt;Node8</title>
<g id="a_edge12_Node000008_Node000009"><a xlink:title=" ">
<path fill="none" stroke="#63b8ff" d="M78.46,-335.23C80.67,-334.8 82.86,-334.37 85,-333.96 144.71,-322.5 159.19,-316.71 219.5,-308.96 282.87,-300.82 355.78,-296.1 406.47,-293.55"/>
<polygon fill="#63b8ff" stroke="#63b8ff" points="77.99,-331.75 68.84,-337.11 79.33,-338.62 77.99,-331.75"/>
</a>
</g>
</g>
<!-- Node9&#45;&gt;Node9 -->
<g id="edge15_Node000009_Node000009" class="edge">
<title>Node9&#45;&gt;Node9</title>
<g id="a_edge15_Node000009_Node000009"><a xlink:title=" ">
<path fill="none" stroke="#9a32cd" stroke-dasharray="5,2" d="M21.36,-364.99C22.88,-368.86 26.93,-371.59 33.5,-371.59 45.52,-371.59 49.09,-362.48 44.2,-353.88"/>
<polygon fill="#9a32cd" stroke="#9a32cd" points="24.8,-365.74 22.6,-355.38 17.85,-364.85 24.8,-365.74"/>
</a>
</g>
<text text-anchor="middle" x="33.5" y="-384.59" font-family="Helvetica,sans-Serif" font-size="10.00" fill="grey"> mNext</text>
<text text-anchor="middle" x="33.5" y="-373.34" font-family="Helvetica,sans-Serif" font-size="10.00" fill="grey">mPrev</text>
</g>
<!-- Node10 -->
<g id="Node000010" class="node">
<title>Node10</title>
<g id="a_Node000010"><a xlink:href="classJSUPtrList.html" target="_top" xlink:title=" ">
<polygon fill="white" stroke="#666666" points="201.5,-395.59 136.75,-395.59 136.75,-376.34 201.5,-376.34 201.5,-395.59"/>
<text text-anchor="middle" x="169.12" y="-382.09" font-family="Helvetica,sans-Serif" font-size="10.00">JSUPtrList</text>
</a>
</g>
</g>
<!-- Node9&#45;&gt;Node10 -->
<g id="edge14_Node000010_Node000009" class="edge">
<title>Node9&#45;&gt;Node10</title>
<g id="a_edge14_Node000010_Node000009"><a xlink:title=" ">
<path fill="none" stroke="#9a32cd" stroke-dasharray="5,2" d="M58.03,-359.86C66.25,-364.75 75.75,-369.71 85,-372.96 101.4,-378.73 120.51,-381.94 136.27,-383.73"/>
<polygon fill="#9a32cd" stroke="#9a32cd" points="60.02,-356.97 49.69,-354.62 56.3,-362.9 60.02,-356.97"/>
</a>
</g>
<text text-anchor="middle" x="101.88" y="-393.96" font-family="Helvetica,sans-Serif" font-size="10.00" fill="grey"> mHead</text>
<text text-anchor="middle" x="101.88" y="-382.71" font-family="Helvetica,sans-Serif" font-size="10.00" fill="grey">mTail</text>
</g>
<!-- Node20 -->
<g id="Node000020" class="node">
<title>Node20</title>
<g id="a_Node000020"><a xlink:href="classJSULink.html" target="_top" xlink:title=" ">
<polygon fill="white" stroke="#666666" points="296.25,-337.59 219.5,-337.59 219.5,-318.34 296.25,-318.34 296.25,-337.59"/>
<text text-anchor="middle" x="257.88" y="-324.09" font-family="Helvetica,sans-Serif" font-size="10.00">JSULink&lt; T &gt;</text>
</a>
</g>
</g>
<!-- Node9&#45;&gt;Node20 -->
<g id="edge33_Node000020_Node000009" class="edge">
<title>Node9&#45;&gt;Node20</title>
<g id="a_edge33_Node000020_Node000009"><a xlink:title=" ">
<path fill="none" stroke="#63b8ff" d="M78.6,-340.79C119.65,-337.84 180.2,-333.48 219.09,-330.68"/>
<polygon fill="#63b8ff" stroke="#63b8ff" points="78.54,-337.28 68.82,-341.49 79.05,-344.27 78.54,-337.28"/>
</a>
</g>
</g>
<!-- Node10&#45;&gt;Node9 -->
<g id="edge13_Node000009_Node000010" class="edge">
<title>Node10&#45;&gt;Node9</title>
<g id="a_edge13_Node000009_Node000010"><a xlink:title=" ">
<path fill="none" stroke="#9a32cd" stroke-dasharray="5,2" d="M140.12,-370.71C133.27,-367.4 125.86,-364.16 118.75,-361.71 102.22,-356.01 83.2,-351.81 67.42,-348.94"/>
<polygon fill="#9a32cd" stroke="#9a32cd" points="138.45,-373.79 148.95,-375.18 141.61,-367.54 138.45,-373.79"/>
</a>
</g>
<text text-anchor="middle" x="101.88" y="-362.71" font-family="Helvetica,sans-Serif" font-size="10.00" fill="grey"> mList</text>
</g>
<!-- Node19 -->
<g id="Node000019" class="node">
<title>Node19</title>
<g id="a_Node000019"><a xlink:href="classJSUList.html" target="_top" xlink:title=" ">
<polygon fill="white" stroke="#666666" points="388.75,-375.59 314.25,-375.59 314.25,-356.34 388.75,-356.34 388.75,-375.59"/>
<text text-anchor="middle" x="351.5" y="-362.09" font-family="Helvetica,sans-Serif" font-size="10.00">JSUList&lt; T &gt;</text>
</a>
</g>
</g>
<!-- Node10&#45;&gt;Node19 -->
<g id="edge31_Node000019_Node000010" class="edge">
<title>Node10&#45;&gt;Node19</title>
<g id="a_edge31_Node000019_Node000010"><a xlink:title=" ">
<path fill="none" stroke="#63b8ff" d="M213.2,-381.19C243.96,-377.78 284.87,-373.24 314.02,-370.01"/>
<polygon fill="#63b8ff" stroke="#63b8ff" points="213.01,-377.69 203.46,-382.27 213.79,-384.64 213.01,-377.69"/>
</a>
</g>
</g>
<!-- Node21 -->
<g id="Node000021" class="node">
<title>Node21</title>
<g id="a_Node000021"><a xlink:href="classJSUList.html" target="_top" xlink:title=" ">
<polygon fill="white" stroke="#666666" points="533.38,-413.59 407.88,-413.59 407.88,-394.34 533.38,-394.34 533.38,-413.59"/>
<text text-anchor="middle" x="470.62" y="-400.09" font-family="Helvetica,sans-Serif" font-size="10.00">JSUList&lt; JKRDisposer &gt;</text>
</a>
</g>
</g>
<!-- Node10&#45;&gt;Node21 -->
<g id="edge35_Node000021_Node000010" class="edge">
<title>Node10&#45;&gt;Node21</title>
<g id="a_edge35_Node000021_Node000010"><a xlink:title=" ">
<path fill="none" stroke="#63b8ff" d="M213.28,-389.52C215.38,-389.67 217.46,-389.82 219.5,-389.96 283.5,-394.35 356.79,-398.33 407.41,-400.91"/>
<polygon fill="#63b8ff" stroke="#63b8ff" points="213.73,-386.05 203.5,-388.78 213.2,-393.03 213.73,-386.05"/>
</a>
</g>
</g>
<!-- Node11 -->
<g id="Node000011" class="node">
<title>Node11</title>
<g id="a_Node000011"><a xlink:href="structOSMutex.html" target="_top" xlink:title=" ">
<polygon fill="white" stroke="#666666" points="637.5,-147.59 581,-147.59 581,-128.34 637.5,-128.34 637.5,-147.59"/>
<text text-anchor="middle" x="609.25" y="-134.09" font-family="Helvetica,sans-Serif" font-size="10.00">OSMutex</text>
</a>
</g>
</g>
<!-- Node11&#45;&gt;Node6 -->
<g id="edge16_Node000006_Node000011" class="edge">
<title>Node11&#45;&gt;Node6</title>
<g id="a_edge16_Node000006_Node000011"><a xlink:title=" ">
<path fill="none" stroke="#9a32cd" stroke-dasharray="5,2" d="M620.92,-157.66C633.52,-179.34 656.3,-214.02 684,-235.96 703.69,-251.56 715.87,-243.35 735.75,-258.71 760,-277.45 780.13,-308.13 789.53,-323.9"/>
<polygon fill="#9a32cd" stroke="#9a32cd" points="624.13,-156.23 616.18,-149.23 618.03,-159.66 624.13,-156.23"/>
</a>
</g>
<text text-anchor="middle" x="709.88" y="-259.71" font-family="Helvetica,sans-Serif" font-size="10.00" fill="grey"> mMutex</text>
</g>
<!-- Node13 -->
<g id="Node000013" class="node">
<title>Node13</title>
<g id="a_Node000013"><a xlink:href="structOSThread.html" target="_top" xlink:title=" ">
<polygon fill="white" stroke="#666666" points="1014.12,-150.59 953.88,-150.59 953.88,-131.34 1014.12,-131.34 1014.12,-150.59"/>
<text text-anchor="middle" x="984" y="-137.09" font-family="Helvetica,sans-Serif" font-size="10.00">OSThread</text>
</a>
</g>
</g>
<!-- Node11&#45;&gt;Node13 -->
<g id="edge23_Node000013_Node000011" class="edge">
<title>Node11&#45;&gt;Node13</title>
<g id="a_edge23_Node000013_Node000011"><a xlink:title=" ">
<path fill="none" stroke="#9a32cd" stroke-dasharray="5,2" d="M627.7,-155.66C641.6,-168.44 662.28,-184.69 684,-191.96 787.46,-226.61 828.43,-233.07 929.5,-191.96 950.18,-183.55 967.47,-163.01 976.42,-150.72"/>
<polygon fill="#9a32cd" stroke="#9a32cd" points="630.33,-153.33 620.69,-148.94 625.48,-158.38 630.33,-153.33"/>
</a>
</g>
<text text-anchor="middle" x="796.25" y="-221.71" font-family="Helvetica,sans-Serif" font-size="10.00" fill="grey"> mutex</text>
</g>
<!-- Node16 -->
<g id="Node000016" class="node">
<title>Node16</title>
<g id="a_Node000016"><a xlink:href="structOSMutexQueue.html" target="_top" xlink:title=" ">
<polygon fill="white" stroke="#666666" points="838.75,-141.59 753.75,-141.59 753.75,-122.34 838.75,-122.34 838.75,-141.59"/>
<text text-anchor="middle" x="796.25" y="-128.09" font-family="Helvetica,sans-Serif" font-size="10.00">OSMutexQueue</text>
</a>
</g>
</g>
<!-- Node11&#45;&gt;Node16 -->
<g id="edge25_Node000016_Node000011" class="edge">
<title>Node11&#45;&gt;Node16</title>
<g id="a_edge25_Node000016_Node000011"><a xlink:title=" ">
<path fill="none" stroke="#9a32cd" stroke-dasharray="5,2" d="M649.41,-136.69C679.89,-135.7 722.11,-134.33 753.28,-133.32"/>
<polygon fill="#9a32cd" stroke="#9a32cd" points="649.34,-133.19 639.46,-137.01 649.57,-140.19 649.34,-133.19"/>
</a>
</g>
<text text-anchor="middle" x="709.88" y="-147.96" font-family="Helvetica,sans-Serif" font-size="10.00" fill="grey"> head</text>
<text text-anchor="middle" x="709.88" y="-136.71" font-family="Helvetica,sans-Serif" font-size="10.00" fill="grey">tail</text>
</g>
<!-- Node17 -->
<g id="Node000017" class="node">
<title>Node17</title>
<g id="a_Node000017"><a xlink:href="structOSMutexLink.html" target="_top" xlink:title=" ">
<polygon fill="white" stroke="#666666" points="833.88,-67.59 758.62,-67.59 758.62,-48.34 833.88,-48.34 833.88,-67.59"/>
<text text-anchor="middle" x="796.25" y="-54.09" font-family="Helvetica,sans-Serif" font-size="10.00">OSMutexLink</text>
</a>
</g>
</g>
<!-- Node11&#45;&gt;Node17 -->
<g id="edge28_Node000017_Node000011" class="edge">
<title>Node11&#45;&gt;Node17</title>
<g id="a_edge28_Node000017_Node000011"><a xlink:title=" ">
<path fill="none" stroke="#9a32cd" stroke-dasharray="5,2" d="M643.59,-123.54C680.63,-107.53 739.48,-82.08 771.9,-68.06"/>
<polygon fill="#9a32cd" stroke="#9a32cd" points="642.48,-120.21 634.7,-127.39 645.26,-126.63 642.48,-120.21"/>
</a>
</g>
<text text-anchor="middle" x="709.88" y="-117.96" font-family="Helvetica,sans-Serif" font-size="10.00" fill="grey"> next</text>
<text text-anchor="middle" x="709.88" y="-106.71" font-family="Helvetica,sans-Serif" font-size="10.00" fill="grey">prev</text>
</g>
<!-- Node12 -->
<g id="Node000012" class="node">
<title>Node12</title>
<g id="a_Node000012"><a xlink:href="structOSThreadQueue.html" target="_top" xlink:title=" ">
<polygon fill="white" stroke="#666666" points="1231.5,-62.59 1142.75,-62.59 1142.75,-43.34 1231.5,-43.34 1231.5,-62.59"/>
<text text-anchor="middle" x="1187.12" y="-49.09" font-family="Helvetica,sans-Serif" font-size="10.00">OSThreadQueue</text>
</a>
</g>
</g>
<!-- Node12&#45;&gt;Node11 -->
<g id="edge17_Node000011_Node000012" class="edge">
<title>Node12&#45;&gt;Node11</title>
<g id="a_edge17_Node000011_Node000012"><a xlink:title=" ">
<path fill="none" stroke="#9a32cd" stroke-dasharray="5,2" d="M1144.87,-39.66C1054.76,-13.19 836.27,36.74 684,-45.96 648.92,-65.01 624.49,-108.42 614.84,-128.03"/>
<polygon fill="#9a32cd" stroke="#9a32cd" points="1143.67,-42.96 1154.26,-42.48 1145.69,-36.25 1143.67,-42.96"/>
</a>
</g>
<text text-anchor="middle" x="893.12" y="-3.71" font-family="Helvetica,sans-Serif" font-size="10.00" fill="grey"> queue</text>
</g>
<!-- Node12&#45;&gt;Node13 -->
<g id="edge20_Node000013_Node000012" class="edge">
<title>Node12&#45;&gt;Node13</title>
<g id="a_edge20_Node000013_Node000012"><a xlink:title=" ">
<path fill="none" stroke="#9a32cd" stroke-dasharray="5,2" d="M1150.23,-67.2C1110.03,-83.18 1049.08,-107.53 1038.5,-112.46 1026.29,-118.15 1012.92,-125.28 1002.59,-130.98"/>
<polygon fill="#9a32cd" stroke="#9a32cd" points="1151.31,-70.54 1159.31,-63.59 1148.72,-64.03 1151.31,-70.54"/>
</a>
</g>
<text text-anchor="middle" x="1081.62" y="-124.96" font-family="Helvetica,sans-Serif" font-size="10.00" fill="grey"> join_queue</text>
<text text-anchor="middle" x="1081.62" y="-113.71" font-family="Helvetica,sans-Serif" font-size="10.00" fill="grey">queue</text>
</g>
<!-- Node13&#45;&gt;Node11 -->
<g id="edge26_Node000011_Node000013" class="edge">
<title>Node13&#45;&gt;Node11</title>
<g id="a_edge26_Node000011_Node000013"><a xlink:title=" ">
<path fill="none" stroke="#9a32cd" stroke-dasharray="5,2" d="M942.27,-150.87C937.97,-151.68 933.66,-152.4 929.5,-152.96 811.46,-168.82 732.65,-169.68 684,-161.96 667.11,-159.28 648.83,-153.36 634.69,-148.06"/>
<polygon fill="#9a32cd" stroke="#9a32cd" points="942.89,-154.31 951.97,-148.86 941.47,-147.46 942.89,-154.31"/>
</a>
</g>
<text text-anchor="middle" x="796.25" y="-167.71" font-family="Helvetica,sans-Serif" font-size="10.00" fill="grey"> thread</text>
</g>
<!-- Node13&#45;&gt;Node12 -->
<g id="edge18_Node000012_Node000013" class="edge">
<title>Node13&#45;&gt;Node12</title>
<g id="a_edge18_Node000012_Node000013"><a xlink:title=" ">
<path fill="none" stroke="#9a32cd" stroke-dasharray="5,2" d="M991.36,-119.97C998.9,-99.17 1013.69,-68.46 1038.5,-54.46 1069.98,-36.71 1111.56,-38.06 1142.58,-42.85"/>
<polygon fill="#9a32cd" stroke="#9a32cd" points="988.04,-118.84 988.21,-129.43 994.69,-121.05 988.04,-118.84"/>
</a>
</g>
<text text-anchor="middle" x="1081.62" y="-67.96" font-family="Helvetica,sans-Serif" font-size="10.00" fill="grey"> head</text>
<text text-anchor="middle" x="1081.62" y="-56.71" font-family="Helvetica,sans-Serif" font-size="10.00" fill="grey">tail</text>
</g>
<!-- Node15 -->
<g id="Node000015" class="node">
<title>Node15</title>
<g id="a_Node000015"><a xlink:href="structOSThreadLink.html" target="_top" xlink:title=" ">
<polygon fill="white" stroke="#666666" points="1226.62,-177.59 1147.62,-177.59 1147.62,-158.34 1226.62,-158.34 1226.62,-177.59"/>
<text text-anchor="middle" x="1187.12" y="-164.09" font-family="Helvetica,sans-Serif" font-size="10.00">OSThreadLink</text>
</a>
</g>
</g>
<!-- Node13&#45;&gt;Node15 -->
<g id="edge22_Node000015_Node000013" class="edge">
<title>Node13&#45;&gt;Node15</title>
<g id="a_edge22_Node000015_Node000013"><a xlink:title=" ">
<path fill="none" stroke="#9a32cd" stroke-dasharray="5,2" d="M1008.88,-156.6C1017.8,-161.58 1028.26,-166.44 1038.5,-168.96 1074.59,-177.84 1117.16,-176.34 1147.29,-173.37"/>
<polygon fill="#9a32cd" stroke="#9a32cd" points="1010.9,-153.73 1000.52,-151.62 1007.32,-159.74 1010.9,-153.73"/>
</a>
</g>
<text text-anchor="middle" x="1081.62" y="-187.96" font-family="Helvetica,sans-Serif" font-size="10.00" fill="grey"> next</text>
<text text-anchor="middle" x="1081.62" y="-176.71" font-family="Helvetica,sans-Serif" font-size="10.00" fill="grey">prev</text>
</g>
<!-- Node14 -->
<g id="Node000014" class="node">
<title>Node14</title>
<g id="a_Node000014"><a xlink:href="structOSContext.html" target="_top" xlink:title=" ">
<polygon fill="white" stroke="#666666" points="827.88,-104.59 764.62,-104.59 764.62,-85.34 827.88,-85.34 827.88,-104.59"/>
<text text-anchor="middle" x="796.25" y="-91.09" font-family="Helvetica,sans-Serif" font-size="10.00">OSContext</text>
</a>
</g>
</g>
<!-- Node14&#45;&gt;Node13 -->
<g id="edge19_Node000013_Node000014" class="edge">
<title>Node14&#45;&gt;Node13</title>
<g id="a_edge19_Node000013_Node000014"><a xlink:title=" ">
<path fill="none" stroke="#9a32cd" stroke-dasharray="5,2" d="M839.24,-100.13C865.51,-103.95 899.87,-110 929.5,-118.71 940.41,-121.92 952.11,-126.63 961.78,-130.89"/>
<polygon fill="#9a32cd" stroke="#9a32cd" points="840.04,-96.71 829.65,-98.79 839.07,-103.64 840.04,-96.71"/>
</a>
</g>
<text text-anchor="middle" x="893.12" y="-119.71" font-family="Helvetica,sans-Serif" font-size="10.00" fill="grey"> context</text>
</g>
<!-- Node15&#45;&gt;Node13 -->
<g id="edge21_Node000013_Node000015" class="edge">
<title>Node15&#45;&gt;Node13</title>
<g id="a_edge21_Node000013_Node000015"><a xlink:title=" ">
<path fill="none" stroke="#9a32cd" stroke-dasharray="5,2" d="M1152.07,-154.02C1143.31,-150.99 1133.8,-148.18 1124.75,-146.46 1087.18,-139.31 1042.94,-138.88 1014.46,-139.6"/>
<polygon fill="#9a32cd" stroke="#9a32cd" points="1150.66,-157.23 1161.26,-157.38 1153.07,-150.66 1150.66,-157.23"/>
</a>
</g>
<text text-anchor="middle" x="1081.62" y="-158.96" font-family="Helvetica,sans-Serif" font-size="10.00" fill="grey"> active_threads_link</text>
<text text-anchor="middle" x="1081.62" y="-147.71" font-family="Helvetica,sans-Serif" font-size="10.00" fill="grey">link</text>
</g>
<!-- Node16&#45;&gt;Node13 -->
<g id="edge24_Node000013_Node000016" class="edge">
<title>Node16&#45;&gt;Node13</title>
<g id="a_edge24_Node000013_Node000016"><a xlink:title=" ">
<path fill="none" stroke="#9a32cd" stroke-dasharray="5,2" d="M850.4,-134.54C883.91,-136.16 925.94,-138.2 953.58,-139.54"/>
<polygon fill="#9a32cd" stroke="#9a32cd" points="850.61,-131.04 840.45,-134.06 850.27,-138.04 850.61,-131.04"/>
</a>
</g>
<text text-anchor="middle" x="893.12" y="-139.71" font-family="Helvetica,sans-Serif" font-size="10.00" fill="grey"> owned_mutexes</text>
</g>
<!-- Node17&#45;&gt;Node11 -->
<g id="edge27_Node000011_Node000017" class="edge">
<title>Node17&#45;&gt;Node11</title>
<g id="a_edge27_Node000011_Node000017"><a xlink:title=" ">
<path fill="none" stroke="#9a32cd" stroke-dasharray="5,2" d="M746.96,-50.08C726.73,-48.82 703.45,-50.16 684,-58.71 651.14,-73.15 626.26,-110.16 615.74,-128.02"/>
<polygon fill="#9a32cd" stroke="#9a32cd" points="746.38,-53.54 756.64,-50.91 746.98,-46.56 746.38,-53.54"/>
</a>
</g>
<text text-anchor="middle" x="709.88" y="-60.71" font-family="Helvetica,sans-Serif" font-size="10.00" fill="grey"> link</text>
</g>
<!-- Node18 -->
<g id="Node000018" class="node">
<title>Node18</title>
<g id="a_Node000018"><a xlink:href="classJSUTree.html" target="_top" xlink:title=" ">
<polygon fill="white" stroke="#666666" points="666,-343.59 552.5,-343.59 552.5,-324.34 666,-324.34 666,-343.59"/>
<text text-anchor="middle" x="609.25" y="-330.09" font-family="Helvetica,sans-Serif" font-size="10.00">JSUTree&lt; JKRHeap &gt;</text>
</a>
</g>
</g>
<!-- Node18&#45;&gt;Node6 -->
<g id="edge29_Node000006_Node000018" class="edge">
<title>Node18&#45;&gt;Node6</title>
<g id="a_edge29_Node000006_Node000018"><a xlink:title=" ">
<path fill="none" stroke="#9a32cd" stroke-dasharray="5,2" d="M677.39,-333.96C708.16,-333.96 743,-333.96 766.77,-333.96"/>
<polygon fill="#9a32cd" stroke="#9a32cd" points="677.77,-330.46 667.77,-333.96 677.77,-337.46 677.77,-330.46"/>
</a>
</g>
<text text-anchor="middle" x="709.88" y="-335.71" font-family="Helvetica,sans-Serif" font-size="10.00" fill="grey"> mChildTree</text>
</g>
<!-- Node19&#45;&gt;Node18 -->
<g id="edge30_Node000018_Node000019" class="edge">
<title>Node19&#45;&gt;Node18</title>
<g id="a_edge30_Node000018_Node000019"><a xlink:title=" ">
<path fill="none" stroke="#63b8ff" d="M400.47,-359.96C443.59,-354.56 506.95,-346.64 552.36,-340.96"/>
<polygon fill="#63b8ff" stroke="#63b8ff" points="400.13,-356.47 390.64,-361.19 401,-363.42 400.13,-356.47"/>
</a>
</g>
</g>
<!-- Node20&#45;&gt;Node18 -->
<g id="edge32_Node000018_Node000020" class="edge">
<title>Node20&#45;&gt;Node18</title>
<g id="a_edge32_Node000018_Node000020"><a xlink:title=" ">
<path fill="none" stroke="#63b8ff" d="M308.01,-328.81C372.23,-329.91 484.46,-331.84 552.02,-333"/>
<polygon fill="#63b8ff" stroke="#63b8ff" points="308.17,-325.31 298.11,-328.64 308.05,-332.31 308.17,-325.31"/>
</a>
</g>
</g>
<!-- Node21&#45;&gt;Node6 -->
<g id="edge34_Node000006_Node000021" class="edge">
<title>Node21&#45;&gt;Node6</title>
<g id="a_edge34_Node000006_Node000021"><a xlink:title=" ">
<path fill="none" stroke="#9a32cd" stroke-dasharray="5,2" d="M534.43,-391.65C588.04,-380.96 667.14,-364.75 735.75,-348.96 745.92,-346.62 757.03,-343.87 766.86,-341.38"/>
<polygon fill="#9a32cd" stroke="#9a32cd" points="534,-388.17 524.87,-393.55 535.36,-395.03 534,-388.17"/>
</a>
</g>
<text text-anchor="middle" x="609.25" y="-388.71" font-family="Helvetica,sans-Serif" font-size="10.00" fill="grey"> mDisposerList</text>
</g>
</g>
</svg>

<g id="navigator" transform="translate(0 0)" fill="#404254">
  <rect fill="#f2f5e9" fill-opacity="0.5" stroke="#606060" stroke-width=".5" x="0" y="0" width="60" height="60"/>
  <use id="zoomplus" xlink:href="#zoomPlus" x="17" y="9" onmousedown="handleZoom(evt,'in')"/>
  <use id="zoomminus" xlink:href="#zoomMin" x="42" y="9" onmousedown="handleZoom(evt,'out')"/>
  <use id="reset" xlink:href="#resetDef" x="30" y="36" onmousedown="handleReset()"/>
   <use id="arrowup" xlink:href="#arrowUp" x="0" y="0" onmousedown="handlePan(0,-1)"/>
  <use id="arrowright" xlink:href="#arrowRight" x="0" y="0" onmousedown="handlePan(1,0)"/>
  <use id="arrowdown" xlink:href="#arrowDown" x="0" y="0" onmousedown="handlePan(0,1)"/>
  <use id="arrowleft" xlink:href="#arrowLeft" x="0" y="0" onmousedown="handlePan(-1,0)"/>
</g>
<svg viewBox="0 0 15 15" width="100%" height="30px" preserveAspectRatio="xMaxYMin meet">
 <g id="arrow_out" transform="scale(0.3 0.3)">
  <a xlink:href="classJUTDbPrint__coll__graph_org.svg" target="_base">
   <rect id="button" ry="5" rx="5" y="6" x="6" height="38" width="38"
        fill="#f2f5e9" fill-opacity="0.5" stroke="#606060" stroke-width="1.0"/>
   <path id="arrow"
     d="M 11.500037,31.436501 C 11.940474,20.09759 22.043105,11.32322 32.158766,21.979434 L 37.068811,17.246167 C 37.068811,17.246167 37.088388,32 37.088388,32 L 22.160133,31.978069 C 22.160133,31.978069 26.997745,27.140456 26.997745,27.140456 C 18.528582,18.264221 13.291696,25.230495 11.500037,31.436501 z"
     style="fill:#404040;"/>
  </a>
 </g>
</svg>

<style type='text/css'>
<![CDATA[
[data-mouse-over-selected='false'] { opacity: 0.7; }
[data-mouse-over-selected='true']  { opacity: 1.0; }
]]>
</style>
<script type="application/ecmascript"><![CDATA[
document.addEventListener('DOMContentLoaded', (event) => {
  highlightEdges();
  highlightAdjacentNodes();
});
]]></script>
</svg>
