<?xml version="1.0" encoding="UTF-8" standalone="no"?>
<!DOCTYPE svg PUBLIC "-//W3C//DTD SVG 1.1//EN"
 "http://www.w3.org/Graphics/SVG/1.1/DTD/svg11.dtd">
<!-- Generated by graphviz version 9.0.0 (20230911.1827)
 -->
<!-- Title: J2DTevBlock16 Pages: 1 -->
<!--zoomable 392 -->

<svg id="main" version="1.1" xmlns="http://www.w3.org/2000/svg" xmlns:xlink="http://www.w3.org/1999/xlink" xml:space="preserve" onload="init(evt)">
<style type="text/css"><![CDATA[
.node, .edge {opacity: 0.7;}
.node.selected, .edge.selected {opacity: 1;}
.edge:hover path { stroke: red; }
.edge:hover polygon { stroke: red; fill: red; }
]]></style>

<defs>
  <circle id="rim" cx="0" cy="0" r="7"/>
  <circle id="rim2" cx="0" cy="0" r="3.5"/>
  <g id="zoomPlus">
    <use xlink:href="#rim" fill="#404040"><set attributeName="fill" to="#808080" begin="zoomplus.mouseover" end="zoomplus.mouseout"/></use>
    <path d="M-4,0h8M0,-4v8" fill="none" stroke="white" stroke-width="1.5" pointer-events="none"/>
  </g>
  <g id="zoomMin">
    <use xlink:href="#rim" fill="#404040"><set attributeName="fill" to="#808080" begin="zoomminus.mouseover" end="zoomminus.mouseout"/></use>
    <path d="M-4,0h8" fill="none" stroke="white" stroke-width="1.5" pointer-events="none"/>
  </g>
  <g id="arrowUp" transform="translate(30 24)">
    <use xlink:href="#rim"/>
    <path pointer-events="none" fill="none" stroke="white" stroke-width="1.5" d="M0,-3.0v7 M-2.5,-0.5L0,-3.0L2.5,-0.5"/>
  </g>
  <g id="arrowRight" transform="rotate(90) translate(36 -43)">
    <use xlink:href="#rim"/>
    <path pointer-events="none" fill="none" stroke="white" stroke-width="1.5" d="M0,-3.0v7 M-2.5,-0.5L0,-3.0L2.5,-0.5"/>
  </g>
  <g id="arrowDown" transform="rotate(180) translate(-30 -48)">
    <use xlink:href="#rim"/>
    <path pointer-events="none" fill="none" stroke="white" stroke-width="1.5" d="M0,-3.0v7 M-2.5,-0.5L0,-3.0L2.5,-0.5"/>
  </g>
  <g id="arrowLeft" transform="rotate(270) translate(-36 17)">
    <use xlink:href="#rim"/>
    <path pointer-events="none" fill="none" stroke="white" stroke-width="1.5" d="M0,-3.0v7 M-2.5,-0.5L0,-3.0L2.5,-0.5"/>
  </g>
  <g id="resetDef">
    <use xlink:href="#rim2" fill="#404040"><set attributeName="fill" to="#808080" begin="reset.mouseover" end="reset.mouseout"/></use>
  </g>
</defs>
<script type="application/ecmascript">
var viewWidth = 705;
var viewHeight = 392;
var sectionId = 'dynsection-1';
</script>
<script type="application/ecmascript" xlink:href="svg.min.js"/>
<svg id="graph" class="graph">
<g id="viewport">
<title>J2DTevBlock16</title>
<!-- Node1 -->
<g id="Node000001" class="node">
<title>Node1</title>
<g id="a_Node000001"><a xlink:title=" ">
<polygon fill="#999999" stroke="#666666" points="697,-221.13 612,-221.13 612,-201.88 697,-201.88 697,-221.13"/>
<text text-anchor="middle" x="654.5" y="-207.63" font-family="Helvetica,sans-Serif" font-size="10.00">J2DTevBlock16</text>
</a>
</g>
</g>
<!-- Node2 -->
<g id="Node000002" class="node">
<title>Node2</title>
<g id="a_Node000002"><a xlink:href="classJ2DTevBlock.html" target="_top" xlink:title=" ">
<polygon fill="white" stroke="#666666" points="452.25,-384.13 377.75,-384.13 377.75,-364.88 452.25,-364.88 452.25,-384.13"/>
<text text-anchor="middle" x="415" y="-370.63" font-family="Helvetica,sans-Serif" font-size="10.00">J2DTevBlock</text>
</a>
</g>
</g>
<!-- Node2&#45;&gt;Node1 -->
<g id="edge1_Node000001_Node000002" class="edge">
<title>Node2&#45;&gt;Node1</title>
<g id="a_edge1_Node000001_Node000002"><a xlink:title=" ">
<path fill="none" stroke="#63b8ff" d="M463.66,-381.85C502.52,-385.15 556.87,-383.31 594,-355.51 638.82,-321.95 650.06,-248.51 652.72,-221.63"/>
<polygon fill="#63b8ff" stroke="#63b8ff" points="464.44,-378.41 454.14,-380.9 463.74,-385.38 464.44,-378.41"/>
</a>
</g>
</g>
<!-- Node3 -->
<g id="Node000003" class="node">
<title>Node3</title>
<g id="a_Node000003"><a xlink:href="classJ2DTevOrder.html" target="_top" xlink:title=" ">
<polygon fill="white" stroke="#666666" points="451.88,-347.13 378.12,-347.13 378.12,-327.88 451.88,-327.88 451.88,-347.13"/>
<text text-anchor="middle" x="415" y="-333.63" font-family="Helvetica,sans-Serif" font-size="10.00">J2DTevOrder</text>
</a>
</g>
</g>
<!-- Node3&#45;&gt;Node1 -->
<g id="edge2_Node000001_Node000003" class="edge">
<title>Node3&#45;&gt;Node1</title>
<g id="a_edge2_Node000001_Node000003"><a xlink:title=" ">
<path fill="none" stroke="#9a32cd" stroke-dasharray="5,2" d="M463.67,-341.61C501.98,-342.52 555.55,-338.19 594,-312.51 627.34,-290.23 644.6,-242.43 650.79,-221.58"/>
<polygon fill="#9a32cd" stroke="#9a32cd" points="463.95,-338.12 453.82,-341.23 463.68,-345.11 463.95,-338.12"/>
</a>
</g>
<text text-anchor="middle" x="544.12" y="-342.26" font-family="Helvetica,sans-Serif" font-size="10.00" fill="grey"> mTevOrder</text>
</g>
<!-- Node4 -->
<g id="Node000004" class="node">
<title>Node4</title>
<g id="a_Node000004"><a xlink:href="structJ2DTevOrderInfo.html" target="_top" xlink:title=" ">
<polygon fill="white" stroke="#666666" points="250.25,-347.13 160,-347.13 160,-327.88 250.25,-327.88 250.25,-347.13"/>
<text text-anchor="middle" x="205.12" y="-333.63" font-family="Helvetica,sans-Serif" font-size="10.00">J2DTevOrderInfo</text>
</a>
</g>
</g>
<!-- Node4&#45;&gt;Node3 -->
<g id="edge3_Node000003_Node000004" class="edge">
<title>Node4&#45;&gt;Node3</title>
<g id="a_edge3_Node000003_Node000004"><a xlink:title=" ">
<path fill="none" stroke="#9a32cd" stroke-dasharray="5,2" d="M261.78,-337.51C298.58,-337.51 345.77,-337.51 377.78,-337.51"/>
<polygon fill="#9a32cd" stroke="#9a32cd" points="262.23,-334.01 252.23,-337.51 262.23,-341.01 262.23,-334.01"/>
</a>
</g>
<text text-anchor="middle" x="302" y="-339.26" font-family="Helvetica,sans-Serif" font-size="10.00" fill="grey"> mTevOrderInfo</text>
</g>
<!-- Node5 -->
<g id="Node000005" class="node">
<title>Node5</title>
<g id="a_Node000005"><a xlink:href="structJ2DGXColorS10.html" target="_top" xlink:title=" ">
<polygon fill="white" stroke="#666666" points="458.62,-310.13 371.38,-310.13 371.38,-290.88 458.62,-290.88 458.62,-310.13"/>
<text text-anchor="middle" x="415" y="-296.63" font-family="Helvetica,sans-Serif" font-size="10.00">J2DGXColorS10</text>
</a>
</g>
</g>
<!-- Node5&#45;&gt;Node1 -->
<g id="edge4_Node000001_Node000005" class="edge">
<title>Node5&#45;&gt;Node1</title>
<g id="a_edge4_Node000001_Node000005"><a xlink:title=" ">
<path fill="none" stroke="#9a32cd" stroke-dasharray="5,2" d="M470.42,-300.29C507.14,-298.13 555.7,-291.23 594,-271.51 617.22,-259.55 636.91,-235.21 646.76,-221.49"/>
<polygon fill="#9a32cd" stroke="#9a32cd" points="470.28,-296.8 460.45,-300.77 470.61,-303.79 470.28,-296.8"/>
</a>
</g>
<text text-anchor="middle" x="544.12" y="-299.26" font-family="Helvetica,sans-Serif" font-size="10.00" fill="grey"> mTevColor</text>
</g>
<!-- Node6 -->
<g id="Node000006" class="node">
<title>Node6</title>
<g id="a_Node000006"><a xlink:href="struct__GXColorS10.html" target="_top" xlink:title=" ">
<polygon fill="white" stroke="#666666" points="240.12,-310.13 170.12,-310.13 170.12,-290.88 240.12,-290.88 240.12,-310.13"/>
<text text-anchor="middle" x="205.12" y="-296.63" font-family="Helvetica,sans-Serif" font-size="10.00">GXColorS10</text>
</a>
</g>
</g>
<!-- Node6&#45;&gt;Node5 -->
<g id="edge5_Node000005_Node000006" class="edge">
<title>Node6&#45;&gt;Node5</title>
<g id="a_edge5_Node000005_Node000006"><a xlink:title=" ">
<path fill="none" stroke="#63b8ff" d="M251.93,-300.51C287.41,-300.51 336.21,-300.51 370.97,-300.51"/>
<polygon fill="#63b8ff" stroke="#63b8ff" points="251.96,-297.01 241.96,-300.51 251.96,-304.01 251.96,-297.01"/>
</a>
</g>
</g>
<!-- Node7 -->
<g id="Node000007" class="node">
<title>Node7</title>
<g id="a_Node000007"><a xlink:href="classJ2DTevStage.html" target="_top" xlink:title=" ">
<polygon fill="white" stroke="#666666" points="452.62,-273.13 377.38,-273.13 377.38,-253.88 452.62,-253.88 452.62,-273.13"/>
<text text-anchor="middle" x="415" y="-259.63" font-family="Helvetica,sans-Serif" font-size="10.00">J2DTevStage</text>
</a>
</g>
</g>
<!-- Node7&#45;&gt;Node1 -->
<g id="edge6_Node000001_Node000007" class="edge">
<title>Node7&#45;&gt;Node1</title>
<g id="a_edge6_Node000001_Node000007"><a xlink:title=" ">
<path fill="none" stroke="#9a32cd" stroke-dasharray="5,2" d="M464.36,-260.47C500.61,-257.3 551.14,-250.96 594,-238.51 608.27,-234.36 623.52,-227.39 635,-221.57"/>
<polygon fill="#9a32cd" stroke="#9a32cd" points="464.31,-256.97 454.63,-261.27 464.88,-263.94 464.31,-256.97"/>
</a>
</g>
<text text-anchor="middle" x="544.12" y="-258.26" font-family="Helvetica,sans-Serif" font-size="10.00" fill="grey"> mTevStage</text>
</g>
<!-- Node8 -->
<g id="Node000008" class="node">
<title>Node8</title>
<g id="a_Node000008"><a xlink:href="structJUtility_1_1TColor.html" target="_top" xlink:title=" ">
<polygon fill="white" stroke="#666666" points="244.62,-205.13 165.62,-205.13 165.62,-185.88 244.62,-185.88 244.62,-205.13"/>
<text text-anchor="middle" x="205.12" y="-191.63" font-family="Helvetica,sans-Serif" font-size="10.00">JUtility::TColor</text>
</a>
</g>
</g>
<!-- Node8&#45;&gt;Node1 -->
<g id="edge7_Node000001_Node000008" class="edge">
<title>Node8&#45;&gt;Node1</title>
<g id="a_edge7_Node000001_Node000008"><a xlink:title=" ">
<path fill="none" stroke="#9a32cd" stroke-dasharray="5,2" d="M252.83,-208.02C258.01,-209.03 263.22,-209.9 268.25,-210.51 392.43,-225.45 540.75,-219.09 611.69,-214.58"/>
<polygon fill="#9a32cd" stroke="#9a32cd" points="253.67,-204.62 243.15,-205.92 252.18,-211.46 253.67,-204.62"/>
</a>
</g>
<text text-anchor="middle" x="415" y="-221.26" font-family="Helvetica,sans-Serif" font-size="10.00" fill="grey"> mTevKColor</text>
</g>
<!-- Node18 -->
<g id="Node000018" class="node">
<title>Node18</title>
<g id="a_Node000018"><a xlink:href="classJUTFont.html" target="_top" xlink:title=" ">
<polygon fill="white" stroke="#666666" points="442.12,-188.13 387.88,-188.13 387.88,-168.88 442.12,-168.88 442.12,-188.13"/>
<text text-anchor="middle" x="415" y="-174.63" font-family="Helvetica,sans-Serif" font-size="10.00">JUTFont</text>
</a>
</g>
</g>
<!-- Node8&#45;&gt;Node18 -->
<g id="edge19_Node000018_Node000008" class="edge">
<title>Node8&#45;&gt;Node18</title>
<g id="a_edge19_Node000018_Node000008"><a xlink:title=" ">
<path fill="none" stroke="#9a32cd" stroke-dasharray="5,2" d="M231.77,-179.91C242.61,-174.18 255.64,-168.39 268.25,-165.51 309.23,-156.13 358.14,-164.31 387.6,-171.27"/>
<polygon fill="#9a32cd" stroke="#9a32cd" points="230.08,-176.84 223.06,-184.78 233.5,-182.95 230.08,-176.84"/>
</a>
</g>
<text text-anchor="middle" x="302" y="-201.01" font-family="Helvetica,sans-Serif" font-size="10.00" fill="grey"> mColor1</text>
<text text-anchor="middle" x="302" y="-189.76" font-family="Helvetica,sans-Serif" font-size="10.00" fill="grey">mColor2</text>
<text text-anchor="middle" x="302" y="-178.51" font-family="Helvetica,sans-Serif" font-size="10.00" fill="grey">mColor3</text>
<text text-anchor="middle" x="302" y="-167.26" font-family="Helvetica,sans-Serif" font-size="10.00" fill="grey">mColor4</text>
</g>
<!-- Node9 -->
<g id="Node000009" class="node">
<title>Node9</title>
<g id="a_Node000009"><a xlink:href="struct__GXColor.html" target="_top" xlink:title=" ">
<polygon fill="white" stroke="#666666" points="59.88,-205.13 7.12,-205.13 7.12,-185.88 59.88,-185.88 59.88,-205.13"/>
<text text-anchor="middle" x="33.5" y="-191.63" font-family="Helvetica,sans-Serif" font-size="10.00">GXColor</text>
</a>
</g>
</g>
<!-- Node9&#45;&gt;Node8 -->
<g id="edge8_Node000008_Node000009" class="edge">
<title>Node9&#45;&gt;Node8</title>
<g id="a_edge8_Node000008_Node000009"><a xlink:title=" ">
<path fill="none" stroke="#63b8ff" d="M71.46,-195.51C99.17,-195.51 137,-195.51 165.18,-195.51"/>
<polygon fill="#63b8ff" stroke="#63b8ff" points="71.78,-192.01 61.78,-195.51 71.78,-199.01 71.78,-192.01"/>
</a>
</g>
</g>
<!-- Node10 -->
<g id="Node000010" class="node">
<title>Node10</title>
<g id="a_Node000010"><a xlink:href="classJ2DTevSwapModeTable.html" target="_top" xlink:title=" ">
<polygon fill="white" stroke="#666666" points="476.25,-151.13 353.75,-151.13 353.75,-131.88 476.25,-131.88 476.25,-151.13"/>
<text text-anchor="middle" x="415" y="-137.63" font-family="Helvetica,sans-Serif" font-size="10.00">J2DTevSwapModeTable</text>
</a>
</g>
</g>
<!-- Node10&#45;&gt;Node1 -->
<g id="edge9_Node000001_Node000010" class="edge">
<title>Node10&#45;&gt;Node1</title>
<g id="a_edge9_Node000001_Node000010"><a xlink:title=" ">
<path fill="none" stroke="#9a32cd" stroke-dasharray="5,2" d="M487.74,-145.77C520.99,-149.57 560.48,-156.75 594,-170.26 612.65,-177.78 631.23,-192.01 642.54,-201.63"/>
<polygon fill="#9a32cd" stroke="#9a32cd" points="488.53,-142.34 478.22,-144.77 487.8,-149.3 488.53,-142.34"/>
</a>
</g>
<text text-anchor="middle" x="544.12" y="-171.26" font-family="Helvetica,sans-Serif" font-size="10.00" fill="grey"> mTevSwapModeTable</text>
</g>
<!-- Node11 -->
<g id="Node000011" class="node">
<title>Node11</title>
<g id="a_Node000011"><a xlink:href="classJ2DIndTevStage.html" target="_top" xlink:title=" ">
<polygon fill="white" stroke="#666666" points="459.38,-114.13 370.62,-114.13 370.62,-94.88 459.38,-94.88 459.38,-114.13"/>
<text text-anchor="middle" x="415" y="-100.63" font-family="Helvetica,sans-Serif" font-size="10.00">J2DIndTevStage</text>
</a>
</g>
</g>
<!-- Node11&#45;&gt;Node1 -->
<g id="edge10_Node000001_Node000011" class="edge">
<title>Node11&#45;&gt;Node1</title>
<g id="a_edge10_Node000001_Node000011"><a xlink:title=" ">
<path fill="none" stroke="#9a32cd" stroke-dasharray="5,2" d="M470.87,-102.16C508.05,-102.99 556.98,-109.02 594,-131.26 622.25,-148.23 641.34,-184.21 649.31,-201.64"/>
<polygon fill="#9a32cd" stroke="#9a32cd" points="471.27,-98.66 461.24,-102.07 471.21,-105.66 471.27,-98.66"/>
</a>
</g>
<text text-anchor="middle" x="544.12" y="-132.26" font-family="Helvetica,sans-Serif" font-size="10.00" fill="grey"> mIndTevStage</text>
</g>
<!-- Node12 -->
<g id="Node000012" class="node">
<title>Node12</title>
<g id="a_Node000012"><a xlink:href="classJUTTexture.html" target="_top" xlink:title=" ">
<polygon fill="white" stroke="#666666" points="448.5,-77.13 381.5,-77.13 381.5,-57.88 448.5,-57.88 448.5,-77.13"/>
<text text-anchor="middle" x="415" y="-63.63" font-family="Helvetica,sans-Serif" font-size="10.00">JUTTexture</text>
</a>
</g>
</g>
<!-- Node12&#45;&gt;Node1 -->
<g id="edge11_Node000001_Node000012" class="edge">
<title>Node12&#45;&gt;Node1</title>
<g id="a_edge11_Node000001_Node000012"><a xlink:title=" ">
<path fill="none" stroke="#9a32cd" stroke-dasharray="5,2" d="M460.3,-61.48C499.1,-58.63 555.18,-60.63 594,-88.26 633.3,-116.22 647.69,-177.34 651.96,-201.44"/>
<polygon fill="#9a32cd" stroke="#9a32cd" points="460.02,-58 450.37,-62.37 460.64,-64.97 460.02,-58"/>
</a>
</g>
<text text-anchor="middle" x="544.12" y="-89.26" font-family="Helvetica,sans-Serif" font-size="10.00" fill="grey"> mTexture</text>
</g>
<!-- Node13 -->
<g id="Node000013" class="node">
<title>Node13</title>
<g id="a_Node000013"><a xlink:href="struct__GXTexObj.html" target="_top" xlink:title=" ">
<polygon fill="white" stroke="#666666" points="238.25,-139.13 172,-139.13 172,-119.88 238.25,-119.88 238.25,-139.13"/>
<text text-anchor="middle" x="205.12" y="-125.63" font-family="Helvetica,sans-Serif" font-size="10.00">_GXTexObj</text>
</a>
</g>
</g>
<!-- Node13&#45;&gt;Node12 -->
<g id="edge12_Node000012_Node000013" class="edge">
<title>Node13&#45;&gt;Node12</title>
<g id="a_edge12_Node000012_Node000013"><a xlink:title=" ">
<path fill="none" stroke="#9a32cd" stroke-dasharray="5,2" d="M250.02,-123.4C275.81,-118.75 308.58,-110.97 335.75,-98.51 344.72,-94.39 344.9,-89.87 353.75,-85.51 362.27,-81.31 371.96,-77.88 381.03,-75.19"/>
<polygon fill="#9a32cd" stroke="#9a32cd" points="249.47,-119.94 240.2,-125.07 250.64,-126.84 249.47,-119.94"/>
</a>
</g>
<text text-anchor="middle" x="302" y="-120.26" font-family="Helvetica,sans-Serif" font-size="10.00" fill="grey"> mTexObj</text>
</g>
<!-- Node14 -->
<g id="Node000014" class="node">
<title>Node14</title>
<g id="a_Node000014"><a xlink:href="structResTIMG.html" target="_top" xlink:title="Image data header.">
<polygon fill="white" stroke="#666666" points="234.12,-102.13 176.12,-102.13 176.12,-82.88 234.12,-82.88 234.12,-102.13"/>
<text text-anchor="middle" x="205.12" y="-88.63" font-family="Helvetica,sans-Serif" font-size="10.00">ResTIMG</text>
</a>
</g>
</g>
<!-- Node14&#45;&gt;Node12 -->
<g id="edge13_Node000012_Node000014" class="edge">
<title>Node14&#45;&gt;Node12</title>
<g id="a_edge13_Node000012_Node000014"><a xlink:title=" ">
<path fill="none" stroke="#9a32cd" stroke-dasharray="5,2" d="M245.83,-87.73C285.07,-83.01 344.39,-75.88 381.08,-71.47"/>
<polygon fill="#9a32cd" stroke="#9a32cd" points="245.61,-84.23 236.1,-88.9 246.44,-91.18 245.61,-84.23"/>
</a>
</g>
<text text-anchor="middle" x="302" y="-85.26" font-family="Helvetica,sans-Serif" font-size="10.00" fill="grey"> mTexInfo</text>
</g>
<!-- Node15 -->
<g id="Node000015" class="node">
<title>Node15</title>
<g id="a_Node000015"><a xlink:href="classJUTPalette.html" target="_top" xlink:title=" ">
<polygon fill="white" stroke="#666666" points="237.88,-40.13 172.38,-40.13 172.38,-20.88 237.88,-20.88 237.88,-40.13"/>
<text text-anchor="middle" x="205.12" y="-26.63" font-family="Helvetica,sans-Serif" font-size="10.00">JUTPalette</text>
</a>
</g>
</g>
<!-- Node15&#45;&gt;Node1 -->
<g id="edge17_Node000001_Node000015" class="edge">
<title>Node15&#45;&gt;Node1</title>
<g id="a_edge17_Node000001_Node000015"><a xlink:title=" ">
<path fill="none" stroke="#9a32cd" stroke-dasharray="5,2" d="M248.98,-18.98C327.14,-0.74 493.97,24.91 594,-56.51 640.72,-94.53 650.81,-173.78 652.94,-201.6"/>
<polygon fill="#9a32cd" stroke="#9a32cd" points="248.48,-15.49 239.58,-21.24 250.13,-22.3 248.48,-15.49"/>
</a>
</g>
<text text-anchor="middle" x="415" y="-8.26" font-family="Helvetica,sans-Serif" font-size="10.00" fill="grey"> mPalette</text>
</g>
<!-- Node15&#45;&gt;Node12 -->
<g id="edge14_Node000012_Node000015" class="edge">
<title>Node15&#45;&gt;Node12</title>
<g id="a_edge14_Node000012_Node000015"><a xlink:title=" ">
<path fill="none" stroke="#9a32cd" stroke-dasharray="5,2" d="M249.26,-36.22C274.54,-39.76 307.04,-44.64 335.75,-50.01 350.8,-52.82 367.37,-56.44 381.36,-59.67"/>
<polygon fill="#9a32cd" stroke="#9a32cd" points="250.08,-32.8 239.69,-34.89 249.12,-39.73 250.08,-32.8"/>
</a>
</g>
<text text-anchor="middle" x="302" y="-62.51" font-family="Helvetica,sans-Serif" font-size="10.00" fill="grey"> field_0x2c</text>
<text text-anchor="middle" x="302" y="-51.26" font-family="Helvetica,sans-Serif" font-size="10.00" fill="grey">mEmbPalette</text>
</g>
<!-- Node16 -->
<g id="Node000016" class="node">
<title>Node16</title>
<g id="a_Node000016"><a xlink:href="struct__GXTlutObj.html" target="_top" xlink:title=" ">
<polygon fill="white" stroke="#666666" points="67,-59.13 0,-59.13 0,-39.88 67,-39.88 67,-59.13"/>
<text text-anchor="middle" x="33.5" y="-45.63" font-family="Helvetica,sans-Serif" font-size="10.00">_GXTlutObj</text>
</a>
</g>
</g>
<!-- Node16&#45;&gt;Node15 -->
<g id="edge15_Node000015_Node000016" class="edge">
<title>Node16&#45;&gt;Node15</title>
<g id="a_edge15_Node000015_Node000016"><a xlink:title=" ">
<path fill="none" stroke="#9a32cd" stroke-dasharray="5,2" d="M78.38,-44.59C107.7,-41.31 145.6,-37.06 172.1,-34.09"/>
<polygon fill="#9a32cd" stroke="#9a32cd" points="78.26,-41.08 68.71,-45.67 79.04,-48.04 78.26,-41.08"/>
</a>
</g>
<text text-anchor="middle" x="113.5" y="-45.26" font-family="Helvetica,sans-Serif" font-size="10.00" fill="grey"> mTlutObj</text>
</g>
<!-- Node17 -->
<g id="Node000017" class="node">
<title>Node17</title>
<g id="a_Node000017"><a xlink:href="structResTLUT.html" target="_top" xlink:title=" ">
<polygon fill="white" stroke="#666666" points="62.88,-22.13 4.12,-22.13 4.12,-2.88 62.88,-2.88 62.88,-22.13"/>
<text text-anchor="middle" x="33.5" y="-8.63" font-family="Helvetica,sans-Serif" font-size="10.00">ResTLUT</text>
</a>
</g>
</g>
<!-- Node17&#45;&gt;Node15 -->
<g id="edge16_Node000015_Node000017" class="edge">
<title>Node17&#45;&gt;Node15</title>
<g id="a_edge16_Node000015_Node000017"><a xlink:title=" ">
<path fill="none" stroke="#9a32cd" stroke-dasharray="5,2" d="M74.7,-12.1C94.96,-12.35 119.87,-13.36 142,-16.26 151.87,-17.55 162.48,-19.69 172.09,-21.93"/>
<polygon fill="#9a32cd" stroke="#9a32cd" points="74.9,-8.6 64.88,-12.04 74.86,-15.6 74.9,-8.6"/>
</a>
</g>
<text text-anchor="middle" x="113.5" y="-18.26" font-family="Helvetica,sans-Serif" font-size="10.00" fill="grey"> mColorTable</text>
</g>
<!-- Node18&#45;&gt;Node1 -->
<g id="edge18_Node000001_Node000018" class="edge">
<title>Node18&#45;&gt;Node1</title>
<g id="a_edge18_Node000001_Node000018"><a xlink:title=" ">
<path fill="none" stroke="#9a32cd" stroke-dasharray="5,2" d="M453.79,-181.95C489.91,-185.47 545.84,-191.51 594,-199.26 599.73,-200.18 605.74,-201.27 611.65,-202.41"/>
<polygon fill="#9a32cd" stroke="#9a32cd" points="454.13,-178.47 443.84,-181 453.47,-185.43 454.13,-178.47"/>
</a>
</g>
<text text-anchor="middle" x="544.12" y="-200.26" font-family="Helvetica,sans-Serif" font-size="10.00" fill="grey"> mFont</text>
</g>
</g>
</svg>

<g id="navigator" transform="translate(0 0)" fill="#404254">
  <rect fill="#f2f5e9" fill-opacity="0.5" stroke="#606060" stroke-width=".5" x="0" y="0" width="60" height="60"/>
  <use id="zoomplus" xlink:href="#zoomPlus" x="17" y="9" onmousedown="handleZoom(evt,'in')"/>
  <use id="zoomminus" xlink:href="#zoomMin" x="42" y="9" onmousedown="handleZoom(evt,'out')"/>
  <use id="reset" xlink:href="#resetDef" x="30" y="36" onmousedown="handleReset()"/>
   <use id="arrowup" xlink:href="#arrowUp" x="0" y="0" onmousedown="handlePan(0,-1)"/>
  <use id="arrowright" xlink:href="#arrowRight" x="0" y="0" onmousedown="handlePan(1,0)"/>
  <use id="arrowdown" xlink:href="#arrowDown" x="0" y="0" onmousedown="handlePan(0,1)"/>
  <use id="arrowleft" xlink:href="#arrowLeft" x="0" y="0" onmousedown="handlePan(-1,0)"/>
</g>
<svg viewBox="0 0 15 15" width="100%" height="30px" preserveAspectRatio="xMaxYMin meet">
 <g id="arrow_out" transform="scale(0.3 0.3)">
  <a xlink:href="classJ2DTevBlock16__coll__graph_org.svg" target="_base">
   <rect id="button" ry="5" rx="5" y="6" x="6" height="38" width="38"
        fill="#f2f5e9" fill-opacity="0.5" stroke="#606060" stroke-width="1.0"/>
   <path id="arrow"
     d="M 11.500037,31.436501 C 11.940474,20.09759 22.043105,11.32322 32.158766,21.979434 L 37.068811,17.246167 C 37.068811,17.246167 37.088388,32 37.088388,32 L 22.160133,31.978069 C 22.160133,31.978069 26.997745,27.140456 26.997745,27.140456 C 18.528582,18.264221 13.291696,25.230495 11.500037,31.436501 z"
     style="fill:#404040;"/>
  </a>
 </g>
</svg>

<style type='text/css'>
<![CDATA[
[data-mouse-over-selected='false'] { opacity: 0.7; }
[data-mouse-over-selected='true']  { opacity: 1.0; }
]]>
</style>
<script type="application/ecmascript"><![CDATA[
document.addEventListener('DOMContentLoaded', (event) => {
  highlightEdges();
  highlightAdjacentNodes();
});
]]></script>
</svg>
