<?xml version="1.0" encoding="UTF-8" standalone="no"?>
<!DOCTYPE svg PUBLIC "-//W3C//DTD SVG 1.1//EN"
 "http://www.w3.org/Graphics/SVG/1.1/DTD/svg11.dtd">
<!-- Generated by graphviz version 9.0.0 (20230911.1827)
 -->
<!-- Title: dCcD_GAtTgCoCommonBase Pages: 1 -->
<svg width="280pt" height="83pt"
 viewBox="0.00 0.00 280.25 82.50" xmlns="http://www.w3.org/2000/svg" xmlns:xlink="http://www.w3.org/1999/xlink">

<svg id="main" version="1.1" xmlns="http://www.w3.org/2000/svg" xmlns:xlink="http://www.w3.org/1999/xlink" xml:space="preserve" onload="init(evt)">
<style type="text/css"><![CDATA[
.node, .edge {opacity: 0.7;}
.node.selected, .edge.selected {opacity: 1;}
.edge:hover path { stroke: red; }
.edge:hover polygon { stroke: red; fill: red; }
]]></style>
<script type="application/ecmascript" xlink:href="svg.min.js"/>
<svg id="graph" class="graph">
<g id="graph0" class="graph" transform="scale(1 1) rotate(0) translate(4 78.5)">
<title>dCcD_GAtTgCoCommonBase</title>
<!-- Node1 -->
<g id="Node000001" class="node">
<title>Node1</title>
<g id="a_Node000001"><a xlink:title=" ">
<polygon fill="#999999" stroke="#666666" points="209.38,-74.5 62.12,-74.5 62.12,-55.25 209.38,-55.25 209.38,-74.5"/>
<text text-anchor="middle" x="135.75" y="-61" font-family="Helvetica,sans-Serif" font-size="10.00">dCcD_GAtTgCoCommonBase</text>
</a>
</g>
</g>
<!-- Node2 -->
<g id="Node000002" class="node">
<title>Node2</title>
<g id="a_Node000002"><a xlink:href="classdCcD__GObjAt.html" target="_top" xlink:title=" ">
<polygon fill="white" stroke="#666666" points="77.5,-19.25 0,-19.25 0,0 77.5,0 77.5,-19.25"/>
<text text-anchor="middle" x="38.75" y="-5.75" font-family="Helvetica,sans-Serif" font-size="10.00">dCcD_GObjAt</text>
</a>
</g>
</g>
<!-- Node1&#45;&gt;Node2 -->
<g id="edge1_Node000001_Node000002" class="edge">
<title>Node1&#45;&gt;Node2</title>
<g id="a_edge1_Node000001_Node000002"><a xlink:title=" ">
<path fill="none" stroke="#63b8ff" d="M109.28,-49.34C92.04,-39.88 70.08,-27.83 55.29,-19.7"/>
<polygon fill="#63b8ff" stroke="#63b8ff" points="107.52,-52.37 117.97,-54.11 110.89,-46.23 107.52,-52.37"/>
</a>
</g>
</g>
<!-- Node3 -->
<g id="Node000003" class="node">
<title>Node3</title>
<g id="a_Node000003"><a xlink:href="classdCcD__GObjCo.html" target="_top" xlink:title=" ">
<polygon fill="white" stroke="#666666" points="175.62,-19.25 95.88,-19.25 95.88,0 175.62,0 175.62,-19.25"/>
<text text-anchor="middle" x="135.75" y="-5.75" font-family="Helvetica,sans-Serif" font-size="10.00">dCcD_GObjCo</text>
</a>
</g>
</g>
<!-- Node1&#45;&gt;Node3 -->
<g id="edge2_Node000001_Node000003" class="edge">
<title>Node1&#45;&gt;Node3</title>
<g id="a_edge2_Node000001_Node000003"><a xlink:title=" ">
<path fill="none" stroke="#63b8ff" d="M135.75,-43.63C135.75,-35.34 135.75,-26.17 135.75,-19.61"/>
<polygon fill="#63b8ff" stroke="#63b8ff" points="132.25,-43.57 135.75,-53.57 139.25,-43.57 132.25,-43.57"/>
</a>
</g>
</g>
<!-- Node4 -->
<g id="Node000004" class="node">
<title>Node4</title>
<g id="a_Node000004"><a xlink:href="classdCcD__GObjTg.html" target="_top" xlink:title=" ">
<polygon fill="white" stroke="#666666" points="272.25,-19.25 193.25,-19.25 193.25,0 272.25,0 272.25,-19.25"/>
<text text-anchor="middle" x="232.75" y="-5.75" font-family="Helvetica,sans-Serif" font-size="10.00">dCcD_GObjTg</text>
</a>
</g>
</g>
<!-- Node1&#45;&gt;Node4 -->
<g id="edge3_Node000001_Node000004" class="edge">
<title>Node1&#45;&gt;Node4</title>
<g id="a_edge3_Node000001_Node000004"><a xlink:title=" ">
<path fill="none" stroke="#63b8ff" d="M162.22,-49.34C179.46,-39.88 201.42,-27.83 216.21,-19.7"/>
<polygon fill="#63b8ff" stroke="#63b8ff" points="160.61,-46.23 153.53,-54.11 163.98,-52.37 160.61,-46.23"/>
</a>
</g>
</g>
</g>
</svg>
</svg>

<style type='text/css'>
<![CDATA[
[data-mouse-over-selected='false'] { opacity: 0.7; }
[data-mouse-over-selected='true']  { opacity: 1.0; }
]]>
</style>
<script type="application/ecmascript"><![CDATA[
document.addEventListener('DOMContentLoaded', (event) => {
  highlightEdges();
  highlightAdjacentNodes();
});
]]></script>
</svg>
