<?xml version="1.0" encoding="UTF-8" standalone="no"?>
<!DOCTYPE svg PUBLIC "-//W3C//DTD SVG 1.1//EN"
 "http://www.w3.org/Graphics/SVG/1.1/DTD/svg11.dtd">
<!-- Generated by graphviz version 9.0.0 (20230911.1827)
 -->
<!-- Title: dEvLib_callback_c Pages: 1 -->
<svg width="264pt" height="212pt"
 viewBox="0.00 0.00 263.50 212.25" xmlns="http://www.w3.org/2000/svg" xmlns:xlink="http://www.w3.org/1999/xlink">
<g id="graph0" class="graph" transform="scale(1 1) rotate(0) translate(4 208.25)">
<title>dEvLib_callback_c</title>
<!-- Node1 -->
<g id="Node000001" class="node">
<title>Node1</title>
<g id="a_Node000001"><a xlink:title=" ">
<polygon fill="#999999" stroke="#666666" points="97.75,-111.25 0,-111.25 0,-92 97.75,-92 97.75,-111.25"/>
<text text-anchor="middle" x="48.88" y="-97.75" font-family="Helvetica,sans-Serif" font-size="10.00">dEvLib_callback_c</text>
</a>
</g>
</g>
<!-- Node2 -->
<g id="Node000002" class="node">
<title>Node2</title>
<g id="a_Node000002"><a xlink:href="classdaObjHBombkoya__c.html" target="_top" xlink:title="Destructable Bomb House.">
<polygon fill="white" stroke="#666666" points="247.25,-204.25 142,-204.25 142,-185 247.25,-185 247.25,-204.25"/>
<text text-anchor="middle" x="194.62" y="-190.75" font-family="Helvetica,sans-Serif" font-size="10.00">daObjHBombkoya_c</text>
</a>
</g>
</g>
<!-- Node1&#45;&gt;Node2 -->
<g id="edge1_Node000001_Node000002" class="edge">
<title>Node1&#45;&gt;Node2</title>
<g id="a_edge1_Node000001_Node000002"><a xlink:title=" ">
<path fill="none" stroke="#63b8ff" d="M66.07,-120.17C81.81,-137.11 107.15,-161.72 133.75,-176.62 139.24,-179.7 145.32,-182.31 151.43,-184.5"/>
<polygon fill="#63b8ff" stroke="#63b8ff" points="68.7,-117.85 59.39,-112.78 63.5,-122.54 68.7,-117.85"/>
</a>
</g>
</g>
<!-- Node3 -->
<g id="Node000003" class="node">
<title>Node3</title>
<g id="a_Node000003"><a xlink:href="classdaObjSwBallA__c.html" target="_top" xlink:title="Ball Switch A.">
<polygon fill="white" stroke="#666666" points="239.38,-167.25 149.88,-167.25 149.88,-148 239.38,-148 239.38,-167.25"/>
<text text-anchor="middle" x="194.62" y="-153.75" font-family="Helvetica,sans-Serif" font-size="10.00">daObjSwBallA_c</text>
</a>
</g>
</g>
<!-- Node1&#45;&gt;Node3 -->
<g id="edge2_Node000001_Node000003" class="edge">
<title>Node1&#45;&gt;Node3</title>
<g id="a_edge2_Node000001_Node000003"><a xlink:title=" ">
<path fill="none" stroke="#63b8ff" d="M80.11,-116.51C95.89,-123.96 115.63,-132.83 133.75,-139.62 141.27,-142.44 149.45,-145.14 157.27,-147.54"/>
<polygon fill="#63b8ff" stroke="#63b8ff" points="81.79,-113.43 71.26,-112.26 78.77,-119.74 81.79,-113.43"/>
</a>
</g>
</g>
<!-- Node4 -->
<g id="Node000004" class="node">
<title>Node4</title>
<g id="a_Node000004"><a xlink:href="classdaObjSwBallB__c.html" target="_top" xlink:title="Ball Switch B.">
<polygon fill="white" stroke="#666666" points="239.38,-130.25 149.88,-130.25 149.88,-111 239.38,-111 239.38,-130.25"/>
<text text-anchor="middle" x="194.62" y="-116.75" font-family="Helvetica,sans-Serif" font-size="10.00">daObjSwBallB_c</text>
</a>
</g>
</g>
<!-- Node1&#45;&gt;Node4 -->
<g id="edge3_Node000001_Node000004" class="edge">
<title>Node1&#45;&gt;Node4</title>
<g id="a_edge3_Node000001_Node000004"><a xlink:title=" ">
<path fill="none" stroke="#63b8ff" d="M109.29,-109.48C122.78,-111.26 136.88,-113.12 149.6,-114.81"/>
<polygon fill="#63b8ff" stroke="#63b8ff" points="110.01,-106.04 99.64,-108.2 109.1,-112.98 110.01,-106.04"/>
</a>
</g>
</g>
<!-- Node5 -->
<g id="Node000005" class="node">
<title>Node5</title>
<g id="a_Node000005"><a xlink:href="classdaObjVolcBall__c.html" target="_top" xlink:title="Volcano Ball.">
<polygon fill="white" stroke="#666666" points="238.62,-93.25 150.62,-93.25 150.62,-74 238.62,-74 238.62,-93.25"/>
<text text-anchor="middle" x="194.62" y="-79.75" font-family="Helvetica,sans-Serif" font-size="10.00">daObjVolcBall_c</text>
</a>
</g>
</g>
<!-- Node1&#45;&gt;Node5 -->
<g id="edge4_Node000001_Node000005" class="edge">
<title>Node1&#45;&gt;Node5</title>
<g id="a_edge4_Node000001_Node000005"><a xlink:title=" ">
<path fill="none" stroke="#63b8ff" d="M109.51,-94.16C123.28,-92.43 137.66,-90.63 150.56,-89.02"/>
<polygon fill="#63b8ff" stroke="#63b8ff" points="109.13,-90.68 99.64,-95.39 110,-97.62 109.13,-90.68"/>
</a>
</g>
</g>
<!-- Node6 -->
<g id="Node000006" class="node">
<title>Node6</title>
<g id="a_Node000006"><a xlink:href="classdaTagAtkItem__c.html" target="_top" xlink:title=" ">
<polygon fill="white" stroke="#666666" points="238.62,-56.25 150.62,-56.25 150.62,-37 238.62,-37 238.62,-56.25"/>
<text text-anchor="middle" x="194.62" y="-42.75" font-family="Helvetica,sans-Serif" font-size="10.00">daTagAtkItem_c</text>
</a>
</g>
</g>
<!-- Node1&#45;&gt;Node6 -->
<g id="edge5_Node000001_Node000006" class="edge">
<title>Node1&#45;&gt;Node6</title>
<g id="a_edge5_Node000001_Node000006"><a xlink:title=" ">
<path fill="none" stroke="#63b8ff" d="M80.79,-86.89C96.47,-79.7 115.92,-71.21 133.75,-64.62 141.39,-61.8 149.69,-59.09 157.61,-56.67"/>
<polygon fill="#63b8ff" stroke="#63b8ff" points="79.58,-83.6 71.98,-90.98 82.52,-89.95 79.58,-83.6"/>
</a>
</g>
</g>
<!-- Node7 -->
<g id="Node000007" class="node">
<title>Node7</title>
<g id="a_Node000007"><a xlink:href="classdalv4CandleDemoTag__c.html" target="_top" xlink:title="Arbiter&#39;s Grounds Torch Cutscene Tag.">
<polygon fill="white" stroke="#666666" points="255.5,-19.25 133.75,-19.25 133.75,0 255.5,0 255.5,-19.25"/>
<text text-anchor="middle" x="194.62" y="-5.75" font-family="Helvetica,sans-Serif" font-size="10.00">dalv4CandleDemoTag_c</text>
</a>
</g>
</g>
<!-- Node1&#45;&gt;Node7 -->
<g id="edge6_Node000001_Node000007" class="edge">
<title>Node1&#45;&gt;Node7</title>
<g id="a_edge6_Node000001_Node000007"><a xlink:title=" ">
<path fill="none" stroke="#63b8ff" d="M66.12,-83.34C81.89,-66.63 107.26,-42.36 133.75,-27.62 139.35,-24.51 145.54,-21.88 151.77,-19.67"/>
<polygon fill="#63b8ff" stroke="#63b8ff" points="63.62,-80.89 59.43,-90.62 68.78,-85.63 63.62,-80.89"/>
</a>
</g>
</g>
</g>
</svg>
