<?xml version="1.0" encoding="UTF-8" standalone="no"?>
<!DOCTYPE svg PUBLIC "-//W3C//DTD SVG 1.1//EN"
 "http://www.w3.org/Graphics/SVG/1.1/DTD/svg11.dtd">
<!-- Generated by graphviz version 9.0.0 (20230911.1827)
 -->
<!-- Title: cBgS_Chk Pages: 1 -->
<svg width="666pt" height="545pt"
 viewBox="0.00 0.00 666.25 545.25" xmlns="http://www.w3.org/2000/svg" xmlns:xlink="http://www.w3.org/1999/xlink">
<g id="graph0" class="graph" transform="scale(1 1) rotate(0) translate(4 541.25)">
<title>cBgS_Chk</title>
<!-- Node1 -->
<g id="Node000001" class="node">
<title>Node1</title>
<g id="a_Node000001"><a xlink:title=" ">
<polygon fill="#999999" stroke="#666666" points="62.5,-166.25 0,-166.25 0,-147 62.5,-147 62.5,-166.25"/>
<text text-anchor="middle" x="31.25" y="-152.75" font-family="Helvetica,sans-Serif" font-size="10.00">cBgS_Chk</text>
</a>
</g>
</g>
<!-- Node2 -->
<g id="Node000002" class="node">
<title>Node2</title>
<g id="a_Node000002"><a xlink:href="structcBgS__GndChk.html" target="_top" xlink:title=" ">
<polygon fill="white" stroke="#666666" points="185,-419.25 104.5,-419.25 104.5,-400 185,-400 185,-419.25"/>
<text text-anchor="middle" x="144.75" y="-405.75" font-family="Helvetica,sans-Serif" font-size="10.00">cBgS_GndChk</text>
</a>
</g>
</g>
<!-- Node1&#45;&gt;Node2 -->
<g id="edge1_Node000001_Node000002" class="edge">
<title>Node1&#45;&gt;Node2</title>
<g id="a_edge1_Node000001_Node000002"><a xlink:title=" ">
<path fill="none" stroke="#63b8ff" d="M40.85,-177.01C53.35,-206.55 77.35,-262.95 98.5,-310.62 112.98,-343.27 130.74,-381.68 139.05,-399.54"/>
<polygon fill="#63b8ff" stroke="#63b8ff" points="44.22,-175.99 37.1,-168.14 37.77,-178.72 44.22,-175.99"/>
</a>
</g>
</g>
<!-- Node11 -->
<g id="Node000011" class="node">
<title>Node11</title>
<g id="a_Node000011"><a xlink:href="structcBgS__LinChk.html" target="_top" xlink:title=" ">
<polygon fill="white" stroke="#666666" points="182.75,-301.25 106.75,-301.25 106.75,-282 182.75,-282 182.75,-301.25"/>
<text text-anchor="middle" x="144.75" y="-287.75" font-family="Helvetica,sans-Serif" font-size="10.00">cBgS_LinChk</text>
</a>
</g>
</g>
<!-- Node1&#45;&gt;Node11 -->
<g id="edge10_Node000001_Node000011" class="edge">
<title>Node1&#45;&gt;Node11</title>
<g id="a_edge10_Node000001_Node000011"><a xlink:title=" ">
<path fill="none" stroke="#63b8ff" d="M42.18,-176.73C53.68,-198.73 74.21,-234.25 98.5,-259.62 106.75,-268.24 117.62,-276.02 126.64,-281.75"/>
<polygon fill="#63b8ff" stroke="#63b8ff" points="45.35,-175.25 37.69,-167.93 39.11,-178.43 45.35,-175.25"/>
</a>
</g>
</g>
<!-- Node22 -->
<g id="Node000022" class="node">
<title>Node22</title>
<g id="a_Node000022"><a xlink:href="classcBgS__ShdwDraw.html" target="_top" xlink:title=" ">
<polygon fill="white" stroke="#666666" points="191,-250.25 98.5,-250.25 98.5,-231 191,-231 191,-250.25"/>
<text text-anchor="middle" x="144.75" y="-236.75" font-family="Helvetica,sans-Serif" font-size="10.00">cBgS_ShdwDraw</text>
</a>
</g>
</g>
<!-- Node1&#45;&gt;Node22 -->
<g id="edge21_Node000001_Node000022" class="edge">
<title>Node1&#45;&gt;Node22</title>
<g id="a_edge21_Node000001_Node000022"><a xlink:title=" ">
<path fill="none" stroke="#63b8ff" d="M54.41,-173.32C77.15,-190.45 111.77,-216.53 130.54,-230.67"/>
<polygon fill="#63b8ff" stroke="#63b8ff" points="56.78,-170.72 46.69,-167.5 52.57,-176.31 56.78,-170.72"/>
</a>
</g>
</g>
<!-- Node24 -->
<g id="Node000024" class="node">
<title>Node24</title>
<g id="a_Node000024"><a xlink:href="structdBgS__Acch.html" target="_top" xlink:title=" ">
<polygon fill="white" stroke="#666666" points="178.62,-185.25 110.88,-185.25 110.88,-166 178.62,-166 178.62,-185.25"/>
<text text-anchor="middle" x="144.75" y="-171.75" font-family="Helvetica,sans-Serif" font-size="10.00">dBgS_Acch</text>
</a>
</g>
</g>
<!-- Node1&#45;&gt;Node24 -->
<g id="edge23_Node000001_Node000024" class="edge">
<title>Node1&#45;&gt;Node24</title>
<g id="a_edge23_Node000001_Node000024"><a xlink:title=" ">
<path fill="none" stroke="#63b8ff" d="M73.94,-163.73C86.04,-165.79 99.08,-168.01 110.58,-169.97"/>
<polygon fill="#63b8ff" stroke="#63b8ff" points="74.66,-160.3 64.21,-162.07 73.48,-167.2 74.66,-160.3"/>
</a>
</g>
</g>
<!-- Node29 -->
<g id="Node000029" class="node">
<title>Node29</title>
<g id="a_Node000029"><a xlink:href="structdBgS__CaptPoly.html" target="_top" xlink:title=" ">
<polygon fill="white" stroke="#666666" points="186.88,-148.25 102.62,-148.25 102.62,-129 186.88,-129 186.88,-148.25"/>
<text text-anchor="middle" x="144.75" y="-134.75" font-family="Helvetica,sans-Serif" font-size="10.00">dBgS_CaptPoly</text>
</a>
</g>
</g>
<!-- Node1&#45;&gt;Node29 -->
<g id="edge28_Node000001_Node000029" class="edge">
<title>Node1&#45;&gt;Node29</title>
<g id="a_edge28_Node000001_Node000029"><a xlink:title=" ">
<path fill="none" stroke="#63b8ff" d="M73.78,-149.92C83.15,-148.41 93.09,-146.8 102.45,-145.29"/>
<polygon fill="#63b8ff" stroke="#63b8ff" points="73.53,-146.42 64.21,-151.47 74.64,-153.33 73.53,-146.42"/>
</a>
</g>
</g>
<!-- Node30 -->
<g id="Node000030" class="node">
<title>Node30</title>
<g id="a_Node000030"><a xlink:href="classdBgS__RoofChk.html" target="_top" xlink:title=" ">
<polygon fill="white" stroke="#666666" points="186.12,-111.25 103.38,-111.25 103.38,-92 186.12,-92 186.12,-111.25"/>
<text text-anchor="middle" x="144.75" y="-97.75" font-family="Helvetica,sans-Serif" font-size="10.00">dBgS_RoofChk</text>
</a>
</g>
</g>
<!-- Node1&#45;&gt;Node30 -->
<g id="edge29_Node000001_Node000030" class="edge">
<title>Node1&#45;&gt;Node30</title>
<g id="a_edge29_Node000001_Node000030"><a xlink:title=" ">
<path fill="none" stroke="#63b8ff" d="M58.61,-140.86C70.59,-133.97 85.07,-126.01 98.5,-119.62 104.3,-116.87 110.65,-114.16 116.7,-111.71"/>
<polygon fill="#63b8ff" stroke="#63b8ff" points="56.99,-137.75 50.12,-145.81 60.52,-143.8 56.99,-137.75"/>
</a>
</g>
</g>
<!-- Node33 -->
<g id="Node000033" class="node">
<title>Node33</title>
<g id="a_Node000033"><a xlink:href="classdBgS__SphChk.html" target="_top" xlink:title=" ">
<polygon fill="white" stroke="#666666" points="184.62,-74.25 104.88,-74.25 104.88,-55 184.62,-55 184.62,-74.25"/>
<text text-anchor="middle" x="144.75" y="-60.75" font-family="Helvetica,sans-Serif" font-size="10.00">dBgS_SphChk</text>
</a>
</g>
</g>
<!-- Node1&#45;&gt;Node33 -->
<g id="edge32_Node000001_Node000033" class="edge">
<title>Node1&#45;&gt;Node33</title>
<g id="a_edge32_Node000001_Node000033"><a xlink:title=" ">
<path fill="none" stroke="#63b8ff" d="M45.44,-137.46C57.59,-121.02 76.96,-97.67 98.5,-82.62 102.94,-79.53 107.98,-76.85 113.06,-74.58"/>
<polygon fill="#63b8ff" stroke="#63b8ff" points="42.7,-135.27 39.73,-145.44 48.4,-139.34 42.7,-135.27"/>
</a>
</g>
</g>
<!-- Node34 -->
<g id="Node000034" class="node">
<title>Node34</title>
<g id="a_Node000034"><a xlink:href="classdBgS__SplGrpChk.html" target="_top" xlink:title=" ">
<polygon fill="white" stroke="#666666" points="191,-37.25 98.5,-37.25 98.5,-18 191,-18 191,-37.25"/>
<text text-anchor="middle" x="144.75" y="-23.75" font-family="Helvetica,sans-Serif" font-size="10.00">dBgS_SplGrpChk</text>
</a>
</g>
</g>
<!-- Node1&#45;&gt;Node34 -->
<g id="edge33_Node000001_Node000034" class="edge">
<title>Node1&#45;&gt;Node34</title>
<g id="a_edge33_Node000001_Node000034"><a xlink:title=" ">
<path fill="none" stroke="#63b8ff" d="M39.8,-135.91C49.74,-111.27 69.43,-70.39 98.5,-45.62 102.23,-42.44 106.6,-39.78 111.11,-37.56"/>
<polygon fill="#63b8ff" stroke="#63b8ff" points="36.57,-134.55 36.25,-145.14 43.1,-137.06 36.57,-134.55"/>
</a>
</g>
</g>
<!-- Node3 -->
<g id="Node000003" class="node">
<title>Node3</title>
<g id="a_Node000003"><a xlink:href="structdBgS__GndChk.html" target="_top" xlink:title=" ">
<polygon fill="white" stroke="#666666" points="318,-482.25 237.5,-482.25 237.5,-463 318,-463 318,-482.25"/>
<text text-anchor="middle" x="277.75" y="-468.75" font-family="Helvetica,sans-Serif" font-size="10.00">dBgS_GndChk</text>
</a>
</g>
</g>
<!-- Node2&#45;&gt;Node3 -->
<g id="edge2_Node000002_Node000003" class="edge">
<title>Node2&#45;&gt;Node3</title>
<g id="a_edge2_Node000002_Node000003"><a xlink:title=" ">
<path fill="none" stroke="#63b8ff" d="M176.96,-424.64C201.32,-436.35 234.48,-452.3 255.75,-462.53"/>
<polygon fill="#63b8ff" stroke="#63b8ff" points="178.69,-421.58 168.16,-420.4 175.66,-427.89 178.69,-421.58"/>
</a>
</g>
</g>
<!-- Node4 -->
<g id="Node000004" class="node">
<title>Node4</title>
<g id="a_Node000004"><a xlink:href="classdBgS__CamGndChk.html" target="_top" xlink:title=" ">
<polygon fill="white" stroke="#666666" points="477.62,-537.25 376.88,-537.25 376.88,-518 477.62,-518 477.62,-537.25"/>
<text text-anchor="middle" x="427.25" y="-523.75" font-family="Helvetica,sans-Serif" font-size="10.00">dBgS_CamGndChk</text>
</a>
</g>
</g>
<!-- Node3&#45;&gt;Node4 -->
<g id="edge3_Node000003_Node000004" class="edge">
<title>Node3&#45;&gt;Node4</title>
<g id="a_edge3_Node000003_Node000004"><a xlink:title=" ">
<path fill="none" stroke="#63b8ff" d="M310.37,-487.38C326.39,-494.57 346.28,-503.07 364.5,-509.62 372.28,-512.42 380.71,-515.11 388.79,-517.51"/>
<polygon fill="#63b8ff" stroke="#63b8ff" points="311.88,-484.22 301.33,-483.27 308.99,-490.6 311.88,-484.22"/>
</a>
</g>
</g>
<!-- Node6 -->
<g id="Node000006" class="node">
<title>Node6</title>
<g id="a_Node000006"><a xlink:href="classdBgS__LinkGndChk.html" target="_top" xlink:title=" ">
<polygon fill="white" stroke="#666666" points="476.88,-500.25 377.62,-500.25 377.62,-481 476.88,-481 476.88,-500.25"/>
<text text-anchor="middle" x="427.25" y="-486.75" font-family="Helvetica,sans-Serif" font-size="10.00">dBgS_LinkGndChk</text>
</a>
</g>
</g>
<!-- Node3&#45;&gt;Node6 -->
<g id="edge5_Node000003_Node000006" class="edge">
<title>Node3&#45;&gt;Node6</title>
<g id="a_edge5_Node000003_Node000006"><a xlink:title=" ">
<path fill="none" stroke="#63b8ff" d="M329.29,-478.79C344.85,-480.69 361.94,-482.78 377.39,-484.66"/>
<polygon fill="#63b8ff" stroke="#63b8ff" points="330.13,-475.37 319.78,-477.63 329.28,-482.32 330.13,-475.37"/>
</a>
</g>
</g>
<!-- Node7 -->
<g id="Node000007" class="node">
<title>Node7</title>
<g id="a_Node000007"><a xlink:href="structdBgS__ObjGndChk.html" target="_top" xlink:title=" ">
<polygon fill="white" stroke="#666666" points="475,-463.25 379.5,-463.25 379.5,-444 475,-444 475,-463.25"/>
<text text-anchor="middle" x="427.25" y="-449.75" font-family="Helvetica,sans-Serif" font-size="10.00">dBgS_ObjGndChk</text>
</a>
</g>
</g>
<!-- Node3&#45;&gt;Node7 -->
<g id="edge6_Node000003_Node000007" class="edge">
<title>Node3&#45;&gt;Node7</title>
<g id="a_edge6_Node000003_Node000007"><a xlink:title=" ">
<path fill="none" stroke="#63b8ff" d="M329.61,-466.07C345.63,-464.01 363.25,-461.74 379,-459.71"/>
<polygon fill="#63b8ff" stroke="#63b8ff" points="329.25,-462.59 319.78,-467.34 330.14,-469.53 329.25,-462.59"/>
</a>
</g>
</g>
<!-- Node5 -->
<g id="Node000005" class="node">
<title>Node5</title>
<g id="a_Node000005"><a xlink:href="classdBgS__CamGndChk__Wtr.html" target="_top" xlink:title=" ">
<polygon fill="white" stroke="#666666" points="652.62,-537.25 531.62,-537.25 531.62,-518 652.62,-518 652.62,-537.25"/>
<text text-anchor="middle" x="592.12" y="-523.75" font-family="Helvetica,sans-Serif" font-size="10.00">dBgS_CamGndChk_Wtr</text>
</a>
</g>
</g>
<!-- Node4&#45;&gt;Node5 -->
<g id="edge4_Node000004_Node000005" class="edge">
<title>Node4&#45;&gt;Node5</title>
<g id="a_edge4_Node000004_Node000005"><a xlink:title=" ">
<path fill="none" stroke="#63b8ff" d="M489.32,-527.62C503.08,-527.62 517.66,-527.62 531.36,-527.62"/>
<polygon fill="#63b8ff" stroke="#63b8ff" points="489.52,-524.13 479.52,-527.63 489.52,-531.13 489.52,-524.13"/>
</a>
</g>
</g>
<!-- Node8 -->
<g id="Node000008" class="node">
<title>Node8</title>
<g id="a_Node000008"><a xlink:href="classdBgS__ObjGndChk__All.html" target="_top" xlink:title=" ">
<polygon fill="white" stroke="#666666" points="648.12,-500.25 536.12,-500.25 536.12,-481 648.12,-481 648.12,-500.25"/>
<text text-anchor="middle" x="592.12" y="-486.75" font-family="Helvetica,sans-Serif" font-size="10.00">dBgS_ObjGndChk_All</text>
</a>
</g>
</g>
<!-- Node7&#45;&gt;Node8 -->
<g id="edge7_Node000007_Node000008" class="edge">
<title>Node7&#45;&gt;Node8</title>
<g id="a_edge7_Node000007_Node000008"><a xlink:title=" ">
<path fill="none" stroke="#63b8ff" d="M483.86,-466.26C504.35,-470.91 527.29,-476.12 546.67,-480.53"/>
<polygon fill="#63b8ff" stroke="#63b8ff" points="484.76,-462.87 474.23,-464.07 483.21,-469.7 484.76,-462.87"/>
</a>
</g>
</g>
<!-- Node9 -->
<g id="Node000009" class="node">
<title>Node9</title>
<g id="a_Node000009"><a xlink:href="structdBgS__ObjGndChk__Spl.html" target="_top" xlink:title=" ">
<polygon fill="white" stroke="#666666" points="649.62,-463.25 534.62,-463.25 534.62,-444 649.62,-444 649.62,-463.25"/>
<text text-anchor="middle" x="592.12" y="-449.75" font-family="Helvetica,sans-Serif" font-size="10.00">dBgS_ObjGndChk_Spl</text>
</a>
</g>
</g>
<!-- Node7&#45;&gt;Node9 -->
<g id="edge8_Node000007_Node000009" class="edge">
<title>Node7&#45;&gt;Node9</title>
<g id="a_edge8_Node000007_Node000009"><a xlink:title=" ">
<path fill="none" stroke="#63b8ff" d="M486.44,-453.62C502.01,-453.62 518.82,-453.62 534.31,-453.62"/>
<polygon fill="#63b8ff" stroke="#63b8ff" points="486.87,-450.13 476.87,-453.63 486.87,-457.13 486.87,-450.13"/>
</a>
</g>
</g>
<!-- Node10 -->
<g id="Node000010" class="node">
<title>Node10</title>
<g id="a_Node000010"><a xlink:href="classdBgS__ObjGndChk__Wtr.html" target="_top" xlink:title=" ">
<polygon fill="white" stroke="#666666" points="650,-426.25 534.25,-426.25 534.25,-407 650,-407 650,-426.25"/>
<text text-anchor="middle" x="592.12" y="-412.75" font-family="Helvetica,sans-Serif" font-size="10.00">dBgS_ObjGndChk_Wtr</text>
</a>
</g>
</g>
<!-- Node7&#45;&gt;Node10 -->
<g id="edge9_Node000007_Node000010" class="edge">
<title>Node7&#45;&gt;Node10</title>
<g id="a_edge9_Node000007_Node000010"><a xlink:title=" ">
<path fill="none" stroke="#63b8ff" d="M483.86,-440.99C504.35,-436.34 527.29,-431.13 546.67,-426.72"/>
<polygon fill="#63b8ff" stroke="#63b8ff" points="483.21,-437.55 474.23,-443.18 484.76,-444.38 483.21,-437.55"/>
</a>
</g>
</g>
<!-- Node12 -->
<g id="Node000012" class="node">
<title>Node12</title>
<g id="a_Node000012"><a xlink:href="structdBgS__LinChk.html" target="_top" xlink:title=" ">
<polygon fill="white" stroke="#666666" points="315.75,-315.25 239.75,-315.25 239.75,-296 315.75,-296 315.75,-315.25"/>
<text text-anchor="middle" x="277.75" y="-301.75" font-family="Helvetica,sans-Serif" font-size="10.00">dBgS_LinChk</text>
</a>
</g>
</g>
<!-- Node11&#45;&gt;Node12 -->
<g id="edge11_Node000011_Node000012" class="edge">
<title>Node11&#45;&gt;Node12</title>
<g id="a_edge11_Node000011_Node000012"><a xlink:title=" ">
<path fill="none" stroke="#63b8ff" d="M194.09,-296.79C209.08,-298.39 225.35,-300.13 239.47,-301.64"/>
<polygon fill="#63b8ff" stroke="#63b8ff" points="194.76,-293.34 184.44,-295.76 194.02,-300.3 194.76,-293.34"/>
</a>
</g>
</g>
<!-- Node13 -->
<g id="Node000013" class="node">
<title>Node13</title>
<g id="a_Node000013"><a xlink:href="classdBgS__ArrowLinChk.html" target="_top" xlink:title=" ">
<polygon fill="white" stroke="#666666" points="478,-426.25 376.5,-426.25 376.5,-407 478,-407 478,-426.25"/>
<text text-anchor="middle" x="427.25" y="-412.75" font-family="Helvetica,sans-Serif" font-size="10.00">dBgS_ArrowLinChk</text>
</a>
</g>
</g>
<!-- Node12&#45;&gt;Node13 -->
<g id="edge12_Node000012_Node000013" class="edge">
<title>Node12&#45;&gt;Node13</title>
<g id="a_edge12_Node000012_Node000013"><a xlink:title=" ">
<path fill="none" stroke="#63b8ff" d="M291.64,-324.96C306.7,-346.08 333.54,-379.44 364.5,-398.62 369.53,-401.74 375.13,-404.34 380.83,-406.5"/>
<polygon fill="#63b8ff" stroke="#63b8ff" points="294.66,-323.17 286.09,-316.94 288.9,-327.15 294.66,-323.17"/>
</a>
</g>
</g>
<!-- Node14 -->
<g id="Node000014" class="node">
<title>Node14</title>
<g id="a_Node000014"><a xlink:href="classdBgS__BombLinChk.html" target="_top" xlink:title=" ">
<polygon fill="white" stroke="#666666" points="478,-389.25 376.5,-389.25 376.5,-370 478,-370 478,-389.25"/>
<text text-anchor="middle" x="427.25" y="-375.75" font-family="Helvetica,sans-Serif" font-size="10.00">dBgS_BombLinChk</text>
</a>
</g>
</g>
<!-- Node12&#45;&gt;Node14 -->
<g id="edge13_Node000012_Node000014" class="edge">
<title>Node12&#45;&gt;Node14</title>
<g id="a_edge13_Node000012_Node000014"><a xlink:title=" ">
<path fill="none" stroke="#63b8ff" d="M300.35,-322.31C317.09,-334.59 341.27,-350.94 364.5,-361.62 371.09,-364.66 378.32,-367.31 385.43,-369.58"/>
<polygon fill="#63b8ff" stroke="#63b8ff" points="302.73,-319.73 292.63,-316.54 298.53,-325.33 302.73,-319.73"/>
</a>
</g>
</g>
<!-- Node15 -->
<g id="Node000015" class="node">
<title>Node15</title>
<g id="a_Node000015"><a xlink:href="classdBgS__BoomerangLinChk.html" target="_top" xlink:title=" ">
<polygon fill="white" stroke="#666666" points="490,-352.25 364.5,-352.25 364.5,-333 490,-333 490,-352.25"/>
<text text-anchor="middle" x="427.25" y="-338.75" font-family="Helvetica,sans-Serif" font-size="10.00">dBgS_BoomerangLinChk</text>
</a>
</g>
</g>
<!-- Node12&#45;&gt;Node15 -->
<g id="edge14_Node000012_Node000015" class="edge">
<title>Node12&#45;&gt;Node15</title>
<g id="a_edge14_Node000012_Node000015"><a xlink:title=" ">
<path fill="none" stroke="#63b8ff" d="M327.13,-317.76C346.17,-322.54 367.77,-327.95 385.93,-332.51"/>
<polygon fill="#63b8ff" stroke="#63b8ff" points="327.99,-314.37 317.44,-315.33 326.29,-321.16 327.99,-314.37"/>
</a>
</g>
</g>
<!-- Node16 -->
<g id="Node000016" class="node">
<title>Node16</title>
<g id="a_Node000016"><a xlink:href="classdBgS__CamLinChk.html" target="_top" xlink:title=" ">
<polygon fill="white" stroke="#666666" points="475.38,-315.25 379.12,-315.25 379.12,-296 475.38,-296 475.38,-315.25"/>
<text text-anchor="middle" x="427.25" y="-301.75" font-family="Helvetica,sans-Serif" font-size="10.00">dBgS_CamLinChk</text>
</a>
</g>
</g>
<!-- Node12&#45;&gt;Node16 -->
<g id="edge15_Node000012_Node000016" class="edge">
<title>Node12&#45;&gt;Node16</title>
<g id="a_edge15_Node000012_Node000016"><a xlink:title=" ">
<path fill="none" stroke="#63b8ff" d="M327.08,-305.62C343.66,-305.62 362.19,-305.62 378.7,-305.62"/>
<polygon fill="#63b8ff" stroke="#63b8ff" points="327.48,-302.13 317.48,-305.63 327.48,-309.13 327.48,-302.13"/>
</a>
</g>
</g>
<!-- Node18 -->
<g id="Node000018" class="node">
<title>Node18</title>
<g id="a_Node000018"><a xlink:href="classdBgS__HorseLinChk.html" target="_top" xlink:title=" ">
<polygon fill="white" stroke="#666666" points="478.38,-278.25 376.12,-278.25 376.12,-259 478.38,-259 478.38,-278.25"/>
<text text-anchor="middle" x="427.25" y="-264.75" font-family="Helvetica,sans-Serif" font-size="10.00">dBgS_HorseLinChk</text>
</a>
</g>
</g>
<!-- Node12&#45;&gt;Node18 -->
<g id="edge17_Node000012_Node000018" class="edge">
<title>Node12&#45;&gt;Node18</title>
<g id="a_edge17_Node000012_Node000018"><a xlink:title=" ">
<path fill="none" stroke="#63b8ff" d="M327.13,-293.49C346.17,-288.71 367.77,-283.3 385.93,-278.74"/>
<polygon fill="#63b8ff" stroke="#63b8ff" points="326.29,-290.09 317.44,-295.92 327.99,-296.88 326.29,-290.09"/>
</a>
</g>
</g>
<!-- Node19 -->
<g id="Node000019" class="node">
<title>Node19</title>
<g id="a_Node000019"><a xlink:href="classdBgS__LinkLinChk.html" target="_top" xlink:title=" ">
<polygon fill="white" stroke="#666666" points="474.62,-241.25 379.88,-241.25 379.88,-222 474.62,-222 474.62,-241.25"/>
<text text-anchor="middle" x="427.25" y="-227.75" font-family="Helvetica,sans-Serif" font-size="10.00">dBgS_LinkLinChk</text>
</a>
</g>
</g>
<!-- Node12&#45;&gt;Node19 -->
<g id="edge18_Node000012_Node000019" class="edge">
<title>Node12&#45;&gt;Node19</title>
<g id="a_edge18_Node000012_Node000019"><a xlink:title=" ">
<path fill="none" stroke="#63b8ff" d="M323.48,-290.64C325.21,-289.68 326.89,-288.68 328.5,-287.62 347.96,-274.88 344.64,-261.75 364.5,-249.62 369.65,-246.48 375.37,-243.87 381.2,-241.69"/>
<polygon fill="#63b8ff" stroke="#63b8ff" points="322.09,-287.42 314.58,-294.89 325.11,-293.74 322.09,-287.42"/>
</a>
</g>
</g>
<!-- Node20 -->
<g id="Node000020" class="node">
<title>Node20</title>
<g id="a_Node000020"><a xlink:href="classdBgS__ObjLinChk.html" target="_top" xlink:title=" ">
<polygon fill="white" stroke="#666666" points="472.75,-204.25 381.75,-204.25 381.75,-185 472.75,-185 472.75,-204.25"/>
<text text-anchor="middle" x="427.25" y="-190.75" font-family="Helvetica,sans-Serif" font-size="10.00">dBgS_ObjLinChk</text>
</a>
</g>
</g>
<!-- Node12&#45;&gt;Node20 -->
<g id="edge19_Node000012_Node000020" class="edge">
<title>Node12&#45;&gt;Node20</title>
<g id="a_edge19_Node000012_Node000020"><a xlink:title=" ">
<path fill="none" stroke="#63b8ff" d="M325.68,-289.97C326.65,-289.22 327.6,-288.44 328.5,-287.62 355.92,-262.82 336.3,-236.54 364.5,-212.62 369.44,-208.44 375.31,-205.22 381.44,-202.75"/>
<polygon fill="#63b8ff" stroke="#63b8ff" points="324.17,-286.79 317.47,-294.99 327.82,-292.76 324.17,-286.79"/>
</a>
</g>
</g>
<!-- Node21 -->
<g id="Node000021" class="node">
<title>Node21</title>
<g id="a_Node000021"><a xlink:href="classdBgS__RopeLinChk.html" target="_top" xlink:title=" ">
<polygon fill="white" stroke="#666666" points="476.5,-167.25 378,-167.25 378,-148 476.5,-148 476.5,-167.25"/>
<text text-anchor="middle" x="427.25" y="-153.75" font-family="Helvetica,sans-Serif" font-size="10.00">dBgS_RopeLinChk</text>
</a>
</g>
</g>
<!-- Node12&#45;&gt;Node21 -->
<g id="edge20_Node000012_Node000021" class="edge">
<title>Node12&#45;&gt;Node21</title>
<g id="a_edge20_Node000012_Node000021"><a xlink:title=" ">
<path fill="none" stroke="#63b8ff" d="M325.3,-290.57C326.43,-289.65 327.5,-288.67 328.5,-287.62 364.8,-249.99 327.03,-212.09 364.5,-175.62 368.26,-171.96 372.72,-169.04 377.5,-166.71"/>
<polygon fill="#63b8ff" stroke="#63b8ff" points="323.68,-287.46 317.14,-295.8 327.45,-293.36 323.68,-287.46"/>
</a>
</g>
</g>
<!-- Node17 -->
<g id="Node000017" class="node">
<title>Node17</title>
<g id="a_Node000017"><a xlink:href="classdBgS__CamLinChk__NorWtr.html" target="_top" xlink:title=" ">
<polygon fill="white" stroke="#666666" points="658.25,-315.25 526,-315.25 526,-296 658.25,-296 658.25,-315.25"/>
<text text-anchor="middle" x="592.12" y="-301.75" font-family="Helvetica,sans-Serif" font-size="10.00">dBgS_CamLinChk_NorWtr</text>
</a>
</g>
</g>
<!-- Node16&#45;&gt;Node17 -->
<g id="edge16_Node000016_Node000017" class="edge">
<title>Node16&#45;&gt;Node17</title>
<g id="a_edge16_Node000016_Node000017"><a xlink:title=" ">
<path fill="none" stroke="#63b8ff" d="M487.05,-305.62C499.58,-305.62 512.9,-305.62 525.66,-305.62"/>
<polygon fill="#63b8ff" stroke="#63b8ff" points="487.31,-302.13 477.31,-305.63 487.31,-309.13 487.31,-302.13"/>
</a>
</g>
</g>
<!-- Node23 -->
<g id="Node000023" class="node">
<title>Node23</title>
<g id="a_Node000023"><a xlink:href="classShdwDrawPoly__c.html" target="_top" xlink:title=" ">
<polygon fill="white" stroke="#666666" points="324,-278.25 231.5,-278.25 231.5,-259 324,-259 324,-278.25"/>
<text text-anchor="middle" x="277.75" y="-264.75" font-family="Helvetica,sans-Serif" font-size="10.00">ShdwDrawPoly_c</text>
</a>
</g>
</g>
<!-- Node22&#45;&gt;Node23 -->
<g id="edge22_Node000022_Node000023" class="edge">
<title>Node22&#45;&gt;Node23</title>
<g id="a_edge22_Node000022_Node000023"><a xlink:title=" ">
<path fill="none" stroke="#63b8ff" d="M202.4,-252.73C212.09,-254.8 222.04,-256.93 231.38,-258.93"/>
<polygon fill="#63b8ff" stroke="#63b8ff" points="203.19,-249.32 192.68,-250.66 201.73,-256.17 203.19,-249.32"/>
</a>
</g>
</g>
<!-- Node25 -->
<g id="Node000025" class="node">
<title>Node25</title>
<g id="a_Node000025"><a xlink:href="classdBgS__BombAcch.html" target="_top" xlink:title=" ">
<polygon fill="white" stroke="#666666" points="324.38,-241.25 231.12,-241.25 231.12,-222 324.38,-222 324.38,-241.25"/>
<text text-anchor="middle" x="277.75" y="-227.75" font-family="Helvetica,sans-Serif" font-size="10.00">dBgS_BombAcch</text>
</a>
</g>
</g>
<!-- Node24&#45;&gt;Node25 -->
<g id="edge24_Node000024_Node000025" class="edge">
<title>Node24&#45;&gt;Node25</title>
<g id="a_edge24_Node000024_Node000025"><a xlink:title=" ">
<path fill="none" stroke="#63b8ff" d="M176.21,-190.67C191.34,-197.93 209.98,-206.58 227,-213.62 233.62,-216.36 240.82,-219.11 247.64,-221.59"/>
<polygon fill="#63b8ff" stroke="#63b8ff" points="177.78,-187.54 167.25,-186.33 174.73,-193.84 177.78,-187.54"/>
</a>
</g>
</g>
<!-- Node26 -->
<g id="Node000026" class="node">
<title>Node26</title>
<g id="a_Node000026"><a xlink:href="classdBgS__LinkAcch.html" target="_top" xlink:title=" ">
<polygon fill="white" stroke="#666666" points="321,-204.25 234.5,-204.25 234.5,-185 321,-185 321,-204.25"/>
<text text-anchor="middle" x="277.75" y="-190.75" font-family="Helvetica,sans-Serif" font-size="10.00">dBgS_LinkAcch</text>
</a>
</g>
</g>
<!-- Node24&#45;&gt;Node26 -->
<g id="edge25_Node000024_Node000026" class="edge">
<title>Node24&#45;&gt;Node26</title>
<g id="a_edge25_Node000024_Node000026"><a xlink:title=" ">
<path fill="none" stroke="#63b8ff" d="M189.9,-182.03C204.23,-184.11 220.08,-186.41 234.27,-188.46"/>
<polygon fill="#63b8ff" stroke="#63b8ff" points="190.7,-178.61 180.3,-180.64 189.7,-185.54 190.7,-178.61"/>
</a>
</g>
</g>
<!-- Node27 -->
<g id="Node000027" class="node">
<title>Node27</title>
<g id="a_Node000027"><a xlink:href="structdBgS__ObjAcch.html" target="_top" xlink:title=" ">
<polygon fill="white" stroke="#666666" points="319.12,-167.25 236.38,-167.25 236.38,-148 319.12,-148 319.12,-167.25"/>
<text text-anchor="middle" x="277.75" y="-153.75" font-family="Helvetica,sans-Serif" font-size="10.00">dBgS_ObjAcch</text>
</a>
</g>
</g>
<!-- Node24&#45;&gt;Node27 -->
<g id="edge26_Node000024_Node000027" class="edge">
<title>Node24&#45;&gt;Node27</title>
<g id="a_edge26_Node000024_Node000027"><a xlink:title=" ">
<path fill="none" stroke="#63b8ff" d="M189.88,-169.56C204.86,-167.5 221.52,-165.21 236.21,-163.2"/>
<polygon fill="#63b8ff" stroke="#63b8ff" points="189.74,-166.05 180.31,-170.88 190.69,-172.98 189.74,-166.05"/>
</a>
</g>
</g>
<!-- Node28 -->
<g id="Node000028" class="node">
<title>Node28</title>
<g id="a_Node000028"><a xlink:href="classdBgS__StatueAcch.html" target="_top" xlink:title=" ">
<polygon fill="white" stroke="#666666" points="325.88,-130.25 229.62,-130.25 229.62,-111 325.88,-111 325.88,-130.25"/>
<text text-anchor="middle" x="277.75" y="-116.75" font-family="Helvetica,sans-Serif" font-size="10.00">dBgS_StatueAcch</text>
</a>
</g>
</g>
<!-- Node24&#45;&gt;Node28 -->
<g id="edge27_Node000024_Node000028" class="edge">
<title>Node24&#45;&gt;Node28</title>
<g id="a_edge27_Node000024_Node000028"><a xlink:title=" ">
<path fill="none" stroke="#63b8ff" d="M182.9,-161.22C185.65,-160.04 188.38,-158.83 191,-157.62 207.43,-150.05 210.45,-145.94 227,-138.62 233.3,-135.84 240.18,-133.14 246.76,-130.72"/>
<polygon fill="#63b8ff" stroke="#63b8ff" points="181.57,-157.98 173.67,-165.05 184.25,-164.45 181.57,-157.98"/>
</a>
</g>
</g>
<!-- Node31 -->
<g id="Node000031" class="node">
<title>Node31</title>
<g id="a_Node000031"><a xlink:href="classdBgS__LinkRoofChk.html" target="_top" xlink:title=" ">
<polygon fill="white" stroke="#666666" points="328.5,-93.25 227,-93.25 227,-74 328.5,-74 328.5,-93.25"/>
<text text-anchor="middle" x="277.75" y="-79.75" font-family="Helvetica,sans-Serif" font-size="10.00">dBgS_LinkRoofChk</text>
</a>
</g>
</g>
<!-- Node30&#45;&gt;Node31 -->
<g id="edge30_Node000030_Node000031" class="edge">
<title>Node30&#45;&gt;Node31</title>
<g id="a_edge30_Node000030_Node000031"><a xlink:title=" ">
<path fill="none" stroke="#63b8ff" d="M197.87,-94.46C207.41,-93.15 217.34,-91.79 226.82,-90.49"/>
<polygon fill="#63b8ff" stroke="#63b8ff" points="197.41,-90.99 187.98,-95.82 198.36,-97.93 197.41,-90.99"/>
</a>
</g>
</g>
<!-- Node32 -->
<g id="Node000032" class="node">
<title>Node32</title>
<g id="a_Node000032"><a xlink:href="classdBgS__ObjRoofChk.html" target="_top" xlink:title=" ">
<polygon fill="white" stroke="#666666" points="326.62,-56.25 228.88,-56.25 228.88,-37 326.62,-37 326.62,-56.25"/>
<text text-anchor="middle" x="277.75" y="-42.75" font-family="Helvetica,sans-Serif" font-size="10.00">dBgS_ObjRoofChk</text>
</a>
</g>
</g>
<!-- Node30&#45;&gt;Node32 -->
<g id="edge31_Node000030_Node000032" class="edge">
<title>Node30&#45;&gt;Node32</title>
<g id="a_edge31_Node000030_Node000032"><a xlink:title=" ">
<path fill="none" stroke="#63b8ff" d="M182.9,-87.22C185.65,-86.04 188.38,-84.83 191,-83.62 207.43,-76.05 210.45,-71.94 227,-64.62 233.3,-61.84 240.18,-59.14 246.76,-56.72"/>
<polygon fill="#63b8ff" stroke="#63b8ff" points="181.57,-83.98 173.67,-91.05 184.25,-90.45 181.57,-83.98"/>
</a>
</g>
</g>
<!-- Node35 -->
<g id="Node000035" class="node">
<title>Node35</title>
<g id="a_Node000035"><a xlink:href="classdBgS__WtrChk.html" target="_top" xlink:title=" ">
<polygon fill="white" stroke="#666666" points="316.5,-19.25 239,-19.25 239,0 316.5,0 316.5,-19.25"/>
<text text-anchor="middle" x="277.75" y="-5.75" font-family="Helvetica,sans-Serif" font-size="10.00">dBgS_WtrChk</text>
</a>
</g>
</g>
<!-- Node34&#45;&gt;Node35 -->
<g id="edge34_Node000034_Node000035" class="edge">
<title>Node34&#45;&gt;Node35</title>
<g id="a_edge34_Node000034_Node000035"><a xlink:title=" ">
<path fill="none" stroke="#63b8ff" d="M202.33,-19.85C214.64,-18.16 227.38,-16.41 238.77,-14.84"/>
<polygon fill="#63b8ff" stroke="#63b8ff" points="202.13,-16.35 192.7,-21.17 203.08,-23.28 202.13,-16.35"/>
</a>
</g>
</g>
</g>
</svg>
