<?xml version="1.0" encoding="UTF-8" standalone="no"?>
<!DOCTYPE svg PUBLIC "-//W3C//DTD SVG 1.1//EN"
 "http://www.w3.org/Graphics/SVG/1.1/DTD/svg11.dtd">
<!-- Generated by graphviz version 9.0.0 (20230911.1827)
 -->
<!-- Title: JAUBankTable Pages: 1 -->
<svg width="230pt" height="227pt"
 viewBox="0.00 0.00 229.50 226.75" xmlns="http://www.w3.org/2000/svg" xmlns:xlink="http://www.w3.org/1999/xlink">
<g id="graph0" class="graph" transform="scale(1 1) rotate(0) translate(4 222.75)">
<title>JAUBankTable</title>
<!-- Node1 -->
<g id="Node000001" class="node">
<title>Node1</title>
<g id="a_Node000001"><a xlink:title=" ">
<polygon fill="#999999" stroke="#666666" points="93.88,-19.25 11.88,-19.25 11.88,0 93.88,0 93.88,-19.25"/>
<text text-anchor="middle" x="52.88" y="-5.75" font-family="Helvetica,sans-Serif" font-size="10.00">JAUBankTable</text>
</a>
</g>
</g>
<!-- Node2 -->
<g id="Node000002" class="node">
<title>Node2</title>
<g id="a_Node000002"><a xlink:href="classJASBankList.html" target="_top" xlink:title=" ">
<polygon fill="white" stroke="#666666" points="73.75,-85.75 0,-85.75 0,-66.5 73.75,-66.5 73.75,-85.75"/>
<text text-anchor="middle" x="36.88" y="-72.25" font-family="Helvetica,sans-Serif" font-size="10.00">JASBankList</text>
</a>
</g>
</g>
<!-- Node2&#45;&gt;Node1 -->
<g id="edge1_Node000001_Node000002" class="edge">
<title>Node2&#45;&gt;Node1</title>
<g id="a_edge1_Node000001_Node000002"><a xlink:title=" ">
<path fill="none" stroke="#63b8ff" d="M41.86,-55.02C44.81,-43.12 48.41,-28.63 50.67,-19.52"/>
<polygon fill="#63b8ff" stroke="#63b8ff" points="38.47,-54.14 39.46,-64.69 45.27,-55.82 38.47,-54.14"/>
</a>
</g>
</g>
<!-- Node3 -->
<g id="Node000003" class="node">
<title>Node3</title>
<g id="a_Node000003"><a xlink:href="classJASPtrTable.html" target="_top" xlink:title=" ">
<polygon fill="white" stroke="#666666" points="221.5,-85.75 92.25,-85.75 92.25,-66.5 221.5,-66.5 221.5,-85.75"/>
<text text-anchor="middle" x="156.88" y="-72.25" font-family="Helvetica,sans-Serif" font-size="10.00">JASPtrTable&lt; JASBank &gt;</text>
</a>
</g>
</g>
<!-- Node3&#45;&gt;Node1 -->
<g id="edge2_Node000001_Node000003" class="edge">
<title>Node3&#45;&gt;Node1</title>
<g id="a_edge2_Node000001_Node000003"><a xlink:title=" ">
<path fill="none" stroke="#9a32cd" stroke-dasharray="5,2" d="M132.69,-60.13C112.53,-47.62 84.47,-30.22 67.55,-19.73"/>
<polygon fill="#9a32cd" stroke="#9a32cd" points="130.78,-63.06 141.13,-65.36 134.47,-57.11 130.78,-63.06"/>
</a>
</g>
<text text-anchor="middle" x="145.75" y="-39" font-family="Helvetica,sans-Serif" font-size="10.00" fill="grey"> mBankPtrTable</text>
</g>
<!-- Node4 -->
<g id="Node000004" class="node">
<title>Node4</title>
<g id="a_Node000004"><a xlink:href="classJASBank.html" target="_top" xlink:title=" ">
<polygon fill="white" stroke="#666666" points="185.5,-152.25 128.25,-152.25 128.25,-133 185.5,-133 185.5,-152.25"/>
<text text-anchor="middle" x="156.88" y="-138.75" font-family="Helvetica,sans-Serif" font-size="10.00">JASBank</text>
</a>
</g>
</g>
<!-- Node4&#45;&gt;Node3 -->
<g id="edge3_Node000003_Node000004" class="edge">
<title>Node4&#45;&gt;Node3</title>
<g id="a_edge3_Node000003_Node000004"><a xlink:title=" ">
<path fill="none" stroke="#9a32cd" stroke-dasharray="5,2" d="M156.88,-121.15C156.88,-109.32 156.88,-95.04 156.88,-86.02"/>
<polygon fill="#9a32cd" stroke="#9a32cd" points="153.38,-121.14 156.88,-131.14 160.38,-121.14 153.38,-121.14"/>
</a>
</g>
<text text-anchor="middle" x="174.12" y="-105.5" font-family="Helvetica,sans-Serif" font-size="10.00" fill="grey"> mTable</text>
</g>
<!-- Node5 -->
<g id="Node000005" class="node">
<title>Node5</title>
<g id="a_Node000005"><a xlink:href="classJASWaveBank.html" target="_top" xlink:title=" ">
<polygon fill="white" stroke="#666666" points="197.88,-218.75 115.88,-218.75 115.88,-199.5 197.88,-199.5 197.88,-218.75"/>
<text text-anchor="middle" x="156.88" y="-205.25" font-family="Helvetica,sans-Serif" font-size="10.00">JASWaveBank</text>
</a>
</g>
</g>
<!-- Node5&#45;&gt;Node4 -->
<g id="edge4_Node000004_Node000005" class="edge">
<title>Node5&#45;&gt;Node4</title>
<g id="a_edge4_Node000004_Node000005"><a xlink:title=" ">
<path fill="none" stroke="#9a32cd" stroke-dasharray="5,2" d="M156.88,-187.65C156.88,-175.82 156.88,-161.54 156.88,-152.52"/>
<polygon fill="#9a32cd" stroke="#9a32cd" points="153.38,-187.64 156.88,-197.64 160.38,-187.64 153.38,-187.64"/>
</a>
</g>
<text text-anchor="middle" x="185.75" y="-172" font-family="Helvetica,sans-Serif" font-size="10.00" fill="grey"> mWaveBank</text>
</g>
</g>
</svg>
