<?xml version="1.0" encoding="UTF-8" standalone="no"?>
<!DOCTYPE svg PUBLIC "-//W3C//DTD SVG 1.1//EN"
 "http://www.w3.org/Graphics/SVG/1.1/DTD/svg11.dtd">
<!-- Generated by graphviz version 9.0.0 (20230911.1827)
 -->
<!-- Title: Z2CreatureOI Pages: 1 -->
<!--zoomable 366 -->

<svg id="main" version="1.1" xmlns="http://www.w3.org/2000/svg" xmlns:xlink="http://www.w3.org/1999/xlink" xml:space="preserve" onload="init(evt)">
<style type="text/css"><![CDATA[
.node, .edge {opacity: 0.7;}
.node.selected, .edge.selected {opacity: 1;}
.edge:hover path { stroke: red; }
.edge:hover polygon { stroke: red; fill: red; }
]]></style>

<defs>
  <circle id="rim" cx="0" cy="0" r="7"/>
  <circle id="rim2" cx="0" cy="0" r="3.5"/>
  <g id="zoomPlus">
    <use xlink:href="#rim" fill="#404040"><set attributeName="fill" to="#808080" begin="zoomplus.mouseover" end="zoomplus.mouseout"/></use>
    <path d="M-4,0h8M0,-4v8" fill="none" stroke="white" stroke-width="1.5" pointer-events="none"/>
  </g>
  <g id="zoomMin">
    <use xlink:href="#rim" fill="#404040"><set attributeName="fill" to="#808080" begin="zoomminus.mouseover" end="zoomminus.mouseout"/></use>
    <path d="M-4,0h8" fill="none" stroke="white" stroke-width="1.5" pointer-events="none"/>
  </g>
  <g id="arrowUp" transform="translate(30 24)">
    <use xlink:href="#rim"/>
    <path pointer-events="none" fill="none" stroke="white" stroke-width="1.5" d="M0,-3.0v7 M-2.5,-0.5L0,-3.0L2.5,-0.5"/>
  </g>
  <g id="arrowRight" transform="rotate(90) translate(36 -43)">
    <use xlink:href="#rim"/>
    <path pointer-events="none" fill="none" stroke="white" stroke-width="1.5" d="M0,-3.0v7 M-2.5,-0.5L0,-3.0L2.5,-0.5"/>
  </g>
  <g id="arrowDown" transform="rotate(180) translate(-30 -48)">
    <use xlink:href="#rim"/>
    <path pointer-events="none" fill="none" stroke="white" stroke-width="1.5" d="M0,-3.0v7 M-2.5,-0.5L0,-3.0L2.5,-0.5"/>
  </g>
  <g id="arrowLeft" transform="rotate(270) translate(-36 17)">
    <use xlink:href="#rim"/>
    <path pointer-events="none" fill="none" stroke="white" stroke-width="1.5" d="M0,-3.0v7 M-2.5,-0.5L0,-3.0L2.5,-0.5"/>
  </g>
  <g id="resetDef">
    <use xlink:href="#rim2" fill="#404040"><set attributeName="fill" to="#808080" begin="reset.mouseover" end="reset.mouseout"/></use>
  </g>
</defs>
<script type="application/ecmascript">
var viewWidth = 1514;
var viewHeight = 366;
var sectionId = 'dynsection-1';
</script>
<script type="application/ecmascript" xlink:href="svg.min.js"/>
<svg id="graph" class="graph">
<g id="viewport">
<title>Z2CreatureOI</title>
<!-- Node1 -->
<g id="Node000001" class="node">
<title>Node1</title>
<g id="a_Node000001"><a xlink:title=" ">
<polygon fill="#999999" stroke="#666666" points="1506.25,-232.88 1431.75,-232.88 1431.75,-213.62 1506.25,-213.62 1506.25,-232.88"/>
<text text-anchor="middle" x="1469" y="-219.38" font-family="Helvetica,sans-Serif" font-size="10.00">Z2CreatureOI</text>
</a>
</g>
</g>
<!-- Node2 -->
<g id="Node000002" class="node">
<title>Node2</title>
<g id="a_Node000002"><a xlink:href="classZ2CreatureEnemy.html" target="_top" xlink:title=" ">
<polygon fill="white" stroke="#666666" points="1394.75,-271.88 1301.5,-271.88 1301.5,-252.62 1394.75,-252.62 1394.75,-271.88"/>
<text text-anchor="middle" x="1348.12" y="-258.38" font-family="Helvetica,sans-Serif" font-size="10.00">Z2CreatureEnemy</text>
</a>
</g>
</g>
<!-- Node2&#45;&gt;Node1 -->
<g id="edge1_Node000001_Node000002" class="edge">
<title>Node2&#45;&gt;Node1</title>
<g id="a_edge1_Node000001_Node000002"><a xlink:title=" ">
<path fill="none" stroke="#63b8ff" d="M1390.59,-248.65C1406.01,-243.59 1423.22,-237.94 1437.49,-233.26"/>
<polygon fill="#63b8ff" stroke="#63b8ff" points="1389.59,-245.29 1381.18,-251.73 1391.77,-251.94 1389.59,-245.29"/>
</a>
</g>
</g>
<!-- Node3 -->
<g id="Node000003" class="node">
<title>Node3</title>
<g id="a_Node000003"><a xlink:href="structZ2Creature.html" target="_top" xlink:title=" ">
<polygon fill="white" stroke="#666666" points="1186.75,-260.88 1122.75,-260.88 1122.75,-241.62 1186.75,-241.62 1186.75,-260.88"/>
<text text-anchor="middle" x="1154.75" y="-247.38" font-family="Helvetica,sans-Serif" font-size="10.00">Z2Creature</text>
</a>
</g>
</g>
<!-- Node3&#45;&gt;Node2 -->
<g id="edge2_Node000002_Node000003" class="edge">
<title>Node3&#45;&gt;Node2</title>
<g id="a_edge2_Node000002_Node000003"><a xlink:title=" ">
<path fill="none" stroke="#63b8ff" d="M1198.08,-253.68C1228.67,-255.44 1269.94,-257.81 1301.3,-259.62"/>
<polygon fill="#63b8ff" stroke="#63b8ff" points="1198.62,-250.21 1188.43,-253.13 1198.22,-257.2 1198.62,-250.21"/>
</a>
</g>
</g>
<!-- Node4 -->
<g id="Node000004" class="node">
<title>Node4</title>
<g id="a_Node000004"><a xlink:href="structVec.html" target="_top" xlink:title=" ">
<polygon fill="white" stroke="#666666" points="230,-278.88 196.75,-278.88 196.75,-259.62 230,-259.62 230,-278.88"/>
<text text-anchor="middle" x="213.38" y="-265.38" font-family="Helvetica,sans-Serif" font-size="10.00">Vec</text>
</a>
</g>
</g>
<!-- Node4&#45;&gt;Node3 -->
<g id="edge3_Node000003_Node000004" class="edge">
<title>Node4&#45;&gt;Node3</title>
<g id="a_edge3_Node000003_Node000004"><a xlink:title=" ">
<path fill="none" stroke="#9a32cd" stroke-dasharray="5,2" d="M241.8,-270.04C284.64,-271.21 370.03,-273.25 442.5,-273.25 442.5,-273.25 442.5,-273.25 949.25,-273.25 1010.85,-273.25 1082.28,-263.26 1122.33,-256.74"/>
<polygon fill="#9a32cd" stroke="#9a32cd" points="242.02,-266.55 231.93,-269.77 241.83,-273.54 242.02,-266.55"/>
</a>
</g>
<text text-anchor="middle" x="749.62" y="-275" font-family="Helvetica,sans-Serif" font-size="10.00" fill="grey"> mpPos</text>
</g>
<!-- Node15 -->
<g id="Node000015" class="node">
<title>Node15</title>
<g id="a_Node000015"><a xlink:href="structJGeometry_1_1TVec3_3_01f32_01_4.html" target="_top" xlink:title=" ">
<polygon fill="white" stroke="#666666" points="506.62,-244.88 380.38,-244.88 380.38,-225.62 506.62,-225.62 506.62,-244.88"/>
<text text-anchor="middle" x="443.5" y="-231.38" font-family="Helvetica,sans-Serif" font-size="10.00">JGeometry::TVec3&lt; f32 &gt;</text>
</a>
</g>
</g>
<!-- Node4&#45;&gt;Node15 -->
<g id="edge19_Node000015_Node000004" class="edge">
<title>Node4&#45;&gt;Node15</title>
<g id="a_edge19_Node000015_Node000004"><a xlink:title=" ">
<path fill="none" stroke="#63b8ff" d="M241.72,-265.17C275.69,-260.11 334.66,-251.32 379.94,-244.57"/>
<polygon fill="#63b8ff" stroke="#63b8ff" points="241.29,-261.7 231.91,-266.64 242.32,-268.62 241.29,-261.7"/>
</a>
</g>
</g>
<!-- Node5 -->
<g id="Node000005" class="node">
<title>Node5</title>
<g id="a_Node000005"><a xlink:href="classZ2SoundObjAnime.html" target="_top" xlink:title=" ">
<polygon fill="white" stroke="#666666" points="997.12,-185.88 899.38,-185.88 899.38,-166.62 997.12,-166.62 997.12,-185.88"/>
<text text-anchor="middle" x="948.25" y="-172.38" font-family="Helvetica,sans-Serif" font-size="10.00">Z2SoundObjAnime</text>
</a>
</g>
</g>
<!-- Node5&#45;&gt;Node3 -->
<g id="edge4_Node000003_Node000005" class="edge">
<title>Node5&#45;&gt;Node3</title>
<g id="a_edge4_Node000003_Node000005"><a xlink:title=" ">
<path fill="none" stroke="#9a32cd" stroke-dasharray="5,2" d="M1008.57,-179.84C1038.67,-183.55 1075.05,-191.01 1104.75,-206 1121.7,-214.56 1137.05,-230.72 1145.88,-241.23"/>
<polygon fill="#9a32cd" stroke="#9a32cd" points="1009.2,-176.39 998.88,-178.76 1008.43,-183.35 1009.2,-176.39"/>
</a>
</g>
<text text-anchor="middle" x="1060.5" y="-207" font-family="Helvetica,sans-Serif" font-size="10.00" fill="grey"> mSoundObjAnime</text>
</g>
<!-- Node6 -->
<g id="Node000006" class="node">
<title>Node6</title>
<g id="a_Node000006"><a xlink:href="classZ2SoundObjBase.html" target="_top" xlink:title=" ">
<polygon fill="white" stroke="#666666" points="795.88,-208.88 703.38,-208.88 703.38,-189.62 795.88,-189.62 795.88,-208.88"/>
<text text-anchor="middle" x="749.62" y="-195.38" font-family="Helvetica,sans-Serif" font-size="10.00">Z2SoundObjBase</text>
</a>
</g>
</g>
<!-- Node6&#45;&gt;Node5 -->
<g id="edge5_Node000005_Node000006" class="edge">
<title>Node6&#45;&gt;Node5</title>
<g id="a_edge5_Node000005_Node000006"><a xlink:title=" ">
<path fill="none" stroke="#63b8ff" d="M807.45,-192.6C836.5,-189.21 871.46,-185.12 899.15,-181.88"/>
<polygon fill="#63b8ff" stroke="#63b8ff" points="807.26,-189.1 797.73,-193.74 808.07,-196.05 807.26,-189.1"/>
</a>
</g>
</g>
<!-- Node20 -->
<g id="Node000020" class="node">
<title>Node20</title>
<g id="a_Node000020"><a xlink:href="classZ2SoundObjSimple.html" target="_top" xlink:title=" ">
<polygon fill="white" stroke="#666666" points="998.25,-222.88 898.25,-222.88 898.25,-203.62 998.25,-203.62 998.25,-222.88"/>
<text text-anchor="middle" x="948.25" y="-209.38" font-family="Helvetica,sans-Serif" font-size="10.00">Z2SoundObjSimple</text>
</a>
</g>
</g>
<!-- Node6&#45;&gt;Node20 -->
<g id="edge25_Node000020_Node000006" class="edge">
<title>Node6&#45;&gt;Node20</title>
<g id="a_edge25_Node000020_Node000006"><a xlink:title=" ">
<path fill="none" stroke="#63b8ff" d="M807.66,-203.31C836.18,-205.34 870.36,-207.78 897.76,-209.73"/>
<polygon fill="#63b8ff" stroke="#63b8ff" points="807.96,-199.82 797.74,-202.6 807.46,-206.81 807.96,-199.82"/>
</a>
</g>
</g>
<!-- Node7 -->
<g id="Node000007" class="node">
<title>Node7</title>
<g id="a_Node000007"><a xlink:href="classZ2SoundHandles.html" target="_top" xlink:title=" ">
<polygon fill="white" stroke="#666666" points="489,-207.88 398,-207.88 398,-188.62 489,-188.62 489,-207.88"/>
<text text-anchor="middle" x="443.5" y="-194.38" font-family="Helvetica,sans-Serif" font-size="10.00">Z2SoundHandles</text>
</a>
</g>
</g>
<!-- Node7&#45;&gt;Node6 -->
<g id="edge6_Node000006_Node000007" class="edge">
<title>Node7&#45;&gt;Node6</title>
<g id="a_edge6_Node000006_Node000007"><a xlink:title=" ">
<path fill="none" stroke="#63b8ff" d="M500.59,-198.43C558.89,-198.63 649.01,-198.92 703.07,-199.1"/>
<polygon fill="#63b8ff" stroke="#63b8ff" points="500.9,-194.94 490.89,-198.4 500.88,-201.94 500.9,-194.94"/>
</a>
</g>
</g>
<!-- Node8 -->
<g id="Node000008" class="node">
<title>Node8</title>
<g id="a_Node000008"><a xlink:href="classJSUList.html" target="_top" xlink:title=" ">
<polygon fill="white" stroke="#666666" points="292.25,-213.88 134.5,-213.88 134.5,-194.62 292.25,-194.62 292.25,-213.88"/>
<text text-anchor="middle" x="213.38" y="-200.38" font-family="Helvetica,sans-Serif" font-size="10.00">JSUList&lt; Z2SoundHandlePool &gt;</text>
</a>
</g>
</g>
<!-- Node8&#45;&gt;Node7 -->
<g id="edge7_Node000007_Node000008" class="edge">
<title>Node8&#45;&gt;Node7</title>
<g id="a_edge7_Node000007_Node000008"><a xlink:title=" ">
<path fill="none" stroke="darkgreen" d="M303.81,-201.9C336,-201.05 370.92,-200.13 397.68,-199.43"/>
<polygon fill="darkgreen" stroke="darkgreen" points="303.98,-198.39 294.08,-202.15 304.17,-205.39 303.98,-198.39"/>
</a>
</g>
</g>
<!-- Node9 -->
<g id="Node000009" class="node">
<title>Node9</title>
<g id="a_Node000009"><a xlink:href="classJSUPtrList.html" target="_top" xlink:title=" ">
<polygon fill="white" stroke="#666666" points="64.75,-271.88 0,-271.88 0,-252.62 64.75,-252.62 64.75,-271.88"/>
<text text-anchor="middle" x="32.38" y="-258.38" font-family="Helvetica,sans-Serif" font-size="10.00">JSUPtrList</text>
</a>
</g>
</g>
<!-- Node9&#45;&gt;Node8 -->
<g id="edge8_Node000008_Node000009" class="edge">
<title>Node9&#45;&gt;Node8</title>
<g id="a_edge8_Node000008_Node000009"><a xlink:title=" ">
<path fill="none" stroke="#63b8ff" d="M75.49,-248.6C107.91,-238.1 151.97,-223.82 181.25,-214.33"/>
<polygon fill="#63b8ff" stroke="#63b8ff" points="74.43,-245.27 65.99,-251.68 76.59,-251.93 74.43,-245.27"/>
</a>
</g>
</g>
<!-- Node10 -->
<g id="Node000010" class="node">
<title>Node10</title>
<g id="a_Node000010"><a xlink:href="classJSUPtrLink.html" target="_top" xlink:title=" ">
<polygon fill="white" stroke="#666666" points="246.88,-317.88 179.88,-317.88 179.88,-298.62 246.88,-298.62 246.88,-317.88"/>
<text text-anchor="middle" x="213.38" y="-304.38" font-family="Helvetica,sans-Serif" font-size="10.00">JSUPtrLink</text>
</a>
</g>
</g>
<!-- Node9&#45;&gt;Node10 -->
<g id="edge10_Node000010_Node000009" class="edge">
<title>Node9&#45;&gt;Node10</title>
<g id="a_edge10_Node000010_Node000009"><a xlink:title=" ">
<path fill="none" stroke="#9a32cd" stroke-dasharray="5,2" d="M60.49,-277.14C67.57,-280.55 75.31,-283.86 82.75,-286.25 114.81,-296.53 152.96,-302.27 179.54,-305.28"/>
<polygon fill="#9a32cd" stroke="#9a32cd" points="62.55,-274.26 52.05,-272.86 59.39,-280.5 62.55,-274.26"/>
</a>
</g>
<text text-anchor="middle" x="99.62" y="-296" font-family="Helvetica,sans-Serif" font-size="10.00" fill="grey"> mList</text>
</g>
<!-- Node10&#45;&gt;Node9 -->
<g id="edge9_Node000009_Node000010" class="edge">
<title>Node10&#45;&gt;Node9</title>
<g id="a_edge9_Node000009_Node000010"><a xlink:title=" ">
<path fill="none" stroke="#9a32cd" stroke-dasharray="5,2" d="M168.58,-302.51C156.82,-299.55 144.58,-295.06 134.5,-288.25 123.3,-280.68 128.5,-269.96 116.5,-263.75 100.86,-255.66 81.25,-254.94 65,-256.4"/>
<polygon fill="#9a32cd" stroke="#9a32cd" points="167.64,-305.89 178.15,-304.59 169.12,-299.05 167.64,-305.89"/>
</a>
</g>
<text text-anchor="middle" x="99.62" y="-276.25" font-family="Helvetica,sans-Serif" font-size="10.00" fill="grey"> mHead</text>
<text text-anchor="middle" x="99.62" y="-265" font-family="Helvetica,sans-Serif" font-size="10.00" fill="grey">mTail</text>
</g>
<!-- Node10&#45;&gt;Node10 -->
<g id="edge11_Node000010_Node000010" class="edge">
<title>Node10&#45;&gt;Node10</title>
<g id="a_edge11_Node000010_Node000010"><a xlink:title=" ">
<path fill="none" stroke="#9a32cd" stroke-dasharray="5,2" d="M193.18,-329.28C195.71,-333.15 202.44,-335.88 213.38,-335.88 233.37,-335.88 239.31,-326.77 231.18,-318.16"/>
<polygon fill="#9a32cd" stroke="#9a32cd" points="196.58,-330.15 195.25,-319.64 189.73,-328.69 196.58,-330.15"/>
</a>
</g>
<text text-anchor="middle" x="213.38" y="-348.88" font-family="Helvetica,sans-Serif" font-size="10.00" fill="grey"> mNext</text>
<text text-anchor="middle" x="213.38" y="-337.62" font-family="Helvetica,sans-Serif" font-size="10.00" fill="grey">mPrev</text>
</g>
<!-- Node21 -->
<g id="Node000021" class="node">
<title>Node21</title>
<g id="a_Node000021"><a xlink:href="classJSULink.html" target="_top" xlink:title=" ">
<polygon fill="white" stroke="#666666" points="678.25,-321.88 530.25,-321.88 530.25,-302.62 678.25,-302.62 678.25,-321.88"/>
<text text-anchor="middle" x="604.25" y="-308.38" font-family="Helvetica,sans-Serif" font-size="10.00">JSULink&lt; Z2CreatureEnemy &gt;</text>
</a>
</g>
</g>
<!-- Node10&#45;&gt;Node21 -->
<g id="edge27_Node000021_Node000010" class="edge">
<title>Node10&#45;&gt;Node21</title>
<g id="a_edge27_Node000021_Node000010"><a xlink:title=" ">
<path fill="none" stroke="#63b8ff" d="M258.43,-308.7C324.51,-309.38 450.04,-310.67 530.03,-311.5"/>
<polygon fill="#63b8ff" stroke="#63b8ff" points="258.74,-305.21 248.71,-308.6 258.67,-312.21 258.74,-305.21"/>
</a>
</g>
</g>
<!-- Node11 -->
<g id="Node000011" class="node">
<title>Node11</title>
<g id="a_Node000011"><a xlink:href="structZ2SoundStarter.html" target="_top" xlink:title=" ">
<polygon fill="white" stroke="#666666" points="485.62,-23.88 401.38,-23.88 401.38,-4.62 485.62,-4.62 485.62,-23.88"/>
<text text-anchor="middle" x="443.5" y="-10.38" font-family="Helvetica,sans-Serif" font-size="10.00">Z2SoundStarter</text>
</a>
</g>
</g>
<!-- Node11&#45;&gt;Node6 -->
<g id="edge12_Node000006_Node000011" class="edge">
<title>Node11&#45;&gt;Node6</title>
<g id="a_edge12_Node000006_Node000011"><a xlink:title=" ">
<path fill="none" stroke="#9a32cd" stroke-dasharray="5,2" d="M496.7,-22.47C502.5,-25.15 507.88,-28.66 512.25,-33.25 537.08,-59.33 504.79,-86.78 530.25,-112.25 577.95,-159.96 625.01,-104.56 678.25,-146 692.13,-156.81 682.97,-169.72 696.25,-181.25 699.88,-184.4 704.09,-187.01 708.52,-189.16"/>
<polygon fill="#9a32cd" stroke="#9a32cd" points="497.94,-19.2 487.35,-19.02 495.51,-25.76 497.94,-19.2"/>
</a>
</g>
<text text-anchor="middle" x="604.25" y="-147" font-family="Helvetica,sans-Serif" font-size="10.00" fill="grey"> mSoundStarter</text>
</g>
<!-- Node14 -->
<g id="Node000014" class="node">
<title>Node14</title>
<g id="a_Node000014"><a xlink:href="classJASGlobalInstance.html" target="_top" xlink:title=" ">
<polygon fill="white" stroke="#666666" points="802.62,-30.5 696.62,-30.5 696.62,0 802.62,0 802.62,-30.5"/>
<text text-anchor="start" x="704.62" y="-17" font-family="Helvetica,sans-Serif" font-size="10.00">JASGlobalInstance&lt;</text>
<text text-anchor="middle" x="749.62" y="-5.75" font-family="Helvetica,sans-Serif" font-size="10.00"> Z2SoundStarter &gt;</text>
</a>
</g>
</g>
<!-- Node11&#45;&gt;Node14 -->
<g id="edge17_Node000014_Node000011" class="edge">
<title>Node11&#45;&gt;Node14</title>
<g id="a_edge17_Node000014_Node000011"><a xlink:title=" ">
<path fill="none" stroke="#9a32cd" stroke-dasharray="5,2" d="M497.23,-14.42C553.01,-14.61 640.48,-14.89 696.16,-15.08"/>
<polygon fill="#9a32cd" stroke="#9a32cd" points="497.36,-10.92 487.35,-14.39 497.33,-17.92 497.36,-10.92"/>
</a>
</g>
<text text-anchor="middle" x="604.25" y="-17" font-family="Helvetica,sans-Serif" font-size="10.00" fill="grey"> sInstance</text>
</g>
<!-- Node12 -->
<g id="Node000012" class="node">
<title>Node12</title>
<g id="a_Node000012"><a xlink:href="structJAISoundStarter.html" target="_top" xlink:title=" ">
<polygon fill="white" stroke="#666666" points="257.38,-48.88 169.38,-48.88 169.38,-29.62 257.38,-29.62 257.38,-48.88"/>
<text text-anchor="middle" x="213.38" y="-35.38" font-family="Helvetica,sans-Serif" font-size="10.00">JAISoundStarter</text>
</a>
</g>
</g>
<!-- Node12&#45;&gt;Node11 -->
<g id="edge13_Node000011_Node000012" class="edge">
<title>Node12&#45;&gt;Node11</title>
<g id="a_edge13_Node000011_Node000012"><a xlink:title=" ">
<path fill="none" stroke="#63b8ff" d="M269.14,-33.25C309.71,-28.8 364.16,-22.83 401.14,-18.78"/>
<polygon fill="#63b8ff" stroke="#63b8ff" points="268.88,-29.76 259.33,-34.32 269.65,-36.71 268.88,-29.76"/>
</a>
</g>
</g>
<!-- Node13 -->
<g id="Node000013" class="node">
<title>Node13</title>
<g id="a_Node000013"><a xlink:href="classJASGlobalInstance.html" target="_top" xlink:title=" ">
<polygon fill="white" stroke="#666666" points="496.5,-72.5 390.5,-72.5 390.5,-42 496.5,-42 496.5,-72.5"/>
<text text-anchor="start" x="398.5" y="-59" font-family="Helvetica,sans-Serif" font-size="10.00">JASGlobalInstance&lt;</text>
<text text-anchor="middle" x="443.5" y="-47.75" font-family="Helvetica,sans-Serif" font-size="10.00"> JAISoundStarter &gt;</text>
</a>
</g>
</g>
<!-- Node12&#45;&gt;Node13 -->
<g id="edge15_Node000013_Node000012" class="edge">
<title>Node12&#45;&gt;Node13</title>
<g id="a_edge15_Node000013_Node000012"><a xlink:title=" ">
<path fill="none" stroke="#9a32cd" stroke-dasharray="5,2" d="M268.84,-46.09C282.35,-47.62 296.82,-49.12 310.25,-50.25 336.6,-52.46 365.96,-54.09 390.32,-55.23"/>
<polygon fill="#9a32cd" stroke="#9a32cd" points="269.59,-42.65 259.25,-44.97 268.78,-49.6 269.59,-42.65"/>
</a>
</g>
<text text-anchor="middle" x="333.5" y="-56" font-family="Helvetica,sans-Serif" font-size="10.00" fill="grey"> sInstance</text>
</g>
<!-- Node13&#45;&gt;Node12 -->
<g id="edge14_Node000012_Node000013" class="edge">
<title>Node13&#45;&gt;Node12</title>
<g id="a_edge14_Node000012_Node000013"><a xlink:title=" ">
<path fill="none" stroke="#63b8ff" d="M378.88,-52.23C340.29,-49.19 292.06,-45.38 257.82,-42.68"/>
<polygon fill="#63b8ff" stroke="#63b8ff" points="378.25,-55.69 388.5,-52.99 378.8,-48.71 378.25,-55.69"/>
</a>
</g>
</g>
<!-- Node14&#45;&gt;Node11 -->
<g id="edge16_Node000011_Node000014" class="edge">
<title>Node14&#45;&gt;Node11</title>
<g id="a_edge16_Node000011_Node000014"><a xlink:title=" ">
<path fill="none" stroke="#63b8ff" d="M684.95,-12.41C682.69,-12.35 680.45,-12.3 678.25,-12.25 612.49,-10.85 596.02,-11.48 530.25,-12.25 515.81,-12.42 500,-12.75 485.93,-13.09"/>
<polygon fill="#63b8ff" stroke="#63b8ff" points="684.75,-15.91 694.85,-12.73 684.97,-8.91 684.75,-15.91"/>
</a>
</g>
</g>
<!-- Node15&#45;&gt;Node6 -->
<g id="edge18_Node000006_Node000015" class="edge">
<title>Node15&#45;&gt;Node6</title>
<g id="a_edge18_Node000006_Node000015"><a xlink:title=" ">
<path fill="none" stroke="#9a32cd" stroke-dasharray="5,2" d="M518.04,-228.96C564.15,-224.71 624.78,-218.55 678.25,-211.25 686.23,-210.16 694.7,-208.85 702.89,-207.5"/>
<polygon fill="#9a32cd" stroke="#9a32cd" points="517.79,-225.47 508.15,-229.87 518.43,-232.44 517.79,-225.47"/>
</a>
</g>
<text text-anchor="middle" x="604.25" y="-229" font-family="Helvetica,sans-Serif" font-size="10.00" fill="grey"> mSoundPos</text>
</g>
<!-- Node16 -->
<g id="Node000016" class="node">
<title>Node16</title>
<g id="a_Node000016"><a xlink:href="classJAUSoundAnimation.html" target="_top" xlink:title=" ">
<polygon fill="white" stroke="#666666" points="803,-171.88 696.25,-171.88 696.25,-152.62 803,-152.62 803,-171.88"/>
<text text-anchor="middle" x="749.62" y="-158.38" font-family="Helvetica,sans-Serif" font-size="10.00">JAUSoundAnimation</text>
</a>
</g>
</g>
<!-- Node16&#45;&gt;Node5 -->
<g id="edge20_Node000005_Node000016" class="edge">
<title>Node16&#45;&gt;Node5</title>
<g id="a_edge20_Node000005_Node000016"><a xlink:title=" ">
<path fill="none" stroke="#9a32cd" stroke-dasharray="5,2" d="M814.76,-160.22C835.68,-160.2 859,-160.86 880.25,-163 887.45,-163.73 895.02,-164.86 902.38,-166.16"/>
<polygon fill="#9a32cd" stroke="#9a32cd" points="814.9,-156.72 804.92,-160.29 814.94,-163.72 814.9,-156.72"/>
</a>
</g>
<text text-anchor="middle" x="850.62" y="-164" font-family="Helvetica,sans-Serif" font-size="10.00" fill="grey"> mpAnimation</text>
</g>
<!-- Node17 -->
<g id="Node000017" class="node">
<title>Node17</title>
<g id="a_Node000017"><a xlink:href="classJAUSoundAnimationControl.html" target="_top" xlink:title=" ">
<polygon fill="white" stroke="#666666" points="512.25,-109.88 374.75,-109.88 374.75,-90.62 512.25,-90.62 512.25,-109.88"/>
<text text-anchor="middle" x="443.5" y="-96.38" font-family="Helvetica,sans-Serif" font-size="10.00">JAUSoundAnimationControl</text>
</a>
</g>
</g>
<!-- Node17&#45;&gt;Node16 -->
<g id="edge21_Node000016_Node000017" class="edge">
<title>Node17&#45;&gt;Node16</title>
<g id="a_edge21_Node000016_Node000017"><a xlink:title=" ">
<path fill="none" stroke="#9a32cd" stroke-dasharray="5,2" d="M508.67,-88.68C556.9,-82.75 623.74,-80.5 678.25,-101 705.84,-111.38 729.77,-137.96 741.3,-152.46"/>
<polygon fill="#9a32cd" stroke="#9a32cd" points="508.4,-85.19 498.95,-89.97 509.32,-92.13 508.4,-85.19"/>
</a>
</g>
<text text-anchor="middle" x="604.25" y="-102" font-family="Helvetica,sans-Serif" font-size="10.00" fill="grey"> mControl</text>
</g>
<!-- Node18 -->
<g id="Node000018" class="node">
<title>Node18</title>
<g id="a_Node000018"><a xlink:href="classJAUSoundAnimationSound.html" target="_top" xlink:title=" ">
<polygon fill="white" stroke="#666666" points="510.75,-170.88 376.25,-170.88 376.25,-151.62 510.75,-151.62 510.75,-170.88"/>
<text text-anchor="middle" x="443.5" y="-157.38" font-family="Helvetica,sans-Serif" font-size="10.00">JAUSoundAnimationSound</text>
</a>
</g>
</g>
<!-- Node18&#45;&gt;Node16 -->
<g id="edge22_Node000016_Node000018" class="edge">
<title>Node18&#45;&gt;Node16</title>
<g id="a_edge22_Node000016_Node000018"><a xlink:title=" ">
<path fill="none" stroke="#9a32cd" stroke-dasharray="5,2" d="M522.6,-161.51C577.1,-161.69 648.35,-161.92 696.16,-162.08"/>
<polygon fill="#9a32cd" stroke="#9a32cd" points="522.77,-158.01 512.76,-161.47 522.74,-165.01 522.77,-158.01"/>
</a>
</g>
<text text-anchor="middle" x="604.25" y="-163" font-family="Helvetica,sans-Serif" font-size="10.00" fill="grey"> mSounds</text>
</g>
<!-- Node19 -->
<g id="Node000019" class="node">
<title>Node19</title>
<g id="a_Node000019"><a xlink:href="structJAISoundID.html" target="_top" xlink:title=" ">
<polygon fill="white" stroke="#666666" points="247.62,-170.88 179.12,-170.88 179.12,-151.62 247.62,-151.62 247.62,-170.88"/>
<text text-anchor="middle" x="213.38" y="-157.38" font-family="Helvetica,sans-Serif" font-size="10.00">JAISoundID</text>
</a>
</g>
</g>
<!-- Node19&#45;&gt;Node18 -->
<g id="edge23_Node000018_Node000019" class="edge">
<title>Node19&#45;&gt;Node18</title>
<g id="a_edge23_Node000018_Node000019"><a xlink:title=" ">
<path fill="none" stroke="#9a32cd" stroke-dasharray="5,2" d="M259.26,-161.25C292.58,-161.25 338.56,-161.25 376.13,-161.25"/>
<polygon fill="#9a32cd" stroke="#9a32cd" points="259.55,-157.75 249.55,-161.25 259.55,-164.75 259.55,-157.75"/>
</a>
</g>
<text text-anchor="middle" x="333.5" y="-163" font-family="Helvetica,sans-Serif" font-size="10.00" fill="grey"> mSoundId</text>
</g>
<!-- Node20&#45;&gt;Node1 -->
<g id="edge28_Node000001_Node000020" class="edge">
<title>Node20&#45;&gt;Node1</title>
<g id="a_edge28_Node000001_Node000020"><a xlink:title=" ">
<path fill="none" stroke="#9a32cd" stroke-dasharray="5,2" d="M1009.72,-208.78C1076.7,-204.49 1187.87,-199.34 1283.5,-204.25 1334.95,-206.89 1394.16,-213.65 1431.33,-218.35"/>
<polygon fill="#9a32cd" stroke="#9a32cd" points="1009.81,-205.27 1000.06,-209.42 1010.27,-212.25 1009.81,-205.27"/>
</a>
</g>
<text text-anchor="middle" x="1244.12" y="-239.75" font-family="Helvetica,sans-Serif" font-size="10.00" fill="grey"> field_0xa4</text>
<text text-anchor="middle" x="1244.12" y="-228.5" font-family="Helvetica,sans-Serif" font-size="10.00" fill="grey">field_0xc4</text>
<text text-anchor="middle" x="1244.12" y="-217.25" font-family="Helvetica,sans-Serif" font-size="10.00" fill="grey">field_0xe4</text>
<text text-anchor="middle" x="1244.12" y="-206" font-family="Helvetica,sans-Serif" font-size="10.00" fill="grey">mTentacleSounds</text>
</g>
<!-- Node20&#45;&gt;Node3 -->
<g id="edge24_Node000003_Node000020" class="edge">
<title>Node20&#45;&gt;Node3</title>
<g id="a_edge24_Node000003_Node000020"><a xlink:title=" ">
<path fill="none" stroke="#9a32cd" stroke-dasharray="5,2" d="M1009.77,-220.42C1038.69,-224.35 1073.69,-229.84 1104.75,-236.75 1110.47,-238.02 1116.49,-239.6 1122.29,-241.25"/>
<polygon fill="#9a32cd" stroke="#9a32cd" points="1010.47,-216.99 1000.1,-219.14 1009.55,-223.93 1010.47,-216.99"/>
</a>
</g>
<text text-anchor="middle" x="1060.5" y="-249.25" font-family="Helvetica,sans-Serif" font-size="10.00" fill="grey"> mSoundObjSimple1</text>
<text text-anchor="middle" x="1060.5" y="-238" font-family="Helvetica,sans-Serif" font-size="10.00" fill="grey">mSoundObjSimple2</text>
</g>
<!-- Node21&#45;&gt;Node2 -->
<g id="edge26_Node000002_Node000021" class="edge">
<title>Node21&#45;&gt;Node2</title>
<g id="a_edge26_Node000002_Node000021"><a xlink:title=" ">
<path fill="none" stroke="#63b8ff" d="M689.87,-312.25C736.92,-312.25 796.52,-312.25 849.62,-312.25 849.62,-312.25 849.62,-312.25 1155.75,-312.25 1218.25,-312.25 1288.61,-286.98 1324.06,-272.37"/>
<polygon fill="#63b8ff" stroke="#63b8ff" points="690.01,-308.75 680.01,-312.25 690.01,-315.75 690.01,-308.75"/>
</a>
</g>
</g>
</g>
</svg>

<g id="navigator" transform="translate(0 0)" fill="#404254">
  <rect fill="#f2f5e9" fill-opacity="0.5" stroke="#606060" stroke-width=".5" x="0" y="0" width="60" height="60"/>
  <use id="zoomplus" xlink:href="#zoomPlus" x="17" y="9" onmousedown="handleZoom(evt,'in')"/>
  <use id="zoomminus" xlink:href="#zoomMin" x="42" y="9" onmousedown="handleZoom(evt,'out')"/>
  <use id="reset" xlink:href="#resetDef" x="30" y="36" onmousedown="handleReset()"/>
   <use id="arrowup" xlink:href="#arrowUp" x="0" y="0" onmousedown="handlePan(0,-1)"/>
  <use id="arrowright" xlink:href="#arrowRight" x="0" y="0" onmousedown="handlePan(1,0)"/>
  <use id="arrowdown" xlink:href="#arrowDown" x="0" y="0" onmousedown="handlePan(0,1)"/>
  <use id="arrowleft" xlink:href="#arrowLeft" x="0" y="0" onmousedown="handlePan(-1,0)"/>
</g>
<svg viewBox="0 0 15 15" width="100%" height="30px" preserveAspectRatio="xMaxYMin meet">
 <g id="arrow_out" transform="scale(0.3 0.3)">
  <a xlink:href="classZ2CreatureOI__coll__graph_org.svg" target="_base">
   <rect id="button" ry="5" rx="5" y="6" x="6" height="38" width="38"
        fill="#f2f5e9" fill-opacity="0.5" stroke="#606060" stroke-width="1.0"/>
   <path id="arrow"
     d="M 11.500037,31.436501 C 11.940474,20.09759 22.043105,11.32322 32.158766,21.979434 L 37.068811,17.246167 C 37.068811,17.246167 37.088388,32 37.088388,32 L 22.160133,31.978069 C 22.160133,31.978069 26.997745,27.140456 26.997745,27.140456 C 18.528582,18.264221 13.291696,25.230495 11.500037,31.436501 z"
     style="fill:#404040;"/>
  </a>
 </g>
</svg>

<style type='text/css'>
<![CDATA[
[data-mouse-over-selected='false'] { opacity: 0.7; }
[data-mouse-over-selected='true']  { opacity: 1.0; }
]]>
</style>
<script type="application/ecmascript"><![CDATA[
document.addEventListener('DOMContentLoaded', (event) => {
  highlightEdges();
  highlightAdjacentNodes();
});
]]></script>
</svg>
