<?xml version="1.0" encoding="UTF-8" standalone="no"?>
<!DOCTYPE svg PUBLIC "-//W3C//DTD SVG 1.1//EN"
 "http://www.w3.org/Graphics/SVG/1.1/DTD/svg11.dtd">
<!-- Generated by graphviz version 9.0.0 (20230911.1827)
 -->
<!-- Title: dBgS_SplGrpChk Pages: 1 -->
<svg width="397pt" height="287pt"
 viewBox="0.00 0.00 396.75 287.25" xmlns="http://www.w3.org/2000/svg" xmlns:xlink="http://www.w3.org/1999/xlink">
<g id="graph0" class="graph" transform="scale(1 1) rotate(0) translate(4 283.25)">
<title>dBgS_SplGrpChk</title>
<!-- Node1 -->
<g id="Node000001" class="node">
<title>Node1</title>
<g id="a_Node000001"><a xlink:title=" ">
<polygon fill="#999999" stroke="#666666" points="181.5,-19.25 89,-19.25 89,0 181.5,0 181.5,-19.25"/>
<text text-anchor="middle" x="135.25" y="-5.75" font-family="Helvetica,sans-Serif" font-size="10.00">dBgS_SplGrpChk</text>
</a>
</g>
</g>
<!-- Node2 -->
<g id="Node000002" class="node">
<title>Node2</title>
<g id="a_Node000002"><a xlink:href="structcBgS__PolyInfo.html" target="_top" xlink:title=" ">
<polygon fill="white" stroke="#666666" points="86.5,-121.12 6,-121.12 6,-101.88 86.5,-101.88 86.5,-121.12"/>
<text text-anchor="middle" x="46.25" y="-107.62" font-family="Helvetica,sans-Serif" font-size="10.00">cBgS_PolyInfo</text>
</a>
</g>
</g>
<!-- Node2&#45;&gt;Node1 -->
<g id="edge1_Node000001_Node000002" class="edge">
<title>Node2&#45;&gt;Node1</title>
<g id="a_edge1_Node000001_Node000002"><a xlink:title=" ">
<path fill="none" stroke="#63b8ff" d="M57.58,-92.26C67.7,-76.71 83.49,-54.26 100.25,-37.25 106.68,-30.72 114.77,-24.46 121.56,-19.66"/>
<polygon fill="#63b8ff" stroke="#63b8ff" points="54.76,-90.17 52.34,-100.48 60.66,-93.93 54.76,-90.17"/>
</a>
</g>
</g>
<!-- Node3 -->
<g id="Node000003" class="node">
<title>Node3</title>
<g id="a_Node000003"><a xlink:href="classcBgS__Chk.html" target="_top" xlink:title=" ">
<polygon fill="white" stroke="#666666" points="62.5,-212.75 0,-212.75 0,-193.5 62.5,-193.5 62.5,-212.75"/>
<text text-anchor="middle" x="31.25" y="-199.25" font-family="Helvetica,sans-Serif" font-size="10.00">cBgS_Chk</text>
</a>
</g>
</g>
<!-- Node3&#45;&gt;Node1 -->
<g id="edge2_Node000001_Node000003" class="edge">
<title>Node3&#45;&gt;Node1</title>
<g id="a_edge2_Node000001_Node000003"><a xlink:title=" ">
<path fill="none" stroke="#63b8ff" d="M59.87,-187.6C72.39,-179.92 86.25,-169.39 95.25,-156.5 126.37,-111.93 133.32,-44.06 134.84,-19.71"/>
<polygon fill="#63b8ff" stroke="#63b8ff" points="58.46,-184.37 51.54,-192.39 61.95,-190.44 58.46,-184.37"/>
</a>
</g>
</g>
<!-- Node4 -->
<g id="Node000004" class="node">
<title>Node4</title>
<g id="a_Node000004"><a xlink:href="classcBgS__PolyPassChk.html" target="_top" xlink:title=" ">
<polygon fill="white" stroke="#666666" points="130.12,-279.25 26.38,-279.25 26.38,-260 130.12,-260 130.12,-279.25"/>
<text text-anchor="middle" x="78.25" y="-265.75" font-family="Helvetica,sans-Serif" font-size="10.00">cBgS_PolyPassChk</text>
</a>
</g>
</g>
<!-- Node4&#45;&gt;Node3 -->
<g id="edge3_Node000003_Node000004" class="edge">
<title>Node4&#45;&gt;Node3</title>
<g id="a_edge3_Node000003_Node000004"><a xlink:title=" ">
<path fill="none" stroke="#9a32cd" stroke-dasharray="5,2" d="M53.97,-252.51C50.37,-249.34 46.96,-245.81 44.25,-242 38.04,-233.28 34.6,-221.34 32.84,-213.22"/>
<polygon fill="#9a32cd" stroke="#9a32cd" points="51.81,-255.26 61.85,-258.64 56.11,-249.73 51.81,-255.26"/>
</a>
</g>
<text text-anchor="middle" x="78.75" y="-232.5" font-family="Helvetica,sans-Serif" font-size="10.00" fill="grey"> mPolyPassChk</text>
</g>
<!-- Node7 -->
<g id="Node000007" class="node">
<title>Node7</title>
<g id="a_Node000007"><a xlink:href="structdBgS__PolyPassChk.html" target="_top" xlink:title=" ">
<polygon fill="white" stroke="#666666" points="184.12,-212.75 80.38,-212.75 80.38,-193.5 184.12,-193.5 184.12,-212.75"/>
<text text-anchor="middle" x="132.25" y="-199.25" font-family="Helvetica,sans-Serif" font-size="10.00">dBgS_PolyPassChk</text>
</a>
</g>
</g>
<!-- Node4&#45;&gt;Node7 -->
<g id="edge7_Node000007_Node000004" class="edge">
<title>Node4&#45;&gt;Node7</title>
<g id="a_edge7_Node000007_Node000004"><a xlink:title=" ">
<path fill="none" stroke="#63b8ff" d="M102.29,-252.69C106.24,-249.44 110.07,-245.83 113.25,-242 120.49,-233.28 125.89,-221.35 129.05,-213.22"/>
<polygon fill="#63b8ff" stroke="#63b8ff" points="100.24,-249.85 94.34,-258.65 104.44,-255.45 100.24,-249.85"/>
</a>
</g>
</g>
<!-- Node5 -->
<g id="Node000005" class="node">
<title>Node5</title>
<g id="a_Node000005"><a xlink:href="classcBgS__GrpPassChk.html" target="_top" xlink:title=" ">
<polygon fill="white" stroke="#666666" points="267.62,-279.25 166.88,-279.25 166.88,-260 267.62,-260 267.62,-279.25"/>
<text text-anchor="middle" x="217.25" y="-265.75" font-family="Helvetica,sans-Serif" font-size="10.00">cBgS_GrpPassChk</text>
</a>
</g>
</g>
<!-- Node5&#45;&gt;Node3 -->
<g id="edge4_Node000003_Node000005" class="edge">
<title>Node5&#45;&gt;Node3</title>
<g id="a_edge4_Node000003_Node000005"><a xlink:title=" ">
<path fill="none" stroke="#9a32cd" stroke-dasharray="5,2" d="M184.06,-255.46C164.68,-247.93 139.7,-238.47 117.25,-230.75 99.07,-224.5 78.51,-218.11 62.05,-213.16"/>
<polygon fill="#9a32cd" stroke="#9a32cd" points="182.76,-258.71 193.35,-259.1 185.31,-252.2 182.76,-258.71"/>
</a>
</g>
<text text-anchor="middle" x="181.25" y="-232.5" font-family="Helvetica,sans-Serif" font-size="10.00" fill="grey"> mGrpPassChk</text>
</g>
<!-- Node8 -->
<g id="Node000008" class="node">
<title>Node8</title>
<g id="a_Node000008"><a xlink:href="classdBgS__GrpPassChk.html" target="_top" xlink:title=" ">
<polygon fill="white" stroke="#666666" points="302.62,-212.75 201.88,-212.75 201.88,-193.5 302.62,-193.5 302.62,-212.75"/>
<text text-anchor="middle" x="252.25" y="-199.25" font-family="Helvetica,sans-Serif" font-size="10.00">dBgS_GrpPassChk</text>
</a>
</g>
</g>
<!-- Node5&#45;&gt;Node8 -->
<g id="edge9_Node000008_Node000005" class="edge">
<title>Node5&#45;&gt;Node8</title>
<g id="a_edge9_Node000008_Node000005"><a xlink:title=" ">
<path fill="none" stroke="#63b8ff" d="M230.42,-250.01C232.12,-247.36 233.78,-244.64 235.25,-242 240.58,-232.43 245.57,-220.87 248.75,-213.06"/>
<polygon fill="#63b8ff" stroke="#63b8ff" points="227.55,-248.01 224.84,-258.26 233.34,-251.94 227.55,-248.01"/>
</a>
</g>
</g>
<!-- Node6 -->
<g id="Node000006" class="node">
<title>Node6</title>
<g id="a_Node000006"><a xlink:href="classdBgS__Chk.html" target="_top" xlink:title=" ">
<polygon fill="white" stroke="#666666" points="204.5,-121.12 142,-121.12 142,-101.88 204.5,-101.88 204.5,-121.12"/>
<text text-anchor="middle" x="173.25" y="-107.62" font-family="Helvetica,sans-Serif" font-size="10.00">dBgS_Chk</text>
</a>
</g>
</g>
<!-- Node6&#45;&gt;Node1 -->
<g id="edge5_Node000001_Node000006" class="edge">
<title>Node6&#45;&gt;Node1</title>
<g id="a_edge5_Node000001_Node000006"><a xlink:title=" ">
<path fill="none" stroke="#63b8ff" d="M165.88,-91.12C157.67,-69.56 144.77,-35.66 138.67,-19.61"/>
<polygon fill="#63b8ff" stroke="#63b8ff" points="162.51,-92.12 169.34,-100.22 169.05,-89.63 162.51,-92.12"/>
</a>
</g>
</g>
<!-- Node7&#45;&gt;Node6 -->
<g id="edge6_Node000006_Node000007" class="edge">
<title>Node7&#45;&gt;Node6</title>
<g id="a_edge6_Node000006_Node000007"><a xlink:title=" ">
<path fill="none" stroke="#63b8ff" d="M141.11,-182.75C149.81,-163.74 162.69,-135.59 169.19,-121.39"/>
<polygon fill="#63b8ff" stroke="#63b8ff" points="137.94,-181.28 136.96,-191.83 144.3,-184.19 137.94,-181.28"/>
</a>
</g>
</g>
<!-- Node8&#45;&gt;Node6 -->
<g id="edge8_Node000006_Node000008" class="edge">
<title>Node8&#45;&gt;Node6</title>
<g id="a_edge8_Node000006_Node000008"><a xlink:title=" ">
<path fill="none" stroke="#63b8ff" d="M236.81,-184.6C220.07,-165.61 194.01,-136.06 181.08,-121.39"/>
<polygon fill="#63b8ff" stroke="#63b8ff" points="234.15,-186.88 243.39,-192.07 239.4,-182.25 234.15,-186.88"/>
</a>
</g>
</g>
<!-- Node9 -->
<g id="Node000009" class="node">
<title>Node9</title>
<g id="a_Node000009"><a xlink:href="structcXyz.html" target="_top" xlink:title=" ">
<polygon fill="white" stroke="#666666" points="328.75,-121.12 291.75,-121.12 291.75,-101.88 328.75,-101.88 328.75,-121.12"/>
<text text-anchor="middle" x="310.25" y="-107.62" font-family="Helvetica,sans-Serif" font-size="10.00">cXyz</text>
</a>
</g>
</g>
<!-- Node9&#45;&gt;Node1 -->
<g id="edge10_Node000001_Node000009" class="edge">
<title>Node9&#45;&gt;Node1</title>
<g id="a_edge10_Node000001_Node000009"><a xlink:title=" ">
<path fill="none" stroke="#9a32cd" stroke-dasharray="5,2" d="M284.46,-95.78C247.75,-74.83 181.5,-37.02 151.18,-19.72"/>
<polygon fill="#9a32cd" stroke="#9a32cd" points="282.68,-98.79 293.1,-100.71 286.15,-92.71 282.68,-98.79"/>
</a>
</g>
<text text-anchor="middle" x="219.75" y="-39" font-family="Helvetica,sans-Serif" font-size="10.00" fill="grey"> m_ground</text>
</g>
<!-- Node9&#45;&gt;Node9 -->
<g id="edge12_Node000009_Node000009" class="edge">
<title>Node9&#45;&gt;Node9</title>
<g id="a_edge12_Node000009_Node000009"><a xlink:title=" ">
<path fill="none" stroke="#9a32cd" stroke-dasharray="5,2" d="M335.02,-123.32C341.68,-122.68 346.75,-118.74 346.75,-111.5 346.75,-100.46 334.99,-97.1 323.73,-101.41"/>
<polygon fill="#9a32cd" stroke="#9a32cd" points="335.64,-119.87 325.22,-121.82 334.58,-126.79 335.64,-119.87"/>
</a>
</g>
<text text-anchor="middle" x="367.75" y="-147" font-family="Helvetica,sans-Serif" font-size="10.00" fill="grey"> BaseX</text>
<text text-anchor="middle" x="367.75" y="-135.75" font-family="Helvetica,sans-Serif" font-size="10.00" fill="grey">BaseXY</text>
<text text-anchor="middle" x="367.75" y="-124.5" font-family="Helvetica,sans-Serif" font-size="10.00" fill="grey">BaseXYZ</text>
<text text-anchor="middle" x="367.75" y="-113.25" font-family="Helvetica,sans-Serif" font-size="10.00" fill="grey">BaseXZ</text>
<text text-anchor="middle" x="367.75" y="-102" font-family="Helvetica,sans-Serif" font-size="10.00" fill="grey">BaseY</text>
<text text-anchor="middle" x="367.75" y="-90.75" font-family="Helvetica,sans-Serif" font-size="10.00" fill="grey">BaseYZ</text>
<text text-anchor="middle" x="367.75" y="-79.5" font-family="Helvetica,sans-Serif" font-size="10.00" fill="grey">BaseZ</text>
<text text-anchor="middle" x="367.75" y="-68.25" font-family="Helvetica,sans-Serif" font-size="10.00" fill="grey">Zero</text>
</g>
<!-- Node10 -->
<g id="Node000010" class="node">
<title>Node10</title>
<g id="a_Node000010"><a xlink:href="structVec.html" target="_top" xlink:title=" ">
<polygon fill="white" stroke="#666666" points="353.88,-212.75 320.62,-212.75 320.62,-193.5 353.88,-193.5 353.88,-212.75"/>
<text text-anchor="middle" x="337.25" y="-199.25" font-family="Helvetica,sans-Serif" font-size="10.00">Vec</text>
</a>
</g>
</g>
<!-- Node10&#45;&gt;Node9 -->
<g id="edge11_Node000009_Node000010" class="edge">
<title>Node10&#45;&gt;Node9</title>
<g id="a_edge11_Node000009_Node000010"><a xlink:title=" ">
<path fill="none" stroke="#63b8ff" d="M331.25,-182.21C325.53,-163.21 317.17,-135.45 312.93,-121.39"/>
<polygon fill="#63b8ff" stroke="#63b8ff" points="327.89,-183.19 334.13,-191.75 334.59,-181.17 327.89,-183.19"/>
</a>
</g>
</g>
</g>
</svg>
