<?xml version="1.0" encoding="UTF-8" standalone="no"?>
<!DOCTYPE svg PUBLIC "-//W3C//DTD SVG 1.1//EN"
 "http://www.w3.org/Graphics/SVG/1.1/DTD/svg11.dtd">
<!-- Generated by graphviz version 9.0.0 (20230911.1827)
 -->
<!-- Title: daNpcF_c Pages: 1 -->
<svg width="498pt" height="193pt"
 viewBox="0.00 0.00 498.00 193.00" xmlns="http://www.w3.org/2000/svg" xmlns:xlink="http://www.w3.org/1999/xlink">

<svg id="main" version="1.1" xmlns="http://www.w3.org/2000/svg" xmlns:xlink="http://www.w3.org/1999/xlink" xml:space="preserve" onload="init(evt)">
<style type="text/css"><![CDATA[
.node, .edge {opacity: 0.7;}
.node.selected, .edge.selected {opacity: 1;}
.edge:hover path { stroke: red; }
.edge:hover polygon { stroke: red; fill: red; }
]]></style>
<script type="application/ecmascript" xlink:href="svg.min.js"/>
<svg id="graph" class="graph">
<g id="graph0" class="graph" transform="scale(1 1) rotate(0) translate(4 189)">
<title>daNpcF_c</title>
<!-- Node1 -->
<g id="Node000001" class="node">
<title>Node1</title>
<g id="a_Node000001"><a xlink:title=" ">
<polygon fill="#999999" stroke="#666666" points="300.62,-74.5 239.62,-74.5 239.62,-55.25 300.62,-55.25 300.62,-74.5"/>
<text text-anchor="middle" x="270.12" y="-61" font-family="Helvetica,sans-Serif" font-size="10.00">daNpcF_c</text>
</a>
</g>
</g>
<!-- Node4 -->
<g id="Node000004" class="node">
<title>Node4</title>
<g id="a_Node000004"><a xlink:href="classdaNpcAsh__c.html" target="_top" xlink:title="Ashei.">
<polygon fill="white" stroke="#666666" points="72.25,-19.25 0,-19.25 0,0 72.25,0 72.25,-19.25"/>
<text text-anchor="middle" x="36.12" y="-5.75" font-family="Helvetica,sans-Serif" font-size="10.00">daNpcAsh_c</text>
</a>
</g>
</g>
<!-- Node1&#45;&gt;Node4 -->
<g id="edge3_Node000001_Node000004" class="edge">
<title>Node1&#45;&gt;Node4</title>
<g id="a_edge3_Node000001_Node000004"><a xlink:title=" ">
<path fill="none" stroke="#63b8ff" d="M228.56,-54.42C184.24,-44.33 114.72,-28.51 72.49,-18.9"/>
<polygon fill="#63b8ff" stroke="#63b8ff" points="227.53,-57.77 238.06,-56.58 229.08,-50.95 227.53,-57.77"/>
</a>
</g>
</g>
<!-- Node5 -->
<g id="Node000005" class="node">
<title>Node5</title>
<g id="a_Node000005"><a xlink:href="classdaNpcF__MoveBgActor__c.html" target="_top" xlink:title=" ">
<polygon fill="white" stroke="#666666" points="215.88,-19.25 90.38,-19.25 90.38,0 215.88,0 215.88,-19.25"/>
<text text-anchor="middle" x="153.12" y="-5.75" font-family="Helvetica,sans-Serif" font-size="10.00">daNpcF_MoveBgActor_c</text>
</a>
</g>
</g>
<!-- Node1&#45;&gt;Node5 -->
<g id="edge4_Node000001_Node000005" class="edge">
<title>Node1&#45;&gt;Node5</title>
<g id="a_edge4_Node000001_Node000005"><a xlink:title=" ">
<path fill="none" stroke="#63b8ff" d="M239.94,-50.14C218.9,-40.56 191.42,-28.06 173.07,-19.7"/>
<polygon fill="#63b8ff" stroke="#63b8ff" points="238.35,-53.26 248.9,-54.21 241.25,-46.89 238.35,-53.26"/>
</a>
</g>
</g>
<!-- Node6 -->
<g id="Node000006" class="node">
<title>Node6</title>
<g id="a_Node000006"><a xlink:href="classdaNpcThe__c.html" target="_top" xlink:title="Telma.">
<polygon fill="white" stroke="#666666" points="305.88,-19.25 234.38,-19.25 234.38,0 305.88,0 305.88,-19.25"/>
<text text-anchor="middle" x="270.12" y="-5.75" font-family="Helvetica,sans-Serif" font-size="10.00">daNpcThe_c</text>
</a>
</g>
</g>
<!-- Node1&#45;&gt;Node6 -->
<g id="edge5_Node000001_Node000006" class="edge">
<title>Node1&#45;&gt;Node6</title>
<g id="a_edge5_Node000001_Node000006"><a xlink:title=" ">
<path fill="none" stroke="#63b8ff" d="M270.12,-43.63C270.12,-35.34 270.12,-26.17 270.12,-19.61"/>
<polygon fill="#63b8ff" stroke="#63b8ff" points="266.63,-43.57 270.13,-53.57 273.63,-43.57 266.63,-43.57"/>
</a>
</g>
</g>
<!-- Node7 -->
<g id="Node000007" class="node">
<title>Node7</title>
<g id="a_Node000007"><a xlink:href="classdaNpc__zrA__c.html" target="_top" xlink:title=" ">
<polygon fill="white" stroke="#666666" points="398.38,-19.25 323.88,-19.25 323.88,0 398.38,0 398.38,-19.25"/>
<text text-anchor="middle" x="361.12" y="-5.75" font-family="Helvetica,sans-Serif" font-size="10.00">daNpc_zrA_c</text>
</a>
</g>
</g>
<!-- Node1&#45;&gt;Node7 -->
<g id="edge6_Node000001_Node000007" class="edge">
<title>Node1&#45;&gt;Node7</title>
<g id="a_edge6_Node000001_Node000007"><a xlink:title=" ">
<path fill="none" stroke="#63b8ff" d="M295.42,-49.07C311.52,-39.65 331.86,-27.75 345.61,-19.7"/>
<polygon fill="#63b8ff" stroke="#63b8ff" points="293.73,-46.01 286.87,-54.08 297.27,-52.05 293.73,-46.01"/>
</a>
</g>
</g>
<!-- Node8 -->
<g id="Node000008" class="node">
<title>Node8</title>
<g id="a_Node000008"><a xlink:href="classdaNpc__zrZ__c.html" target="_top" xlink:title="Rutela.">
<polygon fill="white" stroke="#666666" points="490,-19.25 416.25,-19.25 416.25,0 490,0 490,-19.25"/>
<text text-anchor="middle" x="453.12" y="-5.75" font-family="Helvetica,sans-Serif" font-size="10.00">daNpc_zrZ_c</text>
</a>
</g>
</g>
<!-- Node1&#45;&gt;Node8 -->
<g id="edge7_Node000001_Node000008" class="edge">
<title>Node1&#45;&gt;Node8</title>
<g id="a_edge7_Node000001_Node000008"><a xlink:title=" ">
<path fill="none" stroke="#63b8ff" d="M311.56,-51.82C345.01,-42.08 391.36,-28.6 421.78,-19.75"/>
<polygon fill="#63b8ff" stroke="#63b8ff" points="310.83,-48.38 302.21,-54.54 312.79,-55.11 310.83,-48.38"/>
</a>
</g>
</g>
<!-- Node2 -->
<g id="Node000002" class="node">
<title>Node2</title>
<g id="a_Node000002"><a xlink:href="structfopAc__ac__c.html" target="_top" xlink:title=" ">
<polygon fill="white" stroke="#666666" points="304,-129.75 236.25,-129.75 236.25,-110.5 304,-110.5 304,-129.75"/>
<text text-anchor="middle" x="270.12" y="-116.25" font-family="Helvetica,sans-Serif" font-size="10.00">fopAc_ac_c</text>
</a>
</g>
</g>
<!-- Node2&#45;&gt;Node1 -->
<g id="edge1_Node000001_Node000002" class="edge">
<title>Node2&#45;&gt;Node1</title>
<g id="a_edge1_Node000001_Node000002"><a xlink:title=" ">
<path fill="none" stroke="#63b8ff" d="M270.12,-98.88C270.12,-90.59 270.12,-81.42 270.12,-74.86"/>
<polygon fill="#63b8ff" stroke="#63b8ff" points="266.63,-98.82 270.13,-108.82 273.63,-98.82 266.63,-98.82"/>
</a>
</g>
</g>
<!-- Node3 -->
<g id="Node000003" class="node">
<title>Node3</title>
<g id="a_Node000003"><a xlink:href="structleafdraw__class.html" target="_top" xlink:title=" ">
<polygon fill="white" stroke="#666666" points="310.75,-185 229.5,-185 229.5,-165.75 310.75,-165.75 310.75,-185"/>
<text text-anchor="middle" x="270.12" y="-171.5" font-family="Helvetica,sans-Serif" font-size="10.00">leafdraw_class</text>
</a>
</g>
</g>
<!-- Node3&#45;&gt;Node2 -->
<g id="edge2_Node000002_Node000003" class="edge">
<title>Node3&#45;&gt;Node2</title>
<g id="a_edge2_Node000002_Node000003"><a xlink:title=" ">
<path fill="none" stroke="#63b8ff" d="M270.12,-154.13C270.12,-145.84 270.12,-136.67 270.12,-130.11"/>
<polygon fill="#63b8ff" stroke="#63b8ff" points="266.63,-154.07 270.13,-164.07 273.63,-154.07 266.63,-154.07"/>
</a>
</g>
</g>
</g>
</svg>
</svg>

<style type='text/css'>
<![CDATA[
[data-mouse-over-selected='false'] { opacity: 0.7; }
[data-mouse-over-selected='true']  { opacity: 1.0; }
]]>
</style>
<script type="application/ecmascript"><![CDATA[
document.addEventListener('DOMContentLoaded', (event) => {
  highlightEdges();
  highlightAdjacentNodes();
});
]]></script>
</svg>
