<?xml version="1.0" encoding="UTF-8" standalone="no"?>
<!DOCTYPE svg PUBLIC "-//W3C//DTD SVG 1.1//EN"
 "http://www.w3.org/Graphics/SVG/1.1/DTD/svg11.dtd">
<!-- Generated by graphviz version 9.0.0 (20230911.1827)
 -->
<!-- Title: daNpcF_Lookat_c Pages: 1 -->
<svg width="212pt" height="255pt"
 viewBox="0.00 0.00 212.25 254.50" xmlns="http://www.w3.org/2000/svg" xmlns:xlink="http://www.w3.org/1999/xlink">
<g id="graph0" class="graph" transform="scale(1 1) rotate(0) translate(4 250.5)">
<title>daNpcF_Lookat_c</title>
<!-- Node1 -->
<g id="Node000001" class="node">
<title>Node1</title>
<g id="a_Node000001"><a xlink:title=" ">
<polygon fill="#999999" stroke="#666666" points="125.62,-19.25 29.38,-19.25 29.38,0 125.62,0 125.62,-19.25"/>
<text text-anchor="middle" x="77.5" y="-5.75" font-family="Helvetica,sans-Serif" font-size="10.00">daNpcF_Lookat_c</text>
</a>
</g>
</g>
<!-- Node2 -->
<g id="Node000002" class="node">
<title>Node2</title>
<g id="a_Node000002"><a xlink:href="structcXyz.html" target="_top" xlink:title=" ">
<polygon fill="white" stroke="#666666" points="37,-154.88 0,-154.88 0,-135.62 37,-135.62 37,-154.88"/>
<text text-anchor="middle" x="18.5" y="-141.38" font-family="Helvetica,sans-Serif" font-size="10.00">cXyz</text>
</a>
</g>
</g>
<!-- Node2&#45;&gt;Node1 -->
<g id="edge1_Node000001_Node000002" class="edge">
<title>Node2&#45;&gt;Node1</title>
<g id="a_edge1_Node000001_Node000002"><a xlink:title=" ">
<path fill="none" stroke="#9a32cd" stroke-dasharray="5,2" d="M23.31,-124.24C29.13,-102.07 40.15,-65.7 56,-37.25 59.58,-30.81 64.74,-24.37 69.11,-19.43"/>
<polygon fill="#9a32cd" stroke="#9a32cd" points="19.96,-123.2 20.92,-133.75 26.75,-124.9 19.96,-123.2"/>
</a>
</g>
<text text-anchor="middle" x="79.75" y="-61.5" font-family="Helvetica,sans-Serif" font-size="10.00" fill="grey"> mAttnPos</text>
<text text-anchor="middle" x="79.75" y="-50.25" font-family="Helvetica,sans-Serif" font-size="10.00" fill="grey">mJointPos</text>
</g>
<!-- Node2&#45;&gt;Node2 -->
<g id="edge3_Node000002_Node000002" class="edge">
<title>Node2&#45;&gt;Node2</title>
<g id="a_edge3_Node000002_Node000002"><a xlink:title=" ">
<path fill="none" stroke="#9a32cd" stroke-dasharray="5,2" d="M43.27,-157.07C49.93,-156.43 55,-152.49 55,-145.25 55,-134.21 43.24,-130.85 31.98,-135.16"/>
<polygon fill="#9a32cd" stroke="#9a32cd" points="43.89,-153.62 33.47,-155.57 42.83,-160.54 43.89,-153.62"/>
</a>
</g>
<text text-anchor="middle" x="76" y="-180.75" font-family="Helvetica,sans-Serif" font-size="10.00" fill="grey"> BaseX</text>
<text text-anchor="middle" x="76" y="-169.5" font-family="Helvetica,sans-Serif" font-size="10.00" fill="grey">BaseXY</text>
<text text-anchor="middle" x="76" y="-158.25" font-family="Helvetica,sans-Serif" font-size="10.00" fill="grey">BaseXYZ</text>
<text text-anchor="middle" x="76" y="-147" font-family="Helvetica,sans-Serif" font-size="10.00" fill="grey">BaseXZ</text>
<text text-anchor="middle" x="76" y="-135.75" font-family="Helvetica,sans-Serif" font-size="10.00" fill="grey">BaseY</text>
<text text-anchor="middle" x="76" y="-124.5" font-family="Helvetica,sans-Serif" font-size="10.00" fill="grey">BaseYZ</text>
<text text-anchor="middle" x="76" y="-113.25" font-family="Helvetica,sans-Serif" font-size="10.00" fill="grey">BaseZ</text>
<text text-anchor="middle" x="76" y="-102" font-family="Helvetica,sans-Serif" font-size="10.00" fill="grey">Zero</text>
</g>
<!-- Node3 -->
<g id="Node000003" class="node">
<title>Node3</title>
<g id="a_Node000003"><a xlink:href="structVec.html" target="_top" xlink:title=" ">
<polygon fill="white" stroke="#666666" points="35.12,-246.5 1.88,-246.5 1.88,-227.25 35.12,-227.25 35.12,-246.5"/>
<text text-anchor="middle" x="18.5" y="-233" font-family="Helvetica,sans-Serif" font-size="10.00">Vec</text>
</a>
</g>
</g>
<!-- Node3&#45;&gt;Node2 -->
<g id="edge2_Node000002_Node000003" class="edge">
<title>Node3&#45;&gt;Node2</title>
<g id="a_edge2_Node000002_Node000003"><a xlink:title=" ">
<path fill="none" stroke="#63b8ff" d="M18.5,-215.69C18.5,-196.69 18.5,-169.14 18.5,-155.14"/>
<polygon fill="#63b8ff" stroke="#63b8ff" points="15,-215.44 18.5,-225.44 22,-215.44 15,-215.44"/>
</a>
</g>
</g>
<!-- Node4 -->
<g id="Node000004" class="node">
<title>Node4</title>
<g id="a_Node000004"><a xlink:href="structcsXyz.html" target="_top" xlink:title=" ">
<polygon fill="white" stroke="#666666" points="157.62,-154.88 115.38,-154.88 115.38,-135.62 157.62,-135.62 157.62,-154.88"/>
<text text-anchor="middle" x="136.5" y="-141.38" font-family="Helvetica,sans-Serif" font-size="10.00">csXyz</text>
</a>
</g>
</g>
<!-- Node4&#45;&gt;Node1 -->
<g id="edge4_Node000001_Node000004" class="edge">
<title>Node4&#45;&gt;Node1</title>
<g id="a_edge4_Node000001_Node000004"><a xlink:title=" ">
<path fill="none" stroke="#9a32cd" stroke-dasharray="5,2" d="M132.95,-124.34C128.35,-101.99 118.91,-65.2 102.5,-37.25 98.65,-30.69 92.91,-24.43 87.91,-19.63"/>
<polygon fill="#9a32cd" stroke="#9a32cd" points="129.46,-124.74 134.78,-133.9 136.33,-123.42 129.46,-124.74"/>
</a>
</g>
<text text-anchor="middle" x="163.38" y="-72.75" font-family="Helvetica,sans-Serif" font-size="10.00" fill="grey"> mAngularMoveDis</text>
<text text-anchor="middle" x="163.38" y="-61.5" font-family="Helvetica,sans-Serif" font-size="10.00" fill="grey">mMaxAngle</text>
<text text-anchor="middle" x="163.38" y="-50.25" font-family="Helvetica,sans-Serif" font-size="10.00" fill="grey">mMinAngle</text>
<text text-anchor="middle" x="163.38" y="-39" font-family="Helvetica,sans-Serif" font-size="10.00" fill="grey">mRotAngle</text>
</g>
<!-- Node4&#45;&gt;Node4 -->
<g id="edge6_Node000004_Node000004" class="edge">
<title>Node4&#45;&gt;Node4</title>
<g id="a_edge6_Node000004_Node000004"><a xlink:title=" ">
<path fill="none" stroke="#9a32cd" stroke-dasharray="5,2" d="M162.28,-157.12C169.8,-156.71 175.62,-152.75 175.62,-145.25 175.62,-134.21 163.01,-130.85 150.95,-135.16"/>
<polygon fill="#9a32cd" stroke="#9a32cd" points="162.86,-153.67 152.44,-155.57 161.78,-160.58 162.86,-153.67"/>
</a>
</g>
<text text-anchor="middle" x="186.5" y="-141.38" font-family="Helvetica,sans-Serif" font-size="10.00" fill="grey"> Zero</text>
</g>
<!-- Node5 -->
<g id="Node000005" class="node">
<title>Node5</title>
<g id="a_Node000005"><a xlink:href="structSVec.html" target="_top" xlink:title=" ">
<polygon fill="white" stroke="#666666" points="156.5,-246.5 116.5,-246.5 116.5,-227.25 156.5,-227.25 156.5,-246.5"/>
<text text-anchor="middle" x="136.5" y="-233" font-family="Helvetica,sans-Serif" font-size="10.00">SVec</text>
</a>
</g>
</g>
<!-- Node5&#45;&gt;Node4 -->
<g id="edge5_Node000004_Node000005" class="edge">
<title>Node5&#45;&gt;Node4</title>
<g id="a_edge5_Node000004_Node000005"><a xlink:title=" ">
<path fill="none" stroke="#63b8ff" d="M136.5,-215.69C136.5,-196.69 136.5,-169.14 136.5,-155.14"/>
<polygon fill="#63b8ff" stroke="#63b8ff" points="133,-215.44 136.5,-225.44 140,-215.44 133,-215.44"/>
</a>
</g>
</g>
</g>
</svg>
