<?xml version="1.0" encoding="UTF-8" standalone="no"?>
<!DOCTYPE svg PUBLIC "-//W3C//DTD SVG 1.1//EN"
 "http://www.w3.org/Graphics/SVG/1.1/DTD/svg11.dtd">
<!-- Generated by graphviz version 9.0.0 (20230911.1827)
 -->
<!-- Title: daBaseNpc_lookat_c Pages: 1 -->
<svg width="205pt" height="266pt"
 viewBox="0.00 0.00 204.62 265.75" xmlns="http://www.w3.org/2000/svg" xmlns:xlink="http://www.w3.org/1999/xlink">

<svg id="main" version="1.1" xmlns="http://www.w3.org/2000/svg" xmlns:xlink="http://www.w3.org/1999/xlink" xml:space="preserve" onload="init(evt)">
<style type="text/css"><![CDATA[
.node, .edge {opacity: 0.7;}
.node.selected, .edge.selected {opacity: 1;}
.edge:hover path { stroke: red; }
.edge:hover polygon { stroke: red; fill: red; }
]]></style>
<script type="application/ecmascript" xlink:href="svg.min.js"/>
<svg id="graph" class="graph">
<g id="graph0" class="graph" transform="scale(1 1) rotate(0) translate(4 261.75)">
<title>daBaseNpc_lookat_c</title>
<!-- Node1 -->
<g id="Node000001" class="node">
<title>Node1</title>
<g id="a_Node000001"><a xlink:title=" ">
<polygon fill="#999999" stroke="#666666" points="123.62,-19.25 14.62,-19.25 14.62,0 123.62,0 123.62,-19.25"/>
<text text-anchor="middle" x="69.12" y="-5.75" font-family="Helvetica,sans-Serif" font-size="10.00">daBaseNpc_lookat_c</text>
</a>
</g>
</g>
<!-- Node2 -->
<g id="Node000002" class="node">
<title>Node2</title>
<g id="a_Node000002"><a xlink:href="structcsXyz.html" target="_top" xlink:title=" ">
<polygon fill="white" stroke="#666666" points="42.25,-166.12 0,-166.12 0,-146.88 42.25,-146.88 42.25,-166.12"/>
<text text-anchor="middle" x="21.12" y="-152.62" font-family="Helvetica,sans-Serif" font-size="10.00">csXyz</text>
</a>
</g>
</g>
<!-- Node2&#45;&gt;Node1 -->
<g id="edge1_Node000001_Node000002" class="edge">
<title>Node2&#45;&gt;Node1</title>
<g id="a_edge1_Node000001_Node000002"><a xlink:title=" ">
<path fill="none" stroke="#9a32cd" stroke-dasharray="5,2" d="M18.38,-135.26C16.03,-110.44 15.39,-67.93 32.88,-37.25 37.05,-29.92 44.16,-24.04 50.97,-19.69"/>
<polygon fill="#9a32cd" stroke="#9a32cd" points="14.87,-135.42 19.5,-144.96 21.83,-134.62 14.87,-135.42"/>
</a>
</g>
<text text-anchor="middle" x="62.75" y="-84" font-family="Helvetica,sans-Serif" font-size="10.00" fill="grey"> mMaxJntLmt</text>
<text text-anchor="middle" x="62.75" y="-72.75" font-family="Helvetica,sans-Serif" font-size="10.00" fill="grey">mMinJntLmt</text>
<text text-anchor="middle" x="62.75" y="-61.5" font-family="Helvetica,sans-Serif" font-size="10.00" fill="grey">mRotation</text>
<text text-anchor="middle" x="62.75" y="-50.25" font-family="Helvetica,sans-Serif" font-size="10.00" fill="grey">mUnk</text>
<text text-anchor="middle" x="62.75" y="-39" font-family="Helvetica,sans-Serif" font-size="10.00" fill="grey">mUnk2</text>
</g>
<!-- Node2&#45;&gt;Node2 -->
<g id="edge3_Node000002_Node000002" class="edge">
<title>Node2&#45;&gt;Node2</title>
<g id="a_edge3_Node000002_Node000002"><a xlink:title=" ">
<path fill="none" stroke="#9a32cd" stroke-dasharray="5,2" d="M46.9,-168.37C54.42,-167.96 60.25,-164 60.25,-156.5 60.25,-145.46 47.64,-142.1 35.57,-146.41"/>
<polygon fill="#9a32cd" stroke="#9a32cd" points="47.49,-164.92 37.07,-166.82 46.4,-171.83 47.49,-164.92"/>
</a>
</g>
<text text-anchor="middle" x="71.12" y="-152.62" font-family="Helvetica,sans-Serif" font-size="10.00" fill="grey"> Zero</text>
</g>
<!-- Node3 -->
<g id="Node000003" class="node">
<title>Node3</title>
<g id="a_Node000003"><a xlink:href="structSVec.html" target="_top" xlink:title=" ">
<polygon fill="white" stroke="#666666" points="41.12,-257.75 1.12,-257.75 1.12,-238.5 41.12,-238.5 41.12,-257.75"/>
<text text-anchor="middle" x="21.12" y="-244.25" font-family="Helvetica,sans-Serif" font-size="10.00">SVec</text>
</a>
</g>
</g>
<!-- Node3&#45;&gt;Node2 -->
<g id="edge2_Node000002_Node000003" class="edge">
<title>Node3&#45;&gt;Node2</title>
<g id="a_edge2_Node000002_Node000003"><a xlink:title=" ">
<path fill="none" stroke="#63b8ff" d="M21.12,-226.94C21.12,-207.94 21.12,-180.39 21.12,-166.39"/>
<polygon fill="#63b8ff" stroke="#63b8ff" points="17.63,-226.69 21.13,-236.69 24.63,-226.69 17.63,-226.69"/>
</a>
</g>
</g>
<!-- Node4 -->
<g id="Node000004" class="node">
<title>Node4</title>
<g id="a_Node000004"><a xlink:href="structcXyz.html" target="_top" xlink:title=" ">
<polygon fill="white" stroke="#666666" points="136.62,-166.12 99.62,-166.12 99.62,-146.88 136.62,-146.88 136.62,-166.12"/>
<text text-anchor="middle" x="118.12" y="-152.62" font-family="Helvetica,sans-Serif" font-size="10.00">cXyz</text>
</a>
</g>
</g>
<!-- Node4&#45;&gt;Node1 -->
<g id="edge4_Node000001_Node000004" class="edge">
<title>Node4&#45;&gt;Node1</title>
<g id="a_edge4_Node000001_Node000004"><a xlink:title=" ">
<path fill="none" stroke="#9a32cd" stroke-dasharray="5,2" d="M116.69,-135.05C114.31,-110.63 108.09,-69.11 92.12,-37.25 88.84,-30.7 83.58,-24.44 78.92,-19.64"/>
<polygon fill="#9a32cd" stroke="#9a32cd" points="113.2,-135.21 117.51,-144.89 120.17,-134.63 113.2,-135.21"/>
</a>
</g>
<text text-anchor="middle" x="135.5" y="-67.12" font-family="Helvetica,sans-Serif" font-size="10.00" fill="grey"> mJntPos</text>
<text text-anchor="middle" x="135.5" y="-55.88" font-family="Helvetica,sans-Serif" font-size="10.00" fill="grey">mpAttnPos</text>
</g>
<!-- Node4&#45;&gt;Node4 -->
<g id="edge6_Node000004_Node000004" class="edge">
<title>Node4&#45;&gt;Node4</title>
<g id="a_edge6_Node000004_Node000004"><a xlink:title=" ">
<path fill="none" stroke="#9a32cd" stroke-dasharray="5,2" d="M142.89,-168.32C149.56,-167.68 154.62,-163.74 154.62,-156.5 154.62,-145.46 142.86,-142.1 131.6,-146.41"/>
<polygon fill="#9a32cd" stroke="#9a32cd" points="143.51,-164.87 133.1,-166.82 142.45,-171.79 143.51,-164.87"/>
</a>
</g>
<text text-anchor="middle" x="175.62" y="-192" font-family="Helvetica,sans-Serif" font-size="10.00" fill="grey"> BaseX</text>
<text text-anchor="middle" x="175.62" y="-180.75" font-family="Helvetica,sans-Serif" font-size="10.00" fill="grey">BaseXY</text>
<text text-anchor="middle" x="175.62" y="-169.5" font-family="Helvetica,sans-Serif" font-size="10.00" fill="grey">BaseXYZ</text>
<text text-anchor="middle" x="175.62" y="-158.25" font-family="Helvetica,sans-Serif" font-size="10.00" fill="grey">BaseXZ</text>
<text text-anchor="middle" x="175.62" y="-147" font-family="Helvetica,sans-Serif" font-size="10.00" fill="grey">BaseY</text>
<text text-anchor="middle" x="175.62" y="-135.75" font-family="Helvetica,sans-Serif" font-size="10.00" fill="grey">BaseYZ</text>
<text text-anchor="middle" x="175.62" y="-124.5" font-family="Helvetica,sans-Serif" font-size="10.00" fill="grey">BaseZ</text>
<text text-anchor="middle" x="175.62" y="-113.25" font-family="Helvetica,sans-Serif" font-size="10.00" fill="grey">Zero</text>
</g>
<!-- Node5 -->
<g id="Node000005" class="node">
<title>Node5</title>
<g id="a_Node000005"><a xlink:href="structVec.html" target="_top" xlink:title=" ">
<polygon fill="white" stroke="#666666" points="134.75,-257.75 101.5,-257.75 101.5,-238.5 134.75,-238.5 134.75,-257.75"/>
<text text-anchor="middle" x="118.12" y="-244.25" font-family="Helvetica,sans-Serif" font-size="10.00">Vec</text>
</a>
</g>
</g>
<!-- Node5&#45;&gt;Node4 -->
<g id="edge5_Node000004_Node000005" class="edge">
<title>Node5&#45;&gt;Node4</title>
<g id="a_edge5_Node000004_Node000005"><a xlink:title=" ">
<path fill="none" stroke="#63b8ff" d="M118.12,-226.94C118.12,-207.94 118.12,-180.39 118.12,-166.39"/>
<polygon fill="#63b8ff" stroke="#63b8ff" points="114.63,-226.69 118.13,-236.69 121.63,-226.69 114.63,-226.69"/>
</a>
</g>
</g>
</g>
</svg>
</svg>

<style type='text/css'>
<![CDATA[
[data-mouse-over-selected='false'] { opacity: 0.7; }
[data-mouse-over-selected='true']  { opacity: 1.0; }
]]>
</style>
<script type="application/ecmascript"><![CDATA[
document.addEventListener('DOMContentLoaded', (event) => {
  highlightEdges();
  highlightAdjacentNodes();
});
]]></script>
</svg>
