<?xml version="1.0" encoding="UTF-8" standalone="no"?>
<!DOCTYPE svg PUBLIC "-//W3C//DTD SVG 1.1//EN"
 "http://www.w3.org/Graphics/SVG/1.1/DTD/svg11.dtd">
<!-- Generated by graphviz version 9.0.0 (20230911.1827)
 -->
<!-- Title: dDlst_2D_c Pages: 1 -->
<svg width="944pt" height="528pt"
 viewBox="0.00 0.00 944.00 527.50" xmlns="http://www.w3.org/2000/svg" xmlns:xlink="http://www.w3.org/1999/xlink">
<g id="graph0" class="graph" transform="scale(1 1) rotate(0) translate(4 523.5)">
<title>dDlst_2D_c</title>
<!-- Node1 -->
<g id="Node000001" class="node">
<title>Node1</title>
<g id="a_Node000001"><a xlink:title=" ">
<polygon fill="#999999" stroke="#666666" points="594.88,-19.25 528.62,-19.25 528.62,0 594.88,0 594.88,-19.25"/>
<text text-anchor="middle" x="561.75" y="-5.75" font-family="Helvetica,sans-Serif" font-size="10.00">dDlst_2D_c</text>
</a>
</g>
</g>
<!-- Node2 -->
<g id="Node000002" class="node">
<title>Node2</title>
<g id="a_Node000002"><a xlink:href="classdDlst__base__c.html" target="_top" xlink:title=" ">
<polygon fill="white" stroke="#666666" points="583.38,-85.75 508.12,-85.75 508.12,-66.5 583.38,-66.5 583.38,-85.75"/>
<text text-anchor="middle" x="545.75" y="-72.25" font-family="Helvetica,sans-Serif" font-size="10.00">dDlst_base_c</text>
</a>
</g>
</g>
<!-- Node2&#45;&gt;Node1 -->
<g id="edge1_Node000001_Node000002" class="edge">
<title>Node2&#45;&gt;Node1</title>
<g id="a_edge1_Node000001_Node000002"><a xlink:title=" ">
<path fill="none" stroke="#63b8ff" d="M550.74,-55.02C553.69,-43.12 557.28,-28.63 559.54,-19.52"/>
<polygon fill="#63b8ff" stroke="#63b8ff" points="547.35,-54.14 548.34,-64.69 554.14,-55.82 547.35,-54.14"/>
</a>
</g>
</g>
<!-- Node3 -->
<g id="Node000003" class="node">
<title>Node3</title>
<g id="a_Node000003"><a xlink:href="classJ2DPicture.html" target="_top" xlink:title=" ">
<polygon fill="white" stroke="#666666" points="665.75,-85.75 601.75,-85.75 601.75,-66.5 665.75,-66.5 665.75,-85.75"/>
<text text-anchor="middle" x="633.75" y="-72.25" font-family="Helvetica,sans-Serif" font-size="10.00">J2DPicture</text>
</a>
</g>
</g>
<!-- Node3&#45;&gt;Node1 -->
<g id="edge2_Node000001_Node000003" class="edge">
<title>Node3&#45;&gt;Node1</title>
<g id="a_edge2_Node000001_Node000003"><a xlink:title=" ">
<path fill="none" stroke="#9a32cd" stroke-dasharray="5,2" d="M615.4,-58.69C601.5,-46.23 582.92,-29.59 571.68,-19.52"/>
<polygon fill="#9a32cd" stroke="#9a32cd" points="612.83,-61.08 622.61,-65.15 617.5,-55.87 612.83,-61.08"/>
</a>
</g>
<text text-anchor="middle" x="626" y="-39" font-family="Helvetica,sans-Serif" font-size="10.00" fill="grey"> mpPicture</text>
</g>
<!-- Node4 -->
<g id="Node000004" class="node">
<title>Node4</title>
<g id="a_Node000004"><a xlink:href="classJ2DPane.html" target="_top" xlink:title=" ">
<polygon fill="white" stroke="#666666" points="287.62,-197.25 231.88,-197.25 231.88,-178 287.62,-178 287.62,-197.25"/>
<text text-anchor="middle" x="259.75" y="-183.75" font-family="Helvetica,sans-Serif" font-size="10.00">J2DPane</text>
</a>
</g>
</g>
<!-- Node4&#45;&gt;Node3 -->
<g id="edge3_Node000003_Node000004" class="edge">
<title>Node4&#45;&gt;Node3</title>
<g id="a_edge3_Node000003_Node000004"><a xlink:title=" ">
<path fill="none" stroke="#63b8ff" d="M297.91,-174.03C349.55,-157.15 444.66,-126.68 526.75,-103.75 551.64,-96.8 580.03,-89.77 601.32,-84.69"/>
<polygon fill="#63b8ff" stroke="#63b8ff" points="297.12,-170.6 288.71,-177.04 299.3,-177.25 297.12,-170.6"/>
</a>
</g>
</g>
<!-- Node5 -->
<g id="Node000005" class="node">
<title>Node5</title>
<g id="a_Node000005"><a xlink:href="structJGeometry_1_1TBox2.html" target="_top" xlink:title=" ">
<polygon fill="white" stroke="#666666" points="125.5,-297.5 0,-297.5 0,-278.25 125.5,-278.25 125.5,-297.5"/>
<text text-anchor="middle" x="62.75" y="-284" font-family="Helvetica,sans-Serif" font-size="10.00">JGeometry::TBox2&lt; f32 &gt;</text>
</a>
</g>
</g>
<!-- Node5&#45;&gt;Node4 -->
<g id="edge4_Node000004_Node000005" class="edge">
<title>Node5&#45;&gt;Node4</title>
<g id="a_edge4_Node000004_Node000005"><a xlink:title=" ">
<path fill="none" stroke="#9a32cd" stroke-dasharray="5,2" d="M76.37,-269.02C89.96,-252.49 112.37,-228.52 137.25,-215.25 167.02,-199.38 205.65,-192.97 231.49,-190.38"/>
<polygon fill="#9a32cd" stroke="#9a32cd" points="73.85,-266.57 70.37,-276.57 79.33,-270.92 73.85,-266.57"/>
</a>
</g>
<text text-anchor="middle" x="173" y="-250.75" font-family="Helvetica,sans-Serif" font-size="10.00" fill="grey"> mBounds</text>
<text text-anchor="middle" x="173" y="-239.5" font-family="Helvetica,sans-Serif" font-size="10.00" fill="grey">mClipRect</text>
<text text-anchor="middle" x="173" y="-228.25" font-family="Helvetica,sans-Serif" font-size="10.00" fill="grey">mGlobalBounds</text>
<text text-anchor="middle" x="173" y="-217" font-family="Helvetica,sans-Serif" font-size="10.00" fill="grey">static_mBounds</text>
</g>
<!-- Node6 -->
<g id="Node000006" class="node">
<title>Node6</title>
<g id="a_Node000006"><a xlink:href="structJGeometry_1_1TBox.html" target="_top" xlink:title=" ">
<polygon fill="white" stroke="#666666" points="119.12,-364 6.38,-364 6.38,-344.75 119.12,-344.75 119.12,-364"/>
<text text-anchor="middle" x="62.75" y="-350.5" font-family="Helvetica,sans-Serif" font-size="10.00">JGeometry::TBox&lt; T &gt;</text>
</a>
</g>
</g>
<!-- Node6&#45;&gt;Node5 -->
<g id="edge5_Node000005_Node000006" class="edge">
<title>Node6&#45;&gt;Node5</title>
<g id="a_edge5_Node000005_Node000006"><a xlink:title=" ">
<path fill="none" stroke="#63b8ff" d="M62.75,-332.9C62.75,-321.07 62.75,-306.79 62.75,-297.77"/>
<polygon fill="#63b8ff" stroke="#63b8ff" points="59.25,-332.89 62.75,-342.89 66.25,-332.89 59.25,-332.89"/>
</a>
</g>
</g>
<!-- Node7 -->
<g id="Node000007" class="node">
<title>Node7</title>
<g id="a_Node000007"><a xlink:href="classJSUTree.html" target="_top" xlink:title=" ">
<polygon fill="white" stroke="#666666" points="254.38,-297.5 143.12,-297.5 143.12,-278.25 254.38,-278.25 254.38,-297.5"/>
<text text-anchor="middle" x="198.75" y="-284" font-family="Helvetica,sans-Serif" font-size="10.00">JSUTree&lt; J2DPane &gt;</text>
</a>
</g>
</g>
<!-- Node7&#45;&gt;Node4 -->
<g id="edge6_Node000004_Node000007" class="edge">
<title>Node7&#45;&gt;Node4</title>
<g id="a_edge6_Node000004_Node000007"><a xlink:title=" ">
<path fill="none" stroke="#9a32cd" stroke-dasharray="5,2" d="M206.84,-267.58C213.5,-252.69 223.68,-231.89 235.25,-215.25 239.7,-208.85 245.58,-202.41 250.47,-197.46"/>
<polygon fill="#9a32cd" stroke="#9a32cd" points="203.67,-266.11 202.91,-276.68 210.09,-268.89 203.67,-266.11"/>
</a>
</g>
<text text-anchor="middle" x="262" y="-233.88" font-family="Helvetica,sans-Serif" font-size="10.00" fill="grey"> mPaneTree</text>
</g>
<!-- Node8 -->
<g id="Node000008" class="node">
<title>Node8</title>
<g id="a_Node000008"><a xlink:href="classJSUList.html" target="_top" xlink:title=" ">
<polygon fill="white" stroke="#666666" points="192,-401.25 117.5,-401.25 117.5,-382 192,-382 192,-401.25"/>
<text text-anchor="middle" x="154.75" y="-387.75" font-family="Helvetica,sans-Serif" font-size="10.00">JSUList&lt; T &gt;</text>
</a>
</g>
</g>
<!-- Node8&#45;&gt;Node7 -->
<g id="edge7_Node000007_Node000008" class="edge">
<title>Node8&#45;&gt;Node7</title>
<g id="a_edge7_Node000007_Node000008"><a xlink:title=" ">
<path fill="none" stroke="#63b8ff" d="M162.57,-371.4C165.96,-363.17 170,-353.47 173.75,-344.75 180.9,-328.16 189.58,-308.96 194.6,-297.94"/>
<polygon fill="#63b8ff" stroke="#63b8ff" points="159.44,-369.82 158.89,-380.4 165.92,-372.47 159.44,-369.82"/>
</a>
</g>
</g>
<!-- Node9 -->
<g id="Node000009" class="node">
<title>Node9</title>
<g id="a_Node000009"><a xlink:href="classJSUPtrList.html" target="_top" xlink:title=" ">
<polygon fill="white" stroke="#666666" points="220.12,-519.5 155.38,-519.5 155.38,-500.25 220.12,-500.25 220.12,-519.5"/>
<text text-anchor="middle" x="187.75" y="-506" font-family="Helvetica,sans-Serif" font-size="10.00">JSUPtrList</text>
</a>
</g>
</g>
<!-- Node9&#45;&gt;Node8 -->
<g id="edge8_Node000008_Node000009" class="edge">
<title>Node9&#45;&gt;Node8</title>
<g id="a_edge8_Node000008_Node000009"><a xlink:title=" ">
<path fill="none" stroke="#63b8ff" d="M180.19,-489.47C179.33,-487.06 178.49,-484.6 177.75,-482.25 168.58,-453.14 160.35,-417.87 156.72,-401.62"/>
<polygon fill="#63b8ff" stroke="#63b8ff" points="176.85,-490.54 183.64,-498.67 183.4,-488.07 176.85,-490.54"/>
</a>
</g>
</g>
<!-- Node10 -->
<g id="Node000010" class="node">
<title>Node10</title>
<g id="a_Node000010"><a xlink:href="classJSUPtrLink.html" target="_top" xlink:title=" ">
<polygon fill="white" stroke="#666666" points="254.25,-440.12 187.25,-440.12 187.25,-420.88 254.25,-420.88 254.25,-440.12"/>
<text text-anchor="middle" x="220.75" y="-426.62" font-family="Helvetica,sans-Serif" font-size="10.00">JSUPtrLink</text>
</a>
</g>
</g>
<!-- Node9&#45;&gt;Node10 -->
<g id="edge10_Node000010_Node000009" class="edge">
<title>Node9&#45;&gt;Node10</title>
<g id="a_edge10_Node000010_Node000009"><a xlink:title=" ">
<path fill="none" stroke="#9a32cd" stroke-dasharray="5,2" d="M182.18,-489.06C180.63,-479.74 180.38,-468.73 184.75,-459.75 188.71,-451.61 196.28,-445.11 203.47,-440.42"/>
<polygon fill="#9a32cd" stroke="#9a32cd" points="178.71,-489.59 184.37,-498.55 185.53,-488.02 178.71,-489.59"/>
</a>
</g>
<text text-anchor="middle" x="198.25" y="-467.12" font-family="Helvetica,sans-Serif" font-size="10.00" fill="grey"> mList</text>
</g>
<!-- Node10&#45;&gt;Node9 -->
<g id="edge9_Node000009_Node000010" class="edge">
<title>Node10&#45;&gt;Node9</title>
<g id="a_edge9_Node000009_Node000010"><a xlink:title=" ">
<path fill="none" stroke="#9a32cd" stroke-dasharray="5,2" d="M221.96,-451.61C221.76,-461.31 220.34,-472.85 215.75,-482.25 212.33,-489.24 206.27,-495.36 200.65,-499.97"/>
<polygon fill="#9a32cd" stroke="#9a32cd" points="225.46,-451.68 221.71,-441.77 218.46,-451.85 225.46,-451.68"/>
</a>
</g>
<text text-anchor="middle" x="238.62" y="-472.75" font-family="Helvetica,sans-Serif" font-size="10.00" fill="grey"> mHead</text>
<text text-anchor="middle" x="238.62" y="-461.5" font-family="Helvetica,sans-Serif" font-size="10.00" fill="grey">mTail</text>
</g>
<!-- Node10&#45;&gt;Node10 -->
<g id="edge11_Node000010_Node000010" class="edge">
<title>Node10&#45;&gt;Node10</title>
<g id="a_edge11_Node000010_Node000010"><a xlink:title=" ">
<path fill="none" stroke="#9a32cd" stroke-dasharray="5,2" d="M265.51,-436.32C269.64,-435.12 272.25,-433.18 272.25,-430.5 272.25,-425.87 264.45,-423.44 254.43,-423.23"/>
<polygon fill="#9a32cd" stroke="#9a32cd" points="265.39,-432.8 255.93,-437.58 266.3,-439.75 265.39,-432.8"/>
</a>
</g>
<text text-anchor="middle" x="287.62" y="-432.25" font-family="Helvetica,sans-Serif" font-size="10.00" fill="grey"> mNext</text>
<text text-anchor="middle" x="287.62" y="-421" font-family="Helvetica,sans-Serif" font-size="10.00" fill="grey">mPrev</text>
</g>
<!-- Node11 -->
<g id="Node000011" class="node">
<title>Node11</title>
<g id="a_Node000011"><a xlink:href="classJSULink.html" target="_top" xlink:title=" ">
<polygon fill="white" stroke="#666666" points="259.12,-364 182.38,-364 182.38,-344.75 259.12,-344.75 259.12,-364"/>
<text text-anchor="middle" x="220.75" y="-350.5" font-family="Helvetica,sans-Serif" font-size="10.00">JSULink&lt; T &gt;</text>
</a>
</g>
</g>
<!-- Node10&#45;&gt;Node11 -->
<g id="edge13_Node000011_Node000010" class="edge">
<title>Node10&#45;&gt;Node11</title>
<g id="a_edge13_Node000011_Node000010"><a xlink:title=" ">
<path fill="none" stroke="#63b8ff" d="M220.75,-409.33C220.75,-394.51 220.75,-375.12 220.75,-364.08"/>
<polygon fill="#63b8ff" stroke="#63b8ff" points="217.25,-408.9 220.75,-418.9 224.25,-408.9 217.25,-408.9"/>
</a>
</g>
</g>
<!-- Node11&#45;&gt;Node7 -->
<g id="edge12_Node000007_Node000011" class="edge">
<title>Node11&#45;&gt;Node7</title>
<g id="a_edge12_Node000007_Node000011"><a xlink:title=" ">
<path fill="none" stroke="#63b8ff" d="M214.02,-333.65C209.94,-321.68 204.93,-306.98 201.78,-297.77"/>
<polygon fill="#63b8ff" stroke="#63b8ff" points="210.66,-334.64 217.2,-342.97 217.29,-332.38 210.66,-334.64"/>
</a>
</g>
</g>
<!-- Node12 -->
<g id="Node000012" class="node">
<title>Node12</title>
<g id="a_Node000012"><a xlink:href="classJ2DAnmTransform.html" target="_top" xlink:title=" ">
<polygon fill="white" stroke="#666666" points="370.62,-297.5 272.88,-297.5 272.88,-278.25 370.62,-278.25 370.62,-297.5"/>
<text text-anchor="middle" x="321.75" y="-284" font-family="Helvetica,sans-Serif" font-size="10.00">J2DAnmTransform</text>
</a>
</g>
</g>
<!-- Node12&#45;&gt;Node4 -->
<g id="edge14_Node000004_Node000012" class="edge">
<title>Node12&#45;&gt;Node4</title>
<g id="a_edge14_Node000004_Node000012"><a xlink:title=" ">
<path fill="none" stroke="#9a32cd" stroke-dasharray="5,2" d="M314.74,-267.33C308.84,-252.3 299.47,-231.43 287.75,-215.25 283.03,-208.73 276.58,-202.47 271.06,-197.66"/>
<polygon fill="#9a32cd" stroke="#9a32cd" points="311.4,-268.38 318.19,-276.52 317.95,-265.92 311.4,-268.38"/>
</a>
</g>
<text text-anchor="middle" x="340.12" y="-233.88" font-family="Helvetica,sans-Serif" font-size="10.00" fill="grey"> mTransform</text>
</g>
<!-- Node13 -->
<g id="Node000013" class="node">
<title>Node13</title>
<g id="a_Node000013"><a xlink:href="structJ2DAnmBase.html" target="_top" xlink:title=" ">
<polygon fill="white" stroke="#666666" points="359.75,-364 283.75,-364 283.75,-344.75 359.75,-344.75 359.75,-364"/>
<text text-anchor="middle" x="321.75" y="-350.5" font-family="Helvetica,sans-Serif" font-size="10.00">J2DAnmBase</text>
</a>
</g>
</g>
<!-- Node13&#45;&gt;Node12 -->
<g id="edge15_Node000012_Node000013" class="edge">
<title>Node13&#45;&gt;Node12</title>
<g id="a_edge15_Node000012_Node000013"><a xlink:title=" ">
<path fill="none" stroke="#63b8ff" d="M321.75,-332.9C321.75,-321.07 321.75,-306.79 321.75,-297.77"/>
<polygon fill="#63b8ff" stroke="#63b8ff" points="318.25,-332.89 321.75,-342.89 325.25,-332.89 318.25,-332.89"/>
</a>
</g>
</g>
<!-- Node14 -->
<g id="Node000014" class="node">
<title>Node14</title>
<g id="a_Node000014"><a xlink:href="classJUTTexture.html" target="_top" xlink:title=" ">
<polygon fill="white" stroke="#666666" points="547.25,-197.25 480.25,-197.25 480.25,-178 547.25,-178 547.25,-197.25"/>
<text text-anchor="middle" x="513.75" y="-183.75" font-family="Helvetica,sans-Serif" font-size="10.00">JUTTexture</text>
</a>
</g>
</g>
<!-- Node14&#45;&gt;Node3 -->
<g id="edge16_Node000003_Node000014" class="edge">
<title>Node14&#45;&gt;Node3</title>
<g id="a_edge16_Node000003_Node000014"><a xlink:title=" ">
<path fill="none" stroke="#9a32cd" stroke-dasharray="5,2" d="M524.48,-167.7C535.65,-149.38 554.61,-121.81 577,-103.75 586.15,-96.37 597.68,-90.48 607.95,-86.13"/>
<polygon fill="#9a32cd" stroke="#9a32cd" points="521.53,-165.81 519.48,-176.2 527.56,-169.36 521.53,-165.81"/>
</a>
</g>
<text text-anchor="middle" x="599.12" y="-128" font-family="Helvetica,sans-Serif" font-size="10.00" fill="grey"> mTexture</text>
</g>
<!-- Node15 -->
<g id="Node000015" class="node">
<title>Node15</title>
<g id="a_Node000015"><a xlink:href="struct__GXTexObj.html" target="_top" xlink:title=" ">
<polygon fill="white" stroke="#666666" points="454.88,-297.5 388.62,-297.5 388.62,-278.25 454.88,-278.25 454.88,-297.5"/>
<text text-anchor="middle" x="421.75" y="-284" font-family="Helvetica,sans-Serif" font-size="10.00">_GXTexObj</text>
</a>
</g>
</g>
<!-- Node15&#45;&gt;Node14 -->
<g id="edge17_Node000014_Node000015" class="edge">
<title>Node15&#45;&gt;Node14</title>
<g id="a_edge17_Node000014_Node000015"><a xlink:title=" ">
<path fill="none" stroke="#9a32cd" stroke-dasharray="5,2" d="M424.36,-267.02C427.41,-251.17 433.9,-229.36 447.5,-215.25 456.19,-206.23 468.33,-200.19 479.85,-196.17"/>
<polygon fill="#9a32cd" stroke="#9a32cd" points="420.94,-266.26 422.82,-276.69 427.85,-267.37 420.94,-266.26"/>
</a>
</g>
<text text-anchor="middle" x="468.38" y="-233.88" font-family="Helvetica,sans-Serif" font-size="10.00" fill="grey"> mTexObj</text>
</g>
<!-- Node16 -->
<g id="Node000016" class="node">
<title>Node16</title>
<g id="a_Node000016"><a xlink:href="structResTIMG.html" target="_top" xlink:title="Image data header.">
<polygon fill="white" stroke="#666666" points="530.75,-297.5 472.75,-297.5 472.75,-278.25 530.75,-278.25 530.75,-297.5"/>
<text text-anchor="middle" x="501.75" y="-284" font-family="Helvetica,sans-Serif" font-size="10.00">ResTIMG</text>
</a>
</g>
</g>
<!-- Node16&#45;&gt;Node14 -->
<g id="edge18_Node000014_Node000016" class="edge">
<title>Node16&#45;&gt;Node14</title>
<g id="a_edge18_Node000014_Node000016"><a xlink:title=" ">
<path fill="none" stroke="#9a32cd" stroke-dasharray="5,2" d="M495.75,-267.03C492.31,-252.4 489.64,-232.18 495,-215.25 497.05,-208.78 501.3,-202.53 505.23,-197.71"/>
<polygon fill="#9a32cd" stroke="#9a32cd" points="492.28,-267.61 498.27,-276.35 499.04,-265.78 492.28,-267.61"/>
</a>
</g>
<text text-anchor="middle" x="517.12" y="-233.88" font-family="Helvetica,sans-Serif" font-size="10.00" fill="grey"> mTexInfo</text>
</g>
<!-- Node17 -->
<g id="Node000017" class="node">
<title>Node17</title>
<g id="a_Node000017"><a xlink:href="classJUTPalette.html" target="_top" xlink:title=" ">
<polygon fill="white" stroke="#666666" points="636.5,-297.5 571,-297.5 571,-278.25 636.5,-278.25 636.5,-297.5"/>
<text text-anchor="middle" x="603.75" y="-284" font-family="Helvetica,sans-Serif" font-size="10.00">JUTPalette</text>
</a>
</g>
</g>
<!-- Node17&#45;&gt;Node3 -->
<g id="edge23_Node000003_Node000017" class="edge">
<title>Node17&#45;&gt;Node3</title>
<g id="a_edge23_Node000003_Node000017"><a xlink:title=" ">
<path fill="none" stroke="#9a32cd" stroke-dasharray="5,2" d="M616.39,-268.24C617.72,-265.64 618.89,-262.94 619.75,-260.25 640.19,-196.15 636.45,-113.31 634.5,-86.17"/>
<polygon fill="#9a32cd" stroke="#9a32cd" points="613.44,-266.35 611.28,-276.72 619.44,-269.96 613.44,-266.35"/>
</a>
</g>
<text text-anchor="middle" x="655.38" y="-183.75" font-family="Helvetica,sans-Serif" font-size="10.00" fill="grey"> mPalette</text>
</g>
<!-- Node17&#45;&gt;Node14 -->
<g id="edge19_Node000014_Node000017" class="edge">
<title>Node17&#45;&gt;Node14</title>
<g id="a_edge19_Node000014_Node000017"><a xlink:title=" ">
<path fill="none" stroke="#9a32cd" stroke-dasharray="5,2" d="M575.21,-271.96C570.19,-268.54 565.28,-264.61 561.25,-260.25 545.93,-243.68 550.63,-233.78 537.75,-215.25 533.35,-208.91 527.58,-202.47 522.8,-197.51"/>
<polygon fill="#9a32cd" stroke="#9a32cd" points="573.18,-274.82 583.53,-277.08 576.85,-268.86 573.18,-274.82"/>
</a>
</g>
<text text-anchor="middle" x="591" y="-239.5" font-family="Helvetica,sans-Serif" font-size="10.00" fill="grey"> field_0x2c</text>
<text text-anchor="middle" x="591" y="-228.25" font-family="Helvetica,sans-Serif" font-size="10.00" fill="grey">mEmbPalette</text>
</g>
<!-- Node18 -->
<g id="Node000018" class="node">
<title>Node18</title>
<g id="a_Node000018"><a xlink:href="struct__GXTlutObj.html" target="_top" xlink:title=" ">
<polygon fill="white" stroke="#666666" points="596.25,-364 529.25,-364 529.25,-344.75 596.25,-344.75 596.25,-364"/>
<text text-anchor="middle" x="562.75" y="-350.5" font-family="Helvetica,sans-Serif" font-size="10.00">_GXTlutObj</text>
</a>
</g>
</g>
<!-- Node18&#45;&gt;Node17 -->
<g id="edge20_Node000017_Node000018" class="edge">
<title>Node18&#45;&gt;Node17</title>
<g id="a_edge20_Node000017_Node000018"><a xlink:title=" ">
<path fill="none" stroke="#9a32cd" stroke-dasharray="5,2" d="M567.55,-333.65C569.54,-327.55 572.23,-320.99 575.75,-315.5 580.03,-308.84 586.31,-302.66 591.84,-297.94"/>
<polygon fill="#9a32cd" stroke="#9a32cd" points="564.27,-332.39 564.95,-342.96 571.01,-334.27 564.27,-332.39"/>
</a>
</g>
<text text-anchor="middle" x="596.75" y="-317.25" font-family="Helvetica,sans-Serif" font-size="10.00" fill="grey"> mTlutObj</text>
</g>
<!-- Node19 -->
<g id="Node000019" class="node">
<title>Node19</title>
<g id="a_Node000019"><a xlink:href="structResTLUT.html" target="_top" xlink:title=" ">
<polygon fill="white" stroke="#666666" points="673.12,-364 614.38,-364 614.38,-344.75 673.12,-344.75 673.12,-364"/>
<text text-anchor="middle" x="643.75" y="-350.5" font-family="Helvetica,sans-Serif" font-size="10.00">ResTLUT</text>
</a>
</g>
</g>
<!-- Node19&#45;&gt;Node17 -->
<g id="edge21_Node000017_Node000019" class="edge">
<title>Node19&#45;&gt;Node17</title>
<g id="a_edge21_Node000017_Node000019"><a xlink:title=" ">
<path fill="none" stroke="#9a32cd" stroke-dasharray="5,2" d="M632.21,-334.76C624.66,-322.6 615.16,-307.27 609.26,-297.77"/>
<polygon fill="#9a32cd" stroke="#9a32cd" points="629.15,-336.47 637.39,-343.12 635.09,-332.78 629.15,-336.47"/>
</a>
</g>
<text text-anchor="middle" x="655.25" y="-317.25" font-family="Helvetica,sans-Serif" font-size="10.00" fill="grey"> mColorTable</text>
</g>
<!-- Node20 -->
<g id="Node000020" class="node">
<title>Node20</title>
<g id="a_Node000020"><a xlink:href="structJGeometry_1_1TVec2.html" target="_top" xlink:title=" ">
<polygon fill="white" stroke="#666666" points="822,-197.25 693.5,-197.25 693.5,-178 822,-178 822,-197.25"/>
<text text-anchor="middle" x="757.75" y="-183.75" font-family="Helvetica,sans-Serif" font-size="10.00">JGeometry::TVec2&lt; s16 &gt;</text>
</a>
</g>
</g>
<!-- Node20&#45;&gt;Node3 -->
<g id="edge22_Node000003_Node000020" class="edge">
<title>Node20&#45;&gt;Node3</title>
<g id="a_edge22_Node000003_Node000020"><a xlink:title=" ">
<path fill="none" stroke="#9a32cd" stroke-dasharray="5,2" d="M739.2,-170.24C712.72,-146.86 664.96,-104.68 644.04,-86.21"/>
<polygon fill="#9a32cd" stroke="#9a32cd" points="736.66,-172.67 746.47,-176.66 741.29,-167.42 736.66,-172.67"/>
</a>
</g>
<text text-anchor="middle" x="749.88" y="-128" font-family="Helvetica,sans-Serif" font-size="10.00" fill="grey"> field_0x10a</text>
</g>
<!-- Node21 -->
<g id="Node000021" class="node">
<title>Node21</title>
<g id="a_Node000021"><a xlink:href="structJUtility_1_1TColor.html" target="_top" xlink:title=" ">
<polygon fill="white" stroke="#666666" points="919.25,-197.25 840.25,-197.25 840.25,-178 919.25,-178 919.25,-197.25"/>
<text text-anchor="middle" x="879.75" y="-183.75" font-family="Helvetica,sans-Serif" font-size="10.00">JUtility::TColor</text>
</a>
</g>
</g>
<!-- Node21&#45;&gt;Node3 -->
<g id="edge24_Node000003_Node000021" class="edge">
<title>Node21&#45;&gt;Node3</title>
<g id="a_edge24_Node000003_Node000021"><a xlink:title=" ">
<path fill="none" stroke="#9a32cd" stroke-dasharray="5,2" d="M864.23,-169.48C845.81,-150.28 813.21,-119.74 778.75,-103.75 742.41,-86.89 696.32,-80.7 665.97,-78.43"/>
<polygon fill="#9a32cd" stroke="#9a32cd" points="861.45,-171.63 870.84,-176.55 866.57,-166.85 861.45,-171.63"/>
</a>
</g>
<text text-anchor="middle" x="894.38" y="-150.5" font-family="Helvetica,sans-Serif" font-size="10.00" fill="grey"> mBlack</text>
<text text-anchor="middle" x="894.38" y="-139.25" font-family="Helvetica,sans-Serif" font-size="10.00" fill="grey">mBlendKonstAlpha</text>
<text text-anchor="middle" x="894.38" y="-128" font-family="Helvetica,sans-Serif" font-size="10.00" fill="grey">mBlendKonstColor</text>
<text text-anchor="middle" x="894.38" y="-116.75" font-family="Helvetica,sans-Serif" font-size="10.00" fill="grey">mCornerColor</text>
<text text-anchor="middle" x="894.38" y="-105.5" font-family="Helvetica,sans-Serif" font-size="10.00" fill="grey">mWhite</text>
</g>
<!-- Node22 -->
<g id="Node000022" class="node">
<title>Node22</title>
<g id="a_Node000022"><a xlink:href="struct__GXColor.html" target="_top" xlink:title=" ">
<polygon fill="white" stroke="#666666" points="906.12,-297.5 853.38,-297.5 853.38,-278.25 906.12,-278.25 906.12,-297.5"/>
<text text-anchor="middle" x="879.75" y="-284" font-family="Helvetica,sans-Serif" font-size="10.00">GXColor</text>
</a>
</g>
</g>
<!-- Node22&#45;&gt;Node21 -->
<g id="edge25_Node000021_Node000022" class="edge">
<title>Node22&#45;&gt;Node21</title>
<g id="a_edge25_Node000021_Node000022"><a xlink:title=" ">
<path fill="none" stroke="#63b8ff" d="M879.75,-266.57C879.75,-245.42 879.75,-213.23 879.75,-197.67"/>
<polygon fill="#63b8ff" stroke="#63b8ff" points="876.25,-266.29 879.75,-276.29 883.25,-266.29 876.25,-266.29"/>
</a>
</g>
</g>
</g>
</svg>
