<?xml version="1.0" encoding="UTF-8" standalone="no"?>
<!DOCTYPE svg PUBLIC "-//W3C//DTD SVG 1.1//EN"
 "http://www.w3.org/Graphics/SVG/1.1/DTD/svg11.dtd">
<!-- Generated by graphviz version 9.0.0 (20230911.1827)
 -->
<!-- Title: daBg_btkAnm_c Pages: 1 -->
<!--zoomable 394 -->

<svg id="main" version="1.1" xmlns="http://www.w3.org/2000/svg" xmlns:xlink="http://www.w3.org/1999/xlink" xml:space="preserve" onload="init(evt)">
<style type="text/css"><![CDATA[
.node, .edge {opacity: 0.7;}
.node.selected, .edge.selected {opacity: 1;}
.edge:hover path { stroke: red; }
.edge:hover polygon { stroke: red; fill: red; }
]]></style>

<defs>
  <circle id="rim" cx="0" cy="0" r="7"/>
  <circle id="rim2" cx="0" cy="0" r="3.5"/>
  <g id="zoomPlus">
    <use xlink:href="#rim" fill="#404040"><set attributeName="fill" to="#808080" begin="zoomplus.mouseover" end="zoomplus.mouseout"/></use>
    <path d="M-4,0h8M0,-4v8" fill="none" stroke="white" stroke-width="1.5" pointer-events="none"/>
  </g>
  <g id="zoomMin">
    <use xlink:href="#rim" fill="#404040"><set attributeName="fill" to="#808080" begin="zoomminus.mouseover" end="zoomminus.mouseout"/></use>
    <path d="M-4,0h8" fill="none" stroke="white" stroke-width="1.5" pointer-events="none"/>
  </g>
  <g id="arrowUp" transform="translate(30 24)">
    <use xlink:href="#rim"/>
    <path pointer-events="none" fill="none" stroke="white" stroke-width="1.5" d="M0,-3.0v7 M-2.5,-0.5L0,-3.0L2.5,-0.5"/>
  </g>
  <g id="arrowRight" transform="rotate(90) translate(36 -43)">
    <use xlink:href="#rim"/>
    <path pointer-events="none" fill="none" stroke="white" stroke-width="1.5" d="M0,-3.0v7 M-2.5,-0.5L0,-3.0L2.5,-0.5"/>
  </g>
  <g id="arrowDown" transform="rotate(180) translate(-30 -48)">
    <use xlink:href="#rim"/>
    <path pointer-events="none" fill="none" stroke="white" stroke-width="1.5" d="M0,-3.0v7 M-2.5,-0.5L0,-3.0L2.5,-0.5"/>
  </g>
  <g id="arrowLeft" transform="rotate(270) translate(-36 17)">
    <use xlink:href="#rim"/>
    <path pointer-events="none" fill="none" stroke="white" stroke-width="1.5" d="M0,-3.0v7 M-2.5,-0.5L0,-3.0L2.5,-0.5"/>
  </g>
  <g id="resetDef">
    <use xlink:href="#rim2" fill="#404040"><set attributeName="fill" to="#808080" begin="reset.mouseover" end="reset.mouseout"/></use>
  </g>
</defs>
<script type="application/ecmascript">
var viewWidth = 548;
var viewHeight = 394;
var sectionId = 'dynsection-0';
</script>
<script type="application/ecmascript" xlink:href="svg.min.js"/>
<svg id="graph" class="graph">
<g id="viewport">
<title>daBg_btkAnm_c</title>
<!-- Node1 -->
<g id="Node000001" class="node">
<title>Node1</title>
<g id="a_Node000001"><a xlink:title=" ">
<polygon fill="#999999" stroke="#666666" points="185,-19.25 97,-19.25 97,0 185,0 185,-19.25"/>
<text text-anchor="middle" x="141" y="-5.75" font-family="Helvetica,sans-Serif" font-size="10.00">daBg_btkAnm_c</text>
</a>
</g>
</g>
<!-- Node2 -->
<g id="Node000002" class="node">
<title>Node2</title>
<g id="a_Node000002"><a xlink:href="structmDoExt__btkAnm.html" target="_top" xlink:title=" ">
<polygon fill="white" stroke="#666666" points="185.38,-85.75 96.62,-85.75 96.62,-66.5 185.38,-66.5 185.38,-85.75"/>
<text text-anchor="middle" x="141" y="-72.25" font-family="Helvetica,sans-Serif" font-size="10.00">mDoExt_btkAnm</text>
</a>
</g>
</g>
<!-- Node2&#45;&gt;Node1 -->
<g id="edge1_Node000001_Node000002" class="edge">
<title>Node2&#45;&gt;Node1</title>
<g id="a_edge1_Node000001_Node000002"><a xlink:title=" ">
<path fill="none" stroke="#9a32cd" stroke-dasharray="5,2" d="M141,-54.65C141,-42.82 141,-28.54 141,-19.52"/>
<polygon fill="#9a32cd" stroke="#9a32cd" points="137.5,-54.64 141,-64.64 144.5,-54.64 137.5,-54.64"/>
</a>
</g>
<text text-anchor="middle" x="156.38" y="-39" font-family="Helvetica,sans-Serif" font-size="10.00" fill="grey"> mpBtk</text>
</g>
<!-- Node3 -->
<g id="Node000003" class="node">
<title>Node3</title>
<g id="a_Node000003"><a xlink:href="structmDoExt__baseAnm.html" target="_top" xlink:title=" ">
<polygon fill="white" stroke="#666666" points="126.12,-152.25 29.88,-152.25 29.88,-133 126.12,-133 126.12,-152.25"/>
<text text-anchor="middle" x="78" y="-138.75" font-family="Helvetica,sans-Serif" font-size="10.00">mDoExt_baseAnm</text>
</a>
</g>
</g>
<!-- Node3&#45;&gt;Node2 -->
<g id="edge2_Node000002_Node000003" class="edge">
<title>Node3&#45;&gt;Node2</title>
<g id="a_edge2_Node000002_Node000003"><a xlink:title=" ">
<path fill="none" stroke="#63b8ff" d="M94.76,-124.47C106.84,-112.1 122.66,-95.9 132.31,-86.02"/>
<polygon fill="#63b8ff" stroke="#63b8ff" points="92.3,-121.97 87.82,-131.57 97.31,-126.87 92.3,-121.97"/>
</a>
</g>
</g>
<!-- Node4 -->
<g id="Node000004" class="node">
<title>Node4</title>
<g id="a_Node000004"><a xlink:href="structJ3DFrameCtrl.html" target="_top" xlink:title=" ">
<polygon fill="white" stroke="#666666" points="76,-230 0,-230 0,-210.75 76,-210.75 76,-230"/>
<text text-anchor="middle" x="38" y="-216.5" font-family="Helvetica,sans-Serif" font-size="10.00">J3DFrameCtrl</text>
</a>
</g>
</g>
<!-- Node4&#45;&gt;Node3 -->
<g id="edge3_Node000003_Node000004" class="edge">
<title>Node4&#45;&gt;Node3</title>
<g id="a_edge3_Node000003_Node000004"><a xlink:title=" ">
<path fill="none" stroke="#9a32cd" stroke-dasharray="5,2" d="M48,-200.45C56.07,-185.16 67.07,-164.33 73.26,-152.6"/>
<polygon fill="#9a32cd" stroke="#9a32cd" points="45.03,-198.57 43.45,-209.05 51.22,-201.84 45.03,-198.57"/>
</a>
</g>
<text text-anchor="middle" x="90.62" y="-177.62" font-family="Helvetica,sans-Serif" font-size="10.00" fill="grey"> mFrameCtrl</text>
</g>
<!-- Node5 -->
<g id="Node000005" class="node">
<title>Node5</title>
<g id="a_Node000005"><a xlink:href="structJ3DAnmTextureSRTKey.html" target="_top" xlink:title=" ">
<polygon fill="white" stroke="#666666" points="304.88,-152.25 183.12,-152.25 183.12,-133 304.88,-133 304.88,-152.25"/>
<text text-anchor="middle" x="244" y="-138.75" font-family="Helvetica,sans-Serif" font-size="10.00">J3DAnmTextureSRTKey</text>
</a>
</g>
</g>
<!-- Node5&#45;&gt;Node2 -->
<g id="edge4_Node000002_Node000005" class="edge">
<title>Node5&#45;&gt;Node2</title>
<g id="a_edge4_Node000002_Node000005"><a xlink:title=" ">
<path fill="none" stroke="#9a32cd" stroke-dasharray="5,2" d="M220.05,-126.63C200.08,-114.12 172.29,-96.72 155.53,-86.23"/>
<polygon fill="#9a32cd" stroke="#9a32cd" points="218.06,-129.51 228.4,-131.85 221.78,-123.58 218.06,-129.51"/>
</a>
</g>
<text text-anchor="middle" x="217" y="-105.5" font-family="Helvetica,sans-Serif" font-size="10.00" fill="grey"> mpAnm</text>
</g>
<!-- Node6 -->
<g id="Node000006" class="node">
<title>Node6</title>
<g id="a_Node000006"><a xlink:href="classJ3DAnmBase.html" target="_top" xlink:title=" ">
<polygon fill="white" stroke="#666666" points="170,-230 94,-230 94,-210.75 170,-210.75 170,-230"/>
<text text-anchor="middle" x="132" y="-216.5" font-family="Helvetica,sans-Serif" font-size="10.00">J3DAnmBase</text>
</a>
</g>
</g>
<!-- Node6&#45;&gt;Node5 -->
<g id="edge5_Node000005_Node000006" class="edge">
<title>Node6&#45;&gt;Node5</title>
<g id="a_edge5_Node000005_Node000006"><a xlink:title=" ">
<path fill="none" stroke="#63b8ff" d="M154.57,-204.11C177.41,-188.66 211.96,-165.29 230.73,-152.6"/>
<polygon fill="#63b8ff" stroke="#63b8ff" points="152.86,-201.04 146.54,-209.54 156.79,-206.84 152.86,-201.04"/>
</a>
</g>
</g>
<!-- Node7 -->
<g id="Node000007" class="node">
<title>Node7</title>
<g id="a_Node000007"><a xlink:href="structJ3DAnmTransformKeyTable.html" target="_top" xlink:title=" ">
<polygon fill="white" stroke="#666666" points="326.12,-230 187.88,-230 187.88,-210.75 326.12,-210.75 326.12,-230"/>
<text text-anchor="middle" x="257" y="-216.5" font-family="Helvetica,sans-Serif" font-size="10.00">J3DAnmTransformKeyTable</text>
</a>
</g>
</g>
<!-- Node7&#45;&gt;Node5 -->
<g id="edge6_Node000005_Node000007" class="edge">
<title>Node7&#45;&gt;Node5</title>
<g id="a_edge6_Node000005_Node000007"><a xlink:title=" ">
<path fill="none" stroke="#9a32cd" stroke-dasharray="5,2" d="M247.41,-199.96C246.54,-197.58 245.79,-195.14 245.25,-192.75 242.15,-178.93 242.55,-162.38 243.21,-152.45"/>
<polygon fill="#9a32cd" stroke="#9a32cd" points="244.12,-201.17 251.34,-208.93 250.53,-198.36 244.12,-201.17"/>
</a>
</g>
<text text-anchor="middle" x="273.38" y="-177.62" font-family="Helvetica,sans-Serif" font-size="10.00" fill="grey"> mAnmTable</text>
</g>
<!-- Node8 -->
<g id="Node000008" class="node">
<title>Node8</title>
<g id="a_Node000008"><a xlink:href="structJ3DAnmKeyTableBase.html" target="_top" xlink:title=" ">
<polygon fill="white" stroke="#666666" points="315.25,-319 198.75,-319 198.75,-299.75 315.25,-299.75 315.25,-319"/>
<text text-anchor="middle" x="257" y="-305.5" font-family="Helvetica,sans-Serif" font-size="10.00">J3DAnmKeyTableBase</text>
</a>
</g>
</g>
<!-- Node8&#45;&gt;Node7 -->
<g id="edge7_Node000007_Node000008" class="edge">
<title>Node8&#45;&gt;Node7</title>
<g id="a_edge7_Node000007_Node000008"><a xlink:title=" ">
<path fill="none" stroke="#9a32cd" stroke-dasharray="5,2" d="M257,-288.01C257,-269.8 257,-243.97 257,-230.44"/>
<polygon fill="#9a32cd" stroke="#9a32cd" points="253.5,-287.88 257,-297.88 260.5,-287.88 253.5,-287.88"/>
</a>
</g>
<text text-anchor="middle" x="289.62" y="-272.25" font-family="Helvetica,sans-Serif" font-size="10.00" fill="grey"> mRotationInfo</text>
<text text-anchor="middle" x="289.62" y="-261" font-family="Helvetica,sans-Serif" font-size="10.00" fill="grey">mScaleInfo</text>
<text text-anchor="middle" x="289.62" y="-249.75" font-family="Helvetica,sans-Serif" font-size="10.00" fill="grey">mTranslateInfo</text>
</g>
<!-- Node9 -->
<g id="Node000009" class="node">
<title>Node9</title>
<g id="a_Node000009"><a xlink:href="structJUTNameTab.html" target="_top" xlink:title=" ">
<polygon fill="white" stroke="#666666" points="421.75,-230 344.25,-230 344.25,-210.75 421.75,-210.75 421.75,-230"/>
<text text-anchor="middle" x="383" y="-216.5" font-family="Helvetica,sans-Serif" font-size="10.00">JUTNameTab</text>
</a>
</g>
</g>
<!-- Node9&#45;&gt;Node5 -->
<g id="edge8_Node000005_Node000009" class="edge">
<title>Node9&#45;&gt;Node5</title>
<g id="a_edge8_Node000005_Node000009"><a xlink:title=" ">
<path fill="none" stroke="#9a32cd" stroke-dasharray="5,2" d="M346.73,-205.78C338.62,-202.07 330.28,-197.69 323,-192.75 311.17,-184.72 311.73,-178.43 300,-170.25 289.93,-163.23 277.73,-157.18 267.28,-152.63"/>
<polygon fill="#9a32cd" stroke="#9a32cd" points="345.18,-208.92 355.74,-209.66 347.94,-202.49 345.18,-208.92"/>
</a>
</g>
<text text-anchor="middle" x="384.5" y="-183.25" font-family="Helvetica,sans-Serif" font-size="10.00" fill="grey"> mPostUpdateMaterialName</text>
<text text-anchor="middle" x="384.5" y="-172" font-family="Helvetica,sans-Serif" font-size="10.00" fill="grey">mUpdateMaterialName</text>
</g>
<!-- Node10 -->
<g id="Node000010" class="node">
<title>Node10</title>
<g id="a_Node000010"><a xlink:href="structResNTAB.html" target="_top" xlink:title=" ">
<polygon fill="white" stroke="#666666" points="413.12,-319 352.88,-319 352.88,-299.75 413.12,-299.75 413.12,-319"/>
<text text-anchor="middle" x="383" y="-305.5" font-family="Helvetica,sans-Serif" font-size="10.00">ResNTAB</text>
</a>
</g>
</g>
<!-- Node10&#45;&gt;Node9 -->
<g id="edge9_Node000009_Node000010" class="edge">
<title>Node10&#45;&gt;Node9</title>
<g id="a_edge9_Node000009_Node000010"><a xlink:title=" ">
<path fill="none" stroke="#9a32cd" stroke-dasharray="5,2" d="M383,-288.01C383,-269.8 383,-243.97 383,-230.44"/>
<polygon fill="#9a32cd" stroke="#9a32cd" points="379.5,-287.88 383,-297.88 386.5,-287.88 379.5,-287.88"/>
</a>
</g>
<text text-anchor="middle" x="413.38" y="-261" font-family="Helvetica,sans-Serif" font-size="10.00" fill="grey"> mNameTable</text>
</g>
<!-- Node11 -->
<g id="Node000011" class="node">
<title>Node11</title>
<g id="a_Node000011"><a xlink:href="structResNTAB_1_1Entry.html" target="_top" xlink:title=" ">
<polygon fill="white" stroke="#666666" points="426.25,-385.5 339.75,-385.5 339.75,-366.25 426.25,-366.25 426.25,-385.5"/>
<text text-anchor="middle" x="383" y="-372" font-family="Helvetica,sans-Serif" font-size="10.00">ResNTAB::Entry</text>
</a>
</g>
</g>
<!-- Node11&#45;&gt;Node10 -->
<g id="edge10_Node000010_Node000011" class="edge">
<title>Node11&#45;&gt;Node10</title>
<g id="a_edge10_Node000010_Node000011"><a xlink:title=" ">
<path fill="none" stroke="#9a32cd" stroke-dasharray="5,2" d="M383,-354.4C383,-342.57 383,-328.29 383,-319.27"/>
<polygon fill="#9a32cd" stroke="#9a32cd" points="379.5,-354.39 383,-364.39 386.5,-354.39 379.5,-354.39"/>
</a>
</g>
<text text-anchor="middle" x="403.25" y="-338.75" font-family="Helvetica,sans-Serif" font-size="10.00" fill="grey"> mEntries</text>
</g>
<!-- Node12 -->
<g id="Node000012" class="node">
<title>Node12</title>
<g id="a_Node000012"><a xlink:href="structVec.html" target="_top" xlink:title=" ">
<polygon fill="white" stroke="#666666" points="484.62,-230 451.38,-230 451.38,-210.75 484.62,-210.75 484.62,-230"/>
<text text-anchor="middle" x="468" y="-216.5" font-family="Helvetica,sans-Serif" font-size="10.00">Vec</text>
</a>
</g>
</g>
<!-- Node12&#45;&gt;Node5 -->
<g id="edge11_Node000005_Node000012" class="edge">
<title>Node12&#45;&gt;Node5</title>
<g id="a_edge11_Node000005_Node000012"><a xlink:title=" ">
<path fill="none" stroke="#9a32cd" stroke-dasharray="5,2" d="M463.98,-199.45C460.84,-189.12 455.37,-177.23 446,-170.25 424.3,-154.08 356.39,-147.73 305.25,-145.23"/>
<polygon fill="#9a32cd" stroke="#9a32cd" points="460.54,-200.13 466.33,-209 467.34,-198.46 460.54,-200.13"/>
</a>
</g>
<text text-anchor="middle" x="500.38" y="-183.25" font-family="Helvetica,sans-Serif" font-size="10.00" fill="grey"> mPostSRTCenter</text>
<text text-anchor="middle" x="500.38" y="-172" font-family="Helvetica,sans-Serif" font-size="10.00" fill="grey">mSRTCenter</text>
</g>
</g>
</svg>

<g id="navigator" transform="translate(0 0)" fill="#404254">
  <rect fill="#f2f5e9" fill-opacity="0.5" stroke="#606060" stroke-width=".5" x="0" y="0" width="60" height="60"/>
  <use id="zoomplus" xlink:href="#zoomPlus" x="17" y="9" onmousedown="handleZoom(evt,'in')"/>
  <use id="zoomminus" xlink:href="#zoomMin" x="42" y="9" onmousedown="handleZoom(evt,'out')"/>
  <use id="reset" xlink:href="#resetDef" x="30" y="36" onmousedown="handleReset()"/>
   <use id="arrowup" xlink:href="#arrowUp" x="0" y="0" onmousedown="handlePan(0,-1)"/>
  <use id="arrowright" xlink:href="#arrowRight" x="0" y="0" onmousedown="handlePan(1,0)"/>
  <use id="arrowdown" xlink:href="#arrowDown" x="0" y="0" onmousedown="handlePan(0,1)"/>
  <use id="arrowleft" xlink:href="#arrowLeft" x="0" y="0" onmousedown="handlePan(-1,0)"/>
</g>
<svg viewBox="0 0 15 15" width="100%" height="30px" preserveAspectRatio="xMaxYMin meet">
 <g id="arrow_out" transform="scale(0.3 0.3)">
  <a xlink:href="classdaBg__btkAnm__c__coll__graph_org.svg" target="_base">
   <rect id="button" ry="5" rx="5" y="6" x="6" height="38" width="38"
        fill="#f2f5e9" fill-opacity="0.5" stroke="#606060" stroke-width="1.0"/>
   <path id="arrow"
     d="M 11.500037,31.436501 C 11.940474,20.09759 22.043105,11.32322 32.158766,21.979434 L 37.068811,17.246167 C 37.068811,17.246167 37.088388,32 37.088388,32 L 22.160133,31.978069 C 22.160133,31.978069 26.997745,27.140456 26.997745,27.140456 C 18.528582,18.264221 13.291696,25.230495 11.500037,31.436501 z"
     style="fill:#404040;"/>
  </a>
 </g>
</svg>

<style type='text/css'>
<![CDATA[
[data-mouse-over-selected='false'] { opacity: 0.7; }
[data-mouse-over-selected='true']  { opacity: 1.0; }
]]>
</style>
<script type="application/ecmascript"><![CDATA[
document.addEventListener('DOMContentLoaded', (event) => {
  highlightEdges();
  highlightAdjacentNodes();
});
]]></script>
</svg>
