<?xml version="1.0" encoding="UTF-8" standalone="no"?>
<!DOCTYPE svg PUBLIC "-//W3C//DTD SVG 1.1//EN"
 "http://www.w3.org/Graphics/SVG/1.1/DTD/svg11.dtd">
<!-- Generated by graphviz version 9.0.0 (20230911.1827)
 -->
<!-- Title: dBgS_WtrChk Pages: 1 -->
<svg width="397pt" height="344pt"
 viewBox="0.00 0.00 396.75 343.50" xmlns="http://www.w3.org/2000/svg" xmlns:xlink="http://www.w3.org/1999/xlink">
<g id="graph0" class="graph" transform="scale(1 1) rotate(0) translate(4 339.5)">
<title>dBgS_WtrChk</title>
<!-- Node1 -->
<g id="Node000001" class="node">
<title>Node1</title>
<g id="a_Node000001"><a xlink:title=" ">
<polygon fill="#999999" stroke="#666666" points="174,-19.25 96.5,-19.25 96.5,0 174,0 174,-19.25"/>
<text text-anchor="middle" x="135.25" y="-5.75" font-family="Helvetica,sans-Serif" font-size="10.00">dBgS_WtrChk</text>
</a>
</g>
</g>
<!-- Node2 -->
<g id="Node000002" class="node">
<title>Node2</title>
<g id="a_Node000002"><a xlink:href="classdBgS__SplGrpChk.html" target="_top" xlink:title=" ">
<polygon fill="white" stroke="#666666" points="181.5,-75.5 89,-75.5 89,-56.25 181.5,-56.25 181.5,-75.5"/>
<text text-anchor="middle" x="135.25" y="-62" font-family="Helvetica,sans-Serif" font-size="10.00">dBgS_SplGrpChk</text>
</a>
</g>
</g>
<!-- Node2&#45;&gt;Node1 -->
<g id="edge1_Node000001_Node000002" class="edge">
<title>Node2&#45;&gt;Node1</title>
<g id="a_edge1_Node000001_Node000002"><a xlink:title=" ">
<path fill="none" stroke="#63b8ff" d="M135.25,-44.69C135.25,-35.98 135.25,-26.24 135.25,-19.42"/>
<polygon fill="#63b8ff" stroke="#63b8ff" points="131.75,-44.4 135.25,-54.4 138.75,-44.4 131.75,-44.4"/>
</a>
</g>
</g>
<!-- Node3 -->
<g id="Node000003" class="node">
<title>Node3</title>
<g id="a_Node000003"><a xlink:href="structcBgS__PolyInfo.html" target="_top" xlink:title=" ">
<polygon fill="white" stroke="#666666" points="86.5,-177.38 6,-177.38 6,-158.12 86.5,-158.12 86.5,-177.38"/>
<text text-anchor="middle" x="46.25" y="-163.88" font-family="Helvetica,sans-Serif" font-size="10.00">cBgS_PolyInfo</text>
</a>
</g>
</g>
<!-- Node3&#45;&gt;Node2 -->
<g id="edge2_Node000002_Node000003" class="edge">
<title>Node3&#45;&gt;Node2</title>
<g id="a_edge2_Node000002_Node000003"><a xlink:title=" ">
<path fill="none" stroke="#63b8ff" d="M57.58,-148.51C67.7,-132.96 83.49,-110.51 100.25,-93.5 106.68,-86.97 114.77,-80.71 121.56,-75.91"/>
<polygon fill="#63b8ff" stroke="#63b8ff" points="54.76,-146.42 52.34,-156.73 60.66,-150.18 54.76,-146.42"/>
</a>
</g>
</g>
<!-- Node4 -->
<g id="Node000004" class="node">
<title>Node4</title>
<g id="a_Node000004"><a xlink:href="classcBgS__Chk.html" target="_top" xlink:title=" ">
<polygon fill="white" stroke="#666666" points="62.5,-269 0,-269 0,-249.75 62.5,-249.75 62.5,-269"/>
<text text-anchor="middle" x="31.25" y="-255.5" font-family="Helvetica,sans-Serif" font-size="10.00">cBgS_Chk</text>
</a>
</g>
</g>
<!-- Node4&#45;&gt;Node2 -->
<g id="edge3_Node000002_Node000004" class="edge">
<title>Node4&#45;&gt;Node2</title>
<g id="a_edge3_Node000002_Node000004"><a xlink:title=" ">
<path fill="none" stroke="#63b8ff" d="M59.87,-243.85C72.39,-236.17 86.25,-225.64 95.25,-212.75 126.37,-168.18 133.32,-100.31 134.84,-75.96"/>
<polygon fill="#63b8ff" stroke="#63b8ff" points="58.46,-240.62 51.54,-248.64 61.95,-246.69 58.46,-240.62"/>
</a>
</g>
</g>
<!-- Node5 -->
<g id="Node000005" class="node">
<title>Node5</title>
<g id="a_Node000005"><a xlink:href="classcBgS__PolyPassChk.html" target="_top" xlink:title=" ">
<polygon fill="white" stroke="#666666" points="130.12,-335.5 26.38,-335.5 26.38,-316.25 130.12,-316.25 130.12,-335.5"/>
<text text-anchor="middle" x="78.25" y="-322" font-family="Helvetica,sans-Serif" font-size="10.00">cBgS_PolyPassChk</text>
</a>
</g>
</g>
<!-- Node5&#45;&gt;Node4 -->
<g id="edge4_Node000004_Node000005" class="edge">
<title>Node5&#45;&gt;Node4</title>
<g id="a_edge4_Node000004_Node000005"><a xlink:title=" ">
<path fill="none" stroke="#9a32cd" stroke-dasharray="5,2" d="M53.97,-308.76C50.37,-305.59 46.96,-302.06 44.25,-298.25 38.04,-289.53 34.6,-277.59 32.84,-269.47"/>
<polygon fill="#9a32cd" stroke="#9a32cd" points="51.81,-311.51 61.85,-314.89 56.11,-305.98 51.81,-311.51"/>
</a>
</g>
<text text-anchor="middle" x="78.75" y="-288.75" font-family="Helvetica,sans-Serif" font-size="10.00" fill="grey"> mPolyPassChk</text>
</g>
<!-- Node8 -->
<g id="Node000008" class="node">
<title>Node8</title>
<g id="a_Node000008"><a xlink:href="structdBgS__PolyPassChk.html" target="_top" xlink:title=" ">
<polygon fill="white" stroke="#666666" points="184.12,-269 80.38,-269 80.38,-249.75 184.12,-249.75 184.12,-269"/>
<text text-anchor="middle" x="132.25" y="-255.5" font-family="Helvetica,sans-Serif" font-size="10.00">dBgS_PolyPassChk</text>
</a>
</g>
</g>
<!-- Node5&#45;&gt;Node8 -->
<g id="edge8_Node000008_Node000005" class="edge">
<title>Node5&#45;&gt;Node8</title>
<g id="a_edge8_Node000008_Node000005"><a xlink:title=" ">
<path fill="none" stroke="#63b8ff" d="M102.29,-308.94C106.24,-305.69 110.07,-302.08 113.25,-298.25 120.49,-289.53 125.89,-277.6 129.05,-269.47"/>
<polygon fill="#63b8ff" stroke="#63b8ff" points="100.24,-306.1 94.34,-314.9 104.44,-311.7 100.24,-306.1"/>
</a>
</g>
</g>
<!-- Node6 -->
<g id="Node000006" class="node">
<title>Node6</title>
<g id="a_Node000006"><a xlink:href="classcBgS__GrpPassChk.html" target="_top" xlink:title=" ">
<polygon fill="white" stroke="#666666" points="267.62,-335.5 166.88,-335.5 166.88,-316.25 267.62,-316.25 267.62,-335.5"/>
<text text-anchor="middle" x="217.25" y="-322" font-family="Helvetica,sans-Serif" font-size="10.00">cBgS_GrpPassChk</text>
</a>
</g>
</g>
<!-- Node6&#45;&gt;Node4 -->
<g id="edge5_Node000004_Node000006" class="edge">
<title>Node6&#45;&gt;Node4</title>
<g id="a_edge5_Node000004_Node000006"><a xlink:title=" ">
<path fill="none" stroke="#9a32cd" stroke-dasharray="5,2" d="M184.06,-311.71C164.68,-304.18 139.7,-294.72 117.25,-287 99.07,-280.75 78.51,-274.36 62.05,-269.41"/>
<polygon fill="#9a32cd" stroke="#9a32cd" points="182.76,-314.96 193.35,-315.35 185.31,-308.45 182.76,-314.96"/>
</a>
</g>
<text text-anchor="middle" x="181.25" y="-288.75" font-family="Helvetica,sans-Serif" font-size="10.00" fill="grey"> mGrpPassChk</text>
</g>
<!-- Node9 -->
<g id="Node000009" class="node">
<title>Node9</title>
<g id="a_Node000009"><a xlink:href="classdBgS__GrpPassChk.html" target="_top" xlink:title=" ">
<polygon fill="white" stroke="#666666" points="302.62,-269 201.88,-269 201.88,-249.75 302.62,-249.75 302.62,-269"/>
<text text-anchor="middle" x="252.25" y="-255.5" font-family="Helvetica,sans-Serif" font-size="10.00">dBgS_GrpPassChk</text>
</a>
</g>
</g>
<!-- Node6&#45;&gt;Node9 -->
<g id="edge10_Node000009_Node000006" class="edge">
<title>Node6&#45;&gt;Node9</title>
<g id="a_edge10_Node000009_Node000006"><a xlink:title=" ">
<path fill="none" stroke="#63b8ff" d="M230.42,-306.26C232.12,-303.61 233.78,-300.89 235.25,-298.25 240.58,-288.68 245.57,-277.12 248.75,-269.31"/>
<polygon fill="#63b8ff" stroke="#63b8ff" points="227.55,-304.26 224.84,-314.51 233.34,-308.19 227.55,-304.26"/>
</a>
</g>
</g>
<!-- Node7 -->
<g id="Node000007" class="node">
<title>Node7</title>
<g id="a_Node000007"><a xlink:href="classdBgS__Chk.html" target="_top" xlink:title=" ">
<polygon fill="white" stroke="#666666" points="204.5,-177.38 142,-177.38 142,-158.12 204.5,-158.12 204.5,-177.38"/>
<text text-anchor="middle" x="173.25" y="-163.88" font-family="Helvetica,sans-Serif" font-size="10.00">dBgS_Chk</text>
</a>
</g>
</g>
<!-- Node7&#45;&gt;Node2 -->
<g id="edge6_Node000002_Node000007" class="edge">
<title>Node7&#45;&gt;Node2</title>
<g id="a_edge6_Node000002_Node000007"><a xlink:title=" ">
<path fill="none" stroke="#63b8ff" d="M165.88,-147.37C157.67,-125.81 144.77,-91.91 138.67,-75.86"/>
<polygon fill="#63b8ff" stroke="#63b8ff" points="162.51,-148.37 169.34,-156.47 169.05,-145.88 162.51,-148.37"/>
</a>
</g>
</g>
<!-- Node8&#45;&gt;Node7 -->
<g id="edge7_Node000007_Node000008" class="edge">
<title>Node8&#45;&gt;Node7</title>
<g id="a_edge7_Node000007_Node000008"><a xlink:title=" ">
<path fill="none" stroke="#63b8ff" d="M141.11,-239C149.81,-219.99 162.69,-191.84 169.19,-177.64"/>
<polygon fill="#63b8ff" stroke="#63b8ff" points="137.94,-237.53 136.96,-248.08 144.3,-240.44 137.94,-237.53"/>
</a>
</g>
</g>
<!-- Node9&#45;&gt;Node7 -->
<g id="edge9_Node000007_Node000009" class="edge">
<title>Node9&#45;&gt;Node7</title>
<g id="a_edge9_Node000007_Node000009"><a xlink:title=" ">
<path fill="none" stroke="#63b8ff" d="M236.81,-240.85C220.07,-221.86 194.01,-192.31 181.08,-177.64"/>
<polygon fill="#63b8ff" stroke="#63b8ff" points="234.15,-243.13 243.39,-248.32 239.4,-238.5 234.15,-243.13"/>
</a>
</g>
</g>
<!-- Node10 -->
<g id="Node000010" class="node">
<title>Node10</title>
<g id="a_Node000010"><a xlink:href="structcXyz.html" target="_top" xlink:title=" ">
<polygon fill="white" stroke="#666666" points="328.75,-177.38 291.75,-177.38 291.75,-158.12 328.75,-158.12 328.75,-177.38"/>
<text text-anchor="middle" x="310.25" y="-163.88" font-family="Helvetica,sans-Serif" font-size="10.00">cXyz</text>
</a>
</g>
</g>
<!-- Node10&#45;&gt;Node2 -->
<g id="edge11_Node000002_Node000010" class="edge">
<title>Node10&#45;&gt;Node2</title>
<g id="a_edge11_Node000002_Node000010"><a xlink:title=" ">
<path fill="none" stroke="#9a32cd" stroke-dasharray="5,2" d="M284.46,-152.03C247.75,-131.08 181.5,-93.27 151.18,-75.97"/>
<polygon fill="#9a32cd" stroke="#9a32cd" points="282.68,-155.04 293.1,-156.96 286.15,-148.96 282.68,-155.04"/>
</a>
</g>
<text text-anchor="middle" x="219.75" y="-95.25" font-family="Helvetica,sans-Serif" font-size="10.00" fill="grey"> m_ground</text>
</g>
<!-- Node10&#45;&gt;Node10 -->
<g id="edge13_Node000010_Node000010" class="edge">
<title>Node10&#45;&gt;Node10</title>
<g id="a_edge13_Node000010_Node000010"><a xlink:title=" ">
<path fill="none" stroke="#9a32cd" stroke-dasharray="5,2" d="M335.02,-179.57C341.68,-178.93 346.75,-174.99 346.75,-167.75 346.75,-156.71 334.99,-153.35 323.73,-157.66"/>
<polygon fill="#9a32cd" stroke="#9a32cd" points="335.64,-176.12 325.22,-178.07 334.58,-183.04 335.64,-176.12"/>
</a>
</g>
<text text-anchor="middle" x="367.75" y="-203.25" font-family="Helvetica,sans-Serif" font-size="10.00" fill="grey"> BaseX</text>
<text text-anchor="middle" x="367.75" y="-192" font-family="Helvetica,sans-Serif" font-size="10.00" fill="grey">BaseXY</text>
<text text-anchor="middle" x="367.75" y="-180.75" font-family="Helvetica,sans-Serif" font-size="10.00" fill="grey">BaseXYZ</text>
<text text-anchor="middle" x="367.75" y="-169.5" font-family="Helvetica,sans-Serif" font-size="10.00" fill="grey">BaseXZ</text>
<text text-anchor="middle" x="367.75" y="-158.25" font-family="Helvetica,sans-Serif" font-size="10.00" fill="grey">BaseY</text>
<text text-anchor="middle" x="367.75" y="-147" font-family="Helvetica,sans-Serif" font-size="10.00" fill="grey">BaseYZ</text>
<text text-anchor="middle" x="367.75" y="-135.75" font-family="Helvetica,sans-Serif" font-size="10.00" fill="grey">BaseZ</text>
<text text-anchor="middle" x="367.75" y="-124.5" font-family="Helvetica,sans-Serif" font-size="10.00" fill="grey">Zero</text>
</g>
<!-- Node11 -->
<g id="Node000011" class="node">
<title>Node11</title>
<g id="a_Node000011"><a xlink:href="structVec.html" target="_top" xlink:title=" ">
<polygon fill="white" stroke="#666666" points="353.88,-269 320.62,-269 320.62,-249.75 353.88,-249.75 353.88,-269"/>
<text text-anchor="middle" x="337.25" y="-255.5" font-family="Helvetica,sans-Serif" font-size="10.00">Vec</text>
</a>
</g>
</g>
<!-- Node11&#45;&gt;Node10 -->
<g id="edge12_Node000010_Node000011" class="edge">
<title>Node11&#45;&gt;Node10</title>
<g id="a_edge12_Node000010_Node000011"><a xlink:title=" ">
<path fill="none" stroke="#63b8ff" d="M331.25,-238.46C325.53,-219.46 317.17,-191.7 312.93,-177.64"/>
<polygon fill="#63b8ff" stroke="#63b8ff" points="327.89,-239.44 334.13,-248 334.59,-237.42 327.89,-239.44"/>
</a>
</g>
</g>
</g>
</svg>
