<?xml version="1.0" encoding="UTF-8" standalone="no"?>
<!DOCTYPE svg PUBLIC "-//W3C//DTD SVG 1.1//EN"
 "http://www.w3.org/Graphics/SVG/1.1/DTD/svg11.dtd">
<!-- Generated by graphviz version 9.0.0 (20230911.1827)
 -->
<!-- Title: daAlinkHIO_c Pages: 1 -->
<svg width="222pt" height="94pt"
 viewBox="0.00 0.00 221.75 93.75" xmlns="http://www.w3.org/2000/svg" xmlns:xlink="http://www.w3.org/1999/xlink">
<g id="graph0" class="graph" transform="scale(1 1) rotate(0) translate(4 89.75)">
<title>daAlinkHIO_c</title>
<!-- Node1 -->
<g id="Node000001" class="node">
<title>Node1</title>
<g id="a_Node000001"><a xlink:title=" ">
<polygon fill="#999999" stroke="#666666" points="144.12,-19.25 67.38,-19.25 67.38,0 144.12,0 144.12,-19.25"/>
<text text-anchor="middle" x="105.75" y="-5.75" font-family="Helvetica,sans-Serif" font-size="10.00">daAlinkHIO_c</text>
</a>
</g>
</g>
<!-- Node2 -->
<g id="Node000002" class="node">
<title>Node2</title>
<g id="a_Node000002"><a xlink:href="classdaAlinkHIO__cut__c.html" target="_top" xlink:title=" ">
<polygon fill="white" stroke="#666666" points="95.5,-85.75 0,-85.75 0,-66.5 95.5,-66.5 95.5,-85.75"/>
<text text-anchor="middle" x="47.75" y="-72.25" font-family="Helvetica,sans-Serif" font-size="10.00">daAlinkHIO_cut_c</text>
</a>
</g>
</g>
<!-- Node2&#45;&gt;Node1 -->
<g id="edge1_Node000001_Node000002" class="edge">
<title>Node2&#45;&gt;Node1</title>
<g id="a_edge1_Node000001_Node000002"><a xlink:title=" ">
<path fill="none" stroke="#9a32cd" stroke-dasharray="5,2" d="M63.5,-57.61C74.58,-45.28 88.95,-29.31 97.75,-19.52"/>
<polygon fill="#9a32cd" stroke="#9a32cd" points="60.91,-55.26 56.83,-65.03 66.12,-59.94 60.91,-55.26"/>
</a>
</g>
<text text-anchor="middle" x="93.5" y="-39" font-family="Helvetica,sans-Serif" font-size="10.00" fill="grey"> mCut</text>
</g>
<!-- Node3 -->
<g id="Node000003" class="node">
<title>Node3</title>
<g id="a_Node000003"><a xlink:href="classdaAlinkHIO__wolf__c.html" target="_top" xlink:title=" ">
<polygon fill="white" stroke="#666666" points="213.75,-85.75 113.75,-85.75 113.75,-66.5 213.75,-66.5 213.75,-85.75"/>
<text text-anchor="middle" x="163.75" y="-72.25" font-family="Helvetica,sans-Serif" font-size="10.00">daAlinkHIO_wolf_c</text>
</a>
</g>
</g>
<!-- Node3&#45;&gt;Node1 -->
<g id="edge2_Node000001_Node000003" class="edge">
<title>Node3&#45;&gt;Node1</title>
<g id="a_edge2_Node000001_Node000003"><a xlink:title=" ">
<path fill="none" stroke="#9a32cd" stroke-dasharray="5,2" d="M148,-57.61C136.92,-45.28 122.55,-29.31 113.75,-19.52"/>
<polygon fill="#9a32cd" stroke="#9a32cd" points="145.38,-59.94 154.67,-65.03 150.59,-55.26 145.38,-59.94"/>
</a>
</g>
<text text-anchor="middle" x="152.75" y="-39" font-family="Helvetica,sans-Serif" font-size="10.00" fill="grey"> mWolf</text>
</g>
</g>
</svg>
