<?xml version="1.0" encoding="UTF-8" standalone="no"?>
<!DOCTYPE svg PUBLIC "-//W3C//DTD SVG 1.1//EN"
 "http://www.w3.org/Graphics/SVG/1.1/DTD/svg11.dtd">
<!-- Generated by graphviz version 9.0.0 (20230911.1827)
 -->
<!-- Title: msg_class Pages: 1 -->
<svg width="401pt" height="138pt"
 viewBox="0.00 0.00 400.62 137.75" xmlns="http://www.w3.org/2000/svg" xmlns:xlink="http://www.w3.org/1999/xlink">

<svg id="main" version="1.1" xmlns="http://www.w3.org/2000/svg" xmlns:xlink="http://www.w3.org/1999/xlink" xml:space="preserve" onload="init(evt)">
<style type="text/css"><![CDATA[
.node, .edge {opacity: 0.7;}
.node.selected, .edge.selected {opacity: 1;}
.edge:hover path { stroke: red; }
.edge:hover polygon { stroke: red; fill: red; }
]]></style>
<script type="application/ecmascript" xlink:href="svg.min.js"/>
<svg id="graph" class="graph">
<g id="graph0" class="graph" transform="scale(1 1) rotate(0) translate(4 133.75)">
<title>msg_class</title>
<!-- Node1 -->
<g id="Node000001" class="node">
<title>Node1</title>
<g id="a_Node000001"><a xlink:title=" ">
<polygon fill="#999999" stroke="#666666" points="245,-74.5 181.75,-74.5 181.75,-55.25 245,-55.25 245,-74.5"/>
<text text-anchor="middle" x="213.38" y="-61" font-family="Helvetica,sans-Serif" font-size="10.00">msg_class</text>
</a>
</g>
</g>
<!-- Node3 -->
<g id="Node000003" class="node">
<title>Node3</title>
<g id="a_Node000003"><a xlink:href="classdGameover__c.html" target="_top" xlink:title=" ">
<polygon fill="white" stroke="#666666" points="76.75,-19.25 0,-19.25 0,0 76.75,0 76.75,-19.25"/>
<text text-anchor="middle" x="38.38" y="-5.75" font-family="Helvetica,sans-Serif" font-size="10.00">dGameover_c</text>
</a>
</g>
</g>
<!-- Node1&#45;&gt;Node3 -->
<g id="edge2_Node000001_Node000003" class="edge">
<title>Node1&#45;&gt;Node3</title>
<g id="a_edge2_Node000001_Node000003"><a xlink:title=" ">
<path fill="none" stroke="#63b8ff" d="M172.92,-51.57C140.95,-41.84 97.04,-28.48 68.21,-19.7"/>
<polygon fill="#63b8ff" stroke="#63b8ff" points="171.65,-54.84 182.24,-54.4 173.69,-48.14 171.65,-54.84"/>
</a>
</g>
</g>
<!-- Node4 -->
<g id="Node000004" class="node">
<title>Node4</title>
<g id="a_Node000004"><a xlink:href="classdMeter2__c.html" target="_top" xlink:title=" ">
<polygon fill="white" stroke="#666666" points="156.25,-19.25 94.5,-19.25 94.5,0 156.25,0 156.25,-19.25"/>
<text text-anchor="middle" x="125.38" y="-5.75" font-family="Helvetica,sans-Serif" font-size="10.00">dMeter2_c</text>
</a>
</g>
</g>
<!-- Node1&#45;&gt;Node4 -->
<g id="edge3_Node000001_Node000004" class="edge">
<title>Node1&#45;&gt;Node4</title>
<g id="a_edge3_Node000001_Node000004"><a xlink:title=" ">
<path fill="none" stroke="#63b8ff" d="M188.91,-49.07C173.34,-39.65 153.67,-27.75 140.38,-19.7"/>
<polygon fill="#63b8ff" stroke="#63b8ff" points="186.78,-51.88 197.15,-54.06 190.41,-45.89 186.78,-51.88"/>
</a>
</g>
</g>
<!-- Node5 -->
<g id="Node000005" class="node">
<title>Node5</title>
<g id="a_Node000005"><a xlink:href="classdMsgObject__c.html" target="_top" xlink:title=" ">
<polygon fill="white" stroke="#666666" points="252.88,-19.25 173.88,-19.25 173.88,0 252.88,0 252.88,-19.25"/>
<text text-anchor="middle" x="213.38" y="-5.75" font-family="Helvetica,sans-Serif" font-size="10.00">dMsgObject_c</text>
</a>
</g>
</g>
<!-- Node1&#45;&gt;Node5 -->
<g id="edge4_Node000001_Node000005" class="edge">
<title>Node1&#45;&gt;Node5</title>
<g id="a_edge4_Node000001_Node000005"><a xlink:title=" ">
<path fill="none" stroke="#63b8ff" d="M213.38,-43.63C213.38,-35.34 213.38,-26.17 213.38,-19.61"/>
<polygon fill="#63b8ff" stroke="#63b8ff" points="209.88,-43.57 213.38,-53.57 216.88,-43.57 209.88,-43.57"/>
</a>
</g>
</g>
<!-- Node6 -->
<g id="Node000006" class="node">
<title>Node6</title>
<g id="a_Node000006"><a xlink:href="classdMw__c.html" target="_top" xlink:title=" ">
<polygon fill="white" stroke="#666666" points="318.12,-19.25 270.62,-19.25 270.62,0 318.12,0 318.12,-19.25"/>
<text text-anchor="middle" x="294.38" y="-5.75" font-family="Helvetica,sans-Serif" font-size="10.00">dMw_c</text>
</a>
</g>
</g>
<!-- Node1&#45;&gt;Node6 -->
<g id="edge5_Node000001_Node000006" class="edge">
<title>Node1&#45;&gt;Node6</title>
<g id="a_edge5_Node000001_Node000006"><a xlink:title=" ">
<path fill="none" stroke="#63b8ff" d="M236.71,-48.53C250.91,-39.2 268.56,-27.6 280.57,-19.7"/>
<polygon fill="#63b8ff" stroke="#63b8ff" points="234.81,-45.59 228.38,-54.01 238.66,-51.44 234.81,-45.59"/>
</a>
</g>
</g>
<!-- Node7 -->
<g id="Node000007" class="node">
<title>Node7</title>
<g id="a_Node000007"><a xlink:href="classdTimer__c.html" target="_top" xlink:title=" ">
<polygon fill="white" stroke="#666666" points="392.62,-19.25 336.12,-19.25 336.12,0 392.62,0 392.62,-19.25"/>
<text text-anchor="middle" x="364.38" y="-5.75" font-family="Helvetica,sans-Serif" font-size="10.00">dTimer_c</text>
</a>
</g>
</g>
<!-- Node1&#45;&gt;Node7 -->
<g id="edge6_Node000001_Node000007" class="edge">
<title>Node1&#45;&gt;Node7</title>
<g id="a_edge6_Node000001_Node000007"><a xlink:title=" ">
<path fill="none" stroke="#63b8ff" d="M249.74,-51.05C277.19,-41.37 314.19,-28.32 338.63,-19.7"/>
<polygon fill="#63b8ff" stroke="#63b8ff" points="248.68,-47.71 240.42,-54.34 251.01,-54.31 248.68,-47.71"/>
</a>
</g>
</g>
<!-- Node2 -->
<g id="Node000002" class="node">
<title>Node2</title>
<g id="a_Node000002"><a xlink:href="structleafdraw__class.html" target="_top" xlink:title=" ">
<polygon fill="white" stroke="#666666" points="254,-129.75 172.75,-129.75 172.75,-110.5 254,-110.5 254,-129.75"/>
<text text-anchor="middle" x="213.38" y="-116.25" font-family="Helvetica,sans-Serif" font-size="10.00">leafdraw_class</text>
</a>
</g>
</g>
<!-- Node2&#45;&gt;Node1 -->
<g id="edge1_Node000001_Node000002" class="edge">
<title>Node2&#45;&gt;Node1</title>
<g id="a_edge1_Node000001_Node000002"><a xlink:title=" ">
<path fill="none" stroke="#63b8ff" d="M213.38,-98.88C213.38,-90.59 213.38,-81.42 213.38,-74.86"/>
<polygon fill="#63b8ff" stroke="#63b8ff" points="209.88,-98.82 213.38,-108.82 216.88,-98.82 209.88,-98.82"/>
</a>
</g>
</g>
</g>
</svg>
</svg>

<style type='text/css'>
<![CDATA[
[data-mouse-over-selected='false'] { opacity: 0.7; }
[data-mouse-over-selected='true']  { opacity: 1.0; }
]]>
</style>
<script type="application/ecmascript"><![CDATA[
document.addEventListener('DOMContentLoaded', (event) => {
  highlightEdges();
  highlightAdjacentNodes();
});
]]></script>
</svg>
