<?xml version="1.0" encoding="UTF-8" standalone="no"?>
<!DOCTYPE svg PUBLIC "-//W3C//DTD SVG 1.1//EN"
 "http://www.w3.org/Graphics/SVG/1.1/DTD/svg11.dtd">
<!-- Generated by graphviz version 9.0.0 (20230911.1827)
 -->
<!-- Title: JUTResFont Pages: 1 -->
<!--zoomable 250 -->

<svg id="main" version="1.1" xmlns="http://www.w3.org/2000/svg" xmlns:xlink="http://www.w3.org/1999/xlink" xml:space="preserve" onload="init(evt)">
<style type="text/css"><![CDATA[
.node, .edge {opacity: 0.7;}
.node.selected, .edge.selected {opacity: 1;}
.edge:hover path { stroke: red; }
.edge:hover polygon { stroke: red; fill: red; }
]]></style>

<defs>
  <circle id="rim" cx="0" cy="0" r="7"/>
  <circle id="rim2" cx="0" cy="0" r="3.5"/>
  <g id="zoomPlus">
    <use xlink:href="#rim" fill="#404040"><set attributeName="fill" to="#808080" begin="zoomplus.mouseover" end="zoomplus.mouseout"/></use>
    <path d="M-4,0h8M0,-4v8" fill="none" stroke="white" stroke-width="1.5" pointer-events="none"/>
  </g>
  <g id="zoomMin">
    <use xlink:href="#rim" fill="#404040"><set attributeName="fill" to="#808080" begin="zoomminus.mouseover" end="zoomminus.mouseout"/></use>
    <path d="M-4,0h8" fill="none" stroke="white" stroke-width="1.5" pointer-events="none"/>
  </g>
  <g id="arrowUp" transform="translate(30 24)">
    <use xlink:href="#rim"/>
    <path pointer-events="none" fill="none" stroke="white" stroke-width="1.5" d="M0,-3.0v7 M-2.5,-0.5L0,-3.0L2.5,-0.5"/>
  </g>
  <g id="arrowRight" transform="rotate(90) translate(36 -43)">
    <use xlink:href="#rim"/>
    <path pointer-events="none" fill="none" stroke="white" stroke-width="1.5" d="M0,-3.0v7 M-2.5,-0.5L0,-3.0L2.5,-0.5"/>
  </g>
  <g id="arrowDown" transform="rotate(180) translate(-30 -48)">
    <use xlink:href="#rim"/>
    <path pointer-events="none" fill="none" stroke="white" stroke-width="1.5" d="M0,-3.0v7 M-2.5,-0.5L0,-3.0L2.5,-0.5"/>
  </g>
  <g id="arrowLeft" transform="rotate(270) translate(-36 17)">
    <use xlink:href="#rim"/>
    <path pointer-events="none" fill="none" stroke="white" stroke-width="1.5" d="M0,-3.0v7 M-2.5,-0.5L0,-3.0L2.5,-0.5"/>
  </g>
  <g id="resetDef">
    <use xlink:href="#rim2" fill="#404040"><set attributeName="fill" to="#808080" begin="reset.mouseover" end="reset.mouseout"/></use>
  </g>
</defs>
<script type="application/ecmascript">
var viewWidth = 666;
var viewHeight = 250;
var sectionId = 'dynsection-1';
</script>
<script type="application/ecmascript" xlink:href="svg.min.js"/>
<svg id="graph" class="graph">
<g id="viewport">
<title>JUTResFont</title>
<!-- Node1 -->
<g id="Node000001" class="node">
<title>Node1</title>
<g id="a_Node000001"><a xlink:title=" ">
<polygon fill="#999999" stroke="#666666" points="325.25,-19.25 253.75,-19.25 253.75,0 325.25,0 325.25,-19.25"/>
<text text-anchor="middle" x="289.5" y="-5.75" font-family="Helvetica,sans-Serif" font-size="10.00">JUTResFont</text>
</a>
</g>
</g>
<!-- Node2 -->
<g id="Node000002" class="node">
<title>Node2</title>
<g id="a_Node000002"><a xlink:href="classJUTFont.html" target="_top" xlink:title=" ">
<polygon fill="white" stroke="#666666" points="66.62,-85.75 12.38,-85.75 12.38,-66.5 66.62,-66.5 66.62,-85.75"/>
<text text-anchor="middle" x="39.5" y="-72.25" font-family="Helvetica,sans-Serif" font-size="10.00">JUTFont</text>
</a>
</g>
</g>
<!-- Node2&#45;&gt;Node1 -->
<g id="edge1_Node000001_Node000002" class="edge">
<title>Node2&#45;&gt;Node1</title>
<g id="a_edge1_Node000001_Node000002"><a xlink:title=" ">
<path fill="none" stroke="#63b8ff" d="M74.67,-62.29C97.27,-54.35 127.37,-44.37 154.5,-37.25 187.66,-28.56 226.06,-21.24 253.41,-16.49"/>
<polygon fill="#63b8ff" stroke="#63b8ff" points="73.59,-58.96 65.34,-65.6 75.93,-65.55 73.59,-58.96"/>
</a>
</g>
</g>
<!-- Node3 -->
<g id="Node000003" class="node">
<title>Node3</title>
<g id="a_Node000003"><a xlink:href="structJUtility_1_1TColor.html" target="_top" xlink:title=" ">
<polygon fill="white" stroke="#666666" points="79,-186 0,-186 0,-166.75 79,-166.75 79,-186"/>
<text text-anchor="middle" x="39.5" y="-172.5" font-family="Helvetica,sans-Serif" font-size="10.00">JUtility::TColor</text>
</a>
</g>
</g>
<!-- Node3&#45;&gt;Node2 -->
<g id="edge2_Node000002_Node000003" class="edge">
<title>Node3&#45;&gt;Node2</title>
<g id="a_edge2_Node000002_Node000003"><a xlink:title=" ">
<path fill="none" stroke="#9a32cd" stroke-dasharray="5,2" d="M39.5,-155.07C39.5,-133.92 39.5,-101.73 39.5,-86.17"/>
<polygon fill="#9a32cd" stroke="#9a32cd" points="36,-154.79 39.5,-164.79 43,-154.79 36,-154.79"/>
</a>
</g>
<text text-anchor="middle" x="58.62" y="-139.25" font-family="Helvetica,sans-Serif" font-size="10.00" fill="grey"> mColor1</text>
<text text-anchor="middle" x="58.62" y="-128" font-family="Helvetica,sans-Serif" font-size="10.00" fill="grey">mColor2</text>
<text text-anchor="middle" x="58.62" y="-116.75" font-family="Helvetica,sans-Serif" font-size="10.00" fill="grey">mColor3</text>
<text text-anchor="middle" x="58.62" y="-105.5" font-family="Helvetica,sans-Serif" font-size="10.00" fill="grey">mColor4</text>
</g>
<!-- Node4 -->
<g id="Node000004" class="node">
<title>Node4</title>
<g id="a_Node000004"><a xlink:href="struct__GXColor.html" target="_top" xlink:title=" ">
<polygon fill="white" stroke="#666666" points="65.88,-242.25 13.12,-242.25 13.12,-223 65.88,-223 65.88,-242.25"/>
<text text-anchor="middle" x="39.5" y="-228.75" font-family="Helvetica,sans-Serif" font-size="10.00">GXColor</text>
</a>
</g>
</g>
<!-- Node4&#45;&gt;Node3 -->
<g id="edge3_Node000003_Node000004" class="edge">
<title>Node4&#45;&gt;Node3</title>
<g id="a_edge3_Node000003_Node000004"><a xlink:title=" ">
<path fill="none" stroke="#63b8ff" d="M39.5,-211.44C39.5,-202.73 39.5,-192.99 39.5,-186.17"/>
<polygon fill="#63b8ff" stroke="#63b8ff" points="36,-211.15 39.5,-221.15 43,-211.15 36,-211.15"/>
</a>
</g>
</g>
<!-- Node5 -->
<g id="Node000005" class="node">
<title>Node5</title>
<g id="a_Node000005"><a xlink:href="struct__GXTexObj.html" target="_top" xlink:title=" ">
<polygon fill="white" stroke="#666666" points="150.62,-85.75 84.38,-85.75 84.38,-66.5 150.62,-66.5 150.62,-85.75"/>
<text text-anchor="middle" x="117.5" y="-72.25" font-family="Helvetica,sans-Serif" font-size="10.00">_GXTexObj</text>
</a>
</g>
</g>
<!-- Node5&#45;&gt;Node1 -->
<g id="edge4_Node000001_Node000005" class="edge">
<title>Node5&#45;&gt;Node1</title>
<g id="a_edge4_Node000001_Node000005"><a xlink:title=" ">
<path fill="none" stroke="#9a32cd" stroke-dasharray="5,2" d="M138.84,-59.73C150.34,-52.04 165.06,-43.14 179.25,-37.25 203.07,-27.36 231.38,-20.62 253.35,-16.39"/>
<polygon fill="#9a32cd" stroke="#9a32cd" points="137.14,-56.65 130.9,-65.21 141.12,-62.41 137.14,-56.65"/>
</a>
</g>
<text text-anchor="middle" x="200.12" y="-39" font-family="Helvetica,sans-Serif" font-size="10.00" fill="grey"> mTexObj</text>
</g>
<!-- Node6 -->
<g id="Node000006" class="node">
<title>Node6</title>
<g id="a_Node000006"><a xlink:href="structResFONT.html" target="_top" xlink:title=" ">
<polygon fill="white" stroke="#666666" points="228.62,-85.75 168.38,-85.75 168.38,-66.5 228.62,-66.5 228.62,-85.75"/>
<text text-anchor="middle" x="198.5" y="-72.25" font-family="Helvetica,sans-Serif" font-size="10.00">ResFONT</text>
</a>
</g>
</g>
<!-- Node6&#45;&gt;Node1 -->
<g id="edge5_Node000001_Node000006" class="edge">
<title>Node6&#45;&gt;Node1</title>
<g id="a_edge5_Node000001_Node000006"><a xlink:title=" ">
<path fill="none" stroke="#9a32cd" stroke-dasharray="5,2" d="M214.27,-58.11C221.23,-51.15 229.74,-43.33 238.25,-37.25 247.71,-30.49 259.12,-24.39 268.77,-19.74"/>
<polygon fill="#9a32cd" stroke="#9a32cd" points="211.89,-55.54 207.47,-65.17 216.93,-60.4 211.89,-55.54"/>
</a>
</g>
<text text-anchor="middle" x="261.12" y="-39" font-family="Helvetica,sans-Serif" font-size="10.00" fill="grey"> mResFont</text>
</g>
<!-- Node7 -->
<g id="Node000007" class="node">
<title>Node7</title>
<g id="a_Node000007"><a xlink:href="structResFONT_1_1INF1.html" target="_top" xlink:title=" ">
<polygon fill="white" stroke="#666666" points="332.75,-85.75 246.25,-85.75 246.25,-66.5 332.75,-66.5 332.75,-85.75"/>
<text text-anchor="middle" x="289.5" y="-72.25" font-family="Helvetica,sans-Serif" font-size="10.00">ResFONT::INF1</text>
</a>
</g>
</g>
<!-- Node7&#45;&gt;Node1 -->
<g id="edge6_Node000001_Node000007" class="edge">
<title>Node7&#45;&gt;Node1</title>
<g id="a_edge6_Node000001_Node000007"><a xlink:title=" ">
<path fill="none" stroke="#9a32cd" stroke-dasharray="5,2" d="M289.5,-54.65C289.5,-42.82 289.5,-28.54 289.5,-19.52"/>
<polygon fill="#9a32cd" stroke="#9a32cd" points="286,-54.64 289.5,-64.64 293,-54.64 286,-54.64"/>
</a>
</g>
<text text-anchor="middle" x="309.38" y="-39" font-family="Helvetica,sans-Serif" font-size="10.00" fill="grey"> mInf1Ptr</text>
</g>
<!-- Node8 -->
<g id="Node000008" class="node">
<title>Node8</title>
<g id="a_Node000008"><a xlink:href="structResFONT_1_1WID1.html" target="_top" xlink:title=" ">
<polygon fill="white" stroke="#666666" points="439.88,-85.75 351.12,-85.75 351.12,-66.5 439.88,-66.5 439.88,-85.75"/>
<text text-anchor="middle" x="395.5" y="-72.25" font-family="Helvetica,sans-Serif" font-size="10.00">ResFONT::WID1</text>
</a>
</g>
</g>
<!-- Node8&#45;&gt;Node1 -->
<g id="edge7_Node000001_Node000008" class="edge">
<title>Node8&#45;&gt;Node1</title>
<g id="a_edge7_Node000001_Node000008"><a xlink:title=" ">
<path fill="none" stroke="#9a32cd" stroke-dasharray="5,2" d="M371.03,-60.14C359.63,-53.17 345.88,-44.78 333.5,-37.25 323.89,-31.41 313.08,-24.86 304.58,-19.73"/>
<polygon fill="#9a32cd" stroke="#9a32cd" points="369.08,-63.05 379.44,-65.29 372.73,-57.08 369.08,-63.05"/>
</a>
</g>
<text text-anchor="middle" x="385.75" y="-39" font-family="Helvetica,sans-Serif" font-size="10.00" fill="grey"> mpWidthBlocks</text>
</g>
<!-- Node9 -->
<g id="Node000009" class="node">
<title>Node9</title>
<g id="a_Node000009"><a xlink:href="structResFONT_1_1GLY1.html" target="_top" xlink:title=" ">
<polygon fill="white" stroke="#666666" points="548.62,-85.75 458.38,-85.75 458.38,-66.5 548.62,-66.5 548.62,-85.75"/>
<text text-anchor="middle" x="503.5" y="-72.25" font-family="Helvetica,sans-Serif" font-size="10.00">ResFONT::GLY1</text>
</a>
</g>
</g>
<!-- Node9&#45;&gt;Node1 -->
<g id="edge8_Node000001_Node000009" class="edge">
<title>Node9&#45;&gt;Node1</title>
<g id="a_edge8_Node000001_Node000009"><a xlink:title=" ">
<path fill="none" stroke="#9a32cd" stroke-dasharray="5,2" d="M477.9,-60.61C463.01,-52.7 443.65,-43.32 425.5,-37.25 392.53,-26.23 353.45,-19.16 325.66,-15.1"/>
<polygon fill="#9a32cd" stroke="#9a32cd" points="476.09,-63.61 486.55,-65.32 479.44,-57.46 476.09,-63.61"/>
</a>
</g>
<text text-anchor="middle" x="486.75" y="-39" font-family="Helvetica,sans-Serif" font-size="10.00" fill="grey"> mpGlyphBlocks</text>
</g>
<!-- Node10 -->
<g id="Node000010" class="node">
<title>Node10</title>
<g id="a_Node000010"><a xlink:href="structResFONT_1_1MAP1.html" target="_top" xlink:title=" ">
<polygon fill="white" stroke="#666666" points="658.38,-85.75 566.62,-85.75 566.62,-66.5 658.38,-66.5 658.38,-85.75"/>
<text text-anchor="middle" x="612.5" y="-72.25" font-family="Helvetica,sans-Serif" font-size="10.00">ResFONT::MAP1</text>
</a>
</g>
</g>
<!-- Node10&#45;&gt;Node1 -->
<g id="edge9_Node000001_Node000010" class="edge">
<title>Node10&#45;&gt;Node1</title>
<g id="a_edge9_Node000001_Node000010"><a xlink:title=" ">
<path fill="none" stroke="#9a32cd" stroke-dasharray="5,2" d="M585.87,-60.88C569.26,-52.64 547.17,-42.82 526.5,-37.25 456.94,-18.5 372.45,-12.94 325.46,-11.3"/>
<polygon fill="#9a32cd" stroke="#9a32cd" points="584.07,-63.9 594.57,-65.32 587.25,-57.66 584.07,-63.9"/>
</a>
</g>
<text text-anchor="middle" x="589.75" y="-39" font-family="Helvetica,sans-Serif" font-size="10.00" fill="grey"> mpMapBlocks</text>
</g>
</g>
</svg>

<g id="navigator" transform="translate(0 0)" fill="#404254">
  <rect fill="#f2f5e9" fill-opacity="0.5" stroke="#606060" stroke-width=".5" x="0" y="0" width="60" height="60"/>
  <use id="zoomplus" xlink:href="#zoomPlus" x="17" y="9" onmousedown="handleZoom(evt,'in')"/>
  <use id="zoomminus" xlink:href="#zoomMin" x="42" y="9" onmousedown="handleZoom(evt,'out')"/>
  <use id="reset" xlink:href="#resetDef" x="30" y="36" onmousedown="handleReset()"/>
   <use id="arrowup" xlink:href="#arrowUp" x="0" y="0" onmousedown="handlePan(0,-1)"/>
  <use id="arrowright" xlink:href="#arrowRight" x="0" y="0" onmousedown="handlePan(1,0)"/>
  <use id="arrowdown" xlink:href="#arrowDown" x="0" y="0" onmousedown="handlePan(0,1)"/>
  <use id="arrowleft" xlink:href="#arrowLeft" x="0" y="0" onmousedown="handlePan(-1,0)"/>
</g>
<svg viewBox="0 0 15 15" width="100%" height="30px" preserveAspectRatio="xMaxYMin meet">
 <g id="arrow_out" transform="scale(0.3 0.3)">
  <a xlink:href="classJUTResFont__coll__graph_org.svg" target="_base">
   <rect id="button" ry="5" rx="5" y="6" x="6" height="38" width="38"
        fill="#f2f5e9" fill-opacity="0.5" stroke="#606060" stroke-width="1.0"/>
   <path id="arrow"
     d="M 11.500037,31.436501 C 11.940474,20.09759 22.043105,11.32322 32.158766,21.979434 L 37.068811,17.246167 C 37.068811,17.246167 37.088388,32 37.088388,32 L 22.160133,31.978069 C 22.160133,31.978069 26.997745,27.140456 26.997745,27.140456 C 18.528582,18.264221 13.291696,25.230495 11.500037,31.436501 z"
     style="fill:#404040;"/>
  </a>
 </g>
</svg>

<style type='text/css'>
<![CDATA[
[data-mouse-over-selected='false'] { opacity: 0.7; }
[data-mouse-over-selected='true']  { opacity: 1.0; }
]]>
</style>
<script type="application/ecmascript"><![CDATA[
document.addEventListener('DOMContentLoaded', (event) => {
  highlightEdges();
  highlightAdjacentNodes();
});
]]></script>
</svg>
