<?xml version="1.0" encoding="UTF-8" standalone="no"?>
<!DOCTYPE svg PUBLIC "-//W3C//DTD SVG 1.1//EN"
 "http://www.w3.org/Graphics/SVG/1.1/DTD/svg11.dtd">
<!-- Generated by graphviz version 9.0.0 (20230911.1827)
 -->
<!-- Title: Z2SoundMgr Pages: 1 -->
<svg width="1380pt" height="745pt"
 viewBox="0.00 0.00 1380.00 744.88" xmlns="http://www.w3.org/2000/svg" xmlns:xlink="http://www.w3.org/1999/xlink">
<g id="graph0" class="graph" transform="scale(1 1) rotate(0) translate(4 740.88)">
<title>Z2SoundMgr</title>
<!-- Node1 -->
<g id="Node000001" class="node">
<title>Node1</title>
<g id="a_Node000001"><a xlink:title=" ">
<polygon fill="#999999" stroke="#666666" points="1167.75,-191.88 1096.25,-191.88 1096.25,-172.62 1167.75,-172.62 1167.75,-191.88"/>
<text text-anchor="middle" x="1132" y="-178.38" font-family="Helvetica,sans-Serif" font-size="10.00">Z2SoundMgr</text>
</a>
</g>
</g>
<!-- Node2 -->
<g id="Node000002" class="node">
<title>Node2</title>
<g id="a_Node000002"><a xlink:href="classJASGlobalInstance.html" target="_top" xlink:title=" ">
<polygon fill="white" stroke="#666666" points="1372,-197.5 1266,-197.5 1266,-167 1372,-167 1372,-197.5"/>
<text text-anchor="start" x="1274" y="-184" font-family="Helvetica,sans-Serif" font-size="10.00">JASGlobalInstance&lt;</text>
<text text-anchor="middle" x="1319" y="-172.75" font-family="Helvetica,sans-Serif" font-size="10.00"> Z2SoundMgr &gt;</text>
</a>
</g>
</g>
<!-- Node1&#45;&gt;Node2 -->
<g id="edge2_Node000002_Node000001" class="edge">
<title>Node1&#45;&gt;Node2</title>
<g id="a_edge2_Node000002_Node000001"><a xlink:title=" ">
<path fill="none" stroke="#9a32cd" stroke-dasharray="5,2" d="M1179.41,-182.25C1205.67,-182.25 1238.59,-182.25 1265.75,-182.25"/>
<polygon fill="#9a32cd" stroke="#9a32cd" points="1179.75,-178.75 1169.75,-182.25 1179.75,-185.75 1179.75,-178.75"/>
</a>
</g>
<text text-anchor="middle" x="1225.5" y="-184" font-family="Helvetica,sans-Serif" font-size="10.00" fill="grey"> sInstance</text>
</g>
<!-- Node2&#45;&gt;Node1 -->
<g id="edge1_Node000001_Node000002" class="edge">
<title>Node2&#45;&gt;Node1</title>
<g id="a_edge1_Node000001_Node000002"><a xlink:title=" ">
<path fill="none" stroke="#63b8ff" d="M1254.25,-180.35C1252.14,-180.31 1250.05,-180.28 1248,-180.25 1228,-179.96 1223,-179.96 1203,-180.25 1191.69,-180.41 1179.36,-180.72 1168.25,-181.05"/>
<polygon fill="#63b8ff" stroke="#63b8ff" points="1254.05,-183.85 1264.12,-180.56 1254.2,-176.85 1254.05,-183.85"/>
</a>
</g>
</g>
<!-- Node3 -->
<g id="Node000003" class="node">
<title>Node3</title>
<g id="a_Node000003"><a xlink:href="classJAISeMgr.html" target="_top" xlink:title=" ">
<polygon fill="white" stroke="#666666" points="971.75,-533.88 912.25,-533.88 912.25,-514.62 971.75,-514.62 971.75,-533.88"/>
<text text-anchor="middle" x="942" y="-520.38" font-family="Helvetica,sans-Serif" font-size="10.00">JAISeMgr</text>
</a>
</g>
</g>
<!-- Node3&#45;&gt;Node1 -->
<g id="edge3_Node000001_Node000003" class="edge">
<title>Node3&#45;&gt;Node1</title>
<g id="a_edge3_Node000001_Node000003"><a xlink:title=" ">
<path fill="none" stroke="#9a32cd" stroke-dasharray="5,2" d="M953.95,-504.33C989.32,-439.99 1099.72,-239.15 1125.55,-192.16"/>
<polygon fill="#9a32cd" stroke="#9a32cd" points="950.9,-502.61 949.15,-513.06 957.04,-505.98 950.9,-502.61"/>
</a>
</g>
<text text-anchor="middle" x="1037" y="-395" font-family="Helvetica,sans-Serif" font-size="10.00" fill="grey"> mSeMgr</text>
</g>
<!-- Node4 -->
<g id="Node000004" class="node">
<title>Node4</title>
<g id="a_Node000004"><a xlink:href="classJASGlobalInstance.html" target="_top" xlink:title=" ">
<polygon fill="white" stroke="#666666" points="1185,-539.5 1079,-539.5 1079,-509 1185,-509 1185,-539.5"/>
<text text-anchor="start" x="1087" y="-526" font-family="Helvetica,sans-Serif" font-size="10.00">JASGlobalInstance&lt;</text>
<text text-anchor="middle" x="1132" y="-514.75" font-family="Helvetica,sans-Serif" font-size="10.00"> JAISeMgr &gt;</text>
</a>
</g>
</g>
<!-- Node3&#45;&gt;Node4 -->
<g id="edge5_Node000004_Node000003" class="edge">
<title>Node3&#45;&gt;Node4</title>
<g id="a_edge5_Node000004_Node000003"><a xlink:title=" ">
<path fill="none" stroke="#9a32cd" stroke-dasharray="5,2" d="M983.11,-514.65C992.84,-512.72 1003.24,-510.98 1013,-510 1034.23,-507.86 1039.77,-507.86 1061,-510 1066.8,-510.58 1072.83,-511.43 1078.81,-512.43"/>
<polygon fill="#9a32cd" stroke="#9a32cd" points="982.64,-511.17 973.57,-516.65 984.08,-518.02 982.64,-511.17"/>
</a>
</g>
<text text-anchor="middle" x="1037" y="-511" font-family="Helvetica,sans-Serif" font-size="10.00" fill="grey"> sInstance</text>
</g>
<!-- Node4&#45;&gt;Node3 -->
<g id="edge4_Node000003_Node000004" class="edge">
<title>Node4&#45;&gt;Node3</title>
<g id="a_edge4_Node000003_Node000004"><a xlink:title=" ">
<path fill="none" stroke="#63b8ff" d="M1067.34,-524.25C1035,-524.25 997.3,-524.25 971.96,-524.25"/>
<polygon fill="#63b8ff" stroke="#63b8ff" points="1067.01,-527.75 1077.01,-524.25 1067.01,-520.75 1067.01,-527.75"/>
</a>
</g>
</g>
<!-- Node5 -->
<g id="Node000005" class="node">
<title>Node5</title>
<g id="a_Node000005"><a xlink:href="structJAISeqDataUser.html" target="_top" xlink:title=" ">
<polygon fill="white" stroke="#666666" points="540,-509.88 450.5,-509.88 450.5,-490.62 540,-490.62 540,-509.88"/>
<text text-anchor="middle" x="495.25" y="-496.38" font-family="Helvetica,sans-Serif" font-size="10.00">JAISeqDataUser</text>
</a>
</g>
</g>
<!-- Node5&#45;&gt;Node3 -->
<g id="edge6_Node000003_Node000005" class="edge">
<title>Node5&#45;&gt;Node3</title>
<g id="a_edge6_Node000003_Node000005"><a xlink:title=" ">
<path fill="none" stroke="#63b8ff" d="M551.52,-503.23C646.86,-508.38 839,-518.75 911.98,-522.68"/>
<polygon fill="#63b8ff" stroke="#63b8ff" points="551.8,-499.74 541.62,-502.7 551.42,-506.73 551.8,-499.74"/>
</a>
</g>
</g>
<!-- Node10 -->
<g id="Node000010" class="node">
<title>Node10</title>
<g id="a_Node000010"><a xlink:href="classJAISeCategoryMgr.html" target="_top" xlink:title=" ">
<polygon fill="white" stroke="#666666" points="775.75,-557.88 678,-557.88 678,-538.62 775.75,-538.62 775.75,-557.88"/>
<text text-anchor="middle" x="726.88" y="-544.38" font-family="Helvetica,sans-Serif" font-size="10.00">JAISeCategoryMgr</text>
</a>
</g>
</g>
<!-- Node5&#45;&gt;Node10 -->
<g id="edge12_Node000010_Node000005" class="edge">
<title>Node5&#45;&gt;Node10</title>
<g id="a_edge12_Node000010_Node000005"><a xlink:title=" ">
<path fill="none" stroke="#63b8ff" d="M551.27,-511.75C589.78,-519.8 640.74,-530.45 677.66,-538.17"/>
<polygon fill="#63b8ff" stroke="#63b8ff" points="552.24,-508.38 541.73,-509.76 550.81,-515.23 552.24,-508.38"/>
</a>
</g>
</g>
<!-- Node19 -->
<g id="Node000019" class="node">
<title>Node19</title>
<g id="a_Node000019"><a xlink:href="classJAISeqMgr.html" target="_top" xlink:title=" ">
<polygon fill="white" stroke="#666666" points="759.25,-341.88 694.5,-341.88 694.5,-322.62 759.25,-322.62 759.25,-341.88"/>
<text text-anchor="middle" x="726.88" y="-328.38" font-family="Helvetica,sans-Serif" font-size="10.00">JAISeqMgr</text>
</a>
</g>
</g>
<!-- Node5&#45;&gt;Node19 -->
<g id="edge27_Node000019_Node000005" class="edge">
<title>Node5&#45;&gt;Node19</title>
<g id="a_edge27_Node000019_Node000005"><a xlink:title=" ">
<path fill="none" stroke="#63b8ff" d="M510.06,-481.16C523.82,-463.39 546.45,-437.3 571.5,-421.25 603.84,-400.53 619.81,-412.14 653.25,-393.25 678.48,-378.99 703.35,-355.51 716.42,-342.22"/>
<polygon fill="#63b8ff" stroke="#63b8ff" points="507.32,-478.98 504.11,-489.08 512.92,-483.19 507.32,-478.98"/>
</a>
</g>
</g>
<!-- Node6 -->
<g id="Node000006" class="node">
<title>Node6</title>
<g id="a_Node000006"><a xlink:href="classJAISoundActivity.html" target="_top" xlink:title=" ">
<polygon fill="white" stroke="#666666" points="540.75,-261.88 449.75,-261.88 449.75,-242.62 540.75,-242.62 540.75,-261.88"/>
<text text-anchor="middle" x="495.25" y="-248.38" font-family="Helvetica,sans-Serif" font-size="10.00">JAISoundActivity</text>
</a>
</g>
</g>
<!-- Node6&#45;&gt;Node3 -->
<g id="edge7_Node000003_Node000006" class="edge">
<title>Node6&#45;&gt;Node3</title>
<g id="a_edge7_Node000003_Node000006"><a xlink:title=" ">
<path fill="none" stroke="#63b8ff" d="M552.03,-263.15C558.58,-264.27 565.18,-265.34 571.5,-266.25 637.72,-275.82 819.28,-254.79 871,-297.25 940.49,-354.3 942.39,-478.8 941.42,-514.5"/>
<polygon fill="#63b8ff" stroke="#63b8ff" points="553.06,-259.78 542.61,-261.48 551.84,-266.67 553.06,-259.78"/>
</a>
</g>
</g>
<!-- Node6&#45;&gt;Node19 -->
<g id="edge28_Node000019_Node000006" class="edge">
<title>Node6&#45;&gt;Node19</title>
<g id="a_edge28_Node000019_Node000006"><a xlink:title=" ">
<path fill="none" stroke="#9a32cd" stroke-dasharray="5,2" d="M547.9,-266.92C549.83,-267.96 551.71,-269.07 553.5,-270.25 563.76,-277.02 561.05,-284.77 571.5,-291.25 603.35,-311.01 617.03,-302.35 653.25,-312 666.66,-315.57 681.41,-319.66 694.1,-323.22"/>
<polygon fill="#9a32cd" stroke="#9a32cd" points="549.78,-263.93 539.24,-262.91 546.84,-270.29 549.78,-263.93"/>
</a>
</g>
<text text-anchor="middle" x="612.38" y="-313" font-family="Helvetica,sans-Serif" font-size="10.00" fill="grey"> mActivity</text>
</g>
<!-- Node23 -->
<g id="Node000023" class="node">
<title>Node23</title>
<g id="a_Node000023"><a xlink:href="classJAIStreamMgr.html" target="_top" xlink:title=" ">
<polygon fill="white" stroke="#666666" points="766.38,-128.88 687.38,-128.88 687.38,-109.62 766.38,-109.62 766.38,-128.88"/>
<text text-anchor="middle" x="726.88" y="-115.38" font-family="Helvetica,sans-Serif" font-size="10.00">JAIStreamMgr</text>
</a>
</g>
</g>
<!-- Node6&#45;&gt;Node23 -->
<g id="edge38_Node000023_Node000006" class="edge">
<title>Node6&#45;&gt;Node23</title>
<g id="a_edge38_Node000023_Node000006"><a xlink:title=" ">
<path fill="none" stroke="#9a32cd" stroke-dasharray="5,2" d="M531.42,-237.82C564.01,-223.85 613.32,-201.18 653.25,-176.25 676.36,-161.82 700.81,-141.42 714.62,-129.34"/>
<polygon fill="#9a32cd" stroke="#9a32cd" points="530.28,-234.5 522.44,-241.62 533.01,-240.94 530.28,-234.5"/>
</a>
</g>
<text text-anchor="middle" x="612.38" y="-220" font-family="Helvetica,sans-Serif" font-size="10.00" fill="grey"> mActivity</text>
</g>
<!-- Node7 -->
<g id="Node000007" class="node">
<title>Node7</title>
<g id="a_Node000007"><a xlink:href="structJAIAudience.html" target="_top" xlink:title=" ">
<polygon fill="white" stroke="#666666" points="531,-196.88 459.5,-196.88 459.5,-177.62 531,-177.62 531,-196.88"/>
<text text-anchor="middle" x="495.25" y="-183.38" font-family="Helvetica,sans-Serif" font-size="10.00">JAIAudience</text>
</a>
</g>
</g>
<!-- Node7&#45;&gt;Node3 -->
<g id="edge8_Node000003_Node000007" class="edge">
<title>Node7&#45;&gt;Node3</title>
<g id="a_edge8_Node000003_Node000007"><a xlink:title=" ">
<path fill="none" stroke="#9a32cd" stroke-dasharray="5,2" d="M542.53,-182.64C621.91,-177.53 783.89,-179.77 871,-270.25 888.77,-288.7 929.04,-469.33 938.82,-514.2"/>
<polygon fill="#9a32cd" stroke="#9a32cd" points="542.66,-179.12 532.94,-183.33 543.17,-186.11 542.66,-179.12"/>
</a>
</g>
<text text-anchor="middle" x="726.88" y="-214" font-family="Helvetica,sans-Serif" font-size="10.00" fill="grey"> mAudience</text>
</g>
<!-- Node7&#45;&gt;Node19 -->
<g id="edge29_Node000019_Node000007" class="edge">
<title>Node7&#45;&gt;Node19</title>
<g id="a_edge29_Node000019_Node000007"><a xlink:title=" ">
<path fill="none" stroke="#9a32cd" stroke-dasharray="5,2" d="M522.28,-203.23C536.69,-211.97 554.98,-222.9 571.5,-232.25 607.36,-252.55 618.67,-253.58 653.25,-276 676,-290.75 700.56,-310.71 714.5,-322.46"/>
<polygon fill="#9a32cd" stroke="#9a32cd" points="524.21,-200.31 513.85,-198.1 520.57,-206.29 524.21,-200.31"/>
</a>
</g>
<text text-anchor="middle" x="612.38" y="-277" font-family="Helvetica,sans-Serif" font-size="10.00" fill="grey"> mAudience</text>
</g>
<!-- Node7&#45;&gt;Node23 -->
<g id="edge40_Node000023_Node000007" class="edge">
<title>Node7&#45;&gt;Node23</title>
<g id="a_edge40_Node000023_Node000007"><a xlink:title=" ">
<path fill="none" stroke="#9a32cd" stroke-dasharray="5,2" d="M535.7,-173.57C547.2,-169.7 559.82,-165.58 571.5,-162 577.23,-160.25 645.33,-141.45 689.15,-129.37"/>
<polygon fill="#9a32cd" stroke="#9a32cd" points="534.86,-170.16 526.51,-176.69 537.11,-176.79 534.86,-170.16"/>
</a>
</g>
<text text-anchor="middle" x="612.38" y="-163" font-family="Helvetica,sans-Serif" font-size="10.00" fill="grey"> field_0x54</text>
</g>
<!-- Node8 -->
<g id="Node000008" class="node">
<title>Node8</title>
<g id="a_Node000008"><a xlink:href="structJAISeqDataMgr.html" target="_top" xlink:title=" ">
<polygon fill="white" stroke="#666666" points="537.75,-687.88 452.75,-687.88 452.75,-668.62 537.75,-668.62 537.75,-687.88"/>
<text text-anchor="middle" x="495.25" y="-674.38" font-family="Helvetica,sans-Serif" font-size="10.00">JAISeqDataMgr</text>
</a>
</g>
</g>
<!-- Node8&#45;&gt;Node3 -->
<g id="edge9_Node000003_Node000008" class="edge">
<title>Node8&#45;&gt;Node3</title>
<g id="a_edge9_Node000003_Node000008"><a xlink:title=" ">
<path fill="none" stroke="#9a32cd" stroke-dasharray="5,2" d="M549.59,-682.98C627.67,-687.09 774.28,-683.79 871,-614.25 901.86,-592.06 925.8,-552.53 935.85,-534.15"/>
<polygon fill="#9a32cd" stroke="#9a32cd" points="549.82,-679.49 539.63,-682.39 549.41,-686.48 549.82,-679.49"/>
</a>
</g>
<text text-anchor="middle" x="726.88" y="-681" font-family="Helvetica,sans-Serif" font-size="10.00" fill="grey"> mSeqDataMgr</text>
</g>
<!-- Node8&#45;&gt;Node19 -->
<g id="edge30_Node000019_Node000008" class="edge">
<title>Node8&#45;&gt;Node19</title>
<g id="a_edge30_Node000019_Node000008"><a xlink:title=" ">
<path fill="none" stroke="#9a32cd" stroke-dasharray="5,2" d="M523.71,-661.88C534.48,-654.16 546.03,-644.04 553.5,-632.25 571.89,-603.19 547.35,-581.48 571.5,-557 597.82,-530.31 625.53,-561.49 653.25,-536.25 713.01,-481.83 723.62,-374.93 725.48,-342.08"/>
<polygon fill="#9a32cd" stroke="#9a32cd" points="521.78,-658.96 515.42,-667.44 525.68,-664.78 521.78,-658.96"/>
</a>
</g>
<text text-anchor="middle" x="612.38" y="-558" font-family="Helvetica,sans-Serif" font-size="10.00" fill="grey"> seqDataMgr_</text>
</g>
<!-- Node9 -->
<g id="Node000009" class="node">
<title>Node9</title>
<g id="a_Node000009"><a xlink:href="structJAISoundStrategyMgr.html" target="_top" xlink:title=" ">
<polygon fill="white" stroke="#666666" points="782.5,-606.5 671.25,-606.5 671.25,-576 782.5,-576 782.5,-606.5"/>
<text text-anchor="start" x="679.25" y="-593" font-family="Helvetica,sans-Serif" font-size="10.00">JAISoundStrategyMgr</text>
<text text-anchor="middle" x="726.88" y="-581.75" font-family="Helvetica,sans-Serif" font-size="10.00">&lt; JAISe &gt;</text>
</a>
</g>
</g>
<!-- Node9&#45;&gt;Node3 -->
<g id="edge10_Node000003_Node000009" class="edge">
<title>Node9&#45;&gt;Node3</title>
<g id="a_edge10_Node000003_Node000009"><a xlink:title=" ">
<path fill="none" stroke="#9a32cd" stroke-dasharray="5,2" d="M793.81,-576.43C818.29,-570.35 846.15,-562.73 871,-554.25 887.77,-548.53 906.16,-540.58 919.88,-534.3"/>
<polygon fill="#9a32cd" stroke="#9a32cd" points="793.17,-572.98 784.29,-578.76 794.84,-579.78 793.17,-572.98"/>
</a>
</g>
<text text-anchor="middle" x="835.75" y="-576" font-family="Helvetica,sans-Serif" font-size="10.00" fill="grey"> mStrategyMgr</text>
</g>
<!-- Node10&#45;&gt;Node3 -->
<g id="edge11_Node000003_Node000010" class="edge">
<title>Node10&#45;&gt;Node3</title>
<g id="a_edge11_Node000003_Node000010"><a xlink:title=" ">
<path fill="none" stroke="#9a32cd" stroke-dasharray="5,2" d="M787.62,-541.52C828.17,-536.96 880.02,-531.12 911.85,-527.53"/>
<polygon fill="#9a32cd" stroke="#9a32cd" points="787.29,-538.04 777.74,-542.63 788.07,-544.99 787.29,-538.04"/>
</a>
</g>
<text text-anchor="middle" x="835.75" y="-541" font-family="Helvetica,sans-Serif" font-size="10.00" fill="grey"> mCategoryMgrs</text>
</g>
<!-- Node11 -->
<g id="Node000011" class="node">
<title>Node11</title>
<g id="a_Node000011"><a xlink:href="structJASNonCopyable.html" target="_top" xlink:title=" ">
<polygon fill="white" stroke="#666666" points="541.5,-736.88 449,-736.88 449,-717.62 541.5,-717.62 541.5,-736.88"/>
<text text-anchor="middle" x="495.25" y="-723.38" font-family="Helvetica,sans-Serif" font-size="10.00">JASNonCopyable</text>
</a>
</g>
</g>
<!-- Node11&#45;&gt;Node10 -->
<g id="edge13_Node000010_Node000011" class="edge">
<title>Node11&#45;&gt;Node10</title>
<g id="a_edge13_Node000010_Node000011"><a xlink:title=" ">
<path fill="none" stroke="#9a32cd" stroke-dasharray="5,2" d="M527.15,-712.04C535.81,-707.51 545.14,-702.38 553.5,-697.25 599.87,-668.78 621.45,-670.41 653.25,-626.25 669.27,-604 652.24,-587.01 671.25,-567.25 674.73,-563.63 678.94,-560.7 683.45,-558.33"/>
<polygon fill="#9a32cd" stroke="#9a32cd" points="525.68,-708.86 518.37,-716.53 528.87,-715.09 525.68,-708.86"/>
</a>
</g>
<text text-anchor="middle" x="612.38" y="-688" font-family="Helvetica,sans-Serif" font-size="10.00" fill="grey"> field_0x4</text>
</g>
<!-- Node12 -->
<g id="Node000012" class="node">
<title>Node12</title>
<g id="a_Node000012"><a xlink:href="structJAISoundParamsMove.html" target="_top" xlink:title=" ">
<polygon fill="white" stroke="#666666" points="553.5,-622.88 437,-622.88 437,-603.62 553.5,-603.62 553.5,-622.88"/>
<text text-anchor="middle" x="495.25" y="-609.38" font-family="Helvetica,sans-Serif" font-size="10.00">JAISoundParamsMove</text>
</a>
</g>
</g>
<!-- Node12&#45;&gt;Node3 -->
<g id="edge23_Node000003_Node000012" class="edge">
<title>Node12&#45;&gt;Node3</title>
<g id="a_edge23_Node000003_Node000012"><a xlink:title=" ">
<path fill="none" stroke="#9a32cd" stroke-dasharray="5,2" d="M559.04,-624.92C563.25,-625.45 567.43,-625.9 571.5,-626.25 665.06,-634.27 690.2,-632.55 782.5,-615.25 822.79,-607.7 835.36,-609.52 871,-589.25 896.95,-574.49 921.01,-548.35 933.02,-534.13"/>
<polygon fill="#9a32cd" stroke="#9a32cd" points="559.8,-621.49 549.41,-623.58 558.83,-628.42 559.8,-621.49"/>
</a>
</g>
<text text-anchor="middle" x="726.88" y="-632" font-family="Helvetica,sans-Serif" font-size="10.00" fill="grey"> mParams</text>
</g>
<!-- Node12&#45;&gt;Node10 -->
<g id="edge14_Node000010_Node000012" class="edge">
<title>Node12&#45;&gt;Node10</title>
<g id="a_edge14_Node000010_Node000012"><a xlink:title=" ">
<path fill="none" stroke="#9a32cd" stroke-dasharray="5,2" d="M565.07,-612.62C593.83,-609.82 626.67,-603.12 653.25,-588.25 663.98,-582.25 661.09,-574.18 671.25,-567.25 676.48,-563.69 682.44,-560.73 688.46,-558.29"/>
<polygon fill="#9a32cd" stroke="#9a32cd" points="565.04,-609.11 555.36,-613.42 565.62,-616.09 565.04,-609.11"/>
</a>
</g>
<text text-anchor="middle" x="612.38" y="-613" font-family="Helvetica,sans-Serif" font-size="10.00" fill="grey"> mParams</text>
</g>
<!-- Node12&#45;&gt;Node19 -->
<g id="edge32_Node000019_Node000012" class="edge">
<title>Node12&#45;&gt;Node19</title>
<g id="a_edge32_Node000019_Node000012"><a xlink:title=" ">
<path fill="none" stroke="#9a32cd" stroke-dasharray="5,2" d="M534.38,-597.99C541.49,-593.75 548.31,-588.55 553.5,-582.25 570.47,-561.67 557.01,-547.4 571.5,-525 597.91,-484.16 622.14,-489.64 653.25,-452.25 684.09,-415.18 710.67,-363.67 721.13,-342.23"/>
<polygon fill="#9a32cd" stroke="#9a32cd" points="533.15,-594.68 525.96,-602.46 536.44,-600.86 533.15,-594.68"/>
</a>
</g>
<text text-anchor="middle" x="612.38" y="-526" font-family="Helvetica,sans-Serif" font-size="10.00" fill="grey"> mMove</text>
</g>
<!-- Node12&#45;&gt;Node23 -->
<g id="edge39_Node000023_Node000012" class="edge">
<title>Node12&#45;&gt;Node23</title>
<g id="a_edge39_Node000023_Node000012"><a xlink:title=" ">
<path fill="none" stroke="#9a32cd" stroke-dasharray="5,2" d="M536.74,-597.77C543.23,-593.63 549.21,-588.52 553.5,-582.25 589.72,-529.28 534.9,-491.71 571.5,-439 594.89,-405.32 630.49,-430.35 653.25,-396.25 678.51,-358.4 655,-234.76 671.25,-192.25 681.09,-166.52 702.79,-142.05 715.68,-129"/>
<polygon fill="#9a32cd" stroke="#9a32cd" points="535.4,-594.51 528.34,-602.41 538.78,-600.64 535.4,-594.51"/>
</a>
</g>
<text text-anchor="middle" x="612.38" y="-440" font-family="Helvetica,sans-Serif" font-size="10.00" fill="grey"> mParams</text>
</g>
<!-- Node13 -->
<g id="Node000013" class="node">
<title>Node13</title>
<g id="a_Node000013"><a xlink:href="structJASSoundParams.html" target="_top" xlink:title=" ">
<polygon fill="white" stroke="#666666" points="328.25,-639.88 232,-639.88 232,-620.62 328.25,-620.62 328.25,-639.88"/>
<text text-anchor="middle" x="280.12" y="-626.38" font-family="Helvetica,sans-Serif" font-size="10.00">JASSoundParams</text>
</a>
</g>
</g>
<!-- Node13&#45;&gt;Node12 -->
<g id="edge15_Node000012_Node000013" class="edge">
<title>Node13&#45;&gt;Node12</title>
<g id="a_edge15_Node000012_Node000013"><a xlink:title=" ">
<path fill="none" stroke="#9a32cd" stroke-dasharray="5,2" d="M339.9,-625.56C370.04,-623.16 406.61,-620.24 436.59,-617.85"/>
<polygon fill="#9a32cd" stroke="#9a32cd" points="339.89,-622.05 330.2,-626.34 340.44,-629.03 339.89,-622.05"/>
</a>
</g>
<text text-anchor="middle" x="392.38" y="-625" font-family="Helvetica,sans-Serif" font-size="10.00" fill="grey"> mParams</text>
</g>
<!-- Node14 -->
<g id="Node000014" class="node">
<title>Node14</title>
<g id="a_Node000014"><a xlink:href="structJAISoundParamsTransition.html" target="_top" xlink:title=" ">
<polygon fill="white" stroke="#666666" points="347.75,-602.88 212.5,-602.88 212.5,-583.62 347.75,-583.62 347.75,-602.88"/>
<text text-anchor="middle" x="280.12" y="-589.38" font-family="Helvetica,sans-Serif" font-size="10.00">JAISoundParamsTransition</text>
</a>
</g>
</g>
<!-- Node14&#45;&gt;Node12 -->
<g id="edge16_Node000012_Node000014" class="edge">
<title>Node14&#45;&gt;Node12</title>
<g id="a_edge16_Node000012_Node000014"><a xlink:title=" ">
<path fill="none" stroke="#9a32cd" stroke-dasharray="5,2" d="M359.44,-598.75C378.91,-600.28 399.73,-602.07 419,-604 424.76,-604.58 430.77,-605.23 436.76,-605.92"/>
<polygon fill="#9a32cd" stroke="#9a32cd" points="359.9,-595.27 349.66,-597.99 359.36,-602.25 359.9,-595.27"/>
</a>
</g>
<text text-anchor="middle" x="392.38" y="-605" font-family="Helvetica,sans-Serif" font-size="10.00" fill="grey"> mTransition</text>
</g>
<!-- Node15 -->
<g id="Node000015" class="node">
<title>Node15</title>
<g id="a_Node000015"><a xlink:href="structJAISoundParamsTransition_1_1TTransition.html" target="_top" xlink:title=" ">
<polygon fill="white" stroke="#666666" points="135.25,-608.5 0,-608.5 0,-578 135.25,-578 135.25,-608.5"/>
<text text-anchor="start" x="8" y="-595" font-family="Helvetica,sans-Serif" font-size="10.00">JAISoundParamsTransition</text>
<text text-anchor="middle" x="67.62" y="-583.75" font-family="Helvetica,sans-Serif" font-size="10.00">::TTransition</text>
</a>
</g>
</g>
<!-- Node15&#45;&gt;Node14 -->
<g id="edge17_Node000014_Node000015" class="edge">
<title>Node15&#45;&gt;Node14</title>
<g id="a_edge17_Node000014_Node000015"><a xlink:title=" ">
<path fill="none" stroke="#9a32cd" stroke-dasharray="5,2" d="M146.89,-593.25C168.3,-593.25 191.32,-593.25 212.05,-593.25"/>
<polygon fill="#9a32cd" stroke="#9a32cd" points="147.03,-589.75 137.03,-593.25 147.03,-596.75 147.03,-589.75"/>
</a>
</g>
<text text-anchor="middle" x="173.88" y="-640" font-family="Helvetica,sans-Serif" font-size="10.00" fill="grey"> mDolby</text>
<text text-anchor="middle" x="173.88" y="-628.75" font-family="Helvetica,sans-Serif" font-size="10.00" fill="grey">mFxMix</text>
<text text-anchor="middle" x="173.88" y="-617.5" font-family="Helvetica,sans-Serif" font-size="10.00" fill="grey">mPan</text>
<text text-anchor="middle" x="173.88" y="-606.25" font-family="Helvetica,sans-Serif" font-size="10.00" fill="grey">mPitch</text>
<text text-anchor="middle" x="173.88" y="-595" font-family="Helvetica,sans-Serif" font-size="10.00" fill="grey">mVolume</text>
</g>
<!-- Node16 -->
<g id="Node000016" class="node">
<title>Node16</title>
<g id="a_Node000016"><a xlink:href="classJSUList.html" target="_top" xlink:title=" ">
<polygon fill="white" stroke="#666666" points="543,-572.88 447.5,-572.88 447.5,-553.62 543,-553.62 543,-572.88"/>
<text text-anchor="middle" x="495.25" y="-559.38" font-family="Helvetica,sans-Serif" font-size="10.00">JSUList&lt; JAISe &gt;</text>
</a>
</g>
</g>
<!-- Node16&#45;&gt;Node10 -->
<g id="edge18_Node000010_Node000016" class="edge">
<title>Node16&#45;&gt;Node10</title>
<g id="a_edge18_Node000010_Node000016"><a xlink:title=" ">
<path fill="none" stroke="#9a32cd" stroke-dasharray="5,2" d="M554.63,-571.14C584.3,-573.81 620.85,-575.05 653.25,-570.25 668.89,-567.93 685.82,-562.95 699.4,-558.32"/>
<polygon fill="#9a32cd" stroke="#9a32cd" points="555.01,-567.66 544.71,-570.16 554.32,-574.62 555.01,-567.66"/>
</a>
</g>
<text text-anchor="middle" x="612.38" y="-575" font-family="Helvetica,sans-Serif" font-size="10.00" fill="grey"> mSeList</text>
</g>
<!-- Node17 -->
<g id="Node000017" class="node">
<title>Node17</title>
<g id="a_Node000017"><a xlink:href="classJSUPtrList.html" target="_top" xlink:title=" ">
<polygon fill="white" stroke="#666666" points="312.5,-331.88 247.75,-331.88 247.75,-312.62 312.5,-312.62 312.5,-331.88"/>
<text text-anchor="middle" x="280.12" y="-318.38" font-family="Helvetica,sans-Serif" font-size="10.00">JSUPtrList</text>
</a>
</g>
</g>
<!-- Node17&#45;&gt;Node16 -->
<g id="edge19_Node000016_Node000017" class="edge">
<title>Node17&#45;&gt;Node16</title>
<g id="a_edge19_Node000016_Node000017"><a xlink:title=" ">
<path fill="none" stroke="#63b8ff" d="M293.93,-341.46C318.93,-378.23 377.08,-460.17 437,-519.25 450.21,-532.28 467.28,-544.95 479.33,-553.32"/>
<polygon fill="#63b8ff" stroke="#63b8ff" points="296.86,-339.55 288.37,-333.21 291.05,-343.46 296.86,-339.55"/>
</a>
</g>
</g>
<!-- Node18 -->
<g id="Node000018" class="node">
<title>Node18</title>
<g id="a_Node000018"><a xlink:href="classJSUPtrLink.html" target="_top" xlink:title=" ">
<polygon fill="white" stroke="#666666" points="528.75,-335.88 461.75,-335.88 461.75,-316.62 528.75,-316.62 528.75,-335.88"/>
<text text-anchor="middle" x="495.25" y="-322.38" font-family="Helvetica,sans-Serif" font-size="10.00">JSUPtrLink</text>
</a>
</g>
</g>
<!-- Node17&#45;&gt;Node18 -->
<g id="edge21_Node000018_Node000017" class="edge">
<title>Node17&#45;&gt;Node18</title>
<g id="a_edge21_Node000018_Node000017"><a xlink:title=" ">
<path fill="none" stroke="#9a32cd" stroke-dasharray="5,2" d="M320.16,-335.75C334.33,-340.01 350.59,-344.14 365.75,-346.25 389.19,-349.51 395.53,-349.32 419,-346.25 433.88,-344.31 450,-340.29 463.49,-336.36"/>
<polygon fill="#9a32cd" stroke="#9a32cd" points="321.33,-332.45 310.74,-332.81 319.24,-339.14 321.33,-332.45"/>
</a>
</g>
<text text-anchor="middle" x="392.38" y="-350" font-family="Helvetica,sans-Serif" font-size="10.00" fill="grey"> mList</text>
</g>
<!-- Node22 -->
<g id="Node000022" class="node">
<title>Node22</title>
<g id="a_Node000022"><a xlink:href="classJSUList.html" target="_top" xlink:title=" ">
<polygon fill="white" stroke="#666666" points="545.62,-298.88 444.88,-298.88 444.88,-279.62 545.62,-279.62 545.62,-298.88"/>
<text text-anchor="middle" x="495.25" y="-285.38" font-family="Helvetica,sans-Serif" font-size="10.00">JSUList&lt; JAISeq &gt;</text>
</a>
</g>
</g>
<!-- Node17&#45;&gt;Node22 -->
<g id="edge34_Node000022_Node000017" class="edge">
<title>Node17&#45;&gt;Node22</title>
<g id="a_edge34_Node000022_Node000017"><a xlink:title=" ">
<path fill="none" stroke="#63b8ff" d="M323.79,-315.64C358.6,-310.25 407.85,-302.63 444.47,-296.96"/>
<polygon fill="#63b8ff" stroke="#63b8ff" points="323.41,-312.16 314.07,-317.15 324.49,-319.08 323.41,-312.16"/>
</a>
</g>
</g>
<!-- Node25 -->
<g id="Node000025" class="node">
<title>Node25</title>
<g id="a_Node000025"><a xlink:href="classJSUList.html" target="_top" xlink:title=" ">
<polygon fill="white" stroke="#666666" points="552.75,-151.88 437.75,-151.88 437.75,-132.62 552.75,-132.62 552.75,-151.88"/>
<text text-anchor="middle" x="495.25" y="-138.38" font-family="Helvetica,sans-Serif" font-size="10.00">JSUList&lt; JAIStream &gt;</text>
</a>
</g>
</g>
<!-- Node17&#45;&gt;Node25 -->
<g id="edge42_Node000025_Node000017" class="edge">
<title>Node17&#45;&gt;Node25</title>
<g id="a_edge42_Node000025_Node000017"><a xlink:title=" ">
<path fill="none" stroke="#63b8ff" d="M295.97,-303.81C321.88,-272.57 378.22,-208.71 437,-168.25 446.17,-161.94 457.12,-156.53 466.98,-152.3"/>
<polygon fill="#63b8ff" stroke="#63b8ff" points="293.53,-301.27 289.9,-311.22 298.95,-305.7 293.53,-301.27"/>
</a>
</g>
</g>
<!-- Node18&#45;&gt;Node17 -->
<g id="edge20_Node000017_Node000018" class="edge">
<title>Node18&#45;&gt;Node17</title>
<g id="a_edge20_Node000017_Node000018"><a xlink:title=" ">
<path fill="none" stroke="#9a32cd" stroke-dasharray="5,2" d="M450.09,-324.62C439.88,-324.29 429.06,-323.97 419,-323.75 382.62,-322.95 340.84,-322.57 312.89,-322.39"/>
<polygon fill="#9a32cd" stroke="#9a32cd" points="449.66,-328.11 459.78,-324.94 449.9,-321.11 449.66,-328.11"/>
</a>
</g>
<text text-anchor="middle" x="392.38" y="-336.25" font-family="Helvetica,sans-Serif" font-size="10.00" fill="grey"> mHead</text>
<text text-anchor="middle" x="392.38" y="-325" font-family="Helvetica,sans-Serif" font-size="10.00" fill="grey">mTail</text>
</g>
<!-- Node18&#45;&gt;Node18 -->
<g id="edge22_Node000018_Node000018" class="edge">
<title>Node18&#45;&gt;Node18</title>
<g id="a_edge22_Node000018_Node000018"><a xlink:title=" ">
<path fill="none" stroke="#9a32cd" stroke-dasharray="5,2" d="M476.99,-347.28C479.27,-351.15 485.36,-353.88 495.25,-353.88 513.33,-353.88 518.7,-344.77 511.36,-336.16"/>
<polygon fill="#9a32cd" stroke="#9a32cd" points="480.39,-348.13 478.86,-337.65 473.52,-346.8 480.39,-348.13"/>
</a>
</g>
<text text-anchor="middle" x="495.25" y="-366.88" font-family="Helvetica,sans-Serif" font-size="10.00" fill="grey"> mNext</text>
<text text-anchor="middle" x="495.25" y="-355.62" font-family="Helvetica,sans-Serif" font-size="10.00" fill="grey">mPrev</text>
</g>
<!-- Node19&#45;&gt;Node1 -->
<g id="edge24_Node000001_Node000019" class="edge">
<title>Node19&#45;&gt;Node1</title>
<g id="a_edge24_Node000001_Node000019"><a xlink:title=" ">
<path fill="none" stroke="#9a32cd" stroke-dasharray="5,2" d="M750.29,-315.37C764.28,-305.29 782.91,-292.66 800.5,-283.25 900.76,-229.63 1033.68,-200.05 1095.98,-188.3"/>
<polygon fill="#9a32cd" stroke="#9a32cd" points="748.22,-312.55 742.23,-321.28 752.36,-318.19 748.22,-312.55"/>
</a>
</g>
<text text-anchor="middle" x="942" y="-244" font-family="Helvetica,sans-Serif" font-size="10.00" fill="grey"> mSeqMgr</text>
</g>
<!-- Node20 -->
<g id="Node000020" class="node">
<title>Node20</title>
<g id="a_Node000020"><a xlink:href="classJASGlobalInstance.html" target="_top" xlink:title=" ">
<polygon fill="white" stroke="#666666" points="995,-297.5 889,-297.5 889,-267 995,-267 995,-297.5"/>
<text text-anchor="start" x="897" y="-284" font-family="Helvetica,sans-Serif" font-size="10.00">JASGlobalInstance&lt;</text>
<text text-anchor="middle" x="942" y="-272.75" font-family="Helvetica,sans-Serif" font-size="10.00"> JAISeqMgr &gt;</text>
</a>
</g>
</g>
<!-- Node19&#45;&gt;Node20 -->
<g id="edge26_Node000020_Node000019" class="edge">
<title>Node19&#45;&gt;Node20</title>
<g id="a_edge26_Node000020_Node000019"><a xlink:title=" ">
<path fill="none" stroke="#9a32cd" stroke-dasharray="5,2" d="M770.73,-323.57C799.23,-317.65 837.46,-309.43 871,-301.25 876.75,-299.85 882.75,-298.32 888.71,-296.76"/>
<polygon fill="#9a32cd" stroke="#9a32cd" points="770.1,-320.13 761.02,-325.58 771.52,-326.98 770.1,-320.13"/>
</a>
</g>
<text text-anchor="middle" x="835.75" y="-318" font-family="Helvetica,sans-Serif" font-size="10.00" fill="grey"> sInstance</text>
</g>
<!-- Node20&#45;&gt;Node19 -->
<g id="edge25_Node000019_Node000020" class="edge">
<title>Node20&#45;&gt;Node19</title>
<g id="a_edge25_Node000019_Node000020"><a xlink:title=" ">
<path fill="none" stroke="#63b8ff" d="M877.34,-287.2C853.01,-290.04 825.18,-294.45 800.5,-301.25 781.86,-306.39 761.73,-315.27 747.39,-322.21"/>
<polygon fill="#63b8ff" stroke="#63b8ff" points="877.55,-290.69 887.11,-286.13 876.79,-283.73 877.55,-290.69"/>
</a>
</g>
</g>
<!-- Node21 -->
<g id="Node000021" class="node">
<title>Node21</title>
<g id="a_Node000021"><a xlink:href="structJAISoundStrategyMgr.html" target="_top" xlink:title=" ">
<polygon fill="white" stroke="#666666" points="550.88,-424.5 439.62,-424.5 439.62,-394 550.88,-394 550.88,-424.5"/>
<text text-anchor="start" x="447.62" y="-411" font-family="Helvetica,sans-Serif" font-size="10.00">JAISoundStrategyMgr</text>
<text text-anchor="middle" x="495.25" y="-399.75" font-family="Helvetica,sans-Serif" font-size="10.00">&lt; JAISeq &gt;</text>
</a>
</g>
</g>
<!-- Node21&#45;&gt;Node19 -->
<g id="edge31_Node000019_Node000021" class="edge">
<title>Node21&#45;&gt;Node19</title>
<g id="a_edge31_Node000019_Node000021"><a xlink:title=" ">
<path fill="none" stroke="#9a32cd" stroke-dasharray="5,2" d="M549.44,-389.72C556.83,-387.09 564.35,-384.45 571.5,-382 613.73,-367.55 662.84,-351.93 694.13,-342.12"/>
<polygon fill="#9a32cd" stroke="#9a32cd" points="548.39,-386.38 540.16,-393.05 550.76,-392.97 548.39,-386.38"/>
</a>
</g>
<text text-anchor="middle" x="612.38" y="-383" font-family="Helvetica,sans-Serif" font-size="10.00" fill="grey"> field_0x10</text>
</g>
<!-- Node22&#45;&gt;Node19 -->
<g id="edge33_Node000019_Node000022" class="edge">
<title>Node22&#45;&gt;Node19</title>
<g id="a_edge33_Node000019_Node000022"><a xlink:title=" ">
<path fill="none" stroke="#9a32cd" stroke-dasharray="5,2" d="M547.2,-303.8C549.37,-304.88 551.48,-306.03 553.5,-307.25 563.17,-313.12 561.15,-320.68 571.5,-325.25 611.02,-342.68 661.89,-340.95 694.2,-337.27"/>
<polygon fill="#9a32cd" stroke="#9a32cd" points="548.7,-300.64 538.13,-299.88 545.92,-307.06 548.7,-300.64"/>
</a>
</g>
<text text-anchor="middle" x="612.38" y="-341" font-family="Helvetica,sans-Serif" font-size="10.00" fill="grey"> mSeqList</text>
</g>
<!-- Node23&#45;&gt;Node1 -->
<g id="edge35_Node000001_Node000023" class="edge">
<title>Node23&#45;&gt;Node1</title>
<g id="a_edge35_Node000001_Node000023"><a xlink:title=" ">
<path fill="none" stroke="#9a32cd" stroke-dasharray="5,2" d="M761.13,-104.98C812.53,-85.03 913.8,-54.09 995,-81 1050.6,-99.43 1101.94,-150.39 1122.05,-172.17"/>
<polygon fill="#9a32cd" stroke="#9a32cd" points="760.05,-101.65 752.06,-108.61 762.64,-108.15 760.05,-101.65"/>
</a>
</g>
<text text-anchor="middle" x="942" y="-83" font-family="Helvetica,sans-Serif" font-size="10.00" fill="grey"> mStreamMgr</text>
</g>
<!-- Node24 -->
<g id="Node000024" class="node">
<title>Node24</title>
<g id="a_Node000024"><a xlink:href="classJASGlobalInstance.html" target="_top" xlink:title=" ">
<polygon fill="white" stroke="#666666" points="995,-131.5 889,-131.5 889,-101 995,-101 995,-131.5"/>
<text text-anchor="start" x="897" y="-118" font-family="Helvetica,sans-Serif" font-size="10.00">JASGlobalInstance&lt;</text>
<text text-anchor="middle" x="942" y="-106.75" font-family="Helvetica,sans-Serif" font-size="10.00"> JAIStreamMgr &gt;</text>
</a>
</g>
</g>
<!-- Node23&#45;&gt;Node24 -->
<g id="edge37_Node000024_Node000023" class="edge">
<title>Node23&#45;&gt;Node24</title>
<g id="a_edge37_Node000024_Node000023"><a xlink:title=" ">
<path fill="none" stroke="#9a32cd" stroke-dasharray="5,2" d="M777.87,-111.26C785.44,-110.32 793.16,-109.52 800.5,-109 831.76,-106.81 839.71,-107.38 871,-109 876.73,-109.3 882.72,-109.73 888.68,-110.24"/>
<polygon fill="#9a32cd" stroke="#9a32cd" points="777.54,-107.77 768.09,-112.56 778.46,-114.71 777.54,-107.77"/>
</a>
</g>
<text text-anchor="middle" x="835.75" y="-111" font-family="Helvetica,sans-Serif" font-size="10.00" fill="grey"> sInstance</text>
</g>
<!-- Node24&#45;&gt;Node23 -->
<g id="edge36_Node000023_Node000024" class="edge">
<title>Node24&#45;&gt;Node23</title>
<g id="a_edge36_Node000023_Node000024"><a xlink:title=" ">
<path fill="none" stroke="#63b8ff" d="M877.26,-121.94C875.15,-122.06 873.06,-122.16 871,-122.25 835.74,-123.76 795.56,-122.67 766.77,-121.4"/>
<polygon fill="#63b8ff" stroke="#63b8ff" points="877.39,-125.44 887.15,-121.32 876.95,-118.46 877.39,-125.44"/>
</a>
</g>
</g>
<!-- Node25&#45;&gt;Node23 -->
<g id="edge41_Node000023_Node000025" class="edge">
<title>Node25&#45;&gt;Node23</title>
<g id="a_edge41_Node000023_Node000025"><a xlink:title=" ">
<path fill="none" stroke="#9a32cd" stroke-dasharray="5,2" d="M555.38,-130.3C560.81,-129.43 566.25,-128.64 571.5,-128 610.67,-123.2 655.76,-121.03 687.05,-120.05"/>
<polygon fill="#9a32cd" stroke="#9a32cd" points="555.04,-126.81 545.77,-131.93 556.21,-133.71 555.04,-126.81"/>
</a>
</g>
<text text-anchor="middle" x="612.38" y="-129" font-family="Helvetica,sans-Serif" font-size="10.00" fill="grey"> mStreamList</text>
</g>
<!-- Node26 -->
<g id="Node000026" class="node">
<title>Node26</title>
<g id="a_Node000026"><a xlink:href="structJAIStreamDataMgr.html" target="_top" xlink:title=" ">
<polygon fill="white" stroke="#666666" points="544.88,-104.88 445.62,-104.88 445.62,-85.62 544.88,-85.62 544.88,-104.88"/>
<text text-anchor="middle" x="495.25" y="-91.38" font-family="Helvetica,sans-Serif" font-size="10.00">JAIStreamDataMgr</text>
</a>
</g>
</g>
<!-- Node26&#45;&gt;Node23 -->
<g id="edge43_Node000023_Node000026" class="edge">
<title>Node26&#45;&gt;Node23</title>
<g id="a_edge43_Node000023_Node000026"><a xlink:title=" ">
<path fill="none" stroke="#9a32cd" stroke-dasharray="5,2" d="M556.46,-98.45C585.73,-100.34 621.39,-103.13 653.25,-107 664.29,-108.34 676.22,-110.19 687.15,-112.04"/>
<polygon fill="#9a32cd" stroke="#9a32cd" points="556.87,-94.97 546.67,-97.84 556.43,-101.95 556.87,-94.97"/>
</a>
</g>
<text text-anchor="middle" x="612.38" y="-109" font-family="Helvetica,sans-Serif" font-size="10.00" fill="grey"> streamDataMgr_</text>
</g>
<!-- Node27 -->
<g id="Node000027" class="node">
<title>Node27</title>
<g id="a_Node000027"><a xlink:href="structJAIStreamAramMgr.html" target="_top" xlink:title=" ">
<polygon fill="white" stroke="#666666" points="546.38,-67.88 444.12,-67.88 444.12,-48.62 546.38,-48.62 546.38,-67.88"/>
<text text-anchor="middle" x="495.25" y="-54.38" font-family="Helvetica,sans-Serif" font-size="10.00">JAIStreamAramMgr</text>
</a>
</g>
</g>
<!-- Node27&#45;&gt;Node23 -->
<g id="edge44_Node000023_Node000027" class="edge">
<title>Node27&#45;&gt;Node23</title>
<g id="a_edge44_Node000023_Node000027"><a xlink:title=" ">
<path fill="none" stroke="#9a32cd" stroke-dasharray="5,2" d="M557.9,-64.81C587.23,-68.92 622.51,-75.33 653.25,-85 672.8,-91.15 693.84,-101.53 708.22,-109.25"/>
<polygon fill="#9a32cd" stroke="#9a32cd" points="558.44,-61.35 548.07,-63.49 557.51,-68.29 558.44,-61.35"/>
</a>
</g>
<text text-anchor="middle" x="612.38" y="-87" font-family="Helvetica,sans-Serif" font-size="10.00" fill="grey"> mStreamAramMgr</text>
</g>
<!-- Node28 -->
<g id="Node000028" class="node">
<title>Node28</title>
<g id="a_Node000028"><a xlink:href="structJAISoundStrategyMgr.html" target="_top" xlink:title=" ">
<polygon fill="white" stroke="#666666" points="550.88,-30.5 439.62,-30.5 439.62,0 550.88,0 550.88,-30.5"/>
<text text-anchor="start" x="447.62" y="-17" font-family="Helvetica,sans-Serif" font-size="10.00">JAISoundStrategyMgr</text>
<text text-anchor="middle" x="495.25" y="-5.75" font-family="Helvetica,sans-Serif" font-size="10.00">&lt; JAIStream &gt;</text>
</a>
</g>
</g>
<!-- Node28&#45;&gt;Node23 -->
<g id="edge45_Node000023_Node000028" class="edge">
<title>Node28&#45;&gt;Node23</title>
<g id="a_edge45_Node000023_Node000028"><a xlink:title=" ">
<path fill="none" stroke="#9a32cd" stroke-dasharray="5,2" d="M562.34,-22.94C591.45,-28.26 625.32,-37.16 653.25,-52 680.87,-66.68 705.92,-94.48 718.1,-109.32"/>
<polygon fill="#9a32cd" stroke="#9a32cd" points="562.96,-19.5 552.51,-21.27 561.78,-26.4 562.96,-19.5"/>
</a>
</g>
<text text-anchor="middle" x="612.38" y="-54" font-family="Helvetica,sans-Serif" font-size="10.00" fill="grey"> field_0x6c</text>
</g>
<!-- Node29 -->
<g id="Node000029" class="node">
<title>Node29</title>
<g id="a_Node000029"><a xlink:href="structJAISoundID.html" target="_top" xlink:title=" ">
<polygon fill="white" stroke="#666666" points="976.25,-168.88 907.75,-168.88 907.75,-149.62 976.25,-149.62 976.25,-168.88"/>
<text text-anchor="middle" x="942" y="-155.38" font-family="Helvetica,sans-Serif" font-size="10.00">JAISoundID</text>
</a>
</g>
</g>
<!-- Node29&#45;&gt;Node1 -->
<g id="edge46_Node000001_Node000029" class="edge">
<title>Node29&#45;&gt;Node1</title>
<g id="a_edge46_Node000001_Node000029"><a xlink:title=" ">
<path fill="none" stroke="#9a32cd" stroke-dasharray="5,2" d="M987.79,-164.73C1020.85,-168.77 1065.22,-174.2 1095.77,-177.94"/>
<polygon fill="#9a32cd" stroke="#9a32cd" points="988.46,-161.29 978.11,-163.55 987.61,-168.23 988.46,-161.29"/>
</a>
</g>
<text text-anchor="middle" x="1037" y="-175" font-family="Helvetica,sans-Serif" font-size="10.00" fill="grey"> mSoundID</text>
</g>
</g>
</svg>
