<?xml version="1.0" encoding="UTF-8" standalone="no"?>
<!DOCTYPE svg PUBLIC "-//W3C//DTD SVG 1.1//EN"
 "http://www.w3.org/Graphics/SVG/1.1/DTD/svg11.dtd">
<!-- Generated by graphviz version 9.0.0 (20230911.1827)
 -->
<!-- Title: Z2SoundMgr Pages: 1 -->
<svg width="1367pt" height="715pt"
 viewBox="0.00 0.00 1366.50 714.88" xmlns="http://www.w3.org/2000/svg" xmlns:xlink="http://www.w3.org/1999/xlink">
<g id="graph0" class="graph" transform="scale(1 1) rotate(0) translate(4 710.88)">
<title>Z2SoundMgr</title>
<!-- Node1 -->
<g id="Node000001" class="node">
<title>Node1</title>
<g id="a_Node000001"><a xlink:title=" ">
<polygon fill="#999999" stroke="#666666" points="1154.25,-292.88 1082.75,-292.88 1082.75,-273.62 1154.25,-273.62 1154.25,-292.88"/>
<text text-anchor="middle" x="1118.5" y="-279.38" font-family="Helvetica,sans-Serif" font-size="10.00">Z2SoundMgr</text>
</a>
</g>
</g>
<!-- Node2 -->
<g id="Node000002" class="node">
<title>Node2</title>
<g id="a_Node000002"><a xlink:href="classJASGlobalInstance.html" target="_top" xlink:title=" ">
<polygon fill="white" stroke="#666666" points="1358.5,-298.5 1252.5,-298.5 1252.5,-268 1358.5,-268 1358.5,-298.5"/>
<text text-anchor="start" x="1260.5" y="-285" font-family="Helvetica,sans-Serif" font-size="10.00">JASGlobalInstance&lt;</text>
<text text-anchor="middle" x="1305.5" y="-273.75" font-family="Helvetica,sans-Serif" font-size="10.00"> Z2SoundMgr &gt;</text>
</a>
</g>
</g>
<!-- Node1&#45;&gt;Node2 -->
<g id="edge2_Node000002_Node000001" class="edge">
<title>Node1&#45;&gt;Node2</title>
<g id="a_edge2_Node000002_Node000001"><a xlink:title=" ">
<path fill="none" stroke="#9a32cd" stroke-dasharray="5,2" d="M1165.91,-283.25C1192.17,-283.25 1225.09,-283.25 1252.25,-283.25"/>
<polygon fill="#9a32cd" stroke="#9a32cd" points="1166.25,-279.75 1156.25,-283.25 1166.25,-286.75 1166.25,-279.75"/>
</a>
</g>
<text text-anchor="middle" x="1212" y="-285" font-family="Helvetica,sans-Serif" font-size="10.00" fill="grey"> sInstance</text>
</g>
<!-- Node2&#45;&gt;Node1 -->
<g id="edge1_Node000001_Node000002" class="edge">
<title>Node2&#45;&gt;Node1</title>
<g id="a_edge1_Node000001_Node000002"><a xlink:title=" ">
<path fill="none" stroke="#63b8ff" d="M1240.75,-281.35C1238.64,-281.31 1236.55,-281.28 1234.5,-281.25 1214.5,-280.96 1209.5,-280.96 1189.5,-281.25 1178.19,-281.41 1165.86,-281.72 1154.75,-282.05"/>
<polygon fill="#63b8ff" stroke="#63b8ff" points="1240.55,-284.85 1250.62,-281.56 1240.7,-277.85 1240.55,-284.85"/>
</a>
</g>
</g>
<!-- Node3 -->
<g id="Node000003" class="node">
<title>Node3</title>
<g id="a_Node000003"><a xlink:href="classJAISeMgr.html" target="_top" xlink:title=" ">
<polygon fill="white" stroke="#666666" points="958.25,-518.88 898.75,-518.88 898.75,-499.62 958.25,-499.62 958.25,-518.88"/>
<text text-anchor="middle" x="928.5" y="-505.38" font-family="Helvetica,sans-Serif" font-size="10.00">JAISeMgr</text>
</a>
</g>
</g>
<!-- Node3&#45;&gt;Node1 -->
<g id="edge3_Node000001_Node000003" class="edge">
<title>Node3&#45;&gt;Node1</title>
<g id="a_edge3_Node000001_Node000003"><a xlink:title=" ">
<path fill="none" stroke="#9a32cd" stroke-dasharray="5,2" d="M945.01,-490.6C983.13,-444.79 1080.37,-327.89 1109.28,-293.14"/>
<polygon fill="#9a32cd" stroke="#9a32cd" points="942.49,-488.16 938.79,-498.08 947.87,-492.63 942.49,-488.16"/>
</a>
</g>
<text text-anchor="middle" x="1023.5" y="-424" font-family="Helvetica,sans-Serif" font-size="10.00" fill="grey"> mSeMgr</text>
</g>
<!-- Node4 -->
<g id="Node000004" class="node">
<title>Node4</title>
<g id="a_Node000004"><a xlink:href="classJASGlobalInstance.html" target="_top" xlink:title=" ">
<polygon fill="white" stroke="#666666" points="1171.5,-524.5 1065.5,-524.5 1065.5,-494 1171.5,-494 1171.5,-524.5"/>
<text text-anchor="start" x="1073.5" y="-511" font-family="Helvetica,sans-Serif" font-size="10.00">JASGlobalInstance&lt;</text>
<text text-anchor="middle" x="1118.5" y="-499.75" font-family="Helvetica,sans-Serif" font-size="10.00"> JAISeMgr &gt;</text>
</a>
</g>
</g>
<!-- Node3&#45;&gt;Node4 -->
<g id="edge5_Node000004_Node000003" class="edge">
<title>Node3&#45;&gt;Node4</title>
<g id="a_edge5_Node000004_Node000003"><a xlink:title=" ">
<path fill="none" stroke="#9a32cd" stroke-dasharray="5,2" d="M969.61,-499.65C979.34,-497.72 989.74,-495.98 999.5,-495 1020.73,-492.86 1026.27,-492.86 1047.5,-495 1053.3,-495.58 1059.33,-496.43 1065.31,-497.43"/>
<polygon fill="#9a32cd" stroke="#9a32cd" points="969.14,-496.17 960.07,-501.65 970.58,-503.02 969.14,-496.17"/>
</a>
</g>
<text text-anchor="middle" x="1023.5" y="-496" font-family="Helvetica,sans-Serif" font-size="10.00" fill="grey"> sInstance</text>
</g>
<!-- Node4&#45;&gt;Node3 -->
<g id="edge4_Node000003_Node000004" class="edge">
<title>Node4&#45;&gt;Node3</title>
<g id="a_edge4_Node000003_Node000004"><a xlink:title=" ">
<path fill="none" stroke="#63b8ff" d="M1053.84,-509.25C1021.5,-509.25 983.8,-509.25 958.46,-509.25"/>
<polygon fill="#63b8ff" stroke="#63b8ff" points="1053.51,-512.75 1063.51,-509.25 1053.51,-505.75 1053.51,-512.75"/>
</a>
</g>
</g>
<!-- Node5 -->
<g id="Node000005" class="node">
<title>Node5</title>
<g id="a_Node000005"><a xlink:href="structJAISeqDataUser.html" target="_top" xlink:title=" ">
<polygon fill="white" stroke="#666666" points="540,-706.88 450.5,-706.88 450.5,-687.62 540,-687.62 540,-706.88"/>
<text text-anchor="middle" x="495.25" y="-693.38" font-family="Helvetica,sans-Serif" font-size="10.00">JAISeqDataUser</text>
</a>
</g>
</g>
<!-- Node5&#45;&gt;Node3 -->
<g id="edge6_Node000003_Node000005" class="edge">
<title>Node5&#45;&gt;Node3</title>
<g id="a_edge6_Node000003_Node000005"><a xlink:title=" ">
<path fill="none" stroke="#63b8ff" d="M551.46,-695C627.47,-689.31 765.39,-669.43 857.5,-600.25 888.1,-577.27 912.17,-537.57 922.3,-519.16"/>
<polygon fill="#63b8ff" stroke="#63b8ff" points="551.5,-691.49 541.77,-695.66 551.98,-698.47 551.5,-691.49"/>
</a>
</g>
</g>
<!-- Node9 -->
<g id="Node000009" class="node">
<title>Node9</title>
<g id="a_Node000009"><a xlink:href="classJAISeCategoryMgr.html" target="_top" xlink:title=" ">
<polygon fill="white" stroke="#666666" points="769,-590.88 671.25,-590.88 671.25,-571.62 769,-571.62 769,-590.88"/>
<text text-anchor="middle" x="720.12" y="-577.38" font-family="Helvetica,sans-Serif" font-size="10.00">JAISeCategoryMgr</text>
</a>
</g>
</g>
<!-- Node5&#45;&gt;Node9 -->
<g id="edge11_Node000009_Node000005" class="edge">
<title>Node5&#45;&gt;Node9</title>
<g id="a_edge11_Node000009_Node000005"><a xlink:title=" ">
<path fill="none" stroke="#63b8ff" d="M551.79,-691.24C584.76,-685.06 625.43,-672.56 653.25,-647.25 668.27,-633.58 657.33,-620.03 671.25,-605.25 676.73,-599.43 683.93,-594.81 691.08,-591.24"/>
<polygon fill="#63b8ff" stroke="#63b8ff" points="551.24,-687.78 541.97,-692.91 552.42,-694.68 551.24,-687.78"/>
</a>
</g>
</g>
<!-- Node18 -->
<g id="Node000018" class="node">
<title>Node18</title>
<g id="a_Node000018"><a xlink:href="classJAISeqMgr.html" target="_top" xlink:title=" ">
<polygon fill="white" stroke="#666666" points="752.5,-359.88 687.75,-359.88 687.75,-340.62 752.5,-340.62 752.5,-359.88"/>
<text text-anchor="middle" x="720.12" y="-346.38" font-family="Helvetica,sans-Serif" font-size="10.00">JAISeqMgr</text>
</a>
</g>
</g>
<!-- Node5&#45;&gt;Node18 -->
<g id="edge26_Node000018_Node000005" class="edge">
<title>Node5&#45;&gt;Node18</title>
<g id="a_edge26_Node000018_Node000005"><a xlink:title=" ">
<path fill="none" stroke="#63b8ff" d="M549.81,-682.86C551.12,-681.74 552.36,-680.54 553.5,-679.25 582.57,-646.43 542.85,-615.44 571.5,-582.25 596.6,-553.18 627.03,-582.31 653.25,-554.25 674.3,-531.72 662.16,-516.71 671.25,-487.25 686.11,-439.1 706.97,-382.57 715.39,-360.14"/>
<polygon fill="#63b8ff" stroke="#63b8ff" points="548.01,-679.85 541.52,-688.22 551.82,-685.73 548.01,-679.85"/>
</a>
</g>
</g>
<!-- Node6 -->
<g id="Node000006" class="node">
<title>Node6</title>
<g id="a_Node000006"><a xlink:href="classJAISoundActivity.html" target="_top" xlink:title=" ">
<polygon fill="white" stroke="#666666" points="540.75,-274.88 449.75,-274.88 449.75,-255.62 540.75,-255.62 540.75,-274.88"/>
<text text-anchor="middle" x="495.25" y="-261.38" font-family="Helvetica,sans-Serif" font-size="10.00">JAISoundActivity</text>
</a>
</g>
</g>
<!-- Node6&#45;&gt;Node3 -->
<g id="edge7_Node000003_Node000006" class="edge">
<title>Node6&#45;&gt;Node3</title>
<g id="a_edge7_Node000003_Node000006"><a xlink:title=" ">
<path fill="none" stroke="#63b8ff" d="M552.09,-267.95C610.44,-273.11 702.56,-288.07 769,-331.25 842.55,-379.05 902.98,-469.75 921.58,-499.52"/>
<polygon fill="#63b8ff" stroke="#63b8ff" points="552.65,-264.48 542.4,-267.17 552.08,-271.46 552.65,-264.48"/>
</a>
</g>
</g>
<!-- Node6&#45;&gt;Node18 -->
<g id="edge27_Node000018_Node000006" class="edge">
<title>Node6&#45;&gt;Node18</title>
<g id="a_edge27_Node000018_Node000006"><a xlink:title=" ">
<path fill="none" stroke="#9a32cd" stroke-dasharray="5,2" d="M541.3,-278.88C545.45,-280.3 549.57,-281.76 553.5,-283.25 561.69,-286.35 563.26,-288.29 571.5,-291.25 606.99,-304 618.33,-299.76 653.25,-314 671.14,-321.3 690.36,-332.27 703.4,-340.23"/>
<polygon fill="#9a32cd" stroke="#9a32cd" points="542.4,-275.56 531.81,-275.75 540.21,-282.21 542.4,-275.56"/>
</a>
</g>
<text text-anchor="middle" x="612.38" y="-315" font-family="Helvetica,sans-Serif" font-size="10.00" fill="grey"> mActivity</text>
</g>
<!-- Node22 -->
<g id="Node000022" class="node">
<title>Node22</title>
<g id="a_Node000022"><a xlink:href="classJAIStreamMgr.html" target="_top" xlink:title=" ">
<polygon fill="white" stroke="#666666" points="759.62,-138.88 680.62,-138.88 680.62,-119.62 759.62,-119.62 759.62,-138.88"/>
<text text-anchor="middle" x="720.12" y="-125.38" font-family="Helvetica,sans-Serif" font-size="10.00">JAIStreamMgr</text>
</a>
</g>
</g>
<!-- Node6&#45;&gt;Node22 -->
<g id="edge37_Node000022_Node000006" class="edge">
<title>Node6&#45;&gt;Node22</title>
<g id="a_edge37_Node000022_Node000006"><a xlink:title=" ">
<path fill="none" stroke="#9a32cd" stroke-dasharray="5,2" d="M522.63,-249.47C537.01,-240.93 555.17,-230.27 571.5,-221 607.52,-200.56 618.16,-198.26 653.25,-176.25 672.17,-164.38 693,-149.12 706.07,-139.27"/>
<polygon fill="#9a32cd" stroke="#9a32cd" points="521.01,-246.36 514.2,-254.49 524.59,-252.38 521.01,-246.36"/>
</a>
</g>
<text text-anchor="middle" x="612.38" y="-222" font-family="Helvetica,sans-Serif" font-size="10.00" fill="grey"> mActivity</text>
</g>
<!-- Node7 -->
<g id="Node000007" class="node">
<title>Node7</title>
<g id="a_Node000007"><a xlink:href="structJAIAudience.html" target="_top" xlink:title=" ">
<polygon fill="white" stroke="#666666" points="531,-196.88 459.5,-196.88 459.5,-177.62 531,-177.62 531,-196.88"/>
<text text-anchor="middle" x="495.25" y="-183.38" font-family="Helvetica,sans-Serif" font-size="10.00">JAIAudience</text>
</a>
</g>
</g>
<!-- Node7&#45;&gt;Node3 -->
<g id="edge8_Node000003_Node000007" class="edge">
<title>Node7&#45;&gt;Node3</title>
<g id="a_edge8_Node000003_Node000007"><a xlink:title=" ">
<path fill="none" stroke="#9a32cd" stroke-dasharray="5,2" d="M542.42,-185.74C574.33,-186.04 617.34,-189.15 653.25,-201.25 757.54,-236.39 790.21,-254.17 857.5,-341.25 897.69,-393.25 918.78,-471.66 925.28,-499.23"/>
<polygon fill="#9a32cd" stroke="#9a32cd" points="542.71,-182.24 532.71,-185.75 542.71,-189.24 542.71,-182.24"/>
</a>
</g>
<text text-anchor="middle" x="720.12" y="-252" font-family="Helvetica,sans-Serif" font-size="10.00" fill="grey"> mAudience</text>
</g>
<!-- Node7&#45;&gt;Node18 -->
<g id="edge28_Node000018_Node000007" class="edge">
<title>Node7&#45;&gt;Node18</title>
<g id="a_edge28_Node000018_Node000007"><a xlink:title=" ">
<path fill="none" stroke="#9a32cd" stroke-dasharray="5,2" d="M522.28,-203.23C536.69,-211.97 554.98,-222.9 571.5,-232.25 607.36,-252.55 620.9,-250.47 653.25,-276 678,-295.54 701.03,-325.09 712.15,-340.35"/>
<polygon fill="#9a32cd" stroke="#9a32cd" points="524.21,-200.31 513.85,-198.1 520.57,-206.29 524.21,-200.31"/>
</a>
</g>
<text text-anchor="middle" x="612.38" y="-277" font-family="Helvetica,sans-Serif" font-size="10.00" fill="grey"> mAudience</text>
</g>
<!-- Node7&#45;&gt;Node22 -->
<g id="edge39_Node000022_Node000007" class="edge">
<title>Node7&#45;&gt;Node22</title>
<g id="a_edge39_Node000022_Node000007"><a xlink:title=" ">
<path fill="none" stroke="#9a32cd" stroke-dasharray="5,2" d="M534.7,-173.48C546.43,-169.51 559.43,-165.35 571.5,-162 608.05,-151.84 650.37,-142.72 680.31,-136.7"/>
<polygon fill="#9a32cd" stroke="#9a32cd" points="533.66,-170.14 525.34,-176.7 535.93,-176.76 533.66,-170.14"/>
</a>
</g>
<text text-anchor="middle" x="612.38" y="-163" font-family="Helvetica,sans-Serif" font-size="10.00" fill="grey"> field_0x54</text>
</g>
<!-- Node8 -->
<g id="Node000008" class="node">
<title>Node8</title>
<g id="a_Node000008"><a xlink:href="structJAISeqDataMgr.html" target="_top" xlink:title=" ">
<polygon fill="white" stroke="#666666" points="537.75,-616.88 452.75,-616.88 452.75,-597.62 537.75,-597.62 537.75,-616.88"/>
<text text-anchor="middle" x="495.25" y="-603.38" font-family="Helvetica,sans-Serif" font-size="10.00">JAISeqDataMgr</text>
</a>
</g>
</g>
<!-- Node8&#45;&gt;Node3 -->
<g id="edge9_Node000003_Node000008" class="edge">
<title>Node8&#45;&gt;Node3</title>
<g id="a_edge9_Node000003_Node000008"><a xlink:title=" ">
<path fill="none" stroke="#9a32cd" stroke-dasharray="5,2" d="M549.34,-615C623.56,-623.11 760.16,-627.94 857.5,-572.25 882.76,-557.8 906.74,-532.99 919,-519.21"/>
<polygon fill="#9a32cd" stroke="#9a32cd" points="549.82,-611.53 539.48,-613.85 549.01,-618.48 549.82,-611.53"/>
</a>
</g>
<text text-anchor="middle" x="720.12" y="-620" font-family="Helvetica,sans-Serif" font-size="10.00" fill="grey"> mSeqDataMgr</text>
</g>
<!-- Node8&#45;&gt;Node18 -->
<g id="edge29_Node000018_Node000008" class="edge">
<title>Node8&#45;&gt;Node18</title>
<g id="a_edge29_Node000018_Node000008"><a xlink:title=" ">
<path fill="none" stroke="#9a32cd" stroke-dasharray="5,2" d="M520.38,-590.31C531.75,-581.3 544.7,-569.38 553.5,-556.25 566.94,-536.2 555.79,-523.33 571.5,-505 598.32,-473.71 623.47,-489.74 653.25,-461.25 685.15,-430.73 706.96,-381.45 715.32,-360.36"/>
<polygon fill="#9a32cd" stroke="#9a32cd" points="518.41,-587.42 512.55,-596.25 522.63,-593 518.41,-587.42"/>
</a>
</g>
<text text-anchor="middle" x="612.38" y="-506" font-family="Helvetica,sans-Serif" font-size="10.00" fill="grey"> seqDataMgr_</text>
</g>
<!-- Node9&#45;&gt;Node3 -->
<g id="edge10_Node000003_Node000009" class="edge">
<title>Node9&#45;&gt;Node3</title>
<g id="a_edge10_Node000003_Node000009"><a xlink:title=" ">
<path fill="none" stroke="#9a32cd" stroke-dasharray="5,2" d="M760.6,-567.48C800.98,-553.39 862.74,-531.85 898.72,-519.29"/>
<polygon fill="#9a32cd" stroke="#9a32cd" points="759.54,-564.14 751.25,-570.74 761.84,-570.75 759.54,-564.14"/>
</a>
</g>
<text text-anchor="middle" x="822.25" y="-559" font-family="Helvetica,sans-Serif" font-size="10.00" fill="grey"> mCategoryMgrs</text>
</g>
<!-- Node10 -->
<g id="Node000010" class="node">
<title>Node10</title>
<g id="a_Node000010"><a xlink:href="structJASNonCopyable.html" target="_top" xlink:title=" ">
<polygon fill="white" stroke="#666666" points="541.5,-669.88 449,-669.88 449,-650.62 541.5,-650.62 541.5,-669.88"/>
<text text-anchor="middle" x="495.25" y="-656.38" font-family="Helvetica,sans-Serif" font-size="10.00">JASNonCopyable</text>
</a>
</g>
</g>
<!-- Node10&#45;&gt;Node9 -->
<g id="edge12_Node000009_Node000010" class="edge">
<title>Node10&#45;&gt;Node9</title>
<g id="a_edge12_Node000009_Node000010"><a xlink:title=" ">
<path fill="none" stroke="#9a32cd" stroke-dasharray="5,2" d="M535.16,-646.46C579.61,-630.7 651.3,-605.29 690.78,-591.3"/>
<polygon fill="#9a32cd" stroke="#9a32cd" points="534.16,-643.1 525.9,-649.74 536.5,-649.7 534.16,-643.1"/>
</a>
</g>
<text text-anchor="middle" x="612.38" y="-634" font-family="Helvetica,sans-Serif" font-size="10.00" fill="grey"> field_0x4</text>
</g>
<!-- Node11 -->
<g id="Node000011" class="node">
<title>Node11</title>
<g id="a_Node000011"><a xlink:href="structJAISoundParamsMove.html" target="_top" xlink:title=" ">
<polygon fill="white" stroke="#666666" points="553.5,-499.88 437,-499.88 437,-480.62 553.5,-480.62 553.5,-499.88"/>
<text text-anchor="middle" x="495.25" y="-486.38" font-family="Helvetica,sans-Serif" font-size="10.00">JAISoundParamsMove</text>
</a>
</g>
</g>
<!-- Node11&#45;&gt;Node3 -->
<g id="edge22_Node000003_Node000011" class="edge">
<title>Node11&#45;&gt;Node3</title>
<g id="a_edge22_Node000003_Node000011"><a xlink:title=" ">
<path fill="none" stroke="#9a32cd" stroke-dasharray="5,2" d="M565.21,-494.91C567.33,-495.03 569.43,-495.14 571.5,-495.25 692.87,-501.67 837.67,-506.48 898.42,-508.37"/>
<polygon fill="#9a32cd" stroke="#9a32cd" points="565.46,-491.41 555.27,-494.32 565.05,-498.4 565.46,-491.41"/>
</a>
</g>
<text text-anchor="middle" x="720.12" y="-505" font-family="Helvetica,sans-Serif" font-size="10.00" fill="grey"> mParams</text>
</g>
<!-- Node11&#45;&gt;Node9 -->
<g id="edge13_Node000009_Node000011" class="edge">
<title>Node11&#45;&gt;Node9</title>
<g id="a_edge13_Node000009_Node000011"><a xlink:title=" ">
<path fill="none" stroke="#9a32cd" stroke-dasharray="5,2" d="M529.68,-504.57C542.62,-509.85 557.63,-515.66 571.5,-520.25 607.19,-532.07 618.6,-527.4 653.25,-542 672.02,-549.91 691.88,-562.38 704.83,-571.14"/>
<polygon fill="#9a32cd" stroke="#9a32cd" points="531.35,-501.47 520.77,-500.88 528.67,-507.94 531.35,-501.47"/>
</a>
</g>
<text text-anchor="middle" x="612.38" y="-543" font-family="Helvetica,sans-Serif" font-size="10.00" fill="grey"> mParams</text>
</g>
<!-- Node11&#45;&gt;Node18 -->
<g id="edge31_Node000018_Node000011" class="edge">
<title>Node11&#45;&gt;Node18</title>
<g id="a_edge31_Node000018_Node000011"><a xlink:title=" ">
<path fill="none" stroke="#9a32cd" stroke-dasharray="5,2" d="M522.44,-474.69C536.64,-466.65 554.69,-457.07 571.5,-450 606.61,-435.23 621.27,-444.94 653.25,-424.25 679.97,-406.96 702.47,-376.02 712.9,-360.18"/>
<polygon fill="#9a32cd" stroke="#9a32cd" points="521.08,-471.44 514.16,-479.46 524.57,-477.5 521.08,-471.44"/>
</a>
</g>
<text text-anchor="middle" x="612.38" y="-451" font-family="Helvetica,sans-Serif" font-size="10.00" fill="grey"> mMove</text>
</g>
<!-- Node11&#45;&gt;Node22 -->
<g id="edge38_Node000022_Node000011" class="edge">
<title>Node11&#45;&gt;Node22</title>
<g id="a_edge38_Node000022_Node000011"><a xlink:title=" ">
<path fill="none" stroke="#9a32cd" stroke-dasharray="5,2" d="M525.17,-474.26C535.66,-467.03 546.62,-457.56 553.5,-446.25 577.03,-407.58 540.65,-379.12 571.5,-346 597.05,-318.57 628.3,-353.22 653.25,-325.25 692.96,-280.74 648.45,-247.37 671.25,-192.25 679.97,-171.18 697.51,-150.94 708.77,-139.32"/>
<polygon fill="#9a32cd" stroke="#9a32cd" points="523.62,-471.1 517.07,-479.43 527.38,-477 523.62,-471.1"/>
</a>
</g>
<text text-anchor="middle" x="612.38" y="-347" font-family="Helvetica,sans-Serif" font-size="10.00" fill="grey"> mParams</text>
</g>
<!-- Node12 -->
<g id="Node000012" class="node">
<title>Node12</title>
<g id="a_Node000012"><a xlink:href="structJASSoundParams.html" target="_top" xlink:title=" ">
<polygon fill="white" stroke="#666666" points="328.25,-502.88 232,-502.88 232,-483.62 328.25,-483.62 328.25,-502.88"/>
<text text-anchor="middle" x="280.12" y="-489.38" font-family="Helvetica,sans-Serif" font-size="10.00">JASSoundParams</text>
</a>
</g>
</g>
<!-- Node12&#45;&gt;Node11 -->
<g id="edge14_Node000011_Node000012" class="edge">
<title>Node12&#45;&gt;Node11</title>
<g id="a_edge14_Node000011_Node000012"><a xlink:title=" ">
<path fill="none" stroke="#9a32cd" stroke-dasharray="5,2" d="M339.9,-492.42C370.04,-492 406.61,-491.48 436.59,-491.06"/>
<polygon fill="#9a32cd" stroke="#9a32cd" points="340.15,-488.92 330.2,-492.56 340.25,-495.92 340.15,-488.92"/>
</a>
</g>
<text text-anchor="middle" x="392.38" y="-493" font-family="Helvetica,sans-Serif" font-size="10.00" fill="grey"> mParams</text>
</g>
<!-- Node13 -->
<g id="Node000013" class="node">
<title>Node13</title>
<g id="a_Node000013"><a xlink:href="structJAISoundParamsTransition.html" target="_top" xlink:title=" ">
<polygon fill="white" stroke="#666666" points="347.75,-465.88 212.5,-465.88 212.5,-446.62 347.75,-446.62 347.75,-465.88"/>
<text text-anchor="middle" x="280.12" y="-452.38" font-family="Helvetica,sans-Serif" font-size="10.00">JAISoundParamsTransition</text>
</a>
</g>
</g>
<!-- Node13&#45;&gt;Node11 -->
<g id="edge15_Node000011_Node000013" class="edge">
<title>Node13&#45;&gt;Node11</title>
<g id="a_edge15_Node000011_Node000013"><a xlink:title=" ">
<path fill="none" stroke="#9a32cd" stroke-dasharray="5,2" d="M359.48,-466.85C378.95,-469.66 399.76,-472.8 419,-476 426.61,-477.26 434.63,-478.69 442.49,-480.13"/>
<polygon fill="#9a32cd" stroke="#9a32cd" points="360.08,-463.4 349.69,-465.45 359.09,-470.33 360.08,-463.4"/>
</a>
</g>
<text text-anchor="middle" x="392.38" y="-477" font-family="Helvetica,sans-Serif" font-size="10.00" fill="grey"> mTransition</text>
</g>
<!-- Node14 -->
<g id="Node000014" class="node">
<title>Node14</title>
<g id="a_Node000014"><a xlink:href="structJAISoundParamsTransition_1_1TTransition.html" target="_top" xlink:title=" ">
<polygon fill="white" stroke="#666666" points="135.25,-471.5 0,-471.5 0,-441 135.25,-441 135.25,-471.5"/>
<text text-anchor="start" x="8" y="-458" font-family="Helvetica,sans-Serif" font-size="10.00">JAISoundParamsTransition</text>
<text text-anchor="middle" x="67.62" y="-446.75" font-family="Helvetica,sans-Serif" font-size="10.00">::TTransition</text>
</a>
</g>
</g>
<!-- Node14&#45;&gt;Node13 -->
<g id="edge16_Node000013_Node000014" class="edge">
<title>Node14&#45;&gt;Node13</title>
<g id="a_edge16_Node000013_Node000014"><a xlink:title=" ">
<path fill="none" stroke="#9a32cd" stroke-dasharray="5,2" d="M146.89,-456.25C168.3,-456.25 191.32,-456.25 212.05,-456.25"/>
<polygon fill="#9a32cd" stroke="#9a32cd" points="147.03,-452.75 137.03,-456.25 147.03,-459.75 147.03,-452.75"/>
</a>
</g>
<text text-anchor="middle" x="173.88" y="-503" font-family="Helvetica,sans-Serif" font-size="10.00" fill="grey"> mDolby</text>
<text text-anchor="middle" x="173.88" y="-491.75" font-family="Helvetica,sans-Serif" font-size="10.00" fill="grey">mFxMix</text>
<text text-anchor="middle" x="173.88" y="-480.5" font-family="Helvetica,sans-Serif" font-size="10.00" fill="grey">mPan</text>
<text text-anchor="middle" x="173.88" y="-469.25" font-family="Helvetica,sans-Serif" font-size="10.00" fill="grey">mPitch</text>
<text text-anchor="middle" x="173.88" y="-458" font-family="Helvetica,sans-Serif" font-size="10.00" fill="grey">mVolume</text>
</g>
<!-- Node15 -->
<g id="Node000015" class="node">
<title>Node15</title>
<g id="a_Node000015"><a xlink:href="classJSUList.html" target="_top" xlink:title=" ">
<polygon fill="white" stroke="#666666" points="543,-546.88 447.5,-546.88 447.5,-527.62 543,-527.62 543,-546.88"/>
<text text-anchor="middle" x="495.25" y="-533.38" font-family="Helvetica,sans-Serif" font-size="10.00">JSUList&lt; JAISe &gt;</text>
</a>
</g>
</g>
<!-- Node15&#45;&gt;Node9 -->
<g id="edge17_Node000009_Node000015" class="edge">
<title>Node15&#45;&gt;Node9</title>
<g id="a_edge17_Node000009_Node000015"><a xlink:title=" ">
<path fill="none" stroke="#9a32cd" stroke-dasharray="5,2" d="M542.29,-550.26C551.9,-552.75 562,-555.22 571.5,-557.25 604.51,-564.3 642.06,-570.38 671.03,-574.66"/>
<polygon fill="#9a32cd" stroke="#9a32cd" points="543.32,-546.91 532.76,-547.72 541.52,-553.67 543.32,-546.91"/>
</a>
</g>
<text text-anchor="middle" x="612.38" y="-573" font-family="Helvetica,sans-Serif" font-size="10.00" fill="grey"> mSeList</text>
</g>
<!-- Node16 -->
<g id="Node000016" class="node">
<title>Node16</title>
<g id="a_Node000016"><a xlink:href="classJSUPtrList.html" target="_top" xlink:title=" ">
<polygon fill="white" stroke="#666666" points="312.5,-344.88 247.75,-344.88 247.75,-325.62 312.5,-325.62 312.5,-344.88"/>
<text text-anchor="middle" x="280.12" y="-331.38" font-family="Helvetica,sans-Serif" font-size="10.00">JSUPtrList</text>
</a>
</g>
</g>
<!-- Node16&#45;&gt;Node15 -->
<g id="edge18_Node000015_Node000016" class="edge">
<title>Node16&#45;&gt;Node15</title>
<g id="a_edge18_Node000015_Node000016"><a xlink:title=" ">
<path fill="none" stroke="#63b8ff" d="M296.19,-354.16C311.21,-373.87 333.98,-406.15 347.75,-437.25 360.58,-466.23 343.13,-484.05 365.75,-506.25 387.12,-527.23 420.1,-534.88 447.29,-537.33"/>
<polygon fill="#63b8ff" stroke="#63b8ff" points="299.15,-352.27 290.25,-346.52 293.62,-356.56 299.15,-352.27"/>
</a>
</g>
</g>
<!-- Node17 -->
<g id="Node000017" class="node">
<title>Node17</title>
<g id="a_Node000017"><a xlink:href="classJSUPtrLink.html" target="_top" xlink:title=" ">
<polygon fill="white" stroke="#666666" points="528.75,-348.88 461.75,-348.88 461.75,-329.62 528.75,-329.62 528.75,-348.88"/>
<text text-anchor="middle" x="495.25" y="-335.38" font-family="Helvetica,sans-Serif" font-size="10.00">JSUPtrLink</text>
</a>
</g>
</g>
<!-- Node16&#45;&gt;Node17 -->
<g id="edge20_Node000017_Node000016" class="edge">
<title>Node16&#45;&gt;Node17</title>
<g id="a_edge20_Node000017_Node000016"><a xlink:title=" ">
<path fill="none" stroke="#9a32cd" stroke-dasharray="5,2" d="M320.16,-348.75C334.33,-353.01 350.59,-357.14 365.75,-359.25 389.19,-362.51 395.53,-362.32 419,-359.25 433.88,-357.31 450,-353.29 463.49,-349.36"/>
<polygon fill="#9a32cd" stroke="#9a32cd" points="321.33,-345.45 310.74,-345.81 319.24,-352.14 321.33,-345.45"/>
</a>
</g>
<text text-anchor="middle" x="392.38" y="-363" font-family="Helvetica,sans-Serif" font-size="10.00" fill="grey"> mList</text>
</g>
<!-- Node21 -->
<g id="Node000021" class="node">
<title>Node21</title>
<g id="a_Node000021"><a xlink:href="classJSUList.html" target="_top" xlink:title=" ">
<polygon fill="white" stroke="#666666" points="545.62,-311.88 444.88,-311.88 444.88,-292.62 545.62,-292.62 545.62,-311.88"/>
<text text-anchor="middle" x="495.25" y="-298.38" font-family="Helvetica,sans-Serif" font-size="10.00">JSUList&lt; JAISeq &gt;</text>
</a>
</g>
</g>
<!-- Node16&#45;&gt;Node21 -->
<g id="edge33_Node000021_Node000016" class="edge">
<title>Node16&#45;&gt;Node21</title>
<g id="a_edge33_Node000021_Node000016"><a xlink:title=" ">
<path fill="none" stroke="#63b8ff" d="M323.79,-328.64C358.6,-323.25 407.85,-315.63 444.47,-309.96"/>
<polygon fill="#63b8ff" stroke="#63b8ff" points="323.41,-325.16 314.07,-330.15 324.49,-332.08 323.41,-325.16"/>
</a>
</g>
</g>
<!-- Node24 -->
<g id="Node000024" class="node">
<title>Node24</title>
<g id="a_Node000024"><a xlink:href="classJSUList.html" target="_top" xlink:title=" ">
<polygon fill="white" stroke="#666666" points="552.75,-151.88 437.75,-151.88 437.75,-132.62 552.75,-132.62 552.75,-151.88"/>
<text text-anchor="middle" x="495.25" y="-138.38" font-family="Helvetica,sans-Serif" font-size="10.00">JSUList&lt; JAIStream &gt;</text>
</a>
</g>
</g>
<!-- Node16&#45;&gt;Node24 -->
<g id="edge41_Node000024_Node000016" class="edge">
<title>Node16&#45;&gt;Node24</title>
<g id="a_edge41_Node000024_Node000016"><a xlink:title=" ">
<path fill="none" stroke="#63b8ff" d="M294.9,-316.13C319.94,-282.47 376,-212.08 437,-168.25 445.86,-161.88 456.54,-156.52 466.26,-152.35"/>
<polygon fill="#63b8ff" stroke="#63b8ff" points="292.14,-313.97 289.05,-324.1 297.78,-318.11 292.14,-313.97"/>
</a>
</g>
</g>
<!-- Node17&#45;&gt;Node16 -->
<g id="edge19_Node000016_Node000017" class="edge">
<title>Node17&#45;&gt;Node16</title>
<g id="a_edge19_Node000016_Node000017"><a xlink:title=" ">
<path fill="none" stroke="#9a32cd" stroke-dasharray="5,2" d="M450.09,-337.62C439.88,-337.29 429.06,-336.97 419,-336.75 382.62,-335.95 340.84,-335.57 312.89,-335.39"/>
<polygon fill="#9a32cd" stroke="#9a32cd" points="449.66,-341.11 459.78,-337.94 449.9,-334.11 449.66,-341.11"/>
</a>
</g>
<text text-anchor="middle" x="392.38" y="-349.25" font-family="Helvetica,sans-Serif" font-size="10.00" fill="grey"> mHead</text>
<text text-anchor="middle" x="392.38" y="-338" font-family="Helvetica,sans-Serif" font-size="10.00" fill="grey">mTail</text>
</g>
<!-- Node17&#45;&gt;Node17 -->
<g id="edge21_Node000017_Node000017" class="edge">
<title>Node17&#45;&gt;Node17</title>
<g id="a_edge21_Node000017_Node000017"><a xlink:title=" ">
<path fill="none" stroke="#9a32cd" stroke-dasharray="5,2" d="M476.99,-360.28C479.27,-364.15 485.36,-366.88 495.25,-366.88 513.33,-366.88 518.7,-357.77 511.36,-349.16"/>
<polygon fill="#9a32cd" stroke="#9a32cd" points="480.39,-361.13 478.86,-350.65 473.52,-359.8 480.39,-361.13"/>
</a>
</g>
<text text-anchor="middle" x="495.25" y="-379.88" font-family="Helvetica,sans-Serif" font-size="10.00" fill="grey"> mNext</text>
<text text-anchor="middle" x="495.25" y="-368.62" font-family="Helvetica,sans-Serif" font-size="10.00" fill="grey">mPrev</text>
</g>
<!-- Node18&#45;&gt;Node1 -->
<g id="edge23_Node000001_Node000018" class="edge">
<title>Node18&#45;&gt;Node1</title>
<g id="a_edge23_Node000001_Node000018"><a xlink:title=" ">
<path fill="none" stroke="#9a32cd" stroke-dasharray="5,2" d="M763.87,-343.02C842.76,-329.69 1009.8,-301.46 1082.48,-289.17"/>
<polygon fill="#9a32cd" stroke="#9a32cd" points="763.66,-339.51 754.38,-344.63 764.83,-346.41 763.66,-339.51"/>
</a>
</g>
<text text-anchor="middle" x="928.5" y="-325" font-family="Helvetica,sans-Serif" font-size="10.00" fill="grey"> mSeqMgr</text>
</g>
<!-- Node19 -->
<g id="Node000019" class="node">
<title>Node19</title>
<g id="a_Node000019"><a xlink:href="classJASGlobalInstance.html" target="_top" xlink:title=" ">
<polygon fill="white" stroke="#666666" points="981.5,-244.5 875.5,-244.5 875.5,-214 981.5,-214 981.5,-244.5"/>
<text text-anchor="start" x="883.5" y="-231" font-family="Helvetica,sans-Serif" font-size="10.00">JASGlobalInstance&lt;</text>
<text text-anchor="middle" x="928.5" y="-219.75" font-family="Helvetica,sans-Serif" font-size="10.00"> JAISeqMgr &gt;</text>
</a>
</g>
</g>
<!-- Node18&#45;&gt;Node19 -->
<g id="edge25_Node000019_Node000018" class="edge">
<title>Node18&#45;&gt;Node19</title>
<g id="a_edge25_Node000019_Node000018"><a xlink:title=" ">
<path fill="none" stroke="#9a32cd" stroke-dasharray="5,2" d="M729.64,-329.89C739.91,-308 759.3,-273.93 787,-256 813.06,-239.13 847.16,-232.36 875.25,-229.85"/>
<polygon fill="#9a32cd" stroke="#9a32cd" points="726.47,-328.41 725.61,-338.97 732.87,-331.25 726.47,-328.41"/>
</a>
</g>
<text text-anchor="middle" x="822.25" y="-257" font-family="Helvetica,sans-Serif" font-size="10.00" fill="grey"> sInstance</text>
</g>
<!-- Node19&#45;&gt;Node18 -->
<g id="edge24_Node000018_Node000019" class="edge">
<title>Node19&#45;&gt;Node18</title>
<g id="a_edge24_Node000018_Node000019"><a xlink:title=" ">
<path fill="none" stroke="#63b8ff" d="M890.97,-250.67C846.09,-276.98 771.8,-320.54 738.37,-340.14"/>
<polygon fill="#63b8ff" stroke="#63b8ff" points="892.73,-253.69 899.59,-245.62 889.19,-247.65 892.73,-253.69"/>
</a>
</g>
</g>
<!-- Node20 -->
<g id="Node000020" class="node">
<title>Node20</title>
<g id="a_Node000020"><a xlink:href="structJAISoundStrategyMgr.html" target="_top" xlink:title=" ">
<polygon fill="white" stroke="#666666" points="550.88,-437.5 439.62,-437.5 439.62,-407 550.88,-407 550.88,-437.5"/>
<text text-anchor="start" x="447.62" y="-424" font-family="Helvetica,sans-Serif" font-size="10.00">JAISoundStrategyMgr</text>
<text text-anchor="middle" x="495.25" y="-412.75" font-family="Helvetica,sans-Serif" font-size="10.00">&lt; JAISeq &gt;</text>
</a>
</g>
</g>
<!-- Node20&#45;&gt;Node18 -->
<g id="edge30_Node000018_Node000020" class="edge">
<title>Node20&#45;&gt;Node18</title>
<g id="a_edge30_Node000018_Node000020"><a xlink:title=" ">
<path fill="none" stroke="#9a32cd" stroke-dasharray="5,2" d="M562.25,-411.98C590.8,-406.42 624.24,-398.35 653.25,-387.25 671.75,-380.17 691.34,-368.57 704.31,-360.24"/>
<polygon fill="#9a32cd" stroke="#9a32cd" points="561.83,-408.5 552.65,-413.79 563.13,-415.38 561.83,-408.5"/>
</a>
</g>
<text text-anchor="middle" x="612.38" y="-411" font-family="Helvetica,sans-Serif" font-size="10.00" fill="grey"> field_0x10</text>
</g>
<!-- Node21&#45;&gt;Node18 -->
<g id="edge32_Node000018_Node000021" class="edge">
<title>Node21&#45;&gt;Node18</title>
<g id="a_edge32_Node000018_Node000021"><a xlink:title=" ">
<path fill="none" stroke="#9a32cd" stroke-dasharray="5,2" d="M551.06,-318.25C551.9,-318.89 552.71,-319.56 553.5,-320.25 567.83,-332.86 555.42,-348.96 571.5,-359.25 608.59,-382.98 662.24,-370.88 693.62,-360.3"/>
<polygon fill="#9a32cd" stroke="#9a32cd" points="553.01,-315.34 542.65,-313.11 549.36,-321.31 553.01,-315.34"/>
</a>
</g>
<text text-anchor="middle" x="612.38" y="-374" font-family="Helvetica,sans-Serif" font-size="10.00" fill="grey"> mSeqList</text>
</g>
<!-- Node22&#45;&gt;Node1 -->
<g id="edge34_Node000001_Node000022" class="edge">
<title>Node22&#45;&gt;Node1</title>
<g id="a_edge34_Node000001_Node000022"><a xlink:title=" ">
<path fill="none" stroke="#9a32cd" stroke-dasharray="5,2" d="M756.32,-115.23C808.45,-96.82 907.91,-70.83 981.5,-107 1055.73,-143.48 1100.89,-242.13 1113.71,-273.52"/>
<polygon fill="#9a32cd" stroke="#9a32cd" points="755.26,-111.9 747.07,-118.62 757.66,-118.47 755.26,-111.9"/>
</a>
</g>
<text text-anchor="middle" x="928.5" y="-109" font-family="Helvetica,sans-Serif" font-size="10.00" fill="grey"> mStreamMgr</text>
</g>
<!-- Node23 -->
<g id="Node000023" class="node">
<title>Node23</title>
<g id="a_Node000023"><a xlink:href="classJASGlobalInstance.html" target="_top" xlink:title=" ">
<polygon fill="white" stroke="#666666" points="981.5,-157.5 875.5,-157.5 875.5,-127 981.5,-127 981.5,-157.5"/>
<text text-anchor="start" x="883.5" y="-144" font-family="Helvetica,sans-Serif" font-size="10.00">JASGlobalInstance&lt;</text>
<text text-anchor="middle" x="928.5" y="-132.75" font-family="Helvetica,sans-Serif" font-size="10.00"> JAIStreamMgr &gt;</text>
</a>
</g>
</g>
<!-- Node22&#45;&gt;Node23 -->
<g id="edge36_Node000023_Node000022" class="edge">
<title>Node22&#45;&gt;Node23</title>
<g id="a_edge36_Node000023_Node000022"><a xlink:title=" ">
<path fill="none" stroke="#9a32cd" stroke-dasharray="5,2" d="M771.29,-129.04C776.6,-129.02 781.91,-129.01 787,-129 818.33,-128.94 826.3,-126.07 857.5,-129 863.29,-129.54 869.31,-130.33 875.29,-131.26"/>
<polygon fill="#9a32cd" stroke="#9a32cd" points="771.29,-125.54 761.3,-129.07 771.32,-132.54 771.29,-125.54"/>
</a>
</g>
<text text-anchor="middle" x="822.25" y="-131" font-family="Helvetica,sans-Serif" font-size="10.00" fill="grey"> sInstance</text>
</g>
<!-- Node23&#45;&gt;Node22 -->
<g id="edge35_Node000022_Node000023" class="edge">
<title>Node23&#45;&gt;Node22</title>
<g id="a_edge35_Node000022_Node000023"><a xlink:title=" ">
<path fill="none" stroke="#63b8ff" d="M863.51,-144.87C839.47,-145.17 811.93,-144.69 787,-142.25 778.18,-141.39 768.79,-139.89 759.95,-138.21"/>
<polygon fill="#63b8ff" stroke="#63b8ff" points="863.56,-148.37 873.49,-144.69 863.43,-141.37 863.56,-148.37"/>
</a>
</g>
</g>
<!-- Node24&#45;&gt;Node22 -->
<g id="edge40_Node000022_Node000024" class="edge">
<title>Node24&#45;&gt;Node22</title>
<g id="a_edge40_Node000022_Node000024"><a xlink:title=" ">
<path fill="none" stroke="#9a32cd" stroke-dasharray="5,2" d="M553.2,-130.31C559.35,-129.36 565.54,-128.56 571.5,-128 607.67,-124.61 616.92,-127.66 653.25,-128 662.06,-128.08 671.53,-128.23 680.46,-128.39"/>
<polygon fill="#9a32cd" stroke="#9a32cd" points="553,-126.79 543.71,-131.89 554.15,-133.7 553,-126.79"/>
</a>
</g>
<text text-anchor="middle" x="612.38" y="-130" font-family="Helvetica,sans-Serif" font-size="10.00" fill="grey"> mStreamList</text>
</g>
<!-- Node25 -->
<g id="Node000025" class="node">
<title>Node25</title>
<g id="a_Node000025"><a xlink:href="structJAIStreamDataMgr.html" target="_top" xlink:title=" ">
<polygon fill="white" stroke="#666666" points="544.88,-104.88 445.62,-104.88 445.62,-85.62 544.88,-85.62 544.88,-104.88"/>
<text text-anchor="middle" x="495.25" y="-91.38" font-family="Helvetica,sans-Serif" font-size="10.00">JAIStreamDataMgr</text>
</a>
</g>
</g>
<!-- Node25&#45;&gt;Node22 -->
<g id="edge42_Node000022_Node000025" class="edge">
<title>Node25&#45;&gt;Node22</title>
<g id="a_edge42_Node000022_Node000025"><a xlink:title=" ">
<path fill="none" stroke="#9a32cd" stroke-dasharray="5,2" d="M556.63,-99.56C585.95,-102.2 621.59,-106.2 653.25,-112 663.48,-113.87 674.47,-116.5 684.47,-119.14"/>
<polygon fill="#9a32cd" stroke="#9a32cd" points="557.09,-96.09 546.83,-98.71 556.49,-103.06 557.09,-96.09"/>
</a>
</g>
<text text-anchor="middle" x="612.38" y="-114" font-family="Helvetica,sans-Serif" font-size="10.00" fill="grey"> streamDataMgr_</text>
</g>
<!-- Node26 -->
<g id="Node000026" class="node">
<title>Node26</title>
<g id="a_Node000026"><a xlink:href="structJAIStreamAramMgr.html" target="_top" xlink:title=" ">
<polygon fill="white" stroke="#666666" points="546.38,-67.88 444.12,-67.88 444.12,-48.62 546.38,-48.62 546.38,-67.88"/>
<text text-anchor="middle" x="495.25" y="-54.38" font-family="Helvetica,sans-Serif" font-size="10.00">JAIStreamAramMgr</text>
</a>
</g>
</g>
<!-- Node26&#45;&gt;Node22 -->
<g id="edge43_Node000022_Node000026" class="edge">
<title>Node26&#45;&gt;Node22</title>
<g id="a_edge43_Node000022_Node000026"><a xlink:title=" ">
<path fill="none" stroke="#9a32cd" stroke-dasharray="5,2" d="M557.85,-63.29C587.47,-67.17 623.02,-74 653.25,-86 673.85,-94.18 694.76,-109.33 707.33,-119.35"/>
<polygon fill="#9a32cd" stroke="#9a32cd" points="558.67,-59.86 548.32,-62.13 557.82,-66.81 558.67,-59.86"/>
</a>
</g>
<text text-anchor="middle" x="612.38" y="-88" font-family="Helvetica,sans-Serif" font-size="10.00" fill="grey"> mStreamAramMgr</text>
</g>
<!-- Node27 -->
<g id="Node000027" class="node">
<title>Node27</title>
<g id="a_Node000027"><a xlink:href="structJAISoundStrategyMgr.html" target="_top" xlink:title=" ">
<polygon fill="white" stroke="#666666" points="550.88,-30.5 439.62,-30.5 439.62,0 550.88,0 550.88,-30.5"/>
<text text-anchor="start" x="447.62" y="-17" font-family="Helvetica,sans-Serif" font-size="10.00">JAISoundStrategyMgr</text>
<text text-anchor="middle" x="495.25" y="-5.75" font-family="Helvetica,sans-Serif" font-size="10.00">&lt; JAIStream &gt;</text>
</a>
</g>
</g>
<!-- Node27&#45;&gt;Node22 -->
<g id="edge44_Node000022_Node000027" class="edge">
<title>Node27&#45;&gt;Node22</title>
<g id="a_edge44_Node000022_Node000027"><a xlink:title=" ">
<path fill="none" stroke="#9a32cd" stroke-dasharray="5,2" d="M562.16,-20.69C591.7,-25.45 625.95,-34.36 653.25,-51 681.76,-68.38 703.92,-102.43 713.68,-119.3"/>
<polygon fill="#9a32cd" stroke="#9a32cd" points="563,-17.27 552.59,-19.28 561.98,-24.2 563,-17.27"/>
</a>
</g>
<text text-anchor="middle" x="612.38" y="-53" font-family="Helvetica,sans-Serif" font-size="10.00" fill="grey"> field_0x6c</text>
</g>
<!-- Node28 -->
<g id="Node000028" class="node">
<title>Node28</title>
<g id="a_Node000028"><a xlink:href="structJAISoundID.html" target="_top" xlink:title=" ">
<polygon fill="white" stroke="#666666" points="962.75,-195.88 894.25,-195.88 894.25,-176.62 962.75,-176.62 962.75,-195.88"/>
<text text-anchor="middle" x="928.5" y="-182.38" font-family="Helvetica,sans-Serif" font-size="10.00">JAISoundID</text>
</a>
</g>
</g>
<!-- Node28&#45;&gt;Node1 -->
<g id="edge45_Node000001_Node000028" class="edge">
<title>Node28&#45;&gt;Node1</title>
<g id="a_edge45_Node000001_Node000028"><a xlink:title=" ">
<path fill="none" stroke="#9a32cd" stroke-dasharray="5,2" d="M970.44,-200.46C974.21,-201.99 977.95,-203.6 981.5,-205.25 1026.91,-226.38 1077.3,-257.43 1102.05,-273.22"/>
<polygon fill="#9a32cd" stroke="#9a32cd" points="971.83,-197.24 961.24,-196.89 969.3,-203.77 971.83,-197.24"/>
</a>
</g>
<text text-anchor="middle" x="1023.5" y="-240" font-family="Helvetica,sans-Serif" font-size="10.00" fill="grey"> mSoundID</text>
</g>
</g>
</svg>
