<?xml version="1.0" encoding="UTF-8" standalone="no"?>
<!DOCTYPE svg PUBLIC "-//W3C//DTD SVG 1.1//EN"
 "http://www.w3.org/Graphics/SVG/1.1/DTD/svg11.dtd">
<!-- Generated by graphviz version 9.0.0 (20230911.1827)
 -->
<!-- Title: mDoHIO_entry_c Pages: 1 -->
<svg width="407pt" height="1130pt"
 viewBox="0.00 0.00 407.00 1130.25" xmlns="http://www.w3.org/2000/svg" xmlns:xlink="http://www.w3.org/1999/xlink">
<g id="graph0" class="graph" transform="scale(1 1) rotate(0) translate(4 1126.25)">
<title>mDoHIO_entry_c</title>
<!-- Node1 -->
<g id="Node000001" class="node">
<title>Node1</title>
<g id="a_Node000001"><a xlink:title=" ">
<polygon fill="#999999" stroke="#666666" points="91,-604.25 0,-604.25 0,-585 91,-585 91,-604.25"/>
<text text-anchor="middle" x="45.5" y="-590.75" font-family="Helvetica,sans-Serif" font-size="10.00">mDoHIO_entry_c</text>
</a>
</g>
</g>
<!-- Node2 -->
<g id="Node000002" class="node">
<title>Node2</title>
<g id="a_Node000002"><a xlink:href="classdGov__HIO__c.html" target="_top" xlink:title=" ">
<polygon fill="white" stroke="#666666" points="226.62,-1122.25 153.62,-1122.25 153.62,-1103 226.62,-1103 226.62,-1122.25"/>
<text text-anchor="middle" x="190.12" y="-1108.75" font-family="Helvetica,sans-Serif" font-size="10.00">dGov_HIO_c</text>
</a>
</g>
</g>
<!-- Node1&#45;&gt;Node2 -->
<g id="edge1_Node000001_Node000002" class="edge">
<title>Node1&#45;&gt;Node2</title>
<g id="a_edge1_Node000001_Node000002"><a xlink:title=" ">
<path fill="none" stroke="#63b8ff" d="M46.99,-615.85C49.39,-701.67 62.59,-1021.8 127,-1094.62 133.77,-1102.28 143.58,-1106.77 153.41,-1109.37"/>
<polygon fill="#63b8ff" stroke="#63b8ff" points="50.49,-615.98 46.74,-606.07 43.49,-616.16 50.49,-615.98"/>
</a>
</g>
</g>
<!-- Node3 -->
<g id="Node000003" class="node">
<title>Node3</title>
<g id="a_Node000003"><a xlink:href="classdScnPly__preLoad__HIO__c.html" target="_top" xlink:title=" ">
<polygon fill="white" stroke="#666666" points="253.25,-1085.25 127,-1085.25 127,-1066 253.25,-1066 253.25,-1085.25"/>
<text text-anchor="middle" x="190.12" y="-1071.75" font-family="Helvetica,sans-Serif" font-size="10.00">dScnPly_preLoad_HIO_c</text>
</a>
</g>
</g>
<!-- Node1&#45;&gt;Node3 -->
<g id="edge2_Node000001_Node000003" class="edge">
<title>Node1&#45;&gt;Node3</title>
<g id="a_edge2_Node000001_Node000003"><a xlink:title=" ">
<path fill="none" stroke="#63b8ff" d="M47.3,-616.09C50.78,-698.17 67.25,-990.92 127,-1057.62 129.85,-1060.8 133.22,-1063.43 136.89,-1065.61"/>
<polygon fill="#63b8ff" stroke="#63b8ff" points="50.8,-615.97 46.9,-606.11 43.8,-616.25 50.8,-615.97"/>
</a>
</g>
</g>
<!-- Node4 -->
<g id="Node000004" class="node">
<title>Node4</title>
<g id="a_Node000004"><a xlink:href="classdaBarDesk__HIO__c.html" target="_top" xlink:title=" ">
<polygon fill="white" stroke="#666666" points="239,-1048.25 141.25,-1048.25 141.25,-1029 239,-1029 239,-1048.25"/>
<text text-anchor="middle" x="190.12" y="-1034.75" font-family="Helvetica,sans-Serif" font-size="10.00">daBarDesk_HIO_c</text>
</a>
</g>
</g>
<!-- Node1&#45;&gt;Node4 -->
<g id="edge3_Node000001_Node000004" class="edge">
<title>Node1&#45;&gt;Node4</title>
<g id="a_edge3_Node000001_Node000004"><a xlink:title=" ">
<path fill="none" stroke="#63b8ff" d="M47.63,-615.62C52.18,-692.84 71.73,-959.82 127,-1020.62 130.85,-1024.86 135.64,-1028.13 140.83,-1030.64"/>
<polygon fill="#63b8ff" stroke="#63b8ff" points="51.14,-615.85 47.09,-606.06 44.16,-616.25 51.14,-615.85"/>
</a>
</g>
</g>
<!-- Node5 -->
<g id="Node000005" class="node">
<title>Node5</title>
<g id="a_Node000005"><a xlink:href="classdaBsGate__HIO__c.html" target="_top" xlink:title=" ">
<polygon fill="white" stroke="#666666" points="236.75,-1011.25 143.5,-1011.25 143.5,-992 236.75,-992 236.75,-1011.25"/>
<text text-anchor="middle" x="190.12" y="-997.75" font-family="Helvetica,sans-Serif" font-size="10.00">daBsGate_HIO_c</text>
</a>
</g>
</g>
<!-- Node1&#45;&gt;Node5 -->
<g id="edge4_Node000001_Node000005" class="edge">
<title>Node1&#45;&gt;Node5</title>
<g id="a_edge4_Node000001_Node000005"><a xlink:title=" ">
<path fill="none" stroke="#63b8ff" d="M48.04,-615.64C53.78,-688.49 76.31,-928.82 127,-983.62 131.42,-988.41 137.03,-991.95 143.06,-994.56"/>
<polygon fill="#63b8ff" stroke="#63b8ff" points="51.55,-615.61 47.3,-605.91 44.57,-616.15 51.55,-615.61"/>
</a>
</g>
</g>
<!-- Node6 -->
<g id="Node000006" class="node">
<title>Node6</title>
<g id="a_Node000006"><a xlink:href="classdaFireWood2__HIO__c.html" target="_top" xlink:title=" ">
<polygon fill="white" stroke="#666666" points="243.5,-974.25 136.75,-974.25 136.75,-955 243.5,-955 243.5,-974.25"/>
<text text-anchor="middle" x="190.12" y="-960.75" font-family="Helvetica,sans-Serif" font-size="10.00">daFireWood2_HIO_c</text>
</a>
</g>
</g>
<!-- Node1&#45;&gt;Node6 -->
<g id="edge5_Node000001_Node000006" class="edge">
<title>Node1&#45;&gt;Node6</title>
<g id="a_edge5_Node000001_Node000006"><a xlink:title=" ">
<path fill="none" stroke="#63b8ff" d="M48.55,-615.81C55.59,-684.26 80.9,-897.81 127,-946.62 130.01,-949.81 133.54,-952.44 137.37,-954.61"/>
<polygon fill="#63b8ff" stroke="#63b8ff" points="52.05,-615.58 47.57,-605.98 45.08,-616.28 52.05,-615.58"/>
</a>
</g>
</g>
<!-- Node7 -->
<g id="Node000007" class="node">
<title>Node7</title>
<g id="a_Node000007"><a xlink:href="classdaFireWood__HIO__c.html" target="_top" xlink:title=" ">
<polygon fill="white" stroke="#666666" points="240.88,-937.25 139.38,-937.25 139.38,-918 240.88,-918 240.88,-937.25"/>
<text text-anchor="middle" x="190.12" y="-923.75" font-family="Helvetica,sans-Serif" font-size="10.00">daFireWood_HIO_c</text>
</a>
</g>
</g>
<!-- Node1&#45;&gt;Node7 -->
<g id="edge6_Node000001_Node000007" class="edge">
<title>Node1&#45;&gt;Node7</title>
<g id="a_edge6_Node000001_Node000007"><a xlink:title=" ">
<path fill="none" stroke="#63b8ff" d="M49.19,-616.04C57.63,-679.83 85.48,-866.76 127,-909.62 130.44,-913.17 134.53,-916.03 138.95,-918.34"/>
<polygon fill="#63b8ff" stroke="#63b8ff" points="52.68,-615.67 47.92,-606.2 45.73,-616.57 52.68,-615.67"/>
</a>
</g>
</g>
<!-- Node8 -->
<g id="Node000008" class="node">
<title>Node8</title>
<g id="a_Node000008"><a xlink:href="classdaHeavySw__HIO__c.html" target="_top" xlink:title=" ">
<polygon fill="white" stroke="#666666" points="241.25,-900.25 139,-900.25 139,-881 241.25,-881 241.25,-900.25"/>
<text text-anchor="middle" x="190.12" y="-886.75" font-family="Helvetica,sans-Serif" font-size="10.00">daHeavySw_HIO_c</text>
</a>
</g>
</g>
<!-- Node1&#45;&gt;Node8 -->
<g id="edge7_Node000001_Node000008" class="edge">
<title>Node1&#45;&gt;Node8</title>
<g id="a_edge7_Node000001_Node000008"><a xlink:title=" ">
<path fill="none" stroke="#63b8ff" d="M46.15,-615.95C46.5,-667.59 54.78,-800.4 127,-872.62 130.41,-876.04 134.43,-878.81 138.76,-881.07"/>
<polygon fill="#63b8ff" stroke="#63b8ff" points="49.65,-616.19 46.19,-606.17 42.65,-616.16 49.65,-616.19"/>
</a>
</g>
</g>
<!-- Node9 -->
<g id="Node000009" class="node">
<title>Node9</title>
<g id="a_Node000009"><a xlink:href="classdaHsTarget__HIO__c.html" target="_top" xlink:title=" ">
<polygon fill="white" stroke="#666666" points="240.5,-863.25 139.75,-863.25 139.75,-844 240.5,-844 240.5,-863.25"/>
<text text-anchor="middle" x="190.12" y="-849.75" font-family="Helvetica,sans-Serif" font-size="10.00">daHsTarget_HIO_c</text>
</a>
</g>
</g>
<!-- Node1&#45;&gt;Node9 -->
<g id="edge8_Node000001_Node000009" class="edge">
<title>Node1&#45;&gt;Node9</title>
<g id="a_edge8_Node000001_Node000009"><a xlink:title=" ">
<path fill="none" stroke="#8b1a1a" d="M47.27,-615.92C50.13,-662.62 63.6,-774.74 127,-835.62 130.64,-839.13 134.93,-841.95 139.51,-844.23"/>
<polygon fill="#8b1a1a" stroke="#8b1a1a" points="50.77,-615.9 46.78,-606.09 43.78,-616.25 50.77,-615.9"/>
</a>
</g>
</g>
<!-- Node10 -->
<g id="Node000010" class="node">
<title>Node10</title>
<g id="a_Node000010"><a xlink:href="classdaLv1Cdl00__HIO__c.html" target="_top" xlink:title=" ">
<polygon fill="white" stroke="#666666" points="240.88,-826.25 139.38,-826.25 139.38,-807 240.88,-807 240.88,-826.25"/>
<text text-anchor="middle" x="190.12" y="-812.75" font-family="Helvetica,sans-Serif" font-size="10.00">daLv1Cdl00_HIO_c</text>
</a>
</g>
</g>
<!-- Node1&#45;&gt;Node10 -->
<g id="edge9_Node000001_Node000010" class="edge">
<title>Node1&#45;&gt;Node10</title>
<g id="a_edge9_Node000001_Node000010"><a xlink:title=" ">
<path fill="none" stroke="#63b8ff" d="M48.73,-615.71C54.23,-656.99 72.26,-748.79 127,-798.62 130.57,-801.88 134.69,-804.54 139.09,-806.73"/>
<polygon fill="#63b8ff" stroke="#63b8ff" points="52.22,-615.42 47.56,-605.91 45.27,-616.25 52.22,-615.42"/>
</a>
</g>
</g>
<!-- Node11 -->
<g id="Node000011" class="node">
<title>Node11</title>
<g id="a_Node000011"><a xlink:href="classdaLv1Cdl01__HIO__c.html" target="_top" xlink:title=" ">
<polygon fill="white" stroke="#666666" points="240.88,-789.25 139.38,-789.25 139.38,-770 240.88,-770 240.88,-789.25"/>
<text text-anchor="middle" x="190.12" y="-775.75" font-family="Helvetica,sans-Serif" font-size="10.00">daLv1Cdl01_HIO_c</text>
</a>
</g>
</g>
<!-- Node1&#45;&gt;Node11 -->
<g id="edge10_Node000001_Node000011" class="edge">
<title>Node1&#45;&gt;Node11</title>
<g id="a_edge10_Node000001_Node000011"><a xlink:title=" ">
<path fill="none" stroke="#63b8ff" d="M50.76,-615.53C59.07,-650.92 80.83,-722.59 127,-761.62 130.77,-764.81 135.08,-767.44 139.64,-769.6"/>
<polygon fill="#63b8ff" stroke="#63b8ff" points="54.26,-615.13 48.69,-606.11 47.42,-616.63 54.26,-615.13"/>
</a>
</g>
</g>
<!-- Node12 -->
<g id="Node000012" class="node">
<title>Node12</title>
<g id="a_Node000012"><a xlink:href="classdaLv2Candle__HIO__c.html" target="_top" xlink:title=" ">
<polygon fill="white" stroke="#666666" points="243.5,-752.25 136.75,-752.25 136.75,-733 243.5,-733 243.5,-752.25"/>
<text text-anchor="middle" x="190.12" y="-738.75" font-family="Helvetica,sans-Serif" font-size="10.00">daLv2Candle_HIO_c</text>
</a>
</g>
</g>
<!-- Node1&#45;&gt;Node12 -->
<g id="edge11_Node000001_Node000012" class="edge">
<title>Node1&#45;&gt;Node12</title>
<g id="a_edge11_Node000001_Node000012"><a xlink:title=" ">
<path fill="none" stroke="#63b8ff" d="M53.64,-614.89C64.79,-643.61 89.09,-695.85 127,-724.62 131.2,-727.82 135.96,-730.44 140.92,-732.6"/>
<polygon fill="#63b8ff" stroke="#63b8ff" points="57.06,-614.06 50.3,-605.9 50.5,-616.5 57.06,-614.06"/>
</a>
</g>
</g>
<!-- Node13 -->
<g id="Node000013" class="node">
<title>Node13</title>
<g id="a_Node000013"><a xlink:href="classdaLv3Candle__HIO__c.html" target="_top" xlink:title=" ">
<polygon fill="white" stroke="#666666" points="243.5,-715.25 136.75,-715.25 136.75,-696 243.5,-696 243.5,-715.25"/>
<text text-anchor="middle" x="190.12" y="-701.75" font-family="Helvetica,sans-Serif" font-size="10.00">daLv3Candle_HIO_c</text>
</a>
</g>
</g>
<!-- Node1&#45;&gt;Node13 -->
<g id="edge12_Node000001_Node000013" class="edge">
<title>Node1&#45;&gt;Node13</title>
<g id="a_edge12_Node000001_Node000013"><a xlink:title=" ">
<path fill="none" stroke="#63b8ff" d="M58.51,-614.28C72.43,-635.44 97.31,-668.61 127,-687.62 131.92,-690.77 137.4,-693.39 143.02,-695.55"/>
<polygon fill="#63b8ff" stroke="#63b8ff" points="61.55,-612.55 53.23,-605.99 55.65,-616.3 61.55,-612.55"/>
</a>
</g>
</g>
<!-- Node14 -->
<g id="Node000014" class="node">
<title>Node14</title>
<g id="a_Node000014"><a xlink:href="classdaLv4Gate__HIO__c.html" target="_top" xlink:title=" ">
<polygon fill="white" stroke="#666666" points="239,-678.25 141.25,-678.25 141.25,-659 239,-659 239,-678.25"/>
<text text-anchor="middle" x="190.12" y="-664.75" font-family="Helvetica,sans-Serif" font-size="10.00">daLv4Gate_HIO_c</text>
</a>
</g>
</g>
<!-- Node1&#45;&gt;Node14 -->
<g id="edge13_Node000001_Node000014" class="edge">
<title>Node1&#45;&gt;Node14</title>
<g id="a_edge13_Node000001_Node000014"><a xlink:title=" ">
<path fill="none" stroke="#63b8ff" d="M67.05,-611.75C82.66,-624.03 105.11,-640.19 127,-650.62 133.39,-653.67 140.39,-656.31 147.32,-658.55"/>
<polygon fill="#63b8ff" stroke="#63b8ff" points="69.44,-609.18 59.46,-605.63 65.05,-614.63 69.44,-609.18"/>
</a>
</g>
</g>
<!-- Node15 -->
<g id="Node000015" class="node">
<title>Node15</title>
<g id="a_Node000015"><a xlink:href="classdaLv4HsTarget__HIO__c.html" target="_top" xlink:title=" ">
<polygon fill="white" stroke="#666666" points="248.75,-641.25 131.5,-641.25 131.5,-622 248.75,-622 248.75,-641.25"/>
<text text-anchor="middle" x="190.12" y="-627.75" font-family="Helvetica,sans-Serif" font-size="10.00">daLv4HsTarget_HIO_c</text>
</a>
</g>
</g>
<!-- Node1&#45;&gt;Node15 -->
<g id="edge14_Node000001_Node000015" class="edge">
<title>Node1&#45;&gt;Node15</title>
<g id="a_edge14_Node000001_Node000015"><a xlink:title=" ">
<path fill="none" stroke="#63b8ff" d="M96.44,-607.58C114.07,-612.15 133.62,-617.23 150.2,-621.53"/>
<polygon fill="#63b8ff" stroke="#63b8ff" points="97.5,-604.24 86.94,-605.12 95.74,-611.01 97.5,-604.24"/>
</a>
</g>
</g>
<!-- Node16 -->
<g id="Node000016" class="node">
<title>Node16</title>
<g id="a_Node000016"><a xlink:href="classdaLv4PoGate__HIO__c.html" target="_top" xlink:title=" ">
<polygon fill="white" stroke="#666666" points="245,-604.25 135.25,-604.25 135.25,-585 245,-585 245,-604.25"/>
<text text-anchor="middle" x="190.12" y="-590.75" font-family="Helvetica,sans-Serif" font-size="10.00">daLv4PoGate_HIO_c</text>
</a>
</g>
</g>
<!-- Node1&#45;&gt;Node16 -->
<g id="edge15_Node000001_Node000016" class="edge">
<title>Node1&#45;&gt;Node16</title>
<g id="a_edge15_Node000001_Node000016"><a xlink:title=" ">
<path fill="none" stroke="#63b8ff" d="M102.52,-594.62C113.13,-594.62 124.22,-594.62 134.78,-594.62"/>
<polygon fill="#63b8ff" stroke="#63b8ff" points="102.75,-591.13 92.75,-594.63 102.75,-598.13 102.75,-591.13"/>
</a>
</g>
</g>
<!-- Node17 -->
<g id="Node000017" class="node">
<title>Node17</title>
<g id="a_Node000017"><a xlink:href="classdaLv6CstaSw__HIO__c.html" target="_top" xlink:title=" ">
<polygon fill="white" stroke="#666666" points="245.75,-567.25 134.5,-567.25 134.5,-548 245.75,-548 245.75,-567.25"/>
<text text-anchor="middle" x="190.12" y="-553.75" font-family="Helvetica,sans-Serif" font-size="10.00">daLv6CstaSw_HIO_c</text>
</a>
</g>
</g>
<!-- Node1&#45;&gt;Node17 -->
<g id="edge16_Node000001_Node000017" class="edge">
<title>Node1&#45;&gt;Node17</title>
<g id="a_edge16_Node000001_Node000017"><a xlink:title=" ">
<path fill="none" stroke="#63b8ff" d="M96.44,-581.67C114.07,-577.1 133.62,-572.02 150.2,-567.72"/>
<polygon fill="#63b8ff" stroke="#63b8ff" points="95.74,-578.24 86.94,-584.13 97.5,-585.01 95.74,-578.24"/>
</a>
</g>
</g>
<!-- Node18 -->
<g id="Node000018" class="node">
<title>Node18</title>
<g id="a_Node000018"><a xlink:href="classdaMagLiftRot__HIO__c.html" target="_top" xlink:title=" ">
<polygon fill="white" stroke="#666666" points="244.25,-530.25 136,-530.25 136,-511 244.25,-511 244.25,-530.25"/>
<text text-anchor="middle" x="190.12" y="-516.75" font-family="Helvetica,sans-Serif" font-size="10.00">daMagLiftRot_HIO_c</text>
</a>
</g>
</g>
<!-- Node1&#45;&gt;Node18 -->
<g id="edge17_Node000001_Node000018" class="edge">
<title>Node1&#45;&gt;Node18</title>
<g id="a_edge17_Node000001_Node000018"><a xlink:title=" ">
<path fill="none" stroke="#63b8ff" d="M67.05,-577.5C82.66,-565.22 105.11,-549.06 127,-538.62 133.39,-535.58 140.39,-532.94 147.32,-530.7"/>
<polygon fill="#63b8ff" stroke="#63b8ff" points="65.05,-574.62 59.46,-583.62 69.44,-580.07 65.05,-574.62"/>
</a>
</g>
</g>
<!-- Node19 -->
<g id="Node000019" class="node">
<title>Node19</title>
<g id="a_Node000019"><a xlink:href="classdaMyna__HIO__c.html" target="_top" xlink:title=" ">
<polygon fill="white" stroke="#666666" points="231.88,-493.25 148.38,-493.25 148.38,-474 231.88,-474 231.88,-493.25"/>
<text text-anchor="middle" x="190.12" y="-479.75" font-family="Helvetica,sans-Serif" font-size="10.00">daMyna_HIO_c</text>
</a>
</g>
</g>
<!-- Node1&#45;&gt;Node19 -->
<g id="edge18_Node000001_Node000019" class="edge">
<title>Node1&#45;&gt;Node19</title>
<g id="a_edge18_Node000001_Node000019"><a xlink:title=" ">
<path fill="none" stroke="#63b8ff" d="M58.51,-574.97C72.43,-553.81 97.31,-520.64 127,-501.62 133.34,-497.57 140.61,-494.4 147.9,-491.94"/>
<polygon fill="#63b8ff" stroke="#63b8ff" points="55.65,-572.95 53.23,-583.26 61.55,-576.7 55.65,-572.95"/>
</a>
</g>
</g>
<!-- Node20 -->
<g id="Node000020" class="node">
<title>Node20</title>
<g id="a_Node000020"><a xlink:href="structdaSaidan__HIO__c.html" target="_top" xlink:title=" ">
<polygon fill="white" stroke="#666666" points="235.25,-456.25 145,-456.25 145,-437 235.25,-437 235.25,-456.25"/>
<text text-anchor="middle" x="190.12" y="-442.75" font-family="Helvetica,sans-Serif" font-size="10.00">daSaidan_HIO_c</text>
</a>
</g>
</g>
<!-- Node1&#45;&gt;Node20 -->
<g id="edge19_Node000001_Node000020" class="edge">
<title>Node1&#45;&gt;Node20</title>
<g id="a_edge19_Node000001_Node000020"><a xlink:title=" ">
<path fill="none" stroke="#63b8ff" d="M53.64,-574.36C64.79,-545.64 89.09,-493.4 127,-464.62 132.28,-460.62 138.42,-457.5 144.75,-455.08"/>
<polygon fill="#63b8ff" stroke="#63b8ff" points="50.5,-572.75 50.3,-583.35 57.06,-575.19 50.5,-572.75"/>
</a>
</g>
</g>
<!-- Node21 -->
<g id="Node000021" class="node">
<title>Node21</title>
<g id="a_Node000021"><a xlink:href="classdaSnowEffTag__HIO__c.html" target="_top" xlink:title=" ">
<polygon fill="white" stroke="#666666" points="246.5,-419.25 133.75,-419.25 133.75,-400 246.5,-400 246.5,-419.25"/>
<text text-anchor="middle" x="190.12" y="-405.75" font-family="Helvetica,sans-Serif" font-size="10.00">daSnowEffTag_HIO_c</text>
</a>
</g>
</g>
<!-- Node1&#45;&gt;Node21 -->
<g id="edge20_Node000001_Node000021" class="edge">
<title>Node1&#45;&gt;Node21</title>
<g id="a_edge20_Node000001_Node000021"><a xlink:title=" ">
<path fill="none" stroke="#63b8ff" d="M50.76,-573.72C59.07,-538.33 80.83,-466.66 127,-427.62 130.77,-424.44 135.08,-421.81 139.64,-419.65"/>
<polygon fill="#63b8ff" stroke="#63b8ff" points="47.42,-572.62 48.69,-583.14 54.26,-574.12 47.42,-572.62"/>
</a>
</g>
</g>
<!-- Node22 -->
<g id="Node000022" class="node">
<title>Node22</title>
<g id="a_Node000022"><a xlink:href="classdaSwShutter__HIO__c.html" target="_top" xlink:title=" ">
<polygon fill="white" stroke="#666666" points="243.12,-382.25 137.12,-382.25 137.12,-363 243.12,-363 243.12,-382.25"/>
<text text-anchor="middle" x="190.12" y="-368.75" font-family="Helvetica,sans-Serif" font-size="10.00">daSwShutter_HIO_c</text>
</a>
</g>
</g>
<!-- Node1&#45;&gt;Node22 -->
<g id="edge21_Node000001_Node000022" class="edge">
<title>Node1&#45;&gt;Node22</title>
<g id="a_edge21_Node000001_Node000022"><a xlink:title=" ">
<path fill="none" stroke="#63b8ff" d="M48.73,-573.54C54.23,-532.26 72.26,-440.46 127,-390.62 130.49,-387.45 134.5,-384.83 138.78,-382.67"/>
<polygon fill="#63b8ff" stroke="#63b8ff" points="45.27,-573 47.56,-583.34 52.22,-573.83 45.27,-573"/>
</a>
</g>
</g>
<!-- Node23 -->
<g id="Node000023" class="node">
<title>Node23</title>
<g id="a_Node000023"><a xlink:href="classdaTagCstaSw__HIO__c.html" target="_top" xlink:title=" ">
<polygon fill="white" stroke="#666666" points="245.75,-345.25 134.5,-345.25 134.5,-326 245.75,-326 245.75,-345.25"/>
<text text-anchor="middle" x="190.12" y="-331.75" font-family="Helvetica,sans-Serif" font-size="10.00">daTagCstaSw_HIO_c</text>
</a>
</g>
</g>
<!-- Node1&#45;&gt;Node23 -->
<g id="edge22_Node000001_Node000023" class="edge">
<title>Node1&#45;&gt;Node23</title>
<g id="a_edge22_Node000001_Node000023"><a xlink:title=" ">
<path fill="none" stroke="#63b8ff" d="M47.27,-573.33C50.13,-526.63 63.6,-414.51 127,-353.62 130.32,-350.44 134.17,-347.81 138.3,-345.64"/>
<polygon fill="#63b8ff" stroke="#63b8ff" points="43.78,-573 46.78,-583.16 50.77,-573.35 43.78,-573"/>
</a>
</g>
</g>
<!-- Node24 -->
<g id="Node000024" class="node">
<title>Node24</title>
<g id="a_Node000024"><a xlink:href="classdaTagPoFire__HIO__c.html" target="_top" xlink:title=" ">
<polygon fill="white" stroke="#666666" points="242.75,-308.25 137.5,-308.25 137.5,-289 242.75,-289 242.75,-308.25"/>
<text text-anchor="middle" x="190.12" y="-294.75" font-family="Helvetica,sans-Serif" font-size="10.00">daTagPoFire_HIO_c</text>
</a>
</g>
</g>
<!-- Node1&#45;&gt;Node24 -->
<g id="edge23_Node000001_Node000024" class="edge">
<title>Node1&#45;&gt;Node24</title>
<g id="a_edge23_Node000001_Node000024"><a xlink:title=" ">
<path fill="none" stroke="#63b8ff" d="M46.15,-573.3C46.5,-521.66 54.78,-388.85 127,-316.62 130.18,-313.45 133.88,-310.83 137.86,-308.66"/>
<polygon fill="#63b8ff" stroke="#63b8ff" points="42.65,-573.09 46.19,-583.08 49.65,-573.06 42.65,-573.09"/>
</a>
</g>
</g>
<!-- Node25 -->
<g id="Node000025" class="node">
<title>Node25</title>
<g id="a_Node000025"><a xlink:href="classdaTbox__HIO__c.html" target="_top" xlink:title=" ">
<polygon fill="white" stroke="#666666" points="230.75,-271.25 149.5,-271.25 149.5,-252 230.75,-252 230.75,-271.25"/>
<text text-anchor="middle" x="190.12" y="-257.75" font-family="Helvetica,sans-Serif" font-size="10.00">daTbox_HIO_c</text>
</a>
</g>
</g>
<!-- Node1&#45;&gt;Node25 -->
<g id="edge24_Node000001_Node000025" class="edge">
<title>Node1&#45;&gt;Node25</title>
<g id="a_edge24_Node000001_Node000025"><a xlink:title=" ">
<path fill="none" stroke="#8b1a1a" d="M49.19,-573.21C57.63,-509.42 85.48,-322.49 127,-279.62 133.02,-273.41 141.03,-269.31 149.3,-266.61"/>
<polygon fill="#8b1a1a" stroke="#8b1a1a" points="45.73,-572.68 47.92,-583.05 52.68,-573.58 45.73,-572.68"/>
</a>
</g>
</g>
<!-- Node26 -->
<g id="Node000026" class="node">
<title>Node26</title>
<g id="a_Node000026"><a xlink:href="classdaZrTuraRc__HIO__c.html" target="_top" xlink:title=" ">
<polygon fill="white" stroke="#666666" points="240.5,-234.25 139.75,-234.25 139.75,-215 240.5,-215 240.5,-234.25"/>
<text text-anchor="middle" x="190.12" y="-220.75" font-family="Helvetica,sans-Serif" font-size="10.00">daZrTuraRc_HIO_c</text>
</a>
</g>
</g>
<!-- Node1&#45;&gt;Node26 -->
<g id="edge25_Node000001_Node000026" class="edge">
<title>Node1&#45;&gt;Node26</title>
<g id="a_edge25_Node000001_Node000026"><a xlink:title=" ">
<path fill="none" stroke="#63b8ff" d="M48.55,-573.44C55.59,-504.99 80.9,-291.44 127,-242.62 130.55,-238.87 134.82,-235.88 139.46,-233.51"/>
<polygon fill="#63b8ff" stroke="#63b8ff" points="45.08,-572.97 47.57,-583.27 52.05,-573.67 45.08,-572.97"/>
</a>
</g>
</g>
<!-- Node27 -->
<g id="Node000027" class="node">
<title>Node27</title>
<g id="a_Node000027"><a xlink:href="classdaZrTurara__HIO__c.html" target="_top" xlink:title=" ">
<polygon fill="white" stroke="#666666" points="238.62,-197.25 141.62,-197.25 141.62,-178 238.62,-178 238.62,-197.25"/>
<text text-anchor="middle" x="190.12" y="-183.75" font-family="Helvetica,sans-Serif" font-size="10.00">daZrTurara_HIO_c</text>
</a>
</g>
</g>
<!-- Node1&#45;&gt;Node27 -->
<g id="edge26_Node000001_Node000027" class="edge">
<title>Node1&#45;&gt;Node27</title>
<g id="a_edge26_Node000001_Node000027"><a xlink:title=" ">
<path fill="none" stroke="#63b8ff" d="M48.04,-573.61C53.78,-500.76 76.31,-260.43 127,-205.62 130.96,-201.34 135.88,-198.05 141.2,-195.53"/>
<polygon fill="#63b8ff" stroke="#63b8ff" points="44.57,-573.1 47.3,-583.34 51.55,-573.64 44.57,-573.1"/>
</a>
</g>
</g>
<!-- Node28 -->
<g id="Node000028" class="node">
<title>Node28</title>
<g id="a_Node000028"><a xlink:href="classdalv4CandleDemoTag__HIO__c.html" target="_top" xlink:title=" ">
<polygon fill="white" stroke="#666666" points="245.75,-159.88 134.5,-159.88 134.5,-129.38 245.75,-129.38 245.75,-159.88"/>
<text text-anchor="start" x="142.5" y="-146.38" font-family="Helvetica,sans-Serif" font-size="10.00">dalv4CandleDemoTag</text>
<text text-anchor="middle" x="190.12" y="-135.12" font-family="Helvetica,sans-Serif" font-size="10.00">_HIO_c</text>
</a>
</g>
</g>
<!-- Node1&#45;&gt;Node28 -->
<g id="edge27_Node000001_Node000028" class="edge">
<title>Node1&#45;&gt;Node28</title>
<g id="a_edge27_Node000001_Node000028"><a xlink:title=" ">
<path fill="none" stroke="#63b8ff" d="M47.83,-573.31C53.06,-496 74.52,-231.64 127,-168.62 129.66,-165.43 132.81,-162.65 136.24,-160.25"/>
<polygon fill="#63b8ff" stroke="#63b8ff" points="44.34,-573.05 47.18,-583.26 51.33,-573.51 44.34,-573.05"/>
</a>
</g>
</g>
<!-- Node29 -->
<g id="Node000029" class="node">
<title>Node29</title>
<g id="a_Node000029"><a xlink:href="classdalv4CandleTag__HIO__c.html" target="_top" xlink:title=" ">
<polygon fill="white" stroke="#666666" points="249.88,-111.25 130.38,-111.25 130.38,-92 249.88,-92 249.88,-111.25"/>
<text text-anchor="middle" x="190.12" y="-97.75" font-family="Helvetica,sans-Serif" font-size="10.00">dalv4CandleTag_HIO_c</text>
</a>
</g>
</g>
<!-- Node1&#45;&gt;Node29 -->
<g id="edge28_Node000001_Node000029" class="edge">
<title>Node1&#45;&gt;Node29</title>
<g id="a_edge28_Node000001_Node000029"><a xlink:title=" ">
<path fill="none" stroke="#63b8ff" d="M47.22,-573.48C50.47,-490.68 66.32,-189.65 127,-120.62 130.2,-116.98 134.08,-114.03 138.32,-111.63"/>
<polygon fill="#63b8ff" stroke="#63b8ff" points="43.73,-573.19 46.86,-583.31 50.73,-573.45 43.73,-573.19"/>
</a>
</g>
</g>
<!-- Node30 -->
<g id="Node000030" class="node">
<title>Node30</title>
<g id="a_Node000030"><a xlink:href="structfOpAcm__HIO__entry__c.html" target="_top" xlink:title=" ">
<polygon fill="white" stroke="#666666" points="246.12,-74.25 134.12,-74.25 134.12,-55 246.12,-55 246.12,-74.25"/>
<text text-anchor="middle" x="190.12" y="-60.75" font-family="Helvetica,sans-Serif" font-size="10.00">fOpAcm_HIO_entry_c</text>
</a>
</g>
</g>
<!-- Node1&#45;&gt;Node30 -->
<g id="edge29_Node000001_Node000030" class="edge">
<title>Node1&#45;&gt;Node30</title>
<g id="a_edge29_Node000001_Node000030"><a xlink:title=" ">
<path fill="none" stroke="#63b8ff" d="M46.9,-573.45C48.96,-486.44 61.08,-157.43 127,-82.62 129.82,-79.42 133.17,-76.78 136.84,-74.59"/>
<polygon fill="#63b8ff" stroke="#63b8ff" points="43.4,-573.29 46.69,-583.36 50.4,-573.44 43.4,-573.29"/>
</a>
</g>
</g>
<!-- Node31 -->
<g id="Node000031" class="node">
<title>Node31</title>
<g id="a_Node000031"><a xlink:href="classdaBmWindow__HIO__c.html" target="_top" xlink:title=" ">
<polygon fill="white" stroke="#666666" points="399,-130.25 289.25,-130.25 289.25,-111 399,-111 399,-130.25"/>
<text text-anchor="middle" x="344.12" y="-116.75" font-family="Helvetica,sans-Serif" font-size="10.00">daBmWindow_HIO_c</text>
</a>
</g>
</g>
<!-- Node30&#45;&gt;Node31 -->
<g id="edge30_Node000030_Node000031" class="edge">
<title>Node30&#45;&gt;Node31</title>
<g id="a_edge30_Node000030_Node000031"><a xlink:title=" ">
<path fill="none" stroke="#63b8ff" d="M241.95,-78.32C245.81,-79.67 249.62,-81.11 253.25,-82.62 270.15,-89.66 272.5,-95.25 289.25,-102.62 295.75,-105.49 302.85,-108.16 309.71,-110.53"/>
<polygon fill="#63b8ff" stroke="#63b8ff" points="243.05,-75 232.46,-75.21 240.87,-81.65 243.05,-75"/>
</a>
</g>
</g>
<!-- Node32 -->
<g id="Node000032" class="node">
<title>Node32</title>
<g id="a_Node000032"><a xlink:href="classdaFlorBoad__HIO__c.html" target="_top" xlink:title=" ">
<polygon fill="white" stroke="#666666" points="393.75,-93.25 294.5,-93.25 294.5,-74 393.75,-74 393.75,-93.25"/>
<text text-anchor="middle" x="344.12" y="-79.75" font-family="Helvetica,sans-Serif" font-size="10.00">daFlorBoad_HIO_c</text>
</a>
</g>
</g>
<!-- Node30&#45;&gt;Node32 -->
<g id="edge31_Node000030_Node000032" class="edge">
<title>Node30&#45;&gt;Node32</title>
<g id="a_edge31_Node000030_Node000032"><a xlink:title=" ">
<path fill="none" stroke="#63b8ff" d="M257.58,-72.93C269.87,-74.47 282.5,-76.05 294.15,-77.5"/>
<polygon fill="#63b8ff" stroke="#63b8ff" points="258.29,-69.49 247.93,-71.73 257.42,-76.44 258.29,-69.49"/>
</a>
</g>
</g>
<!-- Node33 -->
<g id="Node000033" class="node">
<title>Node33</title>
<g id="a_Node000033"><a xlink:href="classdaIceWall__HIO__c.html" target="_top" xlink:title=" ">
<polygon fill="white" stroke="#666666" points="390.38,-56.25 297.88,-56.25 297.88,-37 390.38,-37 390.38,-56.25"/>
<text text-anchor="middle" x="344.12" y="-42.75" font-family="Helvetica,sans-Serif" font-size="10.00">daIceWall_HIO_c</text>
</a>
</g>
</g>
<!-- Node30&#45;&gt;Node33 -->
<g id="edge32_Node000030_Node000033" class="edge">
<title>Node30&#45;&gt;Node33</title>
<g id="a_edge32_Node000030_Node000033"><a xlink:title=" ">
<path fill="none" stroke="#63b8ff" d="M257.63,-56.75C271.13,-55.15 285.02,-53.51 297.59,-52.02"/>
<polygon fill="#63b8ff" stroke="#63b8ff" points="257.45,-53.25 247.93,-57.9 258.28,-60.2 257.45,-53.25"/>
</a>
</g>
</g>
<!-- Node34 -->
<g id="Node000034" class="node">
<title>Node34</title>
<g id="a_Node000034"><a xlink:href="classdaLv5SwIce__HIO__c.html" target="_top" xlink:title=" ">
<polygon fill="white" stroke="#666666" points="396.38,-19.25 291.88,-19.25 291.88,0 396.38,0 396.38,-19.25"/>
<text text-anchor="middle" x="344.12" y="-5.75" font-family="Helvetica,sans-Serif" font-size="10.00">daLv5SwIce_HIO_c</text>
</a>
</g>
</g>
<!-- Node30&#45;&gt;Node34 -->
<g id="edge33_Node000030_Node000034" class="edge">
<title>Node30&#45;&gt;Node34</title>
<g id="a_edge33_Node000030_Node000034"><a xlink:title=" ">
<path fill="none" stroke="#63b8ff" d="M227.44,-50.56C245.89,-43.5 268.7,-34.93 289.25,-27.62 296.68,-24.98 304.73,-22.23 312.29,-19.7"/>
<polygon fill="#63b8ff" stroke="#63b8ff" points="226.35,-47.22 218.26,-54.08 228.85,-53.76 226.35,-47.22"/>
</a>
</g>
</g>
</g>
</svg>
