<?xml version="1.0" encoding="UTF-8" standalone="no"?>
<!DOCTYPE svg PUBLIC "-//W3C//DTD SVG 1.1//EN"
 "http://www.w3.org/Graphics/SVG/1.1/DTD/svg11.dtd">
<!-- Generated by graphviz version 9.0.0 (20230911.1827)
 -->
<!-- Title: dBgS_CamGndChk_Wtr Pages: 1 -->
<svg width="525pt" height="400pt"
 viewBox="0.00 0.00 524.88 399.75" xmlns="http://www.w3.org/2000/svg" xmlns:xlink="http://www.w3.org/1999/xlink">
<g id="graph0" class="graph" transform="scale(1 1) rotate(0) translate(4 395.75)">
<title>dBgS_CamGndChk_Wtr</title>
<!-- Node1 -->
<g id="Node000001" class="node">
<title>Node1</title>
<g id="a_Node000001"><a xlink:title=" ">
<polygon fill="#999999" stroke="#666666" points="297.88,-19.25 176.88,-19.25 176.88,0 297.88,0 297.88,-19.25"/>
<text text-anchor="middle" x="237.38" y="-5.75" font-family="Helvetica,sans-Serif" font-size="10.00">dBgS_CamGndChk_Wtr</text>
</a>
</g>
</g>
<!-- Node2 -->
<g id="Node000002" class="node">
<title>Node2</title>
<g id="a_Node000002"><a xlink:href="classdBgS__CamGndChk.html" target="_top" xlink:title=" ">
<polygon fill="white" stroke="#666666" points="287.75,-75.5 187,-75.5 187,-56.25 287.75,-56.25 287.75,-75.5"/>
<text text-anchor="middle" x="237.38" y="-62" font-family="Helvetica,sans-Serif" font-size="10.00">dBgS_CamGndChk</text>
</a>
</g>
</g>
<!-- Node2&#45;&gt;Node1 -->
<g id="edge1_Node000001_Node000002" class="edge">
<title>Node2&#45;&gt;Node1</title>
<g id="a_edge1_Node000001_Node000002"><a xlink:title=" ">
<path fill="none" stroke="#63b8ff" d="M237.38,-44.69C237.38,-35.98 237.38,-26.24 237.38,-19.42"/>
<polygon fill="#63b8ff" stroke="#63b8ff" points="233.88,-44.4 237.38,-54.4 240.88,-44.4 233.88,-44.4"/>
</a>
</g>
</g>
<!-- Node3 -->
<g id="Node000003" class="node">
<title>Node3</title>
<g id="a_Node000003"><a xlink:href="structdBgS__GndChk.html" target="_top" xlink:title=" ">
<polygon fill="white" stroke="#666666" points="277.62,-131.75 197.12,-131.75 197.12,-112.5 277.62,-112.5 277.62,-131.75"/>
<text text-anchor="middle" x="237.38" y="-118.25" font-family="Helvetica,sans-Serif" font-size="10.00">dBgS_GndChk</text>
</a>
</g>
</g>
<!-- Node3&#45;&gt;Node2 -->
<g id="edge2_Node000002_Node000003" class="edge">
<title>Node3&#45;&gt;Node2</title>
<g id="a_edge2_Node000002_Node000003"><a xlink:title=" ">
<path fill="none" stroke="#63b8ff" d="M237.38,-100.94C237.38,-92.23 237.38,-82.49 237.38,-75.67"/>
<polygon fill="#63b8ff" stroke="#63b8ff" points="233.88,-100.65 237.38,-110.65 240.88,-100.65 233.88,-100.65"/>
</a>
</g>
</g>
<!-- Node4 -->
<g id="Node000004" class="node">
<title>Node4</title>
<g id="a_Node000004"><a xlink:href="structcBgS__GndChk.html" target="_top" xlink:title=" ">
<polygon fill="white" stroke="#666666" points="349.62,-188 269.12,-188 269.12,-168.75 349.62,-168.75 349.62,-188"/>
<text text-anchor="middle" x="309.38" y="-174.5" font-family="Helvetica,sans-Serif" font-size="10.00">cBgS_GndChk</text>
</a>
</g>
</g>
<!-- Node4&#45;&gt;Node3 -->
<g id="edge3_Node000003_Node000004" class="edge">
<title>Node4&#45;&gt;Node3</title>
<g id="a_edge3_Node000003_Node000004"><a xlink:title=" ">
<path fill="none" stroke="#63b8ff" d="M288.42,-161.59C275.6,-151.92 259.66,-139.92 249.04,-131.92"/>
<polygon fill="#63b8ff" stroke="#63b8ff" points="286.18,-164.28 296.28,-167.51 290.4,-158.69 286.18,-164.28"/>
</a>
</g>
</g>
<!-- Node5 -->
<g id="Node000005" class="node">
<title>Node5</title>
<g id="a_Node000005"><a xlink:href="classcBgS__Chk.html" target="_top" xlink:title=" ">
<polygon fill="white" stroke="#666666" points="401.62,-289.88 339.12,-289.88 339.12,-270.62 401.62,-270.62 401.62,-289.88"/>
<text text-anchor="middle" x="370.38" y="-276.38" font-family="Helvetica,sans-Serif" font-size="10.00">cBgS_Chk</text>
</a>
</g>
</g>
<!-- Node5&#45;&gt;Node4 -->
<g id="edge4_Node000004_Node000005" class="edge">
<title>Node5&#45;&gt;Node4</title>
<g id="a_edge4_Node000004_Node000005"><a xlink:title=" ">
<path fill="none" stroke="#63b8ff" d="M359.08,-260.76C345.95,-239.26 324.8,-204.63 314.86,-188.36"/>
<polygon fill="#63b8ff" stroke="#63b8ff" points="355.97,-262.39 364.17,-269.1 361.95,-258.74 355.97,-262.39"/>
</a>
</g>
</g>
<!-- Node6 -->
<g id="Node000006" class="node">
<title>Node6</title>
<g id="a_Node000006"><a xlink:href="classcBgS__PolyPassChk.html" target="_top" xlink:title=" ">
<polygon fill="white" stroke="#666666" points="332.25,-391.75 228.5,-391.75 228.5,-372.5 332.25,-372.5 332.25,-391.75"/>
<text text-anchor="middle" x="280.38" y="-378.25" font-family="Helvetica,sans-Serif" font-size="10.00">cBgS_PolyPassChk</text>
</a>
</g>
</g>
<!-- Node6&#45;&gt;Node5 -->
<g id="edge5_Node000005_Node000006" class="edge">
<title>Node6&#45;&gt;Node5</title>
<g id="a_edge5_Node000005_Node000006"><a xlink:title=" ">
<path fill="none" stroke="#9a32cd" stroke-dasharray="5,2" d="M295.98,-363.8C315.27,-342.4 347.35,-306.8 362.28,-290.24"/>
<polygon fill="#9a32cd" stroke="#9a32cd" points="293.47,-361.37 289.38,-371.14 298.67,-366.05 293.47,-361.37"/>
</a>
</g>
<text text-anchor="middle" x="346.88" y="-345" font-family="Helvetica,sans-Serif" font-size="10.00" fill="grey"> mPolyPassChk</text>
</g>
<!-- Node12 -->
<g id="Node000012" class="node">
<title>Node12</title>
<g id="a_Node000012"><a xlink:href="structdBgS__PolyPassChk.html" target="_top" xlink:title=" ">
<polygon fill="white" stroke="#666666" points="222.25,-289.88 118.5,-289.88 118.5,-270.62 222.25,-270.62 222.25,-289.88"/>
<text text-anchor="middle" x="170.38" y="-276.38" font-family="Helvetica,sans-Serif" font-size="10.00">dBgS_PolyPassChk</text>
</a>
</g>
</g>
<!-- Node6&#45;&gt;Node12 -->
<g id="edge13_Node000012_Node000006" class="edge">
<title>Node6&#45;&gt;Node12</title>
<g id="a_edge13_Node000012_Node000006"><a xlink:title=" ">
<path fill="none" stroke="#63b8ff" d="M262.24,-364.66C238.79,-343.36 198.76,-307.02 180.27,-290.24"/>
<polygon fill="#63b8ff" stroke="#63b8ff" points="259.74,-367.11 269.49,-371.24 264.44,-361.93 259.74,-367.11"/>
</a>
</g>
</g>
<!-- Node7 -->
<g id="Node000007" class="node">
<title>Node7</title>
<g id="a_Node000007"><a xlink:href="classcBgS__GrpPassChk.html" target="_top" xlink:title=" ">
<polygon fill="white" stroke="#666666" points="165.75,-391.75 65,-391.75 65,-372.5 165.75,-372.5 165.75,-391.75"/>
<text text-anchor="middle" x="115.38" y="-378.25" font-family="Helvetica,sans-Serif" font-size="10.00">cBgS_GrpPassChk</text>
</a>
</g>
</g>
<!-- Node7&#45;&gt;Node5 -->
<g id="edge6_Node000005_Node000007" class="edge">
<title>Node7&#45;&gt;Node5</title>
<g id="a_edge6_Node000005_Node000007"><a xlink:title=" ">
<path fill="none" stroke="#9a32cd" stroke-dasharray="5,2" d="M151.47,-368.52C175.13,-360.56 206.85,-350.46 235.38,-343.25 276.62,-332.83 292.15,-345.83 329.38,-325.25 344.73,-316.76 357.59,-300.47 364.61,-290.27"/>
<polygon fill="#9a32cd" stroke="#9a32cd" points="150.65,-365.1 142.31,-371.64 152.9,-371.73 150.65,-365.1"/>
</a>
</g>
<text text-anchor="middle" x="268.38" y="-345" font-family="Helvetica,sans-Serif" font-size="10.00" fill="grey"> mGrpPassChk</text>
</g>
<!-- Node13 -->
<g id="Node000013" class="node">
<title>Node13</title>
<g id="a_Node000013"><a xlink:href="classdBgS__GrpPassChk.html" target="_top" xlink:title=" ">
<polygon fill="white" stroke="#666666" points="100.75,-289.88 0,-289.88 0,-270.62 100.75,-270.62 100.75,-289.88"/>
<text text-anchor="middle" x="50.38" y="-276.38" font-family="Helvetica,sans-Serif" font-size="10.00">dBgS_GrpPassChk</text>
</a>
</g>
</g>
<!-- Node7&#45;&gt;Node13 -->
<g id="edge15_Node000013_Node000007" class="edge">
<title>Node7&#45;&gt;Node13</title>
<g id="a_edge15_Node000013_Node000007"><a xlink:title=" ">
<path fill="none" stroke="#63b8ff" d="M103.34,-362.64C89.35,-341.13 66.81,-306.5 56.22,-290.24"/>
<polygon fill="#63b8ff" stroke="#63b8ff" points="100.39,-364.52 108.78,-370.99 106.26,-360.7 100.39,-364.52"/>
</a>
</g>
</g>
<!-- Node8 -->
<g id="Node000008" class="node">
<title>Node8</title>
<g id="a_Node000008"><a xlink:href="structcBgS__PolyInfo.html" target="_top" xlink:title=" ">
<polygon fill="white" stroke="#666666" points="320.62,-289.88 240.12,-289.88 240.12,-270.62 320.62,-270.62 320.62,-289.88"/>
<text text-anchor="middle" x="280.38" y="-276.38" font-family="Helvetica,sans-Serif" font-size="10.00">cBgS_PolyInfo</text>
</a>
</g>
</g>
<!-- Node8&#45;&gt;Node4 -->
<g id="edge7_Node000004_Node000008" class="edge">
<title>Node8&#45;&gt;Node4</title>
<g id="a_edge7_Node000004_Node000008"><a xlink:title=" ">
<path fill="none" stroke="#63b8ff" d="M286.09,-259.57C292.35,-238 302.13,-204.33 306.77,-188.36"/>
<polygon fill="#63b8ff" stroke="#63b8ff" points="282.8,-258.35 283.37,-268.93 289.52,-260.31 282.8,-258.35"/>
</a>
</g>
</g>
<!-- Node9 -->
<g id="Node000009" class="node">
<title>Node9</title>
<g id="a_Node000009"><a xlink:href="structcXyz.html" target="_top" xlink:title=" ">
<polygon fill="white" stroke="#666666" points="456.88,-289.88 419.88,-289.88 419.88,-270.62 456.88,-270.62 456.88,-289.88"/>
<text text-anchor="middle" x="438.38" y="-276.38" font-family="Helvetica,sans-Serif" font-size="10.00">cXyz</text>
</a>
</g>
</g>
<!-- Node9&#45;&gt;Node4 -->
<g id="edge8_Node000004_Node000009" class="edge">
<title>Node9&#45;&gt;Node4</title>
<g id="a_edge8_Node000004_Node000009"><a xlink:title=" ">
<path fill="none" stroke="#9a32cd" stroke-dasharray="5,2" d="M429.03,-260.19C424.27,-251.83 417.9,-242.32 410.38,-235.25 387.6,-213.83 355.08,-197.77 333.14,-188.49"/>
<polygon fill="#9a32cd" stroke="#9a32cd" points="425.86,-261.67 433.61,-268.89 432.05,-258.41 425.86,-261.67"/>
</a>
</g>
<text text-anchor="middle" x="402.12" y="-207.75" font-family="Helvetica,sans-Serif" font-size="10.00" fill="grey"> m_pos</text>
</g>
<!-- Node9&#45;&gt;Node9 -->
<g id="edge10_Node000009_Node000009" class="edge">
<title>Node9&#45;&gt;Node9</title>
<g id="a_edge10_Node000009_Node000009"><a xlink:title=" ">
<path fill="none" stroke="#9a32cd" stroke-dasharray="5,2" d="M460.96,-293.12C468.67,-293.2 474.88,-288.91 474.88,-280.25 474.88,-267.65 461.75,-264.3 449.96,-270.21"/>
<polygon fill="#9a32cd" stroke="#9a32cd" points="461.98,-289.76 451.43,-290.67 460.24,-296.54 461.98,-289.76"/>
</a>
</g>
<text text-anchor="middle" x="495.88" y="-315.75" font-family="Helvetica,sans-Serif" font-size="10.00" fill="grey"> BaseX</text>
<text text-anchor="middle" x="495.88" y="-304.5" font-family="Helvetica,sans-Serif" font-size="10.00" fill="grey">BaseXY</text>
<text text-anchor="middle" x="495.88" y="-293.25" font-family="Helvetica,sans-Serif" font-size="10.00" fill="grey">BaseXYZ</text>
<text text-anchor="middle" x="495.88" y="-282" font-family="Helvetica,sans-Serif" font-size="10.00" fill="grey">BaseXZ</text>
<text text-anchor="middle" x="495.88" y="-270.75" font-family="Helvetica,sans-Serif" font-size="10.00" fill="grey">BaseY</text>
<text text-anchor="middle" x="495.88" y="-259.5" font-family="Helvetica,sans-Serif" font-size="10.00" fill="grey">BaseYZ</text>
<text text-anchor="middle" x="495.88" y="-248.25" font-family="Helvetica,sans-Serif" font-size="10.00" fill="grey">BaseZ</text>
<text text-anchor="middle" x="495.88" y="-237" font-family="Helvetica,sans-Serif" font-size="10.00" fill="grey">Zero</text>
</g>
<!-- Node10 -->
<g id="Node000010" class="node">
<title>Node10</title>
<g id="a_Node000010"><a xlink:href="structVec.html" target="_top" xlink:title=" ">
<polygon fill="white" stroke="#666666" points="455,-391.75 421.75,-391.75 421.75,-372.5 455,-372.5 455,-391.75"/>
<text text-anchor="middle" x="438.38" y="-378.25" font-family="Helvetica,sans-Serif" font-size="10.00">Vec</text>
</a>
</g>
</g>
<!-- Node10&#45;&gt;Node9 -->
<g id="edge9_Node000009_Node000010" class="edge">
<title>Node10&#45;&gt;Node9</title>
<g id="a_edge9_Node000009_Node000010"><a xlink:title=" ">
<path fill="none" stroke="#63b8ff" d="M438.38,-360.84C438.38,-339.25 438.38,-306.06 438.38,-290.24"/>
<polygon fill="#63b8ff" stroke="#63b8ff" points="434.88,-360.75 438.38,-370.75 441.88,-360.75 434.88,-360.75"/>
</a>
</g>
</g>
<!-- Node11 -->
<g id="Node000011" class="node">
<title>Node11</title>
<g id="a_Node000011"><a xlink:href="classdBgS__Chk.html" target="_top" xlink:title=" ">
<polygon fill="white" stroke="#666666" points="201.62,-188 139.12,-188 139.12,-168.75 201.62,-168.75 201.62,-188"/>
<text text-anchor="middle" x="170.38" y="-174.5" font-family="Helvetica,sans-Serif" font-size="10.00">dBgS_Chk</text>
</a>
</g>
</g>
<!-- Node11&#45;&gt;Node3 -->
<g id="edge11_Node000003_Node000011" class="edge">
<title>Node11&#45;&gt;Node3</title>
<g id="a_edge11_Node000003_Node000011"><a xlink:title=" ">
<path fill="none" stroke="#63b8ff" d="M190.22,-161.3C202.1,-151.69 216.73,-139.84 226.52,-131.92"/>
<polygon fill="#63b8ff" stroke="#63b8ff" points="188.18,-158.45 182.61,-167.46 192.59,-163.89 188.18,-158.45"/>
</a>
</g>
</g>
<!-- Node12&#45;&gt;Node11 -->
<g id="edge12_Node000011_Node000012" class="edge">
<title>Node12&#45;&gt;Node11</title>
<g id="a_edge12_Node000011_Node000012"><a xlink:title=" ">
<path fill="none" stroke="#63b8ff" d="M170.38,-258.97C170.38,-237.37 170.38,-204.18 170.38,-188.36"/>
<polygon fill="#63b8ff" stroke="#63b8ff" points="166.88,-258.87 170.38,-268.87 173.88,-258.87 166.88,-258.87"/>
</a>
</g>
</g>
<!-- Node13&#45;&gt;Node11 -->
<g id="edge14_Node000011_Node000013" class="edge">
<title>Node13&#45;&gt;Node11</title>
<g id="a_edge14_Node000011_Node000013"><a xlink:title=" ">
<path fill="none" stroke="#63b8ff" d="M69.82,-263.06C95.36,-241.81 139.32,-205.22 159.58,-188.36"/>
<polygon fill="#63b8ff" stroke="#63b8ff" points="67.63,-260.33 62.19,-269.42 72.11,-265.71 67.63,-260.33"/>
</a>
</g>
</g>
</g>
</svg>
