<?xml version="1.0" encoding="UTF-8" standalone="no"?>
<!DOCTYPE svg PUBLIC "-//W3C//DTD SVG 1.1//EN"
 "http://www.w3.org/Graphics/SVG/1.1/DTD/svg11.dtd">
<!-- Generated by graphviz version 9.0.0 (20230911.1827)
 -->
<!-- Title: JKRFileLoader Pages: 1 -->
<svg width="1013pt" height="505pt"
 viewBox="0.00 0.00 1013.12 505.00" xmlns="http://www.w3.org/2000/svg" xmlns:xlink="http://www.w3.org/1999/xlink">
<g id="graph0" class="graph" transform="scale(1 1) rotate(0) translate(4 501)">
<title>JKRFileLoader</title>
<!-- Node1 -->
<g id="Node000001" class="node">
<title>Node1</title>
<g id="a_Node000001"><a xlink:title=" ">
<polygon fill="#999999" stroke="#666666" points="208.75,-176.38 128.25,-176.38 128.25,-157.12 208.75,-157.12 208.75,-176.38"/>
<text text-anchor="middle" x="168.5" y="-162.88" font-family="Helvetica,sans-Serif" font-size="10.00">JKRFileLoader</text>
</a>
</g>
</g>
<!-- Node1&#45;&gt;Node1 -->
<g id="edge32_Node000001_Node000001" class="edge">
<title>Node1&#45;&gt;Node1</title>
<g id="a_edge32_Node000001_Node000001"><a xlink:title=" ">
<path fill="none" stroke="#9a32cd" stroke-dasharray="5,2" d="M220.13,-173.33C224.22,-171.88 226.75,-169.69 226.75,-166.75 226.75,-161.66 219.18,-158.82 209.06,-158.22"/>
<polygon fill="#9a32cd" stroke="#9a32cd" points="219.79,-169.83 210.55,-175.02 221.01,-176.72 219.79,-169.83"/>
</a>
</g>
<text text-anchor="middle" x="262.75" y="-162.88" font-family="Helvetica,sans-Serif" font-size="10.00" fill="grey"> sCurrentVolume</text>
</g>
<!-- Node2 -->
<g id="Node000002" class="node">
<title>Node2</title>
<g id="a_Node000002"><a xlink:href="classJKRDisposer.html" target="_top" xlink:title=" ">
<polygon fill="white" stroke="#666666" points="335,-267 262,-267 262,-247.75 335,-247.75 335,-267"/>
<text text-anchor="middle" x="298.5" y="-253.5" font-family="Helvetica,sans-Serif" font-size="10.00">JKRDisposer</text>
</a>
</g>
</g>
<!-- Node2&#45;&gt;Node1 -->
<g id="edge1_Node000001_Node000002" class="edge">
<title>Node2&#45;&gt;Node1</title>
<g id="a_edge1_Node000001_Node000002"><a xlink:title=" ">
<path fill="none" stroke="#63b8ff" d="M276.1,-241.1C248.92,-222.57 203.99,-191.94 181.77,-176.8"/>
<polygon fill="#63b8ff" stroke="#63b8ff" points="274.08,-243.96 284.31,-246.7 278.02,-238.18 274.08,-243.96"/>
</a>
</g>
</g>
<!-- Node3 -->
<g id="Node000003" class="node">
<title>Node3</title>
<g id="a_Node000003"><a xlink:href="structJKRHeap.html" target="_top" xlink:title=" ">
<polygon fill="white" stroke="#666666" points="438.5,-176.38 380.5,-176.38 380.5,-157.12 438.5,-157.12 438.5,-176.38"/>
<text text-anchor="middle" x="409.5" y="-162.88" font-family="Helvetica,sans-Serif" font-size="10.00">JKRHeap</text>
</a>
</g>
</g>
<!-- Node2&#45;&gt;Node3 -->
<g id="edge3_Node000003_Node000002" class="edge">
<title>Node2&#45;&gt;Node3</title>
<g id="a_edge3_Node000003_Node000002"><a xlink:title=" ">
<path fill="none" stroke="#63b8ff" d="M307.38,-237.22C312.7,-227.31 320.24,-215.59 329.5,-207.25 344.81,-193.46 365.8,-183.34 382.44,-176.79"/>
<polygon fill="#63b8ff" stroke="#63b8ff" points="304.33,-235.49 303.01,-246 310.6,-238.61 304.33,-235.49"/>
</a>
</g>
</g>
<!-- Node3&#45;&gt;Node2 -->
<g id="edge2_Node000002_Node000003" class="edge">
<title>Node3&#45;&gt;Node2</title>
<g id="a_edge2_Node000002_Node000003"><a xlink:title=" ">
<path fill="none" stroke="#9a32cd" stroke-dasharray="5,2" d="M389.4,-183.8C365.99,-202.49 328.15,-232.7 309.55,-247.55"/>
<polygon fill="#9a32cd" stroke="#9a32cd" points="391.35,-186.72 396.98,-177.74 386.98,-181.25 391.35,-186.72"/>
</a>
</g>
<text text-anchor="middle" x="373.38" y="-214.62" font-family="Helvetica,sans-Serif" font-size="10.00" fill="grey"> mHeap</text>
</g>
<!-- Node3&#45;&gt;Node3 -->
<g id="edge27_Node000003_Node000003" class="edge">
<title>Node3&#45;&gt;Node3</title>
<g id="a_edge27_Node000003_Node000003"><a xlink:title=" ">
<path fill="none" stroke="#9a32cd" stroke-dasharray="5,2" d="M450.11,-173.74C454.02,-172.32 456.5,-169.99 456.5,-166.75 456.5,-160.98 448.67,-158.1 438.88,-158.1"/>
<polygon fill="#9a32cd" stroke="#9a32cd" points="449.76,-170.26 440.37,-175.18 450.78,-177.18 449.76,-170.26"/>
</a>
</g>
<text text-anchor="middle" x="487.62" y="-179.75" font-family="Helvetica,sans-Serif" font-size="10.00" fill="grey"> sCurrentHeap</text>
<text text-anchor="middle" x="487.62" y="-168.5" font-family="Helvetica,sans-Serif" font-size="10.00" fill="grey">sRootHeap</text>
<text text-anchor="middle" x="487.62" y="-157.25" font-family="Helvetica,sans-Serif" font-size="10.00" fill="grey">sRootHeap2</text>
<text text-anchor="middle" x="487.62" y="-146" font-family="Helvetica,sans-Serif" font-size="10.00" fill="grey">sSystemHeap</text>
</g>
<!-- Node4 -->
<g id="Node000004" class="node">
<title>Node4</title>
<g id="a_Node000004"><a xlink:href="structOSMutex.html" target="_top" xlink:title=" ">
<polygon fill="white" stroke="#666666" points="832.75,-267 776.25,-267 776.25,-247.75 832.75,-247.75 832.75,-267"/>
<text text-anchor="middle" x="804.5" y="-253.5" font-family="Helvetica,sans-Serif" font-size="10.00">OSMutex</text>
</a>
</g>
</g>
<!-- Node4&#45;&gt;Node3 -->
<g id="edge4_Node000003_Node000004" class="edge">
<title>Node4&#45;&gt;Node3</title>
<g id="a_edge4_Node000003_Node000004"><a xlink:title=" ">
<path fill="none" stroke="#9a32cd" stroke-dasharray="5,2" d="M764.65,-255.6C700.18,-253.82 576.25,-248.06 536.75,-229.75 523.7,-223.7 525.64,-214.96 513.5,-207.25 490.19,-192.44 460.47,-181.85 438.77,-175.39"/>
<polygon fill="#9a32cd" stroke="#9a32cd" points="764.36,-259.09 774.44,-255.85 764.54,-252.1 764.36,-259.09"/>
</a>
</g>
<text text-anchor="middle" x="554.88" y="-214.62" font-family="Helvetica,sans-Serif" font-size="10.00" fill="grey"> mMutex</text>
</g>
<!-- Node6 -->
<g id="Node000006" class="node">
<title>Node6</title>
<g id="a_Node000006"><a xlink:href="structOSThread.html" target="_top" xlink:title=" ">
<polygon fill="white" stroke="#666666" points="755.62,-97 695.38,-97 695.38,-77.75 755.62,-77.75 755.62,-97"/>
<text text-anchor="middle" x="725.5" y="-83.5" font-family="Helvetica,sans-Serif" font-size="10.00">OSThread</text>
</a>
</g>
</g>
<!-- Node4&#45;&gt;Node6 -->
<g id="edge11_Node000006_Node000004" class="edge">
<title>Node4&#45;&gt;Node6</title>
<g id="a_edge11_Node000006_Node000004"><a xlink:title=" ">
<path fill="none" stroke="#9a32cd" stroke-dasharray="5,2" d="M823.45,-239.68C835.9,-227.25 850.88,-209.07 856.5,-189.25 865.61,-157.16 870.7,-136.86 845.5,-115 832.32,-103.57 787.03,-95.88 756.02,-91.81"/>
<polygon fill="#9a32cd" stroke="#9a32cd" points="821.34,-236.86 816.49,-246.27 826.15,-241.94 821.34,-236.86"/>
</a>
</g>
<text text-anchor="middle" x="877.75" y="-162.88" font-family="Helvetica,sans-Serif" font-size="10.00" fill="grey"> mutex</text>
</g>
<!-- Node9 -->
<g id="Node000009" class="node">
<title>Node9</title>
<g id="a_Node000009"><a xlink:href="structOSMutexQueue.html" target="_top" xlink:title=" ">
<polygon fill="white" stroke="#666666" points="847,-176.38 762,-176.38 762,-157.12 847,-157.12 847,-176.38"/>
<text text-anchor="middle" x="804.5" y="-162.88" font-family="Helvetica,sans-Serif" font-size="10.00">OSMutexQueue</text>
</a>
</g>
</g>
<!-- Node4&#45;&gt;Node9 -->
<g id="edge13_Node000009_Node000004" class="edge">
<title>Node4&#45;&gt;Node9</title>
<g id="a_edge13_Node000009_Node000004"><a xlink:title=" ">
<path fill="none" stroke="#9a32cd" stroke-dasharray="5,2" d="M804.5,-236.21C804.5,-217.55 804.5,-190.68 804.5,-176.8"/>
<polygon fill="#9a32cd" stroke="#9a32cd" points="801,-236.04 804.5,-246.04 808,-236.04 801,-236.04"/>
</a>
</g>
<text text-anchor="middle" x="816.12" y="-220.25" font-family="Helvetica,sans-Serif" font-size="10.00" fill="grey"> head</text>
<text text-anchor="middle" x="816.12" y="-209" font-family="Helvetica,sans-Serif" font-size="10.00" fill="grey">tail</text>
</g>
<!-- Node10 -->
<g id="Node000010" class="node">
<title>Node10</title>
<g id="a_Node000010"><a xlink:href="structOSMutexLink.html" target="_top" xlink:title=" ">
<polygon fill="white" stroke="#666666" points="1005.12,-176.38 929.88,-176.38 929.88,-157.12 1005.12,-157.12 1005.12,-176.38"/>
<text text-anchor="middle" x="967.5" y="-162.88" font-family="Helvetica,sans-Serif" font-size="10.00">OSMutexLink</text>
</a>
</g>
</g>
<!-- Node4&#45;&gt;Node10 -->
<g id="edge16_Node000010_Node000004" class="edge">
<title>Node4&#45;&gt;Node10</title>
<g id="a_edge16_Node000010_Node000004"><a xlink:title=" ">
<path fill="none" stroke="#9a32cd" stroke-dasharray="5,2" d="M843.81,-249.9C861.13,-245.87 881.2,-239.53 897.5,-229.75 909.43,-222.59 909.02,-216.67 919.25,-207.25 931.2,-196.25 945.71,-184.58 955.68,-176.8"/>
<polygon fill="#9a32cd" stroke="#9a32cd" points="843.43,-246.4 834.38,-251.91 844.89,-253.25 843.43,-246.4"/>
</a>
</g>
<text text-anchor="middle" x="928.62" y="-220.25" font-family="Helvetica,sans-Serif" font-size="10.00" fill="grey"> next</text>
<text text-anchor="middle" x="928.62" y="-209" font-family="Helvetica,sans-Serif" font-size="10.00" fill="grey">prev</text>
</g>
<!-- Node5 -->
<g id="Node000005" class="node">
<title>Node5</title>
<g id="a_Node000005"><a xlink:href="structOSThreadQueue.html" target="_top" xlink:title=" ">
<polygon fill="white" stroke="#666666" points="664.88,-19.25 576.12,-19.25 576.12,0 664.88,0 664.88,-19.25"/>
<text text-anchor="middle" x="620.5" y="-5.75" font-family="Helvetica,sans-Serif" font-size="10.00">OSThreadQueue</text>
</a>
</g>
</g>
<!-- Node5&#45;&gt;Node4 -->
<g id="edge5_Node000004_Node000005" class="edge">
<title>Node5&#45;&gt;Node4</title>
<g id="a_edge5_Node000004_Node000005"><a xlink:title=" ">
<path fill="none" stroke="#9a32cd" stroke-dasharray="5,2" d="M612.35,-29.88C611.59,-32.32 610.94,-34.82 610.5,-37.25 608.71,-47.09 609.73,-49.78 610.5,-59.75 616.47,-137.57 590.34,-185.31 654.5,-229.75 673.74,-243.08 738.08,-250.7 775.96,-254.14"/>
<polygon fill="#9a32cd" stroke="#9a32cd" points="615.56,-31.28 615.81,-20.69 609.01,-28.81 615.56,-31.28"/>
</a>
</g>
<text text-anchor="middle" x="624.75" y="-116.75" font-family="Helvetica,sans-Serif" font-size="10.00" fill="grey"> queue</text>
</g>
<!-- Node5&#45;&gt;Node6 -->
<g id="edge8_Node000006_Node000005" class="edge">
<title>Node5&#45;&gt;Node6</title>
<g id="a_edge8_Node000006_Node000005"><a xlink:title=" ">
<path fill="none" stroke="#9a32cd" stroke-dasharray="5,2" d="M637.55,-27.69C648.04,-37.7 662.07,-50.21 675.75,-59.75 685.23,-66.36 696.54,-72.54 705.98,-77.27"/>
<polygon fill="#9a32cd" stroke="#9a32cd" points="640.02,-25.21 630.41,-20.73 635.13,-30.22 640.02,-25.21"/>
</a>
</g>
<text text-anchor="middle" x="699.88" y="-50.25" font-family="Helvetica,sans-Serif" font-size="10.00" fill="grey"> join_queue</text>
<text text-anchor="middle" x="699.88" y="-39" font-family="Helvetica,sans-Serif" font-size="10.00" fill="grey">queue</text>
</g>
<!-- Node6&#45;&gt;Node4 -->
<g id="edge14_Node000004_Node000006" class="edge">
<title>Node6&#45;&gt;Node4</title>
<g id="a_edge14_Node000004_Node000006"><a xlink:title=" ">
<path fill="none" stroke="#9a32cd" stroke-dasharray="5,2" d="M690.62,-102.13C672.7,-111.19 652.52,-124.99 642.25,-144.25 632.84,-161.9 631.14,-172.62 642.25,-189.25 672.15,-233.98 737.95,-248.94 775.93,-253.92"/>
<polygon fill="#9a32cd" stroke="#9a32cd" points="691.89,-105.4 699.45,-97.97 688.91,-99.06 691.89,-105.4"/>
</a>
</g>
<text text-anchor="middle" x="656.12" y="-162.88" font-family="Helvetica,sans-Serif" font-size="10.00" fill="grey"> thread</text>
</g>
<!-- Node6&#45;&gt;Node5 -->
<g id="edge6_Node000005_Node000006" class="edge">
<title>Node6&#45;&gt;Node5</title>
<g id="a_edge6_Node000005_Node000006"><a xlink:title=" ">
<path fill="none" stroke="#9a32cd" stroke-dasharray="5,2" d="M683.77,-80.94C658.3,-76.67 629.15,-69.76 621.25,-59.75 612.27,-48.37 614.88,-30.44 617.66,-19.68"/>
<polygon fill="#9a32cd" stroke="#9a32cd" points="683.21,-84.39 693.63,-82.48 684.29,-77.48 683.21,-84.39"/>
</a>
</g>
<text text-anchor="middle" x="632.12" y="-50.25" font-family="Helvetica,sans-Serif" font-size="10.00" fill="grey"> head</text>
<text text-anchor="middle" x="632.12" y="-39" font-family="Helvetica,sans-Serif" font-size="10.00" fill="grey">tail</text>
</g>
<!-- Node8 -->
<g id="Node000008" class="node">
<title>Node8</title>
<g id="a_Node000008"><a xlink:href="structOSThreadLink.html" target="_top" xlink:title=" ">
<polygon fill="white" stroke="#666666" points="832,-19.25 753,-19.25 753,0 832,0 832,-19.25"/>
<text text-anchor="middle" x="792.5" y="-5.75" font-family="Helvetica,sans-Serif" font-size="10.00">OSThreadLink</text>
</a>
</g>
</g>
<!-- Node6&#45;&gt;Node8 -->
<g id="edge10_Node000008_Node000006" class="edge">
<title>Node6&#45;&gt;Node8</title>
<g id="a_edge10_Node000008_Node000006"><a xlink:title=" ">
<path fill="none" stroke="#9a32cd" stroke-dasharray="5,2" d="M767.09,-80.48C791.19,-76.12 818.18,-69.28 825.5,-59.75 831.59,-51.82 829.81,-46.27 825.5,-37.25 822.01,-29.94 815.42,-24 809.05,-19.6"/>
<polygon fill="#9a32cd" stroke="#9a32cd" points="766.72,-76.99 757.44,-82.11 767.89,-83.9 766.72,-76.99"/>
</a>
</g>
<text text-anchor="middle" x="838.62" y="-50.25" font-family="Helvetica,sans-Serif" font-size="10.00" fill="grey"> next</text>
<text text-anchor="middle" x="838.62" y="-39" font-family="Helvetica,sans-Serif" font-size="10.00" fill="grey">prev</text>
</g>
<!-- Node7 -->
<g id="Node000007" class="node">
<title>Node7</title>
<g id="a_Node000007"><a xlink:href="structOSContext.html" target="_top" xlink:title=" ">
<polygon fill="white" stroke="#666666" points="744.12,-176.38 680.88,-176.38 680.88,-157.12 744.12,-157.12 744.12,-176.38"/>
<text text-anchor="middle" x="712.5" y="-162.88" font-family="Helvetica,sans-Serif" font-size="10.00">OSContext</text>
</a>
</g>
</g>
<!-- Node7&#45;&gt;Node6 -->
<g id="edge7_Node000006_Node000007" class="edge">
<title>Node7&#45;&gt;Node6</title>
<g id="a_edge7_Node000006_Node000007"><a xlink:title=" ">
<path fill="none" stroke="#9a32cd" stroke-dasharray="5,2" d="M715.87,-145.71C718.51,-129.99 722.06,-108.87 724.03,-97.15"/>
<polygon fill="#9a32cd" stroke="#9a32cd" points="712.45,-144.94 714.24,-155.38 719.35,-146.1 712.45,-144.94"/>
</a>
</g>
<text text-anchor="middle" x="737.38" y="-116.75" font-family="Helvetica,sans-Serif" font-size="10.00" fill="grey"> context</text>
</g>
<!-- Node8&#45;&gt;Node6 -->
<g id="edge9_Node000006_Node000008" class="edge">
<title>Node8&#45;&gt;Node6</title>
<g id="a_edge9_Node000006_Node000008"><a xlink:title=" ">
<path fill="none" stroke="#9a32cd" stroke-dasharray="5,2" d="M753.76,-25.03C748.32,-28.38 743.24,-32.42 739.25,-37.25 729.67,-48.86 726.75,-66.71 725.87,-77.4"/>
<polygon fill="#9a32cd" stroke="#9a32cd" points="755.24,-28.21 762.44,-20.44 751.96,-22.03 755.24,-28.21"/>
</a>
</g>
<text text-anchor="middle" x="781.62" y="-50.25" font-family="Helvetica,sans-Serif" font-size="10.00" fill="grey"> active_threads_link</text>
<text text-anchor="middle" x="781.62" y="-39" font-family="Helvetica,sans-Serif" font-size="10.00" fill="grey">link</text>
</g>
<!-- Node9&#45;&gt;Node6 -->
<g id="edge12_Node000006_Node000009" class="edge">
<title>Node9&#45;&gt;Node6</title>
<g id="a_edge12_Node000006_Node000009"><a xlink:title=" ">
<path fill="none" stroke="#9a32cd" stroke-dasharray="5,2" d="M789.66,-148.05C780.94,-138 769.51,-125.39 758.5,-115 751.86,-108.73 743.91,-102.29 737.48,-97.31"/>
<polygon fill="#9a32cd" stroke="#9a32cd" points="786.94,-150.26 796.1,-155.59 792.27,-145.71 786.94,-150.26"/>
</a>
</g>
<text text-anchor="middle" x="804.88" y="-116.75" font-family="Helvetica,sans-Serif" font-size="10.00" fill="grey"> owned_mutexes</text>
</g>
<!-- Node10&#45;&gt;Node4 -->
<g id="edge15_Node000004_Node000010" class="edge">
<title>Node10&#45;&gt;Node4</title>
<g id="a_edge15_Node000004_Node000010"><a xlink:title=" ">
<path fill="none" stroke="#9a32cd" stroke-dasharray="5,2" d="M964.88,-187.77C962,-201.61 955.98,-219.33 943.5,-229.75 927.09,-243.45 868.77,-250.82 833.1,-254.15"/>
<polygon fill="#9a32cd" stroke="#9a32cd" points="968.32,-188.41 966.5,-177.97 961.41,-187.27 968.32,-188.41"/>
</a>
</g>
<text text-anchor="middle" x="967.12" y="-214.62" font-family="Helvetica,sans-Serif" font-size="10.00" fill="grey"> link</text>
</g>
<!-- Node11 -->
<g id="Node000011" class="node">
<title>Node11</title>
<g id="a_Node000011"><a xlink:href="classJSUTree.html" target="_top" xlink:title=" ">
<polygon fill="white" stroke="#666666" points="466.25,-267 352.75,-267 352.75,-247.75 466.25,-247.75 466.25,-267"/>
<text text-anchor="middle" x="409.5" y="-253.5" font-family="Helvetica,sans-Serif" font-size="10.00">JSUTree&lt; JKRHeap &gt;</text>
</a>
</g>
</g>
<!-- Node11&#45;&gt;Node3 -->
<g id="edge17_Node000003_Node000011" class="edge">
<title>Node11&#45;&gt;Node3</title>
<g id="a_edge17_Node000003_Node000011"><a xlink:title=" ">
<path fill="none" stroke="#9a32cd" stroke-dasharray="5,2" d="M409.5,-236.21C409.5,-217.55 409.5,-190.68 409.5,-176.8"/>
<polygon fill="#9a32cd" stroke="#9a32cd" points="406,-236.04 409.5,-246.04 413,-236.04 406,-236.04"/>
</a>
</g>
<text text-anchor="middle" x="435.38" y="-214.62" font-family="Helvetica,sans-Serif" font-size="10.00" fill="grey"> mChildTree</text>
</g>
<!-- Node12 -->
<g id="Node000012" class="node">
<title>Node12</title>
<g id="a_Node000012"><a xlink:href="classJSUList.html" target="_top" xlink:title=" ">
<polygon fill="white" stroke="#666666" points="458.75,-378.75 384.25,-378.75 384.25,-359.5 458.75,-359.5 458.75,-378.75"/>
<text text-anchor="middle" x="421.5" y="-365.25" font-family="Helvetica,sans-Serif" font-size="10.00">JSUList&lt; T &gt;</text>
</a>
</g>
</g>
<!-- Node12&#45;&gt;Node11 -->
<g id="edge18_Node000011_Node000012" class="edge">
<title>Node12&#45;&gt;Node11</title>
<g id="a_edge18_Node000011_Node000012"><a xlink:title=" ">
<path fill="none" stroke="#63b8ff" d="M419.29,-347.87C416.66,-323.9 412.41,-285.03 410.5,-267.48"/>
<polygon fill="#63b8ff" stroke="#63b8ff" points="415.79,-348.08 420.35,-357.64 422.75,-347.32 415.79,-348.08"/>
</a>
</g>
</g>
<!-- Node13 -->
<g id="Node000013" class="node">
<title>Node13</title>
<g id="a_Node000013"><a xlink:href="classJSUPtrList.html" target="_top" xlink:title=" ">
<polygon fill="white" stroke="#666666" points="354.88,-497 290.12,-497 290.12,-477.75 354.88,-477.75 354.88,-497"/>
<text text-anchor="middle" x="322.5" y="-483.5" font-family="Helvetica,sans-Serif" font-size="10.00">JSUPtrList</text>
</a>
</g>
</g>
<!-- Node13&#45;&gt;Node12 -->
<g id="edge19_Node000012_Node000013" class="edge">
<title>Node13&#45;&gt;Node12</title>
<g id="a_edge19_Node000012_Node000013"><a xlink:title=" ">
<path fill="none" stroke="#63b8ff" d="M337.55,-468.7C358.96,-443.57 397.39,-398.44 413.77,-379.2"/>
<polygon fill="#63b8ff" stroke="#63b8ff" points="335.07,-466.22 331.25,-476.1 340.4,-470.76 335.07,-466.22"/>
</a>
</g>
</g>
<!-- Node14 -->
<g id="Node000014" class="node">
<title>Node14</title>
<g id="a_Node000014"><a xlink:href="classJSUPtrLink.html" target="_top" xlink:title=" ">
<polygon fill="white" stroke="#666666" points="299,-417.62 232,-417.62 232,-398.38 299,-398.38 299,-417.62"/>
<text text-anchor="middle" x="265.5" y="-404.12" font-family="Helvetica,sans-Serif" font-size="10.00">JSUPtrLink</text>
</a>
</g>
</g>
<!-- Node13&#45;&gt;Node14 -->
<g id="edge21_Node000014_Node000013" class="edge">
<title>Node13&#45;&gt;Node14</title>
<g id="a_edge21_Node000014_Node000013"><a xlink:title=" ">
<path fill="none" stroke="#9a32cd" stroke-dasharray="5,2" d="M316.09,-466.59C312.44,-457.13 307.24,-445.99 300.5,-437.25 294.69,-429.7 286.46,-422.93 279.45,-417.91"/>
<polygon fill="#9a32cd" stroke="#9a32cd" points="312.76,-467.66 319.38,-475.93 319.36,-465.34 312.76,-467.66"/>
</a>
</g>
<text text-anchor="middle" x="326" y="-444.62" font-family="Helvetica,sans-Serif" font-size="10.00" fill="grey"> mList</text>
</g>
<!-- Node16 -->
<g id="Node000016" class="node">
<title>Node16</title>
<g id="a_Node000016"><a xlink:href="classJSUList.html" target="_top" xlink:title=" ">
<polygon fill="white" stroke="#666666" points="573.25,-304.25 447.75,-304.25 447.75,-285 573.25,-285 573.25,-304.25"/>
<text text-anchor="middle" x="510.5" y="-290.75" font-family="Helvetica,sans-Serif" font-size="10.00">JSUList&lt; JKRDisposer &gt;</text>
</a>
</g>
</g>
<!-- Node13&#45;&gt;Node16 -->
<g id="edge26_Node000016_Node000013" class="edge">
<title>Node13&#45;&gt;Node16</title>
<g id="a_edge26_Node000016_Node000013"><a xlink:title=" ">
<path fill="none" stroke="#63b8ff" d="M349.85,-471.76C381.69,-453.59 434.15,-419.88 467.5,-378.75 486.94,-354.77 501.21,-320.6 507.28,-304.57"/>
<polygon fill="#63b8ff" stroke="#63b8ff" points="348.25,-468.65 341.22,-476.58 351.66,-474.76 348.25,-468.65"/>
</a>
</g>
</g>
<!-- Node19 -->
<g id="Node000019" class="node">
<title>Node19</title>
<g id="a_Node000019"><a xlink:href="classJSUList.html" target="_top" xlink:title=" ">
<polygon fill="white" stroke="#666666" points="133,-378.75 0,-378.75 0,-359.5 133,-359.5 133,-378.75"/>
<text text-anchor="middle" x="66.5" y="-365.25" font-family="Helvetica,sans-Serif" font-size="10.00">JSUList&lt; JKRFileLoader &gt;</text>
</a>
</g>
</g>
<!-- Node13&#45;&gt;Node19 -->
<g id="edge34_Node000019_Node000013" class="edge">
<title>Node13&#45;&gt;Node19</title>
<g id="a_edge34_Node000019_Node000013"><a xlink:title=" ">
<path fill="none" stroke="#63b8ff" d="M288.78,-473.2C278.38,-469.03 266.92,-464.3 256.5,-459.75 192.67,-431.85 118.32,-395.69 84.68,-379.13"/>
<polygon fill="#63b8ff" stroke="#63b8ff" points="287.16,-476.33 297.74,-476.77 289.75,-469.82 287.16,-476.33"/>
</a>
</g>
</g>
<!-- Node14&#45;&gt;Node13 -->
<g id="edge20_Node000013_Node000014" class="edge">
<title>Node14&#45;&gt;Node13</title>
<g id="a_edge20_Node000013_Node000014"><a xlink:title=" ">
<path fill="none" stroke="#9a32cd" stroke-dasharray="5,2" d="M261.3,-429.35C260.37,-439.26 261.02,-450.91 266.75,-459.75 272.12,-468.03 280.83,-473.8 289.78,-477.79"/>
<polygon fill="#9a32cd" stroke="#9a32cd" points="264.75,-429.99 262.84,-419.57 257.83,-428.91 264.75,-429.99"/>
</a>
</g>
<text text-anchor="middle" x="283.38" y="-450.25" font-family="Helvetica,sans-Serif" font-size="10.00" fill="grey"> mHead</text>
<text text-anchor="middle" x="283.38" y="-439" font-family="Helvetica,sans-Serif" font-size="10.00" fill="grey">mTail</text>
</g>
<!-- Node14&#45;&gt;Node14 -->
<g id="edge22_Node000014_Node000014" class="edge">
<title>Node14&#45;&gt;Node14</title>
<g id="a_edge22_Node000014_Node000014"><a xlink:title=" ">
<path fill="none" stroke="#9a32cd" stroke-dasharray="5,2" d="M310.26,-413.82C314.39,-412.62 317,-410.68 317,-408 317,-403.37 309.2,-400.94 299.18,-400.73"/>
<polygon fill="#9a32cd" stroke="#9a32cd" points="310.14,-410.3 300.68,-415.08 311.05,-417.25 310.14,-410.3"/>
</a>
</g>
<text text-anchor="middle" x="332.38" y="-409.75" font-family="Helvetica,sans-Serif" font-size="10.00" fill="grey"> mNext</text>
<text text-anchor="middle" x="332.38" y="-398.5" font-family="Helvetica,sans-Serif" font-size="10.00" fill="grey">mPrev</text>
</g>
<!-- Node15 -->
<g id="Node000015" class="node">
<title>Node15</title>
<g id="a_Node000015"><a xlink:href="classJSULink.html" target="_top" xlink:title=" ">
<polygon fill="white" stroke="#666666" points="404.88,-341.5 328.12,-341.5 328.12,-322.25 404.88,-322.25 404.88,-341.5"/>
<text text-anchor="middle" x="366.5" y="-328" font-family="Helvetica,sans-Serif" font-size="10.00">JSULink&lt; T &gt;</text>
</a>
</g>
</g>
<!-- Node14&#45;&gt;Node15 -->
<g id="edge24_Node000015_Node000014" class="edge">
<title>Node14&#45;&gt;Node15</title>
<g id="a_edge24_Node000015_Node000014"><a xlink:title=" ">
<path fill="none" stroke="#63b8ff" d="M287.08,-391.16C307.59,-376.11 337.7,-354.02 354.33,-341.81"/>
<polygon fill="#63b8ff" stroke="#63b8ff" points="285.1,-388.28 279.1,-397.02 289.24,-393.92 285.1,-388.28"/>
</a>
</g>
</g>
<!-- Node17 -->
<g id="Node000017" class="node">
<title>Node17</title>
<g id="a_Node000017"><a xlink:href="classJSULink.html" target="_top" xlink:title=" ">
<polygon fill="white" stroke="#666666" points="310.38,-341.5 182.62,-341.5 182.62,-322.25 310.38,-322.25 310.38,-341.5"/>
<text text-anchor="middle" x="246.5" y="-328" font-family="Helvetica,sans-Serif" font-size="10.00">JSULink&lt; JKRDisposer &gt;</text>
</a>
</g>
</g>
<!-- Node14&#45;&gt;Node17 -->
<g id="edge29_Node000017_Node000014" class="edge">
<title>Node14&#45;&gt;Node17</title>
<g id="a_edge29_Node000017_Node000014"><a xlink:title=" ">
<path fill="none" stroke="#63b8ff" d="M260.33,-386.83C256.53,-372.01 251.56,-352.62 248.73,-341.58"/>
<polygon fill="#63b8ff" stroke="#63b8ff" points="256.92,-387.63 262.79,-396.44 263.7,-385.89 256.92,-387.63"/>
</a>
</g>
</g>
<!-- Node18 -->
<g id="Node000018" class="node">
<title>Node18</title>
<g id="a_Node000018"><a xlink:href="classJSULink.html" target="_top" xlink:title=" ">
<polygon fill="white" stroke="#666666" points="251.12,-304.25 115.88,-304.25 115.88,-285 251.12,-285 251.12,-304.25"/>
<text text-anchor="middle" x="183.5" y="-290.75" font-family="Helvetica,sans-Serif" font-size="10.00">JSULink&lt; JKRFileLoader &gt;</text>
</a>
</g>
</g>
<!-- Node14&#45;&gt;Node18 -->
<g id="edge31_Node000018_Node000014" class="edge">
<title>Node14&#45;&gt;Node18</title>
<g id="a_edge31_Node000018_Node000014"><a xlink:title=" ">
<path fill="none" stroke="#63b8ff" d="M232.27,-393.15C211.25,-382.42 185.8,-365.35 173.5,-341.5 167.37,-329.62 173.2,-314.13 178.18,-304.54"/>
<polygon fill="#63b8ff" stroke="#63b8ff" points="230.56,-396.21 241.09,-397.38 233.59,-389.9 230.56,-396.21"/>
</a>
</g>
</g>
<!-- Node15&#45;&gt;Node11 -->
<g id="edge23_Node000011_Node000015" class="edge">
<title>Node15&#45;&gt;Node11</title>
<g id="a_edge23_Node000011_Node000015"><a xlink:title=" ">
<path fill="none" stroke="#63b8ff" d="M377.62,-312.13C386.16,-297.72 397.59,-278.46 404.18,-267.34"/>
<polygon fill="#63b8ff" stroke="#63b8ff" points="374.64,-310.3 372.54,-320.68 380.66,-313.87 374.64,-310.3"/>
</a>
</g>
</g>
<!-- Node16&#45;&gt;Node3 -->
<g id="edge25_Node000003_Node000016" class="edge">
<title>Node16&#45;&gt;Node3</title>
<g id="a_edge25_Node000003_Node000016"><a xlink:title=" ">
<path fill="none" stroke="#9a32cd" stroke-dasharray="5,2" d="M503.43,-274.01C496.02,-255.37 483.03,-227.3 465.5,-207.25 454.46,-194.62 438.59,-183.92 426.56,-176.86"/>
<polygon fill="#9a32cd" stroke="#9a32cd" points="500.13,-275.18 506.94,-283.3 506.67,-272.7 500.13,-275.18"/>
</a>
</g>
<text text-anchor="middle" x="532.12" y="-253.5" font-family="Helvetica,sans-Serif" font-size="10.00" fill="grey"> mDisposerList</text>
</g>
<!-- Node17&#45;&gt;Node2 -->
<g id="edge28_Node000002_Node000017" class="edge">
<title>Node17&#45;&gt;Node2</title>
<g id="a_edge28_Node000002_Node000017"><a xlink:title=" ">
<path fill="none" stroke="#9a32cd" stroke-dasharray="5,2" d="M259.34,-312.97C269.73,-298.48 283.94,-278.68 292.07,-267.34"/>
<polygon fill="#9a32cd" stroke="#9a32cd" points="256.74,-310.59 253.76,-320.76 262.43,-314.67 256.74,-310.59"/>
</a>
</g>
<text text-anchor="middle" x="293.12" y="-290.75" font-family="Helvetica,sans-Serif" font-size="10.00" fill="grey"> mLink</text>
</g>
<!-- Node18&#45;&gt;Node1 -->
<g id="edge30_Node000001_Node000018" class="edge">
<title>Node18&#45;&gt;Node1</title>
<g id="a_edge30_Node000001_Node000018"><a xlink:title=" ">
<path fill="none" stroke="#9a32cd" stroke-dasharray="5,2" d="M179.55,-273.59C179.17,-271.37 178.81,-269.14 178.5,-267 173.74,-233.92 170.47,-194.31 169.15,-176.81"/>
<polygon fill="#9a32cd" stroke="#9a32cd" points="176.08,-274.11 181.37,-283.29 182.96,-272.82 176.08,-274.11"/>
</a>
</g>
<text text-anchor="middle" x="216" y="-253.5" font-family="Helvetica,sans-Serif" font-size="10.00" fill="grey"> mFileLoaderLink</text>
</g>
<!-- Node19&#45;&gt;Node1 -->
<g id="edge33_Node000001_Node000019" class="edge">
<title>Node19&#45;&gt;Node1</title>
<g id="a_edge33_Node000001_Node000019"><a xlink:title=" ">
<path fill="none" stroke="#9a32cd" stroke-dasharray="5,2" d="M56.42,-349.09C48.7,-331.83 40.73,-305.96 49.5,-285 70.89,-233.9 126.6,-193.78 153.52,-176.71"/>
<polygon fill="#9a32cd" stroke="#9a32cd" points="53.08,-350.24 60.61,-357.69 59.37,-347.17 53.08,-350.24"/>
</a>
</g>
<text text-anchor="middle" x="78" y="-290.75" font-family="Helvetica,sans-Serif" font-size="10.00" fill="grey"> sVolumeList</text>
</g>
</g>
</svg>
