<?xml version="1.0" encoding="UTF-8" standalone="no"?>
<!DOCTYPE svg PUBLIC "-//W3C//DTD SVG 1.1//EN"
 "http://www.w3.org/Graphics/SVG/1.1/DTD/svg11.dtd">
<!-- Generated by graphviz version 9.0.0 (20230911.1827)
 -->
<!-- Title: JASDefaultBankTable Pages: 1 -->
<svg width="299pt" height="361pt"
 viewBox="0.00 0.00 299.00 360.75" xmlns="http://www.w3.org/2000/svg" xmlns:xlink="http://www.w3.org/1999/xlink">

<svg id="main" version="1.1" xmlns="http://www.w3.org/2000/svg" xmlns:xlink="http://www.w3.org/1999/xlink" xml:space="preserve" onload="init(evt)">
<style type="text/css"><![CDATA[
.node, .edge {opacity: 0.7;}
.node.selected, .edge.selected {opacity: 1;}
.edge:hover path { stroke: red; }
.edge:hover polygon { stroke: red; fill: red; }
]]></style>
<script type="application/ecmascript" xlink:href="svg.min.js"/>
<svg id="graph" class="graph">
<g id="graph0" class="graph" transform="scale(1 1) rotate(0) translate(4 356.75)">
<title>JASDefaultBankTable</title>
<!-- Node1 -->
<g id="Node000001" class="node">
<title>Node1</title>
<g id="a_Node000001"><a xlink:title=" ">
<polygon fill="#999999" stroke="#666666" points="117.25,-97 5.25,-97 5.25,-77.75 117.25,-77.75 117.25,-97"/>
<text text-anchor="middle" x="61.25" y="-83.5" font-family="Helvetica,sans-Serif" font-size="10.00">JASDefaultBankTable</text>
</a>
</g>
</g>
<!-- Node8 -->
<g id="Node000008" class="node">
<title>Node8</title>
<g id="a_Node000008"><a xlink:href="classJASGlobalInstance.html" target="_top" xlink:title=" ">
<polygon fill="white" stroke="#666666" points="122.5,-30.5 0,-30.5 0,0 122.5,0 122.5,-30.5"/>
<text text-anchor="start" x="8" y="-17" font-family="Helvetica,sans-Serif" font-size="10.00">JASGlobalInstance&lt;</text>
<text text-anchor="middle" x="61.25" y="-5.75" font-family="Helvetica,sans-Serif" font-size="10.00"> JASDefaultBankTable &gt;</text>
</a>
</g>
</g>
<!-- Node1&#45;&gt;Node8 -->
<g id="edge8_Node000008_Node000001" class="edge">
<title>Node1&#45;&gt;Node8</title>
<g id="a_edge8_Node000008_Node000001"><a xlink:title=" ">
<path fill="none" stroke="#9a32cd" stroke-dasharray="5,2" d="M35.62,-70.25C29.15,-64.05 24.87,-56.53 28.25,-48.5 31.05,-41.86 35.96,-35.9 41.15,-30.96"/>
<polygon fill="#9a32cd" stroke="#9a32cd" points="33.38,-72.94 43.4,-76.38 37.72,-67.44 33.38,-72.94"/>
</a>
</g>
<text text-anchor="middle" x="50.75" y="-50.25" font-family="Helvetica,sans-Serif" font-size="10.00" fill="grey"> sInstance</text>
</g>
<!-- Node2 -->
<g id="Node000002" class="node">
<title>Node2</title>
<g id="a_Node000002"><a xlink:href="classJASBankTable.html" target="_top" xlink:title=" ">
<polygon fill="white" stroke="#666666" points="118,-153.25 4.5,-153.25 4.5,-134 118,-134 118,-153.25"/>
<text text-anchor="middle" x="61.25" y="-139.75" font-family="Helvetica,sans-Serif" font-size="10.00">JASBankTable&lt; 256 &gt;</text>
</a>
</g>
</g>
<!-- Node2&#45;&gt;Node1 -->
<g id="edge1_Node000001_Node000002" class="edge">
<title>Node2&#45;&gt;Node1</title>
<g id="a_edge1_Node000001_Node000002"><a xlink:title=" ">
<path fill="none" stroke="#63b8ff" d="M61.25,-122.44C61.25,-113.73 61.25,-103.99 61.25,-97.17"/>
<polygon fill="#63b8ff" stroke="#63b8ff" points="57.75,-122.15 61.25,-132.15 64.75,-122.15 57.75,-122.15"/>
</a>
</g>
</g>
<!-- Node3 -->
<g id="Node000003" class="node">
<title>Node3</title>
<g id="a_Node000003"><a xlink:href="classJASBankList.html" target="_top" xlink:title=" ">
<polygon fill="white" stroke="#666666" points="82.12,-219.75 8.38,-219.75 8.38,-200.5 82.12,-200.5 82.12,-219.75"/>
<text text-anchor="middle" x="45.25" y="-206.25" font-family="Helvetica,sans-Serif" font-size="10.00">JASBankList</text>
</a>
</g>
</g>
<!-- Node3&#45;&gt;Node2 -->
<g id="edge2_Node000002_Node000003" class="edge">
<title>Node3&#45;&gt;Node2</title>
<g id="a_edge2_Node000002_Node000003"><a xlink:title=" ">
<path fill="none" stroke="#63b8ff" d="M50.24,-189.02C53.19,-177.12 56.78,-162.63 59.04,-153.52"/>
<polygon fill="#63b8ff" stroke="#63b8ff" points="46.85,-188.14 47.84,-198.69 53.64,-189.82 46.85,-188.14"/>
</a>
</g>
</g>
<!-- Node4 -->
<g id="Node000004" class="node">
<title>Node4</title>
<g id="a_Node000004"><a xlink:href="classJASPtrArray.html" target="_top" xlink:title=" ">
<polygon fill="white" stroke="#666666" points="240.5,-219.75 100,-219.75 100,-200.5 240.5,-200.5 240.5,-219.75"/>
<text text-anchor="middle" x="170.25" y="-206.25" font-family="Helvetica,sans-Serif" font-size="10.00">JASPtrArray&lt; JASBank, N &gt;</text>
</a>
</g>
</g>
<!-- Node4&#45;&gt;Node2 -->
<g id="edge3_Node000002_Node000004" class="edge">
<title>Node4&#45;&gt;Node2</title>
<g id="a_edge3_Node000002_Node000004"><a xlink:title=" ">
<path fill="none" stroke="#9a32cd" stroke-dasharray="5,2" d="M145.2,-194.3C124.05,-181.78 94.44,-164.27 76.63,-153.73"/>
<polygon fill="#9a32cd" stroke="#9a32cd" points="143.4,-197.31 153.79,-199.39 146.97,-191.28 143.4,-197.31"/>
</a>
</g>
<text text-anchor="middle" x="139.75" y="-173" font-family="Helvetica,sans-Serif" font-size="10.00" fill="grey"> mArray</text>
</g>
<!-- Node5 -->
<g id="Node000005" class="node">
<title>Node5</title>
<g id="a_Node000005"><a xlink:href="classJASPtrTable.html" target="_top" xlink:title=" ">
<polygon fill="white" stroke="#666666" points="186.25,-286.25 92.25,-286.25 92.25,-267 186.25,-267 186.25,-286.25"/>
<text text-anchor="middle" x="139.25" y="-272.75" font-family="Helvetica,sans-Serif" font-size="10.00">JASPtrTable&lt; T &gt;</text>
</a>
</g>
</g>
<!-- Node5&#45;&gt;Node4 -->
<g id="edge4_Node000004_Node000005" class="edge">
<title>Node5&#45;&gt;Node4</title>
<g id="a_edge4_Node000004_Node000005"><a xlink:title=" ">
<path fill="none" stroke="#63b8ff" d="M148.37,-256.64C154.19,-244.54 161.46,-229.42 165.98,-220.02"/>
<polygon fill="#63b8ff" stroke="#63b8ff" points="145.39,-254.76 144.22,-265.29 151.7,-257.8 145.39,-254.76"/>
</a>
</g>
</g>
<!-- Node6 -->
<g id="Node000006" class="node">
<title>Node6</title>
<g id="a_Node000006"><a xlink:href="classJASBank.html" target="_top" xlink:title=" ">
<polygon fill="white" stroke="#666666" points="261.88,-286.25 204.62,-286.25 204.62,-267 261.88,-267 261.88,-286.25"/>
<text text-anchor="middle" x="233.25" y="-272.75" font-family="Helvetica,sans-Serif" font-size="10.00">JASBank</text>
</a>
</g>
</g>
<!-- Node6&#45;&gt;Node4 -->
<g id="edge5_Node000004_Node000006" class="edge">
<title>Node6&#45;&gt;Node4</title>
<g id="a_edge5_Node000004_Node000006"><a xlink:title=" ">
<path fill="none" stroke="#9a32cd" stroke-dasharray="5,2" d="M216.49,-258.47C204.41,-246.1 188.59,-229.9 178.94,-220.02"/>
<polygon fill="#9a32cd" stroke="#9a32cd" points="213.94,-260.87 223.43,-265.57 218.95,-255.97 213.94,-260.87"/>
</a>
</g>
<text text-anchor="middle" x="221.75" y="-239.5" font-family="Helvetica,sans-Serif" font-size="10.00" fill="grey"> mArray</text>
</g>
<!-- Node7 -->
<g id="Node000007" class="node">
<title>Node7</title>
<g id="a_Node000007"><a xlink:href="classJASWaveBank.html" target="_top" xlink:title=" ">
<polygon fill="white" stroke="#666666" points="274.25,-352.75 192.25,-352.75 192.25,-333.5 274.25,-333.5 274.25,-352.75"/>
<text text-anchor="middle" x="233.25" y="-339.25" font-family="Helvetica,sans-Serif" font-size="10.00">JASWaveBank</text>
</a>
</g>
</g>
<!-- Node7&#45;&gt;Node6 -->
<g id="edge6_Node000006_Node000007" class="edge">
<title>Node7&#45;&gt;Node6</title>
<g id="a_edge6_Node000006_Node000007"><a xlink:title=" ">
<path fill="none" stroke="#9a32cd" stroke-dasharray="5,2" d="M233.25,-321.65C233.25,-309.82 233.25,-295.54 233.25,-286.52"/>
<polygon fill="#9a32cd" stroke="#9a32cd" points="229.75,-321.64 233.25,-331.64 236.75,-321.64 229.75,-321.64"/>
</a>
</g>
<text text-anchor="middle" x="262.12" y="-306" font-family="Helvetica,sans-Serif" font-size="10.00" fill="grey"> mWaveBank</text>
</g>
<!-- Node8&#45;&gt;Node1 -->
<g id="edge7_Node000001_Node000008" class="edge">
<title>Node8&#45;&gt;Node1</title>
<g id="a_edge7_Node000001_Node000008"><a xlink:title=" ">
<path fill="none" stroke="#63b8ff" d="M76.08,-41.15C78.08,-47.18 78.94,-53.64 77.25,-59.75 75.46,-66.19 71.65,-72.64 68.2,-77.58"/>
<polygon fill="#63b8ff" stroke="#63b8ff" points="79.41,-40.05 72.15,-32.33 73.02,-42.89 79.41,-40.05"/>
</a>
</g>
</g>
</g>
</svg>
</svg>

<style type='text/css'>
<![CDATA[
[data-mouse-over-selected='false'] { opacity: 0.7; }
[data-mouse-over-selected='true']  { opacity: 1.0; }
]]>
</style>
<script type="application/ecmascript"><![CDATA[
document.addEventListener('DOMContentLoaded', (event) => {
  highlightEdges();
  highlightAdjacentNodes();
});
]]></script>
</svg>
