<?xml version="1.0" encoding="UTF-8" standalone="no"?>
<!DOCTYPE svg PUBLIC "-//W3C//DTD SVG 1.1//EN"
 "http://www.w3.org/Graphics/SVG/1.1/DTD/svg11.dtd">
<!-- Generated by graphviz version 9.0.0 (20230911.1827)
 -->
<!-- Title: daNpcF_MoveBgActor_c Pages: 1 -->
<svg width="134pt" height="193pt"
 viewBox="0.00 0.00 133.50 193.00" xmlns="http://www.w3.org/2000/svg" xmlns:xlink="http://www.w3.org/1999/xlink">
<g id="graph0" class="graph" transform="scale(1 1) rotate(0) translate(4 189)">
<title>daNpcF_MoveBgActor_c</title>
<!-- Node1 -->
<g id="Node000001" class="node">
<title>Node1</title>
<g id="a_Node000001"><a xlink:title=" ">
<polygon fill="#999999" stroke="#666666" points="125.5,-19.25 0,-19.25 0,0 125.5,0 125.5,-19.25"/>
<text text-anchor="middle" x="62.75" y="-5.75" font-family="Helvetica,sans-Serif" font-size="10.00">daNpcF_MoveBgActor_c</text>
</a>
</g>
</g>
<!-- Node2 -->
<g id="Node000002" class="node">
<title>Node2</title>
<g id="a_Node000002"><a xlink:href="classdaNpcF__c.html" target="_top" xlink:title=" ">
<polygon fill="white" stroke="#666666" points="93.25,-74.5 32.25,-74.5 32.25,-55.25 93.25,-55.25 93.25,-74.5"/>
<text text-anchor="middle" x="62.75" y="-61" font-family="Helvetica,sans-Serif" font-size="10.00">daNpcF_c</text>
</a>
</g>
</g>
<!-- Node2&#45;&gt;Node1 -->
<g id="edge1_Node000001_Node000002" class="edge">
<title>Node2&#45;&gt;Node1</title>
<g id="a_edge1_Node000001_Node000002"><a xlink:title=" ">
<path fill="none" stroke="#63b8ff" d="M62.75,-43.63C62.75,-35.34 62.75,-26.17 62.75,-19.61"/>
<polygon fill="#63b8ff" stroke="#63b8ff" points="59.25,-43.57 62.75,-53.57 66.25,-43.57 59.25,-43.57"/>
</a>
</g>
</g>
<!-- Node3 -->
<g id="Node000003" class="node">
<title>Node3</title>
<g id="a_Node000003"><a xlink:href="structfopAc__ac__c.html" target="_top" xlink:title=" ">
<polygon fill="white" stroke="#666666" points="96.62,-129.75 28.88,-129.75 28.88,-110.5 96.62,-110.5 96.62,-129.75"/>
<text text-anchor="middle" x="62.75" y="-116.25" font-family="Helvetica,sans-Serif" font-size="10.00">fopAc_ac_c</text>
</a>
</g>
</g>
<!-- Node3&#45;&gt;Node2 -->
<g id="edge2_Node000002_Node000003" class="edge">
<title>Node3&#45;&gt;Node2</title>
<g id="a_edge2_Node000002_Node000003"><a xlink:title=" ">
<path fill="none" stroke="#63b8ff" d="M62.75,-98.88C62.75,-90.59 62.75,-81.42 62.75,-74.86"/>
<polygon fill="#63b8ff" stroke="#63b8ff" points="59.25,-98.82 62.75,-108.82 66.25,-98.82 59.25,-98.82"/>
</a>
</g>
</g>
<!-- Node4 -->
<g id="Node000004" class="node">
<title>Node4</title>
<g id="a_Node000004"><a xlink:href="structleafdraw__class.html" target="_top" xlink:title=" ">
<polygon fill="white" stroke="#666666" points="103.38,-185 22.12,-185 22.12,-165.75 103.38,-165.75 103.38,-185"/>
<text text-anchor="middle" x="62.75" y="-171.5" font-family="Helvetica,sans-Serif" font-size="10.00">leafdraw_class</text>
</a>
</g>
</g>
<!-- Node4&#45;&gt;Node3 -->
<g id="edge3_Node000003_Node000004" class="edge">
<title>Node4&#45;&gt;Node3</title>
<g id="a_edge3_Node000003_Node000004"><a xlink:title=" ">
<path fill="none" stroke="#63b8ff" d="M62.75,-154.13C62.75,-145.84 62.75,-136.67 62.75,-130.11"/>
<polygon fill="#63b8ff" stroke="#63b8ff" points="59.25,-154.07 62.75,-164.07 66.25,-154.07 59.25,-154.07"/>
</a>
</g>
</g>
</g>
</svg>
