<?xml version="1.0" encoding="UTF-8" standalone="no"?>
<!DOCTYPE svg PUBLIC "-//W3C//DTD SVG 1.1//EN"
 "http://www.w3.org/Graphics/SVG/1.1/DTD/svg11.dtd">
<!-- Generated by graphviz version 9.0.0 (20230911.1827)
 -->
<!-- Title: daItem_c Pages: 1 -->
<svg width="89pt" height="193pt"
 viewBox="0.00 0.00 89.25 193.00" xmlns="http://www.w3.org/2000/svg" xmlns:xlink="http://www.w3.org/1999/xlink">

<svg id="main" version="1.1" xmlns="http://www.w3.org/2000/svg" xmlns:xlink="http://www.w3.org/1999/xlink" xml:space="preserve" onload="init(evt)">
<style type="text/css"><![CDATA[
.node, .edge {opacity: 0.7;}
.node.selected, .edge.selected {opacity: 1;}
.edge:hover path { stroke: red; }
.edge:hover polygon { stroke: red; fill: red; }
]]></style>
<script type="application/ecmascript" xlink:href="svg.min.js"/>
<svg id="graph" class="graph">
<g id="graph0" class="graph" transform="scale(1 1) rotate(0) translate(4 189)">
<title>daItem_c</title>
<!-- Node1 -->
<g id="Node000001" class="node">
<title>Node1</title>
<g id="a_Node000001"><a xlink:title=" ">
<polygon fill="#999999" stroke="#666666" points="68.88,-19.25 12.38,-19.25 12.38,0 68.88,0 68.88,-19.25"/>
<text text-anchor="middle" x="40.62" y="-5.75" font-family="Helvetica,sans-Serif" font-size="10.00">daItem_c</text>
</a>
</g>
</g>
<!-- Node2 -->
<g id="Node000002" class="node">
<title>Node2</title>
<g id="a_Node000002"><a xlink:href="classdaItemBase__c.html" target="_top" xlink:title=" ">
<polygon fill="white" stroke="#666666" points="80.12,-74.5 1.12,-74.5 1.12,-55.25 80.12,-55.25 80.12,-74.5"/>
<text text-anchor="middle" x="40.62" y="-61" font-family="Helvetica,sans-Serif" font-size="10.00">daItemBase_c</text>
</a>
</g>
</g>
<!-- Node2&#45;&gt;Node1 -->
<g id="edge1_Node000001_Node000002" class="edge">
<title>Node2&#45;&gt;Node1</title>
<g id="a_edge1_Node000001_Node000002"><a xlink:title=" ">
<path fill="none" stroke="#63b8ff" d="M40.62,-43.63C40.62,-35.34 40.62,-26.17 40.62,-19.61"/>
<polygon fill="#63b8ff" stroke="#63b8ff" points="37.13,-43.57 40.63,-53.57 44.13,-43.57 37.13,-43.57"/>
</a>
</g>
</g>
<!-- Node3 -->
<g id="Node000003" class="node">
<title>Node3</title>
<g id="a_Node000003"><a xlink:href="structfopAc__ac__c.html" target="_top" xlink:title=" ">
<polygon fill="white" stroke="#666666" points="74.5,-129.75 6.75,-129.75 6.75,-110.5 74.5,-110.5 74.5,-129.75"/>
<text text-anchor="middle" x="40.62" y="-116.25" font-family="Helvetica,sans-Serif" font-size="10.00">fopAc_ac_c</text>
</a>
</g>
</g>
<!-- Node3&#45;&gt;Node2 -->
<g id="edge2_Node000002_Node000003" class="edge">
<title>Node3&#45;&gt;Node2</title>
<g id="a_edge2_Node000002_Node000003"><a xlink:title=" ">
<path fill="none" stroke="#63b8ff" d="M40.62,-98.88C40.62,-90.59 40.62,-81.42 40.62,-74.86"/>
<polygon fill="#63b8ff" stroke="#63b8ff" points="37.13,-98.82 40.63,-108.82 44.13,-98.82 37.13,-98.82"/>
</a>
</g>
</g>
<!-- Node4 -->
<g id="Node000004" class="node">
<title>Node4</title>
<g id="a_Node000004"><a xlink:href="structleafdraw__class.html" target="_top" xlink:title=" ">
<polygon fill="white" stroke="#666666" points="81.25,-185 0,-185 0,-165.75 81.25,-165.75 81.25,-185"/>
<text text-anchor="middle" x="40.62" y="-171.5" font-family="Helvetica,sans-Serif" font-size="10.00">leafdraw_class</text>
</a>
</g>
</g>
<!-- Node4&#45;&gt;Node3 -->
<g id="edge3_Node000003_Node000004" class="edge">
<title>Node4&#45;&gt;Node3</title>
<g id="a_edge3_Node000003_Node000004"><a xlink:title=" ">
<path fill="none" stroke="#63b8ff" d="M40.62,-154.13C40.62,-145.84 40.62,-136.67 40.62,-130.11"/>
<polygon fill="#63b8ff" stroke="#63b8ff" points="37.13,-154.07 40.63,-164.07 44.13,-154.07 37.13,-154.07"/>
</a>
</g>
</g>
</g>
</svg>
</svg>

<style type='text/css'>
<![CDATA[
[data-mouse-over-selected='false'] { opacity: 0.7; }
[data-mouse-over-selected='true']  { opacity: 1.0; }
]]>
</style>
<script type="application/ecmascript"><![CDATA[
document.addEventListener('DOMContentLoaded', (event) => {
  highlightEdges();
  highlightAdjacentNodes();
});
]]></script>
</svg>
