<?xml version="1.0" encoding="UTF-8" standalone="no"?>
<!DOCTYPE svg PUBLIC "-//W3C//DTD SVG 1.1//EN"
 "http://www.w3.org/Graphics/SVG/1.1/DTD/svg11.dtd">
<!-- Generated by graphviz version 9.0.0 (20230911.1827)
 -->
<!-- Title: JAISoundHandle Pages: 1 -->
<svg width="934pt" height="317pt"
 viewBox="0.00 0.00 934.25 316.88" xmlns="http://www.w3.org/2000/svg" xmlns:xlink="http://www.w3.org/1999/xlink">
<g id="graph0" class="graph" transform="scale(1 1) rotate(0) translate(4 312.88)">
<title>JAISoundHandle</title>
<!-- Node1 -->
<g id="Node000001" class="node">
<title>Node1</title>
<g id="a_Node000001"><a xlink:title=" ">
<polygon fill="#999999" stroke="#666666" points="783.5,-302.25 694,-302.25 694,-283 783.5,-283 783.5,-302.25"/>
<text text-anchor="middle" x="738.75" y="-288.75" font-family="Helvetica,sans-Serif" font-size="10.00">JAISoundHandle</text>
</a>
</g>
</g>
<!-- Node2 -->
<g id="Node000002" class="node">
<title>Node2</title>
<g id="a_Node000002"><a xlink:href="classJAISound.html" target="_top" xlink:title=" ">
<polygon fill="white" stroke="#666666" points="926.25,-196.25 867.5,-196.25 867.5,-177 926.25,-177 926.25,-196.25"/>
<text text-anchor="middle" x="896.88" y="-182.75" font-family="Helvetica,sans-Serif" font-size="10.00">JAISound</text>
</a>
</g>
</g>
<!-- Node1&#45;&gt;Node2 -->
<g id="edge2_Node000002_Node000001" class="edge">
<title>Node1&#45;&gt;Node2</title>
<g id="a_edge2_Node000002_Node000001"><a xlink:title=" ">
<path fill="none" stroke="#9a32cd" stroke-dasharray="5,2" d="M795.16,-298.75C813.82,-298.17 833.86,-294.4 849.5,-283.62 879.63,-262.87 890.81,-217.04 894.39,-196.69"/>
<polygon fill="#9a32cd" stroke="#9a32cd" points="795.29,-295.25 785.28,-298.73 795.28,-302.25 795.29,-295.25"/>
</a>
</g>
<text text-anchor="middle" x="826.25" y="-299.38" font-family="Helvetica,sans-Serif" font-size="10.00" fill="grey"> handle_</text>
</g>
<!-- Node2&#45;&gt;Node1 -->
<g id="edge1_Node000001_Node000002" class="edge">
<title>Node2&#45;&gt;Node1</title>
<g id="a_edge1_Node000001_Node000002"><a xlink:title=" ">
<path fill="none" stroke="#9a32cd" stroke-dasharray="5,2" d="M883.28,-205.91C874.83,-217.7 862.83,-232.42 849.5,-242.62 825.72,-260.82 794.27,-274.29 771.13,-282.64"/>
<polygon fill="#9a32cd" stroke="#9a32cd" points="886.12,-207.97 888.89,-197.74 880.34,-204.01 886.12,-207.97"/>
</a>
</g>
<text text-anchor="middle" x="826.25" y="-270.38" font-family="Helvetica,sans-Serif" font-size="10.00" fill="grey"> sound_</text>
</g>
<!-- Node3 -->
<g id="Node000003" class="node">
<title>Node3</title>
<g id="a_Node000003"><a xlink:href="classJAIAudible.html" target="_top" xlink:title=" ">
<polygon fill="white" stroke="#666666" points="770.38,-253.25 707.12,-253.25 707.12,-234 770.38,-234 770.38,-253.25"/>
<text text-anchor="middle" x="738.75" y="-239.75" font-family="Helvetica,sans-Serif" font-size="10.00">JAIAudible</text>
</a>
</g>
</g>
<!-- Node3&#45;&gt;Node2 -->
<g id="edge3_Node000002_Node000003" class="edge">
<title>Node3&#45;&gt;Node2</title>
<g id="a_edge3_Node000002_Node000003"><a xlink:title=" ">
<path fill="none" stroke="#9a32cd" stroke-dasharray="5,2" d="M781.72,-234.24C802.5,-228.98 827.74,-221.65 849.5,-212.62 860.07,-208.24 871.28,-202 880.03,-196.74"/>
<polygon fill="#9a32cd" stroke="#9a32cd" points="781.03,-230.81 772.15,-236.59 782.7,-237.61 781.03,-230.81"/>
</a>
</g>
<text text-anchor="middle" x="826.25" y="-229.38" font-family="Helvetica,sans-Serif" font-size="10.00" fill="grey"> audible_</text>
</g>
<!-- Node4 -->
<g id="Node000004" class="node">
<title>Node4</title>
<g id="a_Node000004"><a xlink:href="structJGeometry_1_1TVec3.html" target="_top" xlink:title=" ">
<polygon fill="white" stroke="#666666" points="610,-253.25 479.25,-253.25 479.25,-234 610,-234 610,-253.25"/>
<text text-anchor="middle" x="544.62" y="-239.75" font-family="Helvetica,sans-Serif" font-size="10.00">JGeometry::TVec3&lt; float &gt;</text>
</a>
</g>
</g>
<!-- Node4&#45;&gt;Node3 -->
<g id="edge4_Node000003_Node000004" class="edge">
<title>Node4&#45;&gt;Node3</title>
<g id="a_edge4_Node000003_Node000004"><a xlink:title=" ">
<path fill="none" stroke="#9a32cd" stroke-dasharray="5,2" d="M621.65,-243.62C651.42,-243.62 683.87,-243.62 706.88,-243.62"/>
<polygon fill="#9a32cd" stroke="#9a32cd" points="621.92,-240.13 611.92,-243.63 621.92,-247.13 621.92,-240.13"/>
</a>
</g>
<text text-anchor="middle" x="651.25" y="-245.38" font-family="Helvetica,sans-Serif" font-size="10.00" fill="grey"> mPos</text>
</g>
<!-- Node5 -->
<g id="Node000005" class="node">
<title>Node5</title>
<g id="a_Node000005"><a xlink:href="structJAIAudience.html" target="_top" xlink:title=" ">
<polygon fill="white" stroke="#666666" points="774.5,-216.25 703,-216.25 703,-197 774.5,-197 774.5,-216.25"/>
<text text-anchor="middle" x="738.75" y="-202.75" font-family="Helvetica,sans-Serif" font-size="10.00">JAIAudience</text>
</a>
</g>
</g>
<!-- Node5&#45;&gt;Node2 -->
<g id="edge5_Node000002_Node000005" class="edge">
<title>Node5&#45;&gt;Node2</title>
<g id="a_edge5_Node000002_Node000005"><a xlink:title=" ">
<path fill="none" stroke="#9a32cd" stroke-dasharray="5,2" d="M786.05,-200.69C812.38,-197.32 844.53,-193.2 867.22,-190.3"/>
<polygon fill="#9a32cd" stroke="#9a32cd" points="785.76,-197.2 776.29,-201.94 786.65,-204.15 785.76,-197.2"/>
</a>
</g>
<text text-anchor="middle" x="826.25" y="-199.38" font-family="Helvetica,sans-Serif" font-size="10.00" fill="grey"> audience_</text>
</g>
<!-- Node6 -->
<g id="Node000006" class="node">
<title>Node6</title>
<g id="a_Node000006"><a xlink:href="structJAISoundID.html" target="_top" xlink:title=" ">
<polygon fill="white" stroke="#666666" points="773,-179.25 704.5,-179.25 704.5,-160 773,-160 773,-179.25"/>
<text text-anchor="middle" x="738.75" y="-165.75" font-family="Helvetica,sans-Serif" font-size="10.00">JAISoundID</text>
</a>
</g>
</g>
<!-- Node6&#45;&gt;Node2 -->
<g id="edge6_Node000002_Node000006" class="edge">
<title>Node6&#45;&gt;Node2</title>
<g id="a_edge6_Node000002_Node000006"><a xlink:title=" ">
<path fill="none" stroke="#9a32cd" stroke-dasharray="5,2" d="M784.45,-166.62C804.48,-166.11 828.31,-166.7 849.5,-170.38 857.06,-171.69 865.04,-174.09 872.21,-176.65"/>
<polygon fill="#9a32cd" stroke="#9a32cd" points="784.52,-163.11 774.65,-166.97 784.77,-170.11 784.52,-163.11"/>
</a>
</g>
<text text-anchor="middle" x="826.25" y="-171.38" font-family="Helvetica,sans-Serif" font-size="10.00" fill="grey"> soundID</text>
</g>
<!-- Node7 -->
<g id="Node000007" class="node">
<title>Node7</title>
<g id="a_Node000007"><a xlink:href="structJAISoundStatus__.html" target="_top" xlink:title=" ">
<polygon fill="white" stroke="#666666" points="785,-142.25 692.5,-142.25 692.5,-123 785,-123 785,-142.25"/>
<text text-anchor="middle" x="738.75" y="-128.75" font-family="Helvetica,sans-Serif" font-size="10.00">JAISoundStatus_</text>
</a>
</g>
</g>
<!-- Node7&#45;&gt;Node2 -->
<g id="edge7_Node000002_Node000007" class="edge">
<title>Node7&#45;&gt;Node2</title>
<g id="a_edge7_Node000002_Node000007"><a xlink:title=" ">
<path fill="none" stroke="#9a32cd" stroke-dasharray="5,2" d="M796.51,-136.3C814.03,-138.87 833.03,-143.18 849.5,-150.38 863.73,-156.59 877.41,-168.21 886.18,-176.62"/>
<polygon fill="#9a32cd" stroke="#9a32cd" points="797.12,-132.85 786.75,-135.04 796.22,-139.79 797.12,-132.85"/>
</a>
</g>
<text text-anchor="middle" x="826.25" y="-151.38" font-family="Helvetica,sans-Serif" font-size="10.00" fill="grey"> status_</text>
</g>
<!-- Node8 -->
<g id="Node000008" class="node">
<title>Node8</title>
<g id="a_Node000008"><a xlink:href="structJAISoundFader.html" target="_top" xlink:title=" ">
<polygon fill="white" stroke="#666666" points="461.25,-109.25 377.75,-109.25 377.75,-90 461.25,-90 461.25,-109.25"/>
<text text-anchor="middle" x="419.5" y="-95.75" font-family="Helvetica,sans-Serif" font-size="10.00">JAISoundFader</text>
</a>
</g>
</g>
<!-- Node8&#45;&gt;Node2 -->
<g id="edge8_Node000002_Node000008" class="edge">
<title>Node8&#45;&gt;Node2</title>
<g id="a_edge8_Node000002_Node000008"><a xlink:title=" ">
<path fill="none" stroke="#9a32cd" stroke-dasharray="5,2" d="M472.91,-97.36C544.12,-95.25 675.17,-94.82 785,-113.62 814.58,-118.69 824.33,-117.27 849.5,-133.62 866.93,-144.95 881.66,-164.61 889.59,-176.53"/>
<polygon fill="#9a32cd" stroke="#9a32cd" points="472.98,-93.86 463.1,-97.68 473.21,-100.85 472.98,-93.86"/>
</a>
</g>
<text text-anchor="middle" x="651.25" y="-102.38" font-family="Helvetica,sans-Serif" font-size="10.00" fill="grey"> fader</text>
</g>
<!-- Node9 -->
<g id="Node000009" class="node">
<title>Node9</title>
<g id="a_Node000009"><a xlink:href="structJAISoundParamsTransition_1_1TTransition.html" target="_top" xlink:title=" ">
<polygon fill="white" stroke="#666666" points="135.25,-79.88 0,-79.88 0,-49.38 135.25,-49.38 135.25,-79.88"/>
<text text-anchor="start" x="8" y="-66.38" font-family="Helvetica,sans-Serif" font-size="10.00">JAISoundParamsTransition</text>
<text text-anchor="middle" x="67.62" y="-55.12" font-family="Helvetica,sans-Serif" font-size="10.00">::TTransition</text>
</a>
</g>
</g>
<!-- Node9&#45;&gt;Node8 -->
<g id="edge9_Node000008_Node000009" class="edge">
<title>Node9&#45;&gt;Node8</title>
<g id="a_edge9_Node000008_Node000009"><a xlink:title=" ">
<path fill="none" stroke="#9a32cd" stroke-dasharray="5,2" d="M146.65,-81.66C148.87,-82 151.07,-82.33 153.25,-82.62 232.11,-93.48 325.13,-97.42 377.42,-98.84"/>
<polygon fill="#9a32cd" stroke="#9a32cd" points="147.38,-78.23 136.94,-80.03 146.22,-85.13 147.38,-78.23"/>
</a>
</g>
<text text-anchor="middle" x="179.88" y="-90.38" font-family="Helvetica,sans-Serif" font-size="10.00" fill="grey"> mTransition</text>
</g>
<!-- Node14 -->
<g id="Node000014" class="node">
<title>Node14</title>
<g id="a_Node000014"><a xlink:href="structJAISoundParamsTransition.html" target="_top" xlink:title=" ">
<polygon fill="white" stroke="#666666" points="359.75,-56.25 224.5,-56.25 224.5,-37 359.75,-37 359.75,-56.25"/>
<text text-anchor="middle" x="292.12" y="-42.75" font-family="Helvetica,sans-Serif" font-size="10.00">JAISoundParamsTransition</text>
</a>
</g>
</g>
<!-- Node9&#45;&gt;Node14 -->
<g id="edge15_Node000014_Node000009" class="edge">
<title>Node9&#45;&gt;Node14</title>
<g id="a_edge15_Node000014_Node000009"><a xlink:title=" ">
<path fill="none" stroke="#9a32cd" stroke-dasharray="5,2" d="M105.44,-43.88C119.88,-36.86 136.89,-29.9 153.25,-26.38 176.39,-21.39 183,-23.6 206.5,-26.38 223.45,-28.38 241.93,-32.55 257.28,-36.6"/>
<polygon fill="#9a32cd" stroke="#9a32cd" points="104.12,-40.63 96.78,-48.27 107.28,-46.87 104.12,-40.63"/>
</a>
</g>
<text text-anchor="middle" x="179.88" y="-72.38" font-family="Helvetica,sans-Serif" font-size="10.00" fill="grey"> mDolby</text>
<text text-anchor="middle" x="179.88" y="-61.12" font-family="Helvetica,sans-Serif" font-size="10.00" fill="grey">mFxMix</text>
<text text-anchor="middle" x="179.88" y="-49.88" font-family="Helvetica,sans-Serif" font-size="10.00" fill="grey">mPan</text>
<text text-anchor="middle" x="179.88" y="-38.62" font-family="Helvetica,sans-Serif" font-size="10.00" fill="grey">mPitch</text>
<text text-anchor="middle" x="179.88" y="-27.38" font-family="Helvetica,sans-Serif" font-size="10.00" fill="grey">mVolume</text>
</g>
<!-- Node10 -->
<g id="Node000010" class="node">
<title>Node10</title>
<g id="a_Node000010"><a xlink:href="structJAISoundParams.html" target="_top" xlink:title=" ">
<polygon fill="white" stroke="#666666" points="785,-56.25 692.5,-56.25 692.5,-37 785,-37 785,-56.25"/>
<text text-anchor="middle" x="738.75" y="-42.75" font-family="Helvetica,sans-Serif" font-size="10.00">JAISoundParams</text>
</a>
</g>
</g>
<!-- Node10&#45;&gt;Node2 -->
<g id="edge10_Node000002_Node000010" class="edge">
<title>Node10&#45;&gt;Node2</title>
<g id="a_edge10_Node000002_Node000010"><a xlink:title=" ">
<path fill="none" stroke="#9a32cd" stroke-dasharray="5,2" d="M796.81,-47.89C815.35,-50.87 834.89,-57.08 849.5,-69.38 883.17,-97.7 892.56,-153.83 895.04,-176.64"/>
<polygon fill="#9a32cd" stroke="#9a32cd" points="797.32,-44.42 786.95,-46.61 796.42,-51.37 797.32,-44.42"/>
</a>
</g>
<text text-anchor="middle" x="826.25" y="-70.38" font-family="Helvetica,sans-Serif" font-size="10.00" fill="grey"> params</text>
</g>
<!-- Node11 -->
<g id="Node000011" class="node">
<title>Node11</title>
<g id="a_Node000011"><a xlink:href="structJAISoundParamsProperty.html" target="_top" xlink:title=" ">
<polygon fill="white" stroke="#666666" points="608.88,-19.25 480.38,-19.25 480.38,0 608.88,0 608.88,-19.25"/>
<text text-anchor="middle" x="544.62" y="-5.75" font-family="Helvetica,sans-Serif" font-size="10.00">JAISoundParamsProperty</text>
</a>
</g>
</g>
<!-- Node11&#45;&gt;Node10 -->
<g id="edge11_Node000010_Node000011" class="edge">
<title>Node11&#45;&gt;Node10</title>
<g id="a_edge11_Node000010_Node000011"><a xlink:title=" ">
<path fill="none" stroke="#9a32cd" stroke-dasharray="5,2" d="M620.55,-21.37C638.28,-24.39 657.09,-27.81 674.5,-31.38 682.02,-32.92 690.02,-34.71 697.69,-36.52"/>
<polygon fill="#9a32cd" stroke="#9a32cd" points="621.31,-17.94 610.86,-19.73 620.14,-24.85 621.31,-17.94"/>
</a>
</g>
<text text-anchor="middle" x="651.25" y="-32.38" font-family="Helvetica,sans-Serif" font-size="10.00" fill="grey"> mProperty</text>
</g>
<!-- Node12 -->
<g id="Node000012" class="node">
<title>Node12</title>
<g id="a_Node000012"><a xlink:href="structJAISoundParamsMove.html" target="_top" xlink:title=" ">
<polygon fill="white" stroke="#666666" points="602.88,-56.25 486.38,-56.25 486.38,-37 602.88,-37 602.88,-56.25"/>
<text text-anchor="middle" x="544.62" y="-42.75" font-family="Helvetica,sans-Serif" font-size="10.00">JAISoundParamsMove</text>
</a>
</g>
</g>
<!-- Node12&#45;&gt;Node10 -->
<g id="edge12_Node000010_Node000012" class="edge">
<title>Node12&#45;&gt;Node10</title>
<g id="a_edge12_Node000010_Node000012"><a xlink:title=" ">
<path fill="none" stroke="#9a32cd" stroke-dasharray="5,2" d="M614.49,-46.62C640.26,-46.62 668.88,-46.62 692.04,-46.62"/>
<polygon fill="#9a32cd" stroke="#9a32cd" points="614.78,-43.13 604.78,-46.63 614.78,-50.13 614.78,-43.13"/>
</a>
</g>
<text text-anchor="middle" x="651.25" y="-48.38" font-family="Helvetica,sans-Serif" font-size="10.00" fill="grey"> mMove</text>
</g>
<!-- Node13 -->
<g id="Node000013" class="node">
<title>Node13</title>
<g id="a_Node000013"><a xlink:href="structJASSoundParams.html" target="_top" xlink:title=" ">
<polygon fill="white" stroke="#666666" points="340.25,-19.25 244,-19.25 244,0 340.25,0 340.25,-19.25"/>
<text text-anchor="middle" x="292.12" y="-5.75" font-family="Helvetica,sans-Serif" font-size="10.00">JASSoundParams</text>
</a>
</g>
</g>
<!-- Node13&#45;&gt;Node12 -->
<g id="edge13_Node000012_Node000013" class="edge">
<title>Node13&#45;&gt;Node12</title>
<g id="a_edge13_Node000012_Node000013"><a xlink:title=" ">
<path fill="none" stroke="#9a32cd" stroke-dasharray="5,2" d="M351.76,-16.42C384.11,-20.36 424.97,-25.67 461.25,-31.38 471.02,-32.91 481.41,-34.71 491.41,-36.52"/>
<polygon fill="#9a32cd" stroke="#9a32cd" points="352.54,-12.99 342.19,-15.26 351.7,-19.94 352.54,-12.99"/>
</a>
</g>
<text text-anchor="middle" x="419.5" y="-32.38" font-family="Helvetica,sans-Serif" font-size="10.00" fill="grey"> mParams</text>
</g>
<!-- Node14&#45;&gt;Node12 -->
<g id="edge14_Node000012_Node000014" class="edge">
<title>Node14&#45;&gt;Node12</title>
<g id="a_edge14_Node000012_Node000014"><a xlink:title=" ">
<path fill="none" stroke="#9a32cd" stroke-dasharray="5,2" d="M371.22,-46.62C408.32,-46.62 451.89,-46.62 485.95,-46.62"/>
<polygon fill="#9a32cd" stroke="#9a32cd" points="371.44,-43.13 361.44,-46.63 371.44,-50.13 371.44,-43.13"/>
</a>
</g>
<text text-anchor="middle" x="419.5" y="-48.38" font-family="Helvetica,sans-Serif" font-size="10.00" fill="grey"> mTransition</text>
</g>
</g>
</svg>
