<?xml version="1.0" encoding="UTF-8" standalone="no"?>
<!DOCTYPE svg PUBLIC "-//W3C//DTD SVG 1.1//EN"
 "http://www.w3.org/Graphics/SVG/1.1/DTD/svg11.dtd">
<!-- Generated by graphviz version 9.0.0 (20230911.1827)
 -->
<!-- Title: Z2SoundObjMgr Pages: 1 -->
<svg width="382pt" height="253pt"
 viewBox="0.00 0.00 382.25 252.50" xmlns="http://www.w3.org/2000/svg" xmlns:xlink="http://www.w3.org/1999/xlink">
<g id="graph0" class="graph" transform="scale(1 1) rotate(0) translate(4 248.5)">
<title>Z2SoundObjMgr</title>
<!-- Node1 -->
<g id="Node000001" class="node">
<title>Node1</title>
<g id="a_Node000001"><a xlink:title=" ">
<polygon fill="#999999" stroke="#666666" points="247.12,-97 160.62,-97 160.62,-77.75 247.12,-77.75 247.12,-97"/>
<text text-anchor="middle" x="203.88" y="-83.5" font-family="Helvetica,sans-Serif" font-size="10.00">Z2SoundObjMgr</text>
</a>
</g>
</g>
<!-- Node2 -->
<g id="Node000002" class="node">
<title>Node2</title>
<g id="a_Node000002"><a xlink:href="classJASGlobalInstance.html" target="_top" xlink:title=" ">
<polygon fill="white" stroke="#666666" points="256.88,-30.5 150.88,-30.5 150.88,0 256.88,0 256.88,-30.5"/>
<text text-anchor="start" x="158.88" y="-17" font-family="Helvetica,sans-Serif" font-size="10.00">JASGlobalInstance&lt;</text>
<text text-anchor="middle" x="203.88" y="-5.75" font-family="Helvetica,sans-Serif" font-size="10.00"> Z2SoundObjMgr &gt;</text>
</a>
</g>
</g>
<!-- Node1&#45;&gt;Node2 -->
<g id="edge2_Node000002_Node000001" class="edge">
<title>Node1&#45;&gt;Node2</title>
<g id="a_edge2_Node000002_Node000001"><a xlink:title=" ">
<path fill="none" stroke="#9a32cd" stroke-dasharray="5,2" d="M178.25,-70.25C171.77,-64.05 167.5,-56.53 170.88,-48.5 173.67,-41.86 178.58,-35.9 183.77,-30.96"/>
<polygon fill="#9a32cd" stroke="#9a32cd" points="176.01,-72.94 186.02,-76.38 180.34,-67.44 176.01,-72.94"/>
</a>
</g>
<text text-anchor="middle" x="193.38" y="-50.25" font-family="Helvetica,sans-Serif" font-size="10.00" fill="grey"> sInstance</text>
</g>
<!-- Node2&#45;&gt;Node1 -->
<g id="edge1_Node000001_Node000002" class="edge">
<title>Node2&#45;&gt;Node1</title>
<g id="a_edge1_Node000001_Node000002"><a xlink:title=" ">
<path fill="none" stroke="#63b8ff" d="M218.7,-41.15C220.71,-47.18 221.57,-53.64 219.88,-59.75 218.09,-66.19 214.28,-72.64 210.82,-77.58"/>
<polygon fill="#63b8ff" stroke="#63b8ff" points="222.04,-40.05 214.77,-32.33 215.64,-42.89 222.04,-40.05"/>
</a>
</g>
</g>
<!-- Node3 -->
<g id="Node000003" class="node">
<title>Node3</title>
<g id="a_Node000003"><a xlink:href="classJSUList.html" target="_top" xlink:title=" ">
<polygon fill="white" stroke="#666666" points="145.75,-165.12 0,-165.12 0,-145.88 145.75,-145.88 145.75,-165.12"/>
<text text-anchor="middle" x="72.88" y="-151.62" font-family="Helvetica,sans-Serif" font-size="10.00">JSUList&lt; Z2CreatureEnemy &gt;</text>
</a>
</g>
</g>
<!-- Node3&#45;&gt;Node1 -->
<g id="edge3_Node000001_Node000003" class="edge">
<title>Node3&#45;&gt;Node1</title>
<g id="a_edge3_Node000001_Node000003"><a xlink:title=" ">
<path fill="none" stroke="darkgreen" d="M101.09,-140.26C126.9,-127.23 164.3,-108.35 186.15,-97.32"/>
<polygon fill="darkgreen" stroke="darkgreen" points="99.52,-137.13 92.17,-144.76 102.67,-143.38 99.52,-137.13"/>
</a>
</g>
</g>
<!-- Node4 -->
<g id="Node000004" class="node">
<title>Node4</title>
<g id="a_Node000004"><a xlink:href="classJSUPtrList.html" target="_top" xlink:title=" ">
<polygon fill="white" stroke="#666666" points="179.25,-244.5 114.5,-244.5 114.5,-225.25 179.25,-225.25 179.25,-244.5"/>
<text text-anchor="middle" x="146.88" y="-231" font-family="Helvetica,sans-Serif" font-size="10.00">JSUPtrList</text>
</a>
</g>
</g>
<!-- Node4&#45;&gt;Node3 -->
<g id="edge4_Node000003_Node000004" class="edge">
<title>Node4&#45;&gt;Node3</title>
<g id="a_edge4_Node000003_Node000004"><a xlink:title=" ">
<path fill="none" stroke="#63b8ff" d="M130.75,-217.02C115.51,-201.08 93.25,-177.81 81.26,-165.27"/>
<polygon fill="#63b8ff" stroke="#63b8ff" points="127.9,-219.1 137.34,-223.91 132.96,-214.26 127.9,-219.1"/>
</a>
</g>
</g>
<!-- Node5 -->
<g id="Node000005" class="node">
<title>Node5</title>
<g id="a_Node000005"><a xlink:href="classJSUPtrLink.html" target="_top" xlink:title=" ">
<polygon fill="white" stroke="#666666" points="230.38,-165.12 163.38,-165.12 163.38,-145.88 230.38,-145.88 230.38,-165.12"/>
<text text-anchor="middle" x="196.88" y="-151.62" font-family="Helvetica,sans-Serif" font-size="10.00">JSUPtrLink</text>
</a>
</g>
</g>
<!-- Node4&#45;&gt;Node5 -->
<g id="edge6_Node000005_Node000004" class="edge">
<title>Node4&#45;&gt;Node5</title>
<g id="a_edge6_Node000005_Node000004"><a xlink:title=" ">
<path fill="none" stroke="#9a32cd" stroke-dasharray="5,2" d="M140.62,-213.69C138.91,-204.28 138.74,-193.31 143.88,-184.75 149.08,-176.08 157.95,-169.92 166.96,-165.62"/>
<polygon fill="#9a32cd" stroke="#9a32cd" points="137.22,-214.51 143.07,-223.35 144.01,-212.79 137.22,-214.51"/>
</a>
</g>
<text text-anchor="middle" x="157.38" y="-192.12" font-family="Helvetica,sans-Serif" font-size="10.00" fill="grey"> mList</text>
</g>
<!-- Node5&#45;&gt;Node4 -->
<g id="edge5_Node000004_Node000005" class="edge">
<title>Node5&#45;&gt;Node4</title>
<g id="a_edge5_Node000004_Node000005"><a xlink:title=" ">
<path fill="none" stroke="#9a32cd" stroke-dasharray="5,2" d="M190.51,-176.04C186.8,-185.89 181.52,-197.74 174.88,-207.25 170.26,-213.85 163.82,-220.11 158.28,-224.9"/>
<polygon fill="#9a32cd" stroke="#9a32cd" points="193.77,-177.33 193.76,-166.73 187.16,-175.02 193.77,-177.33"/>
</a>
</g>
<text text-anchor="middle" x="203.75" y="-197.75" font-family="Helvetica,sans-Serif" font-size="10.00" fill="grey"> mHead</text>
<text text-anchor="middle" x="203.75" y="-186.5" font-family="Helvetica,sans-Serif" font-size="10.00" fill="grey">mTail</text>
</g>
<!-- Node5&#45;&gt;Node5 -->
<g id="edge7_Node000005_Node000005" class="edge">
<title>Node5&#45;&gt;Node5</title>
<g id="a_edge7_Node000005_Node000005"><a xlink:title=" ">
<path fill="none" stroke="#9a32cd" stroke-dasharray="5,2" d="M241.97,-160.63C245.91,-159.55 248.38,-157.84 248.38,-155.5 248.38,-151.34 240.58,-149.17 230.56,-148.98"/>
<polygon fill="#9a32cd" stroke="#9a32cd" points="241.56,-157.16 232.06,-161.84 242.41,-164.1 241.56,-157.16"/>
</a>
</g>
<text text-anchor="middle" x="263.75" y="-157.25" font-family="Helvetica,sans-Serif" font-size="10.00" fill="grey"> mNext</text>
<text text-anchor="middle" x="263.75" y="-146" font-family="Helvetica,sans-Serif" font-size="10.00" fill="grey">mPrev</text>
</g>
<!-- Node6 -->
<g id="Node000006" class="node">
<title>Node6</title>
<g id="a_Node000006"><a xlink:href="structZ2EnemyArea.html" target="_top" xlink:title=" ">
<polygon fill="white" stroke="#666666" points="374.25,-165.12 297.5,-165.12 297.5,-145.88 374.25,-145.88 374.25,-165.12"/>
<text text-anchor="middle" x="335.88" y="-151.62" font-family="Helvetica,sans-Serif" font-size="10.00">Z2EnemyArea</text>
</a>
</g>
</g>
<!-- Node6&#45;&gt;Node1 -->
<g id="edge8_Node000001_Node000006" class="edge">
<title>Node6&#45;&gt;Node1</title>
<g id="a_edge8_Node000001_Node000006"><a xlink:title=" ">
<path fill="none" stroke="#9a32cd" stroke-dasharray="5,2" d="M307.79,-140.43C281.77,-127.4 243.85,-108.4 221.73,-97.32"/>
<polygon fill="#9a32cd" stroke="#9a32cd" points="305.94,-143.42 316.44,-144.77 309.07,-137.16 305.94,-143.42"/>
</a>
</g>
<text text-anchor="middle" x="307.88" y="-116.75" font-family="Helvetica,sans-Serif" font-size="10.00" fill="grey"> mEnemyArea</text>
</g>
</g>
</svg>
