<?xml version="1.0" encoding="UTF-8" standalone="no"?>
<!DOCTYPE svg PUBLIC "-//W3C//DTD SVG 1.1//EN"
 "http://www.w3.org/Graphics/SVG/1.1/DTD/svg11.dtd">
<!-- Generated by graphviz version 9.0.0 (20230911.1827)
 -->
<!-- Title: fmpTresTypeGroupDataList_c Pages: 1 -->
<svg width="200pt" height="238pt"
 viewBox="0.00 0.00 200.25 238.00" xmlns="http://www.w3.org/2000/svg" xmlns:xlink="http://www.w3.org/1999/xlink">

<svg id="main" version="1.1" xmlns="http://www.w3.org/2000/svg" xmlns:xlink="http://www.w3.org/1999/xlink" xml:space="preserve" onload="init(evt)">
<style type="text/css"><![CDATA[
.node, .edge {opacity: 0.7;}
.node.selected, .edge.selected {opacity: 1;}
.edge:hover path { stroke: red; }
.edge:hover polygon { stroke: red; fill: red; }
]]></style>
<script type="application/ecmascript" xlink:href="svg.min.js"/>
<svg id="graph" class="graph">
<g id="graph0" class="graph" transform="scale(1 1) rotate(0) translate(4 234)">
<title>fmpTresTypeGroupDataList_c</title>
<!-- Node1 -->
<g id="Node000001" class="node">
<title>Node1</title>
<g id="a_Node000001"><a xlink:title=" ">
<polygon fill="#999999" stroke="#666666" points="146.5,-19.25 0,-19.25 0,0 146.5,0 146.5,-19.25"/>
<text text-anchor="middle" x="73.25" y="-5.75" font-family="Helvetica,sans-Serif" font-size="10.00">fmpTresTypeGroupDataList_c</text>
</a>
</g>
</g>
<!-- Node2 -->
<g id="Node000002" class="node">
<title>Node2</title>
<g id="a_Node000002"><a xlink:href="classfmpTresTypeGroupData__c.html" target="_top" xlink:title=" ">
<polygon fill="white" stroke="#666666" points="138.25,-97 8.25,-97 8.25,-77.75 138.25,-77.75 138.25,-97"/>
<text text-anchor="middle" x="73.25" y="-83.5" font-family="Helvetica,sans-Serif" font-size="10.00">fmpTresTypeGroupData_c</text>
</a>
</g>
</g>
<!-- Node2&#45;&gt;Node1 -->
<g id="edge1_Node000001_Node000002" class="edge">
<title>Node2&#45;&gt;Node1</title>
<g id="a_edge1_Node000001_Node000002"><a xlink:title=" ">
<path fill="none" stroke="#9a32cd" stroke-dasharray="5,2" d="M73.25,-66.1C73.25,-50.95 73.25,-30.98 73.25,-19.6"/>
<polygon fill="#9a32cd" stroke="#9a32cd" points="69.75,-65.87 73.25,-75.87 76.75,-65.87 69.75,-65.87"/>
</a>
</g>
<text text-anchor="middle" x="125.38" y="-50.25" font-family="Helvetica,sans-Serif" font-size="10.00" fill="grey"> mpNextData</text>
<text text-anchor="middle" x="125.38" y="-39" font-family="Helvetica,sans-Serif" font-size="10.00" fill="grey">mpTypeGroupDataHead</text>
</g>
<!-- Node2&#45;&gt;Node2 -->
<g id="edge4_Node000002_Node000002" class="edge">
<title>Node2&#45;&gt;Node2</title>
<g id="a_edge4_Node000002_Node000002"><a xlink:title=" ">
<path fill="none" stroke="#9a32cd" stroke-dasharray="5,2" d="M149.83,-91.48C153.86,-90.47 156.25,-89.1 156.25,-87.38 156.25,-84.39 149.1,-82.47 138.66,-81.63"/>
<polygon fill="#9a32cd" stroke="#9a32cd" points="149.55,-87.98 140.16,-92.9 150.56,-94.91 149.55,-87.98"/>
</a>
</g>
<text text-anchor="middle" x="174.25" y="-83.5" font-family="Helvetica,sans-Serif" font-size="10.00" fill="grey"> mpNext</text>
</g>
<!-- Node3 -->
<g id="Node000003" class="node">
<title>Node3</title>
<g id="a_Node000003"><a xlink:href="structdTres__c_1_1data__s.html" target="_top" xlink:title=" ">
<polygon fill="white" stroke="#666666" points="115.75,-163.5 30.75,-163.5 30.75,-144.25 115.75,-144.25 115.75,-163.5"/>
<text text-anchor="middle" x="73.25" y="-150" font-family="Helvetica,sans-Serif" font-size="10.00">dTres_c::data_s</text>
</a>
</g>
</g>
<!-- Node3&#45;&gt;Node2 -->
<g id="edge2_Node000002_Node000003" class="edge">
<title>Node3&#45;&gt;Node2</title>
<g id="a_edge2_Node000002_Node000003"><a xlink:title=" ">
<path fill="none" stroke="#9a32cd" stroke-dasharray="5,2" d="M73.25,-132.4C73.25,-120.57 73.25,-106.29 73.25,-97.27"/>
<polygon fill="#9a32cd" stroke="#9a32cd" points="69.75,-132.39 73.25,-142.39 76.75,-132.39 69.75,-132.39"/>
</a>
</g>
<text text-anchor="middle" x="101" y="-116.75" font-family="Helvetica,sans-Serif" font-size="10.00" fill="grey"> mpTresData</text>
</g>
<!-- Node4 -->
<g id="Node000004" class="node">
<title>Node4</title>
<g id="a_Node000004"><a xlink:href="structVec.html" target="_top" xlink:title=" ">
<polygon fill="white" stroke="#666666" points="89.88,-230 56.62,-230 56.62,-210.75 89.88,-210.75 89.88,-230"/>
<text text-anchor="middle" x="73.25" y="-216.5" font-family="Helvetica,sans-Serif" font-size="10.00">Vec</text>
</a>
</g>
</g>
<!-- Node4&#45;&gt;Node3 -->
<g id="edge3_Node000003_Node000004" class="edge">
<title>Node4&#45;&gt;Node3</title>
<g id="a_edge3_Node000003_Node000004"><a xlink:title=" ">
<path fill="none" stroke="#9a32cd" stroke-dasharray="5,2" d="M73.25,-198.9C73.25,-187.07 73.25,-172.79 73.25,-163.77"/>
<polygon fill="#9a32cd" stroke="#9a32cd" points="69.75,-198.89 73.25,-208.89 76.75,-198.89 69.75,-198.89"/>
</a>
</g>
<text text-anchor="middle" x="87.12" y="-183.25" font-family="Helvetica,sans-Serif" font-size="10.00" fill="grey"> mPos</text>
</g>
</g>
</svg>
</svg>

<style type='text/css'>
<![CDATA[
[data-mouse-over-selected='false'] { opacity: 0.7; }
[data-mouse-over-selected='true']  { opacity: 1.0; }
]]>
</style>
<script type="application/ecmascript"><![CDATA[
document.addEventListener('DOMContentLoaded', (event) => {
  highlightEdges();
  highlightAdjacentNodes();
});
]]></script>
</svg>
