<?xml version="1.0" encoding="UTF-8" standalone="no"?>
<!DOCTYPE svg PUBLIC "-//W3C//DTD SVG 1.1//EN"
 "http://www.w3.org/Graphics/SVG/1.1/DTD/svg11.dtd">
<!-- Generated by graphviz version 9.0.0 (20230911.1827)
 -->
<!-- Title: dBgS_BombAcch Pages: 1 -->
<svg width="231pt" height="248pt"
 viewBox="0.00 0.00 230.62 248.25" xmlns="http://www.w3.org/2000/svg" xmlns:xlink="http://www.w3.org/1999/xlink">

<svg id="main" version="1.1" xmlns="http://www.w3.org/2000/svg" xmlns:xlink="http://www.w3.org/1999/xlink" xml:space="preserve" onload="init(evt)">
<style type="text/css"><![CDATA[
.node, .edge {opacity: 0.7;}
.node.selected, .edge.selected {opacity: 1;}
.edge:hover path { stroke: red; }
.edge:hover polygon { stroke: red; fill: red; }
]]></style>
<script type="application/ecmascript" xlink:href="svg.min.js"/>
<svg id="graph" class="graph">
<g id="graph0" class="graph" transform="scale(1 1) rotate(0) translate(4 244.25)">
<title>dBgS_BombAcch</title>
<!-- Node1 -->
<g id="Node000001" class="node">
<title>Node1</title>
<g id="a_Node000001"><a xlink:title=" ">
<polygon fill="#999999" stroke="#666666" points="117.88,-19.25 24.62,-19.25 24.62,0 117.88,0 117.88,-19.25"/>
<text text-anchor="middle" x="71.25" y="-5.75" font-family="Helvetica,sans-Serif" font-size="10.00">dBgS_BombAcch</text>
</a>
</g>
</g>
<!-- Node2 -->
<g id="Node000002" class="node">
<title>Node2</title>
<g id="a_Node000002"><a xlink:href="structdBgS__Acch.html" target="_top" xlink:title=" ">
<polygon fill="white" stroke="#666666" points="105.12,-74.5 37.38,-74.5 37.38,-55.25 105.12,-55.25 105.12,-74.5"/>
<text text-anchor="middle" x="71.25" y="-61" font-family="Helvetica,sans-Serif" font-size="10.00">dBgS_Acch</text>
</a>
</g>
</g>
<!-- Node2&#45;&gt;Node1 -->
<g id="edge1_Node000001_Node000002" class="edge">
<title>Node2&#45;&gt;Node1</title>
<g id="a_edge1_Node000001_Node000002"><a xlink:title=" ">
<path fill="none" stroke="#63b8ff" d="M71.25,-43.63C71.25,-35.34 71.25,-26.17 71.25,-19.61"/>
<polygon fill="#63b8ff" stroke="#63b8ff" points="67.75,-43.57 71.25,-53.57 74.75,-43.57 67.75,-43.57"/>
</a>
</g>
</g>
<!-- Node3 -->
<g id="Node000003" class="node">
<title>Node3</title>
<g id="a_Node000003"><a xlink:href="classcBgS__Chk.html" target="_top" xlink:title=" ">
<polygon fill="white" stroke="#666666" points="62.5,-129.75 0,-129.75 0,-110.5 62.5,-110.5 62.5,-129.75"/>
<text text-anchor="middle" x="31.25" y="-116.25" font-family="Helvetica,sans-Serif" font-size="10.00">cBgS_Chk</text>
</a>
</g>
</g>
<!-- Node3&#45;&gt;Node2 -->
<g id="edge2_Node000002_Node000003" class="edge">
<title>Node3&#45;&gt;Node2</title>
<g id="a_edge2_Node000002_Node000003"><a xlink:title=" ">
<path fill="none" stroke="#63b8ff" d="M44.72,-101.19C51.37,-92.34 59.11,-82.04 64.5,-74.86"/>
<polygon fill="#63b8ff" stroke="#63b8ff" points="41.97,-99.02 38.76,-109.12 47.57,-103.23 41.97,-99.02"/>
</a>
</g>
</g>
<!-- Node4 -->
<g id="Node000004" class="node">
<title>Node4</title>
<g id="a_Node000004"><a xlink:href="classdBgS__Chk.html" target="_top" xlink:title=" ">
<polygon fill="white" stroke="#666666" points="143.5,-129.75 81,-129.75 81,-110.5 143.5,-110.5 143.5,-129.75"/>
<text text-anchor="middle" x="112.25" y="-116.25" font-family="Helvetica,sans-Serif" font-size="10.00">dBgS_Chk</text>
</a>
</g>
</g>
<!-- Node4&#45;&gt;Node2 -->
<g id="edge3_Node000002_Node000004" class="edge">
<title>Node4&#45;&gt;Node2</title>
<g id="a_edge3_Node000002_Node000004"><a xlink:title=" ">
<path fill="none" stroke="#63b8ff" d="M98.66,-101.47C91.79,-92.56 83.76,-82.12 78.17,-74.86"/>
<polygon fill="#63b8ff" stroke="#63b8ff" points="95.68,-103.34 104.56,-109.13 101.23,-99.07 95.68,-103.34"/>
</a>
</g>
</g>
<!-- Node5 -->
<g id="Node000005" class="node">
<title>Node5</title>
<g id="a_Node000005"><a xlink:href="structdBgS__PolyPassChk.html" target="_top" xlink:title=" ">
<polygon fill="white" stroke="#666666" points="104.12,-185 0.38,-185 0.38,-165.75 104.12,-165.75 104.12,-185"/>
<text text-anchor="middle" x="52.25" y="-171.5" font-family="Helvetica,sans-Serif" font-size="10.00">dBgS_PolyPassChk</text>
</a>
</g>
</g>
<!-- Node5&#45;&gt;Node4 -->
<g id="edge4_Node000004_Node000005" class="edge">
<title>Node5&#45;&gt;Node4</title>
<g id="a_edge4_Node000004_Node000005"><a xlink:title=" ">
<path fill="none" stroke="#63b8ff" d="M70.83,-157.89C81.19,-148.69 93.68,-137.6 102.22,-130.02"/>
<polygon fill="#63b8ff" stroke="#63b8ff" points="68.72,-155.08 63.56,-164.34 73.36,-160.32 68.72,-155.08"/>
</a>
</g>
</g>
<!-- Node6 -->
<g id="Node000006" class="node">
<title>Node6</title>
<g id="a_Node000006"><a xlink:href="classcBgS__PolyPassChk.html" target="_top" xlink:title=" ">
<polygon fill="white" stroke="#666666" points="104.12,-240.25 0.38,-240.25 0.38,-221 104.12,-221 104.12,-240.25"/>
<text text-anchor="middle" x="52.25" y="-226.75" font-family="Helvetica,sans-Serif" font-size="10.00">cBgS_PolyPassChk</text>
</a>
</g>
</g>
<!-- Node6&#45;&gt;Node5 -->
<g id="edge5_Node000005_Node000006" class="edge">
<title>Node6&#45;&gt;Node5</title>
<g id="a_edge5_Node000005_Node000006"><a xlink:title=" ">
<path fill="none" stroke="#63b8ff" d="M52.25,-209.38C52.25,-201.09 52.25,-191.92 52.25,-185.36"/>
<polygon fill="#63b8ff" stroke="#63b8ff" points="48.75,-209.32 52.25,-219.32 55.75,-209.32 48.75,-209.32"/>
</a>
</g>
</g>
<!-- Node7 -->
<g id="Node000007" class="node">
<title>Node7</title>
<g id="a_Node000007"><a xlink:href="classdBgS__GrpPassChk.html" target="_top" xlink:title=" ">
<polygon fill="white" stroke="#666666" points="222.62,-185 121.88,-185 121.88,-165.75 222.62,-165.75 222.62,-185"/>
<text text-anchor="middle" x="172.25" y="-171.5" font-family="Helvetica,sans-Serif" font-size="10.00">dBgS_GrpPassChk</text>
</a>
</g>
</g>
<!-- Node7&#45;&gt;Node4 -->
<g id="edge6_Node000004_Node000007" class="edge">
<title>Node7&#45;&gt;Node4</title>
<g id="a_edge6_Node000004_Node000007"><a xlink:title=" ">
<path fill="none" stroke="#63b8ff" d="M153.67,-157.89C143.31,-148.69 130.82,-137.6 122.28,-130.02"/>
<polygon fill="#63b8ff" stroke="#63b8ff" points="151.14,-160.32 160.94,-164.34 155.78,-155.08 151.14,-160.32"/>
</a>
</g>
</g>
<!-- Node8 -->
<g id="Node000008" class="node">
<title>Node8</title>
<g id="a_Node000008"><a xlink:href="classcBgS__GrpPassChk.html" target="_top" xlink:title=" ">
<polygon fill="white" stroke="#666666" points="222.62,-240.25 121.88,-240.25 121.88,-221 222.62,-221 222.62,-240.25"/>
<text text-anchor="middle" x="172.25" y="-226.75" font-family="Helvetica,sans-Serif" font-size="10.00">cBgS_GrpPassChk</text>
</a>
</g>
</g>
<!-- Node8&#45;&gt;Node7 -->
<g id="edge7_Node000007_Node000008" class="edge">
<title>Node8&#45;&gt;Node7</title>
<g id="a_edge7_Node000007_Node000008"><a xlink:title=" ">
<path fill="none" stroke="#63b8ff" d="M172.25,-209.38C172.25,-201.09 172.25,-191.92 172.25,-185.36"/>
<polygon fill="#63b8ff" stroke="#63b8ff" points="168.75,-209.32 172.25,-219.32 175.75,-209.32 168.75,-209.32"/>
</a>
</g>
</g>
</g>
</svg>
</svg>

<style type='text/css'>
<![CDATA[
[data-mouse-over-selected='false'] { opacity: 0.7; }
[data-mouse-over-selected='true']  { opacity: 1.0; }
]]>
</style>
<script type="application/ecmascript"><![CDATA[
document.addEventListener('DOMContentLoaded', (event) => {
  highlightEdges();
  highlightAdjacentNodes();
});
]]></script>
</svg>
