<?xml version="1.0" encoding="UTF-8" standalone="no"?>
<!DOCTYPE svg PUBLIC "-//W3C//DTD SVG 1.1//EN"
 "http://www.w3.org/Graphics/SVG/1.1/DTD/svg11.dtd">
<!-- Generated by graphviz version 9.0.0 (20230911.1827)
 -->
<!-- Title: dMenu_Fmap2DBack_c Pages: 1 -->
<svg width="214pt" height="83pt"
 viewBox="0.00 0.00 214.38 82.50" xmlns="http://www.w3.org/2000/svg" xmlns:xlink="http://www.w3.org/1999/xlink">
<g id="graph0" class="graph" transform="scale(1 1) rotate(0) translate(4 78.5)">
<title>dMenu_Fmap2DBack_c</title>
<!-- Node1 -->
<g id="Node000001" class="node">
<title>Node1</title>
<g id="a_Node000001"><a xlink:title=" ">
<polygon fill="#999999" stroke="#666666" points="153.75,-19.25 33.5,-19.25 33.5,0 153.75,0 153.75,-19.25"/>
<text text-anchor="middle" x="93.62" y="-5.75" font-family="Helvetica,sans-Serif" font-size="10.00">dMenu_Fmap2DBack_c</text>
</a>
</g>
</g>
<!-- Node2 -->
<g id="Node000002" class="node">
<title>Node2</title>
<g id="a_Node000002"><a xlink:href="classdDlst__base__c.html" target="_top" xlink:title=" ">
<polygon fill="white" stroke="#666666" points="75.25,-74.5 0,-74.5 0,-55.25 75.25,-55.25 75.25,-74.5"/>
<text text-anchor="middle" x="37.62" y="-61" font-family="Helvetica,sans-Serif" font-size="10.00">dDlst_base_c</text>
</a>
</g>
</g>
<!-- Node2&#45;&gt;Node1 -->
<g id="edge1_Node000001_Node000002" class="edge">
<title>Node2&#45;&gt;Node1</title>
<g id="a_edge1_Node000001_Node000002"><a xlink:title=" ">
<path fill="none" stroke="#63b8ff" d="M55.26,-47.11C64.87,-37.97 76.38,-27.03 84.27,-19.52"/>
<polygon fill="#63b8ff" stroke="#63b8ff" points="53.06,-44.37 48.22,-53.8 57.88,-49.44 53.06,-44.37"/>
</a>
</g>
</g>
<!-- Node3 -->
<g id="Node000003" class="node">
<title>Node3</title>
<g id="a_Node000003"><a xlink:href="structdMenuMapCommon__c.html" target="_top" xlink:title=" ">
<polygon fill="white" stroke="#666666" points="206.38,-74.5 92.88,-74.5 92.88,-55.25 206.38,-55.25 206.38,-74.5"/>
<text text-anchor="middle" x="149.62" y="-61" font-family="Helvetica,sans-Serif" font-size="10.00">dMenuMapCommon_c</text>
</a>
</g>
</g>
<!-- Node3&#45;&gt;Node1 -->
<g id="edge2_Node000001_Node000003" class="edge">
<title>Node3&#45;&gt;Node1</title>
<g id="a_edge2_Node000001_Node000003"><a xlink:title=" ">
<path fill="none" stroke="#63b8ff" d="M131.99,-47.11C122.38,-37.97 110.87,-27.03 102.98,-19.52"/>
<polygon fill="#63b8ff" stroke="#63b8ff" points="129.37,-49.44 139.03,-53.8 134.19,-44.37 129.37,-49.44"/>
</a>
</g>
</g>
</g>
</svg>
