<?xml version="1.0" encoding="UTF-8" standalone="no"?>
<!DOCTYPE svg PUBLIC "-//W3C//DTD SVG 1.1//EN"
 "http://www.w3.org/Graphics/SVG/1.1/DTD/svg11.dtd">
<!-- Generated by graphviz version 9.0.0 (20230911.1827)
 -->
<!-- Title: JAISeMgr Pages: 1 -->
<svg width="1106pt" height="278pt"
 viewBox="0.00 0.00 1106.00 277.73" xmlns="http://www.w3.org/2000/svg" xmlns:xlink="http://www.w3.org/1999/xlink">
<g id="graph0" class="graph" transform="scale(1 1) rotate(0) translate(4 273.73)">
<title>JAISeMgr</title>
<!-- Node1 -->
<g id="Node000001" class="node">
<title>Node1</title>
<g id="a_Node000001"><a xlink:title=" ">
<polygon fill="#999999" stroke="#666666" points="911,-162.25 851.5,-162.25 851.5,-143 911,-143 911,-162.25"/>
<text text-anchor="middle" x="881.25" y="-148.75" font-family="Helvetica,sans-Serif" font-size="10.00">JAISeMgr</text>
</a>
</g>
</g>
<!-- Node2 -->
<g id="Node000002" class="node">
<title>Node2</title>
<g id="a_Node000002"><a xlink:href="classJASGlobalInstance.html" target="_top" xlink:title=" ">
<polygon fill="white" stroke="#666666" points="1098,-167.88 992,-167.88 992,-137.38 1098,-137.38 1098,-167.88"/>
<text text-anchor="start" x="1000" y="-154.38" font-family="Helvetica,sans-Serif" font-size="10.00">JASGlobalInstance&lt;</text>
<text text-anchor="middle" x="1045" y="-143.12" font-family="Helvetica,sans-Serif" font-size="10.00"> JAISeMgr &gt;</text>
</a>
</g>
</g>
<!-- Node1&#45;&gt;Node2 -->
<g id="edge2_Node000002_Node000001" class="edge">
<title>Node1&#45;&gt;Node2</title>
<g id="a_edge2_Node000002_Node000001"><a xlink:title=" ">
<path fill="none" stroke="#9a32cd" stroke-dasharray="5,2" d="M922.56,-152.62C943.5,-152.62 969.34,-152.62 991.79,-152.62"/>
<polygon fill="#9a32cd" stroke="#9a32cd" points="922.68,-149.13 912.68,-152.63 922.68,-156.13 922.68,-149.13"/>
</a>
</g>
<text text-anchor="middle" x="951.5" y="-154.38" font-family="Helvetica,sans-Serif" font-size="10.00" fill="grey"> sInstance</text>
</g>
<!-- Node2&#45;&gt;Node1 -->
<g id="edge1_Node000001_Node000002" class="edge">
<title>Node2&#45;&gt;Node1</title>
<g id="a_edge1_Node000001_Node000002"><a xlink:title=" ">
<path fill="none" stroke="#63b8ff" d="M980.3,-150.64C963.61,-150.36 945.63,-150.27 929,-150.62 923.31,-150.75 917.24,-150.95 911.42,-151.18"/>
<polygon fill="#63b8ff" stroke="#63b8ff" points="980.04,-154.13 990.1,-150.83 980.17,-147.13 980.04,-154.13"/>
</a>
</g>
</g>
<!-- Node3 -->
<g id="Node000003" class="node">
<title>Node3</title>
<g id="a_Node000003"><a xlink:href="structJAISeqDataUser.html" target="_top" xlink:title=" ">
<polygon fill="white" stroke="#666666" points="540,-260.25 450.5,-260.25 450.5,-241 540,-241 540,-260.25"/>
<text text-anchor="middle" x="495.25" y="-246.75" font-family="Helvetica,sans-Serif" font-size="10.00">JAISeqDataUser</text>
</a>
</g>
</g>
<!-- Node3&#45;&gt;Node1 -->
<g id="edge3_Node000001_Node000003" class="edge">
<title>Node3&#45;&gt;Node1</title>
<g id="a_edge3_Node000001_Node000003"><a xlink:title=" ">
<path fill="none" stroke="#63b8ff" d="M551.49,-261.58C623.49,-272.6 750.06,-280.44 833.5,-220.62 854.69,-205.43 869.38,-177.47 876.1,-162.58"/>
<polygon fill="#63b8ff" stroke="#63b8ff" points="552.34,-258.17 541.91,-260.03 551.22,-265.08 552.34,-258.17"/>
</a>
</g>
</g>
<!-- Node8 -->
<g id="Node000008" class="node">
<title>Node8</title>
<g id="a_Node000008"><a xlink:href="classJAISeCategoryMgr.html" target="_top" xlink:title=" ">
<polygon fill="white" stroke="#666666" points="738.25,-76.25 640.5,-76.25 640.5,-57 738.25,-57 738.25,-76.25"/>
<text text-anchor="middle" x="689.38" y="-62.75" font-family="Helvetica,sans-Serif" font-size="10.00">JAISeCategoryMgr</text>
</a>
</g>
</g>
<!-- Node3&#45;&gt;Node8 -->
<g id="edge9_Node000008_Node000003" class="edge">
<title>Node3&#45;&gt;Node8</title>
<g id="a_edge9_Node000008_Node000003"><a xlink:title=" ">
<path fill="none" stroke="#63b8ff" d="M533.13,-235.92C560.19,-223.2 595.61,-202.17 615.75,-172.62 637.99,-140 607.71,-115.31 633.75,-85.62 636.93,-82 640.83,-79.07 645.09,-76.7"/>
<polygon fill="#63b8ff" stroke="#63b8ff" points="531.91,-232.63 524.23,-239.92 534.78,-239.01 531.91,-232.63"/>
</a>
</g>
</g>
<!-- Node4 -->
<g id="Node000004" class="node">
<title>Node4</title>
<g id="a_Node000004"><a xlink:href="classJAISoundActivity.html" target="_top" xlink:title=" ">
<polygon fill="white" stroke="#666666" points="734.88,-236.25 643.88,-236.25 643.88,-217 734.88,-217 734.88,-236.25"/>
<text text-anchor="middle" x="689.38" y="-222.75" font-family="Helvetica,sans-Serif" font-size="10.00">JAISoundActivity</text>
</a>
</g>
</g>
<!-- Node4&#45;&gt;Node1 -->
<g id="edge4_Node000001_Node000004" class="edge">
<title>Node4&#45;&gt;Node1</title>
<g id="a_edge4_Node000001_Node000004"><a xlink:title=" ">
<path fill="none" stroke="#63b8ff" d="M746.7,-221.41C774.07,-217.18 806.74,-209.5 833.5,-195.62 849.36,-187.4 863.87,-172.37 872.38,-162.43"/>
<polygon fill="#63b8ff" stroke="#63b8ff" points="746.24,-217.95 736.83,-222.82 747.22,-224.88 746.24,-217.95"/>
</a>
</g>
</g>
<!-- Node5 -->
<g id="Node000005" class="node">
<title>Node5</title>
<g id="a_Node000005"><a xlink:href="structJAIAudience.html" target="_top" xlink:title=" ">
<polygon fill="white" stroke="#666666" points="725.12,-199.25 653.62,-199.25 653.62,-180 725.12,-180 725.12,-199.25"/>
<text text-anchor="middle" x="689.38" y="-185.75" font-family="Helvetica,sans-Serif" font-size="10.00">JAIAudience</text>
</a>
</g>
</g>
<!-- Node5&#45;&gt;Node1 -->
<g id="edge5_Node000001_Node000005" class="edge">
<title>Node5&#45;&gt;Node1</title>
<g id="a_edge5_Node000001_Node000005"><a xlink:title=" ">
<path fill="none" stroke="#9a32cd" stroke-dasharray="5,2" d="M736.52,-184.41C764.74,-180.76 801.46,-175.18 833.5,-167.62 839.31,-166.26 845.43,-164.51 851.27,-162.71"/>
<polygon fill="#9a32cd" stroke="#9a32cd" points="736.36,-180.9 726.88,-185.62 737.24,-187.85 736.36,-180.9"/>
</a>
</g>
<text text-anchor="middle" x="798.25" y="-182.38" font-family="Helvetica,sans-Serif" font-size="10.00" fill="grey"> mAudience</text>
</g>
<!-- Node6 -->
<g id="Node000006" class="node">
<title>Node6</title>
<g id="a_Node000006"><a xlink:href="structJAISeqDataMgr.html" target="_top" xlink:title=" ">
<polygon fill="white" stroke="#666666" points="731.88,-162.25 646.88,-162.25 646.88,-143 731.88,-143 731.88,-162.25"/>
<text text-anchor="middle" x="689.38" y="-148.75" font-family="Helvetica,sans-Serif" font-size="10.00">JAISeqDataMgr</text>
</a>
</g>
</g>
<!-- Node6&#45;&gt;Node1 -->
<g id="edge6_Node000001_Node000006" class="edge">
<title>Node6&#45;&gt;Node1</title>
<g id="a_edge6_Node000001_Node000006"><a xlink:title=" ">
<path fill="none" stroke="#9a32cd" stroke-dasharray="5,2" d="M743.45,-152.62C778.26,-152.62 822.45,-152.62 851.04,-152.62"/>
<polygon fill="#9a32cd" stroke="#9a32cd" points="743.56,-149.13 733.56,-152.63 743.56,-156.13 743.56,-149.13"/>
</a>
</g>
<text text-anchor="middle" x="798.25" y="-154.38" font-family="Helvetica,sans-Serif" font-size="10.00" fill="grey"> mSeqDataMgr</text>
</g>
<!-- Node7 -->
<g id="Node000007" class="node">
<title>Node7</title>
<g id="a_Node000007"><a xlink:href="structJAISoundStrategyMgr.html" target="_top" xlink:title=" ">
<polygon fill="white" stroke="#666666" points="745,-124.88 633.75,-124.88 633.75,-94.38 745,-94.38 745,-124.88"/>
<text text-anchor="start" x="641.75" y="-111.38" font-family="Helvetica,sans-Serif" font-size="10.00">JAISoundStrategyMgr</text>
<text text-anchor="middle" x="689.38" y="-100.12" font-family="Helvetica,sans-Serif" font-size="10.00">&lt; JAISe &gt;</text>
</a>
</g>
</g>
<!-- Node7&#45;&gt;Node1 -->
<g id="edge7_Node000001_Node000007" class="edge">
<title>Node7&#45;&gt;Node1</title>
<g id="a_edge7_Node000001_Node000007"><a xlink:title=" ">
<path fill="none" stroke="#9a32cd" stroke-dasharray="5,2" d="M756.71,-120.72C781.02,-125.25 808.65,-130.94 833.5,-137.38 839.29,-138.87 845.4,-140.69 851.24,-142.54"/>
<polygon fill="#9a32cd" stroke="#9a32cd" points="757.4,-117.29 746.93,-118.93 756.14,-124.17 757.4,-117.29"/>
</a>
</g>
<text text-anchor="middle" x="798.25" y="-138.38" font-family="Helvetica,sans-Serif" font-size="10.00" fill="grey"> mStrategyMgr</text>
</g>
<!-- Node8&#45;&gt;Node1 -->
<g id="edge8_Node000001_Node000008" class="edge">
<title>Node8&#45;&gt;Node1</title>
<g id="a_edge8_Node000001_Node000008"><a xlink:title=" ">
<path fill="none" stroke="#9a32cd" stroke-dasharray="5,2" d="M749.72,-76.04C776.56,-82.03 807.93,-91.55 833.5,-106.38 849.7,-115.77 864.33,-132.11 872.75,-142.64"/>
<polygon fill="#9a32cd" stroke="#9a32cd" points="750.51,-72.63 740,-73.99 749.06,-79.48 750.51,-72.63"/>
</a>
</g>
<text text-anchor="middle" x="798.25" y="-107.38" font-family="Helvetica,sans-Serif" font-size="10.00" fill="grey"> mCategoryMgrs</text>
</g>
<!-- Node9 -->
<g id="Node000009" class="node">
<title>Node9</title>
<g id="a_Node000009"><a xlink:href="structJASNonCopyable.html" target="_top" xlink:title=" ">
<polygon fill="white" stroke="#666666" points="541.5,-202.25 449,-202.25 449,-183 541.5,-183 541.5,-202.25"/>
<text text-anchor="middle" x="495.25" y="-188.75" font-family="Helvetica,sans-Serif" font-size="10.00">JASNonCopyable</text>
</a>
</g>
</g>
<!-- Node9&#45;&gt;Node8 -->
<g id="edge10_Node000008_Node000009" class="edge">
<title>Node9&#45;&gt;Node8</title>
<g id="a_edge10_Node000008_Node000009"><a xlink:title=" ">
<path fill="none" stroke="#9a32cd" stroke-dasharray="5,2" d="M546,-177.93C548.6,-176.6 551.12,-175.17 553.5,-173.62 597.89,-144.8 589.56,-114.77 633.75,-85.62 639.11,-82.09 645.21,-79.13 651.34,-76.69"/>
<polygon fill="#9a32cd" stroke="#9a32cd" points="544.77,-174.64 537.05,-181.91 547.61,-181.04 544.77,-174.64"/>
</a>
</g>
<text text-anchor="middle" x="593.62" y="-159.38" font-family="Helvetica,sans-Serif" font-size="10.00" fill="grey"> field_0x4</text>
</g>
<!-- Node10 -->
<g id="Node000010" class="node">
<title>Node10</title>
<g id="a_Node000010"><a xlink:href="structJAISoundParamsMove.html" target="_top" xlink:title=" ">
<polygon fill="white" stroke="#666666" points="553.5,-30.25 437,-30.25 437,-11 553.5,-11 553.5,-30.25"/>
<text text-anchor="middle" x="495.25" y="-16.75" font-family="Helvetica,sans-Serif" font-size="10.00">JAISoundParamsMove</text>
</a>
</g>
</g>
<!-- Node10&#45;&gt;Node1 -->
<g id="edge20_Node000001_Node000010" class="edge">
<title>Node10&#45;&gt;Node1</title>
<g id="a_edge20_Node000001_Node000010"><a xlink:title=" ">
<path fill="none" stroke="#9a32cd" stroke-dasharray="5,2" d="M565.35,-18.51C615.83,-18.53 685.54,-21.8 745,-36.38 786.79,-46.62 801.19,-47.21 833.5,-75.62 855.23,-94.73 869.97,-126.43 876.47,-142.55"/>
<polygon fill="#9a32cd" stroke="#9a32cd" points="565.42,-15.01 555.44,-18.56 565.45,-22.01 565.42,-15.01"/>
</a>
</g>
<text text-anchor="middle" x="689.38" y="-38.38" font-family="Helvetica,sans-Serif" font-size="10.00" fill="grey"> mParams</text>
</g>
<!-- Node10&#45;&gt;Node8 -->
<g id="edge11_Node000008_Node000010" class="edge">
<title>Node10&#45;&gt;Node8</title>
<g id="a_edge11_Node000008_Node000010"><a xlink:title=" ">
<path fill="none" stroke="#9a32cd" stroke-dasharray="5,2" d="M549.32,-33.33C579.9,-40.65 617.8,-49.73 646.31,-56.55"/>
<polygon fill="#9a32cd" stroke="#9a32cd" points="550.42,-30 539.88,-31.07 548.79,-36.8 550.42,-30"/>
</a>
</g>
<text text-anchor="middle" x="593.62" y="-50.38" font-family="Helvetica,sans-Serif" font-size="10.00" fill="grey"> mParams</text>
</g>
<!-- Node11 -->
<g id="Node000011" class="node">
<title>Node11</title>
<g id="a_Node000011"><a xlink:href="structJASSoundParams.html" target="_top" xlink:title=" ">
<polygon fill="white" stroke="#666666" points="328.25,-19.25 232,-19.25 232,0 328.25,0 328.25,-19.25"/>
<text text-anchor="middle" x="280.12" y="-5.75" font-family="Helvetica,sans-Serif" font-size="10.00">JASSoundParams</text>
</a>
</g>
</g>
<!-- Node11&#45;&gt;Node10 -->
<g id="edge12_Node000010_Node000011" class="edge">
<title>Node11&#45;&gt;Node10</title>
<g id="a_edge12_Node000010_Node000011"><a xlink:title=" ">
<path fill="none" stroke="#9a32cd" stroke-dasharray="5,2" d="M339.99,-8.95C364.46,-9.04 393.12,-9.63 419,-11.38 424.78,-11.77 430.79,-12.3 436.79,-12.9"/>
<polygon fill="#9a32cd" stroke="#9a32cd" points="340.23,-5.45 330.23,-8.95 340.23,-12.45 340.23,-5.45"/>
</a>
</g>
<text text-anchor="middle" x="392.38" y="-13.38" font-family="Helvetica,sans-Serif" font-size="10.00" fill="grey"> mParams</text>
</g>
<!-- Node12 -->
<g id="Node000012" class="node">
<title>Node12</title>
<g id="a_Node000012"><a xlink:href="structJAISoundParamsTransition.html" target="_top" xlink:title=" ">
<polygon fill="white" stroke="#666666" points="347.75,-56.25 212.5,-56.25 212.5,-37 347.75,-37 347.75,-56.25"/>
<text text-anchor="middle" x="280.12" y="-42.75" font-family="Helvetica,sans-Serif" font-size="10.00">JAISoundParamsTransition</text>
</a>
</g>
</g>
<!-- Node12&#45;&gt;Node10 -->
<g id="edge13_Node000010_Node000012" class="edge">
<title>Node12&#45;&gt;Node10</title>
<g id="a_edge13_Node000010_Node000012"><a xlink:title=" ">
<path fill="none" stroke="#9a32cd" stroke-dasharray="5,2" d="M359.17,-37.1C384.8,-33.98 412.79,-30.56 436.62,-27.66"/>
<polygon fill="#9a32cd" stroke="#9a32cd" points="358.98,-33.6 349.48,-38.29 359.83,-40.55 358.98,-33.6"/>
</a>
</g>
<text text-anchor="middle" x="392.38" y="-38.38" font-family="Helvetica,sans-Serif" font-size="10.00" fill="grey"> mTransition</text>
</g>
<!-- Node13 -->
<g id="Node000013" class="node">
<title>Node13</title>
<g id="a_Node000013"><a xlink:href="structJAISoundParamsTransition_1_1TTransition.html" target="_top" xlink:title=" ">
<polygon fill="white" stroke="#666666" points="135.25,-61.88 0,-61.88 0,-31.38 135.25,-31.38 135.25,-61.88"/>
<text text-anchor="start" x="8" y="-48.38" font-family="Helvetica,sans-Serif" font-size="10.00">JAISoundParamsTransition</text>
<text text-anchor="middle" x="67.62" y="-37.12" font-family="Helvetica,sans-Serif" font-size="10.00">::TTransition</text>
</a>
</g>
</g>
<!-- Node13&#45;&gt;Node12 -->
<g id="edge14_Node000012_Node000013" class="edge">
<title>Node13&#45;&gt;Node12</title>
<g id="a_edge14_Node000012_Node000013"><a xlink:title=" ">
<path fill="none" stroke="#9a32cd" stroke-dasharray="5,2" d="M146.89,-46.62C168.3,-46.62 191.32,-46.62 212.05,-46.62"/>
<polygon fill="#9a32cd" stroke="#9a32cd" points="147.03,-43.13 137.03,-46.63 147.03,-50.13 147.03,-43.13"/>
</a>
</g>
<text text-anchor="middle" x="173.88" y="-93.38" font-family="Helvetica,sans-Serif" font-size="10.00" fill="grey"> mDolby</text>
<text text-anchor="middle" x="173.88" y="-82.12" font-family="Helvetica,sans-Serif" font-size="10.00" fill="grey">mFxMix</text>
<text text-anchor="middle" x="173.88" y="-70.88" font-family="Helvetica,sans-Serif" font-size="10.00" fill="grey">mPan</text>
<text text-anchor="middle" x="173.88" y="-59.62" font-family="Helvetica,sans-Serif" font-size="10.00" fill="grey">mPitch</text>
<text text-anchor="middle" x="173.88" y="-48.38" font-family="Helvetica,sans-Serif" font-size="10.00" fill="grey">mVolume</text>
</g>
<!-- Node14 -->
<g id="Node000014" class="node">
<title>Node14</title>
<g id="a_Node000014"><a xlink:href="classJSUList.html" target="_top" xlink:title=" ">
<polygon fill="white" stroke="#666666" points="543,-87.25 447.5,-87.25 447.5,-68 543,-68 543,-87.25"/>
<text text-anchor="middle" x="495.25" y="-73.75" font-family="Helvetica,sans-Serif" font-size="10.00">JSUList&lt; JAISe &gt;</text>
</a>
</g>
</g>
<!-- Node14&#45;&gt;Node8 -->
<g id="edge15_Node000008_Node000014" class="edge">
<title>Node14&#45;&gt;Node8</title>
<g id="a_edge15_Node000008_Node000014"><a xlink:title=" ">
<path fill="none" stroke="#9a32cd" stroke-dasharray="5,2" d="M554.65,-74.28C582.02,-72.71 614.24,-70.87 640.19,-69.38"/>
<polygon fill="#9a32cd" stroke="#9a32cd" points="554.54,-70.78 544.76,-74.85 554.94,-77.77 554.54,-70.78"/>
</a>
</g>
<text text-anchor="middle" x="593.62" y="-74.38" font-family="Helvetica,sans-Serif" font-size="10.00" fill="grey"> mSeList</text>
</g>
<!-- Node15 -->
<g id="Node000015" class="node">
<title>Node15</title>
<g id="a_Node000015"><a xlink:href="classJSUPtrList.html" target="_top" xlink:title=" ">
<polygon fill="white" stroke="#666666" points="312.5,-120.25 247.75,-120.25 247.75,-101 312.5,-101 312.5,-120.25"/>
<text text-anchor="middle" x="280.12" y="-106.75" font-family="Helvetica,sans-Serif" font-size="10.00">JSUPtrList</text>
</a>
</g>
</g>
<!-- Node15&#45;&gt;Node14 -->
<g id="edge16_Node000014_Node000015" class="edge">
<title>Node15&#45;&gt;Node14</title>
<g id="a_edge16_Node000014_Node000015"><a xlink:title=" ">
<path fill="none" stroke="#63b8ff" d="M323.6,-104.05C359.33,-98.52 410.35,-90.62 447.29,-84.9"/>
<polygon fill="#63b8ff" stroke="#63b8ff" points="323.41,-100.54 314.07,-105.52 324.49,-107.45 323.41,-100.54"/>
</a>
</g>
</g>
<!-- Node16 -->
<g id="Node000016" class="node">
<title>Node16</title>
<g id="a_Node000016"><a xlink:href="classJSUPtrLink.html" target="_top" xlink:title=" ">
<polygon fill="white" stroke="#666666" points="528.75,-124.25 461.75,-124.25 461.75,-105 528.75,-105 528.75,-124.25"/>
<text text-anchor="middle" x="495.25" y="-110.75" font-family="Helvetica,sans-Serif" font-size="10.00">JSUPtrLink</text>
</a>
</g>
</g>
<!-- Node15&#45;&gt;Node16 -->
<g id="edge18_Node000016_Node000015" class="edge">
<title>Node15&#45;&gt;Node16</title>
<g id="a_edge18_Node000016_Node000015"><a xlink:title=" ">
<path fill="none" stroke="#9a32cd" stroke-dasharray="5,2" d="M324.35,-109.26C351.53,-108.64 387.32,-108.27 419,-109.38 432.87,-109.86 448.16,-110.84 461.31,-111.83"/>
<polygon fill="#9a32cd" stroke="#9a32cd" points="324.32,-105.76 314.41,-109.51 324.49,-112.76 324.32,-105.76"/>
</a>
</g>
<text text-anchor="middle" x="392.38" y="-110.38" font-family="Helvetica,sans-Serif" font-size="10.00" fill="grey"> mList</text>
</g>
<!-- Node16&#45;&gt;Node15 -->
<g id="edge17_Node000015_Node000016" class="edge">
<title>Node16&#45;&gt;Node15</title>
<g id="a_edge17_Node000015_Node000016"><a xlink:title=" ">
<path fill="none" stroke="#9a32cd" stroke-dasharray="5,2" d="M450.15,-120.1C439.94,-121.15 429.1,-122.09 419,-122.62 395.37,-123.88 389.36,-124.29 365.75,-122.62 348.14,-121.38 328.61,-118.7 312.76,-116.19"/>
<polygon fill="#9a32cd" stroke="#9a32cd" points="450.28,-123.61 459.84,-119.05 449.52,-116.65 450.28,-123.61"/>
</a>
</g>
<text text-anchor="middle" x="392.38" y="-136.62" font-family="Helvetica,sans-Serif" font-size="10.00" fill="grey"> mHead</text>
<text text-anchor="middle" x="392.38" y="-125.38" font-family="Helvetica,sans-Serif" font-size="10.00" fill="grey">mTail</text>
</g>
<!-- Node16&#45;&gt;Node16 -->
<g id="edge19_Node000016_Node000016" class="edge">
<title>Node16&#45;&gt;Node16</title>
<g id="a_edge19_Node000016_Node000016"><a xlink:title=" ">
<path fill="none" stroke="#9a32cd" stroke-dasharray="5,2" d="M477.79,-135.65C479.97,-139.53 485.79,-142.25 495.25,-142.25 512.54,-142.25 517.68,-133.15 510.65,-124.54"/>
<polygon fill="#9a32cd" stroke="#9a32cd" points="481.19,-136.5 479.57,-126.03 474.31,-135.22 481.19,-136.5"/>
</a>
</g>
<text text-anchor="middle" x="495.25" y="-155.25" font-family="Helvetica,sans-Serif" font-size="10.00" fill="grey"> mNext</text>
<text text-anchor="middle" x="495.25" y="-144" font-family="Helvetica,sans-Serif" font-size="10.00" fill="grey">mPrev</text>
</g>
</g>
</svg>
