<?xml version="1.0" encoding="UTF-8" standalone="no"?>
<!DOCTYPE svg PUBLIC "-//W3C//DTD SVG 1.1//EN"
 "http://www.w3.org/Graphics/SVG/1.1/DTD/svg11.dtd">
<!-- Generated by graphviz version 9.0.0 (20230911.1827)
 -->
<!-- Title: dStage_roomDt_c Pages: 1 -->
<!--zoomable 816 -->

<svg id="main" version="1.1" xmlns="http://www.w3.org/2000/svg" xmlns:xlink="http://www.w3.org/1999/xlink" xml:space="preserve" onload="init(evt)">
<style type="text/css"><![CDATA[
.node, .edge {opacity: 0.7;}
.node.selected, .edge.selected {opacity: 1;}
.edge:hover path { stroke: red; }
.edge:hover polygon { stroke: red; fill: red; }
]]></style>

<defs>
  <circle id="rim" cx="0" cy="0" r="7"/>
  <circle id="rim2" cx="0" cy="0" r="3.5"/>
  <g id="zoomPlus">
    <use xlink:href="#rim" fill="#404040"><set attributeName="fill" to="#808080" begin="zoomplus.mouseover" end="zoomplus.mouseout"/></use>
    <path d="M-4,0h8M0,-4v8" fill="none" stroke="white" stroke-width="1.5" pointer-events="none"/>
  </g>
  <g id="zoomMin">
    <use xlink:href="#rim" fill="#404040"><set attributeName="fill" to="#808080" begin="zoomminus.mouseover" end="zoomminus.mouseout"/></use>
    <path d="M-4,0h8" fill="none" stroke="white" stroke-width="1.5" pointer-events="none"/>
  </g>
  <g id="arrowUp" transform="translate(30 24)">
    <use xlink:href="#rim"/>
    <path pointer-events="none" fill="none" stroke="white" stroke-width="1.5" d="M0,-3.0v7 M-2.5,-0.5L0,-3.0L2.5,-0.5"/>
  </g>
  <g id="arrowRight" transform="rotate(90) translate(36 -43)">
    <use xlink:href="#rim"/>
    <path pointer-events="none" fill="none" stroke="white" stroke-width="1.5" d="M0,-3.0v7 M-2.5,-0.5L0,-3.0L2.5,-0.5"/>
  </g>
  <g id="arrowDown" transform="rotate(180) translate(-30 -48)">
    <use xlink:href="#rim"/>
    <path pointer-events="none" fill="none" stroke="white" stroke-width="1.5" d="M0,-3.0v7 M-2.5,-0.5L0,-3.0L2.5,-0.5"/>
  </g>
  <g id="arrowLeft" transform="rotate(270) translate(-36 17)">
    <use xlink:href="#rim"/>
    <path pointer-events="none" fill="none" stroke="white" stroke-width="1.5" d="M0,-3.0v7 M-2.5,-0.5L0,-3.0L2.5,-0.5"/>
  </g>
  <g id="resetDef">
    <use xlink:href="#rim2" fill="#404040"><set attributeName="fill" to="#808080" begin="reset.mouseover" end="reset.mouseout"/></use>
  </g>
</defs>
<script type="application/ecmascript">
var viewWidth = 1228;
var viewHeight = 816;
var sectionId = 'dynsection-1';
</script>
<script type="application/ecmascript" xlink:href="svg.min.js"/>
<svg id="graph" class="graph">
<g id="viewport">
<title>dStage_roomDt_c</title>
<!-- Node1 -->
<g id="Node000001" class="node">
<title>Node1</title>
<g id="a_Node000001"><a xlink:title=" ">
<polygon fill="#999999" stroke="#666666" points="1220.25,-399.89 1126.25,-399.89 1126.25,-380.64 1220.25,-380.64 1220.25,-399.89"/>
<text text-anchor="middle" x="1173.25" y="-386.39" font-family="Helvetica,sans-Serif" font-size="10.00">dStage_roomDt_c</text>
</a>
</g>
</g>
<!-- Node2 -->
<g id="Node000002" class="node">
<title>Node2</title>
<g id="a_Node000002"><a xlink:href="classdStage__dt__c.html" target="_top" xlink:title=" ">
<polygon fill="white" stroke="#666666" points="993.88,-807.89 923.12,-807.89 923.12,-788.64 993.88,-788.64 993.88,-807.89"/>
<text text-anchor="middle" x="958.5" y="-794.39" font-family="Helvetica,sans-Serif" font-size="10.00">dStage_dt_c</text>
</a>
</g>
</g>
<!-- Node2&#45;&gt;Node1 -->
<g id="edge1_Node000001_Node000002" class="edge">
<title>Node2&#45;&gt;Node1</title>
<g id="a_edge1_Node000001_Node000002"><a xlink:title=" ">
<path fill="none" stroke="#63b8ff" d="M1005.3,-803.43C1038.4,-804.46 1081.76,-799.78 1108.25,-773.26 1162.81,-718.65 1170.97,-455.27 1172.09,-400.32"/>
<polygon fill="#63b8ff" stroke="#63b8ff" points="1005.75,-799.95 995.58,-802.93 1005.39,-806.94 1005.75,-799.95"/>
</a>
</g>
</g>
<!-- Node3 -->
<g id="Node000003" class="node">
<title>Node3</title>
<g id="a_Node000003"><a xlink:href="structstage__pure__lightvec__info__class.html" target="_top" xlink:title=" ">
<polygon fill="white" stroke="#666666" points="353.25,-392.51 250.25,-392.51 250.25,-362.01 353.25,-362.01 353.25,-392.51"/>
<text text-anchor="start" x="258.25" y="-379.01" font-family="Helvetica,sans-Serif" font-size="10.00">stage_pure_lightvec</text>
<text text-anchor="middle" x="301.75" y="-367.76" font-family="Helvetica,sans-Serif" font-size="10.00">_info_class</text>
</a>
</g>
</g>
<!-- Node3&#45;&gt;Node1 -->
<g id="edge2_Node000001_Node000003" class="edge">
<title>Node3&#45;&gt;Node1</title>
<g id="a_edge2_Node000001_Node000003"><a xlink:title=" ">
<path fill="none" stroke="#9a32cd" stroke-dasharray="5,2" d="M365.01,-378.19C530.79,-380.67 980.17,-387.39 1125.93,-389.57"/>
<polygon fill="#9a32cd" stroke="#9a32cd" points="365.14,-374.69 355.09,-378.04 365.04,-381.69 365.14,-374.69"/>
</a>
</g>
<text text-anchor="middle" x="695.5" y="-385.01" font-family="Helvetica,sans-Serif" font-size="10.00" fill="grey"> mLightVecInfo</text>
</g>
<!-- Node4 -->
<g id="Node000004" class="node">
<title>Node4</title>
<g id="a_Node000004"><a xlink:href="structVec.html" target="_top" xlink:title=" ">
<polygon fill="white" stroke="#666666" points="36.62,-319.89 3.38,-319.89 3.38,-300.64 36.62,-300.64 36.62,-319.89"/>
<text text-anchor="middle" x="20" y="-306.39" font-family="Helvetica,sans-Serif" font-size="10.00">Vec</text>
</a>
</g>
</g>
<!-- Node4&#45;&gt;Node3 -->
<g id="edge3_Node000003_Node000004" class="edge">
<title>Node4&#45;&gt;Node3</title>
<g id="a_edge3_Node000003_Node000004"><a xlink:title=" ">
<path fill="none" stroke="#9a32cd" stroke-dasharray="5,2" d="M34.91,-328.69C41.18,-335.66 49.16,-342.95 58,-347.26 119.25,-377.16 199.11,-381.36 250.18,-380.33"/>
<polygon fill="#9a32cd" stroke="#9a32cd" points="37.99,-326.92 28.92,-321.45 32.59,-331.38 37.99,-326.92"/>
</a>
</g>
<text text-anchor="middle" x="82.75" y="-366.01" font-family="Helvetica,sans-Serif" font-size="10.00" fill="grey"> m_position</text>
</g>
<!-- Node15 -->
<g id="Node000015" class="node">
<title>Node15</title>
<g id="a_Node000015"><a xlink:href="structcXyz.html" target="_top" xlink:title=" ">
<polygon fill="white" stroke="#666666" points="197.38,-424.89 160.38,-424.89 160.38,-405.64 197.38,-405.64 197.38,-424.89"/>
<text text-anchor="middle" x="178.88" y="-411.39" font-family="Helvetica,sans-Serif" font-size="10.00">cXyz</text>
</a>
</g>
</g>
<!-- Node4&#45;&gt;Node15 -->
<g id="edge16_Node000015_Node000004" class="edge">
<title>Node4&#45;&gt;Node15</title>
<g id="a_edge16_Node000015_Node000004"><a xlink:title=" ">
<path fill="none" stroke="#63b8ff" d="M25.13,-331.15C29.87,-349.52 39.52,-375.57 58,-390.26 87.79,-413.94 134.53,-416.73 159.95,-416.26"/>
<polygon fill="#63b8ff" stroke="#63b8ff" points="28.59,-330.59 22.96,-321.61 21.76,-332.14 28.59,-330.59"/>
</a>
</g>
</g>
<!-- Node18 -->
<g id="Node000018" class="node">
<title>Node18</title>
<g id="a_Node000018"><a xlink:href="structdStage__dPnt__c.html" target="_top" xlink:title=" ">
<polygon fill="white" stroke="#666666" points="473.5,-295.89 390.75,-295.89 390.75,-276.64 473.5,-276.64 473.5,-295.89"/>
<text text-anchor="middle" x="432.12" y="-282.39" font-family="Helvetica,sans-Serif" font-size="10.00">dStage_dPnt_c</text>
</a>
</g>
</g>
<!-- Node4&#45;&gt;Node18 -->
<g id="edge22_Node000018_Node000004" class="edge">
<title>Node4&#45;&gt;Node18</title>
<g id="a_edge22_Node000018_Node000004"><a xlink:title=" ">
<path fill="none" stroke="#9a32cd" stroke-dasharray="5,2" d="M48.2,-307.2C69.27,-304.92 99.2,-301.89 125.5,-300.01 220.33,-293.23 331.97,-289.21 390.55,-287.4"/>
<polygon fill="#9a32cd" stroke="#9a32cd" points="47.97,-303.7 38.42,-308.27 48.74,-310.66 47.97,-303.7"/>
</a>
</g>
<text text-anchor="middle" x="178.88" y="-301.01" font-family="Helvetica,sans-Serif" font-size="10.00" fill="grey"> m_position</text>
</g>
<!-- Node22 -->
<g id="Node000022" class="node">
<title>Node22</title>
<g id="a_Node000022"><a xlink:href="structstage__camera2__data__class.html" target="_top" xlink:title=" ">
<polygon fill="white" stroke="#666666" points="232.25,-214.51 125.5,-214.51 125.5,-184.01 232.25,-184.01 232.25,-214.51"/>
<text text-anchor="start" x="133.5" y="-201.01" font-family="Helvetica,sans-Serif" font-size="10.00">stage_camera2_data</text>
<text text-anchor="middle" x="178.88" y="-189.76" font-family="Helvetica,sans-Serif" font-size="10.00">_class</text>
</a>
</g>
</g>
<!-- Node4&#45;&gt;Node22 -->
<g id="edge28_Node000022_Node000004" class="edge">
<title>Node4&#45;&gt;Node22</title>
<g id="a_edge28_Node000022_Node000004"><a xlink:title=" ">
<path fill="none" stroke="#9a32cd" stroke-dasharray="5,2" d="M32.62,-290.8C39.17,-280.99 48.04,-269.42 58,-261.01 81.43,-241.23 112.28,-225.52 136.81,-214.9"/>
<polygon fill="#9a32cd" stroke="#9a32cd" points="29.67,-288.92 27.28,-299.25 35.58,-292.66 29.67,-288.92"/>
</a>
</g>
<text text-anchor="middle" x="82.75" y="-262.01" font-family="Helvetica,sans-Serif" font-size="10.00" fill="grey"> field_0x4</text>
</g>
<!-- Node28 -->
<g id="Node000028" class="node">
<title>Node28</title>
<g id="a_Node000028"><a xlink:href="structstage__sound__data.html" target="_top" xlink:title=" ">
<polygon fill="white" stroke="#666666" points="226.62,-94.89 131.12,-94.89 131.12,-75.64 226.62,-75.64 226.62,-94.89"/>
<text text-anchor="middle" x="178.88" y="-81.39" font-family="Helvetica,sans-Serif" font-size="10.00">stage_sound_data</text>
</a>
</g>
</g>
<!-- Node4&#45;&gt;Node28 -->
<g id="edge37_Node000028_Node000004" class="edge">
<title>Node4&#45;&gt;Node28</title>
<g id="a_edge37_Node000028_Node000004"><a xlink:title=" ">
<path fill="none" stroke="#9a32cd" stroke-dasharray="5,2" d="M26.36,-289.41C32.2,-268.95 42.79,-237.36 58,-213.01 89.27,-162.98 141.99,-115.41 165.69,-95.31"/>
<polygon fill="#9a32cd" stroke="#9a32cd" points="23.05,-288.27 23.8,-298.83 29.8,-290.1 23.05,-288.27"/>
</a>
</g>
<text text-anchor="middle" x="82.75" y="-214.01" font-family="Helvetica,sans-Serif" font-size="10.00" fill="grey"> field_0x8</text>
</g>
<!-- Node33 -->
<g id="Node000033" class="node">
<title>Node33</title>
<g id="a_Node000033"><a xlink:href="classstage__tresure__class.html" target="_top" xlink:title=" ">
<polygon fill="white" stroke="#666666" points="616.25,-342.89 512.5,-342.89 512.5,-323.64 616.25,-323.64 616.25,-342.89"/>
<text text-anchor="middle" x="564.38" y="-329.39" font-family="Helvetica,sans-Serif" font-size="10.00">stage_tresure_class</text>
</a>
</g>
</g>
<!-- Node4&#45;&gt;Node33 -->
<g id="edge43_Node000033_Node000004" class="edge">
<title>Node4&#45;&gt;Node33</title>
<g id="a_edge43_Node000033_Node000004"><a xlink:title=" ">
<path fill="none" stroke="#9a32cd" stroke-dasharray="5,2" d="M47.88,-315.85C51.27,-316.41 54.71,-316.9 58,-317.26 223.36,-335.41 420.83,-335.46 512.26,-334.26"/>
<polygon fill="#9a32cd" stroke="#9a32cd" points="48.72,-312.45 38.25,-314.08 47.45,-319.33 48.72,-312.45"/>
</a>
</g>
<text text-anchor="middle" x="178.88" y="-331.01" font-family="Helvetica,sans-Serif" font-size="10.00" fill="grey"> mPosition</text>
</g>
<!-- Node5 -->
<g id="Node000005" class="node">
<title>Node5</title>
<g id="a_Node000005"><a xlink:href="structstage__map__info__class.html" target="_top" xlink:title=" ">
<polygon fill="white" stroke="#666666" points="752.25,-677.89 638.75,-677.89 638.75,-658.64 752.25,-658.64 752.25,-677.89"/>
<text text-anchor="middle" x="695.5" y="-664.39" font-family="Helvetica,sans-Serif" font-size="10.00">stage_map_info_class</text>
</a>
</g>
</g>
<!-- Node5&#45;&gt;Node1 -->
<g id="edge4_Node000001_Node000005" class="edge">
<title>Node5&#45;&gt;Node1</title>
<g id="a_edge4_Node000001_Node000005"><a xlink:title=" ">
<path fill="none" stroke="#9a32cd" stroke-dasharray="5,2" d="M763.74,-671.22C866.94,-674.32 1057.74,-673.84 1108.25,-631.26 1144.99,-600.29 1166.14,-441.8 1171.11,-400.25"/>
<polygon fill="#9a32cd" stroke="#9a32cd" points="764.14,-667.73 754.03,-670.91 763.91,-674.73 764.14,-667.73"/>
</a>
</g>
<text text-anchor="middle" x="958.5" y="-673.01" font-family="Helvetica,sans-Serif" font-size="10.00" fill="grey"> mMapInfo</text>
</g>
<!-- Node6 -->
<g id="Node000006" class="node">
<title>Node6</title>
<g id="a_Node000006"><a xlink:href="structstage__map__info__dummy__class.html" target="_top" xlink:title=" ">
<polygon fill="white" stroke="#666666" points="1019.38,-723.51 897.62,-723.51 897.62,-693.01 1019.38,-693.01 1019.38,-723.51"/>
<text text-anchor="start" x="905.62" y="-710.01" font-family="Helvetica,sans-Serif" font-size="10.00">stage_map_info_dummy</text>
<text text-anchor="middle" x="958.5" y="-698.76" font-family="Helvetica,sans-Serif" font-size="10.00">_class</text>
</a>
</g>
</g>
<!-- Node5&#45;&gt;Node6 -->
<g id="edge6_Node000006_Node000005" class="edge">
<title>Node5&#45;&gt;Node6</title>
<g id="a_edge6_Node000006_Node000005"><a xlink:title=" ">
<path fill="none" stroke="#9a32cd" stroke-dasharray="5,2" d="M763.83,-678.58C805.16,-684.91 857.62,-692.95 897.51,-699.07"/>
<polygon fill="#9a32cd" stroke="#9a32cd" points="764.4,-675.13 753.99,-677.07 763.34,-682.05 764.4,-675.13"/>
</a>
</g>
<text text-anchor="middle" x="826.25" y="-697.01" font-family="Helvetica,sans-Serif" font-size="10.00" fill="grey"> mData</text>
</g>
<!-- Node6&#45;&gt;Node1 -->
<g id="edge5_Node000001_Node000006" class="edge">
<title>Node6&#45;&gt;Node1</title>
<g id="a_edge5_Node000001_Node000006"><a xlink:title=" ">
<path fill="none" stroke="#9a32cd" stroke-dasharray="5,2" d="M1030.74,-709.23C1058.26,-705.93 1087.94,-697.29 1108.25,-677.26 1149.14,-636.93 1167.59,-445.79 1171.46,-400.09"/>
<polygon fill="#9a32cd" stroke="#9a32cd" points="1030.65,-705.72 1021.03,-710.16 1031.32,-712.69 1030.65,-705.72"/>
</a>
</g>
<text text-anchor="middle" x="1073" y="-709.01" font-family="Helvetica,sans-Serif" font-size="10.00" fill="grey"> mMapInfoBase</text>
</g>
<!-- Node7 -->
<g id="Node000007" class="node">
<title>Node7</title>
<g id="a_Node000007"><a xlink:href="structstage__vrbox__info__class.html" target="_top" xlink:title=" ">
<polygon fill="white" stroke="#666666" points="1017.5,-626.89 899.5,-626.89 899.5,-607.64 1017.5,-607.64 1017.5,-626.89"/>
<text text-anchor="middle" x="958.5" y="-613.39" font-family="Helvetica,sans-Serif" font-size="10.00">stage_vrbox_info_class</text>
</a>
</g>
</g>
<!-- Node7&#45;&gt;Node1 -->
<g id="edge7_Node000001_Node000007" class="edge">
<title>Node7&#45;&gt;Node1</title>
<g id="a_edge7_Node000001_Node000007"><a xlink:title=" ">
<path fill="none" stroke="#9a32cd" stroke-dasharray="5,2" d="M1029.12,-617.84C1056.67,-614.64 1086.81,-606.36 1108.25,-587.26 1165.71,-536.06 1171.83,-432.8 1172.29,-400.29"/>
<polygon fill="#9a32cd" stroke="#9a32cd" points="1029.04,-614.33 1019.41,-618.75 1029.7,-621.3 1029.04,-614.33"/>
</a>
</g>
<text text-anchor="middle" x="1073" y="-618.01" font-family="Helvetica,sans-Serif" font-size="10.00" fill="grey"> mVrboxInfo</text>
</g>
<!-- Node8 -->
<g id="Node000008" class="node">
<title>Node8</title>
<g id="a_Node000008"><a xlink:href="structcolor__RGB__class.html" target="_top" xlink:title=" ">
<polygon fill="white" stroke="#666666" points="741.38,-623.89 649.62,-623.89 649.62,-604.64 741.38,-604.64 741.38,-623.89"/>
<text text-anchor="middle" x="695.5" y="-610.39" font-family="Helvetica,sans-Serif" font-size="10.00">color_RGB_class</text>
</a>
</g>
</g>
<!-- Node8&#45;&gt;Node7 -->
<g id="edge8_Node000007_Node000008" class="edge">
<title>Node8&#45;&gt;Node7</title>
<g id="a_edge8_Node000007_Node000008"><a xlink:title=" ">
<path fill="none" stroke="#9a32cd" stroke-dasharray="5,2" d="M752.86,-614.42C788.99,-614.58 836.88,-614.89 879.25,-615.51 885.77,-615.61 892.6,-615.73 899.39,-615.86"/>
<polygon fill="#9a32cd" stroke="#9a32cd" points="753.09,-610.92 743.08,-614.38 753.06,-617.92 753.09,-610.92"/>
</a>
</g>
<text text-anchor="middle" x="826.25" y="-639.51" font-family="Helvetica,sans-Serif" font-size="10.00" fill="grey"> field_0x0</text>
<text text-anchor="middle" x="826.25" y="-628.26" font-family="Helvetica,sans-Serif" font-size="10.00" fill="grey">field_0x3</text>
<text text-anchor="middle" x="826.25" y="-617.01" font-family="Helvetica,sans-Serif" font-size="10.00" fill="grey">field_0x6</text>
</g>
<!-- Node9 -->
<g id="Node000009" class="node">
<title>Node9</title>
<g id="a_Node000009"><a xlink:href="struct__GXColor.html" target="_top" xlink:title=" ">
<polygon fill="white" stroke="#666666" points="724.5,-566.89 666.5,-566.89 666.5,-547.64 724.5,-547.64 724.5,-566.89"/>
<text text-anchor="middle" x="695.5" y="-553.39" font-family="Helvetica,sans-Serif" font-size="10.00">_GXColor</text>
</a>
</g>
</g>
<!-- Node9&#45;&gt;Node7 -->
<g id="edge9_Node000007_Node000009" class="edge">
<title>Node9&#45;&gt;Node7</title>
<g id="a_edge9_Node000007_Node000009"><a xlink:title=" ">
<path fill="none" stroke="#9a32cd" stroke-dasharray="5,2" d="M736.04,-553.14C774.84,-550.92 834.53,-552.53 879.25,-576.51 890.31,-582.44 886.84,-591.25 897.25,-598.26 902.62,-601.87 908.71,-604.83 914.91,-607.24"/>
<polygon fill="#9a32cd" stroke="#9a32cd" points="735.95,-549.63 726.22,-553.82 736.44,-556.62 735.95,-549.63"/>
</a>
</g>
<text text-anchor="middle" x="826.25" y="-600.51" font-family="Helvetica,sans-Serif" font-size="10.00" fill="grey"> field_0x11</text>
<text text-anchor="middle" x="826.25" y="-589.26" font-family="Helvetica,sans-Serif" font-size="10.00" fill="grey">field_0x9</text>
<text text-anchor="middle" x="826.25" y="-578.01" font-family="Helvetica,sans-Serif" font-size="10.00" fill="grey">field_0xd</text>
</g>
<!-- Node10 -->
<g id="Node000010" class="node">
<title>Node10</title>
<g id="a_Node000010"><a xlink:href="structstage__vrboxcol__info__class.html" target="_top" xlink:title=" ">
<polygon fill="white" stroke="#666666" points="1009.62,-589.51 907.38,-589.51 907.38,-559.01 1009.62,-559.01 1009.62,-589.51"/>
<text text-anchor="start" x="915.38" y="-576.01" font-family="Helvetica,sans-Serif" font-size="10.00">stage_vrboxcol_info</text>
<text text-anchor="middle" x="958.5" y="-564.76" font-family="Helvetica,sans-Serif" font-size="10.00">_class</text>
</a>
</g>
</g>
<!-- Node10&#45;&gt;Node1 -->
<g id="edge10_Node000001_Node000010" class="edge">
<title>Node10&#45;&gt;Node1</title>
<g id="a_edge10_Node000001_Node000010"><a xlink:title=" ">
<path fill="none" stroke="#9a32cd" stroke-dasharray="5,2" d="M1021.41,-575.23C1050.57,-572.66 1084.16,-564.97 1108.25,-545.26 1155.34,-506.72 1168.2,-427.8 1171.33,-400.12"/>
<polygon fill="#9a32cd" stroke="#9a32cd" points="1021.31,-571.73 1011.57,-575.89 1021.78,-578.71 1021.31,-571.73"/>
</a>
</g>
<text text-anchor="middle" x="1073" y="-574.01" font-family="Helvetica,sans-Serif" font-size="10.00" fill="grey"> mVrboxcolInfo</text>
</g>
<!-- Node11 -->
<g id="Node000011" class="node">
<title>Node11</title>
<g id="a_Node000011"><a xlink:href="classdStage__FileList2__dt__c.html" target="_top" xlink:title=" ">
<polygon fill="white" stroke="#666666" points="1015.25,-540.89 901.75,-540.89 901.75,-521.64 1015.25,-521.64 1015.25,-540.89"/>
<text text-anchor="middle" x="958.5" y="-527.39" font-family="Helvetica,sans-Serif" font-size="10.00">dStage_FileList2_dt_c</text>
</a>
</g>
</g>
<!-- Node11&#45;&gt;Node1 -->
<g id="edge11_Node000001_Node000011" class="edge">
<title>Node11&#45;&gt;Node1</title>
<g id="a_edge11_Node000001_Node000011"><a xlink:title=" ">
<path fill="none" stroke="#9a32cd" stroke-dasharray="5,2" d="M1026.63,-532.39C1054.06,-529.86 1084.78,-522.9 1108.25,-506.26 1145.97,-479.53 1163.91,-423.26 1169.88,-400.32"/>
<polygon fill="#9a32cd" stroke="#9a32cd" points="1026.74,-528.87 1017.02,-533.08 1027.25,-535.85 1026.74,-528.87"/>
</a>
</g>
<text text-anchor="middle" x="1073" y="-532.01" font-family="Helvetica,sans-Serif" font-size="10.00" fill="grey"> mFileList2Info</text>
</g>
<!-- Node12 -->
<g id="Node000012" class="node">
<title>Node12</title>
<g id="a_Node000012"><a xlink:href="classdStage__FileList__dt__c.html" target="_top" xlink:title=" ">
<polygon fill="white" stroke="#666666" points="1012.62,-503.89 904.38,-503.89 904.38,-484.64 1012.62,-484.64 1012.62,-503.89"/>
<text text-anchor="middle" x="958.5" y="-490.39" font-family="Helvetica,sans-Serif" font-size="10.00">dStage_FileList_dt_c</text>
</a>
</g>
</g>
<!-- Node12&#45;&gt;Node1 -->
<g id="edge12_Node000001_Node000012" class="edge">
<title>Node12&#45;&gt;Node1</title>
<g id="a_edge12_Node000001_Node000012"><a xlink:title=" ">
<path fill="none" stroke="#9a32cd" stroke-dasharray="5,2" d="M1023.98,-493.43C1051.49,-490.63 1083,-483.99 1108.25,-469.26 1137.06,-452.45 1158.22,-417.4 1167.31,-400.21"/>
<polygon fill="#9a32cd" stroke="#9a32cd" points="1024.04,-489.91 1014.37,-494.25 1024.64,-496.89 1024.04,-489.91"/>
</a>
</g>
<text text-anchor="middle" x="1073" y="-493.01" font-family="Helvetica,sans-Serif" font-size="10.00" fill="grey"> mFileListInfo</text>
</g>
<!-- Node13 -->
<g id="Node000013" class="node">
<title>Node13</title>
<g id="a_Node000013"><a xlink:href="classstage__actor__class.html" target="_top" xlink:title=" ">
<polygon fill="white" stroke="#666666" points="874,-464.89 778.5,-464.89 778.5,-445.64 874,-445.64 874,-464.89"/>
<text text-anchor="middle" x="826.25" y="-451.39" font-family="Helvetica,sans-Serif" font-size="10.00">stage_actor_class</text>
</a>
</g>
</g>
<!-- Node13&#45;&gt;Node1 -->
<g id="edge13_Node000001_Node000013" class="edge">
<title>Node13&#45;&gt;Node1</title>
<g id="a_edge13_Node000001_Node000013"><a xlink:title=" ">
<path fill="none" stroke="#9a32cd" stroke-dasharray="5,2" d="M885.76,-456.99C943.67,-457.02 1034.16,-452.47 1108.25,-428.26 1127.41,-422 1146.99,-409.26 1159.35,-400.26"/>
<polygon fill="#9a32cd" stroke="#9a32cd" points="885.8,-453.49 875.78,-456.94 885.76,-460.49 885.8,-453.49"/>
</a>
</g>
<text text-anchor="middle" x="958.5" y="-458.01" font-family="Helvetica,sans-Serif" font-size="10.00" fill="grey"> mPlayer</text>
</g>
<!-- Node14 -->
<g id="Node000014" class="node">
<title>Node14</title>
<g id="a_Node000014"><a xlink:href="classstage__actor__data__class.html" target="_top" xlink:title=" ">
<polygon fill="white" stroke="#666666" points="491.88,-448.89 372.38,-448.89 372.38,-429.64 491.88,-429.64 491.88,-448.89"/>
<text text-anchor="middle" x="432.12" y="-435.39" font-family="Helvetica,sans-Serif" font-size="10.00">stage_actor_data_class</text>
</a>
</g>
</g>
<!-- Node14&#45;&gt;Node13 -->
<g id="edge14_Node000013_Node000014" class="edge">
<title>Node14&#45;&gt;Node13</title>
<g id="a_edge14_Node000013_Node000014"><a xlink:title=" ">
<path fill="none" stroke="#9a32cd" stroke-dasharray="5,2" d="M503.62,-442.14C583.09,-445.38 710.06,-450.56 778.27,-453.34"/>
<polygon fill="#9a32cd" stroke="#9a32cd" points="503.9,-438.65 493.77,-441.74 503.62,-445.64 503.9,-438.65"/>
</a>
</g>
<text text-anchor="middle" x="564.38" y="-448.01" font-family="Helvetica,sans-Serif" font-size="10.00" fill="grey"> mEntries</text>
</g>
<!-- Node35 -->
<g id="Node000035" class="node">
<title>Node35</title>
<g id="a_Node000035"><a xlink:href="structstage__tgsc__data__class.html" target="_top" xlink:title=" ">
<polygon fill="white" stroke="#666666" points="753.75,-427.89 637.25,-427.89 637.25,-408.64 753.75,-408.64 753.75,-427.89"/>
<text text-anchor="middle" x="695.5" y="-414.39" font-family="Helvetica,sans-Serif" font-size="10.00">stage_tgsc_data_class</text>
</a>
</g>
</g>
<!-- Node14&#45;&gt;Node35 -->
<g id="edge46_Node000035_Node000014" class="edge">
<title>Node14&#45;&gt;Node35</title>
<g id="a_edge46_Node000035_Node000014"><a xlink:title=" ">
<path fill="none" stroke="#63b8ff" d="M503.34,-433.62C545.21,-430.26 597.7,-426.04 637.08,-422.87"/>
<polygon fill="#63b8ff" stroke="#63b8ff" points="503.3,-430.11 493.62,-434.4 503.87,-437.09 503.3,-430.11"/>
</a>
</g>
</g>
<!-- Node15&#45;&gt;Node14 -->
<g id="edge15_Node000014_Node000015" class="edge">
<title>Node15&#45;&gt;Node14</title>
<g id="a_edge15_Node000014_Node000015"><a xlink:title=" ">
<path fill="none" stroke="#9a32cd" stroke-dasharray="5,2" d="M208.74,-416.44C243.21,-418.02 302.56,-421.32 353.25,-427.01 359.37,-427.7 365.75,-428.52 372.1,-429.41"/>
<polygon fill="#9a32cd" stroke="#9a32cd" points="209.3,-412.96 199.15,-416.01 208.99,-419.95 209.3,-412.96"/>
</a>
</g>
<text text-anchor="middle" x="301.75" y="-428.01" font-family="Helvetica,sans-Serif" font-size="10.00" fill="grey"> mSpawnPos</text>
</g>
<!-- Node15&#45;&gt;Node15 -->
<g id="edge17_Node000015_Node000015" class="edge">
<title>Node15&#45;&gt;Node15</title>
<g id="a_edge17_Node000015_Node000015"><a xlink:title=" ">
<path fill="none" stroke="#9a32cd" stroke-dasharray="5,2" d="M161.81,-436.29C163.95,-440.16 169.63,-442.89 178.88,-442.89 195.77,-442.89 200.79,-433.78 193.92,-425.17"/>
<polygon fill="#9a32cd" stroke="#9a32cd" points="165.22,-437.13 163.56,-426.66 158.33,-435.88 165.22,-437.13"/>
</a>
</g>
<text text-anchor="middle" x="178.88" y="-523.39" font-family="Helvetica,sans-Serif" font-size="10.00" fill="grey"> BaseX</text>
<text text-anchor="middle" x="178.88" y="-512.14" font-family="Helvetica,sans-Serif" font-size="10.00" fill="grey">BaseXY</text>
<text text-anchor="middle" x="178.88" y="-500.89" font-family="Helvetica,sans-Serif" font-size="10.00" fill="grey">BaseXYZ</text>
<text text-anchor="middle" x="178.88" y="-489.64" font-family="Helvetica,sans-Serif" font-size="10.00" fill="grey">BaseXZ</text>
<text text-anchor="middle" x="178.88" y="-478.39" font-family="Helvetica,sans-Serif" font-size="10.00" fill="grey">BaseY</text>
<text text-anchor="middle" x="178.88" y="-467.14" font-family="Helvetica,sans-Serif" font-size="10.00" fill="grey">BaseYZ</text>
<text text-anchor="middle" x="178.88" y="-455.89" font-family="Helvetica,sans-Serif" font-size="10.00" fill="grey">BaseZ</text>
<text text-anchor="middle" x="178.88" y="-444.64" font-family="Helvetica,sans-Serif" font-size="10.00" fill="grey">Zero</text>
</g>
<!-- Node24 -->
<g id="Node000024" class="node">
<title>Node24</title>
<g id="a_Node000024"><a xlink:href="structstage__arrow__data__class.html" target="_top" xlink:title=" ">
<polygon fill="white" stroke="#666666" points="493,-569.89 371.25,-569.89 371.25,-550.64 493,-550.64 493,-569.89"/>
<text text-anchor="middle" x="432.12" y="-556.39" font-family="Helvetica,sans-Serif" font-size="10.00">stage_arrow_data_class</text>
</a>
</g>
</g>
<!-- Node15&#45;&gt;Node24 -->
<g id="edge31_Node000024_Node000015" class="edge">
<title>Node15&#45;&gt;Node24</title>
<g id="a_edge31_Node000024_Node000015"><a xlink:title=" ">
<path fill="none" stroke="#9a32cd" stroke-dasharray="5,2" d="M208.64,-424.91C221.36,-429.11 236.52,-434.04 250.25,-438.26 295.79,-452.28 313.27,-442.08 353.25,-468.01 387.19,-490.02 414.22,-531.28 425.46,-550.25"/>
<polygon fill="#9a32cd" stroke="#9a32cd" points="209.78,-421.6 199.19,-421.77 207.58,-428.25 209.78,-421.6"/>
</a>
</g>
<text text-anchor="middle" x="301.75" y="-469.01" font-family="Helvetica,sans-Serif" font-size="10.00" fill="grey"> mPosition</text>
</g>
<!-- Node16 -->
<g id="Node000016" class="node">
<title>Node16</title>
<g id="a_Node000016"><a xlink:href="structcsXyz.html" target="_top" xlink:title=" ">
<polygon fill="white" stroke="#666666" points="200,-569.89 157.75,-569.89 157.75,-550.64 200,-550.64 200,-569.89"/>
<text text-anchor="middle" x="178.88" y="-556.39" font-family="Helvetica,sans-Serif" font-size="10.00">csXyz</text>
</a>
</g>
</g>
<!-- Node16&#45;&gt;Node14 -->
<g id="edge18_Node000014_Node000016" class="edge">
<title>Node16&#45;&gt;Node14</title>
<g id="a_edge18_Node000014_Node000016"><a xlink:title=" ">
<path fill="none" stroke="#9a32cd" stroke-dasharray="5,2" d="M210.96,-550.42C218.04,-547.95 225.46,-545.17 232.25,-542.26 301.6,-512.58 380.05,-468.73 413.98,-449.24"/>
<polygon fill="#9a32cd" stroke="#9a32cd" points="210.08,-547.02 201.72,-553.54 212.31,-553.66 210.08,-547.02"/>
</a>
</g>
<text text-anchor="middle" x="301.75" y="-534.01" font-family="Helvetica,sans-Serif" font-size="10.00" fill="grey"> mAngle</text>
</g>
<!-- Node16&#45;&gt;Node16 -->
<g id="edge20_Node000016_Node000016" class="edge">
<title>Node16&#45;&gt;Node16</title>
<g id="a_edge20_Node000016_Node000016"><a xlink:title=" ">
<path fill="none" stroke="#9a32cd" stroke-dasharray="5,2" d="M161.81,-581.29C163.95,-585.16 169.63,-587.89 178.88,-587.89 195.77,-587.89 200.79,-578.78 193.92,-570.17"/>
<polygon fill="#9a32cd" stroke="#9a32cd" points="165.22,-582.13 163.56,-571.66 158.33,-580.88 165.22,-582.13"/>
</a>
</g>
<text text-anchor="middle" x="178.88" y="-589.64" font-family="Helvetica,sans-Serif" font-size="10.00" fill="grey"> Zero</text>
</g>
<!-- Node16&#45;&gt;Node24 -->
<g id="edge32_Node000024_Node000016" class="edge">
<title>Node16&#45;&gt;Node24</title>
<g id="a_edge32_Node000024_Node000016"><a xlink:title=" ">
<path fill="none" stroke="#9a32cd" stroke-dasharray="5,2" d="M211.83,-560.26C251.74,-560.26 320.83,-560.26 370.82,-560.26"/>
<polygon fill="#9a32cd" stroke="#9a32cd" points="211.95,-556.76 201.95,-560.26 211.95,-563.76 211.95,-556.76"/>
</a>
</g>
<text text-anchor="middle" x="301.75" y="-562.01" font-family="Helvetica,sans-Serif" font-size="10.00" fill="grey"> mAngle</text>
</g>
<!-- Node17 -->
<g id="Node000017" class="node">
<title>Node17</title>
<g id="a_Node000017"><a xlink:href="structSVec.html" target="_top" xlink:title=" ">
<polygon fill="white" stroke="#666666" points="40,-569.89 0,-569.89 0,-550.64 40,-550.64 40,-569.89"/>
<text text-anchor="middle" x="20" y="-556.39" font-family="Helvetica,sans-Serif" font-size="10.00">SVec</text>
</a>
</g>
</g>
<!-- Node17&#45;&gt;Node16 -->
<g id="edge19_Node000016_Node000017" class="edge">
<title>Node17&#45;&gt;Node16</title>
<g id="a_edge19_Node000016_Node000017"><a xlink:title=" ">
<path fill="none" stroke="#63b8ff" d="M51.74,-560.26C83.01,-560.26 130.59,-560.26 157.49,-560.26"/>
<polygon fill="#63b8ff" stroke="#63b8ff" points="51.75,-556.76 41.75,-560.26 51.75,-563.76 51.75,-556.76"/>
</a>
</g>
</g>
<!-- Node18&#45;&gt;Node1 -->
<g id="edge21_Node000001_Node000018" class="edge">
<title>Node18&#45;&gt;Node1</title>
<g id="a_edge21_Node000001_Node000018"><a xlink:title=" ">
<path fill="none" stroke="#9a32cd" stroke-dasharray="5,2" d="M485.2,-286.26C588,-286.93 823.99,-291.89 1019.75,-321.26 1059.36,-327.2 1071.95,-321.34 1108.25,-338.26 1130.57,-348.66 1151.79,-368.56 1163.31,-380.5"/>
<polygon fill="#9a32cd" stroke="#9a32cd" points="485.46,-282.76 475.44,-286.2 485.42,-289.76 485.46,-282.76"/>
</a>
</g>
<text text-anchor="middle" x="826.25" y="-306.01" font-family="Helvetica,sans-Serif" font-size="10.00" fill="grey"> mPnt2Info</text>
</g>
<!-- Node20 -->
<g id="Node000020" class="node">
<title>Node20</title>
<g id="a_Node000020"><a xlink:href="structdPath.html" target="_top" xlink:title=" ">
<polygon fill="white" stroke="#666666" points="716.25,-229.89 674.75,-229.89 674.75,-210.64 716.25,-210.64 716.25,-229.89"/>
<text text-anchor="middle" x="695.5" y="-216.39" font-family="Helvetica,sans-Serif" font-size="10.00">dPath</text>
</a>
</g>
</g>
<!-- Node18&#45;&gt;Node20 -->
<g id="edge25_Node000020_Node000018" class="edge">
<title>Node18&#45;&gt;Node20</title>
<g id="a_edge25_Node000020_Node000018"><a xlink:title=" ">
<path fill="none" stroke="#9a32cd" stroke-dasharray="5,2" d="M484.23,-273.36C542.19,-258.72 633.9,-235.56 674.28,-225.37"/>
<polygon fill="#9a32cd" stroke="#9a32cd" points="483.41,-269.95 474.57,-275.79 485.13,-276.74 483.41,-269.95"/>
</a>
</g>
<text text-anchor="middle" x="564.38" y="-266.01" font-family="Helvetica,sans-Serif" font-size="10.00" fill="grey"> m_points</text>
</g>
<!-- Node19 -->
<g id="Node000019" class="node">
<title>Node19</title>
<g id="a_Node000019"><a xlink:href="structdStage__dPath__c.html" target="_top" xlink:title=" ">
<polygon fill="white" stroke="#666666" points="1002.5,-229.89 914.5,-229.89 914.5,-210.64 1002.5,-210.64 1002.5,-229.89"/>
<text text-anchor="middle" x="958.5" y="-216.39" font-family="Helvetica,sans-Serif" font-size="10.00">dStage_dPath_c</text>
</a>
</g>
</g>
<!-- Node19&#45;&gt;Node1 -->
<g id="edge23_Node000001_Node000019" class="edge">
<title>Node19&#45;&gt;Node1</title>
<g id="a_edge23_Node000001_Node000019"><a xlink:title=" ">
<path fill="none" stroke="#9a32cd" stroke-dasharray="5,2" d="M1014.09,-212.31C1044.56,-210.84 1081.63,-214.31 1108.25,-234.01 1157.73,-270.63 1169.1,-352.31 1171.59,-380.49"/>
<polygon fill="#9a32cd" stroke="#9a32cd" points="1014.01,-208.81 1004.27,-212.99 1014.49,-215.79 1014.01,-208.81"/>
</a>
</g>
<text text-anchor="middle" x="1073" y="-235.01" font-family="Helvetica,sans-Serif" font-size="10.00" fill="grey"> mPath2Info</text>
</g>
<!-- Node20&#45;&gt;Node19 -->
<g id="edge24_Node000019_Node000020" class="edge">
<title>Node20&#45;&gt;Node19</title>
<g id="a_edge24_Node000019_Node000020"><a xlink:title=" ">
<path fill="none" stroke="#9a32cd" stroke-dasharray="5,2" d="M728,-220.26C774.58,-220.26 861.94,-220.26 914.41,-220.26"/>
<polygon fill="#9a32cd" stroke="#9a32cd" points="728.06,-216.76 718.06,-220.26 728.06,-223.76 728.06,-216.76"/>
</a>
</g>
<text text-anchor="middle" x="826.25" y="-222.01" font-family="Helvetica,sans-Serif" font-size="10.00" fill="grey"> m_path</text>
</g>
<!-- Node21 -->
<g id="Node000021" class="node">
<title>Node21</title>
<g id="a_Node000021"><a xlink:href="structstage__camera__class.html" target="_top" xlink:title=" ">
<polygon fill="white" stroke="#666666" points="879.25,-104.89 773.25,-104.89 773.25,-85.64 879.25,-85.64 879.25,-104.89"/>
<text text-anchor="middle" x="826.25" y="-91.39" font-family="Helvetica,sans-Serif" font-size="10.00">stage_camera_class</text>
</a>
</g>
</g>
<!-- Node21&#45;&gt;Node1 -->
<g id="edge26_Node000001_Node000021" class="edge">
<title>Node21&#45;&gt;Node1</title>
<g id="a_edge26_Node000001_Node000021"><a xlink:title=" ">
<path fill="none" stroke="#9a32cd" stroke-dasharray="5,2" d="M881.05,-83.2C944.63,-72.44 1049.22,-66.31 1108.25,-125.26 1145.67,-162.64 1166.53,-336.74 1171.23,-380.34"/>
<polygon fill="#9a32cd" stroke="#9a32cd" points="880.78,-79.69 871.55,-84.9 882.01,-86.58 880.78,-79.69"/>
</a>
</g>
<text text-anchor="middle" x="958.5" y="-84.01" font-family="Helvetica,sans-Serif" font-size="10.00" fill="grey"> mCamera</text>
</g>
<!-- Node22&#45;&gt;Node21 -->
<g id="edge27_Node000021_Node000022" class="edge">
<title>Node22&#45;&gt;Node21</title>
<g id="a_edge27_Node000021_Node000022"><a xlink:title=" ">
<path fill="none" stroke="#9a32cd" stroke-dasharray="5,2" d="M243.77,-185.88C331.72,-167.83 495.16,-135.6 635.75,-115.26 681.91,-108.58 734.71,-103.19 772.83,-99.7"/>
<polygon fill="#9a32cd" stroke="#9a32cd" points="243.22,-182.42 234.13,-187.86 244.63,-189.27 243.22,-182.42"/>
</a>
</g>
<text text-anchor="middle" x="432.12" y="-162.01" font-family="Helvetica,sans-Serif" font-size="10.00" fill="grey"> mEntries</text>
</g>
<!-- Node23 -->
<g id="Node000023" class="node">
<title>Node23</title>
<g id="a_Node000023"><a xlink:href="structstage__arrow__class.html" target="_top" xlink:title=" ">
<polygon fill="white" stroke="#666666" points="875.12,-752.89 777.38,-752.89 777.38,-733.64 875.12,-733.64 875.12,-752.89"/>
<text text-anchor="middle" x="826.25" y="-739.39" font-family="Helvetica,sans-Serif" font-size="10.00">stage_arrow_class</text>
</a>
</g>
</g>
<!-- Node23&#45;&gt;Node1 -->
<g id="edge29_Node000001_Node000023" class="edge">
<title>Node23&#45;&gt;Node1</title>
<g id="a_edge29_Node000001_Node000023"><a xlink:title=" ">
<path fill="none" stroke="#9a32cd" stroke-dasharray="5,2" d="M875.36,-755.83C937.62,-768.91 1045.53,-780.27 1108.25,-722.26 1157.16,-677.02 1169.65,-450.97 1171.86,-400.34"/>
<polygon fill="#9a32cd" stroke="#9a32cd" points="876.29,-752.45 865.77,-753.71 874.78,-759.28 876.29,-752.45"/>
</a>
</g>
<text text-anchor="middle" x="958.5" y="-768.01" font-family="Helvetica,sans-Serif" font-size="10.00" fill="grey"> mArrow</text>
</g>
<!-- Node24&#45;&gt;Node23 -->
<g id="edge30_Node000023_Node000024" class="edge">
<title>Node24&#45;&gt;Node23</title>
<g id="a_edge30_Node000023_Node000024"><a xlink:title=" ">
<path fill="none" stroke="#9a32cd" stroke-dasharray="5,2" d="M455.29,-577.02C491.39,-603.63 565.87,-655.75 635.75,-687.26 682.5,-708.34 739.28,-723.9 778.42,-733.2"/>
<polygon fill="#9a32cd" stroke="#9a32cd" points="457.49,-574.29 447.38,-571.13 453.31,-579.91 457.49,-574.29"/>
</a>
</g>
<text text-anchor="middle" x="564.38" y="-679.01" font-family="Helvetica,sans-Serif" font-size="10.00" fill="grey"> mEntries</text>
</g>
<!-- Node25 -->
<g id="Node000025" class="node">
<title>Node25</title>
<g id="a_Node000025"><a xlink:href="structdStage__MapEventInfo__c.html" target="_top" xlink:title=" ">
<polygon fill="white" stroke="#666666" points="1019.75,-266.89 897.25,-266.89 897.25,-247.64 1019.75,-247.64 1019.75,-266.89"/>
<text text-anchor="middle" x="958.5" y="-253.39" font-family="Helvetica,sans-Serif" font-size="10.00">dStage_MapEventInfo_c</text>
</a>
</g>
</g>
<!-- Node25&#45;&gt;Node1 -->
<g id="edge33_Node000001_Node000025" class="edge">
<title>Node25&#45;&gt;Node1</title>
<g id="a_edge33_Node000001_Node000025"><a xlink:title=" ">
<path fill="none" stroke="#9a32cd" stroke-dasharray="5,2" d="M1031.34,-249.71C1057.42,-250.34 1085.92,-255.27 1108.25,-270.01 1148.31,-296.47 1165.08,-356.58 1170.31,-380.33"/>
<polygon fill="#9a32cd" stroke="#9a32cd" points="1031.48,-246.21 1021.47,-249.7 1031.47,-253.21 1031.48,-246.21"/>
</a>
</g>
<text text-anchor="middle" x="1073" y="-271.01" font-family="Helvetica,sans-Serif" font-size="10.00" fill="grey"> mMapEventInfo</text>
</g>
<!-- Node26 -->
<g id="Node000026" class="node">
<title>Node26</title>
<g id="a_Node000026"><a xlink:href="structdStage__MapEvent__dt__c.html" target="_top" xlink:title=" ">
<polygon fill="white" stroke="#666666" points="755.25,-266.89 635.75,-266.89 635.75,-247.64 755.25,-247.64 755.25,-266.89"/>
<text text-anchor="middle" x="695.5" y="-253.39" font-family="Helvetica,sans-Serif" font-size="10.00">dStage_MapEvent_dt_c</text>
</a>
</g>
</g>
<!-- Node26&#45;&gt;Node25 -->
<g id="edge34_Node000025_Node000026" class="edge">
<title>Node26&#45;&gt;Node25</title>
<g id="a_edge34_Node000025_Node000026"><a xlink:title=" ">
<path fill="none" stroke="#9a32cd" stroke-dasharray="5,2" d="M767.18,-257.26C807.84,-257.26 858.37,-257.26 897.15,-257.26"/>
<polygon fill="#9a32cd" stroke="#9a32cd" points="767.24,-253.76 757.24,-257.26 767.24,-260.76 767.24,-253.76"/>
</a>
</g>
<text text-anchor="middle" x="826.25" y="-259.01" font-family="Helvetica,sans-Serif" font-size="10.00" fill="grey"> mData</text>
</g>
<!-- Node27 -->
<g id="Node000027" class="node">
<title>Node27</title>
<g id="a_Node000027"><a xlink:href="structdStage__SoundInfo__c.html" target="_top" xlink:title=" ">
<polygon fill="white" stroke="#666666" points="617.75,-58.89 511,-58.89 511,-39.64 617.75,-39.64 617.75,-58.89"/>
<text text-anchor="middle" x="564.38" y="-45.39" font-family="Helvetica,sans-Serif" font-size="10.00">dStage_SoundInfo_c</text>
</a>
</g>
</g>
<!-- Node27&#45;&gt;Node1 -->
<g id="edge35_Node000001_Node000027" class="edge">
<title>Node27&#45;&gt;Node1</title>
<g id="a_edge35_Node000001_Node000027"><a xlink:title=" ">
<path fill="none" stroke="#9a32cd" stroke-dasharray="5,2" d="M629.03,-43.68C757.25,-33.91 1040.22,-20.3 1108.25,-83.26 1153.4,-125.05 1168.71,-332.32 1171.68,-380.32"/>
<polygon fill="#9a32cd" stroke="#9a32cd" points="629.06,-40.17 619.36,-44.43 629.6,-47.14 629.06,-40.17"/>
</a>
</g>
<text text-anchor="middle" x="826.25" y="-49.26" font-family="Helvetica,sans-Serif" font-size="10.00" fill="grey"> mSoundInf</text>
<text text-anchor="middle" x="826.25" y="-38.01" font-family="Helvetica,sans-Serif" font-size="10.00" fill="grey">mSoundInfCL</text>
</g>
<!-- Node28&#45;&gt;Node27 -->
<g id="edge36_Node000027_Node000028" class="edge">
<title>Node28&#45;&gt;Node27</title>
<g id="a_edge36_Node000027_Node000028"><a xlink:title=" ">
<path fill="none" stroke="#9a32cd" stroke-dasharray="5,2" d="M232.63,-72.95C238.55,-71.83 244.52,-70.82 250.25,-70.01 341.29,-57.2 448.37,-52.26 510.78,-50.39"/>
<polygon fill="#9a32cd" stroke="#9a32cd" points="231.97,-69.51 222.86,-74.91 233.35,-76.38 231.97,-69.51"/>
</a>
</g>
<text text-anchor="middle" x="301.75" y="-72.01" font-family="Helvetica,sans-Serif" font-size="10.00" fill="grey"> entries</text>
</g>
<!-- Node29 -->
<g id="Node000029" class="node">
<title>Node29</title>
<g id="a_Node000029"><a xlink:href="structstage__scls__info__dummy__class.html" target="_top" xlink:title=" ">
<polygon fill="white" stroke="#666666" points="1019,-192.51 898,-192.51 898,-162.01 1019,-162.01 1019,-192.51"/>
<text text-anchor="start" x="906" y="-179.01" font-family="Helvetica,sans-Serif" font-size="10.00">stage_scls_info_dummy</text>
<text text-anchor="middle" x="958.5" y="-167.76" font-family="Helvetica,sans-Serif" font-size="10.00">_class</text>
</a>
</g>
</g>
<!-- Node29&#45;&gt;Node1 -->
<g id="edge38_Node000001_Node000029" class="edge">
<title>Node29&#45;&gt;Node1</title>
<g id="a_edge38_Node000001_Node000029"><a xlink:title=" ">
<path fill="none" stroke="#9a32cd" stroke-dasharray="5,2" d="M1030.71,-171.51C1057.65,-172.95 1086.92,-179.35 1108.25,-197.01 1166.51,-245.24 1172.09,-347.88 1172.35,-380.26"/>
<polygon fill="#9a32cd" stroke="#9a32cd" points="1030.96,-168.01 1020.86,-171.22 1030.75,-175.01 1030.96,-168.01"/>
</a>
</g>
<text text-anchor="middle" x="1073" y="-198.01" font-family="Helvetica,sans-Serif" font-size="10.00" fill="grey"> mSclsInfo</text>
</g>
<!-- Node30 -->
<g id="Node000030" class="node">
<title>Node30</title>
<g id="a_Node000030"><a xlink:href="structstage__scls__info__class.html" target="_top" xlink:title=" ">
<polygon fill="white" stroke="#666666" points="751.88,-186.89 639.12,-186.89 639.12,-167.64 751.88,-167.64 751.88,-186.89"/>
<text text-anchor="middle" x="695.5" y="-173.39" font-family="Helvetica,sans-Serif" font-size="10.00">stage_scls_info_class</text>
</a>
</g>
</g>
<!-- Node30&#45;&gt;Node29 -->
<g id="edge39_Node000029_Node000030" class="edge">
<title>Node30&#45;&gt;Node29</title>
<g id="a_edge39_Node000029_Node000030"><a xlink:title=" ">
<path fill="none" stroke="#9a32cd" stroke-dasharray="5,2" d="M763.55,-177.26C805.03,-177.26 857.8,-177.26 897.83,-177.26"/>
<polygon fill="#9a32cd" stroke="#9a32cd" points="763.68,-173.76 753.68,-177.26 763.68,-180.76 763.68,-173.76"/>
</a>
</g>
<text text-anchor="middle" x="826.25" y="-179.01" font-family="Helvetica,sans-Serif" font-size="10.00" fill="grey"> mEntries</text>
</g>
<!-- Node31 -->
<g id="Node000031" class="node">
<title>Node31</title>
<g id="a_Node000031"><a xlink:href="structdStage__Lbnk__c.html" target="_top" xlink:title=" ">
<polygon fill="white" stroke="#666666" points="1000.62,-143.89 916.38,-143.89 916.38,-124.64 1000.62,-124.64 1000.62,-143.89"/>
<text text-anchor="middle" x="958.5" y="-130.39" font-family="Helvetica,sans-Serif" font-size="10.00">dStage_Lbnk_c</text>
</a>
</g>
</g>
<!-- Node31&#45;&gt;Node1 -->
<g id="edge40_Node000001_Node000031" class="edge">
<title>Node31&#45;&gt;Node1</title>
<g id="a_edge40_Node000001_Node000031"><a xlink:title=" ">
<path fill="none" stroke="#9a32cd" stroke-dasharray="5,2" d="M1012.08,-128.97C1043.6,-128.73 1082.44,-134.04 1108.25,-157.01 1142.99,-187.93 1165.52,-339.96 1170.97,-380.38"/>
<polygon fill="#9a32cd" stroke="#9a32cd" points="1012.24,-125.46 1002.34,-129.24 1012.44,-132.46 1012.24,-125.46"/>
</a>
</g>
<text text-anchor="middle" x="1073" y="-158.01" font-family="Helvetica,sans-Serif" font-size="10.00" fill="grey"> mLbnk</text>
</g>
<!-- Node32 -->
<g id="Node000032" class="node">
<title>Node32</title>
<g id="a_Node000032"><a xlink:href="classdStage__Lbnk__dt__c.html" target="_top" xlink:title=" ">
<polygon fill="white" stroke="#666666" points="744.38,-143.89 646.62,-143.89 646.62,-124.64 744.38,-124.64 744.38,-143.89"/>
<text text-anchor="middle" x="695.5" y="-130.39" font-family="Helvetica,sans-Serif" font-size="10.00">dStage_Lbnk_dt_c</text>
</a>
</g>
</g>
<!-- Node32&#45;&gt;Node31 -->
<g id="edge41_Node000031_Node000032" class="edge">
<title>Node32&#45;&gt;Node31</title>
<g id="a_edge41_Node000031_Node000032"><a xlink:title=" ">
<path fill="none" stroke="#9a32cd" stroke-dasharray="5,2" d="M756.04,-134.26C804.93,-134.26 872.91,-134.26 916.05,-134.26"/>
<polygon fill="#9a32cd" stroke="#9a32cd" points="756.19,-130.76 746.19,-134.26 756.19,-137.76 756.19,-130.76"/>
</a>
</g>
<text text-anchor="middle" x="826.25" y="-136.01" font-family="Helvetica,sans-Serif" font-size="10.00" fill="grey"> entries</text>
</g>
<!-- Node33&#45;&gt;Node1 -->
<g id="edge42_Node000001_Node000033" class="edge">
<title>Node33&#45;&gt;Node1</title>
<g id="a_edge42_Node000001_Node000033"><a xlink:title=" ">
<path fill="none" stroke="#9a32cd" stroke-dasharray="5,2" d="M627.97,-327.46C730.39,-319.86 939.27,-312.28 1108.25,-357.26 1126.13,-362.02 1144.73,-372.31 1157.24,-380.14"/>
<polygon fill="#9a32cd" stroke="#9a32cd" points="627.83,-323.96 618.12,-328.22 628.36,-330.94 627.83,-323.96"/>
</a>
</g>
<text text-anchor="middle" x="826.25" y="-325.01" font-family="Helvetica,sans-Serif" font-size="10.00" fill="grey"> mTreasure</text>
</g>
<!-- Node34 -->
<g id="Node000034" class="node">
<title>Node34</title>
<g id="a_Node000034"><a xlink:href="classstage__tgsc__class.html" target="_top" xlink:title=" ">
<polygon fill="white" stroke="#666666" points="1004.75,-418.89 912.25,-418.89 912.25,-399.64 1004.75,-399.64 1004.75,-418.89"/>
<text text-anchor="middle" x="958.5" y="-405.39" font-family="Helvetica,sans-Serif" font-size="10.00">stage_tgsc_class</text>
</a>
</g>
</g>
<!-- Node34&#45;&gt;Node1 -->
<g id="edge44_Node000001_Node000034" class="edge">
<title>Node34&#45;&gt;Node1</title>
<g id="a_edge44_Node000001_Node000034"><a xlink:title=" ">
<path fill="none" stroke="#9a32cd" stroke-dasharray="5,2" d="M1016.4,-404.18C1050.67,-401.12 1093.77,-397.27 1125.95,-394.4"/>
<polygon fill="#9a32cd" stroke="#9a32cd" points="1016.3,-400.67 1006.65,-405.05 1016.92,-407.65 1016.3,-400.67"/>
</a>
</g>
<text text-anchor="middle" x="1073" y="-414.26" font-family="Helvetica,sans-Serif" font-size="10.00" fill="grey"> mDoor</text>
<text text-anchor="middle" x="1073" y="-403.01" font-family="Helvetica,sans-Serif" font-size="10.00" fill="grey">mDrTg</text>
</g>
<!-- Node35&#45;&gt;Node34 -->
<g id="edge45_Node000034_Node000035" class="edge">
<title>Node35&#45;&gt;Node34</title>
<g id="a_edge45_Node000034_Node000035"><a xlink:title=" ">
<path fill="none" stroke="#9a32cd" stroke-dasharray="5,2" d="M765.55,-415.88C811.77,-414.29 871.33,-412.23 911.75,-410.84"/>
<polygon fill="#9a32cd" stroke="#9a32cd" points="765.49,-412.38 755.61,-416.22 765.73,-419.38 765.49,-412.38"/>
</a>
</g>
<text text-anchor="middle" x="826.25" y="-417.01" font-family="Helvetica,sans-Serif" font-size="10.00" fill="grey"> mData</text>
</g>
<!-- Node36 -->
<g id="Node000036" class="node">
<title>Node36</title>
<g id="a_Node000036"><a xlink:href="structdStage__FloorInfo__c.html" target="_top" xlink:title=" ">
<polygon fill="white" stroke="#666666" points="1008.88,-20.89 908.12,-20.89 908.12,-1.64 1008.88,-1.64 1008.88,-20.89"/>
<text text-anchor="middle" x="958.5" y="-7.39" font-family="Helvetica,sans-Serif" font-size="10.00">dStage_FloorInfo_c</text>
</a>
</g>
</g>
<!-- Node36&#45;&gt;Node1 -->
<g id="edge47_Node000001_Node000036" class="edge">
<title>Node36&#45;&gt;Node1</title>
<g id="a_edge47_Node000001_Node000036"><a xlink:title=" ">
<path fill="none" stroke="#9a32cd" stroke-dasharray="5,2" d="M1020.32,-0.5C1050.35,1.21 1085.03,-2.74 1108.25,-24.01 1162.63,-73.83 1170.92,-326.5 1172.08,-380.21"/>
<polygon fill="#9a32cd" stroke="#9a32cd" points="1020.26,3 1010.58,-1.29 1020.83,-3.97 1020.26,3"/>
</a>
</g>
<text text-anchor="middle" x="1073" y="-26.01" font-family="Helvetica,sans-Serif" font-size="10.00" fill="grey"> mFloorInfo</text>
</g>
</g>
</svg>

<g id="navigator" transform="translate(0 0)" fill="#404254">
  <rect fill="#f2f5e9" fill-opacity="0.5" stroke="#606060" stroke-width=".5" x="0" y="0" width="60" height="60"/>
  <use id="zoomplus" xlink:href="#zoomPlus" x="17" y="9" onmousedown="handleZoom(evt,'in')"/>
  <use id="zoomminus" xlink:href="#zoomMin" x="42" y="9" onmousedown="handleZoom(evt,'out')"/>
  <use id="reset" xlink:href="#resetDef" x="30" y="36" onmousedown="handleReset()"/>
   <use id="arrowup" xlink:href="#arrowUp" x="0" y="0" onmousedown="handlePan(0,-1)"/>
  <use id="arrowright" xlink:href="#arrowRight" x="0" y="0" onmousedown="handlePan(1,0)"/>
  <use id="arrowdown" xlink:href="#arrowDown" x="0" y="0" onmousedown="handlePan(0,1)"/>
  <use id="arrowleft" xlink:href="#arrowLeft" x="0" y="0" onmousedown="handlePan(-1,0)"/>
</g>
<svg viewBox="0 0 15 15" width="100%" height="30px" preserveAspectRatio="xMaxYMin meet">
 <g id="arrow_out" transform="scale(0.3 0.3)">
  <a xlink:href="classdStage__roomDt__c__coll__graph_org.svg" target="_base">
   <rect id="button" ry="5" rx="5" y="6" x="6" height="38" width="38"
        fill="#f2f5e9" fill-opacity="0.5" stroke="#606060" stroke-width="1.0"/>
   <path id="arrow"
     d="M 11.500037,31.436501 C 11.940474,20.09759 22.043105,11.32322 32.158766,21.979434 L 37.068811,17.246167 C 37.068811,17.246167 37.088388,32 37.088388,32 L 22.160133,31.978069 C 22.160133,31.978069 26.997745,27.140456 26.997745,27.140456 C 18.528582,18.264221 13.291696,25.230495 11.500037,31.436501 z"
     style="fill:#404040;"/>
  </a>
 </g>
</svg>

<style type='text/css'>
<![CDATA[
[data-mouse-over-selected='false'] { opacity: 0.7; }
[data-mouse-over-selected='true']  { opacity: 1.0; }
]]>
</style>
<script type="application/ecmascript"><![CDATA[
document.addEventListener('DOMContentLoaded', (event) => {
  highlightEdges();
  highlightAdjacentNodes();
});
]]></script>
</svg>
