<?xml version="1.0" encoding="UTF-8" standalone="no"?>
<!DOCTYPE svg PUBLIC "-//W3C//DTD SVG 1.1//EN"
 "http://www.w3.org/Graphics/SVG/1.1/DTD/svg11.dtd">
<!-- Generated by graphviz version 9.0.0 (20230911.1827)
 -->
<!-- Title: cCcD_ObjCommonBase Pages: 1 -->
<svg width="258pt" height="83pt"
 viewBox="0.00 0.00 257.75 82.50" xmlns="http://www.w3.org/2000/svg" xmlns:xlink="http://www.w3.org/1999/xlink">

<svg id="main" version="1.1" xmlns="http://www.w3.org/2000/svg" xmlns:xlink="http://www.w3.org/1999/xlink" xml:space="preserve" onload="init(evt)">
<style type="text/css"><![CDATA[
.node, .edge {opacity: 0.7;}
.node.selected, .edge.selected {opacity: 1;}
.edge:hover path { stroke: red; }
.edge:hover polygon { stroke: red; fill: red; }
]]></style>
<script type="application/ecmascript" xlink:href="svg.min.js"/>
<svg id="graph" class="graph">
<g id="graph0" class="graph" transform="scale(1 1) rotate(0) translate(4 78.5)">
<title>cCcD_ObjCommonBase</title>
<!-- Node1 -->
<g id="Node000001" class="node">
<title>Node1</title>
<g id="a_Node000001"><a xlink:title=" ">
<polygon fill="#999999" stroke="#666666" points="184.88,-74.5 63.12,-74.5 63.12,-55.25 184.88,-55.25 184.88,-74.5"/>
<text text-anchor="middle" x="124" y="-61" font-family="Helvetica,sans-Serif" font-size="10.00">cCcD_ObjCommonBase</text>
</a>
</g>
</g>
<!-- Node2 -->
<g id="Node000002" class="node">
<title>Node2</title>
<g id="a_Node000002"><a xlink:href="classcCcD__ObjAt.html" target="_top" xlink:title=" ">
<polygon fill="white" stroke="#666666" points="70,-19.25 0,-19.25 0,0 70,0 70,-19.25"/>
<text text-anchor="middle" x="35" y="-5.75" font-family="Helvetica,sans-Serif" font-size="10.00">cCcD_ObjAt</text>
</a>
</g>
</g>
<!-- Node1&#45;&gt;Node2 -->
<g id="edge1_Node000001_Node000002" class="edge">
<title>Node1&#45;&gt;Node2</title>
<g id="a_edge1_Node000001_Node000002"><a xlink:title=" ">
<path fill="none" stroke="#63b8ff" d="M99.26,-49.07C83.51,-39.65 63.62,-27.75 50.17,-19.7"/>
<polygon fill="#63b8ff" stroke="#63b8ff" points="97.23,-51.93 107.6,-54.06 100.82,-45.93 97.23,-51.93"/>
</a>
</g>
</g>
<!-- Node3 -->
<g id="Node000003" class="node">
<title>Node3</title>
<g id="a_Node000003"><a xlink:href="classcCcD__ObjCo.html" target="_top" xlink:title=" ">
<polygon fill="white" stroke="#666666" points="160.12,-19.25 87.88,-19.25 87.88,0 160.12,0 160.12,-19.25"/>
<text text-anchor="middle" x="124" y="-5.75" font-family="Helvetica,sans-Serif" font-size="10.00">cCcD_ObjCo</text>
</a>
</g>
</g>
<!-- Node1&#45;&gt;Node3 -->
<g id="edge2_Node000001_Node000003" class="edge">
<title>Node1&#45;&gt;Node3</title>
<g id="a_edge2_Node000001_Node000003"><a xlink:title=" ">
<path fill="none" stroke="#63b8ff" d="M124,-43.63C124,-35.34 124,-26.17 124,-19.61"/>
<polygon fill="#63b8ff" stroke="#63b8ff" points="120.5,-43.57 124,-53.57 127.5,-43.57 120.5,-43.57"/>
</a>
</g>
</g>
<!-- Node4 -->
<g id="Node000004" class="node">
<title>Node4</title>
<g id="a_Node000004"><a xlink:href="classcCcD__ObjTg.html" target="_top" xlink:title=" ">
<polygon fill="white" stroke="#666666" points="249.75,-19.25 178.25,-19.25 178.25,0 249.75,0 249.75,-19.25"/>
<text text-anchor="middle" x="214" y="-5.75" font-family="Helvetica,sans-Serif" font-size="10.00">cCcD_ObjTg</text>
</a>
</g>
</g>
<!-- Node1&#45;&gt;Node4 -->
<g id="edge3_Node000001_Node000004" class="edge">
<title>Node1&#45;&gt;Node4</title>
<g id="a_edge3_Node000001_Node000004"><a xlink:title=" ">
<path fill="none" stroke="#63b8ff" d="M149.02,-49.07C164.94,-39.65 185.06,-27.75 198.66,-19.7"/>
<polygon fill="#63b8ff" stroke="#63b8ff" points="147.39,-45.97 140.57,-54.07 150.96,-51.99 147.39,-45.97"/>
</a>
</g>
</g>
</g>
</svg>
</svg>

<style type='text/css'>
<![CDATA[
[data-mouse-over-selected='false'] { opacity: 0.7; }
[data-mouse-over-selected='true']  { opacity: 1.0; }
]]>
</style>
<script type="application/ecmascript"><![CDATA[
document.addEventListener('DOMContentLoaded', (event) => {
  highlightEdges();
  highlightAdjacentNodes();
});
]]></script>
</svg>
