<?xml version="1.0" encoding="UTF-8" standalone="no"?>
<!DOCTYPE svg PUBLIC "-//W3C//DTD SVG 1.1//EN"
 "http://www.w3.org/Graphics/SVG/1.1/DTD/svg11.dtd">
<!-- Generated by graphviz version 9.0.0 (20230911.1827)
 -->
<!-- Title: stage_actor_data_class Pages: 1 -->
<svg width="205pt" height="221pt"
 viewBox="0.00 0.00 205.38 220.75" xmlns="http://www.w3.org/2000/svg" xmlns:xlink="http://www.w3.org/1999/xlink">
<g id="graph0" class="graph" transform="scale(1 1) rotate(0) translate(4 216.75)">
<title>stage_actor_data_class</title>
<!-- Node1 -->
<g id="Node000001" class="node">
<title>Node1</title>
<g id="a_Node000001"><a xlink:title=" ">
<polygon fill="#999999" stroke="#666666" points="136.25,-19.25 16.75,-19.25 16.75,0 136.25,0 136.25,-19.25"/>
<text text-anchor="middle" x="76.5" y="-5.75" font-family="Helvetica,sans-Serif" font-size="10.00">stage_actor_data_class</text>
</a>
</g>
</g>
<!-- Node2 -->
<g id="Node000002" class="node">
<title>Node2</title>
<g id="a_Node000002"><a xlink:href="structcXyz.html" target="_top" xlink:title=" ">
<polygon fill="white" stroke="#666666" points="37,-121.12 0,-121.12 0,-101.88 37,-101.88 37,-121.12"/>
<text text-anchor="middle" x="18.5" y="-107.62" font-family="Helvetica,sans-Serif" font-size="10.00">cXyz</text>
</a>
</g>
</g>
<!-- Node2&#45;&gt;Node1 -->
<g id="edge1_Node000001_Node000002" class="edge">
<title>Node2&#45;&gt;Node1</title>
<g id="a_edge1_Node000001_Node000002"><a xlink:title=" ">
<path fill="none" stroke="#9a32cd" stroke-dasharray="5,2" d="M23.33,-90.86C27.76,-75.37 35.38,-53.71 46.75,-37.25 51.4,-30.52 58.08,-24.34 63.94,-19.63"/>
<polygon fill="#9a32cd" stroke="#9a32cd" points="20.01,-89.72 20.84,-100.28 26.78,-91.51 20.01,-89.72"/>
</a>
</g>
<text text-anchor="middle" x="76.38" y="-39" font-family="Helvetica,sans-Serif" font-size="10.00" fill="grey"> mSpawnPos</text>
</g>
<!-- Node2&#45;&gt;Node2 -->
<g id="edge3_Node000002_Node000002" class="edge">
<title>Node2&#45;&gt;Node2</title>
<g id="a_edge3_Node000002_Node000002"><a xlink:title=" ">
<path fill="none" stroke="#9a32cd" stroke-dasharray="5,2" d="M43.27,-123.32C49.93,-122.68 55,-118.74 55,-111.5 55,-100.46 43.24,-97.1 31.98,-101.41"/>
<polygon fill="#9a32cd" stroke="#9a32cd" points="43.89,-119.87 33.47,-121.82 42.83,-126.79 43.89,-119.87"/>
</a>
</g>
<text text-anchor="middle" x="76" y="-147" font-family="Helvetica,sans-Serif" font-size="10.00" fill="grey"> BaseX</text>
<text text-anchor="middle" x="76" y="-135.75" font-family="Helvetica,sans-Serif" font-size="10.00" fill="grey">BaseXY</text>
<text text-anchor="middle" x="76" y="-124.5" font-family="Helvetica,sans-Serif" font-size="10.00" fill="grey">BaseXYZ</text>
<text text-anchor="middle" x="76" y="-113.25" font-family="Helvetica,sans-Serif" font-size="10.00" fill="grey">BaseXZ</text>
<text text-anchor="middle" x="76" y="-102" font-family="Helvetica,sans-Serif" font-size="10.00" fill="grey">BaseY</text>
<text text-anchor="middle" x="76" y="-90.75" font-family="Helvetica,sans-Serif" font-size="10.00" fill="grey">BaseYZ</text>
<text text-anchor="middle" x="76" y="-79.5" font-family="Helvetica,sans-Serif" font-size="10.00" fill="grey">BaseZ</text>
<text text-anchor="middle" x="76" y="-68.25" font-family="Helvetica,sans-Serif" font-size="10.00" fill="grey">Zero</text>
</g>
<!-- Node3 -->
<g id="Node000003" class="node">
<title>Node3</title>
<g id="a_Node000003"><a xlink:href="structVec.html" target="_top" xlink:title=" ">
<polygon fill="white" stroke="#666666" points="35.12,-212.75 1.88,-212.75 1.88,-193.5 35.12,-193.5 35.12,-212.75"/>
<text text-anchor="middle" x="18.5" y="-199.25" font-family="Helvetica,sans-Serif" font-size="10.00">Vec</text>
</a>
</g>
</g>
<!-- Node3&#45;&gt;Node2 -->
<g id="edge2_Node000002_Node000003" class="edge">
<title>Node3&#45;&gt;Node2</title>
<g id="a_edge2_Node000002_Node000003"><a xlink:title=" ">
<path fill="none" stroke="#63b8ff" d="M18.5,-181.94C18.5,-162.94 18.5,-135.39 18.5,-121.39"/>
<polygon fill="#63b8ff" stroke="#63b8ff" points="15,-181.69 18.5,-191.69 22,-181.69 15,-181.69"/>
</a>
</g>
</g>
<!-- Node4 -->
<g id="Node000004" class="node">
<title>Node4</title>
<g id="a_Node000004"><a xlink:href="structcsXyz.html" target="_top" xlink:title=" ">
<polygon fill="white" stroke="#666666" points="157.62,-121.12 115.38,-121.12 115.38,-101.88 157.62,-101.88 157.62,-121.12"/>
<text text-anchor="middle" x="136.5" y="-107.62" font-family="Helvetica,sans-Serif" font-size="10.00">csXyz</text>
</a>
</g>
</g>
<!-- Node4&#45;&gt;Node1 -->
<g id="edge4_Node000001_Node000004" class="edge">
<title>Node4&#45;&gt;Node1</title>
<g id="a_edge4_Node000001_Node000004"><a xlink:title=" ">
<path fill="none" stroke="#9a32cd" stroke-dasharray="5,2" d="M130.38,-90.98C124.99,-75.56 116.19,-53.93 104.5,-37.25 99.88,-30.66 93.44,-24.4 87.9,-19.6"/>
<polygon fill="#9a32cd" stroke="#9a32cd" points="127.02,-91.97 133.48,-100.37 133.67,-89.78 127.02,-91.97"/>
</a>
</g>
<text text-anchor="middle" x="129.12" y="-39" font-family="Helvetica,sans-Serif" font-size="10.00" fill="grey"> mAngle</text>
</g>
<!-- Node4&#45;&gt;Node4 -->
<g id="edge6_Node000004_Node000004" class="edge">
<title>Node4&#45;&gt;Node4</title>
<g id="a_edge6_Node000004_Node000004"><a xlink:title=" ">
<path fill="none" stroke="#9a32cd" stroke-dasharray="5,2" d="M162.28,-123.37C169.8,-122.96 175.62,-119 175.62,-111.5 175.62,-100.46 163.01,-97.1 150.95,-101.41"/>
<polygon fill="#9a32cd" stroke="#9a32cd" points="162.86,-119.92 152.44,-121.82 161.78,-126.83 162.86,-119.92"/>
</a>
</g>
<text text-anchor="middle" x="186.5" y="-107.62" font-family="Helvetica,sans-Serif" font-size="10.00" fill="grey"> Zero</text>
</g>
<!-- Node5 -->
<g id="Node000005" class="node">
<title>Node5</title>
<g id="a_Node000005"><a xlink:href="structSVec.html" target="_top" xlink:title=" ">
<polygon fill="white" stroke="#666666" points="156.5,-212.75 116.5,-212.75 116.5,-193.5 156.5,-193.5 156.5,-212.75"/>
<text text-anchor="middle" x="136.5" y="-199.25" font-family="Helvetica,sans-Serif" font-size="10.00">SVec</text>
</a>
</g>
</g>
<!-- Node5&#45;&gt;Node4 -->
<g id="edge5_Node000004_Node000005" class="edge">
<title>Node5&#45;&gt;Node4</title>
<g id="a_edge5_Node000004_Node000005"><a xlink:title=" ">
<path fill="none" stroke="#63b8ff" d="M136.5,-181.94C136.5,-162.94 136.5,-135.39 136.5,-121.39"/>
<polygon fill="#63b8ff" stroke="#63b8ff" points="133,-181.69 136.5,-191.69 140,-181.69 133,-181.69"/>
</a>
</g>
</g>
</g>
</svg>
