<?xml version="1.0" encoding="UTF-8" standalone="no"?>
<!DOCTYPE svg PUBLIC "-//W3C//DTD SVG 1.1//EN"
 "http://www.w3.org/Graphics/SVG/1.1/DTD/svg11.dtd">
<!-- Generated by graphviz version 9.0.0 (20230911.1827)
 -->
<!-- Title: dMeter_fmapHIO_c Pages: 1 -->
<!--zoomable 829 -->

<svg id="main" version="1.1" xmlns="http://www.w3.org/2000/svg" xmlns:xlink="http://www.w3.org/1999/xlink" xml:space="preserve" onload="init(evt)">
<style type="text/css"><![CDATA[
.node, .edge {opacity: 0.7;}
.node.selected, .edge.selected {opacity: 1;}
.edge:hover path { stroke: red; }
.edge:hover polygon { stroke: red; fill: red; }
]]></style>

<defs>
  <circle id="rim" cx="0" cy="0" r="7"/>
  <circle id="rim2" cx="0" cy="0" r="3.5"/>
  <g id="zoomPlus">
    <use xlink:href="#rim" fill="#404040"><set attributeName="fill" to="#808080" begin="zoomplus.mouseover" end="zoomplus.mouseout"/></use>
    <path d="M-4,0h8M0,-4v8" fill="none" stroke="white" stroke-width="1.5" pointer-events="none"/>
  </g>
  <g id="zoomMin">
    <use xlink:href="#rim" fill="#404040"><set attributeName="fill" to="#808080" begin="zoomminus.mouseover" end="zoomminus.mouseout"/></use>
    <path d="M-4,0h8" fill="none" stroke="white" stroke-width="1.5" pointer-events="none"/>
  </g>
  <g id="arrowUp" transform="translate(30 24)">
    <use xlink:href="#rim"/>
    <path pointer-events="none" fill="none" stroke="white" stroke-width="1.5" d="M0,-3.0v7 M-2.5,-0.5L0,-3.0L2.5,-0.5"/>
  </g>
  <g id="arrowRight" transform="rotate(90) translate(36 -43)">
    <use xlink:href="#rim"/>
    <path pointer-events="none" fill="none" stroke="white" stroke-width="1.5" d="M0,-3.0v7 M-2.5,-0.5L0,-3.0L2.5,-0.5"/>
  </g>
  <g id="arrowDown" transform="rotate(180) translate(-30 -48)">
    <use xlink:href="#rim"/>
    <path pointer-events="none" fill="none" stroke="white" stroke-width="1.5" d="M0,-3.0v7 M-2.5,-0.5L0,-3.0L2.5,-0.5"/>
  </g>
  <g id="arrowLeft" transform="rotate(270) translate(-36 17)">
    <use xlink:href="#rim"/>
    <path pointer-events="none" fill="none" stroke="white" stroke-width="1.5" d="M0,-3.0v7 M-2.5,-0.5L0,-3.0L2.5,-0.5"/>
  </g>
  <g id="resetDef">
    <use xlink:href="#rim2" fill="#404040"><set attributeName="fill" to="#808080" begin="reset.mouseover" end="reset.mouseout"/></use>
  </g>
</defs>
<script type="application/ecmascript">
var viewWidth = 1528;
var viewHeight = 829;
var sectionId = 'dynsection-0';
</script>
<script type="application/ecmascript" xlink:href="svg.min.js"/>
<svg id="graph" class="graph">
<g id="viewport">
<title>dMeter_fmapHIO_c</title>
<!-- Node1 -->
<g id="Node000001" class="node">
<title>Node1</title>
<g id="a_Node000001"><a xlink:title=" ">
<polygon fill="#999999" stroke="#666666" points="1520.25,-202.25 1418.75,-202.25 1418.75,-183 1520.25,-183 1520.25,-202.25"/>
<text text-anchor="middle" x="1469.5" y="-188.75" font-family="Helvetica,sans-Serif" font-size="10.00">dMeter_fmapHIO_c</text>
</a>
</g>
</g>
<!-- Node2 -->
<g id="Node000002" class="node">
<title>Node2</title>
<g id="a_Node000002"><a xlink:href="classJKRArchive.html" target="_top" xlink:title=" ">
<polygon fill="white" stroke="#666666" points="1257.12,-414.25 1189.38,-414.25 1189.38,-395 1257.12,-395 1257.12,-414.25"/>
<text text-anchor="middle" x="1223.25" y="-400.75" font-family="Helvetica,sans-Serif" font-size="10.00">JKRArchive</text>
</a>
</g>
</g>
<!-- Node2&#45;&gt;Node1 -->
<g id="edge1_Node000001_Node000002" class="edge">
<title>Node2&#45;&gt;Node1</title>
<g id="a_edge1_Node000001_Node000002"><a xlink:title=" ">
<path fill="none" stroke="#9a32cd" stroke-dasharray="5,2" d="M1244.19,-387.32C1293.24,-344.74 1418.57,-235.97 1457.07,-202.54"/>
<polygon fill="#9a32cd" stroke="#9a32cd" points="1242.1,-384.49 1236.85,-393.69 1246.69,-389.78 1242.1,-384.49"/>
</a>
</g>
<text text-anchor="middle" x="1357.62" y="-325.38" font-family="Helvetica,sans-Serif" font-size="10.00" fill="grey"> field_0x8</text>
</g>
<!-- Node3 -->
<g id="Node000003" class="node">
<title>Node3</title>
<g id="a_Node000003"><a xlink:href="classJKRFileLoader.html" target="_top" xlink:title=" ">
<polygon fill="white" stroke="#666666" points="988.75,-433.25 908.25,-433.25 908.25,-414 988.75,-414 988.75,-433.25"/>
<text text-anchor="middle" x="948.5" y="-419.75" font-family="Helvetica,sans-Serif" font-size="10.00">JKRFileLoader</text>
</a>
</g>
</g>
<!-- Node3&#45;&gt;Node2 -->
<g id="edge2_Node000002_Node000003" class="edge">
<title>Node3&#45;&gt;Node2</title>
<g id="a_edge2_Node000002_Node000003"><a xlink:title=" ">
<path fill="none" stroke="#63b8ff" d="M1000.43,-420.08C1055.57,-416.24 1141.93,-410.22 1188.98,-406.94"/>
<polygon fill="#63b8ff" stroke="#63b8ff" points="1000.4,-416.57 990.67,-420.76 1000.89,-423.55 1000.4,-416.57"/>
</a>
</g>
</g>
<!-- Node3&#45;&gt;Node3 -->
<g id="edge34_Node000003_Node000003" class="edge">
<title>Node3&#45;&gt;Node3</title>
<g id="a_edge34_Node000003_Node000003"><a xlink:title=" ">
<path fill="none" stroke="#9a32cd" stroke-dasharray="5,2" d="M926.91,-444.65C929.61,-448.53 936.81,-451.25 948.5,-451.25 969.88,-451.25 976.23,-442.15 967.54,-433.54"/>
<polygon fill="#9a32cd" stroke="#9a32cd" points="930.3,-445.54 929.12,-435.01 923.48,-443.98 930.3,-445.54"/>
</a>
</g>
<text text-anchor="middle" x="948.5" y="-453" font-family="Helvetica,sans-Serif" font-size="10.00" fill="grey"> sCurrentVolume</text>
</g>
<!-- Node4 -->
<g id="Node000004" class="node">
<title>Node4</title>
<g id="a_Node000004"><a xlink:href="classJKRDisposer.html" target="_top" xlink:title=" ">
<polygon fill="white" stroke="#666666" points="762.75,-479.25 689.75,-479.25 689.75,-460 762.75,-460 762.75,-479.25"/>
<text text-anchor="middle" x="726.25" y="-465.75" font-family="Helvetica,sans-Serif" font-size="10.00">JKRDisposer</text>
</a>
</g>
</g>
<!-- Node4&#45;&gt;Node3 -->
<g id="edge3_Node000003_Node000004" class="edge">
<title>Node4&#45;&gt;Node3</title>
<g id="a_edge3_Node000003_Node000004"><a xlink:title=" ">
<path fill="none" stroke="#63b8ff" d="M774.39,-459.78C814.16,-451.47 870.44,-439.72 907.92,-431.89"/>
<polygon fill="#63b8ff" stroke="#63b8ff" points="773.68,-456.35 764.61,-461.82 775.11,-463.2 773.68,-456.35"/>
</a>
</g>
</g>
<!-- Node5 -->
<g id="Node000005" class="node">
<title>Node5</title>
<g id="a_Node000005"><a xlink:href="structJKRHeap.html" target="_top" xlink:title=" ">
<polygon fill="white" stroke="#666666" points="977.5,-537.25 919.5,-537.25 919.5,-518 977.5,-518 977.5,-537.25"/>
<text text-anchor="middle" x="948.5" y="-523.75" font-family="Helvetica,sans-Serif" font-size="10.00">JKRHeap</text>
</a>
</g>
</g>
<!-- Node4&#45;&gt;Node5 -->
<g id="edge5_Node000005_Node000004" class="edge">
<title>Node4&#45;&gt;Node5</title>
<g id="a_edge5_Node000005_Node000004"><a xlink:title=" ">
<path fill="none" stroke="#63b8ff" d="M774.31,-468.36C799.06,-469.61 829.09,-474.27 852.75,-487.62 863.75,-493.83 860.03,-502.94 870.75,-509.62 885.27,-518.68 903.9,-523.18 919.18,-525.42"/>
<polygon fill="#63b8ff" stroke="#63b8ff" points="774.62,-464.87 764.51,-468.06 774.39,-471.87 774.62,-464.87"/>
</a>
</g>
</g>
<!-- Node5&#45;&gt;Node2 -->
<g id="edge37_Node000002_Node000005" class="edge">
<title>Node5&#45;&gt;Node2</title>
<g id="a_edge37_Node000002_Node000005"><a xlink:title=" ">
<path fill="none" stroke="#9a32cd" stroke-dasharray="5,2" d="M989.02,-522.53C1027.31,-516.4 1086.16,-503.77 1132,-479.62 1165.34,-462.06 1197.63,-430.71 1212.97,-414.68"/>
<polygon fill="#9a32cd" stroke="#9a32cd" points="988.69,-519.04 979.33,-524 989.74,-525.96 988.69,-519.04"/>
</a>
</g>
<text text-anchor="middle" x="1088.12" y="-512.38" font-family="Helvetica,sans-Serif" font-size="10.00" fill="grey"> mHeap</text>
</g>
<!-- Node5&#45;&gt;Node4 -->
<g id="edge4_Node000004_Node000005" class="edge">
<title>Node5&#45;&gt;Node4</title>
<g id="a_edge4_Node000004_Node000005"><a xlink:title=" ">
<path fill="none" stroke="#9a32cd" stroke-dasharray="5,2" d="M907.96,-518.68C895.98,-515.88 882.81,-512.72 870.75,-509.62 833.42,-500.05 790.93,-488.07 761.94,-479.73"/>
<polygon fill="#9a32cd" stroke="#9a32cd" points="907,-522.05 917.53,-520.9 908.57,-515.23 907,-522.05"/>
</a>
</g>
<text text-anchor="middle" x="826.88" y="-505.38" font-family="Helvetica,sans-Serif" font-size="10.00" fill="grey"> mHeap</text>
</g>
<!-- Node5&#45;&gt;Node5 -->
<g id="edge29_Node000005_Node000005" class="edge">
<title>Node5&#45;&gt;Node5</title>
<g id="a_edge29_Node000005_Node000005"><a xlink:title=" ">
<path fill="none" stroke="#9a32cd" stroke-dasharray="5,2" d="M926.91,-548.65C929.61,-552.53 936.81,-555.25 948.5,-555.25 969.88,-555.25 976.23,-546.15 967.54,-537.54"/>
<polygon fill="#9a32cd" stroke="#9a32cd" points="930.3,-549.54 929.12,-539.01 923.48,-547.98 930.3,-549.54"/>
</a>
</g>
<text text-anchor="middle" x="948.5" y="-590.75" font-family="Helvetica,sans-Serif" font-size="10.00" fill="grey"> sCurrentHeap</text>
<text text-anchor="middle" x="948.5" y="-579.5" font-family="Helvetica,sans-Serif" font-size="10.00" fill="grey">sRootHeap</text>
<text text-anchor="middle" x="948.5" y="-568.25" font-family="Helvetica,sans-Serif" font-size="10.00" fill="grey">sRootHeap2</text>
<text text-anchor="middle" x="948.5" y="-557" font-family="Helvetica,sans-Serif" font-size="10.00" fill="grey">sSystemHeap</text>
</g>
<!-- Node6 -->
<g id="Node000006" class="node">
<title>Node6</title>
<g id="a_Node000006"><a xlink:href="structOSMutex.html" target="_top" xlink:title=" ">
<polygon fill="white" stroke="#666666" points="754.5,-725.25 698,-725.25 698,-706 754.5,-706 754.5,-725.25"/>
<text text-anchor="middle" x="726.25" y="-711.75" font-family="Helvetica,sans-Serif" font-size="10.00">OSMutex</text>
</a>
</g>
</g>
<!-- Node6&#45;&gt;Node5 -->
<g id="edge6_Node000005_Node000006" class="edge">
<title>Node6&#45;&gt;Node5</title>
<g id="a_edge6_Node000005_Node000006"><a xlink:title=" ">
<path fill="none" stroke="#9a32cd" stroke-dasharray="5,2" d="M737.72,-695.84C750.4,-673.3 773.49,-636.35 801,-611.38 838.41,-577.4 891.92,-551.19 922.85,-537.7"/>
<polygon fill="#9a32cd" stroke="#9a32cd" points="734.82,-693.86 733.09,-704.31 740.96,-697.22 734.82,-693.86"/>
</a>
</g>
<text text-anchor="middle" x="826.88" y="-612.38" font-family="Helvetica,sans-Serif" font-size="10.00" fill="grey"> mMutex</text>
</g>
<!-- Node8 -->
<g id="Node000008" class="node">
<title>Node8</title>
<g id="a_Node000008"><a xlink:href="structOSThread.html" target="_top" xlink:title=" ">
<polygon fill="white" stroke="#666666" points="1253.38,-740.25 1193.12,-740.25 1193.12,-721 1253.38,-721 1253.38,-740.25"/>
<text text-anchor="middle" x="1223.25" y="-726.75" font-family="Helvetica,sans-Serif" font-size="10.00">OSThread</text>
</a>
</g>
</g>
<!-- Node6&#45;&gt;Node8 -->
<g id="edge13_Node000008_Node000006" class="edge">
<title>Node6&#45;&gt;Node8</title>
<g id="a_edge13_Node000008_Node000006"><a xlink:title=" ">
<path fill="none" stroke="#9a32cd" stroke-dasharray="5,2" d="M748.22,-732.36C762.3,-742.64 781.74,-755.05 801,-761.62 830.49,-771.69 839.63,-767.07 870.75,-768.62 986.82,-774.43 1018.04,-780.39 1132,-757.62 1153.01,-753.43 1176.15,-746.46 1193.74,-740.65"/>
<polygon fill="#9a32cd" stroke="#9a32cd" points="750.69,-729.84 740.6,-726.6 746.47,-735.42 750.69,-729.84"/>
</a>
</g>
<text text-anchor="middle" x="948.5" y="-775.38" font-family="Helvetica,sans-Serif" font-size="10.00" fill="grey"> mutex</text>
</g>
<!-- Node11 -->
<g id="Node000011" class="node">
<title>Node11</title>
<g id="a_Node000011"><a xlink:href="structOSMutexQueue.html" target="_top" xlink:title=" ">
<polygon fill="white" stroke="#666666" points="991,-759.25 906,-759.25 906,-740 991,-740 991,-759.25"/>
<text text-anchor="middle" x="948.5" y="-745.75" font-family="Helvetica,sans-Serif" font-size="10.00">OSMutexQueue</text>
</a>
</g>
</g>
<!-- Node6&#45;&gt;Node11 -->
<g id="edge15_Node000011_Node000006" class="edge">
<title>Node6&#45;&gt;Node11</title>
<g id="a_edge15_Node000011_Node000006"><a xlink:title=" ">
<path fill="none" stroke="#9a32cd" stroke-dasharray="5,2" d="M766.15,-722.05C777.39,-723.88 789.68,-725.85 801,-727.62 836.32,-733.15 876.48,-739.16 905.8,-743.5"/>
<polygon fill="#9a32cd" stroke="#9a32cd" points="766.83,-718.61 756.4,-720.45 765.7,-725.52 766.83,-718.61"/>
</a>
</g>
<text text-anchor="middle" x="826.88" y="-747.62" font-family="Helvetica,sans-Serif" font-size="10.00" fill="grey"> head</text>
<text text-anchor="middle" x="826.88" y="-736.38" font-family="Helvetica,sans-Serif" font-size="10.00" fill="grey">tail</text>
</g>
<!-- Node12 -->
<g id="Node000012" class="node">
<title>Node12</title>
<g id="a_Node000012"><a xlink:href="structOSMutexLink.html" target="_top" xlink:title=" ">
<polygon fill="white" stroke="#666666" points="986.12,-685.25 910.88,-685.25 910.88,-666 986.12,-666 986.12,-685.25"/>
<text text-anchor="middle" x="948.5" y="-671.75" font-family="Helvetica,sans-Serif" font-size="10.00">OSMutexLink</text>
</a>
</g>
</g>
<!-- Node6&#45;&gt;Node12 -->
<g id="edge18_Node000012_Node000006" class="edge">
<title>Node6&#45;&gt;Node12</title>
<g id="a_edge18_Node000012_Node000006"><a xlink:title=" ">
<path fill="none" stroke="#9a32cd" stroke-dasharray="5,2" d="M746.37,-698.5C760.39,-687.16 780.48,-673.27 801,-667.12 837.12,-656.31 880.44,-660.84 910.57,-666.59"/>
<polygon fill="#9a32cd" stroke="#9a32cd" points="744.24,-695.72 738.86,-704.85 748.76,-701.07 744.24,-695.72"/>
</a>
</g>
<text text-anchor="middle" x="826.88" y="-679.62" font-family="Helvetica,sans-Serif" font-size="10.00" fill="grey"> next</text>
<text text-anchor="middle" x="826.88" y="-668.38" font-family="Helvetica,sans-Serif" font-size="10.00" fill="grey">prev</text>
</g>
<!-- Node7 -->
<g id="Node000007" class="node">
<title>Node7</title>
<g id="a_Node000007"><a xlink:href="structOSThreadQueue.html" target="_top" xlink:title=" ">
<polygon fill="white" stroke="#666666" points="1513.88,-806.25 1425.12,-806.25 1425.12,-787 1513.88,-787 1513.88,-806.25"/>
<text text-anchor="middle" x="1469.5" y="-792.75" font-family="Helvetica,sans-Serif" font-size="10.00">OSThreadQueue</text>
</a>
</g>
</g>
<!-- Node7&#45;&gt;Node6 -->
<g id="edge7_Node000006_Node000007" class="edge">
<title>Node7&#45;&gt;Node6</title>
<g id="a_edge7_Node000006_Node000007"><a xlink:title=" ">
<path fill="none" stroke="#9a32cd" stroke-dasharray="5,2" d="M1431.8,-810.2C1421.86,-813.26 1411.01,-816.07 1400.75,-817.62 1362.85,-823.36 1352.81,-818.88 1314.5,-817.62 1116.96,-811.18 1067.33,-809.11 870.75,-788.62 839.6,-785.38 829.54,-791.53 801,-778.62 773.38,-766.14 748.14,-740.06 735.59,-725.68"/>
<polygon fill="#9a32cd" stroke="#9a32cd" points="1432.69,-813.59 1441.11,-807.15 1430.52,-806.93 1432.69,-813.59"/>
</a>
</g>
<text text-anchor="middle" x="1088.12" y="-811.38" font-family="Helvetica,sans-Serif" font-size="10.00" fill="grey"> queue</text>
</g>
<!-- Node7&#45;&gt;Node8 -->
<g id="edge10_Node000008_Node000007" class="edge">
<title>Node7&#45;&gt;Node8</title>
<g id="a_edge10_Node000008_Node000007"><a xlink:title=" ">
<path fill="none" stroke="#9a32cd" stroke-dasharray="5,2" d="M1450.16,-779.41C1437.34,-768.47 1419.27,-755.1 1400.75,-748.12 1351.62,-729.63 1289.64,-728.01 1253.72,-728.99"/>
<polygon fill="#9a32cd" stroke="#9a32cd" points="1447.56,-781.78 1457.36,-785.81 1452.21,-776.55 1447.56,-781.78"/>
</a>
</g>
<text text-anchor="middle" x="1357.62" y="-760.62" font-family="Helvetica,sans-Serif" font-size="10.00" fill="grey"> join_queue</text>
<text text-anchor="middle" x="1357.62" y="-749.38" font-family="Helvetica,sans-Serif" font-size="10.00" fill="grey">queue</text>
</g>
<!-- Node8&#45;&gt;Node6 -->
<g id="edge16_Node000006_Node000008" class="edge">
<title>Node8&#45;&gt;Node6</title>
<g id="a_edge16_Node000006_Node000008"><a xlink:title=" ">
<path fill="none" stroke="#9a32cd" stroke-dasharray="5,2" d="M1195.88,-714.95C1159.3,-694.21 1090.4,-658.72 1026.25,-645.38 928.14,-624.96 892.73,-615.27 801,-655.62 774.11,-667.46 748.96,-691.84 736.13,-705.6"/>
<polygon fill="#9a32cd" stroke="#9a32cd" points="1194.01,-717.91 1204.42,-719.87 1197.5,-711.85 1194.01,-717.91"/>
</a>
</g>
<text text-anchor="middle" x="948.5" y="-646.38" font-family="Helvetica,sans-Serif" font-size="10.00" fill="grey"> thread</text>
</g>
<!-- Node8&#45;&gt;Node7 -->
<g id="edge8_Node000007_Node000008" class="edge">
<title>Node8&#45;&gt;Node7</title>
<g id="a_edge8_Node000007_Node000008"><a xlink:title=" ">
<path fill="none" stroke="#9a32cd" stroke-dasharray="5,2" d="M1250.44,-746.1C1267.99,-755.79 1291.93,-767.7 1314.5,-774.62 1350.78,-785.76 1393.62,-791.3 1424.9,-794.03"/>
<polygon fill="#9a32cd" stroke="#9a32cd" points="1252.64,-743.33 1242.22,-741.46 1249.2,-749.43 1252.64,-743.33"/>
</a>
</g>
<text text-anchor="middle" x="1357.62" y="-803.62" font-family="Helvetica,sans-Serif" font-size="10.00" fill="grey"> head</text>
<text text-anchor="middle" x="1357.62" y="-792.38" font-family="Helvetica,sans-Serif" font-size="10.00" fill="grey">tail</text>
</g>
<!-- Node10 -->
<g id="Node000010" class="node">
<title>Node10</title>
<g id="a_Node000010"><a xlink:href="structOSThreadLink.html" target="_top" xlink:title=" ">
<polygon fill="white" stroke="#666666" points="1509,-691.25 1430,-691.25 1430,-672 1509,-672 1509,-691.25"/>
<text text-anchor="middle" x="1469.5" y="-677.75" font-family="Helvetica,sans-Serif" font-size="10.00">OSThreadLink</text>
</a>
</g>
</g>
<!-- Node8&#45;&gt;Node10 -->
<g id="edge12_Node000010_Node000008" class="edge">
<title>Node8&#45;&gt;Node10</title>
<g id="a_edge12_Node000010_Node000008"><a xlink:title=" ">
<path fill="none" stroke="#9a32cd" stroke-dasharray="5,2" d="M1240.83,-713.19C1257.62,-696.92 1285.21,-673.75 1314.5,-664.12 1357.06,-650.14 1409.4,-661.75 1440.8,-671.57"/>
<polygon fill="#9a32cd" stroke="#9a32cd" points="1238.74,-710.34 1234.16,-719.89 1243.7,-715.28 1238.74,-710.34"/>
</a>
</g>
<text text-anchor="middle" x="1357.62" y="-676.62" font-family="Helvetica,sans-Serif" font-size="10.00" fill="grey"> next</text>
<text text-anchor="middle" x="1357.62" y="-665.38" font-family="Helvetica,sans-Serif" font-size="10.00" fill="grey">prev</text>
</g>
<!-- Node9 -->
<g id="Node000009" class="node">
<title>Node9</title>
<g id="a_Node000009"><a xlink:href="structOSContext.html" target="_top" xlink:title=" ">
<polygon fill="white" stroke="#666666" points="980.12,-722.25 916.88,-722.25 916.88,-703 980.12,-703 980.12,-722.25"/>
<text text-anchor="middle" x="948.5" y="-708.75" font-family="Helvetica,sans-Serif" font-size="10.00">OSContext</text>
</a>
</g>
</g>
<!-- Node9&#45;&gt;Node8 -->
<g id="edge9_Node000008_Node000009" class="edge">
<title>Node9&#45;&gt;Node8</title>
<g id="a_edge9_Node000008_Node000009"><a xlink:title=" ">
<path fill="none" stroke="#9a32cd" stroke-dasharray="5,2" d="M991.94,-711.44C1028.99,-710.84 1084.16,-711 1132,-715.38 1152.41,-717.24 1175.17,-721.1 1192.73,-724.47"/>
<polygon fill="#9a32cd" stroke="#9a32cd" points="992.02,-707.94 982.09,-711.63 992.15,-714.94 992.02,-707.94"/>
</a>
</g>
<text text-anchor="middle" x="1088.12" y="-716.38" font-family="Helvetica,sans-Serif" font-size="10.00" fill="grey"> context</text>
</g>
<!-- Node10&#45;&gt;Node8 -->
<g id="edge11_Node000008_Node000010" class="edge">
<title>Node10&#45;&gt;Node8</title>
<g id="a_edge11_Node000008_Node000010"><a xlink:title=" ">
<path fill="none" stroke="#9a32cd" stroke-dasharray="5,2" d="M1418.55,-688.19C1388.29,-692.5 1349,-698.72 1314.5,-706.12 1294.02,-710.52 1271.27,-716.71 1253.73,-721.76"/>
<polygon fill="#9a32cd" stroke="#9a32cd" points="1418.76,-691.69 1428.18,-686.84 1417.79,-684.76 1418.76,-691.69"/>
</a>
</g>
<text text-anchor="middle" x="1357.62" y="-718.62" font-family="Helvetica,sans-Serif" font-size="10.00" fill="grey"> active_threads_link</text>
<text text-anchor="middle" x="1357.62" y="-707.38" font-family="Helvetica,sans-Serif" font-size="10.00" fill="grey">link</text>
</g>
<!-- Node11&#45;&gt;Node8 -->
<g id="edge14_Node000008_Node000011" class="edge">
<title>Node11&#45;&gt;Node8</title>
<g id="a_edge14_Node000008_Node000011"><a xlink:title=" ">
<path fill="none" stroke="#9a32cd" stroke-dasharray="5,2" d="M1002.48,-745.93C1059.21,-741.98 1147.2,-735.85 1192.72,-732.68"/>
<polygon fill="#9a32cd" stroke="#9a32cd" points="1002.46,-742.43 992.73,-746.61 1002.95,-749.41 1002.46,-742.43"/>
</a>
</g>
<text text-anchor="middle" x="1088.12" y="-744.38" font-family="Helvetica,sans-Serif" font-size="10.00" fill="grey"> owned_mutexes</text>
</g>
<!-- Node12&#45;&gt;Node6 -->
<g id="edge17_Node000006_Node000012" class="edge">
<title>Node12&#45;&gt;Node6</title>
<g id="a_edge17_Node000006_Node000012"><a xlink:title=" ">
<path fill="none" stroke="#9a32cd" stroke-dasharray="5,2" d="M899.54,-684.87C884.56,-687.72 867.98,-690.84 852.75,-693.62 819.02,-699.78 780.13,-706.55 754.69,-710.93"/>
<polygon fill="#9a32cd" stroke="#9a32cd" points="899.97,-688.35 909.14,-683.04 898.66,-681.48 899.97,-688.35"/>
</a>
</g>
<text text-anchor="middle" x="826.88" y="-704.38" font-family="Helvetica,sans-Serif" font-size="10.00" fill="grey"> link</text>
</g>
<!-- Node13 -->
<g id="Node000013" class="node">
<title>Node13</title>
<g id="a_Node000013"><a xlink:href="classJSUTree.html" target="_top" xlink:title=" ">
<polygon fill="white" stroke="#666666" points="783,-581.25 669.5,-581.25 669.5,-562 783,-562 783,-581.25"/>
<text text-anchor="middle" x="726.25" y="-567.75" font-family="Helvetica,sans-Serif" font-size="10.00">JSUTree&lt; JKRHeap &gt;</text>
</a>
</g>
</g>
<!-- Node13&#45;&gt;Node5 -->
<g id="edge19_Node000005_Node000013" class="edge">
<title>Node13&#45;&gt;Node5</title>
<g id="a_edge19_Node000005_Node000013"><a xlink:title=" ">
<path fill="none" stroke="#9a32cd" stroke-dasharray="5,2" d="M788.95,-559.35C809.27,-555.3 831.98,-550.78 852.75,-546.62 875.12,-542.15 900.47,-537.07 919.31,-533.29"/>
<polygon fill="#9a32cd" stroke="#9a32cd" points="788.54,-555.86 779.42,-561.25 789.91,-562.73 788.54,-555.86"/>
</a>
</g>
<text text-anchor="middle" x="826.88" y="-558.38" font-family="Helvetica,sans-Serif" font-size="10.00" fill="grey"> mChildTree</text>
</g>
<!-- Node14 -->
<g id="Node000014" class="node">
<title>Node14</title>
<g id="a_Node000014"><a xlink:href="classJSUList.html" target="_top" xlink:title=" ">
<polygon fill="white" stroke="#666666" points="323.25,-591.25 248.75,-591.25 248.75,-572 323.25,-572 323.25,-591.25"/>
<text text-anchor="middle" x="286" y="-577.75" font-family="Helvetica,sans-Serif" font-size="10.00">JSUList&lt; T &gt;</text>
</a>
</g>
</g>
<!-- Node14&#45;&gt;Node13 -->
<g id="edge20_Node000013_Node000014" class="edge">
<title>Node14&#45;&gt;Node13</title>
<g id="a_edge20_Node000013_Node000014"><a xlink:title=" ">
<path fill="none" stroke="#63b8ff" d="M335.03,-580.53C416.71,-578.67 582.23,-574.89 669.12,-572.91"/>
<polygon fill="#63b8ff" stroke="#63b8ff" points="335.04,-577.03 325.12,-580.76 335.2,-584.03 335.04,-577.03"/>
</a>
</g>
</g>
<!-- Node15 -->
<g id="Node000015" class="node">
<title>Node15</title>
<g id="a_Node000015"><a xlink:href="classJSUPtrList.html" target="_top" xlink:title=" ">
<polygon fill="white" stroke="#666666" points="64.75,-520.25 0,-520.25 0,-501 64.75,-501 64.75,-520.25"/>
<text text-anchor="middle" x="32.38" y="-506.75" font-family="Helvetica,sans-Serif" font-size="10.00">JSUPtrList</text>
</a>
</g>
</g>
<!-- Node15&#45;&gt;Node14 -->
<g id="edge21_Node000014_Node000015" class="edge">
<title>Node15&#45;&gt;Node14</title>
<g id="a_edge21_Node000014_Node000015"><a xlink:title=" ">
<path fill="none" stroke="#63b8ff" d="M48.33,-529.38C57.24,-539.18 69.39,-550.39 82.75,-556.62 136.45,-581.68 206.47,-584.65 248.45,-583.71"/>
<polygon fill="#63b8ff" stroke="#63b8ff" points="51,-527.11 41.84,-521.79 45.68,-531.66 51,-527.11"/>
</a>
</g>
</g>
<!-- Node16 -->
<g id="Node000016" class="node">
<title>Node16</title>
<g id="a_Node000016"><a xlink:href="classJSUPtrLink.html" target="_top" xlink:title=" ">
<polygon fill="white" stroke="#666666" points="201.5,-474.25 134.5,-474.25 134.5,-455 201.5,-455 201.5,-474.25"/>
<text text-anchor="middle" x="168" y="-460.75" font-family="Helvetica,sans-Serif" font-size="10.00">JSUPtrLink</text>
</a>
</g>
</g>
<!-- Node15&#45;&gt;Node16 -->
<g id="edge23_Node000016_Node000015" class="edge">
<title>Node15&#45;&gt;Node16</title>
<g id="a_edge23_Node000016_Node000015"><a xlink:title=" ">
<path fill="none" stroke="#9a32cd" stroke-dasharray="5,2" d="M76.12,-500.93C89.23,-497.52 103.6,-493.35 116.5,-488.62 127.26,-484.68 138.82,-479.28 148.17,-474.59"/>
<polygon fill="#9a32cd" stroke="#9a32cd" points="75.3,-497.52 66.45,-503.35 77,-504.31 75.3,-497.52"/>
</a>
</g>
<text text-anchor="middle" x="99.62" y="-499.38" font-family="Helvetica,sans-Serif" font-size="10.00" fill="grey"> mList</text>
</g>
<!-- Node18 -->
<g id="Node000018" class="node">
<title>Node18</title>
<g id="a_Node000018"><a xlink:href="classJSUList.html" target="_top" xlink:title=" ">
<polygon fill="white" stroke="#666666" points="646.62,-541.25 521.12,-541.25 521.12,-522 646.62,-522 646.62,-541.25"/>
<text text-anchor="middle" x="583.88" y="-527.75" font-family="Helvetica,sans-Serif" font-size="10.00">JSUList&lt; JKRDisposer &gt;</text>
</a>
</g>
</g>
<!-- Node15&#45;&gt;Node18 -->
<g id="edge28_Node000018_Node000015" class="edge">
<title>Node15&#45;&gt;Node18</title>
<g id="a_edge28_Node000018_Node000015"><a xlink:title=" ">
<path fill="none" stroke="#63b8ff" d="M76.43,-517.22C94.35,-519.69 115.38,-522.23 134.5,-523.62 272.13,-533.67 434.12,-533.64 520.76,-532.67"/>
<polygon fill="#63b8ff" stroke="#63b8ff" points="77.06,-513.78 66.66,-515.84 76.07,-520.71 77.06,-513.78"/>
</a>
</g>
</g>
<!-- Node21 -->
<g id="Node000021" class="node">
<title>Node21</title>
<g id="a_Node000021"><a xlink:href="classJSUList.html" target="_top" xlink:title=" ">
<polygon fill="white" stroke="#666666" points="352.5,-398.25 219.5,-398.25 219.5,-379 352.5,-379 352.5,-398.25"/>
<text text-anchor="middle" x="286" y="-384.75" font-family="Helvetica,sans-Serif" font-size="10.00">JSUList&lt; JKRFileLoader &gt;</text>
</a>
</g>
</g>
<!-- Node15&#45;&gt;Node21 -->
<g id="edge36_Node000021_Node000015" class="edge">
<title>Node15&#45;&gt;Node21</title>
<g id="a_edge36_Node000021_Node000015"><a xlink:title=" ">
<path fill="none" stroke="#63b8ff" d="M46.45,-491.57C55.44,-479.75 68.32,-465.07 82.75,-455.62 127.94,-426.05 187.36,-408.42 230.09,-398.72"/>
<polygon fill="#63b8ff" stroke="#63b8ff" points="43.79,-489.27 40.76,-499.42 49.46,-493.38 43.79,-489.27"/>
</a>
</g>
</g>
<!-- Node16&#45;&gt;Node15 -->
<g id="edge22_Node000015_Node000016" class="edge">
<title>Node16&#45;&gt;Node15</title>
<g id="a_edge22_Node000015_Node000016"><a xlink:title=" ">
<path fill="none" stroke="#9a32cd" stroke-dasharray="5,2" d="M123,-459.6C109.68,-459.6 95.28,-461.19 82.75,-466.12 64.93,-473.15 49.46,-489.78 40.78,-500.6"/>
<polygon fill="#9a32cd" stroke="#9a32cd" points="122.73,-463.1 132.84,-459.92 122.96,-456.1 122.73,-463.1"/>
</a>
</g>
<text text-anchor="middle" x="99.62" y="-478.62" font-family="Helvetica,sans-Serif" font-size="10.00" fill="grey"> mHead</text>
<text text-anchor="middle" x="99.62" y="-467.38" font-family="Helvetica,sans-Serif" font-size="10.00" fill="grey">mTail</text>
</g>
<!-- Node16&#45;&gt;Node16 -->
<g id="edge24_Node000016_Node000016" class="edge">
<title>Node16&#45;&gt;Node16</title>
<g id="a_edge24_Node000016_Node000016"><a xlink:title=" ">
<path fill="none" stroke="#9a32cd" stroke-dasharray="5,2" d="M155.86,-485.65C157.38,-489.53 161.43,-492.25 168,-492.25 180.02,-492.25 183.59,-483.15 178.7,-474.54"/>
<polygon fill="#9a32cd" stroke="#9a32cd" points="159.3,-486.4 157.1,-476.04 152.35,-485.51 159.3,-486.4"/>
</a>
</g>
<text text-anchor="middle" x="168" y="-505.25" font-family="Helvetica,sans-Serif" font-size="10.00" fill="grey"> mNext</text>
<text text-anchor="middle" x="168" y="-494" font-family="Helvetica,sans-Serif" font-size="10.00" fill="grey">mPrev</text>
</g>
<!-- Node17 -->
<g id="Node000017" class="node">
<title>Node17</title>
<g id="a_Node000017"><a xlink:href="classJSULink.html" target="_top" xlink:title=" ">
<polygon fill="white" stroke="#666666" points="472.75,-513.25 396,-513.25 396,-494 472.75,-494 472.75,-513.25"/>
<text text-anchor="middle" x="434.38" y="-499.75" font-family="Helvetica,sans-Serif" font-size="10.00">JSULink&lt; T &gt;</text>
</a>
</g>
</g>
<!-- Node16&#45;&gt;Node17 -->
<g id="edge26_Node000017_Node000016" class="edge">
<title>Node16&#45;&gt;Node17</title>
<g id="a_edge26_Node000017_Node000016"><a xlink:title=" ">
<path fill="none" stroke="#63b8ff" d="M212.97,-477.24C215.17,-477.74 217.36,-478.21 219.5,-478.62 280.58,-490.59 352.68,-497.57 395.63,-500.98"/>
<polygon fill="#63b8ff" stroke="#63b8ff" points="213.98,-473.89 203.44,-474.91 212.32,-480.69 213.98,-473.89"/>
</a>
</g>
</g>
<!-- Node19 -->
<g id="Node000019" class="node">
<title>Node19</title>
<g id="a_Node000019"><a xlink:href="classJSULink.html" target="_top" xlink:title=" ">
<polygon fill="white" stroke="#666666" points="498.25,-475.25 370.5,-475.25 370.5,-456 498.25,-456 498.25,-475.25"/>
<text text-anchor="middle" x="434.38" y="-461.75" font-family="Helvetica,sans-Serif" font-size="10.00">JSULink&lt; JKRDisposer &gt;</text>
</a>
</g>
</g>
<!-- Node16&#45;&gt;Node19 -->
<g id="edge31_Node000019_Node000016" class="edge">
<title>Node16&#45;&gt;Node19</title>
<g id="a_edge31_Node000019_Node000016"><a xlink:title=" ">
<path fill="none" stroke="#63b8ff" d="M213.42,-464.79C256.35,-464.96 321.79,-465.2 370.14,-465.39"/>
<polygon fill="#63b8ff" stroke="#63b8ff" points="213.48,-461.29 203.46,-464.76 213.45,-468.29 213.48,-461.29"/>
</a>
</g>
</g>
<!-- Node20 -->
<g id="Node000020" class="node">
<title>Node20</title>
<g id="a_Node000020"><a xlink:href="classJSULink.html" target="_top" xlink:title=" ">
<polygon fill="white" stroke="#666666" points="651.5,-433.25 516.25,-433.25 516.25,-414 651.5,-414 651.5,-433.25"/>
<text text-anchor="middle" x="583.88" y="-419.75" font-family="Helvetica,sans-Serif" font-size="10.00">JSULink&lt; JKRFileLoader &gt;</text>
</a>
</g>
</g>
<!-- Node16&#45;&gt;Node20 -->
<g id="edge33_Node000020_Node000016" class="edge">
<title>Node16&#45;&gt;Node20</title>
<g id="a_edge33_Node000020_Node000016"><a xlink:title=" ">
<path fill="none" stroke="#63b8ff" d="M213.26,-460.24C285.93,-453.04 430.94,-438.68 516.13,-430.24"/>
<polygon fill="#63b8ff" stroke="#63b8ff" points="212.93,-456.76 203.33,-461.22 213.62,-463.72 212.93,-456.76"/>
</a>
</g>
</g>
<!-- Node17&#45;&gt;Node13 -->
<g id="edge25_Node000013_Node000017" class="edge">
<title>Node17&#45;&gt;Node13</title>
<g id="a_edge25_Node000013_Node000017"><a xlink:title=" ">
<path fill="none" stroke="#63b8ff" d="M461.94,-519.04C477.33,-527.29 497.34,-536.91 516.25,-542.62 566.74,-557.89 626.56,-565.16 669.24,-568.6"/>
<polygon fill="#63b8ff" stroke="#63b8ff" points="463.87,-516.11 453.43,-514.34 460.49,-522.23 463.87,-516.11"/>
</a>
</g>
</g>
<!-- Node18&#45;&gt;Node5 -->
<g id="edge27_Node000005_Node000018" class="edge">
<title>Node18&#45;&gt;Node5</title>
<g id="a_edge27_Node000005_Node000018"><a xlink:title=" ">
<path fill="none" stroke="#9a32cd" stroke-dasharray="5,2" d="M657.84,-530.82C738.24,-529.93 863.54,-528.55 919.2,-527.94"/>
<polygon fill="#9a32cd" stroke="#9a32cd" points="658.27,-527.32 648.31,-530.93 658.35,-534.31 658.27,-527.32"/>
</a>
</g>
<text text-anchor="middle" x="726.25" y="-532.38" font-family="Helvetica,sans-Serif" font-size="10.00" fill="grey"> mDisposerList</text>
</g>
<!-- Node19&#45;&gt;Node4 -->
<g id="edge30_Node000004_Node000019" class="edge">
<title>Node19&#45;&gt;Node4</title>
<g id="a_edge30_Node000004_Node000019"><a xlink:title=" ">
<path fill="none" stroke="#9a32cd" stroke-dasharray="5,2" d="M509.89,-466.65C567.56,-467.45 644.88,-468.52 689.46,-469.13"/>
<polygon fill="#9a32cd" stroke="#9a32cd" points="510.19,-463.16 500.14,-466.52 510.1,-470.16 510.19,-463.16"/>
</a>
</g>
<text text-anchor="middle" x="583.88" y="-469.38" font-family="Helvetica,sans-Serif" font-size="10.00" fill="grey"> mLink</text>
</g>
<!-- Node20&#45;&gt;Node3 -->
<g id="edge32_Node000003_Node000020" class="edge">
<title>Node20&#45;&gt;Node3</title>
<g id="a_edge32_Node000003_Node000020"><a xlink:title=" ">
<path fill="none" stroke="#9a32cd" stroke-dasharray="5,2" d="M663.11,-423.62C738.43,-423.62 849.28,-423.62 907.86,-423.62"/>
<polygon fill="#9a32cd" stroke="#9a32cd" points="663.32,-420.13 653.32,-423.63 663.32,-427.13 663.32,-420.13"/>
</a>
</g>
<text text-anchor="middle" x="726.25" y="-425.38" font-family="Helvetica,sans-Serif" font-size="10.00" fill="grey"> mFileLoaderLink</text>
</g>
<!-- Node21&#45;&gt;Node3 -->
<g id="edge35_Node000003_Node000021" class="edge">
<title>Node21&#45;&gt;Node3</title>
<g id="a_edge35_Node000003_Node000021"><a xlink:title=" ">
<path fill="none" stroke="#9a32cd" stroke-dasharray="5,2" d="M364.4,-387.64C438.24,-387.18 552.54,-387.69 651.5,-393.38 743.55,-398.67 851.15,-411.29 907.85,-418.44"/>
<polygon fill="#9a32cd" stroke="#9a32cd" points="364.4,-384.14 354.42,-387.72 364.45,-391.14 364.4,-384.14"/>
</a>
</g>
<text text-anchor="middle" x="583.88" y="-394.38" font-family="Helvetica,sans-Serif" font-size="10.00" fill="grey"> sVolumeList</text>
</g>
<!-- Node22 -->
<g id="Node000022" class="node">
<title>Node22</title>
<g id="a_Node000022"><a xlink:href="structSArcDataInfo.html" target="_top" xlink:title=" ">
<polygon fill="white" stroke="#666666" points="985.75,-396.25 911.25,-396.25 911.25,-377 985.75,-377 985.75,-396.25"/>
<text text-anchor="middle" x="948.5" y="-382.75" font-family="Helvetica,sans-Serif" font-size="10.00">SArcDataInfo</text>
</a>
</g>
</g>
<!-- Node22&#45;&gt;Node2 -->
<g id="edge38_Node000002_Node000022" class="edge">
<title>Node22&#45;&gt;Node2</title>
<g id="a_edge38_Node000002_Node000022"><a xlink:title=" ">
<path fill="none" stroke="#9a32cd" stroke-dasharray="5,2" d="M997.31,-387.26C1034.16,-388.02 1086.37,-389.69 1132,-393.38 1150.89,-394.9 1171.9,-397.47 1188.89,-399.76"/>
<polygon fill="#9a32cd" stroke="#9a32cd" points="997.49,-383.76 987.43,-387.07 997.36,-390.76 997.49,-383.76"/>
</a>
</g>
<text text-anchor="middle" x="1088.12" y="-394.38" font-family="Helvetica,sans-Serif" font-size="10.00" fill="grey"> mArcInfoBlock</text>
</g>
<!-- Node23 -->
<g id="Node000023" class="node">
<title>Node23</title>
<g id="a_Node000023"><a xlink:href="structJKRArchive_1_1SDIDirEntry.html" target="_top" xlink:title=" ">
<polygon fill="white" stroke="#666666" points="1009.75,-359.25 887.25,-359.25 887.25,-340 1009.75,-340 1009.75,-359.25"/>
<text text-anchor="middle" x="948.5" y="-345.75" font-family="Helvetica,sans-Serif" font-size="10.00">JKRArchive::SDIDirEntry</text>
</a>
</g>
</g>
<!-- Node23&#45;&gt;Node2 -->
<g id="edge39_Node000002_Node000023" class="edge">
<title>Node23&#45;&gt;Node2</title>
<g id="a_edge39_Node000002_Node000023"><a xlink:title=" ">
<path fill="none" stroke="#9a32cd" stroke-dasharray="5,2" d="M1021.27,-355.55C1055.14,-359.21 1095.96,-364.88 1132,-373.38 1154.76,-378.74 1179.82,-387.67 1197.75,-394.62"/>
<polygon fill="#9a32cd" stroke="#9a32cd" points="1021.87,-352.09 1011.57,-354.54 1021.15,-359.06 1021.87,-352.09"/>
</a>
</g>
<text text-anchor="middle" x="1088.12" y="-374.38" font-family="Helvetica,sans-Serif" font-size="10.00" fill="grey"> mNodes</text>
</g>
<!-- Node24 -->
<g id="Node000024" class="node">
<title>Node24</title>
<g id="a_Node000024"><a xlink:href="structJKRArchive_1_1SDIFileEntry.html" target="_top" xlink:title=" ">
<polygon fill="white" stroke="#666666" points="1011.62,-500.25 885.38,-500.25 885.38,-481 1011.62,-481 1011.62,-500.25"/>
<text text-anchor="middle" x="948.5" y="-486.75" font-family="Helvetica,sans-Serif" font-size="10.00">JKRArchive::SDIFileEntry</text>
</a>
</g>
</g>
<!-- Node24&#45;&gt;Node2 -->
<g id="edge40_Node000002_Node000024" class="edge">
<title>Node24&#45;&gt;Node2</title>
<g id="a_edge40_Node000002_Node000024"><a xlink:title=" ">
<path fill="none" stroke="#9a32cd" stroke-dasharray="5,2" d="M1004.25,-477.69C1011.67,-475.75 1019.17,-473.71 1026.25,-471.62 1087.31,-453.67 1157.63,-428.51 1195.22,-414.7"/>
<polygon fill="#9a32cd" stroke="#9a32cd" points="1003.4,-474.29 994.57,-480.15 1005.13,-481.08 1003.4,-474.29"/>
</a>
</g>
<text text-anchor="middle" x="1088.12" y="-466.38" font-family="Helvetica,sans-Serif" font-size="10.00" fill="grey"> mFiles</text>
</g>
<!-- Node25 -->
<g id="Node000025" class="node">
<title>Node25</title>
<g id="a_Node000025"><a xlink:href="structdMeter__fmapHIO__c_1_1MapBlinkAnime.html" target="_top" xlink:title=" ">
<polygon fill="white" stroke="#666666" points="1296.5,-253.88 1150,-253.88 1150,-223.38 1296.5,-223.38 1296.5,-253.88"/>
<text text-anchor="start" x="1158" y="-240.38" font-family="Helvetica,sans-Serif" font-size="10.00">dMeter_fmapHIO_c::MapBlink</text>
<text text-anchor="middle" x="1223.25" y="-229.12" font-family="Helvetica,sans-Serif" font-size="10.00">Anime</text>
</a>
</g>
</g>
<!-- Node25&#45;&gt;Node1 -->
<g id="edge41_Node000001_Node000025" class="edge">
<title>Node25&#45;&gt;Node1</title>
<g id="a_edge41_Node000001_Node000025"><a xlink:title=" ">
<path fill="none" stroke="#9a32cd" stroke-dasharray="5,2" d="M1307.94,-223.88C1337.32,-218.59 1370.52,-212.49 1400.75,-206.62 1407.12,-205.39 1413.81,-204.05 1420.41,-202.71"/>
<polygon fill="#9a32cd" stroke="#9a32cd" points="1307.6,-220.39 1298.38,-225.6 1308.84,-227.28 1307.6,-220.39"/>
</a>
</g>
<text text-anchor="middle" x="1357.62" y="-223.38" font-family="Helvetica,sans-Serif" font-size="10.00" fill="grey"> mMapBlink</text>
</g>
<!-- Node26 -->
<g id="Node000026" class="node">
<title>Node26</title>
<g id="a_Node000026"><a xlink:href="structdMeter__fmapHIO__c_1_1BlinkAnime.html" target="_top" xlink:title=" ">
<polygon fill="white" stroke="#666666" points="1026.25,-240.25 870.75,-240.25 870.75,-221 1026.25,-221 1026.25,-240.25"/>
<text text-anchor="middle" x="948.5" y="-226.75" font-family="Helvetica,sans-Serif" font-size="10.00">dMeter_fmapHIO_c::BlinkAnime</text>
</a>
</g>
</g>
<!-- Node26&#45;&gt;Node25 -->
<g id="edge42_Node000025_Node000026" class="edge">
<title>Node26&#45;&gt;Node25</title>
<g id="a_edge42_Node000025_Node000026"><a xlink:title=" ">
<path fill="none" stroke="#9a32cd" stroke-dasharray="5,2" d="M1037.61,-233.21C1073.8,-234.27 1115.19,-235.48 1149.59,-236.49"/>
<polygon fill="#9a32cd" stroke="#9a32cd" points="1038.18,-229.72 1028.08,-232.93 1037.97,-236.72 1038.18,-229.72"/>
</a>
</g>
<text text-anchor="middle" x="1088.12" y="-248.62" font-family="Helvetica,sans-Serif" font-size="10.00" fill="grey"> mSelectedRegion</text>
<text text-anchor="middle" x="1088.12" y="-237.38" font-family="Helvetica,sans-Serif" font-size="10.00" fill="grey">mUnselectedRegion</text>
</g>
<!-- Node27 -->
<g id="Node000027" class="node">
<title>Node27</title>
<g id="a_Node000027"><a xlink:href="structJUtility_1_1TColor.html" target="_top" xlink:title=" ">
<polygon fill="white" stroke="#666666" points="765.75,-240.25 686.75,-240.25 686.75,-221 765.75,-221 765.75,-240.25"/>
<text text-anchor="middle" x="726.25" y="-226.75" font-family="Helvetica,sans-Serif" font-size="10.00">JUtility::TColor</text>
</a>
</g>
</g>
<!-- Node27&#45;&gt;Node1 -->
<g id="edge46_Node000001_Node000027" class="edge">
<title>Node27&#45;&gt;Node1</title>
<g id="a_edge46_Node000001_Node000027"><a xlink:title=" ">
<path fill="none" stroke="#9a32cd" stroke-dasharray="5,2" d="M777.42,-222.73C804.91,-218.72 839.63,-214.17 870.75,-211.62 1073.32,-195.04 1315.6,-192.71 1418.42,-192.53"/>
<polygon fill="#9a32cd" stroke="#9a32cd" points="776.99,-219.26 767.61,-224.19 778.02,-226.18 776.99,-219.26"/>
</a>
</g>
<text text-anchor="middle" x="1088.12" y="-213.62" font-family="Helvetica,sans-Serif" font-size="10.00" fill="grey"> mCursorBlack</text>
<text text-anchor="middle" x="1088.12" y="-202.38" font-family="Helvetica,sans-Serif" font-size="10.00" fill="grey">mCursorWhite</text>
</g>
<!-- Node27&#45;&gt;Node25 -->
<g id="edge45_Node000025_Node000027" class="edge">
<title>Node27&#45;&gt;Node25</title>
<g id="a_edge45_Node000025_Node000027"><a xlink:title=" ">
<path fill="none" stroke="#9a32cd" stroke-dasharray="5,2" d="M759.48,-245.05C772.16,-250.02 787.01,-255 801,-257.62 945.6,-284.8 986.11,-281.69 1132,-262.62 1145.34,-260.88 1159.52,-257.75 1172.59,-254.3"/>
<polygon fill="#9a32cd" stroke="#9a32cd" points="760.96,-241.87 750.38,-241.31 758.3,-248.35 760.96,-241.87"/>
</a>
</g>
<text text-anchor="middle" x="948.5" y="-312.12" font-family="Helvetica,sans-Serif" font-size="10.00" fill="grey"> field_0x20</text>
<text text-anchor="middle" x="948.5" y="-300.88" font-family="Helvetica,sans-Serif" font-size="10.00" fill="grey">field_0x24</text>
<text text-anchor="middle" x="948.5" y="-289.62" font-family="Helvetica,sans-Serif" font-size="10.00" fill="grey">mUnreachedRegionBlack</text>
<text text-anchor="middle" x="948.5" y="-278.38" font-family="Helvetica,sans-Serif" font-size="10.00" fill="grey">mUnreachedRegionWhite</text>
</g>
<!-- Node27&#45;&gt;Node26 -->
<g id="edge43_Node000026_Node000027" class="edge">
<title>Node27&#45;&gt;Node26</title>
<g id="a_edge43_Node000026_Node000027"><a xlink:title=" ">
<path fill="none" stroke="#9a32cd" stroke-dasharray="5,2" d="M777.41,-230.62C804.85,-230.62 839.44,-230.62 870.25,-230.62"/>
<polygon fill="#9a32cd" stroke="#9a32cd" points="777.63,-227.13 767.63,-230.63 777.63,-234.13 777.63,-227.13"/>
</a>
</g>
<text text-anchor="middle" x="826.88" y="-243.62" font-family="Helvetica,sans-Serif" font-size="10.00" fill="grey"> mBlack</text>
<text text-anchor="middle" x="826.88" y="-232.38" font-family="Helvetica,sans-Serif" font-size="10.00" fill="grey">mWhite</text>
</g>
<!-- Node28 -->
<g id="Node000028" class="node">
<title>Node28</title>
<g id="a_Node000028"><a xlink:href="struct__GXColor.html" target="_top" xlink:title=" ">
<polygon fill="white" stroke="#666666" points="460.75,-240.25 408,-240.25 408,-221 460.75,-221 460.75,-240.25"/>
<text text-anchor="middle" x="434.38" y="-226.75" font-family="Helvetica,sans-Serif" font-size="10.00">GXColor</text>
</a>
</g>
</g>
<!-- Node28&#45;&gt;Node27 -->
<g id="edge44_Node000027_Node000028" class="edge">
<title>Node28&#45;&gt;Node27</title>
<g id="a_edge44_Node000027_Node000028"><a xlink:title=" ">
<path fill="none" stroke="#63b8ff" d="M472.4,-230.62C527.44,-230.62 630.36,-230.62 686.42,-230.62"/>
<polygon fill="#63b8ff" stroke="#63b8ff" points="472.61,-227.13 462.61,-230.63 472.61,-234.13 472.61,-227.13"/>
</a>
</g>
</g>
<!-- Node29 -->
<g id="Node000029" class="node">
<title>Node29</title>
<g id="a_Node000029"><a xlink:href="structcXyz.html" target="_top" xlink:title=" ">
<polygon fill="white" stroke="#666666" points="1241.75,-56.25 1204.75,-56.25 1204.75,-37 1241.75,-37 1241.75,-56.25"/>
<text text-anchor="middle" x="1223.25" y="-42.75" font-family="Helvetica,sans-Serif" font-size="10.00">cXyz</text>
</a>
</g>
</g>
<!-- Node29&#45;&gt;Node1 -->
<g id="edge47_Node000001_Node000029" class="edge">
<title>Node29&#45;&gt;Node1</title>
<g id="a_edge47_Node000001_Node000029"><a xlink:title=" ">
<path fill="none" stroke="#9a32cd" stroke-dasharray="5,2" d="M1250.9,-62.55C1301.42,-92.75 1409.81,-157.54 1451.59,-182.52"/>
<polygon fill="#9a32cd" stroke="#9a32cd" points="1252.72,-59.56 1242.34,-57.44 1249.13,-65.57 1252.72,-59.56"/>
</a>
</g>
<text text-anchor="middle" x="1357.62" y="-151.38" font-family="Helvetica,sans-Serif" font-size="10.00" fill="grey"> field_0x25c</text>
</g>
<!-- Node29&#45;&gt;Node29 -->
<g id="edge49_Node000029_Node000029" class="edge">
<title>Node29&#45;&gt;Node29</title>
<g id="a_edge49_Node000029_Node000029"><a xlink:title=" ">
<path fill="none" stroke="#9a32cd" stroke-dasharray="5,2" d="M1198.06,-64.16C1198.32,-69.79 1206.72,-74.25 1223.25,-74.25 1248.45,-74.25 1254.74,-63.89 1242.15,-54.83"/>
<polygon fill="#9a32cd" stroke="#9a32cd" points="1200.82,-66.33 1203.51,-56.08 1195.02,-62.42 1200.82,-66.33"/>
</a>
</g>
<text text-anchor="middle" x="1223.25" y="-154.75" font-family="Helvetica,sans-Serif" font-size="10.00" fill="grey"> BaseX</text>
<text text-anchor="middle" x="1223.25" y="-143.5" font-family="Helvetica,sans-Serif" font-size="10.00" fill="grey">BaseXY</text>
<text text-anchor="middle" x="1223.25" y="-132.25" font-family="Helvetica,sans-Serif" font-size="10.00" fill="grey">BaseXYZ</text>
<text text-anchor="middle" x="1223.25" y="-121" font-family="Helvetica,sans-Serif" font-size="10.00" fill="grey">BaseXZ</text>
<text text-anchor="middle" x="1223.25" y="-109.75" font-family="Helvetica,sans-Serif" font-size="10.00" fill="grey">BaseY</text>
<text text-anchor="middle" x="1223.25" y="-98.5" font-family="Helvetica,sans-Serif" font-size="10.00" fill="grey">BaseYZ</text>
<text text-anchor="middle" x="1223.25" y="-87.25" font-family="Helvetica,sans-Serif" font-size="10.00" fill="grey">BaseZ</text>
<text text-anchor="middle" x="1223.25" y="-76" font-family="Helvetica,sans-Serif" font-size="10.00" fill="grey">Zero</text>
</g>
<!-- Node30 -->
<g id="Node000030" class="node">
<title>Node30</title>
<g id="a_Node000030"><a xlink:href="structVec.html" target="_top" xlink:title=" ">
<polygon fill="white" stroke="#666666" points="965.12,-56.25 931.88,-56.25 931.88,-37 965.12,-37 965.12,-56.25"/>
<text text-anchor="middle" x="948.5" y="-42.75" font-family="Helvetica,sans-Serif" font-size="10.00">Vec</text>
</a>
</g>
</g>
<!-- Node30&#45;&gt;Node29 -->
<g id="edge48_Node000029_Node000030" class="edge">
<title>Node30&#45;&gt;Node29</title>
<g id="a_edge48_Node000029_Node000030"><a xlink:title=" ">
<path fill="none" stroke="#63b8ff" d="M976.69,-46.62C1032.27,-46.62 1157.56,-46.62 1204.26,-46.62"/>
<polygon fill="#63b8ff" stroke="#63b8ff" points="976.86,-43.13 966.86,-46.63 976.86,-50.13 976.86,-43.13"/>
</a>
</g>
</g>
<!-- Node31 -->
<g id="Node000031" class="node">
<title>Node31</title>
<g id="a_Node000031"><a xlink:href="classdMeter__mapIconHIO__c.html" target="_top" xlink:title=" ">
<polygon fill="white" stroke="#666666" points="1281.88,-19.25 1164.62,-19.25 1164.62,0 1281.88,0 1281.88,-19.25"/>
<text text-anchor="middle" x="1223.25" y="-5.75" font-family="Helvetica,sans-Serif" font-size="10.00">dMeter_mapIconHIO_c</text>
</a>
</g>
</g>
<!-- Node31&#45;&gt;Node1 -->
<g id="edge50_Node000001_Node000031" class="edge">
<title>Node31&#45;&gt;Node1</title>
<g id="a_edge50_Node000001_Node000031"><a xlink:title=" ">
<path fill="none" stroke="#9a32cd" stroke-dasharray="5,2" d="M1283.64,-23C1288.04,-24.42 1292.37,-25.96 1296.5,-27.62 1346.05,-47.55 1362.03,-50.6 1400.75,-87.38 1431.48,-116.56 1454.7,-162.35 1464.03,-182.52"/>
<polygon fill="#9a32cd" stroke="#9a32cd" points="1284.68,-19.66 1274.09,-20.14 1282.67,-26.36 1284.68,-19.66"/>
</a>
</g>
<text text-anchor="middle" x="1357.62" y="-89.38" font-family="Helvetica,sans-Serif" font-size="10.00" fill="grey"> mMapIconHIO</text>
</g>
</g>
</svg>

<g id="navigator" transform="translate(0 0)" fill="#404254">
  <rect fill="#f2f5e9" fill-opacity="0.5" stroke="#606060" stroke-width=".5" x="0" y="0" width="60" height="60"/>
  <use id="zoomplus" xlink:href="#zoomPlus" x="17" y="9" onmousedown="handleZoom(evt,'in')"/>
  <use id="zoomminus" xlink:href="#zoomMin" x="42" y="9" onmousedown="handleZoom(evt,'out')"/>
  <use id="reset" xlink:href="#resetDef" x="30" y="36" onmousedown="handleReset()"/>
   <use id="arrowup" xlink:href="#arrowUp" x="0" y="0" onmousedown="handlePan(0,-1)"/>
  <use id="arrowright" xlink:href="#arrowRight" x="0" y="0" onmousedown="handlePan(1,0)"/>
  <use id="arrowdown" xlink:href="#arrowDown" x="0" y="0" onmousedown="handlePan(0,1)"/>
  <use id="arrowleft" xlink:href="#arrowLeft" x="0" y="0" onmousedown="handlePan(-1,0)"/>
</g>
<svg viewBox="0 0 15 15" width="100%" height="30px" preserveAspectRatio="xMaxYMin meet">
 <g id="arrow_out" transform="scale(0.3 0.3)">
  <a xlink:href="classdMeter__fmapHIO__c__coll__graph_org.svg" target="_base">
   <rect id="button" ry="5" rx="5" y="6" x="6" height="38" width="38"
        fill="#f2f5e9" fill-opacity="0.5" stroke="#606060" stroke-width="1.0"/>
   <path id="arrow"
     d="M 11.500037,31.436501 C 11.940474,20.09759 22.043105,11.32322 32.158766,21.979434 L 37.068811,17.246167 C 37.068811,17.246167 37.088388,32 37.088388,32 L 22.160133,31.978069 C 22.160133,31.978069 26.997745,27.140456 26.997745,27.140456 C 18.528582,18.264221 13.291696,25.230495 11.500037,31.436501 z"
     style="fill:#404040;"/>
  </a>
 </g>
</svg>

<style type='text/css'>
<![CDATA[
[data-mouse-over-selected='false'] { opacity: 0.7; }
[data-mouse-over-selected='true']  { opacity: 1.0; }
]]>
</style>
<script type="application/ecmascript"><![CDATA[
document.addEventListener('DOMContentLoaded', (event) => {
  highlightEdges();
  highlightAdjacentNodes();
});
]]></script>
</svg>
