<?xml version="1.0" encoding="UTF-8" standalone="no"?>
<!DOCTYPE svg PUBLIC "-//W3C//DTD SVG 1.1//EN"
 "http://www.w3.org/Graphics/SVG/1.1/DTD/svg11.dtd">
<!-- Generated by graphviz version 9.0.0 (20230911.1827)
 -->
<!-- Title: dRes_control_c Pages: 1 -->
<!--zoomable 719 -->

<svg id="main" version="1.1" xmlns="http://www.w3.org/2000/svg" xmlns:xlink="http://www.w3.org/1999/xlink" xml:space="preserve" onload="init(evt)">
<style type="text/css"><![CDATA[
.node, .edge {opacity: 0.7;}
.node.selected, .edge.selected {opacity: 1;}
.edge:hover path { stroke: red; }
.edge:hover polygon { stroke: red; fill: red; }
]]></style>

<defs>
  <circle id="rim" cx="0" cy="0" r="7"/>
  <circle id="rim2" cx="0" cy="0" r="3.5"/>
  <g id="zoomPlus">
    <use xlink:href="#rim" fill="#404040"><set attributeName="fill" to="#808080" begin="zoomplus.mouseover" end="zoomplus.mouseout"/></use>
    <path d="M-4,0h8M0,-4v8" fill="none" stroke="white" stroke-width="1.5" pointer-events="none"/>
  </g>
  <g id="zoomMin">
    <use xlink:href="#rim" fill="#404040"><set attributeName="fill" to="#808080" begin="zoomminus.mouseover" end="zoomminus.mouseout"/></use>
    <path d="M-4,0h8" fill="none" stroke="white" stroke-width="1.5" pointer-events="none"/>
  </g>
  <g id="arrowUp" transform="translate(30 24)">
    <use xlink:href="#rim"/>
    <path pointer-events="none" fill="none" stroke="white" stroke-width="1.5" d="M0,-3.0v7 M-2.5,-0.5L0,-3.0L2.5,-0.5"/>
  </g>
  <g id="arrowRight" transform="rotate(90) translate(36 -43)">
    <use xlink:href="#rim"/>
    <path pointer-events="none" fill="none" stroke="white" stroke-width="1.5" d="M0,-3.0v7 M-2.5,-0.5L0,-3.0L2.5,-0.5"/>
  </g>
  <g id="arrowDown" transform="rotate(180) translate(-30 -48)">
    <use xlink:href="#rim"/>
    <path pointer-events="none" fill="none" stroke="white" stroke-width="1.5" d="M0,-3.0v7 M-2.5,-0.5L0,-3.0L2.5,-0.5"/>
  </g>
  <g id="arrowLeft" transform="rotate(270) translate(-36 17)">
    <use xlink:href="#rim"/>
    <path pointer-events="none" fill="none" stroke="white" stroke-width="1.5" d="M0,-3.0v7 M-2.5,-0.5L0,-3.0L2.5,-0.5"/>
  </g>
  <g id="resetDef">
    <use xlink:href="#rim2" fill="#404040"><set attributeName="fill" to="#808080" begin="reset.mouseover" end="reset.mouseout"/></use>
  </g>
</defs>
<script type="application/ecmascript">
var viewWidth = 1352;
var viewHeight = 719;
var sectionId = 'dynsection-0';
</script>
<script type="application/ecmascript" xlink:href="svg.min.js"/>
<svg id="graph" class="graph">
<g id="viewport">
<title>dRes_control_c</title>
<!-- Node1 -->
<g id="Node000001" class="node">
<title>Node1</title>
<g id="a_Node000001"><a xlink:title=" ">
<polygon fill="#999999" stroke="#666666" points="728,-19.25 644.5,-19.25 644.5,0 728,0 728,-19.25"/>
<text text-anchor="middle" x="686.25" y="-5.75" font-family="Helvetica,sans-Serif" font-size="10.00">dRes_control_c</text>
</a>
</g>
</g>
<!-- Node2 -->
<g id="Node000002" class="node">
<title>Node2</title>
<g id="a_Node000002"><a xlink:href="classdRes__info__c.html" target="_top" xlink:title=" ">
<polygon fill="white" stroke="#666666" points="721.25,-97 651.25,-97 651.25,-77.75 721.25,-77.75 721.25,-97"/>
<text text-anchor="middle" x="686.25" y="-83.5" font-family="Helvetica,sans-Serif" font-size="10.00">dRes_info_c</text>
</a>
</g>
</g>
<!-- Node2&#45;&gt;Node1 -->
<g id="edge1_Node000001_Node000002" class="edge">
<title>Node2&#45;&gt;Node1</title>
<g id="a_edge1_Node000001_Node000002"><a xlink:title=" ">
<path fill="none" stroke="#9a32cd" stroke-dasharray="5,2" d="M686.25,-66.1C686.25,-50.95 686.25,-30.98 686.25,-19.6"/>
<polygon fill="#9a32cd" stroke="#9a32cd" points="682.75,-65.87 686.25,-75.87 689.75,-65.87 682.75,-65.87"/>
</a>
</g>
<text text-anchor="middle" x="714" y="-50.25" font-family="Helvetica,sans-Serif" font-size="10.00" fill="grey"> mObjectInfo</text>
<text text-anchor="middle" x="714" y="-39" font-family="Helvetica,sans-Serif" font-size="10.00" fill="grey">mStageInfo</text>
</g>
<!-- Node3 -->
<g id="Node000003" class="node">
<title>Node3</title>
<g id="a_Node000003"><a xlink:href="structmDoDvdThd__mountArchive__c.html" target="_top" xlink:title=" ">
<polygon fill="white" stroke="#666666" points="610.12,-163.5 464.38,-163.5 464.38,-144.25 610.12,-144.25 610.12,-163.5"/>
<text text-anchor="middle" x="537.25" y="-150" font-family="Helvetica,sans-Serif" font-size="10.00">mDoDvdThd_mountArchive_c</text>
</a>
</g>
</g>
<!-- Node3&#45;&gt;Node2 -->
<g id="edge2_Node000002_Node000003" class="edge">
<title>Node3&#45;&gt;Node2</title>
<g id="a_edge2_Node000002_Node000003"><a xlink:title=" ">
<path fill="none" stroke="#9a32cd" stroke-dasharray="5,2" d="M568.71,-139.26C597.79,-126.67 640.19,-108.31 665.32,-97.43"/>
<polygon fill="#9a32cd" stroke="#9a32cd" points="567.46,-135.98 559.67,-143.17 570.24,-142.41 567.46,-135.98"/>
</a>
</g>
<text text-anchor="middle" x="655.12" y="-116.75" font-family="Helvetica,sans-Serif" font-size="10.00" fill="grey"> mDMCommand</text>
</g>
<!-- Node4 -->
<g id="Node000004" class="node">
<title>Node4</title>
<g id="a_Node000004"><a xlink:href="classmDoDvdThd__command__c.html" target="_top" xlink:title=" ">
<polygon fill="white" stroke="#666666" points="668.5,-230 540,-230 540,-210.75 668.5,-210.75 668.5,-230"/>
<text text-anchor="middle" x="604.25" y="-216.5" font-family="Helvetica,sans-Serif" font-size="10.00">mDoDvdThd_command_c</text>
</a>
</g>
</g>
<!-- Node4&#45;&gt;Node3 -->
<g id="edge3_Node000003_Node000004" class="edge">
<title>Node4&#45;&gt;Node3</title>
<g id="a_edge3_Node000003_Node000004"><a xlink:title=" ">
<path fill="none" stroke="#63b8ff" d="M586.8,-202.58C573.91,-190.16 556.85,-173.75 546.49,-163.77"/>
<polygon fill="#63b8ff" stroke="#63b8ff" points="584.21,-204.94 593.84,-209.36 589.07,-199.9 584.21,-204.94"/>
</a>
</g>
</g>
<!-- Node5 -->
<g id="Node000005" class="node">
<title>Node5</title>
<g id="a_Node000005"><a xlink:href="structnode__class.html" target="_top" xlink:title=" ">
<polygon fill="white" stroke="#666666" points="606,-309.38 540.5,-309.38 540.5,-290.12 606,-290.12 606,-309.38"/>
<text text-anchor="middle" x="573.25" y="-295.88" font-family="Helvetica,sans-Serif" font-size="10.00">node_class</text>
</a>
</g>
</g>
<!-- Node5&#45;&gt;Node4 -->
<g id="edge4_Node000004_Node000005" class="edge">
<title>Node5&#45;&gt;Node4</title>
<g id="a_edge4_Node000004_Node000005"><a xlink:title=" ">
<path fill="none" stroke="#63b8ff" d="M580.91,-279.63C587.24,-263.83 595.95,-242.1 600.74,-230.15"/>
<polygon fill="#63b8ff" stroke="#63b8ff" points="577.84,-277.88 577.37,-288.47 584.34,-280.49 577.84,-277.88"/>
</a>
</g>
</g>
<!-- Node5&#45;&gt;Node5 -->
<g id="edge5_Node000005_Node000005" class="edge">
<title>Node5&#45;&gt;Node5</title>
<g id="a_edge5_Node000005_Node000005"><a xlink:title=" ">
<path fill="none" stroke="#9a32cd" stroke-dasharray="5,2" d="M617.68,-304.88C621.57,-303.8 624,-302.09 624,-299.75 624,-295.59 616.32,-293.42 606.44,-293.23"/>
<polygon fill="#9a32cd" stroke="#9a32cd" points="617.44,-301.39 607.94,-306.09 618.3,-308.33 617.44,-301.39"/>
</a>
</g>
<text text-anchor="middle" x="653.62" y="-301.5" font-family="Helvetica,sans-Serif" font-size="10.00" fill="grey"> mpNextNode</text>
<text text-anchor="middle" x="653.62" y="-290.25" font-family="Helvetica,sans-Serif" font-size="10.00" fill="grey">mpPrevNode</text>
</g>
<!-- Node6 -->
<g id="Node000006" class="node">
<title>Node6</title>
<g id="a_Node000006"><a xlink:href="classJKRMemArchive.html" target="_top" xlink:title=" ">
<polygon fill="white" stroke="#666666" points="477,-230 387.5,-230 387.5,-210.75 477,-210.75 477,-230"/>
<text text-anchor="middle" x="432.25" y="-216.5" font-family="Helvetica,sans-Serif" font-size="10.00">JKRMemArchive</text>
</a>
</g>
</g>
<!-- Node6&#45;&gt;Node3 -->
<g id="edge6_Node000003_Node000006" class="edge">
<title>Node6&#45;&gt;Node3</title>
<g id="a_edge6_Node000003_Node000006"><a xlink:title=" ">
<path fill="none" stroke="#9a32cd" stroke-dasharray="5,2" d="M440.34,-199.88C443.92,-193.26 448.7,-186.33 454.75,-181.5 464.75,-173.52 477.2,-167.91 489.38,-163.96"/>
<polygon fill="#9a32cd" stroke="#9a32cd" points="437.18,-198.38 436.11,-208.92 443.52,-201.35 437.18,-198.38"/>
</a>
</g>
<text text-anchor="middle" x="476" y="-183.25" font-family="Helvetica,sans-Serif" font-size="10.00" fill="grey"> mArchive</text>
</g>
<!-- Node7 -->
<g id="Node000007" class="node">
<title>Node7</title>
<g id="a_Node000007"><a xlink:href="classJKRArchive.html" target="_top" xlink:title=" ">
<polygon fill="white" stroke="#666666" points="379.12,-309.38 311.38,-309.38 311.38,-290.12 379.12,-290.12 379.12,-309.38"/>
<text text-anchor="middle" x="345.25" y="-295.88" font-family="Helvetica,sans-Serif" font-size="10.00">JKRArchive</text>
</a>
</g>
</g>
<!-- Node7&#45;&gt;Node2 -->
<g id="edge49_Node000002_Node000007" class="edge">
<title>Node7&#45;&gt;Node2</title>
<g id="a_edge49_Node000002_Node000007"><a xlink:title=" ">
<path fill="none" stroke="#9a32cd" stroke-dasharray="5,2" d="M349.35,-278.65C355.52,-253.04 369.49,-208.84 396.75,-181.5 467.02,-111.02 590.76,-93.84 651.14,-89.68"/>
<polygon fill="#9a32cd" stroke="#9a32cd" points="345.93,-277.87 347.19,-288.39 352.77,-279.38 345.93,-277.87"/>
</a>
</g>
<text text-anchor="middle" x="419" y="-183.25" font-family="Helvetica,sans-Serif" font-size="10.00" fill="grey"> mArchive</text>
</g>
<!-- Node7&#45;&gt;Node6 -->
<g id="edge7_Node000006_Node000007" class="edge">
<title>Node7&#45;&gt;Node6</title>
<g id="a_edge7_Node000006_Node000007"><a xlink:title=" ">
<path fill="none" stroke="#63b8ff" d="M363.66,-282.38C381.47,-266.53 407.82,-243.1 422.12,-230.39"/>
<polygon fill="#63b8ff" stroke="#63b8ff" points="361.51,-279.61 356.36,-288.87 366.16,-284.84 361.51,-279.61"/>
</a>
</g>
</g>
<!-- Node8 -->
<g id="Node000008" class="node">
<title>Node8</title>
<g id="a_Node000008"><a xlink:href="classJKRFileLoader.html" target="_top" xlink:title=" ">
<polygon fill="white" stroke="#666666" points="80.5,-390.38 0,-390.38 0,-371.12 80.5,-371.12 80.5,-390.38"/>
<text text-anchor="middle" x="40.25" y="-376.88" font-family="Helvetica,sans-Serif" font-size="10.00">JKRFileLoader</text>
</a>
</g>
</g>
<!-- Node8&#45;&gt;Node7 -->
<g id="edge8_Node000007_Node000008" class="edge">
<title>Node8&#45;&gt;Node7</title>
<g id="a_edge8_Node000007_Node000008"><a xlink:title=" ">
<path fill="none" stroke="#63b8ff" d="M86.2,-367.85C147.91,-351.86 256.16,-323.83 311.14,-309.59"/>
<polygon fill="#63b8ff" stroke="#63b8ff" points="85.51,-364.41 76.7,-370.31 87.26,-371.19 85.51,-364.41"/>
</a>
</g>
</g>
<!-- Node8&#45;&gt;Node8 -->
<g id="edge40_Node000008_Node000008" class="edge">
<title>Node8&#45;&gt;Node8</title>
<g id="a_edge40_Node000008_Node000008"><a xlink:title=" ">
<path fill="none" stroke="#9a32cd" stroke-dasharray="5,2" d="M91.88,-387.33C95.97,-385.88 98.5,-383.69 98.5,-380.75 98.5,-375.66 90.93,-372.82 80.81,-372.22"/>
<polygon fill="#9a32cd" stroke="#9a32cd" points="91.54,-383.83 82.3,-389.02 92.76,-390.72 91.54,-383.83"/>
</a>
</g>
<text text-anchor="middle" x="134.5" y="-376.88" font-family="Helvetica,sans-Serif" font-size="10.00" fill="grey"> sCurrentVolume</text>
</g>
<!-- Node9 -->
<g id="Node000009" class="node">
<title>Node9</title>
<g id="a_Node000009"><a xlink:href="classJKRDisposer.html" target="_top" xlink:title=" ">
<polygon fill="white" stroke="#666666" points="392.75,-481 319.75,-481 319.75,-461.75 392.75,-461.75 392.75,-481"/>
<text text-anchor="middle" x="356.25" y="-467.5" font-family="Helvetica,sans-Serif" font-size="10.00">JKRDisposer</text>
</a>
</g>
</g>
<!-- Node9&#45;&gt;Node8 -->
<g id="edge9_Node000008_Node000009" class="edge">
<title>Node9&#45;&gt;Node8</title>
<g id="a_edge9_Node000008_Node000009"><a xlink:title=" ">
<path fill="none" stroke="#63b8ff" d="M312.98,-458.24C248.87,-440.26 130.04,-406.93 72.77,-390.87"/>
<polygon fill="#63b8ff" stroke="#63b8ff" points="311.89,-461.57 322.46,-460.9 313.78,-454.83 311.89,-461.57"/>
</a>
</g>
</g>
<!-- Node10 -->
<g id="Node000010" class="node">
<title>Node10</title>
<g id="a_Node000010"><a xlink:href="structJKRHeap.html" target="_top" xlink:title=" ">
<polygon fill="white" stroke="#666666" points="624.25,-390.38 566.25,-390.38 566.25,-371.12 624.25,-371.12 624.25,-390.38"/>
<text text-anchor="middle" x="595.25" y="-376.88" font-family="Helvetica,sans-Serif" font-size="10.00">JKRHeap</text>
</a>
</g>
</g>
<!-- Node9&#45;&gt;Node10 -->
<g id="edge11_Node000010_Node000009" class="edge">
<title>Node9&#45;&gt;Node10</title>
<g id="a_edge11_Node000010_Node000009"><a xlink:title=" ">
<path fill="none" stroke="#63b8ff" d="M371.06,-452.84C381.41,-441.85 396.21,-428.45 412.25,-421.25 471.5,-394.66 495.59,-423.63 557.25,-403.25 566.03,-400.35 575.07,-395.33 582.13,-390.87"/>
<polygon fill="#63b8ff" stroke="#63b8ff" points="368.55,-450.4 364.5,-460.19 373.77,-455.07 368.55,-450.4"/>
</a>
</g>
</g>
<!-- Node10&#45;&gt;Node2 -->
<g id="edge50_Node000002_Node000010" class="edge">
<title>Node10&#45;&gt;Node2</title>
<g id="a_edge50_Node000002_Node000010"><a xlink:title=" ">
<path fill="none" stroke="#9a32cd" stroke-dasharray="5,2" d="M635.48,-370.1C668.98,-359.38 711.25,-338.4 711.25,-300.75 711.25,-300.75 711.25,-300.75 711.25,-152.88 711.25,-131.74 699.43,-109.18 692.05,-97.14"/>
<polygon fill="#9a32cd" stroke="#9a32cd" points="634.56,-366.72 625.97,-372.92 636.56,-373.43 634.56,-366.72"/>
</a>
</g>
<text text-anchor="middle" x="722.88" y="-216.5" font-family="Helvetica,sans-Serif" font-size="10.00" fill="grey"> heap</text>
</g>
<!-- Node10&#45;&gt;Node3 -->
<g id="edge48_Node000003_Node000010" class="edge">
<title>Node10&#45;&gt;Node3</title>
<g id="a_edge48_Node000003_Node000010"><a xlink:title=" ">
<path fill="none" stroke="#9a32cd" stroke-dasharray="5,2" d="M573.4,-363.71C558.39,-351.24 539.7,-332.49 531.25,-311 510.59,-258.5 527.47,-188.24 534.52,-163.75"/>
<polygon fill="#9a32cd" stroke="#9a32cd" points="570.94,-366.23 580.96,-369.69 575.29,-360.74 570.94,-366.23"/>
</a>
</g>
<text text-anchor="middle" x="538.12" y="-255.38" font-family="Helvetica,sans-Serif" font-size="10.00" fill="grey"> mHeap</text>
</g>
<!-- Node10&#45;&gt;Node7 -->
<g id="edge43_Node000007_Node000010" class="edge">
<title>Node10&#45;&gt;Node7</title>
<g id="a_edge43_Node000007_Node000010"><a xlink:title=" ">
<path fill="none" stroke="#9a32cd" stroke-dasharray="5,2" d="M571.98,-365.03C567.23,-362.48 562.18,-360.07 557.25,-358.25 517.85,-343.72 504.34,-353.51 464.5,-340.25 453.61,-336.63 451.96,-333.13 441.25,-329 421.15,-321.24 398,-314.37 379.47,-309.35"/>
<polygon fill="#9a32cd" stroke="#9a32cd" points="569.98,-367.92 580.39,-369.9 573.49,-361.86 569.98,-367.92"/>
</a>
</g>
<text text-anchor="middle" x="481.12" y="-330.75" font-family="Helvetica,sans-Serif" font-size="10.00" fill="grey"> mHeap</text>
</g>
<!-- Node10&#45;&gt;Node9 -->
<g id="edge10_Node000009_Node000010" class="edge">
<title>Node10&#45;&gt;Node9</title>
<g id="a_edge10_Node000009_Node000010"><a xlink:title=" ">
<path fill="none" stroke="#9a32cd" stroke-dasharray="5,2" d="M571.94,-396.37C567.2,-398.93 562.16,-401.37 557.25,-403.25 522.51,-416.56 511,-410.12 475.5,-421.25 439.18,-432.64 398.51,-450.56 375.28,-461.32"/>
<polygon fill="#9a32cd" stroke="#9a32cd" points="573.44,-399.54 580.35,-391.51 569.94,-393.48 573.44,-399.54"/>
</a>
</g>
<text text-anchor="middle" x="492.12" y="-428.62" font-family="Helvetica,sans-Serif" font-size="10.00" fill="grey"> mHeap</text>
</g>
<!-- Node10&#45;&gt;Node10 -->
<g id="edge35_Node000010_Node000010" class="edge">
<title>Node10&#45;&gt;Node10</title>
<g id="a_edge35_Node000010_Node000010"><a xlink:title=" ">
<path fill="none" stroke="#9a32cd" stroke-dasharray="5,2" d="M635.86,-387.74C639.77,-386.32 642.25,-383.99 642.25,-380.75 642.25,-374.98 634.42,-372.1 624.62,-372.1"/>
<polygon fill="#9a32cd" stroke="#9a32cd" points="635.51,-384.26 626.12,-389.18 636.53,-391.18 635.51,-384.26"/>
</a>
</g>
<text text-anchor="middle" x="673.38" y="-393.75" font-family="Helvetica,sans-Serif" font-size="10.00" fill="grey"> sCurrentHeap</text>
<text text-anchor="middle" x="673.38" y="-382.5" font-family="Helvetica,sans-Serif" font-size="10.00" fill="grey">sRootHeap</text>
<text text-anchor="middle" x="673.38" y="-371.25" font-family="Helvetica,sans-Serif" font-size="10.00" fill="grey">sRootHeap2</text>
<text text-anchor="middle" x="673.38" y="-360" font-family="Helvetica,sans-Serif" font-size="10.00" fill="grey">sSystemHeap</text>
</g>
<!-- Node31 -->
<g id="Node000031" class="node">
<title>Node31</title>
<g id="a_Node000031"><a xlink:href="classJKRSolidHeap.html" target="_top" xlink:title=" ">
<polygon fill="white" stroke="#666666" points="819.12,-309.38 739.38,-309.38 739.38,-290.12 819.12,-290.12 819.12,-309.38"/>
<text text-anchor="middle" x="779.25" y="-295.88" font-family="Helvetica,sans-Serif" font-size="10.00">JKRSolidHeap</text>
</a>
</g>
</g>
<!-- Node10&#45;&gt;Node31 -->
<g id="edge52_Node000031_Node000010" class="edge">
<title>Node10&#45;&gt;Node31</title>
<g id="a_edge52_Node000031_Node000010"><a xlink:title=" ">
<path fill="none" stroke="#63b8ff" d="M635.82,-371.16C662.16,-364.69 696.76,-354.48 725.25,-340.25 741.88,-331.95 758.81,-318.59 769.18,-309.74"/>
<polygon fill="#63b8ff" stroke="#63b8ff" points="635.11,-367.73 626.19,-373.44 636.73,-374.54 635.11,-367.73"/>
</a>
</g>
</g>
<!-- Node11 -->
<g id="Node000011" class="node">
<title>Node11</title>
<g id="a_Node000011"><a xlink:href="structOSMutex.html" target="_top" xlink:title=" ">
<polygon fill="white" stroke="#666666" points="1184.5,-481 1128,-481 1128,-461.75 1184.5,-461.75 1184.5,-481"/>
<text text-anchor="middle" x="1156.25" y="-467.5" font-family="Helvetica,sans-Serif" font-size="10.00">OSMutex</text>
</a>
</g>
</g>
<!-- Node11&#45;&gt;Node10 -->
<g id="edge12_Node000010_Node000011" class="edge">
<title>Node11&#45;&gt;Node10</title>
<g id="a_edge12_Node000010_Node000011"><a xlink:title=" ">
<path fill="none" stroke="#9a32cd" stroke-dasharray="5,2" d="M1116.44,-468.18C1061.69,-464.8 960.18,-457.26 874.5,-443.75 782.28,-429.21 674.9,-402.59 624.37,-389.47"/>
<polygon fill="#9a32cd" stroke="#9a32cd" points="1116.01,-471.66 1126.2,-468.76 1116.43,-464.67 1116.01,-471.66"/>
</a>
</g>
<text text-anchor="middle" x="892.62" y="-428.62" font-family="Helvetica,sans-Serif" font-size="10.00" fill="grey"> mMutex</text>
</g>
<!-- Node13 -->
<g id="Node000013" class="node">
<title>Node13</title>
<g id="a_Node000013"><a xlink:href="structOSThread.html" target="_top" xlink:title=" ">
<polygon fill="white" stroke="#666666" points="1102.38,-309.38 1042.12,-309.38 1042.12,-290.12 1102.38,-290.12 1102.38,-309.38"/>
<text text-anchor="middle" x="1072.25" y="-295.88" font-family="Helvetica,sans-Serif" font-size="10.00">OSThread</text>
</a>
</g>
</g>
<!-- Node11&#45;&gt;Node13 -->
<g id="edge19_Node000013_Node000011" class="edge">
<title>Node11&#45;&gt;Node13</title>
<g id="a_edge19_Node000013_Node000011"><a xlink:title=" ">
<path fill="none" stroke="#9a32cd" stroke-dasharray="5,2" d="M1160.23,-450.34C1164.93,-420.68 1169.03,-364.75 1142.25,-329 1132.82,-316.41 1116.85,-309.42 1102.54,-305.54"/>
<polygon fill="#9a32cd" stroke="#9a32cd" points="1156.85,-449.36 1158.54,-459.82 1163.74,-450.59 1156.85,-449.36"/>
</a>
</g>
<text text-anchor="middle" x="1177.5" y="-376.88" font-family="Helvetica,sans-Serif" font-size="10.00" fill="grey"> mutex</text>
</g>
<!-- Node16 -->
<g id="Node000016" class="node">
<title>Node16</title>
<g id="a_Node000016"><a xlink:href="structOSMutexQueue.html" target="_top" xlink:title=" ">
<polygon fill="white" stroke="#666666" points="1119.75,-390.38 1034.75,-390.38 1034.75,-371.12 1119.75,-371.12 1119.75,-390.38"/>
<text text-anchor="middle" x="1077.25" y="-376.88" font-family="Helvetica,sans-Serif" font-size="10.00">OSMutexQueue</text>
</a>
</g>
</g>
<!-- Node11&#45;&gt;Node16 -->
<g id="edge21_Node000016_Node000011" class="edge">
<title>Node11&#45;&gt;Node16</title>
<g id="a_edge21_Node000016_Node000011"><a xlink:title=" ">
<path fill="none" stroke="#9a32cd" stroke-dasharray="5,2" d="M1131.99,-454.96C1127.43,-451.54 1122.88,-447.74 1119,-443.75 1102.72,-427 1088.69,-403.16 1081.8,-390.47"/>
<polygon fill="#9a32cd" stroke="#9a32cd" points="1129.71,-457.64 1139.91,-460.5 1133.72,-451.9 1129.71,-457.64"/>
</a>
</g>
<text text-anchor="middle" x="1129.88" y="-434.25" font-family="Helvetica,sans-Serif" font-size="10.00" fill="grey"> head</text>
<text text-anchor="middle" x="1129.88" y="-423" font-family="Helvetica,sans-Serif" font-size="10.00" fill="grey">tail</text>
</g>
<!-- Node17 -->
<g id="Node000017" class="node">
<title>Node17</title>
<g id="a_Node000017"><a xlink:href="structOSMutexLink.html" target="_top" xlink:title=" ">
<polygon fill="white" stroke="#666666" points="1343.88,-390.38 1268.62,-390.38 1268.62,-371.12 1343.88,-371.12 1343.88,-390.38"/>
<text text-anchor="middle" x="1306.25" y="-376.88" font-family="Helvetica,sans-Serif" font-size="10.00">OSMutexLink</text>
</a>
</g>
</g>
<!-- Node11&#45;&gt;Node17 -->
<g id="edge24_Node000017_Node000011" class="edge">
<title>Node11&#45;&gt;Node17</title>
<g id="a_edge24_Node000017_Node000011"><a xlink:title=" ">
<path fill="none" stroke="#9a32cd" stroke-dasharray="5,2" d="M1195.5,-461.18C1208.75,-457.06 1223.21,-451.36 1235.25,-443.75 1247.01,-436.32 1246.72,-430.62 1257,-421.25 1269.15,-410.17 1283.97,-398.52 1294.16,-390.76"/>
<polygon fill="#9a32cd" stroke="#9a32cd" points="1194.84,-457.73 1186.2,-463.87 1196.78,-464.46 1194.84,-457.73"/>
</a>
</g>
<text text-anchor="middle" x="1266.38" y="-434.25" font-family="Helvetica,sans-Serif" font-size="10.00" fill="grey"> next</text>
<text text-anchor="middle" x="1266.38" y="-423" font-family="Helvetica,sans-Serif" font-size="10.00" fill="grey">prev</text>
</g>
<!-- Node12 -->
<g id="Node000012" class="node">
<title>Node12</title>
<g id="a_Node000012"><a xlink:href="structOSThreadQueue.html" target="_top" xlink:title=" ">
<polygon fill="white" stroke="#666666" points="1002.62,-230 913.88,-230 913.88,-210.75 1002.62,-210.75 1002.62,-230"/>
<text text-anchor="middle" x="958.25" y="-216.5" font-family="Helvetica,sans-Serif" font-size="10.00">OSThreadQueue</text>
</a>
</g>
</g>
<!-- Node12&#45;&gt;Node11 -->
<g id="edge13_Node000011_Node000012" class="edge">
<title>Node12&#45;&gt;Node11</title>
<g id="a_edge13_Node000011_Node000012"><a xlink:title=" ">
<path fill="none" stroke="#9a32cd" stroke-dasharray="5,2" d="M949.18,-240.95C933.99,-276.93 908.44,-354.35 944.25,-403.25 986.9,-461.5 1080.36,-470.47 1127.64,-471.07"/>
<polygon fill="#9a32cd" stroke="#9a32cd" points="952.37,-242.38 953.21,-231.82 945.97,-239.55 952.37,-242.38"/>
</a>
</g>
<text text-anchor="middle" x="940.5" y="-330.75" font-family="Helvetica,sans-Serif" font-size="10.00" fill="grey"> queue</text>
</g>
<!-- Node12&#45;&gt;Node13 -->
<g id="edge16_Node000013_Node000012" class="edge">
<title>Node12&#45;&gt;Node13</title>
<g id="a_edge16_Node000013_Node000012"><a xlink:title=" ">
<path fill="none" stroke="#9a32cd" stroke-dasharray="5,2" d="M975.58,-238.23C986.49,-248.33 1001.17,-261 1015.5,-270.5 1026.69,-277.92 1040.1,-284.68 1051.08,-289.73"/>
<polygon fill="#9a32cd" stroke="#9a32cd" points="978.16,-235.86 968.49,-231.53 973.35,-240.94 978.16,-235.86"/>
</a>
</g>
<text text-anchor="middle" x="1039.62" y="-261" font-family="Helvetica,sans-Serif" font-size="10.00" fill="grey"> join_queue</text>
<text text-anchor="middle" x="1039.62" y="-249.75" font-family="Helvetica,sans-Serif" font-size="10.00" fill="grey">queue</text>
</g>
<!-- Node13&#45;&gt;Node11 -->
<g id="edge22_Node000011_Node000013" class="edge">
<title>Node13&#45;&gt;Node11</title>
<g id="a_edge22_Node000011_Node000013"><a xlink:title=" ">
<path fill="none" stroke="#9a32cd" stroke-dasharray="5,2" d="M1113.8,-306.4C1143.71,-313.04 1181.3,-327.38 1196.25,-358.25 1214.08,-395.08 1180.4,-442.01 1164.23,-461.39"/>
<polygon fill="#9a32cd" stroke="#9a32cd" points="1114.75,-303.02 1104.26,-304.51 1113.39,-309.89 1114.75,-303.02"/>
</a>
</g>
<text text-anchor="middle" x="1215.88" y="-376.88" font-family="Helvetica,sans-Serif" font-size="10.00" fill="grey"> thread</text>
</g>
<!-- Node13&#45;&gt;Node12 -->
<g id="edge14_Node000012_Node000013" class="edge">
<title>Node13&#45;&gt;Node12</title>
<g id="a_edge14_Node000012_Node000013"><a xlink:title=" ">
<path fill="none" stroke="#9a32cd" stroke-dasharray="5,2" d="M1030.43,-293.67C1001.99,-289.27 967.97,-281.8 959,-270.5 949.99,-259.14 952.61,-241.21 955.4,-230.44"/>
<polygon fill="#9a32cd" stroke="#9a32cd" points="1029.89,-297.13 1040.28,-295.1 1030.89,-290.2 1029.89,-297.13"/>
</a>
</g>
<text text-anchor="middle" x="969.88" y="-261" font-family="Helvetica,sans-Serif" font-size="10.00" fill="grey"> head</text>
<text text-anchor="middle" x="969.88" y="-249.75" font-family="Helvetica,sans-Serif" font-size="10.00" fill="grey">tail</text>
</g>
<!-- Node15 -->
<g id="Node000015" class="node">
<title>Node15</title>
<g id="a_Node000015"><a xlink:href="structOSThreadLink.html" target="_top" xlink:title=" ">
<polygon fill="white" stroke="#666666" points="1136.75,-230 1057.75,-230 1057.75,-210.75 1136.75,-210.75 1136.75,-230"/>
<text text-anchor="middle" x="1097.25" y="-216.5" font-family="Helvetica,sans-Serif" font-size="10.00">OSThreadLink</text>
</a>
</g>
</g>
<!-- Node13&#45;&gt;Node15 -->
<g id="edge18_Node000015_Node000013" class="edge">
<title>Node13&#45;&gt;Node15</title>
<g id="a_edge18_Node000015_Node000013"><a xlink:title=" ">
<path fill="none" stroke="#9a32cd" stroke-dasharray="5,2" d="M1069.32,-278.54C1068.73,-268.97 1069.21,-257.57 1073,-248 1075.71,-241.14 1081.08,-234.95 1086.07,-230.26"/>
<polygon fill="#9a32cd" stroke="#9a32cd" points="1065.81,-278.69 1070.36,-288.26 1072.77,-277.94 1065.81,-278.69"/>
</a>
</g>
<text text-anchor="middle" x="1082.38" y="-261" font-family="Helvetica,sans-Serif" font-size="10.00" fill="grey"> next</text>
<text text-anchor="middle" x="1082.38" y="-249.75" font-family="Helvetica,sans-Serif" font-size="10.00" fill="grey">prev</text>
</g>
<!-- Node14 -->
<g id="Node000014" class="node">
<title>Node14</title>
<g id="a_Node000014"><a xlink:href="structOSContext.html" target="_top" xlink:title=" ">
<polygon fill="white" stroke="#666666" points="1016.88,-390.38 953.62,-390.38 953.62,-371.12 1016.88,-371.12 1016.88,-390.38"/>
<text text-anchor="middle" x="985.25" y="-376.88" font-family="Helvetica,sans-Serif" font-size="10.00">OSContext</text>
</a>
</g>
</g>
<!-- Node14&#45;&gt;Node13 -->
<g id="edge15_Node000013_Node000014" class="edge">
<title>Node14&#45;&gt;Node13</title>
<g id="a_edge15_Node000013_Node000014"><a xlink:title=" ">
<path fill="none" stroke="#9a32cd" stroke-dasharray="5,2" d="M999.18,-362.03C1007.67,-351.8 1019.05,-339.01 1030.5,-329 1038.67,-321.85 1048.72,-315 1056.91,-309.84"/>
<polygon fill="#9a32cd" stroke="#9a32cd" points="996.54,-359.73 992.98,-369.71 1001.98,-364.13 996.54,-359.73"/>
</a>
</g>
<text text-anchor="middle" x="1047.12" y="-330.75" font-family="Helvetica,sans-Serif" font-size="10.00" fill="grey"> context</text>
</g>
<!-- Node15&#45;&gt;Node13 -->
<g id="edge17_Node000013_Node000015" class="edge">
<title>Node15&#45;&gt;Node13</title>
<g id="a_edge17_Node000013_Node000015"><a xlink:title=" ">
<path fill="none" stroke="#9a32cd" stroke-dasharray="5,2" d="M1100.45,-241.84C1101.06,-250.89 1100.66,-261.5 1097.25,-270.5 1094.42,-277.97 1088.61,-284.74 1083.3,-289.77"/>
<polygon fill="#9a32cd" stroke="#9a32cd" points="1103.93,-241.44 1099.29,-231.92 1096.97,-242.25 1103.93,-241.44"/>
</a>
</g>
<text text-anchor="middle" x="1143.38" y="-261" font-family="Helvetica,sans-Serif" font-size="10.00" fill="grey"> active_threads_link</text>
<text text-anchor="middle" x="1143.38" y="-249.75" font-family="Helvetica,sans-Serif" font-size="10.00" fill="grey">link</text>
</g>
<!-- Node16&#45;&gt;Node13 -->
<g id="edge20_Node000013_Node000016" class="edge">
<title>Node16&#45;&gt;Node13</title>
<g id="a_edge20_Node000013_Node000016"><a xlink:title=" ">
<path fill="none" stroke="#9a32cd" stroke-dasharray="5,2" d="M1072.57,-359.89C1071.31,-353.64 1070.13,-346.69 1069.5,-340.25 1069.02,-335.27 1069.26,-333.99 1069.5,-329 1069.82,-322.5 1070.54,-315.2 1071.16,-309.64"/>
<polygon fill="#9a32cd" stroke="#9a32cd" points="1069.07,-360.23 1074.64,-369.25 1075.9,-358.73 1069.07,-360.23"/>
</a>
</g>
<text text-anchor="middle" x="1105.62" y="-330.75" font-family="Helvetica,sans-Serif" font-size="10.00" fill="grey"> owned_mutexes</text>
</g>
<!-- Node17&#45;&gt;Node11 -->
<g id="edge23_Node000011_Node000017" class="edge">
<title>Node17&#45;&gt;Node11</title>
<g id="a_edge23_Node000011_Node000017"><a xlink:title=" ">
<path fill="none" stroke="#9a32cd" stroke-dasharray="5,2" d="M1303.22,-401.71C1300.08,-415.52 1293.77,-433.23 1281.25,-443.75 1266.89,-455.81 1217.02,-463.55 1184.77,-467.42"/>
<polygon fill="#9a32cd" stroke="#9a32cd" points="1306.66,-402.4 1305.03,-391.93 1299.77,-401.13 1306.66,-402.4"/>
</a>
</g>
<text text-anchor="middle" x="1304.88" y="-428.62" font-family="Helvetica,sans-Serif" font-size="10.00" fill="grey"> link</text>
</g>
<!-- Node18 -->
<g id="Node000018" class="node">
<title>Node18</title>
<g id="a_Node000018"><a xlink:href="classJSUTree.html" target="_top" xlink:title=" ">
<polygon fill="white" stroke="#666666" points="559,-481 445.5,-481 445.5,-461.75 559,-461.75 559,-481"/>
<text text-anchor="middle" x="502.25" y="-467.5" font-family="Helvetica,sans-Serif" font-size="10.00">JSUTree&lt; JKRHeap &gt;</text>
</a>
</g>
</g>
<!-- Node18&#45;&gt;Node10 -->
<g id="edge25_Node000010_Node000018" class="edge">
<title>Node18&#45;&gt;Node10</title>
<g id="a_edge25_Node000010_Node000018"><a xlink:title=" ">
<path fill="none" stroke="#9a32cd" stroke-dasharray="5,2" d="M510.02,-451.17C514.64,-441.4 521.22,-429.82 529.5,-421.25 533.43,-417.18 561.14,-401.1 579.31,-390.75"/>
<polygon fill="#9a32cd" stroke="#9a32cd" points="506.9,-449.55 506.11,-460.12 513.32,-452.35 506.9,-449.55"/>
</a>
</g>
<text text-anchor="middle" x="555.12" y="-428.62" font-family="Helvetica,sans-Serif" font-size="10.00" fill="grey"> mChildTree</text>
</g>
<!-- Node19 -->
<g id="Node000019" class="node">
<title>Node19</title>
<g id="a_Node000019"><a xlink:href="classJSUList.html" target="_top" xlink:title=" ">
<polygon fill="white" stroke="#666666" points="528.5,-592.75 454,-592.75 454,-573.5 528.5,-573.5 528.5,-592.75"/>
<text text-anchor="middle" x="491.25" y="-579.25" font-family="Helvetica,sans-Serif" font-size="10.00">JSUList&lt; T &gt;</text>
</a>
</g>
</g>
<!-- Node19&#45;&gt;Node18 -->
<g id="edge26_Node000018_Node000019" class="edge">
<title>Node19&#45;&gt;Node18</title>
<g id="a_edge26_Node000018_Node000019"><a xlink:title=" ">
<path fill="none" stroke="#63b8ff" d="M493.28,-561.87C495.68,-537.9 499.58,-499.03 501.34,-481.48"/>
<polygon fill="#63b8ff" stroke="#63b8ff" points="489.82,-561.34 492.3,-571.64 496.78,-562.04 489.82,-561.34"/>
</a>
</g>
</g>
<!-- Node20 -->
<g id="Node000020" class="node">
<title>Node20</title>
<g id="a_Node000020"><a xlink:href="classJSUPtrList.html" target="_top" xlink:title=" ">
<polygon fill="white" stroke="#666666" points="431.62,-711 366.88,-711 366.88,-691.75 431.62,-691.75 431.62,-711"/>
<text text-anchor="middle" x="399.25" y="-697.5" font-family="Helvetica,sans-Serif" font-size="10.00">JSUPtrList</text>
</a>
</g>
</g>
<!-- Node20&#45;&gt;Node19 -->
<g id="edge27_Node000019_Node000020" class="edge">
<title>Node20&#45;&gt;Node19</title>
<g id="a_edge27_Node000019_Node000020"><a xlink:title=" ">
<path fill="none" stroke="#63b8ff" d="M413.76,-682.96C416.27,-679.9 418.85,-676.74 421.25,-673.75 444.74,-644.51 471.92,-609.3 484.38,-593.09"/>
<polygon fill="#63b8ff" stroke="#63b8ff" points="411.29,-680.45 407.61,-690.38 416.68,-684.91 411.29,-680.45"/>
</a>
</g>
</g>
<!-- Node21 -->
<g id="Node000021" class="node">
<title>Node21</title>
<g id="a_Node000021"><a xlink:href="classJSUPtrLink.html" target="_top" xlink:title=" ">
<polygon fill="white" stroke="#666666" points="375.75,-631.62 308.75,-631.62 308.75,-612.38 375.75,-612.38 375.75,-631.62"/>
<text text-anchor="middle" x="342.25" y="-618.12" font-family="Helvetica,sans-Serif" font-size="10.00">JSUPtrLink</text>
</a>
</g>
</g>
<!-- Node20&#45;&gt;Node21 -->
<g id="edge29_Node000021_Node000020" class="edge">
<title>Node20&#45;&gt;Node21</title>
<g id="a_edge29_Node000021_Node000020"><a xlink:title=" ">
<path fill="none" stroke="#9a32cd" stroke-dasharray="5,2" d="M392.84,-680.59C389.19,-671.13 383.99,-659.99 377.25,-651.25 371.44,-643.7 363.21,-636.93 356.2,-631.91"/>
<polygon fill="#9a32cd" stroke="#9a32cd" points="389.51,-681.66 396.13,-689.93 396.11,-679.34 389.51,-681.66"/>
</a>
</g>
<text text-anchor="middle" x="403.75" y="-658.62" font-family="Helvetica,sans-Serif" font-size="10.00" fill="grey"> mList</text>
</g>
<!-- Node23 -->
<g id="Node000023" class="node">
<title>Node23</title>
<g id="a_Node000023"><a xlink:href="classJSUList.html" target="_top" xlink:title=" ">
<polygon fill="white" stroke="#666666" points="654,-518.25 528.5,-518.25 528.5,-499 654,-499 654,-518.25"/>
<text text-anchor="middle" x="591.25" y="-504.75" font-family="Helvetica,sans-Serif" font-size="10.00">JSUList&lt; JKRDisposer &gt;</text>
</a>
</g>
</g>
<!-- Node20&#45;&gt;Node23 -->
<g id="edge34_Node000023_Node000020" class="edge">
<title>Node20&#45;&gt;Node23</title>
<g id="a_edge34_Node000023_Node000020"><a xlink:title=" ">
<path fill="none" stroke="#63b8ff" d="M425.9,-685.69C432.06,-682 438.5,-677.9 444.25,-673.75 488.69,-641.66 501.31,-634.13 537.25,-592.75 558.58,-568.19 577.85,-534.59 586.47,-518.68"/>
<polygon fill="#63b8ff" stroke="#63b8ff" points="424.16,-682.66 417.26,-690.7 427.67,-688.71 424.16,-682.66"/>
</a>
</g>
</g>
<!-- Node26 -->
<g id="Node000026" class="node">
<title>Node26</title>
<g id="a_Node000026"><a xlink:href="classJSUList.html" target="_top" xlink:title=" ">
<polygon fill="white" stroke="#666666" points="134.75,-592.75 1.75,-592.75 1.75,-573.5 134.75,-573.5 134.75,-592.75"/>
<text text-anchor="middle" x="68.25" y="-579.25" font-family="Helvetica,sans-Serif" font-size="10.00">JSUList&lt; JKRFileLoader &gt;</text>
</a>
</g>
</g>
<!-- Node20&#45;&gt;Node26 -->
<g id="edge42_Node000026_Node000020" class="edge">
<title>Node20&#45;&gt;Node26</title>
<g id="a_edge42_Node000026_Node000020"><a xlink:title=" ">
<path fill="none" stroke="#63b8ff" d="M362.73,-687.55C295.26,-663.85 152.6,-613.75 94.1,-593.2"/>
<polygon fill="#63b8ff" stroke="#63b8ff" points="361.25,-690.74 371.85,-690.75 363.57,-684.14 361.25,-690.74"/>
</a>
</g>
</g>
<!-- Node21&#45;&gt;Node20 -->
<g id="edge28_Node000020_Node000021" class="edge">
<title>Node21&#45;&gt;Node20</title>
<g id="a_edge28_Node000020_Node000021"><a xlink:title=" ">
<path fill="none" stroke="#9a32cd" stroke-dasharray="5,2" d="M338.05,-643.35C337.12,-653.26 337.77,-664.91 343.5,-673.75 348.87,-682.03 357.58,-687.8 366.53,-691.79"/>
<polygon fill="#9a32cd" stroke="#9a32cd" points="341.5,-643.99 339.59,-633.57 334.58,-642.91 341.5,-643.99"/>
</a>
</g>
<text text-anchor="middle" x="361.12" y="-664.25" font-family="Helvetica,sans-Serif" font-size="10.00" fill="grey"> mHead</text>
<text text-anchor="middle" x="361.12" y="-653" font-family="Helvetica,sans-Serif" font-size="10.00" fill="grey">mTail</text>
</g>
<!-- Node21&#45;&gt;Node21 -->
<g id="edge30_Node000021_Node000021" class="edge">
<title>Node21&#45;&gt;Node21</title>
<g id="a_edge30_Node000021_Node000021"><a xlink:title=" ">
<path fill="none" stroke="#9a32cd" stroke-dasharray="5,2" d="M387.01,-627.82C391.14,-626.62 393.75,-624.68 393.75,-622 393.75,-617.37 385.95,-614.94 375.93,-614.73"/>
<polygon fill="#9a32cd" stroke="#9a32cd" points="386.89,-624.3 377.43,-629.08 387.8,-631.25 386.89,-624.3"/>
</a>
</g>
<text text-anchor="middle" x="409.12" y="-623.75" font-family="Helvetica,sans-Serif" font-size="10.00" fill="grey"> mNext</text>
<text text-anchor="middle" x="409.12" y="-612.5" font-family="Helvetica,sans-Serif" font-size="10.00" fill="grey">mPrev</text>
</g>
<!-- Node22 -->
<g id="Node000022" class="node">
<title>Node22</title>
<g id="a_Node000022"><a xlink:href="classJSULink.html" target="_top" xlink:title=" ">
<polygon fill="white" stroke="#666666" points="478.62,-555.5 401.88,-555.5 401.88,-536.25 478.62,-536.25 478.62,-555.5"/>
<text text-anchor="middle" x="440.25" y="-542" font-family="Helvetica,sans-Serif" font-size="10.00">JSULink&lt; T &gt;</text>
</a>
</g>
</g>
<!-- Node21&#45;&gt;Node22 -->
<g id="edge32_Node000022_Node000021" class="edge">
<title>Node21&#45;&gt;Node22</title>
<g id="a_edge32_Node000022_Node000021"><a xlink:title=" ">
<path fill="none" stroke="#63b8ff" d="M363.19,-605.16C383.09,-590.11 412.3,-568.02 428.44,-555.81"/>
<polygon fill="#63b8ff" stroke="#63b8ff" points="361.34,-602.17 355.47,-611 365.56,-607.76 361.34,-602.17"/>
</a>
</g>
</g>
<!-- Node24 -->
<g id="Node000024" class="node">
<title>Node24</title>
<g id="a_Node000024"><a xlink:href="classJSULink.html" target="_top" xlink:title=" ">
<polygon fill="white" stroke="#666666" points="384.12,-555.5 256.38,-555.5 256.38,-536.25 384.12,-536.25 384.12,-555.5"/>
<text text-anchor="middle" x="320.25" y="-542" font-family="Helvetica,sans-Serif" font-size="10.00">JSULink&lt; JKRDisposer &gt;</text>
</a>
</g>
</g>
<!-- Node21&#45;&gt;Node24 -->
<g id="edge37_Node000024_Node000021" class="edge">
<title>Node21&#45;&gt;Node24</title>
<g id="a_edge37_Node000024_Node000021"><a xlink:title=" ">
<path fill="none" stroke="#63b8ff" d="M336.39,-601.27C331.98,-586.4 326.14,-566.73 322.83,-555.58"/>
<polygon fill="#63b8ff" stroke="#63b8ff" points="332.92,-601.87 339.12,-610.46 339.63,-599.88 332.92,-601.87"/>
</a>
</g>
</g>
<!-- Node25 -->
<g id="Node000025" class="node">
<title>Node25</title>
<g id="a_Node000025"><a xlink:href="classJSULink.html" target="_top" xlink:title=" ">
<polygon fill="white" stroke="#666666" points="258.88,-518.25 123.62,-518.25 123.62,-499 258.88,-499 258.88,-518.25"/>
<text text-anchor="middle" x="191.25" y="-504.75" font-family="Helvetica,sans-Serif" font-size="10.00">JSULink&lt; JKRFileLoader &gt;</text>
</a>
</g>
</g>
<!-- Node21&#45;&gt;Node25 -->
<g id="edge39_Node000025_Node000021" class="edge">
<title>Node21&#45;&gt;Node25</title>
<g id="a_edge39_Node000025_Node000021"><a xlink:title=" ">
<path fill="none" stroke="#63b8ff" d="M318.91,-605.69C299.44,-592.74 271.13,-573.47 247.25,-555.5 230.98,-543.26 212.88,-528.14 201.78,-518.69"/>
<polygon fill="#63b8ff" stroke="#63b8ff" points="316.94,-608.58 327.21,-611.18 320.8,-602.75 316.94,-608.58"/>
</a>
</g>
</g>
<!-- Node22&#45;&gt;Node18 -->
<g id="edge31_Node000018_Node000022" class="edge">
<title>Node22&#45;&gt;Node18</title>
<g id="a_edge31_Node000018_Node000022"><a xlink:title=" ">
<path fill="none" stroke="#63b8ff" d="M455.2,-527.39C467.63,-512.86 484.79,-492.79 494.59,-481.34"/>
<polygon fill="#63b8ff" stroke="#63b8ff" points="452.68,-524.96 448.84,-534.83 458,-529.51 452.68,-524.96"/>
</a>
</g>
</g>
<!-- Node23&#45;&gt;Node10 -->
<g id="edge33_Node000010_Node000023" class="edge">
<title>Node23&#45;&gt;Node10</title>
<g id="a_edge33_Node000010_Node000023"><a xlink:title=" ">
<path fill="none" stroke="#9a32cd" stroke-dasharray="5,2" d="M591.9,-487.1C592.79,-459.25 594.33,-410.69 594.96,-390.72"/>
<polygon fill="#9a32cd" stroke="#9a32cd" points="588.41,-486.95 591.59,-497.06 595.4,-487.18 588.41,-486.95"/>
</a>
</g>
<text text-anchor="middle" x="624.88" y="-467.5" font-family="Helvetica,sans-Serif" font-size="10.00" fill="grey"> mDisposerList</text>
</g>
<!-- Node24&#45;&gt;Node9 -->
<g id="edge36_Node000009_Node000024" class="edge">
<title>Node24&#45;&gt;Node9</title>
<g id="a_edge36_Node000009_Node000024"><a xlink:title=" ">
<path fill="none" stroke="#9a32cd" stroke-dasharray="5,2" d="M329.77,-525.7C336.9,-511.35 346.33,-492.35 351.8,-481.34"/>
<polygon fill="#9a32cd" stroke="#9a32cd" points="326.65,-524.12 325.34,-534.63 332.92,-527.23 326.65,-524.12"/>
</a>
</g>
<text text-anchor="middle" x="357.88" y="-504.75" font-family="Helvetica,sans-Serif" font-size="10.00" fill="grey"> mLink</text>
</g>
<!-- Node25&#45;&gt;Node8 -->
<g id="edge38_Node000008_Node000025" class="edge">
<title>Node25&#45;&gt;Node8</title>
<g id="a_edge38_Node000008_Node000025"><a xlink:title=" ">
<path fill="none" stroke="#9a32cd" stroke-dasharray="5,2" d="M171.84,-491.44C139.65,-464.61 76.27,-411.78 51.01,-390.72"/>
<polygon fill="#9a32cd" stroke="#9a32cd" points="169.31,-493.89 179.23,-497.6 173.79,-488.51 169.31,-493.89"/>
</a>
</g>
<text text-anchor="middle" x="196.75" y="-467.5" font-family="Helvetica,sans-Serif" font-size="10.00" fill="grey"> mFileLoaderLink</text>
</g>
<!-- Node26&#45;&gt;Node8 -->
<g id="edge41_Node000008_Node000026" class="edge">
<title>Node26&#45;&gt;Node8</title>
<g id="a_edge41_Node000008_Node000026"><a xlink:title=" ">
<path fill="none" stroke="#9a32cd" stroke-dasharray="5,2" d="M64.54,-562.03C62.29,-549.47 59.43,-532.94 57.25,-518.25 50.14,-470.3 43.62,-412.56 41.22,-390.71"/>
<polygon fill="#9a32cd" stroke="#9a32cd" points="61.04,-562.35 66.28,-571.56 67.93,-561.1 61.04,-562.35"/>
</a>
</g>
<text text-anchor="middle" x="85.75" y="-504.75" font-family="Helvetica,sans-Serif" font-size="10.00" fill="grey"> sVolumeList</text>
</g>
<!-- Node27 -->
<g id="Node000027" class="node">
<title>Node27</title>
<g id="a_Node000027"><a xlink:href="structSArcDataInfo.html" target="_top" xlink:title=" ">
<polygon fill="white" stroke="#666666" points="263.5,-390.38 189,-390.38 189,-371.12 263.5,-371.12 263.5,-390.38"/>
<text text-anchor="middle" x="226.25" y="-376.88" font-family="Helvetica,sans-Serif" font-size="10.00">SArcDataInfo</text>
</a>
</g>
</g>
<!-- Node27&#45;&gt;Node7 -->
<g id="edge44_Node000007_Node000027" class="edge">
<title>Node27&#45;&gt;Node7</title>
<g id="a_edge44_Node000007_Node000027"><a xlink:title=" ">
<path fill="none" stroke="#9a32cd" stroke-dasharray="5,2" d="M239.59,-361.79C248.27,-351.1 260.4,-337.93 273.5,-329 285.56,-320.78 300.36,-314.44 313.37,-309.87"/>
<polygon fill="#9a32cd" stroke="#9a32cd" points="236.95,-359.47 233.58,-369.51 242.48,-363.77 236.95,-359.47"/>
</a>
</g>
<text text-anchor="middle" x="307.62" y="-330.75" font-family="Helvetica,sans-Serif" font-size="10.00" fill="grey"> mArcInfoBlock</text>
</g>
<!-- Node28 -->
<g id="Node000028" class="node">
<title>Node28</title>
<g id="a_Node000028"><a xlink:href="structJKRArchive_1_1SDIDirEntry.html" target="_top" xlink:title=" ">
<polygon fill="white" stroke="#666666" points="404.5,-390.38 282,-390.38 282,-371.12 404.5,-371.12 404.5,-390.38"/>
<text text-anchor="middle" x="343.25" y="-376.88" font-family="Helvetica,sans-Serif" font-size="10.00">JKRArchive::SDIDirEntry</text>
</a>
</g>
</g>
<!-- Node28&#45;&gt;Node7 -->
<g id="edge45_Node000007_Node000028" class="edge">
<title>Node28&#45;&gt;Node7</title>
<g id="a_edge45_Node000007_Node000028"><a xlink:title=" ">
<path fill="none" stroke="#9a32cd" stroke-dasharray="5,2" d="M343.77,-359.29C344.17,-343.24 344.72,-321.67 345.02,-309.71"/>
<polygon fill="#9a32cd" stroke="#9a32cd" points="340.27,-359.09 343.52,-369.17 347.27,-359.27 340.27,-359.09"/>
</a>
</g>
<text text-anchor="middle" x="364.75" y="-330.75" font-family="Helvetica,sans-Serif" font-size="10.00" fill="grey"> mNodes</text>
</g>
<!-- Node29 -->
<g id="Node000029" class="node">
<title>Node29</title>
<g id="a_Node000029"><a xlink:href="structJKRArchive_1_1SDIFileEntry.html" target="_top" xlink:title=" ">
<polygon fill="white" stroke="#666666" points="548.38,-390.38 422.12,-390.38 422.12,-371.12 548.38,-371.12 548.38,-390.38"/>
<text text-anchor="middle" x="485.25" y="-376.88" font-family="Helvetica,sans-Serif" font-size="10.00">JKRArchive::SDIFileEntry</text>
</a>
</g>
</g>
<!-- Node29&#45;&gt;Node7 -->
<g id="edge46_Node000007_Node000029" class="edge">
<title>Node29&#45;&gt;Node7</title>
<g id="a_edge46_Node000007_Node000029"><a xlink:title=" ">
<path fill="none" stroke="#9a32cd" stroke-dasharray="5,2" d="M456.87,-365.48C442.61,-358.16 425.13,-348.97 409.75,-340.25 392.16,-330.28 372.39,-318.01 359.43,-309.82"/>
<polygon fill="#9a32cd" stroke="#9a32cd" points="455.22,-368.56 465.72,-369.98 458.4,-362.33 455.22,-368.56"/>
</a>
</g>
<text text-anchor="middle" x="426" y="-330.75" font-family="Helvetica,sans-Serif" font-size="10.00" fill="grey"> mFiles</text>
</g>
<!-- Node30 -->
<g id="Node000030" class="node">
<title>Node30</title>
<g id="a_Node000030"><a xlink:href="structSArcHeader.html" target="_top" xlink:title=" ">
<polygon fill="white" stroke="#666666" points="466.88,-309.38 397.62,-309.38 397.62,-290.12 466.88,-290.12 466.88,-309.38"/>
<text text-anchor="middle" x="432.25" y="-295.88" font-family="Helvetica,sans-Serif" font-size="10.00">SArcHeader</text>
</a>
</g>
</g>
<!-- Node30&#45;&gt;Node6 -->
<g id="edge47_Node000006_Node000030" class="edge">
<title>Node30&#45;&gt;Node6</title>
<g id="a_edge47_Node000006_Node000030"><a xlink:title=" ">
<path fill="none" stroke="#9a32cd" stroke-dasharray="5,2" d="M432.25,-278.71C432.25,-262.99 432.25,-241.87 432.25,-230.15"/>
<polygon fill="#9a32cd" stroke="#9a32cd" points="428.75,-278.36 432.25,-288.36 435.75,-278.36 428.75,-278.36"/>
</a>
</g>
<text text-anchor="middle" x="460.75" y="-255.38" font-family="Helvetica,sans-Serif" font-size="10.00" fill="grey"> mArcHeader</text>
</g>
<!-- Node31&#45;&gt;Node2 -->
<g id="edge51_Node000002_Node000031" class="edge">
<title>Node31&#45;&gt;Node2</title>
<g id="a_edge51_Node000002_Node000031"><a xlink:title=" ">
<path fill="none" stroke="#9a32cd" stroke-dasharray="5,2" d="M777.73,-278.43C774.12,-242.32 762.35,-166.01 725.25,-115 719.95,-107.71 712,-101.77 704.66,-97.36"/>
<polygon fill="#9a32cd" stroke="#9a32cd" points="774.23,-278.62 778.59,-288.28 781.2,-278.01 774.23,-278.62"/>
</a>
</g>
<text text-anchor="middle" x="788.25" y="-183.25" font-family="Helvetica,sans-Serif" font-size="10.00" fill="grey"> mDataHeap</text>
</g>
<!-- Node32 -->
<g id="Node000032" class="node">
<title>Node32</title>
<g id="a_Node000032"><a xlink:href="structJKRSolidHeap_1_1Unknown.html" target="_top" xlink:title=" ">
<polygon fill="white" stroke="#666666" points="848,-390.38 722.5,-390.38 722.5,-371.12 848,-371.12 848,-390.38"/>
<text text-anchor="middle" x="785.25" y="-376.88" font-family="Helvetica,sans-Serif" font-size="10.00">JKRSolidHeap::Unknown</text>
</a>
</g>
</g>
<!-- Node32&#45;&gt;Node31 -->
<g id="edge53_Node000031_Node000032" class="edge">
<title>Node32&#45;&gt;Node31</title>
<g id="a_edge53_Node000031_Node000032"><a xlink:title=" ">
<path fill="none" stroke="#9a32cd" stroke-dasharray="5,2" d="M783.7,-359.29C782.48,-343.24 780.84,-321.67 779.93,-309.71"/>
<polygon fill="#9a32cd" stroke="#9a32cd" points="780.2,-359.47 784.45,-369.18 787.18,-358.94 780.2,-359.47"/>
</a>
</g>
<text text-anchor="middle" x="804.75" y="-330.75" font-family="Helvetica,sans-Serif" font-size="10.00" fill="grey"> field_0x78</text>
</g>
<!-- Node32&#45;&gt;Node32 -->
<g id="edge54_Node000032_Node000032" class="edge">
<title>Node32&#45;&gt;Node32</title>
<g id="a_edge54_Node000032_Node000032"><a xlink:title=" ">
<path fill="none" stroke="#9a32cd" stroke-dasharray="5,2" d="M859.49,-386.53C863.57,-385.13 866,-383.2 866,-380.75 866,-376.52 858.74,-373.84 848.22,-372.71"/>
<polygon fill="#9a32cd" stroke="#9a32cd" points="858.83,-383.1 849.71,-388.49 860.2,-389.96 858.83,-383.1"/>
</a>
</g>
<text text-anchor="middle" x="881.38" y="-376.88" font-family="Helvetica,sans-Serif" font-size="10.00" fill="grey"> mNext</text>
</g>
</g>
</svg>

<g id="navigator" transform="translate(0 0)" fill="#404254">
  <rect fill="#f2f5e9" fill-opacity="0.5" stroke="#606060" stroke-width=".5" x="0" y="0" width="60" height="60"/>
  <use id="zoomplus" xlink:href="#zoomPlus" x="17" y="9" onmousedown="handleZoom(evt,'in')"/>
  <use id="zoomminus" xlink:href="#zoomMin" x="42" y="9" onmousedown="handleZoom(evt,'out')"/>
  <use id="reset" xlink:href="#resetDef" x="30" y="36" onmousedown="handleReset()"/>
   <use id="arrowup" xlink:href="#arrowUp" x="0" y="0" onmousedown="handlePan(0,-1)"/>
  <use id="arrowright" xlink:href="#arrowRight" x="0" y="0" onmousedown="handlePan(1,0)"/>
  <use id="arrowdown" xlink:href="#arrowDown" x="0" y="0" onmousedown="handlePan(0,1)"/>
  <use id="arrowleft" xlink:href="#arrowLeft" x="0" y="0" onmousedown="handlePan(-1,0)"/>
</g>
<svg viewBox="0 0 15 15" width="100%" height="30px" preserveAspectRatio="xMaxYMin meet">
 <g id="arrow_out" transform="scale(0.3 0.3)">
  <a xlink:href="classdRes__control__c__coll__graph_org.svg" target="_base">
   <rect id="button" ry="5" rx="5" y="6" x="6" height="38" width="38"
        fill="#f2f5e9" fill-opacity="0.5" stroke="#606060" stroke-width="1.0"/>
   <path id="arrow"
     d="M 11.500037,31.436501 C 11.940474,20.09759 22.043105,11.32322 32.158766,21.979434 L 37.068811,17.246167 C 37.068811,17.246167 37.088388,32 37.088388,32 L 22.160133,31.978069 C 22.160133,31.978069 26.997745,27.140456 26.997745,27.140456 C 18.528582,18.264221 13.291696,25.230495 11.500037,31.436501 z"
     style="fill:#404040;"/>
  </a>
 </g>
</svg>

<style type='text/css'>
<![CDATA[
[data-mouse-over-selected='false'] { opacity: 0.7; }
[data-mouse-over-selected='true']  { opacity: 1.0; }
]]>
</style>
<script type="application/ecmascript"><![CDATA[
document.addEventListener('DOMContentLoaded', (event) => {
  highlightEdges();
  highlightAdjacentNodes();
});
]]></script>
</svg>
