<?xml version="1.0" encoding="UTF-8" standalone="no"?>
<!DOCTYPE svg PUBLIC "-//W3C//DTD SVG 1.1//EN"
 "http://www.w3.org/Graphics/SVG/1.1/DTD/svg11.dtd">
<!-- Generated by graphviz version 9.0.0 (20230911.1827)
 -->
<!-- Title: J2DTevBlock1 Pages: 1 -->
<!--zoomable 624 -->

<svg id="main" version="1.1" xmlns="http://www.w3.org/2000/svg" xmlns:xlink="http://www.w3.org/1999/xlink" xml:space="preserve" onload="init(evt)">
<style type="text/css"><![CDATA[
.node, .edge {opacity: 0.7;}
.node.selected, .edge.selected {opacity: 1;}
.edge:hover path { stroke: red; }
.edge:hover polygon { stroke: red; fill: red; }
]]></style>

<defs>
  <circle id="rim" cx="0" cy="0" r="7"/>
  <circle id="rim2" cx="0" cy="0" r="3.5"/>
  <g id="zoomPlus">
    <use xlink:href="#rim" fill="#404040"><set attributeName="fill" to="#808080" begin="zoomplus.mouseover" end="zoomplus.mouseout"/></use>
    <path d="M-4,0h8M0,-4v8" fill="none" stroke="white" stroke-width="1.5" pointer-events="none"/>
  </g>
  <g id="zoomMin">
    <use xlink:href="#rim" fill="#404040"><set attributeName="fill" to="#808080" begin="zoomminus.mouseover" end="zoomminus.mouseout"/></use>
    <path d="M-4,0h8" fill="none" stroke="white" stroke-width="1.5" pointer-events="none"/>
  </g>
  <g id="arrowUp" transform="translate(30 24)">
    <use xlink:href="#rim"/>
    <path pointer-events="none" fill="none" stroke="white" stroke-width="1.5" d="M0,-3.0v7 M-2.5,-0.5L0,-3.0L2.5,-0.5"/>
  </g>
  <g id="arrowRight" transform="rotate(90) translate(36 -43)">
    <use xlink:href="#rim"/>
    <path pointer-events="none" fill="none" stroke="white" stroke-width="1.5" d="M0,-3.0v7 M-2.5,-0.5L0,-3.0L2.5,-0.5"/>
  </g>
  <g id="arrowDown" transform="rotate(180) translate(-30 -48)">
    <use xlink:href="#rim"/>
    <path pointer-events="none" fill="none" stroke="white" stroke-width="1.5" d="M0,-3.0v7 M-2.5,-0.5L0,-3.0L2.5,-0.5"/>
  </g>
  <g id="arrowLeft" transform="rotate(270) translate(-36 17)">
    <use xlink:href="#rim"/>
    <path pointer-events="none" fill="none" stroke="white" stroke-width="1.5" d="M0,-3.0v7 M-2.5,-0.5L0,-3.0L2.5,-0.5"/>
  </g>
  <g id="resetDef">
    <use xlink:href="#rim2" fill="#404040"><set attributeName="fill" to="#808080" begin="reset.mouseover" end="reset.mouseout"/></use>
  </g>
</defs>
<script type="application/ecmascript">
var viewWidth = 806;
var viewHeight = 624;
var sectionId = 'dynsection-1';
</script>
<script type="application/ecmascript" xlink:href="svg.min.js"/>
<svg id="graph" class="graph">
<g id="viewport">
<title>J2DTevBlock1</title>
<!-- Node1 -->
<g id="Node000001" class="node">
<title>Node1</title>
<g id="a_Node000001"><a xlink:title=" ">
<polygon fill="#999999" stroke="#666666" points="798,-453.14 718.25,-453.14 718.25,-433.89 798,-433.89 798,-453.14"/>
<text text-anchor="middle" x="758.12" y="-439.64" font-family="Helvetica,sans-Serif" font-size="10.00">J2DTevBlock1</text>
</a>
</g>
</g>
<!-- Node2 -->
<g id="Node000002" class="node">
<title>Node2</title>
<g id="a_Node000002"><a xlink:href="classJ2DTevBlock.html" target="_top" xlink:title=" ">
<polygon fill="white" stroke="#666666" points="558.5,-616.14 484,-616.14 484,-596.89 558.5,-596.89 558.5,-616.14"/>
<text text-anchor="middle" x="521.25" y="-602.64" font-family="Helvetica,sans-Serif" font-size="10.00">J2DTevBlock</text>
</a>
</g>
</g>
<!-- Node2&#45;&gt;Node1 -->
<g id="edge1_Node000001_Node000002" class="edge">
<title>Node2&#45;&gt;Node1</title>
<g id="a_edge1_Node000001_Node000002"><a xlink:title=" ">
<path fill="none" stroke="#63b8ff" d="M570.27,-614.04C609.19,-617.4 663.41,-615.55 700.25,-587.52 744.53,-553.82 754.39,-480.47 756.54,-453.62"/>
<polygon fill="#63b8ff" stroke="#63b8ff" points="570.79,-610.57 560.48,-613.03 570.08,-617.53 570.79,-610.57"/>
</a>
</g>
</g>
<!-- Node3 -->
<g id="Node000003" class="node">
<title>Node3</title>
<g id="a_Node000003"><a xlink:href="classJ2DTevOrder.html" target="_top" xlink:title=" ">
<polygon fill="white" stroke="#666666" points="558.12,-579.14 484.38,-579.14 484.38,-559.89 558.12,-559.89 558.12,-579.14"/>
<text text-anchor="middle" x="521.25" y="-565.64" font-family="Helvetica,sans-Serif" font-size="10.00">J2DTevOrder</text>
</a>
</g>
</g>
<!-- Node3&#45;&gt;Node1 -->
<g id="edge2_Node000001_Node000003" class="edge">
<title>Node3&#45;&gt;Node1</title>
<g id="a_edge2_Node000001_Node000003"><a xlink:title=" ">
<path fill="none" stroke="#9a32cd" stroke-dasharray="5,2" d="M569.7,-573.81C608.11,-574.87 661.94,-570.66 700.25,-544.52 733,-522.18 749.02,-474.41 754.67,-453.58"/>
<polygon fill="#9a32cd" stroke="#9a32cd" points="569.96,-570.32 559.83,-573.39 569.67,-577.31 569.96,-570.32"/>
</a>
</g>
<text text-anchor="middle" x="650.38" y="-574.27" font-family="Helvetica,sans-Serif" font-size="10.00" fill="grey"> mTevOrder</text>
</g>
<!-- Node4 -->
<g id="Node000004" class="node">
<title>Node4</title>
<g id="a_Node000004"><a xlink:href="structJ2DTevOrderInfo.html" target="_top" xlink:title=" ">
<polygon fill="white" stroke="#666666" points="352.75,-579.14 262.5,-579.14 262.5,-559.89 352.75,-559.89 352.75,-579.14"/>
<text text-anchor="middle" x="307.62" y="-565.64" font-family="Helvetica,sans-Serif" font-size="10.00">J2DTevOrderInfo</text>
</a>
</g>
</g>
<!-- Node4&#45;&gt;Node3 -->
<g id="edge3_Node000003_Node000004" class="edge">
<title>Node4&#45;&gt;Node3</title>
<g id="a_edge3_Node000003_Node000004"><a xlink:title=" ">
<path fill="none" stroke="#9a32cd" stroke-dasharray="5,2" d="M364.61,-569.52C402.46,-569.52 451.33,-569.52 484.12,-569.52"/>
<polygon fill="#9a32cd" stroke="#9a32cd" points="364.76,-566.02 354.76,-569.52 364.76,-573.02 364.76,-566.02"/>
</a>
</g>
<text text-anchor="middle" x="406.75" y="-571.27" font-family="Helvetica,sans-Serif" font-size="10.00" fill="grey"> mTevOrderInfo</text>
</g>
<!-- Node5 -->
<g id="Node000005" class="node">
<title>Node5</title>
<g id="a_Node000005"><a xlink:href="structJ2DGXColorS10.html" target="_top" xlink:title=" ">
<polygon fill="white" stroke="#666666" points="564.88,-542.14 477.62,-542.14 477.62,-522.89 564.88,-522.89 564.88,-542.14"/>
<text text-anchor="middle" x="521.25" y="-528.64" font-family="Helvetica,sans-Serif" font-size="10.00">J2DGXColorS10</text>
</a>
</g>
</g>
<!-- Node5&#45;&gt;Node1 -->
<g id="edge4_Node000001_Node000005" class="edge">
<title>Node5&#45;&gt;Node1</title>
<g id="a_edge4_Node000001_Node000005"><a xlink:title=" ">
<path fill="none" stroke="#9a32cd" stroke-dasharray="5,2" d="M576.82,-532.58C613.6,-530.54 662.17,-523.67 700.25,-503.52 722.83,-491.57 741.51,-467.23 750.79,-453.51"/>
<polygon fill="#9a32cd" stroke="#9a32cd" points="576.66,-529.08 566.83,-533.02 576.97,-536.08 576.66,-529.08"/>
</a>
</g>
<text text-anchor="middle" x="650.38" y="-531.27" font-family="Helvetica,sans-Serif" font-size="10.00" fill="grey"> mTevColor</text>
</g>
<!-- Node6 -->
<g id="Node000006" class="node">
<title>Node6</title>
<g id="a_Node000006"><a xlink:href="struct__GXColorS10.html" target="_top" xlink:title=" ">
<polygon fill="white" stroke="#666666" points="342.62,-542.14 272.62,-542.14 272.62,-522.89 342.62,-522.89 342.62,-542.14"/>
<text text-anchor="middle" x="307.62" y="-528.64" font-family="Helvetica,sans-Serif" font-size="10.00">GXColorS10</text>
</a>
</g>
</g>
<!-- Node6&#45;&gt;Node5 -->
<g id="edge5_Node000005_Node000006" class="edge">
<title>Node6&#45;&gt;Node5</title>
<g id="a_edge5_Node000005_Node000006"><a xlink:title=" ">
<path fill="none" stroke="#63b8ff" d="M354.41,-532.52C390.92,-532.52 441.67,-532.52 477.38,-532.52"/>
<polygon fill="#63b8ff" stroke="#63b8ff" points="354.61,-529.02 344.61,-532.52 354.61,-536.02 354.61,-529.02"/>
</a>
</g>
</g>
<!-- Node7 -->
<g id="Node000007" class="node">
<title>Node7</title>
<g id="a_Node000007"><a xlink:href="classJ2DTevStage.html" target="_top" xlink:title=" ">
<polygon fill="white" stroke="#666666" points="558.88,-505.14 483.62,-505.14 483.62,-485.89 558.88,-485.89 558.88,-505.14"/>
<text text-anchor="middle" x="521.25" y="-491.64" font-family="Helvetica,sans-Serif" font-size="10.00">J2DTevStage</text>
</a>
</g>
</g>
<!-- Node7&#45;&gt;Node1 -->
<g id="edge6_Node000001_Node000007" class="edge">
<title>Node7&#45;&gt;Node1</title>
<g id="a_edge6_Node000001_Node000007"><a xlink:title=" ">
<path fill="none" stroke="#9a32cd" stroke-dasharray="5,2" d="M570.33,-492.73C606.64,-489.68 657.37,-483.38 700.25,-470.52 713.97,-466.41 728.54,-459.43 739.5,-453.6"/>
<polygon fill="#9a32cd" stroke="#9a32cd" points="570.29,-489.22 560.59,-493.49 570.83,-496.2 570.29,-489.22"/>
</a>
</g>
<text text-anchor="middle" x="650.38" y="-490.27" font-family="Helvetica,sans-Serif" font-size="10.00" fill="grey"> mTevStage</text>
</g>
<!-- Node8 -->
<g id="Node000008" class="node">
<title>Node8</title>
<g id="a_Node000008"><a xlink:href="structJUtility_1_1TColor.html" target="_top" xlink:title=" ">
<polygon fill="white" stroke="#666666" points="168.75,-120.14 89.75,-120.14 89.75,-100.89 168.75,-100.89 168.75,-120.14"/>
<text text-anchor="middle" x="129.25" y="-106.64" font-family="Helvetica,sans-Serif" font-size="10.00">JUtility::TColor</text>
</a>
</g>
</g>
<!-- Node8&#45;&gt;Node1 -->
<g id="edge7_Node000001_Node000008" class="edge">
<title>Node8&#45;&gt;Node1</title>
<g id="a_edge7_Node000001_Node000008"><a xlink:title=" ">
<path fill="none" stroke="#9a32cd" stroke-dasharray="5,2" d="M180.37,-103.08C243.98,-95.85 355.81,-90.7 442,-127.27 573.48,-183.06 610.42,-207.48 700.25,-318.52 730.24,-355.59 748.08,-411.03 754.46,-433.51"/>
<polygon fill="#9a32cd" stroke="#9a32cd" points="180.08,-99.59 170.57,-104.26 180.92,-106.54 180.08,-99.59"/>
</a>
</g>
<text text-anchor="middle" x="406.75" y="-128.27" font-family="Helvetica,sans-Serif" font-size="10.00" fill="grey"> mTevKColor</text>
</g>
<!-- Node19 -->
<g id="Node000019" class="node">
<title>Node19</title>
<g id="a_Node000019"><a xlink:href="classJUTFont.html" target="_top" xlink:title=" ">
<polygon fill="white" stroke="#666666" points="334.75,-141.14 280.5,-141.14 280.5,-121.89 334.75,-121.89 334.75,-141.14"/>
<text text-anchor="middle" x="307.62" y="-127.64" font-family="Helvetica,sans-Serif" font-size="10.00">JUTFont</text>
</a>
</g>
</g>
<!-- Node8&#45;&gt;Node19 -->
<g id="edge20_Node000019_Node000008" class="edge">
<title>Node8&#45;&gt;Node19</title>
<g id="a_edge20_Node000019_Node000008"><a xlink:title=" ">
<path fill="none" stroke="#9a32cd" stroke-dasharray="5,2" d="M180.04,-116.45C212.52,-120.31 253.63,-125.21 280.03,-128.35"/>
<polygon fill="#9a32cd" stroke="#9a32cd" points="180.8,-113.01 170.46,-115.31 179.98,-119.96 180.8,-113.01"/>
</a>
</g>
<text text-anchor="middle" x="215.25" y="-158.02" font-family="Helvetica,sans-Serif" font-size="10.00" fill="grey"> mColor1</text>
<text text-anchor="middle" x="215.25" y="-146.77" font-family="Helvetica,sans-Serif" font-size="10.00" fill="grey">mColor2</text>
<text text-anchor="middle" x="215.25" y="-135.52" font-family="Helvetica,sans-Serif" font-size="10.00" fill="grey">mColor3</text>
<text text-anchor="middle" x="215.25" y="-124.27" font-family="Helvetica,sans-Serif" font-size="10.00" fill="grey">mColor4</text>
</g>
<!-- Node9 -->
<g id="Node000009" class="node">
<title>Node9</title>
<g id="a_Node000009"><a xlink:href="struct__GXColor.html" target="_top" xlink:title=" ">
<polygon fill="white" stroke="#666666" points="52.75,-120.14 0,-120.14 0,-100.89 52.75,-100.89 52.75,-120.14"/>
<text text-anchor="middle" x="26.38" y="-106.64" font-family="Helvetica,sans-Serif" font-size="10.00">GXColor</text>
</a>
</g>
</g>
<!-- Node9&#45;&gt;Node8 -->
<g id="edge8_Node000008_Node000009" class="edge">
<title>Node9&#45;&gt;Node8</title>
<g id="a_edge8_Node000008_Node000009"><a xlink:title=" ">
<path fill="none" stroke="#63b8ff" d="M64.58,-110.52C72.74,-110.52 81.4,-110.52 89.62,-110.52"/>
<polygon fill="#63b8ff" stroke="#63b8ff" points="64.6,-107.02 54.6,-110.52 64.6,-114.02 64.6,-107.02"/>
</a>
</g>
</g>
<!-- Node10 -->
<g id="Node000010" class="node">
<title>Node10</title>
<g id="a_Node000010"><a xlink:href="classJ2DTevSwapModeTable.html" target="_top" xlink:title=" ">
<polygon fill="white" stroke="#666666" points="582.5,-65.14 460,-65.14 460,-45.89 582.5,-45.89 582.5,-65.14"/>
<text text-anchor="middle" x="521.25" y="-51.64" font-family="Helvetica,sans-Serif" font-size="10.00">J2DTevSwapModeTable</text>
</a>
</g>
</g>
<!-- Node10&#45;&gt;Node1 -->
<g id="edge9_Node000001_Node000010" class="edge">
<title>Node10&#45;&gt;Node1</title>
<g id="a_edge9_Node000001_Node000010"><a xlink:title=" ">
<path fill="none" stroke="#9a32cd" stroke-dasharray="5,2" d="M574.13,-43.56C613.75,-37.74 667.01,-37.55 700.25,-68.27 755.66,-119.47 757.45,-379.34 757.21,-433.59"/>
<polygon fill="#9a32cd" stroke="#9a32cd" points="573.62,-40.1 564.33,-45.18 574.76,-47.01 573.62,-40.1"/>
</a>
</g>
<text text-anchor="middle" x="650.38" y="-69.27" font-family="Helvetica,sans-Serif" font-size="10.00" fill="grey"> mTevSwapModeTable</text>
</g>
<!-- Node11 -->
<g id="Node000011" class="node">
<title>Node11</title>
<g id="a_Node000011"><a xlink:href="classJ2DIndTevStage.html" target="_top" xlink:title=" ">
<polygon fill="white" stroke="#666666" points="565.62,-28.14 476.88,-28.14 476.88,-8.89 565.62,-8.89 565.62,-28.14"/>
<text text-anchor="middle" x="521.25" y="-14.64" font-family="Helvetica,sans-Serif" font-size="10.00">J2DIndTevStage</text>
</a>
</g>
</g>
<!-- Node11&#45;&gt;Node1 -->
<g id="edge10_Node000001_Node000011" class="edge">
<title>Node11&#45;&gt;Node1</title>
<g id="a_edge10_Node000001_Node000011"><a xlink:title=" ">
<path fill="none" stroke="#9a32cd" stroke-dasharray="5,2" d="M567.27,-6.04C607.34,2.09 664.92,5.96 700.25,-26.27 762.51,-83.05 758.76,-375.85 757.4,-433.61"/>
<polygon fill="#9a32cd" stroke="#9a32cd" points="566.71,-2.58 557.69,-8.15 568.21,-9.41 566.71,-2.58"/>
</a>
</g>
<text text-anchor="middle" x="650.38" y="-28.27" font-family="Helvetica,sans-Serif" font-size="10.00" fill="grey"> mIndTevStage</text>
</g>
<!-- Node12 -->
<g id="Node000012" class="node">
<title>Node12</title>
<g id="a_Node000012"><a xlink:href="classJUTTexture.html" target="_top" xlink:title=" ">
<polygon fill="white" stroke="#666666" points="554.75,-420.14 487.75,-420.14 487.75,-400.89 554.75,-400.89 554.75,-420.14"/>
<text text-anchor="middle" x="521.25" y="-406.64" font-family="Helvetica,sans-Serif" font-size="10.00">JUTTexture</text>
</a>
</g>
</g>
<!-- Node12&#45;&gt;Node1 -->
<g id="edge11_Node000001_Node000012" class="edge">
<title>Node12&#45;&gt;Node1</title>
<g id="a_edge11_Node000001_Node000012"><a xlink:title=" ">
<path fill="none" stroke="#9a32cd" stroke-dasharray="5,2" d="M566.32,-414.47C602.44,-417.99 654.83,-423.75 700.25,-431.27 706.03,-432.23 712.11,-433.38 718.06,-434.59"/>
<polygon fill="#9a32cd" stroke="#9a32cd" points="566.98,-411.01 556.7,-413.55 566.32,-417.98 566.98,-411.01"/>
</a>
</g>
<text text-anchor="middle" x="650.38" y="-432.27" font-family="Helvetica,sans-Serif" font-size="10.00" fill="grey"> mTexture</text>
</g>
<!-- Node13 -->
<g id="Node000013" class="node">
<title>Node13</title>
<g id="a_Node000013"><a xlink:href="struct__GXTexObj.html" target="_top" xlink:title=" ">
<polygon fill="white" stroke="#666666" points="340.75,-373.14 274.5,-373.14 274.5,-353.89 340.75,-353.89 340.75,-373.14"/>
<text text-anchor="middle" x="307.62" y="-359.64" font-family="Helvetica,sans-Serif" font-size="10.00">_GXTexObj</text>
</a>
</g>
</g>
<!-- Node13&#45;&gt;Node12 -->
<g id="edge12_Node000012_Node000013" class="edge">
<title>Node13&#45;&gt;Node12</title>
<g id="a_edge12_Node000012_Node000013"><a xlink:title=" ">
<path fill="none" stroke="#9a32cd" stroke-dasharray="5,2" d="M352.27,-373.21C392.37,-382.12 450.94,-395.12 487.26,-403.19"/>
<polygon fill="#9a32cd" stroke="#9a32cd" points="353.23,-369.84 342.71,-371.09 351.71,-376.67 353.23,-369.84"/>
</a>
</g>
<text text-anchor="middle" x="406.75" y="-394.27" font-family="Helvetica,sans-Serif" font-size="10.00" fill="grey"> mTexObj</text>
</g>
<!-- Node18 -->
<g id="Node000018" class="node">
<title>Node18</title>
<g id="a_Node000018"><a xlink:href="classJUTResFont.html" target="_top" xlink:title=" ">
<polygon fill="white" stroke="#666666" points="557,-267.14 485.5,-267.14 485.5,-247.89 557,-247.89 557,-267.14"/>
<text text-anchor="middle" x="521.25" y="-253.64" font-family="Helvetica,sans-Serif" font-size="10.00">JUTResFont</text>
</a>
</g>
</g>
<!-- Node13&#45;&gt;Node18 -->
<g id="edge21_Node000018_Node000013" class="edge">
<title>Node13&#45;&gt;Node18</title>
<g id="a_edge21_Node000018_Node000013"><a xlink:title=" ">
<path fill="none" stroke="#9a32cd" stroke-dasharray="5,2" d="M352.12,-352.86C378.96,-345.32 413.57,-333.82 442,-318.52 468.7,-304.15 495.67,-280.71 509.92,-267.46"/>
<polygon fill="#9a32cd" stroke="#9a32cd" points="351.32,-349.44 342.59,-355.45 353.16,-356.2 351.32,-349.44"/>
</a>
</g>
<text text-anchor="middle" x="406.75" y="-347.27" font-family="Helvetica,sans-Serif" font-size="10.00" fill="grey"> mTexObj</text>
</g>
<!-- Node14 -->
<g id="Node000014" class="node">
<title>Node14</title>
<g id="a_Node000014"><a xlink:href="structResTIMG.html" target="_top" xlink:title="Image data header.">
<polygon fill="white" stroke="#666666" points="336.62,-420.14 278.62,-420.14 278.62,-400.89 336.62,-400.89 336.62,-420.14"/>
<text text-anchor="middle" x="307.62" y="-406.64" font-family="Helvetica,sans-Serif" font-size="10.00">ResTIMG</text>
</a>
</g>
</g>
<!-- Node14&#45;&gt;Node12 -->
<g id="edge13_Node000012_Node000014" class="edge">
<title>Node14&#45;&gt;Node12</title>
<g id="a_edge13_Node000012_Node000014"><a xlink:title=" ">
<path fill="none" stroke="#9a32cd" stroke-dasharray="5,2" d="M348.22,-410.52C388.43,-410.52 449.96,-410.52 487.51,-410.52"/>
<polygon fill="#9a32cd" stroke="#9a32cd" points="348.24,-407.02 338.24,-410.52 348.24,-414.02 348.24,-407.02"/>
</a>
</g>
<text text-anchor="middle" x="406.75" y="-412.27" font-family="Helvetica,sans-Serif" font-size="10.00" fill="grey"> mTexInfo</text>
</g>
<!-- Node15 -->
<g id="Node000015" class="node">
<title>Node15</title>
<g id="a_Node000015"><a xlink:href="classJUTPalette.html" target="_top" xlink:title=" ">
<polygon fill="white" stroke="#666666" points="340.38,-474.14 274.88,-474.14 274.88,-454.89 340.38,-454.89 340.38,-474.14"/>
<text text-anchor="middle" x="307.62" y="-460.64" font-family="Helvetica,sans-Serif" font-size="10.00">JUTPalette</text>
</a>
</g>
</g>
<!-- Node15&#45;&gt;Node1 -->
<g id="edge17_Node000001_Node000015" class="edge">
<title>Node15&#45;&gt;Node1</title>
<g id="a_edge17_Node000001_Node000015"><a xlink:title=" ">
<path fill="none" stroke="#9a32cd" stroke-dasharray="5,2" d="M352.07,-467.64C358.58,-468.01 365.21,-468.32 371.5,-468.52 402.82,-469.51 410.79,-471.31 442,-468.52 450.1,-467.79 451.93,-466.29 460,-465.27 552.11,-453.62 661.13,-447.61 718.06,-445.06"/>
<polygon fill="#9a32cd" stroke="#9a32cd" points="352.3,-464.15 342.1,-467.04 351.87,-471.14 352.3,-464.15"/>
</a>
</g>
<text text-anchor="middle" x="521.25" y="-466.27" font-family="Helvetica,sans-Serif" font-size="10.00" fill="grey"> mPalette</text>
</g>
<!-- Node15&#45;&gt;Node12 -->
<g id="edge14_Node000012_Node000015" class="edge">
<title>Node15&#45;&gt;Node12</title>
<g id="a_edge14_Node000012_Node000015"><a xlink:title=" ">
<path fill="none" stroke="#9a32cd" stroke-dasharray="5,2" d="M351.73,-451.51C358.34,-449.61 365.09,-447.73 371.5,-446.02 411.14,-435.46 457.11,-424.72 487.34,-417.86"/>
<polygon fill="#9a32cd" stroke="#9a32cd" points="350.92,-448.11 342.3,-454.27 352.88,-454.83 350.92,-448.11"/>
</a>
</g>
<text text-anchor="middle" x="406.75" y="-458.52" font-family="Helvetica,sans-Serif" font-size="10.00" fill="grey"> field_0x2c</text>
<text text-anchor="middle" x="406.75" y="-447.27" font-family="Helvetica,sans-Serif" font-size="10.00" fill="grey">mEmbPalette</text>
</g>
<!-- Node16 -->
<g id="Node000016" class="node">
<title>Node16</title>
<g id="a_Node000016"><a xlink:href="struct__GXTlutObj.html" target="_top" xlink:title=" ">
<polygon fill="white" stroke="#666666" points="162.75,-492.14 95.75,-492.14 95.75,-472.89 162.75,-472.89 162.75,-492.14"/>
<text text-anchor="middle" x="129.25" y="-478.64" font-family="Helvetica,sans-Serif" font-size="10.00">_GXTlutObj</text>
</a>
</g>
</g>
<!-- Node16&#45;&gt;Node15 -->
<g id="edge15_Node000015_Node000016" class="edge">
<title>Node16&#45;&gt;Node15</title>
<g id="a_edge15_Node000015_Node000016"><a xlink:title=" ">
<path fill="none" stroke="#9a32cd" stroke-dasharray="5,2" d="M174.42,-478.01C205.58,-474.83 246.6,-470.64 274.63,-467.78"/>
<polygon fill="#9a32cd" stroke="#9a32cd" points="174.11,-474.52 164.52,-479.02 174.82,-481.49 174.11,-474.52"/>
</a>
</g>
<text text-anchor="middle" x="215.25" y="-478.27" font-family="Helvetica,sans-Serif" font-size="10.00" fill="grey"> mTlutObj</text>
</g>
<!-- Node17 -->
<g id="Node000017" class="node">
<title>Node17</title>
<g id="a_Node000017"><a xlink:href="structResTLUT.html" target="_top" xlink:title=" ">
<polygon fill="white" stroke="#666666" points="158.62,-455.14 99.88,-455.14 99.88,-435.89 158.62,-435.89 158.62,-455.14"/>
<text text-anchor="middle" x="129.25" y="-441.64" font-family="Helvetica,sans-Serif" font-size="10.00">ResTLUT</text>
</a>
</g>
</g>
<!-- Node17&#45;&gt;Node15 -->
<g id="edge16_Node000015_Node000017" class="edge">
<title>Node17&#45;&gt;Node15</title>
<g id="a_edge16_Node000015_Node000017"><a xlink:title=" ">
<path fill="none" stroke="#9a32cd" stroke-dasharray="5,2" d="M170.21,-448.36C191.99,-450.06 219.38,-452.43 243.75,-455.27 253.83,-456.44 264.79,-457.97 274.69,-459.44"/>
<polygon fill="#9a32cd" stroke="#9a32cd" points="170.5,-444.87 160.26,-447.6 169.97,-451.85 170.5,-444.87"/>
</a>
</g>
<text text-anchor="middle" x="215.25" y="-456.27" font-family="Helvetica,sans-Serif" font-size="10.00" fill="grey"> mColorTable</text>
</g>
<!-- Node18&#45;&gt;Node1 -->
<g id="edge18_Node000001_Node000018" class="edge">
<title>Node18&#45;&gt;Node1</title>
<g id="a_edge18_Node000001_Node000018"><a xlink:title=" ">
<path fill="none" stroke="#9a32cd" stroke-dasharray="5,2" d="M543.8,-274.59C591.79,-312.59 706.2,-403.19 744.43,-433.47"/>
<polygon fill="#9a32cd" stroke="#9a32cd" points="546.08,-271.92 536.06,-268.46 541.73,-277.41 546.08,-271.92"/>
</a>
</g>
<text text-anchor="middle" x="650.38" y="-395.27" font-family="Helvetica,sans-Serif" font-size="10.00" fill="grey"> mFont</text>
</g>
<!-- Node19&#45;&gt;Node18 -->
<g id="edge19_Node000018_Node000019" class="edge">
<title>Node19&#45;&gt;Node18</title>
<g id="a_edge19_Node000018_Node000019"><a xlink:title=" ">
<path fill="none" stroke="#63b8ff" d="M346.54,-136.86C374.57,-142.13 412.78,-152.14 442,-170.52 474.85,-191.18 502.24,-229.44 514.03,-247.54"/>
<polygon fill="#63b8ff" stroke="#63b8ff" points="347.15,-133.42 336.69,-135.15 345.94,-140.31 347.15,-133.42"/>
</a>
</g>
</g>
<!-- Node20 -->
<g id="Node000020" class="node">
<title>Node20</title>
<g id="a_Node000020"><a xlink:href="structResFONT.html" target="_top" xlink:title=" ">
<polygon fill="white" stroke="#666666" points="337.75,-326.14 277.5,-326.14 277.5,-306.89 337.75,-306.89 337.75,-326.14"/>
<text text-anchor="middle" x="307.62" y="-312.64" font-family="Helvetica,sans-Serif" font-size="10.00">ResFONT</text>
</a>
</g>
</g>
<!-- Node20&#45;&gt;Node18 -->
<g id="edge22_Node000018_Node000020" class="edge">
<title>Node20&#45;&gt;Node18</title>
<g id="a_edge22_Node000018_Node000020"><a xlink:title=" ">
<path fill="none" stroke="#9a32cd" stroke-dasharray="5,2" d="M349.25,-308.85C375.86,-303.47 411.28,-295.62 442,-286.52 460.34,-281.09 480.57,-273.54 495.86,-267.51"/>
<polygon fill="#9a32cd" stroke="#9a32cd" points="348.67,-305.4 339.54,-310.78 350.03,-312.26 348.67,-305.4"/>
</a>
</g>
<text text-anchor="middle" x="406.75" y="-305.27" font-family="Helvetica,sans-Serif" font-size="10.00" fill="grey"> mResFont</text>
</g>
<!-- Node21 -->
<g id="Node000021" class="node">
<title>Node21</title>
<g id="a_Node000021"><a xlink:href="structResFONT_1_1INF1.html" target="_top" xlink:title=" ">
<polygon fill="white" stroke="#666666" points="350.88,-252.14 264.38,-252.14 264.38,-232.89 350.88,-232.89 350.88,-252.14"/>
<text text-anchor="middle" x="307.62" y="-238.64" font-family="Helvetica,sans-Serif" font-size="10.00">ResFONT::INF1</text>
</a>
</g>
</g>
<!-- Node21&#45;&gt;Node18 -->
<g id="edge23_Node000018_Node000021" class="edge">
<title>Node21&#45;&gt;Node18</title>
<g id="a_edge23_Node000018_Node000021"><a xlink:title=" ">
<path fill="none" stroke="#9a32cd" stroke-dasharray="5,2" d="M362.73,-241.37C365.69,-241.33 368.63,-241.3 371.5,-241.27 402.83,-240.96 410.83,-238.07 442,-241.27 456.22,-242.73 471.66,-245.65 485.04,-248.61"/>
<polygon fill="#9a32cd" stroke="#9a32cd" points="362.69,-237.87 352.75,-241.53 362.81,-244.87 362.69,-237.87"/>
</a>
</g>
<text text-anchor="middle" x="406.75" y="-242.27" font-family="Helvetica,sans-Serif" font-size="10.00" fill="grey"> mInf1Ptr</text>
</g>
<!-- Node22 -->
<g id="Node000022" class="node">
<title>Node22</title>
<g id="a_Node000022"><a xlink:href="structResFONT_1_1WID1.html" target="_top" xlink:title=" ">
<polygon fill="white" stroke="#666666" points="352,-215.14 263.25,-215.14 263.25,-195.89 352,-195.89 352,-215.14"/>
<text text-anchor="middle" x="307.62" y="-201.64" font-family="Helvetica,sans-Serif" font-size="10.00">ResFONT::WID1</text>
</a>
</g>
</g>
<!-- Node22&#45;&gt;Node18 -->
<g id="edge24_Node000018_Node000022" class="edge">
<title>Node22&#45;&gt;Node18</title>
<g id="a_edge24_Node000018_Node000022"><a xlink:title=" ">
<path fill="none" stroke="#9a32cd" stroke-dasharray="5,2" d="M363.65,-209.98C387.97,-212.78 416.71,-217.25 442,-224.27 462.62,-229.99 484.99,-239.9 500.51,-247.41"/>
<polygon fill="#9a32cd" stroke="#9a32cd" points="364.29,-206.53 353.97,-208.93 363.53,-213.48 364.29,-206.53"/>
</a>
</g>
<text text-anchor="middle" x="406.75" y="-225.27" font-family="Helvetica,sans-Serif" font-size="10.00" fill="grey"> mpWidthBlocks</text>
</g>
<!-- Node23 -->
<g id="Node000023" class="node">
<title>Node23</title>
<g id="a_Node000023"><a xlink:href="structResFONT_1_1GLY1.html" target="_top" xlink:title=" ">
<polygon fill="white" stroke="#666666" points="352.75,-178.14 262.5,-178.14 262.5,-158.89 352.75,-158.89 352.75,-178.14"/>
<text text-anchor="middle" x="307.62" y="-164.64" font-family="Helvetica,sans-Serif" font-size="10.00">ResFONT::GLY1</text>
</a>
</g>
</g>
<!-- Node23&#45;&gt;Node18 -->
<g id="edge25_Node000018_Node000023" class="edge">
<title>Node23&#45;&gt;Node18</title>
<g id="a_edge25_Node000018_Node000023"><a xlink:title=" ">
<path fill="none" stroke="#9a32cd" stroke-dasharray="5,2" d="M364.55,-173.74C389.15,-177.53 417.87,-184.06 442,-195.27 470.34,-208.44 497.51,-233.86 511.15,-247.8"/>
<polygon fill="#9a32cd" stroke="#9a32cd" points="365.1,-170.28 354.71,-172.35 364.12,-177.22 365.1,-170.28"/>
</a>
</g>
<text text-anchor="middle" x="406.75" y="-196.27" font-family="Helvetica,sans-Serif" font-size="10.00" fill="grey"> mpGlyphBlocks</text>
</g>
<!-- Node24 -->
<g id="Node000024" class="node">
<title>Node24</title>
<g id="a_Node000024"><a xlink:href="structResFONT_1_1MAP1.html" target="_top" xlink:title=" ">
<polygon fill="white" stroke="#666666" points="353.5,-289.14 261.75,-289.14 261.75,-269.89 353.5,-269.89 353.5,-289.14"/>
<text text-anchor="middle" x="307.62" y="-275.64" font-family="Helvetica,sans-Serif" font-size="10.00">ResFONT::MAP1</text>
</a>
</g>
</g>
<!-- Node24&#45;&gt;Node18 -->
<g id="edge26_Node000018_Node000024" class="edge">
<title>Node24&#45;&gt;Node18</title>
<g id="a_edge26_Node000018_Node000024"><a xlink:title=" ">
<path fill="none" stroke="#9a32cd" stroke-dasharray="5,2" d="M364.75,-273.68C403.03,-269.7 452.55,-264.56 485.3,-261.15"/>
<polygon fill="#9a32cd" stroke="#9a32cd" points="364.85,-270.15 355.27,-274.67 365.58,-277.12 364.85,-270.15"/>
</a>
</g>
<text text-anchor="middle" x="406.75" y="-273.27" font-family="Helvetica,sans-Serif" font-size="10.00" fill="grey"> mpMapBlocks</text>
</g>
</g>
</svg>

<g id="navigator" transform="translate(0 0)" fill="#404254">
  <rect fill="#f2f5e9" fill-opacity="0.5" stroke="#606060" stroke-width=".5" x="0" y="0" width="60" height="60"/>
  <use id="zoomplus" xlink:href="#zoomPlus" x="17" y="9" onmousedown="handleZoom(evt,'in')"/>
  <use id="zoomminus" xlink:href="#zoomMin" x="42" y="9" onmousedown="handleZoom(evt,'out')"/>
  <use id="reset" xlink:href="#resetDef" x="30" y="36" onmousedown="handleReset()"/>
   <use id="arrowup" xlink:href="#arrowUp" x="0" y="0" onmousedown="handlePan(0,-1)"/>
  <use id="arrowright" xlink:href="#arrowRight" x="0" y="0" onmousedown="handlePan(1,0)"/>
  <use id="arrowdown" xlink:href="#arrowDown" x="0" y="0" onmousedown="handlePan(0,1)"/>
  <use id="arrowleft" xlink:href="#arrowLeft" x="0" y="0" onmousedown="handlePan(-1,0)"/>
</g>
<svg viewBox="0 0 15 15" width="100%" height="30px" preserveAspectRatio="xMaxYMin meet">
 <g id="arrow_out" transform="scale(0.3 0.3)">
  <a xlink:href="classJ2DTevBlock1__coll__graph_org.svg" target="_base">
   <rect id="button" ry="5" rx="5" y="6" x="6" height="38" width="38"
        fill="#f2f5e9" fill-opacity="0.5" stroke="#606060" stroke-width="1.0"/>
   <path id="arrow"
     d="M 11.500037,31.436501 C 11.940474,20.09759 22.043105,11.32322 32.158766,21.979434 L 37.068811,17.246167 C 37.068811,17.246167 37.088388,32 37.088388,32 L 22.160133,31.978069 C 22.160133,31.978069 26.997745,27.140456 26.997745,27.140456 C 18.528582,18.264221 13.291696,25.230495 11.500037,31.436501 z"
     style="fill:#404040;"/>
  </a>
 </g>
</svg>

<style type='text/css'>
<![CDATA[
[data-mouse-over-selected='false'] { opacity: 0.7; }
[data-mouse-over-selected='true']  { opacity: 1.0; }
]]>
</style>
<script type="application/ecmascript"><![CDATA[
document.addEventListener('DOMContentLoaded', (event) => {
  highlightEdges();
  highlightAdjacentNodes();
});
]]></script>
</svg>
