<?xml version="1.0" encoding="UTF-8" standalone="no"?>
<!DOCTYPE svg PUBLIC "-//W3C//DTD SVG 1.1//EN"
 "http://www.w3.org/Graphics/SVG/1.1/DTD/svg11.dtd">
<!-- Generated by graphviz version 9.0.0 (20230911.1827)
 -->
<!-- Title: CPaneMgrAlphaMorf Pages: 1 -->
<svg width="1552pt" height="578pt"
 viewBox="0.00 0.00 1551.50 578.34" xmlns="http://www.w3.org/2000/svg" xmlns:xlink="http://www.w3.org/1999/xlink">
<g id="graph0" class="graph" transform="scale(1 1) rotate(0) translate(4 574.34)">
<title>CPaneMgrAlphaMorf</title>
<!-- Node1 -->
<g id="Node000001" class="node">
<title>Node1</title>
<g id="a_Node000001"><a xlink:title=" ">
<polygon fill="#999999" stroke="#666666" points="1543.5,-459.34 1437.5,-459.34 1437.5,-440.09 1543.5,-440.09 1543.5,-459.34"/>
<text text-anchor="middle" x="1490.5" y="-445.84" font-family="Helvetica,sans-Serif" font-size="10.00">CPaneMgrAlphaMorf</text>
</a>
</g>
</g>
<!-- Node2 -->
<g id="Node000002" class="node">
<title>Node2</title>
<g id="a_Node000002"><a xlink:href="classCPaneMgrAlpha.html" target="_top" xlink:title=" ">
<polygon fill="white" stroke="#666666" points="1399.38,-459.34 1312.88,-459.34 1312.88,-440.09 1399.38,-440.09 1399.38,-459.34"/>
<text text-anchor="middle" x="1356.12" y="-445.84" font-family="Helvetica,sans-Serif" font-size="10.00">CPaneMgrAlpha</text>
</a>
</g>
</g>
<!-- Node2&#45;&gt;Node1 -->
<g id="edge1_Node000001_Node000002" class="edge">
<title>Node2&#45;&gt;Node1</title>
<g id="a_edge1_Node000001_Node000002"><a xlink:title=" ">
<path fill="none" stroke="#63b8ff" d="M1411.22,-449.71C1419.81,-449.71 1428.68,-449.71 1437.23,-449.71"/>
<polygon fill="#63b8ff" stroke="#63b8ff" points="1411.25,-446.22 1401.25,-449.71 1411.25,-453.22 1411.25,-446.22"/>
</a>
</g>
</g>
<!-- Node3 -->
<g id="Node000003" class="node">
<title>Node3</title>
<g id="a_Node000003"><a xlink:href="classJ2DPane.html" target="_top" xlink:title=" ">
<polygon fill="white" stroke="#666666" points="969.12,-519.34 913.38,-519.34 913.38,-500.09 969.12,-500.09 969.12,-519.34"/>
<text text-anchor="middle" x="941.25" y="-505.84" font-family="Helvetica,sans-Serif" font-size="10.00">J2DPane</text>
</a>
</g>
</g>
<!-- Node3&#45;&gt;Node2 -->
<g id="edge2_Node000002_Node000003" class="edge">
<title>Node3&#45;&gt;Node2</title>
<g id="a_edge2_Node000002_Node000003"><a xlink:title=" ">
<path fill="none" stroke="#9a32cd" stroke-dasharray="5,2" d="M980.43,-504.17C1057.6,-492.95 1231.63,-467.66 1312.42,-455.92"/>
<polygon fill="#9a32cd" stroke="#9a32cd" points="980.23,-500.66 970.84,-505.56 981.24,-507.59 980.23,-500.66"/>
</a>
</g>
<text text-anchor="middle" x="1152.62" y="-485.46" font-family="Helvetica,sans-Serif" font-size="10.00" fill="grey"> mPane</text>
</g>
<!-- Node4 -->
<g id="Node000004" class="node">
<title>Node4</title>
<g id="a_Node000004"><a xlink:href="structJGeometry_1_1TBox2.html" target="_top" xlink:title=" ">
<polygon fill="white" stroke="#666666" points="711.75,-473.34 586.25,-473.34 586.25,-454.09 711.75,-454.09 711.75,-473.34"/>
<text text-anchor="middle" x="649" y="-459.84" font-family="Helvetica,sans-Serif" font-size="10.00">JGeometry::TBox2&lt; f32 &gt;</text>
</a>
</g>
</g>
<!-- Node4&#45;&gt;Node3 -->
<g id="edge3_Node000003_Node000004" class="edge">
<title>Node4&#45;&gt;Node3</title>
<g id="a_edge3_Node000003_Node000004"><a xlink:title=" ">
<path fill="none" stroke="#9a32cd" stroke-dasharray="5,2" d="M723.31,-452.81C763.61,-449.26 814.08,-448.82 857.5,-460.71 885.04,-468.26 912.71,-487.59 928.05,-499.59"/>
<polygon fill="#9a32cd" stroke="#9a32cd" points="723.09,-449.32 713.47,-453.77 723.77,-456.29 723.09,-449.32"/>
</a>
</g>
<text text-anchor="middle" x="793.62" y="-496.21" font-family="Helvetica,sans-Serif" font-size="10.00" fill="grey"> mBounds</text>
<text text-anchor="middle" x="793.62" y="-484.96" font-family="Helvetica,sans-Serif" font-size="10.00" fill="grey">mClipRect</text>
<text text-anchor="middle" x="793.62" y="-473.71" font-family="Helvetica,sans-Serif" font-size="10.00" fill="grey">mGlobalBounds</text>
<text text-anchor="middle" x="793.62" y="-462.46" font-family="Helvetica,sans-Serif" font-size="10.00" fill="grey">static_mBounds</text>
</g>
<!-- Node5 -->
<g id="Node000005" class="node">
<title>Node5</title>
<g id="a_Node000005"><a xlink:href="structJGeometry_1_1TBox.html" target="_top" xlink:title=" ">
<polygon fill="white" stroke="#666666" points="424.75,-473.34 312,-473.34 312,-454.09 424.75,-454.09 424.75,-473.34"/>
<text text-anchor="middle" x="368.38" y="-459.84" font-family="Helvetica,sans-Serif" font-size="10.00">JGeometry::TBox&lt; T &gt;</text>
</a>
</g>
</g>
<!-- Node5&#45;&gt;Node4 -->
<g id="edge4_Node000004_Node000005" class="edge">
<title>Node5&#45;&gt;Node4</title>
<g id="a_edge4_Node000004_Node000005"><a xlink:title=" ">
<path fill="none" stroke="#63b8ff" d="M436.34,-463.71C481.87,-463.71 541.66,-463.71 586.08,-463.71"/>
<polygon fill="#63b8ff" stroke="#63b8ff" points="436.6,-460.22 426.6,-463.71 436.6,-467.22 436.6,-460.22"/>
</a>
</g>
</g>
<!-- Node6 -->
<g id="Node000006" class="node">
<title>Node6</title>
<g id="a_Node000006"><a xlink:href="classJSUTree.html" target="_top" xlink:title=" ">
<polygon fill="white" stroke="#666666" points="704.62,-570.34 593.38,-570.34 593.38,-551.09 704.62,-551.09 704.62,-570.34"/>
<text text-anchor="middle" x="649" y="-556.84" font-family="Helvetica,sans-Serif" font-size="10.00">JSUTree&lt; J2DPane &gt;</text>
</a>
</g>
</g>
<!-- Node6&#45;&gt;Node3 -->
<g id="edge5_Node000003_Node000006" class="edge">
<title>Node6&#45;&gt;Node3</title>
<g id="a_edge5_Node000003_Node000006"><a xlink:title=" ">
<path fill="none" stroke="#9a32cd" stroke-dasharray="5,2" d="M715.88,-550.61C756.73,-544.18 810.25,-535.44 857.5,-526.71 876.11,-523.28 896.97,-518.99 913.1,-515.58"/>
<polygon fill="#9a32cd" stroke="#9a32cd" points="715.55,-547.12 706.21,-552.13 716.63,-554.04 715.55,-547.12"/>
</a>
</g>
<text text-anchor="middle" x="793.62" y="-548.46" font-family="Helvetica,sans-Serif" font-size="10.00" fill="grey"> mPaneTree</text>
</g>
<!-- Node7 -->
<g id="Node000007" class="node">
<title>Node7</title>
<g id="a_Node000007"><a xlink:href="classJSUList.html" target="_top" xlink:title=" ">
<polygon fill="white" stroke="#666666" points="294,-567.34 219.5,-567.34 219.5,-548.09 294,-548.09 294,-567.34"/>
<text text-anchor="middle" x="256.75" y="-553.84" font-family="Helvetica,sans-Serif" font-size="10.00">JSUList&lt; T &gt;</text>
</a>
</g>
</g>
<!-- Node7&#45;&gt;Node6 -->
<g id="edge6_Node000006_Node000007" class="edge">
<title>Node7&#45;&gt;Node6</title>
<g id="a_edge6_Node000006_Node000007"><a xlink:title=" ">
<path fill="none" stroke="#63b8ff" d="M305.31,-559.03C342.67,-559.99 396.03,-561.21 442.75,-561.71 498.52,-562.32 512.47,-562.06 568.25,-561.71 576.28,-561.66 584.77,-561.59 593.09,-561.49"/>
<polygon fill="#63b8ff" stroke="#63b8ff" points="305.85,-555.54 295.77,-558.78 305.67,-562.54 305.85,-555.54"/>
</a>
</g>
</g>
<!-- Node8 -->
<g id="Node000008" class="node">
<title>Node8</title>
<g id="a_Node000008"><a xlink:href="classJSUPtrList.html" target="_top" xlink:title=" ">
<polygon fill="white" stroke="#666666" points="64.75,-392.34 0,-392.34 0,-373.09 64.75,-373.09 64.75,-392.34"/>
<text text-anchor="middle" x="32.38" y="-378.84" font-family="Helvetica,sans-Serif" font-size="10.00">JSUPtrList</text>
</a>
</g>
</g>
<!-- Node8&#45;&gt;Node7 -->
<g id="edge7_Node000007_Node000008" class="edge">
<title>Node8&#45;&gt;Node7</title>
<g id="a_edge7_Node000007_Node000008"><a xlink:title=" ">
<path fill="none" stroke="#63b8ff" d="M49.29,-401.37C68.25,-422.94 101.53,-458.82 134.5,-484.71 167.74,-510.82 211.04,-534.8 235.89,-547.73"/>
<polygon fill="#63b8ff" stroke="#63b8ff" points="52.05,-399.21 42.85,-393.95 46.76,-403.79 52.05,-399.21"/>
</a>
</g>
</g>
<!-- Node9 -->
<g id="Node000009" class="node">
<title>Node9</title>
<g id="a_Node000009"><a xlink:href="classJSUPtrLink.html" target="_top" xlink:title=" ">
<polygon fill="white" stroke="#666666" points="201.5,-435.34 134.5,-435.34 134.5,-416.09 201.5,-416.09 201.5,-435.34"/>
<text text-anchor="middle" x="168" y="-421.84" font-family="Helvetica,sans-Serif" font-size="10.00">JSUPtrLink</text>
</a>
</g>
</g>
<!-- Node8&#45;&gt;Node9 -->
<g id="edge9_Node000009_Node000008" class="edge">
<title>Node8&#45;&gt;Node9</title>
<g id="a_edge9_Node000009_Node000008"><a xlink:title=" ">
<path fill="none" stroke="#9a32cd" stroke-dasharray="5,2" d="M61.42,-397.73C68.27,-401.01 75.67,-404.23 82.75,-406.71 99.31,-412.52 118.33,-416.99 134.1,-420.13"/>
<polygon fill="#9a32cd" stroke="#9a32cd" points="63.1,-394.65 52.59,-393.31 59.97,-400.92 63.1,-394.65"/>
</a>
</g>
<text text-anchor="middle" x="99.62" y="-418.46" font-family="Helvetica,sans-Serif" font-size="10.00" fill="grey"> mList</text>
</g>
<!-- Node25 -->
<g id="Node000025" class="node">
<title>Node25</title>
<g id="a_Node000025"><a xlink:href="classJSUList.html" target="_top" xlink:title=" ">
<polygon fill="white" stroke="#666666" points="294,-321.34 219.5,-321.34 219.5,-302.09 294,-302.09 294,-321.34"/>
<text text-anchor="middle" x="256.75" y="-307.84" font-family="Helvetica,sans-Serif" font-size="10.00">JSUList&lt; T &gt;</text>
</a>
</g>
</g>
<!-- Node8&#45;&gt;Node25 -->
<g id="edge36_Node000025_Node000008" class="edge">
<title>Node8&#45;&gt;Node25</title>
<g id="a_edge36_Node000025_Node000008"><a xlink:title=" ">
<path fill="none" stroke="#63b8ff" d="M47.7,-364.3C56.64,-354.16 69.04,-342.33 82.75,-335.71 126.31,-314.71 182.75,-310.56 219.11,-310.42"/>
<polygon fill="#63b8ff" stroke="#63b8ff" points="45.19,-361.84 41.49,-371.77 50.57,-366.32 45.19,-361.84"/>
</a>
</g>
</g>
<!-- Node27 -->
<g id="Node000027" class="node">
<title>Node27</title>
<g id="a_Node000027"><a xlink:href="classJSUList.html" target="_top" xlink:title=" ">
<polygon fill="white" stroke="#666666" points="568.25,-362.34 442.75,-362.34 442.75,-343.09 568.25,-343.09 568.25,-362.34"/>
<text text-anchor="middle" x="505.5" y="-348.84" font-family="Helvetica,sans-Serif" font-size="10.00">JSUList&lt; JKRDisposer &gt;</text>
</a>
</g>
</g>
<!-- Node8&#45;&gt;Node27 -->
<g id="edge40_Node000027_Node000008" class="edge">
<title>Node8&#45;&gt;Node27</title>
<g id="a_edge40_Node000027_Node000008"><a xlink:title=" ">
<path fill="none" stroke="#63b8ff" d="M76.5,-375.45C78.61,-375.18 80.7,-374.93 82.75,-374.71 210.15,-361.11 360.14,-355.83 442.52,-353.85"/>
<polygon fill="#63b8ff" stroke="#63b8ff" points="76.09,-371.97 66.68,-376.83 77.07,-378.9 76.09,-371.97"/>
</a>
</g>
</g>
<!-- Node9&#45;&gt;Node8 -->
<g id="edge8_Node000008_Node000009" class="edge">
<title>Node9&#45;&gt;Node8</title>
<g id="a_edge8_Node000008_Node000009"><a xlink:title=" ">
<path fill="none" stroke="#9a32cd" stroke-dasharray="5,2" d="M150.82,-407.61C141.72,-398.77 129.57,-389.03 116.5,-384.21 100.25,-378.23 80.97,-377.52 65.07,-378.47"/>
<polygon fill="#9a32cd" stroke="#9a32cd" points="148.04,-409.76 157.5,-414.52 153.07,-404.89 148.04,-409.76"/>
</a>
</g>
<text text-anchor="middle" x="99.62" y="-397.71" font-family="Helvetica,sans-Serif" font-size="10.00" fill="grey"> mHead</text>
<text text-anchor="middle" x="99.62" y="-386.46" font-family="Helvetica,sans-Serif" font-size="10.00" fill="grey">mTail</text>
</g>
<!-- Node9&#45;&gt;Node9 -->
<g id="edge10_Node000009_Node000009" class="edge">
<title>Node9&#45;&gt;Node9</title>
<g id="a_edge10_Node000009_Node000009"><a xlink:title=" ">
<path fill="none" stroke="#9a32cd" stroke-dasharray="5,2" d="M155.86,-446.74C157.38,-450.62 161.43,-453.34 168,-453.34 180.02,-453.34 183.59,-444.24 178.7,-435.63"/>
<polygon fill="#9a32cd" stroke="#9a32cd" points="159.3,-447.49 157.1,-437.13 152.35,-446.6 159.3,-447.49"/>
</a>
</g>
<text text-anchor="middle" x="168" y="-466.34" font-family="Helvetica,sans-Serif" font-size="10.00" fill="grey"> mNext</text>
<text text-anchor="middle" x="168" y="-455.09" font-family="Helvetica,sans-Serif" font-size="10.00" fill="grey">mPrev</text>
</g>
<!-- Node10 -->
<g id="Node000010" class="node">
<title>Node10</title>
<g id="a_Node000010"><a xlink:href="classJSULink.html" target="_top" xlink:title=" ">
<polygon fill="white" stroke="#666666" points="406.75,-547.34 330,-547.34 330,-528.09 406.75,-528.09 406.75,-547.34"/>
<text text-anchor="middle" x="368.38" y="-533.84" font-family="Helvetica,sans-Serif" font-size="10.00">JSULink&lt; T &gt;</text>
</a>
</g>
</g>
<!-- Node9&#45;&gt;Node10 -->
<g id="edge12_Node000010_Node000009" class="edge">
<title>Node9&#45;&gt;Node10</title>
<g id="a_edge12_Node000010_Node000009"><a xlink:title=" ">
<path fill="none" stroke="#63b8ff" d="M190.68,-442.65C217.79,-463.16 266.21,-497.71 312,-519.71 318.2,-522.69 325.01,-525.36 331.67,-527.67"/>
<polygon fill="#63b8ff" stroke="#63b8ff" points="192.97,-439.99 182.9,-436.69 188.72,-445.55 192.97,-439.99"/>
</a>
</g>
</g>
<!-- Node16 -->
<g id="Node000016" class="node">
<title>Node16</title>
<g id="a_Node000016"><a xlink:href="classJSULink.html" target="_top" xlink:title=" ">
<polygon fill="white" stroke="#666666" points="857.5,-435.34 729.75,-435.34 729.75,-416.09 857.5,-416.09 857.5,-435.34"/>
<text text-anchor="middle" x="793.62" y="-421.84" font-family="Helvetica,sans-Serif" font-size="10.00">JSULink&lt; JKRDisposer &gt;</text>
</a>
</g>
</g>
<!-- Node9&#45;&gt;Node16 -->
<g id="edge20_Node000016_Node000009" class="edge">
<title>Node9&#45;&gt;Node16</title>
<g id="a_edge20_Node000016_Node000009"><a xlink:title=" ">
<path fill="none" stroke="#63b8ff" d="M213.14,-425.71C321.96,-425.71 603.37,-425.71 729.66,-425.71"/>
<polygon fill="#63b8ff" stroke="#63b8ff" points="213.16,-422.22 203.16,-425.71 213.16,-429.22 213.16,-422.22"/>
</a>
</g>
</g>
<!-- Node26 -->
<g id="Node000026" class="node">
<title>Node26</title>
<g id="a_Node000026"><a xlink:href="classJSULink.html" target="_top" xlink:title=" ">
<polygon fill="white" stroke="#666666" points="406.75,-397.34 330,-397.34 330,-378.09 406.75,-378.09 406.75,-397.34"/>
<text text-anchor="middle" x="368.38" y="-383.84" font-family="Helvetica,sans-Serif" font-size="10.00">JSULink&lt; T &gt;</text>
</a>
</g>
</g>
<!-- Node9&#45;&gt;Node26 -->
<g id="edge38_Node000026_Node000009" class="edge">
<title>Node9&#45;&gt;Node26</title>
<g id="a_edge38_Node000026_Node000009"><a xlink:title=" ">
<path fill="none" stroke="#63b8ff" d="M212.89,-413.24C215.12,-412.7 217.33,-412.19 219.5,-411.71 256.72,-403.56 299.77,-396.88 329.78,-392.66"/>
<polygon fill="#63b8ff" stroke="#63b8ff" points="212.03,-409.84 203.21,-415.7 213.76,-416.63 212.03,-409.84"/>
</a>
</g>
</g>
<!-- Node10&#45;&gt;Node6 -->
<g id="edge11_Node000006_Node000010" class="edge">
<title>Node10&#45;&gt;Node6</title>
<g id="a_edge11_Node000006_Node000010"><a xlink:title=" ">
<path fill="none" stroke="#63b8ff" d="M418.46,-541.77C467.3,-545.8 542.1,-551.97 592.94,-556.17"/>
<polygon fill="#63b8ff" stroke="#63b8ff" points="419,-538.3 408.75,-540.97 418.43,-545.28 419,-538.3"/>
</a>
</g>
</g>
<!-- Node11 -->
<g id="Node000011" class="node">
<title>Node11</title>
<g id="a_Node000011"><a xlink:href="classJ2DAnmTransform.html" target="_top" xlink:title=" ">
<polygon fill="white" stroke="#666666" points="697.88,-522.34 600.12,-522.34 600.12,-503.09 697.88,-503.09 697.88,-522.34"/>
<text text-anchor="middle" x="649" y="-508.84" font-family="Helvetica,sans-Serif" font-size="10.00">J2DAnmTransform</text>
</a>
</g>
</g>
<!-- Node11&#45;&gt;Node3 -->
<g id="edge13_Node000003_Node000011" class="edge">
<title>Node11&#45;&gt;Node3</title>
<g id="a_edge13_Node000003_Node000011"><a xlink:title=" ">
<path fill="none" stroke="#9a32cd" stroke-dasharray="5,2" d="M709.47,-512.1C771.67,-511.46 866.57,-510.48 912.89,-510"/>
<polygon fill="#9a32cd" stroke="#9a32cd" points="709.73,-508.6 699.77,-512.2 709.8,-515.6 709.73,-508.6"/>
</a>
</g>
<text text-anchor="middle" x="793.62" y="-513.46" font-family="Helvetica,sans-Serif" font-size="10.00" fill="grey"> mTransform</text>
</g>
<!-- Node12 -->
<g id="Node000012" class="node">
<title>Node12</title>
<g id="a_Node000012"><a xlink:href="structJ2DAnmBase.html" target="_top" xlink:title=" ">
<polygon fill="white" stroke="#666666" points="406.38,-510.34 330.38,-510.34 330.38,-491.09 406.38,-491.09 406.38,-510.34"/>
<text text-anchor="middle" x="368.38" y="-496.84" font-family="Helvetica,sans-Serif" font-size="10.00">J2DAnmBase</text>
</a>
</g>
</g>
<!-- Node12&#45;&gt;Node11 -->
<g id="edge14_Node000011_Node000012" class="edge">
<title>Node12&#45;&gt;Node11</title>
<g id="a_edge14_Node000011_Node000012"><a xlink:title=" ">
<path fill="none" stroke="#63b8ff" d="M418.04,-502.81C469.08,-505.01 548.82,-508.44 599.72,-510.64"/>
<polygon fill="#63b8ff" stroke="#63b8ff" points="418.32,-499.32 408.17,-502.39 418.01,-506.31 418.32,-499.32"/>
</a>
</g>
</g>
<!-- Node13 -->
<g id="Node000013" class="node">
<title>Node13</title>
<g id="a_Node000013"><a xlink:href="classJKRExpHeap.html" target="_top" xlink:title=" ">
<polygon fill="white" stroke="#666666" points="1189.5,-346.34 1115.75,-346.34 1115.75,-327.09 1189.5,-327.09 1189.5,-346.34"/>
<text text-anchor="middle" x="1152.62" y="-332.84" font-family="Helvetica,sans-Serif" font-size="10.00">JKRExpHeap</text>
</a>
</g>
</g>
<!-- Node13&#45;&gt;Node2 -->
<g id="edge15_Node000002_Node000013" class="edge">
<title>Node13&#45;&gt;Node2</title>
<g id="a_edge15_Node000002_Node000013"><a xlink:title=" ">
<path fill="none" stroke="#9a32cd" stroke-dasharray="5,2" d="M1181.36,-352.27C1223.39,-375.84 1302.07,-419.96 1337.28,-439.71"/>
<polygon fill="#9a32cd" stroke="#9a32cd" points="1183.26,-349.32 1172.83,-347.48 1179.84,-355.43 1183.26,-349.32"/>
</a>
</g>
<text text-anchor="middle" x="1250.62" y="-415.46" font-family="Helvetica,sans-Serif" font-size="10.00" fill="grey"> heap</text>
</g>
<!-- Node14 -->
<g id="Node000014" class="node">
<title>Node14</title>
<g id="a_Node000014"><a xlink:href="structJKRHeap.html" target="_top" xlink:title=" ">
<polygon fill="white" stroke="#666666" points="970.25,-351.34 912.25,-351.34 912.25,-332.09 970.25,-332.09 970.25,-351.34"/>
<text text-anchor="middle" x="941.25" y="-337.84" font-family="Helvetica,sans-Serif" font-size="10.00">JKRHeap</text>
</a>
</g>
</g>
<!-- Node14&#45;&gt;Node13 -->
<g id="edge16_Node000013_Node000014" class="edge">
<title>Node14&#45;&gt;Node13</title>
<g id="a_edge16_Node000013_Node000014"><a xlink:title=" ">
<path fill="none" stroke="#63b8ff" d="M981.75,-340.77C1020.2,-339.85 1078.14,-338.47 1115.42,-337.58"/>
<polygon fill="#63b8ff" stroke="#63b8ff" points="981.91,-337.27 972,-341 982.08,-344.26 981.91,-337.27"/>
</a>
</g>
</g>
<!-- Node14&#45;&gt;Node14 -->
<g id="edge41_Node000014_Node000014" class="edge">
<title>Node14&#45;&gt;Node14</title>
<g id="a_edge41_Node000014_Node000014"><a xlink:title=" ">
<path fill="none" stroke="#9a32cd" stroke-dasharray="5,2" d="M919.93,-362.74C922.6,-366.62 929.7,-369.34 941.25,-369.34 962.37,-369.34 968.63,-360.24 960.06,-351.63"/>
<polygon fill="#9a32cd" stroke="#9a32cd" points="923.32,-363.63 922.11,-353.1 916.49,-362.08 923.32,-363.63"/>
</a>
</g>
<text text-anchor="middle" x="941.25" y="-404.84" font-family="Helvetica,sans-Serif" font-size="10.00" fill="grey"> sCurrentHeap</text>
<text text-anchor="middle" x="941.25" y="-393.59" font-family="Helvetica,sans-Serif" font-size="10.00" fill="grey">sRootHeap</text>
<text text-anchor="middle" x="941.25" y="-382.34" font-family="Helvetica,sans-Serif" font-size="10.00" fill="grey">sRootHeap2</text>
<text text-anchor="middle" x="941.25" y="-371.09" font-family="Helvetica,sans-Serif" font-size="10.00" fill="grey">sSystemHeap</text>
</g>
<!-- Node15 -->
<g id="Node000015" class="node">
<title>Node15</title>
<g id="a_Node000015"><a xlink:href="classJKRDisposer.html" target="_top" xlink:title=" ">
<polygon fill="white" stroke="#666666" points="1189.12,-404.34 1116.12,-404.34 1116.12,-385.09 1189.12,-385.09 1189.12,-404.34"/>
<text text-anchor="middle" x="1152.62" y="-390.84" font-family="Helvetica,sans-Serif" font-size="10.00">JKRDisposer</text>
</a>
</g>
</g>
<!-- Node14&#45;&gt;Node15 -->
<g id="edge18_Node000015_Node000014" class="edge">
<title>Node14&#45;&gt;Node15</title>
<g id="a_edge18_Node000015_Node000014"><a xlink:title=" ">
<path fill="none" stroke="#9a32cd" stroke-dasharray="5,2" d="M975.66,-355.85C990.55,-361.73 1008.44,-368.22 1025,-372.71 1055.15,-380.9 1090.19,-386.72 1115.76,-390.3"/>
<polygon fill="#9a32cd" stroke="#9a32cd" points="977.4,-352.78 966.81,-352.29 974.78,-359.27 977.4,-352.78"/>
</a>
</g>
<text text-anchor="middle" x="1061.38" y="-389.46" font-family="Helvetica,sans-Serif" font-size="10.00" fill="grey"> mHeap</text>
</g>
<!-- Node15&#45;&gt;Node14 -->
<g id="edge17_Node000014_Node000015" class="edge">
<title>Node15&#45;&gt;Node14</title>
<g id="a_edge17_Node000014_Node000015"><a xlink:title=" ">
<path fill="none" stroke="#63b8ff" d="M1114.69,-381.01C1109.05,-379.12 1103.27,-377.29 1097.75,-375.71 1053.89,-363.24 1001.97,-352.72 970.6,-346.82"/>
<polygon fill="#63b8ff" stroke="#63b8ff" points="1113.23,-384.21 1123.82,-384.19 1115.53,-377.6 1113.23,-384.21"/>
</a>
</g>
</g>
<!-- Node16&#45;&gt;Node15 -->
<g id="edge19_Node000015_Node000016" class="edge">
<title>Node16&#45;&gt;Node15</title>
<g id="a_edge19_Node000015_Node000016"><a xlink:title=" ">
<path fill="none" stroke="#9a32cd" stroke-dasharray="5,2" d="M869.47,-428.44C910.24,-429.06 961.51,-428.45 1007,-423.71 1044.44,-419.82 1086.57,-410.84 1115.66,-403.89"/>
<polygon fill="#9a32cd" stroke="#9a32cd" points="869.57,-424.94 859.51,-428.26 869.44,-431.94 869.57,-424.94"/>
</a>
</g>
<text text-anchor="middle" x="941.25" y="-430.46" font-family="Helvetica,sans-Serif" font-size="10.00" fill="grey"> mLink</text>
</g>
<!-- Node17 -->
<g id="Node000017" class="node">
<title>Node17</title>
<g id="a_Node000017"><a xlink:href="structOSMutex.html" target="_top" xlink:title=" ">
<polygon fill="white" stroke="#666666" points="677.25,-158.34 620.75,-158.34 620.75,-139.09 677.25,-139.09 677.25,-158.34"/>
<text text-anchor="middle" x="649" y="-144.84" font-family="Helvetica,sans-Serif" font-size="10.00">OSMutex</text>
</a>
</g>
</g>
<!-- Node17&#45;&gt;Node14 -->
<g id="edge21_Node000014_Node000017" class="edge">
<title>Node17&#45;&gt;Node14</title>
<g id="a_edge21_Node000014_Node000017"><a xlink:title=" ">
<path fill="none" stroke="#9a32cd" stroke-dasharray="5,2" d="M663.34,-167.8C677.92,-187.64 702.83,-218.68 729.75,-239.71 780.07,-279.03 805.52,-268.38 857.5,-305.46 866.52,-311.9 865.91,-317.16 875.5,-322.71 886.65,-329.17 900.18,-333.59 911.97,-336.52"/>
<polygon fill="#9a32cd" stroke="#9a32cd" points="666.26,-165.87 657.58,-159.79 660.57,-169.95 666.26,-165.87"/>
</a>
</g>
<text text-anchor="middle" x="793.62" y="-307.46" font-family="Helvetica,sans-Serif" font-size="10.00" fill="grey"> mMutex</text>
</g>
<!-- Node19 -->
<g id="Node000019" class="node">
<title>Node19</title>
<g id="a_Node000019"><a xlink:href="structOSThread.html" target="_top" xlink:title=" ">
<polygon fill="white" stroke="#666666" points="1182.75,-131.34 1122.5,-131.34 1122.5,-112.09 1182.75,-112.09 1182.75,-131.34"/>
<text text-anchor="middle" x="1152.62" y="-117.84" font-family="Helvetica,sans-Serif" font-size="10.00">OSThread</text>
</a>
</g>
</g>
<!-- Node17&#45;&gt;Node19 -->
<g id="edge28_Node000019_Node000017" class="edge">
<title>Node17&#45;&gt;Node19</title>
<g id="a_edge28_Node000019_Node000017"><a xlink:title=" ">
<path fill="none" stroke="#9a32cd" stroke-dasharray="5,2" d="M688.99,-146.62C785.93,-141.4 1036.23,-127.93 1122.15,-123.3"/>
<polygon fill="#9a32cd" stroke="#9a32cd" points="688.99,-143.11 679.2,-147.14 689.37,-150.1 688.99,-143.11"/>
</a>
</g>
<text text-anchor="middle" x="941.25" y="-138.46" font-family="Helvetica,sans-Serif" font-size="10.00" fill="grey"> mutex</text>
</g>
<!-- Node22 -->
<g id="Node000022" class="node">
<title>Node22</title>
<g id="a_Node000022"><a xlink:href="structOSMutexQueue.html" target="_top" xlink:title=" ">
<polygon fill="white" stroke="#666666" points="983.75,-197.34 898.75,-197.34 898.75,-178.09 983.75,-178.09 983.75,-197.34"/>
<text text-anchor="middle" x="941.25" y="-183.84" font-family="Helvetica,sans-Serif" font-size="10.00">OSMutexQueue</text>
</a>
</g>
</g>
<!-- Node17&#45;&gt;Node22 -->
<g id="edge30_Node000022_Node000017" class="edge">
<title>Node17&#45;&gt;Node22</title>
<g id="a_edge30_Node000022_Node000017"><a xlink:title=" ">
<path fill="none" stroke="#9a32cd" stroke-dasharray="5,2" d="M688.6,-155.94C701.64,-158.26 716.3,-160.74 729.75,-162.71 788.19,-171.31 856.09,-178.95 898.62,-183.46"/>
<polygon fill="#9a32cd" stroke="#9a32cd" points="689.57,-152.56 679.11,-154.22 688.33,-159.44 689.57,-152.56"/>
</a>
</g>
<text text-anchor="middle" x="793.62" y="-191.71" font-family="Helvetica,sans-Serif" font-size="10.00" fill="grey"> head</text>
<text text-anchor="middle" x="793.62" y="-180.46" font-family="Helvetica,sans-Serif" font-size="10.00" fill="grey">tail</text>
</g>
<!-- Node23 -->
<g id="Node000023" class="node">
<title>Node23</title>
<g id="a_Node000023"><a xlink:href="structOSMutexLink.html" target="_top" xlink:title=" ">
<polygon fill="white" stroke="#666666" points="978.88,-28.34 903.62,-28.34 903.62,-9.09 978.88,-9.09 978.88,-28.34"/>
<text text-anchor="middle" x="941.25" y="-14.84" font-family="Helvetica,sans-Serif" font-size="10.00">OSMutexLink</text>
</a>
</g>
</g>
<!-- Node17&#45;&gt;Node23 -->
<g id="edge33_Node000023_Node000017" class="edge">
<title>Node17&#45;&gt;Node23</title>
<g id="a_edge33_Node000023_Node000017"><a xlink:title=" ">
<path fill="none" stroke="#9a32cd" stroke-dasharray="5,2" d="M656.05,-127.85C665.95,-98.02 688.74,-44.26 729.75,-21.21 783.92,9.22 858.97,0.33 903.28,-9.07"/>
<polygon fill="#9a32cd" stroke="#9a32cd" points="652.76,-126.64 653.13,-137.23 659.45,-128.72 652.76,-126.64"/>
</a>
</g>
<text text-anchor="middle" x="793.62" y="-34.71" font-family="Helvetica,sans-Serif" font-size="10.00" fill="grey"> next</text>
<text text-anchor="middle" x="793.62" y="-23.46" font-family="Helvetica,sans-Serif" font-size="10.00" fill="grey">prev</text>
</g>
<!-- Node18 -->
<g id="Node000018" class="node">
<title>Node18</title>
<g id="a_Node000018"><a xlink:href="structOSThreadQueue.html" target="_top" xlink:title=" ">
<polygon fill="white" stroke="#666666" points="1400.5,-197.34 1311.75,-197.34 1311.75,-178.09 1400.5,-178.09 1400.5,-197.34"/>
<text text-anchor="middle" x="1356.12" y="-183.84" font-family="Helvetica,sans-Serif" font-size="10.00">OSThreadQueue</text>
</a>
</g>
</g>
<!-- Node18&#45;&gt;Node17 -->
<g id="edge22_Node000017_Node000018" class="edge">
<title>Node18&#45;&gt;Node17</title>
<g id="a_edge22_Node000017_Node000018"><a xlink:title=" ">
<path fill="none" stroke="#9a32cd" stroke-dasharray="5,2" d="M1324.65,-202.21C1314.99,-206.09 1304.12,-209.76 1293.75,-211.71 1256.08,-218.82 1245.83,-212 1207.5,-211.71 995.15,-210.16 931.76,-270.19 729.75,-204.71 701.1,-195.43 673.74,-171.98 659.72,-158.56"/>
<polygon fill="#9a32cd" stroke="#9a32cd" points="1325.74,-205.55 1333.56,-198.4 1322.99,-199.11 1325.74,-205.55"/>
</a>
</g>
<text text-anchor="middle" x="1061.38" y="-227.46" font-family="Helvetica,sans-Serif" font-size="10.00" fill="grey"> queue</text>
</g>
<!-- Node18&#45;&gt;Node19 -->
<g id="edge25_Node000019_Node000018" class="edge">
<title>Node18&#45;&gt;Node19</title>
<g id="a_edge25_Node000019_Node000018"><a xlink:title=" ">
<path fill="none" stroke="#9a32cd" stroke-dasharray="5,2" d="M1338.07,-169.99C1326.6,-159.23 1310.55,-146.25 1293.75,-139.21 1257.79,-124.16 1212.45,-121.06 1183.25,-120.86"/>
<polygon fill="#9a32cd" stroke="#9a32cd" points="1335.54,-172.42 1345.13,-176.93 1340.45,-167.43 1335.54,-172.42"/>
</a>
</g>
<text text-anchor="middle" x="1250.62" y="-152.71" font-family="Helvetica,sans-Serif" font-size="10.00" fill="grey"> join_queue</text>
<text text-anchor="middle" x="1250.62" y="-141.46" font-family="Helvetica,sans-Serif" font-size="10.00" fill="grey">queue</text>
</g>
<!-- Node19&#45;&gt;Node17 -->
<g id="edge31_Node000017_Node000019" class="edge">
<title>Node19&#45;&gt;Node17</title>
<g id="a_edge31_Node000017_Node000019"><a xlink:title=" ">
<path fill="none" stroke="#9a32cd" stroke-dasharray="5,2" d="M1110.69,-119.12C1081.74,-117.41 1042.01,-115.34 1007,-114.46 948.57,-113 933.81,-110.43 875.5,-114.46 810.26,-118.98 794.36,-124.56 729.75,-134.71 712.39,-137.44 692.97,-140.85 677.64,-143.61"/>
<polygon fill="#9a32cd" stroke="#9a32cd" points="1110.3,-122.6 1120.49,-119.7 1110.72,-115.61 1110.3,-122.6"/>
</a>
</g>
<text text-anchor="middle" x="941.25" y="-116.46" font-family="Helvetica,sans-Serif" font-size="10.00" fill="grey"> thread</text>
</g>
<!-- Node19&#45;&gt;Node18 -->
<g id="edge23_Node000018_Node000019" class="edge">
<title>Node19&#45;&gt;Node18</title>
<g id="a_edge23_Node000018_Node000019"><a xlink:title=" ">
<path fill="none" stroke="#9a32cd" stroke-dasharray="5,2" d="M1170.53,-139.57C1180.41,-148.88 1193.63,-159.58 1207.5,-165.71 1240.44,-180.28 1281.13,-185.52 1311.45,-187.26"/>
<polygon fill="#9a32cd" stroke="#9a32cd" points="1173.12,-137.2 1163.55,-132.64 1168.19,-142.17 1173.12,-137.2"/>
</a>
</g>
<text text-anchor="middle" x="1250.62" y="-199.71" font-family="Helvetica,sans-Serif" font-size="10.00" fill="grey"> head</text>
<text text-anchor="middle" x="1250.62" y="-188.46" font-family="Helvetica,sans-Serif" font-size="10.00" fill="grey">tail</text>
</g>
<!-- Node21 -->
<g id="Node000021" class="node">
<title>Node21</title>
<g id="a_Node000021"><a xlink:href="structOSThreadLink.html" target="_top" xlink:title=" ">
<polygon fill="white" stroke="#666666" points="1395.62,-82.34 1316.62,-82.34 1316.62,-63.09 1395.62,-63.09 1395.62,-82.34"/>
<text text-anchor="middle" x="1356.12" y="-68.84" font-family="Helvetica,sans-Serif" font-size="10.00">OSThreadLink</text>
</a>
</g>
</g>
<!-- Node19&#45;&gt;Node21 -->
<g id="edge27_Node000021_Node000019" class="edge">
<title>Node19&#45;&gt;Node21</title>
<g id="a_edge27_Node000021_Node000019"><a xlink:title=" ">
<path fill="none" stroke="#9a32cd" stroke-dasharray="5,2" d="M1163.13,-101.41C1172.04,-85.04 1187.04,-63.15 1207.5,-53.21 1248.78,-33.17 1303.78,-50.29 1333.64,-62.68"/>
<polygon fill="#9a32cd" stroke="#9a32cd" points="1160.02,-99.8 1158.63,-110.3 1166.27,-102.96 1160.02,-99.8"/>
</a>
</g>
<text text-anchor="middle" x="1250.62" y="-66.71" font-family="Helvetica,sans-Serif" font-size="10.00" fill="grey"> next</text>
<text text-anchor="middle" x="1250.62" y="-55.46" font-family="Helvetica,sans-Serif" font-size="10.00" fill="grey">prev</text>
</g>
<!-- Node20 -->
<g id="Node000020" class="node">
<title>Node20</title>
<g id="a_Node000020"><a xlink:href="structOSContext.html" target="_top" xlink:title=" ">
<polygon fill="white" stroke="#666666" points="972.88,-65.34 909.62,-65.34 909.62,-46.09 972.88,-46.09 972.88,-65.34"/>
<text text-anchor="middle" x="941.25" y="-51.84" font-family="Helvetica,sans-Serif" font-size="10.00">OSContext</text>
</a>
</g>
</g>
<!-- Node20&#45;&gt;Node19 -->
<g id="edge24_Node000019_Node000020" class="edge">
<title>Node20&#45;&gt;Node19</title>
<g id="a_edge24_Node000019_Node000020"><a xlink:title=" ">
<path fill="none" stroke="#9a32cd" stroke-dasharray="5,2" d="M984.41,-55.05C1016.7,-56 1061.69,-60.55 1097.75,-76.46 1116.3,-84.65 1133.45,-101.25 1143.21,-111.9"/>
<polygon fill="#9a32cd" stroke="#9a32cd" points="984.7,-51.55 974.64,-54.87 984.57,-58.55 984.7,-51.55"/>
</a>
</g>
<text text-anchor="middle" x="1061.38" y="-78.46" font-family="Helvetica,sans-Serif" font-size="10.00" fill="grey"> context</text>
</g>
<!-- Node21&#45;&gt;Node19 -->
<g id="edge26_Node000019_Node000021" class="edge">
<title>Node21&#45;&gt;Node19</title>
<g id="a_edge26_Node000019_Node000021"><a xlink:title=" ">
<path fill="none" stroke="#9a32cd" stroke-dasharray="5,2" d="M1305.18,-77.7C1276.22,-81.4 1239.31,-87.53 1207.5,-97.21 1195.51,-100.87 1182.71,-106.6 1172.6,-111.61"/>
<polygon fill="#9a32cd" stroke="#9a32cd" points="1305.25,-81.21 1314.75,-76.53 1304.4,-74.27 1305.25,-81.21"/>
</a>
</g>
<text text-anchor="middle" x="1250.62" y="-110.71" font-family="Helvetica,sans-Serif" font-size="10.00" fill="grey"> active_threads_link</text>
<text text-anchor="middle" x="1250.62" y="-99.46" font-family="Helvetica,sans-Serif" font-size="10.00" fill="grey">link</text>
</g>
<!-- Node22&#45;&gt;Node19 -->
<g id="edge29_Node000019_Node000022" class="edge">
<title>Node22&#45;&gt;Node19</title>
<g id="a_edge29_Node000019_Node000022"><a xlink:title=" ">
<path fill="none" stroke="#9a32cd" stroke-dasharray="5,2" d="M995.46,-185.59C1026.36,-182.81 1065.44,-176.57 1097.75,-162.71 1115.03,-155.31 1131.76,-141.14 1141.87,-131.56"/>
<polygon fill="#9a32cd" stroke="#9a32cd" points="995.25,-182.1 985.56,-186.38 995.8,-189.08 995.25,-182.1"/>
</a>
</g>
<text text-anchor="middle" x="1061.38" y="-183.46" font-family="Helvetica,sans-Serif" font-size="10.00" fill="grey"> owned_mutexes</text>
</g>
<!-- Node23&#45;&gt;Node17 -->
<g id="edge32_Node000017_Node000023" class="edge">
<title>Node23&#45;&gt;Node17</title>
<g id="a_edge32_Node000017_Node000023"><a xlink:title=" ">
<path fill="none" stroke="#9a32cd" stroke-dasharray="5,2" d="M892.33,-30.41C886.57,-32.29 880.85,-34.39 875.5,-36.71 866.9,-40.45 866.19,-44.19 857.5,-47.71 803.56,-69.57 781.41,-49.66 729.75,-76.46 699.07,-92.39 671.09,-123.03 657.92,-138.8"/>
<polygon fill="#9a32cd" stroke="#9a32cd" points="893.33,-33.76 901.89,-27.51 891.3,-27.07 893.33,-33.76"/>
</a>
</g>
<text text-anchor="middle" x="793.62" y="-78.46" font-family="Helvetica,sans-Serif" font-size="10.00" fill="grey"> link</text>
</g>
<!-- Node24 -->
<g id="Node000024" class="node">
<title>Node24</title>
<g id="a_Node000024"><a xlink:href="classJSUTree.html" target="_top" xlink:title=" ">
<polygon fill="white" stroke="#666666" points="705.75,-321.34 592.25,-321.34 592.25,-302.09 705.75,-302.09 705.75,-321.34"/>
<text text-anchor="middle" x="649" y="-307.84" font-family="Helvetica,sans-Serif" font-size="10.00">JSUTree&lt; JKRHeap &gt;</text>
</a>
</g>
</g>
<!-- Node24&#45;&gt;Node14 -->
<g id="edge34_Node000014_Node000024" class="edge">
<title>Node24&#45;&gt;Node14</title>
<g id="a_edge34_Node000014_Node000024"><a xlink:title=" ">
<path fill="none" stroke="#9a32cd" stroke-dasharray="5,2" d="M717.33,-318.25C757.94,-322.24 810.71,-327.51 857.5,-332.46 875.61,-334.38 895.94,-336.65 911.92,-338.47"/>
<polygon fill="#9a32cd" stroke="#9a32cd" points="717.74,-314.77 707.45,-317.28 717.06,-321.74 717.74,-314.77"/>
</a>
</g>
<text text-anchor="middle" x="793.62" y="-334.46" font-family="Helvetica,sans-Serif" font-size="10.00" fill="grey"> mChildTree</text>
</g>
<!-- Node25&#45;&gt;Node24 -->
<g id="edge35_Node000024_Node000025" class="edge">
<title>Node25&#45;&gt;Node24</title>
<g id="a_edge35_Node000024_Node000025"><a xlink:title=" ">
<path fill="none" stroke="#63b8ff" d="M305.94,-311.71C378.35,-311.71 514.9,-311.71 591.76,-311.71"/>
<polygon fill="#63b8ff" stroke="#63b8ff" points="305.98,-308.22 295.98,-311.71 305.98,-315.22 305.98,-308.22"/>
</a>
</g>
</g>
<!-- Node26&#45;&gt;Node24 -->
<g id="edge37_Node000024_Node000026" class="edge">
<title>Node26&#45;&gt;Node24</title>
<g id="a_edge37_Node000024_Node000026"><a xlink:title=" ">
<path fill="none" stroke="#63b8ff" d="M418.5,-394.72C461.48,-398.25 523.83,-396.78 568.25,-367.71 581.91,-358.78 573.92,-346.41 586.25,-335.71 593.11,-329.76 601.62,-325.2 610.11,-321.73"/>
<polygon fill="#63b8ff" stroke="#63b8ff" points="418.98,-391.26 408.7,-393.79 418.32,-398.22 418.98,-391.26"/>
</a>
</g>
</g>
<!-- Node27&#45;&gt;Node14 -->
<g id="edge39_Node000014_Node000027" class="edge">
<title>Node27&#45;&gt;Node14</title>
<g id="a_edge39_Node000014_Node000027"><a xlink:title=" ">
<path fill="none" stroke="#9a32cd" stroke-dasharray="5,2" d="M579.89,-350.85C677.43,-348.38 845.2,-344.13 911.8,-342.44"/>
<polygon fill="#9a32cd" stroke="#9a32cd" points="580.07,-347.35 570.16,-351.1 580.24,-354.35 580.07,-347.35"/>
</a>
</g>
<text text-anchor="middle" x="649" y="-352.46" font-family="Helvetica,sans-Serif" font-size="10.00" fill="grey"> mDisposerList</text>
</g>
<!-- Node28 -->
<g id="Node000028" class="node">
<title>Node28</title>
<g id="a_Node000028"><a xlink:href="classJKRExpHeap_1_1CMemBlock.html" target="_top" xlink:title=" ">
<polygon fill="white" stroke="#666666" points="1007,-273.34 875.5,-273.34 875.5,-254.09 1007,-254.09 1007,-273.34"/>
<text text-anchor="middle" x="941.25" y="-259.84" font-family="Helvetica,sans-Serif" font-size="10.00">JKRExpHeap::CMemBlock</text>
</a>
</g>
</g>
<!-- Node28&#45;&gt;Node13 -->
<g id="edge42_Node000013_Node000028" class="edge">
<title>Node28&#45;&gt;Node13</title>
<g id="a_edge42_Node000013_Node000028"><a xlink:title=" ">
<path fill="none" stroke="#9a32cd" stroke-dasharray="5,2" d="M1018.78,-268.05C1044.77,-271.7 1073.39,-278.2 1097.75,-289.71 1116.38,-298.52 1133.5,-315.67 1143.24,-326.64"/>
<polygon fill="#9a32cd" stroke="#9a32cd" points="1019.29,-264.59 1008.93,-266.81 1018.41,-271.54 1019.29,-264.59"/>
</a>
</g>
<text text-anchor="middle" x="1061.38" y="-325.21" font-family="Helvetica,sans-Serif" font-size="10.00" fill="grey"> mHeadFreeList</text>
<text text-anchor="middle" x="1061.38" y="-313.96" font-family="Helvetica,sans-Serif" font-size="10.00" fill="grey">mHeadUsedList</text>
<text text-anchor="middle" x="1061.38" y="-302.71" font-family="Helvetica,sans-Serif" font-size="10.00" fill="grey">mTailFreeList</text>
<text text-anchor="middle" x="1061.38" y="-291.46" font-family="Helvetica,sans-Serif" font-size="10.00" fill="grey">mTailUsedList</text>
</g>
<!-- Node28&#45;&gt;Node28 -->
<g id="edge43_Node000028_Node000028" class="edge">
<title>Node28&#45;&gt;Node28</title>
<g id="a_edge43_Node000028_Node000028"><a xlink:title=" ">
<path fill="none" stroke="#9a32cd" stroke-dasharray="5,2" d="M919.93,-284.74C922.6,-288.62 929.7,-291.34 941.25,-291.34 962.37,-291.34 968.63,-282.24 960.06,-273.63"/>
<polygon fill="#9a32cd" stroke="#9a32cd" points="923.32,-285.63 922.11,-275.1 916.49,-284.08 923.32,-285.63"/>
</a>
</g>
<text text-anchor="middle" x="941.25" y="-304.34" font-family="Helvetica,sans-Serif" font-size="10.00" fill="grey"> mNext</text>
<text text-anchor="middle" x="941.25" y="-293.09" font-family="Helvetica,sans-Serif" font-size="10.00" fill="grey">mPrev</text>
</g>
</g>
</svg>
