<?xml version="1.0" encoding="UTF-8" standalone="no"?>
<!DOCTYPE svg PUBLIC "-//W3C//DTD SVG 1.1//EN"
 "http://www.w3.org/Graphics/SVG/1.1/DTD/svg11.dtd">
<!-- Generated by graphviz version 9.0.0 (20230911.1827)
 -->
<!-- Title: JUTCacheFont Pages: 1 -->
<svg width="820pt" height="387pt"
 viewBox="0.00 0.00 819.50 387.33" xmlns="http://www.w3.org/2000/svg" xmlns:xlink="http://www.w3.org/1999/xlink">
<g id="graph0" class="graph" transform="scale(1 1) rotate(0) translate(4 383.33)">
<title>JUTCacheFont</title>
<!-- Node1 -->
<g id="Node000001" class="node">
<title>Node1</title>
<g id="a_Node000001"><a xlink:title=" ">
<polygon fill="#999999" stroke="#666666" points="811.5,-145.96 729.5,-145.96 729.5,-126.71 811.5,-126.71 811.5,-145.96"/>
<text text-anchor="middle" x="770.5" y="-132.46" font-family="Helvetica,sans-Serif" font-size="10.00">JUTCacheFont</text>
</a>
</g>
</g>
<!-- Node2 -->
<g id="Node000002" class="node">
<title>Node2</title>
<g id="a_Node000002"><a xlink:href="classJUTResFont.html" target="_top" xlink:title=" ">
<polygon fill="white" stroke="#666666" points="603.5,-227.96 532,-227.96 532,-208.71 603.5,-208.71 603.5,-227.96"/>
<text text-anchor="middle" x="567.75" y="-214.46" font-family="Helvetica,sans-Serif" font-size="10.00">JUTResFont</text>
</a>
</g>
</g>
<!-- Node2&#45;&gt;Node1 -->
<g id="edge1_Node000001_Node000002" class="edge">
<title>Node2&#45;&gt;Node1</title>
<g id="a_edge1_Node000001_Node000002"><a xlink:title=" ">
<path fill="none" stroke="#63b8ff" d="M614.82,-207.93C643.46,-200.55 680.59,-189.3 711.5,-174.33 727.75,-166.46 744.87,-154.77 756.26,-146.44"/>
<polygon fill="#63b8ff" stroke="#63b8ff" points="614.22,-204.48 605.36,-210.3 615.92,-211.27 614.22,-204.48"/>
</a>
</g>
</g>
<!-- Node3 -->
<g id="Node000003" class="node">
<title>Node3</title>
<g id="a_Node000003"><a xlink:href="classJUTFont.html" target="_top" xlink:title=" ">
<polygon fill="white" stroke="#666666" points="338.88,-343.96 284.62,-343.96 284.62,-324.71 338.88,-324.71 338.88,-343.96"/>
<text text-anchor="middle" x="311.75" y="-330.46" font-family="Helvetica,sans-Serif" font-size="10.00">JUTFont</text>
</a>
</g>
</g>
<!-- Node3&#45;&gt;Node2 -->
<g id="edge2_Node000002_Node000003" class="edge">
<title>Node3&#45;&gt;Node2</title>
<g id="a_edge2_Node000002_Node000003"><a xlink:title=" ">
<path fill="none" stroke="#63b8ff" d="M350.62,-329.1C383.24,-323.57 430.93,-312.99 469,-294.33 504.9,-276.73 540.24,-244.59 556.87,-228.32"/>
<polygon fill="#63b8ff" stroke="#63b8ff" points="350.14,-325.63 340.83,-330.68 351.25,-332.54 350.14,-325.63"/>
</a>
</g>
</g>
<!-- Node4 -->
<g id="Node000004" class="node">
<title>Node4</title>
<g id="a_Node000004"><a xlink:href="structJUtility_1_1TColor.html" target="_top" xlink:title=" ">
<polygon fill="white" stroke="#666666" points="168.75,-343.96 89.75,-343.96 89.75,-324.71 168.75,-324.71 168.75,-343.96"/>
<text text-anchor="middle" x="129.25" y="-330.46" font-family="Helvetica,sans-Serif" font-size="10.00">JUtility::TColor</text>
</a>
</g>
</g>
<!-- Node4&#45;&gt;Node3 -->
<g id="edge3_Node000003_Node000004" class="edge">
<title>Node4&#45;&gt;Node3</title>
<g id="a_edge3_Node000003_Node000004"><a xlink:title=" ">
<path fill="none" stroke="#9a32cd" stroke-dasharray="5,2" d="M180.46,-334.33C214.14,-334.33 257.16,-334.33 284.35,-334.33"/>
<polygon fill="#9a32cd" stroke="#9a32cd" points="180.49,-330.83 170.49,-334.33 180.49,-337.83 180.49,-330.83"/>
</a>
</g>
<text text-anchor="middle" x="205.88" y="-369.83" font-family="Helvetica,sans-Serif" font-size="10.00" fill="grey"> mColor1</text>
<text text-anchor="middle" x="205.88" y="-358.58" font-family="Helvetica,sans-Serif" font-size="10.00" fill="grey">mColor2</text>
<text text-anchor="middle" x="205.88" y="-347.33" font-family="Helvetica,sans-Serif" font-size="10.00" fill="grey">mColor3</text>
<text text-anchor="middle" x="205.88" y="-336.08" font-family="Helvetica,sans-Serif" font-size="10.00" fill="grey">mColor4</text>
</g>
<!-- Node5 -->
<g id="Node000005" class="node">
<title>Node5</title>
<g id="a_Node000005"><a xlink:href="struct__GXColor.html" target="_top" xlink:title=" ">
<polygon fill="white" stroke="#666666" points="52.75,-343.96 0,-343.96 0,-324.71 52.75,-324.71 52.75,-343.96"/>
<text text-anchor="middle" x="26.38" y="-330.46" font-family="Helvetica,sans-Serif" font-size="10.00">GXColor</text>
</a>
</g>
</g>
<!-- Node5&#45;&gt;Node4 -->
<g id="edge4_Node000004_Node000005" class="edge">
<title>Node5&#45;&gt;Node4</title>
<g id="a_edge4_Node000004_Node000005"><a xlink:title=" ">
<path fill="none" stroke="#63b8ff" d="M64.58,-334.33C72.74,-334.33 81.4,-334.33 89.62,-334.33"/>
<polygon fill="#63b8ff" stroke="#63b8ff" points="64.6,-330.83 54.6,-334.33 64.6,-337.83 64.6,-330.83"/>
</a>
</g>
</g>
<!-- Node6 -->
<g id="Node000006" class="node">
<title>Node6</title>
<g id="a_Node000006"><a xlink:href="struct__GXTexObj.html" target="_top" xlink:title=" ">
<polygon fill="white" stroke="#666666" points="344.88,-306.96 278.62,-306.96 278.62,-287.71 344.88,-287.71 344.88,-306.96"/>
<text text-anchor="middle" x="311.75" y="-293.46" font-family="Helvetica,sans-Serif" font-size="10.00">_GXTexObj</text>
</a>
</g>
</g>
<!-- Node6&#45;&gt;Node2 -->
<g id="edge5_Node000002_Node000006" class="edge">
<title>Node6&#45;&gt;Node2</title>
<g id="a_edge5_Node000002_Node000006"><a xlink:title=" ">
<path fill="none" stroke="#9a32cd" stroke-dasharray="5,2" d="M356.35,-289.57C388.03,-283.38 431.7,-273.71 469,-261.33 496.8,-252.11 527.52,-237.89 546.97,-228.36"/>
<polygon fill="#9a32cd" stroke="#9a32cd" points="355.91,-286.09 346.74,-291.41 357.22,-292.97 355.91,-286.09"/>
</a>
</g>
<text text-anchor="middle" x="433.75" y="-281.08" font-family="Helvetica,sans-Serif" font-size="10.00" fill="grey"> mTexObj</text>
</g>
<!-- Node7 -->
<g id="Node000007" class="node">
<title>Node7</title>
<g id="a_Node000007"><a xlink:href="structResFONT.html" target="_top" xlink:title=" ">
<polygon fill="white" stroke="#666666" points="341.88,-269.96 281.62,-269.96 281.62,-250.71 341.88,-250.71 341.88,-269.96"/>
<text text-anchor="middle" x="311.75" y="-256.46" font-family="Helvetica,sans-Serif" font-size="10.00">ResFONT</text>
</a>
</g>
</g>
<!-- Node7&#45;&gt;Node2 -->
<g id="edge6_Node000002_Node000007" class="edge">
<title>Node7&#45;&gt;Node2</title>
<g id="a_edge6_Node000002_Node000007"><a xlink:title=" ">
<path fill="none" stroke="#9a32cd" stroke-dasharray="5,2" d="M353.16,-254.46C384.74,-249.79 429.71,-242.97 469,-236.33 489.76,-232.83 512.93,-228.58 531.5,-225.08"/>
<polygon fill="#9a32cd" stroke="#9a32cd" points="353.05,-250.94 343.66,-255.86 354.07,-257.87 353.05,-250.94"/>
</a>
</g>
<text text-anchor="middle" x="433.75" y="-248.08" font-family="Helvetica,sans-Serif" font-size="10.00" fill="grey"> mResFont</text>
</g>
<!-- Node8 -->
<g id="Node000008" class="node">
<title>Node8</title>
<g id="a_Node000008"><a xlink:href="structResFONT_1_1INF1.html" target="_top" xlink:title=" ">
<polygon fill="white" stroke="#666666" points="355,-232.96 268.5,-232.96 268.5,-213.71 355,-213.71 355,-232.96"/>
<text text-anchor="middle" x="311.75" y="-219.46" font-family="Helvetica,sans-Serif" font-size="10.00">ResFONT::INF1</text>
</a>
</g>
</g>
<!-- Node8&#45;&gt;Node2 -->
<g id="edge7_Node000002_Node000008" class="edge">
<title>Node8&#45;&gt;Node2</title>
<g id="a_edge7_Node000002_Node000008"><a xlink:title=" ">
<path fill="none" stroke="#9a32cd" stroke-dasharray="5,2" d="M366.48,-222.28C416.36,-221.29 489.16,-219.86 531.87,-219.02"/>
<polygon fill="#9a32cd" stroke="#9a32cd" points="366.71,-218.77 356.78,-222.47 366.84,-225.77 366.71,-218.77"/>
</a>
</g>
<text text-anchor="middle" x="433.75" y="-223.08" font-family="Helvetica,sans-Serif" font-size="10.00" fill="grey"> mInf1Ptr</text>
</g>
<!-- Node9 -->
<g id="Node000009" class="node">
<title>Node9</title>
<g id="a_Node000009"><a xlink:href="structResFONT_1_1WID1.html" target="_top" xlink:title=" ">
<polygon fill="white" stroke="#666666" points="356.12,-195.96 267.38,-195.96 267.38,-176.71 356.12,-176.71 356.12,-195.96"/>
<text text-anchor="middle" x="311.75" y="-182.46" font-family="Helvetica,sans-Serif" font-size="10.00">ResFONT::WID1</text>
</a>
</g>
</g>
<!-- Node9&#45;&gt;Node2 -->
<g id="edge8_Node000002_Node000009" class="edge">
<title>Node9&#45;&gt;Node2</title>
<g id="a_edge8_Node000002_Node000009"><a xlink:title=" ">
<path fill="none" stroke="#9a32cd" stroke-dasharray="5,2" d="M367.63,-192.71C397.6,-196.25 435.36,-200.78 469,-205.08 489.89,-207.75 513.28,-210.92 531.93,-213.48"/>
<polygon fill="#9a32cd" stroke="#9a32cd" points="368.39,-189.28 358.05,-191.58 367.58,-196.23 368.39,-189.28"/>
</a>
</g>
<text text-anchor="middle" x="433.75" y="-206.08" font-family="Helvetica,sans-Serif" font-size="10.00" fill="grey"> mpWidthBlocks</text>
</g>
<!-- Node10 -->
<g id="Node000010" class="node">
<title>Node10</title>
<g id="a_Node000010"><a xlink:href="structResFONT_1_1GLY1.html" target="_top" xlink:title=" ">
<polygon fill="white" stroke="#666666" points="356.88,-158.96 266.62,-158.96 266.62,-139.71 356.88,-139.71 356.88,-158.96"/>
<text text-anchor="middle" x="311.75" y="-145.46" font-family="Helvetica,sans-Serif" font-size="10.00">ResFONT::GLY1</text>
</a>
</g>
</g>
<!-- Node10&#45;&gt;Node2 -->
<g id="edge9_Node000002_Node000010" class="edge">
<title>Node10&#45;&gt;Node2</title>
<g id="a_edge9_Node000002_Node000010"><a xlink:title=" ">
<path fill="none" stroke="#9a32cd" stroke-dasharray="5,2" d="M368.63,-154.26C399.35,-158.53 437.5,-166.44 469,-181.08 478.25,-185.38 477.93,-190.66 487,-195.33 500.97,-202.52 517.5,-207.76 531.88,-211.4"/>
<polygon fill="#9a32cd" stroke="#9a32cd" points="369.11,-150.8 358.75,-152.99 368.22,-157.74 369.11,-150.8"/>
</a>
</g>
<text text-anchor="middle" x="433.75" y="-182.08" font-family="Helvetica,sans-Serif" font-size="10.00" fill="grey"> mpGlyphBlocks</text>
</g>
<!-- Node11 -->
<g id="Node000011" class="node">
<title>Node11</title>
<g id="a_Node000011"><a xlink:href="structResFONT_1_1MAP1.html" target="_top" xlink:title=" ">
<polygon fill="white" stroke="#666666" points="357.62,-121.96 265.88,-121.96 265.88,-102.71 357.62,-102.71 357.62,-121.96"/>
<text text-anchor="middle" x="311.75" y="-108.46" font-family="Helvetica,sans-Serif" font-size="10.00">ResFONT::MAP1</text>
</a>
</g>
</g>
<!-- Node11&#45;&gt;Node2 -->
<g id="edge10_Node000002_Node000011" class="edge">
<title>Node11&#45;&gt;Node2</title>
<g id="a_edge10_Node000002_Node000011"><a xlink:title=" ">
<path fill="none" stroke="#9a32cd" stroke-dasharray="5,2" d="M369.23,-110.18C401.94,-111.89 441.87,-119.45 469,-143.08 487.52,-159.22 469.2,-178.41 487,-195.33 499.01,-206.75 516.33,-212.55 531.75,-215.48"/>
<polygon fill="#9a32cd" stroke="#9a32cd" points="369.63,-106.69 359.51,-109.86 369.39,-113.69 369.63,-106.69"/>
</a>
</g>
<text text-anchor="middle" x="433.75" y="-144.08" font-family="Helvetica,sans-Serif" font-size="10.00" fill="grey"> mpMapBlocks</text>
</g>
<!-- Node12 -->
<g id="Node000012" class="node">
<title>Node12</title>
<g id="a_Node000012"><a xlink:href="structJUTCacheFont_1_1TGlyphCacheInfo.html" target="_top" xlink:title=" ">
<polygon fill="white" stroke="#666666" points="648.5,-145.96 487,-145.96 487,-126.71 648.5,-126.71 648.5,-145.96"/>
<text text-anchor="middle" x="567.75" y="-132.46" font-family="Helvetica,sans-Serif" font-size="10.00">JUTCacheFont::TGlyphCacheInfo</text>
</a>
</g>
</g>
<!-- Node12&#45;&gt;Node1 -->
<g id="edge11_Node000001_Node000012" class="edge">
<title>Node12&#45;&gt;Node1</title>
<g id="a_edge11_Node000001_Node000012"><a xlink:title=" ">
<path fill="none" stroke="#9a32cd" stroke-dasharray="5,2" d="M660.34,-136.33C684.46,-136.33 709.25,-136.33 729.11,-136.33"/>
<polygon fill="#9a32cd" stroke="#9a32cd" points="660.47,-132.83 650.47,-136.33 660.47,-139.83 660.47,-132.83"/>
</a>
</g>
<text text-anchor="middle" x="689" y="-160.58" font-family="Helvetica,sans-Serif" font-size="10.00" fill="grey"> field_0x9c</text>
<text text-anchor="middle" x="689" y="-149.33" font-family="Helvetica,sans-Serif" font-size="10.00" fill="grey">field_0xa0</text>
<text text-anchor="middle" x="689" y="-138.08" font-family="Helvetica,sans-Serif" font-size="10.00" fill="grey">field_0xa4</text>
</g>
<!-- Node12&#45;&gt;Node12 -->
<g id="edge12_Node000012_Node000012" class="edge">
<title>Node12&#45;&gt;Node12</title>
<g id="a_edge12_Node000012_Node000012"><a xlink:title=" ">
<path fill="none" stroke="#9a32cd" stroke-dasharray="5,2" d="M546.23,-157.36C548.92,-161.23 556.09,-163.96 567.75,-163.96 589.06,-163.96 595.39,-154.85 586.73,-146.25"/>
<polygon fill="#9a32cd" stroke="#9a32cd" points="549.61,-158.25 548.43,-147.72 542.79,-156.69 549.61,-158.25"/>
</a>
</g>
<text text-anchor="middle" x="567.75" y="-176.96" font-family="Helvetica,sans-Serif" font-size="10.00" fill="grey"> mNext</text>
<text text-anchor="middle" x="567.75" y="-165.71" font-family="Helvetica,sans-Serif" font-size="10.00" fill="grey">mPrev</text>
</g>
<!-- Node13 -->
<g id="Node000013" class="node">
<title>Node13</title>
<g id="a_Node000013"><a xlink:href="classJKRAramBlock.html" target="_top" xlink:title=" ">
<polygon fill="white" stroke="#666666" points="609.12,-101.96 526.38,-101.96 526.38,-82.71 609.12,-82.71 609.12,-101.96"/>
<text text-anchor="middle" x="567.75" y="-88.46" font-family="Helvetica,sans-Serif" font-size="10.00">JKRAramBlock</text>
</a>
</g>
</g>
<!-- Node13&#45;&gt;Node1 -->
<g id="edge13_Node000001_Node000013" class="edge">
<title>Node13&#45;&gt;Node1</title>
<g id="a_edge13_Node000001_Node000013"><a xlink:title=" ">
<path fill="none" stroke="#9a32cd" stroke-dasharray="5,2" d="M620.7,-102.04C647.83,-107.3 681.55,-114.13 711.5,-121.08 718.3,-122.66 725.51,-124.45 732.45,-126.25"/>
<polygon fill="#9a32cd" stroke="#9a32cd" points="621.46,-98.62 610.98,-100.17 620.14,-105.5 621.46,-98.62"/>
</a>
</g>
<text text-anchor="middle" x="689" y="-122.08" font-family="Helvetica,sans-Serif" font-size="10.00" fill="grey"> field_0xac</text>
</g>
<!-- Node14 -->
<g id="Node000014" class="node">
<title>Node14</title>
<g id="a_Node000014"><a xlink:href="classJSULink.html" target="_top" xlink:title=" ">
<polygon fill="white" stroke="#666666" points="380.5,-84.96 243,-84.96 243,-65.71 380.5,-65.71 380.5,-84.96"/>
<text text-anchor="middle" x="311.75" y="-71.46" font-family="Helvetica,sans-Serif" font-size="10.00">JSULink&lt; JKRAramBlock &gt;</text>
</a>
</g>
</g>
<!-- Node14&#45;&gt;Node13 -->
<g id="edge14_Node000013_Node000014" class="edge">
<title>Node14&#45;&gt;Node13</title>
<g id="a_edge14_Node000013_Node000014"><a xlink:title=" ">
<path fill="none" stroke="#9a32cd" stroke-dasharray="5,2" d="M392.37,-75.54C416.97,-76.06 444.13,-77.1 469,-79.08 487.78,-80.58 508.47,-83.23 525.96,-85.78"/>
<polygon fill="#9a32cd" stroke="#9a32cd" points="392.48,-72.04 382.41,-75.36 392.35,-79.04 392.48,-72.04"/>
</a>
</g>
<text text-anchor="middle" x="433.75" y="-80.08" font-family="Helvetica,sans-Serif" font-size="10.00" fill="grey"> mBlockLink</text>
</g>
<!-- Node15 -->
<g id="Node000015" class="node">
<title>Node15</title>
<g id="a_Node000015"><a xlink:href="classJSUPtrLink.html" target="_top" xlink:title=" ">
<polygon fill="white" stroke="#666666" points="162.75,-46.96 95.75,-46.96 95.75,-27.71 162.75,-27.71 162.75,-46.96"/>
<text text-anchor="middle" x="129.25" y="-33.46" font-family="Helvetica,sans-Serif" font-size="10.00">JSUPtrLink</text>
</a>
</g>
</g>
<!-- Node15&#45;&gt;Node14 -->
<g id="edge15_Node000014_Node000015" class="edge">
<title>Node15&#45;&gt;Node14</title>
<g id="a_edge15_Node000014_Node000015"><a xlink:title=" ">
<path fill="none" stroke="#63b8ff" d="M162.83,-51.56C170.55,-54.5 178.85,-57.32 186.75,-59.33 204.63,-63.89 224.3,-67.19 242.61,-69.56"/>
<polygon fill="#63b8ff" stroke="#63b8ff" points="164.37,-48.41 153.79,-47.95 161.78,-54.91 164.37,-48.41"/>
</a>
</g>
</g>
<!-- Node15&#45;&gt;Node15 -->
<g id="edge18_Node000015_Node000015" class="edge">
<title>Node15&#45;&gt;Node15</title>
<g id="a_edge18_Node000015_Node000015"><a xlink:title=" ">
<path fill="none" stroke="#9a32cd" stroke-dasharray="5,2" d="M119.07,-58.69C120.44,-62.39 123.83,-64.96 129.25,-64.96 139.45,-64.96 142.47,-55.85 138.33,-47.25"/>
<polygon fill="#9a32cd" stroke="#9a32cd" points="122.55,-59.04 120.03,-48.75 115.58,-58.37 122.55,-59.04"/>
</a>
</g>
<text text-anchor="middle" x="129.25" y="-77.96" font-family="Helvetica,sans-Serif" font-size="10.00" fill="grey"> mNext</text>
<text text-anchor="middle" x="129.25" y="-66.71" font-family="Helvetica,sans-Serif" font-size="10.00" fill="grey">mPrev</text>
</g>
<!-- Node16 -->
<g id="Node000016" class="node">
<title>Node16</title>
<g id="a_Node000016"><a xlink:href="classJSUPtrList.html" target="_top" xlink:title=" ">
<polygon fill="white" stroke="#666666" points="344.12,-29.96 279.38,-29.96 279.38,-10.71 344.12,-10.71 344.12,-29.96"/>
<text text-anchor="middle" x="311.75" y="-16.46" font-family="Helvetica,sans-Serif" font-size="10.00">JSUPtrList</text>
</a>
</g>
</g>
<!-- Node15&#45;&gt;Node16 -->
<g id="edge17_Node000016_Node000015" class="edge">
<title>Node15&#45;&gt;Node16</title>
<g id="a_edge17_Node000016_Node000015"><a xlink:title=" ">
<path fill="none" stroke="#9a32cd" stroke-dasharray="5,2" d="M174.32,-33.18C206.68,-30.13 249.87,-26.07 278.91,-23.33"/>
<polygon fill="#9a32cd" stroke="#9a32cd" points="174.07,-29.69 164.44,-34.11 174.73,-36.66 174.07,-29.69"/>
</a>
</g>
<text text-anchor="middle" x="205.88" y="-45.33" font-family="Helvetica,sans-Serif" font-size="10.00" fill="grey"> mHead</text>
<text text-anchor="middle" x="205.88" y="-34.08" font-family="Helvetica,sans-Serif" font-size="10.00" fill="grey">mTail</text>
</g>
<!-- Node16&#45;&gt;Node15 -->
<g id="edge16_Node000015_Node000016" class="edge">
<title>Node16&#45;&gt;Node15</title>
<g id="a_edge16_Node000015_Node000016"><a xlink:title=" ">
<path fill="none" stroke="#9a32cd" stroke-dasharray="5,2" d="M271.16,-7.3C246.55,-1.11 214.42,3.45 186.75,-4.08 170.28,-8.57 153.71,-19.21 142.82,-27.26"/>
<polygon fill="#9a32cd" stroke="#9a32cd" points="270.22,-10.67 280.79,-9.92 272.06,-3.91 270.22,-10.67"/>
</a>
</g>
<text text-anchor="middle" x="205.88" y="-6.08" font-family="Helvetica,sans-Serif" font-size="10.00" fill="grey"> mList</text>
</g>
</g>
</svg>
