<?xml version="1.0" encoding="UTF-8" standalone="no"?>
<!DOCTYPE svg PUBLIC "-//W3C//DTD SVG 1.1//EN"
 "http://www.w3.org/Graphics/SVG/1.1/DTD/svg11.dtd">
<!-- Generated by graphviz version 9.0.0 (20230911.1827)
 -->
<!-- Title: JAISe Pages: 1 -->
<svg width="305pt" height="149pt"
 viewBox="0.00 0.00 305.25 149.00" xmlns="http://www.w3.org/2000/svg" xmlns:xlink="http://www.w3.org/1999/xlink">
<g id="graph0" class="graph" transform="scale(1 1) rotate(0) translate(4 145)">
<title>JAISe</title>
<!-- Node1 -->
<g id="Node000001" class="node">
<title>Node1</title>
<g id="a_Node000001"><a xlink:title=" ">
<polygon fill="#999999" stroke="#666666" points="189.38,-19.25 146.38,-19.25 146.38,0 189.38,0 189.38,-19.25"/>
<text text-anchor="middle" x="167.88" y="-5.75" font-family="Helvetica,sans-Serif" font-size="10.00">JAISe</text>
</a>
</g>
</g>
<!-- Node2 -->
<g id="Node000002" class="node">
<title>Node2</title>
<g id="a_Node000002"><a xlink:href="classJSULink.html" target="_top" xlink:title=" ">
<polygon fill="white" stroke="#666666" points="97.75,-80.12 0,-80.12 0,-60.88 97.75,-60.88 97.75,-80.12"/>
<text text-anchor="middle" x="48.88" y="-66.62" font-family="Helvetica,sans-Serif" font-size="10.00">JSULink&lt; JAISe &gt;</text>
</a>
</g>
</g>
<!-- Node2&#45;&gt;Node1 -->
<g id="edge1_Node000001_Node000002" class="edge">
<title>Node2&#45;&gt;Node1</title>
<g id="a_edge1_Node000001_Node000002"><a xlink:title=" ">
<path fill="none" stroke="#63b8ff" d="M77.49,-55.34C99.94,-44.23 130.51,-29.11 149.72,-19.61"/>
<polygon fill="#63b8ff" stroke="#63b8ff" points="75.98,-52.19 68.56,-59.76 79.08,-58.46 75.98,-52.19"/>
</a>
</g>
</g>
<!-- Node3 -->
<g id="Node000003" class="node">
<title>Node3</title>
<g id="a_Node000003"><a xlink:href="classJSUPtrLink.html" target="_top" xlink:title=" ">
<polygon fill="white" stroke="#666666" points="82.38,-141 15.38,-141 15.38,-121.75 82.38,-121.75 82.38,-141"/>
<text text-anchor="middle" x="48.88" y="-127.5" font-family="Helvetica,sans-Serif" font-size="10.00">JSUPtrLink</text>
</a>
</g>
</g>
<!-- Node3&#45;&gt;Node2 -->
<g id="edge2_Node000002_Node000003" class="edge">
<title>Node3&#45;&gt;Node2</title>
<g id="a_edge2_Node000002_Node000003"><a xlink:title=" ">
<path fill="none" stroke="#63b8ff" d="M48.88,-109.95C48.88,-99.92 48.88,-88.33 48.88,-80.53"/>
<polygon fill="#63b8ff" stroke="#63b8ff" points="45.38,-109.92 48.88,-119.92 52.38,-109.92 45.38,-109.92"/>
</a>
</g>
</g>
<!-- Node4 -->
<g id="Node000004" class="node">
<title>Node4</title>
<g id="a_Node000004"><a xlink:href="classJASPoolAllocObject.html" target="_top" xlink:title=" ">
<polygon fill="white" stroke="#666666" points="220.12,-85.75 115.62,-85.75 115.62,-55.25 220.12,-55.25 220.12,-85.75"/>
<text text-anchor="start" x="123.62" y="-72.25" font-family="Helvetica,sans-Serif" font-size="10.00">JASPoolAllocObject</text>
<text text-anchor="middle" x="167.88" y="-61" font-family="Helvetica,sans-Serif" font-size="10.00">&lt; JAISe &gt;</text>
</a>
</g>
</g>
<!-- Node4&#45;&gt;Node1 -->
<g id="edge3_Node000001_Node000004" class="edge">
<title>Node4&#45;&gt;Node1</title>
<g id="a_edge3_Node000001_Node000004"><a xlink:title=" ">
<path fill="none" stroke="#63b8ff" d="M167.88,-43.48C167.88,-34.98 167.88,-26.09 167.88,-19.7"/>
<polygon fill="#63b8ff" stroke="#63b8ff" points="164.38,-43.43 167.88,-53.43 171.38,-43.43 164.38,-43.43"/>
</a>
</g>
</g>
<!-- Node5 -->
<g id="Node000005" class="node">
<title>Node5</title>
<g id="a_Node000005"><a xlink:href="classJAISound.html" target="_top" xlink:title=" ">
<polygon fill="white" stroke="#666666" points="297.25,-80.12 238.5,-80.12 238.5,-60.88 297.25,-60.88 297.25,-80.12"/>
<text text-anchor="middle" x="267.88" y="-66.62" font-family="Helvetica,sans-Serif" font-size="10.00">JAISound</text>
</a>
</g>
</g>
<!-- Node5&#45;&gt;Node1 -->
<g id="edge4_Node000001_Node000005" class="edge">
<title>Node5&#45;&gt;Node1</title>
<g id="a_edge4_Node000001_Node000005"><a xlink:title=" ">
<path fill="none" stroke="#63b8ff" d="M243.02,-54.87C224.26,-43.82 199.12,-29.02 183.21,-19.65"/>
<polygon fill="#63b8ff" stroke="#63b8ff" points="240.99,-57.73 251.38,-59.79 244.54,-51.7 240.99,-57.73"/>
</a>
</g>
</g>
</g>
</svg>
