<?xml version="1.0" encoding="UTF-8" standalone="no"?>
<!DOCTYPE svg PUBLIC "-//W3C//DTD SVG 1.1//EN"
 "http://www.w3.org/Graphics/SVG/1.1/DTD/svg11.dtd">
<!-- Generated by graphviz version 9.0.0 (20230911.1827)
 -->
<!-- Title: JAUBankTableLink Pages: 1 -->
<svg width="465pt" height="298pt"
 viewBox="0.00 0.00 465.00 297.50" xmlns="http://www.w3.org/2000/svg" xmlns:xlink="http://www.w3.org/1999/xlink">

<svg id="main" version="1.1" xmlns="http://www.w3.org/2000/svg" xmlns:xlink="http://www.w3.org/1999/xlink" xml:space="preserve" onload="init(evt)">
<style type="text/css"><![CDATA[
.node, .edge {opacity: 0.7;}
.node.selected, .edge.selected {opacity: 1;}
.edge:hover path { stroke: red; }
.edge:hover polygon { stroke: red; fill: red; }
]]></style>
<script type="application/ecmascript" xlink:href="svg.min.js"/>
<svg id="graph" class="graph">
<g id="graph0" class="graph" transform="scale(1 1) rotate(0) translate(4 293.5)">
<title>JAUBankTableLink</title>
<!-- Node1 -->
<g id="Node000001" class="node">
<title>Node1</title>
<g id="a_Node000001"><a xlink:title=" ">
<polygon fill="#999999" stroke="#666666" points="222.75,-19.25 122,-19.25 122,0 222.75,0 222.75,-19.25"/>
<text text-anchor="middle" x="172.38" y="-5.75" font-family="Helvetica,sans-Serif" font-size="10.00">JAUBankTableLink</text>
</a>
</g>
</g>
<!-- Node2 -->
<g id="Node000002" class="node">
<title>Node2</title>
<g id="a_Node000002"><a xlink:href="classJSULink.html" target="_top" xlink:title=" ">
<polygon fill="white" stroke="#666666" points="136.75,-75.5 0,-75.5 0,-56.25 136.75,-56.25 136.75,-75.5"/>
<text text-anchor="middle" x="68.38" y="-62" font-family="Helvetica,sans-Serif" font-size="10.00">JSULink&lt; JAUBankTable &gt;</text>
</a>
</g>
</g>
<!-- Node2&#45;&gt;Node1 -->
<g id="edge1_Node000001_Node000002" class="edge">
<title>Node2&#45;&gt;Node1</title>
<g id="a_edge1_Node000001_Node000002"><a xlink:title=" ">
<path fill="none" stroke="#63b8ff" d="M95.62,-50.66C114.47,-40.83 138.98,-28.04 155.18,-19.6"/>
<polygon fill="#63b8ff" stroke="#63b8ff" points="94.14,-47.49 86.89,-55.22 97.38,-53.69 94.14,-47.49"/>
</a>
</g>
</g>
<!-- Node3 -->
<g id="Node000003" class="node">
<title>Node3</title>
<g id="a_Node000003"><a xlink:href="classJSUPtrLink.html" target="_top" xlink:title=" ">
<polygon fill="white" stroke="#666666" points="163.88,-154.88 96.88,-154.88 96.88,-135.62 163.88,-135.62 163.88,-154.88"/>
<text text-anchor="middle" x="130.38" y="-141.38" font-family="Helvetica,sans-Serif" font-size="10.00">JSUPtrLink</text>
</a>
</g>
</g>
<!-- Node3&#45;&gt;Node2 -->
<g id="edge2_Node000002_Node000003" class="edge">
<title>Node3&#45;&gt;Node2</title>
<g id="a_edge2_Node000002_Node000003"><a xlink:title=" ">
<path fill="none" stroke="#63b8ff" d="M116.15,-126.5C103.41,-110.6 85.26,-87.95 75.4,-75.65"/>
<polygon fill="#63b8ff" stroke="#63b8ff" points="113.33,-128.58 122.32,-134.19 118.79,-124.2 113.33,-128.58"/>
</a>
</g>
</g>
<!-- Node3&#45;&gt;Node3 -->
<g id="edge5_Node000003_Node000003" class="edge">
<title>Node3&#45;&gt;Node3</title>
<g id="a_edge5_Node000003_Node000003"><a xlink:title=" ">
<path fill="none" stroke="#9a32cd" stroke-dasharray="5,2" d="M175.47,-150.38C179.41,-149.3 181.88,-147.59 181.88,-145.25 181.88,-141.09 174.08,-138.92 164.06,-138.73"/>
<polygon fill="#9a32cd" stroke="#9a32cd" points="175.06,-146.91 165.56,-151.59 175.91,-153.85 175.06,-146.91"/>
</a>
</g>
<text text-anchor="middle" x="197.25" y="-147" font-family="Helvetica,sans-Serif" font-size="10.00" fill="grey"> mNext</text>
<text text-anchor="middle" x="197.25" y="-135.75" font-family="Helvetica,sans-Serif" font-size="10.00" fill="grey">mPrev</text>
</g>
<!-- Node4 -->
<g id="Node000004" class="node">
<title>Node4</title>
<g id="a_Node000004"><a xlink:href="classJSUPtrList.html" target="_top" xlink:title=" ">
<polygon fill="white" stroke="#666666" points="219.75,-75.5 155,-75.5 155,-56.25 219.75,-56.25 219.75,-75.5"/>
<text text-anchor="middle" x="187.38" y="-62" font-family="Helvetica,sans-Serif" font-size="10.00">JSUPtrList</text>
</a>
</g>
</g>
<!-- Node3&#45;&gt;Node4 -->
<g id="edge4_Node000004_Node000003" class="edge">
<title>Node3&#45;&gt;Node4</title>
<g id="a_edge4_Node000004_Node000003"><a xlink:title=" ">
<path fill="none" stroke="#9a32cd" stroke-dasharray="5,2" d="M124.03,-124.23C122.11,-114.26 121.82,-102.44 127.62,-93.5 133.81,-83.97 144.28,-77.83 154.74,-73.87"/>
<polygon fill="#9a32cd" stroke="#9a32cd" points="120.59,-124.92 126.5,-133.71 127.37,-123.15 120.59,-124.92"/>
</a>
</g>
<text text-anchor="middle" x="145.25" y="-106.5" font-family="Helvetica,sans-Serif" font-size="10.00" fill="grey"> mHead</text>
<text text-anchor="middle" x="145.25" y="-95.25" font-family="Helvetica,sans-Serif" font-size="10.00" fill="grey">mTail</text>
</g>
<!-- Node4&#45;&gt;Node3 -->
<g id="edge3_Node000003_Node000004" class="edge">
<title>Node4&#45;&gt;Node3</title>
<g id="a_edge3_Node000003_Node000004"><a xlink:title=" ">
<path fill="none" stroke="#9a32cd" stroke-dasharray="5,2" d="M180.97,-86.66C177.32,-96.12 172.11,-107.26 165.38,-116 159.56,-123.55 151.34,-130.32 144.33,-135.34"/>
<polygon fill="#9a32cd" stroke="#9a32cd" points="184.24,-87.91 184.26,-77.32 177.63,-85.59 184.24,-87.91"/>
</a>
</g>
<text text-anchor="middle" x="191.88" y="-100.88" font-family="Helvetica,sans-Serif" font-size="10.00" fill="grey"> mList</text>
</g>
<!-- Node5 -->
<g id="Node000005" class="node">
<title>Node5</title>
<g id="a_Node000005"><a xlink:href="classJAUBankTable.html" target="_top" xlink:title=" ">
<polygon fill="white" stroke="#666666" points="319.38,-75.5 237.38,-75.5 237.38,-56.25 319.38,-56.25 319.38,-75.5"/>
<text text-anchor="middle" x="278.38" y="-62" font-family="Helvetica,sans-Serif" font-size="10.00">JAUBankTable</text>
</a>
</g>
</g>
<!-- Node5&#45;&gt;Node1 -->
<g id="edge6_Node000001_Node000005" class="edge">
<title>Node5&#45;&gt;Node1</title>
<g id="a_edge6_Node000001_Node000005"><a xlink:title=" ">
<path fill="none" stroke="#63b8ff" d="M250.88,-50.8C231.63,-40.95 206.49,-28.08 189.9,-19.6"/>
<polygon fill="#63b8ff" stroke="#63b8ff" points="249.03,-53.79 259.52,-55.23 252.22,-47.56 249.03,-53.79"/>
</a>
</g>
</g>
<!-- Node6 -->
<g id="Node000006" class="node">
<title>Node6</title>
<g id="a_Node000006"><a xlink:href="classJASBankList.html" target="_top" xlink:title=" ">
<polygon fill="white" stroke="#666666" points="309.25,-154.88 235.5,-154.88 235.5,-135.62 309.25,-135.62 309.25,-154.88"/>
<text text-anchor="middle" x="272.38" y="-141.38" font-family="Helvetica,sans-Serif" font-size="10.00">JASBankList</text>
</a>
</g>
</g>
<!-- Node6&#45;&gt;Node5 -->
<g id="edge7_Node000005_Node000006" class="edge">
<title>Node6&#45;&gt;Node5</title>
<g id="a_edge7_Node000005_Node000006"><a xlink:title=" ">
<path fill="none" stroke="#63b8ff" d="M273.93,-124.21C275.15,-108.49 276.79,-87.37 277.69,-75.65"/>
<polygon fill="#63b8ff" stroke="#63b8ff" points="270.46,-123.62 273.18,-133.87 277.44,-124.17 270.46,-123.62"/>
</a>
</g>
</g>
<!-- Node7 -->
<g id="Node000007" class="node">
<title>Node7</title>
<g id="a_Node000007"><a xlink:href="classJASPtrTable.html" target="_top" xlink:title=" ">
<polygon fill="white" stroke="#666666" points="457,-154.88 327.75,-154.88 327.75,-135.62 457,-135.62 457,-154.88"/>
<text text-anchor="middle" x="392.38" y="-141.38" font-family="Helvetica,sans-Serif" font-size="10.00">JASPtrTable&lt; JASBank &gt;</text>
</a>
</g>
</g>
<!-- Node7&#45;&gt;Node5 -->
<g id="edge8_Node000005_Node000007" class="edge">
<title>Node7&#45;&gt;Node5</title>
<g id="a_edge8_Node000005_Node000007"><a xlink:title=" ">
<path fill="none" stroke="#9a32cd" stroke-dasharray="5,2" d="M369.84,-128.96C346.5,-113.11 310.82,-88.9 291.65,-75.89"/>
<polygon fill="#9a32cd" stroke="#9a32cd" points="367.81,-131.8 378.05,-134.52 371.74,-126.01 367.81,-131.8"/>
</a>
</g>
<text text-anchor="middle" x="383.25" y="-100.88" font-family="Helvetica,sans-Serif" font-size="10.00" fill="grey"> mBankPtrTable</text>
</g>
<!-- Node8 -->
<g id="Node000008" class="node">
<title>Node8</title>
<g id="a_Node000008"><a xlink:href="classJASBank.html" target="_top" xlink:title=" ">
<polygon fill="white" stroke="#666666" points="421,-223 363.75,-223 363.75,-203.75 421,-203.75 421,-223"/>
<text text-anchor="middle" x="392.38" y="-209.5" font-family="Helvetica,sans-Serif" font-size="10.00">JASBank</text>
</a>
</g>
</g>
<!-- Node8&#45;&gt;Node7 -->
<g id="edge9_Node000007_Node000008" class="edge">
<title>Node8&#45;&gt;Node7</title>
<g id="a_edge9_Node000007_Node000008"><a xlink:title=" ">
<path fill="none" stroke="#9a32cd" stroke-dasharray="5,2" d="M392.38,-192.31C392.38,-179.86 392.38,-164.49 392.38,-155.03"/>
<polygon fill="#9a32cd" stroke="#9a32cd" points="388.88,-191.94 392.38,-201.94 395.88,-191.94 388.88,-191.94"/>
</a>
</g>
<text text-anchor="middle" x="409.62" y="-176.25" font-family="Helvetica,sans-Serif" font-size="10.00" fill="grey"> mTable</text>
</g>
<!-- Node9 -->
<g id="Node000009" class="node">
<title>Node9</title>
<g id="a_Node000009"><a xlink:href="classJASWaveBank.html" target="_top" xlink:title=" ">
<polygon fill="white" stroke="#666666" points="433.38,-289.5 351.38,-289.5 351.38,-270.25 433.38,-270.25 433.38,-289.5"/>
<text text-anchor="middle" x="392.38" y="-276" font-family="Helvetica,sans-Serif" font-size="10.00">JASWaveBank</text>
</a>
</g>
</g>
<!-- Node9&#45;&gt;Node8 -->
<g id="edge10_Node000008_Node000009" class="edge">
<title>Node9&#45;&gt;Node8</title>
<g id="a_edge10_Node000008_Node000009"><a xlink:title=" ">
<path fill="none" stroke="#9a32cd" stroke-dasharray="5,2" d="M392.38,-258.4C392.38,-246.57 392.38,-232.29 392.38,-223.27"/>
<polygon fill="#9a32cd" stroke="#9a32cd" points="388.88,-258.39 392.38,-268.39 395.88,-258.39 388.88,-258.39"/>
</a>
</g>
<text text-anchor="middle" x="421.25" y="-242.75" font-family="Helvetica,sans-Serif" font-size="10.00" fill="grey"> mWaveBank</text>
</g>
</g>
</svg>
</svg>

<style type='text/css'>
<![CDATA[
[data-mouse-over-selected='false'] { opacity: 0.7; }
[data-mouse-over-selected='true']  { opacity: 1.0; }
]]>
</style>
<script type="application/ecmascript"><![CDATA[
document.addEventListener('DOMContentLoaded', (event) => {
  highlightEdges();
  highlightAdjacentNodes();
});
]]></script>
</svg>
