<?xml version="1.0" encoding="UTF-8" standalone="no"?>
<!DOCTYPE svg PUBLIC "-//W3C//DTD SVG 1.1//EN"
 "http://www.w3.org/Graphics/SVG/1.1/DTD/svg11.dtd">
<!-- Generated by graphviz version 9.0.0 (20230911.1827)
 -->
<!-- Title: JSURandomInputStream Pages: 1 -->
<svg width="254pt" height="193pt"
 viewBox="0.00 0.00 253.88 193.00" xmlns="http://www.w3.org/2000/svg" xmlns:xlink="http://www.w3.org/1999/xlink">
<g id="graph0" class="graph" transform="scale(1 1) rotate(0) translate(4 189)">
<title>JSURandomInputStream</title>
<!-- Node1 -->
<g id="Node000001" class="node">
<title>Node1</title>
<g id="a_Node000001"><a xlink:title=" ">
<polygon fill="#999999" stroke="#666666" points="180.62,-74.5 55.88,-74.5 55.88,-55.25 180.62,-55.25 180.62,-74.5"/>
<text text-anchor="middle" x="118.25" y="-61" font-family="Helvetica,sans-Serif" font-size="10.00">JSURandomInputStream</text>
</a>
</g>
</g>
<!-- Node4 -->
<g id="Node000004" class="node">
<title>Node4</title>
<g id="a_Node000004"><a xlink:href="classJSUFileInputStream.html" target="_top" xlink:title=" ">
<polygon fill="white" stroke="#666666" points="104.5,-19.25 0,-19.25 0,0 104.5,0 104.5,-19.25"/>
<text text-anchor="middle" x="52.25" y="-5.75" font-family="Helvetica,sans-Serif" font-size="10.00">JSUFileInputStream</text>
</a>
</g>
</g>
<!-- Node1&#45;&gt;Node4 -->
<g id="edge3_Node000001_Node000004" class="edge">
<title>Node1&#45;&gt;Node4</title>
<g id="a_edge3_Node000001_Node000004"><a xlink:title=" ">
<path fill="none" stroke="#63b8ff" d="M98.16,-47.66C86.7,-38.42 72.77,-27.18 63.28,-19.52"/>
<polygon fill="#63b8ff" stroke="#63b8ff" points="95.9,-50.34 105.88,-53.89 100.29,-44.89 95.9,-50.34"/>
</a>
</g>
</g>
<!-- Node5 -->
<g id="Node000005" class="node">
<title>Node5</title>
<g id="a_Node000005"><a xlink:href="classJSUMemoryInputStream.html" target="_top" xlink:title=" ">
<polygon fill="white" stroke="#666666" points="245.88,-19.25 122.62,-19.25 122.62,0 245.88,0 245.88,-19.25"/>
<text text-anchor="middle" x="184.25" y="-5.75" font-family="Helvetica,sans-Serif" font-size="10.00">JSUMemoryInputStream</text>
</a>
</g>
</g>
<!-- Node1&#45;&gt;Node5 -->
<g id="edge4_Node000001_Node000005" class="edge">
<title>Node1&#45;&gt;Node5</title>
<g id="a_edge4_Node000001_Node000005"><a xlink:title=" ">
<path fill="none" stroke="#63b8ff" d="M138.34,-47.66C149.8,-38.42 163.73,-27.18 173.22,-19.52"/>
<polygon fill="#63b8ff" stroke="#63b8ff" points="136.21,-44.89 130.62,-53.89 140.6,-50.34 136.21,-44.89"/>
</a>
</g>
</g>
<!-- Node2 -->
<g id="Node000002" class="node">
<title>Node2</title>
<g id="a_Node000002"><a xlink:href="classJSUInputStream.html" target="_top" xlink:title=" ">
<polygon fill="white" stroke="#666666" points="162.62,-129.75 73.88,-129.75 73.88,-110.5 162.62,-110.5 162.62,-129.75"/>
<text text-anchor="middle" x="118.25" y="-116.25" font-family="Helvetica,sans-Serif" font-size="10.00">JSUInputStream</text>
</a>
</g>
</g>
<!-- Node2&#45;&gt;Node1 -->
<g id="edge1_Node000001_Node000002" class="edge">
<title>Node2&#45;&gt;Node1</title>
<g id="a_edge1_Node000001_Node000002"><a xlink:title=" ">
<path fill="none" stroke="#63b8ff" d="M118.25,-98.88C118.25,-90.59 118.25,-81.42 118.25,-74.86"/>
<polygon fill="#63b8ff" stroke="#63b8ff" points="114.75,-98.82 118.25,-108.82 121.75,-98.82 114.75,-98.82"/>
</a>
</g>
</g>
<!-- Node3 -->
<g id="Node000003" class="node">
<title>Node3</title>
<g id="a_Node000003"><a xlink:href="classJSUIosBase.html" target="_top" xlink:title=" ">
<polygon fill="white" stroke="#666666" points="154,-185 82.5,-185 82.5,-165.75 154,-165.75 154,-185"/>
<text text-anchor="middle" x="118.25" y="-171.5" font-family="Helvetica,sans-Serif" font-size="10.00">JSUIosBase</text>
</a>
</g>
</g>
<!-- Node3&#45;&gt;Node2 -->
<g id="edge2_Node000002_Node000003" class="edge">
<title>Node3&#45;&gt;Node2</title>
<g id="a_edge2_Node000002_Node000003"><a xlink:title=" ">
<path fill="none" stroke="#63b8ff" d="M118.25,-154.13C118.25,-145.84 118.25,-136.67 118.25,-130.11"/>
<polygon fill="#63b8ff" stroke="#63b8ff" points="114.75,-154.07 118.25,-164.07 121.75,-154.07 114.75,-154.07"/>
</a>
</g>
</g>
</g>
</svg>
