<?xml version="1.0" encoding="UTF-8" standalone="no"?>
<!DOCTYPE svg PUBLIC "-//W3C//DTD SVG 1.1//EN"
 "http://www.w3.org/Graphics/SVG/1.1/DTD/svg11.dtd">
<!-- Generated by graphviz version 9.0.0 (20230911.1827)
 -->
<!-- Title: cBgW_TriElm Pages: 1 -->
<svg width="124pt" height="287pt"
 viewBox="0.00 0.00 124.12 287.25" xmlns="http://www.w3.org/2000/svg" xmlns:xlink="http://www.w3.org/1999/xlink">
<g id="graph0" class="graph" transform="scale(1 1) rotate(0) translate(4 283.25)">
<title>cBgW_TriElm</title>
<!-- Node1 -->
<g id="Node000001" class="node">
<title>Node1</title>
<g id="a_Node000001"><a xlink:title=" ">
<polygon fill="#999999" stroke="#666666" points="75.25,-19.25 0,-19.25 0,0 75.25,0 75.25,-19.25"/>
<text text-anchor="middle" x="37.62" y="-5.75" font-family="Helvetica,sans-Serif" font-size="10.00">cBgW_TriElm</text>
</a>
</g>
</g>
<!-- Node2 -->
<g id="Node000002" class="node">
<title>Node2</title>
<g id="a_Node000002"><a xlink:href="structcM3dGPla.html" target="_top" xlink:title=" ">
<polygon fill="white" stroke="#666666" points="68.5,-85.75 6.75,-85.75 6.75,-66.5 68.5,-66.5 68.5,-85.75"/>
<text text-anchor="middle" x="37.62" y="-72.25" font-family="Helvetica,sans-Serif" font-size="10.00">cM3dGPla</text>
</a>
</g>
</g>
<!-- Node2&#45;&gt;Node1 -->
<g id="edge1_Node000001_Node000002" class="edge">
<title>Node2&#45;&gt;Node1</title>
<g id="a_edge1_Node000001_Node000002"><a xlink:title=" ">
<path fill="none" stroke="#9a32cd" stroke-dasharray="5,2" d="M37.62,-54.65C37.62,-42.82 37.62,-28.54 37.62,-19.52"/>
<polygon fill="#9a32cd" stroke="#9a32cd" points="34.13,-54.64 37.63,-64.64 41.13,-54.64 34.13,-54.64"/>
</a>
</g>
<text text-anchor="middle" x="57.12" y="-39" font-family="Helvetica,sans-Serif" font-size="10.00" fill="grey"> m_plane</text>
</g>
<!-- Node3 -->
<g id="Node000003" class="node">
<title>Node3</title>
<g id="a_Node000003"><a xlink:href="structcXyz.html" target="_top" xlink:title=" ">
<polygon fill="white" stroke="#666666" points="56.12,-187.62 19.12,-187.62 19.12,-168.38 56.12,-168.38 56.12,-187.62"/>
<text text-anchor="middle" x="37.62" y="-174.12" font-family="Helvetica,sans-Serif" font-size="10.00">cXyz</text>
</a>
</g>
</g>
<!-- Node3&#45;&gt;Node2 -->
<g id="edge2_Node000002_Node000003" class="edge">
<title>Node3&#45;&gt;Node2</title>
<g id="a_edge2_Node000002_Node000003"><a xlink:title=" ">
<path fill="none" stroke="#9a32cd" stroke-dasharray="5,2" d="M37.62,-156.72C37.62,-135.12 37.62,-101.93 37.62,-86.11"/>
<polygon fill="#9a32cd" stroke="#9a32cd" points="34.13,-156.62 37.63,-166.62 41.13,-156.62 34.13,-156.62"/>
</a>
</g>
<text text-anchor="middle" x="58.62" y="-105.5" font-family="Helvetica,sans-Serif" font-size="10.00" fill="grey"> mNormal</text>
</g>
<!-- Node3&#45;&gt;Node3 -->
<g id="edge4_Node000003_Node000003" class="edge">
<title>Node3&#45;&gt;Node3</title>
<g id="a_edge4_Node000003_Node000003"><a xlink:title=" ">
<path fill="none" stroke="#9a32cd" stroke-dasharray="5,2" d="M62.39,-189.82C69.06,-189.18 74.12,-185.24 74.12,-178 74.12,-166.96 62.36,-163.6 51.1,-167.91"/>
<polygon fill="#9a32cd" stroke="#9a32cd" points="63.01,-186.37 52.6,-188.32 61.95,-193.29 63.01,-186.37"/>
</a>
</g>
<text text-anchor="middle" x="95.12" y="-213.5" font-family="Helvetica,sans-Serif" font-size="10.00" fill="grey"> BaseX</text>
<text text-anchor="middle" x="95.12" y="-202.25" font-family="Helvetica,sans-Serif" font-size="10.00" fill="grey">BaseXY</text>
<text text-anchor="middle" x="95.12" y="-191" font-family="Helvetica,sans-Serif" font-size="10.00" fill="grey">BaseXYZ</text>
<text text-anchor="middle" x="95.12" y="-179.75" font-family="Helvetica,sans-Serif" font-size="10.00" fill="grey">BaseXZ</text>
<text text-anchor="middle" x="95.12" y="-168.5" font-family="Helvetica,sans-Serif" font-size="10.00" fill="grey">BaseY</text>
<text text-anchor="middle" x="95.12" y="-157.25" font-family="Helvetica,sans-Serif" font-size="10.00" fill="grey">BaseYZ</text>
<text text-anchor="middle" x="95.12" y="-146" font-family="Helvetica,sans-Serif" font-size="10.00" fill="grey">BaseZ</text>
<text text-anchor="middle" x="95.12" y="-134.75" font-family="Helvetica,sans-Serif" font-size="10.00" fill="grey">Zero</text>
</g>
<!-- Node4 -->
<g id="Node000004" class="node">
<title>Node4</title>
<g id="a_Node000004"><a xlink:href="structVec.html" target="_top" xlink:title=" ">
<polygon fill="white" stroke="#666666" points="54.25,-279.25 21,-279.25 21,-260 54.25,-260 54.25,-279.25"/>
<text text-anchor="middle" x="37.62" y="-265.75" font-family="Helvetica,sans-Serif" font-size="10.00">Vec</text>
</a>
</g>
</g>
<!-- Node4&#45;&gt;Node3 -->
<g id="edge3_Node000003_Node000004" class="edge">
<title>Node4&#45;&gt;Node3</title>
<g id="a_edge3_Node000003_Node000004"><a xlink:title=" ">
<path fill="none" stroke="#63b8ff" d="M37.62,-248.44C37.62,-229.44 37.62,-201.89 37.62,-187.89"/>
<polygon fill="#63b8ff" stroke="#63b8ff" points="34.13,-248.19 37.63,-258.19 41.13,-248.19 34.13,-248.19"/>
</a>
</g>
</g>
</g>
</svg>
