<?xml version="1.0" encoding="UTF-8" standalone="no"?>
<!DOCTYPE svg PUBLIC "-//W3C//DTD SVG 1.1//EN"
 "http://www.w3.org/Graphics/SVG/1.1/DTD/svg11.dtd">
<!-- Generated by graphviz version 9.0.0 (20230911.1827)
 -->
<!-- Title: dDlst_FileSelCp_c Pages: 1 -->
<!--zoomable 505 -->

<svg id="main" version="1.1" xmlns="http://www.w3.org/2000/svg" xmlns:xlink="http://www.w3.org/1999/xlink" xml:space="preserve" onload="init(evt)">
<style type="text/css"><![CDATA[
.node, .edge {opacity: 0.7;}
.node.selected, .edge.selected {opacity: 1;}
.edge:hover path { stroke: red; }
.edge:hover polygon { stroke: red; fill: red; }
]]></style>

<defs>
  <circle id="rim" cx="0" cy="0" r="7"/>
  <circle id="rim2" cx="0" cy="0" r="3.5"/>
  <g id="zoomPlus">
    <use xlink:href="#rim" fill="#404040"><set attributeName="fill" to="#808080" begin="zoomplus.mouseover" end="zoomplus.mouseout"/></use>
    <path d="M-4,0h8M0,-4v8" fill="none" stroke="white" stroke-width="1.5" pointer-events="none"/>
  </g>
  <g id="zoomMin">
    <use xlink:href="#rim" fill="#404040"><set attributeName="fill" to="#808080" begin="zoomminus.mouseover" end="zoomminus.mouseout"/></use>
    <path d="M-4,0h8" fill="none" stroke="white" stroke-width="1.5" pointer-events="none"/>
  </g>
  <g id="arrowUp" transform="translate(30 24)">
    <use xlink:href="#rim"/>
    <path pointer-events="none" fill="none" stroke="white" stroke-width="1.5" d="M0,-3.0v7 M-2.5,-0.5L0,-3.0L2.5,-0.5"/>
  </g>
  <g id="arrowRight" transform="rotate(90) translate(36 -43)">
    <use xlink:href="#rim"/>
    <path pointer-events="none" fill="none" stroke="white" stroke-width="1.5" d="M0,-3.0v7 M-2.5,-0.5L0,-3.0L2.5,-0.5"/>
  </g>
  <g id="arrowDown" transform="rotate(180) translate(-30 -48)">
    <use xlink:href="#rim"/>
    <path pointer-events="none" fill="none" stroke="white" stroke-width="1.5" d="M0,-3.0v7 M-2.5,-0.5L0,-3.0L2.5,-0.5"/>
  </g>
  <g id="arrowLeft" transform="rotate(270) translate(-36 17)">
    <use xlink:href="#rim"/>
    <path pointer-events="none" fill="none" stroke="white" stroke-width="1.5" d="M0,-3.0v7 M-2.5,-0.5L0,-3.0L2.5,-0.5"/>
  </g>
  <g id="resetDef">
    <use xlink:href="#rim2" fill="#404040"><set attributeName="fill" to="#808080" begin="reset.mouseover" end="reset.mouseout"/></use>
  </g>
</defs>
<script type="application/ecmascript">
var viewWidth = 1269;
var viewHeight = 505;
var sectionId = 'dynsection-0';
</script>
<script type="application/ecmascript" xlink:href="svg.min.js"/>
<svg id="graph" class="graph">
<g id="viewport">
<title>dDlst_FileSelCp_c</title>
<!-- Node1 -->
<g id="Node000001" class="node">
<title>Node1</title>
<g id="a_Node000001"><a xlink:title=" ">
<polygon fill="#999999" stroke="#666666" points="1261.25,-311.25 1165,-311.25 1165,-292 1261.25,-292 1261.25,-311.25"/>
<text text-anchor="middle" x="1213.12" y="-297.75" font-family="Helvetica,sans-Serif" font-size="10.00">dDlst_FileSelCp_c</text>
</a>
</g>
</g>
<!-- Node2 -->
<g id="Node000002" class="node">
<title>Node2</title>
<g id="a_Node000002"><a xlink:href="structJ2DScreen.html" target="_top" xlink:title=" ">
<polygon fill="white" stroke="#666666" points="1111.75,-236.25 1047.75,-236.25 1047.75,-217 1111.75,-217 1111.75,-236.25"/>
<text text-anchor="middle" x="1079.75" y="-222.75" font-family="Helvetica,sans-Serif" font-size="10.00">J2DScreen</text>
</a>
</g>
</g>
<!-- Node2&#45;&gt;Node1 -->
<g id="edge1_Node000001_Node000002" class="edge">
<title>Node2&#45;&gt;Node1</title>
<g id="a_edge1_Node000001_Node000002"><a xlink:title=" ">
<path fill="none" stroke="#9a32cd" stroke-dasharray="5,2" d="M1108.47,-242.45C1134.5,-257.31 1172.66,-279.1 1194.69,-291.67"/>
<polygon fill="#9a32cd" stroke="#9a32cd" points="1110.2,-239.41 1099.78,-237.49 1106.73,-245.49 1110.2,-239.41"/>
</a>
</g>
<text text-anchor="middle" x="1138.38" y="-265.38" font-family="Helvetica,sans-Serif" font-size="10.00" fill="grey"> Scr</text>
</g>
<!-- Node3 -->
<g id="Node000003" class="node">
<title>Node3</title>
<g id="a_Node000003"><a xlink:href="classJ2DPane.html" target="_top" xlink:title=" ">
<polygon fill="white" stroke="#666666" points="927,-398.25 871.25,-398.25 871.25,-379 927,-379 927,-398.25"/>
<text text-anchor="middle" x="899.12" y="-384.75" font-family="Helvetica,sans-Serif" font-size="10.00">J2DPane</text>
</a>
</g>
</g>
<!-- Node3&#45;&gt;Node1 -->
<g id="edge43_Node000001_Node000003" class="edge">
<title>Node3&#45;&gt;Node1</title>
<g id="a_edge43_Node000001_Node000003"><a xlink:title=" ">
<path fill="none" stroke="#9a32cd" stroke-dasharray="5,2" d="M938.24,-378C998.85,-361.1 1116.38,-328.32 1175.82,-311.75"/>
<polygon fill="#9a32cd" stroke="#9a32cd" points="937.42,-374.59 928.73,-380.65 939.3,-381.34 937.42,-374.59"/>
</a>
</g>
<text text-anchor="middle" x="1079.75" y="-358.62" font-family="Helvetica,sans-Serif" font-size="10.00" fill="grey"> mpPane1</text>
<text text-anchor="middle" x="1079.75" y="-347.38" font-family="Helvetica,sans-Serif" font-size="10.00" fill="grey">mpPane2</text>
</g>
<!-- Node3&#45;&gt;Node2 -->
<g id="edge2_Node000002_Node000003" class="edge">
<title>Node3&#45;&gt;Node2</title>
<g id="a_edge2_Node000002_Node000003"><a xlink:title=" ">
<path fill="none" stroke="#63b8ff" d="M936.14,-374.13C964.26,-361.43 1002.93,-340.76 1029.75,-313.62 1052.78,-290.32 1068.51,-254.01 1075.17,-236.6"/>
<polygon fill="#63b8ff" stroke="#63b8ff" points="935.07,-370.78 927.32,-378 937.88,-377.19 935.07,-370.78"/>
</a>
</g>
</g>
<!-- Node4 -->
<g id="Node000004" class="node">
<title>Node4</title>
<g id="a_Node000004"><a xlink:href="structJGeometry_1_1TBox2.html" target="_top" xlink:title=" ">
<polygon fill="white" stroke="#666666" points="745.25,-481.25 619.75,-481.25 619.75,-462 745.25,-462 745.25,-481.25"/>
<text text-anchor="middle" x="682.5" y="-467.75" font-family="Helvetica,sans-Serif" font-size="10.00">JGeometry::TBox2&lt; f32 &gt;</text>
</a>
</g>
</g>
<!-- Node4&#45;&gt;Node3 -->
<g id="edge3_Node000003_Node000004" class="edge">
<title>Node4&#45;&gt;Node3</title>
<g id="a_edge3_Node000003_Node000004"><a xlink:title=" ">
<path fill="none" stroke="#9a32cd" stroke-dasharray="5,2" d="M740.34,-458.71C768.98,-451.27 803.88,-440.78 833.75,-427.62 851.93,-419.62 871.21,-407.37 883.88,-398.74"/>
<polygon fill="#9a32cd" stroke="#9a32cd" points="739.59,-455.28 730.76,-461.13 741.31,-462.07 739.59,-455.28"/>
</a>
</g>
<text text-anchor="middle" x="798.5" y="-487.12" font-family="Helvetica,sans-Serif" font-size="10.00" fill="grey"> mBounds</text>
<text text-anchor="middle" x="798.5" y="-475.88" font-family="Helvetica,sans-Serif" font-size="10.00" fill="grey">mClipRect</text>
<text text-anchor="middle" x="798.5" y="-464.62" font-family="Helvetica,sans-Serif" font-size="10.00" fill="grey">mGlobalBounds</text>
<text text-anchor="middle" x="798.5" y="-453.38" font-family="Helvetica,sans-Serif" font-size="10.00" fill="grey">static_mBounds</text>
</g>
<!-- Node5 -->
<g id="Node000005" class="node">
<title>Node5</title>
<g id="a_Node000005"><a xlink:href="structJGeometry_1_1TBox.html" target="_top" xlink:title=" ">
<polygon fill="white" stroke="#666666" points="514,-490.25 401.25,-490.25 401.25,-471 514,-471 514,-490.25"/>
<text text-anchor="middle" x="457.62" y="-476.75" font-family="Helvetica,sans-Serif" font-size="10.00">JGeometry::TBox&lt; T &gt;</text>
</a>
</g>
</g>
<!-- Node5&#45;&gt;Node4 -->
<g id="edge4_Node000004_Node000005" class="edge">
<title>Node5&#45;&gt;Node4</title>
<g id="a_edge4_Node000004_Node000005"><a xlink:title=" ">
<path fill="none" stroke="#63b8ff" d="M525.45,-477.93C555.29,-476.72 590.23,-475.31 619.48,-474.13"/>
<polygon fill="#63b8ff" stroke="#63b8ff" points="525.65,-474.42 515.8,-478.32 525.94,-481.41 525.65,-474.42"/>
</a>
</g>
</g>
<!-- Node6 -->
<g id="Node000006" class="node">
<title>Node6</title>
<g id="a_Node000006"><a xlink:href="classJSUTree.html" target="_top" xlink:title=" ">
<polygon fill="white" stroke="#666666" points="738.12,-435.25 626.88,-435.25 626.88,-416 738.12,-416 738.12,-435.25"/>
<text text-anchor="middle" x="682.5" y="-421.75" font-family="Helvetica,sans-Serif" font-size="10.00">JSUTree&lt; J2DPane &gt;</text>
</a>
</g>
</g>
<!-- Node6&#45;&gt;Node3 -->
<g id="edge5_Node000003_Node000006" class="edge">
<title>Node6&#45;&gt;Node3</title>
<g id="a_edge5_Node000003_Node000006"><a xlink:title=" ">
<path fill="none" stroke="#9a32cd" stroke-dasharray="5,2" d="M749.87,-415.62C776.04,-411.52 806.35,-406.58 833.75,-401.62 845.98,-399.41 859.47,-396.73 870.92,-394.37"/>
<polygon fill="#9a32cd" stroke="#9a32cd" points="749.38,-412.16 740.04,-417.15 750.46,-419.07 749.38,-412.16"/>
</a>
</g>
<text text-anchor="middle" x="798.5" y="-414.38" font-family="Helvetica,sans-Serif" font-size="10.00" fill="grey"> mPaneTree</text>
</g>
<!-- Node7 -->
<g id="Node000007" class="node">
<title>Node7</title>
<g id="a_Node000007"><a xlink:href="classJSUList.html" target="_top" xlink:title=" ">
<polygon fill="white" stroke="#666666" points="383.25,-460.25 308.75,-460.25 308.75,-441 383.25,-441 383.25,-460.25"/>
<text text-anchor="middle" x="346" y="-446.75" font-family="Helvetica,sans-Serif" font-size="10.00">JSUList&lt; T &gt;</text>
</a>
</g>
</g>
<!-- Node7&#45;&gt;Node6 -->
<g id="edge6_Node000006_Node000007" class="edge">
<title>Node7&#45;&gt;Node6</title>
<g id="a_edge6_Node000006_Node000007"><a xlink:title=" ">
<path fill="none" stroke="#63b8ff" d="M394.7,-447.06C455.95,-442.48 562.04,-434.55 626.59,-429.73"/>
<polygon fill="#63b8ff" stroke="#63b8ff" points="394.65,-443.55 384.94,-447.79 395.18,-450.53 394.65,-443.55"/>
</a>
</g>
</g>
<!-- Node8 -->
<g id="Node000008" class="node">
<title>Node8</title>
<g id="a_Node000008"><a xlink:href="classJSUPtrList.html" target="_top" xlink:title=" ">
<polygon fill="white" stroke="#666666" points="83.12,-443.25 18.38,-443.25 18.38,-424 83.12,-424 83.12,-443.25"/>
<text text-anchor="middle" x="50.75" y="-429.75" font-family="Helvetica,sans-Serif" font-size="10.00">JSUPtrList</text>
</a>
</g>
</g>
<!-- Node8&#45;&gt;Node7 -->
<g id="edge7_Node000007_Node000008" class="edge">
<title>Node8&#45;&gt;Node7</title>
<g id="a_edge7_Node000007_Node000008"><a xlink:title=" ">
<path fill="none" stroke="#63b8ff" d="M94.63,-438.08C124.15,-440.97 164.29,-444.58 199.75,-446.62 236.65,-448.75 278.88,-449.75 308.26,-450.22"/>
<polygon fill="#63b8ff" stroke="#63b8ff" points="95.27,-434.62 84.97,-437.12 94.58,-441.59 95.27,-434.62"/>
</a>
</g>
</g>
<!-- Node9 -->
<g id="Node000009" class="node">
<title>Node9</title>
<g id="a_Node000009"><a xlink:href="classJSUPtrLink.html" target="_top" xlink:title=" ">
<polygon fill="white" stroke="#666666" points="278.75,-397.25 211.75,-397.25 211.75,-378 278.75,-378 278.75,-397.25"/>
<text text-anchor="middle" x="245.25" y="-383.75" font-family="Helvetica,sans-Serif" font-size="10.00">JSUPtrLink</text>
</a>
</g>
</g>
<!-- Node8&#45;&gt;Node9 -->
<g id="edge9_Node000009_Node000008" class="edge">
<title>Node8&#45;&gt;Node9</title>
<g id="a_edge9_Node000009_Node000008"><a xlink:title=" ">
<path fill="none" stroke="#9a32cd" stroke-dasharray="5,2" d="M94.58,-428.56C120.15,-425 153.13,-419.46 181.75,-411.62 195.2,-407.94 209.78,-402.44 221.46,-397.63"/>
<polygon fill="#9a32cd" stroke="#9a32cd" points="94.34,-425.06 84.89,-429.86 95.27,-432 94.34,-425.06"/>
</a>
</g>
<text text-anchor="middle" x="150.62" y="-425.38" font-family="Helvetica,sans-Serif" font-size="10.00" fill="grey"> mList</text>
</g>
<!-- Node9&#45;&gt;Node8 -->
<g id="edge8_Node000008_Node000009" class="edge">
<title>Node9&#45;&gt;Node8</title>
<g id="a_edge8_Node000008_Node000009"><a xlink:title=" ">
<path fill="none" stroke="#9a32cd" stroke-dasharray="5,2" d="M200.05,-382.19C175.76,-380.67 145.4,-381.21 119.5,-389.12 97.16,-395.95 75.31,-412.64 62.7,-423.52"/>
<polygon fill="#9a32cd" stroke="#9a32cd" points="199.68,-385.67 209.92,-382.96 200.23,-378.69 199.68,-385.67"/>
</a>
</g>
<text text-anchor="middle" x="150.62" y="-401.62" font-family="Helvetica,sans-Serif" font-size="10.00" fill="grey"> mHead</text>
<text text-anchor="middle" x="150.62" y="-390.38" font-family="Helvetica,sans-Serif" font-size="10.00" fill="grey">mTail</text>
</g>
<!-- Node9&#45;&gt;Node9 -->
<g id="edge10_Node000009_Node000009" class="edge">
<title>Node9&#45;&gt;Node9</title>
<g id="a_edge10_Node000009_Node000009"><a xlink:title=" ">
<path fill="none" stroke="#9a32cd" stroke-dasharray="5,2" d="M228.45,-408.65C230.56,-412.53 236.15,-415.25 245.25,-415.25 261.88,-415.25 266.82,-406.15 260.06,-397.54"/>
<polygon fill="#9a32cd" stroke="#9a32cd" points="231.86,-409.49 230.17,-399.03 224.97,-408.26 231.86,-409.49"/>
</a>
</g>
<text text-anchor="middle" x="245.25" y="-428.25" font-family="Helvetica,sans-Serif" font-size="10.00" fill="grey"> mNext</text>
<text text-anchor="middle" x="245.25" y="-417" font-family="Helvetica,sans-Serif" font-size="10.00" fill="grey">mPrev</text>
</g>
<!-- Node10 -->
<g id="Node000010" class="node">
<title>Node10</title>
<g id="a_Node000010"><a xlink:href="classJSULink.html" target="_top" xlink:title=" ">
<polygon fill="white" stroke="#666666" points="496,-405.25 419.25,-405.25 419.25,-386 496,-386 496,-405.25"/>
<text text-anchor="middle" x="457.62" y="-391.75" font-family="Helvetica,sans-Serif" font-size="10.00">JSULink&lt; T &gt;</text>
</a>
</g>
</g>
<!-- Node9&#45;&gt;Node10 -->
<g id="edge12_Node000010_Node000009" class="edge">
<title>Node9&#45;&gt;Node10</title>
<g id="a_edge12_Node000010_Node000009"><a xlink:title=" ">
<path fill="none" stroke="#63b8ff" d="M290.38,-389.3C328.49,-390.75 382.94,-392.82 419.01,-394.19"/>
<polygon fill="#63b8ff" stroke="#63b8ff" points="290.76,-385.82 280.63,-388.93 290.49,-392.81 290.76,-385.82"/>
</a>
</g>
</g>
<!-- Node10&#45;&gt;Node6 -->
<g id="edge11_Node000006_Node000010" class="edge">
<title>Node10&#45;&gt;Node6</title>
<g id="a_edge11_Node000006_Node000010"><a xlink:title=" ">
<path fill="none" stroke="#63b8ff" d="M507.41,-402.19C542.63,-406.93 590.24,-413.34 626.76,-418.26"/>
<polygon fill="#63b8ff" stroke="#63b8ff" points="508.31,-398.78 497.93,-400.92 507.38,-405.72 508.31,-398.78"/>
</a>
</g>
</g>
<!-- Node11 -->
<g id="Node000011" class="node">
<title>Node11</title>
<g id="a_Node000011"><a xlink:href="classJ2DAnmTransform.html" target="_top" xlink:title=" ">
<polygon fill="white" stroke="#666666" points="731.38,-398.25 633.62,-398.25 633.62,-379 731.38,-379 731.38,-398.25"/>
<text text-anchor="middle" x="682.5" y="-384.75" font-family="Helvetica,sans-Serif" font-size="10.00">J2DAnmTransform</text>
</a>
</g>
</g>
<!-- Node11&#45;&gt;Node3 -->
<g id="edge13_Node000003_Node000011" class="edge">
<title>Node11&#45;&gt;Node3</title>
<g id="a_edge13_Node000003_Node000011"><a xlink:title=" ">
<path fill="none" stroke="#9a32cd" stroke-dasharray="5,2" d="M743.1,-388.62C784.88,-388.62 838.77,-388.62 870.77,-388.62"/>
<polygon fill="#9a32cd" stroke="#9a32cd" points="743.18,-385.13 733.18,-388.63 743.18,-392.13 743.18,-385.13"/>
</a>
</g>
<text text-anchor="middle" x="798.5" y="-390.38" font-family="Helvetica,sans-Serif" font-size="10.00" fill="grey"> mTransform</text>
</g>
<!-- Node12 -->
<g id="Node000012" class="node">
<title>Node12</title>
<g id="a_Node000012"><a xlink:href="structJ2DAnmBase.html" target="_top" xlink:title=" ">
<polygon fill="white" stroke="#666666" points="495.62,-351.25 419.62,-351.25 419.62,-332 495.62,-332 495.62,-351.25"/>
<text text-anchor="middle" x="457.62" y="-337.75" font-family="Helvetica,sans-Serif" font-size="10.00">J2DAnmBase</text>
</a>
</g>
</g>
<!-- Node12&#45;&gt;Node11 -->
<g id="edge14_Node000011_Node000012" class="edge">
<title>Node12&#45;&gt;Node11</title>
<g id="a_edge14_Node000011_Node000012"><a xlink:title=" ">
<path fill="none" stroke="#63b8ff" d="M483.58,-357.36C497.33,-365.2 515,-373.98 532,-378.62 565,-387.65 603.54,-390.04 633.23,-390.23"/>
<polygon fill="#63b8ff" stroke="#63b8ff" points="485.61,-354.49 475.22,-352.41 482.04,-360.51 485.61,-354.49"/>
</a>
</g>
</g>
<!-- Node33 -->
<g id="Node000033" class="node">
<title>Node33</title>
<g id="a_Node000033"><a xlink:href="structJ2DMaterial_1_1J2DMaterialAnmPointer.html" target="_top" xlink:title=" ">
<polygon fill="white" stroke="#666666" points="744.5,-357.88 620.5,-357.88 620.5,-327.38 744.5,-327.38 744.5,-357.88"/>
<text text-anchor="start" x="628.5" y="-344.38" font-family="Helvetica,sans-Serif" font-size="10.00">J2DMaterial::J2DMaterial</text>
<text text-anchor="middle" x="682.5" y="-333.12" font-family="Helvetica,sans-Serif" font-size="10.00">AnmPointer</text>
</a>
</g>
</g>
<!-- Node12&#45;&gt;Node33 -->
<g id="edge37_Node000033_Node000012" class="edge">
<title>Node12&#45;&gt;Node33</title>
<g id="a_edge37_Node000033_Node000012"><a xlink:title=" ">
<path fill="none" stroke="#9a32cd" stroke-dasharray="5,2" d="M507.3,-335.57C515.53,-334.76 524,-334.06 532,-333.62 562.95,-331.94 570.8,-331.88 601.75,-333.62 607.73,-333.96 613.95,-334.44 620.17,-335"/>
<polygon fill="#9a32cd" stroke="#9a32cd" points="506.97,-332.08 497.39,-336.61 507.71,-339.05 506.97,-332.08"/>
</a>
</g>
<text text-anchor="middle" x="566.88" y="-369.12" font-family="Helvetica,sans-Serif" font-size="10.00" fill="grey"> field_0x0</text>
<text text-anchor="middle" x="566.88" y="-357.88" font-family="Helvetica,sans-Serif" font-size="10.00" fill="grey">field_0x4</text>
<text text-anchor="middle" x="566.88" y="-346.62" font-family="Helvetica,sans-Serif" font-size="10.00" fill="grey">field_0x8</text>
<text text-anchor="middle" x="566.88" y="-335.38" font-family="Helvetica,sans-Serif" font-size="10.00" fill="grey">field_0xc</text>
</g>
<!-- Node13 -->
<g id="Node000013" class="node">
<title>Node13</title>
<g id="a_Node000013"><a xlink:href="classJ2DDataManage.html" target="_top" xlink:title=" ">
<polygon fill="white" stroke="#666666" points="943.12,-196.25 855.12,-196.25 855.12,-177 943.12,-177 943.12,-196.25"/>
<text text-anchor="middle" x="899.12" y="-182.75" font-family="Helvetica,sans-Serif" font-size="10.00">J2DDataManage</text>
</a>
</g>
</g>
<!-- Node13&#45;&gt;Node2 -->
<g id="edge15_Node000002_Node000013" class="edge">
<title>Node13&#45;&gt;Node2</title>
<g id="a_edge15_Node000002_Node000013"><a xlink:title=" ">
<path fill="none" stroke="#9a32cd" stroke-dasharray="5,2" d="M954.52,-194.13C977.87,-197.87 1005.34,-202.98 1029.75,-209.38 1037.25,-211.34 1045.24,-213.93 1052.55,-216.51"/>
<polygon fill="#9a32cd" stroke="#9a32cd" points="955.34,-190.71 944.92,-192.63 954.26,-197.63 955.34,-190.71"/>
</a>
</g>
<text text-anchor="middle" x="997.12" y="-210.38" font-family="Helvetica,sans-Serif" font-size="10.00" fill="grey"> mDataManage</text>
</g>
<!-- Node14 -->
<g id="Node000014" class="node">
<title>Node14</title>
<g id="a_Node000014"><a xlink:href="structJ2DataManageLink.html" target="_top" xlink:title=" ">
<polygon fill="white" stroke="#666666" points="732.5,-56.25 632.5,-56.25 632.5,-37 732.5,-37 732.5,-56.25"/>
<text text-anchor="middle" x="682.5" y="-42.75" font-family="Helvetica,sans-Serif" font-size="10.00">J2DataManageLink</text>
</a>
</g>
</g>
<!-- Node14&#45;&gt;Node13 -->
<g id="edge16_Node000013_Node000014" class="edge">
<title>Node14&#45;&gt;Node13</title>
<g id="a_edge16_Node000013_Node000014"><a xlink:title=" ">
<path fill="none" stroke="#9a32cd" stroke-dasharray="5,2" d="M744.04,-53.39C774.84,-59.88 810.56,-72.56 833.75,-97.38 855.17,-120.3 831.5,-141.67 851.75,-165.62 855.63,-170.21 860.72,-173.85 866.1,-176.71"/>
<polygon fill="#9a32cd" stroke="#9a32cd" points="744.91,-50 734.44,-51.56 743.6,-56.87 744.91,-50"/>
</a>
</g>
<text text-anchor="middle" x="798.5" y="-98.38" font-family="Helvetica,sans-Serif" font-size="10.00" fill="grey"> mList</text>
</g>
<!-- Node14&#45;&gt;Node14 -->
<g id="edge17_Node000014_Node000014" class="edge">
<title>Node14&#45;&gt;Node14</title>
<g id="a_edge17_Node000014_Node000014"><a xlink:title=" ">
<path fill="none" stroke="#9a32cd" stroke-dasharray="5,2" d="M661.98,-67.65C664.54,-71.53 671.38,-74.25 682.5,-74.25 702.82,-74.25 708.86,-65.15 700.6,-56.54"/>
<polygon fill="#9a32cd" stroke="#9a32cd" points="665.37,-68.53 664.08,-58.02 658.53,-67.04 665.37,-68.53"/>
</a>
</g>
<text text-anchor="middle" x="682.5" y="-76" font-family="Helvetica,sans-Serif" font-size="10.00" fill="grey"> mNext</text>
</g>
<!-- Node15 -->
<g id="Node000015" class="node">
<title>Node15</title>
<g id="a_Node000015"><a xlink:href="classJ2DMaterial.html" target="_top" xlink:title=" ">
<polygon fill="white" stroke="#666666" points="933,-234.25 865.25,-234.25 865.25,-215 933,-215 933,-234.25"/>
<text text-anchor="middle" x="899.12" y="-220.75" font-family="Helvetica,sans-Serif" font-size="10.00">J2DMaterial</text>
</a>
</g>
</g>
<!-- Node15&#45;&gt;Node2 -->
<g id="edge18_Node000002_Node000015" class="edge">
<title>Node15&#45;&gt;Node2</title>
<g id="a_edge18_Node000002_Node000015"><a xlink:title=" ">
<path fill="none" stroke="#9a32cd" stroke-dasharray="5,2" d="M944.59,-225.12C976.62,-225.48 1019.05,-225.96 1047.54,-226.28"/>
<polygon fill="#9a32cd" stroke="#9a32cd" points="944.86,-221.63 934.82,-225.01 944.78,-228.63 944.86,-221.63"/>
</a>
</g>
<text text-anchor="middle" x="997.12" y="-227.38" font-family="Helvetica,sans-Serif" font-size="10.00" fill="grey"> mMaterials</text>
</g>
<!-- Node16 -->
<g id="Node000016" class="node">
<title>Node16</title>
<g id="a_Node000016"><a xlink:href="classJ2DColorBlock.html" target="_top" xlink:title=" ">
<polygon fill="white" stroke="#666666" points="722.75,-271.25 642.25,-271.25 642.25,-252 722.75,-252 722.75,-271.25"/>
<text text-anchor="middle" x="682.5" y="-257.75" font-family="Helvetica,sans-Serif" font-size="10.00">J2DColorBlock</text>
</a>
</g>
</g>
<!-- Node16&#45;&gt;Node15 -->
<g id="edge19_Node000015_Node000016" class="edge">
<title>Node16&#45;&gt;Node15</title>
<g id="a_edge19_Node000015_Node000016"><a xlink:title=" ">
<path fill="none" stroke="#9a32cd" stroke-dasharray="5,2" d="M734.32,-254.65C763.49,-250.44 800.76,-244.73 833.75,-238.62 843.87,-236.75 854.83,-234.47 864.79,-232.29"/>
<polygon fill="#9a32cd" stroke="#9a32cd" points="734.06,-251.15 724.65,-256.03 735.05,-258.08 734.06,-251.15"/>
</a>
</g>
<text text-anchor="middle" x="798.5" y="-251.38" font-family="Helvetica,sans-Serif" font-size="10.00" fill="grey"> mColorBlock</text>
</g>
<!-- Node17 -->
<g id="Node000017" class="node">
<title>Node17</title>
<g id="a_Node000017"><a xlink:href="structJUtility_1_1TColor.html" target="_top" xlink:title=" ">
<polygon fill="white" stroke="#666666" points="497.12,-299.25 418.12,-299.25 418.12,-280 497.12,-280 497.12,-299.25"/>
<text text-anchor="middle" x="457.62" y="-285.75" font-family="Helvetica,sans-Serif" font-size="10.00">JUtility::TColor</text>
</a>
</g>
</g>
<!-- Node17&#45;&gt;Node2 -->
<g id="edge42_Node000002_Node000017" class="edge">
<title>Node17&#45;&gt;Node2</title>
<g id="a_edge42_Node000002_Node000017"><a xlink:title=" ">
<path fill="none" stroke="#9a32cd" stroke-dasharray="5,2" d="M508.8,-288.31C536.26,-287.56 570.88,-286.59 601.75,-285.62 792.93,-279.62 842.64,-280.31 1029.75,-240.62 1035.46,-239.41 1041.49,-237.9 1047.28,-236.31"/>
<polygon fill="#9a32cd" stroke="#9a32cd" points="508.92,-284.8 499.02,-288.57 509.11,-291.8 508.92,-284.8"/>
</a>
</g>
<text text-anchor="middle" x="798.5" y="-281.38" font-family="Helvetica,sans-Serif" font-size="10.00" fill="grey"> mColor</text>
</g>
<!-- Node17&#45;&gt;Node16 -->
<g id="edge20_Node000016_Node000017" class="edge">
<title>Node17&#45;&gt;Node16</title>
<g id="a_edge20_Node000016_Node000017"><a xlink:title=" ">
<path fill="none" stroke="#9a32cd" stroke-dasharray="5,2" d="M508.56,-278.41C516.38,-276.9 524.39,-275.49 532,-274.38 569.12,-268.96 611.78,-265.6 642.01,-263.7"/>
<polygon fill="#9a32cd" stroke="#9a32cd" points="507.91,-274.97 498.8,-280.38 509.29,-281.83 507.91,-274.97"/>
</a>
</g>
<text text-anchor="middle" x="566.88" y="-275.38" font-family="Helvetica,sans-Serif" font-size="10.00" fill="grey"> mMatColor</text>
</g>
<!-- Node18 -->
<g id="Node000018" class="node">
<title>Node18</title>
<g id="a_Node000018"><a xlink:href="struct__GXColor.html" target="_top" xlink:title=" ">
<polygon fill="white" stroke="#666666" points="271.62,-299.25 218.88,-299.25 218.88,-280 271.62,-280 271.62,-299.25"/>
<text text-anchor="middle" x="245.25" y="-285.75" font-family="Helvetica,sans-Serif" font-size="10.00">GXColor</text>
</a>
</g>
</g>
<!-- Node18&#45;&gt;Node17 -->
<g id="edge21_Node000017_Node000018" class="edge">
<title>Node18&#45;&gt;Node17</title>
<g id="a_edge21_Node000017_Node000018"><a xlink:title=" ">
<path fill="none" stroke="#63b8ff" d="M283.54,-289.62C321.29,-289.62 379.42,-289.62 417.73,-289.62"/>
<polygon fill="#63b8ff" stroke="#63b8ff" points="283.56,-286.13 273.56,-289.63 283.56,-293.13 283.56,-286.13"/>
</a>
</g>
</g>
<!-- Node19 -->
<g id="Node000019" class="node">
<title>Node19</title>
<g id="a_Node000019"><a xlink:href="classJ2DColorChan.html" target="_top" xlink:title=" ">
<polygon fill="white" stroke="#666666" points="496.75,-250.25 418.5,-250.25 418.5,-231 496.75,-231 496.75,-250.25"/>
<text text-anchor="middle" x="457.62" y="-236.75" font-family="Helvetica,sans-Serif" font-size="10.00">J2DColorChan</text>
</a>
</g>
</g>
<!-- Node19&#45;&gt;Node16 -->
<g id="edge22_Node000016_Node000019" class="edge">
<title>Node19&#45;&gt;Node16</title>
<g id="a_edge22_Node000016_Node000019"><a xlink:title=" ">
<path fill="none" stroke="#9a32cd" stroke-dasharray="5,2" d="M508.43,-237.33C536.04,-236.31 570.92,-236.34 601.75,-240.38 610.63,-241.54 629.85,-246.63 647.2,-251.54"/>
<polygon fill="#9a32cd" stroke="#9a32cd" points="508.42,-233.83 498.58,-237.76 508.73,-240.82 508.42,-233.83"/>
</a>
</g>
<text text-anchor="middle" x="566.88" y="-241.38" font-family="Helvetica,sans-Serif" font-size="10.00" fill="grey"> mColorChan</text>
</g>
<!-- Node20 -->
<g id="Node000020" class="node">
<title>Node20</title>
<g id="a_Node000020"><a xlink:href="classJ2DTexGenBlock.html" target="_top" xlink:title=" ">
<polygon fill="white" stroke="#666666" points="728.38,-234.25 636.62,-234.25 636.62,-215 728.38,-215 728.38,-234.25"/>
<text text-anchor="middle" x="682.5" y="-220.75" font-family="Helvetica,sans-Serif" font-size="10.00">J2DTexGenBlock</text>
</a>
</g>
</g>
<!-- Node20&#45;&gt;Node15 -->
<g id="edge23_Node000015_Node000020" class="edge">
<title>Node20&#45;&gt;Node15</title>
<g id="a_edge23_Node000015_Node000020"><a xlink:title=" ">
<path fill="none" stroke="#9a32cd" stroke-dasharray="5,2" d="M740.14,-224.62C779.86,-224.62 831.61,-224.62 864.85,-224.62"/>
<polygon fill="#9a32cd" stroke="#9a32cd" points="740.27,-221.13 730.27,-224.63 740.27,-228.13 740.27,-221.13"/>
</a>
</g>
<text text-anchor="middle" x="798.5" y="-226.38" font-family="Helvetica,sans-Serif" font-size="10.00" fill="grey"> mTexGenBlock</text>
</g>
<!-- Node21 -->
<g id="Node000021" class="node">
<title>Node21</title>
<g id="a_Node000021"><a xlink:href="classJ2DTexCoord.html" target="_top" xlink:title=" ">
<polygon fill="white" stroke="#666666" points="494.88,-213.25 420.38,-213.25 420.38,-194 494.88,-194 494.88,-213.25"/>
<text text-anchor="middle" x="457.62" y="-199.75" font-family="Helvetica,sans-Serif" font-size="10.00">J2DTexCoord</text>
</a>
</g>
</g>
<!-- Node21&#45;&gt;Node20 -->
<g id="edge24_Node000020_Node000021" class="edge">
<title>Node21&#45;&gt;Node20</title>
<g id="a_edge24_Node000020_Node000021"><a xlink:title=" ">
<path fill="none" stroke="#9a32cd" stroke-dasharray="5,2" d="M506.35,-208.12C544.83,-211.75 598.57,-216.81 636.35,-220.37"/>
<polygon fill="#9a32cd" stroke="#9a32cd" points="506.72,-204.64 496.44,-207.19 506.06,-211.61 506.72,-204.64"/>
</a>
</g>
<text text-anchor="middle" x="566.88" y="-217.38" font-family="Helvetica,sans-Serif" font-size="10.00" fill="grey"> mTexGenCoord</text>
</g>
<!-- Node22 -->
<g id="Node000022" class="node">
<title>Node22</title>
<g id="a_Node000022"><a xlink:href="structJ2DTexCoordInfo.html" target="_top" xlink:title=" ">
<polygon fill="white" stroke="#666666" points="290.75,-213.25 199.75,-213.25 199.75,-194 290.75,-194 290.75,-213.25"/>
<text text-anchor="middle" x="245.25" y="-199.75" font-family="Helvetica,sans-Serif" font-size="10.00">J2DTexCoordInfo</text>
</a>
</g>
</g>
<!-- Node22&#45;&gt;Node21 -->
<g id="edge25_Node000021_Node000022" class="edge">
<title>Node22&#45;&gt;Node21</title>
<g id="a_edge25_Node000021_Node000022"><a xlink:title=" ">
<path fill="none" stroke="#9a32cd" stroke-dasharray="5,2" d="M302.31,-203.62C339.56,-203.62 387.41,-203.62 419.88,-203.62"/>
<polygon fill="#9a32cd" stroke="#9a32cd" points="302.64,-200.13 292.64,-203.63 302.64,-207.13 302.64,-200.13"/>
</a>
</g>
<text text-anchor="middle" x="346" y="-205.38" font-family="Helvetica,sans-Serif" font-size="10.00" fill="grey"> mTexCoordInfo</text>
</g>
<!-- Node23 -->
<g id="Node000023" class="node">
<title>Node23</title>
<g id="a_Node000023"><a xlink:href="classJ2DTexMtx.html" target="_top" xlink:title=" ">
<polygon fill="white" stroke="#666666" points="490,-176.25 425.25,-176.25 425.25,-157 490,-157 490,-176.25"/>
<text text-anchor="middle" x="457.62" y="-162.75" font-family="Helvetica,sans-Serif" font-size="10.00">J2DTexMtx</text>
</a>
</g>
</g>
<!-- Node23&#45;&gt;Node20 -->
<g id="edge26_Node000020_Node000023" class="edge">
<title>Node23&#45;&gt;Node20</title>
<g id="a_edge26_Node000020_Node000023"><a xlink:title=" ">
<path fill="none" stroke="#9a32cd" stroke-dasharray="5,2" d="M501.67,-171.16C530.7,-175.2 569.46,-182.54 601.75,-195.38 610.52,-198.86 611.14,-202.77 619.75,-206.62 626.48,-209.64 633.84,-212.29 641.06,-214.58"/>
<polygon fill="#9a32cd" stroke="#9a32cd" points="502.13,-167.69 491.76,-169.87 501.23,-174.63 502.13,-167.69"/>
</a>
</g>
<text text-anchor="middle" x="566.88" y="-196.38" font-family="Helvetica,sans-Serif" font-size="10.00" fill="grey"> mTexMtx</text>
</g>
<!-- Node24 -->
<g id="Node000024" class="node">
<title>Node24</title>
<g id="a_Node000024"><a xlink:href="structJ2DTexMtxInfo.html" target="_top" xlink:title=" ">
<polygon fill="white" stroke="#666666" points="285.88,-176.25 204.62,-176.25 204.62,-157 285.88,-157 285.88,-176.25"/>
<text text-anchor="middle" x="245.25" y="-162.75" font-family="Helvetica,sans-Serif" font-size="10.00">J2DTexMtxInfo</text>
</a>
</g>
</g>
<!-- Node24&#45;&gt;Node23 -->
<g id="edge27_Node000023_Node000024" class="edge">
<title>Node24&#45;&gt;Node23</title>
<g id="a_edge27_Node000023_Node000024"><a xlink:title=" ">
<path fill="none" stroke="#9a32cd" stroke-dasharray="5,2" d="M297.65,-166.62C337.43,-166.62 391.25,-166.62 424.95,-166.62"/>
<polygon fill="#9a32cd" stroke="#9a32cd" points="297.83,-163.13 287.83,-166.63 297.83,-170.13 297.83,-163.13"/>
</a>
</g>
<text text-anchor="middle" x="346" y="-168.38" font-family="Helvetica,sans-Serif" font-size="10.00" fill="grey"> mInfo</text>
</g>
<!-- Node25 -->
<g id="Node000025" class="node">
<title>Node25</title>
<g id="a_Node000025"><a xlink:href="structVec.html" target="_top" xlink:title=" ">
<polygon fill="white" stroke="#666666" points="67.38,-195.25 34.12,-195.25 34.12,-176 67.38,-176 67.38,-195.25"/>
<text text-anchor="middle" x="50.75" y="-181.75" font-family="Helvetica,sans-Serif" font-size="10.00">Vec</text>
</a>
</g>
</g>
<!-- Node25&#45;&gt;Node24 -->
<g id="edge28_Node000024_Node000025" class="edge">
<title>Node25&#45;&gt;Node24</title>
<g id="a_edge28_Node000024_Node000025"><a xlink:title=" ">
<path fill="none" stroke="#9a32cd" stroke-dasharray="5,2" d="M79.19,-182.92C111.86,-179.69 166.71,-174.28 204.14,-170.58"/>
<polygon fill="#9a32cd" stroke="#9a32cd" points="78.95,-179.42 69.34,-183.89 79.63,-186.39 78.95,-179.42"/>
</a>
</g>
<text text-anchor="middle" x="150.62" y="-180.38" font-family="Helvetica,sans-Serif" font-size="10.00" fill="grey"> mCenter</text>
</g>
<!-- Node26 -->
<g id="Node000026" class="node">
<title>Node26</title>
<g id="a_Node000026"><a xlink:href="structJ2DTextureSRTInfo.html" target="_top" xlink:title=" ">
<polygon fill="white" stroke="#666666" points="101.5,-158.25 0,-158.25 0,-139 101.5,-139 101.5,-158.25"/>
<text text-anchor="middle" x="50.75" y="-144.75" font-family="Helvetica,sans-Serif" font-size="10.00">J2DTextureSRTInfo</text>
</a>
</g>
</g>
<!-- Node26&#45;&gt;Node24 -->
<g id="edge29_Node000024_Node000026" class="edge">
<title>Node26&#45;&gt;Node24</title>
<g id="a_edge29_Node000024_Node000026"><a xlink:title=" ">
<path fill="none" stroke="#9a32cd" stroke-dasharray="5,2" d="M113.33,-147.94C135.02,-148.35 159.54,-149.55 181.75,-152.38 189.48,-153.36 197.65,-154.87 205.45,-156.55"/>
<polygon fill="#9a32cd" stroke="#9a32cd" points="113.49,-144.44 103.44,-147.81 113.4,-151.44 113.49,-144.44"/>
</a>
</g>
<text text-anchor="middle" x="150.62" y="-153.38" font-family="Helvetica,sans-Serif" font-size="10.00" fill="grey"> mTexSRTInfo</text>
</g>
<!-- Node27 -->
<g id="Node000027" class="node">
<title>Node27</title>
<g id="a_Node000027"><a xlink:href="classJ2DTevBlock.html" target="_top" xlink:title=" ">
<polygon fill="white" stroke="#666666" points="719.75,-197.25 645.25,-197.25 645.25,-178 719.75,-178 719.75,-197.25"/>
<text text-anchor="middle" x="682.5" y="-183.75" font-family="Helvetica,sans-Serif" font-size="10.00">J2DTevBlock</text>
</a>
</g>
</g>
<!-- Node27&#45;&gt;Node15 -->
<g id="edge30_Node000015_Node000027" class="edge">
<title>Node27&#45;&gt;Node15</title>
<g id="a_edge30_Node000015_Node000027"><a xlink:title=" ">
<path fill="none" stroke="#9a32cd" stroke-dasharray="5,2" d="M731.36,-193.45C760.97,-197.33 799.69,-202.89 833.75,-209.38 843.9,-211.31 854.88,-213.77 864.83,-216.14"/>
<polygon fill="#9a32cd" stroke="#9a32cd" points="731.95,-190 721.59,-192.19 731.06,-196.94 731.95,-190"/>
</a>
</g>
<text text-anchor="middle" x="798.5" y="-210.38" font-family="Helvetica,sans-Serif" font-size="10.00" fill="grey"> mTevBlock</text>
</g>
<!-- Node28 -->
<g id="Node000028" class="node">
<title>Node28</title>
<g id="a_Node000028"><a xlink:href="classJ2DIndBlock.html" target="_top" xlink:title=" ">
<polygon fill="white" stroke="#666666" points="718.25,-160.25 646.75,-160.25 646.75,-141 718.25,-141 718.25,-160.25"/>
<text text-anchor="middle" x="682.5" y="-146.75" font-family="Helvetica,sans-Serif" font-size="10.00">J2DIndBlock</text>
</a>
</g>
</g>
<!-- Node28&#45;&gt;Node15 -->
<g id="edge31_Node000015_Node000028" class="edge">
<title>Node28&#45;&gt;Node15</title>
<g id="a_edge31_Node000015_Node000028"><a xlink:title=" ">
<path fill="none" stroke="#9a32cd" stroke-dasharray="5,2" d="M729.64,-152.15C761.06,-155.07 802.47,-162.76 833.75,-182.38 844.82,-189.32 841.35,-197.71 851.75,-205.62 856.32,-209.1 861.62,-212.05 866.96,-214.51"/>
<polygon fill="#9a32cd" stroke="#9a32cd" points="730.3,-148.69 720.06,-151.4 729.75,-155.67 730.3,-148.69"/>
</a>
</g>
<text text-anchor="middle" x="798.5" y="-183.38" font-family="Helvetica,sans-Serif" font-size="10.00" fill="grey"> mIndBlock</text>
</g>
<!-- Node29 -->
<g id="Node000029" class="node">
<title>Node29</title>
<g id="a_Node000029"><a xlink:href="classJ2DPEBlock.html" target="_top" xlink:title=" ">
<polygon fill="white" stroke="#666666" points="717.88,-123.25 647.12,-123.25 647.12,-104 717.88,-104 717.88,-123.25"/>
<text text-anchor="middle" x="682.5" y="-109.75" font-family="Helvetica,sans-Serif" font-size="10.00">J2DPEBlock</text>
</a>
</g>
</g>
<!-- Node29&#45;&gt;Node15 -->
<g id="edge32_Node000015_Node000029" class="edge">
<title>Node29&#45;&gt;Node15</title>
<g id="a_edge32_Node000015_Node000029"><a xlink:title=" ">
<path fill="none" stroke="#9a32cd" stroke-dasharray="5,2" d="M729.33,-110.12C762.34,-110.16 805.8,-115.85 833.75,-141.38 855.65,-161.37 832.03,-183.48 851.75,-205.62 855.34,-209.65 859.91,-212.85 864.77,-215.37"/>
<polygon fill="#9a32cd" stroke="#9a32cd" points="729.59,-106.61 719.65,-110.29 729.71,-113.61 729.59,-106.61"/>
</a>
</g>
<text text-anchor="middle" x="798.5" y="-142.38" font-family="Helvetica,sans-Serif" font-size="10.00" fill="grey"> mPEBlock</text>
</g>
<!-- Node30 -->
<g id="Node000030" class="node">
<title>Node30</title>
<g id="a_Node000030"><a xlink:href="structJ2DAlphaComp.html" target="_top" xlink:title=" ">
<polygon fill="white" stroke="#666666" points="499.38,-130.25 415.88,-130.25 415.88,-111 499.38,-111 499.38,-130.25"/>
<text text-anchor="middle" x="457.62" y="-116.75" font-family="Helvetica,sans-Serif" font-size="10.00">J2DAlphaComp</text>
</a>
</g>
</g>
<!-- Node30&#45;&gt;Node29 -->
<g id="edge33_Node000029_Node000030" class="edge">
<title>Node30&#45;&gt;Node29</title>
<g id="a_edge33_Node000029_Node000030"><a xlink:title=" ">
<path fill="none" stroke="#9a32cd" stroke-dasharray="5,2" d="M511.13,-118.98C553.02,-117.66 610.5,-115.85 646.82,-114.71"/>
<polygon fill="#9a32cd" stroke="#9a32cd" points="511.16,-115.47 501.28,-119.29 511.38,-122.47 511.16,-115.47"/>
</a>
</g>
<text text-anchor="middle" x="566.88" y="-119.38" font-family="Helvetica,sans-Serif" font-size="10.00" fill="grey"> mAlphaComp</text>
</g>
<!-- Node31 -->
<g id="Node000031" class="node">
<title>Node31</title>
<g id="a_Node000031"><a xlink:href="structJ2DBlend.html" target="_top" xlink:title=" ">
<polygon fill="white" stroke="#666666" points="486.62,-93.25 428.62,-93.25 428.62,-74 486.62,-74 486.62,-93.25"/>
<text text-anchor="middle" x="457.62" y="-79.75" font-family="Helvetica,sans-Serif" font-size="10.00">J2DBlend</text>
</a>
</g>
</g>
<!-- Node31&#45;&gt;Node29 -->
<g id="edge34_Node000029_Node000031" class="edge">
<title>Node31&#45;&gt;Node29</title>
<g id="a_edge34_Node000029_Node000031"><a xlink:title=" ">
<path fill="none" stroke="#9a32cd" stroke-dasharray="5,2" d="M498.14,-87.73C526.92,-90.85 566.81,-95.43 601.75,-100.38 616.62,-102.48 632.99,-105.14 647.01,-107.52"/>
<polygon fill="#9a32cd" stroke="#9a32cd" points="498.74,-84.28 488.42,-86.69 497.99,-91.24 498.74,-84.28"/>
</a>
</g>
<text text-anchor="middle" x="566.88" y="-101.38" font-family="Helvetica,sans-Serif" font-size="10.00" fill="grey"> mBlend</text>
</g>
<!-- Node32 -->
<g id="Node000032" class="node">
<title>Node32</title>
<g id="a_Node000032"><a xlink:href="structJ2DBlendInfo.html" target="_top" xlink:title=" ">
<polygon fill="white" stroke="#666666" points="282.5,-93.25 208,-93.25 208,-74 282.5,-74 282.5,-93.25"/>
<text text-anchor="middle" x="245.25" y="-79.75" font-family="Helvetica,sans-Serif" font-size="10.00">J2DBlendInfo</text>
</a>
</g>
</g>
<!-- Node32&#45;&gt;Node31 -->
<g id="edge35_Node000031_Node000032" class="edge">
<title>Node32&#45;&gt;Node31</title>
<g id="a_edge35_Node000031_Node000032"><a xlink:title=" ">
<path fill="none" stroke="#9a32cd" stroke-dasharray="5,2" d="M294.33,-83.62C335.65,-83.62 393.84,-83.62 428.15,-83.62"/>
<polygon fill="#9a32cd" stroke="#9a32cd" points="294.41,-80.13 284.41,-83.63 294.41,-87.13 294.41,-80.13"/>
</a>
</g>
<text text-anchor="middle" x="346" y="-85.38" font-family="Helvetica,sans-Serif" font-size="10.00" fill="grey"> mBlendInfo</text>
</g>
<!-- Node33&#45;&gt;Node15 -->
<g id="edge36_Node000015_Node000033" class="edge">
<title>Node33&#45;&gt;Node15</title>
<g id="a_edge36_Node000015_Node000033"><a xlink:title=" ">
<path fill="none" stroke="#9a32cd" stroke-dasharray="5,2" d="M756.15,-340.24C782.23,-336.61 810.84,-329.21 833.75,-314.62 865.02,-294.71 885.73,-253.67 894.03,-234.68"/>
<polygon fill="#9a32cd" stroke="#9a32cd" points="755.77,-336.76 746.26,-341.43 756.61,-343.71 755.77,-336.76"/>
</a>
</g>
<text text-anchor="middle" x="798.5" y="-340.38" font-family="Helvetica,sans-Serif" font-size="10.00" fill="grey"> mAnmPointer</text>
</g>
<!-- Node34 -->
<g id="Node000034" class="node">
<title>Node34</title>
<g id="a_Node000034"><a xlink:href="structJ2DResReference.html" target="_top" xlink:title=" ">
<polygon fill="white" stroke="#666666" points="946.5,-156.25 851.75,-156.25 851.75,-137 946.5,-137 946.5,-156.25"/>
<text text-anchor="middle" x="899.12" y="-142.75" font-family="Helvetica,sans-Serif" font-size="10.00">J2DResReference</text>
</a>
</g>
</g>
<!-- Node34&#45;&gt;Node2 -->
<g id="edge38_Node000002_Node000034" class="edge">
<title>Node34&#45;&gt;Node2</title>
<g id="a_edge38_Node000002_Node000034"><a xlink:title=" ">
<path fill="none" stroke="#9a32cd" stroke-dasharray="5,2" d="M958.06,-148.18C981.56,-150.91 1008.18,-156.82 1029.75,-169.12 1049.8,-180.56 1065.44,-203.45 1073.26,-216.64"/>
<polygon fill="#9a32cd" stroke="#9a32cd" points="958.61,-144.72 948.32,-147.23 957.93,-151.68 958.61,-144.72"/>
</a>
</g>
<text text-anchor="middle" x="997.12" y="-181.62" font-family="Helvetica,sans-Serif" font-size="10.00" fill="grey"> mFontRes</text>
<text text-anchor="middle" x="997.12" y="-170.38" font-family="Helvetica,sans-Serif" font-size="10.00" fill="grey">mTexRes</text>
</g>
<!-- Node35 -->
<g id="Node000035" class="node">
<title>Node35</title>
<g id="a_Node000035"><a xlink:href="structJUTNameTab.html" target="_top" xlink:title=" ">
<polygon fill="white" stroke="#666666" points="937.88,-87.25 860.38,-87.25 860.38,-68 937.88,-68 937.88,-87.25"/>
<text text-anchor="middle" x="899.12" y="-73.75" font-family="Helvetica,sans-Serif" font-size="10.00">JUTNameTab</text>
</a>
</g>
</g>
<!-- Node35&#45;&gt;Node2 -->
<g id="edge39_Node000002_Node000035" class="edge">
<title>Node35&#45;&gt;Node2</title>
<g id="a_edge39_Node000002_Node000035"><a xlink:title=" ">
<path fill="none" stroke="#9a32cd" stroke-dasharray="5,2" d="M949.2,-90.03C975.56,-98.68 1007.17,-112.49 1029.75,-133.38 1055.52,-157.22 1070.2,-197.75 1075.93,-216.53"/>
<polygon fill="#9a32cd" stroke="#9a32cd" points="950.31,-86.7 939.72,-87.08 948.23,-93.39 950.31,-86.7"/>
</a>
</g>
<text text-anchor="middle" x="997.12" y="-134.38" font-family="Helvetica,sans-Serif" font-size="10.00" fill="grey"> mNameTable</text>
</g>
<!-- Node36 -->
<g id="Node000036" class="node">
<title>Node36</title>
<g id="a_Node000036"><a xlink:href="structResNTAB.html" target="_top" xlink:title=" ">
<polygon fill="white" stroke="#666666" points="712.62,-19.25 652.38,-19.25 652.38,0 712.62,0 712.62,-19.25"/>
<text text-anchor="middle" x="682.5" y="-5.75" font-family="Helvetica,sans-Serif" font-size="10.00">ResNTAB</text>
</a>
</g>
</g>
<!-- Node36&#45;&gt;Node35 -->
<g id="edge40_Node000035_Node000036" class="edge">
<title>Node36&#45;&gt;Node35</title>
<g id="a_edge40_Node000035_Node000036"><a xlink:title=" ">
<path fill="none" stroke="#9a32cd" stroke-dasharray="5,2" d="M724.07,-13.41C754.94,-17.22 798.05,-24.6 833.75,-38.38 852.8,-45.73 872.54,-58.69 885.05,-67.7"/>
<polygon fill="#9a32cd" stroke="#9a32cd" points="724.71,-9.96 714.38,-12.28 723.91,-16.91 724.71,-9.96"/>
</a>
</g>
<text text-anchor="middle" x="798.5" y="-40.38" font-family="Helvetica,sans-Serif" font-size="10.00" fill="grey"> mNameTable</text>
</g>
<!-- Node37 -->
<g id="Node000037" class="node">
<title>Node37</title>
<g id="a_Node000037"><a xlink:href="structResNTAB_1_1Entry.html" target="_top" xlink:title=" ">
<polygon fill="white" stroke="#666666" points="500.88,-19.25 414.38,-19.25 414.38,0 500.88,0 500.88,-19.25"/>
<text text-anchor="middle" x="457.62" y="-5.75" font-family="Helvetica,sans-Serif" font-size="10.00">ResNTAB::Entry</text>
</a>
</g>
</g>
<!-- Node37&#45;&gt;Node36 -->
<g id="edge41_Node000036_Node000037" class="edge">
<title>Node37&#45;&gt;Node36</title>
<g id="a_edge41_Node000036_Node000037"><a xlink:title=" ">
<path fill="none" stroke="#9a32cd" stroke-dasharray="5,2" d="M512.67,-9.62C556.52,-9.62 616.68,-9.62 652.09,-9.62"/>
<polygon fill="#9a32cd" stroke="#9a32cd" points="512.85,-6.13 502.85,-9.63 512.85,-13.13 512.85,-6.13"/>
</a>
</g>
<text text-anchor="middle" x="566.88" y="-11.38" font-family="Helvetica,sans-Serif" font-size="10.00" fill="grey"> mEntries</text>
</g>
</g>
</svg>

<g id="navigator" transform="translate(0 0)" fill="#404254">
  <rect fill="#f2f5e9" fill-opacity="0.5" stroke="#606060" stroke-width=".5" x="0" y="0" width="60" height="60"/>
  <use id="zoomplus" xlink:href="#zoomPlus" x="17" y="9" onmousedown="handleZoom(evt,'in')"/>
  <use id="zoomminus" xlink:href="#zoomMin" x="42" y="9" onmousedown="handleZoom(evt,'out')"/>
  <use id="reset" xlink:href="#resetDef" x="30" y="36" onmousedown="handleReset()"/>
   <use id="arrowup" xlink:href="#arrowUp" x="0" y="0" onmousedown="handlePan(0,-1)"/>
  <use id="arrowright" xlink:href="#arrowRight" x="0" y="0" onmousedown="handlePan(1,0)"/>
  <use id="arrowdown" xlink:href="#arrowDown" x="0" y="0" onmousedown="handlePan(0,1)"/>
  <use id="arrowleft" xlink:href="#arrowLeft" x="0" y="0" onmousedown="handlePan(-1,0)"/>
</g>
<svg viewBox="0 0 15 15" width="100%" height="30px" preserveAspectRatio="xMaxYMin meet">
 <g id="arrow_out" transform="scale(0.3 0.3)">
  <a xlink:href="classdDlst__FileSelCp__c__coll__graph_org.svg" target="_base">
   <rect id="button" ry="5" rx="5" y="6" x="6" height="38" width="38"
        fill="#f2f5e9" fill-opacity="0.5" stroke="#606060" stroke-width="1.0"/>
   <path id="arrow"
     d="M 11.500037,31.436501 C 11.940474,20.09759 22.043105,11.32322 32.158766,21.979434 L 37.068811,17.246167 C 37.068811,17.246167 37.088388,32 37.088388,32 L 22.160133,31.978069 C 22.160133,31.978069 26.997745,27.140456 26.997745,27.140456 C 18.528582,18.264221 13.291696,25.230495 11.500037,31.436501 z"
     style="fill:#404040;"/>
  </a>
 </g>
</svg>

<style type='text/css'>
<![CDATA[
[data-mouse-over-selected='false'] { opacity: 0.7; }
[data-mouse-over-selected='true']  { opacity: 1.0; }
]]>
</style>
<script type="application/ecmascript"><![CDATA[
document.addEventListener('DOMContentLoaded', (event) => {
  highlightEdges();
  highlightAdjacentNodes();
});
]]></script>
</svg>
