<?xml version="1.0" encoding="UTF-8" standalone="no"?>
<!DOCTYPE svg PUBLIC "-//W3C//DTD SVG 1.1//EN"
 "http://www.w3.org/Graphics/SVG/1.1/DTD/svg11.dtd">
<!-- Generated by graphviz version 9.0.0 (20230911.1827)
 -->
<!-- Title: dMenu_FmapMap_c Pages: 1 -->
<svg width="2649pt" height="505pt"
 viewBox="0.00 0.00 2649.25 505.25" xmlns="http://www.w3.org/2000/svg" xmlns:xlink="http://www.w3.org/1999/xlink">
<g id="graph0" class="graph" transform="scale(1 1) rotate(0) translate(4 501.25)">
<title>dMenu_FmapMap_c</title>
<!-- Node1 -->
<g id="Node000001" class="node">
<title>Node1</title>
<g id="a_Node000001"><a xlink:title=" ">
<polygon fill="#999999" stroke="#666666" points="2641.25,-181.25 2536.75,-181.25 2536.75,-162 2641.25,-162 2641.25,-181.25"/>
<text text-anchor="middle" x="2589" y="-167.75" font-family="Helvetica,sans-Serif" font-size="10.00">dMenu_FmapMap_c</text>
</a>
</g>
</g>
<!-- Node2 -->
<g id="Node000002" class="node">
<title>Node2</title>
<g id="a_Node000002"><a xlink:href="classrenderingFmap__c.html" target="_top" xlink:title=" ">
<polygon fill="white" stroke="#666666" points="2447.88,-335.25 2356.88,-335.25 2356.88,-316 2447.88,-316 2447.88,-335.25"/>
<text text-anchor="middle" x="2402.38" y="-321.75" font-family="Helvetica,sans-Serif" font-size="10.00">renderingFmap_c</text>
</a>
</g>
</g>
<!-- Node2&#45;&gt;Node1 -->
<g id="edge1_Node000001_Node000002" class="edge">
<title>Node2&#45;&gt;Node1</title>
<g id="a_edge1_Node000001_Node000002"><a xlink:title=" ">
<path fill="none" stroke="#63b8ff" d="M2423.9,-308.5C2462.61,-276.22 2545.26,-207.28 2576.08,-181.57"/>
<polygon fill="#63b8ff" stroke="#63b8ff" points="2422.09,-305.46 2416.65,-314.55 2426.57,-310.83 2422.09,-305.46"/>
</a>
</g>
</g>
<!-- Node3 -->
<g id="Node000003" class="node">
<title>Node3</title>
<g id="a_Node000003"><a xlink:href="structdRenderingFDAmap__c.html" target="_top" xlink:title=" ">
<polygon fill="white" stroke="#666666" points="2247.38,-496.25 2133.88,-496.25 2133.88,-477 2247.38,-477 2247.38,-496.25"/>
<text text-anchor="middle" x="2190.62" y="-482.75" font-family="Helvetica,sans-Serif" font-size="10.00">dRenderingFDAmap_c</text>
</a>
</g>
</g>
<!-- Node3&#45;&gt;Node2 -->
<g id="edge2_Node000002_Node000003" class="edge">
<title>Node3&#45;&gt;Node2</title>
<g id="a_edge2_Node000002_Node000003"><a xlink:title=" ">
<path fill="none" stroke="#63b8ff" d="M2259.18,-488.86C2286.18,-486.57 2316.11,-479.69 2338.5,-462.62 2381.38,-429.95 2395.96,-361.15 2400.02,-335.52"/>
<polygon fill="#63b8ff" stroke="#63b8ff" points="2259.09,-485.35 2249.33,-489.47 2259.53,-492.34 2259.09,-485.35"/>
</a>
</g>
</g>
<!-- Node4 -->
<g id="Node000004" class="node">
<title>Node4</title>
<g id="a_Node000004"><a xlink:href="structdRenderingMap__c.html" target="_top" xlink:title=" ">
<polygon fill="white" stroke="#666666" points="1968.88,-497.25 1874.88,-497.25 1874.88,-478 1968.88,-478 1968.88,-497.25"/>
<text text-anchor="middle" x="1921.88" y="-483.75" font-family="Helvetica,sans-Serif" font-size="10.00">dRenderingMap_c</text>
</a>
</g>
</g>
<!-- Node4&#45;&gt;Node3 -->
<g id="edge3_Node000003_Node000004" class="edge">
<title>Node4&#45;&gt;Node3</title>
<g id="a_edge3_Node000003_Node000004"><a xlink:title=" ">
<path fill="none" stroke="#63b8ff" d="M1980.75,-487.41C2026.05,-487.24 2088.68,-487 2133.52,-486.84"/>
<polygon fill="#63b8ff" stroke="#63b8ff" points="1980.84,-483.91 1970.85,-487.45 1980.87,-490.91 1980.84,-483.91"/>
</a>
</g>
</g>
<!-- Node5 -->
<g id="Node000005" class="node">
<title>Node5</title>
<g id="a_Node000005"><a xlink:href="classdDrawPathWithNormalPattern__c.html" target="_top" xlink:title=" ">
<polygon fill="white" stroke="#666666" points="1688.5,-497.25 1531.5,-497.25 1531.5,-478 1688.5,-478 1688.5,-497.25"/>
<text text-anchor="middle" x="1610" y="-483.75" font-family="Helvetica,sans-Serif" font-size="10.00">dDrawPathWithNormalPattern_c</text>
</a>
</g>
</g>
<!-- Node5&#45;&gt;Node4 -->
<g id="edge4_Node000004_Node000005" class="edge">
<title>Node5&#45;&gt;Node4</title>
<g id="a_edge4_Node000004_Node000005"><a xlink:title=" ">
<path fill="none" stroke="#63b8ff" d="M1699.97,-487.62C1756.89,-487.62 1828.41,-487.62 1874.38,-487.62"/>
<polygon fill="#63b8ff" stroke="#63b8ff" points="1700.31,-484.13 1690.31,-487.63 1700.31,-491.13 1700.31,-484.13"/>
</a>
</g>
</g>
<!-- Node6 -->
<g id="Node000006" class="node">
<title>Node6</title>
<g id="a_Node000006"><a xlink:href="structdDrawPath__c.html" target="_top" xlink:title=" ">
<polygon fill="white" stroke="#666666" points="1390.88,-497.25 1316.38,-497.25 1316.38,-478 1390.88,-478 1390.88,-497.25"/>
<text text-anchor="middle" x="1353.62" y="-483.75" font-family="Helvetica,sans-Serif" font-size="10.00">dDrawPath_c</text>
</a>
</g>
</g>
<!-- Node6&#45;&gt;Node5 -->
<g id="edge5_Node000005_Node000006" class="edge">
<title>Node6&#45;&gt;Node5</title>
<g id="a_edge5_Node000005_Node000006"><a xlink:title=" ">
<path fill="none" stroke="#63b8ff" d="M1402.56,-487.62C1438.74,-487.62 1489.15,-487.62 1531.1,-487.62"/>
<polygon fill="#63b8ff" stroke="#63b8ff" points="1402.86,-484.13 1392.86,-487.63 1402.86,-491.13 1402.86,-484.13"/>
</a>
</g>
</g>
<!-- Node7 -->
<g id="Node000007" class="node">
<title>Node7</title>
<g id="a_Node000007"><a xlink:href="classdDlst__base__c.html" target="_top" xlink:title=" ">
<polygon fill="white" stroke="#666666" points="1066.62,-497.25 991.38,-497.25 991.38,-478 1066.62,-478 1066.62,-497.25"/>
<text text-anchor="middle" x="1029" y="-483.75" font-family="Helvetica,sans-Serif" font-size="10.00">dDlst_base_c</text>
</a>
</g>
</g>
<!-- Node7&#45;&gt;Node6 -->
<g id="edge6_Node000006_Node000007" class="edge">
<title>Node7&#45;&gt;Node6</title>
<g id="a_edge6_Node000006_Node000007"><a xlink:title=" ">
<path fill="none" stroke="#63b8ff" d="M1078.16,-487.62C1143.19,-487.62 1257.61,-487.62 1316.05,-487.62"/>
<polygon fill="#63b8ff" stroke="#63b8ff" points="1078.52,-484.13 1068.52,-487.63 1078.52,-491.13 1078.52,-484.13"/>
</a>
</g>
</g>
<!-- Node8 -->
<g id="Node000008" class="node">
<title>Node8</title>
<g id="a_Node000008"><a xlink:href="structcXyz.html" target="_top" xlink:title=" ">
<polygon fill="white" stroke="#666666" points="379.75,-189.25 342.75,-189.25 342.75,-170 379.75,-170 379.75,-189.25"/>
<text text-anchor="middle" x="361.25" y="-175.75" font-family="Helvetica,sans-Serif" font-size="10.00">cXyz</text>
</a>
</g>
</g>
<!-- Node8&#45;&gt;Node2 -->
<g id="edge7_Node000002_Node000008" class="edge">
<title>Node8&#45;&gt;Node2</title>
<g id="a_edge7_Node000002_Node000008"><a xlink:title=" ">
<path fill="none" stroke="#9a32cd" stroke-dasharray="5,2" d="M391.45,-179.62C439.83,-179.62 539.64,-179.62 624.12,-179.62 624.12,-179.62 624.12,-179.62 2191.62,-179.62 2287.02,-179.62 2370.12,-282.6 2394.3,-315.59"/>
<polygon fill="#9a32cd" stroke="#9a32cd" points="391.55,-176.13 381.55,-179.63 391.54,-183.13 391.55,-176.13"/>
</a>
</g>
<text text-anchor="middle" x="1353.62" y="-203.88" font-family="Helvetica,sans-Serif" font-size="10.00" fill="grey"> mCenter</text>
<text text-anchor="middle" x="1353.62" y="-192.62" font-family="Helvetica,sans-Serif" font-size="10.00" fill="grey">mEye</text>
<text text-anchor="middle" x="1353.62" y="-181.38" font-family="Helvetica,sans-Serif" font-size="10.00" fill="grey">mUp</text>
</g>
<!-- Node8&#45;&gt;Node8 -->
<g id="edge9_Node000008_Node000008" class="edge">
<title>Node8&#45;&gt;Node8</title>
<g id="a_edge9_Node000008_Node000008"><a xlink:title=" ">
<path fill="none" stroke="#9a32cd" stroke-dasharray="5,2" d="M340.93,-200.65C343.47,-204.53 350.24,-207.25 361.25,-207.25 381.38,-207.25 387.35,-198.15 379.18,-189.54"/>
<polygon fill="#9a32cd" stroke="#9a32cd" points="344.32,-201.53 343.01,-191.02 337.47,-200.05 344.32,-201.53"/>
</a>
</g>
<text text-anchor="middle" x="361.25" y="-287.75" font-family="Helvetica,sans-Serif" font-size="10.00" fill="grey"> BaseX</text>
<text text-anchor="middle" x="361.25" y="-276.5" font-family="Helvetica,sans-Serif" font-size="10.00" fill="grey">BaseXY</text>
<text text-anchor="middle" x="361.25" y="-265.25" font-family="Helvetica,sans-Serif" font-size="10.00" fill="grey">BaseXYZ</text>
<text text-anchor="middle" x="361.25" y="-254" font-family="Helvetica,sans-Serif" font-size="10.00" fill="grey">BaseXZ</text>
<text text-anchor="middle" x="361.25" y="-242.75" font-family="Helvetica,sans-Serif" font-size="10.00" fill="grey">BaseY</text>
<text text-anchor="middle" x="361.25" y="-231.5" font-family="Helvetica,sans-Serif" font-size="10.00" fill="grey">BaseYZ</text>
<text text-anchor="middle" x="361.25" y="-220.25" font-family="Helvetica,sans-Serif" font-size="10.00" fill="grey">BaseZ</text>
<text text-anchor="middle" x="361.25" y="-209" font-family="Helvetica,sans-Serif" font-size="10.00" fill="grey">Zero</text>
</g>
<!-- Node9 -->
<g id="Node000009" class="node">
<title>Node9</title>
<g id="a_Node000009"><a xlink:href="structVec.html" target="_top" xlink:title=" ">
<polygon fill="white" stroke="#666666" points="79,-256.25 45.75,-256.25 45.75,-237 79,-237 79,-256.25"/>
<text text-anchor="middle" x="62.38" y="-242.75" font-family="Helvetica,sans-Serif" font-size="10.00">Vec</text>
</a>
</g>
</g>
<!-- Node9&#45;&gt;Node8 -->
<g id="edge8_Node000008_Node000009" class="edge">
<title>Node9&#45;&gt;Node8</title>
<g id="a_edge8_Node000008_Node000009"><a xlink:title=" ">
<path fill="none" stroke="#63b8ff" d="M90.47,-240.51C150.28,-227.01 292.24,-194.97 342.35,-183.66"/>
<polygon fill="#63b8ff" stroke="#63b8ff" points="89.8,-237.07 80.81,-242.69 91.34,-243.9 89.8,-237.07"/>
</a>
</g>
</g>
<!-- Node18 -->
<g id="Node000018" class="node">
<title>Node18</title>
<g id="a_Node000018"><a xlink:href="structdTres__c_1_1data__s.html" target="_top" xlink:title=" ">
<polygon fill="white" stroke="#666666" points="289.25,-322.25 204.25,-322.25 204.25,-303 289.25,-303 289.25,-322.25"/>
<text text-anchor="middle" x="246.75" y="-308.75" font-family="Helvetica,sans-Serif" font-size="10.00">dTres_c::data_s</text>
</a>
</g>
</g>
<!-- Node9&#45;&gt;Node18 -->
<g id="edge19_Node000018_Node000009" class="edge">
<title>Node9&#45;&gt;Node18</title>
<g id="a_edge19_Node000018_Node000009"><a xlink:title=" ">
<path fill="none" stroke="#9a32cd" stroke-dasharray="5,2" d="M89.8,-256.19C123.98,-268.56 183.24,-290 218.04,-302.6"/>
<polygon fill="#9a32cd" stroke="#9a32cd" points="91.26,-252.99 80.66,-252.88 88.88,-259.58 91.26,-252.99"/>
</a>
</g>
<text text-anchor="middle" x="160" y="-288.38" font-family="Helvetica,sans-Serif" font-size="10.00" fill="grey"> mPos</text>
</g>
<!-- Node10 -->
<g id="Node000010" class="node">
<title>Node10</title>
<g id="a_Node000010"><a xlink:href="classdMenu__Fmap__world__data__c.html" target="_top" xlink:title=" ">
<polygon fill="white" stroke="#666666" points="2259.75,-420.25 2121.5,-420.25 2121.5,-401 2259.75,-401 2259.75,-420.25"/>
<text text-anchor="middle" x="2190.62" y="-406.75" font-family="Helvetica,sans-Serif" font-size="10.00">dMenu_Fmap_world_data_c</text>
</a>
</g>
</g>
<!-- Node10&#45;&gt;Node2 -->
<g id="edge10_Node000002_Node000010" class="edge">
<title>Node10&#45;&gt;Node2</title>
<g id="a_edge10_Node000002_Node000010"><a xlink:title=" ">
<path fill="none" stroke="#9a32cd" stroke-dasharray="5,2" d="M2271.35,-405.77C2293.92,-402.12 2317.93,-395.95 2338.5,-385.62 2362.5,-373.57 2383.52,-349.27 2394.11,-335.58"/>
<polygon fill="#9a32cd" stroke="#9a32cd" points="2270.94,-402.29 2261.55,-407.2 2271.95,-409.22 2270.94,-402.29"/>
</a>
</g>
<text text-anchor="middle" x="2308.12" y="-405.38" font-family="Helvetica,sans-Serif" font-size="10.00" fill="grey"> mpWorldData</text>
</g>
<!-- Node11 -->
<g id="Node000011" class="node">
<title>Node11</title>
<g id="a_Node000011"><a xlink:href="classdMenu__Fmap__region__data__c.html" target="_top" xlink:title=" ">
<polygon fill="white" stroke="#666666" points="1992.5,-381.25 1851.25,-381.25 1851.25,-362 1992.5,-362 1992.5,-381.25"/>
<text text-anchor="middle" x="1921.88" y="-367.75" font-family="Helvetica,sans-Serif" font-size="10.00">dMenu_Fmap_region_data_c</text>
</a>
</g>
</g>
<!-- Node11&#45;&gt;Node2 -->
<g id="edge36_Node000002_Node000011" class="edge">
<title>Node11&#45;&gt;Node2</title>
<g id="a_edge36_Node000002_Node000011"><a xlink:title=" ">
<path fill="none" stroke="#9a32cd" stroke-dasharray="5,2" d="M2003.97,-368.8C2088.02,-365.06 2223.02,-356.84 2338.5,-339.62 2345.47,-338.59 2352.81,-337.21 2359.93,-335.73"/>
<polygon fill="#9a32cd" stroke="#9a32cd" points="2004.06,-365.29 1994.22,-369.22 2004.36,-372.28 2004.06,-365.29"/>
</a>
</g>
<text text-anchor="middle" x="2190.62" y="-363.38" font-family="Helvetica,sans-Serif" font-size="10.00" fill="grey"> mpRegionData</text>
</g>
<!-- Node11&#45;&gt;Node10 -->
<g id="edge11_Node000010_Node000011" class="edge">
<title>Node11&#45;&gt;Node10</title>
<g id="a_edge11_Node000010_Node000011"><a xlink:title=" ">
<path fill="none" stroke="#9a32cd" stroke-dasharray="5,2" d="M1996.31,-383.47C2001.11,-384.21 2005.87,-384.93 2010.5,-385.62 2046.99,-391.09 2087.72,-396.8 2121.11,-401.39"/>
<polygon fill="#9a32cd" stroke="#9a32cd" points="1997,-380.03 1986.58,-381.95 1995.92,-386.95 1997,-380.03"/>
</a>
</g>
<text text-anchor="middle" x="2057" y="-400.38" font-family="Helvetica,sans-Serif" font-size="10.00" fill="grey"> mp_fmapRegionData</text>
</g>
<!-- Node11&#45;&gt;Node11 -->
<g id="edge35_Node000011_Node000011" class="edge">
<title>Node11&#45;&gt;Node11</title>
<g id="a_edge35_Node000011_Node000011"><a xlink:title=" ">
<path fill="none" stroke="#9a32cd" stroke-dasharray="5,2" d="M1897.89,-392.65C1900.89,-396.53 1908.89,-399.25 1921.88,-399.25 1945.63,-399.25 1952.68,-390.15 1943.03,-381.54"/>
<polygon fill="#9a32cd" stroke="#9a32cd" points="1901.27,-393.56 1900.35,-383 1894.49,-391.83 1901.27,-393.56"/>
</a>
</g>
<text text-anchor="middle" x="1921.88" y="-401" font-family="Helvetica,sans-Serif" font-size="10.00" fill="grey"> mpNextData</text>
</g>
<!-- Node12 -->
<g id="Node000012" class="node">
<title>Node12</title>
<g id="a_Node000012"><a xlink:href="classdMenu__Fmap__stage__data__c.html" target="_top" xlink:title=" ">
<polygon fill="white" stroke="#666666" points="1679.5,-364.25 1540.5,-364.25 1540.5,-345 1679.5,-345 1679.5,-364.25"/>
<text text-anchor="middle" x="1610" y="-350.75" font-family="Helvetica,sans-Serif" font-size="10.00">dMenu_Fmap_stage_data_c</text>
</a>
</g>
</g>
<!-- Node12&#45;&gt;Node2 -->
<g id="edge37_Node000002_Node000012" class="edge">
<title>Node12&#45;&gt;Node2</title>
<g id="a_edge37_Node000002_Node000012"><a xlink:title=" ">
<path fill="none" stroke="#9a32cd" stroke-dasharray="5,2" d="M1691.26,-351.68C1856.05,-345.63 2227.87,-331.99 2356.55,-327.27"/>
<polygon fill="#9a32cd" stroke="#9a32cd" points="1691.14,-348.18 1681.27,-352.05 1691.39,-355.18 1691.14,-348.18"/>
</a>
</g>
<text text-anchor="middle" x="2057" y="-341.38" font-family="Helvetica,sans-Serif" font-size="10.00" fill="grey"> mpStageData</text>
</g>
<!-- Node12&#45;&gt;Node11 -->
<g id="edge12_Node000011_Node000012" class="edge">
<title>Node12&#45;&gt;Node11</title>
<g id="a_edge12_Node000011_Node000012"><a xlink:title=" ">
<path fill="none" stroke="#9a32cd" stroke-dasharray="5,2" d="M1691.08,-359.02C1740.57,-361.73 1803.48,-365.18 1850.96,-367.79"/>
<polygon fill="#9a32cd" stroke="#9a32cd" points="1691.46,-355.53 1681.28,-358.48 1691.08,-362.52 1691.46,-355.53"/>
</a>
</g>
<text text-anchor="middle" x="1769.88" y="-367.38" font-family="Helvetica,sans-Serif" font-size="10.00" fill="grey"> mpMenuFmapStageDataTop</text>
</g>
<!-- Node12&#45;&gt;Node12 -->
<g id="edge34_Node000012_Node000012" class="edge">
<title>Node12&#45;&gt;Node12</title>
<g id="a_edge34_Node000012_Node000012"><a xlink:title=" ">
<path fill="none" stroke="#9a32cd" stroke-dasharray="5,2" d="M1586.35,-375.65C1589.31,-379.53 1597.19,-382.25 1610,-382.25 1633.42,-382.25 1640.38,-373.15 1630.86,-364.54"/>
<polygon fill="#9a32cd" stroke="#9a32cd" points="1589.73,-376.56 1588.77,-366.01 1582.94,-374.85 1589.73,-376.56"/>
</a>
</g>
<text text-anchor="middle" x="1610" y="-384" font-family="Helvetica,sans-Serif" font-size="10.00" fill="grey"> mpNextData</text>
</g>
<!-- Node14 -->
<g id="Node000014" class="node">
<title>Node14</title>
<g id="a_Node000014"><a xlink:href="classdMenu__Fmap__room__data__c.html" target="_top" xlink:title=" ">
<polygon fill="white" stroke="#666666" points="1422,-373.25 1285.25,-373.25 1285.25,-354 1422,-354 1422,-373.25"/>
<text text-anchor="middle" x="1353.62" y="-359.75" font-family="Helvetica,sans-Serif" font-size="10.00">dMenu_Fmap_room_data_c</text>
</a>
</g>
</g>
<!-- Node12&#45;&gt;Node14 -->
<g id="edge33_Node000014_Node000012" class="edge">
<title>Node12&#45;&gt;Node14</title>
<g id="a_edge33_Node000014_Node000012"><a xlink:title=" ">
<path fill="none" stroke="#9a32cd" stroke-dasharray="5,2" d="M1528.89,-351.83C1500.76,-351.44 1468.96,-351.64 1440,-353.38 1434.19,-353.72 1428.17,-354.2 1422.13,-354.77"/>
<polygon fill="#9a32cd" stroke="#9a32cd" points="1528.71,-355.33 1538.77,-352 1528.83,-348.33 1528.71,-355.33"/>
</a>
</g>
<text text-anchor="middle" x="1476.75" y="-354.38" font-family="Helvetica,sans-Serif" font-size="10.00" fill="grey"> mp_parentStage</text>
</g>
<!-- Node13 -->
<g id="Node000013" class="node">
<title>Node13</title>
<g id="a_Node000013"><a xlink:href="classdMenu__Fmap__stage__arc__data__c.html" target="_top" xlink:title=" ">
<polygon fill="white" stroke="#666666" points="1415.25,-327.88 1292,-327.88 1292,-297.38 1415.25,-297.38 1415.25,-327.88"/>
<text text-anchor="start" x="1300" y="-314.38" font-family="Helvetica,sans-Serif" font-size="10.00">dMenu_Fmap_stage_arc</text>
<text text-anchor="middle" x="1353.62" y="-303.12" font-family="Helvetica,sans-Serif" font-size="10.00">_data_c</text>
</a>
</g>
</g>
<!-- Node13&#45;&gt;Node2 -->
<g id="edge40_Node000002_Node000013" class="edge">
<title>Node13&#45;&gt;Node2</title>
<g id="a_edge40_Node000002_Node000013"><a xlink:title=" ">
<path fill="none" stroke="#9a32cd" stroke-dasharray="5,2" d="M1426.82,-301.73C1477.64,-294.99 1547.32,-287.62 1609,-287.62 1609,-287.62 1609,-287.62 2191.62,-287.62 2254.35,-287.62 2325.97,-304.28 2367.2,-315.54"/>
<polygon fill="#9a32cd" stroke="#9a32cd" points="1426.56,-298.23 1417.12,-303.04 1427.5,-305.17 1426.56,-298.23"/>
</a>
</g>
<text text-anchor="middle" x="1921.88" y="-289.38" font-family="Helvetica,sans-Serif" font-size="10.00" fill="grey"> mpStageArc</text>
</g>
<!-- Node13&#45;&gt;Node12 -->
<g id="edge13_Node000012_Node000013" class="edge">
<title>Node13&#45;&gt;Node12</title>
<g id="a_edge13_Node000012_Node000013"><a xlink:title=" ">
<path fill="none" stroke="#9a32cd" stroke-dasharray="5,2" d="M1426.48,-322.74C1453.77,-326.74 1485.11,-331.54 1513.5,-336.38 1528.14,-338.87 1544,-341.8 1558.52,-344.58"/>
<polygon fill="#9a32cd" stroke="#9a32cd" points="1427.35,-319.33 1416.95,-321.35 1426.34,-326.25 1427.35,-319.33"/>
</a>
</g>
<text text-anchor="middle" x="1476.75" y="-337.38" font-family="Helvetica,sans-Serif" font-size="10.00" fill="grey"> mpStageArc</text>
</g>
<!-- Node14&#45;&gt;Node2 -->
<g id="edge38_Node000002_Node000014" class="edge">
<title>Node14&#45;&gt;Node2</title>
<g id="a_edge38_Node000002_Node000014"><a xlink:title=" ">
<path fill="none" stroke="#9a32cd" stroke-dasharray="5,2" d="M1381.79,-379.18C1427.27,-403.71 1522.36,-448.62 1609,-448.62 1609,-448.62 1609,-448.62 2191.62,-448.62 2258.25,-448.62 2283.1,-455.63 2338.5,-418.62 2369.94,-397.62 2389.84,-355.04 2397.63,-335.65"/>
<polygon fill="#9a32cd" stroke="#9a32cd" points="1383.62,-376.19 1373.17,-374.44 1380.25,-382.33 1383.62,-376.19"/>
</a>
</g>
<text text-anchor="middle" x="1921.88" y="-450.38" font-family="Helvetica,sans-Serif" font-size="10.00" fill="grey"> mpRoomData</text>
</g>
<!-- Node14&#45;&gt;Node12 -->
<g id="edge14_Node000012_Node000014" class="edge">
<title>Node14&#45;&gt;Node12</title>
<g id="a_edge14_Node000012_Node000014"><a xlink:title=" ">
<path fill="none" stroke="#9a32cd" stroke-dasharray="5,2" d="M1433.69,-366.5C1435.81,-366.55 1437.92,-366.59 1440,-366.62 1472.66,-367.2 1480.9,-368.67 1513.5,-366.62 1522.17,-366.08 1531.26,-365.26 1540.24,-364.31"/>
<polygon fill="#9a32cd" stroke="#9a32cd" points="1433.79,-363 1423.71,-366.26 1433.62,-370 1433.79,-363"/>
</a>
</g>
<text text-anchor="middle" x="1476.75" y="-369.38" font-family="Helvetica,sans-Serif" font-size="10.00" fill="grey"> mp_roomTop</text>
</g>
<!-- Node14&#45;&gt;Node14 -->
<g id="edge32_Node000014_Node000014" class="edge">
<title>Node14&#45;&gt;Node14</title>
<g id="a_edge32_Node000014_Node000014"><a xlink:title=" ">
<path fill="none" stroke="#9a32cd" stroke-dasharray="5,2" d="M1331.77,-384.65C1334.5,-388.53 1341.79,-391.25 1353.62,-391.25 1375.27,-391.25 1381.69,-382.15 1372.9,-373.54"/>
<polygon fill="#9a32cd" stroke="#9a32cd" points="1335.16,-385.54 1334.01,-375.01 1328.34,-383.96 1335.16,-385.54"/>
</a>
</g>
<text text-anchor="middle" x="1353.62" y="-393" font-family="Helvetica,sans-Serif" font-size="10.00" fill="grey"> mp_nextData</text>
</g>
<!-- Node15 -->
<g id="Node000015" class="node">
<title>Node15</title>
<g id="a_Node000015"><a xlink:href="classdMenu__Fmap__data__c.html" target="_top" xlink:title=" ">
<polygon fill="white" stroke="#666666" points="1083.88,-305.25 974.12,-305.25 974.12,-286 1083.88,-286 1083.88,-305.25"/>
<text text-anchor="middle" x="1029" y="-291.75" font-family="Helvetica,sans-Serif" font-size="10.00">dMenu_Fmap_data_c</text>
</a>
</g>
</g>
<!-- Node15&#45;&gt;Node2 -->
<g id="edge39_Node000002_Node000015" class="edge">
<title>Node15&#45;&gt;Node2</title>
<g id="a_edge39_Node000002_Node000015"><a xlink:title=" ">
<path fill="none" stroke="#9a32cd" stroke-dasharray="5,2" d="M1077,-282.73C1139.45,-266.75 1253.45,-241.62 1352.62,-241.62 1352.62,-241.62 1352.62,-241.62 2191.62,-241.62 2270.47,-241.62 2354.81,-293.41 2387.41,-315.66"/>
<polygon fill="#9a32cd" stroke="#9a32cd" points="1076.22,-279.31 1067.42,-285.21 1077.98,-286.09 1076.22,-279.31"/>
</a>
</g>
<text text-anchor="middle" x="1769.88" y="-243.38" font-family="Helvetica,sans-Serif" font-size="10.00" fill="grey"> mpFmapData</text>
</g>
<!-- Node15&#45;&gt;Node14 -->
<g id="edge15_Node000014_Node000015" class="edge">
<title>Node15&#45;&gt;Node14</title>
<g id="a_edge15_Node000014_Node000015"><a xlink:title=" ">
<path fill="none" stroke="#9a32cd" stroke-dasharray="5,2" d="M1089.11,-308.08C1151.07,-321.14 1247.25,-341.41 1304.67,-353.52"/>
<polygon fill="#9a32cd" stroke="#9a32cd" points="1089.94,-304.68 1079.43,-306.04 1088.5,-311.53 1089.94,-304.68"/>
</a>
</g>
<text text-anchor="middle" x="1191.12" y="-346.38" font-family="Helvetica,sans-Serif" font-size="10.00" fill="grey"> mp_fmapData</text>
</g>
<!-- Node16 -->
<g id="Node000016" class="node">
<title>Node16</title>
<g id="a_Node000016"><a xlink:href="structdTres__c_1_1list__class.html" target="_top" xlink:title=" ">
<polygon fill="white" stroke="#666666" points="817,-305.25 720,-305.25 720,-286 817,-286 817,-305.25"/>
<text text-anchor="middle" x="768.5" y="-291.75" font-family="Helvetica,sans-Serif" font-size="10.00">dTres_c::list_class</text>
</a>
</g>
</g>
<!-- Node16&#45;&gt;Node15 -->
<g id="edge16_Node000015_Node000016" class="edge">
<title>Node16&#45;&gt;Node15</title>
<g id="a_edge16_Node000015_Node000016"><a xlink:title=" ">
<path fill="none" stroke="#9a32cd" stroke-dasharray="5,2" d="M828.54,-295.62C872.26,-295.62 931.36,-295.62 973.86,-295.62"/>
<polygon fill="#9a32cd" stroke="#9a32cd" points="828.73,-292.13 818.73,-295.63 828.73,-299.13 828.73,-292.13"/>
</a>
</g>
<text text-anchor="middle" x="901.38" y="-297.38" font-family="Helvetica,sans-Serif" font-size="10.00" fill="grey"> mp_tresure</text>
</g>
<!-- Node17 -->
<g id="Node000017" class="node">
<title>Node17</title>
<g id="a_Node000017"><a xlink:href="structdTres__c_1_1typeGroupData__c.html" target="_top" xlink:title=" ">
<polygon fill="white" stroke="#666666" points="555,-305.25 424.25,-305.25 424.25,-286 555,-286 555,-305.25"/>
<text text-anchor="middle" x="489.62" y="-291.75" font-family="Helvetica,sans-Serif" font-size="10.00">dTres_c::typeGroupData_c</text>
</a>
</g>
</g>
<!-- Node17&#45;&gt;Node16 -->
<g id="edge17_Node000016_Node000017" class="edge">
<title>Node17&#45;&gt;Node16</title>
<g id="a_edge17_Node000016_Node000017"><a xlink:title=" ">
<path fill="none" stroke="#9a32cd" stroke-dasharray="5,2" d="M566.69,-295.62C615.6,-295.62 677.66,-295.62 719.75,-295.62"/>
<polygon fill="#9a32cd" stroke="#9a32cd" points="566.7,-292.13 556.7,-295.63 566.7,-299.13 566.7,-292.13"/>
</a>
</g>
<text text-anchor="middle" x="625.12" y="-297.38" font-family="Helvetica,sans-Serif" font-size="10.00" fill="grey"> field_0x4</text>
</g>
<!-- Node17&#45;&gt;Node17 -->
<g id="edge20_Node000017_Node000017" class="edge">
<title>Node17&#45;&gt;Node17</title>
<g id="a_edge20_Node000017_Node000017"><a xlink:title=" ">
<path fill="none" stroke="#9a32cd" stroke-dasharray="5,2" d="M466.84,-316.65C469.69,-320.53 477.28,-323.25 489.62,-323.25 512.19,-323.25 518.89,-314.15 509.72,-305.54"/>
<polygon fill="#9a32cd" stroke="#9a32cd" points="470.22,-317.55 469.17,-307.01 463.42,-315.91 470.22,-317.55"/>
</a>
</g>
<text text-anchor="middle" x="489.62" y="-325" font-family="Helvetica,sans-Serif" font-size="10.00" fill="grey"> mNextData</text>
</g>
<!-- Node18&#45;&gt;Node17 -->
<g id="edge18_Node000017_Node000018" class="edge">
<title>Node18&#45;&gt;Node17</title>
<g id="a_edge18_Node000017_Node000018"><a xlink:title=" ">
<path fill="none" stroke="#63b8ff" d="M301.04,-308.86C337.33,-306.3 385.57,-302.9 424.05,-300.18"/>
<polygon fill="#63b8ff" stroke="#63b8ff" points="300.95,-305.36 291.22,-309.56 301.44,-312.34 300.95,-305.36"/>
</a>
</g>
</g>
<!-- Node27 -->
<g id="Node000027" class="node">
<title>Node27</title>
<g id="a_Node000027"><a xlink:href="classfmpTresTypeGroupData__c.html" target="_top" xlink:title=" ">
<polygon fill="white" stroke="#666666" points="554.62,-372.25 424.62,-372.25 424.62,-353 554.62,-353 554.62,-372.25"/>
<text text-anchor="middle" x="489.62" y="-358.75" font-family="Helvetica,sans-Serif" font-size="10.00">fmpTresTypeGroupData_c</text>
</a>
</g>
</g>
<!-- Node18&#45;&gt;Node27 -->
<g id="edge30_Node000027_Node000018" class="edge">
<title>Node18&#45;&gt;Node27</title>
<g id="a_edge30_Node000027_Node000018"><a xlink:title=" ">
<path fill="none" stroke="#9a32cd" stroke-dasharray="5,2" d="M300.72,-323.62C342.3,-332.25 399.72,-344.17 440.11,-352.55"/>
<polygon fill="#9a32cd" stroke="#9a32cd" points="301.69,-320.25 291.19,-321.64 300.27,-327.1 301.69,-320.25"/>
</a>
</g>
<text text-anchor="middle" x="361.25" y="-346.38" font-family="Helvetica,sans-Serif" font-size="10.00" fill="grey"> mpTresData</text>
</g>
<!-- Node19 -->
<g id="Node000019" class="node">
<title>Node19</title>
<g id="a_Node000019"><a xlink:href="classdStage__FileList2__dt__c.html" target="_top" xlink:title=" ">
<polygon fill="white" stroke="#666666" points="825.25,-268.25 711.75,-268.25 711.75,-249 825.25,-249 825.25,-268.25"/>
<text text-anchor="middle" x="768.5" y="-254.75" font-family="Helvetica,sans-Serif" font-size="10.00">dStage_FileList2_dt_c</text>
</a>
</g>
</g>
<!-- Node19&#45;&gt;Node15 -->
<g id="edge21_Node000015_Node000019" class="edge">
<title>Node19&#45;&gt;Node15</title>
<g id="a_edge21_Node000015_Node000019"><a xlink:title=" ">
<path fill="none" stroke="#9a32cd" stroke-dasharray="5,2" d="M836.57,-266.2C868.81,-270.05 907.97,-275.04 943,-280.38 953.08,-281.91 963.8,-283.71 974.11,-285.51"/>
<polygon fill="#9a32cd" stroke="#9a32cd" points="837.32,-262.76 826.97,-265.06 836.49,-269.71 837.32,-262.76"/>
</a>
</g>
<text text-anchor="middle" x="901.38" y="-281.38" font-family="Helvetica,sans-Serif" font-size="10.00" fill="grey"> m_fileList2</text>
</g>
<!-- Node20 -->
<g id="Node000020" class="node">
<title>Node20</title>
<g id="a_Node000020"><a xlink:href="structdDrawPath__c_1_1room__class.html" target="_top" xlink:title=" ">
<polygon fill="white" stroke="#666666" points="833.12,-413.25 703.88,-413.25 703.88,-394 833.12,-394 833.12,-413.25"/>
<text text-anchor="middle" x="768.5" y="-399.75" font-family="Helvetica,sans-Serif" font-size="10.00">dDrawPath_c::room_class</text>
</a>
</g>
</g>
<!-- Node20&#45;&gt;Node15 -->
<g id="edge22_Node000015_Node000020" class="edge">
<title>Node20&#45;&gt;Node15</title>
<g id="a_edge22_Node000015_Node000020"><a xlink:title=" ">
<path fill="none" stroke="#9a32cd" stroke-dasharray="5,2" d="M831.26,-388.69C834.99,-386.63 838.53,-384.29 841.75,-381.62 855,-370.66 846.52,-358.36 859.75,-347.38 892.09,-320.54 938.22,-307.6 974.01,-301.38"/>
<polygon fill="#9a32cd" stroke="#9a32cd" points="829.97,-385.43 822.41,-392.86 832.95,-391.76 829.97,-385.43"/>
</a>
</g>
<text text-anchor="middle" x="901.38" y="-348.38" font-family="Helvetica,sans-Serif" font-size="10.00" fill="grey"> mp_mapPath</text>
</g>
<!-- Node21 -->
<g id="Node000021" class="node">
<title>Node21</title>
<g id="a_Node000021"><a xlink:href="structdDrawPath__c_1_1floor__class.html" target="_top" xlink:title=" ">
<polygon fill="white" stroke="#666666" points="538.12,-449.88 441.12,-449.88 441.12,-419.38 538.12,-419.38 538.12,-449.88"/>
<text text-anchor="start" x="449.12" y="-436.38" font-family="Helvetica,sans-Serif" font-size="10.00">dDrawPath_c::floor</text>
<text text-anchor="middle" x="489.62" y="-425.12" font-family="Helvetica,sans-Serif" font-size="10.00">_class</text>
</a>
</g>
</g>
<!-- Node21&#45;&gt;Node20 -->
<g id="edge23_Node000020_Node000021" class="edge">
<title>Node21&#45;&gt;Node20</title>
<g id="a_edge23_Node000020_Node000021"><a xlink:title=" ">
<path fill="none" stroke="#9a32cd" stroke-dasharray="5,2" d="M549.93,-427.98C595.14,-422.92 657.28,-415.97 703.58,-410.78"/>
<polygon fill="#9a32cd" stroke="#9a32cd" points="549.59,-424.5 540.04,-429.09 550.37,-431.46 549.59,-424.5"/>
</a>
</g>
<text text-anchor="middle" x="625.12" y="-425.38" font-family="Helvetica,sans-Serif" font-size="10.00" fill="grey"> mpFloor</text>
</g>
<!-- Node22 -->
<g id="Node000022" class="node">
<title>Node22</title>
<g id="a_Node000022"><a xlink:href="structdDrawPath__c_1_1group__class.html" target="_top" xlink:title=" ">
<polygon fill="white" stroke="#666666" points="298.25,-449.88 195.25,-449.88 195.25,-419.38 298.25,-419.38 298.25,-449.88"/>
<text text-anchor="start" x="203.25" y="-436.38" font-family="Helvetica,sans-Serif" font-size="10.00">dDrawPath_c::group</text>
<text text-anchor="middle" x="246.75" y="-425.12" font-family="Helvetica,sans-Serif" font-size="10.00">_class</text>
</a>
</g>
</g>
<!-- Node22&#45;&gt;Node21 -->
<g id="edge24_Node000021_Node000022" class="edge">
<title>Node22&#45;&gt;Node21</title>
<g id="a_edge24_Node000021_Node000022"><a xlink:title=" ">
<path fill="none" stroke="#9a32cd" stroke-dasharray="5,2" d="M309.98,-434.62C350.76,-434.62 403.26,-434.62 440.77,-434.62"/>
<polygon fill="#9a32cd" stroke="#9a32cd" points="310.05,-431.13 300.05,-434.63 310.05,-438.13 310.05,-431.13"/>
</a>
</g>
<text text-anchor="middle" x="361.25" y="-436.38" font-family="Helvetica,sans-Serif" font-size="10.00" fill="grey"> mpGroup</text>
</g>
<!-- Node23 -->
<g id="Node000023" class="node">
<title>Node23</title>
<g id="a_Node000023"><a xlink:href="structdDrawPath__c_1_1line__class.html" target="_top" xlink:title=" ">
<polygon fill="white" stroke="#666666" points="123.62,-462.25 1.12,-462.25 1.12,-443 123.62,-443 123.62,-462.25"/>
<text text-anchor="middle" x="62.38" y="-448.75" font-family="Helvetica,sans-Serif" font-size="10.00">dDrawPath_c::line_class</text>
</a>
</g>
</g>
<!-- Node23&#45;&gt;Node22 -->
<g id="edge25_Node000022_Node000023" class="edge">
<title>Node23&#45;&gt;Node22</title>
<g id="a_edge25_Node000022_Node000023"><a xlink:title=" ">
<path fill="none" stroke="#9a32cd" stroke-dasharray="5,2" d="M135.35,-445.52C155.31,-443.55 176.55,-441.45 195.02,-439.63"/>
<polygon fill="#9a32cd" stroke="#9a32cd" points="135.22,-442.02 125.61,-446.48 135.9,-448.98 135.22,-442.02"/>
</a>
</g>
<text text-anchor="middle" x="160" y="-446.38" font-family="Helvetica,sans-Serif" font-size="10.00" fill="grey"> mpLine</text>
</g>
<!-- Node24 -->
<g id="Node000024" class="node">
<title>Node24</title>
<g id="a_Node000024"><a xlink:href="structdDrawPath__c_1_1poly__class.html" target="_top" xlink:title=" ">
<polygon fill="white" stroke="#666666" points="124.75,-425.25 0,-425.25 0,-406 124.75,-406 124.75,-425.25"/>
<text text-anchor="middle" x="62.38" y="-411.75" font-family="Helvetica,sans-Serif" font-size="10.00">dDrawPath_c::poly_class</text>
</a>
</g>
</g>
<!-- Node24&#45;&gt;Node22 -->
<g id="edge26_Node000022_Node000024" class="edge">
<title>Node24&#45;&gt;Node22</title>
<g id="a_edge26_Node000022_Node000024"><a xlink:title=" ">
<path fill="none" stroke="#9a32cd" stroke-dasharray="5,2" d="M136.45,-421.35C150.02,-422.56 164.08,-423.92 177.25,-425.38 182.98,-426.01 188.96,-426.73 194.91,-427.48"/>
<polygon fill="#9a32cd" stroke="#9a32cd" points="136.96,-417.88 126.7,-420.5 136.35,-424.85 136.96,-417.88"/>
</a>
</g>
<text text-anchor="middle" x="160" y="-426.38" font-family="Helvetica,sans-Serif" font-size="10.00" fill="grey"> mpPoly</text>
</g>
<!-- Node25 -->
<g id="Node000025" class="node">
<title>Node25</title>
<g id="a_Node000025"><a xlink:href="classfmpTresTypeGroupDataListAll__c.html" target="_top" xlink:title=" ">
<polygon fill="white" stroke="#666666" points="1097,-378.88 961,-378.88 961,-348.38 1097,-348.38 1097,-378.88"/>
<text text-anchor="start" x="969" y="-365.38" font-family="Helvetica,sans-Serif" font-size="10.00">fmpTresTypeGroupDataList</text>
<text text-anchor="middle" x="1029" y="-354.12" font-family="Helvetica,sans-Serif" font-size="10.00">All_c</text>
</a>
</g>
</g>
<!-- Node25&#45;&gt;Node14 -->
<g id="edge27_Node000014_Node000025" class="edge">
<title>Node25&#45;&gt;Node14</title>
<g id="a_edge27_Node000014_Node000025"><a xlink:title=" ">
<path fill="none" stroke="#9a32cd" stroke-dasharray="5,2" d="M1108.49,-363.62C1162.46,-363.62 1233.42,-363.62 1284.92,-363.62"/>
<polygon fill="#9a32cd" stroke="#9a32cd" points="1108.75,-360.13 1098.75,-363.63 1108.75,-367.13 1108.75,-360.13"/>
</a>
</g>
<text text-anchor="middle" x="1191.12" y="-365.38" font-family="Helvetica,sans-Serif" font-size="10.00" fill="grey"> mp_fmpTresTypeGroupDataListAll</text>
</g>
<!-- Node26 -->
<g id="Node000026" class="node">
<title>Node26</title>
<g id="a_Node000026"><a xlink:href="classfmpTresTypeGroupDataList__c.html" target="_top" xlink:title=" ">
<polygon fill="white" stroke="#666666" points="841.75,-372.25 695.25,-372.25 695.25,-353 841.75,-353 841.75,-372.25"/>
<text text-anchor="middle" x="768.5" y="-358.75" font-family="Helvetica,sans-Serif" font-size="10.00">fmpTresTypeGroupDataList_c</text>
</a>
</g>
</g>
<!-- Node26&#45;&gt;Node25 -->
<g id="edge28_Node000025_Node000026" class="edge">
<title>Node26&#45;&gt;Node25</title>
<g id="a_edge28_Node000025_Node000026"><a xlink:title=" ">
<path fill="none" stroke="#9a32cd" stroke-dasharray="5,2" d="M853.3,-362.95C888.08,-363.08 927.89,-363.24 960.72,-363.36"/>
<polygon fill="#9a32cd" stroke="#9a32cd" points="853.72,-359.45 843.71,-362.91 853.69,-366.45 853.72,-359.45"/>
</a>
</g>
<text text-anchor="middle" x="901.38" y="-364.38" font-family="Helvetica,sans-Serif" font-size="10.00" fill="grey"> mpTypeGroupData</text>
</g>
<!-- Node27&#45;&gt;Node26 -->
<g id="edge29_Node000026_Node000027" class="edge">
<title>Node27&#45;&gt;Node26</title>
<g id="a_edge29_Node000026_Node000027"><a xlink:title=" ">
<path fill="none" stroke="#9a32cd" stroke-dasharray="5,2" d="M566.16,-362.62C606.23,-362.62 655.22,-362.62 694.84,-362.62"/>
<polygon fill="#9a32cd" stroke="#9a32cd" points="566.36,-359.13 556.36,-362.63 566.36,-366.13 566.36,-359.13"/>
</a>
</g>
<text text-anchor="middle" x="625.12" y="-375.62" font-family="Helvetica,sans-Serif" font-size="10.00" fill="grey"> mpNextData</text>
<text text-anchor="middle" x="625.12" y="-364.38" font-family="Helvetica,sans-Serif" font-size="10.00" fill="grey">mpTypeGroupDataHead</text>
</g>
<!-- Node27&#45;&gt;Node27 -->
<g id="edge31_Node000027_Node000027" class="edge">
<title>Node27&#45;&gt;Node27</title>
<g id="a_edge31_Node000027_Node000027"><a xlink:title=" ">
<path fill="none" stroke="#9a32cd" stroke-dasharray="5,2" d="M466.84,-383.65C469.69,-387.53 477.28,-390.25 489.62,-390.25 512.19,-390.25 518.89,-381.15 509.72,-372.54"/>
<polygon fill="#9a32cd" stroke="#9a32cd" points="470.22,-384.55 469.17,-374.01 463.42,-382.91 470.22,-384.55"/>
</a>
</g>
<text text-anchor="middle" x="489.62" y="-392" font-family="Helvetica,sans-Serif" font-size="10.00" fill="grey"> mpNext</text>
</g>
<!-- Node28 -->
<g id="Node000028" class="node">
<title>Node28</title>
<g id="a_Node000028"><a xlink:href="structResTIMG.html" target="_top" xlink:title="Image data header.">
<polygon fill="white" stroke="#666666" points="2431.38,-201.25 2373.38,-201.25 2373.38,-182 2431.38,-182 2431.38,-201.25"/>
<text text-anchor="middle" x="2402.38" y="-187.75" font-family="Helvetica,sans-Serif" font-size="10.00">ResTIMG</text>
</a>
</g>
</g>
<!-- Node28&#45;&gt;Node1 -->
<g id="edge41_Node000001_Node000028" class="edge">
<title>Node28&#45;&gt;Node1</title>
<g id="a_edge41_Node000001_Node000028"><a xlink:title=" ">
<path fill="none" stroke="#9a32cd" stroke-dasharray="5,2" d="M2442.91,-187.34C2470.24,-184.38 2506.86,-180.42 2536.47,-177.21"/>
<polygon fill="#9a32cd" stroke="#9a32cd" points="2442.89,-183.82 2433.32,-188.38 2443.64,-190.78 2442.89,-183.82"/>
</a>
</g>
<text text-anchor="middle" x="2492.5" y="-185.38" font-family="Helvetica,sans-Serif" font-size="10.00" fill="grey"> mResTIMG</text>
</g>
<!-- Node29 -->
<g id="Node000029" class="node">
<title>Node29</title>
<g id="a_Node000029"><a xlink:href="structdMfm__prm__res__s.html" target="_top" xlink:title=" ">
<polygon fill="white" stroke="#666666" points="2448.25,-116.25 2356.5,-116.25 2356.5,-97 2448.25,-97 2448.25,-116.25"/>
<text text-anchor="middle" x="2402.38" y="-102.75" font-family="Helvetica,sans-Serif" font-size="10.00">dMfm_prm_res_s</text>
</a>
</g>
</g>
<!-- Node29&#45;&gt;Node1 -->
<g id="edge42_Node000001_Node000029" class="edge">
<title>Node29&#45;&gt;Node1</title>
<g id="a_edge42_Node000001_Node000029"><a xlink:title=" ">
<path fill="none" stroke="#9a32cd" stroke-dasharray="5,2" d="M2459.89,-112.29C2479.02,-115.38 2500.22,-120.12 2518.75,-127.38 2540.27,-135.8 2562.29,-151.28 2575.55,-161.52"/>
<polygon fill="#9a32cd" stroke="#9a32cd" points="2460.5,-108.84 2450.09,-110.84 2459.47,-115.77 2460.5,-108.84"/>
</a>
</g>
<text text-anchor="middle" x="2492.5" y="-128.38" font-family="Helvetica,sans-Serif" font-size="10.00" fill="grey"> m_res</text>
</g>
<!-- Node30 -->
<g id="Node000030" class="node">
<title>Node30</title>
<g id="a_Node000030"><a xlink:href="structdMpath__RGB5A3__palDt__s.html" target="_top" xlink:title=" ">
<polygon fill="white" stroke="#666666" points="2255.62,-132.25 2125.62,-132.25 2125.62,-113 2255.62,-113 2255.62,-132.25"/>
<text text-anchor="middle" x="2190.62" y="-118.75" font-family="Helvetica,sans-Serif" font-size="10.00">dMpath_RGB5A3_palDt_s</text>
</a>
</g>
</g>
<!-- Node30&#45;&gt;Node1 -->
<g id="edge46_Node000001_Node000030" class="edge">
<title>Node30&#45;&gt;Node1</title>
<g id="a_edge46_Node000001_Node000030"><a xlink:title=" ">
<path fill="none" stroke="#9a32cd" stroke-dasharray="5,2" d="M2267.07,-131.95C2345.96,-141.7 2467.65,-156.75 2536.29,-165.23"/>
<polygon fill="#9a32cd" stroke="#9a32cd" points="2267.61,-128.49 2257.25,-130.74 2266.75,-135.44 2267.61,-128.49"/>
</a>
</g>
<text text-anchor="middle" x="2402.38" y="-154.38" font-family="Helvetica,sans-Serif" font-size="10.00" fill="grey"> m_palette</text>
</g>
<!-- Node30&#45;&gt;Node29 -->
<g id="edge43_Node000029_Node000030" class="edge">
<title>Node30&#45;&gt;Node29</title>
<g id="a_edge43_Node000029_Node000030"><a xlink:title=" ">
<path fill="none" stroke="#9a32cd" stroke-dasharray="5,2" d="M2267.2,-116.86C2296.98,-114.59 2330.18,-112.06 2356.1,-110.08"/>
<polygon fill="#9a32cd" stroke="#9a32cd" points="2267.2,-113.35 2257.49,-117.6 2267.73,-120.33 2267.2,-113.35"/>
</a>
</g>
<text text-anchor="middle" x="2308.12" y="-116.38" font-family="Helvetica,sans-Serif" font-size="10.00" fill="grey"> palette_data</text>
</g>
<!-- Node31 -->
<g id="Node000031" class="node">
<title>Node31</title>
<g id="a_Node000031"><a xlink:href="structdMpath__RGB5A3__s.html" target="_top" xlink:title=" ">
<polygon fill="white" stroke="#666666" points="1973,-129.25 1870.75,-129.25 1870.75,-110 1973,-110 1973,-129.25"/>
<text text-anchor="middle" x="1921.88" y="-115.75" font-family="Helvetica,sans-Serif" font-size="10.00">dMpath_RGB5A3_s</text>
</a>
</g>
</g>
<!-- Node31&#45;&gt;Node30 -->
<g id="edge44_Node000030_Node000031" class="edge">
<title>Node31&#45;&gt;Node30</title>
<g id="a_edge44_Node000030_Node000031"><a xlink:title=" ">
<path fill="none" stroke="#9a32cd" stroke-dasharray="5,2" d="M1984.92,-119.7C2019.77,-119.81 2064.06,-120.06 2103.5,-120.62 2110.53,-120.73 2117.88,-120.86 2125.2,-121"/>
<polygon fill="#9a32cd" stroke="#9a32cd" points="1985.01,-116.2 1975,-119.67 1984.99,-123.2 1985.01,-116.2"/>
</a>
</g>
<text text-anchor="middle" x="2057" y="-156.12" font-family="Helvetica,sans-Serif" font-size="10.00" fill="grey"> field_0x0</text>
<text text-anchor="middle" x="2057" y="-144.88" font-family="Helvetica,sans-Serif" font-size="10.00" fill="grey">field_0x2</text>
<text text-anchor="middle" x="2057" y="-133.62" font-family="Helvetica,sans-Serif" font-size="10.00" fill="grey">field_0x4</text>
<text text-anchor="middle" x="2057" y="-122.38" font-family="Helvetica,sans-Serif" font-size="10.00" fill="grey">field_0x6</text>
</g>
<!-- Node32 -->
<g id="Node000032" class="node">
<title>Node32</title>
<g id="a_Node000032"><a xlink:href="struct__GXColor.html" target="_top" xlink:title=" ">
<polygon fill="white" stroke="#666666" points="2219.62,-19.25 2161.62,-19.25 2161.62,0 2219.62,0 2219.62,-19.25"/>
<text text-anchor="middle" x="2190.62" y="-5.75" font-family="Helvetica,sans-Serif" font-size="10.00">_GXColor</text>
</a>
</g>
</g>
<!-- Node32&#45;&gt;Node29 -->
<g id="edge45_Node000029_Node000032" class="edge">
<title>Node32&#45;&gt;Node29</title>
<g id="a_edge45_Node000029_Node000032"><a xlink:title=" ">
<path fill="none" stroke="#9a32cd" stroke-dasharray="5,2" d="M2231.12,-2.84C2262.24,0.48 2305.7,0.51 2338.5,-17.62 2370.62,-35.38 2390.17,-77.34 2397.75,-96.62"/>
<polygon fill="#9a32cd" stroke="#9a32cd" points="2230.84,0.65 2221.35,-4.06 2231.7,-6.3 2230.84,0.65"/>
</a>
</g>
<text text-anchor="middle" x="2308.12" y="-98.12" font-family="Helvetica,sans-Serif" font-size="10.00" fill="grey"> field_0x108</text>
<text text-anchor="middle" x="2308.12" y="-86.88" font-family="Helvetica,sans-Serif" font-size="10.00" fill="grey">field_0x128</text>
<text text-anchor="middle" x="2308.12" y="-75.62" font-family="Helvetica,sans-Serif" font-size="10.00" fill="grey">field_0x148</text>
<text text-anchor="middle" x="2308.12" y="-64.38" font-family="Helvetica,sans-Serif" font-size="10.00" fill="grey">field_0xd8</text>
<text text-anchor="middle" x="2308.12" y="-53.12" font-family="Helvetica,sans-Serif" font-size="10.00" fill="grey">field_0xdc</text>
<text text-anchor="middle" x="2308.12" y="-41.88" font-family="Helvetica,sans-Serif" font-size="10.00" fill="grey">field_0xe0</text>
<text text-anchor="middle" x="2308.12" y="-30.62" font-family="Helvetica,sans-Serif" font-size="10.00" fill="grey">field_0xe4</text>
<text text-anchor="middle" x="2308.12" y="-19.38" font-family="Helvetica,sans-Serif" font-size="10.00" fill="grey">field_0xe8</text>
</g>
</g>
</svg>
