<?xml version="1.0" encoding="UTF-8" standalone="no"?>
<!DOCTYPE svg PUBLIC "-//W3C//DTD SVG 1.1//EN"
 "http://www.w3.org/Graphics/SVG/1.1/DTD/svg11.dtd">
<!-- Generated by graphviz version 9.0.0 (20230911.1827)
 -->
<!-- Title: fopAcM_rc_c Pages: 1 -->
<svg width="397pt" height="410pt"
 viewBox="0.00 0.00 396.75 410.00" xmlns="http://www.w3.org/2000/svg" xmlns:xlink="http://www.w3.org/1999/xlink">
<g id="graph0" class="graph" transform="scale(1 1) rotate(0) translate(4 406)">
<title>fopAcM_rc_c</title>
<!-- Node1 -->
<g id="Node000001" class="node">
<title>Node1</title>
<g id="a_Node000001"><a xlink:title=" ">
<polygon fill="#999999" stroke="#666666" points="172.12,-19.25 98.38,-19.25 98.38,0 172.12,0 172.12,-19.25"/>
<text text-anchor="middle" x="135.25" y="-5.75" font-family="Helvetica,sans-Serif" font-size="10.00">fopAcM_rc_c</text>
</a>
</g>
</g>
<!-- Node2 -->
<g id="Node000002" class="node">
<title>Node2</title>
<g id="a_Node000002"><a xlink:href="classdBgS__ObjRoofChk.html" target="_top" xlink:title=" ">
<polygon fill="white" stroke="#666666" points="184.12,-85.75 86.38,-85.75 86.38,-66.5 184.12,-66.5 184.12,-85.75"/>
<text text-anchor="middle" x="135.25" y="-72.25" font-family="Helvetica,sans-Serif" font-size="10.00">dBgS_ObjRoofChk</text>
</a>
</g>
</g>
<!-- Node2&#45;&gt;Node1 -->
<g id="edge1_Node000001_Node000002" class="edge">
<title>Node2&#45;&gt;Node1</title>
<g id="a_edge1_Node000001_Node000002"><a xlink:title=" ">
<path fill="none" stroke="#9a32cd" stroke-dasharray="5,2" d="M135.25,-54.65C135.25,-42.82 135.25,-28.54 135.25,-19.52"/>
<polygon fill="#9a32cd" stroke="#9a32cd" points="131.75,-54.64 135.25,-64.64 138.75,-54.64 131.75,-54.64"/>
</a>
</g>
<text text-anchor="middle" x="164.5" y="-39" font-family="Helvetica,sans-Serif" font-size="10.00" fill="grey"> mRoofCheck</text>
</g>
<!-- Node3 -->
<g id="Node000003" class="node">
<title>Node3</title>
<g id="a_Node000003"><a xlink:href="classdBgS__RoofChk.html" target="_top" xlink:title=" ">
<polygon fill="white" stroke="#666666" points="176.62,-142 93.88,-142 93.88,-122.75 176.62,-122.75 176.62,-142"/>
<text text-anchor="middle" x="135.25" y="-128.5" font-family="Helvetica,sans-Serif" font-size="10.00">dBgS_RoofChk</text>
</a>
</g>
</g>
<!-- Node3&#45;&gt;Node2 -->
<g id="edge2_Node000002_Node000003" class="edge">
<title>Node3&#45;&gt;Node2</title>
<g id="a_edge2_Node000002_Node000003"><a xlink:title=" ">
<path fill="none" stroke="#63b8ff" d="M135.25,-111.19C135.25,-102.48 135.25,-92.74 135.25,-85.92"/>
<polygon fill="#63b8ff" stroke="#63b8ff" points="131.75,-110.9 135.25,-120.9 138.75,-110.9 131.75,-110.9"/>
</a>
</g>
</g>
<!-- Node4 -->
<g id="Node000004" class="node">
<title>Node4</title>
<g id="a_Node000004"><a xlink:href="structcBgS__PolyInfo.html" target="_top" xlink:title=" ">
<polygon fill="white" stroke="#666666" points="86.5,-243.88 6,-243.88 6,-224.62 86.5,-224.62 86.5,-243.88"/>
<text text-anchor="middle" x="46.25" y="-230.38" font-family="Helvetica,sans-Serif" font-size="10.00">cBgS_PolyInfo</text>
</a>
</g>
</g>
<!-- Node4&#45;&gt;Node3 -->
<g id="edge3_Node000003_Node000004" class="edge">
<title>Node4&#45;&gt;Node3</title>
<g id="a_edge3_Node000003_Node000004"><a xlink:title=" ">
<path fill="none" stroke="#63b8ff" d="M57.58,-215.01C67.7,-199.46 83.49,-177.01 100.25,-160 106.68,-153.47 114.77,-147.21 121.56,-142.41"/>
<polygon fill="#63b8ff" stroke="#63b8ff" points="54.76,-212.92 52.34,-223.23 60.66,-216.68 54.76,-212.92"/>
</a>
</g>
</g>
<!-- Node5 -->
<g id="Node000005" class="node">
<title>Node5</title>
<g id="a_Node000005"><a xlink:href="classcBgS__Chk.html" target="_top" xlink:title=" ">
<polygon fill="white" stroke="#666666" points="62.5,-335.5 0,-335.5 0,-316.25 62.5,-316.25 62.5,-335.5"/>
<text text-anchor="middle" x="31.25" y="-322" font-family="Helvetica,sans-Serif" font-size="10.00">cBgS_Chk</text>
</a>
</g>
</g>
<!-- Node5&#45;&gt;Node3 -->
<g id="edge4_Node000003_Node000005" class="edge">
<title>Node5&#45;&gt;Node3</title>
<g id="a_edge4_Node000003_Node000005"><a xlink:title=" ">
<path fill="none" stroke="#63b8ff" d="M59.87,-310.35C72.39,-302.67 86.25,-292.14 95.25,-279.25 126.37,-234.68 133.32,-166.81 134.84,-142.46"/>
<polygon fill="#63b8ff" stroke="#63b8ff" points="58.46,-307.12 51.54,-315.14 61.95,-313.19 58.46,-307.12"/>
</a>
</g>
</g>
<!-- Node6 -->
<g id="Node000006" class="node">
<title>Node6</title>
<g id="a_Node000006"><a xlink:href="classcBgS__PolyPassChk.html" target="_top" xlink:title=" ">
<polygon fill="white" stroke="#666666" points="130.12,-402 26.38,-402 26.38,-382.75 130.12,-382.75 130.12,-402"/>
<text text-anchor="middle" x="78.25" y="-388.5" font-family="Helvetica,sans-Serif" font-size="10.00">cBgS_PolyPassChk</text>
</a>
</g>
</g>
<!-- Node6&#45;&gt;Node5 -->
<g id="edge5_Node000005_Node000006" class="edge">
<title>Node6&#45;&gt;Node5</title>
<g id="a_edge5_Node000005_Node000006"><a xlink:title=" ">
<path fill="none" stroke="#9a32cd" stroke-dasharray="5,2" d="M53.97,-375.26C50.37,-372.09 46.96,-368.56 44.25,-364.75 38.04,-356.03 34.6,-344.09 32.84,-335.97"/>
<polygon fill="#9a32cd" stroke="#9a32cd" points="51.81,-378.01 61.85,-381.39 56.11,-372.48 51.81,-378.01"/>
</a>
</g>
<text text-anchor="middle" x="78.75" y="-355.25" font-family="Helvetica,sans-Serif" font-size="10.00" fill="grey"> mPolyPassChk</text>
</g>
<!-- Node9 -->
<g id="Node000009" class="node">
<title>Node9</title>
<g id="a_Node000009"><a xlink:href="structdBgS__PolyPassChk.html" target="_top" xlink:title=" ">
<polygon fill="white" stroke="#666666" points="184.12,-335.5 80.38,-335.5 80.38,-316.25 184.12,-316.25 184.12,-335.5"/>
<text text-anchor="middle" x="132.25" y="-322" font-family="Helvetica,sans-Serif" font-size="10.00">dBgS_PolyPassChk</text>
</a>
</g>
</g>
<!-- Node6&#45;&gt;Node9 -->
<g id="edge9_Node000009_Node000006" class="edge">
<title>Node6&#45;&gt;Node9</title>
<g id="a_edge9_Node000009_Node000006"><a xlink:title=" ">
<path fill="none" stroke="#63b8ff" d="M102.29,-375.44C106.24,-372.19 110.07,-368.58 113.25,-364.75 120.49,-356.03 125.89,-344.1 129.05,-335.97"/>
<polygon fill="#63b8ff" stroke="#63b8ff" points="100.24,-372.6 94.34,-381.4 104.44,-378.2 100.24,-372.6"/>
</a>
</g>
</g>
<!-- Node7 -->
<g id="Node000007" class="node">
<title>Node7</title>
<g id="a_Node000007"><a xlink:href="classcBgS__GrpPassChk.html" target="_top" xlink:title=" ">
<polygon fill="white" stroke="#666666" points="267.62,-402 166.88,-402 166.88,-382.75 267.62,-382.75 267.62,-402"/>
<text text-anchor="middle" x="217.25" y="-388.5" font-family="Helvetica,sans-Serif" font-size="10.00">cBgS_GrpPassChk</text>
</a>
</g>
</g>
<!-- Node7&#45;&gt;Node5 -->
<g id="edge6_Node000005_Node000007" class="edge">
<title>Node7&#45;&gt;Node5</title>
<g id="a_edge6_Node000005_Node000007"><a xlink:title=" ">
<path fill="none" stroke="#9a32cd" stroke-dasharray="5,2" d="M184.06,-378.21C164.68,-370.68 139.7,-361.22 117.25,-353.5 99.07,-347.25 78.51,-340.86 62.05,-335.91"/>
<polygon fill="#9a32cd" stroke="#9a32cd" points="182.76,-381.46 193.35,-381.85 185.31,-374.95 182.76,-381.46"/>
</a>
</g>
<text text-anchor="middle" x="181.25" y="-355.25" font-family="Helvetica,sans-Serif" font-size="10.00" fill="grey"> mGrpPassChk</text>
</g>
<!-- Node10 -->
<g id="Node000010" class="node">
<title>Node10</title>
<g id="a_Node000010"><a xlink:href="classdBgS__GrpPassChk.html" target="_top" xlink:title=" ">
<polygon fill="white" stroke="#666666" points="302.62,-335.5 201.88,-335.5 201.88,-316.25 302.62,-316.25 302.62,-335.5"/>
<text text-anchor="middle" x="252.25" y="-322" font-family="Helvetica,sans-Serif" font-size="10.00">dBgS_GrpPassChk</text>
</a>
</g>
</g>
<!-- Node7&#45;&gt;Node10 -->
<g id="edge11_Node000010_Node000007" class="edge">
<title>Node7&#45;&gt;Node10</title>
<g id="a_edge11_Node000010_Node000007"><a xlink:title=" ">
<path fill="none" stroke="#63b8ff" d="M230.42,-372.76C232.12,-370.11 233.78,-367.39 235.25,-364.75 240.58,-355.18 245.57,-343.62 248.75,-335.81"/>
<polygon fill="#63b8ff" stroke="#63b8ff" points="227.55,-370.76 224.84,-381.01 233.34,-374.69 227.55,-370.76"/>
</a>
</g>
</g>
<!-- Node8 -->
<g id="Node000008" class="node">
<title>Node8</title>
<g id="a_Node000008"><a xlink:href="classdBgS__Chk.html" target="_top" xlink:title=" ">
<polygon fill="white" stroke="#666666" points="204.5,-243.88 142,-243.88 142,-224.62 204.5,-224.62 204.5,-243.88"/>
<text text-anchor="middle" x="173.25" y="-230.38" font-family="Helvetica,sans-Serif" font-size="10.00">dBgS_Chk</text>
</a>
</g>
</g>
<!-- Node8&#45;&gt;Node3 -->
<g id="edge7_Node000003_Node000008" class="edge">
<title>Node8&#45;&gt;Node3</title>
<g id="a_edge7_Node000003_Node000008"><a xlink:title=" ">
<path fill="none" stroke="#63b8ff" d="M165.88,-213.87C157.67,-192.31 144.77,-158.41 138.67,-142.36"/>
<polygon fill="#63b8ff" stroke="#63b8ff" points="162.51,-214.87 169.34,-222.97 169.05,-212.38 162.51,-214.87"/>
</a>
</g>
</g>
<!-- Node9&#45;&gt;Node8 -->
<g id="edge8_Node000008_Node000009" class="edge">
<title>Node9&#45;&gt;Node8</title>
<g id="a_edge8_Node000008_Node000009"><a xlink:title=" ">
<path fill="none" stroke="#63b8ff" d="M141.11,-305.5C149.81,-286.49 162.69,-258.34 169.19,-244.14"/>
<polygon fill="#63b8ff" stroke="#63b8ff" points="137.94,-304.03 136.96,-314.58 144.3,-306.94 137.94,-304.03"/>
</a>
</g>
</g>
<!-- Node10&#45;&gt;Node8 -->
<g id="edge10_Node000008_Node000010" class="edge">
<title>Node10&#45;&gt;Node8</title>
<g id="a_edge10_Node000008_Node000010"><a xlink:title=" ">
<path fill="none" stroke="#63b8ff" d="M236.81,-307.35C220.07,-288.36 194.01,-258.81 181.08,-244.14"/>
<polygon fill="#63b8ff" stroke="#63b8ff" points="234.15,-309.63 243.39,-314.82 239.4,-305 234.15,-309.63"/>
</a>
</g>
</g>
<!-- Node11 -->
<g id="Node000011" class="node">
<title>Node11</title>
<g id="a_Node000011"><a xlink:href="structcXyz.html" target="_top" xlink:title=" ">
<polygon fill="white" stroke="#666666" points="328.75,-243.88 291.75,-243.88 291.75,-224.62 328.75,-224.62 328.75,-243.88"/>
<text text-anchor="middle" x="310.25" y="-230.38" font-family="Helvetica,sans-Serif" font-size="10.00">cXyz</text>
</a>
</g>
</g>
<!-- Node11&#45;&gt;Node3 -->
<g id="edge12_Node000003_Node000011" class="edge">
<title>Node11&#45;&gt;Node3</title>
<g id="a_edge12_Node000003_Node000011"><a xlink:title=" ">
<path fill="none" stroke="#9a32cd" stroke-dasharray="5,2" d="M284.46,-218.53C247.75,-197.58 181.5,-159.77 151.18,-142.47"/>
<polygon fill="#9a32cd" stroke="#9a32cd" points="282.68,-221.54 293.1,-223.46 286.15,-215.46 282.68,-221.54"/>
</a>
</g>
<text text-anchor="middle" x="213" y="-161.75" font-family="Helvetica,sans-Serif" font-size="10.00" fill="grey"> m_pos</text>
</g>
<!-- Node11&#45;&gt;Node11 -->
<g id="edge14_Node000011_Node000011" class="edge">
<title>Node11&#45;&gt;Node11</title>
<g id="a_edge14_Node000011_Node000011"><a xlink:title=" ">
<path fill="none" stroke="#9a32cd" stroke-dasharray="5,2" d="M335.02,-246.07C341.68,-245.43 346.75,-241.49 346.75,-234.25 346.75,-223.21 334.99,-219.85 323.73,-224.16"/>
<polygon fill="#9a32cd" stroke="#9a32cd" points="335.64,-242.62 325.22,-244.57 334.58,-249.54 335.64,-242.62"/>
</a>
</g>
<text text-anchor="middle" x="367.75" y="-269.75" font-family="Helvetica,sans-Serif" font-size="10.00" fill="grey"> BaseX</text>
<text text-anchor="middle" x="367.75" y="-258.5" font-family="Helvetica,sans-Serif" font-size="10.00" fill="grey">BaseXY</text>
<text text-anchor="middle" x="367.75" y="-247.25" font-family="Helvetica,sans-Serif" font-size="10.00" fill="grey">BaseXYZ</text>
<text text-anchor="middle" x="367.75" y="-236" font-family="Helvetica,sans-Serif" font-size="10.00" fill="grey">BaseXZ</text>
<text text-anchor="middle" x="367.75" y="-224.75" font-family="Helvetica,sans-Serif" font-size="10.00" fill="grey">BaseY</text>
<text text-anchor="middle" x="367.75" y="-213.5" font-family="Helvetica,sans-Serif" font-size="10.00" fill="grey">BaseYZ</text>
<text text-anchor="middle" x="367.75" y="-202.25" font-family="Helvetica,sans-Serif" font-size="10.00" fill="grey">BaseZ</text>
<text text-anchor="middle" x="367.75" y="-191" font-family="Helvetica,sans-Serif" font-size="10.00" fill="grey">Zero</text>
</g>
<!-- Node12 -->
<g id="Node000012" class="node">
<title>Node12</title>
<g id="a_Node000012"><a xlink:href="structVec.html" target="_top" xlink:title=" ">
<polygon fill="white" stroke="#666666" points="353.88,-335.5 320.62,-335.5 320.62,-316.25 353.88,-316.25 353.88,-335.5"/>
<text text-anchor="middle" x="337.25" y="-322" font-family="Helvetica,sans-Serif" font-size="10.00">Vec</text>
</a>
</g>
</g>
<!-- Node12&#45;&gt;Node11 -->
<g id="edge13_Node000011_Node000012" class="edge">
<title>Node12&#45;&gt;Node11</title>
<g id="a_edge13_Node000011_Node000012"><a xlink:title=" ">
<path fill="none" stroke="#63b8ff" d="M331.25,-304.96C325.53,-285.96 317.17,-258.2 312.93,-244.14"/>
<polygon fill="#63b8ff" stroke="#63b8ff" points="327.89,-305.94 334.13,-314.5 334.59,-303.92 327.89,-305.94"/>
</a>
</g>
</g>
</g>
</svg>
