<?xml version="1.0" encoding="UTF-8" standalone="no"?>
<!DOCTYPE svg PUBLIC "-//W3C//DTD SVG 1.1//EN"
 "http://www.w3.org/Graphics/SVG/1.1/DTD/svg11.dtd">
<!-- Generated by graphviz version 9.0.0 (20230911.1827)
 -->
<!-- Title: JASBankTable&lt; N &gt; Pages: 1 -->
<svg width="291pt" height="227pt"
 viewBox="0.00 0.00 290.62 226.75" xmlns="http://www.w3.org/2000/svg" xmlns:xlink="http://www.w3.org/1999/xlink">

<svg id="main" version="1.1" xmlns="http://www.w3.org/2000/svg" xmlns:xlink="http://www.w3.org/1999/xlink" xml:space="preserve" onload="init(evt)">
<style type="text/css"><![CDATA[
.node, .edge {opacity: 0.7;}
.node.selected, .edge.selected {opacity: 1;}
.edge:hover path { stroke: red; }
.edge:hover polygon { stroke: red; fill: red; }
]]></style>
<script type="application/ecmascript" xlink:href="svg.min.js"/>
<svg id="graph" class="graph">
<g id="graph0" class="graph" transform="scale(1 1) rotate(0) translate(4 222.75)">
<title>JASBankTable&lt; N &gt;</title>
<!-- Node1 -->
<g id="Node000001" class="node">
<title>Node1</title>
<g id="a_Node000001"><a xlink:title=" ">
<polygon fill="#999999" stroke="#666666" points="105.5,-19.25 0.25,-19.25 0.25,0 105.5,0 105.5,-19.25"/>
<text text-anchor="middle" x="52.88" y="-5.75" font-family="Helvetica,sans-Serif" font-size="10.00">JASBankTable&lt; N &gt;</text>
</a>
</g>
</g>
<!-- Node2 -->
<g id="Node000002" class="node">
<title>Node2</title>
<g id="a_Node000002"><a xlink:href="classJASBankList.html" target="_top" xlink:title=" ">
<polygon fill="white" stroke="#666666" points="73.75,-85.75 0,-85.75 0,-66.5 73.75,-66.5 73.75,-85.75"/>
<text text-anchor="middle" x="36.88" y="-72.25" font-family="Helvetica,sans-Serif" font-size="10.00">JASBankList</text>
</a>
</g>
</g>
<!-- Node2&#45;&gt;Node1 -->
<g id="edge1_Node000001_Node000002" class="edge">
<title>Node2&#45;&gt;Node1</title>
<g id="a_edge1_Node000001_Node000002"><a xlink:title=" ">
<path fill="none" stroke="#63b8ff" d="M41.86,-55.02C44.81,-43.12 48.41,-28.63 50.67,-19.52"/>
<polygon fill="#63b8ff" stroke="#63b8ff" points="38.47,-54.14 39.46,-64.69 45.27,-55.82 38.47,-54.14"/>
</a>
</g>
</g>
<!-- Node3 -->
<g id="Node000003" class="node">
<title>Node3</title>
<g id="a_Node000003"><a xlink:href="classJASPtrArray.html" target="_top" xlink:title=" ">
<polygon fill="white" stroke="#666666" points="232.12,-85.75 91.62,-85.75 91.62,-66.5 232.12,-66.5 232.12,-85.75"/>
<text text-anchor="middle" x="161.88" y="-72.25" font-family="Helvetica,sans-Serif" font-size="10.00">JASPtrArray&lt; JASBank, N &gt;</text>
</a>
</g>
</g>
<!-- Node3&#45;&gt;Node1 -->
<g id="edge2_Node000001_Node000003" class="edge">
<title>Node3&#45;&gt;Node1</title>
<g id="a_edge2_Node000001_Node000003"><a xlink:title=" ">
<path fill="none" stroke="#9a32cd" stroke-dasharray="5,2" d="M136.82,-60.3C115.67,-47.78 86.07,-30.27 68.25,-19.73"/>
<polygon fill="#9a32cd" stroke="#9a32cd" points="135.03,-63.31 145.42,-65.39 138.59,-57.28 135.03,-63.31"/>
</a>
</g>
<text text-anchor="middle" x="131.38" y="-39" font-family="Helvetica,sans-Serif" font-size="10.00" fill="grey"> mArray</text>
</g>
<!-- Node4 -->
<g id="Node000004" class="node">
<title>Node4</title>
<g id="a_Node000004"><a xlink:href="classJASPtrTable.html" target="_top" xlink:title=" ">
<polygon fill="white" stroke="#666666" points="177.88,-152.25 83.88,-152.25 83.88,-133 177.88,-133 177.88,-152.25"/>
<text text-anchor="middle" x="130.88" y="-138.75" font-family="Helvetica,sans-Serif" font-size="10.00">JASPtrTable&lt; T &gt;</text>
</a>
</g>
</g>
<!-- Node4&#45;&gt;Node3 -->
<g id="edge3_Node000003_Node000004" class="edge">
<title>Node4&#45;&gt;Node3</title>
<g id="a_edge3_Node000003_Node000004"><a xlink:title=" ">
<path fill="none" stroke="#63b8ff" d="M140,-122.64C145.81,-110.54 153.08,-95.42 157.6,-86.02"/>
<polygon fill="#63b8ff" stroke="#63b8ff" points="137.02,-120.76 135.84,-131.29 143.33,-123.8 137.02,-120.76"/>
</a>
</g>
</g>
<!-- Node5 -->
<g id="Node000005" class="node">
<title>Node5</title>
<g id="a_Node000005"><a xlink:href="classJASBank.html" target="_top" xlink:title=" ">
<polygon fill="white" stroke="#666666" points="253.5,-152.25 196.25,-152.25 196.25,-133 253.5,-133 253.5,-152.25"/>
<text text-anchor="middle" x="224.88" y="-138.75" font-family="Helvetica,sans-Serif" font-size="10.00">JASBank</text>
</a>
</g>
</g>
<!-- Node5&#45;&gt;Node3 -->
<g id="edge4_Node000003_Node000005" class="edge">
<title>Node5&#45;&gt;Node3</title>
<g id="a_edge4_Node000003_Node000005"><a xlink:title=" ">
<path fill="none" stroke="#9a32cd" stroke-dasharray="5,2" d="M208.12,-124.47C196.04,-112.1 180.21,-95.9 170.56,-86.02"/>
<polygon fill="#9a32cd" stroke="#9a32cd" points="205.57,-126.87 215.06,-131.57 210.57,-121.97 205.57,-126.87"/>
</a>
</g>
<text text-anchor="middle" x="213.38" y="-105.5" font-family="Helvetica,sans-Serif" font-size="10.00" fill="grey"> mArray</text>
</g>
<!-- Node6 -->
<g id="Node000006" class="node">
<title>Node6</title>
<g id="a_Node000006"><a xlink:href="classJASWaveBank.html" target="_top" xlink:title=" ">
<polygon fill="white" stroke="#666666" points="265.88,-218.75 183.88,-218.75 183.88,-199.5 265.88,-199.5 265.88,-218.75"/>
<text text-anchor="middle" x="224.88" y="-205.25" font-family="Helvetica,sans-Serif" font-size="10.00">JASWaveBank</text>
</a>
</g>
</g>
<!-- Node6&#45;&gt;Node5 -->
<g id="edge5_Node000005_Node000006" class="edge">
<title>Node6&#45;&gt;Node5</title>
<g id="a_edge5_Node000005_Node000006"><a xlink:title=" ">
<path fill="none" stroke="#9a32cd" stroke-dasharray="5,2" d="M224.88,-187.65C224.88,-175.82 224.88,-161.54 224.88,-152.52"/>
<polygon fill="#9a32cd" stroke="#9a32cd" points="221.38,-187.64 224.88,-197.64 228.38,-187.64 221.38,-187.64"/>
</a>
</g>
<text text-anchor="middle" x="253.75" y="-172" font-family="Helvetica,sans-Serif" font-size="10.00" fill="grey"> mWaveBank</text>
</g>
</g>
</svg>
</svg>

<style type='text/css'>
<![CDATA[
[data-mouse-over-selected='false'] { opacity: 0.7; }
[data-mouse-over-selected='true']  { opacity: 1.0; }
]]>
</style>
<script type="application/ecmascript"><![CDATA[
document.addEventListener('DOMContentLoaded', (event) => {
  highlightEdges();
  highlightAdjacentNodes();
});
]]></script>
</svg>
