<?xml version="1.0" encoding="UTF-8" standalone="no"?>
<!DOCTYPE svg PUBLIC "-//W3C//DTD SVG 1.1//EN"
 "http://www.w3.org/Graphics/SVG/1.1/DTD/svg11.dtd">
<!-- Generated by graphviz version 9.0.0 (20230911.1827)
 -->
<!-- Title: cCcD_CpsAttr Pages: 1 -->
<svg width="240pt" height="355pt"
 viewBox="0.00 0.00 239.52 354.75" xmlns="http://www.w3.org/2000/svg" xmlns:xlink="http://www.w3.org/1999/xlink">

<svg id="main" version="1.1" xmlns="http://www.w3.org/2000/svg" xmlns:xlink="http://www.w3.org/1999/xlink" xml:space="preserve" onload="init(evt)">
<style type="text/css"><![CDATA[
.node, .edge {opacity: 0.7;}
.node.selected, .edge.selected {opacity: 1;}
.edge:hover path { stroke: red; }
.edge:hover polygon { stroke: red; fill: red; }
]]></style>
<script type="application/ecmascript" xlink:href="svg.min.js"/>
<svg id="graph" class="graph">
<g id="graph0" class="graph" transform="scale(1 1) rotate(0) translate(4 350.75)">
<title>cCcD_CpsAttr</title>
<!-- Node1 -->
<g id="Node000001" class="node">
<title>Node1</title>
<g id="a_Node000001"><a xlink:title=" ">
<polygon fill="#999999" stroke="#666666" points="190.27,-19.25 112.02,-19.25 112.02,0 190.27,0 190.27,-19.25"/>
<text text-anchor="middle" x="151.15" y="-5.75" font-family="Helvetica,sans-Serif" font-size="10.00">cCcD_CpsAttr</text>
</a>
</g>
</g>
<!-- Node2 -->
<g id="Node000002" class="node">
<title>Node2</title>
<g id="a_Node000002"><a xlink:href="classcCcD__ShapeAttr.html" target="_top" xlink:title=" ">
<polygon fill="white" stroke="#666666" points="148.52,-75.5 59.77,-75.5 59.77,-56.25 148.52,-56.25 148.52,-75.5"/>
<text text-anchor="middle" x="104.15" y="-62" font-family="Helvetica,sans-Serif" font-size="10.00">cCcD_ShapeAttr</text>
</a>
</g>
</g>
<!-- Node2&#45;&gt;Node1 -->
<g id="edge1_Node000001_Node000002" class="edge">
<title>Node2&#45;&gt;Node1</title>
<g id="a_edge1_Node000001_Node000002"><a xlink:title=" ">
<path fill="none" stroke="#63b8ff" d="M119.32,-47.36C127.41,-38.03 137,-26.95 143.53,-19.42"/>
<polygon fill="#63b8ff" stroke="#63b8ff" points="116.8,-44.92 112.9,-54.77 122.09,-49.51 116.8,-44.92"/>
</a>
</g>
</g>
<!-- Node3 -->
<g id="Node000003" class="node">
<title>Node3</title>
<g id="a_Node000003"><a xlink:href="structcM3dGAab.html" target="_top" xlink:title=" ">
<polygon fill="white" stroke="#666666" points="150.52,-142 85.77,-142 85.77,-122.75 150.52,-122.75 150.52,-142"/>
<text text-anchor="middle" x="118.15" y="-128.5" font-family="Helvetica,sans-Serif" font-size="10.00">cM3dGAab</text>
</a>
</g>
</g>
<!-- Node3&#45;&gt;Node2 -->
<g id="edge2_Node000002_Node000003" class="edge">
<title>Node3&#45;&gt;Node2</title>
<g id="a_edge2_Node000002_Node000003"><a xlink:title=" ">
<path fill="none" stroke="#9a32cd" stroke-dasharray="5,2" d="M113.78,-111.27C111.2,-99.37 108.05,-84.88 106.08,-75.77"/>
<polygon fill="#9a32cd" stroke="#9a32cd" points="110.34,-111.9 115.88,-120.93 117.18,-110.41 110.34,-111.9"/>
</a>
</g>
<text text-anchor="middle" x="126.02" y="-95.25" font-family="Helvetica,sans-Serif" font-size="10.00" fill="grey"> mAab</text>
</g>
<!-- Node4 -->
<g id="Node000004" class="node">
<title>Node4</title>
<g id="a_Node000004"><a xlink:href="structcXyz.html" target="_top" xlink:title=" ">
<polygon fill="white" stroke="#666666" points="136.65,-255.12 99.65,-255.12 99.65,-235.88 136.65,-235.88 136.65,-255.12"/>
<text text-anchor="middle" x="118.15" y="-241.62" font-family="Helvetica,sans-Serif" font-size="10.00">cXyz</text>
</a>
</g>
</g>
<!-- Node4&#45;&gt;Node2 -->
<g id="edge6_Node000002_Node000004" class="edge">
<title>Node4&#45;&gt;Node2</title>
<g id="a_edge6_Node000002_Node000004"><a xlink:title=" ">
<path fill="none" stroke="#9a32cd" stroke-dasharray="5,2" d="M91.09,-229.78C63.06,-212.81 20.87,-182.03 2.9,-142 -11.98,-108.85 35.01,-87.1 69.88,-75.91"/>
<polygon fill="#9a32cd" stroke="#9a32cd" points="89.01,-232.62 99.41,-234.64 92.54,-226.57 89.01,-232.62"/>
</a>
</g>
<text text-anchor="middle" x="40.27" y="-128.5" font-family="Helvetica,sans-Serif" font-size="10.00" fill="grey"> m_virtual_center</text>
</g>
<!-- Node4&#45;&gt;Node3 -->
<g id="edge3_Node000003_Node000004" class="edge">
<title>Node4&#45;&gt;Node3</title>
<g id="a_edge3_Node000003_Node000004"><a xlink:title=" ">
<path fill="none" stroke="#9a32cd" stroke-dasharray="5,2" d="M118.15,-223.93C118.15,-199.51 118.15,-159.88 118.15,-142.28"/>
<polygon fill="#9a32cd" stroke="#9a32cd" points="114.65,-223.89 118.15,-233.89 121.65,-223.89 114.65,-223.89"/>
</a>
</g>
<text text-anchor="middle" x="132.4" y="-173" font-family="Helvetica,sans-Serif" font-size="10.00" fill="grey"> mMax</text>
<text text-anchor="middle" x="132.4" y="-161.75" font-family="Helvetica,sans-Serif" font-size="10.00" fill="grey">mMin</text>
</g>
<!-- Node4&#45;&gt;Node4 -->
<g id="edge5_Node000004_Node000004" class="edge">
<title>Node4&#45;&gt;Node4</title>
<g id="a_edge5_Node000004_Node000004"><a xlink:title=" ">
<path fill="none" stroke="#9a32cd" stroke-dasharray="5,2" d="M142.91,-257.32C149.58,-256.68 154.65,-252.74 154.65,-245.5 154.65,-234.46 142.88,-231.1 131.62,-235.41"/>
<polygon fill="#9a32cd" stroke="#9a32cd" points="143.53,-253.87 133.12,-255.82 142.48,-260.79 143.53,-253.87"/>
</a>
</g>
<text text-anchor="middle" x="175.65" y="-281" font-family="Helvetica,sans-Serif" font-size="10.00" fill="grey"> BaseX</text>
<text text-anchor="middle" x="175.65" y="-269.75" font-family="Helvetica,sans-Serif" font-size="10.00" fill="grey">BaseXY</text>
<text text-anchor="middle" x="175.65" y="-258.5" font-family="Helvetica,sans-Serif" font-size="10.00" fill="grey">BaseXYZ</text>
<text text-anchor="middle" x="175.65" y="-247.25" font-family="Helvetica,sans-Serif" font-size="10.00" fill="grey">BaseXZ</text>
<text text-anchor="middle" x="175.65" y="-236" font-family="Helvetica,sans-Serif" font-size="10.00" fill="grey">BaseY</text>
<text text-anchor="middle" x="175.65" y="-224.75" font-family="Helvetica,sans-Serif" font-size="10.00" fill="grey">BaseYZ</text>
<text text-anchor="middle" x="175.65" y="-213.5" font-family="Helvetica,sans-Serif" font-size="10.00" fill="grey">BaseZ</text>
<text text-anchor="middle" x="175.65" y="-202.25" font-family="Helvetica,sans-Serif" font-size="10.00" fill="grey">Zero</text>
</g>
<!-- Node7 -->
<g id="Node000007" class="node">
<title>Node7</title>
<g id="a_Node000007"><a xlink:href="structcM3dGLin.html" target="_top" xlink:title=" ">
<polygon fill="white" stroke="#666666" points="229.65,-142 168.65,-142 168.65,-122.75 229.65,-122.75 229.65,-142"/>
<text text-anchor="middle" x="199.15" y="-128.5" font-family="Helvetica,sans-Serif" font-size="10.00">cM3dGLin</text>
</a>
</g>
</g>
<!-- Node4&#45;&gt;Node7 -->
<g id="edge9_Node000007_Node000004" class="edge">
<title>Node4&#45;&gt;Node7</title>
<g id="a_edge9_Node000007_Node000004"><a xlink:title=" ">
<path fill="none" stroke="#9a32cd" stroke-dasharray="5,2" d="M131.45,-226.24C149.06,-202.09 179.41,-160.45 192.65,-142.28"/>
<polygon fill="#9a32cd" stroke="#9a32cd" points="128.73,-224.04 125.67,-234.18 134.38,-228.16 128.73,-224.04"/>
</a>
</g>
<text text-anchor="middle" x="193.77" y="-173" font-family="Helvetica,sans-Serif" font-size="10.00" fill="grey"> mEnd</text>
<text text-anchor="middle" x="193.77" y="-161.75" font-family="Helvetica,sans-Serif" font-size="10.00" fill="grey">mStart</text>
</g>
<!-- Node5 -->
<g id="Node000005" class="node">
<title>Node5</title>
<g id="a_Node000005"><a xlink:href="structVec.html" target="_top" xlink:title=" ">
<polygon fill="white" stroke="#666666" points="134.77,-346.75 101.52,-346.75 101.52,-327.5 134.77,-327.5 134.77,-346.75"/>
<text text-anchor="middle" x="118.15" y="-333.25" font-family="Helvetica,sans-Serif" font-size="10.00">Vec</text>
</a>
</g>
</g>
<!-- Node5&#45;&gt;Node4 -->
<g id="edge4_Node000004_Node000005" class="edge">
<title>Node5&#45;&gt;Node4</title>
<g id="a_edge4_Node000004_Node000005"><a xlink:title=" ">
<path fill="none" stroke="#63b8ff" d="M118.15,-315.94C118.15,-296.94 118.15,-269.39 118.15,-255.39"/>
<polygon fill="#63b8ff" stroke="#63b8ff" points="114.65,-315.69 118.15,-325.69 121.65,-315.69 114.65,-315.69"/>
</a>
</g>
</g>
<!-- Node6 -->
<g id="Node000006" class="node">
<title>Node6</title>
<g id="a_Node000006"><a xlink:href="classcM3dGCps.html" target="_top" xlink:title=" ">
<polygon fill="white" stroke="#666666" points="231.52,-75.5 166.77,-75.5 166.77,-56.25 231.52,-56.25 231.52,-75.5"/>
<text text-anchor="middle" x="199.15" y="-62" font-family="Helvetica,sans-Serif" font-size="10.00">cM3dGCps</text>
</a>
</g>
</g>
<!-- Node6&#45;&gt;Node1 -->
<g id="edge7_Node000001_Node000006" class="edge">
<title>Node6&#45;&gt;Node1</title>
<g id="a_edge7_Node000001_Node000006"><a xlink:title=" ">
<path fill="none" stroke="#63b8ff" d="M183.65,-47.36C175.39,-38.03 165.59,-26.95 158.92,-19.42"/>
<polygon fill="#63b8ff" stroke="#63b8ff" points="180.97,-49.61 190.22,-54.78 186.21,-44.97 180.97,-49.61"/>
</a>
</g>
</g>
<!-- Node7&#45;&gt;Node6 -->
<g id="edge8_Node000006_Node000007" class="edge">
<title>Node7&#45;&gt;Node6</title>
<g id="a_edge8_Node000006_Node000007"><a xlink:title=" ">
<path fill="none" stroke="#63b8ff" d="M199.15,-110.9C199.15,-99.07 199.15,-84.79 199.15,-75.77"/>
<polygon fill="#63b8ff" stroke="#63b8ff" points="195.65,-110.89 199.15,-120.89 202.65,-110.89 195.65,-110.89"/>
</a>
</g>
</g>
</g>
</svg>
</svg>

<style type='text/css'>
<![CDATA[
[data-mouse-over-selected='false'] { opacity: 0.7; }
[data-mouse-over-selected='true']  { opacity: 1.0; }
]]>
</style>
<script type="application/ecmascript"><![CDATA[
document.addEventListener('DOMContentLoaded', (event) => {
  highlightEdges();
  highlightAdjacentNodes();
});
]]></script>
</svg>
