<?xml version="1.0" encoding="UTF-8" standalone="no"?>
<!DOCTYPE svg PUBLIC "-//W3C//DTD SVG 1.1//EN"
 "http://www.w3.org/Graphics/SVG/1.1/DTD/svg11.dtd">
<!-- Generated by graphviz version 9.0.0 (20230911.1827)
 -->
<!-- Title: dMeter_drawCollectHIO_c Pages: 1 -->
<svg width="320pt" height="232pt"
 viewBox="0.00 0.00 319.50 232.00" xmlns="http://www.w3.org/2000/svg" xmlns:xlink="http://www.w3.org/1999/xlink">
<g id="graph0" class="graph" transform="scale(1 1) rotate(0) translate(4 228)">
<title>dMeter_drawCollectHIO_c</title>
<!-- Node1 -->
<g id="Node000001" class="node">
<title>Node1</title>
<g id="a_Node000001"><a xlink:title=" ">
<polygon fill="#999999" stroke="#666666" points="215.88,-19.25 85.12,-19.25 85.12,0 215.88,0 215.88,-19.25"/>
<text text-anchor="middle" x="150.5" y="-5.75" font-family="Helvetica,sans-Serif" font-size="10.00">dMeter_drawCollectHIO_c</text>
</a>
</g>
</g>
<!-- Node2 -->
<g id="Node000002" class="node">
<title>Node2</title>
<g id="a_Node000002"><a xlink:href="structcXyz.html" target="_top" xlink:title=" ">
<polygon fill="white" stroke="#666666" points="37,-132.38 0,-132.38 0,-113.12 37,-113.12 37,-132.38"/>
<text text-anchor="middle" x="18.5" y="-118.88" font-family="Helvetica,sans-Serif" font-size="10.00">cXyz</text>
</a>
</g>
</g>
<!-- Node2&#45;&gt;Node1 -->
<g id="edge1_Node000001_Node000002" class="edge">
<title>Node2&#45;&gt;Node1</title>
<g id="a_edge1_Node000001_Node000002"><a xlink:title=" ">
<path fill="none" stroke="#9a32cd" stroke-dasharray="5,2" d="M25.99,-102.18C34.27,-83.05 49.35,-54.37 71,-37.25 81.05,-29.31 93.58,-23.68 105.71,-19.71"/>
<polygon fill="#9a32cd" stroke="#9a32cd" points="22.82,-100.69 22.29,-111.27 29.31,-103.33 22.82,-100.69"/>
</a>
</g>
<text text-anchor="middle" x="109.75" y="-44.62" font-family="Helvetica,sans-Serif" font-size="10.00" fill="grey"> mMaskMirrorPos</text>
</g>
<!-- Node2&#45;&gt;Node2 -->
<g id="edge3_Node000002_Node000002" class="edge">
<title>Node2&#45;&gt;Node2</title>
<g id="a_edge3_Node000002_Node000002"><a xlink:title=" ">
<path fill="none" stroke="#9a32cd" stroke-dasharray="5,2" d="M43.27,-134.57C49.93,-133.93 55,-129.99 55,-122.75 55,-111.71 43.24,-108.35 31.98,-112.66"/>
<polygon fill="#9a32cd" stroke="#9a32cd" points="43.89,-131.12 33.47,-133.07 42.83,-138.04 43.89,-131.12"/>
</a>
</g>
<text text-anchor="middle" x="76" y="-158.25" font-family="Helvetica,sans-Serif" font-size="10.00" fill="grey"> BaseX</text>
<text text-anchor="middle" x="76" y="-147" font-family="Helvetica,sans-Serif" font-size="10.00" fill="grey">BaseXY</text>
<text text-anchor="middle" x="76" y="-135.75" font-family="Helvetica,sans-Serif" font-size="10.00" fill="grey">BaseXYZ</text>
<text text-anchor="middle" x="76" y="-124.5" font-family="Helvetica,sans-Serif" font-size="10.00" fill="grey">BaseXZ</text>
<text text-anchor="middle" x="76" y="-113.25" font-family="Helvetica,sans-Serif" font-size="10.00" fill="grey">BaseY</text>
<text text-anchor="middle" x="76" y="-102" font-family="Helvetica,sans-Serif" font-size="10.00" fill="grey">BaseYZ</text>
<text text-anchor="middle" x="76" y="-90.75" font-family="Helvetica,sans-Serif" font-size="10.00" fill="grey">BaseZ</text>
<text text-anchor="middle" x="76" y="-79.5" font-family="Helvetica,sans-Serif" font-size="10.00" fill="grey">Zero</text>
</g>
<!-- Node3 -->
<g id="Node000003" class="node">
<title>Node3</title>
<g id="a_Node000003"><a xlink:href="structVec.html" target="_top" xlink:title=" ">
<polygon fill="white" stroke="#666666" points="35.12,-224 1.88,-224 1.88,-204.75 35.12,-204.75 35.12,-224"/>
<text text-anchor="middle" x="18.5" y="-210.5" font-family="Helvetica,sans-Serif" font-size="10.00">Vec</text>
</a>
</g>
</g>
<!-- Node3&#45;&gt;Node2 -->
<g id="edge2_Node000002_Node000003" class="edge">
<title>Node3&#45;&gt;Node2</title>
<g id="a_edge2_Node000002_Node000003"><a xlink:title=" ">
<path fill="none" stroke="#63b8ff" d="M18.5,-193.19C18.5,-174.19 18.5,-146.64 18.5,-132.64"/>
<polygon fill="#63b8ff" stroke="#63b8ff" points="15,-192.94 18.5,-202.94 22,-192.94 15,-192.94"/>
</a>
</g>
</g>
<!-- Node4 -->
<g id="Node000004" class="node">
<title>Node4</title>
<g id="a_Node000004"><a xlink:href="structJUtility_1_1TColor.html" target="_top" xlink:title=" ">
<polygon fill="white" stroke="#666666" points="194,-132.38 115,-132.38 115,-113.12 194,-113.12 194,-132.38"/>
<text text-anchor="middle" x="154.5" y="-118.88" font-family="Helvetica,sans-Serif" font-size="10.00">JUtility::TColor</text>
</a>
</g>
</g>
<!-- Node4&#45;&gt;Node1 -->
<g id="edge4_Node000001_Node000004" class="edge">
<title>Node4&#45;&gt;Node1</title>
<g id="a_edge4_Node000001_Node000004"><a xlink:title=" ">
<path fill="none" stroke="#9a32cd" stroke-dasharray="5,2" d="M153.37,-101.44C152.74,-89.34 151.98,-73.67 151.5,-59.75 151.02,-45.77 150.74,-29.54 150.61,-19.68"/>
<polygon fill="#9a32cd" stroke="#9a32cd" points="149.88,-101.62 153.91,-111.41 156.87,-101.24 149.88,-101.62"/>
</a>
</g>
<text text-anchor="middle" x="183" y="-50.25" font-family="Helvetica,sans-Serif" font-size="10.00" fill="grey"> mVesselBack</text>
<text text-anchor="middle" x="183" y="-39" font-family="Helvetica,sans-Serif" font-size="10.00" fill="grey">mVesselFront</text>
</g>
<!-- Node5 -->
<g id="Node000005" class="node">
<title>Node5</title>
<g id="a_Node000005"><a xlink:href="struct__GXColor.html" target="_top" xlink:title=" ">
<polygon fill="white" stroke="#666666" points="180.88,-224 128.12,-224 128.12,-204.75 180.88,-204.75 180.88,-224"/>
<text text-anchor="middle" x="154.5" y="-210.5" font-family="Helvetica,sans-Serif" font-size="10.00">GXColor</text>
</a>
</g>
</g>
<!-- Node5&#45;&gt;Node4 -->
<g id="edge5_Node000004_Node000005" class="edge">
<title>Node5&#45;&gt;Node4</title>
<g id="a_edge5_Node000004_Node000005"><a xlink:title=" ">
<path fill="none" stroke="#63b8ff" d="M154.5,-193.19C154.5,-174.19 154.5,-146.64 154.5,-132.64"/>
<polygon fill="#63b8ff" stroke="#63b8ff" points="151,-192.94 154.5,-202.94 158,-192.94 151,-192.94"/>
</a>
</g>
</g>
<!-- Node6 -->
<g id="Node000006" class="node">
<title>Node6</title>
<g id="a_Node000006"><a xlink:href="structcsXyz.html" target="_top" xlink:title=" ">
<polygon fill="white" stroke="#666666" points="257.62,-132.38 215.38,-132.38 215.38,-113.12 257.62,-113.12 257.62,-132.38"/>
<text text-anchor="middle" x="236.5" y="-118.88" font-family="Helvetica,sans-Serif" font-size="10.00">csXyz</text>
</a>
</g>
</g>
<!-- Node6&#45;&gt;Node1 -->
<g id="edge6_Node000001_Node000006" class="edge">
<title>Node6&#45;&gt;Node1</title>
<g id="a_edge6_Node000001_Node000006"><a xlink:title=" ">
<path fill="none" stroke="#9a32cd" stroke-dasharray="5,2" d="M236.15,-101.31C234.79,-82.57 230.02,-55.1 214.5,-37.25 207.55,-29.26 197.82,-23.61 188.03,-19.65"/>
<polygon fill="#9a32cd" stroke="#9a32cd" points="232.65,-101.31 236.58,-111.15 239.64,-101.01 232.65,-101.31"/>
</a>
</g>
<text text-anchor="middle" x="269.5" y="-44.62" font-family="Helvetica,sans-Serif" font-size="10.00" fill="grey"> mMaskMirrorAngle</text>
</g>
<!-- Node6&#45;&gt;Node6 -->
<g id="edge8_Node000006_Node000006" class="edge">
<title>Node6&#45;&gt;Node6</title>
<g id="a_edge8_Node000006_Node000006"><a xlink:title=" ">
<path fill="none" stroke="#9a32cd" stroke-dasharray="5,2" d="M262.28,-134.62C269.8,-134.21 275.62,-130.25 275.62,-122.75 275.62,-111.71 263.01,-108.35 250.95,-112.66"/>
<polygon fill="#9a32cd" stroke="#9a32cd" points="262.86,-131.17 252.44,-133.07 261.78,-138.08 262.86,-131.17"/>
</a>
</g>
<text text-anchor="middle" x="286.5" y="-118.88" font-family="Helvetica,sans-Serif" font-size="10.00" fill="grey"> Zero</text>
</g>
<!-- Node7 -->
<g id="Node000007" class="node">
<title>Node7</title>
<g id="a_Node000007"><a xlink:href="structSVec.html" target="_top" xlink:title=" ">
<polygon fill="white" stroke="#666666" points="256.5,-224 216.5,-224 216.5,-204.75 256.5,-204.75 256.5,-224"/>
<text text-anchor="middle" x="236.5" y="-210.5" font-family="Helvetica,sans-Serif" font-size="10.00">SVec</text>
</a>
</g>
</g>
<!-- Node7&#45;&gt;Node6 -->
<g id="edge7_Node000006_Node000007" class="edge">
<title>Node7&#45;&gt;Node6</title>
<g id="a_edge7_Node000006_Node000007"><a xlink:title=" ">
<path fill="none" stroke="#63b8ff" d="M236.5,-193.19C236.5,-174.19 236.5,-146.64 236.5,-132.64"/>
<polygon fill="#63b8ff" stroke="#63b8ff" points="233,-192.94 236.5,-202.94 240,-192.94 233,-192.94"/>
</a>
</g>
</g>
</g>
</svg>
