<?xml version="1.0" encoding="UTF-8" standalone="no"?>
<!DOCTYPE svg PUBLIC "-//W3C//DTD SVG 1.1//EN"
 "http://www.w3.org/Graphics/SVG/1.1/DTD/svg11.dtd">
<!-- Generated by graphviz version 9.0.0 (20230911.1827)
 -->
<!-- Title: J2DTextBox Pages: 1 -->
<svg width="495pt" height="432pt"
 viewBox="0.00 0.00 495.00 431.50" xmlns="http://www.w3.org/2000/svg" xmlns:xlink="http://www.w3.org/1999/xlink">

<svg id="main" version="1.1" xmlns="http://www.w3.org/2000/svg" xmlns:xlink="http://www.w3.org/1999/xlink" xml:space="preserve" onload="init(evt)">
<style type="text/css"><![CDATA[
.node, .edge {opacity: 0.7;}
.node.selected, .edge.selected {opacity: 1;}
.edge:hover path { stroke: red; }
.edge:hover polygon { stroke: red; fill: red; }
]]></style>
<script type="application/ecmascript" xlink:href="svg.min.js"/>
<svg id="graph" class="graph">
<g id="graph0" class="graph" transform="scale(1 1) rotate(0) translate(4 427.5)">
<title>J2DTextBox</title>
<!-- Node1 -->
<g id="Node000001" class="node">
<title>Node1</title>
<g id="a_Node000001"><a xlink:title=" ">
<polygon fill="#999999" stroke="#666666" points="379,-19.25 310.5,-19.25 310.5,0 379,0 379,-19.25"/>
<text text-anchor="middle" x="344.75" y="-5.75" font-family="Helvetica,sans-Serif" font-size="10.00">J2DTextBox</text>
</a>
</g>
</g>
<!-- Node2 -->
<g id="Node000002" class="node">
<title>Node2</title>
<g id="a_Node000002"><a xlink:href="classJ2DPane.html" target="_top" xlink:title=" ">
<polygon fill="white" stroke="#666666" points="264.62,-98.62 208.88,-98.62 208.88,-79.38 264.62,-79.38 264.62,-98.62"/>
<text text-anchor="middle" x="236.75" y="-85.12" font-family="Helvetica,sans-Serif" font-size="10.00">J2DPane</text>
</a>
</g>
</g>
<!-- Node2&#45;&gt;Node1 -->
<g id="edge1_Node000001_Node000002" class="edge">
<title>Node2&#45;&gt;Node1</title>
<g id="a_edge1_Node000001_Node000002"><a xlink:title=" ">
<path fill="none" stroke="#63b8ff" d="M258.4,-72.49C280.51,-56.65 314.09,-32.59 332.17,-19.64"/>
<polygon fill="#63b8ff" stroke="#63b8ff" points="256.46,-69.57 250.37,-78.24 260.54,-75.26 256.46,-69.57"/>
</a>
</g>
</g>
<!-- Node3 -->
<g id="Node000003" class="node">
<title>Node3</title>
<g id="a_Node000003"><a xlink:href="structJGeometry_1_1TBox2.html" target="_top" xlink:title=" ">
<polygon fill="white" stroke="#666666" points="125.5,-211.75 0,-211.75 0,-192.5 125.5,-192.5 125.5,-211.75"/>
<text text-anchor="middle" x="62.75" y="-198.25" font-family="Helvetica,sans-Serif" font-size="10.00">JGeometry::TBox2&lt; f32 &gt;</text>
</a>
</g>
</g>
<!-- Node3&#45;&gt;Node2 -->
<g id="edge2_Node000002_Node000003" class="edge">
<title>Node3&#45;&gt;Node2</title>
<g id="a_edge2_Node000002_Node000003"><a xlink:title=" ">
<path fill="none" stroke="#9a32cd" stroke-dasharray="5,2" d="M73.24,-182.85C83.36,-166.71 100.1,-143.6 120.25,-129.5 147.2,-110.64 183.88,-100.18 208.84,-94.83"/>
<polygon fill="#9a32cd" stroke="#9a32cd" points="70.49,-180.62 68.35,-190.99 76.5,-184.22 70.49,-180.62"/>
</a>
</g>
<text text-anchor="middle" x="156" y="-165" font-family="Helvetica,sans-Serif" font-size="10.00" fill="grey"> mBounds</text>
<text text-anchor="middle" x="156" y="-153.75" font-family="Helvetica,sans-Serif" font-size="10.00" fill="grey">mClipRect</text>
<text text-anchor="middle" x="156" y="-142.5" font-family="Helvetica,sans-Serif" font-size="10.00" fill="grey">mGlobalBounds</text>
<text text-anchor="middle" x="156" y="-131.25" font-family="Helvetica,sans-Serif" font-size="10.00" fill="grey">static_mBounds</text>
</g>
<!-- Node4 -->
<g id="Node000004" class="node">
<title>Node4</title>
<g id="a_Node000004"><a xlink:href="structJGeometry_1_1TBox.html" target="_top" xlink:title=" ">
<polygon fill="white" stroke="#666666" points="119.12,-268 6.38,-268 6.38,-248.75 119.12,-248.75 119.12,-268"/>
<text text-anchor="middle" x="62.75" y="-254.5" font-family="Helvetica,sans-Serif" font-size="10.00">JGeometry::TBox&lt; T &gt;</text>
</a>
</g>
</g>
<!-- Node4&#45;&gt;Node3 -->
<g id="edge3_Node000003_Node000004" class="edge">
<title>Node4&#45;&gt;Node3</title>
<g id="a_edge3_Node000003_Node000004"><a xlink:title=" ">
<path fill="none" stroke="#63b8ff" d="M62.75,-237.19C62.75,-228.48 62.75,-218.74 62.75,-211.92"/>
<polygon fill="#63b8ff" stroke="#63b8ff" points="59.25,-236.9 62.75,-246.9 66.25,-236.9 59.25,-236.9"/>
</a>
</g>
</g>
<!-- Node5 -->
<g id="Node000005" class="node">
<title>Node5</title>
<g id="a_Node000005"><a xlink:href="classJSUTree.html" target="_top" xlink:title=" ">
<polygon fill="white" stroke="#666666" points="254.38,-211.75 143.12,-211.75 143.12,-192.5 254.38,-192.5 254.38,-211.75"/>
<text text-anchor="middle" x="198.75" y="-198.25" font-family="Helvetica,sans-Serif" font-size="10.00">JSUTree&lt; J2DPane &gt;</text>
</a>
</g>
</g>
<!-- Node5&#45;&gt;Node2 -->
<g id="edge4_Node000002_Node000005" class="edge">
<title>Node5&#45;&gt;Node2</title>
<g id="a_edge4_Node000002_Node000005"><a xlink:title=" ">
<path fill="none" stroke="#9a32cd" stroke-dasharray="5,2" d="M195.46,-181.01C193.9,-166.21 193.63,-145.91 200.25,-129.5 205.28,-117.03 216.2,-106.09 224.79,-98.91"/>
<polygon fill="#9a32cd" stroke="#9a32cd" points="191.98,-181.42 196.8,-190.85 198.92,-180.47 191.98,-181.42"/>
</a>
</g>
<text text-anchor="middle" x="227" y="-148.12" font-family="Helvetica,sans-Serif" font-size="10.00" fill="grey"> mPaneTree</text>
</g>
<!-- Node6 -->
<g id="Node000006" class="node">
<title>Node6</title>
<g id="a_Node000006"><a xlink:href="classJSUList.html" target="_top" xlink:title=" ">
<polygon fill="white" stroke="#666666" points="192,-305.25 117.5,-305.25 117.5,-286 192,-286 192,-305.25"/>
<text text-anchor="middle" x="154.75" y="-291.75" font-family="Helvetica,sans-Serif" font-size="10.00">JSUList&lt; T &gt;</text>
</a>
</g>
</g>
<!-- Node6&#45;&gt;Node5 -->
<g id="edge5_Node000005_Node000006" class="edge">
<title>Node6&#45;&gt;Node5</title>
<g id="a_edge5_Node000005_Node000006"><a xlink:title=" ">
<path fill="none" stroke="#63b8ff" d="M162.23,-275.25C165.56,-266.99 169.65,-257.31 173.75,-248.75 180,-235.72 188.2,-221.15 193.48,-212.06"/>
<polygon fill="#63b8ff" stroke="#63b8ff" points="159.08,-273.71 158.67,-284.3 165.59,-276.28 159.08,-273.71"/>
</a>
</g>
</g>
<!-- Node7 -->
<g id="Node000007" class="node">
<title>Node7</title>
<g id="a_Node000007"><a xlink:href="classJSUPtrList.html" target="_top" xlink:title=" ">
<polygon fill="white" stroke="#666666" points="220.12,-423.5 155.38,-423.5 155.38,-404.25 220.12,-404.25 220.12,-423.5"/>
<text text-anchor="middle" x="187.75" y="-410" font-family="Helvetica,sans-Serif" font-size="10.00">JSUPtrList</text>
</a>
</g>
</g>
<!-- Node7&#45;&gt;Node6 -->
<g id="edge6_Node000006_Node000007" class="edge">
<title>Node7&#45;&gt;Node6</title>
<g id="a_edge6_Node000006_Node000007"><a xlink:title=" ">
<path fill="none" stroke="#63b8ff" d="M180.19,-393.47C179.33,-391.06 178.49,-388.6 177.75,-386.25 168.58,-357.14 160.35,-321.87 156.72,-305.62"/>
<polygon fill="#63b8ff" stroke="#63b8ff" points="176.85,-394.54 183.64,-402.67 183.4,-392.07 176.85,-394.54"/>
</a>
</g>
</g>
<!-- Node8 -->
<g id="Node000008" class="node">
<title>Node8</title>
<g id="a_Node000008"><a xlink:href="classJSUPtrLink.html" target="_top" xlink:title=" ">
<polygon fill="white" stroke="#666666" points="254.25,-344.12 187.25,-344.12 187.25,-324.88 254.25,-324.88 254.25,-344.12"/>
<text text-anchor="middle" x="220.75" y="-330.62" font-family="Helvetica,sans-Serif" font-size="10.00">JSUPtrLink</text>
</a>
</g>
</g>
<!-- Node7&#45;&gt;Node8 -->
<g id="edge8_Node000008_Node000007" class="edge">
<title>Node7&#45;&gt;Node8</title>
<g id="a_edge8_Node000008_Node000007"><a xlink:title=" ">
<path fill="none" stroke="#9a32cd" stroke-dasharray="5,2" d="M182.18,-393.06C180.63,-383.74 180.38,-372.73 184.75,-363.75 188.71,-355.61 196.28,-349.11 203.47,-344.42"/>
<polygon fill="#9a32cd" stroke="#9a32cd" points="178.71,-393.59 184.37,-402.55 185.53,-392.02 178.71,-393.59"/>
</a>
</g>
<text text-anchor="middle" x="198.25" y="-371.12" font-family="Helvetica,sans-Serif" font-size="10.00" fill="grey"> mList</text>
</g>
<!-- Node8&#45;&gt;Node7 -->
<g id="edge7_Node000007_Node000008" class="edge">
<title>Node8&#45;&gt;Node7</title>
<g id="a_edge7_Node000007_Node000008"><a xlink:title=" ">
<path fill="none" stroke="#9a32cd" stroke-dasharray="5,2" d="M221.96,-355.61C221.76,-365.31 220.34,-376.85 215.75,-386.25 212.33,-393.24 206.27,-399.36 200.65,-403.97"/>
<polygon fill="#9a32cd" stroke="#9a32cd" points="225.46,-355.68 221.71,-345.77 218.46,-355.85 225.46,-355.68"/>
</a>
</g>
<text text-anchor="middle" x="238.62" y="-376.75" font-family="Helvetica,sans-Serif" font-size="10.00" fill="grey"> mHead</text>
<text text-anchor="middle" x="238.62" y="-365.5" font-family="Helvetica,sans-Serif" font-size="10.00" fill="grey">mTail</text>
</g>
<!-- Node8&#45;&gt;Node8 -->
<g id="edge9_Node000008_Node000008" class="edge">
<title>Node8&#45;&gt;Node8</title>
<g id="a_edge9_Node000008_Node000008"><a xlink:title=" ">
<path fill="none" stroke="#9a32cd" stroke-dasharray="5,2" d="M265.51,-340.32C269.64,-339.12 272.25,-337.18 272.25,-334.5 272.25,-329.87 264.45,-327.44 254.43,-327.23"/>
<polygon fill="#9a32cd" stroke="#9a32cd" points="265.39,-336.8 255.93,-341.58 266.3,-343.75 265.39,-336.8"/>
</a>
</g>
<text text-anchor="middle" x="287.62" y="-336.25" font-family="Helvetica,sans-Serif" font-size="10.00" fill="grey"> mNext</text>
<text text-anchor="middle" x="287.62" y="-325" font-family="Helvetica,sans-Serif" font-size="10.00" fill="grey">mPrev</text>
</g>
<!-- Node9 -->
<g id="Node000009" class="node">
<title>Node9</title>
<g id="a_Node000009"><a xlink:href="classJSULink.html" target="_top" xlink:title=" ">
<polygon fill="white" stroke="#666666" points="259.12,-268 182.38,-268 182.38,-248.75 259.12,-248.75 259.12,-268"/>
<text text-anchor="middle" x="220.75" y="-254.5" font-family="Helvetica,sans-Serif" font-size="10.00">JSULink&lt; T &gt;</text>
</a>
</g>
</g>
<!-- Node8&#45;&gt;Node9 -->
<g id="edge11_Node000009_Node000008" class="edge">
<title>Node8&#45;&gt;Node9</title>
<g id="a_edge11_Node000009_Node000008"><a xlink:title=" ">
<path fill="none" stroke="#63b8ff" d="M220.75,-313.33C220.75,-298.51 220.75,-279.12 220.75,-268.08"/>
<polygon fill="#63b8ff" stroke="#63b8ff" points="217.25,-312.9 220.75,-322.9 224.25,-312.9 217.25,-312.9"/>
</a>
</g>
</g>
<!-- Node9&#45;&gt;Node5 -->
<g id="edge10_Node000005_Node000009" class="edge">
<title>Node9&#45;&gt;Node5</title>
<g id="a_edge10_Node000005_Node000009"><a xlink:title=" ">
<path fill="none" stroke="#63b8ff" d="M212.81,-237.79C209.21,-228.93 205.15,-218.9 202.32,-211.92"/>
<polygon fill="#63b8ff" stroke="#63b8ff" points="209.55,-239.06 216.55,-247.01 216.03,-236.43 209.55,-239.06"/>
</a>
</g>
</g>
<!-- Node10 -->
<g id="Node000010" class="node">
<title>Node10</title>
<g id="a_Node000010"><a xlink:href="classJ2DAnmTransform.html" target="_top" xlink:title=" ">
<polygon fill="white" stroke="#666666" points="370.62,-211.75 272.88,-211.75 272.88,-192.5 370.62,-192.5 370.62,-211.75"/>
<text text-anchor="middle" x="321.75" y="-198.25" font-family="Helvetica,sans-Serif" font-size="10.00">J2DAnmTransform</text>
</a>
</g>
</g>
<!-- Node10&#45;&gt;Node2 -->
<g id="edge12_Node000002_Node000010" class="edge">
<title>Node10&#45;&gt;Node2</title>
<g id="a_edge12_Node000002_Node000010"><a xlink:title=" ">
<path fill="none" stroke="#9a32cd" stroke-dasharray="5,2" d="M290.66,-186.53C285.34,-183.1 280.18,-179.08 276,-174.5 270.5,-168.46 249.24,-119.34 240.52,-98.89"/>
<polygon fill="#9a32cd" stroke="#9a32cd" points="288.54,-189.35 298.95,-191.32 292.04,-183.29 288.54,-189.35"/>
</a>
</g>
<text text-anchor="middle" x="304.12" y="-148.12" font-family="Helvetica,sans-Serif" font-size="10.00" fill="grey"> mTransform</text>
</g>
<!-- Node11 -->
<g id="Node000011" class="node">
<title>Node11</title>
<g id="a_Node000011"><a xlink:href="structJ2DAnmBase.html" target="_top" xlink:title=" ">
<polygon fill="white" stroke="#666666" points="359.75,-268 283.75,-268 283.75,-248.75 359.75,-248.75 359.75,-268"/>
<text text-anchor="middle" x="321.75" y="-254.5" font-family="Helvetica,sans-Serif" font-size="10.00">J2DAnmBase</text>
</a>
</g>
</g>
<!-- Node11&#45;&gt;Node10 -->
<g id="edge13_Node000010_Node000011" class="edge">
<title>Node11&#45;&gt;Node10</title>
<g id="a_edge13_Node000010_Node000011"><a xlink:title=" ">
<path fill="none" stroke="#63b8ff" d="M321.75,-237.19C321.75,-228.48 321.75,-218.74 321.75,-211.92"/>
<polygon fill="#63b8ff" stroke="#63b8ff" points="318.25,-236.9 321.75,-246.9 325.25,-236.9 318.25,-236.9"/>
</a>
</g>
</g>
<!-- Node12 -->
<g id="Node000012" class="node">
<title>Node12</title>
<g id="a_Node000012"><a xlink:href="classJUTFont.html" target="_top" xlink:title=" ">
<polygon fill="white" stroke="#666666" points="484.88,-98.62 430.62,-98.62 430.62,-79.38 484.88,-79.38 484.88,-98.62"/>
<text text-anchor="middle" x="457.75" y="-85.12" font-family="Helvetica,sans-Serif" font-size="10.00">JUTFont</text>
</a>
</g>
</g>
<!-- Node12&#45;&gt;Node1 -->
<g id="edge14_Node000001_Node000012" class="edge">
<title>Node12&#45;&gt;Node1</title>
<g id="a_edge14_Node000001_Node000012"><a xlink:title=" ">
<path fill="none" stroke="#9a32cd" stroke-dasharray="5,2" d="M435.41,-72.71C412.28,-56.86 376.91,-32.65 357.91,-19.64"/>
<polygon fill="#9a32cd" stroke="#9a32cd" points="433.31,-75.51 443.54,-78.27 437.26,-69.73 433.31,-75.51"/>
</a>
</g>
<text text-anchor="middle" x="413.75" y="-39" font-family="Helvetica,sans-Serif" font-size="10.00" fill="grey"> mFont</text>
</g>
<!-- Node13 -->
<g id="Node000013" class="node">
<title>Node13</title>
<g id="a_Node000013"><a xlink:href="structJUtility_1_1TColor.html" target="_top" xlink:title=" ">
<polygon fill="white" stroke="#666666" points="475.25,-211.75 396.25,-211.75 396.25,-192.5 475.25,-192.5 475.25,-211.75"/>
<text text-anchor="middle" x="435.75" y="-198.25" font-family="Helvetica,sans-Serif" font-size="10.00">JUtility::TColor</text>
</a>
</g>
</g>
<!-- Node13&#45;&gt;Node1 -->
<g id="edge17_Node000001_Node000013" class="edge">
<title>Node13&#45;&gt;Node1</title>
<g id="a_edge17_Node000001_Node000013"><a xlink:title=" ">
<path fill="none" stroke="#9a32cd" stroke-dasharray="5,2" d="M414.7,-184.91C395.32,-168.66 367.61,-141.76 354.25,-111.5 340.39,-80.12 342.13,-38.02 343.75,-19.73"/>
<polygon fill="#9a32cd" stroke="#9a32cd" points="412.29,-187.47 422.27,-191.05 416.7,-182.04 412.29,-187.47"/>
</a>
</g>
<text text-anchor="middle" x="388.5" y="-102" font-family="Helvetica,sans-Serif" font-size="10.00" fill="grey"> mBlackColor</text>
<text text-anchor="middle" x="388.5" y="-90.75" font-family="Helvetica,sans-Serif" font-size="10.00" fill="grey">mCharColor</text>
<text text-anchor="middle" x="388.5" y="-79.5" font-family="Helvetica,sans-Serif" font-size="10.00" fill="grey">mGradientColor</text>
<text text-anchor="middle" x="388.5" y="-68.25" font-family="Helvetica,sans-Serif" font-size="10.00" fill="grey">mWhiteColor</text>
</g>
<!-- Node13&#45;&gt;Node12 -->
<g id="edge15_Node000012_Node000013" class="edge">
<title>Node13&#45;&gt;Node12</title>
<g id="a_edge15_Node000012_Node000013"><a xlink:title=" ">
<path fill="none" stroke="#9a32cd" stroke-dasharray="5,2" d="M439.76,-180.89C444.58,-156.5 452.49,-116.59 455.99,-98.91"/>
<polygon fill="#9a32cd" stroke="#9a32cd" points="436.35,-180.06 437.84,-190.55 443.22,-181.42 436.35,-180.06"/>
</a>
</g>
<text text-anchor="middle" x="467.88" y="-165" font-family="Helvetica,sans-Serif" font-size="10.00" fill="grey"> mColor1</text>
<text text-anchor="middle" x="467.88" y="-153.75" font-family="Helvetica,sans-Serif" font-size="10.00" fill="grey">mColor2</text>
<text text-anchor="middle" x="467.88" y="-142.5" font-family="Helvetica,sans-Serif" font-size="10.00" fill="grey">mColor3</text>
<text text-anchor="middle" x="467.88" y="-131.25" font-family="Helvetica,sans-Serif" font-size="10.00" fill="grey">mColor4</text>
</g>
<!-- Node14 -->
<g id="Node000014" class="node">
<title>Node14</title>
<g id="a_Node000014"><a xlink:href="struct__GXColor.html" target="_top" xlink:title=" ">
<polygon fill="white" stroke="#666666" points="462.12,-268 409.38,-268 409.38,-248.75 462.12,-248.75 462.12,-268"/>
<text text-anchor="middle" x="435.75" y="-254.5" font-family="Helvetica,sans-Serif" font-size="10.00">GXColor</text>
</a>
</g>
</g>
<!-- Node14&#45;&gt;Node13 -->
<g id="edge16_Node000013_Node000014" class="edge">
<title>Node14&#45;&gt;Node13</title>
<g id="a_edge16_Node000013_Node000014"><a xlink:title=" ">
<path fill="none" stroke="#63b8ff" d="M435.75,-237.19C435.75,-228.48 435.75,-218.74 435.75,-211.92"/>
<polygon fill="#63b8ff" stroke="#63b8ff" points="432.25,-236.9 435.75,-246.9 439.25,-236.9 432.25,-236.9"/>
</a>
</g>
</g>
</g>
</svg>
</svg>

<style type='text/css'>
<![CDATA[
[data-mouse-over-selected='false'] { opacity: 0.7; }
[data-mouse-over-selected='true']  { opacity: 1.0; }
]]>
</style>
<script type="application/ecmascript"><![CDATA[
document.addEventListener('DOMContentLoaded', (event) => {
  highlightEdges();
  highlightAdjacentNodes();
});
]]></script>
</svg>
