<?xml version="1.0" encoding="UTF-8" standalone="no"?>
<!DOCTYPE svg PUBLIC "-//W3C//DTD SVG 1.1//EN"
 "http://www.w3.org/Graphics/SVG/1.1/DTD/svg11.dtd">
<!-- Generated by graphviz version 9.0.0 (20230911.1827)
 -->
<!-- Title: dMenu_FmapMap_c Pages: 1 -->
<svg width="165pt" height="359pt"
 viewBox="0.00 0.00 165.00 358.75" xmlns="http://www.w3.org/2000/svg" xmlns:xlink="http://www.w3.org/1999/xlink">
<g id="graph0" class="graph" transform="scale(1 1) rotate(0) translate(4 354.75)">
<title>dMenu_FmapMap_c</title>
<!-- Node1 -->
<g id="Node000001" class="node">
<title>Node1</title>
<g id="a_Node000001"><a xlink:title=" ">
<polygon fill="#999999" stroke="#666666" points="130.75,-19.25 26.25,-19.25 26.25,0 130.75,0 130.75,-19.25"/>
<text text-anchor="middle" x="78.5" y="-5.75" font-family="Helvetica,sans-Serif" font-size="10.00">dMenu_FmapMap_c</text>
</a>
</g>
</g>
<!-- Node2 -->
<g id="Node000002" class="node">
<title>Node2</title>
<g id="a_Node000002"><a xlink:href="classrenderingFmap__c.html" target="_top" xlink:title=" ">
<polygon fill="white" stroke="#666666" points="124,-74.5 33,-74.5 33,-55.25 124,-55.25 124,-74.5"/>
<text text-anchor="middle" x="78.5" y="-61" font-family="Helvetica,sans-Serif" font-size="10.00">renderingFmap_c</text>
</a>
</g>
</g>
<!-- Node2&#45;&gt;Node1 -->
<g id="edge1_Node000001_Node000002" class="edge">
<title>Node2&#45;&gt;Node1</title>
<g id="a_edge1_Node000001_Node000002"><a xlink:title=" ">
<path fill="none" stroke="#63b8ff" d="M78.5,-43.63C78.5,-35.34 78.5,-26.17 78.5,-19.61"/>
<polygon fill="#63b8ff" stroke="#63b8ff" points="75,-43.57 78.5,-53.57 82,-43.57 75,-43.57"/>
</a>
</g>
</g>
<!-- Node3 -->
<g id="Node000003" class="node">
<title>Node3</title>
<g id="a_Node000003"><a xlink:href="structdRenderingFDAmap__c.html" target="_top" xlink:title=" ">
<polygon fill="white" stroke="#666666" points="135.25,-129.75 21.75,-129.75 21.75,-110.5 135.25,-110.5 135.25,-129.75"/>
<text text-anchor="middle" x="78.5" y="-116.25" font-family="Helvetica,sans-Serif" font-size="10.00">dRenderingFDAmap_c</text>
</a>
</g>
</g>
<!-- Node3&#45;&gt;Node2 -->
<g id="edge2_Node000002_Node000003" class="edge">
<title>Node3&#45;&gt;Node2</title>
<g id="a_edge2_Node000002_Node000003"><a xlink:title=" ">
<path fill="none" stroke="#63b8ff" d="M78.5,-98.88C78.5,-90.59 78.5,-81.42 78.5,-74.86"/>
<polygon fill="#63b8ff" stroke="#63b8ff" points="75,-98.82 78.5,-108.82 82,-98.82 75,-98.82"/>
</a>
</g>
</g>
<!-- Node4 -->
<g id="Node000004" class="node">
<title>Node4</title>
<g id="a_Node000004"><a xlink:href="structdRenderingMap__c.html" target="_top" xlink:title=" ">
<polygon fill="white" stroke="#666666" points="125.5,-185 31.5,-185 31.5,-165.75 125.5,-165.75 125.5,-185"/>
<text text-anchor="middle" x="78.5" y="-171.5" font-family="Helvetica,sans-Serif" font-size="10.00">dRenderingMap_c</text>
</a>
</g>
</g>
<!-- Node4&#45;&gt;Node3 -->
<g id="edge3_Node000003_Node000004" class="edge">
<title>Node4&#45;&gt;Node3</title>
<g id="a_edge3_Node000003_Node000004"><a xlink:title=" ">
<path fill="none" stroke="#63b8ff" d="M78.5,-154.13C78.5,-145.84 78.5,-136.67 78.5,-130.11"/>
<polygon fill="#63b8ff" stroke="#63b8ff" points="75,-154.07 78.5,-164.07 82,-154.07 75,-154.07"/>
</a>
</g>
</g>
<!-- Node5 -->
<g id="Node000005" class="node">
<title>Node5</title>
<g id="a_Node000005"><a xlink:href="classdDrawPathWithNormalPattern__c.html" target="_top" xlink:title=" ">
<polygon fill="white" stroke="#666666" points="157,-240.25 0,-240.25 0,-221 157,-221 157,-240.25"/>
<text text-anchor="middle" x="78.5" y="-226.75" font-family="Helvetica,sans-Serif" font-size="10.00">dDrawPathWithNormalPattern_c</text>
</a>
</g>
</g>
<!-- Node5&#45;&gt;Node4 -->
<g id="edge4_Node000004_Node000005" class="edge">
<title>Node5&#45;&gt;Node4</title>
<g id="a_edge4_Node000004_Node000005"><a xlink:title=" ">
<path fill="none" stroke="#63b8ff" d="M78.5,-209.38C78.5,-201.09 78.5,-191.92 78.5,-185.36"/>
<polygon fill="#63b8ff" stroke="#63b8ff" points="75,-209.32 78.5,-219.32 82,-209.32 75,-209.32"/>
</a>
</g>
</g>
<!-- Node6 -->
<g id="Node000006" class="node">
<title>Node6</title>
<g id="a_Node000006"><a xlink:href="structdDrawPath__c.html" target="_top" xlink:title=" ">
<polygon fill="white" stroke="#666666" points="115.75,-295.5 41.25,-295.5 41.25,-276.25 115.75,-276.25 115.75,-295.5"/>
<text text-anchor="middle" x="78.5" y="-282" font-family="Helvetica,sans-Serif" font-size="10.00">dDrawPath_c</text>
</a>
</g>
</g>
<!-- Node6&#45;&gt;Node5 -->
<g id="edge5_Node000005_Node000006" class="edge">
<title>Node6&#45;&gt;Node5</title>
<g id="a_edge5_Node000005_Node000006"><a xlink:title=" ">
<path fill="none" stroke="#63b8ff" d="M78.5,-264.63C78.5,-256.34 78.5,-247.17 78.5,-240.61"/>
<polygon fill="#63b8ff" stroke="#63b8ff" points="75,-264.57 78.5,-274.57 82,-264.57 75,-264.57"/>
</a>
</g>
</g>
<!-- Node7 -->
<g id="Node000007" class="node">
<title>Node7</title>
<g id="a_Node000007"><a xlink:href="classdDlst__base__c.html" target="_top" xlink:title=" ">
<polygon fill="white" stroke="#666666" points="116.12,-350.75 40.88,-350.75 40.88,-331.5 116.12,-331.5 116.12,-350.75"/>
<text text-anchor="middle" x="78.5" y="-337.25" font-family="Helvetica,sans-Serif" font-size="10.00">dDlst_base_c</text>
</a>
</g>
</g>
<!-- Node7&#45;&gt;Node6 -->
<g id="edge6_Node000006_Node000007" class="edge">
<title>Node7&#45;&gt;Node6</title>
<g id="a_edge6_Node000006_Node000007"><a xlink:title=" ">
<path fill="none" stroke="#63b8ff" d="M78.5,-319.88C78.5,-311.59 78.5,-302.42 78.5,-295.86"/>
<polygon fill="#63b8ff" stroke="#63b8ff" points="75,-319.82 78.5,-329.82 82,-319.82 75,-319.82"/>
</a>
</g>
</g>
</g>
</svg>
