<?xml version="1.0" encoding="UTF-8" standalone="no"?>
<!DOCTYPE svg PUBLIC "-//W3C//DTD SVG 1.1//EN"
 "http://www.w3.org/Graphics/SVG/1.1/DTD/svg11.dtd">
<!-- Generated by graphviz version 9.0.0 (20230911.1827)
 -->
<!-- Title: J2DPane Pages: 1 -->
<svg width="379pt" height="339pt"
 viewBox="0.00 0.00 378.62 339.25" xmlns="http://www.w3.org/2000/svg" xmlns:xlink="http://www.w3.org/1999/xlink">
<g id="graph0" class="graph" transform="scale(1 1) rotate(0) translate(4 335.25)">
<title>J2DPane</title>
<!-- Node1 -->
<g id="Node000001" class="node">
<title>Node1</title>
<g id="a_Node000001"><a xlink:title=" ">
<polygon fill="#999999" stroke="#666666" points="226.62,-19.25 170.88,-19.25 170.88,0 226.62,0 226.62,-19.25"/>
<text text-anchor="middle" x="198.75" y="-5.75" font-family="Helvetica,sans-Serif" font-size="10.00">J2DPane</text>
</a>
</g>
</g>
<!-- Node2 -->
<g id="Node000002" class="node">
<title>Node2</title>
<g id="a_Node000002"><a xlink:href="structJGeometry_1_1TBox2.html" target="_top" xlink:title=" ">
<polygon fill="white" stroke="#666666" points="125.5,-119.5 0,-119.5 0,-100.25 125.5,-100.25 125.5,-119.5"/>
<text text-anchor="middle" x="62.75" y="-106" font-family="Helvetica,sans-Serif" font-size="10.00">JGeometry::TBox2&lt; f32 &gt;</text>
</a>
</g>
</g>
<!-- Node2&#45;&gt;Node1 -->
<g id="edge1_Node000001_Node000002" class="edge">
<title>Node2&#45;&gt;Node1</title>
<g id="a_edge1_Node000001_Node000002"><a xlink:title=" ">
<path fill="none" stroke="#9a32cd" stroke-dasharray="5,2" d="M74.31,-90.7C85.37,-74.63 103.42,-51.57 124.25,-37.25 138.17,-27.68 155.91,-21.16 170.59,-16.97"/>
<polygon fill="#9a32cd" stroke="#9a32cd" points="71.53,-88.56 68.92,-98.83 77.36,-92.43 71.53,-88.56"/>
</a>
</g>
<text text-anchor="middle" x="160" y="-72.75" font-family="Helvetica,sans-Serif" font-size="10.00" fill="grey"> mBounds</text>
<text text-anchor="middle" x="160" y="-61.5" font-family="Helvetica,sans-Serif" font-size="10.00" fill="grey">mClipRect</text>
<text text-anchor="middle" x="160" y="-50.25" font-family="Helvetica,sans-Serif" font-size="10.00" fill="grey">mGlobalBounds</text>
<text text-anchor="middle" x="160" y="-39" font-family="Helvetica,sans-Serif" font-size="10.00" fill="grey">static_mBounds</text>
</g>
<!-- Node3 -->
<g id="Node000003" class="node">
<title>Node3</title>
<g id="a_Node000003"><a xlink:href="structJGeometry_1_1TBox.html" target="_top" xlink:title=" ">
<polygon fill="white" stroke="#666666" points="119.12,-175.75 6.38,-175.75 6.38,-156.5 119.12,-156.5 119.12,-175.75"/>
<text text-anchor="middle" x="62.75" y="-162.25" font-family="Helvetica,sans-Serif" font-size="10.00">JGeometry::TBox&lt; T &gt;</text>
</a>
</g>
</g>
<!-- Node3&#45;&gt;Node2 -->
<g id="edge2_Node000002_Node000003" class="edge">
<title>Node3&#45;&gt;Node2</title>
<g id="a_edge2_Node000002_Node000003"><a xlink:title=" ">
<path fill="none" stroke="#63b8ff" d="M62.75,-144.94C62.75,-136.23 62.75,-126.49 62.75,-119.67"/>
<polygon fill="#63b8ff" stroke="#63b8ff" points="59.25,-144.65 62.75,-154.65 66.25,-144.65 59.25,-144.65"/>
</a>
</g>
</g>
<!-- Node4 -->
<g id="Node000004" class="node">
<title>Node4</title>
<g id="a_Node000004"><a xlink:href="classJSUTree.html" target="_top" xlink:title=" ">
<polygon fill="white" stroke="#666666" points="254.38,-119.5 143.12,-119.5 143.12,-100.25 254.38,-100.25 254.38,-119.5"/>
<text text-anchor="middle" x="198.75" y="-106" font-family="Helvetica,sans-Serif" font-size="10.00">JSUTree&lt; J2DPane &gt;</text>
</a>
</g>
</g>
<!-- Node4&#45;&gt;Node1 -->
<g id="edge3_Node000001_Node000004" class="edge">
<title>Node4&#45;&gt;Node1</title>
<g id="a_edge3_Node000001_Node000004"><a xlink:title=" ">
<path fill="none" stroke="#9a32cd" stroke-dasharray="5,2" d="M198.75,-88.57C198.75,-67.42 198.75,-35.23 198.75,-19.67"/>
<polygon fill="#9a32cd" stroke="#9a32cd" points="195.25,-88.29 198.75,-98.29 202.25,-88.29 195.25,-88.29"/>
</a>
</g>
<text text-anchor="middle" x="225" y="-55.88" font-family="Helvetica,sans-Serif" font-size="10.00" fill="grey"> mPaneTree</text>
</g>
<!-- Node5 -->
<g id="Node000005" class="node">
<title>Node5</title>
<g id="a_Node000005"><a xlink:href="classJSUList.html" target="_top" xlink:title=" ">
<polygon fill="white" stroke="#666666" points="192,-213 117.5,-213 117.5,-193.75 192,-193.75 192,-213"/>
<text text-anchor="middle" x="154.75" y="-199.5" font-family="Helvetica,sans-Serif" font-size="10.00">JSUList&lt; T &gt;</text>
</a>
</g>
</g>
<!-- Node5&#45;&gt;Node4 -->
<g id="edge4_Node000004_Node000005" class="edge">
<title>Node5&#45;&gt;Node4</title>
<g id="a_edge4_Node000004_Node000005"><a xlink:title=" ">
<path fill="none" stroke="#63b8ff" d="M162.23,-183C165.56,-174.74 169.65,-165.06 173.75,-156.5 180,-143.47 188.2,-128.9 193.48,-119.81"/>
<polygon fill="#63b8ff" stroke="#63b8ff" points="159.08,-181.46 158.67,-192.05 165.59,-184.03 159.08,-181.46"/>
</a>
</g>
</g>
<!-- Node6 -->
<g id="Node000006" class="node">
<title>Node6</title>
<g id="a_Node000006"><a xlink:href="classJSUPtrList.html" target="_top" xlink:title=" ">
<polygon fill="white" stroke="#666666" points="220.12,-331.25 155.38,-331.25 155.38,-312 220.12,-312 220.12,-331.25"/>
<text text-anchor="middle" x="187.75" y="-317.75" font-family="Helvetica,sans-Serif" font-size="10.00">JSUPtrList</text>
</a>
</g>
</g>
<!-- Node6&#45;&gt;Node5 -->
<g id="edge5_Node000005_Node000006" class="edge">
<title>Node6&#45;&gt;Node5</title>
<g id="a_edge5_Node000005_Node000006"><a xlink:title=" ">
<path fill="none" stroke="#63b8ff" d="M180.19,-301.22C179.33,-298.81 178.49,-296.35 177.75,-294 168.58,-264.89 160.35,-229.62 156.72,-213.37"/>
<polygon fill="#63b8ff" stroke="#63b8ff" points="176.85,-302.29 183.64,-310.42 183.4,-299.82 176.85,-302.29"/>
</a>
</g>
</g>
<!-- Node7 -->
<g id="Node000007" class="node">
<title>Node7</title>
<g id="a_Node000007"><a xlink:href="classJSUPtrLink.html" target="_top" xlink:title=" ">
<polygon fill="white" stroke="#666666" points="254.25,-251.88 187.25,-251.88 187.25,-232.62 254.25,-232.62 254.25,-251.88"/>
<text text-anchor="middle" x="220.75" y="-238.38" font-family="Helvetica,sans-Serif" font-size="10.00">JSUPtrLink</text>
</a>
</g>
</g>
<!-- Node6&#45;&gt;Node7 -->
<g id="edge7_Node000007_Node000006" class="edge">
<title>Node6&#45;&gt;Node7</title>
<g id="a_edge7_Node000007_Node000006"><a xlink:title=" ">
<path fill="none" stroke="#9a32cd" stroke-dasharray="5,2" d="M182.18,-300.81C180.63,-291.49 180.38,-280.48 184.75,-271.5 188.71,-263.36 196.28,-256.86 203.47,-252.17"/>
<polygon fill="#9a32cd" stroke="#9a32cd" points="178.71,-301.34 184.37,-310.3 185.53,-299.77 178.71,-301.34"/>
</a>
</g>
<text text-anchor="middle" x="198.25" y="-278.88" font-family="Helvetica,sans-Serif" font-size="10.00" fill="grey"> mList</text>
</g>
<!-- Node7&#45;&gt;Node6 -->
<g id="edge6_Node000006_Node000007" class="edge">
<title>Node7&#45;&gt;Node6</title>
<g id="a_edge6_Node000006_Node000007"><a xlink:title=" ">
<path fill="none" stroke="#9a32cd" stroke-dasharray="5,2" d="M221.96,-263.36C221.76,-273.06 220.34,-284.6 215.75,-294 212.33,-300.99 206.27,-307.11 200.65,-311.72"/>
<polygon fill="#9a32cd" stroke="#9a32cd" points="225.46,-263.43 221.71,-253.52 218.46,-263.6 225.46,-263.43"/>
</a>
</g>
<text text-anchor="middle" x="238.62" y="-284.5" font-family="Helvetica,sans-Serif" font-size="10.00" fill="grey"> mHead</text>
<text text-anchor="middle" x="238.62" y="-273.25" font-family="Helvetica,sans-Serif" font-size="10.00" fill="grey">mTail</text>
</g>
<!-- Node7&#45;&gt;Node7 -->
<g id="edge8_Node000007_Node000007" class="edge">
<title>Node7&#45;&gt;Node7</title>
<g id="a_edge8_Node000007_Node000007"><a xlink:title=" ">
<path fill="none" stroke="#9a32cd" stroke-dasharray="5,2" d="M265.51,-248.07C269.64,-246.87 272.25,-244.93 272.25,-242.25 272.25,-237.62 264.45,-235.19 254.43,-234.98"/>
<polygon fill="#9a32cd" stroke="#9a32cd" points="265.39,-244.55 255.93,-249.33 266.3,-251.5 265.39,-244.55"/>
</a>
</g>
<text text-anchor="middle" x="287.62" y="-244" font-family="Helvetica,sans-Serif" font-size="10.00" fill="grey"> mNext</text>
<text text-anchor="middle" x="287.62" y="-232.75" font-family="Helvetica,sans-Serif" font-size="10.00" fill="grey">mPrev</text>
</g>
<!-- Node8 -->
<g id="Node000008" class="node">
<title>Node8</title>
<g id="a_Node000008"><a xlink:href="classJSULink.html" target="_top" xlink:title=" ">
<polygon fill="white" stroke="#666666" points="259.12,-175.75 182.38,-175.75 182.38,-156.5 259.12,-156.5 259.12,-175.75"/>
<text text-anchor="middle" x="220.75" y="-162.25" font-family="Helvetica,sans-Serif" font-size="10.00">JSULink&lt; T &gt;</text>
</a>
</g>
</g>
<!-- Node7&#45;&gt;Node8 -->
<g id="edge10_Node000008_Node000007" class="edge">
<title>Node7&#45;&gt;Node8</title>
<g id="a_edge10_Node000008_Node000007"><a xlink:title=" ">
<path fill="none" stroke="#63b8ff" d="M220.75,-221.08C220.75,-206.26 220.75,-186.87 220.75,-175.83"/>
<polygon fill="#63b8ff" stroke="#63b8ff" points="217.25,-220.65 220.75,-230.65 224.25,-220.65 217.25,-220.65"/>
</a>
</g>
</g>
<!-- Node8&#45;&gt;Node4 -->
<g id="edge9_Node000004_Node000008" class="edge">
<title>Node8&#45;&gt;Node4</title>
<g id="a_edge9_Node000004_Node000008"><a xlink:title=" ">
<path fill="none" stroke="#63b8ff" d="M212.81,-145.54C209.21,-136.68 205.15,-126.65 202.32,-119.67"/>
<polygon fill="#63b8ff" stroke="#63b8ff" points="209.55,-146.81 216.55,-154.76 216.03,-144.18 209.55,-146.81"/>
</a>
</g>
</g>
<!-- Node9 -->
<g id="Node000009" class="node">
<title>Node9</title>
<g id="a_Node000009"><a xlink:href="classJ2DAnmTransform.html" target="_top" xlink:title=" ">
<polygon fill="white" stroke="#666666" points="370.62,-119.5 272.88,-119.5 272.88,-100.25 370.62,-100.25 370.62,-119.5"/>
<text text-anchor="middle" x="321.75" y="-106" font-family="Helvetica,sans-Serif" font-size="10.00">J2DAnmTransform</text>
</a>
</g>
</g>
<!-- Node9&#45;&gt;Node1 -->
<g id="edge11_Node000001_Node000009" class="edge">
<title>Node9&#45;&gt;Node1</title>
<g id="a_edge11_Node000001_Node000009"><a xlink:title=" ">
<path fill="none" stroke="#9a32cd" stroke-dasharray="5,2" d="M308.41,-91.2C295.87,-75.51 275.92,-52.73 254.75,-37.25 245.02,-30.13 233.08,-24.15 222.73,-19.67"/>
<polygon fill="#9a32cd" stroke="#9a32cd" points="305.36,-92.99 314.27,-98.74 310.89,-88.69 305.36,-92.99"/>
</a>
</g>
<text text-anchor="middle" x="328.12" y="-55.88" font-family="Helvetica,sans-Serif" font-size="10.00" fill="grey"> mTransform</text>
</g>
<!-- Node10 -->
<g id="Node000010" class="node">
<title>Node10</title>
<g id="a_Node000010"><a xlink:href="structJ2DAnmBase.html" target="_top" xlink:title=" ">
<polygon fill="white" stroke="#666666" points="359.75,-175.75 283.75,-175.75 283.75,-156.5 359.75,-156.5 359.75,-175.75"/>
<text text-anchor="middle" x="321.75" y="-162.25" font-family="Helvetica,sans-Serif" font-size="10.00">J2DAnmBase</text>
</a>
</g>
</g>
<!-- Node10&#45;&gt;Node9 -->
<g id="edge12_Node000009_Node000010" class="edge">
<title>Node10&#45;&gt;Node9</title>
<g id="a_edge12_Node000009_Node000010"><a xlink:title=" ">
<path fill="none" stroke="#63b8ff" d="M321.75,-144.94C321.75,-136.23 321.75,-126.49 321.75,-119.67"/>
<polygon fill="#63b8ff" stroke="#63b8ff" points="318.25,-144.65 321.75,-154.65 325.25,-144.65 318.25,-144.65"/>
</a>
</g>
</g>
</g>
</svg>
