<?xml version="1.0" encoding="UTF-8" standalone="no"?>
<!DOCTYPE svg PUBLIC "-//W3C//DTD SVG 1.1//EN"
 "http://www.w3.org/Graphics/SVG/1.1/DTD/svg11.dtd">
<!-- Generated by graphviz version 9.0.0 (20230911.1827)
 -->
<!-- Title: mDoExt_cubePacket Pages: 1 -->
<svg width="446pt" height="232pt"
 viewBox="0.00 0.00 446.00 232.00" xmlns="http://www.w3.org/2000/svg" xmlns:xlink="http://www.w3.org/1999/xlink">
<g id="graph0" class="graph" transform="scale(1 1) rotate(0) translate(4 228)">
<title>mDoExt_cubePacket</title>
<!-- Node1 -->
<g id="Node000001" class="node">
<title>Node1</title>
<g id="a_Node000001"><a xlink:title=" ">
<polygon fill="#999999" stroke="#666666" points="295.38,-19.25 188.62,-19.25 188.62,0 295.38,0 295.38,-19.25"/>
<text text-anchor="middle" x="242" y="-5.75" font-family="Helvetica,sans-Serif" font-size="10.00">mDoExt_cubePacket</text>
</a>
</g>
</g>
<!-- Node2 -->
<g id="Node000002" class="node">
<title>Node2</title>
<g id="a_Node000002"><a xlink:href="classJ3DPacket.html" target="_top" xlink:title=" ">
<polygon fill="white" stroke="#666666" points="64,-132.38 0,-132.38 0,-113.12 64,-113.12 64,-132.38"/>
<text text-anchor="middle" x="32" y="-118.88" font-family="Helvetica,sans-Serif" font-size="10.00">J3DPacket</text>
</a>
</g>
</g>
<!-- Node2&#45;&gt;Node1 -->
<g id="edge1_Node000001_Node000002" class="edge">
<title>Node2&#45;&gt;Node1</title>
<g id="a_edge1_Node000001_Node000002"><a xlink:title=" ">
<path fill="none" stroke="#63b8ff" d="M59.15,-107.38C103.07,-84.14 188.45,-38.96 224.87,-19.69"/>
<polygon fill="#63b8ff" stroke="#63b8ff" points="57.72,-104.18 50.52,-111.95 61,-110.36 57.72,-104.18"/>
</a>
</g>
</g>
<!-- Node2&#45;&gt;Node2 -->
<g id="edge2_Node000002_Node000002" class="edge">
<title>Node2&#45;&gt;Node2</title>
<g id="a_edge2_Node000002_Node000002"><a xlink:title=" ">
<path fill="none" stroke="#9a32cd" stroke-dasharray="5,2" d="M61.55,-134.62C72.75,-135.07 82,-131.11 82,-122.75 82,-111.71 65.88,-108.35 50.46,-112.66"/>
<polygon fill="#9a32cd" stroke="#9a32cd" points="62.38,-131.21 51.96,-133.08 61.27,-138.12 62.38,-131.21"/>
</a>
</g>
<text text-anchor="middle" x="114.25" y="-124.5" font-family="Helvetica,sans-Serif" font-size="10.00" fill="grey"> mpFirstChild</text>
<text text-anchor="middle" x="114.25" y="-113.25" font-family="Helvetica,sans-Serif" font-size="10.00" fill="grey">mpNextPacket</text>
</g>
<!-- Node3 -->
<g id="Node000003" class="node">
<title>Node3</title>
<g id="a_Node000003"><a xlink:href="structcXyz.html" target="_top" xlink:title=" ">
<polygon fill="white" stroke="#666666" points="201.5,-132.38 164.5,-132.38 164.5,-113.12 201.5,-113.12 201.5,-132.38"/>
<text text-anchor="middle" x="183" y="-118.88" font-family="Helvetica,sans-Serif" font-size="10.00">cXyz</text>
</a>
</g>
</g>
<!-- Node3&#45;&gt;Node1 -->
<g id="edge3_Node000001_Node000003" class="edge">
<title>Node3&#45;&gt;Node1</title>
<g id="a_edge3_Node000001_Node000003"><a xlink:title=" ">
<path fill="none" stroke="#9a32cd" stroke-dasharray="5,2" d="M185.84,-101.68C189.15,-83.6 195.96,-56.9 209.25,-37.25 213.93,-30.33 220.94,-24.29 227.27,-19.73"/>
<polygon fill="#9a32cd" stroke="#9a32cd" points="182.41,-100.95 184.28,-111.38 189.32,-102.06 182.41,-100.95"/>
</a>
</g>
<text text-anchor="middle" x="232.88" y="-50.25" font-family="Helvetica,sans-Serif" font-size="10.00" fill="grey"> mPosition</text>
<text text-anchor="middle" x="232.88" y="-39" font-family="Helvetica,sans-Serif" font-size="10.00" fill="grey">mSize</text>
</g>
<!-- Node3&#45;&gt;Node3 -->
<g id="edge5_Node000003_Node000003" class="edge">
<title>Node3&#45;&gt;Node3</title>
<g id="a_edge5_Node000003_Node000003"><a xlink:title=" ">
<path fill="none" stroke="#9a32cd" stroke-dasharray="5,2" d="M207.77,-134.57C214.43,-133.93 219.5,-129.99 219.5,-122.75 219.5,-111.71 207.74,-108.35 196.48,-112.66"/>
<polygon fill="#9a32cd" stroke="#9a32cd" points="208.39,-131.12 197.97,-133.07 207.33,-138.04 208.39,-131.12"/>
</a>
</g>
<text text-anchor="middle" x="240.5" y="-158.25" font-family="Helvetica,sans-Serif" font-size="10.00" fill="grey"> BaseX</text>
<text text-anchor="middle" x="240.5" y="-147" font-family="Helvetica,sans-Serif" font-size="10.00" fill="grey">BaseXY</text>
<text text-anchor="middle" x="240.5" y="-135.75" font-family="Helvetica,sans-Serif" font-size="10.00" fill="grey">BaseXYZ</text>
<text text-anchor="middle" x="240.5" y="-124.5" font-family="Helvetica,sans-Serif" font-size="10.00" fill="grey">BaseXZ</text>
<text text-anchor="middle" x="240.5" y="-113.25" font-family="Helvetica,sans-Serif" font-size="10.00" fill="grey">BaseY</text>
<text text-anchor="middle" x="240.5" y="-102" font-family="Helvetica,sans-Serif" font-size="10.00" fill="grey">BaseYZ</text>
<text text-anchor="middle" x="240.5" y="-90.75" font-family="Helvetica,sans-Serif" font-size="10.00" fill="grey">BaseZ</text>
<text text-anchor="middle" x="240.5" y="-79.5" font-family="Helvetica,sans-Serif" font-size="10.00" fill="grey">Zero</text>
</g>
<!-- Node4 -->
<g id="Node000004" class="node">
<title>Node4</title>
<g id="a_Node000004"><a xlink:href="structVec.html" target="_top" xlink:title=" ">
<polygon fill="white" stroke="#666666" points="199.62,-224 166.38,-224 166.38,-204.75 199.62,-204.75 199.62,-224"/>
<text text-anchor="middle" x="183" y="-210.5" font-family="Helvetica,sans-Serif" font-size="10.00">Vec</text>
</a>
</g>
</g>
<!-- Node4&#45;&gt;Node3 -->
<g id="edge4_Node000003_Node000004" class="edge">
<title>Node4&#45;&gt;Node3</title>
<g id="a_edge4_Node000003_Node000004"><a xlink:title=" ">
<path fill="none" stroke="#63b8ff" d="M183,-193.19C183,-174.19 183,-146.64 183,-132.64"/>
<polygon fill="#63b8ff" stroke="#63b8ff" points="179.5,-192.94 183,-202.94 186.5,-192.94 179.5,-192.94"/>
</a>
</g>
</g>
<!-- Node5 -->
<g id="Node000005" class="node">
<title>Node5</title>
<g id="a_Node000005"><a xlink:href="structcsXyz.html" target="_top" xlink:title=" ">
<polygon fill="white" stroke="#666666" points="322.12,-132.38 279.88,-132.38 279.88,-113.12 322.12,-113.12 322.12,-132.38"/>
<text text-anchor="middle" x="301" y="-118.88" font-family="Helvetica,sans-Serif" font-size="10.00">csXyz</text>
</a>
</g>
</g>
<!-- Node5&#45;&gt;Node1 -->
<g id="edge6_Node000001_Node000005" class="edge">
<title>Node5&#45;&gt;Node1</title>
<g id="a_edge6_Node000001_Node000005"><a xlink:title=" ">
<path fill="none" stroke="#9a32cd" stroke-dasharray="5,2" d="M290.79,-102.51C277.89,-78.23 256.25,-37.46 246.73,-19.53"/>
<polygon fill="#9a32cd" stroke="#9a32cd" points="287.68,-104.13 295.46,-111.32 293.86,-100.85 287.68,-104.13"/>
</a>
</g>
<text text-anchor="middle" x="284.62" y="-44.62" font-family="Helvetica,sans-Serif" font-size="10.00" fill="grey"> mAngle</text>
</g>
<!-- Node5&#45;&gt;Node5 -->
<g id="edge8_Node000005_Node000005" class="edge">
<title>Node5&#45;&gt;Node5</title>
<g id="a_edge8_Node000005_Node000005"><a xlink:title=" ">
<path fill="none" stroke="#9a32cd" stroke-dasharray="5,2" d="M326.78,-134.62C334.3,-134.21 340.12,-130.25 340.12,-122.75 340.12,-111.71 327.51,-108.35 315.45,-112.66"/>
<polygon fill="#9a32cd" stroke="#9a32cd" points="327.36,-131.17 316.94,-133.07 326.28,-138.08 327.36,-131.17"/>
</a>
</g>
<text text-anchor="middle" x="351" y="-118.88" font-family="Helvetica,sans-Serif" font-size="10.00" fill="grey"> Zero</text>
</g>
<!-- Node6 -->
<g id="Node000006" class="node">
<title>Node6</title>
<g id="a_Node000006"><a xlink:href="structSVec.html" target="_top" xlink:title=" ">
<polygon fill="white" stroke="#666666" points="321,-224 281,-224 281,-204.75 321,-204.75 321,-224"/>
<text text-anchor="middle" x="301" y="-210.5" font-family="Helvetica,sans-Serif" font-size="10.00">SVec</text>
</a>
</g>
</g>
<!-- Node6&#45;&gt;Node5 -->
<g id="edge7_Node000005_Node000006" class="edge">
<title>Node6&#45;&gt;Node5</title>
<g id="a_edge7_Node000005_Node000006"><a xlink:title=" ">
<path fill="none" stroke="#63b8ff" d="M301,-193.19C301,-174.19 301,-146.64 301,-132.64"/>
<polygon fill="#63b8ff" stroke="#63b8ff" points="297.5,-192.94 301,-202.94 304.5,-192.94 297.5,-192.94"/>
</a>
</g>
</g>
<!-- Node7 -->
<g id="Node000007" class="node">
<title>Node7</title>
<g id="a_Node000007"><a xlink:href="struct__GXColor.html" target="_top" xlink:title=" ">
<polygon fill="white" stroke="#666666" points="438,-132.38 380,-132.38 380,-113.12 438,-113.12 438,-132.38"/>
<text text-anchor="middle" x="409" y="-118.88" font-family="Helvetica,sans-Serif" font-size="10.00">_GXColor</text>
</a>
</g>
</g>
<!-- Node7&#45;&gt;Node1 -->
<g id="edge9_Node000001_Node000007" class="edge">
<title>Node7&#45;&gt;Node1</title>
<g id="a_edge9_Node000001_Node000007"><a xlink:title=" ">
<path fill="none" stroke="#9a32cd" stroke-dasharray="5,2" d="M395.64,-103.9C388.81,-95.43 380.04,-85.49 371,-77.75 339.16,-50.5 294.37,-30.37 266.81,-19.58"/>
<polygon fill="#9a32cd" stroke="#9a32cd" points="392.85,-106.01 401.75,-111.76 398.38,-101.72 392.85,-106.01"/>
</a>
</g>
<text text-anchor="middle" x="361.5" y="-44.62" font-family="Helvetica,sans-Serif" font-size="10.00" fill="grey"> mColor</text>
</g>
</g>
</svg>
