<?xml version="1.0" encoding="UTF-8" standalone="no"?>
<!DOCTYPE svg PUBLIC "-//W3C//DTD SVG 1.1//EN"
 "http://www.w3.org/Graphics/SVG/1.1/DTD/svg11.dtd">
<!-- Generated by graphviz version 9.0.0 (20230911.1827)
 -->
<!-- Title: src/dolphin Pages: 1 -->
<!--zoomable 95 -->

<svg id="main" version="1.1" xmlns="http://www.w3.org/2000/svg" xmlns:xlink="http://www.w3.org/1999/xlink" xml:space="preserve" onload="init(evt)">
<style type="text/css"><![CDATA[
.node, .edge {opacity: 0.7;}
.node.selected, .edge.selected {opacity: 1;}
.edge:hover path { stroke: red; }
.edge:hover polygon { stroke: red; fill: red; }
]]></style>

<defs>
  <circle id="rim" cx="0" cy="0" r="7"/>
  <circle id="rim2" cx="0" cy="0" r="3.5"/>
  <g id="zoomPlus">
    <use xlink:href="#rim" fill="#404040"><set attributeName="fill" to="#808080" begin="zoomplus.mouseover" end="zoomplus.mouseout"/></use>
    <path d="M-4,0h8M0,-4v8" fill="none" stroke="white" stroke-width="1.5" pointer-events="none"/>
  </g>
  <g id="zoomMin">
    <use xlink:href="#rim" fill="#404040"><set attributeName="fill" to="#808080" begin="zoomminus.mouseover" end="zoomminus.mouseout"/></use>
    <path d="M-4,0h8" fill="none" stroke="white" stroke-width="1.5" pointer-events="none"/>
  </g>
  <g id="arrowUp" transform="translate(30 24)">
    <use xlink:href="#rim"/>
    <path pointer-events="none" fill="none" stroke="white" stroke-width="1.5" d="M0,-3.0v7 M-2.5,-0.5L0,-3.0L2.5,-0.5"/>
  </g>
  <g id="arrowRight" transform="rotate(90) translate(36 -43)">
    <use xlink:href="#rim"/>
    <path pointer-events="none" fill="none" stroke="white" stroke-width="1.5" d="M0,-3.0v7 M-2.5,-0.5L0,-3.0L2.5,-0.5"/>
  </g>
  <g id="arrowDown" transform="rotate(180) translate(-30 -48)">
    <use xlink:href="#rim"/>
    <path pointer-events="none" fill="none" stroke="white" stroke-width="1.5" d="M0,-3.0v7 M-2.5,-0.5L0,-3.0L2.5,-0.5"/>
  </g>
  <g id="arrowLeft" transform="rotate(270) translate(-36 17)">
    <use xlink:href="#rim"/>
    <path pointer-events="none" fill="none" stroke="white" stroke-width="1.5" d="M0,-3.0v7 M-2.5,-0.5L0,-3.0L2.5,-0.5"/>
  </g>
  <g id="resetDef">
    <use xlink:href="#rim2" fill="#404040"><set attributeName="fill" to="#808080" begin="reset.mouseover" end="reset.mouseout"/></use>
  </g>
</defs>
<script type="application/ecmascript">
var viewWidth = 877;
var viewHeight = 95;
var sectionId = 'dynsection-0';
</script>
<script type="application/ecmascript" xlink:href="svg.min.js"/>
<svg id="graph" class="graph">
<g id="viewport">
<title>src/dolphin</title>
<g id="clust1" class="cluster">
<title>clusterdir_68267d1309a1af8e8297ef4c3efbcdba</title>
<g id="a_clust1"><a xlink:href="dir_68267d1309a1af8e8297ef4c3efbcdba.html" target="_top" xlink:title="src">
<polygon fill="#edf0f7" stroke="#404040" stroke-dasharray="5,2" points="8,-8 8,-78.5 861,-78.5 861,-8 8,-8"/>
<text text-anchor="middle" x="434.5" y="-65" font-family="Helvetica,sans-Serif" font-size="10.00">src</text>
</a>
</g>
</g>
<g id="clust2" class="cluster">
<title>clusterdir_cc591b5d416c28db9940e46f13aceec4</title>
<g id="a_clust2"><a xlink:href="dir_cc591b5d416c28db9940e46f13aceec4.html" target="_top">
<polygon fill="#edf0f7" stroke="#404040" stroke-width="2" points="16,-16 16,-51.25 853,-51.25 853,-16 16,-16"/>
</a>
</g>
</g>
<!-- dir_cc591b5d416c28db9940e46f13aceec4 -->
<g id="node1" class="node">
<title>dir_cc591b5d416c28db9940e46f13aceec4</title>
<text text-anchor="middle" x="822" y="-29.75" font-family="Helvetica,sans-Serif" font-size="10.00">dolphin</text>
</g>
<!-- dir_6ffc8f1e8b8883ab17239fafdf44643c -->
<g id="node2" class="node">
<title>dir_6ffc8f1e8b8883ab17239fafdf44643c</title>
<g id="a_node2"><a xlink:href="dir_6ffc8f1e8b8883ab17239fafdf44643c.html" target="_top" xlink:title="ai">
<polygon fill="#a2b4d6" stroke="#404040" points="780.4,-43.25 751.6,-43.25 751.6,-24 780.4,-24 780.4,-43.25"/>
<text text-anchor="middle" x="766" y="-29.75" font-family="Helvetica,sans-Serif" font-size="10.00">ai</text>
</a>
</g>
</g>
<!-- dir_5f181929ea92ad8dcc5fa7562f53db49 -->
<g id="node3" class="node">
<title>dir_5f181929ea92ad8dcc5fa7562f53db49</title>
<g id="a_node3"><a xlink:href="dir_5f181929ea92ad8dcc5fa7562f53db49.html" target="_top" xlink:title="ar">
<polygon fill="#a2b4d6" stroke="#404040" points="733.4,-43.25 704.6,-43.25 704.6,-24 733.4,-24 733.4,-43.25"/>
<text text-anchor="middle" x="719" y="-29.75" font-family="Helvetica,sans-Serif" font-size="10.00">ar</text>
</a>
</g>
</g>
<!-- dir_efe05a4cde31b26056d5cc4e3a614e50 -->
<g id="node4" class="node">
<title>dir_efe05a4cde31b26056d5cc4e3a614e50</title>
<g id="a_node4"><a xlink:href="dir_efe05a4cde31b26056d5cc4e3a614e50.html" target="_top" xlink:title="base">
<polygon fill="#a2b4d6" stroke="#404040" points="686.5,-43.25 649.5,-43.25 649.5,-24 686.5,-24 686.5,-43.25"/>
<text text-anchor="middle" x="668" y="-29.75" font-family="Helvetica,sans-Serif" font-size="10.00">base</text>
</a>
</g>
</g>
<!-- dir_8d510a8219f855db92f4a111d70f2682 -->
<g id="node5" class="node">
<title>dir_8d510a8219f855db92f4a111d70f2682</title>
<g id="a_node5"><a xlink:href="dir_8d510a8219f855db92f4a111d70f2682.html" target="_top" xlink:title="card">
<polygon fill="#a2b4d6" stroke="#404040" points="631.38,-43.25 596.62,-43.25 596.62,-24 631.38,-24 631.38,-43.25"/>
<text text-anchor="middle" x="614" y="-29.75" font-family="Helvetica,sans-Serif" font-size="10.00">card</text>
</a>
</g>
</g>
<!-- dir_b0ceacc894c86e7b152f0a4fcd065212 -->
<g id="node6" class="node">
<title>dir_b0ceacc894c86e7b152f0a4fcd065212</title>
<g id="a_node6"><a xlink:href="dir_b0ceacc894c86e7b152f0a4fcd065212.html" target="_top" xlink:title="db">
<polygon fill="#a2b4d6" stroke="#404040" points="578.4,-43.25 549.6,-43.25 549.6,-24 578.4,-24 578.4,-43.25"/>
<text text-anchor="middle" x="564" y="-29.75" font-family="Helvetica,sans-Serif" font-size="10.00">db</text>
</a>
</g>
</g>
<!-- dir_4c37b3a0bd14aff295cb331db220d01b -->
<g id="node7" class="node">
<title>dir_4c37b3a0bd14aff295cb331db220d01b</title>
<g id="a_node7"><a xlink:href="dir_4c37b3a0bd14aff295cb331db220d01b.html" target="_top" xlink:title="dsp">
<polygon fill="#a2b4d6" stroke="#404040" points="531.88,-43.25 500.12,-43.25 500.12,-24 531.88,-24 531.88,-43.25"/>
<text text-anchor="middle" x="516" y="-29.75" font-family="Helvetica,sans-Serif" font-size="10.00">dsp</text>
</a>
</g>
</g>
<!-- dir_67a0e634bfd328790b87af9d3a031914 -->
<g id="node8" class="node">
<title>dir_67a0e634bfd328790b87af9d3a031914</title>
<g id="a_node8"><a xlink:href="dir_67a0e634bfd328790b87af9d3a031914.html" target="_top" xlink:title="dvd">
<polygon fill="#a2b4d6" stroke="#404040" points="481.88,-43.25 450.12,-43.25 450.12,-24 481.88,-24 481.88,-43.25"/>
<text text-anchor="middle" x="466" y="-29.75" font-family="Helvetica,sans-Serif" font-size="10.00">dvd</text>
</a>
</g>
</g>
<!-- dir_83ff5a72e7f898d24beae7ce1ab3e890 -->
<g id="node9" class="node">
<title>dir_83ff5a72e7f898d24beae7ce1ab3e890</title>
<g id="a_node9"><a xlink:href="dir_83ff5a72e7f898d24beae7ce1ab3e890.html" target="_top" xlink:title="exi">
<polygon fill="#a2b4d6" stroke="#404040" points="432.4,-43.25 403.6,-43.25 403.6,-24 432.4,-24 432.4,-43.25"/>
<text text-anchor="middle" x="418" y="-29.75" font-family="Helvetica,sans-Serif" font-size="10.00">exi</text>
</a>
</g>
</g>
<!-- dir_34134995f1805cd93c3e714641d92aa4 -->
<g id="node10" class="node">
<title>dir_34134995f1805cd93c3e714641d92aa4</title>
<g id="a_node10"><a xlink:href="dir_34134995f1805cd93c3e714641d92aa4.html" target="_top" xlink:title="gd">
<polygon fill="#a2b4d6" stroke="#404040" points="385.4,-43.25 356.6,-43.25 356.6,-24 385.4,-24 385.4,-43.25"/>
<text text-anchor="middle" x="371" y="-29.75" font-family="Helvetica,sans-Serif" font-size="10.00">gd</text>
</a>
</g>
</g>
<!-- dir_c1bf1767aa5bfa49c6e58a6afe0f9b1a -->
<g id="node11" class="node">
<title>dir_c1bf1767aa5bfa49c6e58a6afe0f9b1a</title>
<g id="a_node11"><a xlink:href="dir_c1bf1767aa5bfa49c6e58a6afe0f9b1a.html" target="_top" xlink:title="gf">
<polygon fill="#a2b4d6" stroke="#404040" points="338.4,-43.25 309.6,-43.25 309.6,-24 338.4,-24 338.4,-43.25"/>
<text text-anchor="middle" x="324" y="-29.75" font-family="Helvetica,sans-Serif" font-size="10.00">gf</text>
</a>
</g>
</g>
<!-- dir_4c9d3b3ae1929f75a059e1fed0cea8b0 -->
<g id="node12" class="node">
<title>dir_4c9d3b3ae1929f75a059e1fed0cea8b0</title>
<g id="a_node12"><a xlink:href="dir_4c9d3b3ae1929f75a059e1fed0cea8b0.html" target="_top" xlink:title="gx">
<polygon fill="#a2b4d6" stroke="#404040" points="291.4,-43.25 262.6,-43.25 262.6,-24 291.4,-24 291.4,-43.25"/>
<text text-anchor="middle" x="277" y="-29.75" font-family="Helvetica,sans-Serif" font-size="10.00">gx</text>
</a>
</g>
</g>
<!-- dir_8b703cfd90599bec83bc765e635d7da0 -->
<g id="node13" class="node">
<title>dir_8b703cfd90599bec83bc765e635d7da0</title>
<g id="a_node13"><a xlink:href="dir_8b703cfd90599bec83bc765e635d7da0.html" target="_top" xlink:title="mtx">
<polygon fill="#a2b4d6" stroke="#404040" points="244.88,-43.25 213.12,-43.25 213.12,-24 244.88,-24 244.88,-43.25"/>
<text text-anchor="middle" x="229" y="-29.75" font-family="Helvetica,sans-Serif" font-size="10.00">mtx</text>
</a>
</g>
</g>
<!-- dir_19ef72903be55625151d9169632ebe80 -->
<g id="node14" class="node">
<title>dir_19ef72903be55625151d9169632ebe80</title>
<g id="a_node14"><a xlink:href="dir_19ef72903be55625151d9169632ebe80.html" target="_top" xlink:title="os">
<polygon fill="#a2b4d6" stroke="#404040" points="195.4,-43.25 166.6,-43.25 166.6,-24 195.4,-24 195.4,-43.25"/>
<text text-anchor="middle" x="181" y="-29.75" font-family="Helvetica,sans-Serif" font-size="10.00">os</text>
</a>
</g>
</g>
<!-- dir_635bb6c70f1f315804ef417e6c0bf9bd -->
<g id="node15" class="node">
<title>dir_635bb6c70f1f315804ef417e6c0bf9bd</title>
<g id="a_node15"><a xlink:href="dir_635bb6c70f1f315804ef417e6c0bf9bd.html" target="_top" xlink:title="pad">
<polygon fill="#a2b4d6" stroke="#404040" points="148.88,-43.25 117.12,-43.25 117.12,-24 148.88,-24 148.88,-43.25"/>
<text text-anchor="middle" x="133" y="-29.75" font-family="Helvetica,sans-Serif" font-size="10.00">pad</text>
</a>
</g>
</g>
<!-- dir_6ed7b5389deb0db2cc99bc7b29732c87 -->
<g id="node16" class="node">
<title>dir_6ed7b5389deb0db2cc99bc7b29732c87</title>
<g id="a_node16"><a xlink:href="dir_6ed7b5389deb0db2cc99bc7b29732c87.html" target="_top" xlink:title="si">
<polygon fill="#a2b4d6" stroke="#404040" points="99.4,-43.25 70.6,-43.25 70.6,-24 99.4,-24 99.4,-43.25"/>
<text text-anchor="middle" x="85" y="-29.75" font-family="Helvetica,sans-Serif" font-size="10.00">si</text>
</a>
</g>
</g>
<!-- dir_bfd6e57df2dff71c47e58e511704887e -->
<g id="node17" class="node">
<title>dir_bfd6e57df2dff71c47e58e511704887e</title>
<g id="a_node17"><a xlink:href="dir_bfd6e57df2dff71c47e58e511704887e.html" target="_top" xlink:title="vi">
<polygon fill="#a2b4d6" stroke="#404040" points="52.4,-43.25 23.6,-43.25 23.6,-24 52.4,-24 52.4,-43.25"/>
<text text-anchor="middle" x="38" y="-29.75" font-family="Helvetica,sans-Serif" font-size="10.00">vi</text>
</a>
</g>
</g>
</g>
</svg>

<g id="navigator" transform="translate(0 0)" fill="#404254">
  <rect fill="#f2f5e9" fill-opacity="0.5" stroke="#606060" stroke-width=".5" x="0" y="0" width="60" height="60"/>
  <use id="zoomplus" xlink:href="#zoomPlus" x="17" y="9" onmousedown="handleZoom(evt,'in')"/>
  <use id="zoomminus" xlink:href="#zoomMin" x="42" y="9" onmousedown="handleZoom(evt,'out')"/>
  <use id="reset" xlink:href="#resetDef" x="30" y="36" onmousedown="handleReset()"/>
   <use id="arrowup" xlink:href="#arrowUp" x="0" y="0" onmousedown="handlePan(0,-1)"/>
  <use id="arrowright" xlink:href="#arrowRight" x="0" y="0" onmousedown="handlePan(1,0)"/>
  <use id="arrowdown" xlink:href="#arrowDown" x="0" y="0" onmousedown="handlePan(0,1)"/>
  <use id="arrowleft" xlink:href="#arrowLeft" x="0" y="0" onmousedown="handlePan(-1,0)"/>
</g>
<svg viewBox="0 0 15 15" width="100%" height="30px" preserveAspectRatio="xMaxYMin meet">
 <g id="arrow_out" transform="scale(0.3 0.3)">
  <a xlink:href="dir_cc591b5d416c28db9940e46f13aceec4_dep_org.svg" target="_base">
   <rect id="button" ry="5" rx="5" y="6" x="6" height="38" width="38"
        fill="#f2f5e9" fill-opacity="0.5" stroke="#606060" stroke-width="1.0"/>
   <path id="arrow"
     d="M 11.500037,31.436501 C 11.940474,20.09759 22.043105,11.32322 32.158766,21.979434 L 37.068811,17.246167 C 37.068811,17.246167 37.088388,32 37.088388,32 L 22.160133,31.978069 C 22.160133,31.978069 26.997745,27.140456 26.997745,27.140456 C 18.528582,18.264221 13.291696,25.230495 11.500037,31.436501 z"
     style="fill:#404040;"/>
  </a>
 </g>
</svg>

<style type='text/css'>
<![CDATA[
[data-mouse-over-selected='false'] { opacity: 0.7; }
[data-mouse-over-selected='true']  { opacity: 1.0; }
]]>
</style>
<script type="application/ecmascript"><![CDATA[
document.addEventListener('DOMContentLoaded', (event) => {
  highlightEdges();
  highlightAdjacentNodes();
});
]]></script>
</svg>
