<?xml version="1.0" encoding="UTF-8" standalone="no"?>
<!DOCTYPE svg PUBLIC "-//W3C//DTD SVG 1.1//EN"
 "http://www.w3.org/Graphics/SVG/1.1/DTD/svg11.dtd">
<!-- Generated by graphviz version 9.0.0 (20230911.1827)
 -->
<!-- Title: src/JSystem Pages: 1 -->
<!--zoomable 95 -->

<svg id="main" version="1.1" xmlns="http://www.w3.org/2000/svg" xmlns:xlink="http://www.w3.org/1999/xlink" xml:space="preserve" onload="init(evt)">
<style type="text/css"><![CDATA[
.node, .edge {opacity: 0.7;}
.node.selected, .edge.selected {opacity: 1;}
.edge:hover path { stroke: red; }
.edge:hover polygon { stroke: red; fill: red; }
]]></style>

<defs>
  <circle id="rim" cx="0" cy="0" r="7"/>
  <circle id="rim2" cx="0" cy="0" r="3.5"/>
  <g id="zoomPlus">
    <use xlink:href="#rim" fill="#404040"><set attributeName="fill" to="#808080" begin="zoomplus.mouseover" end="zoomplus.mouseout"/></use>
    <path d="M-4,0h8M0,-4v8" fill="none" stroke="white" stroke-width="1.5" pointer-events="none"/>
  </g>
  <g id="zoomMin">
    <use xlink:href="#rim" fill="#404040"><set attributeName="fill" to="#808080" begin="zoomminus.mouseover" end="zoomminus.mouseout"/></use>
    <path d="M-4,0h8" fill="none" stroke="white" stroke-width="1.5" pointer-events="none"/>
  </g>
  <g id="arrowUp" transform="translate(30 24)">
    <use xlink:href="#rim"/>
    <path pointer-events="none" fill="none" stroke="white" stroke-width="1.5" d="M0,-3.0v7 M-2.5,-0.5L0,-3.0L2.5,-0.5"/>
  </g>
  <g id="arrowRight" transform="rotate(90) translate(36 -43)">
    <use xlink:href="#rim"/>
    <path pointer-events="none" fill="none" stroke="white" stroke-width="1.5" d="M0,-3.0v7 M-2.5,-0.5L0,-3.0L2.5,-0.5"/>
  </g>
  <g id="arrowDown" transform="rotate(180) translate(-30 -48)">
    <use xlink:href="#rim"/>
    <path pointer-events="none" fill="none" stroke="white" stroke-width="1.5" d="M0,-3.0v7 M-2.5,-0.5L0,-3.0L2.5,-0.5"/>
  </g>
  <g id="arrowLeft" transform="rotate(270) translate(-36 17)">
    <use xlink:href="#rim"/>
    <path pointer-events="none" fill="none" stroke="white" stroke-width="1.5" d="M0,-3.0v7 M-2.5,-0.5L0,-3.0L2.5,-0.5"/>
  </g>
  <g id="resetDef">
    <use xlink:href="#rim2" fill="#404040"><set attributeName="fill" to="#808080" begin="reset.mouseover" end="reset.mouseout"/></use>
  </g>
</defs>
<script type="application/ecmascript">
var viewWidth = 1348;
var viewHeight = 95;
var sectionId = 'dynsection-0';
</script>
<script type="application/ecmascript" xlink:href="svg.min.js"/>
<svg id="graph" class="graph">
<g id="viewport">
<title>src/JSystem</title>
<g id="clust1" class="cluster">
<title>clusterdir_68267d1309a1af8e8297ef4c3efbcdba</title>
<g id="a_clust1"><a xlink:href="dir_68267d1309a1af8e8297ef4c3efbcdba.html" target="_top" xlink:title="src">
<polygon fill="#edf0f7" stroke="#404040" stroke-dasharray="5,2" points="8,-8 8,-78.5 1332,-78.5 1332,-8 8,-8"/>
<text text-anchor="middle" x="670" y="-65" font-family="Helvetica,sans-Serif" font-size="10.00">src</text>
</a>
</g>
</g>
<g id="clust2" class="cluster">
<title>clusterdir_35eba77d0268f2ab11e5b8e064493345</title>
<g id="a_clust2"><a xlink:href="dir_35eba77d0268f2ab11e5b8e064493345.html" target="_top">
<polygon fill="#edf0f7" stroke="#404040" stroke-width="2" points="16,-16 16,-51.25 1324,-51.25 1324,-16 16,-16"/>
</a>
</g>
</g>
<!-- dir_35eba77d0268f2ab11e5b8e064493345 -->
<g id="node1" class="node">
<title>dir_35eba77d0268f2ab11e5b8e064493345</title>
<text text-anchor="middle" x="1289" y="-29.75" font-family="Helvetica,sans-Serif" font-size="10.00">JSystem</text>
</g>
<!-- dir_f33caeae05940b53cb39a64c4e7b40ea -->
<g id="node2" class="node">
<title>dir_f33caeae05940b53cb39a64c4e7b40ea</title>
<g id="a_node2"><a xlink:href="dir_f33caeae05940b53cb39a64c4e7b40ea.html" target="_top" xlink:title="J2DGraph">
<polygon fill="#a2b4d6" stroke="#404040" points="1243.75,-43.25 1184.25,-43.25 1184.25,-24 1243.75,-24 1243.75,-43.25"/>
<text text-anchor="middle" x="1214" y="-29.75" font-family="Helvetica,sans-Serif" font-size="10.00">J2DGraph</text>
</a>
</g>
</g>
<!-- dir_16b4099866739df95e2a30a8f8016c81 -->
<g id="node3" class="node">
<title>dir_16b4099866739df95e2a30a8f8016c81</title>
<g id="a_node3"><a xlink:href="dir_16b4099866739df95e2a30a8f8016c81.html" target="_top" xlink:title="J3DGraphAnimator">
<polygon fill="#a2b4d6" stroke="#404040" points="1166.25,-43.25 1067.75,-43.25 1067.75,-24 1166.25,-24 1166.25,-43.25"/>
<text text-anchor="middle" x="1117" y="-29.75" font-family="Helvetica,sans-Serif" font-size="10.00">J3DGraphAnimator</text>
</a>
</g>
</g>
<!-- dir_7dc5218410f831669f54cbc25056c451 -->
<g id="node4" class="node">
<title>dir_7dc5218410f831669f54cbc25056c451</title>
<g id="a_node4"><a xlink:href="dir_7dc5218410f831669f54cbc25056c451.html" target="_top" xlink:title="J3DGraphBase">
<polygon fill="#a2b4d6" stroke="#404040" points="1050,-43.25 968,-43.25 968,-24 1050,-24 1050,-43.25"/>
<text text-anchor="middle" x="1009" y="-29.75" font-family="Helvetica,sans-Serif" font-size="10.00">J3DGraphBase</text>
</a>
</g>
</g>
<!-- dir_4e5e1a08fa05ae72ecb49df0f01bcee4 -->
<g id="node5" class="node">
<title>dir_4e5e1a08fa05ae72ecb49df0f01bcee4</title>
<g id="a_node5"><a xlink:href="dir_4e5e1a08fa05ae72ecb49df0f01bcee4.html" target="_top" xlink:title="J3DGraphLoader">
<polygon fill="#a2b4d6" stroke="#404040" points="949.75,-43.25 860.25,-43.25 860.25,-24 949.75,-24 949.75,-43.25"/>
<text text-anchor="middle" x="905" y="-29.75" font-family="Helvetica,sans-Serif" font-size="10.00">J3DGraphLoader</text>
</a>
</g>
</g>
<!-- dir_00e43db1beee8b36b1e18947c2720929 -->
<g id="node6" class="node">
<title>dir_00e43db1beee8b36b1e18947c2720929</title>
<g id="a_node6"><a xlink:href="dir_00e43db1beee8b36b1e18947c2720929.html" target="_top" xlink:title="J3DU">
<polygon fill="#a2b4d6" stroke="#404040" points="842.38,-43.25 801.62,-43.25 801.62,-24 842.38,-24 842.38,-43.25"/>
<text text-anchor="middle" x="822" y="-29.75" font-family="Helvetica,sans-Serif" font-size="10.00">J3DU</text>
</a>
</g>
</g>
<!-- dir_e0d9598003af373acc0b08242265cb5a -->
<g id="node7" class="node">
<title>dir_e0d9598003af373acc0b08242265cb5a</title>
<g id="a_node7"><a xlink:href="dir_e0d9598003af373acc0b08242265cb5a.html" target="_top" xlink:title="JAudio2">
<polygon fill="#a2b4d6" stroke="#404040" points="783.62,-43.25 732.38,-43.25 732.38,-24 783.62,-24 783.62,-43.25"/>
<text text-anchor="middle" x="758" y="-29.75" font-family="Helvetica,sans-Serif" font-size="10.00">JAudio2</text>
</a>
</g>
</g>
<!-- dir_2d5d20c9d5185641b3508b1715215ecd -->
<g id="node8" class="node">
<title>dir_2d5d20c9d5185641b3508b1715215ecd</title>
<g id="a_node8"><a xlink:href="dir_2d5d20c9d5185641b3508b1715215ecd.html" target="_top" xlink:title="JFramework">
<polygon fill="#a2b4d6" stroke="#404040" points="714,-43.25 644,-43.25 644,-24 714,-24 714,-43.25"/>
<text text-anchor="middle" x="679" y="-29.75" font-family="Helvetica,sans-Serif" font-size="10.00">JFramework</text>
</a>
</g>
</g>
<!-- dir_218497e1b2072d556b472f22d0833522 -->
<g id="node9" class="node">
<title>dir_218497e1b2072d556b472f22d0833522</title>
<g id="a_node9"><a xlink:href="dir_218497e1b2072d556b472f22d0833522.html" target="_top" xlink:title="JGadget">
<polygon fill="#a2b4d6" stroke="#404040" points="626.38,-43.25 573.62,-43.25 573.62,-24 626.38,-24 626.38,-43.25"/>
<text text-anchor="middle" x="600" y="-29.75" font-family="Helvetica,sans-Serif" font-size="10.00">JGadget</text>
</a>
</g>
</g>
<!-- dir_b3dc91fb8c28b44ce734eb6163dc05cc -->
<g id="node10" class="node">
<title>dir_b3dc91fb8c28b44ce734eb6163dc05cc</title>
<g id="a_node10"><a xlink:href="dir_b3dc91fb8c28b44ce734eb6163dc05cc.html" target="_top" xlink:title="JKernel">
<polygon fill="#a2b4d6" stroke="#404040" points="555.5,-43.25 506.5,-43.25 506.5,-24 555.5,-24 555.5,-43.25"/>
<text text-anchor="middle" x="531" y="-29.75" font-family="Helvetica,sans-Serif" font-size="10.00">JKernel</text>
</a>
</g>
</g>
<!-- dir_279435bdabbcbe8fe3cfd0046d6ca813 -->
<g id="node11" class="node">
<title>dir_279435bdabbcbe8fe3cfd0046d6ca813</title>
<g id="a_node11"><a xlink:href="dir_279435bdabbcbe8fe3cfd0046d6ca813.html" target="_top" xlink:title="JMath">
<polygon fill="#a2b4d6" stroke="#404040" points="488.5,-43.25 445.5,-43.25 445.5,-24 488.5,-24 488.5,-43.25"/>
<text text-anchor="middle" x="467" y="-29.75" font-family="Helvetica,sans-Serif" font-size="10.00">JMath</text>
</a>
</g>
</g>
<!-- dir_f85bcb21b02885b43c698113c154ec53 -->
<g id="node12" class="node">
<title>dir_f85bcb21b02885b43c698113c154ec53</title>
<g id="a_node12"><a xlink:href="dir_f85bcb21b02885b43c698113c154ec53.html" target="_top" xlink:title="JMessage">
<polygon fill="#a2b4d6" stroke="#404040" points="427.5,-43.25 366.5,-43.25 366.5,-24 427.5,-24 427.5,-43.25"/>
<text text-anchor="middle" x="397" y="-29.75" font-family="Helvetica,sans-Serif" font-size="10.00">JMessage</text>
</a>
</g>
</g>
<!-- dir_15ca4078860305c703f2f2f1d27e6fb9 -->
<g id="node13" class="node">
<title>dir_15ca4078860305c703f2f2f1d27e6fb9</title>
<g id="a_node13"><a xlink:href="dir_15ca4078860305c703f2f2f1d27e6fb9.html" target="_top" xlink:title="JParticle">
<polygon fill="#a2b4d6" stroke="#404040" points="348.12,-43.25 293.88,-43.25 293.88,-24 348.12,-24 348.12,-43.25"/>
<text text-anchor="middle" x="321" y="-29.75" font-family="Helvetica,sans-Serif" font-size="10.00">JParticle</text>
</a>
</g>
</g>
<!-- dir_a4d5deb30ca7c7f7f828523ec716835b -->
<g id="node14" class="node">
<title>dir_a4d5deb30ca7c7f7f828523ec716835b</title>
<g id="a_node14"><a xlink:href="dir_a4d5deb30ca7c7f7f828523ec716835b.html" target="_top" xlink:title="JStage">
<polygon fill="#a2b4d6" stroke="#404040" points="275.38,-43.25 228.62,-43.25 228.62,-24 275.38,-24 275.38,-43.25"/>
<text text-anchor="middle" x="252" y="-29.75" font-family="Helvetica,sans-Serif" font-size="10.00">JStage</text>
</a>
</g>
</g>
<!-- dir_6caa23cd27309086d702c7d9b849307c -->
<g id="node15" class="node">
<title>dir_6caa23cd27309086d702c7d9b849307c</title>
<g id="a_node15"><a xlink:href="dir_6caa23cd27309086d702c7d9b849307c.html" target="_top" xlink:title="JStudio">
<polygon fill="#a2b4d6" stroke="#404040" points="210.5,-43.25 161.5,-43.25 161.5,-24 210.5,-24 210.5,-43.25"/>
<text text-anchor="middle" x="186" y="-29.75" font-family="Helvetica,sans-Serif" font-size="10.00">JStudio</text>
</a>
</g>
</g>
<!-- dir_5f1deae1bc36697b67cd97e493096056 -->
<g id="node16" class="node">
<title>dir_5f1deae1bc36697b67cd97e493096056</title>
<g id="a_node16"><a xlink:href="dir_5f1deae1bc36697b67cd97e493096056.html" target="_top" xlink:title="JSupport">
<polygon fill="#a2b4d6" stroke="#404040" points="143.5,-43.25 88.5,-43.25 88.5,-24 143.5,-24 143.5,-43.25"/>
<text text-anchor="middle" x="116" y="-29.75" font-family="Helvetica,sans-Serif" font-size="10.00">JSupport</text>
</a>
</g>
</g>
<!-- dir_15a71665105bc27149e322aaedc5a7bb -->
<g id="node17" class="node">
<title>dir_15a71665105bc27149e322aaedc5a7bb</title>
<g id="a_node17"><a xlink:href="dir_15a71665105bc27149e322aaedc5a7bb.html" target="_top" xlink:title="JUtility">
<polygon fill="#a2b4d6" stroke="#404040" points="70,-43.25 24,-43.25 24,-24 70,-24 70,-43.25"/>
<text text-anchor="middle" x="47" y="-29.75" font-family="Helvetica,sans-Serif" font-size="10.00">JUtility</text>
</a>
</g>
</g>
</g>
</svg>

<g id="navigator" transform="translate(0 0)" fill="#404254">
  <rect fill="#f2f5e9" fill-opacity="0.5" stroke="#606060" stroke-width=".5" x="0" y="0" width="60" height="60"/>
  <use id="zoomplus" xlink:href="#zoomPlus" x="17" y="9" onmousedown="handleZoom(evt,'in')"/>
  <use id="zoomminus" xlink:href="#zoomMin" x="42" y="9" onmousedown="handleZoom(evt,'out')"/>
  <use id="reset" xlink:href="#resetDef" x="30" y="36" onmousedown="handleReset()"/>
   <use id="arrowup" xlink:href="#arrowUp" x="0" y="0" onmousedown="handlePan(0,-1)"/>
  <use id="arrowright" xlink:href="#arrowRight" x="0" y="0" onmousedown="handlePan(1,0)"/>
  <use id="arrowdown" xlink:href="#arrowDown" x="0" y="0" onmousedown="handlePan(0,1)"/>
  <use id="arrowleft" xlink:href="#arrowLeft" x="0" y="0" onmousedown="handlePan(-1,0)"/>
</g>
<svg viewBox="0 0 15 15" width="100%" height="30px" preserveAspectRatio="xMaxYMin meet">
 <g id="arrow_out" transform="scale(0.3 0.3)">
  <a xlink:href="dir_35eba77d0268f2ab11e5b8e064493345_dep_org.svg" target="_base">
   <rect id="button" ry="5" rx="5" y="6" x="6" height="38" width="38"
        fill="#f2f5e9" fill-opacity="0.5" stroke="#606060" stroke-width="1.0"/>
   <path id="arrow"
     d="M 11.500037,31.436501 C 11.940474,20.09759 22.043105,11.32322 32.158766,21.979434 L 37.068811,17.246167 C 37.068811,17.246167 37.088388,32 37.088388,32 L 22.160133,31.978069 C 22.160133,31.978069 26.997745,27.140456 26.997745,27.140456 C 18.528582,18.264221 13.291696,25.230495 11.500037,31.436501 z"
     style="fill:#404040;"/>
  </a>
 </g>
</svg>

<style type='text/css'>
<![CDATA[
[data-mouse-over-selected='false'] { opacity: 0.7; }
[data-mouse-over-selected='true']  { opacity: 1.0; }
]]>
</style>
<script type="application/ecmascript"><![CDATA[
document.addEventListener('DOMContentLoaded', (event) => {
  highlightEdges();
  highlightAdjacentNodes();
});
]]></script>
</svg>
