<?xml version="1.0" encoding="UTF-8" standalone="no"?>
<!DOCTYPE svg PUBLIC "-//W3C//DTD SVG 1.1//EN"
 "http://www.w3.org/Graphics/SVG/1.1/DTD/svg11.dtd">
<!-- Generated by graphviz version 9.0.0 (20230911.1827)
 -->
<!-- Title: Graphical Class Hierarchy Pages: 1 -->
<svg width="663pt" height="437pt"
 viewBox="0.00 0.00 663.00 436.50" xmlns="http://www.w3.org/2000/svg" xmlns:xlink="http://www.w3.org/1999/xlink">
<g id="graph0" class="graph" transform="scale(1 1) rotate(0) translate(4 432.5)">
<title>Graphical Class Hierarchy</title>
<!-- Node0 -->
<g id="Node000000" class="node">
<title>Node0</title>
<g id="a_Node000000"><a xlink:href="structJGadget_1_1TNodeLinkList.html" target="_top" xlink:title=" ">
<polygon fill="white" stroke="#666666" points="121.75,-243.88 0,-243.88 0,-224.62 121.75,-224.62 121.75,-243.88"/>
<text text-anchor="middle" x="60.88" y="-230.38" font-family="Helvetica,sans-Serif" font-size="10.00">JGadget::TNodeLinkList</text>
</a>
</g>
</g>
<!-- Node1 -->
<g id="Node000001" class="node">
<title>Node1</title>
<g id="a_Node000001"><a xlink:href="structJGadget_1_1TLinkList.html" target="_top" xlink:title=" ">
<polygon fill="white" stroke="#666666" points="285.88,-428.5 176.12,-428.5 176.12,-398 285.88,-398 285.88,-428.5"/>
<text text-anchor="start" x="184.12" y="-415" font-family="Helvetica,sans-Serif" font-size="10.00">JGadget::TLinkList</text>
<text text-anchor="middle" x="231" y="-403.75" font-family="Helvetica,sans-Serif" font-size="10.00">&lt; JASTrack, &#45;0x240 &gt;</text>
</a>
</g>
</g>
<!-- Node0&#45;&gt;Node1 -->
<g id="edge1345_Node000000_Node000001" class="edge">
<title>Node0&#45;&gt;Node1</title>
<g id="a_edge1345_Node000000_Node000001"><a xlink:title=" ">
<path fill="none" stroke="#63b8ff" d="M69.35,-254.7C82.34,-287.49 112.15,-351.86 157.75,-388.25 163.14,-392.56 169.33,-396.14 175.76,-399.13"/>
<polygon fill="#63b8ff" stroke="#63b8ff" points="72.7,-253.66 65.86,-245.57 66.16,-256.16 72.7,-253.66"/>
</a>
</g>
</g>
<!-- Node3 -->
<g id="Node000003" class="node">
<title>Node3</title>
<g id="a_Node000003"><a xlink:href="structJGadget_1_1TLinkList.html" target="_top" xlink:title=" ">
<polygon fill="white" stroke="#666666" points="280.25,-379.5 181.75,-379.5 181.75,-349 280.25,-349 280.25,-379.5"/>
<text text-anchor="start" x="189.75" y="-366" font-family="Helvetica,sans-Serif" font-size="10.00">JGadget::TLinkList</text>
<text text-anchor="middle" x="231" y="-354.75" font-family="Helvetica,sans-Serif" font-size="10.00">&lt; TResource, I &gt;</text>
</a>
</g>
</g>
<!-- Node0&#45;&gt;Node3 -->
<g id="edge1347_Node000000_Node000003" class="edge">
<title>Node0&#45;&gt;Node3</title>
<g id="a_edge1347_Node000000_Node000003"><a xlink:title=" ">
<path fill="none" stroke="#63b8ff" d="M74.73,-253.37C91.34,-276.72 122.36,-315.97 157.75,-339.25 164.96,-343.99 173.16,-347.94 181.39,-351.19"/>
<polygon fill="#63b8ff" stroke="#63b8ff" points="77.77,-251.62 69.19,-245.4 72.02,-255.61 77.77,-251.62"/>
</a>
</g>
</g>
<!-- Node4 -->
<g id="Node000004" class="node">
<title>Node4</title>
<g id="a_Node000004"><a xlink:href="structJGadget_1_1TLinkList.html" target="_top" xlink:title=" ">
<polygon fill="white" stroke="#666666" points="304.25,-330.5 157.75,-330.5 157.75,-300 304.25,-300 304.25,-330.5"/>
<text text-anchor="start" x="165.75" y="-317" font-family="Helvetica,sans-Serif" font-size="10.00">JGadget::TLinkList</text>
<text text-anchor="middle" x="231" y="-305.75" font-family="Helvetica,sans-Serif" font-size="10.00">&lt; JStudio::TCreateObject, &#45;4 &gt;</text>
</a>
</g>
</g>
<!-- Node0&#45;&gt;Node4 -->
<g id="edge1348_Node000000_Node000004" class="edge">
<title>Node0&#45;&gt;Node4</title>
<g id="a_edge1348_Node000000_Node000004"><a xlink:title=" ">
<path fill="none" stroke="#63b8ff" d="M85.87,-250.49C104.8,-262.82 132.19,-279.57 157.75,-291.25 164.24,-294.22 171.21,-297 178.16,-299.54"/>
<polygon fill="#63b8ff" stroke="#63b8ff" points="87.82,-247.59 77.55,-245 83.96,-253.43 87.82,-247.59"/>
</a>
</g>
</g>
<!-- Node5 -->
<g id="Node000005" class="node">
<title>Node5</title>
<g id="a_Node000005"><a xlink:href="structJGadget_1_1TLinkList.html" target="_top" xlink:title=" ">
<polygon fill="white" stroke="#666666" points="289.62,-282.12 172.38,-282.12 172.38,-240.38 289.62,-240.38 289.62,-282.12"/>
<text text-anchor="start" x="180.38" y="-268.62" font-family="Helvetica,sans-Serif" font-size="10.00">JGadget::TLinkList</text>
<text text-anchor="start" x="180.38" y="-257.38" font-family="Helvetica,sans-Serif" font-size="10.00">&lt; JStudio::ctb::TObject,</text>
<text text-anchor="middle" x="231" y="-246.12" font-family="Helvetica,sans-Serif" font-size="10.00"> &#45;12 &gt;</text>
</a>
</g>
</g>
<!-- Node0&#45;&gt;Node5 -->
<g id="edge1349_Node000000_Node000005" class="edge">
<title>Node0&#45;&gt;Node5</title>
<g id="a_edge1349_Node000000_Node000005"><a xlink:title=" ">
<path fill="none" stroke="#63b8ff" d="M133.28,-245.72C146.16,-247.79 159.44,-249.92 171.89,-251.92"/>
<polygon fill="#63b8ff" stroke="#63b8ff" points="134.02,-242.29 123.59,-244.16 132.91,-249.2 134.02,-242.29"/>
</a>
</g>
</g>
<!-- Node6 -->
<g id="Node000006" class="node">
<title>Node6</title>
<g id="a_Node000006"><a xlink:href="structJGadget_1_1TLinkList.html" target="_top" xlink:title=" ">
<polygon fill="white" stroke="#666666" points="300.12,-222.5 161.88,-222.5 161.88,-192 300.12,-192 300.12,-222.5"/>
<text text-anchor="start" x="169.88" y="-209" font-family="Helvetica,sans-Serif" font-size="10.00">JGadget::TLinkList</text>
<text text-anchor="middle" x="231" y="-197.75" font-family="Helvetica,sans-Serif" font-size="10.00">&lt; JStudio::fvb::TObject, 12 &gt;</text>
</a>
</g>
</g>
<!-- Node0&#45;&gt;Node6 -->
<g id="edge1350_Node000000_Node000006" class="edge">
<title>Node0&#45;&gt;Node6</title>
<g id="a_edge1350_Node000000_Node000006"><a xlink:title=" ">
<path fill="none" stroke="#63b8ff" d="M133.38,-222.77C142.74,-221.26 152.32,-219.73 161.62,-218.23"/>
<polygon fill="#63b8ff" stroke="#63b8ff" points="132.91,-219.3 123.59,-224.34 134.02,-226.21 132.91,-219.3"/>
</a>
</g>
</g>
<!-- Node7 -->
<g id="Node000007" class="node">
<title>Node7</title>
<g id="a_Node000007"><a xlink:href="structJGadget_1_1TLinkList.html" target="_top" xlink:title=" ">
<polygon fill="white" stroke="#666666" points="289.62,-174.12 172.38,-174.12 172.38,-132.38 289.62,-132.38 289.62,-174.12"/>
<text text-anchor="start" x="180.38" y="-160.62" font-family="Helvetica,sans-Serif" font-size="10.00">JGadget::TLinkList</text>
<text text-anchor="start" x="180.38" y="-149.38" font-family="Helvetica,sans-Serif" font-size="10.00">&lt; JStudio::stb::TObject,</text>
<text text-anchor="middle" x="231" y="-138.12" font-family="Helvetica,sans-Serif" font-size="10.00"> &#45;12 &gt;</text>
</a>
</g>
</g>
<!-- Node0&#45;&gt;Node7 -->
<g id="edge1351_Node000000_Node000007" class="edge">
<title>Node0&#45;&gt;Node7</title>
<g id="a_edge1351_Node000000_Node000007"><a xlink:title=" ">
<path fill="none" stroke="#63b8ff" d="M89.67,-218.56C108.62,-208.09 134.41,-194.27 157.75,-183.25 164.01,-180.29 170.65,-177.32 177.26,-174.46"/>
<polygon fill="#63b8ff" stroke="#63b8ff" points="88,-215.49 80.96,-223.41 91.4,-221.6 88,-215.49"/>
</a>
</g>
</g>
<!-- Node8 -->
<g id="Node000008" class="node">
<title>Node8</title>
<g id="a_Node000008"><a xlink:href="structJGadget_1_1TLinkList.html" target="_top" xlink:title=" ">
<polygon fill="white" stroke="#666666" points="298.62,-114.12 163.38,-114.12 163.38,-72.38 298.62,-72.38 298.62,-114.12"/>
<text text-anchor="start" x="171.38" y="-100.62" font-family="Helvetica,sans-Serif" font-size="10.00">JGadget::TLinkList</text>
<text text-anchor="start" x="171.38" y="-89.38" font-family="Helvetica,sans-Serif" font-size="10.00">&lt; JUTConsole, &#45;offsetof</text>
<text text-anchor="middle" x="231" y="-78.12" font-family="Helvetica,sans-Serif" font-size="10.00">(JUTConsole, mListNode)&gt;</text>
</a>
</g>
</g>
<!-- Node0&#45;&gt;Node8 -->
<g id="edge1352_Node000000_Node000008" class="edge">
<title>Node0&#45;&gt;Node8</title>
<g id="a_edge1352_Node000000_Node000008"><a xlink:title=" ">
<path fill="none" stroke="#63b8ff" d="M74.47,-214.73C91.01,-190.43 122.16,-148.98 157.75,-123.25 162.15,-120.07 166.94,-117.15 171.89,-114.48"/>
<polygon fill="#63b8ff" stroke="#63b8ff" points="71.57,-212.76 68.95,-223.03 77.4,-216.63 71.57,-212.76"/>
</a>
</g>
</g>
<!-- Node9 -->
<g id="Node000009" class="node">
<title>Node9</title>
<g id="a_Node000009"><a xlink:href="structJGadget_1_1TLinkList.html" target="_top" xlink:title=" ">
<polygon fill="white" stroke="#666666" points="280.25,-54.5 181.75,-54.5 181.75,-24 280.25,-24 280.25,-54.5"/>
<text text-anchor="start" x="189.75" y="-41" font-family="Helvetica,sans-Serif" font-size="10.00">JGadget::TLinkList</text>
<text text-anchor="middle" x="231" y="-29.75" font-family="Helvetica,sans-Serif" font-size="10.00">&lt; T, I &gt;</text>
</a>
</g>
</g>
<!-- Node0&#45;&gt;Node9 -->
<g id="edge1353_Node000000_Node000009" class="edge">
<title>Node0&#45;&gt;Node9</title>
<g id="a_edge1353_Node000000_Node000009"><a xlink:title=" ">
<path fill="none" stroke="#63b8ff" d="M67.99,-213.51C79.61,-177.7 108.22,-104.15 157.75,-63.25 164.68,-57.53 173.03,-53.15 181.55,-49.81"/>
<polygon fill="#63b8ff" stroke="#63b8ff" points="64.66,-212.46 65.04,-223.05 71.34,-214.53 64.66,-212.46"/>
</a>
</g>
</g>
<!-- Node2 -->
<g id="Node000002" class="node">
<title>Node2</title>
<g id="a_Node000002"><a xlink:href="structJASTrack_1_1TList.html" target="_top" xlink:title=" ">
<polygon fill="white" stroke="#666666" points="445.88,-422.88 359.38,-422.88 359.38,-403.62 445.88,-403.62 445.88,-422.88"/>
<text text-anchor="middle" x="402.62" y="-409.38" font-family="Helvetica,sans-Serif" font-size="10.00">JASTrack::TList</text>
</a>
</g>
</g>
<!-- Node1&#45;&gt;Node2 -->
<g id="edge1346_Node000001_Node000002" class="edge">
<title>Node1&#45;&gt;Node2</title>
<g id="a_edge1346_Node000001_Node000002"><a xlink:title=" ">
<path fill="none" stroke="#63b8ff" d="M297.41,-413.25C318.08,-413.25 340.36,-413.25 359,-413.25"/>
<polygon fill="#63b8ff" stroke="#63b8ff" points="297.65,-409.75 287.65,-413.25 297.65,-416.75 297.65,-409.75"/>
</a>
</g>
</g>
<!-- Node10 -->
<g id="Node000010" class="node">
<title>Node10</title>
<g id="a_Node000010"><a xlink:href="structJGadget_1_1TLinkList__factory.html" target="_top" xlink:title=" ">
<polygon fill="white" stroke="#666666" points="465,-79.5 340.25,-79.5 340.25,-49 465,-49 465,-79.5"/>
<text text-anchor="start" x="348.25" y="-66" font-family="Helvetica,sans-Serif" font-size="10.00">JGadget::TLinkList</text>
<text text-anchor="middle" x="402.62" y="-54.75" font-family="Helvetica,sans-Serif" font-size="10.00">_factory&lt; TResource, 0 &gt;</text>
</a>
</g>
</g>
<!-- Node9&#45;&gt;Node10 -->
<g id="edge1354_Node000009_Node000010" class="edge">
<title>Node9&#45;&gt;Node10</title>
<g id="a_edge1354_Node000009_Node000010"><a xlink:title=" ">
<path fill="none" stroke="#63b8ff" d="M291.74,-48.05C307.38,-50.36 324.26,-52.85 340,-55.17"/>
<polygon fill="#63b8ff" stroke="#63b8ff" points="292.51,-44.63 282.11,-46.63 291.49,-51.56 292.51,-44.63"/>
</a>
</g>
</g>
<!-- Node12 -->
<g id="Node000012" class="node">
<title>Node12</title>
<g id="a_Node000012"><a xlink:href="structJGadget_1_1TLinkList__factory.html" target="_top" xlink:title=" ">
<polygon fill="white" stroke="#666666" points="451.88,-30.5 353.38,-30.5 353.38,0 451.88,0 451.88,-30.5"/>
<text text-anchor="start" x="361.38" y="-17" font-family="Helvetica,sans-Serif" font-size="10.00">JGadget::TLinkList</text>
<text text-anchor="middle" x="402.62" y="-5.75" font-family="Helvetica,sans-Serif" font-size="10.00">_factory&lt; T, I &gt;</text>
</a>
</g>
</g>
<!-- Node9&#45;&gt;Node12 -->
<g id="edge1356_Node000009_Node000012" class="edge">
<title>Node9&#45;&gt;Node12</title>
<g id="a_edge1356_Node000009_Node000012"><a xlink:title=" ">
<path fill="none" stroke="#63b8ff" d="M291.81,-30.79C311.85,-27.95 333.93,-24.83 353.01,-22.13"/>
<polygon fill="#63b8ff" stroke="#63b8ff" points="291.52,-27.29 282.11,-32.16 292.5,-34.22 291.52,-27.29"/>
</a>
</g>
</g>
<!-- Node11 -->
<g id="Node000011" class="node">
<title>Node11</title>
<g id="a_Node000011"><a xlink:href="structJMessage_1_1TResourceContainer_1_1TCResource.html" target="_top" xlink:title=" ">
<polygon fill="white" stroke="#666666" points="655,-79.5 501,-79.5 501,-49 655,-49 655,-79.5"/>
<text text-anchor="start" x="509" y="-66" font-family="Helvetica,sans-Serif" font-size="10.00">JMessage::TResourceContainer</text>
<text text-anchor="middle" x="578" y="-54.75" font-family="Helvetica,sans-Serif" font-size="10.00">::TCResource</text>
</a>
</g>
</g>
<!-- Node10&#45;&gt;Node11 -->
<g id="edge1355_Node000010_Node000011" class="edge">
<title>Node10&#45;&gt;Node11</title>
<g id="a_edge1355_Node000010_Node000011"><a xlink:title=" ">
<path fill="none" stroke="#63b8ff" d="M476.72,-64.25C484.65,-64.25 492.74,-64.25 500.71,-64.25"/>
<polygon fill="#63b8ff" stroke="#63b8ff" points="476.75,-60.75 466.75,-64.25 476.75,-67.75 476.75,-60.75"/>
</a>
</g>
</g>
</g>
</svg>
