<?xml version="1.0" encoding="UTF-8" standalone="no"?>
<!DOCTYPE svg PUBLIC "-//W3C//DTD SVG 1.1//EN"
 "http://www.w3.org/Graphics/SVG/1.1/DTD/svg11.dtd">
<!-- Generated by graphviz version 9.0.0 (20230911.1827)
 -->
<!-- Title: Graphical Class Hierarchy Pages: 1 -->
<svg width="769pt" height="487pt"
 viewBox="0.00 0.00 769.00 486.88" xmlns="http://www.w3.org/2000/svg" xmlns:xlink="http://www.w3.org/1999/xlink">
<g id="graph0" class="graph" transform="scale(1 1) rotate(0) translate(4 482.88)">
<title>Graphical Class Hierarchy</title>
<!-- Node0 -->
<g id="Node000000" class="node">
<title>Node0</title>
<g id="a_Node000000"><a xlink:href="structJStudio_1_1object_1_1TIDData.html" target="_top" xlink:title=" ">
<polygon fill="white" stroke="#666666" points="120.25,-282.25 0,-282.25 0,-263 120.25,-263 120.25,-282.25"/>
<text text-anchor="middle" x="60.12" y="-268.75" font-family="Helvetica,sans-Serif" font-size="10.00">JStudio::object::TIDData</text>
</a>
</g>
</g>
<!-- Node1 -->
<g id="Node000001" class="node">
<title>Node1</title>
<g id="a_Node000001"><a xlink:href="structJStudio_1_1object_1_1TObject__ID.html" target="_top" xlink:title=" ">
<polygon fill="white" stroke="#666666" points="290,-304.25 156.25,-304.25 156.25,-285 290,-285 290,-304.25"/>
<text text-anchor="middle" x="223.12" y="-290.75" font-family="Helvetica,sans-Serif" font-size="10.00">JStudio::object::TObject_ID</text>
</a>
</g>
</g>
<!-- Node0&#45;&gt;Node1 -->
<g id="edge1406_Node000000_Node000001" class="edge">
<title>Node0&#45;&gt;Node1</title>
<g id="a_edge1406_Node000000_Node000001"><a xlink:title=" ">
<path fill="none" stroke="#63b8ff" d="M131.79,-282.28C139.78,-283.37 147.9,-284.48 155.83,-285.57"/>
<polygon fill="#63b8ff" stroke="#63b8ff" points="132.5,-278.85 122.12,-280.96 131.55,-285.78 132.5,-278.85"/>
</a>
</g>
</g>
<!-- Node22 -->
<g id="Node000022" class="node">
<title>Node22</title>
<g id="a_Node000022"><a xlink:href="structJStudio_1_1object_1_1TPRObject__ID__equal.html" target="_top" xlink:title=" ">
<polygon fill="white" stroke="#666666" points="289.25,-266.88 157,-266.88 157,-236.38 289.25,-236.38 289.25,-266.88"/>
<text text-anchor="start" x="165" y="-253.38" font-family="Helvetica,sans-Serif" font-size="10.00">JStudio::object::TPRObject</text>
<text text-anchor="middle" x="223.12" y="-242.12" font-family="Helvetica,sans-Serif" font-size="10.00">_ID_equal</text>
</a>
</g>
</g>
<!-- Node0&#45;&gt;Node22 -->
<g id="edge1427_Node000000_Node000022" class="edge">
<title>Node0&#45;&gt;Node22</title>
<g id="a_edge1427_Node000000_Node000022"><a xlink:title=" ">
<path fill="none" stroke="#63b8ff" d="M131.77,-263.41C140.04,-262.33 148.45,-261.23 156.65,-260.17"/>
<polygon fill="#63b8ff" stroke="#63b8ff" points="131.58,-259.91 122.12,-264.67 132.49,-266.85 131.58,-259.91"/>
</a>
</g>
</g>
<!-- Node2 -->
<g id="Node000002" class="node">
<title>Node2</title>
<g id="a_Node000002"><a xlink:href="structJStudio_1_1ctb_1_1TObject.html" target="_top" xlink:title=" ">
<polygon fill="white" stroke="#666666" points="432,-417.25 326,-417.25 326,-398 432,-398 432,-417.25"/>
<text text-anchor="middle" x="379" y="-403.75" font-family="Helvetica,sans-Serif" font-size="10.00">JStudio::ctb::TObject</text>
</a>
</g>
</g>
<!-- Node1&#45;&gt;Node2 -->
<g id="edge1407_Node000001_Node000002" class="edge">
<title>Node1&#45;&gt;Node2</title>
<g id="a_edge1407_Node000001_Node000002"><a xlink:title=" ">
<path fill="none" stroke="#63b8ff" d="M246.98,-311.41C279.55,-335.33 338.27,-378.45 364.59,-397.78"/>
<polygon fill="#63b8ff" stroke="#63b8ff" points="249.13,-308.65 239,-305.55 244.99,-314.29 249.13,-308.65"/>
</a>
</g>
</g>
<!-- Node4 -->
<g id="Node000004" class="node">
<title>Node4</title>
<g id="a_Node000004"><a xlink:href="classJStudio_1_1fvb_1_1TObject.html" target="_top" xlink:title=" ">
<polygon fill="white" stroke="#666666" points="432,-304.25 326,-304.25 326,-285 432,-285 432,-304.25"/>
<text text-anchor="middle" x="379" y="-290.75" font-family="Helvetica,sans-Serif" font-size="10.00">JStudio::fvb::TObject</text>
</a>
</g>
</g>
<!-- Node1&#45;&gt;Node4 -->
<g id="edge1409_Node000001_Node000004" class="edge">
<title>Node1&#45;&gt;Node4</title>
<g id="a_edge1409_Node000001_Node000004"><a xlink:title=" ">
<path fill="none" stroke="#63b8ff" d="M301.77,-294.62C309.93,-294.62 318.07,-294.62 325.84,-294.62"/>
<polygon fill="#63b8ff" stroke="#63b8ff" points="301.79,-291.13 291.79,-294.63 301.79,-298.13 301.79,-291.13"/>
</a>
</g>
</g>
<!-- Node11 -->
<g id="Node000011" class="node">
<title>Node11</title>
<g id="a_Node000011"><a xlink:href="classJStudio_1_1stb_1_1TObject.html" target="_top" xlink:title=" ">
<polygon fill="white" stroke="#666666" points="432,-148.25 326,-148.25 326,-129 432,-129 432,-148.25"/>
<text text-anchor="middle" x="379" y="-134.75" font-family="Helvetica,sans-Serif" font-size="10.00">JStudio::stb::TObject</text>
</a>
</g>
</g>
<!-- Node1&#45;&gt;Node11 -->
<g id="edge1416_Node000001_Node000011" class="edge">
<title>Node1&#45;&gt;Node11</title>
<g id="a_edge1416_Node000001_Node000011"><a xlink:title=" ">
<path fill="none" stroke="#63b8ff" d="M284.01,-279.57C286.09,-278.35 288.1,-277.04 290,-275.62 336.47,-241 364.95,-173.98 374.45,-148.65"/>
<polygon fill="#63b8ff" stroke="#63b8ff" points="282.63,-276.35 275.19,-283.9 285.71,-282.63 282.63,-276.35"/>
</a>
</g>
</g>
<!-- Node3 -->
<g id="Node000003" class="node">
<title>Node3</title>
<g id="a_Node000003"><a xlink:href="structJStudio_1_1ctb_1_1TObject__TxyzRy.html" target="_top" xlink:title=" ">
<polygon fill="white" stroke="#666666" points="583,-478.88 477,-478.88 477,-448.38 583,-448.38 583,-478.88"/>
<text text-anchor="start" x="485" y="-465.38" font-family="Helvetica,sans-Serif" font-size="10.00">JStudio::ctb::TObject</text>
<text text-anchor="middle" x="530" y="-454.12" font-family="Helvetica,sans-Serif" font-size="10.00">_TxyzRy</text>
</a>
</g>
</g>
<!-- Node2&#45;&gt;Node3 -->
<g id="edge1408_Node000002_Node000003" class="edge">
<title>Node2&#45;&gt;Node3</title>
<g id="a_edge1408_Node000002_Node000003"><a xlink:title=" ">
<path fill="none" stroke="#63b8ff" d="M417.2,-421.6C438.44,-429.59 465.13,-439.62 487.11,-447.88"/>
<polygon fill="#63b8ff" stroke="#63b8ff" points="418.65,-418.41 408.05,-418.17 416.18,-424.96 418.65,-418.41"/>
</a>
</g>
</g>
<!-- Node5 -->
<g id="Node000005" class="node">
<title>Node5</title>
<g id="a_Node000005"><a xlink:href="classJStudio_1_1fvb_1_1TObject__composite.html" target="_top" xlink:title=" ">
<polygon fill="white" stroke="#666666" points="583,-429.88 477,-429.88 477,-399.38 583,-399.38 583,-429.88"/>
<text text-anchor="start" x="485" y="-416.38" font-family="Helvetica,sans-Serif" font-size="10.00">JStudio::fvb::TObject</text>
<text text-anchor="middle" x="530" y="-405.12" font-family="Helvetica,sans-Serif" font-size="10.00">_composite</text>
</a>
</g>
</g>
<!-- Node4&#45;&gt;Node5 -->
<g id="edge1410_Node000004_Node000005" class="edge">
<title>Node4&#45;&gt;Node5</title>
<g id="a_edge1410_Node000004_Node000005"><a xlink:title=" ">
<path fill="none" stroke="#63b8ff" d="M393.65,-313.76C409.48,-334.78 437.36,-368.38 468,-389.62 472.98,-393.08 478.52,-396.18 484.16,-398.92"/>
<polygon fill="#63b8ff" stroke="#63b8ff" points="396.53,-311.77 387.78,-305.78 390.89,-315.91 396.53,-311.77"/>
</a>
</g>
</g>
<!-- Node6 -->
<g id="Node000006" class="node">
<title>Node6</title>
<g id="a_Node000006"><a xlink:href="classJStudio_1_1fvb_1_1TObject__constant.html" target="_top" xlink:title=" ">
<polygon fill="white" stroke="#666666" points="583,-380.88 477,-380.88 477,-350.38 583,-350.38 583,-380.88"/>
<text text-anchor="start" x="485" y="-367.38" font-family="Helvetica,sans-Serif" font-size="10.00">JStudio::fvb::TObject</text>
<text text-anchor="middle" x="530" y="-356.12" font-family="Helvetica,sans-Serif" font-size="10.00">_constant</text>
</a>
</g>
</g>
<!-- Node4&#45;&gt;Node6 -->
<g id="edge1411_Node000004_Node000006" class="edge">
<title>Node4&#45;&gt;Node6</title>
<g id="a_edge1411_Node000004_Node000006"><a xlink:title=" ">
<path fill="none" stroke="#63b8ff" d="M407.87,-310.04C425.01,-319.31 447.55,-331.11 468,-340.62 474.75,-343.76 482,-346.92 489.07,-349.88"/>
<polygon fill="#63b8ff" stroke="#63b8ff" points="409.74,-307.07 399.29,-305.36 406.39,-313.22 409.74,-307.07"/>
</a>
</g>
</g>
<!-- Node7 -->
<g id="Node000007" class="node">
<title>Node7</title>
<g id="a_Node000007"><a xlink:href="structJStudio_1_1fvb_1_1TObject__hermite.html" target="_top" xlink:title=" ">
<polygon fill="white" stroke="#666666" points="583,-331.88 477,-331.88 477,-301.38 583,-301.38 583,-331.88"/>
<text text-anchor="start" x="485" y="-318.38" font-family="Helvetica,sans-Serif" font-size="10.00">JStudio::fvb::TObject</text>
<text text-anchor="middle" x="530" y="-307.12" font-family="Helvetica,sans-Serif" font-size="10.00">_hermite</text>
</a>
</g>
</g>
<!-- Node4&#45;&gt;Node7 -->
<g id="edge1412_Node000004_Node000007" class="edge">
<title>Node4&#45;&gt;Node7</title>
<g id="a_edge1412_Node000004_Node000007"><a xlink:title=" ">
<path fill="none" stroke="#63b8ff" d="M443.48,-304C454.55,-305.63 465.94,-307.31 476.66,-308.9"/>
<polygon fill="#63b8ff" stroke="#63b8ff" points="444.01,-300.54 433.61,-302.54 442.99,-307.46 444.01,-300.54"/>
</a>
</g>
</g>
<!-- Node8 -->
<g id="Node000008" class="node">
<title>Node8</title>
<g id="a_Node000008"><a xlink:href="classJStudio_1_1fvb_1_1TObject__list.html" target="_top" xlink:title=" ">
<polygon fill="white" stroke="#666666" points="592,-283.25 468,-283.25 468,-264 592,-264 592,-283.25"/>
<text text-anchor="middle" x="530" y="-269.75" font-family="Helvetica,sans-Serif" font-size="10.00">JStudio::fvb::TObject_list</text>
</a>
</g>
</g>
<!-- Node4&#45;&gt;Node8 -->
<g id="edge1413_Node000004_Node000008" class="edge">
<title>Node4&#45;&gt;Node8</title>
<g id="a_edge1413_Node000004_Node000008"><a xlink:title=" ">
<path fill="none" stroke="#63b8ff" d="M443.36,-285.69C451.43,-284.56 459.68,-283.4 467.71,-282.26"/>
<polygon fill="#63b8ff" stroke="#63b8ff" points="443.03,-282.21 433.61,-287.07 444,-289.14 443.03,-282.21"/>
</a>
</g>
</g>
<!-- Node9 -->
<g id="Node000009" class="node">
<title>Node9</title>
<g id="a_Node000009"><a xlink:href="classJStudio_1_1fvb_1_1TObject__list__parameter.html" target="_top" xlink:title=" ">
<polygon fill="white" stroke="#666666" points="583,-245.88 477,-245.88 477,-215.38 583,-215.38 583,-245.88"/>
<text text-anchor="start" x="485" y="-232.38" font-family="Helvetica,sans-Serif" font-size="10.00">JStudio::fvb::TObject</text>
<text text-anchor="middle" x="530" y="-221.12" font-family="Helvetica,sans-Serif" font-size="10.00">_list_parameter</text>
</a>
</g>
</g>
<!-- Node4&#45;&gt;Node9 -->
<g id="edge1414_Node000004_Node000009" class="edge">
<title>Node4&#45;&gt;Node9</title>
<g id="a_edge1414_Node000004_Node000009"><a xlink:title=" ">
<path fill="none" stroke="#63b8ff" d="M411.5,-279.83C428.2,-272.11 449.11,-262.63 468,-254.62 474.5,-251.87 481.42,-249.05 488.19,-246.34"/>
<polygon fill="#63b8ff" stroke="#63b8ff" points="410.17,-276.59 402.57,-283.98 413.12,-282.94 410.17,-276.59"/>
</a>
</g>
</g>
<!-- Node10 -->
<g id="Node000010" class="node">
<title>Node10</title>
<g id="a_Node000010"><a xlink:href="classJStudio_1_1fvb_1_1TObject__transition.html" target="_top" xlink:title=" ">
<polygon fill="white" stroke="#666666" points="583,-196.88 477,-196.88 477,-166.38 583,-166.38 583,-196.88"/>
<text text-anchor="start" x="485" y="-183.38" font-family="Helvetica,sans-Serif" font-size="10.00">JStudio::fvb::TObject</text>
<text text-anchor="middle" x="530" y="-172.12" font-family="Helvetica,sans-Serif" font-size="10.00">_transition</text>
</a>
</g>
</g>
<!-- Node4&#45;&gt;Node10 -->
<g id="edge1415_Node000004_Node000010" class="edge">
<title>Node4&#45;&gt;Node10</title>
<g id="a_edge1415_Node000004_Node000010"><a xlink:title=" ">
<path fill="none" stroke="#63b8ff" d="M394.93,-275.78C411.18,-256.31 438.76,-226.08 468,-206.62 473.15,-203.2 478.83,-200.11 484.61,-197.36"/>
<polygon fill="#63b8ff" stroke="#63b8ff" points="392.28,-273.49 388.67,-283.46 397.71,-277.92 392.28,-273.49"/>
</a>
</g>
</g>
<!-- Node12 -->
<g id="Node000012" class="node">
<title>Node12</title>
<g id="a_Node000012"><a xlink:href="classJStudio_1_1TObject.html" target="_top" xlink:title=" ">
<polygon fill="white" stroke="#666666" points="574,-148.25 486,-148.25 486,-129 574,-129 574,-148.25"/>
<text text-anchor="middle" x="530" y="-134.75" font-family="Helvetica,sans-Serif" font-size="10.00">JStudio::TObject</text>
</a>
</g>
</g>
<!-- Node11&#45;&gt;Node12 -->
<g id="edge1417_Node000011_Node000012" class="edge">
<title>Node11&#45;&gt;Node12</title>
<g id="a_edge1417_Node000011_Node000012"><a xlink:title=" ">
<path fill="none" stroke="#63b8ff" d="M443.36,-138.62C457.58,-138.62 472.36,-138.62 485.55,-138.62"/>
<polygon fill="#63b8ff" stroke="#63b8ff" points="443.63,-135.13 433.63,-138.63 443.63,-142.13 443.63,-135.13"/>
</a>
</g>
</g>
<!-- Node21 -->
<g id="Node000021" class="node">
<title>Node21</title>
<g id="a_Node000021"><a xlink:href="classJStudio_1_1stb_1_1TObject__control.html" target="_top" xlink:title=" ">
<polygon fill="white" stroke="#666666" points="583,-110.88 477,-110.88 477,-80.38 583,-80.38 583,-110.88"/>
<text text-anchor="start" x="485" y="-97.38" font-family="Helvetica,sans-Serif" font-size="10.00">JStudio::stb::TObject</text>
<text text-anchor="middle" x="530" y="-86.12" font-family="Helvetica,sans-Serif" font-size="10.00">_control</text>
</a>
</g>
</g>
<!-- Node11&#45;&gt;Node21 -->
<g id="edge1426_Node000011_Node000021" class="edge">
<title>Node11&#45;&gt;Node21</title>
<g id="a_edge1426_Node000011_Node000021"><a xlink:title=" ">
<path fill="none" stroke="#63b8ff" d="M425.72,-125.43C441.86,-120.77 460.13,-115.5 476.76,-110.7"/>
<polygon fill="#63b8ff" stroke="#63b8ff" points="425.03,-121.99 416.39,-128.12 426.97,-128.71 425.03,-121.99"/>
</a>
</g>
</g>
<!-- Node13 -->
<g id="Node000013" class="node">
<title>Node13</title>
<g id="a_Node000013"><a xlink:href="structJStudio_1_1TObject__actor.html" target="_top" xlink:title=" ">
<polygon fill="white" stroke="#666666" points="752,-290.25 637,-290.25 637,-271 752,-271 752,-290.25"/>
<text text-anchor="middle" x="694.5" y="-276.75" font-family="Helvetica,sans-Serif" font-size="10.00">JStudio::TObject_actor</text>
</a>
</g>
</g>
<!-- Node12&#45;&gt;Node13 -->
<g id="edge1418_Node000012_Node000013" class="edge">
<title>Node12&#45;&gt;Node13</title>
<g id="a_edge1418_Node000012_Node000013"><a xlink:title=" ">
<path fill="none" stroke="#63b8ff" d="M584.64,-151.83C587.28,-153.53 589.76,-155.46 592,-157.62 627.12,-191.67 592.54,-227.93 628,-261.62 631.86,-265.3 636.39,-268.26 641.23,-270.66"/>
<polygon fill="#63b8ff" stroke="#63b8ff" points="586.32,-148.76 575.84,-147.27 583.1,-154.98 586.32,-148.76"/>
</a>
</g>
</g>
<!-- Node14 -->
<g id="Node000014" class="node">
<title>Node14</title>
<g id="a_Node000014"><a xlink:href="structJStudio_1_1TObject__ambientLight.html" target="_top" xlink:title=" ">
<polygon fill="white" stroke="#666666" points="758.38,-252.88 630.62,-252.88 630.62,-222.38 758.38,-222.38 758.38,-252.88"/>
<text text-anchor="start" x="638.62" y="-239.38" font-family="Helvetica,sans-Serif" font-size="10.00">JStudio::TObject_ambient</text>
<text text-anchor="middle" x="694.5" y="-228.12" font-family="Helvetica,sans-Serif" font-size="10.00">Light</text>
</a>
</g>
</g>
<!-- Node12&#45;&gt;Node14 -->
<g id="edge1419_Node000012_Node000014" class="edge">
<title>Node12&#45;&gt;Node14</title>
<g id="a_edge1419_Node000012_Node000014"><a xlink:title=" ">
<path fill="none" stroke="#63b8ff" d="M584.61,-152.8C587.2,-154.26 589.68,-155.86 592,-157.62 615.54,-175.55 604.91,-195.13 628,-213.62 631.97,-216.8 636.4,-219.59 641.03,-222.02"/>
<polygon fill="#63b8ff" stroke="#63b8ff" points="586.11,-149.64 575.57,-148.54 583.12,-155.97 586.11,-149.64"/>
</a>
</g>
</g>
<!-- Node15 -->
<g id="Node000015" class="node">
<title>Node15</title>
<g id="a_Node000015"><a xlink:href="structJStudio_1_1TObject__camera.html" target="_top" xlink:title=" ">
<polygon fill="white" stroke="#666666" points="757.25,-204.25 631.75,-204.25 631.75,-185 757.25,-185 757.25,-204.25"/>
<text text-anchor="middle" x="694.5" y="-190.75" font-family="Helvetica,sans-Serif" font-size="10.00">JStudio::TObject_camera</text>
</a>
</g>
</g>
<!-- Node12&#45;&gt;Node15 -->
<g id="edge1420_Node000012_Node000015" class="edge">
<title>Node12&#45;&gt;Node15</title>
<g id="a_edge1420_Node000012_Node000015"><a xlink:title=" ">
<path fill="none" stroke="#63b8ff" d="M577.77,-152.22C582.62,-153.92 587.44,-155.73 592,-157.62 608.71,-164.57 611.18,-169.97 628,-176.62 635.46,-179.58 643.57,-182.23 651.47,-184.54"/>
<polygon fill="#63b8ff" stroke="#63b8ff" points="579.23,-149.02 568.63,-149.17 577.01,-155.66 579.23,-149.02"/>
</a>
</g>
</g>
<!-- Node16 -->
<g id="Node000016" class="node">
<title>Node16</title>
<g id="a_Node000016"><a xlink:href="structJStudio_1_1TObject__fog.html" target="_top" xlink:title=" ">
<polygon fill="white" stroke="#666666" points="747.88,-167.25 641.12,-167.25 641.12,-148 747.88,-148 747.88,-167.25"/>
<text text-anchor="middle" x="694.5" y="-153.75" font-family="Helvetica,sans-Serif" font-size="10.00">JStudio::TObject_fog</text>
</a>
</g>
</g>
<!-- Node12&#45;&gt;Node16 -->
<g id="edge1421_Node000012_Node000016" class="edge">
<title>Node12&#45;&gt;Node16</title>
<g id="a_edge1421_Node000012_Node000016"><a xlink:title=" ">
<path fill="none" stroke="#63b8ff" d="M585.53,-145C603.39,-147.09 623.18,-149.4 640.89,-151.47"/>
<polygon fill="#63b8ff" stroke="#63b8ff" points="585.96,-141.53 575.62,-143.84 585.15,-148.48 585.96,-141.53"/>
</a>
</g>
</g>
<!-- Node17 -->
<g id="Node000017" class="node">
<title>Node17</title>
<g id="a_Node000017"><a xlink:href="structJStudio_1_1TObject__light.html" target="_top" xlink:title=" ">
<polygon fill="white" stroke="#666666" points="750.12,-130.25 638.88,-130.25 638.88,-111 750.12,-111 750.12,-130.25"/>
<text text-anchor="middle" x="694.5" y="-116.75" font-family="Helvetica,sans-Serif" font-size="10.00">JStudio::TObject_light</text>
</a>
</g>
</g>
<!-- Node12&#45;&gt;Node17 -->
<g id="edge1422_Node000012_Node000017" class="edge">
<title>Node12&#45;&gt;Node17</title>
<g id="a_edge1422_Node000012_Node000017"><a xlink:title=" ">
<path fill="none" stroke="#63b8ff" d="M585.1,-132.63C602.27,-130.73 621.27,-128.63 638.5,-126.72"/>
<polygon fill="#63b8ff" stroke="#63b8ff" points="585.18,-129.1 575.62,-133.68 585.95,-136.06 585.18,-129.1"/>
</a>
</g>
</g>
<!-- Node18 -->
<g id="Node000018" class="node">
<title>Node18</title>
<g id="a_Node000018"><a xlink:href="structJStudio_1_1TObject__message.html" target="_top" xlink:title=" ">
<polygon fill="white" stroke="#666666" points="761,-93.25 628,-93.25 628,-74 761,-74 761,-93.25"/>
<text text-anchor="middle" x="694.5" y="-79.75" font-family="Helvetica,sans-Serif" font-size="10.00">JStudio::TObject_message</text>
</a>
</g>
</g>
<!-- Node12&#45;&gt;Node18 -->
<g id="edge1423_Node000012_Node000018" class="edge">
<title>Node12&#45;&gt;Node18</title>
<g id="a_edge1423_Node000012_Node000018"><a xlink:title=" ">
<path fill="none" stroke="#63b8ff" d="M577.54,-124.99C582.46,-123.29 587.36,-121.49 592,-119.62 608.59,-112.94 611.3,-108.03 628,-101.62 635.6,-98.71 643.86,-96.06 651.87,-93.75"/>
<polygon fill="#63b8ff" stroke="#63b8ff" points="576.66,-121.6 568.26,-128.05 578.85,-128.24 576.66,-121.6"/>
</a>
</g>
</g>
<!-- Node19 -->
<g id="Node000019" class="node">
<title>Node19</title>
<g id="a_Node000019"><a xlink:href="structJStudio_1_1TObject__particle.html" target="_top" xlink:title=" ">
<polygon fill="white" stroke="#666666" points="756.88,-56.25 632.12,-56.25 632.12,-37 756.88,-37 756.88,-56.25"/>
<text text-anchor="middle" x="694.5" y="-42.75" font-family="Helvetica,sans-Serif" font-size="10.00">JStudio::TObject_particle</text>
</a>
</g>
</g>
<!-- Node12&#45;&gt;Node19 -->
<g id="edge1424_Node000012_Node000019" class="edge">
<title>Node12&#45;&gt;Node19</title>
<g id="a_edge1424_Node000012_Node000019"><a xlink:title=" ">
<path fill="none" stroke="#63b8ff" d="M584.72,-124.35C587.27,-122.92 589.71,-121.35 592,-119.62 615.32,-102.02 604.39,-81.83 628,-64.62 632.38,-61.43 637.31,-58.8 642.44,-56.64"/>
<polygon fill="#63b8ff" stroke="#63b8ff" points="583.4,-121.1 575.86,-128.54 586.4,-127.43 583.4,-121.1"/>
</a>
</g>
</g>
<!-- Node20 -->
<g id="Node000020" class="node">
<title>Node20</title>
<g id="a_Node000020"><a xlink:href="structJStudio_1_1TObject__sound.html" target="_top" xlink:title=" ">
<polygon fill="white" stroke="#666666" points="754.25,-19.25 634.75,-19.25 634.75,0 754.25,0 754.25,-19.25"/>
<text text-anchor="middle" x="694.5" y="-5.75" font-family="Helvetica,sans-Serif" font-size="10.00">JStudio::TObject_sound</text>
</a>
</g>
</g>
<!-- Node12&#45;&gt;Node20 -->
<g id="edge1425_Node000012_Node000020" class="edge">
<title>Node12&#45;&gt;Node20</title>
<g id="a_edge1425_Node000012_Node000020"><a xlink:title=" ">
<path fill="none" stroke="#63b8ff" d="M584.54,-125.31C587.21,-123.64 589.72,-121.75 592,-119.62 624.13,-89.7 595.37,-57 628,-27.62 631.51,-24.47 635.52,-21.86 639.78,-19.7"/>
<polygon fill="#63b8ff" stroke="#63b8ff" points="583,-122.16 575.68,-129.82 586.18,-128.4 583,-122.16"/>
</a>
</g>
</g>
</g>
</svg>
