<?xml version="1.0" encoding="UTF-8" standalone="no"?>
<!DOCTYPE svg PUBLIC "-//W3C//DTD SVG 1.1//EN"
 "http://www.w3.org/Graphics/SVG/1.1/DTD/svg11.dtd">
<!-- Generated by graphviz version 9.0.0 (20230911.1827)
 -->
<!-- Title: Graphical Class Hierarchy Pages: 1 -->
<svg width="366pt" height="256pt"
 viewBox="0.00 0.00 365.50 255.75" xmlns="http://www.w3.org/2000/svg" xmlns:xlink="http://www.w3.org/1999/xlink">
<g id="graph0" class="graph" transform="scale(1 1) rotate(0) translate(4 251.75)">
<title>Graphical Class Hierarchy</title>
<!-- Node0 -->
<g id="Node000000" class="node">
<title>Node0</title>
<g id="a_Node000000"><a xlink:href="structJStudio_1_1TVariableValue_1_1TOutput.html" target="_top" xlink:title=" ">
<polygon fill="white" stroke="#666666" points="119.5,-139.12 0,-139.12 0,-108.62 119.5,-108.62 119.5,-139.12"/>
<text text-anchor="start" x="8" y="-125.62" font-family="Helvetica,sans-Serif" font-size="10.00">JStudio::TVariableValue</text>
<text text-anchor="middle" x="59.75" y="-114.38" font-family="Helvetica,sans-Serif" font-size="10.00">::TOutput</text>
</a>
</g>
</g>
<!-- Node1 -->
<g id="Node000001" class="node">
<title>Node1</title>
<g id="a_Node000001"><a xlink:href="structJStudio__JStage_1_1TVariableValueOutput__object__.html" target="_top" xlink:title=" ">
<polygon fill="white" stroke="#666666" points="349.62,-247.75 163.38,-247.75 163.38,-206 349.62,-206 349.62,-247.75"/>
<text text-anchor="start" x="171.38" y="-234.25" font-family="Helvetica,sans-Serif" font-size="10.00">JStudio_JStage::TVariable</text>
<text text-anchor="start" x="171.38" y="-223" font-family="Helvetica,sans-Serif" font-size="10.00">ValueOutput_object_&lt; JStudio</text>
<text text-anchor="middle" x="256.5" y="-211.75" font-family="Helvetica,sans-Serif" font-size="10.00">_JStage::TAdaptor_fog, JStage::TFog &gt;</text>
</a>
</g>
</g>
<!-- Node0&#45;&gt;Node1 -->
<g id="edge1496_Node000000_Node000001" class="edge">
<title>Node0&#45;&gt;Node1</title>
<g id="a_edge1496_Node000000_Node000001"><a xlink:title=" ">
<path fill="none" stroke="#63b8ff" d="M85.19,-146.76C103.37,-162.74 129.46,-183.52 155.5,-196.88 161.63,-200.02 168.14,-202.89 174.79,-205.5"/>
<polygon fill="#63b8ff" stroke="#63b8ff" points="87.83,-144.44 78.05,-140.37 83.16,-149.65 87.83,-144.44"/>
</a>
</g>
</g>
<!-- Node2 -->
<g id="Node000002" class="node">
<title>Node2</title>
<g id="a_Node000002"><a xlink:href="structJStudio__JAudio2_1_1TAdaptor__sound_1_1TVVOSetValue__.html" target="_top" xlink:title=" ">
<polygon fill="white" stroke="#666666" points="323.38,-188.12 189.62,-188.12 189.62,-157.62 323.38,-157.62 323.38,-188.12"/>
<text text-anchor="start" x="197.62" y="-174.62" font-family="Helvetica,sans-Serif" font-size="10.00">JStudio_JAudio2::TAdaptor</text>
<text text-anchor="middle" x="256.5" y="-163.38" font-family="Helvetica,sans-Serif" font-size="10.00">_sound::TVVOSetValue_</text>
</a>
</g>
</g>
<!-- Node0&#45;&gt;Node2 -->
<g id="edge1497_Node000000_Node000002" class="edge">
<title>Node0&#45;&gt;Node2</title>
<g id="a_edge1497_Node000000_Node000002"><a xlink:title=" ">
<path fill="none" stroke="#63b8ff" d="M130.77,-141.64C139.1,-143.74 147.49,-145.86 155.5,-147.88 167.47,-150.89 180.26,-154.09 192.55,-157.17"/>
<polygon fill="#63b8ff" stroke="#63b8ff" points="131.9,-138.31 121.35,-139.25 130.18,-145.1 131.9,-138.31"/>
</a>
</g>
</g>
<!-- Node3 -->
<g id="Node000003" class="node">
<title>Node3</title>
<g id="a_Node000003"><a xlink:href="structJStudio__JStage_1_1TAdaptor__actor_1_1TVVOutput__ANIMATION__FRAME__.html" target="_top" xlink:title=" ">
<polygon fill="white" stroke="#666666" points="357.5,-139.12 155.5,-139.12 155.5,-108.62 357.5,-108.62 357.5,-139.12"/>
<text text-anchor="start" x="163.5" y="-125.62" font-family="Helvetica,sans-Serif" font-size="10.00">JStudio_JStage::TAdaptor</text>
<text text-anchor="middle" x="256.5" y="-114.38" font-family="Helvetica,sans-Serif" font-size="10.00">_actor::TVVOutput_ANIMATION_FRAME_</text>
</a>
</g>
</g>
<!-- Node0&#45;&gt;Node3 -->
<g id="edge1498_Node000000_Node000003" class="edge">
<title>Node0&#45;&gt;Node3</title>
<g id="a_edge1498_Node000000_Node000003"><a xlink:title=" ">
<path fill="none" stroke="#63b8ff" d="M131.22,-123.88C139.04,-123.88 147.11,-123.88 155.2,-123.88"/>
<polygon fill="#63b8ff" stroke="#63b8ff" points="131.49,-120.38 121.49,-123.88 131.49,-127.38 131.49,-120.38"/>
</a>
</g>
</g>
<!-- Node4 -->
<g id="Node000004" class="node">
<title>Node4</title>
<g id="a_Node000004"><a xlink:href="structJStudio__JStage_1_1TAdaptor__light_1_1TVVOutput__direction__.html" target="_top" xlink:title=" ">
<polygon fill="white" stroke="#666666" points="326.38,-90.12 186.62,-90.12 186.62,-59.62 326.38,-59.62 326.38,-90.12"/>
<text text-anchor="start" x="194.62" y="-76.62" font-family="Helvetica,sans-Serif" font-size="10.00">JStudio_JStage::TAdaptor</text>
<text text-anchor="middle" x="256.5" y="-65.38" font-family="Helvetica,sans-Serif" font-size="10.00">_light::TVVOutput_direction_</text>
</a>
</g>
</g>
<!-- Node0&#45;&gt;Node4 -->
<g id="edge1499_Node000000_Node000004" class="edge">
<title>Node0&#45;&gt;Node4</title>
<g id="a_edge1499_Node000000_Node000004"><a xlink:title=" ">
<path fill="none" stroke="#63b8ff" d="M130.77,-106.11C139.1,-104.01 147.49,-101.89 155.5,-99.88 167.47,-96.86 180.26,-93.66 192.55,-90.58"/>
<polygon fill="#63b8ff" stroke="#63b8ff" points="130.18,-102.65 121.35,-108.5 131.9,-109.44 130.18,-102.65"/>
</a>
</g>
</g>
<!-- Node5 -->
<g id="Node000005" class="node">
<title>Node5</title>
<g id="a_Node000005"><a xlink:href="structJStudio__JStage_1_1TVariableValueOutput__object__.html" target="_top" xlink:title=" ">
<polygon fill="white" stroke="#666666" points="335.38,-41.75 177.62,-41.75 177.62,0 335.38,0 335.38,-41.75"/>
<text text-anchor="start" x="185.62" y="-28.25" font-family="Helvetica,sans-Serif" font-size="10.00">JStudio_JStage::TVariable</text>
<text text-anchor="start" x="185.62" y="-17" font-family="Helvetica,sans-Serif" font-size="10.00">ValueOutput_object_&lt; TAdaptor,</text>
<text text-anchor="middle" x="256.5" y="-5.75" font-family="Helvetica,sans-Serif" font-size="10.00"> TStageObject &gt;</text>
</a>
</g>
</g>
<!-- Node0&#45;&gt;Node5 -->
<g id="edge1500_Node000000_Node000005" class="edge">
<title>Node0&#45;&gt;Node5</title>
<g id="a_edge1500_Node000000_Node000005"><a xlink:title=" ">
<path fill="none" stroke="#63b8ff" d="M85.19,-100.99C103.37,-85.01 129.46,-64.23 155.5,-50.88 162.35,-47.36 169.69,-44.18 177.16,-41.33"/>
<polygon fill="#63b8ff" stroke="#63b8ff" points="83.16,-98.1 78.05,-107.38 87.83,-103.31 83.16,-98.1"/>
</a>
</g>
</g>
</g>
</svg>
