<?xml version="1.0" encoding="UTF-8" standalone="no"?>
<!DOCTYPE svg PUBLIC "-//W3C//DTD SVG 1.1//EN"
 "http://www.w3.org/Graphics/SVG/1.1/DTD/svg11.dtd">
<!-- Generated by graphviz version 9.0.0 (20230911.1827)
 -->
<!-- Title: Graphical Class Hierarchy Pages: 1 -->
<svg width="262pt" height="137pt"
 viewBox="0.00 0.00 262.00 136.50" xmlns="http://www.w3.org/2000/svg" xmlns:xlink="http://www.w3.org/1999/xlink">
<g id="graph0" class="graph" transform="scale(1 1) rotate(0) translate(4 132.5)">
<title>Graphical Class Hierarchy</title>
<!-- Node0 -->
<g id="Node000000" class="node">
<title>Node0</title>
<g id="a_Node000000"><a xlink:href="structJASBNKParser_1_1Ver1_1_1TChunk.html" target="_top" xlink:title=" ">
<polygon fill="white" stroke="#666666" points="109,-79.5 0,-79.5 0,-49 109,-49 109,-79.5"/>
<text text-anchor="start" x="8" y="-66" font-family="Helvetica,sans-Serif" font-size="10.00">JASBNKParser::Ver1</text>
<text text-anchor="middle" x="54.5" y="-54.75" font-family="Helvetica,sans-Serif" font-size="10.00">::TChunk</text>
</a>
</g>
</g>
<!-- Node1 -->
<g id="Node000001" class="node">
<title>Node1</title>
<g id="a_Node000001"><a xlink:href="structJASBNKParser_1_1Ver1_1_1TEnvtChunk.html" target="_top" xlink:title=" ">
<polygon fill="white" stroke="#666666" points="254,-128.5 145,-128.5 145,-98 254,-98 254,-128.5"/>
<text text-anchor="start" x="153" y="-115" font-family="Helvetica,sans-Serif" font-size="10.00">JASBNKParser::Ver1</text>
<text text-anchor="middle" x="199.5" y="-103.75" font-family="Helvetica,sans-Serif" font-size="10.00">::TEnvtChunk</text>
</a>
</g>
</g>
<!-- Node0&#45;&gt;Node1 -->
<g id="edge1317_Node000000_Node000001" class="edge">
<title>Node0&#45;&gt;Node1</title>
<g id="a_edge1317_Node000000_Node000001"><a xlink:title=" ">
<path fill="none" stroke="#63b8ff" d="M111.83,-83.55C125.42,-88.21 139.77,-93.13 152.8,-97.59"/>
<polygon fill="#63b8ff" stroke="#63b8ff" points="113.17,-80.31 102.57,-80.38 110.9,-86.93 113.17,-80.31"/>
</a>
</g>
</g>
<!-- Node2 -->
<g id="Node000002" class="node">
<title>Node2</title>
<g id="a_Node000002"><a xlink:href="structJASBNKParser_1_1Ver1_1_1TListChunk.html" target="_top" xlink:title=" ">
<polygon fill="white" stroke="#666666" points="254,-79.5 145,-79.5 145,-49 254,-49 254,-79.5"/>
<text text-anchor="start" x="153" y="-66" font-family="Helvetica,sans-Serif" font-size="10.00">JASBNKParser::Ver1</text>
<text text-anchor="middle" x="199.5" y="-54.75" font-family="Helvetica,sans-Serif" font-size="10.00">::TListChunk</text>
</a>
</g>
</g>
<!-- Node0&#45;&gt;Node2 -->
<g id="edge1318_Node000000_Node000002" class="edge">
<title>Node0&#45;&gt;Node2</title>
<g id="a_edge1318_Node000000_Node000002"><a xlink:title=" ">
<path fill="none" stroke="#63b8ff" d="M120.44,-64.25C128.5,-64.25 136.67,-64.25 144.54,-64.25"/>
<polygon fill="#63b8ff" stroke="#63b8ff" points="120.67,-60.75 110.67,-64.25 120.67,-67.75 120.67,-60.75"/>
</a>
</g>
</g>
<!-- Node3 -->
<g id="Node000003" class="node">
<title>Node3</title>
<g id="a_Node000003"><a xlink:href="structJASBNKParser_1_1Ver1_1_1TOscChunk.html" target="_top" xlink:title=" ">
<polygon fill="white" stroke="#666666" points="254,-30.5 145,-30.5 145,0 254,0 254,-30.5"/>
<text text-anchor="start" x="153" y="-17" font-family="Helvetica,sans-Serif" font-size="10.00">JASBNKParser::Ver1</text>
<text text-anchor="middle" x="199.5" y="-5.75" font-family="Helvetica,sans-Serif" font-size="10.00">::TOscChunk</text>
</a>
</g>
</g>
<!-- Node0&#45;&gt;Node3 -->
<g id="edge1319_Node000000_Node000003" class="edge">
<title>Node0&#45;&gt;Node3</title>
<g id="a_edge1319_Node000000_Node000003"><a xlink:title=" ">
<path fill="none" stroke="#63b8ff" d="M111.83,-44.95C125.42,-40.29 139.77,-35.37 152.8,-30.91"/>
<polygon fill="#63b8ff" stroke="#63b8ff" points="110.9,-41.57 102.57,-48.12 113.17,-48.19 110.9,-41.57"/>
</a>
</g>
</g>
</g>
</svg>
