<?xml version="1.0" encoding="UTF-8" standalone="no"?>
<!DOCTYPE svg PUBLIC "-//W3C//DTD SVG 1.1//EN"
 "http://www.w3.org/Graphics/SVG/1.1/DTD/svg11.dtd">
<!-- Generated by graphviz version 9.0.0 (20230911.1827)
 -->
<!-- Title: Graphical Class Hierarchy Pages: 1 -->
<svg width="252pt" height="64pt"
 viewBox="0.00 0.00 251.50 64.25" xmlns="http://www.w3.org/2000/svg" xmlns:xlink="http://www.w3.org/1999/xlink">
<g id="graph0" class="graph" transform="scale(1 1) rotate(0) translate(4 60.25)">
<title>Graphical Class Hierarchy</title>
<!-- Node0 -->
<g id="Node000000" class="node">
<title>Node0</title>
<g id="a_Node000000"><a xlink:href="classdaNpcF__Path__c.html" target="_top" xlink:title=" ">
<polygon fill="white" stroke="#666666" points="86.5,-37.25 0,-37.25 0,-18 86.5,-18 86.5,-37.25"/>
<text text-anchor="middle" x="43.25" y="-23.75" font-family="Helvetica,sans-Serif" font-size="10.00">daNpcF_Path_c</text>
</a>
</g>
</g>
<!-- Node1 -->
<g id="Node000001" class="node">
<title>Node1</title>
<g id="a_Node000001"><a xlink:href="classdaNpc__zrA__Path__c.html" target="_top" xlink:title="Zora (Adult)">
<polygon fill="white" stroke="#666666" points="233,-56.25 133,-56.25 133,-37 233,-37 233,-56.25"/>
<text text-anchor="middle" x="183" y="-42.75" font-family="Helvetica,sans-Serif" font-size="10.00">daNpc_zrA_Path_c</text>
</a>
</g>
</g>
<!-- Node0&#45;&gt;Node1 -->
<g id="edge97_Node000000_Node000001" class="edge">
<title>Node0&#45;&gt;Node1</title>
<g id="a_edge97_Node000000_Node000001"><a xlink:title=" ">
<path fill="none" stroke="#63b8ff" d="M97.91,-35.03C109.36,-36.61 121.41,-38.27 132.69,-39.82"/>
<polygon fill="#63b8ff" stroke="#63b8ff" points="98.59,-31.59 88.2,-33.69 97.63,-38.52 98.59,-31.59"/>
</a>
</g>
</g>
<!-- Node2 -->
<g id="Node000002" class="node">
<title>Node2</title>
<g id="a_Node000002"><a xlink:href="classdaStartAndGoal__Path__c.html" target="_top" xlink:title=" ">
<polygon fill="white" stroke="#666666" points="243.5,-19.25 122.5,-19.25 122.5,0 243.5,0 243.5,-19.25"/>
<text text-anchor="middle" x="183" y="-5.75" font-family="Helvetica,sans-Serif" font-size="10.00">daStartAndGoal_Path_c</text>
</a>
</g>
</g>
<!-- Node0&#45;&gt;Node2 -->
<g id="edge98_Node000000_Node000002" class="edge">
<title>Node0&#45;&gt;Node2</title>
<g id="a_edge98_Node000000_Node000002"><a xlink:title=" ">
<path fill="none" stroke="#63b8ff" d="M98.06,-20.59C105.98,-19.56 114.18,-18.49 122.21,-17.44"/>
<polygon fill="#63b8ff" stroke="#63b8ff" points="97.67,-17.12 88.2,-21.88 98.57,-24.06 97.67,-17.12"/>
</a>
</g>
</g>
</g>
</svg>
