<?xml version="1.0" encoding="UTF-8" standalone="no"?>
<!DOCTYPE svg PUBLIC "-//W3C//DTD SVG 1.1//EN"
 "http://www.w3.org/Graphics/SVG/1.1/DTD/svg11.dtd">
<!-- Generated by graphviz version 9.0.0 (20230911.1827)
 -->
<!-- Title: Graphical Class Hierarchy Pages: 1 -->
<svg width="226pt" height="138pt"
 viewBox="0.00 0.00 226.00 138.25" xmlns="http://www.w3.org/2000/svg" xmlns:xlink="http://www.w3.org/1999/xlink">
<g id="graph0" class="graph" transform="scale(1 1) rotate(0) translate(4 134.25)">
<title>Graphical Class Hierarchy</title>
<!-- Node0 -->
<g id="Node000000" class="node">
<title>Node0</title>
<g id="a_Node000000"><a xlink:href="classscene__class.html" target="_top" xlink:title=" ">
<polygon fill="white" stroke="#666666" points="70.75,-74.25 0,-74.25 0,-55 70.75,-55 70.75,-74.25"/>
<text text-anchor="middle" x="35.38" y="-60.75" font-family="Helvetica,sans-Serif" font-size="10.00">scene_class</text>
</a>
</g>
</g>
<!-- Node1 -->
<g id="Node000001" class="node">
<title>Node1</title>
<g id="a_Node000001"><a xlink:href="classdScnLogo__c.html" target="_top" xlink:title=" ">
<polygon fill="white" stroke="#666666" points="197.75,-130.25 127,-130.25 127,-111 197.75,-111 197.75,-130.25"/>
<text text-anchor="middle" x="162.38" y="-116.75" font-family="Helvetica,sans-Serif" font-size="10.00">dScnLogo_c</text>
</a>
</g>
</g>
<!-- Node0&#45;&gt;Node1 -->
<g id="edge1527_Node000000_Node000001" class="edge">
<title>Node0&#45;&gt;Node1</title>
<g id="a_edge1527_Node000000_Node000001"><a xlink:title=" ">
<path fill="none" stroke="#63b8ff" d="M62.7,-80.28C75.69,-87.63 91.76,-96.17 106.75,-102.62 113.35,-105.47 120.56,-108.14 127.52,-110.5"/>
<polygon fill="#63b8ff" stroke="#63b8ff" points="64.75,-77.42 54.33,-75.46 61.25,-83.48 64.75,-77.42"/>
</a>
</g>
</g>
<!-- Node2 -->
<g id="Node000002" class="node">
<title>Node2</title>
<g id="a_Node000002"><a xlink:href="classdScnName__c.html" target="_top" xlink:title=" ">
<polygon fill="white" stroke="#666666" points="200,-93.25 124.75,-93.25 124.75,-74 200,-74 200,-93.25"/>
<text text-anchor="middle" x="162.38" y="-79.75" font-family="Helvetica,sans-Serif" font-size="10.00">dScnName_c</text>
</a>
</g>
</g>
<!-- Node0&#45;&gt;Node2 -->
<g id="edge1528_Node000000_Node000002" class="edge">
<title>Node0&#45;&gt;Node2</title>
<g id="a_edge1528_Node000000_Node000002"><a xlink:title=" ">
<path fill="none" stroke="#63b8ff" d="M82.5,-71.64C96.36,-73.74 111.38,-76.03 124.56,-78.03"/>
<polygon fill="#63b8ff" stroke="#63b8ff" points="83.1,-68.19 72.69,-70.15 82.05,-75.11 83.1,-68.19"/>
</a>
</g>
</g>
<!-- Node3 -->
<g id="Node000003" class="node">
<title>Node3</title>
<g id="a_Node000003"><a xlink:href="classdScnPly__c.html" target="_top" xlink:title=" ">
<polygon fill="white" stroke="#666666" points="193.62,-56.25 131.12,-56.25 131.12,-37 193.62,-37 193.62,-56.25"/>
<text text-anchor="middle" x="162.38" y="-42.75" font-family="Helvetica,sans-Serif" font-size="10.00">dScnPly_c</text>
</a>
</g>
</g>
<!-- Node0&#45;&gt;Node3 -->
<g id="edge1529_Node000000_Node000003" class="edge">
<title>Node0&#45;&gt;Node3</title>
<g id="a_edge1529_Node000000_Node000003"><a xlink:title=" ">
<path fill="none" stroke="#63b8ff" d="M82.14,-58.03C98.41,-55.69 116.32,-53.11 130.99,-51"/>
<polygon fill="#63b8ff" stroke="#63b8ff" points="82.09,-54.51 72.69,-59.4 83.09,-61.43 82.09,-54.51"/>
</a>
</g>
</g>
<!-- Node4 -->
<g id="Node000004" class="node">
<title>Node4</title>
<g id="a_Node000004"><a xlink:href="classroom__of__scene__class.html" target="_top" xlink:title=" ">
<polygon fill="white" stroke="#666666" points="218,-19.25 106.75,-19.25 106.75,0 218,0 218,-19.25"/>
<text text-anchor="middle" x="162.38" y="-5.75" font-family="Helvetica,sans-Serif" font-size="10.00">room_of_scene_class</text>
</a>
</g>
</g>
<!-- Node0&#45;&gt;Node4 -->
<g id="edge1530_Node000000_Node000004" class="edge">
<title>Node0&#45;&gt;Node4</title>
<g id="a_edge1530_Node000000_Node000004"><a xlink:title=" ">
<path fill="none" stroke="#63b8ff" d="M63.66,-48.93C76.49,-41.9 92.16,-33.82 106.75,-27.62 113.46,-24.78 120.79,-22.09 127.83,-19.71"/>
<polygon fill="#63b8ff" stroke="#63b8ff" points="61.98,-45.86 54.95,-53.79 65.39,-51.97 61.98,-45.86"/>
</a>
</g>
</g>
</g>
</svg>
