<?xml version="1.0" encoding="UTF-8" standalone="no"?>
<!DOCTYPE svg PUBLIC "-//W3C//DTD SVG 1.1//EN"
 "http://www.w3.org/Graphics/SVG/1.1/DTD/svg11.dtd">
<!-- Generated by graphviz version 9.0.0 (20230911.1827)
 -->
<!-- Title: Graphical Class Hierarchy Pages: 1 -->
<svg width="216pt" height="64pt"
 viewBox="0.00 0.00 215.50 64.25" xmlns="http://www.w3.org/2000/svg" xmlns:xlink="http://www.w3.org/1999/xlink">
<g id="graph0" class="graph" transform="scale(1 1) rotate(0) translate(4 60.25)">
<title>Graphical Class Hierarchy</title>
<!-- Node0 -->
<g id="Node000000" class="node">
<title>Node0</title>
<g id="a_Node000000"><a xlink:href="structJ3DMaterial.html" target="_top" xlink:title=" ">
<polygon fill="white" stroke="#666666" points="67.75,-37.25 0,-37.25 0,-18 67.75,-18 67.75,-37.25"/>
<text text-anchor="middle" x="33.88" y="-23.75" font-family="Helvetica,sans-Serif" font-size="10.00">J3DMaterial</text>
</a>
</g>
</g>
<!-- Node1 -->
<g id="Node000001" class="node">
<title>Node1</title>
<g id="a_Node000001"><a xlink:href="classJ3DLockedMaterial.html" target="_top" xlink:title=" ">
<polygon fill="white" stroke="#666666" points="205.62,-56.25 105.62,-56.25 105.62,-37 205.62,-37 205.62,-56.25"/>
<text text-anchor="middle" x="155.62" y="-42.75" font-family="Helvetica,sans-Serif" font-size="10.00">J3DLockedMaterial</text>
</a>
</g>
</g>
<!-- Node0&#45;&gt;Node1 -->
<g id="edge1047_Node000000_Node000001" class="edge">
<title>Node0&#45;&gt;Node1</title>
<g id="a_edge1047_Node000000_Node000001"><a xlink:title=" ">
<path fill="none" stroke="#63b8ff" d="M79.41,-34.69C87.86,-36.03 96.74,-37.44 105.33,-38.8"/>
<polygon fill="#63b8ff" stroke="#63b8ff" points="80.15,-31.27 69.73,-33.15 79.05,-38.18 80.15,-31.27"/>
</a>
</g>
</g>
<!-- Node2 -->
<g id="Node000002" class="node">
<title>Node2</title>
<g id="a_Node000002"><a xlink:href="classJ3DPatchedMaterial.html" target="_top" xlink:title=" ">
<polygon fill="white" stroke="#666666" points="207.5,-19.25 103.75,-19.25 103.75,0 207.5,0 207.5,-19.25"/>
<text text-anchor="middle" x="155.62" y="-5.75" font-family="Helvetica,sans-Serif" font-size="10.00">J3DPatchedMaterial</text>
</a>
</g>
</g>
<!-- Node0&#45;&gt;Node2 -->
<g id="edge1048_Node000000_Node000002" class="edge">
<title>Node0&#45;&gt;Node2</title>
<g id="a_edge1048_Node000000_Node000002"><a xlink:title=" ">
<path fill="none" stroke="#63b8ff" d="M79.4,-20.93C87.26,-19.75 95.5,-18.51 103.52,-17.31"/>
<polygon fill="#63b8ff" stroke="#63b8ff" points="79.1,-17.44 69.73,-22.39 80.14,-24.36 79.1,-17.44"/>
</a>
</g>
</g>
</g>
</svg>
