<?xml version="1.0" encoding="UTF-8" standalone="no"?>
<!DOCTYPE svg PUBLIC "-//W3C//DTD SVG 1.1//EN"
 "http://www.w3.org/Graphics/SVG/1.1/DTD/svg11.dtd">
<!-- Generated by graphviz version 9.0.0 (20230911.1827)
 -->
<!-- Title: Graphical Class Hierarchy Pages: 1 -->
<svg width="407pt" height="1056pt"
 viewBox="0.00 0.00 407.00 1056.25" xmlns="http://www.w3.org/2000/svg" xmlns:xlink="http://www.w3.org/1999/xlink">
<g id="graph0" class="graph" transform="scale(1 1) rotate(0) translate(4 1052.25)">
<title>Graphical Class Hierarchy</title>
<!-- Node0 -->
<g id="Node000000" class="node">
<title>Node0</title>
<g id="a_Node000000"><a xlink:href="classmDoHIO__entry__c.html" target="_top" xlink:title=" ">
<polygon fill="white" stroke="#666666" points="91,-567.25 0,-567.25 0,-548 91,-548 91,-567.25"/>
<text text-anchor="middle" x="45.5" y="-553.75" font-family="Helvetica,sans-Serif" font-size="10.00">mDoHIO_entry_c</text>
</a>
</g>
</g>
<!-- Node1 -->
<g id="Node000001" class="node">
<title>Node1</title>
<g id="a_Node000001"><a xlink:href="classdGov__HIO__c.html" target="_top" xlink:title=" ">
<polygon fill="white" stroke="#666666" points="226.62,-1048.25 153.62,-1048.25 153.62,-1029 226.62,-1029 226.62,-1048.25"/>
<text text-anchor="middle" x="190.12" y="-1034.75" font-family="Helvetica,sans-Serif" font-size="10.00">dGov_HIO_c</text>
</a>
</g>
</g>
<!-- Node0&#45;&gt;Node1 -->
<g id="edge1489_Node000000_Node000001" class="edge">
<title>Node0&#45;&gt;Node1</title>
<g id="a_edge1489_Node000000_Node000001"><a xlink:title=" ">
<path fill="none" stroke="#63b8ff" d="M47.3,-579.09C50.78,-661.17 67.25,-953.92 127,-1020.62 133.74,-1028.15 143.42,-1032.61 153.14,-1035.23"/>
<polygon fill="#63b8ff" stroke="#63b8ff" points="50.8,-578.97 46.9,-569.11 43.8,-579.25 50.8,-578.97"/>
</a>
</g>
</g>
<!-- Node2 -->
<g id="Node000002" class="node">
<title>Node2</title>
<g id="a_Node000002"><a xlink:href="classdScnPly__preLoad__HIO__c.html" target="_top" xlink:title=" ">
<polygon fill="white" stroke="#666666" points="253.25,-1011.25 127,-1011.25 127,-992 253.25,-992 253.25,-1011.25"/>
<text text-anchor="middle" x="190.12" y="-997.75" font-family="Helvetica,sans-Serif" font-size="10.00">dScnPly_preLoad_HIO_c</text>
</a>
</g>
</g>
<!-- Node0&#45;&gt;Node2 -->
<g id="edge1490_Node000000_Node000002" class="edge">
<title>Node0&#45;&gt;Node2</title>
<g id="a_edge1490_Node000000_Node000002"><a xlink:title=" ">
<path fill="none" stroke="#63b8ff" d="M47.63,-578.62C52.18,-655.84 71.73,-922.82 127,-983.62 129.87,-986.78 133.26,-989.4 136.94,-991.57"/>
<polygon fill="#63b8ff" stroke="#63b8ff" points="51.14,-578.85 47.09,-569.06 44.16,-579.25 51.14,-578.85"/>
</a>
</g>
</g>
<!-- Node3 -->
<g id="Node000003" class="node">
<title>Node3</title>
<g id="a_Node000003"><a xlink:href="classdaBarDesk__HIO__c.html" target="_top" xlink:title=" ">
<polygon fill="white" stroke="#666666" points="239,-974.25 141.25,-974.25 141.25,-955 239,-955 239,-974.25"/>
<text text-anchor="middle" x="190.12" y="-960.75" font-family="Helvetica,sans-Serif" font-size="10.00">daBarDesk_HIO_c</text>
</a>
</g>
</g>
<!-- Node0&#45;&gt;Node3 -->
<g id="edge1491_Node000000_Node000003" class="edge">
<title>Node0&#45;&gt;Node3</title>
<g id="a_edge1491_Node000000_Node000003"><a xlink:title=" ">
<path fill="none" stroke="#63b8ff" d="M48.04,-578.64C53.78,-651.49 76.31,-891.82 127,-946.62 130.89,-950.83 135.69,-954.07 140.9,-956.57"/>
<polygon fill="#63b8ff" stroke="#63b8ff" points="51.55,-578.61 47.3,-568.91 44.57,-579.15 51.55,-578.61"/>
</a>
</g>
</g>
<!-- Node4 -->
<g id="Node000004" class="node">
<title>Node4</title>
<g id="a_Node000004"><a xlink:href="classdaBsGate__HIO__c.html" target="_top" xlink:title=" ">
<polygon fill="white" stroke="#666666" points="236.75,-937.25 143.5,-937.25 143.5,-918 236.75,-918 236.75,-937.25"/>
<text text-anchor="middle" x="190.12" y="-923.75" font-family="Helvetica,sans-Serif" font-size="10.00">daBsGate_HIO_c</text>
</a>
</g>
</g>
<!-- Node0&#45;&gt;Node4 -->
<g id="edge1492_Node000000_Node000004" class="edge">
<title>Node0&#45;&gt;Node4</title>
<g id="a_edge1492_Node000000_Node000004"><a xlink:title=" ">
<path fill="none" stroke="#63b8ff" d="M48.55,-578.81C55.59,-647.26 80.9,-860.81 127,-909.62 131.47,-914.36 137.11,-917.87 143.15,-920.48"/>
<polygon fill="#63b8ff" stroke="#63b8ff" points="52.05,-578.58 47.57,-568.98 45.08,-579.28 52.05,-578.58"/>
</a>
</g>
</g>
<!-- Node5 -->
<g id="Node000005" class="node">
<title>Node5</title>
<g id="a_Node000005"><a xlink:href="classdaFireWood__HIO__c.html" target="_top" xlink:title=" ">
<polygon fill="white" stroke="#666666" points="240.88,-900.25 139.38,-900.25 139.38,-881 240.88,-881 240.88,-900.25"/>
<text text-anchor="middle" x="190.12" y="-886.75" font-family="Helvetica,sans-Serif" font-size="10.00">daFireWood_HIO_c</text>
</a>
</g>
</g>
<!-- Node0&#45;&gt;Node5 -->
<g id="edge1493_Node000000_Node000005" class="edge">
<title>Node0&#45;&gt;Node5</title>
<g id="a_edge1493_Node000000_Node000005"><a xlink:title=" ">
<path fill="none" stroke="#63b8ff" d="M49.19,-579.04C57.63,-642.83 85.48,-829.76 127,-872.62 130.44,-876.17 134.53,-879.03 138.95,-881.34"/>
<polygon fill="#63b8ff" stroke="#63b8ff" points="52.68,-578.67 47.92,-569.2 45.73,-579.57 52.68,-578.67"/>
</a>
</g>
</g>
<!-- Node6 -->
<g id="Node000006" class="node">
<title>Node6</title>
<g id="a_Node000006"><a xlink:href="classdaHeavySw__HIO__c.html" target="_top" xlink:title=" ">
<polygon fill="white" stroke="#666666" points="241.25,-863.25 139,-863.25 139,-844 241.25,-844 241.25,-863.25"/>
<text text-anchor="middle" x="190.12" y="-849.75" font-family="Helvetica,sans-Serif" font-size="10.00">daHeavySw_HIO_c</text>
</a>
</g>
</g>
<!-- Node0&#45;&gt;Node6 -->
<g id="edge1494_Node000000_Node000006" class="edge">
<title>Node0&#45;&gt;Node6</title>
<g id="a_edge1494_Node000000_Node000006"><a xlink:title=" ">
<path fill="none" stroke="#63b8ff" d="M46.15,-578.95C46.5,-630.59 54.78,-763.4 127,-835.62 130.41,-839.04 134.43,-841.81 138.76,-844.07"/>
<polygon fill="#63b8ff" stroke="#63b8ff" points="49.65,-579.19 46.19,-569.17 42.65,-579.16 49.65,-579.19"/>
</a>
</g>
</g>
<!-- Node7 -->
<g id="Node000007" class="node">
<title>Node7</title>
<g id="a_Node000007"><a xlink:href="classdaHsTarget__HIO__c.html" target="_top" xlink:title=" ">
<polygon fill="white" stroke="#666666" points="240.5,-826.25 139.75,-826.25 139.75,-807 240.5,-807 240.5,-826.25"/>
<text text-anchor="middle" x="190.12" y="-812.75" font-family="Helvetica,sans-Serif" font-size="10.00">daHsTarget_HIO_c</text>
</a>
</g>
</g>
<!-- Node0&#45;&gt;Node7 -->
<g id="edge1495_Node000000_Node000007" class="edge">
<title>Node0&#45;&gt;Node7</title>
<g id="a_edge1495_Node000000_Node000007"><a xlink:title=" ">
<path fill="none" stroke="#8b1a1a" d="M47.27,-578.92C50.13,-625.62 63.6,-737.74 127,-798.62 130.64,-802.13 134.93,-804.95 139.51,-807.23"/>
<polygon fill="#8b1a1a" stroke="#8b1a1a" points="50.77,-578.9 46.78,-569.09 43.78,-579.25 50.77,-578.9"/>
</a>
</g>
</g>
<!-- Node8 -->
<g id="Node000008" class="node">
<title>Node8</title>
<g id="a_Node000008"><a xlink:href="classdaLv1Cdl00__HIO__c.html" target="_top" xlink:title=" ">
<polygon fill="white" stroke="#666666" points="240.88,-789.25 139.38,-789.25 139.38,-770 240.88,-770 240.88,-789.25"/>
<text text-anchor="middle" x="190.12" y="-775.75" font-family="Helvetica,sans-Serif" font-size="10.00">daLv1Cdl00_HIO_c</text>
</a>
</g>
</g>
<!-- Node0&#45;&gt;Node8 -->
<g id="edge1496_Node000000_Node000008" class="edge">
<title>Node0&#45;&gt;Node8</title>
<g id="a_edge1496_Node000000_Node000008"><a xlink:title=" ">
<path fill="none" stroke="#63b8ff" d="M48.73,-578.71C54.23,-619.99 72.26,-711.79 127,-761.62 130.57,-764.88 134.69,-767.54 139.09,-769.73"/>
<polygon fill="#63b8ff" stroke="#63b8ff" points="52.22,-578.42 47.56,-568.91 45.27,-579.25 52.22,-578.42"/>
</a>
</g>
</g>
<!-- Node9 -->
<g id="Node000009" class="node">
<title>Node9</title>
<g id="a_Node000009"><a xlink:href="classdaLv1Cdl01__HIO__c.html" target="_top" xlink:title=" ">
<polygon fill="white" stroke="#666666" points="240.88,-752.25 139.38,-752.25 139.38,-733 240.88,-733 240.88,-752.25"/>
<text text-anchor="middle" x="190.12" y="-738.75" font-family="Helvetica,sans-Serif" font-size="10.00">daLv1Cdl01_HIO_c</text>
</a>
</g>
</g>
<!-- Node0&#45;&gt;Node9 -->
<g id="edge1497_Node000000_Node000009" class="edge">
<title>Node0&#45;&gt;Node9</title>
<g id="a_edge1497_Node000000_Node000009"><a xlink:title=" ">
<path fill="none" stroke="#63b8ff" d="M50.76,-578.53C59.07,-613.92 80.83,-685.59 127,-724.62 130.77,-727.81 135.08,-730.44 139.64,-732.6"/>
<polygon fill="#63b8ff" stroke="#63b8ff" points="54.26,-578.13 48.69,-569.11 47.42,-579.63 54.26,-578.13"/>
</a>
</g>
</g>
<!-- Node10 -->
<g id="Node000010" class="node">
<title>Node10</title>
<g id="a_Node000010"><a xlink:href="classdaLv2Candle__HIO__c.html" target="_top" xlink:title=" ">
<polygon fill="white" stroke="#666666" points="243.5,-715.25 136.75,-715.25 136.75,-696 243.5,-696 243.5,-715.25"/>
<text text-anchor="middle" x="190.12" y="-701.75" font-family="Helvetica,sans-Serif" font-size="10.00">daLv2Candle_HIO_c</text>
</a>
</g>
</g>
<!-- Node0&#45;&gt;Node10 -->
<g id="edge1498_Node000000_Node000010" class="edge">
<title>Node0&#45;&gt;Node10</title>
<g id="a_edge1498_Node000000_Node000010"><a xlink:title=" ">
<path fill="none" stroke="#63b8ff" d="M53.64,-577.89C64.79,-606.61 89.09,-658.85 127,-687.62 131.2,-690.82 135.96,-693.44 140.92,-695.6"/>
<polygon fill="#63b8ff" stroke="#63b8ff" points="57.06,-577.06 50.3,-568.9 50.5,-579.5 57.06,-577.06"/>
</a>
</g>
</g>
<!-- Node11 -->
<g id="Node000011" class="node">
<title>Node11</title>
<g id="a_Node000011"><a xlink:href="classdaLv3Candle__HIO__c.html" target="_top" xlink:title=" ">
<polygon fill="white" stroke="#666666" points="243.5,-678.25 136.75,-678.25 136.75,-659 243.5,-659 243.5,-678.25"/>
<text text-anchor="middle" x="190.12" y="-664.75" font-family="Helvetica,sans-Serif" font-size="10.00">daLv3Candle_HIO_c</text>
</a>
</g>
</g>
<!-- Node0&#45;&gt;Node11 -->
<g id="edge1499_Node000000_Node000011" class="edge">
<title>Node0&#45;&gt;Node11</title>
<g id="a_edge1499_Node000000_Node000011"><a xlink:title=" ">
<path fill="none" stroke="#63b8ff" d="M58.51,-577.28C72.43,-598.44 97.31,-631.61 127,-650.62 131.92,-653.77 137.4,-656.39 143.02,-658.55"/>
<polygon fill="#63b8ff" stroke="#63b8ff" points="61.55,-575.55 53.23,-568.99 55.65,-579.3 61.55,-575.55"/>
</a>
</g>
</g>
<!-- Node12 -->
<g id="Node000012" class="node">
<title>Node12</title>
<g id="a_Node000012"><a xlink:href="classdaLv4Gate__HIO__c.html" target="_top" xlink:title=" ">
<polygon fill="white" stroke="#666666" points="239,-641.25 141.25,-641.25 141.25,-622 239,-622 239,-641.25"/>
<text text-anchor="middle" x="190.12" y="-627.75" font-family="Helvetica,sans-Serif" font-size="10.00">daLv4Gate_HIO_c</text>
</a>
</g>
</g>
<!-- Node0&#45;&gt;Node12 -->
<g id="edge1500_Node000000_Node000012" class="edge">
<title>Node0&#45;&gt;Node12</title>
<g id="a_edge1500_Node000000_Node000012"><a xlink:title=" ">
<path fill="none" stroke="#63b8ff" d="M67.05,-574.75C82.66,-587.03 105.11,-603.19 127,-613.62 133.39,-616.67 140.39,-619.31 147.32,-621.55"/>
<polygon fill="#63b8ff" stroke="#63b8ff" points="69.44,-572.18 59.46,-568.63 65.05,-577.63 69.44,-572.18"/>
</a>
</g>
</g>
<!-- Node13 -->
<g id="Node000013" class="node">
<title>Node13</title>
<g id="a_Node000013"><a xlink:href="classdaLv4HsTarget__HIO__c.html" target="_top" xlink:title=" ">
<polygon fill="white" stroke="#666666" points="248.75,-604.25 131.5,-604.25 131.5,-585 248.75,-585 248.75,-604.25"/>
<text text-anchor="middle" x="190.12" y="-590.75" font-family="Helvetica,sans-Serif" font-size="10.00">daLv4HsTarget_HIO_c</text>
</a>
</g>
</g>
<!-- Node0&#45;&gt;Node13 -->
<g id="edge1501_Node000000_Node000013" class="edge">
<title>Node0&#45;&gt;Node13</title>
<g id="a_edge1501_Node000000_Node000013"><a xlink:title=" ">
<path fill="none" stroke="#63b8ff" d="M96.44,-570.58C114.07,-575.15 133.62,-580.23 150.2,-584.53"/>
<polygon fill="#63b8ff" stroke="#63b8ff" points="97.5,-567.24 86.94,-568.12 95.74,-574.01 97.5,-567.24"/>
</a>
</g>
</g>
<!-- Node14 -->
<g id="Node000014" class="node">
<title>Node14</title>
<g id="a_Node000014"><a xlink:href="classdaLv4PoGate__HIO__c.html" target="_top" xlink:title=" ">
<polygon fill="white" stroke="#666666" points="245,-567.25 135.25,-567.25 135.25,-548 245,-548 245,-567.25"/>
<text text-anchor="middle" x="190.12" y="-553.75" font-family="Helvetica,sans-Serif" font-size="10.00">daLv4PoGate_HIO_c</text>
</a>
</g>
</g>
<!-- Node0&#45;&gt;Node14 -->
<g id="edge1502_Node000000_Node000014" class="edge">
<title>Node0&#45;&gt;Node14</title>
<g id="a_edge1502_Node000000_Node000014"><a xlink:title=" ">
<path fill="none" stroke="#63b8ff" d="M102.52,-557.62C113.13,-557.62 124.22,-557.62 134.78,-557.62"/>
<polygon fill="#63b8ff" stroke="#63b8ff" points="102.75,-554.13 92.75,-557.63 102.75,-561.13 102.75,-554.13"/>
</a>
</g>
</g>
<!-- Node15 -->
<g id="Node000015" class="node">
<title>Node15</title>
<g id="a_Node000015"><a xlink:href="classdaLv6CstaSw__HIO__c.html" target="_top" xlink:title=" ">
<polygon fill="white" stroke="#666666" points="245.75,-530.25 134.5,-530.25 134.5,-511 245.75,-511 245.75,-530.25"/>
<text text-anchor="middle" x="190.12" y="-516.75" font-family="Helvetica,sans-Serif" font-size="10.00">daLv6CstaSw_HIO_c</text>
</a>
</g>
</g>
<!-- Node0&#45;&gt;Node15 -->
<g id="edge1503_Node000000_Node000015" class="edge">
<title>Node0&#45;&gt;Node15</title>
<g id="a_edge1503_Node000000_Node000015"><a xlink:title=" ">
<path fill="none" stroke="#63b8ff" d="M96.44,-544.67C114.07,-540.1 133.62,-535.02 150.2,-530.72"/>
<polygon fill="#63b8ff" stroke="#63b8ff" points="95.74,-541.24 86.94,-547.13 97.5,-548.01 95.74,-541.24"/>
</a>
</g>
</g>
<!-- Node16 -->
<g id="Node000016" class="node">
<title>Node16</title>
<g id="a_Node000016"><a xlink:href="classdaMagLiftRot__HIO__c.html" target="_top" xlink:title=" ">
<polygon fill="white" stroke="#666666" points="244.25,-493.25 136,-493.25 136,-474 244.25,-474 244.25,-493.25"/>
<text text-anchor="middle" x="190.12" y="-479.75" font-family="Helvetica,sans-Serif" font-size="10.00">daMagLiftRot_HIO_c</text>
</a>
</g>
</g>
<!-- Node0&#45;&gt;Node16 -->
<g id="edge1504_Node000000_Node000016" class="edge">
<title>Node0&#45;&gt;Node16</title>
<g id="a_edge1504_Node000000_Node000016"><a xlink:title=" ">
<path fill="none" stroke="#63b8ff" d="M67.05,-540.5C82.66,-528.22 105.11,-512.06 127,-501.62 133.39,-498.58 140.39,-495.94 147.32,-493.7"/>
<polygon fill="#63b8ff" stroke="#63b8ff" points="65.05,-537.62 59.46,-546.62 69.44,-543.07 65.05,-537.62"/>
</a>
</g>
</g>
<!-- Node17 -->
<g id="Node000017" class="node">
<title>Node17</title>
<g id="a_Node000017"><a xlink:href="classdaMyna__HIO__c.html" target="_top" xlink:title=" ">
<polygon fill="white" stroke="#666666" points="231.88,-456.25 148.38,-456.25 148.38,-437 231.88,-437 231.88,-456.25"/>
<text text-anchor="middle" x="190.12" y="-442.75" font-family="Helvetica,sans-Serif" font-size="10.00">daMyna_HIO_c</text>
</a>
</g>
</g>
<!-- Node0&#45;&gt;Node17 -->
<g id="edge1505_Node000000_Node000017" class="edge">
<title>Node0&#45;&gt;Node17</title>
<g id="a_edge1505_Node000000_Node000017"><a xlink:title=" ">
<path fill="none" stroke="#63b8ff" d="M58.51,-537.97C72.43,-516.81 97.31,-483.64 127,-464.62 133.34,-460.57 140.61,-457.4 147.9,-454.94"/>
<polygon fill="#63b8ff" stroke="#63b8ff" points="55.65,-535.95 53.23,-546.26 61.55,-539.7 55.65,-535.95"/>
</a>
</g>
</g>
<!-- Node18 -->
<g id="Node000018" class="node">
<title>Node18</title>
<g id="a_Node000018"><a xlink:href="structdaSaidan__HIO__c.html" target="_top" xlink:title=" ">
<polygon fill="white" stroke="#666666" points="235.25,-419.25 145,-419.25 145,-400 235.25,-400 235.25,-419.25"/>
<text text-anchor="middle" x="190.12" y="-405.75" font-family="Helvetica,sans-Serif" font-size="10.00">daSaidan_HIO_c</text>
</a>
</g>
</g>
<!-- Node0&#45;&gt;Node18 -->
<g id="edge1506_Node000000_Node000018" class="edge">
<title>Node0&#45;&gt;Node18</title>
<g id="a_edge1506_Node000000_Node000018"><a xlink:title=" ">
<path fill="none" stroke="#63b8ff" d="M53.64,-537.36C64.79,-508.64 89.09,-456.4 127,-427.62 132.28,-423.62 138.42,-420.5 144.75,-418.08"/>
<polygon fill="#63b8ff" stroke="#63b8ff" points="50.5,-535.75 50.3,-546.35 57.06,-538.19 50.5,-535.75"/>
</a>
</g>
</g>
<!-- Node19 -->
<g id="Node000019" class="node">
<title>Node19</title>
<g id="a_Node000019"><a xlink:href="classdaSnowEffTag__HIO__c.html" target="_top" xlink:title=" ">
<polygon fill="white" stroke="#666666" points="246.5,-382.25 133.75,-382.25 133.75,-363 246.5,-363 246.5,-382.25"/>
<text text-anchor="middle" x="190.12" y="-368.75" font-family="Helvetica,sans-Serif" font-size="10.00">daSnowEffTag_HIO_c</text>
</a>
</g>
</g>
<!-- Node0&#45;&gt;Node19 -->
<g id="edge1507_Node000000_Node000019" class="edge">
<title>Node0&#45;&gt;Node19</title>
<g id="a_edge1507_Node000000_Node000019"><a xlink:title=" ">
<path fill="none" stroke="#63b8ff" d="M50.76,-536.72C59.07,-501.33 80.83,-429.66 127,-390.62 130.77,-387.44 135.08,-384.81 139.64,-382.65"/>
<polygon fill="#63b8ff" stroke="#63b8ff" points="47.42,-535.62 48.69,-546.14 54.26,-537.12 47.42,-535.62"/>
</a>
</g>
</g>
<!-- Node20 -->
<g id="Node000020" class="node">
<title>Node20</title>
<g id="a_Node000020"><a xlink:href="classdaTagCstaSw__HIO__c.html" target="_top" xlink:title=" ">
<polygon fill="white" stroke="#666666" points="245.75,-345.25 134.5,-345.25 134.5,-326 245.75,-326 245.75,-345.25"/>
<text text-anchor="middle" x="190.12" y="-331.75" font-family="Helvetica,sans-Serif" font-size="10.00">daTagCstaSw_HIO_c</text>
</a>
</g>
</g>
<!-- Node0&#45;&gt;Node20 -->
<g id="edge1508_Node000000_Node000020" class="edge">
<title>Node0&#45;&gt;Node20</title>
<g id="a_edge1508_Node000000_Node000020"><a xlink:title=" ">
<path fill="none" stroke="#63b8ff" d="M48.73,-536.54C54.23,-495.26 72.26,-403.46 127,-353.62 130.49,-350.45 134.5,-347.83 138.78,-345.67"/>
<polygon fill="#63b8ff" stroke="#63b8ff" points="45.27,-536 47.56,-546.34 52.22,-536.83 45.27,-536"/>
</a>
</g>
</g>
<!-- Node21 -->
<g id="Node000021" class="node">
<title>Node21</title>
<g id="a_Node000021"><a xlink:href="classdaTagPoFire__HIO__c.html" target="_top" xlink:title=" ">
<polygon fill="white" stroke="#666666" points="242.75,-308.25 137.5,-308.25 137.5,-289 242.75,-289 242.75,-308.25"/>
<text text-anchor="middle" x="190.12" y="-294.75" font-family="Helvetica,sans-Serif" font-size="10.00">daTagPoFire_HIO_c</text>
</a>
</g>
</g>
<!-- Node0&#45;&gt;Node21 -->
<g id="edge1509_Node000000_Node000021" class="edge">
<title>Node0&#45;&gt;Node21</title>
<g id="a_edge1509_Node000000_Node000021"><a xlink:title=" ">
<path fill="none" stroke="#63b8ff" d="M47.27,-536.33C50.13,-489.63 63.6,-377.51 127,-316.62 130.32,-313.44 134.17,-310.81 138.3,-308.64"/>
<polygon fill="#63b8ff" stroke="#63b8ff" points="43.78,-536 46.78,-546.16 50.77,-536.35 43.78,-536"/>
</a>
</g>
</g>
<!-- Node22 -->
<g id="Node000022" class="node">
<title>Node22</title>
<g id="a_Node000022"><a xlink:href="classdaTbox__HIO__c.html" target="_top" xlink:title=" ">
<polygon fill="white" stroke="#666666" points="230.75,-271.25 149.5,-271.25 149.5,-252 230.75,-252 230.75,-271.25"/>
<text text-anchor="middle" x="190.12" y="-257.75" font-family="Helvetica,sans-Serif" font-size="10.00">daTbox_HIO_c</text>
</a>
</g>
</g>
<!-- Node0&#45;&gt;Node22 -->
<g id="edge1510_Node000000_Node000022" class="edge">
<title>Node0&#45;&gt;Node22</title>
<g id="a_edge1510_Node000000_Node000022"><a xlink:title=" ">
<path fill="none" stroke="#8b1a1a" d="M46.15,-536.3C46.5,-484.66 54.78,-351.85 127,-279.62 133.03,-273.59 140.96,-269.55 149.12,-266.86"/>
<polygon fill="#8b1a1a" stroke="#8b1a1a" points="42.65,-536.09 46.19,-546.08 49.65,-536.06 42.65,-536.09"/>
</a>
</g>
</g>
<!-- Node23 -->
<g id="Node000023" class="node">
<title>Node23</title>
<g id="a_Node000023"><a xlink:href="classdaZrTuraRc__HIO__c.html" target="_top" xlink:title=" ">
<polygon fill="white" stroke="#666666" points="240.5,-234.25 139.75,-234.25 139.75,-215 240.5,-215 240.5,-234.25"/>
<text text-anchor="middle" x="190.12" y="-220.75" font-family="Helvetica,sans-Serif" font-size="10.00">daZrTuraRc_HIO_c</text>
</a>
</g>
</g>
<!-- Node0&#45;&gt;Node23 -->
<g id="edge1511_Node000000_Node000023" class="edge">
<title>Node0&#45;&gt;Node23</title>
<g id="a_edge1511_Node000000_Node000023"><a xlink:title=" ">
<path fill="none" stroke="#63b8ff" d="M49.19,-536.21C57.63,-472.42 85.48,-285.49 127,-242.62 130.59,-238.91 134.9,-235.96 139.55,-233.6"/>
<polygon fill="#63b8ff" stroke="#63b8ff" points="45.73,-535.68 47.92,-546.05 52.68,-536.58 45.73,-535.68"/>
</a>
</g>
</g>
<!-- Node24 -->
<g id="Node000024" class="node">
<title>Node24</title>
<g id="a_Node000024"><a xlink:href="classdaZrTurara__HIO__c.html" target="_top" xlink:title=" ">
<polygon fill="white" stroke="#666666" points="238.62,-197.25 141.62,-197.25 141.62,-178 238.62,-178 238.62,-197.25"/>
<text text-anchor="middle" x="190.12" y="-183.75" font-family="Helvetica,sans-Serif" font-size="10.00">daZrTurara_HIO_c</text>
</a>
</g>
</g>
<!-- Node0&#45;&gt;Node24 -->
<g id="edge1512_Node000000_Node000024" class="edge">
<title>Node0&#45;&gt;Node24</title>
<g id="a_edge1512_Node000000_Node000024"><a xlink:title=" ">
<path fill="none" stroke="#63b8ff" d="M48.55,-536.44C55.59,-467.99 80.9,-254.44 127,-205.62 131.01,-201.38 135.95,-198.12 141.29,-195.61"/>
<polygon fill="#63b8ff" stroke="#63b8ff" points="45.08,-535.97 47.57,-546.27 52.05,-536.67 45.08,-535.97"/>
</a>
</g>
</g>
<!-- Node25 -->
<g id="Node000025" class="node">
<title>Node25</title>
<g id="a_Node000025"><a xlink:href="classdalv4CandleDemoTag__HIO__c.html" target="_top" xlink:title=" ">
<polygon fill="white" stroke="#666666" points="245.75,-159.88 134.5,-159.88 134.5,-129.38 245.75,-129.38 245.75,-159.88"/>
<text text-anchor="start" x="142.5" y="-146.38" font-family="Helvetica,sans-Serif" font-size="10.00">dalv4CandleDemoTag</text>
<text text-anchor="middle" x="190.12" y="-135.12" font-family="Helvetica,sans-Serif" font-size="10.00">_HIO_c</text>
</a>
</g>
</g>
<!-- Node0&#45;&gt;Node25 -->
<g id="edge1513_Node000000_Node000025" class="edge">
<title>Node0&#45;&gt;Node25</title>
<g id="a_edge1513_Node000000_Node000025"><a xlink:title=" ">
<path fill="none" stroke="#63b8ff" d="M48.25,-536.29C54.63,-463.38 78.83,-225.45 127,-168.62 129.69,-165.45 132.85,-162.69 136.3,-160.3"/>
<polygon fill="#63b8ff" stroke="#63b8ff" points="44.78,-535.8 47.42,-546.06 51.76,-536.39 44.78,-535.8"/>
</a>
</g>
</g>
<!-- Node26 -->
<g id="Node000026" class="node">
<title>Node26</title>
<g id="a_Node000026"><a xlink:href="classdalv4CandleTag__HIO__c.html" target="_top" xlink:title=" ">
<polygon fill="white" stroke="#666666" points="249.88,-111.25 130.38,-111.25 130.38,-92 249.88,-92 249.88,-111.25"/>
<text text-anchor="middle" x="190.12" y="-97.75" font-family="Helvetica,sans-Serif" font-size="10.00">dalv4CandleTag_HIO_c</text>
</a>
</g>
</g>
<!-- Node0&#45;&gt;Node26 -->
<g id="edge1514_Node000000_Node000026" class="edge">
<title>Node0&#45;&gt;Node26</title>
<g id="a_edge1514_Node000000_Node000026"><a xlink:title=" ">
<path fill="none" stroke="#63b8ff" d="M47.55,-536.63C51.87,-458.2 70.83,-183.63 127,-120.62 130.23,-117 134.12,-114.06 138.37,-111.68"/>
<polygon fill="#63b8ff" stroke="#63b8ff" points="44.07,-536.16 47.04,-546.33 51.06,-536.53 44.07,-536.16"/>
</a>
</g>
</g>
<!-- Node27 -->
<g id="Node000027" class="node">
<title>Node27</title>
<g id="a_Node000027"><a xlink:href="structfOpAcm__HIO__entry__c.html" target="_top" xlink:title=" ">
<polygon fill="white" stroke="#666666" points="246.12,-74.25 134.12,-74.25 134.12,-55 246.12,-55 246.12,-74.25"/>
<text text-anchor="middle" x="190.12" y="-60.75" font-family="Helvetica,sans-Serif" font-size="10.00">fOpAcm_HIO_entry_c</text>
</a>
</g>
</g>
<!-- Node0&#45;&gt;Node27 -->
<g id="edge1515_Node000000_Node000027" class="edge">
<title>Node0&#45;&gt;Node27</title>
<g id="a_edge1515_Node000000_Node000027"><a xlink:title=" ">
<path fill="none" stroke="#63b8ff" d="M47.19,-536.41C50.29,-453.34 65.7,-151.36 127,-82.62 129.84,-79.44 133.21,-76.8 136.88,-74.63"/>
<polygon fill="#63b8ff" stroke="#63b8ff" points="43.69,-536.16 46.84,-546.28 50.69,-536.41 43.69,-536.16"/>
</a>
</g>
</g>
<!-- Node28 -->
<g id="Node000028" class="node">
<title>Node28</title>
<g id="a_Node000028"><a xlink:href="classdaBmWindow__HIO__c.html" target="_top" xlink:title=" ">
<polygon fill="white" stroke="#666666" points="399,-130.25 289.25,-130.25 289.25,-111 399,-111 399,-130.25"/>
<text text-anchor="middle" x="344.12" y="-116.75" font-family="Helvetica,sans-Serif" font-size="10.00">daBmWindow_HIO_c</text>
</a>
</g>
</g>
<!-- Node27&#45;&gt;Node28 -->
<g id="edge1516_Node000027_Node000028" class="edge">
<title>Node27&#45;&gt;Node28</title>
<g id="a_edge1516_Node000027_Node000028"><a xlink:title=" ">
<path fill="none" stroke="#63b8ff" d="M241.95,-78.32C245.81,-79.67 249.62,-81.11 253.25,-82.62 270.15,-89.66 272.5,-95.25 289.25,-102.62 295.75,-105.49 302.85,-108.16 309.71,-110.53"/>
<polygon fill="#63b8ff" stroke="#63b8ff" points="243.05,-75 232.46,-75.21 240.87,-81.65 243.05,-75"/>
</a>
</g>
</g>
<!-- Node29 -->
<g id="Node000029" class="node">
<title>Node29</title>
<g id="a_Node000029"><a xlink:href="classdaFlorBoad__HIO__c.html" target="_top" xlink:title=" ">
<polygon fill="white" stroke="#666666" points="393.75,-93.25 294.5,-93.25 294.5,-74 393.75,-74 393.75,-93.25"/>
<text text-anchor="middle" x="344.12" y="-79.75" font-family="Helvetica,sans-Serif" font-size="10.00">daFlorBoad_HIO_c</text>
</a>
</g>
</g>
<!-- Node27&#45;&gt;Node29 -->
<g id="edge1517_Node000027_Node000029" class="edge">
<title>Node27&#45;&gt;Node29</title>
<g id="a_edge1517_Node000027_Node000029"><a xlink:title=" ">
<path fill="none" stroke="#63b8ff" d="M257.58,-72.93C269.87,-74.47 282.5,-76.05 294.15,-77.5"/>
<polygon fill="#63b8ff" stroke="#63b8ff" points="258.29,-69.49 247.93,-71.73 257.42,-76.44 258.29,-69.49"/>
</a>
</g>
</g>
<!-- Node30 -->
<g id="Node000030" class="node">
<title>Node30</title>
<g id="a_Node000030"><a xlink:href="classdaIceWall__HIO__c.html" target="_top" xlink:title=" ">
<polygon fill="white" stroke="#666666" points="390.38,-56.25 297.88,-56.25 297.88,-37 390.38,-37 390.38,-56.25"/>
<text text-anchor="middle" x="344.12" y="-42.75" font-family="Helvetica,sans-Serif" font-size="10.00">daIceWall_HIO_c</text>
</a>
</g>
</g>
<!-- Node27&#45;&gt;Node30 -->
<g id="edge1518_Node000027_Node000030" class="edge">
<title>Node27&#45;&gt;Node30</title>
<g id="a_edge1518_Node000027_Node000030"><a xlink:title=" ">
<path fill="none" stroke="#63b8ff" d="M257.63,-56.75C271.13,-55.15 285.02,-53.51 297.59,-52.02"/>
<polygon fill="#63b8ff" stroke="#63b8ff" points="257.45,-53.25 247.93,-57.9 258.28,-60.2 257.45,-53.25"/>
</a>
</g>
</g>
<!-- Node31 -->
<g id="Node000031" class="node">
<title>Node31</title>
<g id="a_Node000031"><a xlink:href="classdaLv5SwIce__HIO__c.html" target="_top" xlink:title=" ">
<polygon fill="white" stroke="#666666" points="396.38,-19.25 291.88,-19.25 291.88,0 396.38,0 396.38,-19.25"/>
<text text-anchor="middle" x="344.12" y="-5.75" font-family="Helvetica,sans-Serif" font-size="10.00">daLv5SwIce_HIO_c</text>
</a>
</g>
</g>
<!-- Node27&#45;&gt;Node31 -->
<g id="edge1519_Node000027_Node000031" class="edge">
<title>Node27&#45;&gt;Node31</title>
<g id="a_edge1519_Node000027_Node000031"><a xlink:title=" ">
<path fill="none" stroke="#63b8ff" d="M227.44,-50.56C245.89,-43.5 268.7,-34.93 289.25,-27.62 296.68,-24.98 304.73,-22.23 312.29,-19.7"/>
<polygon fill="#63b8ff" stroke="#63b8ff" points="226.35,-47.22 218.26,-54.08 228.85,-53.76 226.35,-47.22"/>
</a>
</g>
</g>
</g>
</svg>
