<?xml version="1.0" encoding="UTF-8" standalone="no"?>
<!DOCTYPE svg PUBLIC "-//W3C//DTD SVG 1.1//EN"
 "http://www.w3.org/Graphics/SVG/1.1/DTD/svg11.dtd">
<!-- Generated by graphviz version 9.0.0 (20230911.1827)
 -->
<!-- Title: Graphical Class Hierarchy Pages: 1 -->
<svg width="201pt" height="64pt"
 viewBox="0.00 0.00 201.25 64.25" xmlns="http://www.w3.org/2000/svg" xmlns:xlink="http://www.w3.org/1999/xlink">
<g id="graph0" class="graph" transform="scale(1 1) rotate(0) translate(4 60.25)">
<title>Graphical Class Hierarchy</title>
<!-- Node0 -->
<g id="Node000000" class="node">
<title>Node0</title>
<g id="a_Node000000"><a xlink:href="classcM3dGAab.html" target="_top" xlink:title=" ">
<polygon fill="white" stroke="#666666" points="64.75,-37.25 0,-37.25 0,-18 64.75,-18 64.75,-37.25"/>
<text text-anchor="middle" x="32.38" y="-23.75" font-family="Helvetica,sans-Serif" font-size="10.00">cM3dGAab</text>
</a>
</g>
</g>
<!-- Node1 -->
<g id="Node000001" class="node">
<title>Node1</title>
<g id="a_Node000001"><a xlink:href="classcBgW__NodeTree.html" target="_top" xlink:title=" ">
<polygon fill="white" stroke="#666666" points="192.12,-56.25 101.88,-56.25 101.88,-37 192.12,-37 192.12,-56.25"/>
<text text-anchor="middle" x="147" y="-42.75" font-family="Helvetica,sans-Serif" font-size="10.00">cBgW_NodeTree</text>
</a>
</g>
</g>
<!-- Node0&#45;&gt;Node1 -->
<g id="edge92_Node000000_Node000001" class="edge">
<title>Node0&#45;&gt;Node1</title>
<g id="a_edge92_Node000000_Node000001"><a xlink:title=" ">
<path fill="none" stroke="#63b8ff" d="M76.36,-34.88C84.6,-36.27 93.25,-37.73 101.54,-39.12"/>
<polygon fill="#63b8ff" stroke="#63b8ff" points="76.98,-31.43 66.54,-33.22 75.82,-38.33 76.98,-31.43"/>
</a>
</g>
</g>
<!-- Node2 -->
<g id="Node000002" class="node">
<title>Node2</title>
<g id="a_Node000002"><a xlink:href="classcCcD__DivideArea.html" target="_top" xlink:title=" ">
<polygon fill="white" stroke="#666666" points="193.25,-19.25 100.75,-19.25 100.75,0 193.25,0 193.25,-19.25"/>
<text text-anchor="middle" x="147" y="-5.75" font-family="Helvetica,sans-Serif" font-size="10.00">cCcD_DivideArea</text>
</a>
</g>
</g>
<!-- Node0&#45;&gt;Node2 -->
<g id="edge93_Node000000_Node000002" class="edge">
<title>Node0&#45;&gt;Node2</title>
<g id="a_edge93_Node000000_Node000002"><a xlink:title=" ">
<path fill="none" stroke="#63b8ff" d="M76.23,-20.78C84.09,-19.52 92.33,-18.2 100.28,-16.93"/>
<polygon fill="#63b8ff" stroke="#63b8ff" points="75.86,-17.29 66.54,-22.32 76.97,-24.2 75.86,-17.29"/>
</a>
</g>
</g>
</g>
</svg>
