<?xml version="1.0" encoding="UTF-8" standalone="no"?>
<!DOCTYPE svg PUBLIC "-//W3C//DTD SVG 1.1//EN"
 "http://www.w3.org/Graphics/SVG/1.1/DTD/svg11.dtd">
<!-- Generated by graphviz version 9.0.0 (20230911.1827)
 -->
<!-- Title: Graphical Class Hierarchy Pages: 1 -->
<svg width="204pt" height="64pt"
 viewBox="0.00 0.00 204.25 64.25" xmlns="http://www.w3.org/2000/svg" xmlns:xlink="http://www.w3.org/1999/xlink">
<g id="graph0" class="graph" transform="scale(1 1) rotate(0) translate(4 60.25)">
<title>Graphical Class Hierarchy</title>
<!-- Node0 -->
<g id="Node000000" class="node">
<title>Node0</title>
<g id="a_Node000000"><a xlink:href="classJ2DIndBlock.html" target="_top" xlink:title=" ">
<polygon fill="white" stroke="#666666" points="71.5,-37.25 0,-37.25 0,-18 71.5,-18 71.5,-37.25"/>
<text text-anchor="middle" x="35.75" y="-23.75" font-family="Helvetica,sans-Serif" font-size="10.00">J2DIndBlock</text>
</a>
</g>
</g>
<!-- Node1 -->
<g id="Node000001" class="node">
<title>Node1</title>
<g id="a_Node000001"><a xlink:href="classJ2DIndBlockFull.html" target="_top" xlink:title=" ">
<polygon fill="white" stroke="#666666" points="195.5,-56.25 108.25,-56.25 108.25,-37 195.5,-37 195.5,-56.25"/>
<text text-anchor="middle" x="151.88" y="-42.75" font-family="Helvetica,sans-Serif" font-size="10.00">J2DIndBlockFull</text>
</a>
</g>
</g>
<!-- Node0&#45;&gt;Node1 -->
<g id="edge999_Node000000_Node000001" class="edge">
<title>Node0&#45;&gt;Node1</title>
<g id="a_edge999_Node000000_Node000001"><a xlink:title=" ">
<path fill="none" stroke="#63b8ff" d="M83.22,-35.36C91.41,-36.72 99.9,-38.14 107.98,-39.48"/>
<polygon fill="#63b8ff" stroke="#63b8ff" points="83.85,-31.92 73.42,-33.73 82.7,-38.82 83.85,-31.92"/>
</a>
</g>
</g>
<!-- Node2 -->
<g id="Node000002" class="node">
<title>Node2</title>
<g id="a_Node000002"><a xlink:href="classJ2DIndBlockNull.html" target="_top" xlink:title=" ">
<polygon fill="white" stroke="#666666" points="196.25,-19.25 107.5,-19.25 107.5,0 196.25,0 196.25,-19.25"/>
<text text-anchor="middle" x="151.88" y="-5.75" font-family="Helvetica,sans-Serif" font-size="10.00">J2DIndBlockNull</text>
</a>
</g>
</g>
<!-- Node0&#45;&gt;Node2 -->
<g id="edge1000_Node000000_Node000002" class="edge">
<title>Node0&#45;&gt;Node2</title>
<g id="a_edge1000_Node000000_Node000002"><a xlink:title=" ">
<path fill="none" stroke="#63b8ff" d="M83.23,-20.29C91.14,-19.05 99.33,-17.76 107.16,-16.52"/>
<polygon fill="#63b8ff" stroke="#63b8ff" points="82.75,-16.83 73.42,-21.84 83.84,-23.74 82.75,-16.83"/>
</a>
</g>
</g>
</g>
</svg>
