<?xml version="1.0" encoding="UTF-8" standalone="no"?>
<!DOCTYPE svg PUBLIC "-//W3C//DTD SVG 1.1//EN"
 "http://www.w3.org/Graphics/SVG/1.1/DTD/svg11.dtd">
<!-- Generated by graphviz version 9.0.0 (20230911.1827)
 -->
<!-- Title: Graphical Class Hierarchy Pages: 1 -->
<svg width="300pt" height="64pt"
 viewBox="0.00 0.00 299.50 64.25" xmlns="http://www.w3.org/2000/svg" xmlns:xlink="http://www.w3.org/1999/xlink">
<g id="graph0" class="graph" transform="scale(1 1) rotate(0) translate(4 60.25)">
<title>Graphical Class Hierarchy</title>
<!-- Node0 -->
<g id="Node000000" class="node">
<title>Node0</title>
<g id="a_Node000000"><a xlink:href="structJMessage_1_1TReference.html" target="_top" xlink:title=" ">
<polygon fill="white" stroke="#666666" points="115.75,-37.25 0,-37.25 0,-18 115.75,-18 115.75,-37.25"/>
<text text-anchor="middle" x="57.88" y="-23.75" font-family="Helvetica,sans-Serif" font-size="10.00">JMessage::TReference</text>
</a>
</g>
</g>
<!-- Node1 -->
<g id="Node000001" class="node">
<title>Node1</title>
<g id="a_Node000001"><a xlink:href="structjmessage__string__tReference.html" target="_top" xlink:title=" ">
<polygon fill="white" stroke="#666666" points="291.5,-56.25 151.75,-56.25 151.75,-37 291.5,-37 291.5,-56.25"/>
<text text-anchor="middle" x="221.62" y="-42.75" font-family="Helvetica,sans-Serif" font-size="10.00">jmessage_string_tReference</text>
</a>
</g>
</g>
<!-- Node0&#45;&gt;Node1 -->
<g id="edge1373_Node000000_Node000001" class="edge">
<title>Node0&#45;&gt;Node1</title>
<g id="a_edge1373_Node000000_Node000001"><a xlink:title=" ">
<path fill="none" stroke="#63b8ff" d="M127.1,-35.64C135.12,-36.58 143.31,-37.54 151.35,-38.49"/>
<polygon fill="#63b8ff" stroke="#63b8ff" points="127.75,-32.19 117.41,-34.5 126.93,-39.14 127.75,-32.19"/>
</a>
</g>
</g>
<!-- Node2 -->
<g id="Node000002" class="node">
<title>Node2</title>
<g id="a_Node000002"><a xlink:href="structjmessage__tReference.html" target="_top" xlink:title=" ">
<polygon fill="white" stroke="#666666" points="276.88,-19.25 166.38,-19.25 166.38,0 276.88,0 276.88,-19.25"/>
<text text-anchor="middle" x="221.62" y="-5.75" font-family="Helvetica,sans-Serif" font-size="10.00">jmessage_tReference</text>
</a>
</g>
</g>
<!-- Node0&#45;&gt;Node2 -->
<g id="edge1374_Node000000_Node000002" class="edge">
<title>Node0&#45;&gt;Node2</title>
<g id="a_edge1374_Node000000_Node000002"><a xlink:title=" ">
<path fill="none" stroke="#63b8ff" d="M127.15,-20.03C140.12,-18.58 153.53,-17.09 166.01,-15.7"/>
<polygon fill="#63b8ff" stroke="#63b8ff" points="126.96,-16.53 117.41,-21.11 127.73,-23.48 126.96,-16.53"/>
</a>
</g>
</g>
</g>
</svg>
