<?xml version="1.0" encoding="UTF-8" standalone="no"?>
<!DOCTYPE svg PUBLIC "-//W3C//DTD SVG 1.1//EN"
 "http://www.w3.org/Graphics/SVG/1.1/DTD/svg11.dtd">
<!-- Generated by graphviz version 9.0.0 (20230911.1827)
 -->
<!-- Title: Graphical Class Hierarchy Pages: 1 -->
<svg width="294pt" height="64pt"
 viewBox="0.00 0.00 294.25 64.25" xmlns="http://www.w3.org/2000/svg" xmlns:xlink="http://www.w3.org/1999/xlink">
<g id="graph0" class="graph" transform="scale(1 1) rotate(0) translate(4 60.25)">
<title>Graphical Class Hierarchy</title>
<!-- Node0 -->
<g id="Node000000" class="node">
<title>Node0</title>
<g id="a_Node000000"><a xlink:href="structJAISeqDataMgr.html" target="_top" xlink:title=" ">
<polygon fill="white" stroke="#666666" points="90.25,-56.25 5.25,-56.25 5.25,-37 90.25,-37 90.25,-56.25"/>
<text text-anchor="middle" x="47.75" y="-42.75" font-family="Helvetica,sans-Serif" font-size="10.00">JAISeqDataMgr</text>
</a>
</g>
</g>
<!-- Node1 -->
<g id="Node000001" class="node">
<title>Node1</title>
<g id="a_Node000001"><a xlink:href="classJAUSeqDataMgr__SeqCollection.html" target="_top" xlink:title=" ">
<polygon fill="white" stroke="#666666" points="286.25,-37.25 131.5,-37.25 131.5,-18 286.25,-18 286.25,-37.25"/>
<text text-anchor="middle" x="208.88" y="-23.75" font-family="Helvetica,sans-Serif" font-size="10.00">JAUSeqDataMgr_SeqCollection</text>
</a>
</g>
</g>
<!-- Node0&#45;&gt;Node1 -->
<g id="edge1130_Node000000_Node000001" class="edge">
<title>Node0&#45;&gt;Node1</title>
<g id="a_edge1130_Node000000_Node000001"><a xlink:title=" ">
<path fill="none" stroke="#63b8ff" d="M101.78,-40.29C111.25,-39.16 121.28,-37.96 131.25,-36.77"/>
<polygon fill="#63b8ff" stroke="#63b8ff" points="101.58,-36.79 92.06,-41.45 102.41,-43.74 101.58,-36.79"/>
</a>
</g>
</g>
<!-- Node2 -->
<g id="Node000002" class="node">
<title>Node2</title>
<g id="a_Node000002"><a xlink:href="classJAUSeqCollection.html" target="_top" xlink:title=" ">
<polygon fill="white" stroke="#666666" points="95.5,-19.25 0,-19.25 0,0 95.5,0 95.5,-19.25"/>
<text text-anchor="middle" x="47.75" y="-5.75" font-family="Helvetica,sans-Serif" font-size="10.00">JAUSeqCollection</text>
</a>
</g>
</g>
<!-- Node2&#45;&gt;Node1 -->
<g id="edge1131_Node000002_Node000001" class="edge">
<title>Node2&#45;&gt;Node1</title>
<g id="a_edge1131_Node000002_Node000001"><a xlink:title=" ">
<path fill="none" stroke="#63b8ff" d="M106.94,-16.21C114.83,-17.1 123.03,-18.03 131.18,-18.95"/>
<polygon fill="#63b8ff" stroke="#63b8ff" points="107.47,-12.74 97.14,-15.1 106.68,-19.7 107.47,-12.74"/>
</a>
</g>
</g>
</g>
</svg>
