<?xml version="1.0" encoding="UTF-8" standalone="no"?>
<!DOCTYPE svg PUBLIC "-//W3C//DTD SVG 1.1//EN"
 "http://www.w3.org/Graphics/SVG/1.1/DTD/svg11.dtd">
<!-- Generated by graphviz version 9.0.0 (20230911.1827)
 -->
<!-- Title: Graphical Class Hierarchy Pages: 1 -->
<svg width="828pt" height="138pt"
 viewBox="0.00 0.00 828.25 138.25" xmlns="http://www.w3.org/2000/svg" xmlns:xlink="http://www.w3.org/1999/xlink">
<g id="graph0" class="graph" transform="scale(1 1) rotate(0) translate(4 134.25)">
<title>Graphical Class Hierarchy</title>
<!-- Node0 -->
<g id="Node000000" class="node">
<title>Node0</title>
<g id="a_Node000000"><a xlink:href="classJ3DMtxCalc.html" target="_top" xlink:title=" ">
<polygon fill="white" stroke="#666666" points="68.5,-72.25 0,-72.25 0,-53 68.5,-53 68.5,-72.25"/>
<text text-anchor="middle" x="34.25" y="-58.75" font-family="Helvetica,sans-Serif" font-size="10.00">J3DMtxCalc</text>
</a>
</g>
</g>
<!-- Node1 -->
<g id="Node000001" class="node">
<title>Node1</title>
<g id="a_Node000001"><a xlink:href="classJ3DMtxCalcNoAnmBase.html" target="_top" xlink:title=" ">
<polygon fill="white" stroke="#666666" points="228.5,-72.25 104.5,-72.25 104.5,-53 228.5,-53 228.5,-72.25"/>
<text text-anchor="middle" x="166.5" y="-58.75" font-family="Helvetica,sans-Serif" font-size="10.00">J3DMtxCalcNoAnmBase</text>
</a>
</g>
</g>
<!-- Node0&#45;&gt;Node1 -->
<g id="edge1063_Node000000_Node000001" class="edge">
<title>Node0&#45;&gt;Node1</title>
<g id="a_edge1063_Node000000_Node000001"><a xlink:title=" ">
<path fill="none" stroke="#63b8ff" d="M80.11,-62.62C87.82,-62.62 95.95,-62.62 104.01,-62.62"/>
<polygon fill="#63b8ff" stroke="#63b8ff" points="80.31,-59.13 70.31,-62.63 80.31,-66.13 80.31,-59.13"/>
</a>
</g>
</g>
<!-- Node2 -->
<g id="Node000002" class="node">
<title>Node2</title>
<g id="a_Node000002"><a xlink:href="classJ3DMtxCalcNoAnm.html" target="_top" xlink:title=" ">
<polygon fill="white" stroke="#666666" points="435.75,-108.5 264.5,-108.5 264.5,-66.75 435.75,-66.75 435.75,-108.5"/>
<text text-anchor="start" x="272.5" y="-95" font-family="Helvetica,sans-Serif" font-size="10.00">J3DMtxCalcNoAnm&lt; J3DMtxCalc</text>
<text text-anchor="start" x="272.5" y="-83.75" font-family="Helvetica,sans-Serif" font-size="10.00">CalcTransformMaya, J3DMtxCalcJ3</text>
<text text-anchor="middle" x="350.12" y="-72.5" font-family="Helvetica,sans-Serif" font-size="10.00">DSysInitMaya &gt;</text>
</a>
</g>
</g>
<!-- Node1&#45;&gt;Node2 -->
<g id="edge1064_Node000001_Node000002" class="edge">
<title>Node1&#45;&gt;Node2</title>
<g id="a_edge1064_Node000001_Node000002"><a xlink:title=" ">
<path fill="none" stroke="#63b8ff" d="M240.32,-72.65C248.17,-73.73 256.21,-74.83 264.18,-75.93"/>
<polygon fill="#63b8ff" stroke="#63b8ff" points="240.87,-69.19 230.49,-71.3 239.92,-76.13 240.87,-69.19"/>
</a>
</g>
</g>
<!-- Node9 -->
<g id="Node000009" class="node">
<title>Node9</title>
<g id="a_Node000009"><a xlink:href="classJ3DMtxCalcNoAnm.html" target="_top" xlink:title=" ">
<polygon fill="white" stroke="#666666" points="418.5,-48.25 281.75,-48.25 281.75,-29 418.5,-29 418.5,-48.25"/>
<text text-anchor="middle" x="350.12" y="-34.75" font-family="Helvetica,sans-Serif" font-size="10.00">J3DMtxCalcNoAnm&lt; A, B &gt;</text>
</a>
</g>
</g>
<!-- Node1&#45;&gt;Node9 -->
<g id="edge1071_Node000001_Node000009" class="edge">
<title>Node1&#45;&gt;Node9</title>
<g id="a_edge1071_Node000001_Node000009"><a xlink:title=" ">
<path fill="none" stroke="#63b8ff" d="M240.25,-53.01C253.86,-51.21 268.02,-49.34 281.46,-47.57"/>
<polygon fill="#63b8ff" stroke="#63b8ff" points="239.95,-49.52 230.49,-54.3 240.86,-56.46 239.95,-49.52"/>
</a>
</g>
</g>
<!-- Node3 -->
<g id="Node000003" class="node">
<title>Node3</title>
<g id="a_Node000003"><a xlink:href="structmDoExt__MtxCalcAnmBlendTbl.html" target="_top" xlink:title=" ">
<polygon fill="white" stroke="#666666" points="620.5,-120.25 471.75,-120.25 471.75,-101 620.5,-101 620.5,-120.25"/>
<text text-anchor="middle" x="546.12" y="-106.75" font-family="Helvetica,sans-Serif" font-size="10.00">mDoExt_MtxCalcAnmBlendTbl</text>
</a>
</g>
</g>
<!-- Node2&#45;&gt;Node3 -->
<g id="edge1065_Node000002_Node000003" class="edge">
<title>Node2&#45;&gt;Node3</title>
<g id="a_edge1065_Node000002_Node000003"><a xlink:title=" ">
<path fill="none" stroke="#63b8ff" d="M447.52,-99.05C455.53,-100 463.54,-100.95 471.35,-101.88"/>
<polygon fill="#63b8ff" stroke="#63b8ff" points="448.06,-95.59 437.72,-97.89 447.24,-102.54 448.06,-95.59"/>
</a>
</g>
</g>
<!-- Node5 -->
<g id="Node000005" class="node">
<title>Node5</title>
<g id="a_Node000005"><a xlink:href="classmDoExt__morf__c.html" target="_top" xlink:title=" ">
<polygon fill="white" stroke="#666666" points="588.62,-74.25 503.62,-74.25 503.62,-55 588.62,-55 588.62,-74.25"/>
<text text-anchor="middle" x="546.12" y="-60.75" font-family="Helvetica,sans-Serif" font-size="10.00">mDoExt_morf_c</text>
</a>
</g>
</g>
<!-- Node2&#45;&gt;Node5 -->
<g id="edge1067_Node000002_Node000005" class="edge">
<title>Node2&#45;&gt;Node5</title>
<g id="a_edge1067_Node000002_Node000005"><a xlink:title=" ">
<path fill="none" stroke="#63b8ff" d="M447.42,-76.21C467.04,-73.88 486.71,-71.55 503.2,-69.6"/>
<polygon fill="#63b8ff" stroke="#63b8ff" points="447.24,-72.71 437.72,-77.36 448.06,-79.66 447.24,-72.71"/>
</a>
</g>
</g>
<!-- Node4 -->
<g id="Node000004" class="node">
<title>Node4</title>
<g id="a_Node000004"><a xlink:href="structmDoExt__MtxCalcAnmBlendTblOld.html" target="_top" xlink:title=" ">
<polygon fill="white" stroke="#666666" points="820.25,-130.25 656.5,-130.25 656.5,-111 820.25,-111 820.25,-130.25"/>
<text text-anchor="middle" x="738.38" y="-116.75" font-family="Helvetica,sans-Serif" font-size="10.00">mDoExt_MtxCalcAnmBlendTblOld</text>
</a>
</g>
</g>
<!-- Node3&#45;&gt;Node4 -->
<g id="edge1066_Node000003_Node000004" class="edge">
<title>Node3&#45;&gt;Node4</title>
<g id="a_edge1066_Node000003_Node000004"><a xlink:title=" ">
<path fill="none" stroke="#63b8ff" d="M632.38,-115.11C640.24,-115.52 648.19,-115.94 656.01,-116.35"/>
<polygon fill="#63b8ff" stroke="#63b8ff" points="632.63,-111.61 622.46,-114.59 632.27,-118.61 632.63,-111.61"/>
</a>
</g>
</g>
<!-- Node6 -->
<g id="Node000006" class="node">
<title>Node6</title>
<g id="a_Node000006"><a xlink:href="classmDoExt__McaMorf.html" target="_top" xlink:title=" ">
<polygon fill="white" stroke="#666666" points="785,-93.25 691.75,-93.25 691.75,-74 785,-74 785,-93.25"/>
<text text-anchor="middle" x="738.38" y="-79.75" font-family="Helvetica,sans-Serif" font-size="10.00">mDoExt_McaMorf</text>
</a>
</g>
</g>
<!-- Node5&#45;&gt;Node6 -->
<g id="edge1068_Node000005_Node000006" class="edge">
<title>Node5&#45;&gt;Node6</title>
<g id="a_edge1068_Node000005_Node000006"><a xlink:title=" ">
<path fill="none" stroke="#63b8ff" d="M600.32,-69.94C628.96,-72.8 663.94,-76.29 691.39,-79.03"/>
<polygon fill="#63b8ff" stroke="#63b8ff" points="600.68,-66.46 590.38,-68.95 599.98,-73.42 600.68,-66.46"/>
</a>
</g>
</g>
<!-- Node7 -->
<g id="Node000007" class="node">
<title>Node7</title>
<g id="a_Node000007"><a xlink:href="classmDoExt__McaMorf2.html" target="_top" xlink:title=" ">
<polygon fill="white" stroke="#666666" points="787.62,-56.25 689.12,-56.25 689.12,-37 787.62,-37 787.62,-56.25"/>
<text text-anchor="middle" x="738.38" y="-42.75" font-family="Helvetica,sans-Serif" font-size="10.00">mDoExt_McaMorf2</text>
</a>
</g>
</g>
<!-- Node5&#45;&gt;Node7 -->
<g id="edge1069_Node000005_Node000007" class="edge">
<title>Node5&#45;&gt;Node7</title>
<g id="a_edge1069_Node000005_Node000007"><a xlink:title=" ">
<path fill="none" stroke="#63b8ff" d="M599.98,-59.62C627.74,-57 661.53,-53.8 688.66,-51.23"/>
<polygon fill="#63b8ff" stroke="#63b8ff" points="600.01,-56.11 590.38,-60.53 600.67,-63.07 600.01,-56.11"/>
</a>
</g>
</g>
<!-- Node8 -->
<g id="Node000008" class="node">
<title>Node8</title>
<g id="a_Node000008"><a xlink:href="classmDoExt__McaMorfSO.html" target="_top" xlink:title=" ">
<polygon fill="white" stroke="#666666" points="792.12,-19.25 684.62,-19.25 684.62,0 792.12,0 792.12,-19.25"/>
<text text-anchor="middle" x="738.38" y="-5.75" font-family="Helvetica,sans-Serif" font-size="10.00">mDoExt_McaMorfSO</text>
</a>
</g>
</g>
<!-- Node5&#45;&gt;Node8 -->
<g id="edge1070_Node000005_Node000008" class="edge">
<title>Node5&#45;&gt;Node8</title>
<g id="a_edge1070_Node000005_Node000008"><a xlink:title=" ">
<path fill="none" stroke="#63b8ff" d="M584.98,-50.7C605.89,-43.29 632.44,-34.35 656.5,-27.62 666.61,-24.8 677.53,-22.12 687.98,-19.73"/>
<polygon fill="#63b8ff" stroke="#63b8ff" points="583.95,-47.35 575.72,-54.02 586.31,-53.94 583.95,-47.35"/>
</a>
</g>
</g>
</g>
</svg>
