<?xml version="1.0" encoding="UTF-8" standalone="no"?>
<!DOCTYPE svg PUBLIC "-//W3C//DTD SVG 1.1//EN"
 "http://www.w3.org/Graphics/SVG/1.1/DTD/svg11.dtd">
<!-- Generated by graphviz version 9.0.0 (20230911.1827)
 -->
<!-- Title: Graphical Class Hierarchy Pages: 1 -->
<svg width="704pt" height="199pt"
 viewBox="0.00 0.00 704.25 199.25" xmlns="http://www.w3.org/2000/svg" xmlns:xlink="http://www.w3.org/1999/xlink">
<g id="graph0" class="graph" transform="scale(1 1) rotate(0) translate(4 195.25)">
<title>Graphical Class Hierarchy</title>
<!-- Node0 -->
<g id="Node000000" class="node">
<title>Node0</title>
<g id="a_Node000000"><a xlink:href="structJMessage_1_1TProcessor.html" target="_top" xlink:title=" ">
<polygon fill="white" stroke="#666666" points="115.75,-130.25 0,-130.25 0,-111 115.75,-111 115.75,-130.25"/>
<text text-anchor="middle" x="57.88" y="-116.75" font-family="Helvetica,sans-Serif" font-size="10.00">JMessage::TProcessor</text>
</a>
</g>
</g>
<!-- Node1 -->
<g id="Node000001" class="node">
<title>Node1</title>
<g id="a_Node000001"><a xlink:href="structJMessage_1_1TRenderingProcessor.html" target="_top" xlink:title=" ">
<polygon fill="white" stroke="#666666" points="311,-111.25 151.75,-111.25 151.75,-92 311,-92 311,-111.25"/>
<text text-anchor="middle" x="231.38" y="-97.75" font-family="Helvetica,sans-Serif" font-size="10.00">JMessage::TRenderingProcessor</text>
</a>
</g>
</g>
<!-- Node0&#45;&gt;Node1 -->
<g id="edge1363_Node000000_Node000001" class="edge">
<title>Node0&#45;&gt;Node1</title>
<g id="a_edge1363_Node000000_Node000001"><a xlink:title=" ">
<path fill="none" stroke="#63b8ff" d="M127.42,-113.03C135.35,-112.15 143.48,-111.25 151.53,-110.36"/>
<polygon fill="#63b8ff" stroke="#63b8ff" points="127.04,-109.55 117.49,-114.13 127.81,-116.51 127.04,-109.55"/>
</a>
</g>
</g>
<!-- Node4 -->
<g id="Node000004" class="node">
<title>Node4</title>
<g id="a_Node000004"><a xlink:href="structJMessage_1_1TSequenceProcessor.html" target="_top" xlink:title=" ">
<polygon fill="white" stroke="#666666" points="506.25,-191.25 347,-191.25 347,-172 506.25,-172 506.25,-191.25"/>
<text text-anchor="middle" x="426.62" y="-177.75" font-family="Helvetica,sans-Serif" font-size="10.00">JMessage::TSequenceProcessor</text>
</a>
</g>
</g>
<!-- Node0&#45;&gt;Node4 -->
<g id="edge1370_Node000000_Node000004" class="edge">
<title>Node0&#45;&gt;Node4</title>
<g id="a_edge1370_Node000000_Node000004"><a xlink:title=" ">
<path fill="none" stroke="#63b8ff" d="M127.23,-131.99C195.45,-143.34 299.29,-160.61 364.76,-171.5"/>
<polygon fill="#63b8ff" stroke="#63b8ff" points="128.11,-128.59 117.67,-130.4 126.96,-135.5 128.11,-128.59"/>
</a>
</g>
</g>
<!-- Node2 -->
<g id="Node000002" class="node">
<title>Node2</title>
<g id="a_Node000002"><a xlink:href="structjmessage__string__tMeasureProcessor.html" target="_top" xlink:title=" ">
<polygon fill="white" stroke="#666666" points="493.12,-116.88 360.12,-116.88 360.12,-86.38 493.12,-86.38 493.12,-116.88"/>
<text text-anchor="start" x="368.12" y="-103.38" font-family="Helvetica,sans-Serif" font-size="10.00">jmessage_string_tMeasure</text>
<text text-anchor="middle" x="426.62" y="-92.12" font-family="Helvetica,sans-Serif" font-size="10.00">Processor</text>
</a>
</g>
</g>
<!-- Node1&#45;&gt;Node2 -->
<g id="edge1364_Node000001_Node000002" class="edge">
<title>Node1&#45;&gt;Node2</title>
<g id="a_edge1364_Node000001_Node000002"><a xlink:title=" ">
<path fill="none" stroke="#63b8ff" d="M322.64,-101.62C335.12,-101.62 347.73,-101.62 359.65,-101.62"/>
<polygon fill="#63b8ff" stroke="#63b8ff" points="322.77,-98.13 312.77,-101.63 322.77,-105.13 322.77,-98.13"/>
</a>
</g>
</g>
<!-- Node7 -->
<g id="Node000007" class="node">
<title>Node7</title>
<g id="a_Node000007"><a xlink:href="structjmessage__string__tRenderingProcessor.html" target="_top" xlink:title=" ">
<polygon fill="white" stroke="#666666" points="496.12,-67.88 357.12,-67.88 357.12,-37.38 496.12,-37.38 496.12,-67.88"/>
<text text-anchor="start" x="365.12" y="-54.38" font-family="Helvetica,sans-Serif" font-size="10.00">jmessage_string_tRendering</text>
<text text-anchor="middle" x="426.62" y="-43.12" font-family="Helvetica,sans-Serif" font-size="10.00">Processor</text>
</a>
</g>
</g>
<!-- Node1&#45;&gt;Node7 -->
<g id="edge1366_Node000001_Node000007" class="edge">
<title>Node1&#45;&gt;Node7</title>
<g id="a_edge1366_Node000001_Node000007"><a xlink:title=" ">
<path fill="none" stroke="#63b8ff" d="M282.9,-88.81C307.61,-82.55 337.57,-74.95 363.65,-68.34"/>
<polygon fill="#63b8ff" stroke="#63b8ff" points="282.25,-85.37 273.42,-91.22 283.97,-92.15 282.25,-85.37"/>
</a>
</g>
</g>
<!-- Node6 -->
<g id="Node000006" class="node">
<title>Node6</title>
<g id="a_Node000006"><a xlink:href="structjmessage__tMeasureProcessor.html" target="_top" xlink:title=" ">
<polygon fill="white" stroke="#666666" points="500.62,-154.25 352.62,-154.25 352.62,-135 500.62,-135 500.62,-154.25"/>
<text text-anchor="middle" x="426.62" y="-140.75" font-family="Helvetica,sans-Serif" font-size="10.00">jmessage_tMeasureProcessor</text>
</a>
</g>
</g>
<!-- Node1&#45;&gt;Node6 -->
<g id="edge1367_Node000001_Node000006" class="edge">
<title>Node1&#45;&gt;Node6</title>
<g id="a_edge1367_Node000001_Node000006"><a xlink:title=" ">
<path fill="none" stroke="#63b8ff" d="M288.54,-114.12C317.7,-120.61 352.85,-128.43 380.27,-134.53"/>
<polygon fill="#63b8ff" stroke="#63b8ff" points="289.68,-110.79 279.16,-112.04 288.16,-117.62 289.68,-110.79"/>
</a>
</g>
</g>
<!-- Node8 -->
<g id="Node000008" class="node">
<title>Node8</title>
<g id="a_Node000008"><a xlink:href="structjmessage__tRenderingProcessor.html" target="_top" xlink:title=" ">
<polygon fill="white" stroke="#666666" points="503.62,-19.25 349.62,-19.25 349.62,0 503.62,0 503.62,-19.25"/>
<text text-anchor="middle" x="426.62" y="-5.75" font-family="Helvetica,sans-Serif" font-size="10.00">jmessage_tRenderingProcessor</text>
</a>
</g>
</g>
<!-- Node1&#45;&gt;Node8 -->
<g id="edge1369_Node000001_Node000008" class="edge">
<title>Node1&#45;&gt;Node8</title>
<g id="a_edge1369_Node000001_Node000008"><a xlink:title=" ">
<path fill="none" stroke="#63b8ff" d="M253.87,-84.85C276.04,-68.31 312.2,-43.42 347,-28.62 355.27,-25.11 364.32,-22.16 373.24,-19.72"/>
<polygon fill="#63b8ff" stroke="#63b8ff" points="252.05,-81.83 246.2,-90.67 256.28,-87.41 252.05,-81.83"/>
</a>
</g>
</g>
<!-- Node3 -->
<g id="Node000003" class="node">
<title>Node3</title>
<g id="a_Node000003"><a xlink:href="structjmessage__string__tSequenceProcessor.html" target="_top" xlink:title=" ">
<polygon fill="white" stroke="#666666" points="688.75,-134.88 549.75,-134.88 549.75,-104.38 688.75,-104.38 688.75,-134.88"/>
<text text-anchor="start" x="557.75" y="-121.38" font-family="Helvetica,sans-Serif" font-size="10.00">jmessage_string_tSequence</text>
<text text-anchor="middle" x="619.25" y="-110.12" font-family="Helvetica,sans-Serif" font-size="10.00">Processor</text>
</a>
</g>
</g>
<!-- Node2&#45;&gt;Node3 -->
<g id="edge1365_Node000002_Node000003" class="edge">
<title>Node2&#45;&gt;Node3</title>
<g id="a_edge1365_Node000002_Node000003"><a xlink:title=" ">
<path fill="none" stroke="#63b8ff" d="M504.68,-108.9C519.5,-110.3 534.93,-111.76 549.46,-113.13"/>
<polygon fill="#63b8ff" stroke="#63b8ff" points="505.29,-105.44 495,-107.99 504.63,-112.41 505.29,-105.44"/>
</a>
</g>
</g>
<!-- Node5 -->
<g id="Node000005" class="node">
<title>Node5</title>
<g id="a_Node000005"><a xlink:href="structjmessage__tSequenceProcessor.html" target="_top" xlink:title=" ">
<polygon fill="white" stroke="#666666" points="696.25,-181.25 542.25,-181.25 542.25,-162 696.25,-162 696.25,-181.25"/>
<text text-anchor="middle" x="619.25" y="-167.75" font-family="Helvetica,sans-Serif" font-size="10.00">jmessage_tSequenceProcessor</text>
</a>
</g>
</g>
<!-- Node6&#45;&gt;Node5 -->
<g id="edge1368_Node000006_Node000005" class="edge">
<title>Node6&#45;&gt;Node5</title>
<g id="a_edge1368_Node000006_Node000005"><a xlink:title=" ">
<path fill="none" stroke="#63b8ff" d="M510.01,-156.29C522.25,-158.03 534.78,-159.8 546.77,-161.5"/>
<polygon fill="#63b8ff" stroke="#63b8ff" points="510.77,-152.87 500.38,-154.93 509.79,-159.8 510.77,-152.87"/>
</a>
</g>
</g>
<!-- Node4&#45;&gt;Node3 -->
<g id="edge1371_Node000004_Node000003" class="edge">
<title>Node4&#45;&gt;Node3</title>
<g id="a_edge1371_Node000004_Node000003"><a xlink:title=" ">
<path fill="none" stroke="#63b8ff" d="M488.07,-168.75C494.25,-167.15 500.4,-165.43 506.25,-163.62 532.2,-155.61 560.67,-144.39 582.42,-135.28"/>
<polygon fill="#63b8ff" stroke="#63b8ff" points="487.32,-165.33 478.47,-171.14 489.02,-172.13 487.32,-165.33"/>
</a>
</g>
</g>
<!-- Node4&#45;&gt;Node5 -->
<g id="edge1372_Node000004_Node000005" class="edge">
<title>Node4&#45;&gt;Node5</title>
<g id="a_edge1372_Node000004_Node000005"><a xlink:title=" ">
<path fill="none" stroke="#63b8ff" d="M517.84,-176.89C525.87,-176.47 533.95,-176.05 541.85,-175.63"/>
<polygon fill="#63b8ff" stroke="#63b8ff" points="517.85,-173.39 508.05,-177.41 518.22,-180.38 517.85,-173.39"/>
</a>
</g>
</g>
</g>
</svg>
