<?xml version="1.0" encoding="UTF-8" standalone="no"?>
<!DOCTYPE svg PUBLIC "-//W3C//DTD SVG 1.1//EN"
 "http://www.w3.org/Graphics/SVG/1.1/DTD/svg11.dtd">
<!-- Generated by graphviz version 9.0.0 (20230911.1827)
 -->
<!-- Title: Graphical Class Hierarchy Pages: 1 -->
<svg width="237pt" height="64pt"
 viewBox="0.00 0.00 236.50 64.25" xmlns="http://www.w3.org/2000/svg" xmlns:xlink="http://www.w3.org/1999/xlink">
<g id="graph0" class="graph" transform="scale(1 1) rotate(0) translate(4 60.25)">
<title>Graphical Class Hierarchy</title>
<!-- Node0 -->
<g id="Node000000" class="node">
<title>Node0</title>
<g id="a_Node000000"><a xlink:href="structCPaneMgrAlpha.html" target="_top" xlink:title=" ">
<polygon fill="white" stroke="#666666" points="86.5,-37.25 0,-37.25 0,-18 86.5,-18 86.5,-37.25"/>
<text text-anchor="middle" x="43.25" y="-23.75" font-family="Helvetica,sans-Serif" font-size="10.00">CPaneMgrAlpha</text>
</a>
</g>
</g>
<!-- Node1 -->
<g id="Node000001" class="node">
<title>Node1</title>
<g id="a_Node000001"><a xlink:href="structCPaneMgr.html" target="_top" xlink:title=" ">
<polygon fill="white" stroke="#666666" points="206.38,-56.25 144.62,-56.25 144.62,-37 206.38,-37 206.38,-56.25"/>
<text text-anchor="middle" x="175.5" y="-42.75" font-family="Helvetica,sans-Serif" font-size="10.00">CPaneMgr</text>
</a>
</g>
</g>
<!-- Node0&#45;&gt;Node1 -->
<g id="edge94_Node000000_Node000001" class="edge">
<title>Node0&#45;&gt;Node1</title>
<g id="a_edge94_Node000000_Node000001"><a xlink:title=" ">
<path fill="none" stroke="#63b8ff" d="M98.12,-35.48C113.83,-37.77 130.43,-40.2 144.14,-42.2"/>
<polygon fill="#63b8ff" stroke="#63b8ff" points="98.8,-32.04 88.4,-34.06 97.79,-38.97 98.8,-32.04"/>
</a>
</g>
</g>
<!-- Node2 -->
<g id="Node000002" class="node">
<title>Node2</title>
<g id="a_Node000002"><a xlink:href="classCPaneMgrAlphaMorf.html" target="_top" xlink:title=" ">
<polygon fill="white" stroke="#666666" points="228.5,-19.25 122.5,-19.25 122.5,0 228.5,0 228.5,-19.25"/>
<text text-anchor="middle" x="175.5" y="-5.75" font-family="Helvetica,sans-Serif" font-size="10.00">CPaneMgrAlphaMorf</text>
</a>
</g>
</g>
<!-- Node0&#45;&gt;Node2 -->
<g id="edge95_Node000000_Node000002" class="edge">
<title>Node0&#45;&gt;Node2</title>
<g id="a_edge95_Node000000_Node000002"><a xlink:title=" ">
<path fill="none" stroke="#63b8ff" d="M98.27,-20.16C106.19,-19.07 114.33,-17.94 122.2,-16.85"/>
<polygon fill="#63b8ff" stroke="#63b8ff" points="97.82,-16.69 88.4,-21.52 98.78,-23.62 97.82,-16.69"/>
</a>
</g>
</g>
</g>
</svg>
