<?xml version="1.0" encoding="UTF-8" standalone="no"?>
<!DOCTYPE svg PUBLIC "-//W3C//DTD SVG 1.1//EN"
 "http://www.w3.org/Graphics/SVG/1.1/DTD/svg11.dtd">
<!-- Generated by graphviz version 9.0.0 (20230911.1827)
 -->
<!-- Title: Graphical Class Hierarchy Pages: 1 -->
<svg width="481pt" height="286pt"
 viewBox="0.00 0.00 480.50 286.25" xmlns="http://www.w3.org/2000/svg" xmlns:xlink="http://www.w3.org/1999/xlink">
<g id="graph0" class="graph" transform="scale(1 1) rotate(0) translate(4 282.25)">
<title>Graphical Class Hierarchy</title>
<!-- Node0 -->
<g id="Node000000" class="node">
<title>Node0</title>
<g id="a_Node000000"><a xlink:href="classJPAEmitterCallBack.html" target="_top" xlink:title=" ">
<polygon fill="white" stroke="#666666" points="104.5,-148.25 0,-148.25 0,-129 104.5,-129 104.5,-148.25"/>
<text text-anchor="middle" x="52.25" y="-134.75" font-family="Helvetica,sans-Serif" font-size="10.00">JPAEmitterCallBack</text>
</a>
</g>
</g>
<!-- Node1 -->
<g id="Node000001" class="node">
<title>Node1</title>
<g id="a_Node000001"><a xlink:href="structJStudio__JParticle_1_1TAdaptor__particle_1_1TJPACallback__emitter__.html" target="_top" xlink:title=" ">
<polygon fill="white" stroke="#666666" points="299.75,-208.5 140.5,-208.5 140.5,-166.75 299.75,-166.75 299.75,-208.5"/>
<text text-anchor="start" x="148.5" y="-195" font-family="Helvetica,sans-Serif" font-size="10.00">JStudio_JParticle::</text>
<text text-anchor="start" x="148.5" y="-183.75" font-family="Helvetica,sans-Serif" font-size="10.00">TAdaptor_particle::TJPACallback</text>
<text text-anchor="middle" x="220.12" y="-172.5" font-family="Helvetica,sans-Serif" font-size="10.00">_emitter_</text>
</a>
</g>
</g>
<!-- Node0&#45;&gt;Node1 -->
<g id="edge1378_Node000000_Node000001" class="edge">
<title>Node0&#45;&gt;Node1</title>
<g id="a_edge1378_Node000000_Node000001"><a xlink:title=" ">
<path fill="none" stroke="#63b8ff" d="M98.23,-151.91C113.23,-156.34 130.34,-161.4 146.87,-166.28"/>
<polygon fill="#63b8ff" stroke="#63b8ff" points="99.25,-148.56 88.67,-149.09 97.27,-155.28 99.25,-148.56"/>
</a>
</g>
</g>
<!-- Node2 -->
<g id="Node000002" class="node">
<title>Node2</title>
<g id="a_Node000002"><a xlink:href="classdPa__levelEcallBack.html" target="_top" xlink:title=" ">
<polygon fill="white" stroke="#666666" points="271.25,-148.25 169,-148.25 169,-129 271.25,-129 271.25,-148.25"/>
<text text-anchor="middle" x="220.12" y="-134.75" font-family="Helvetica,sans-Serif" font-size="10.00">dPa_levelEcallBack</text>
</a>
</g>
</g>
<!-- Node0&#45;&gt;Node2 -->
<g id="edge1379_Node000000_Node000002" class="edge">
<title>Node0&#45;&gt;Node2</title>
<g id="a_edge1379_Node000000_Node000002"><a xlink:title=" ">
<path fill="none" stroke="#63b8ff" d="M116.05,-138.62C133.45,-138.62 152.12,-138.62 168.72,-138.62"/>
<polygon fill="#63b8ff" stroke="#63b8ff" points="116.34,-135.13 106.34,-138.63 116.34,-142.13 116.34,-135.13"/>
</a>
</g>
</g>
<!-- Node11 -->
<g id="Node000011" class="node">
<title>Node11</title>
<g id="a_Node000011"><a xlink:href="classdPa__simpleEcallBack.html" target="_top" xlink:title=" ">
<polygon fill="white" stroke="#666666" points="275.38,-111.25 164.88,-111.25 164.88,-92 275.38,-92 275.38,-111.25"/>
<text text-anchor="middle" x="220.12" y="-97.75" font-family="Helvetica,sans-Serif" font-size="10.00">dPa_simpleEcallBack</text>
</a>
</g>
</g>
<!-- Node0&#45;&gt;Node11 -->
<g id="edge1388_Node000000_Node000011" class="edge">
<title>Node0&#45;&gt;Node11</title>
<g id="a_edge1388_Node000000_Node000011"><a xlink:title=" ">
<path fill="none" stroke="#63b8ff" d="M109.59,-126.06C130.54,-121.38 154.02,-116.15 173.85,-111.72"/>
<polygon fill="#63b8ff" stroke="#63b8ff" points="109.05,-122.59 100.05,-128.19 110.58,-129.42 109.05,-122.59"/>
</a>
</g>
</g>
<!-- Node3 -->
<g id="Node000003" class="node">
<title>Node3</title>
<g id="a_Node000003"><a xlink:href="classdPa__followEcallBack.html" target="_top" xlink:title=" ">
<polygon fill="white" stroke="#666666" points="457.88,-278.25 350.38,-278.25 350.38,-259 457.88,-259 457.88,-278.25"/>
<text text-anchor="middle" x="404.12" y="-264.75" font-family="Helvetica,sans-Serif" font-size="10.00">dPa_followEcallBack</text>
</a>
</g>
</g>
<!-- Node2&#45;&gt;Node3 -->
<g id="edge1380_Node000002_Node000003" class="edge">
<title>Node2&#45;&gt;Node3</title>
<g id="a_edge1380_Node000002_Node000003"><a xlink:title=" ">
<path fill="none" stroke="#63b8ff" d="M282.43,-147.07C288.73,-149.73 294.67,-153.18 299.75,-157.62 333.09,-186.83 302.76,-221.03 335.75,-250.62 339.99,-254.43 344.94,-257.44 350.2,-259.82"/>
<polygon fill="#63b8ff" stroke="#63b8ff" points="283.6,-143.77 273.01,-143.78 281.3,-150.38 283.6,-143.77"/>
</a>
</g>
</g>
<!-- Node4 -->
<g id="Node000004" class="node">
<title>Node4</title>
<g id="a_Node000004"><a xlink:href="classdPa__gen__b__light8EcallBack.html" target="_top" xlink:title=" ">
<polygon fill="white" stroke="#666666" points="472.5,-241.25 335.75,-241.25 335.75,-222 472.5,-222 472.5,-241.25"/>
<text text-anchor="middle" x="404.12" y="-227.75" font-family="Helvetica,sans-Serif" font-size="10.00">dPa_gen_b_light8EcallBack</text>
</a>
</g>
</g>
<!-- Node2&#45;&gt;Node4 -->
<g id="edge1381_Node000002_Node000004" class="edge">
<title>Node2&#45;&gt;Node4</title>
<g id="a_edge1381_Node000002_Node000004"><a xlink:title=" ">
<path fill="none" stroke="#63b8ff" d="M282.11,-148.33C288.38,-150.77 294.4,-153.82 299.75,-157.62 323.86,-174.78 311.85,-196.19 335.75,-213.62 340.15,-216.84 345.09,-219.47 350.23,-221.64"/>
<polygon fill="#63b8ff" stroke="#63b8ff" points="283.44,-145.08 272.85,-145.24 281.23,-151.72 283.44,-145.08"/>
</a>
</g>
</g>
<!-- Node5 -->
<g id="Node000005" class="node">
<title>Node5</title>
<g id="a_Node000005"><a xlink:href="classdPa__gen__d__light8EcallBack.html" target="_top" xlink:title=" ">
<polygon fill="white" stroke="#666666" points="472.5,-204.25 335.75,-204.25 335.75,-185 472.5,-185 472.5,-204.25"/>
<text text-anchor="middle" x="404.12" y="-190.75" font-family="Helvetica,sans-Serif" font-size="10.00">dPa_gen_d_light8EcallBack</text>
</a>
</g>
</g>
<!-- Node2&#45;&gt;Node5 -->
<g id="edge1382_Node000002_Node000005" class="edge">
<title>Node2&#45;&gt;Node5</title>
<g id="a_edge1382_Node000002_Node000005"><a xlink:title=" ">
<path fill="none" stroke="#63b8ff" d="M282.06,-151.75C288.1,-153.52 294.09,-155.48 299.75,-157.62 316.67,-164.02 318.9,-170.03 335.75,-176.62 343.3,-179.58 351.52,-182.23 359.53,-184.52"/>
<polygon fill="#63b8ff" stroke="#63b8ff" points="283.21,-148.44 272.64,-149.15 281.35,-155.18 283.21,-148.44"/>
</a>
</g>
</g>
<!-- Node6 -->
<g id="Node000006" class="node">
<title>Node6</title>
<g id="a_Node000006"><a xlink:href="classdPa__hermiteEcallBack__c.html" target="_top" xlink:title=" ">
<polygon fill="white" stroke="#666666" points="466.5,-167.25 341.75,-167.25 341.75,-148 466.5,-148 466.5,-167.25"/>
<text text-anchor="middle" x="404.12" y="-153.75" font-family="Helvetica,sans-Serif" font-size="10.00">dPa_hermiteEcallBack_c</text>
</a>
</g>
</g>
<!-- Node2&#45;&gt;Node6 -->
<g id="edge1383_Node000002_Node000006" class="edge">
<title>Node2&#45;&gt;Node6</title>
<g id="a_edge1383_Node000002_Node000006"><a xlink:title=" ">
<path fill="none" stroke="#63b8ff" d="M282.56,-145.04C301.53,-147.02 322.41,-149.2 341.4,-151.18"/>
<polygon fill="#63b8ff" stroke="#63b8ff" points="283.15,-141.58 272.84,-144.02 282.43,-148.54 283.15,-141.58"/>
</a>
</g>
</g>
<!-- Node7 -->
<g id="Node000007" class="node">
<title>Node7</title>
<g id="a_Node000007"><a xlink:href="classdPa__light8EcallBack.html" target="_top" xlink:title=" ">
<polygon fill="white" stroke="#666666" points="456.75,-130.25 351.5,-130.25 351.5,-111 456.75,-111 456.75,-130.25"/>
<text text-anchor="middle" x="404.12" y="-116.75" font-family="Helvetica,sans-Serif" font-size="10.00">dPa_light8EcallBack</text>
</a>
</g>
</g>
<!-- Node2&#45;&gt;Node7 -->
<g id="edge1384_Node000002_Node000007" class="edge">
<title>Node2&#45;&gt;Node7</title>
<g id="a_edge1384_Node000002_Node000007"><a xlink:title=" ">
<path fill="none" stroke="#63b8ff" d="M282.7,-132.53C304.95,-130.33 329.83,-127.87 351.17,-125.76"/>
<polygon fill="#63b8ff" stroke="#63b8ff" points="282.45,-129.04 272.85,-133.51 283.14,-136.01 282.45,-129.04"/>
</a>
</g>
</g>
<!-- Node8 -->
<g id="Node000008" class="node">
<title>Node8</title>
<g id="a_Node000008"><a xlink:href="classdPa__modelEcallBack.html" target="_top" xlink:title=" ">
<polygon fill="white" stroke="#666666" points="458.25,-93.25 350,-93.25 350,-74 458.25,-74 458.25,-93.25"/>
<text text-anchor="middle" x="404.12" y="-79.75" font-family="Helvetica,sans-Serif" font-size="10.00">dPa_modelEcallBack</text>
</a>
</g>
</g>
<!-- Node2&#45;&gt;Node8 -->
<g id="edge1385_Node000002_Node000008" class="edge">
<title>Node2&#45;&gt;Node8</title>
<g id="a_edge1385_Node000002_Node000008"><a xlink:title=" ">
<path fill="none" stroke="#63b8ff" d="M282.33,-126.27C288.28,-124.57 294.17,-122.7 299.75,-120.62 316.71,-114.33 318.9,-108.22 335.75,-101.62 343.3,-98.67 351.52,-96.02 359.53,-93.73"/>
<polygon fill="#63b8ff" stroke="#63b8ff" points="281.84,-122.78 273.07,-128.73 283.64,-129.54 281.84,-122.78"/>
</a>
</g>
</g>
<!-- Node9 -->
<g id="Node000009" class="node">
<title>Node9</title>
<g id="a_Node000009"><a xlink:href="classdPa__selectTexEcallBack.html" target="_top" xlink:title=" ">
<polygon fill="white" stroke="#666666" points="466.12,-56.25 342.12,-56.25 342.12,-37 466.12,-37 466.12,-56.25"/>
<text text-anchor="middle" x="404.12" y="-42.75" font-family="Helvetica,sans-Serif" font-size="10.00">dPa_selectTexEcallBack</text>
</a>
</g>
</g>
<!-- Node2&#45;&gt;Node9 -->
<g id="edge1386_Node000002_Node000009" class="edge">
<title>Node2&#45;&gt;Node9</title>
<g id="a_edge1386_Node000002_Node000009"><a xlink:title=" ">
<path fill="none" stroke="#63b8ff" d="M282.1,-129.75C288.37,-127.38 294.39,-124.39 299.75,-120.62 323.96,-103.62 311.85,-82.06 335.75,-64.62 340.15,-61.41 345.09,-58.78 350.23,-56.61"/>
<polygon fill="#63b8ff" stroke="#63b8ff" points="281.28,-126.34 272.83,-132.72 283.42,-133 281.28,-126.34"/>
</a>
</g>
</g>
<!-- Node10 -->
<g id="Node000010" class="node">
<title>Node10</title>
<g id="a_Node000010"><a xlink:href="classdPa__setColorEcallBack.html" target="_top" xlink:title=" ">
<polygon fill="white" stroke="#666666" points="463.12,-19.25 345.12,-19.25 345.12,0 463.12,0 463.12,-19.25"/>
<text text-anchor="middle" x="404.12" y="-5.75" font-family="Helvetica,sans-Serif" font-size="10.00">dPa_setColorEcallBack</text>
</a>
</g>
</g>
<!-- Node2&#45;&gt;Node10 -->
<g id="edge1387_Node000002_Node000010" class="edge">
<title>Node2&#45;&gt;Node10</title>
<g id="a_edge1387_Node000002_Node000010"><a xlink:title=" ">
<path fill="none" stroke="#63b8ff" d="M282.41,-131C288.71,-128.41 294.66,-125.03 299.75,-120.62 333.27,-91.62 302.76,-57.22 335.75,-27.62 339.26,-24.47 343.27,-21.86 347.54,-19.7"/>
<polygon fill="#63b8ff" stroke="#63b8ff" points="281.34,-127.67 272.98,-134.18 283.58,-134.3 281.34,-127.67"/>
</a>
</g>
</g>
</g>
</svg>
