<?xml version="1.0" encoding="UTF-8" standalone="no"?>
<!DOCTYPE svg PUBLIC "-//W3C//DTD SVG 1.1//EN"
 "http://www.w3.org/Graphics/SVG/1.1/DTD/svg11.dtd">
<!-- Generated by graphviz version 9.0.0 (20230911.1827)
 -->
<!-- Title: Graphical Class Hierarchy Pages: 1 -->
<svg width="285pt" height="64pt"
 viewBox="0.00 0.00 284.75 64.25" xmlns="http://www.w3.org/2000/svg" xmlns:xlink="http://www.w3.org/1999/xlink">
<g id="graph0" class="graph" transform="scale(1 1) rotate(0) translate(4 60.25)">
<title>Graphical Class Hierarchy</title>
<!-- Node0 -->
<g id="Node000000" class="node">
<title>Node0</title>
<g id="a_Node000000"><a xlink:href="structcCcD__GStts.html" target="_top" xlink:title=" ">
<polygon fill="white" stroke="#666666" points="70.75,-56.25 0,-56.25 0,-37 70.75,-37 70.75,-56.25"/>
<text text-anchor="middle" x="35.38" y="-42.75" font-family="Helvetica,sans-Serif" font-size="10.00">cCcD_GStts</text>
</a>
</g>
</g>
<!-- Node1 -->
<g id="Node000001" class="node">
<title>Node1</title>
<g id="a_Node000001"><a xlink:href="structdCcD__GStts.html" target="_top" xlink:title=" ">
<polygon fill="white" stroke="#666666" points="177.5,-56.25 106.75,-56.25 106.75,-37 177.5,-37 177.5,-56.25"/>
<text text-anchor="middle" x="142.12" y="-42.75" font-family="Helvetica,sans-Serif" font-size="10.00">dCcD_GStts</text>
</a>
</g>
</g>
<!-- Node0&#45;&gt;Node1 -->
<g id="edge84_Node000000_Node000001" class="edge">
<title>Node0&#45;&gt;Node1</title>
<g id="a_edge84_Node000000_Node000001"><a xlink:title=" ">
<path fill="none" stroke="#63b8ff" d="M82.27,-46.62C90.43,-46.62 98.8,-46.62 106.57,-46.62"/>
<polygon fill="#63b8ff" stroke="#63b8ff" points="82.48,-43.13 72.48,-46.63 82.48,-50.13 82.48,-43.13"/>
</a>
</g>
</g>
<!-- Node2 -->
<g id="Node000002" class="node">
<title>Node2</title>
<g id="a_Node000002"><a xlink:href="structdCcD__Stts.html" target="_top" xlink:title=" ">
<polygon fill="white" stroke="#666666" points="276.75,-37.25 213.5,-37.25 213.5,-18 276.75,-18 276.75,-37.25"/>
<text text-anchor="middle" x="245.12" y="-23.75" font-family="Helvetica,sans-Serif" font-size="10.00">dCcD_Stts</text>
</a>
</g>
</g>
<!-- Node1&#45;&gt;Node2 -->
<g id="edge85_Node000001_Node000002" class="edge">
<title>Node1&#45;&gt;Node2</title>
<g id="a_edge85_Node000001_Node000002"><a xlink:title=" ">
<path fill="none" stroke="#63b8ff" d="M189.13,-37.97C197.22,-36.45 205.46,-34.9 213.02,-33.48"/>
<polygon fill="#63b8ff" stroke="#63b8ff" points="188.55,-34.52 179.37,-39.81 189.85,-41.4 188.55,-34.52"/>
</a>
</g>
</g>
<!-- Node3 -->
<g id="Node000003" class="node">
<title>Node3</title>
<g id="a_Node000003"><a xlink:href="structcCcD__Stts.html" target="_top" xlink:title=" ">
<polygon fill="white" stroke="#666666" points="173.75,-19.25 110.5,-19.25 110.5,0 173.75,0 173.75,-19.25"/>
<text text-anchor="middle" x="142.12" y="-5.75" font-family="Helvetica,sans-Serif" font-size="10.00">cCcD_Stts</text>
</a>
</g>
</g>
<!-- Node3&#45;&gt;Node2 -->
<g id="edge86_Node000003_Node000002" class="edge">
<title>Node3&#45;&gt;Node2</title>
<g id="a_edge86_Node000003_Node000002"><a xlink:title=" ">
<path fill="none" stroke="#63b8ff" d="M185.12,-17.11C194.5,-18.78 204.28,-20.52 213.11,-22.1"/>
<polygon fill="#63b8ff" stroke="#63b8ff" points="185.93,-13.7 175.47,-15.39 184.7,-20.59 185.93,-13.7"/>
</a>
</g>
</g>
</g>
</svg>
