<?xml version="1.0" encoding="UTF-8" standalone="no"?>
<!DOCTYPE svg PUBLIC "-//W3C//DTD SVG 1.1//EN"
 "http://www.w3.org/Graphics/SVG/1.1/DTD/svg11.dtd">
<!-- Generated by graphviz version 9.0.0 (20230911.1827)
 -->
<!-- Title: Graphical Class Hierarchy Pages: 1 -->
<svg width="443pt" height="125pt"
 viewBox="0.00 0.00 443.00 124.88" xmlns="http://www.w3.org/2000/svg" xmlns:xlink="http://www.w3.org/1999/xlink">
<g id="graph0" class="graph" transform="scale(1 1) rotate(0) translate(4 120.88)">
<title>Graphical Class Hierarchy</title>
<!-- Node0 -->
<g id="Node000000" class="node">
<title>Node0</title>
<g id="a_Node000000"><a xlink:href="structJStudio_1_1TCreateObject.html" target="_top" xlink:title=" ">
<polygon fill="white" stroke="#666666" points="116.5,-62.25 0,-62.25 0,-43 116.5,-43 116.5,-62.25"/>
<text text-anchor="middle" x="58.25" y="-48.75" font-family="Helvetica,sans-Serif" font-size="10.00">JStudio::TCreateObject</text>
</a>
</g>
</g>
<!-- Node1 -->
<g id="Node000001" class="node">
<title>Node1</title>
<g id="a_Node000001"><a xlink:href="structJStudio__JAudio2_1_1TCreateObject.html" target="_top" xlink:title=" ">
<polygon fill="white" stroke="#666666" points="293,-116.88 164.5,-116.88 164.5,-86.38 293,-86.38 293,-116.88"/>
<text text-anchor="start" x="172.5" y="-103.38" font-family="Helvetica,sans-Serif" font-size="10.00">JStudio_JAudio2::TCreate</text>
<text text-anchor="middle" x="228.75" y="-92.12" font-family="Helvetica,sans-Serif" font-size="10.00">Object</text>
</a>
</g>
</g>
<!-- Node0&#45;&gt;Node1 -->
<g id="edge1448_Node000000_Node000001" class="edge">
<title>Node0&#45;&gt;Node1</title>
<g id="a_edge1448_Node000000_Node000001"><a xlink:title=" ">
<path fill="none" stroke="#63b8ff" d="M104.77,-65.86C126.02,-72.04 151.49,-79.45 173.72,-85.91"/>
<polygon fill="#63b8ff" stroke="#63b8ff" points="105.79,-62.51 95.21,-63.08 103.83,-69.23 105.79,-62.51"/>
</a>
</g>
</g>
<!-- Node2 -->
<g id="Node000002" class="node">
<title>Node2</title>
<g id="a_Node000002"><a xlink:href="structJStudio__JParticle_1_1TCreateObject.html" target="_top" xlink:title=" ">
<polygon fill="white" stroke="#666666" points="277.25,-67.88 180.25,-67.88 180.25,-37.38 277.25,-37.38 277.25,-67.88"/>
<text text-anchor="start" x="188.25" y="-54.38" font-family="Helvetica,sans-Serif" font-size="10.00">JStudio_JParticle::</text>
<text text-anchor="middle" x="228.75" y="-43.12" font-family="Helvetica,sans-Serif" font-size="10.00">TCreateObject</text>
</a>
</g>
</g>
<!-- Node0&#45;&gt;Node2 -->
<g id="edge1449_Node000000_Node000002" class="edge">
<title>Node0&#45;&gt;Node2</title>
<g id="a_edge1449_Node000000_Node000002"><a xlink:title=" ">
<path fill="none" stroke="#63b8ff" d="M128.07,-52.62C145.51,-52.62 163.87,-52.62 180.01,-52.62"/>
<polygon fill="#63b8ff" stroke="#63b8ff" points="128.28,-49.13 118.28,-52.63 128.28,-56.13 128.28,-49.13"/>
</a>
</g>
</g>
<!-- Node4 -->
<g id="Node000004" class="node">
<title>Node4</title>
<g id="a_Node000004"><a xlink:href="structJStudio__JStage_1_1TCreateObject.html" target="_top" xlink:title=" ">
<polygon fill="white" stroke="#666666" points="305,-19.25 152.5,-19.25 152.5,0 305,0 305,-19.25"/>
<text text-anchor="middle" x="228.75" y="-5.75" font-family="Helvetica,sans-Serif" font-size="10.00">JStudio_JStage::TCreateObject</text>
</a>
</g>
</g>
<!-- Node0&#45;&gt;Node4 -->
<g id="edge1451_Node000000_Node000004" class="edge">
<title>Node0&#45;&gt;Node4</title>
<g id="a_edge1451_Node000000_Node000004"><a xlink:title=" ">
<path fill="none" stroke="#63b8ff" d="M109.18,-39.73C123.19,-36.12 138.44,-32.21 152.5,-28.62 163.86,-25.73 176.19,-22.61 187.52,-19.75"/>
<polygon fill="#63b8ff" stroke="#63b8ff" points="108.53,-36.28 99.72,-42.17 110.28,-43.06 108.53,-36.28"/>
</a>
</g>
</g>
<!-- Node3 -->
<g id="Node000003" class="node">
<title>Node3</title>
<g id="a_Node000003"><a xlink:href="classdDemo__particle__c.html" target="_top" xlink:title=" ">
<polygon fill="white" stroke="#666666" points="435,-62.25 341,-62.25 341,-43 435,-43 435,-62.25"/>
<text text-anchor="middle" x="388" y="-48.75" font-family="Helvetica,sans-Serif" font-size="10.00">dDemo_particle_c</text>
</a>
</g>
</g>
<!-- Node2&#45;&gt;Node3 -->
<g id="edge1450_Node000002_Node000003" class="edge">
<title>Node2&#45;&gt;Node3</title>
<g id="a_edge1450_Node000002_Node000003"><a xlink:title=" ">
<path fill="none" stroke="#63b8ff" d="M288.45,-52.62C305.68,-52.62 324.28,-52.62 340.64,-52.62"/>
<polygon fill="#63b8ff" stroke="#63b8ff" points="288.87,-49.13 278.87,-52.63 288.87,-56.13 288.87,-49.13"/>
</a>
</g>
</g>
</g>
</svg>
