<?xml version="1.0" encoding="UTF-8" standalone="no"?>
<!DOCTYPE svg PUBLIC "-//W3C//DTD SVG 1.1//EN"
 "http://www.w3.org/Graphics/SVG/1.1/DTD/svg11.dtd">
<!-- Generated by graphviz version 9.0.0 (20230911.1827)
 -->
<!-- Title: Graphical Class Hierarchy Pages: 1 -->
<svg width="171pt" height="64pt"
 viewBox="0.00 0.00 171.25 64.25" xmlns="http://www.w3.org/2000/svg" xmlns:xlink="http://www.w3.org/1999/xlink">
<g id="graph0" class="graph" transform="scale(1 1) rotate(0) translate(4 60.25)">
<title>Graphical Class Hierarchy</title>
<!-- Node0 -->
<g id="Node000000" class="node">
<title>Node0</title>
<g id="a_Node000000"><a xlink:href="structJASInst.html" target="_top" xlink:title=" ">
<polygon fill="white" stroke="#666666" points="51.25,-37.25 0,-37.25 0,-18 51.25,-18 51.25,-37.25"/>
<text text-anchor="middle" x="25.62" y="-23.75" font-family="Helvetica,sans-Serif" font-size="10.00">JASInst</text>
</a>
</g>
</g>
<!-- Node1 -->
<g id="Node000001" class="node">
<title>Node1</title>
<g id="a_Node000001"><a xlink:href="structJASBasicInst.html" target="_top" xlink:title=" ">
<polygon fill="white" stroke="#666666" points="163.25,-56.25 87.25,-56.25 87.25,-37 163.25,-37 163.25,-56.25"/>
<text text-anchor="middle" x="125.25" y="-42.75" font-family="Helvetica,sans-Serif" font-size="10.00">JASBasicInst</text>
</a>
</g>
</g>
<!-- Node0&#45;&gt;Node1 -->
<g id="edge1306_Node000000_Node000001" class="edge">
<title>Node0&#45;&gt;Node1</title>
<g id="a_edge1306_Node000000_Node000001"><a xlink:title=" ">
<path fill="none" stroke="#63b8ff" d="M62.63,-34.63C70.53,-36.17 78.91,-37.8 86.86,-39.35"/>
<polygon fill="#63b8ff" stroke="#63b8ff" points="63.48,-31.23 53,-32.76 62.15,-38.1 63.48,-31.23"/>
</a>
</g>
</g>
<!-- Node2 -->
<g id="Node000002" class="node">
<title>Node2</title>
<g id="a_Node000002"><a xlink:href="structJASDrumSet.html" target="_top" xlink:title=" ">
<polygon fill="white" stroke="#666666" points="161.75,-19.25 88.75,-19.25 88.75,0 161.75,0 161.75,-19.25"/>
<text text-anchor="middle" x="125.25" y="-5.75" font-family="Helvetica,sans-Serif" font-size="10.00">JASDrumSet</text>
</a>
</g>
</g>
<!-- Node0&#45;&gt;Node2 -->
<g id="edge1307_Node000000_Node000002" class="edge">
<title>Node0&#45;&gt;Node2</title>
<g id="a_edge1307_Node000000_Node000002"><a xlink:title=" ">
<path fill="none" stroke="#63b8ff" d="M62.83,-20.95C71.17,-19.41 80.03,-17.78 88.35,-16.24"/>
<polygon fill="#63b8ff" stroke="#63b8ff" points="62.2,-17.51 53,-22.76 63.47,-24.39 62.2,-17.51"/>
</a>
</g>
</g>
</g>
</svg>
