<?xml version="1.0" encoding="UTF-8" standalone="no"?>
<!DOCTYPE svg PUBLIC "-//W3C//DTD SVG 1.1//EN"
 "http://www.w3.org/Graphics/SVG/1.1/DTD/svg11.dtd">
<!-- Generated by graphviz version 9.0.0 (20230911.1827)
 -->
<!-- Title: Graphical Class Hierarchy Pages: 1 -->
<svg width="208pt" height="76pt"
 viewBox="0.00 0.00 208.00 75.88" xmlns="http://www.w3.org/2000/svg" xmlns:xlink="http://www.w3.org/1999/xlink">
<g id="graph0" class="graph" transform="scale(1 1) rotate(0) translate(4 71.88)">
<title>Graphical Class Hierarchy</title>
<!-- Node0 -->
<g id="Node000000" class="node">
<title>Node0</title>
<g id="a_Node000000"><a xlink:href="classJAIAudible.html" target="_top" xlink:title=" ">
<polygon fill="white" stroke="#666666" points="83.88,-67.88 20.62,-67.88 20.62,-48.62 83.88,-48.62 83.88,-67.88"/>
<text text-anchor="middle" x="52.25" y="-54.38" font-family="Helvetica,sans-Serif" font-size="10.00">JAIAudible</text>
</a>
</g>
</g>
<!-- Node1 -->
<g id="Node000001" class="node">
<title>Node1</title>
<g id="a_Node000001"><a xlink:href="structZ2Audible.html" target="_top" xlink:title=" ">
<polygon fill="white" stroke="#666666" points="200,-45.88 140.5,-45.88 140.5,-26.62 200,-26.62 200,-45.88"/>
<text text-anchor="middle" x="170.25" y="-32.38" font-family="Helvetica,sans-Serif" font-size="10.00">Z2Audible</text>
</a>
</g>
</g>
<!-- Node0&#45;&gt;Node1 -->
<g id="edge1126_Node000000_Node000001" class="edge">
<title>Node0&#45;&gt;Node1</title>
<g id="a_edge1126_Node000000_Node000001"><a xlink:title=" ">
<path fill="none" stroke="#63b8ff" d="M95.32,-50.27C110.17,-47.45 126.53,-44.35 140.07,-41.78"/>
<polygon fill="#63b8ff" stroke="#63b8ff" points="95,-46.77 85.82,-52.07 96.3,-53.65 95,-46.77"/>
</a>
</g>
</g>
<!-- Node2 -->
<g id="Node000002" class="node">
<title>Node2</title>
<g id="a_Node000002"><a xlink:href="classJASPoolAllocObject.html" target="_top" xlink:title=" ">
<polygon fill="white" stroke="#666666" points="104.5,-30.5 0,-30.5 0,0 104.5,0 104.5,-30.5"/>
<text text-anchor="start" x="8" y="-17" font-family="Helvetica,sans-Serif" font-size="10.00">JASPoolAllocObject</text>
<text text-anchor="middle" x="52.25" y="-5.75" font-family="Helvetica,sans-Serif" font-size="10.00">&lt; Z2Audible &gt;</text>
</a>
</g>
</g>
<!-- Node2&#45;&gt;Node1 -->
<g id="edge1127_Node000002_Node000001" class="edge">
<title>Node2&#45;&gt;Node1</title>
<g id="a_edge1127_Node000002_Node000001"><a xlink:title=" ">
<path fill="none" stroke="#63b8ff" d="M115.91,-26.59C124.35,-28.12 132.65,-29.62 140.1,-30.97"/>
<polygon fill="#63b8ff" stroke="#63b8ff" points="116.76,-23.19 106.29,-24.85 115.51,-30.08 116.76,-23.19"/>
</a>
</g>
</g>
</g>
</svg>
