<?xml version="1.0" encoding="UTF-8" standalone="no"?>
<!DOCTYPE svg PUBLIC "-//W3C//DTD SVG 1.1//EN"
 "http://www.w3.org/Graphics/SVG/1.1/DTD/svg11.dtd">
<!-- Generated by graphviz version 9.0.0 (20230911.1827)
 -->
<!-- Title: Graphical Class Hierarchy Pages: 1 -->
<svg width="204pt" height="175pt"
 viewBox="0.00 0.00 203.50 175.25" xmlns="http://www.w3.org/2000/svg" xmlns:xlink="http://www.w3.org/1999/xlink">
<g id="graph0" class="graph" transform="scale(1 1) rotate(0) translate(4 171.25)">
<title>Graphical Class Hierarchy</title>
<!-- Node0 -->
<g id="Node000000" class="node">
<title>Node0</title>
<g id="a_Node000000"><a xlink:href="classJ2DTevBlock.html" target="_top" xlink:title=" ">
<polygon fill="white" stroke="#666666" points="74.5,-93.25 0,-93.25 0,-74 74.5,-74 74.5,-93.25"/>
<text text-anchor="middle" x="37.25" y="-79.75" font-family="Helvetica,sans-Serif" font-size="10.00">J2DTevBlock</text>
</a>
</g>
</g>
<!-- Node1 -->
<g id="Node000001" class="node">
<title>Node1</title>
<g id="a_Node000001"><a xlink:href="classJ2DTevBlock1.html" target="_top" xlink:title=" ">
<polygon fill="white" stroke="#666666" points="192.88,-167.25 113.12,-167.25 113.12,-148 192.88,-148 192.88,-167.25"/>
<text text-anchor="middle" x="153" y="-153.75" font-family="Helvetica,sans-Serif" font-size="10.00">J2DTevBlock1</text>
</a>
</g>
</g>
<!-- Node0&#45;&gt;Node1 -->
<g id="edge1008_Node000000_Node000001" class="edge">
<title>Node0&#45;&gt;Node1</title>
<g id="a_edge1008_Node000000_Node000001"><a xlink:title=" ">
<path fill="none" stroke="#63b8ff" d="M57.7,-100.87C71.72,-112.75 91.45,-128.35 110.5,-139.62 115.37,-142.5 120.78,-145.19 126.04,-147.56"/>
<polygon fill="#63b8ff" stroke="#63b8ff" points="60.38,-98.56 50.52,-94.68 55.8,-103.86 60.38,-98.56"/>
</a>
</g>
</g>
<!-- Node2 -->
<g id="Node000002" class="node">
<title>Node2</title>
<g id="a_Node000002"><a xlink:href="classJ2DTevBlock16.html" target="_top" xlink:title=" ">
<polygon fill="white" stroke="#666666" points="195.5,-130.25 110.5,-130.25 110.5,-111 195.5,-111 195.5,-130.25"/>
<text text-anchor="middle" x="153" y="-116.75" font-family="Helvetica,sans-Serif" font-size="10.00">J2DTevBlock16</text>
</a>
</g>
</g>
<!-- Node0&#45;&gt;Node2 -->
<g id="edge1009_Node000000_Node000002" class="edge">
<title>Node0&#45;&gt;Node2</title>
<g id="a_edge1009_Node000000_Node000002"><a xlink:title=" ">
<path fill="none" stroke="#63b8ff" d="M79.89,-97.17C93.47,-101.59 108.29,-106.41 120.95,-110.53"/>
<polygon fill="#63b8ff" stroke="#63b8ff" points="81.36,-93.97 70.77,-94.2 79.2,-100.63 81.36,-93.97"/>
</a>
</g>
</g>
<!-- Node3 -->
<g id="Node000003" class="node">
<title>Node3</title>
<g id="a_Node000003"><a xlink:href="classJ2DTevBlock2.html" target="_top" xlink:title=" ">
<polygon fill="white" stroke="#666666" points="192.88,-93.25 113.12,-93.25 113.12,-74 192.88,-74 192.88,-93.25"/>
<text text-anchor="middle" x="153" y="-79.75" font-family="Helvetica,sans-Serif" font-size="10.00">J2DTevBlock2</text>
</a>
</g>
</g>
<!-- Node0&#45;&gt;Node3 -->
<g id="edge1010_Node000000_Node000003" class="edge">
<title>Node0&#45;&gt;Node3</title>
<g id="a_edge1010_Node000000_Node000003"><a xlink:title=" ">
<path fill="none" stroke="#63b8ff" d="M86.23,-83.62C95.05,-83.62 104.17,-83.62 112.7,-83.62"/>
<polygon fill="#63b8ff" stroke="#63b8ff" points="86.38,-80.13 76.38,-83.63 86.38,-87.13 86.38,-80.13"/>
</a>
</g>
</g>
<!-- Node4 -->
<g id="Node000004" class="node">
<title>Node4</title>
<g id="a_Node000004"><a xlink:href="classJ2DTevBlock4.html" target="_top" xlink:title=" ">
<polygon fill="white" stroke="#666666" points="192.88,-56.25 113.12,-56.25 113.12,-37 192.88,-37 192.88,-56.25"/>
<text text-anchor="middle" x="153" y="-42.75" font-family="Helvetica,sans-Serif" font-size="10.00">J2DTevBlock4</text>
</a>
</g>
</g>
<!-- Node0&#45;&gt;Node4 -->
<g id="edge1011_Node000000_Node000004" class="edge">
<title>Node0&#45;&gt;Node4</title>
<g id="a_edge1011_Node000000_Node000004"><a xlink:title=" ">
<path fill="none" stroke="#63b8ff" d="M79.89,-70.08C93.47,-65.66 108.29,-60.84 120.95,-56.72"/>
<polygon fill="#63b8ff" stroke="#63b8ff" points="79.2,-66.62 70.77,-73.05 81.36,-73.28 79.2,-66.62"/>
</a>
</g>
</g>
<!-- Node5 -->
<g id="Node000005" class="node">
<title>Node5</title>
<g id="a_Node000005"><a xlink:href="classJ2DTevBlock8.html" target="_top" xlink:title=" ">
<polygon fill="white" stroke="#666666" points="192.88,-19.25 113.12,-19.25 113.12,0 192.88,0 192.88,-19.25"/>
<text text-anchor="middle" x="153" y="-5.75" font-family="Helvetica,sans-Serif" font-size="10.00">J2DTevBlock8</text>
</a>
</g>
</g>
<!-- Node0&#45;&gt;Node5 -->
<g id="edge1012_Node000000_Node000005" class="edge">
<title>Node0&#45;&gt;Node5</title>
<g id="a_edge1012_Node000000_Node000005"><a xlink:title=" ">
<path fill="none" stroke="#63b8ff" d="M57.7,-66.38C71.72,-54.5 91.45,-38.9 110.5,-27.62 115.37,-24.75 120.78,-22.06 126.04,-19.69"/>
<polygon fill="#63b8ff" stroke="#63b8ff" points="55.8,-63.39 50.52,-72.57 60.38,-68.69 55.8,-63.39"/>
</a>
</g>
</g>
</g>
</svg>
