<?xml version="1.0" encoding="UTF-8" standalone="no"?>
<!DOCTYPE svg PUBLIC "-//W3C//DTD SVG 1.1//EN"
 "http://www.w3.org/Graphics/SVG/1.1/DTD/svg11.dtd">
<!-- Generated by graphviz version 9.0.0 (20230911.1827)
 -->
<!-- Title: Graphical Class Hierarchy Pages: 1 -->
<svg width="211pt" height="64pt"
 viewBox="0.00 0.00 211.00 64.25" xmlns="http://www.w3.org/2000/svg" xmlns:xlink="http://www.w3.org/1999/xlink">
<g id="graph0" class="graph" transform="scale(1 1) rotate(0) translate(4 60.25)">
<title>Graphical Class Hierarchy</title>
<!-- Node0 -->
<g id="Node000000" class="node">
<title>Node0</title>
<g id="a_Node000000"><a xlink:href="structdStage__dt__c.html" target="_top" xlink:title=" ">
<polygon fill="white" stroke="#666666" points="70.75,-37.25 0,-37.25 0,-18 70.75,-18 70.75,-37.25"/>
<text text-anchor="middle" x="35.38" y="-23.75" font-family="Helvetica,sans-Serif" font-size="10.00">dStage_dt_c</text>
</a>
</g>
</g>
<!-- Node1 -->
<g id="Node000001" class="node">
<title>Node1</title>
<g id="a_Node000001"><a xlink:href="classdStage__roomDt__c.html" target="_top" xlink:title=" ">
<polygon fill="white" stroke="#666666" points="201.88,-56.25 107.88,-56.25 107.88,-37 201.88,-37 201.88,-56.25"/>
<text text-anchor="middle" x="154.88" y="-42.75" font-family="Helvetica,sans-Serif" font-size="10.00">dStage_roomDt_c</text>
</a>
</g>
</g>
<!-- Node0&#45;&gt;Node1 -->
<g id="edge977_Node000000_Node000001" class="edge">
<title>Node0&#45;&gt;Node1</title>
<g id="a_edge977_Node000000_Node000001"><a xlink:title=" ">
<path fill="none" stroke="#63b8ff" d="M82.15,-35.03C90.55,-36.39 99.33,-37.8 107.74,-39.17"/>
<polygon fill="#63b8ff" stroke="#63b8ff" points="82.92,-31.61 72.49,-33.46 81.8,-38.52 82.92,-31.61"/>
</a>
</g>
</g>
<!-- Node2 -->
<g id="Node000002" class="node">
<title>Node2</title>
<g id="a_Node000002"><a xlink:href="classdStage__stageDt__c.html" target="_top" xlink:title=" ">
<polygon fill="white" stroke="#666666" points="203,-19.25 106.75,-19.25 106.75,0 203,0 203,-19.25"/>
<text text-anchor="middle" x="154.88" y="-5.75" font-family="Helvetica,sans-Serif" font-size="10.00">dStage_stageDt_c</text>
</a>
</g>
</g>
<!-- Node0&#45;&gt;Node2 -->
<g id="edge978_Node000000_Node000002" class="edge">
<title>Node0&#45;&gt;Node2</title>
<g id="a_edge978_Node000000_Node000002"><a xlink:title=" ">
<path fill="none" stroke="#63b8ff" d="M82.3,-20.59C90.23,-19.38 98.48,-18.11 106.44,-16.89"/>
<polygon fill="#63b8ff" stroke="#63b8ff" points="81.84,-17.12 72.49,-22.09 82.9,-24.04 81.84,-17.12"/>
</a>
</g>
</g>
</g>
</svg>
