<?xml version="1.0" encoding="UTF-8" standalone="no"?>
<!DOCTYPE svg PUBLIC "-//W3C//DTD SVG 1.1//EN"
 "http://www.w3.org/Graphics/SVG/1.1/DTD/svg11.dtd">
<!-- Generated by graphviz version 9.0.0 (20230911.1827)
 -->
<!-- Title: Graphical Class Hierarchy Pages: 1 -->
<svg width="283pt" height="138pt"
 viewBox="0.00 0.00 283.25 138.25" xmlns="http://www.w3.org/2000/svg" xmlns:xlink="http://www.w3.org/1999/xlink">
<g id="graph0" class="graph" transform="scale(1 1) rotate(0) translate(4 134.25)">
<title>Graphical Class Hierarchy</title>
<!-- Node0 -->
<g id="Node000000" class="node">
<title>Node0</title>
<g id="a_Node000000"><a xlink:href="structJ2DPane.html" target="_top" xlink:title=" ">
<polygon fill="white" stroke="#666666" points="55.75,-74.25 0,-74.25 0,-55 55.75,-55 55.75,-74.25"/>
<text text-anchor="middle" x="27.88" y="-60.75" font-family="Helvetica,sans-Serif" font-size="10.00">J2DPane</text>
</a>
</g>
</g>
<!-- Node1 -->
<g id="Node000001" class="node">
<title>Node1</title>
<g id="a_Node000001"><a xlink:href="structJ2DPicture.html" target="_top" xlink:title=" ">
<polygon fill="white" stroke="#666666" points="158,-130.25 94,-130.25 94,-111 158,-111 158,-130.25"/>
<text text-anchor="middle" x="126" y="-116.75" font-family="Helvetica,sans-Serif" font-size="10.00">J2DPicture</text>
</a>
</g>
</g>
<!-- Node0&#45;&gt;Node1 -->
<g id="edge1001_Node000000_Node000001" class="edge">
<title>Node0&#45;&gt;Node1</title>
<g id="a_edge1001_Node000000_Node000001"><a xlink:title=" ">
<path fill="none" stroke="#63b8ff" d="M54.71,-80.62C66.01,-87.51 79.46,-95.59 91.75,-102.62 96.42,-105.3 101.51,-108.11 106.27,-110.69"/>
<polygon fill="#63b8ff" stroke="#63b8ff" points="56.68,-77.72 46.32,-75.47 53.02,-83.68 56.68,-77.72"/>
</a>
</g>
</g>
<!-- Node3 -->
<g id="Node000003" class="node">
<title>Node3</title>
<g id="a_Node000003"><a xlink:href="structJ2DScreen.html" target="_top" xlink:title=" ">
<polygon fill="white" stroke="#666666" points="158,-93.25 94,-93.25 94,-74 158,-74 158,-93.25"/>
<text text-anchor="middle" x="126" y="-79.75" font-family="Helvetica,sans-Serif" font-size="10.00">J2DScreen</text>
</a>
</g>
</g>
<!-- Node0&#45;&gt;Node3 -->
<g id="edge1003_Node000000_Node000003" class="edge">
<title>Node0&#45;&gt;Node3</title>
<g id="a_edge1003_Node000000_Node000003"><a xlink:title=" ">
<path fill="none" stroke="#63b8ff" d="M67.28,-72.22C76,-73.94 85.17,-75.75 93.57,-77.41"/>
<polygon fill="#63b8ff" stroke="#63b8ff" points="68.14,-68.82 57.65,-70.31 66.78,-75.69 68.14,-68.82"/>
</a>
</g>
</g>
<!-- Node4 -->
<g id="Node000004" class="node">
<title>Node4</title>
<g id="a_Node000004"><a xlink:href="structJ2DTextBox.html" target="_top" xlink:title=" ">
<polygon fill="white" stroke="#666666" points="160.25,-56.25 91.75,-56.25 91.75,-37 160.25,-37 160.25,-56.25"/>
<text text-anchor="middle" x="126" y="-42.75" font-family="Helvetica,sans-Serif" font-size="10.00">J2DTextBox</text>
</a>
</g>
</g>
<!-- Node0&#45;&gt;Node4 -->
<g id="edge1004_Node000000_Node000004" class="edge">
<title>Node0&#45;&gt;Node4</title>
<g id="a_edge1004_Node000000_Node000004"><a xlink:title=" ">
<path fill="none" stroke="#63b8ff" d="M67.45,-57.4C75.41,-55.91 83.73,-54.35 91.49,-52.9"/>
<polygon fill="#63b8ff" stroke="#63b8ff" points="66.84,-53.96 57.65,-59.24 68.12,-60.84 66.84,-53.96"/>
</a>
</g>
</g>
<!-- Node6 -->
<g id="Node000006" class="node">
<title>Node6</title>
<g id="a_Node000006"><a xlink:href="classJ2DWindow.html" target="_top" xlink:title=" ">
<polygon fill="white" stroke="#666666" points="159.88,-19.25 92.12,-19.25 92.12,0 159.88,0 159.88,-19.25"/>
<text text-anchor="middle" x="126" y="-5.75" font-family="Helvetica,sans-Serif" font-size="10.00">J2DWindow</text>
</a>
</g>
</g>
<!-- Node0&#45;&gt;Node6 -->
<g id="edge1006_Node000000_Node000006" class="edge">
<title>Node0&#45;&gt;Node6</title>
<g id="a_edge1006_Node000000_Node000006"><a xlink:title=" ">
<path fill="none" stroke="#63b8ff" d="M55.22,-48.84C66.43,-42.2 79.68,-34.44 91.75,-27.62 96.44,-24.98 101.53,-22.18 106.29,-19.6"/>
<polygon fill="#63b8ff" stroke="#63b8ff" points="53.7,-45.67 46.89,-53.79 57.28,-51.69 53.7,-45.67"/>
</a>
</g>
</g>
<!-- Node2 -->
<g id="Node000002" class="node">
<title>Node2</title>
<g id="a_Node000002"><a xlink:href="structJ2DPictureEx.html" target="_top" xlink:title=" ">
<polygon fill="white" stroke="#666666" points="273,-130.25 198.5,-130.25 198.5,-111 273,-111 273,-130.25"/>
<text text-anchor="middle" x="235.75" y="-116.75" font-family="Helvetica,sans-Serif" font-size="10.00">J2DPictureEx</text>
</a>
</g>
</g>
<!-- Node1&#45;&gt;Node2 -->
<g id="edge1002_Node000001_Node000002" class="edge">
<title>Node1&#45;&gt;Node2</title>
<g id="a_edge1002_Node000001_Node000002"><a xlink:title=" ">
<path fill="none" stroke="#63b8ff" d="M169.94,-120.62C179.27,-120.62 189.06,-120.62 198.13,-120.62"/>
<polygon fill="#63b8ff" stroke="#63b8ff" points="169.97,-117.13 159.97,-120.63 169.97,-124.13 169.97,-117.13"/>
</a>
</g>
</g>
<!-- Node5 -->
<g id="Node000005" class="node">
<title>Node5</title>
<g id="a_Node000005"><a xlink:href="structJ2DTextBoxEx.html" target="_top" xlink:title=" ">
<polygon fill="white" stroke="#666666" points="275.25,-56.25 196.25,-56.25 196.25,-37 275.25,-37 275.25,-56.25"/>
<text text-anchor="middle" x="235.75" y="-42.75" font-family="Helvetica,sans-Serif" font-size="10.00">J2DTextBoxEx</text>
</a>
</g>
</g>
<!-- Node4&#45;&gt;Node5 -->
<g id="edge1005_Node000004_Node000005" class="edge">
<title>Node4&#45;&gt;Node5</title>
<g id="a_edge1005_Node000004_Node000005"><a xlink:title=" ">
<path fill="none" stroke="#63b8ff" d="M171.93,-46.62C179.93,-46.62 188.19,-46.62 195.99,-46.62"/>
<polygon fill="#63b8ff" stroke="#63b8ff" points="172.02,-43.13 162.02,-46.63 172.02,-50.13 172.02,-43.13"/>
</a>
</g>
</g>
<!-- Node7 -->
<g id="Node000007" class="node">
<title>Node7</title>
<g id="a_Node000007"><a xlink:href="structJ2DWindowEx.html" target="_top" xlink:title=" ">
<polygon fill="white" stroke="#666666" points="274.88,-19.25 196.62,-19.25 196.62,0 274.88,0 274.88,-19.25"/>
<text text-anchor="middle" x="235.75" y="-5.75" font-family="Helvetica,sans-Serif" font-size="10.00">J2DWindowEx</text>
</a>
</g>
</g>
<!-- Node6&#45;&gt;Node7 -->
<g id="edge1007_Node000006_Node000007" class="edge">
<title>Node6&#45;&gt;Node7</title>
<g id="a_edge1007_Node000006_Node000007"><a xlink:title=" ">
<path fill="none" stroke="#63b8ff" d="M171.5,-9.62C179.69,-9.62 188.18,-9.62 196.18,-9.62"/>
<polygon fill="#63b8ff" stroke="#63b8ff" points="171.72,-6.13 161.72,-9.63 171.72,-13.13 171.72,-6.13"/>
</a>
</g>
</g>
</g>
</svg>
