<?xml version="1.0" encoding="UTF-8" standalone="no"?>
<!DOCTYPE svg PUBLIC "-//W3C//DTD SVG 1.1//EN"
 "http://www.w3.org/Graphics/SVG/1.1/DTD/svg11.dtd">
<!-- Generated by graphviz version 9.0.0 (20230911.1827)
 -->
<!-- Title: Graphical Class Hierarchy Pages: 1 -->
<svg width="416pt" height="82pt"
 viewBox="0.00 0.00 416.00 82.25" xmlns="http://www.w3.org/2000/svg" xmlns:xlink="http://www.w3.org/1999/xlink">
<g id="graph0" class="graph" transform="scale(1 1) rotate(0) translate(4 78.25)">
<title>Graphical Class Hierarchy</title>
<!-- Node0 -->
<g id="Node000000" class="node">
<title>Node0</title>
<g id="a_Node000000"><a xlink:href="classJ3DTexGenBlock.html" target="_top" xlink:title=" ">
<polygon fill="white" stroke="#666666" points="91.75,-55.25 0,-55.25 0,-36 91.75,-36 91.75,-55.25"/>
<text text-anchor="middle" x="45.88" y="-41.75" font-family="Helvetica,sans-Serif" font-size="10.00">J3DTexGenBlock</text>
</a>
</g>
</g>
<!-- Node1 -->
<g id="Node000001" class="node">
<title>Node1</title>
<g id="a_Node000001"><a xlink:href="structJ3DTexGenBlockNull.html" target="_top" xlink:title=" ">
<polygon fill="white" stroke="#666666" points="246.12,-74.25 137.12,-74.25 137.12,-55 246.12,-55 246.12,-74.25"/>
<text text-anchor="middle" x="191.62" y="-60.75" font-family="Helvetica,sans-Serif" font-size="10.00">J3DTexGenBlockNull</text>
</a>
</g>
</g>
<!-- Node0&#45;&gt;Node1 -->
<g id="edge1122_Node000000_Node000001" class="edge">
<title>Node0&#45;&gt;Node1</title>
<g id="a_edge1122_Node000000_Node000001"><a xlink:title=" ">
<path fill="none" stroke="#63b8ff" d="M103.26,-53.08C114.33,-54.54 125.9,-56.07 136.88,-57.52"/>
<polygon fill="#63b8ff" stroke="#63b8ff" points="103.84,-49.62 93.46,-51.78 102.92,-56.56 103.84,-49.62"/>
</a>
</g>
</g>
<!-- Node2 -->
<g id="Node000002" class="node">
<title>Node2</title>
<g id="a_Node000002"><a xlink:href="classJ3DTexGenBlockPatched.html" target="_top" xlink:title=" ">
<polygon fill="white" stroke="#666666" points="255.5,-37.25 127.75,-37.25 127.75,-18 255.5,-18 255.5,-37.25"/>
<text text-anchor="middle" x="191.62" y="-23.75" font-family="Helvetica,sans-Serif" font-size="10.00">J3DTexGenBlockPatched</text>
</a>
</g>
</g>
<!-- Node0&#45;&gt;Node2 -->
<g id="edge1123_Node000000_Node000002" class="edge">
<title>Node0&#45;&gt;Node2</title>
<g id="a_edge1123_Node000000_Node000002"><a xlink:title=" ">
<path fill="none" stroke="#63b8ff" d="M103.27,-38.56C111.14,-37.58 119.28,-36.56 127.27,-35.56"/>
<polygon fill="#63b8ff" stroke="#63b8ff" points="102.95,-35.08 93.47,-39.79 103.82,-42.02 102.95,-35.08"/>
</a>
</g>
</g>
<!-- Node3 -->
<g id="Node000003" class="node">
<title>Node3</title>
<g id="a_Node000003"><a xlink:href="classJ3DTexGenBlock4.html" target="_top" xlink:title=" ">
<polygon fill="white" stroke="#666666" points="398.25,-56.25 301.25,-56.25 301.25,-37 398.25,-37 398.25,-56.25"/>
<text text-anchor="middle" x="349.75" y="-42.75" font-family="Helvetica,sans-Serif" font-size="10.00">J3DTexGenBlock4</text>
</a>
</g>
</g>
<!-- Node2&#45;&gt;Node3 -->
<g id="edge1124_Node000002_Node000003" class="edge">
<title>Node2&#45;&gt;Node3</title>
<g id="a_edge1124_Node000002_Node000003"><a xlink:title=" ">
<path fill="none" stroke="#63b8ff" d="M267.08,-36.69C278.56,-38.08 290.14,-39.49 300.83,-40.79"/>
<polygon fill="#63b8ff" stroke="#63b8ff" points="267.53,-33.21 257.18,-35.48 266.68,-40.16 267.53,-33.21"/>
</a>
</g>
</g>
<!-- Node4 -->
<g id="Node000004" class="node">
<title>Node4</title>
<g id="a_Node000004"><a xlink:href="classJ3DTexGenBlockBasic.html" target="_top" xlink:title=" ">
<polygon fill="white" stroke="#666666" points="408,-19.25 291.5,-19.25 291.5,0 408,0 408,-19.25"/>
<text text-anchor="middle" x="349.75" y="-5.75" font-family="Helvetica,sans-Serif" font-size="10.00">J3DTexGenBlockBasic</text>
</a>
</g>
</g>
<!-- Node2&#45;&gt;Node4 -->
<g id="edge1125_Node000002_Node000004" class="edge">
<title>Node2&#45;&gt;Node4</title>
<g id="a_edge1125_Node000002_Node000004"><a xlink:title=" ">
<path fill="none" stroke="#63b8ff" d="M267.01,-19.05C275.07,-18.12 283.19,-17.18 291.01,-16.28"/>
<polygon fill="#63b8ff" stroke="#63b8ff" points="266.71,-15.56 257.18,-20.18 267.52,-22.51 266.71,-15.56"/>
</a>
</g>
</g>
</g>
</svg>
