<?xml version="1.0" encoding="UTF-8" standalone="no"?>
<!DOCTYPE svg PUBLIC "-//W3C//DTD SVG 1.1//EN"
 "http://www.w3.org/Graphics/SVG/1.1/DTD/svg11.dtd">
<!-- Generated by graphviz version 9.0.0 (20230911.1827)
 -->
<!-- Title: Graphical Class Hierarchy Pages: 1 -->
<svg width="249pt" height="64pt"
 viewBox="0.00 0.00 248.50 64.25" xmlns="http://www.w3.org/2000/svg" xmlns:xlink="http://www.w3.org/1999/xlink">
<g id="graph0" class="graph" transform="scale(1 1) rotate(0) translate(4 60.25)">
<title>Graphical Class Hierarchy</title>
<!-- Node0 -->
<g id="Node000000" class="node">
<title>Node0</title>
<g id="a_Node000000"><a xlink:href="structJ2DAnmLoader.html" target="_top" xlink:title=" ">
<polygon fill="white" stroke="#666666" points="83.5,-37.25 0,-37.25 0,-18 83.5,-18 83.5,-37.25"/>
<text text-anchor="middle" x="41.75" y="-23.75" font-family="Helvetica,sans-Serif" font-size="10.00">J2DAnmLoader</text>
</a>
</g>
</g>
<!-- Node1 -->
<g id="Node000001" class="node">
<title>Node1</title>
<g id="a_Node000001"><a xlink:href="structJ2DAnmFullLoader__v15.html" target="_top" xlink:title=" ">
<polygon fill="white" stroke="#666666" points="240.12,-56.25 119.88,-56.25 119.88,-37 240.12,-37 240.12,-56.25"/>
<text text-anchor="middle" x="180" y="-42.75" font-family="Helvetica,sans-Serif" font-size="10.00">J2DAnmFullLoader_v15</text>
</a>
</g>
</g>
<!-- Node0&#45;&gt;Node1 -->
<g id="edge996_Node000000_Node000001" class="edge">
<title>Node0&#45;&gt;Node1</title>
<g id="a_edge996_Node000000_Node000001"><a xlink:title=" ">
<path fill="none" stroke="#63b8ff" d="M95.34,-34.96C103.27,-36.06 111.49,-37.21 119.54,-38.33"/>
<polygon fill="#63b8ff" stroke="#63b8ff" points="95.89,-31.5 85.5,-33.59 94.92,-38.43 95.89,-31.5"/>
</a>
</g>
</g>
<!-- Node2 -->
<g id="Node000002" class="node">
<title>Node2</title>
<g id="a_Node000002"><a xlink:href="structJ2DAnmKeyLoader__v15.html" target="_top" xlink:title=" ">
<polygon fill="white" stroke="#666666" points="240.5,-19.25 119.5,-19.25 119.5,0 240.5,0 240.5,-19.25"/>
<text text-anchor="middle" x="180" y="-5.75" font-family="Helvetica,sans-Serif" font-size="10.00">J2DAnmKeyLoader_v15</text>
</a>
</g>
</g>
<!-- Node0&#45;&gt;Node2 -->
<g id="edge997_Node000000_Node000002" class="edge">
<title>Node0&#45;&gt;Node2</title>
<g id="a_edge997_Node000000_Node000002"><a xlink:title=" ">
<path fill="none" stroke="#63b8ff" d="M95.18,-20.7C102.99,-19.67 111.09,-18.6 119.04,-17.55"/>
<polygon fill="#63b8ff" stroke="#63b8ff" points="94.96,-17.2 85.5,-21.98 95.87,-24.14 94.96,-17.2"/>
</a>
</g>
</g>
</g>
</svg>
