<?xml version="1.0" encoding="UTF-8" standalone="no"?>
<!DOCTYPE svg PUBLIC "-//W3C//DTD SVG 1.1//EN"
 "http://www.w3.org/Graphics/SVG/1.1/DTD/svg11.dtd">
<!-- Generated by graphviz version 9.0.0 (20230911.1827)
 -->
<!-- Title: Graphical Class Hierarchy Pages: 1 -->
<svg width="432pt" height="286pt"
 viewBox="0.00 0.00 431.75 286.25" xmlns="http://www.w3.org/2000/svg" xmlns:xlink="http://www.w3.org/1999/xlink">
<g id="graph0" class="graph" transform="scale(1 1) rotate(0) translate(4 282.25)">
<title>Graphical Class Hierarchy</title>
<!-- Node0 -->
<g id="Node000000" class="node">
<title>Node0</title>
<g id="a_Node000000"><a xlink:href="classJPAEmitterCallBack.html" target="_top" xlink:title=" ">
<polygon fill="white" stroke="#666666" points="104.5,-129.25 0,-129.25 0,-110 104.5,-110 104.5,-129.25"/>
<text text-anchor="middle" x="52.25" y="-115.75" font-family="Helvetica,sans-Serif" font-size="10.00">JPAEmitterCallBack</text>
</a>
</g>
</g>
<!-- Node1 -->
<g id="Node000001" class="node">
<title>Node1</title>
<g id="a_Node000001"><a xlink:href="classdPa__levelEcallBack.html" target="_top" xlink:title=" ">
<polygon fill="white" stroke="#666666" points="246.88,-148.25 144.62,-148.25 144.62,-129 246.88,-129 246.88,-148.25"/>
<text text-anchor="middle" x="195.75" y="-134.75" font-family="Helvetica,sans-Serif" font-size="10.00">dPa_levelEcallBack</text>
</a>
</g>
</g>
<!-- Node0&#45;&gt;Node1 -->
<g id="edge1375_Node000000_Node000001" class="edge">
<title>Node0&#45;&gt;Node1</title>
<g id="a_edge1375_Node000000_Node000001"><a xlink:title=" ">
<path fill="none" stroke="#63b8ff" d="M115.85,-128.03C125.43,-129.32 135.21,-130.63 144.49,-131.88"/>
<polygon fill="#63b8ff" stroke="#63b8ff" points="116.61,-124.6 106.24,-126.74 115.68,-131.54 116.61,-124.6"/>
</a>
</g>
</g>
<!-- Node10 -->
<g id="Node000010" class="node">
<title>Node10</title>
<g id="a_Node000010"><a xlink:href="classdPa__simpleEcallBack.html" target="_top" xlink:title=" ">
<polygon fill="white" stroke="#666666" points="251,-111.25 140.5,-111.25 140.5,-92 251,-92 251,-111.25"/>
<text text-anchor="middle" x="195.75" y="-97.75" font-family="Helvetica,sans-Serif" font-size="10.00">dPa_simpleEcallBack</text>
</a>
</g>
</g>
<!-- Node0&#45;&gt;Node10 -->
<g id="edge1384_Node000000_Node000010" class="edge">
<title>Node0&#45;&gt;Node10</title>
<g id="a_edge1384_Node000000_Node000010"><a xlink:title=" ">
<path fill="none" stroke="#63b8ff" d="M116,-111.64C124.07,-110.62 132.28,-109.57 140.21,-108.56"/>
<polygon fill="#63b8ff" stroke="#63b8ff" points="115.71,-108.15 106.24,-112.88 116.6,-115.09 115.71,-108.15"/>
</a>
</g>
</g>
<!-- Node2 -->
<g id="Node000002" class="node">
<title>Node2</title>
<g id="a_Node000002"><a xlink:href="classdPa__followEcallBack.html" target="_top" xlink:title=" ">
<polygon fill="white" stroke="#666666" points="409.12,-278.25 301.62,-278.25 301.62,-259 409.12,-259 409.12,-278.25"/>
<text text-anchor="middle" x="355.38" y="-264.75" font-family="Helvetica,sans-Serif" font-size="10.00">dPa_followEcallBack</text>
</a>
</g>
</g>
<!-- Node1&#45;&gt;Node2 -->
<g id="edge1376_Node000001_Node000002" class="edge">
<title>Node1&#45;&gt;Node2</title>
<g id="a_edge1376_Node000001_Node000002"><a xlink:title=" ">
<path fill="none" stroke="#63b8ff" d="M207.33,-158.35C221.9,-183.6 250.53,-226.9 287,-250.62 291.87,-253.79 297.28,-256.41 302.87,-258.56"/>
<polygon fill="#63b8ff" stroke="#63b8ff" points="210.47,-156.8 202.54,-149.77 204.36,-160.21 210.47,-156.8"/>
</a>
</g>
</g>
<!-- Node3 -->
<g id="Node000003" class="node">
<title>Node3</title>
<g id="a_Node000003"><a xlink:href="classdPa__gen__b__light8EcallBack.html" target="_top" xlink:title=" ">
<polygon fill="white" stroke="#666666" points="423.75,-241.25 287,-241.25 287,-222 423.75,-222 423.75,-241.25"/>
<text text-anchor="middle" x="355.38" y="-227.75" font-family="Helvetica,sans-Serif" font-size="10.00">dPa_gen_b_light8EcallBack</text>
</a>
</g>
</g>
<!-- Node1&#45;&gt;Node3 -->
<g id="edge1377_Node000001_Node000003" class="edge">
<title>Node1&#45;&gt;Node3</title>
<g id="a_edge1377_Node000001_Node000003"><a xlink:title=" ">
<path fill="none" stroke="#63b8ff" d="M213.88,-156.83C230.89,-173.88 258.49,-198.88 287,-213.62 293.02,-216.74 299.63,-219.35 306.29,-221.53"/>
<polygon fill="#63b8ff" stroke="#63b8ff" points="216.54,-154.55 207.06,-149.82 211.52,-159.43 216.54,-154.55"/>
</a>
</g>
</g>
<!-- Node4 -->
<g id="Node000004" class="node">
<title>Node4</title>
<g id="a_Node000004"><a xlink:href="classdPa__gen__d__light8EcallBack.html" target="_top" xlink:title=" ">
<polygon fill="white" stroke="#666666" points="423.75,-204.25 287,-204.25 287,-185 423.75,-185 423.75,-204.25"/>
<text text-anchor="middle" x="355.38" y="-190.75" font-family="Helvetica,sans-Serif" font-size="10.00">dPa_gen_d_light8EcallBack</text>
</a>
</g>
</g>
<!-- Node1&#45;&gt;Node4 -->
<g id="edge1378_Node000001_Node000004" class="edge">
<title>Node1&#45;&gt;Node4</title>
<g id="a_edge1378_Node000001_Node000004"><a xlink:title=" ">
<path fill="none" stroke="#63b8ff" d="M228.34,-153.18C245.47,-160.76 267.15,-169.83 287,-176.62 295.36,-179.49 304.43,-182.18 313.13,-184.57"/>
<polygon fill="#63b8ff" stroke="#63b8ff" points="230.25,-150.2 219.69,-149.31 227.39,-156.59 230.25,-150.2"/>
</a>
</g>
</g>
<!-- Node5 -->
<g id="Node000005" class="node">
<title>Node5</title>
<g id="a_Node000005"><a xlink:href="classdPa__hermiteEcallBack__c.html" target="_top" xlink:title=" ">
<polygon fill="white" stroke="#666666" points="417.75,-167.25 293,-167.25 293,-148 417.75,-148 417.75,-167.25"/>
<text text-anchor="middle" x="355.38" y="-153.75" font-family="Helvetica,sans-Serif" font-size="10.00">dPa_hermiteEcallBack_c</text>
</a>
</g>
</g>
<!-- Node1&#45;&gt;Node5 -->
<g id="edge1379_Node000001_Node000005" class="edge">
<title>Node1&#45;&gt;Node5</title>
<g id="a_edge1379_Node000001_Node000005"><a xlink:title=" ">
<path fill="none" stroke="#63b8ff" d="M258.18,-146.03C269.5,-147.39 281.34,-148.82 292.67,-150.19"/>
<polygon fill="#63b8ff" stroke="#63b8ff" points="258.91,-142.59 248.56,-144.87 258.07,-149.54 258.91,-142.59"/>
</a>
</g>
</g>
<!-- Node6 -->
<g id="Node000006" class="node">
<title>Node6</title>
<g id="a_Node000006"><a xlink:href="classdPa__light8EcallBack.html" target="_top" xlink:title=" ">
<polygon fill="white" stroke="#666666" points="408,-130.25 302.75,-130.25 302.75,-111 408,-111 408,-130.25"/>
<text text-anchor="middle" x="355.38" y="-116.75" font-family="Helvetica,sans-Serif" font-size="10.00">dPa_light8EcallBack</text>
</a>
</g>
</g>
<!-- Node1&#45;&gt;Node6 -->
<g id="edge1380_Node000001_Node000006" class="edge">
<title>Node1&#45;&gt;Node6</title>
<g id="a_edge1380_Node000001_Node000006"><a xlink:title=" ">
<path fill="none" stroke="#63b8ff" d="M258.49,-131.58C273,-129.92 288.34,-128.17 302.38,-126.56"/>
<polygon fill="#63b8ff" stroke="#63b8ff" points="258.1,-128.1 248.56,-132.71 258.89,-135.05 258.1,-128.1"/>
</a>
</g>
</g>
<!-- Node7 -->
<g id="Node000007" class="node">
<title>Node7</title>
<g id="a_Node000007"><a xlink:href="classdPa__modelEcallBack.html" target="_top" xlink:title=" ">
<polygon fill="white" stroke="#666666" points="409.5,-93.25 301.25,-93.25 301.25,-74 409.5,-74 409.5,-93.25"/>
<text text-anchor="middle" x="355.38" y="-79.75" font-family="Helvetica,sans-Serif" font-size="10.00">dPa_modelEcallBack</text>
</a>
</g>
</g>
<!-- Node1&#45;&gt;Node7 -->
<g id="edge1381_Node000001_Node000007" class="edge">
<title>Node1&#45;&gt;Node7</title>
<g id="a_edge1381_Node000001_Node000007"><a xlink:title=" ">
<path fill="none" stroke="#63b8ff" d="M240.66,-124.75C244.18,-123.43 247.67,-122.05 251,-120.62 267.64,-113.53 270.15,-108.22 287,-101.62 294.55,-98.67 302.77,-96.02 310.78,-93.73"/>
<polygon fill="#63b8ff" stroke="#63b8ff" points="239.73,-121.37 231.49,-128.03 242.09,-127.96 239.73,-121.37"/>
</a>
</g>
</g>
<!-- Node8 -->
<g id="Node000008" class="node">
<title>Node8</title>
<g id="a_Node000008"><a xlink:href="classdPa__selectTexEcallBack.html" target="_top" xlink:title=" ">
<polygon fill="white" stroke="#666666" points="417.38,-56.25 293.38,-56.25 293.38,-37 417.38,-37 417.38,-56.25"/>
<text text-anchor="middle" x="355.38" y="-42.75" font-family="Helvetica,sans-Serif" font-size="10.00">dPa_selectTexEcallBack</text>
</a>
</g>
</g>
<!-- Node1&#45;&gt;Node8 -->
<g id="edge1382_Node000001_Node000008" class="edge">
<title>Node1&#45;&gt;Node8</title>
<g id="a_edge1382_Node000001_Node000008"><a xlink:title=" ">
<path fill="none" stroke="#63b8ff" d="M247.43,-123.17C248.66,-122.36 249.85,-121.51 251,-120.62 274.38,-102.49 263.1,-82.06 287,-64.62 291.4,-61.41 296.34,-58.78 301.48,-56.61"/>
<polygon fill="#63b8ff" stroke="#63b8ff" points="245.89,-120.02 238.76,-127.86 249.22,-126.18 245.89,-120.02"/>
</a>
</g>
</g>
<!-- Node9 -->
<g id="Node000009" class="node">
<title>Node9</title>
<g id="a_Node000009"><a xlink:href="classdPa__setColorEcallBack.html" target="_top" xlink:title=" ">
<polygon fill="white" stroke="#666666" points="414.38,-19.25 296.38,-19.25 296.38,0 414.38,0 414.38,-19.25"/>
<text text-anchor="middle" x="355.38" y="-5.75" font-family="Helvetica,sans-Serif" font-size="10.00">dPa_setColorEcallBack</text>
</a>
</g>
</g>
<!-- Node1&#45;&gt;Node9 -->
<g id="edge1383_Node000001_Node000009" class="edge">
<title>Node1&#45;&gt;Node9</title>
<g id="a_edge1383_Node000001_Node000009"><a xlink:title=" ">
<path fill="none" stroke="#63b8ff" d="M249.08,-122.34C249.74,-121.79 250.38,-121.22 251,-120.62 283.1,-90.06 254.01,-57.22 287,-27.62 290.51,-24.47 294.52,-21.86 298.79,-19.7"/>
<polygon fill="#63b8ff" stroke="#63b8ff" points="247.39,-119.26 240.97,-127.68 251.24,-125.11 247.39,-119.26"/>
</a>
</g>
</g>
</g>
</svg>
