<?xml version="1.0" encoding="UTF-8" standalone="no"?>
<!DOCTYPE svg PUBLIC "-//W3C//DTD SVG 1.1//EN"
 "http://www.w3.org/Graphics/SVG/1.1/DTD/svg11.dtd">
<!-- Generated by graphviz version 9.0.0 (20230911.1827)
 -->
<!-- Title: Graphical Class Hierarchy Pages: 1 -->
<svg width="248pt" height="162pt"
 viewBox="0.00 0.00 247.75 161.50" xmlns="http://www.w3.org/2000/svg" xmlns:xlink="http://www.w3.org/1999/xlink">
<g id="graph0" class="graph" transform="scale(1 1) rotate(0) translate(4 157.5)">
<title>Graphical Class Hierarchy</title>
<!-- Node0 -->
<g id="Node000000" class="node">
<title>Node0</title>
<g id="a_Node000000"><a xlink:href="structJAISeqDataUser.html" target="_top" xlink:title=" ">
<polygon fill="white" stroke="#666666" points="97.75,-67.88 8.25,-67.88 8.25,-48.62 97.75,-48.62 97.75,-67.88"/>
<text text-anchor="middle" x="53" y="-54.38" font-family="Helvetica,sans-Serif" font-size="10.00">JAISeqDataUser</text>
</a>
</g>
</g>
<!-- Node1 -->
<g id="Node000001" class="node">
<title>Node1</title>
<g id="a_Node000001"><a xlink:href="classJAISeCategoryMgr.html" target="_top" xlink:title=" ">
<polygon fill="white" stroke="#666666" points="239.75,-67.88 142,-67.88 142,-48.62 239.75,-48.62 239.75,-67.88"/>
<text text-anchor="middle" x="190.88" y="-54.38" font-family="Helvetica,sans-Serif" font-size="10.00">JAISeCategoryMgr</text>
</a>
</g>
</g>
<!-- Node0&#45;&gt;Node1 -->
<g id="edge1132_Node000000_Node000001" class="edge">
<title>Node0&#45;&gt;Node1</title>
<g id="a_edge1132_Node000000_Node000001"><a xlink:title=" ">
<path fill="none" stroke="#63b8ff" d="M109.5,-58.25C120.2,-58.25 131.32,-58.25 141.76,-58.25"/>
<polygon fill="#63b8ff" stroke="#63b8ff" points="109.63,-54.75 99.63,-58.25 109.63,-61.75 109.63,-54.75"/>
</a>
</g>
</g>
<!-- Node2 -->
<g id="Node000002" class="node">
<title>Node2</title>
<g id="a_Node000002"><a xlink:href="classJAISeMgr.html" target="_top" xlink:title=" ">
<polygon fill="white" stroke="#666666" points="220.62,-104.88 161.12,-104.88 161.12,-85.62 220.62,-85.62 220.62,-104.88"/>
<text text-anchor="middle" x="190.88" y="-91.38" font-family="Helvetica,sans-Serif" font-size="10.00">JAISeMgr</text>
</a>
</g>
</g>
<!-- Node0&#45;&gt;Node2 -->
<g id="edge1133_Node000000_Node000002" class="edge">
<title>Node0&#45;&gt;Node2</title>
<g id="a_edge1133_Node000000_Node000002"><a xlink:title=" ">
<path fill="none" stroke="#63b8ff" d="M102.07,-71.34C121.75,-76.7 143.86,-82.72 160.98,-87.38"/>
<polygon fill="#63b8ff" stroke="#63b8ff" points="103.16,-68.01 92.59,-68.76 101.32,-74.76 103.16,-68.01"/>
</a>
</g>
</g>
<!-- Node5 -->
<g id="Node000005" class="node">
<title>Node5</title>
<g id="a_Node000005"><a xlink:href="classJAISeqMgr.html" target="_top" xlink:title=" ">
<polygon fill="white" stroke="#666666" points="223.25,-27.88 158.5,-27.88 158.5,-8.62 223.25,-8.62 223.25,-27.88"/>
<text text-anchor="middle" x="190.88" y="-14.38" font-family="Helvetica,sans-Serif" font-size="10.00">JAISeqMgr</text>
</a>
</g>
</g>
<!-- Node0&#45;&gt;Node5 -->
<g id="edge1134_Node000000_Node000005" class="edge">
<title>Node0&#45;&gt;Node5</title>
<g id="a_edge1134_Node000000_Node000005"><a xlink:title=" ">
<path fill="none" stroke="#63b8ff" d="M99.32,-44.91C118.7,-39.2 140.85,-32.68 158.39,-27.52"/>
<polygon fill="#63b8ff" stroke="#63b8ff" points="98.34,-41.55 89.74,-47.73 100.32,-48.26 98.34,-41.55"/>
</a>
</g>
</g>
<!-- Node3 -->
<g id="Node000003" class="node">
<title>Node3</title>
<g id="a_Node000003"><a xlink:href="classJAISoundActivity.html" target="_top" xlink:title=" ">
<polygon fill="white" stroke="#666666" points="98.5,-104.88 7.5,-104.88 7.5,-85.62 98.5,-85.62 98.5,-104.88"/>
<text text-anchor="middle" x="53" y="-91.38" font-family="Helvetica,sans-Serif" font-size="10.00">JAISoundActivity</text>
</a>
</g>
</g>
<!-- Node3&#45;&gt;Node2 -->
<g id="edge1135_Node000003_Node000002" class="edge">
<title>Node3&#45;&gt;Node2</title>
<g id="a_edge1135_Node000003_Node000002"><a xlink:title=" ">
<path fill="none" stroke="#63b8ff" d="M110.12,-95.25C127.56,-95.25 146.07,-95.25 160.87,-95.25"/>
<polygon fill="#63b8ff" stroke="#63b8ff" points="110.38,-91.75 100.38,-95.25 110.38,-98.75 110.38,-91.75"/>
</a>
</g>
</g>
<!-- Node4 -->
<g id="Node000004" class="node">
<title>Node4</title>
<g id="a_Node000004"><a xlink:href="classJASGlobalInstance.html" target="_top" xlink:title=" ">
<polygon fill="white" stroke="#666666" points="106,-153.5 0,-153.5 0,-123 106,-123 106,-153.5"/>
<text text-anchor="start" x="8" y="-140" font-family="Helvetica,sans-Serif" font-size="10.00">JASGlobalInstance&lt;</text>
<text text-anchor="middle" x="53" y="-128.75" font-family="Helvetica,sans-Serif" font-size="10.00"> JAISeMgr &gt;</text>
</a>
</g>
</g>
<!-- Node4&#45;&gt;Node2 -->
<g id="edge1136_Node000004_Node000002" class="edge">
<title>Node4&#45;&gt;Node2</title>
<g id="a_edge1136_Node000004_Node000002"><a xlink:title=" ">
<path fill="none" stroke="#63b8ff" d="M114,-119.26C130.26,-114.12 147.14,-108.78 160.83,-104.44"/>
<polygon fill="#63b8ff" stroke="#63b8ff" points="113.36,-115.79 104.88,-122.15 115.47,-122.47 113.36,-115.79"/>
</a>
</g>
</g>
<!-- Node6 -->
<g id="Node000006" class="node">
<title>Node6</title>
<g id="a_Node000006"><a xlink:href="classJASGlobalInstance.html" target="_top" xlink:title=" ">
<polygon fill="white" stroke="#666666" points="106,-30.5 0,-30.5 0,0 106,0 106,-30.5"/>
<text text-anchor="start" x="8" y="-17" font-family="Helvetica,sans-Serif" font-size="10.00">JASGlobalInstance&lt;</text>
<text text-anchor="middle" x="53" y="-5.75" font-family="Helvetica,sans-Serif" font-size="10.00"> JAISeqMgr &gt;</text>
</a>
</g>
</g>
<!-- Node6&#45;&gt;Node5 -->
<g id="edge1137_Node000006_Node000005" class="edge">
<title>Node6&#45;&gt;Node5</title>
<g id="a_edge1137_Node000006_Node000005"><a xlink:title=" ">
<path fill="none" stroke="#63b8ff" d="M117.38,-16.65C131.51,-16.96 145.91,-17.28 158.11,-17.55"/>
<polygon fill="#63b8ff" stroke="#63b8ff" points="117.73,-13.16 107.66,-16.43 117.58,-20.15 117.73,-13.16"/>
</a>
</g>
</g>
</g>
</svg>
