<?xml version="1.0" encoding="UTF-8" standalone="no"?>
<!DOCTYPE svg PUBLIC "-//W3C//DTD SVG 1.1//EN"
 "http://www.w3.org/Graphics/SVG/1.1/DTD/svg11.dtd">
<!-- Generated by graphviz version 9.0.0 (20230911.1827)
 -->
<!-- Title: Graphical Class Hierarchy Pages: 1 -->
<svg width="266pt" height="64pt"
 viewBox="0.00 0.00 265.75 64.25" xmlns="http://www.w3.org/2000/svg" xmlns:xlink="http://www.w3.org/1999/xlink">
<g id="graph0" class="graph" transform="scale(1 1) rotate(0) translate(4 60.25)">
<title>Graphical Class Hierarchy</title>
<!-- Node0 -->
<g id="Node000000" class="node">
<title>Node0</title>
<g id="a_Node000000"><a xlink:href="structJGadget_1_1binary_1_1TParse__header__block.html" target="_top" xlink:title=" ">
<polygon fill="white" stroke="#666666" points="118.75,-42.88 0,-42.88 0,-12.37 118.75,-12.37 118.75,-42.88"/>
<text text-anchor="start" x="8" y="-29.38" font-family="Helvetica,sans-Serif" font-size="10.00">JGadget::binary::TParse</text>
<text text-anchor="middle" x="59.38" y="-18.12" font-family="Helvetica,sans-Serif" font-size="10.00">_header_block</text>
</a>
</g>
</g>
<!-- Node1 -->
<g id="Node000001" class="node">
<title>Node1</title>
<g id="a_Node000001"><a xlink:href="structJMessage_1_1TParse.html" target="_top" xlink:title=" ">
<polygon fill="white" stroke="#666666" points="254.75,-56.25 157.75,-56.25 157.75,-37 254.75,-37 254.75,-56.25"/>
<text text-anchor="middle" x="206.25" y="-42.75" font-family="Helvetica,sans-Serif" font-size="10.00">JMessage::TParse</text>
</a>
</g>
</g>
<!-- Node0&#45;&gt;Node1 -->
<g id="edge1320_Node000000_Node000001" class="edge">
<title>Node0&#45;&gt;Node1</title>
<g id="a_edge1320_Node000000_Node000001"><a xlink:title=" ">
<path fill="none" stroke="#63b8ff" d="M130.16,-36.78C139.47,-38 148.83,-39.23 157.64,-40.38"/>
<polygon fill="#63b8ff" stroke="#63b8ff" points="130.75,-33.33 120.38,-35.5 129.84,-40.27 130.75,-33.33"/>
</a>
</g>
</g>
<!-- Node2 -->
<g id="Node000002" class="node">
<title>Node2</title>
<g id="a_Node000002"><a xlink:href="structJStudio_1_1ctb_1_1TParse.html" target="_top" xlink:title=" ">
<polygon fill="white" stroke="#666666" points="257.75,-19.25 154.75,-19.25 154.75,0 257.75,0 257.75,-19.25"/>
<text text-anchor="middle" x="206.25" y="-5.75" font-family="Helvetica,sans-Serif" font-size="10.00">JStudio::ctb::TParse</text>
</a>
</g>
</g>
<!-- Node0&#45;&gt;Node2 -->
<g id="edge1321_Node000000_Node000002" class="edge">
<title>Node0&#45;&gt;Node2</title>
<g id="a_edge1321_Node000000_Node000002"><a xlink:title=" ">
<path fill="none" stroke="#63b8ff" d="M130.04,-18.97C138.27,-17.95 146.54,-16.92 154.44,-15.94"/>
<polygon fill="#63b8ff" stroke="#63b8ff" points="129.88,-15.46 120.39,-20.17 130.74,-22.41 129.88,-15.46"/>
</a>
</g>
</g>
</g>
</svg>
