<?xml version="1.0" encoding="UTF-8" standalone="no"?>
<!DOCTYPE svg PUBLIC "-//W3C//DTD SVG 1.1//EN"
 "http://www.w3.org/Graphics/SVG/1.1/DTD/svg11.dtd">
<!-- Generated by graphviz version 9.0.0 (20230911.1827)
 -->
<!-- Title: Graphical Class Hierarchy Pages: 1 -->
<svg width="297pt" height="76pt"
 viewBox="0.00 0.00 296.50 75.88" xmlns="http://www.w3.org/2000/svg" xmlns:xlink="http://www.w3.org/1999/xlink">
<g id="graph0" class="graph" transform="scale(1 1) rotate(0) translate(4 71.88)">
<title>Graphical Class Hierarchy</title>
<!-- Node0 -->
<g id="Node000000" class="node">
<title>Node0</title>
<g id="a_Node000000"><a xlink:href="structJASGenericMemPool.html" target="_top" xlink:title=" ">
<polygon fill="white" stroke="#666666" points="109.75,-45.88 0,-45.88 0,-26.62 109.75,-26.62 109.75,-45.88"/>
<text text-anchor="middle" x="54.88" y="-32.38" font-family="Helvetica,sans-Serif" font-size="10.00">JASGenericMemPool</text>
</a>
</g>
</g>
<!-- Node1 -->
<g id="Node000001" class="node">
<title>Node1</title>
<g id="a_Node000001"><a xlink:href="classJASMemPool.html" target="_top" xlink:title=" ">
<polygon fill="white" stroke="#666666" points="266.38,-67.88 167.88,-67.88 167.88,-48.62 266.38,-48.62 266.38,-67.88"/>
<text text-anchor="middle" x="217.12" y="-54.38" font-family="Helvetica,sans-Serif" font-size="10.00">JASMemPool&lt; T &gt;</text>
</a>
</g>
</g>
<!-- Node0&#45;&gt;Node1 -->
<g id="edge1272_Node000000_Node000001" class="edge">
<title>Node0&#45;&gt;Node1</title>
<g id="a_edge1272_Node000000_Node000001"><a xlink:title=" ">
<path fill="none" stroke="#63b8ff" d="M121.24,-45.22C136.73,-47.35 152.98,-49.58 167.58,-51.58"/>
<polygon fill="#63b8ff" stroke="#63b8ff" points="122.01,-41.8 111.63,-43.9 121.06,-48.73 122.01,-41.8"/>
</a>
</g>
</g>
<!-- Node2 -->
<g id="Node000002" class="node">
<title>Node2</title>
<g id="a_Node000002"><a xlink:href="structJASMemPool__MultiThreaded.html" target="_top" xlink:title=" ">
<polygon fill="white" stroke="#666666" points="288.5,-30.5 145.75,-30.5 145.75,0 288.5,0 288.5,-30.5"/>
<text text-anchor="start" x="153.75" y="-17" font-family="Helvetica,sans-Serif" font-size="10.00">JASMemPool_MultiThreaded</text>
<text text-anchor="middle" x="217.12" y="-5.75" font-family="Helvetica,sans-Serif" font-size="10.00">&lt; A0 &gt;</text>
</a>
</g>
</g>
<!-- Node0&#45;&gt;Node2 -->
<g id="edge1273_Node000000_Node000002" class="edge">
<title>Node0&#45;&gt;Node2</title>
<g id="a_edge1273_Node000000_Node000002"><a xlink:title=" ">
<path fill="none" stroke="#63b8ff" d="M121.51,-27.65C129.41,-26.61 137.49,-25.55 145.45,-24.51"/>
<polygon fill="#63b8ff" stroke="#63b8ff" points="121.09,-24.17 111.63,-28.94 122,-31.11 121.09,-24.17"/>
</a>
</g>
</g>
</g>
</svg>
