<?xml version="1.0" encoding="UTF-8" standalone="no"?>
<!DOCTYPE svg PUBLIC "-//W3C//DTD SVG 1.1//EN"
 "http://www.w3.org/Graphics/SVG/1.1/DTD/svg11.dtd">
<!-- Generated by graphviz version 9.0.0 (20230911.1827)
 -->
<!-- Title: Graphical Class Hierarchy Pages: 1 -->
<svg width="392pt" height="285pt"
 viewBox="0.00 0.00 392.00 285.25" xmlns="http://www.w3.org/2000/svg" xmlns:xlink="http://www.w3.org/1999/xlink">
<g id="graph0" class="graph" transform="scale(1 1) rotate(0) translate(4 281.25)">
<title>Graphical Class Hierarchy</title>
<!-- Node0 -->
<g id="Node000000" class="node">
<title>Node0</title>
<g id="a_Node000000"><a xlink:href="structJ2DAnmBase.html" target="_top" xlink:title=" ">
<polygon fill="white" stroke="#666666" points="76,-148.25 0,-148.25 0,-129 76,-129 76,-148.25"/>
<text text-anchor="middle" x="38" y="-134.75" font-family="Helvetica,sans-Serif" font-size="10.00">J2DAnmBase</text>
</a>
</g>
</g>
<!-- Node1 -->
<g id="Node000001" class="node">
<title>Node1</title>
<g id="a_Node000001"><a xlink:href="structJ2DAnmColor.html" target="_top" xlink:title=" ">
<polygon fill="white" stroke="#666666" points="210.88,-259.25 134.88,-259.25 134.88,-240 210.88,-240 210.88,-259.25"/>
<text text-anchor="middle" x="172.88" y="-245.75" font-family="Helvetica,sans-Serif" font-size="10.00">J2DAnmColor</text>
</a>
</g>
</g>
<!-- Node0&#45;&gt;Node1 -->
<g id="edge983_Node000000_Node000001" class="edge">
<title>Node0&#45;&gt;Node1</title>
<g id="a_edge983_Node000000_Node000001"><a xlink:title=" ">
<path fill="none" stroke="#63b8ff" d="M49.65,-158.54C61.96,-179.68 84.13,-212.61 112,-231.62 118.73,-236.21 126.65,-239.66 134.49,-242.23"/>
<polygon fill="#63b8ff" stroke="#63b8ff" points="52.82,-157.03 44.88,-150.01 46.71,-160.45 52.82,-157.03"/>
</a>
</g>
</g>
<!-- Node4 -->
<g id="Node000004" class="node">
<title>Node4</title>
<g id="a_Node000004"><a xlink:href="structJ2DAnmTevRegKey.html" target="_top" xlink:title=" ">
<polygon fill="white" stroke="#666666" points="224.75,-222.25 121,-222.25 121,-203 224.75,-203 224.75,-222.25"/>
<text text-anchor="middle" x="172.88" y="-208.75" font-family="Helvetica,sans-Serif" font-size="10.00">J2DAnmTevRegKey</text>
</a>
</g>
</g>
<!-- Node0&#45;&gt;Node4 -->
<g id="edge986_Node000000_Node000004" class="edge">
<title>Node0&#45;&gt;Node4</title>
<g id="a_edge986_Node000000_Node000004"><a xlink:title=" ">
<path fill="none" stroke="#63b8ff" d="M57.79,-156.14C71.82,-168.39 91.94,-184.35 112,-194.62 117.99,-197.69 124.59,-200.33 131.16,-202.56"/>
<polygon fill="#63b8ff" stroke="#63b8ff" points="60.43,-153.8 50.65,-149.72 55.75,-159.01 60.43,-153.8"/>
</a>
</g>
</g>
<!-- Node5 -->
<g id="Node000005" class="node">
<title>Node5</title>
<g id="a_Node000005"><a xlink:href="structJ2DAnmTexPattern.html" target="_top" xlink:title=" ">
<polygon fill="white" stroke="#666666" points="223.25,-185.25 122.5,-185.25 122.5,-166 223.25,-166 223.25,-185.25"/>
<text text-anchor="middle" x="172.88" y="-171.75" font-family="Helvetica,sans-Serif" font-size="10.00">J2DAnmTexPattern</text>
</a>
</g>
</g>
<!-- Node0&#45;&gt;Node5 -->
<g id="edge987_Node000000_Node000005" class="edge">
<title>Node0&#45;&gt;Node5</title>
<g id="a_edge987_Node000000_Node000005"><a xlink:title=" ">
<path fill="none" stroke="#63b8ff" d="M86.23,-151.78C102.47,-156.3 120.38,-161.29 135.61,-165.53"/>
<polygon fill="#63b8ff" stroke="#63b8ff" points="87.34,-148.45 76.77,-149.14 85.46,-155.2 87.34,-148.45"/>
</a>
</g>
</g>
<!-- Node6 -->
<g id="Node000006" class="node">
<title>Node6</title>
<g id="a_Node000006"><a xlink:href="structJ2DAnmTextureSRTKey.html" target="_top" xlink:title=" ">
<polygon fill="white" stroke="#666666" points="233.75,-148.25 112,-148.25 112,-129 233.75,-129 233.75,-148.25"/>
<text text-anchor="middle" x="172.88" y="-134.75" font-family="Helvetica,sans-Serif" font-size="10.00">J2DAnmTextureSRTKey</text>
</a>
</g>
</g>
<!-- Node0&#45;&gt;Node6 -->
<g id="edge988_Node000000_Node000006" class="edge">
<title>Node0&#45;&gt;Node6</title>
<g id="a_edge988_Node000000_Node000006"><a xlink:title=" ">
<path fill="none" stroke="#63b8ff" d="M87.82,-138.62C95.57,-138.62 103.68,-138.62 111.66,-138.62"/>
<polygon fill="#63b8ff" stroke="#63b8ff" points="87.88,-135.13 77.88,-138.63 87.88,-142.13 87.88,-135.13"/>
</a>
</g>
</g>
<!-- Node7 -->
<g id="Node000007" class="node">
<title>Node7</title>
<g id="a_Node000007"><a xlink:href="structJ2DAnmTransform.html" target="_top" xlink:title=" ">
<polygon fill="white" stroke="#666666" points="221.75,-111.25 124,-111.25 124,-92 221.75,-92 221.75,-111.25"/>
<text text-anchor="middle" x="172.88" y="-97.75" font-family="Helvetica,sans-Serif" font-size="10.00">J2DAnmTransform</text>
</a>
</g>
</g>
<!-- Node0&#45;&gt;Node7 -->
<g id="edge989_Node000000_Node000007" class="edge">
<title>Node0&#45;&gt;Node7</title>
<g id="a_edge989_Node000000_Node000007"><a xlink:title=" ">
<path fill="none" stroke="#63b8ff" d="M86.23,-125.47C102.47,-120.95 120.38,-115.96 135.61,-111.72"/>
<polygon fill="#63b8ff" stroke="#63b8ff" points="85.46,-122.05 76.77,-128.11 87.34,-128.8 85.46,-122.05"/>
</a>
</g>
</g>
<!-- Node10 -->
<g id="Node000010" class="node">
<title>Node10</title>
<g id="a_Node000010"><a xlink:href="structJ2DAnmVisibilityFull.html" target="_top" xlink:title=" ">
<polygon fill="white" stroke="#666666" points="225.5,-74.25 120.25,-74.25 120.25,-55 225.5,-55 225.5,-74.25"/>
<text text-anchor="middle" x="172.88" y="-60.75" font-family="Helvetica,sans-Serif" font-size="10.00">J2DAnmVisibilityFull</text>
</a>
</g>
</g>
<!-- Node0&#45;&gt;Node10 -->
<g id="edge992_Node000000_Node000010" class="edge">
<title>Node0&#45;&gt;Node10</title>
<g id="a_edge992_Node000000_Node000010"><a xlink:title=" ">
<path fill="none" stroke="#63b8ff" d="M57.79,-121.11C71.82,-108.86 91.94,-92.9 112,-82.62 117.99,-79.56 124.59,-76.92 131.16,-74.69"/>
<polygon fill="#63b8ff" stroke="#63b8ff" points="55.75,-118.24 50.65,-127.53 60.43,-123.45 55.75,-118.24"/>
</a>
</g>
</g>
<!-- Node11 -->
<g id="Node000011" class="node">
<title>Node11</title>
<g id="a_Node000011"><a xlink:href="structJ2DAnmVtxColor.html" target="_top" xlink:title=" ">
<polygon fill="white" stroke="#666666" points="218,-37.25 127.75,-37.25 127.75,-18 218,-18 218,-37.25"/>
<text text-anchor="middle" x="172.88" y="-23.75" font-family="Helvetica,sans-Serif" font-size="10.00">J2DAnmVtxColor</text>
</a>
</g>
</g>
<!-- Node0&#45;&gt;Node11 -->
<g id="edge993_Node000000_Node000011" class="edge">
<title>Node0&#45;&gt;Node11</title>
<g id="a_edge993_Node000000_Node000011"><a xlink:title=" ">
<path fill="none" stroke="#63b8ff" d="M49.65,-118.71C61.96,-97.57 84.13,-64.64 112,-45.62 116.66,-42.44 121.9,-39.81 127.29,-37.64"/>
<polygon fill="#63b8ff" stroke="#63b8ff" points="46.71,-116.8 44.88,-127.24 52.82,-120.22 46.71,-116.8"/>
</a>
</g>
</g>
<!-- Node2 -->
<g id="Node000002" class="node">
<title>Node2</title>
<g id="a_Node000002"><a xlink:href="structJ2DAnmColorFull.html" target="_top" xlink:title=" ">
<polygon fill="white" stroke="#666666" points="372.75,-277.25 281,-277.25 281,-258 372.75,-258 372.75,-277.25"/>
<text text-anchor="middle" x="326.88" y="-263.75" font-family="Helvetica,sans-Serif" font-size="10.00">J2DAnmColorFull</text>
</a>
</g>
</g>
<!-- Node1&#45;&gt;Node2 -->
<g id="edge984_Node000001_Node000002" class="edge">
<title>Node1&#45;&gt;Node2</title>
<g id="a_edge984_Node000001_Node000002"><a xlink:title=" ">
<path fill="none" stroke="#63b8ff" d="M222.32,-255.36C241.02,-257.58 262.29,-260.1 280.67,-262.27"/>
<polygon fill="#63b8ff" stroke="#63b8ff" points="222.9,-251.91 212.56,-254.21 222.08,-258.86 222.9,-251.91"/>
</a>
</g>
</g>
<!-- Node3 -->
<g id="Node000003" class="node">
<title>Node3</title>
<g id="a_Node000003"><a xlink:href="structJ2DAnmColorKey.html" target="_top" xlink:title=" ">
<polygon fill="white" stroke="#666666" points="373.12,-240.25 280.62,-240.25 280.62,-221 373.12,-221 373.12,-240.25"/>
<text text-anchor="middle" x="326.88" y="-226.75" font-family="Helvetica,sans-Serif" font-size="10.00">J2DAnmColorKey</text>
</a>
</g>
</g>
<!-- Node1&#45;&gt;Node3 -->
<g id="edge985_Node000001_Node000003" class="edge">
<title>Node1&#45;&gt;Node3</title>
<g id="a_edge985_Node000001_Node000003"><a xlink:title=" ">
<path fill="none" stroke="#63b8ff" d="M222.27,-243.58C240.89,-241.25 262.06,-238.6 280.39,-236.31"/>
<polygon fill="#63b8ff" stroke="#63b8ff" points="222.05,-240.08 212.56,-244.79 222.92,-247.02 222.05,-240.08"/>
</a>
</g>
</g>
<!-- Node8 -->
<g id="Node000008" class="node">
<title>Node8</title>
<g id="a_Node000008"><a xlink:href="structJ2DAnmTransformFull.html" target="_top" xlink:title=" ">
<polygon fill="white" stroke="#666666" points="383.62,-139.25 270.12,-139.25 270.12,-120 383.62,-120 383.62,-139.25"/>
<text text-anchor="middle" x="326.88" y="-125.75" font-family="Helvetica,sans-Serif" font-size="10.00">J2DAnmTransformFull</text>
</a>
</g>
</g>
<!-- Node7&#45;&gt;Node8 -->
<g id="edge990_Node000007_Node000008" class="edge">
<title>Node7&#45;&gt;Node8</title>
<g id="a_edge990_Node000007_Node000008"><a xlink:title=" ">
<path fill="none" stroke="#63b8ff" d="M233.17,-112.55C245.61,-114.84 258.68,-117.25 270.95,-119.51"/>
<polygon fill="#63b8ff" stroke="#63b8ff" points="233.93,-109.13 223.46,-110.76 232.66,-116.01 233.93,-109.13"/>
</a>
</g>
</g>
<!-- Node9 -->
<g id="Node000009" class="node">
<title>Node9</title>
<g id="a_Node000009"><a xlink:href="structJ2DAnmTransformKey.html" target="_top" xlink:title=" ">
<polygon fill="white" stroke="#666666" points="384,-102.25 269.75,-102.25 269.75,-83 384,-83 384,-102.25"/>
<text text-anchor="middle" x="326.88" y="-88.75" font-family="Helvetica,sans-Serif" font-size="10.00">J2DAnmTransformKey</text>
</a>
</g>
</g>
<!-- Node7&#45;&gt;Node9 -->
<g id="edge991_Node000007_Node000009" class="edge">
<title>Node7&#45;&gt;Node9</title>
<g id="a_edge991_Node000007_Node000009"><a xlink:title=" ">
<path fill="none" stroke="#63b8ff" d="M233.16,-98.11C245.06,-97.41 257.53,-96.67 269.33,-95.97"/>
<polygon fill="#63b8ff" stroke="#63b8ff" points="233.26,-94.6 223.48,-98.69 233.67,-101.59 233.26,-94.6"/>
</a>
</g>
</g>
<!-- Node12 -->
<g id="Node000012" class="node">
<title>Node12</title>
<g id="a_Node000012"><a xlink:href="structJ2DAnmVtxColorFull.html" target="_top" xlink:title=" ">
<polygon fill="white" stroke="#666666" points="379.88,-56.25 273.88,-56.25 273.88,-37 379.88,-37 379.88,-56.25"/>
<text text-anchor="middle" x="326.88" y="-42.75" font-family="Helvetica,sans-Serif" font-size="10.00">J2DAnmVtxColorFull</text>
</a>
</g>
</g>
<!-- Node11&#45;&gt;Node12 -->
<g id="edge994_Node000011_Node000012" class="edge">
<title>Node11&#45;&gt;Node12</title>
<g id="a_edge994_Node000011_Node000012"><a xlink:title=" ">
<path fill="none" stroke="#63b8ff" d="M229.48,-34.58C243.82,-36.37 259.21,-38.29 273.39,-40.06"/>
<polygon fill="#63b8ff" stroke="#63b8ff" points="230.11,-31.13 219.75,-33.36 229.24,-38.07 230.11,-31.13"/>
</a>
</g>
</g>
<!-- Node13 -->
<g id="Node000013" class="node">
<title>Node13</title>
<g id="a_Node000013"><a xlink:href="structJ2DAnmVtxColorKey.html" target="_top" xlink:title=" ">
<polygon fill="white" stroke="#666666" points="380.25,-19.25 273.5,-19.25 273.5,0 380.25,0 380.25,-19.25"/>
<text text-anchor="middle" x="326.88" y="-5.75" font-family="Helvetica,sans-Serif" font-size="10.00">J2DAnmVtxColorKey</text>
</a>
</g>
</g>
<!-- Node11&#45;&gt;Node13 -->
<g id="edge995_Node000011_Node000013" class="edge">
<title>Node11&#45;&gt;Node13</title>
<g id="a_edge995_Node000011_Node000013"><a xlink:title=" ">
<path fill="none" stroke="#63b8ff" d="M229.42,-21.05C243.69,-19.36 259,-17.54 273.12,-15.87"/>
<polygon fill="#63b8ff" stroke="#63b8ff" points="229.27,-17.54 219.75,-22.19 230.09,-24.49 229.27,-17.54"/>
</a>
</g>
</g>
</g>
</svg>
