<?xml version="1.0" encoding="UTF-8" standalone="no"?>
<!DOCTYPE svg PUBLIC "-//W3C//DTD SVG 1.1//EN"
 "http://www.w3.org/Graphics/SVG/1.1/DTD/svg11.dtd">
<!-- Generated by graphviz version 9.0.0 (20230911.1827)
 -->
<!-- Title: Graphical Class Hierarchy Pages: 1 -->
<svg width="273pt" height="64pt"
 viewBox="0.00 0.00 272.50 64.25" xmlns="http://www.w3.org/2000/svg" xmlns:xlink="http://www.w3.org/1999/xlink">
<g id="graph0" class="graph" transform="scale(1 1) rotate(0) translate(4 60.25)">
<title>Graphical Class Hierarchy</title>
<!-- Node0 -->
<g id="Node000000" class="node">
<title>Node0</title>
<g id="a_Node000000"><a xlink:href="structJMessage_1_1TControl.html" target="_top" xlink:title=" ">
<polygon fill="white" stroke="#666666" points="102.25,-37.25 0,-37.25 0,-18 102.25,-18 102.25,-37.25"/>
<text text-anchor="middle" x="51.12" y="-23.75" font-family="Helvetica,sans-Serif" font-size="10.00">JMessage::TControl</text>
</a>
</g>
</g>
<!-- Node1 -->
<g id="Node000001" class="node">
<title>Node1</title>
<g id="a_Node000001"><a xlink:href="structjmessage__string__tControl.html" target="_top" xlink:title=" ">
<polygon fill="white" stroke="#666666" points="264.5,-56.25 138.25,-56.25 138.25,-37 264.5,-37 264.5,-56.25"/>
<text text-anchor="middle" x="201.38" y="-42.75" font-family="Helvetica,sans-Serif" font-size="10.00">jmessage_string_tControl</text>
</a>
</g>
</g>
<!-- Node0&#45;&gt;Node1 -->
<g id="edge1361_Node000000_Node000001" class="edge">
<title>Node0&#45;&gt;Node1</title>
<g id="a_edge1361_Node000000_Node000001"><a xlink:title=" ">
<path fill="none" stroke="#63b8ff" d="M114.1,-35.57C121.98,-36.58 130.05,-37.61 137.93,-38.62"/>
<polygon fill="#63b8ff" stroke="#63b8ff" points="114.59,-32.1 104.23,-34.3 113.7,-39.05 114.59,-32.1"/>
</a>
</g>
</g>
<!-- Node2 -->
<g id="Node000002" class="node">
<title>Node2</title>
<g id="a_Node000002"><a xlink:href="structjmessage__tControl.html" target="_top" xlink:title=" ">
<polygon fill="white" stroke="#666666" points="249.88,-19.25 152.88,-19.25 152.88,0 249.88,0 249.88,-19.25"/>
<text text-anchor="middle" x="201.38" y="-5.75" font-family="Helvetica,sans-Serif" font-size="10.00">jmessage_tControl</text>
</a>
</g>
</g>
<!-- Node0&#45;&gt;Node2 -->
<g id="edge1362_Node000000_Node000002" class="edge">
<title>Node0&#45;&gt;Node2</title>
<g id="a_edge1362_Node000000_Node000002"><a xlink:title=" ">
<path fill="none" stroke="#63b8ff" d="M113.89,-20.13C126.79,-18.56 140.2,-16.93 152.5,-15.44"/>
<polygon fill="#63b8ff" stroke="#63b8ff" points="113.74,-16.62 104.23,-21.3 114.58,-23.57 113.74,-16.62"/>
</a>
</g>
</g>
</g>
</svg>
