<?xml version="1.0" encoding="UTF-8" standalone="no"?>
<!DOCTYPE svg PUBLIC "-//W3C//DTD SVG 1.1//EN"
 "http://www.w3.org/Graphics/SVG/1.1/DTD/svg11.dtd">
<!-- Generated by graphviz version 9.0.0 (20230911.1827)
 -->
<!-- Title: Graphical Class Hierarchy Pages: 1 -->
<svg width="229pt" height="212pt"
 viewBox="0.00 0.00 229.00 212.25" xmlns="http://www.w3.org/2000/svg" xmlns:xlink="http://www.w3.org/1999/xlink">
<g id="graph0" class="graph" transform="scale(1 1) rotate(0) translate(4 208.25)">
<title>Graphical Class Hierarchy</title>
<!-- Node0 -->
<g id="Node000000" class="node">
<title>Node0</title>
<g id="a_Node000000"><a xlink:href="classJ3DTevBlock.html" target="_top" xlink:title=" ">
<polygon fill="white" stroke="#666666" points="74.5,-111.25 0,-111.25 0,-92 74.5,-92 74.5,-111.25"/>
<text text-anchor="middle" x="37.25" y="-97.75" font-family="Helvetica,sans-Serif" font-size="10.00">J3DTevBlock</text>
</a>
</g>
</g>
<!-- Node1 -->
<g id="Node000001" class="node">
<title>Node1</title>
<g id="a_Node000001"><a xlink:href="classJ3DTevBlock1.html" target="_top" xlink:title=" ">
<polygon fill="white" stroke="#666666" points="205.62,-204.25 125.88,-204.25 125.88,-185 205.62,-185 205.62,-204.25"/>
<text text-anchor="middle" x="165.75" y="-190.75" font-family="Helvetica,sans-Serif" font-size="10.00">J3DTevBlock1</text>
</a>
</g>
</g>
<!-- Node0&#45;&gt;Node1 -->
<g id="edge1114_Node000000_Node000001" class="edge">
<title>Node0&#45;&gt;Node1</title>
<g id="a_edge1114_Node000000_Node000001"><a xlink:title=" ">
<path fill="none" stroke="#63b8ff" d="M52.13,-120.58C65.4,-137.45 86.84,-161.72 110.5,-176.62 115.45,-179.75 121.01,-182.38 126.62,-184.6"/>
<polygon fill="#63b8ff" stroke="#63b8ff" points="55.07,-118.66 46.23,-112.82 49.5,-122.9 55.07,-118.66"/>
</a>
</g>
</g>
<!-- Node2 -->
<g id="Node000002" class="node">
<title>Node2</title>
<g id="a_Node000002"><a xlink:href="classJ3DTevBlock16.html" target="_top" xlink:title=" ">
<polygon fill="white" stroke="#666666" points="208.25,-167.25 123.25,-167.25 123.25,-148 208.25,-148 208.25,-167.25"/>
<text text-anchor="middle" x="165.75" y="-153.75" font-family="Helvetica,sans-Serif" font-size="10.00">J3DTevBlock16</text>
</a>
</g>
</g>
<!-- Node0&#45;&gt;Node2 -->
<g id="edge1115_Node000000_Node000002" class="edge">
<title>Node0&#45;&gt;Node2</title>
<g id="a_edge1115_Node000000_Node000002"><a xlink:title=" ">
<path fill="none" stroke="#63b8ff" d="M65.33,-117.22C78.68,-124.55 95.17,-133.1 110.5,-139.62 117.17,-142.46 124.44,-145.14 131.44,-147.53"/>
<polygon fill="#63b8ff" stroke="#63b8ff" points="67.14,-114.22 56.7,-112.4 63.72,-120.33 67.14,-114.22"/>
</a>
</g>
</g>
<!-- Node3 -->
<g id="Node000003" class="node">
<title>Node3</title>
<g id="a_Node000003"><a xlink:href="classJ3DTevBlock2.html" target="_top" xlink:title=" ">
<polygon fill="white" stroke="#666666" points="205.62,-130.25 125.88,-130.25 125.88,-111 205.62,-111 205.62,-130.25"/>
<text text-anchor="middle" x="165.75" y="-116.75" font-family="Helvetica,sans-Serif" font-size="10.00">J3DTevBlock2</text>
</a>
</g>
</g>
<!-- Node0&#45;&gt;Node3 -->
<g id="edge1116_Node000000_Node000003" class="edge">
<title>Node0&#45;&gt;Node3</title>
<g id="a_edge1116_Node000000_Node000003"><a xlink:title=" ">
<path fill="none" stroke="#63b8ff" d="M86.01,-108.8C99.08,-110.76 113.07,-112.86 125.59,-114.74"/>
<polygon fill="#63b8ff" stroke="#63b8ff" points="86.74,-105.37 76.34,-107.35 85.7,-112.29 86.74,-105.37"/>
</a>
</g>
</g>
<!-- Node4 -->
<g id="Node000004" class="node">
<title>Node4</title>
<g id="a_Node000004"><a xlink:href="classJ3DTevBlock4.html" target="_top" xlink:title=" ">
<polygon fill="white" stroke="#666666" points="205.62,-93.25 125.88,-93.25 125.88,-74 205.62,-74 205.62,-93.25"/>
<text text-anchor="middle" x="165.75" y="-79.75" font-family="Helvetica,sans-Serif" font-size="10.00">J3DTevBlock4</text>
</a>
</g>
</g>
<!-- Node0&#45;&gt;Node4 -->
<g id="edge1117_Node000000_Node000004" class="edge">
<title>Node0&#45;&gt;Node4</title>
<g id="a_edge1117_Node000000_Node000004"><a xlink:title=" ">
<path fill="none" stroke="#63b8ff" d="M86.01,-94.83C99.08,-92.97 113.07,-90.98 125.59,-89.2"/>
<polygon fill="#63b8ff" stroke="#63b8ff" points="85.74,-91.33 76.34,-96.21 86.73,-98.26 85.74,-91.33"/>
</a>
</g>
</g>
<!-- Node5 -->
<g id="Node000005" class="node">
<title>Node5</title>
<g id="a_Node000005"><a xlink:href="classJ3DTevBlockNull.html" target="_top" xlink:title=" ">
<polygon fill="white" stroke="#666666" points="211.62,-56.25 119.88,-56.25 119.88,-37 211.62,-37 211.62,-56.25"/>
<text text-anchor="middle" x="165.75" y="-42.75" font-family="Helvetica,sans-Serif" font-size="10.00">J3DTevBlockNull</text>
</a>
</g>
</g>
<!-- Node0&#45;&gt;Node5 -->
<g id="edge1118_Node000000_Node000005" class="edge">
<title>Node0&#45;&gt;Node5</title>
<g id="a_edge1118_Node000000_Node000005"><a xlink:title=" ">
<path fill="none" stroke="#63b8ff" d="M65.92,-86.2C79.18,-79.13 95.42,-70.94 110.5,-64.62 117.27,-61.79 124.66,-59.09 131.75,-56.68"/>
<polygon fill="#63b8ff" stroke="#63b8ff" points="64.46,-83.01 57.33,-90.85 67.79,-89.16 64.46,-83.01"/>
</a>
</g>
</g>
<!-- Node6 -->
<g id="Node000006" class="node">
<title>Node6</title>
<g id="a_Node000006"><a xlink:href="classJ3DTevBlockPatched.html" target="_top" xlink:title=" ">
<polygon fill="white" stroke="#666666" points="221,-19.25 110.5,-19.25 110.5,0 221,0 221,-19.25"/>
<text text-anchor="middle" x="165.75" y="-5.75" font-family="Helvetica,sans-Serif" font-size="10.00">J3DTevBlockPatched</text>
</a>
</g>
</g>
<!-- Node0&#45;&gt;Node6 -->
<g id="edge1119_Node000000_Node000006" class="edge">
<title>Node0&#45;&gt;Node6</title>
<g id="a_edge1119_Node000000_Node000006"><a xlink:title=" ">
<path fill="none" stroke="#63b8ff" d="M52.4,-82.67C65.72,-66.03 87.08,-42.27 110.5,-27.62 115.46,-24.52 121.02,-21.89 126.64,-19.68"/>
<polygon fill="#63b8ff" stroke="#63b8ff" points="49.83,-80.27 46.46,-90.32 55.36,-84.57 49.83,-80.27"/>
</a>
</g>
</g>
</g>
</svg>
