<?xml version="1.0" encoding="UTF-8" standalone="no"?>
<!DOCTYPE svg PUBLIC "-//W3C//DTD SVG 1.1//EN"
 "http://www.w3.org/Graphics/SVG/1.1/DTD/svg11.dtd">
<!-- Generated by graphviz version 9.0.0 (20230911.1827)
 -->
<!-- Title: Graphical Class Hierarchy Pages: 1 -->
<svg width="204pt" height="101pt"
 viewBox="0.00 0.00 203.50 101.25" xmlns="http://www.w3.org/2000/svg" xmlns:xlink="http://www.w3.org/1999/xlink">
<g id="graph0" class="graph" transform="scale(1 1) rotate(0) translate(4 97.25)">
<title>Graphical Class Hierarchy</title>
<!-- Node0 -->
<g id="Node000000" class="node">
<title>Node0</title>
<g id="a_Node000000"><a xlink:href="structVec.html" target="_top" xlink:title=" ">
<polygon fill="white" stroke="#666666" points="33.25,-56.25 0,-56.25 0,-37 33.25,-37 33.25,-56.25"/>
<text text-anchor="middle" x="16.62" y="-42.75" font-family="Helvetica,sans-Serif" font-size="10.00">Vec</text>
</a>
</g>
</g>
<!-- Node1 -->
<g id="Node000001" class="node">
<title>Node1</title>
<g id="a_Node000001"><a xlink:href="structJGeometry_1_1TVec3_3_01f32_01_4.html" target="_top" xlink:title=" ">
<polygon fill="white" stroke="#666666" points="195.5,-93.25 69.25,-93.25 69.25,-74 195.5,-74 195.5,-93.25"/>
<text text-anchor="middle" x="132.38" y="-79.75" font-family="Helvetica,sans-Serif" font-size="10.00">JGeometry::TVec3&lt; f32 &gt;</text>
</a>
</g>
</g>
<!-- Node0&#45;&gt;Node1 -->
<g id="edge1543_Node000000_Node000001" class="edge">
<title>Node0&#45;&gt;Node1</title>
<g id="a_edge1543_Node000000_Node000001"><a xlink:title=" ">
<path fill="none" stroke="#63b8ff" d="M44.01,-56.74C52.07,-59.72 60.99,-62.91 69.25,-65.62 77.57,-68.36 86.59,-71.1 95.11,-73.58"/>
<polygon fill="#63b8ff" stroke="#63b8ff" points="45.35,-53.51 34.76,-53.27 42.89,-60.06 45.35,-53.51"/>
</a>
</g>
</g>
<!-- Node2 -->
<g id="Node000002" class="node">
<title>Node2</title>
<g id="a_Node000002"><a xlink:href="structcBgD__Vtx__t.html" target="_top" xlink:title=" ">
<polygon fill="white" stroke="#666666" points="166.25,-56.25 98.5,-56.25 98.5,-37 166.25,-37 166.25,-56.25"/>
<text text-anchor="middle" x="132.38" y="-42.75" font-family="Helvetica,sans-Serif" font-size="10.00">cBgD_Vtx_t</text>
</a>
</g>
</g>
<!-- Node0&#45;&gt;Node2 -->
<g id="edge1544_Node000000_Node000002" class="edge">
<title>Node0&#45;&gt;Node2</title>
<g id="a_edge1544_Node000000_Node000002"><a xlink:title=" ">
<path fill="none" stroke="#63b8ff" d="M44.76,-46.62C60.86,-46.62 81.38,-46.62 98.41,-46.62"/>
<polygon fill="#63b8ff" stroke="#63b8ff" points="44.96,-43.13 34.95,-46.63 44.95,-50.13 44.96,-43.13"/>
</a>
</g>
</g>
<!-- Node3 -->
<g id="Node000003" class="node">
<title>Node3</title>
<g id="a_Node000003"><a xlink:href="structcXyz.html" target="_top" xlink:title=" ">
<polygon fill="white" stroke="#666666" points="150.88,-19.25 113.88,-19.25 113.88,0 150.88,0 150.88,-19.25"/>
<text text-anchor="middle" x="132.38" y="-5.75" font-family="Helvetica,sans-Serif" font-size="10.00">cXyz</text>
</a>
</g>
</g>
<!-- Node0&#45;&gt;Node3 -->
<g id="edge1545_Node000000_Node000003" class="edge">
<title>Node0&#45;&gt;Node3</title>
<g id="a_edge1545_Node000000_Node000003"><a xlink:title=" ">
<path fill="none" stroke="#63b8ff" d="M44.01,-36.51C52.07,-33.53 60.99,-30.34 69.25,-27.62 84.08,-22.75 101.12,-17.87 113.6,-14.42"/>
<polygon fill="#63b8ff" stroke="#63b8ff" points="42.89,-33.19 34.76,-39.98 45.35,-39.74 42.89,-33.19"/>
</a>
</g>
</g>
</g>
</svg>
