<?xml version="1.0" encoding="UTF-8" standalone="no"?>
<!DOCTYPE svg PUBLIC "-//W3C//DTD SVG 1.1//EN"
 "http://www.w3.org/Graphics/SVG/1.1/DTD/svg11.dtd">
<!-- Generated by graphviz version 9.0.0 (20230911.1827)
 -->
<!-- Title: Graphical Class Hierarchy Pages: 1 -->
<svg width="242pt" height="360pt"
 viewBox="0.00 0.00 241.75 360.25" xmlns="http://www.w3.org/2000/svg" xmlns:xlink="http://www.w3.org/1999/xlink">
<g id="graph0" class="graph" transform="scale(1 1) rotate(0) translate(4 356.25)">
<title>Graphical Class Hierarchy</title>
<!-- Node0 -->
<g id="Node000000" class="node">
<title>Node0</title>
<g id="a_Node000000"><a xlink:href="structJ3DModelBlock.html" target="_top" xlink:title=" ">
<polygon fill="white" stroke="#666666" points="84.25,-185.25 0,-185.25 0,-166 84.25,-166 84.25,-185.25"/>
<text text-anchor="middle" x="42.12" y="-171.75" font-family="Helvetica,sans-Serif" font-size="10.00">J3DModelBlock</text>
</a>
</g>
</g>
<!-- Node1 -->
<g id="Node000001" class="node">
<title>Node1</title>
<g id="a_Node000001"><a xlink:href="structJ3DDrawBlock.html" target="_top" xlink:title=" ">
<polygon fill="white" stroke="#666666" points="217.25,-352.25 136.75,-352.25 136.75,-333 217.25,-333 217.25,-352.25"/>
<text text-anchor="middle" x="177" y="-338.75" font-family="Helvetica,sans-Serif" font-size="10.00">J3DDrawBlock</text>
</a>
</g>
</g>
<!-- Node0&#45;&gt;Node1 -->
<g id="edge1053_Node000000_Node000001" class="edge">
<title>Node0&#45;&gt;Node1</title>
<g id="a_edge1053_Node000000_Node000001"><a xlink:title=" ">
<path fill="none" stroke="#63b8ff" d="M48.36,-196.37C57.51,-228.47 79.45,-290.07 120.25,-324.62 124.98,-328.63 130.63,-331.76 136.48,-334.18"/>
<polygon fill="#63b8ff" stroke="#63b8ff" points="51.84,-195.84 45.86,-187.09 45.08,-197.66 51.84,-195.84"/>
</a>
</g>
</g>
<!-- Node2 -->
<g id="Node000002" class="node">
<title>Node2</title>
<g id="a_Node000002"><a xlink:href="structJ3DEnvelopeBlock.html" target="_top" xlink:title=" ">
<polygon fill="white" stroke="#666666" points="225.88,-315.25 128.12,-315.25 128.12,-296 225.88,-296 225.88,-315.25"/>
<text text-anchor="middle" x="177" y="-301.75" font-family="Helvetica,sans-Serif" font-size="10.00">J3DEnvelopeBlock</text>
</a>
</g>
</g>
<!-- Node0&#45;&gt;Node2 -->
<g id="edge1054_Node000000_Node000002" class="edge">
<title>Node0&#45;&gt;Node2</title>
<g id="a_edge1054_Node000000_Node000002"><a xlink:title=" ">
<path fill="none" stroke="#63b8ff" d="M51.95,-195.81C63.9,-220.87 87.57,-263.29 120.25,-287.62 124.49,-290.78 129.31,-293.4 134.3,-295.57"/>
<polygon fill="#63b8ff" stroke="#63b8ff" points="55.27,-194.65 47.92,-187.01 48.9,-197.56 55.27,-194.65"/>
</a>
</g>
</g>
<!-- Node3 -->
<g id="Node000003" class="node">
<title>Node3</title>
<g id="a_Node000003"><a xlink:href="structJ3DJointBlock.html" target="_top" xlink:title=" ">
<polygon fill="white" stroke="#666666" points="216.5,-278.25 137.5,-278.25 137.5,-259 216.5,-259 216.5,-278.25"/>
<text text-anchor="middle" x="177" y="-264.75" font-family="Helvetica,sans-Serif" font-size="10.00">J3DJointBlock</text>
</a>
</g>
</g>
<!-- Node0&#45;&gt;Node3 -->
<g id="edge1055_Node000000_Node000003" class="edge">
<title>Node0&#45;&gt;Node3</title>
<g id="a_edge1055_Node000000_Node000003"><a xlink:title=" ">
<path fill="none" stroke="#63b8ff" d="M57.78,-194.11C72.08,-211.01 95.27,-235.59 120.25,-250.62 125.48,-253.77 131.32,-256.43 137.2,-258.66"/>
<polygon fill="#63b8ff" stroke="#63b8ff" points="60.82,-192.29 51.76,-186.79 55.41,-196.73 60.82,-192.29"/>
</a>
</g>
</g>
<!-- Node4 -->
<g id="Node000004" class="node">
<title>Node4</title>
<g id="a_Node000004"><a xlink:href="structJ3DMaterialBlock.html" target="_top" xlink:title=" ">
<polygon fill="white" stroke="#666666" points="223.25,-241.25 130.75,-241.25 130.75,-222 223.25,-222 223.25,-241.25"/>
<text text-anchor="middle" x="177" y="-227.75" font-family="Helvetica,sans-Serif" font-size="10.00">J3DMaterialBlock</text>
</a>
</g>
</g>
<!-- Node0&#45;&gt;Node4 -->
<g id="edge1056_Node000000_Node000004" class="edge">
<title>Node0&#45;&gt;Node4</title>
<g id="a_edge1056_Node000000_Node000004"><a xlink:title=" ">
<path fill="none" stroke="#63b8ff" d="M71.28,-190.73C85.7,-198.14 103.66,-206.9 120.25,-213.62 127.23,-216.45 134.83,-219.15 142.11,-221.55"/>
<polygon fill="#63b8ff" stroke="#63b8ff" points="73.31,-187.84 62.82,-186.31 70.07,-194.04 73.31,-187.84"/>
</a>
</g>
</g>
<!-- Node5 -->
<g id="Node000005" class="node">
<title>Node5</title>
<g id="a_Node000005"><a xlink:href="structJ3DMaterialBlock__v21.html" target="_top" xlink:title=" ">
<polygon fill="white" stroke="#666666" points="233.75,-204.25 120.25,-204.25 120.25,-185 233.75,-185 233.75,-204.25"/>
<text text-anchor="middle" x="177" y="-190.75" font-family="Helvetica,sans-Serif" font-size="10.00">J3DMaterialBlock_v21</text>
</a>
</g>
</g>
<!-- Node0&#45;&gt;Node5 -->
<g id="edge1057_Node000000_Node000005" class="edge">
<title>Node0&#45;&gt;Node5</title>
<g id="a_edge1057_Node000000_Node000005"><a xlink:title=" ">
<path fill="none" stroke="#63b8ff" d="M95.57,-183.12C103.61,-184.27 111.95,-185.47 120.06,-186.63"/>
<polygon fill="#63b8ff" stroke="#63b8ff" points="96.33,-179.7 85.94,-181.75 95.34,-186.63 96.33,-179.7"/>
</a>
</g>
</g>
<!-- Node6 -->
<g id="Node000006" class="node">
<title>Node6</title>
<g id="a_Node000006"><a xlink:href="structJ3DMaterialDLBlock.html" target="_top" xlink:title=" ">
<polygon fill="white" stroke="#666666" points="229.62,-167.25 124.38,-167.25 124.38,-148 229.62,-148 229.62,-167.25"/>
<text text-anchor="middle" x="177" y="-153.75" font-family="Helvetica,sans-Serif" font-size="10.00">J3DMaterialDLBlock</text>
</a>
</g>
</g>
<!-- Node0&#45;&gt;Node6 -->
<g id="edge1058_Node000000_Node000006" class="edge">
<title>Node0&#45;&gt;Node6</title>
<g id="a_edge1058_Node000000_Node000006"><a xlink:title=" ">
<path fill="none" stroke="#63b8ff" d="M95.57,-168.52C104.89,-167.26 114.6,-165.94 123.92,-164.68"/>
<polygon fill="#63b8ff" stroke="#63b8ff" points="95.38,-165.01 85.94,-169.83 96.32,-171.95 95.38,-165.01"/>
</a>
</g>
</g>
<!-- Node7 -->
<g id="Node000007" class="node">
<title>Node7</title>
<g id="a_Node000007"><a xlink:href="structJ3DModelInfoBlock.html" target="_top" xlink:title=" ">
<polygon fill="white" stroke="#666666" points="227.38,-130.25 126.62,-130.25 126.62,-111 227.38,-111 227.38,-130.25"/>
<text text-anchor="middle" x="177" y="-116.75" font-family="Helvetica,sans-Serif" font-size="10.00">J3DModelInfoBlock</text>
</a>
</g>
</g>
<!-- Node0&#45;&gt;Node7 -->
<g id="edge1059_Node000000_Node000007" class="edge">
<title>Node0&#45;&gt;Node7</title>
<g id="a_edge1059_Node000000_Node000007"><a xlink:title=" ">
<path fill="none" stroke="#63b8ff" d="M72.32,-160.47C86.57,-153.37 104.09,-145.07 120.25,-138.62 127.33,-135.8 135.05,-133.08 142.43,-130.65"/>
<polygon fill="#63b8ff" stroke="#63b8ff" points="70.83,-157.3 63.49,-164.93 73.99,-163.55 70.83,-157.3"/>
</a>
</g>
</g>
<!-- Node8 -->
<g id="Node000008" class="node">
<title>Node8</title>
<g id="a_Node000008"><a xlink:href="structJ3DShapeBlock.html" target="_top" xlink:title=" ">
<polygon fill="white" stroke="#666666" points="219.88,-93.25 134.12,-93.25 134.12,-74 219.88,-74 219.88,-93.25"/>
<text text-anchor="middle" x="177" y="-79.75" font-family="Helvetica,sans-Serif" font-size="10.00">J3DShapeBlock</text>
</a>
</g>
</g>
<!-- Node0&#45;&gt;Node8 -->
<g id="edge1060_Node000000_Node000008" class="edge">
<title>Node0&#45;&gt;Node8</title>
<g id="a_edge1060_Node000000_Node000008"><a xlink:title=" ">
<path fill="none" stroke="#63b8ff" d="M58.07,-157.13C72.42,-140.47 95.52,-116.4 120.25,-101.62 125.4,-98.55 131.14,-95.93 136.92,-93.73"/>
<polygon fill="#63b8ff" stroke="#63b8ff" points="55.75,-154.44 52.01,-164.35 61.12,-158.94 55.75,-154.44"/>
</a>
</g>
</g>
<!-- Node9 -->
<g id="Node000009" class="node">
<title>Node9</title>
<g id="a_Node000009"><a xlink:href="structJ3DTextureBlock.html" target="_top" xlink:title=" ">
<polygon fill="white" stroke="#666666" points="222.12,-56.25 131.88,-56.25 131.88,-37 222.12,-37 222.12,-56.25"/>
<text text-anchor="middle" x="177" y="-42.75" font-family="Helvetica,sans-Serif" font-size="10.00">J3DTextureBlock</text>
</a>
</g>
</g>
<!-- Node0&#45;&gt;Node9 -->
<g id="edge1061_Node000000_Node000009" class="edge">
<title>Node0&#45;&gt;Node9</title>
<g id="a_edge1061_Node000000_Node000009"><a xlink:title=" ">
<path fill="none" stroke="#63b8ff" d="M52.16,-155.29C64.21,-130.41 87.87,-88.63 120.25,-64.62 124.5,-61.48 129.32,-58.86 134.31,-56.7"/>
<polygon fill="#63b8ff" stroke="#63b8ff" points="49,-153.79 47.95,-164.33 55.34,-156.74 49,-153.79"/>
</a>
</g>
</g>
<!-- Node10 -->
<g id="Node000010" class="node">
<title>Node10</title>
<g id="a_Node000010"><a xlink:href="structJ3DVertexBlock.html" target="_top" xlink:title=" ">
<polygon fill="white" stroke="#666666" points="219.88,-19.25 134.12,-19.25 134.12,0 219.88,0 219.88,-19.25"/>
<text text-anchor="middle" x="177" y="-5.75" font-family="Helvetica,sans-Serif" font-size="10.00">J3DVertexBlock</text>
</a>
</g>
</g>
<!-- Node0&#45;&gt;Node10 -->
<g id="edge1062_Node000000_Node000010" class="edge">
<title>Node0&#45;&gt;Node10</title>
<g id="a_edge1062_Node000000_Node000010"><a xlink:title=" ">
<path fill="none" stroke="#63b8ff" d="M48.52,-154.6C57.8,-122.59 79.8,-61.79 120.25,-27.62 124.21,-24.28 128.81,-21.55 133.63,-19.33"/>
<polygon fill="#63b8ff" stroke="#63b8ff" points="45.15,-153.66 45.88,-164.23 51.9,-155.51 45.15,-153.66"/>
</a>
</g>
</g>
</g>
</svg>
