<?xml version="1.0" encoding="UTF-8" standalone="no"?>
<!DOCTYPE svg PUBLIC "-//W3C//DTD SVG 1.1//EN"
 "http://www.w3.org/Graphics/SVG/1.1/DTD/svg11.dtd">
<!-- Generated by graphviz version 9.0.0 (20230911.1827)
 -->
<!-- Title: Graphical Class Hierarchy Pages: 1 -->
<svg width="181pt" height="64pt"
 viewBox="0.00 0.00 181.00 64.25" xmlns="http://www.w3.org/2000/svg" xmlns:xlink="http://www.w3.org/1999/xlink">
<g id="graph0" class="graph" transform="scale(1 1) rotate(0) translate(4 60.25)">
<title>Graphical Class Hierarchy</title>
<!-- Node0 -->
<g id="Node000000" class="node">
<title>Node0</title>
<g id="a_Node000000"><a xlink:href="struct__GXColor.html" target="_top" xlink:title=" ">
<polygon fill="white" stroke="#666666" points="58,-37.25 0,-37.25 0,-18 58,-18 58,-37.25"/>
<text text-anchor="middle" x="29" y="-23.75" font-family="Helvetica,sans-Serif" font-size="10.00">_GXColor</text>
</a>
</g>
</g>
<!-- Node1 -->
<g id="Node000001" class="node">
<title>Node1</title>
<g id="a_Node000001"><a xlink:href="structJ3DGXColor.html" target="_top" xlink:title=" ">
<polygon fill="white" stroke="#666666" points="168.5,-56.25 98.5,-56.25 98.5,-37 168.5,-37 168.5,-56.25"/>
<text text-anchor="middle" x="133.5" y="-42.75" font-family="Helvetica,sans-Serif" font-size="10.00">J3DGXColor</text>
</a>
</g>
</g>
<!-- Node0&#45;&gt;Node1 -->
<g id="edge1_Node000000_Node000001" class="edge">
<title>Node0&#45;&gt;Node1</title>
<g id="a_edge1_Node000000_Node000001"><a xlink:title=" ">
<path fill="none" stroke="#63b8ff" d="M69.44,-34.94C78.89,-36.69 88.91,-38.54 98.11,-40.25"/>
<polygon fill="#63b8ff" stroke="#63b8ff" points="70.24,-31.52 59.77,-33.14 68.96,-38.41 70.24,-31.52"/>
</a>
</g>
</g>
<!-- Node2 -->
<g id="Node000002" class="node">
<title>Node2</title>
<g id="a_Node000002"><a xlink:href="structJUtility_1_1TColor.html" target="_top" xlink:title=" ">
<polygon fill="white" stroke="#666666" points="173,-19.25 94,-19.25 94,0 173,0 173,-19.25"/>
<text text-anchor="middle" x="133.5" y="-5.75" font-family="Helvetica,sans-Serif" font-size="10.00">JUtility::TColor</text>
</a>
</g>
</g>
<!-- Node0&#45;&gt;Node2 -->
<g id="edge2_Node000000_Node000002" class="edge">
<title>Node0&#45;&gt;Node2</title>
<g id="a_edge2_Node000000_Node000002"><a xlink:title=" ">
<path fill="none" stroke="#63b8ff" d="M69.48,-20.69C77.39,-19.3 85.69,-17.85 93.57,-16.46"/>
<polygon fill="#63b8ff" stroke="#63b8ff" points="69.01,-17.22 59.77,-22.4 70.23,-24.11 69.01,-17.22"/>
</a>
</g>
</g>
</g>
</svg>
