<?xml version="1.0" encoding="UTF-8" standalone="no"?>
<!DOCTYPE svg PUBLIC "-//W3C//DTD SVG 1.1//EN"
 "http://www.w3.org/Graphics/SVG/1.1/DTD/svg11.dtd">
<!-- Generated by graphviz version 9.0.0 (20230911.1827)
 -->
<!-- Title: Graphical Class Hierarchy Pages: 1 -->
<svg width="646pt" height="686pt"
 viewBox="0.00 0.00 645.75 685.50" xmlns="http://www.w3.org/2000/svg" xmlns:xlink="http://www.w3.org/1999/xlink">
<g id="graph0" class="graph" transform="scale(1 1) rotate(0) translate(4 681.5)">
<title>Graphical Class Hierarchy</title>
<!-- Node0 -->
<g id="Node000000" class="node">
<title>Node0</title>
<g id="a_Node000000"><a xlink:href="structJGadget_1_1binary_1_1TParseData.html" target="_top" xlink:title=" ">
<polygon fill="white" stroke="#666666" points="139,-303.88 0,-303.88 0,-284.62 139,-284.62 139,-303.88"/>
<text text-anchor="middle" x="69.5" y="-290.38" font-family="Helvetica,sans-Serif" font-size="10.00">JGadget::binary::TParseData</text>
</a>
</g>
</g>
<!-- Node1 -->
<g id="Node000001" class="node">
<title>Node1</title>
<g id="a_Node000001"><a xlink:href="structJGadget_1_1binary_1_1TParseData__aligned.html" target="_top" xlink:title=" ">
<polygon fill="white" stroke="#666666" points="314,-334.5 175,-334.5 175,-304 314,-304 314,-334.5"/>
<text text-anchor="start" x="183" y="-321" font-family="Helvetica,sans-Serif" font-size="10.00">JGadget::binary::TParseData</text>
<text text-anchor="middle" x="244.5" y="-309.75" font-family="Helvetica,sans-Serif" font-size="10.00">_aligned&lt; 4 &gt;</text>
</a>
</g>
</g>
<!-- Node0&#45;&gt;Node1 -->
<g id="edge1322_Node000000_Node000001" class="edge">
<title>Node0&#45;&gt;Node1</title>
<g id="a_edge1322_Node000000_Node000001"><a xlink:title=" ">
<path fill="none" stroke="#63b8ff" d="M150.62,-305.83C158.62,-306.98 166.7,-308.15 174.58,-309.29"/>
<polygon fill="#63b8ff" stroke="#63b8ff" points="151.27,-302.39 140.87,-304.42 150.27,-309.31 151.27,-302.39"/>
</a>
</g>
</g>
<!-- Node19 -->
<g id="Node000019" class="node">
<title>Node19</title>
<g id="a_Node000019"><a xlink:href="structJGadget_1_1binary_1_1TParseData__aligned.html" target="_top" xlink:title=" ">
<polygon fill="white" stroke="#666666" points="314,-285.5 175,-285.5 175,-255 314,-255 314,-285.5"/>
<text text-anchor="start" x="183" y="-272" font-family="Helvetica,sans-Serif" font-size="10.00">JGadget::binary::TParseData</text>
<text text-anchor="middle" x="244.5" y="-260.75" font-family="Helvetica,sans-Serif" font-size="10.00">_aligned&lt; T &gt;</text>
</a>
</g>
</g>
<!-- Node0&#45;&gt;Node19 -->
<g id="edge1340_Node000000_Node000019" class="edge">
<title>Node0&#45;&gt;Node19</title>
<g id="a_edge1340_Node000000_Node000019"><a xlink:title=" ">
<path fill="none" stroke="#63b8ff" d="M150.62,-283.14C158.62,-282.02 166.7,-280.9 174.58,-279.81"/>
<polygon fill="#63b8ff" stroke="#63b8ff" points="150.29,-279.65 140.87,-284.49 151.26,-286.58 150.29,-279.65"/>
</a>
</g>
</g>
<!-- Node2 -->
<g id="Node000002" class="node">
<title>Node2</title>
<g id="a_Node000002"><a xlink:href="structJMessage_1_1data_1_1TParse__TBlock.html" target="_top" xlink:title=" ">
<polygon fill="white" stroke="#666666" points="475.88,-628.5 355.62,-628.5 355.62,-598 475.88,-598 475.88,-628.5"/>
<text text-anchor="start" x="363.62" y="-615" font-family="Helvetica,sans-Serif" font-size="10.00">JMessage::data::TParse</text>
<text text-anchor="middle" x="415.75" y="-603.75" font-family="Helvetica,sans-Serif" font-size="10.00">_TBlock</text>
</a>
</g>
</g>
<!-- Node1&#45;&gt;Node2 -->
<g id="edge1323_Node000001_Node000002" class="edge">
<title>Node1&#45;&gt;Node2</title>
<g id="a_edge1323_Node000001_Node000002"><a xlink:title=" ">
<path fill="none" stroke="#63b8ff" d="M248.71,-346.18C256.46,-399.5 280.91,-519.3 350,-588.25 353.58,-591.83 357.73,-594.9 362.17,-597.54"/>
<polygon fill="#63b8ff" stroke="#63b8ff" points="252.21,-345.92 247.4,-336.49 245.27,-346.87 252.21,-345.92"/>
</a>
</g>
</g>
<!-- Node6 -->
<g id="Node000006" class="node">
<title>Node6</title>
<g id="a_Node000006"><a xlink:href="structJMessage_1_1data_1_1TParse__THeader.html" target="_top" xlink:title=" ">
<polygon fill="white" stroke="#666666" points="475.88,-579.5 355.62,-579.5 355.62,-549 475.88,-549 475.88,-579.5"/>
<text text-anchor="start" x="363.62" y="-566" font-family="Helvetica,sans-Serif" font-size="10.00">JMessage::data::TParse</text>
<text text-anchor="middle" x="415.75" y="-554.75" font-family="Helvetica,sans-Serif" font-size="10.00">_THeader</text>
</a>
</g>
</g>
<!-- Node1&#45;&gt;Node6 -->
<g id="edge1327_Node000001_Node000006" class="edge">
<title>Node1&#45;&gt;Node6</title>
<g id="a_edge1327_Node000001_Node000006"><a xlink:title=" ">
<path fill="none" stroke="#63b8ff" d="M251.33,-345.99C262.63,-391.7 291.66,-485.13 350,-539.25 353.89,-542.86 358.35,-545.96 363.08,-548.63"/>
<polygon fill="#63b8ff" stroke="#63b8ff" points="254.78,-345.35 249.07,-336.42 247.96,-346.96 254.78,-345.35"/>
</a>
</g>
</g>
<!-- Node7 -->
<g id="Node000007" class="node">
<title>Node7</title>
<g id="a_Node000007"><a xlink:href="structJStudio_1_1ctb_1_1data_1_1TParse__TBlock.html" target="_top" xlink:title=" ">
<polygon fill="white" stroke="#666666" points="460.88,-530.5 370.62,-530.5 370.62,-500 460.88,-500 460.88,-530.5"/>
<text text-anchor="start" x="378.62" y="-517" font-family="Helvetica,sans-Serif" font-size="10.00">JStudio::ctb::data</text>
<text text-anchor="middle" x="415.75" y="-505.75" font-family="Helvetica,sans-Serif" font-size="10.00">::TParse_TBlock</text>
</a>
</g>
</g>
<!-- Node1&#45;&gt;Node7 -->
<g id="edge1328_Node000001_Node000007" class="edge">
<title>Node1&#45;&gt;Node7</title>
<g id="a_edge1328_Node000001_Node000007"><a xlink:title=" ">
<path fill="none" stroke="#63b8ff" d="M255.09,-345.25C269.99,-382.31 302.06,-450.25 350,-490.25 356.01,-495.27 363.15,-499.35 370.45,-502.65"/>
<polygon fill="#63b8ff" stroke="#63b8ff" points="258.46,-344.27 251.57,-336.22 251.94,-346.81 258.46,-344.27"/>
</a>
</g>
</g>
<!-- Node8 -->
<g id="Node000008" class="node">
<title>Node8</title>
<g id="a_Node000008"><a xlink:href="structJStudio_1_1ctb_1_1data_1_1TParse__THeader.html" target="_top" xlink:title=" ">
<polygon fill="white" stroke="#666666" points="463.12,-481.5 368.38,-481.5 368.38,-451 463.12,-451 463.12,-481.5"/>
<text text-anchor="start" x="376.38" y="-468" font-family="Helvetica,sans-Serif" font-size="10.00">JStudio::ctb::data</text>
<text text-anchor="middle" x="415.75" y="-456.75" font-family="Helvetica,sans-Serif" font-size="10.00">::TParse_THeader</text>
</a>
</g>
</g>
<!-- Node1&#45;&gt;Node8 -->
<g id="edge1329_Node000001_Node000008" class="edge">
<title>Node1&#45;&gt;Node8</title>
<g id="a_edge1329_Node000001_Node000008"><a xlink:title=" ">
<path fill="none" stroke="#63b8ff" d="M261.51,-344.5C279.91,-371.72 312.44,-414.69 350,-441.25 355.51,-445.15 361.71,-448.53 368.03,-451.45"/>
<polygon fill="#63b8ff" stroke="#63b8ff" points="264.44,-342.58 256,-336.17 258.6,-346.44 264.44,-342.58"/>
</a>
</g>
</g>
<!-- Node9 -->
<g id="Node000009" class="node">
<title>Node9</title>
<g id="a_Node000009"><a xlink:href="classJStudio_1_1fvb_1_1data_1_1TParse__TBlock.html" target="_top" xlink:title=" ">
<polygon fill="white" stroke="#666666" points="460.88,-432.5 370.62,-432.5 370.62,-402 460.88,-402 460.88,-432.5"/>
<text text-anchor="start" x="378.62" y="-419" font-family="Helvetica,sans-Serif" font-size="10.00">JStudio::fvb::data</text>
<text text-anchor="middle" x="415.75" y="-407.75" font-family="Helvetica,sans-Serif" font-size="10.00">::TParse_TBlock</text>
</a>
</g>
</g>
<!-- Node1&#45;&gt;Node9 -->
<g id="edge1330_Node000001_Node000009" class="edge">
<title>Node1&#45;&gt;Node9</title>
<g id="a_edge1330_Node000001_Node000009"><a xlink:title=" ">
<path fill="none" stroke="#63b8ff" d="M273.64,-341.72C294.02,-357.27 322.68,-377.71 350,-392.25 356.38,-395.65 363.33,-398.82 370.23,-401.7"/>
<polygon fill="#63b8ff" stroke="#63b8ff" points="275.87,-339.01 265.82,-335.66 271.59,-344.55 275.87,-339.01"/>
</a>
</g>
</g>
<!-- Node10 -->
<g id="Node000010" class="node">
<title>Node10</title>
<g id="a_Node000010"><a xlink:href="classJStudio_1_1fvb_1_1data_1_1TParse__THeader.html" target="_top" xlink:title=" ">
<polygon fill="white" stroke="#666666" points="463.12,-383.5 368.38,-383.5 368.38,-353 463.12,-353 463.12,-383.5"/>
<text text-anchor="start" x="376.38" y="-370" font-family="Helvetica,sans-Serif" font-size="10.00">JStudio::fvb::data</text>
<text text-anchor="middle" x="415.75" y="-358.75" font-family="Helvetica,sans-Serif" font-size="10.00">::TParse_THeader</text>
</a>
</g>
</g>
<!-- Node1&#45;&gt;Node10 -->
<g id="edge1331_Node000001_Node000010" class="edge">
<title>Node1&#45;&gt;Node10</title>
<g id="a_edge1331_Node000001_Node000010"><a xlink:title=" ">
<path fill="none" stroke="#63b8ff" d="M310.33,-338.02C329.56,-343.59 350.24,-349.57 368.08,-354.74"/>
<polygon fill="#63b8ff" stroke="#63b8ff" points="311.55,-334.73 300.97,-335.31 309.6,-341.45 311.55,-334.73"/>
</a>
</g>
</g>
<!-- Node11 -->
<g id="Node000011" class="node">
<title>Node11</title>
<g id="a_Node000011"><a xlink:href="classJStudio_1_1fvb_1_1data_1_1TParse__TParagraph.html" target="_top" xlink:title=" ">
<polygon fill="white" stroke="#666666" points="469.5,-334.5 362,-334.5 362,-304 469.5,-304 469.5,-334.5"/>
<text text-anchor="start" x="370" y="-321" font-family="Helvetica,sans-Serif" font-size="10.00">JStudio::fvb::data</text>
<text text-anchor="middle" x="415.75" y="-309.75" font-family="Helvetica,sans-Serif" font-size="10.00">::TParse_TParagraph</text>
</a>
</g>
</g>
<!-- Node1&#45;&gt;Node11 -->
<g id="edge1332_Node000001_Node000011" class="edge">
<title>Node1&#45;&gt;Node11</title>
<g id="a_edge1332_Node000001_Node000011"><a xlink:title=" ">
<path fill="none" stroke="#63b8ff" d="M325.5,-319.25C337.73,-319.25 350.09,-319.25 361.55,-319.25"/>
<polygon fill="#63b8ff" stroke="#63b8ff" points="325.85,-315.75 315.85,-319.25 325.85,-322.75 325.85,-315.75"/>
</a>
</g>
</g>
<!-- Node12 -->
<g id="Node000012" class="node">
<title>Node12</title>
<g id="a_Node000012"><a xlink:href="classJStudio_1_1stb_1_1data_1_1TParse__TBlock.html" target="_top" xlink:title=" ">
<polygon fill="white" stroke="#666666" points="460.88,-285.5 370.62,-285.5 370.62,-255 460.88,-255 460.88,-285.5"/>
<text text-anchor="start" x="378.62" y="-272" font-family="Helvetica,sans-Serif" font-size="10.00">JStudio::stb::data</text>
<text text-anchor="middle" x="415.75" y="-260.75" font-family="Helvetica,sans-Serif" font-size="10.00">::TParse_TBlock</text>
</a>
</g>
</g>
<!-- Node1&#45;&gt;Node12 -->
<g id="edge1333_Node000001_Node000012" class="edge">
<title>Node1&#45;&gt;Node12</title>
<g id="a_edge1333_Node000001_Node000012"><a xlink:title=" ">
<path fill="none" stroke="#63b8ff" d="M310.44,-300.45C330.44,-294.66 352,-288.42 370.3,-283.12"/>
<polygon fill="#63b8ff" stroke="#63b8ff" points="309.6,-297.05 300.97,-303.19 311.55,-303.77 309.6,-297.05"/>
</a>
</g>
</g>
<!-- Node14 -->
<g id="Node000014" class="node">
<title>Node14</title>
<g id="a_Node000014"><a xlink:href="classJStudio_1_1stb_1_1data_1_1TParse__THeader.html" target="_top" xlink:title=" ">
<polygon fill="white" stroke="#666666" points="463.12,-236.5 368.38,-236.5 368.38,-206 463.12,-206 463.12,-236.5"/>
<text text-anchor="start" x="376.38" y="-223" font-family="Helvetica,sans-Serif" font-size="10.00">JStudio::stb::data</text>
<text text-anchor="middle" x="415.75" y="-211.75" font-family="Helvetica,sans-Serif" font-size="10.00">::TParse_THeader</text>
</a>
</g>
</g>
<!-- Node1&#45;&gt;Node14 -->
<g id="edge1335_Node000001_Node000014" class="edge">
<title>Node1&#45;&gt;Node14</title>
<g id="a_edge1335_Node000001_Node000014"><a xlink:title=" ">
<path fill="none" stroke="#63b8ff" d="M308.41,-298.05C310.34,-296.85 312.21,-295.58 314,-294.25 335.41,-278.35 328.74,-262.34 350,-246.25 355.48,-242.1 361.72,-238.57 368.13,-235.57"/>
<polygon fill="#63b8ff" stroke="#63b8ff" points="306.78,-294.95 299.7,-302.83 310.15,-301.09 306.78,-294.95"/>
</a>
</g>
</g>
<!-- Node15 -->
<g id="Node000015" class="node">
<title>Node15</title>
<g id="a_Node000015"><a xlink:href="classJStudio_1_1stb_1_1data_1_1TParse__TParagraph.html" target="_top" xlink:title=" ">
<polygon fill="white" stroke="#666666" points="469.5,-187.5 362,-187.5 362,-157 469.5,-157 469.5,-187.5"/>
<text text-anchor="start" x="370" y="-174" font-family="Helvetica,sans-Serif" font-size="10.00">JStudio::stb::data</text>
<text text-anchor="middle" x="415.75" y="-162.75" font-family="Helvetica,sans-Serif" font-size="10.00">::TParse_TParagraph</text>
</a>
</g>
</g>
<!-- Node1&#45;&gt;Node15 -->
<g id="edge1336_Node000001_Node000015" class="edge">
<title>Node1&#45;&gt;Node15</title>
<g id="a_edge1336_Node000001_Node000015"><a xlink:title=" ">
<path fill="none" stroke="#63b8ff" d="M311.21,-296.83C312.17,-296 313.1,-295.14 314,-294.25 346.6,-261.82 317.7,-229.98 350,-197.25 353.56,-193.65 357.69,-190.55 362.11,-187.9"/>
<polygon fill="#63b8ff" stroke="#63b8ff" points="309.18,-293.98 303.07,-302.64 313.24,-299.68 309.18,-293.98"/>
</a>
</g>
</g>
<!-- Node16 -->
<g id="Node000016" class="node">
<title>Node16</title>
<g id="a_Node000016"><a xlink:href="structJStudio_1_1stb_1_1data_1_1TParse__TParagraph__data.html" target="_top" xlink:title=" ">
<polygon fill="white" stroke="#666666" points="481.5,-138.5 350,-138.5 350,-108 481.5,-108 481.5,-138.5"/>
<text text-anchor="start" x="358" y="-125" font-family="Helvetica,sans-Serif" font-size="10.00">JStudio::stb::data</text>
<text text-anchor="middle" x="415.75" y="-113.75" font-family="Helvetica,sans-Serif" font-size="10.00">::TParse_TParagraph_data</text>
</a>
</g>
</g>
<!-- Node1&#45;&gt;Node16 -->
<g id="edge1337_Node000001_Node000016" class="edge">
<title>Node1&#45;&gt;Node16</title>
<g id="a_edge1337_Node000001_Node000016"><a xlink:title=" ">
<path fill="none" stroke="#63b8ff" d="M311.81,-296.53C312.57,-295.79 313.3,-295.03 314,-294.25 358.63,-244.51 305.83,-198.4 350,-148.25 353.19,-144.63 356.96,-141.54 361.05,-138.88"/>
<polygon fill="#63b8ff" stroke="#63b8ff" points="309.81,-293.65 304.12,-302.59 314.14,-299.15 309.81,-293.65"/>
</a>
</g>
</g>
<!-- Node17 -->
<g id="Node000017" class="node">
<title>Node17</title>
<g id="a_Node000017"><a xlink:href="classJStudio_1_1stb_1_1data_1_1TParse__TParagraph__dataID.html" target="_top" xlink:title=" ">
<polygon fill="white" stroke="#666666" points="469.5,-90.12 362,-90.12 362,-48.38 469.5,-48.38 469.5,-90.12"/>
<text text-anchor="start" x="370" y="-76.62" font-family="Helvetica,sans-Serif" font-size="10.00">JStudio::stb::data</text>
<text text-anchor="start" x="370" y="-65.38" font-family="Helvetica,sans-Serif" font-size="10.00">::TParse_TParagraph</text>
<text text-anchor="middle" x="415.75" y="-54.12" font-family="Helvetica,sans-Serif" font-size="10.00">_dataID</text>
</a>
</g>
</g>
<!-- Node1&#45;&gt;Node17 -->
<g id="edge1338_Node000001_Node000017" class="edge">
<title>Node1&#45;&gt;Node17</title>
<g id="a_edge1338_Node000001_Node000017"><a xlink:title=" ">
<path fill="none" stroke="#63b8ff" d="M312.24,-296.21C312.85,-295.57 313.43,-294.92 314,-294.25 370.89,-226.94 295.98,-168.89 350,-99.25 353.27,-95.04 357.26,-91.4 361.65,-88.25"/>
<polygon fill="#63b8ff" stroke="#63b8ff" points="310.08,-293.46 304.64,-302.55 314.56,-298.83 310.08,-293.46"/>
</a>
</g>
</g>
<!-- Node18 -->
<g id="Node000018" class="node">
<title>Node18</title>
<g id="a_Node000018"><a xlink:href="classJStudio_1_1stb_1_1data_1_1TParse__TSequence.html" target="_top" xlink:title=" ">
<polygon fill="white" stroke="#666666" points="469.12,-30.5 362.38,-30.5 362.38,0 469.12,0 469.12,-30.5"/>
<text text-anchor="start" x="370.38" y="-17" font-family="Helvetica,sans-Serif" font-size="10.00">JStudio::stb::data</text>
<text text-anchor="middle" x="415.75" y="-5.75" font-family="Helvetica,sans-Serif" font-size="10.00">::TParse_TSequence</text>
</a>
</g>
</g>
<!-- Node1&#45;&gt;Node18 -->
<g id="edge1339_Node000001_Node000018" class="edge">
<title>Node1&#45;&gt;Node18</title>
<g id="a_edge1339_Node000001_Node000018"><a xlink:title=" ">
<path fill="none" stroke="#63b8ff" d="M312.28,-296.24C312.87,-295.6 313.45,-294.93 314,-294.25 386.02,-205.29 278.2,-128.39 350,-39.25 353.31,-35.14 357.39,-31.74 361.89,-28.91"/>
<polygon fill="#63b8ff" stroke="#63b8ff" points="310.1,-293.5 304.8,-302.67 314.66,-298.81 310.1,-293.5"/>
</a>
</g>
</g>
<!-- Node3 -->
<g id="Node000003" class="node">
<title>Node3</title>
<g id="a_Node000003"><a xlink:href="structJMessage_1_1data_1_1TParse__TBlock__color.html" target="_top" xlink:title=" ">
<polygon fill="white" stroke="#666666" points="637.75,-677.5 517.5,-677.5 517.5,-647 637.75,-647 637.75,-677.5"/>
<text text-anchor="start" x="525.5" y="-664" font-family="Helvetica,sans-Serif" font-size="10.00">JMessage::data::TParse</text>
<text text-anchor="middle" x="577.62" y="-652.75" font-family="Helvetica,sans-Serif" font-size="10.00">_TBlock_color</text>
</a>
</g>
</g>
<!-- Node2&#45;&gt;Node3 -->
<g id="edge1324_Node000002_Node000003" class="edge">
<title>Node2&#45;&gt;Node3</title>
<g id="a_edge1324_Node000002_Node000003"><a xlink:title=" ">
<path fill="none" stroke="#63b8ff" d="M478.77,-632.26C494.15,-636.97 510.46,-641.97 525.26,-646.51"/>
<polygon fill="#63b8ff" stroke="#63b8ff" points="479.81,-628.92 469.22,-629.33 477.76,-635.61 479.81,-628.92"/>
</a>
</g>
</g>
<!-- Node4 -->
<g id="Node000004" class="node">
<title>Node4</title>
<g id="a_Node000004"><a xlink:href="structJMessage_1_1data_1_1TParse__TBlock__info.html" target="_top" xlink:title=" ">
<polygon fill="white" stroke="#666666" points="637.75,-628.5 517.5,-628.5 517.5,-598 637.75,-598 637.75,-628.5"/>
<text text-anchor="start" x="525.5" y="-615" font-family="Helvetica,sans-Serif" font-size="10.00">JMessage::data::TParse</text>
<text text-anchor="middle" x="577.62" y="-603.75" font-family="Helvetica,sans-Serif" font-size="10.00">_TBlock_info</text>
</a>
</g>
</g>
<!-- Node2&#45;&gt;Node4 -->
<g id="edge1325_Node000002_Node000004" class="edge">
<title>Node2&#45;&gt;Node4</title>
<g id="a_edge1325_Node000002_Node000004"><a xlink:title=" ">
<path fill="none" stroke="#63b8ff" d="M487.67,-613.25C497.48,-613.25 507.47,-613.25 517.04,-613.25"/>
<polygon fill="#63b8ff" stroke="#63b8ff" points="487.8,-609.75 477.8,-613.25 487.8,-616.75 487.8,-609.75"/>
</a>
</g>
</g>
<!-- Node5 -->
<g id="Node000005" class="node">
<title>Node5</title>
<g id="a_Node000005"><a xlink:href="structJMessage_1_1data_1_1TParse__TBlock__messageID.html" target="_top" xlink:title=" ">
<polygon fill="white" stroke="#666666" points="637.75,-579.5 517.5,-579.5 517.5,-549 637.75,-549 637.75,-579.5"/>
<text text-anchor="start" x="525.5" y="-566" font-family="Helvetica,sans-Serif" font-size="10.00">JMessage::data::TParse</text>
<text text-anchor="middle" x="577.62" y="-554.75" font-family="Helvetica,sans-Serif" font-size="10.00">_TBlock_messageID</text>
</a>
</g>
</g>
<!-- Node2&#45;&gt;Node5 -->
<g id="edge1326_Node000002_Node000005" class="edge">
<title>Node2&#45;&gt;Node5</title>
<g id="a_edge1326_Node000002_Node000005"><a xlink:title=" ">
<path fill="none" stroke="#63b8ff" d="M478.77,-594.24C494.15,-589.53 510.46,-584.53 525.26,-579.99"/>
<polygon fill="#63b8ff" stroke="#63b8ff" points="477.76,-590.89 469.22,-597.17 479.81,-597.58 477.76,-590.89"/>
</a>
</g>
</g>
<!-- Node13 -->
<g id="Node000013" class="node">
<title>Node13</title>
<g id="a_Node000013"><a xlink:href="classJStudio_1_1stb_1_1data_1_1TParse__TBlock__object.html" target="_top" xlink:title=" ">
<polygon fill="white" stroke="#666666" points="637.38,-285.5 517.88,-285.5 517.88,-255 637.38,-255 637.38,-285.5"/>
<text text-anchor="start" x="525.88" y="-272" font-family="Helvetica,sans-Serif" font-size="10.00">JStudio::stb::data</text>
<text text-anchor="middle" x="577.62" y="-260.75" font-family="Helvetica,sans-Serif" font-size="10.00">::TParse_TBlock_object</text>
</a>
</g>
</g>
<!-- Node12&#45;&gt;Node13 -->
<g id="edge1334_Node000012_Node000013" class="edge">
<title>Node12&#45;&gt;Node13</title>
<g id="a_edge1334_Node000012_Node000013"><a xlink:title=" ">
<path fill="none" stroke="#63b8ff" d="M472.61,-270.25C487.09,-270.25 502.74,-270.25 517.38,-270.25"/>
<polygon fill="#63b8ff" stroke="#63b8ff" points="472.8,-266.75 462.8,-270.25 472.8,-273.75 472.8,-266.75"/>
</a>
</g>
</g>
</g>
</svg>
