<?xml version="1.0" encoding="UTF-8" standalone="no"?>
<!DOCTYPE svg PUBLIC "-//W3C//DTD SVG 1.1//EN"
 "http://www.w3.org/Graphics/SVG/1.1/DTD/svg11.dtd">
<!-- Generated by graphviz version 9.0.0 (20230911.1827)
 -->
<!-- Title: Graphical Class Hierarchy Pages: 1 -->
<svg width="388pt" height="113pt"
 viewBox="0.00 0.00 388.25 112.88" xmlns="http://www.w3.org/2000/svg" xmlns:xlink="http://www.w3.org/1999/xlink">
<g id="graph0" class="graph" transform="scale(1 1) rotate(0) translate(4 108.88)">
<title>Graphical Class Hierarchy</title>
<!-- Node0 -->
<g id="Node000000" class="node">
<title>Node0</title>
<g id="a_Node000000"><a xlink:href="classJASBankList.html" target="_top" xlink:title=" ">
<polygon fill="white" stroke="#666666" points="73.75,-85.88 0,-85.88 0,-66.62 73.75,-66.62 73.75,-85.88"/>
<text text-anchor="middle" x="36.88" y="-72.38" font-family="Helvetica,sans-Serif" font-size="10.00">JASBankList</text>
</a>
</g>
</g>
<!-- Node1 -->
<g id="Node000001" class="node">
<title>Node1</title>
<g id="a_Node000001"><a xlink:href="classJASBankTable.html" target="_top" xlink:title=" ">
<polygon fill="white" stroke="#666666" points="227.75,-104.88 114.25,-104.88 114.25,-85.62 227.75,-85.62 227.75,-104.88"/>
<text text-anchor="middle" x="171" y="-91.38" font-family="Helvetica,sans-Serif" font-size="10.00">JASBankTable&lt; 256 &gt;</text>
</a>
</g>
</g>
<!-- Node0&#45;&gt;Node1 -->
<g id="edge1267_Node000000_Node000001" class="edge">
<title>Node0&#45;&gt;Node1</title>
<g id="a_edge1267_Node000000_Node000001"><a xlink:title=" ">
<path fill="none" stroke="#63b8ff" d="M85.34,-83.08C94.58,-84.4 104.35,-85.81 113.84,-87.17"/>
<polygon fill="#63b8ff" stroke="#63b8ff" points="85.87,-79.62 75.48,-81.66 84.88,-86.55 85.87,-79.62"/>
</a>
</g>
</g>
<!-- Node4 -->
<g id="Node000004" class="node">
<title>Node4</title>
<g id="a_Node000004"><a xlink:href="classJASBankTable.html" target="_top" xlink:title=" ">
<polygon fill="white" stroke="#666666" points="223.62,-67.88 118.38,-67.88 118.38,-48.62 223.62,-48.62 223.62,-67.88"/>
<text text-anchor="middle" x="171" y="-54.38" font-family="Helvetica,sans-Serif" font-size="10.00">JASBankTable&lt; N &gt;</text>
</a>
</g>
</g>
<!-- Node0&#45;&gt;Node4 -->
<g id="edge1269_Node000000_Node000004" class="edge">
<title>Node0&#45;&gt;Node4</title>
<g id="a_edge1269_Node000000_Node000004"><a xlink:title=" ">
<path fill="none" stroke="#63b8ff" d="M85.21,-69.8C95.88,-68.35 107.25,-66.8 118.09,-65.32"/>
<polygon fill="#63b8ff" stroke="#63b8ff" points="84.91,-66.31 75.48,-71.13 85.86,-73.25 84.91,-66.31"/>
</a>
</g>
</g>
<!-- Node2 -->
<g id="Node000002" class="node">
<title>Node2</title>
<g id="a_Node000002"><a xlink:href="classJASDefaultBankTable.html" target="_top" xlink:title=" ">
<polygon fill="white" stroke="#666666" points="380.25,-64.88 268.25,-64.88 268.25,-45.62 380.25,-45.62 380.25,-64.88"/>
<text text-anchor="middle" x="324.25" y="-51.38" font-family="Helvetica,sans-Serif" font-size="10.00">JASDefaultBankTable</text>
</a>
</g>
</g>
<!-- Node1&#45;&gt;Node2 -->
<g id="edge1268_Node000001_Node000002" class="edge">
<title>Node1&#45;&gt;Node2</title>
<g id="a_edge1268_Node000001_Node000002"><a xlink:title=" ">
<path fill="none" stroke="#63b8ff" d="M221.03,-82.28C241.81,-76.79 265.66,-70.48 285.1,-65.34"/>
<polygon fill="#63b8ff" stroke="#63b8ff" points="220.4,-78.83 211.63,-84.77 222.19,-85.6 220.4,-78.83"/>
</a>
</g>
</g>
<!-- Node3 -->
<g id="Node000003" class="node">
<title>Node3</title>
<g id="a_Node000003"><a xlink:href="classJASGlobalInstance.html" target="_top" xlink:title=" ">
<polygon fill="white" stroke="#666666" points="232.25,-30.5 109.75,-30.5 109.75,0 232.25,0 232.25,-30.5"/>
<text text-anchor="start" x="117.75" y="-17" font-family="Helvetica,sans-Serif" font-size="10.00">JASGlobalInstance&lt;</text>
<text text-anchor="middle" x="171" y="-5.75" font-family="Helvetica,sans-Serif" font-size="10.00"> JASDefaultBankTable &gt;</text>
</a>
</g>
</g>
<!-- Node3&#45;&gt;Node2 -->
<g id="edge1270_Node000003_Node000002" class="edge">
<title>Node3&#45;&gt;Node2</title>
<g id="a_edge1270_Node000003_Node000002"><a xlink:title=" ">
<path fill="none" stroke="#63b8ff" d="M242.46,-33.88C257.12,-37.76 272.03,-41.7 284.99,-45.13"/>
<polygon fill="#63b8ff" stroke="#63b8ff" points="243.37,-30.5 232.81,-31.33 241.58,-37.27 243.37,-30.5"/>
</a>
</g>
</g>
</g>
</svg>
