<?xml version="1.0" encoding="UTF-8" standalone="no"?>
<!DOCTYPE svg PUBLIC "-//W3C//DTD SVG 1.1//EN"
 "http://www.w3.org/Graphics/SVG/1.1/DTD/svg11.dtd">
<!-- Generated by graphviz version 9.0.0 (20230911.1827)
 -->
<!-- Title: Graphical Class Hierarchy Pages: 1 -->
<svg width="319pt" height="64pt"
 viewBox="0.00 0.00 319.00 64.25" xmlns="http://www.w3.org/2000/svg" xmlns:xlink="http://www.w3.org/1999/xlink">
<g id="graph0" class="graph" transform="scale(1 1) rotate(0) translate(4 60.25)">
<title>Graphical Class Hierarchy</title>
<!-- Node0 -->
<g id="Node000000" class="node">
<title>Node0</title>
<g id="a_Node000000"><a xlink:href="structJASGenericMemPool.html" target="_top" xlink:title=" ">
<polygon fill="white" stroke="#666666" points="109.75,-37.25 0,-37.25 0,-18 109.75,-18 109.75,-37.25"/>
<text text-anchor="middle" x="54.88" y="-23.75" font-family="Helvetica,sans-Serif" font-size="10.00">JASGenericMemPool</text>
</a>
</g>
</g>
<!-- Node1 -->
<g id="Node000001" class="node">
<title>Node1</title>
<g id="a_Node000001"><a xlink:href="classJASMemPool.html" target="_top" xlink:title=" ">
<polygon fill="white" stroke="#666666" points="277.62,-56.25 179.12,-56.25 179.12,-37 277.62,-37 277.62,-56.25"/>
<text text-anchor="middle" x="228.38" y="-42.75" font-family="Helvetica,sans-Serif" font-size="10.00">JASMemPool&lt; T &gt;</text>
</a>
</g>
</g>
<!-- Node0&#45;&gt;Node1 -->
<g id="edge1325_Node000000_Node000001" class="edge">
<title>Node0&#45;&gt;Node1</title>
<g id="a_edge1325_Node000000_Node000001"><a xlink:title=" ">
<path fill="none" stroke="#63b8ff" d="M121.45,-34.89C140.47,-37 160.9,-39.26 178.69,-41.23"/>
<polygon fill="#63b8ff" stroke="#63b8ff" points="121.97,-31.43 111.64,-33.8 121.2,-38.38 121.97,-31.43"/>
</a>
</g>
</g>
<!-- Node2 -->
<g id="Node000002" class="node">
<title>Node2</title>
<g id="a_Node000002"><a xlink:href="classJASMemPool__MultiThreaded.html" target="_top" xlink:title=" ">
<polygon fill="white" stroke="#666666" points="311,-19.25 145.75,-19.25 145.75,0 311,0 311,-19.25"/>
<text text-anchor="middle" x="228.38" y="-5.75" font-family="Helvetica,sans-Serif" font-size="10.00">JASMemPool_MultiThreaded&lt; T &gt;</text>
</a>
</g>
</g>
<!-- Node0&#45;&gt;Node2 -->
<g id="edge1326_Node000000_Node000002" class="edge">
<title>Node0&#45;&gt;Node2</title>
<g id="a_edge1326_Node000000_Node000002"><a xlink:title=" ">
<path fill="none" stroke="#63b8ff" d="M121.39,-20.75C129.2,-19.93 137.26,-19.08 145.27,-18.24"/>
<polygon fill="#63b8ff" stroke="#63b8ff" points="121.22,-17.25 111.64,-21.77 121.95,-24.21 121.22,-17.25"/>
</a>
</g>
</g>
</g>
</svg>
