<?xml version="1.0" encoding="UTF-8" standalone="no"?>
<!DOCTYPE svg PUBLIC "-//W3C//DTD SVG 1.1//EN"
 "http://www.w3.org/Graphics/SVG/1.1/DTD/svg11.dtd">
<!-- Generated by graphviz version 9.0.0 (20230911.1827)
 -->
<!-- Title: Graphical Class Hierarchy Pages: 1 -->
<svg width="405pt" height="101pt"
 viewBox="0.00 0.00 404.75 101.25" xmlns="http://www.w3.org/2000/svg" xmlns:xlink="http://www.w3.org/1999/xlink">
<g id="graph0" class="graph" transform="scale(1 1) rotate(0) translate(4 97.25)">
<title>Graphical Class Hierarchy</title>
<!-- Node0 -->
<g id="Node000000" class="node">
<title>Node0</title>
<g id="a_Node000000"><a xlink:href="classJ3DColorBlock.html" target="_top" xlink:title=" ">
<polygon fill="white" stroke="#666666" points="80.5,-56.25 0,-56.25 0,-37 80.5,-37 80.5,-56.25"/>
<text text-anchor="middle" x="40.25" y="-42.75" font-family="Helvetica,sans-Serif" font-size="10.00">J3DColorBlock</text>
</a>
</g>
</g>
<!-- Node1 -->
<g id="Node000001" class="node">
<title>Node1</title>
<g id="a_Node000001"><a xlink:href="classJ3DColorBlockLightOff.html" target="_top" xlink:title=" ">
<polygon fill="white" stroke="#666666" points="231.5,-93.25 116.5,-93.25 116.5,-74 231.5,-74 231.5,-93.25"/>
<text text-anchor="middle" x="174" y="-79.75" font-family="Helvetica,sans-Serif" font-size="10.00">J3DColorBlockLightOff</text>
</a>
</g>
</g>
<!-- Node0&#45;&gt;Node1 -->
<g id="edge1035_Node000000_Node000001" class="edge">
<title>Node0&#45;&gt;Node1</title>
<g id="a_edge1035_Node000000_Node000001"><a xlink:title=" ">
<path fill="none" stroke="#63b8ff" d="M88.08,-59.78C104.18,-64.3 121.94,-69.29 137.04,-73.53"/>
<polygon fill="#63b8ff" stroke="#63b8ff" points="89.28,-56.48 78.71,-57.14 87.39,-63.22 89.28,-56.48"/>
</a>
</g>
</g>
<!-- Node3 -->
<g id="Node000003" class="node">
<title>Node3</title>
<g id="a_Node000003"><a xlink:href="classJ3DColorBlockLightOn.html" target="_top" xlink:title=" ">
<polygon fill="white" stroke="#666666" points="231.5,-56.25 116.5,-56.25 116.5,-37 231.5,-37 231.5,-56.25"/>
<text text-anchor="middle" x="174" y="-42.75" font-family="Helvetica,sans-Serif" font-size="10.00">J3DColorBlockLightOn</text>
</a>
</g>
</g>
<!-- Node0&#45;&gt;Node3 -->
<g id="edge1037_Node000000_Node000003" class="edge">
<title>Node0&#45;&gt;Node3</title>
<g id="a_edge1037_Node000000_Node000003"><a xlink:title=" ">
<path fill="none" stroke="#63b8ff" d="M92.16,-46.62C100.11,-46.62 108.38,-46.62 116.45,-46.62"/>
<polygon fill="#63b8ff" stroke="#63b8ff" points="92.29,-43.13 82.29,-46.63 92.29,-50.13 92.29,-43.13"/>
</a>
</g>
</g>
<!-- Node4 -->
<g id="Node000004" class="node">
<title>Node4</title>
<g id="a_Node000004"><a xlink:href="structJ3DColorBlockNull.html" target="_top" xlink:title=" ">
<polygon fill="white" stroke="#666666" points="222.88,-19.25 125.12,-19.25 125.12,0 222.88,0 222.88,-19.25"/>
<text text-anchor="middle" x="174" y="-5.75" font-family="Helvetica,sans-Serif" font-size="10.00">J3DColorBlockNull</text>
</a>
</g>
</g>
<!-- Node0&#45;&gt;Node4 -->
<g id="edge1038_Node000000_Node000004" class="edge">
<title>Node0&#45;&gt;Node4</title>
<g id="a_edge1038_Node000000_Node000004"><a xlink:title=" ">
<path fill="none" stroke="#63b8ff" d="M88.08,-33.47C104.18,-28.95 121.94,-23.96 137.04,-19.72"/>
<polygon fill="#63b8ff" stroke="#63b8ff" points="87.39,-30.03 78.71,-36.11 89.28,-36.77 87.39,-30.03"/>
</a>
</g>
</g>
<!-- Node2 -->
<g id="Node000002" class="node">
<title>Node2</title>
<g id="a_Node000002"><a xlink:href="classJ3DColorBlockAmbientOn.html" target="_top" xlink:title=" ">
<polygon fill="white" stroke="#666666" points="396.75,-93.25 267.5,-93.25 267.5,-74 396.75,-74 396.75,-93.25"/>
<text text-anchor="middle" x="332.12" y="-79.75" font-family="Helvetica,sans-Serif" font-size="10.00">J3DColorBlockAmbientOn</text>
</a>
</g>
</g>
<!-- Node1&#45;&gt;Node2 -->
<g id="edge1036_Node000001_Node000002" class="edge">
<title>Node1&#45;&gt;Node2</title>
<g id="a_edge1036_Node000001_Node000002"><a xlink:title=" ">
<path fill="none" stroke="#63b8ff" d="M243.31,-83.62C251.26,-83.62 259.34,-83.62 267.23,-83.62"/>
<polygon fill="#63b8ff" stroke="#63b8ff" points="243.32,-80.13 233.32,-83.63 243.32,-87.13 243.32,-80.13"/>
</a>
</g>
</g>
</g>
</svg>
