<?xml version="1.0" encoding="UTF-8" standalone="no"?>
<!DOCTYPE svg PUBLIC "-//W3C//DTD SVG 1.1//EN"
 "http://www.w3.org/Graphics/SVG/1.1/DTD/svg11.dtd">
<!-- Generated by graphviz version 9.0.0 (20230911.1827)
 -->
<!-- Title: Graphical Class Hierarchy Pages: 1 -->
<svg width="403pt" height="101pt"
 viewBox="0.00 0.00 403.25 101.25" xmlns="http://www.w3.org/2000/svg" xmlns:xlink="http://www.w3.org/1999/xlink">
<g id="graph0" class="graph" transform="scale(1 1) rotate(0) translate(4 97.25)">
<title>Graphical Class Hierarchy</title>
<!-- Node0 -->
<g id="Node000000" class="node">
<title>Node0</title>
<g id="a_Node000000"><a xlink:href="structJASDisposer.html" target="_top" xlink:title=" ">
<polygon fill="white" stroke="#666666" points="73,-83.25 0,-83.25 0,-64 73,-64 73,-83.25"/>
<text text-anchor="middle" x="36.5" y="-69.75" font-family="Helvetica,sans-Serif" font-size="10.00">JASDisposer</text>
</a>
</g>
</g>
<!-- Node1 -->
<g id="Node000001" class="node">
<title>Node1</title>
<g id="a_Node000001"><a xlink:href="structJASWaveArc.html" target="_top" xlink:title=" ">
<polygon fill="white" stroke="#666666" points="187.25,-83.25 112.75,-83.25 112.75,-64 187.25,-64 187.25,-83.25"/>
<text text-anchor="middle" x="150" y="-69.75" font-family="Helvetica,sans-Serif" font-size="10.00">JASWaveArc</text>
</a>
</g>
</g>
<!-- Node0&#45;&gt;Node1 -->
<g id="edge1320_Node000000_Node000001" class="edge">
<title>Node0&#45;&gt;Node1</title>
<g id="a_edge1320_Node000000_Node000001"><a xlink:title=" ">
<path fill="none" stroke="#63b8ff" d="M84.83,-73.62C94.06,-73.62 103.6,-73.62 112.41,-73.62"/>
<polygon fill="#63b8ff" stroke="#63b8ff" points="84.91,-70.13 74.91,-73.63 84.91,-77.13 84.91,-70.13"/>
</a>
</g>
</g>
<!-- Node2 -->
<g id="Node000002" class="node">
<title>Node2</title>
<g id="a_Node000002"><a xlink:href="structJASBasicWaveBank_1_1TWaveGroup.html" target="_top" xlink:title=" ">
<polygon fill="white" stroke="#666666" points="395.25,-93.25 227,-93.25 227,-74 395.25,-74 395.25,-93.25"/>
<text text-anchor="middle" x="311.12" y="-79.75" font-family="Helvetica,sans-Serif" font-size="10.00">JASBasicWaveBank::TWaveGroup</text>
</a>
</g>
</g>
<!-- Node1&#45;&gt;Node2 -->
<g id="edge1321_Node000001_Node000002" class="edge">
<title>Node1&#45;&gt;Node2</title>
<g id="a_edge1321_Node000001_Node000002"><a xlink:title=" ">
<path fill="none" stroke="#63b8ff" d="M198.79,-76.63C207.68,-77.19 217.21,-77.79 226.81,-78.39"/>
<polygon fill="#63b8ff" stroke="#63b8ff" points="199.22,-73.15 189.02,-76.01 198.78,-80.13 199.22,-73.15"/>
</a>
</g>
</g>
<!-- Node3 -->
<g id="Node000003" class="node">
<title>Node3</title>
<g id="a_Node000003"><a xlink:href="structJASSimpleWaveBank.html" target="_top" xlink:title=" ">
<polygon fill="white" stroke="#666666" points="367.12,-56.25 255.12,-56.25 255.12,-37 367.12,-37 367.12,-56.25"/>
<text text-anchor="middle" x="311.12" y="-42.75" font-family="Helvetica,sans-Serif" font-size="10.00">JASSimpleWaveBank</text>
</a>
</g>
</g>
<!-- Node1&#45;&gt;Node3 -->
<g id="edge1322_Node000001_Node000003" class="edge">
<title>Node1&#45;&gt;Node3</title>
<g id="a_edge1322_Node000001_Node000003"><a xlink:title=" ">
<path fill="none" stroke="#63b8ff" d="M198.69,-65.53C216.33,-62.54 236.48,-59.12 254.74,-56.02"/>
<polygon fill="#63b8ff" stroke="#63b8ff" points="198.27,-62.05 189,-67.18 199.44,-68.96 198.27,-62.05"/>
</a>
</g>
</g>
<!-- Node4 -->
<g id="Node000004" class="node">
<title>Node4</title>
<g id="a_Node000004"><a xlink:href="classJASWaveBank.html" target="_top" xlink:title=" ">
<polygon fill="white" stroke="#666666" points="191,-37.25 109,-37.25 109,-18 191,-18 191,-37.25"/>
<text text-anchor="middle" x="150" y="-23.75" font-family="Helvetica,sans-Serif" font-size="10.00">JASWaveBank</text>
</a>
</g>
</g>
<!-- Node4&#45;&gt;Node3 -->
<g id="edge1324_Node000004_Node000003" class="edge">
<title>Node4&#45;&gt;Node3</title>
<g id="a_edge1324_Node000004_Node000003"><a xlink:title=" ">
<path fill="none" stroke="#63b8ff" d="M202.37,-33.76C219.07,-35.75 237.67,-37.97 254.66,-40"/>
<polygon fill="#63b8ff" stroke="#63b8ff" points="203,-30.31 192.66,-32.6 202.17,-37.26 203,-30.31"/>
</a>
</g>
</g>
<!-- Node5 -->
<g id="Node000005" class="node">
<title>Node5</title>
<g id="a_Node000005"><a xlink:href="structJASBasicWaveBank.html" target="_top" xlink:title=" ">
<polygon fill="white" stroke="#666666" points="364.5,-19.25 257.75,-19.25 257.75,0 364.5,0 364.5,-19.25"/>
<text text-anchor="middle" x="311.12" y="-5.75" font-family="Helvetica,sans-Serif" font-size="10.00">JASBasicWaveBank</text>
</a>
</g>
</g>
<!-- Node4&#45;&gt;Node5 -->
<g id="edge1323_Node000004_Node000005" class="edge">
<title>Node4&#45;&gt;Node5</title>
<g id="a_edge1323_Node000004_Node000005"><a xlink:title=" ">
<path fill="none" stroke="#63b8ff" d="M202.36,-21.81C219.95,-19.83 239.65,-17.6 257.35,-15.6"/>
<polygon fill="#63b8ff" stroke="#63b8ff" points="202.2,-18.31 192.66,-22.91 202.99,-25.27 202.2,-18.31"/>
</a>
</g>
</g>
</g>
</svg>
