<?xml version="1.0" encoding="UTF-8" standalone="no"?>
<!DOCTYPE svg PUBLIC "-//W3C//DTD SVG 1.1//EN"
 "http://www.w3.org/Graphics/SVG/1.1/DTD/svg11.dtd">
<!-- Generated by graphviz version 9.0.0 (20230911.1827)
 -->
<!-- Title: Graphical Class Hierarchy Pages: 1 -->
<svg width="307pt" height="76pt"
 viewBox="0.00 0.00 307.00 75.88" xmlns="http://www.w3.org/2000/svg" xmlns:xlink="http://www.w3.org/1999/xlink">
<g id="graph0" class="graph" transform="scale(1 1) rotate(0) translate(4 71.88)">
<title>Graphical Class Hierarchy</title>
<!-- Node0 -->
<g id="Node000000" class="node">
<title>Node0</title>
<g id="a_Node000000"><a xlink:href="classJASWaveHandle.html" target="_top" xlink:title=" ">
<polygon fill="white" stroke="#666666" points="90.25,-45.88 0,-45.88 0,-26.62 90.25,-26.62 90.25,-45.88"/>
<text text-anchor="middle" x="45.12" y="-32.38" font-family="Helvetica,sans-Serif" font-size="10.00">JASWaveHandle</text>
</a>
</g>
</g>
<!-- Node1 -->
<g id="Node000001" class="node">
<title>Node1</title>
<g id="a_Node000001"><a xlink:href="structJASBasicWaveBank_1_1TWaveHandle.html" target="_top" xlink:title=" ">
<polygon fill="white" stroke="#666666" points="299,-67.88 126.25,-67.88 126.25,-48.62 299,-48.62 299,-67.88"/>
<text text-anchor="middle" x="212.62" y="-54.38" font-family="Helvetica,sans-Serif" font-size="10.00">JASBasicWaveBank::TWaveHandle</text>
</a>
</g>
</g>
<!-- Node0&#45;&gt;Node1 -->
<g id="edge1348_Node000000_Node000001" class="edge">
<title>Node0&#45;&gt;Node1</title>
<g id="a_edge1348_Node000000_Node000001"><a xlink:title=" ">
<path fill="none" stroke="#63b8ff" d="M101.55,-43.62C112.45,-45.07 124.07,-46.61 135.52,-48.13"/>
<polygon fill="#63b8ff" stroke="#63b8ff" points="102.35,-40.19 91.98,-42.35 101.43,-47.13 102.35,-40.19"/>
</a>
</g>
</g>
<!-- Node2 -->
<g id="Node000002" class="node">
<title>Node2</title>
<g id="a_Node000002"><a xlink:href="structJASSimpleWaveBank_1_1TWaveHandle.html" target="_top" xlink:title=" ">
<polygon fill="white" stroke="#666666" points="270.88,-30.5 154.38,-30.5 154.38,0 270.88,0 270.88,-30.5"/>
<text text-anchor="start" x="162.38" y="-17" font-family="Helvetica,sans-Serif" font-size="10.00">JASSimpleWaveBank::</text>
<text text-anchor="middle" x="212.62" y="-5.75" font-family="Helvetica,sans-Serif" font-size="10.00">TWaveHandle</text>
</a>
</g>
</g>
<!-- Node0&#45;&gt;Node2 -->
<g id="edge1349_Node000000_Node000002" class="edge">
<title>Node0&#45;&gt;Node2</title>
<g id="a_edge1349_Node000000_Node000002"><a xlink:title=" ">
<path fill="none" stroke="#63b8ff" d="M101.81,-29.18C118.63,-27.05 137.12,-24.7 154.05,-22.56"/>
<polygon fill="#63b8ff" stroke="#63b8ff" points="101.46,-25.7 91.98,-30.43 102.34,-32.65 101.46,-25.7"/>
</a>
</g>
</g>
</g>
</svg>
