<?xml version="1.0" encoding="UTF-8" standalone="no"?>
<!DOCTYPE svg PUBLIC "-//W3C//DTD SVG 1.1//EN"
 "http://www.w3.org/Graphics/SVG/1.1/DTD/svg11.dtd">
<!-- Generated by graphviz version 9.0.0 (20230911.1827)
 -->
<!-- Title: Graphical Class Hierarchy Pages: 1 -->
<svg width="218pt" height="76pt"
 viewBox="0.00 0.00 217.75 75.88" xmlns="http://www.w3.org/2000/svg" xmlns:xlink="http://www.w3.org/1999/xlink">
<g id="graph0" class="graph" transform="scale(1 1) rotate(0) translate(4 71.88)">
<title>Graphical Class Hierarchy</title>
<!-- Node0 -->
<g id="Node000000" class="node">
<title>Node0</title>
<g id="a_Node000000"><a xlink:href="structJAIAudience.html" target="_top" xlink:title=" ">
<polygon fill="white" stroke="#666666" points="88.75,-67.88 17.25,-67.88 17.25,-48.62 88.75,-48.62 88.75,-67.88"/>
<text text-anchor="middle" x="53" y="-54.38" font-family="Helvetica,sans-Serif" font-size="10.00">JAIAudience</text>
</a>
</g>
</g>
<!-- Node1 -->
<g id="Node000001" class="node">
<title>Node1</title>
<g id="a_Node000001"><a xlink:href="structZ2Audience.html" target="_top" xlink:title=" ">
<polygon fill="white" stroke="#666666" points="209.75,-45.88 142,-45.88 142,-26.62 209.75,-26.62 209.75,-45.88"/>
<text text-anchor="middle" x="175.88" y="-32.38" font-family="Helvetica,sans-Serif" font-size="10.00">Z2Audience</text>
</a>
</g>
</g>
<!-- Node0&#45;&gt;Node1 -->
<g id="edge1128_Node000000_Node000001" class="edge">
<title>Node0&#45;&gt;Node1</title>
<g id="a_edge1128_Node000000_Node000001"><a xlink:title=" ">
<path fill="none" stroke="#63b8ff" d="M100.23,-49.84C114.03,-47.32 128.87,-44.62 141.65,-42.3"/>
<polygon fill="#63b8ff" stroke="#63b8ff" points="99.66,-46.38 90.45,-51.62 100.92,-53.27 99.66,-46.38"/>
</a>
</g>
</g>
<!-- Node2 -->
<g id="Node000002" class="node">
<title>Node2</title>
<g id="a_Node000002"><a xlink:href="classJASGlobalInstance.html" target="_top" xlink:title=" ">
<polygon fill="white" stroke="#666666" points="106,-30.5 0,-30.5 0,0 106,0 106,-30.5"/>
<text text-anchor="start" x="8" y="-17" font-family="Helvetica,sans-Serif" font-size="10.00">JASGlobalInstance&lt;</text>
<text text-anchor="middle" x="53" y="-5.75" font-family="Helvetica,sans-Serif" font-size="10.00"> Z2Audience &gt;</text>
</a>
</g>
</g>
<!-- Node2&#45;&gt;Node1 -->
<g id="edge1129_Node000002_Node000001" class="edge">
<title>Node2&#45;&gt;Node1</title>
<g id="a_edge1129_Node000002_Node000001"><a xlink:title=" ">
<path fill="none" stroke="#63b8ff" d="M117.63,-26.3C125.93,-27.75 134.15,-29.18 141.67,-30.48"/>
<polygon fill="#63b8ff" stroke="#63b8ff" points="118.26,-22.86 107.81,-24.6 117.06,-29.76 118.26,-22.86"/>
</a>
</g>
</g>
</g>
</svg>
