<?xml version="1.0" encoding="UTF-8" standalone="no"?>
<!DOCTYPE svg PUBLIC "-//W3C//DTD SVG 1.1//EN"
 "http://www.w3.org/Graphics/SVG/1.1/DTD/svg11.dtd">
<!-- Generated by graphviz version 9.0.0 (20230911.1827)
 -->
<!-- Title: Graphical Class Hierarchy Pages: 1 -->
<svg width="427pt" height="138pt"
 viewBox="0.00 0.00 426.50 138.25" xmlns="http://www.w3.org/2000/svg" xmlns:xlink="http://www.w3.org/1999/xlink">
<g id="graph0" class="graph" transform="scale(1 1) rotate(0) translate(4 134.25)">
<title>Graphical Class Hierarchy</title>
<!-- Node0 -->
<g id="Node000000" class="node">
<title>Node0</title>
<g id="a_Node000000"><a xlink:href="structnode__class.html" target="_top" xlink:title=" ">
<polygon fill="white" stroke="#666666" points="65.5,-74.25 0,-74.25 0,-55 65.5,-55 65.5,-74.25"/>
<text text-anchor="middle" x="32.75" y="-60.75" font-family="Helvetica,sans-Serif" font-size="10.00">node_class</text>
</a>
</g>
</g>
<!-- Node1 -->
<g id="Node000001" class="node">
<title>Node1</title>
<g id="a_Node000001"><a xlink:href="classmDoDvdThd__command__c.html" target="_top" xlink:title=" ">
<polygon fill="white" stroke="#666666" points="230,-74.25 101.5,-74.25 101.5,-55 230,-55 230,-74.25"/>
<text text-anchor="middle" x="165.75" y="-60.75" font-family="Helvetica,sans-Serif" font-size="10.00">mDoDvdThd_command_c</text>
</a>
</g>
</g>
<!-- Node0&#45;&gt;Node1 -->
<g id="edge1520_Node000000_Node000001" class="edge">
<title>Node0&#45;&gt;Node1</title>
<g id="a_edge1520_Node000000_Node000001"><a xlink:title=" ">
<path fill="none" stroke="#63b8ff" d="M77.04,-64.62C84.73,-64.62 92.88,-64.62 101,-64.62"/>
<polygon fill="#63b8ff" stroke="#63b8ff" points="77.31,-61.13 67.31,-64.63 77.31,-68.13 77.31,-61.13"/>
</a>
</g>
</g>
<!-- Node2 -->
<g id="Node000002" class="node">
<title>Node2</title>
<g id="a_Node000002"><a xlink:href="classmDoDvdThd__callback__c.html" target="_top" xlink:title=" ">
<polygon fill="white" stroke="#666666" points="403.12,-130.25 281.38,-130.25 281.38,-111 403.12,-111 403.12,-130.25"/>
<text text-anchor="middle" x="342.25" y="-116.75" font-family="Helvetica,sans-Serif" font-size="10.00">mDoDvdThd_callback_c</text>
</a>
</g>
</g>
<!-- Node1&#45;&gt;Node2 -->
<g id="edge1521_Node000001_Node000002" class="edge">
<title>Node1&#45;&gt;Node2</title>
<g id="a_edge1521_Node000001_Node000002"><a xlink:title=" ">
<path fill="none" stroke="#63b8ff" d="M201.01,-79.02C219.96,-86.65 244.05,-95.83 266,-102.62 275.24,-105.49 285.23,-108.16 294.83,-110.53"/>
<polygon fill="#63b8ff" stroke="#63b8ff" points="202.49,-75.84 191.91,-75.3 199.85,-82.32 202.49,-75.84"/>
</a>
</g>
</g>
<!-- Node3 -->
<g id="Node000003" class="node">
<title>Node3</title>
<g id="a_Node000003"><a xlink:href="structmDoDvdThd__mountArchive__c.html" target="_top" xlink:title=" ">
<polygon fill="white" stroke="#666666" points="415.12,-93.25 269.38,-93.25 269.38,-74 415.12,-74 415.12,-93.25"/>
<text text-anchor="middle" x="342.25" y="-79.75" font-family="Helvetica,sans-Serif" font-size="10.00">mDoDvdThd_mountArchive_c</text>
</a>
</g>
</g>
<!-- Node1&#45;&gt;Node3 -->
<g id="edge1522_Node000001_Node000003" class="edge">
<title>Node1&#45;&gt;Node3</title>
<g id="a_edge1522_Node000001_Node000003"><a xlink:title=" ">
<path fill="none" stroke="#63b8ff" d="M241.6,-72.77C250.66,-73.76 259.91,-74.77 268.93,-75.75"/>
<polygon fill="#63b8ff" stroke="#63b8ff" points="242.07,-69.31 231.75,-71.7 241.31,-76.26 242.07,-69.31"/>
</a>
</g>
</g>
<!-- Node4 -->
<g id="Node000004" class="node">
<title>Node4</title>
<g id="a_Node000004"><a xlink:href="classmDoDvdThd__mountXArchive__c.html" target="_top" xlink:title=" ">
<polygon fill="white" stroke="#666666" points="418.5,-56.25 266,-56.25 266,-37 418.5,-37 418.5,-56.25"/>
<text text-anchor="middle" x="342.25" y="-42.75" font-family="Helvetica,sans-Serif" font-size="10.00">mDoDvdThd_mountXArchive_c</text>
</a>
</g>
</g>
<!-- Node1&#45;&gt;Node4 -->
<g id="edge1523_Node000001_Node000004" class="edge">
<title>Node1&#45;&gt;Node4</title>
<g id="a_edge1523_Node000001_Node000004"><a xlink:title=" ">
<path fill="none" stroke="#63b8ff" d="M241.45,-56.92C249.46,-56.09 257.62,-55.25 265.64,-54.42"/>
<polygon fill="#63b8ff" stroke="#63b8ff" points="241.34,-53.41 231.75,-57.92 242.05,-60.38 241.34,-53.41"/>
</a>
</g>
</g>
<!-- Node5 -->
<g id="Node000005" class="node">
<title>Node5</title>
<g id="a_Node000005"><a xlink:href="classmDoDvdThd__toMainRam__c.html" target="_top" xlink:title=" ">
<polygon fill="white" stroke="#666666" points="409.88,-19.25 274.62,-19.25 274.62,0 409.88,0 409.88,-19.25"/>
<text text-anchor="middle" x="342.25" y="-5.75" font-family="Helvetica,sans-Serif" font-size="10.00">mDoDvdThd_toMainRam_c</text>
</a>
</g>
</g>
<!-- Node1&#45;&gt;Node5 -->
<g id="edge1524_Node000001_Node000005" class="edge">
<title>Node1&#45;&gt;Node5</title>
<g id="a_edge1524_Node000001_Node000005"><a xlink:title=" ">
<path fill="none" stroke="#63b8ff" d="M201.43,-50.51C220.33,-43.12 244.24,-34.26 266,-27.62 275.38,-24.77 285.53,-22.07 295.25,-19.69"/>
<polygon fill="#63b8ff" stroke="#63b8ff" points="200.36,-47.17 192.35,-54.11 202.93,-53.68 200.36,-47.17"/>
</a>
</g>
</g>
</g>
</svg>
