<?xml version="1.0" encoding="UTF-8" standalone="no"?>
<!DOCTYPE svg PUBLIC "-//W3C//DTD SVG 1.1//EN"
 "http://www.w3.org/Graphics/SVG/1.1/DTD/svg11.dtd">
<!-- Generated by graphviz version 9.0.0 (20230911.1827)
 -->
<!-- Title: Graphical Class Hierarchy Pages: 1 -->
<svg width="457pt" height="50pt"
 viewBox="0.00 0.00 456.50 49.75" xmlns="http://www.w3.org/2000/svg" xmlns:xlink="http://www.w3.org/1999/xlink">
<g id="graph0" class="graph" transform="scale(1 1) rotate(0) translate(4 45.75)">
<title>Graphical Class Hierarchy</title>
<!-- Node0 -->
<g id="Node000000" class="node">
<title>Node0</title>
<g id="a_Node000000"><a xlink:href="structJStudio_1_1stb_1_1data_1_1TParse__TParagraph__data_1_1TData.html" target="_top" xlink:title=" ">
<polygon fill="white" stroke="#666666" points="107.5,-41.75 0,-41.75 0,0 107.5,0 107.5,-41.75"/>
<text text-anchor="start" x="8" y="-28.25" font-family="Helvetica,sans-Serif" font-size="10.00">JStudio::stb::data</text>
<text text-anchor="start" x="8" y="-17" font-family="Helvetica,sans-Serif" font-size="10.00">::TParse_TParagraph</text>
<text text-anchor="middle" x="53.75" y="-5.75" font-family="Helvetica,sans-Serif" font-size="10.00">_data::TData</text>
</a>
</g>
</g>
<!-- Node1 -->
<g id="Node000001" class="node">
<title>Node1</title>
<g id="a_Node000001"><a xlink:href="structJStudio_1_1stb_1_1TParseData.html" target="_top" xlink:title=" ">
<polygon fill="white" stroke="#666666" points="289.25,-30.5 143.5,-30.5 143.5,-11.25 289.25,-11.25 289.25,-30.5"/>
<text text-anchor="middle" x="216.38" y="-17" font-family="Helvetica,sans-Serif" font-size="10.00">JStudio::stb::TParseData&lt; T &gt;</text>
</a>
</g>
</g>
<!-- Node0&#45;&gt;Node1 -->
<g id="edge1448_Node000000_Node000001" class="edge">
<title>Node0&#45;&gt;Node1</title>
<g id="a_edge1448_Node000000_Node000001"><a xlink:title=" ">
<path fill="none" stroke="#63b8ff" d="M119.17,-20.88C127.07,-20.88 135.18,-20.88 143.19,-20.88"/>
<polygon fill="#63b8ff" stroke="#63b8ff" points="119.3,-17.38 109.3,-20.88 119.3,-24.38 119.3,-17.38"/>
</a>
</g>
</g>
<!-- Node2 -->
<g id="Node000002" class="node">
<title>Node2</title>
<g id="a_Node000002"><a xlink:href="structJStudio_1_1stb_1_1TParseData__fixed.html" target="_top" xlink:title=" ">
<polygon fill="white" stroke="#666666" points="448.5,-36.12 325.25,-36.12 325.25,-5.62 448.5,-5.62 448.5,-36.12"/>
<text text-anchor="start" x="333.25" y="-22.62" font-family="Helvetica,sans-Serif" font-size="10.00">JStudio::stb::TParseData</text>
<text text-anchor="middle" x="386.88" y="-11.38" font-family="Helvetica,sans-Serif" font-size="10.00">_fixed&lt; T, Iterator &gt;</text>
</a>
</g>
</g>
<!-- Node1&#45;&gt;Node2 -->
<g id="edge1449_Node000001_Node000002" class="edge">
<title>Node1&#45;&gt;Node2</title>
<g id="a_edge1449_Node000001_Node000002"><a xlink:title=" ">
<path fill="none" stroke="#63b8ff" d="M300.74,-20.88C308.84,-20.88 316.95,-20.88 324.78,-20.88"/>
<polygon fill="#63b8ff" stroke="#63b8ff" points="300.84,-17.38 290.84,-20.88 300.84,-24.38 300.84,-17.38"/>
</a>
</g>
</g>
</g>
</svg>
