<?xml version="1.0" encoding="UTF-8" standalone="no"?>
<!DOCTYPE svg PUBLIC "-//W3C//DTD SVG 1.1//EN"
 "http://www.w3.org/Graphics/SVG/1.1/DTD/svg11.dtd">
<!-- Generated by graphviz version 9.0.0 (20230911.1827)
 -->
<!-- Title: Graphical Class Hierarchy Pages: 1 -->
<svg width="223pt" height="212pt"
 viewBox="0.00 0.00 223.00 212.25" xmlns="http://www.w3.org/2000/svg" xmlns:xlink="http://www.w3.org/1999/xlink">
<g id="graph0" class="graph" transform="scale(1 1) rotate(0) translate(4 208.25)">
<title>Graphical Class Hierarchy</title>
<!-- Node0 -->
<g id="Node000000" class="node">
<title>Node0</title>
<g id="a_Node000000"><a xlink:href="classJ3DPEBlock.html" target="_top" xlink:title=" ">
<polygon fill="white" stroke="#666666" points="70.75,-111.25 0,-111.25 0,-92 70.75,-92 70.75,-111.25"/>
<text text-anchor="middle" x="35.38" y="-97.75" font-family="Helvetica,sans-Serif" font-size="10.00">J3DPEBlock</text>
</a>
</g>
</g>
<!-- Node1 -->
<g id="Node000001" class="node">
<title>Node1</title>
<g id="a_Node000001"><a xlink:href="classJ3DPEBlockFogOff.html" target="_top" xlink:title=" ">
<polygon fill="white" stroke="#666666" points="210.88,-204.25 110.88,-204.25 110.88,-185 210.88,-185 210.88,-204.25"/>
<text text-anchor="middle" x="160.88" y="-190.75" font-family="Helvetica,sans-Serif" font-size="10.00">J3DPEBlockFogOff</text>
</a>
</g>
</g>
<!-- Node0&#45;&gt;Node1 -->
<g id="edge1103_Node000000_Node000001" class="edge">
<title>Node0&#45;&gt;Node1</title>
<g id="a_edge1103_Node000000_Node000001"><a xlink:title=" ">
<path fill="none" stroke="#63b8ff" d="M49.81,-120.56C62.68,-137.42 83.53,-161.68 106.75,-176.62 111.58,-179.73 117.01,-182.37 122.5,-184.58"/>
<polygon fill="#63b8ff" stroke="#63b8ff" points="52.86,-118.79 44.1,-112.82 47.23,-122.95 52.86,-118.79"/>
</a>
</g>
</g>
<!-- Node2 -->
<g id="Node000002" class="node">
<title>Node2</title>
<g id="a_Node000002"><a xlink:href="classJ3DPEBlockFull.html" target="_top" xlink:title=" ">
<polygon fill="white" stroke="#666666" points="204.12,-167.25 117.62,-167.25 117.62,-148 204.12,-148 204.12,-167.25"/>
<text text-anchor="middle" x="160.88" y="-153.75" font-family="Helvetica,sans-Serif" font-size="10.00">J3DPEBlockFull</text>
</a>
</g>
</g>
<!-- Node0&#45;&gt;Node2 -->
<g id="edge1104_Node000000_Node000002" class="edge">
<title>Node0&#45;&gt;Node2</title>
<g id="a_edge1104_Node000000_Node000002"><a xlink:title=" ">
<path fill="none" stroke="#63b8ff" d="M62.73,-117.22C75.72,-124.56 91.78,-133.1 106.75,-139.62 113.27,-142.46 120.39,-145.15 127.24,-147.53"/>
<polygon fill="#63b8ff" stroke="#63b8ff" points="64.77,-114.36 54.35,-112.41 61.28,-120.43 64.77,-114.36"/>
</a>
</g>
</g>
<!-- Node3 -->
<g id="Node000003" class="node">
<title>Node3</title>
<g id="a_Node000003"><a xlink:href="structJ3DPEBlockNull.html" target="_top" xlink:title=" ">
<polygon fill="white" stroke="#666666" points="204.88,-130.25 116.88,-130.25 116.88,-111 204.88,-111 204.88,-130.25"/>
<text text-anchor="middle" x="160.88" y="-116.75" font-family="Helvetica,sans-Serif" font-size="10.00">J3DPEBlockNull</text>
</a>
</g>
</g>
<!-- Node0&#45;&gt;Node3 -->
<g id="edge1105_Node000000_Node000003" class="edge">
<title>Node0&#45;&gt;Node3</title>
<g id="a_edge1105_Node000000_Node000003"><a xlink:title=" ">
<path fill="none" stroke="#63b8ff" d="M82.43,-108.71C93.62,-110.43 105.55,-112.27 116.6,-113.97"/>
<polygon fill="#63b8ff" stroke="#63b8ff" points="83.02,-105.26 72.6,-107.2 81.95,-112.18 83.02,-105.26"/>
</a>
</g>
</g>
<!-- Node4 -->
<g id="Node000004" class="node">
<title>Node4</title>
<g id="a_Node000004"><a xlink:href="classJ3DPEBlockOpa.html" target="_top" xlink:title=" ">
<polygon fill="white" stroke="#666666" points="205.25,-93.25 116.5,-93.25 116.5,-74 205.25,-74 205.25,-93.25"/>
<text text-anchor="middle" x="160.88" y="-79.75" font-family="Helvetica,sans-Serif" font-size="10.00">J3DPEBlockOpa</text>
</a>
</g>
</g>
<!-- Node0&#45;&gt;Node4 -->
<g id="edge1106_Node000000_Node000004" class="edge">
<title>Node0&#45;&gt;Node4</title>
<g id="a_edge1106_Node000000_Node000004"><a xlink:title=" ">
<path fill="none" stroke="#63b8ff" d="M82.31,-94.93C93.39,-93.32 105.18,-91.6 116.15,-90"/>
<polygon fill="#63b8ff" stroke="#63b8ff" points="81.99,-91.44 72.6,-96.34 83,-98.37 81.99,-91.44"/>
</a>
</g>
</g>
<!-- Node5 -->
<g id="Node000005" class="node">
<title>Node5</title>
<g id="a_Node000005"><a xlink:href="classJ3DPEBlockTexEdge.html" target="_top" xlink:title=" ">
<polygon fill="white" stroke="#666666" points="215,-56.25 106.75,-56.25 106.75,-37 215,-37 215,-56.25"/>
<text text-anchor="middle" x="160.88" y="-42.75" font-family="Helvetica,sans-Serif" font-size="10.00">J3DPEBlockTexEdge</text>
</a>
</g>
</g>
<!-- Node0&#45;&gt;Node5 -->
<g id="edge1107_Node000000_Node000005" class="edge">
<title>Node0&#45;&gt;Node5</title>
<g id="a_edge1107_Node000000_Node000005"><a xlink:title=" ">
<path fill="none" stroke="#63b8ff" d="M63.68,-85.98C76.52,-78.97 92.18,-70.88 106.75,-64.62 113.37,-61.78 120.6,-59.08 127.54,-56.67"/>
<polygon fill="#63b8ff" stroke="#63b8ff" points="62.01,-82.91 54.97,-90.83 65.41,-89.03 62.01,-82.91"/>
</a>
</g>
</g>
<!-- Node6 -->
<g id="Node000006" class="node">
<title>Node6</title>
<g id="a_Node000006"><a xlink:href="classJ3DPEBlockXlu.html" target="_top" xlink:title=" ">
<polygon fill="white" stroke="#666666" points="203.38,-19.25 118.38,-19.25 118.38,0 203.38,0 203.38,-19.25"/>
<text text-anchor="middle" x="160.88" y="-5.75" font-family="Helvetica,sans-Serif" font-size="10.00">J3DPEBlockXlu</text>
</a>
</g>
</g>
<!-- Node0&#45;&gt;Node6 -->
<g id="edge1108_Node000000_Node000006" class="edge">
<title>Node0&#45;&gt;Node6</title>
<g id="a_edge1108_Node000000_Node000006"><a xlink:title=" ">
<path fill="none" stroke="#63b8ff" d="M50.08,-82.68C63,-66.06 83.77,-42.31 106.75,-27.62 111.59,-24.53 117.02,-21.91 122.52,-19.7"/>
<polygon fill="#63b8ff" stroke="#63b8ff" points="47.55,-80.22 44.33,-90.32 53.14,-84.43 47.55,-80.22"/>
</a>
</g>
</g>
</g>
</svg>
