<?xml version="1.0" encoding="UTF-8" standalone="no"?>
<!DOCTYPE svg PUBLIC "-//W3C//DTD SVG 1.1//EN"
 "http://www.w3.org/Graphics/SVG/1.1/DTD/svg11.dtd">
<!-- Generated by graphviz version 9.0.0 (20230911.1827)
 -->
<!-- Title: Graphical Class Hierarchy Pages: 1 -->
<svg width="248pt" height="138pt"
 viewBox="0.00 0.00 247.75 138.25" xmlns="http://www.w3.org/2000/svg" xmlns:xlink="http://www.w3.org/1999/xlink">
<g id="graph0" class="graph" transform="scale(1 1) rotate(0) translate(4 134.25)">
<title>Graphical Class Hierarchy</title>
<!-- Node0 -->
<g id="Node000000" class="node">
<title>Node0</title>
<g id="a_Node000000"><a xlink:href="classJ3DMaterialAnm.html" target="_top" xlink:title=" ">
<polygon fill="white" stroke="#666666" points="88,-74.25 0,-74.25 0,-55 88,-55 88,-74.25"/>
<text text-anchor="middle" x="44" y="-60.75" font-family="Helvetica,sans-Serif" font-size="10.00">J3DMaterialAnm</text>
</a>
</g>
</g>
<!-- Node1 -->
<g id="Node000001" class="node">
<title>Node1</title>
<g id="a_Node000001"><a xlink:href="classdaAlink__matAnm__c.html" target="_top" xlink:title=" ">
<polygon fill="white" stroke="#666666" points="232.25,-130.25 131.5,-130.25 131.5,-111 232.25,-111 232.25,-130.25"/>
<text text-anchor="middle" x="181.88" y="-116.75" font-family="Helvetica,sans-Serif" font-size="10.00">daAlink_matAnm_c</text>
</a>
</g>
</g>
<!-- Node0&#45;&gt;Node1 -->
<g id="edge1049_Node000000_Node000001" class="edge">
<title>Node0&#45;&gt;Node1</title>
<g id="a_edge1049_Node000000_Node000001"><a xlink:title=" ">
<path fill="none" stroke="#63b8ff" d="M73.86,-79.72C88.63,-87.14 107.04,-95.9 124,-102.62 131.12,-105.45 138.88,-108.15 146.31,-110.55"/>
<polygon fill="#63b8ff" stroke="#63b8ff" points="75.67,-76.72 65.17,-75.3 72.49,-82.95 75.67,-76.72"/>
</a>
</g>
</g>
<!-- Node2 -->
<g id="Node000002" class="node">
<title>Node2</title>
<g id="a_Node000002"><a xlink:href="classdaHoZelda__matAnm__c.html" target="_top" xlink:title=" ">
<polygon fill="white" stroke="#666666" points="239.75,-93.25 124,-93.25 124,-74 239.75,-74 239.75,-93.25"/>
<text text-anchor="middle" x="181.88" y="-79.75" font-family="Helvetica,sans-Serif" font-size="10.00">daHoZelda_matAnm_c</text>
</a>
</g>
</g>
<!-- Node0&#45;&gt;Node2 -->
<g id="edge1050_Node000000_Node000002" class="edge">
<title>Node0&#45;&gt;Node2</title>
<g id="a_edge1050_Node000000_Node000002"><a xlink:title=" ">
<path fill="none" stroke="#63b8ff" d="M99.65,-72.27C107.52,-73.37 115.62,-74.5 123.53,-75.61"/>
<polygon fill="#63b8ff" stroke="#63b8ff" points="100.25,-68.82 89.86,-70.9 99.28,-75.75 100.25,-68.82"/>
</a>
</g>
</g>
<!-- Node3 -->
<g id="Node000003" class="node">
<title>Node3</title>
<g id="a_Node000003"><a xlink:href="classdaNpcF__MatAnm__c.html" target="_top" xlink:title=" ">
<polygon fill="white" stroke="#666666" points="233.38,-56.25 130.38,-56.25 130.38,-37 233.38,-37 233.38,-56.25"/>
<text text-anchor="middle" x="181.88" y="-42.75" font-family="Helvetica,sans-Serif" font-size="10.00">daNpcF_MatAnm_c</text>
</a>
</g>
</g>
<!-- Node0&#45;&gt;Node3 -->
<g id="edge1051_Node000000_Node000003" class="edge">
<title>Node0&#45;&gt;Node3</title>
<g id="a_edge1051_Node000000_Node000003"><a xlink:title=" ">
<path fill="none" stroke="#63b8ff" d="M99.6,-57.39C109.75,-56.05 120.32,-54.65 130.34,-53.32"/>
<polygon fill="#63b8ff" stroke="#63b8ff" points="99.32,-53.9 89.87,-58.68 100.24,-60.84 99.32,-53.9"/>
</a>
</g>
</g>
<!-- Node4 -->
<g id="Node000004" class="node">
<title>Node4</title>
<g id="a_Node000004"><a xlink:href="classdaNpcT__MatAnm__c.html" target="_top" xlink:title=" ">
<polygon fill="white" stroke="#666666" points="233.38,-19.25 130.38,-19.25 130.38,0 233.38,0 233.38,-19.25"/>
<text text-anchor="middle" x="181.88" y="-5.75" font-family="Helvetica,sans-Serif" font-size="10.00">daNpcT_MatAnm_c</text>
</a>
</g>
</g>
<!-- Node0&#45;&gt;Node4 -->
<g id="edge1052_Node000000_Node000004" class="edge">
<title>Node0&#45;&gt;Node4</title>
<g id="a_edge1052_Node000000_Node000004"><a xlink:title=" ">
<path fill="none" stroke="#63b8ff" d="M74.5,-49.68C89.18,-42.54 107.31,-34.14 124,-27.62 131.24,-24.8 139.11,-22.08 146.64,-19.66"/>
<polygon fill="#63b8ff" stroke="#63b8ff" points="73.27,-46.39 65.85,-53.95 76.36,-52.66 73.27,-46.39"/>
</a>
</g>
</g>
</g>
</svg>
