<?xml version="1.0" encoding="UTF-8" standalone="no"?>
<!DOCTYPE svg PUBLIC "-//W3C//DTD SVG 1.1//EN"
 "http://www.w3.org/Graphics/SVG/1.1/DTD/svg11.dtd">
<!-- Generated by graphviz version 9.0.0 (20230911.1827)
 -->
<!-- Title: Graphical Class Hierarchy Pages: 1 -->
<svg width="204pt" height="150pt"
 viewBox="0.00 0.00 203.50 150.25" xmlns="http://www.w3.org/2000/svg" xmlns:xlink="http://www.w3.org/1999/xlink">
<g id="graph0" class="graph" transform="scale(1 1) rotate(0) translate(4 146.25)">
<title>Graphical Class Hierarchy</title>
<!-- Node0 -->
<g id="Node000000" class="node">
<title>Node0</title>
<g id="a_Node000000"><a xlink:href="structVec.html" target="_top" xlink:title=" ">
<polygon fill="white" stroke="#666666" points="33.25,-77.25 0,-77.25 0,-58 33.25,-58 33.25,-77.25"/>
<text text-anchor="middle" x="16.62" y="-63.75" font-family="Helvetica,sans-Serif" font-size="10.00">Vec</text>
</a>
</g>
</g>
<!-- Node1 -->
<g id="Node000001" class="node">
<title>Node1</title>
<g id="a_Node000001"><a xlink:href="structJGeometry_1_1TVec3_3_01f32_01_4.html" target="_top" xlink:title=" ">
<polygon fill="white" stroke="#666666" points="195.5,-142.25 69.25,-142.25 69.25,-123 195.5,-123 195.5,-142.25"/>
<text text-anchor="middle" x="132.38" y="-128.75" font-family="Helvetica,sans-Serif" font-size="10.00">JGeometry::TVec3&lt; f32 &gt;</text>
</a>
</g>
</g>
<!-- Node0&#45;&gt;Node1 -->
<g id="edge1577_Node000000_Node000001" class="edge">
<title>Node0&#45;&gt;Node1</title>
<g id="a_edge1577_Node000000_Node000001"><a xlink:title=" ">
<path fill="none" stroke="#63b8ff" d="M33.94,-85.53C43.44,-95.03 56.11,-106.24 69.25,-113.62 75.54,-117.16 82.57,-120.12 89.57,-122.56"/>
<polygon fill="#63b8ff" stroke="#63b8ff" points="36.68,-83.33 27.23,-78.53 31.63,-88.17 36.68,-83.33"/>
</a>
</g>
</g>
<!-- Node2 -->
<g id="Node000002" class="node">
<title>Node2</title>
<g id="a_Node000002"><a xlink:href="structJStudio_1_1TControl_1_1TTransform__position.html" target="_top" xlink:title=" ">
<polygon fill="white" stroke="#666666" points="185,-104.88 79.75,-104.88 79.75,-74.38 185,-74.38 185,-104.88"/>
<text text-anchor="start" x="87.75" y="-91.38" font-family="Helvetica,sans-Serif" font-size="10.00">JStudio::TControl::</text>
<text text-anchor="middle" x="132.38" y="-80.12" font-family="Helvetica,sans-Serif" font-size="10.00">TTransform_position</text>
</a>
</g>
</g>
<!-- Node0&#45;&gt;Node2 -->
<g id="edge1578_Node000000_Node000002" class="edge">
<title>Node0&#45;&gt;Node2</title>
<g id="a_edge1578_Node000000_Node000002"><a xlink:title=" ">
<path fill="none" stroke="#63b8ff" d="M44.7,-72.86C55.14,-74.88 67.43,-77.26 79.44,-79.58"/>
<polygon fill="#63b8ff" stroke="#63b8ff" points="45.41,-69.43 34.93,-70.97 44.08,-76.31 45.41,-69.43"/>
</a>
</g>
</g>
<!-- Node3 -->
<g id="Node000003" class="node">
<title>Node3</title>
<g id="a_Node000003"><a xlink:href="structcBgD__Vtx__t.html" target="_top" xlink:title=" ">
<polygon fill="white" stroke="#666666" points="166.25,-56.25 98.5,-56.25 98.5,-37 166.25,-37 166.25,-56.25"/>
<text text-anchor="middle" x="132.38" y="-42.75" font-family="Helvetica,sans-Serif" font-size="10.00">cBgD_Vtx_t</text>
</a>
</g>
</g>
<!-- Node0&#45;&gt;Node3 -->
<g id="edge1579_Node000000_Node000003" class="edge">
<title>Node0&#45;&gt;Node3</title>
<g id="a_edge1579_Node000000_Node000003"><a xlink:title=" ">
<path fill="none" stroke="#63b8ff" d="M44.76,-62.62C60.86,-59.64 81.38,-55.85 98.41,-52.71"/>
<polygon fill="#63b8ff" stroke="#63b8ff" points="44.13,-59.17 34.93,-64.43 45.4,-66.06 44.13,-59.17"/>
</a>
</g>
</g>
<!-- Node4 -->
<g id="Node000004" class="node">
<title>Node4</title>
<g id="a_Node000004"><a xlink:href="structcXyz.html" target="_top" xlink:title=" ">
<polygon fill="white" stroke="#666666" points="150.88,-19.25 113.88,-19.25 113.88,0 150.88,0 150.88,-19.25"/>
<text text-anchor="middle" x="132.38" y="-5.75" font-family="Helvetica,sans-Serif" font-size="10.00">cXyz</text>
</a>
</g>
</g>
<!-- Node0&#45;&gt;Node4 -->
<g id="edge1580_Node000000_Node000004" class="edge">
<title>Node0&#45;&gt;Node4</title>
<g id="a_edge1580_Node000000_Node000004"><a xlink:title=" ">
<path fill="none" stroke="#63b8ff" d="M36.3,-50.37C45.63,-42.51 57.43,-33.64 69.25,-27.62 83.36,-20.45 100.77,-15.71 113.57,-12.91"/>
<polygon fill="#63b8ff" stroke="#63b8ff" points="34.23,-47.53 29.02,-56.76 38.85,-52.79 34.23,-47.53"/>
</a>
</g>
</g>
</g>
</svg>
