<?xml version="1.0" encoding="UTF-8" standalone="no"?>
<!DOCTYPE svg PUBLIC "-//W3C//DTD SVG 1.1//EN"
 "http://www.w3.org/Graphics/SVG/1.1/DTD/svg11.dtd">
<!-- Generated by graphviz version 9.0.0 (20230911.1827)
 -->
<!-- Title: Graphical Class Hierarchy Pages: 1 -->
<svg width="216pt" height="64pt"
 viewBox="0.00 0.00 215.50 64.25" xmlns="http://www.w3.org/2000/svg" xmlns:xlink="http://www.w3.org/1999/xlink">
<g id="graph0" class="graph" transform="scale(1 1) rotate(0) translate(4 60.25)">
<title>Graphical Class Hierarchy</title>
<!-- Node0 -->
<g id="Node000000" class="node">
<title>Node0</title>
<g id="a_Node000000"><a xlink:href="structZ2EnvSeBase.html" target="_top" xlink:title=" ">
<polygon fill="white" stroke="#666666" points="78.25,-37.25 0,-37.25 0,-18 78.25,-18 78.25,-37.25"/>
<text text-anchor="middle" x="39.12" y="-23.75" font-family="Helvetica,sans-Serif" font-size="10.00">Z2EnvSeBase</text>
</a>
</g>
</g>
<!-- Node1 -->
<g id="Node000001" class="node">
<title>Node1</title>
<g id="a_Node000001"><a xlink:href="structZ2EnvSeAutoPan.html" target="_top" xlink:title=" ">
<polygon fill="white" stroke="#666666" points="207.5,-56.25 114.25,-56.25 114.25,-37 207.5,-37 207.5,-56.25"/>
<text text-anchor="middle" x="160.88" y="-42.75" font-family="Helvetica,sans-Serif" font-size="10.00">Z2EnvSeAutoPan</text>
</a>
</g>
</g>
<!-- Node0&#45;&gt;Node1 -->
<g id="edge1546_Node000000_Node000001" class="edge">
<title>Node0&#45;&gt;Node1</title>
<g id="a_edge1546_Node000000_Node000001"><a xlink:title=" ">
<path fill="none" stroke="#63b8ff" d="M90.02,-35.54C97.92,-36.79 106.06,-38.09 113.87,-39.33"/>
<polygon fill="#63b8ff" stroke="#63b8ff" points="90.59,-32.09 80.17,-33.98 89.5,-39 90.59,-32.09"/>
</a>
</g>
</g>
<!-- Node2 -->
<g id="Node000002" class="node">
<title>Node2</title>
<g id="a_Node000002"><a xlink:href="structZ2EnvSeDir.html" target="_top" xlink:title=" ">
<polygon fill="white" stroke="#666666" points="194.75,-19.25 127,-19.25 127,0 194.75,0 194.75,-19.25"/>
<text text-anchor="middle" x="160.88" y="-5.75" font-family="Helvetica,sans-Serif" font-size="10.00">Z2EnvSeDir</text>
</a>
</g>
</g>
<!-- Node0&#45;&gt;Node2 -->
<g id="edge1547_Node000000_Node000002" class="edge">
<title>Node0&#45;&gt;Node2</title>
<g id="a_edge1547_Node000000_Node000002"><a xlink:title=" ">
<path fill="none" stroke="#63b8ff" d="M89.83,-20.15C102.24,-18.29 115.24,-16.33 126.63,-14.62"/>
<polygon fill="#63b8ff" stroke="#63b8ff" points="89.54,-16.66 80.17,-21.61 90.58,-23.58 89.54,-16.66"/>
</a>
</g>
</g>
</g>
</svg>
