<?xml version="1.0" encoding="UTF-8" standalone="no"?>
<!DOCTYPE svg PUBLIC "-//W3C//DTD SVG 1.1//EN"
 "http://www.w3.org/Graphics/SVG/1.1/DTD/svg11.dtd">
<!-- Generated by graphviz version 9.0.0 (20230911.1827)
 -->
<!-- Title: Graphical Class Hierarchy Pages: 1 -->
<svg width="460pt" height="365pt"
 viewBox="0.00 0.00 459.50 364.50" xmlns="http://www.w3.org/2000/svg" xmlns:xlink="http://www.w3.org/1999/xlink">
<g id="graph0" class="graph" transform="scale(1 1) rotate(0) translate(4 360.5)">
<title>Graphical Class Hierarchy</title>
<!-- Node0 -->
<g id="Node000000" class="node">
<title>Node0</title>
<g id="a_Node000000"><a xlink:href="structJStudio_1_1TAdaptor.html" target="_top" xlink:title=" ">
<polygon fill="white" stroke="#666666" points="93.25,-178.88 0,-178.88 0,-159.62 93.25,-159.62 93.25,-178.88"/>
<text text-anchor="middle" x="46.62" y="-165.38" font-family="Helvetica,sans-Serif" font-size="10.00">JStudio::TAdaptor</text>
</a>
</g>
</g>
<!-- Node1 -->
<g id="Node000001" class="node">
<title>Node1</title>
<g id="a_Node000001"><a xlink:href="structJStudio_1_1TAdaptor__actor.html" target="_top" xlink:title=" ">
<polygon fill="white" stroke="#666666" points="258.5,-221.88 138.25,-221.88 138.25,-202.62 258.5,-202.62 258.5,-221.88"/>
<text text-anchor="middle" x="198.38" y="-208.38" font-family="Helvetica,sans-Serif" font-size="10.00">JStudio::TAdaptor_actor</text>
</a>
</g>
</g>
<!-- Node0&#45;&gt;Node1 -->
<g id="edge1432_Node000000_Node000001" class="edge">
<title>Node0&#45;&gt;Node1</title>
<g id="a_edge1432_Node000000_Node000001"><a xlink:title=" ">
<path fill="none" stroke="#63b8ff" d="M92.08,-182.44C104.13,-185.99 117.18,-189.79 129.25,-193.25 139.52,-196.19 150.68,-199.33 160.93,-202.19"/>
<polygon fill="#63b8ff" stroke="#63b8ff" points="93.38,-179.18 82.8,-179.71 91.4,-185.89 93.38,-179.18"/>
</a>
</g>
</g>
<!-- Node4 -->
<g id="Node000004" class="node">
<title>Node4</title>
<g id="a_Node000004"><a xlink:href="structJStudio_1_1TAdaptor__ambientLight.html" target="_top" xlink:title=" ">
<polygon fill="white" stroke="#666666" points="264.88,-307.5 131.88,-307.5 131.88,-277 264.88,-277 264.88,-307.5"/>
<text text-anchor="start" x="139.88" y="-294" font-family="Helvetica,sans-Serif" font-size="10.00">JStudio::TAdaptor_ambient</text>
<text text-anchor="middle" x="198.38" y="-282.75" font-family="Helvetica,sans-Serif" font-size="10.00">Light</text>
</a>
</g>
</g>
<!-- Node0&#45;&gt;Node4 -->
<g id="edge1434_Node000000_Node000004" class="edge">
<title>Node0&#45;&gt;Node4</title>
<g id="a_edge1434_Node000000_Node000004"><a xlink:title=" ">
<path fill="none" stroke="#63b8ff" d="M59.16,-188.87C73.14,-211.06 98.65,-246.86 129.25,-268.25 133.77,-271.41 138.75,-274.19 143.9,-276.64"/>
<polygon fill="#63b8ff" stroke="#63b8ff" points="62.24,-187.2 54.04,-180.49 56.27,-190.85 62.24,-187.2"/>
</a>
</g>
</g>
<!-- Node6 -->
<g id="Node000006" class="node">
<title>Node6</title>
<g id="a_Node000006"><a xlink:href="structJStudio_1_1TAdaptor__camera.html" target="_top" xlink:title=" ">
<polygon fill="white" stroke="#666666" points="263.75,-258.88 133,-258.88 133,-239.62 263.75,-239.62 263.75,-258.88"/>
<text text-anchor="middle" x="198.38" y="-245.38" font-family="Helvetica,sans-Serif" font-size="10.00">JStudio::TAdaptor_camera</text>
</a>
</g>
</g>
<!-- Node0&#45;&gt;Node6 -->
<g id="edge1436_Node000000_Node000006" class="edge">
<title>Node0&#45;&gt;Node6</title>
<g id="a_edge1436_Node000000_Node000006"><a xlink:title=" ">
<path fill="none" stroke="#63b8ff" d="M66.06,-186.65C81.74,-200.58 105.45,-219.64 129.25,-231.25 135.63,-234.36 142.61,-236.99 149.6,-239.19"/>
<polygon fill="#63b8ff" stroke="#63b8ff" points="68.68,-184.31 58.93,-180.16 63.97,-189.48 68.68,-184.31"/>
</a>
</g>
</g>
<!-- Node8 -->
<g id="Node000008" class="node">
<title>Node8</title>
<g id="a_Node000008"><a xlink:href="structJStudio_1_1TAdaptor__fog.html" target="_top" xlink:title=" ">
<polygon fill="white" stroke="#666666" points="254.38,-135.88 142.38,-135.88 142.38,-116.62 254.38,-116.62 254.38,-135.88"/>
<text text-anchor="middle" x="198.38" y="-122.38" font-family="Helvetica,sans-Serif" font-size="10.00">JStudio::TAdaptor_fog</text>
</a>
</g>
</g>
<!-- Node0&#45;&gt;Node8 -->
<g id="edge1438_Node000000_Node000008" class="edge">
<title>Node0&#45;&gt;Node8</title>
<g id="a_edge1438_Node000000_Node000008"><a xlink:title=" ">
<path fill="none" stroke="#63b8ff" d="M92.08,-156.06C104.13,-152.51 117.18,-148.71 129.25,-145.25 139.52,-142.31 150.68,-139.17 160.93,-136.31"/>
<polygon fill="#63b8ff" stroke="#63b8ff" points="91.4,-152.61 82.8,-158.79 93.38,-159.32 91.4,-152.61"/>
</a>
</g>
</g>
<!-- Node10 -->
<g id="Node000010" class="node">
<title>Node10</title>
<g id="a_Node000010"><a xlink:href="structJStudio_1_1TAdaptor__light.html" target="_top" xlink:title=" ">
<polygon fill="white" stroke="#666666" points="256.62,-98.88 140.12,-98.88 140.12,-79.62 256.62,-79.62 256.62,-98.88"/>
<text text-anchor="middle" x="198.38" y="-85.38" font-family="Helvetica,sans-Serif" font-size="10.00">JStudio::TAdaptor_light</text>
</a>
</g>
</g>
<!-- Node0&#45;&gt;Node10 -->
<g id="edge1440_Node000000_Node000010" class="edge">
<title>Node0&#45;&gt;Node10</title>
<g id="a_edge1440_Node000000_Node000010"><a xlink:title=" ">
<path fill="none" stroke="#63b8ff" d="M66.06,-151.85C81.74,-137.92 105.45,-118.86 129.25,-107.25 135.63,-104.14 142.61,-101.51 149.6,-99.31"/>
<polygon fill="#63b8ff" stroke="#63b8ff" points="63.97,-149.02 58.93,-158.34 68.68,-154.19 63.97,-149.02"/>
</a>
</g>
</g>
<!-- Node12 -->
<g id="Node000012" class="node">
<title>Node12</title>
<g id="a_Node000012"><a xlink:href="structJStudio_1_1TAdaptor__message.html" target="_top" xlink:title=" ">
<polygon fill="white" stroke="#666666" points="267.5,-61.88 129.25,-61.88 129.25,-42.62 267.5,-42.62 267.5,-61.88"/>
<text text-anchor="middle" x="198.38" y="-48.38" font-family="Helvetica,sans-Serif" font-size="10.00">JStudio::TAdaptor_message</text>
</a>
</g>
</g>
<!-- Node0&#45;&gt;Node12 -->
<g id="edge1442_Node000000_Node000012" class="edge">
<title>Node0&#45;&gt;Node12</title>
<g id="a_edge1442_Node000000_Node000012"><a xlink:title=" ">
<path fill="none" stroke="#63b8ff" d="M58.65,-149.53C72.3,-126.96 97.66,-90.49 129.25,-70.25 134.19,-67.08 139.68,-64.47 145.33,-62.32"/>
<polygon fill="#63b8ff" stroke="#63b8ff" points="55.69,-147.66 53.68,-158.06 61.74,-151.18 55.69,-147.66"/>
</a>
</g>
</g>
<!-- Node13 -->
<g id="Node000013" class="node">
<title>Node13</title>
<g id="a_Node000013"><a xlink:href="structJStudio_1_1TAdaptor__particle.html" target="_top" xlink:title=" ">
<polygon fill="white" stroke="#666666" points="263.38,-24.88 133.38,-24.88 133.38,-5.62 263.38,-5.62 263.38,-24.88"/>
<text text-anchor="middle" x="198.38" y="-11.38" font-family="Helvetica,sans-Serif" font-size="10.00">JStudio::TAdaptor_particle</text>
</a>
</g>
</g>
<!-- Node0&#45;&gt;Node13 -->
<g id="edge1443_Node000000_Node000013" class="edge">
<title>Node0&#45;&gt;Node13</title>
<g id="a_edge1443_Node000000_Node000013"><a xlink:title=" ">
<path fill="none" stroke="#63b8ff" d="M54.43,-148.37C65.32,-118.27 89.58,-63.05 129.25,-33.25 133.46,-30.09 138.17,-27.48 143.11,-25.34"/>
<polygon fill="#63b8ff" stroke="#63b8ff" points="51.12,-147.22 51.17,-157.81 57.74,-149.5 51.12,-147.22"/>
</a>
</g>
</g>
<!-- Node15 -->
<g id="Node000015" class="node">
<title>Node15</title>
<g id="a_Node000015"><a xlink:href="structJStudio_1_1TAdaptor__sound.html" target="_top" xlink:title=" ">
<polygon fill="white" stroke="#666666" points="260.75,-347.88 136,-347.88 136,-328.62 260.75,-328.62 260.75,-347.88"/>
<text text-anchor="middle" x="198.38" y="-334.38" font-family="Helvetica,sans-Serif" font-size="10.00">JStudio::TAdaptor_sound</text>
</a>
</g>
</g>
<!-- Node0&#45;&gt;Node15 -->
<g id="edge1445_Node000000_Node000015" class="edge">
<title>Node0&#45;&gt;Node15</title>
<g id="a_edge1445_Node000000_Node000015"><a xlink:title=" ">
<path fill="none" stroke="#63b8ff" d="M53.59,-189.73C63.86,-221.42 87.86,-282.22 129.25,-316.25 135.39,-321.3 142.72,-325.2 150.26,-328.21"/>
<polygon fill="#63b8ff" stroke="#63b8ff" points="57.06,-189.1 50.77,-180.57 50.37,-191.16 57.06,-189.1"/>
</a>
</g>
</g>
<!-- Node2 -->
<g id="Node000002" class="node">
<title>Node2</title>
<g id="a_Node000002"><a xlink:href="structJStudio__JStage_1_1TAdaptor__actor.html" target="_top" xlink:title=" ">
<polygon fill="white" stroke="#666666" points="442.12,-196.5 312.88,-196.5 312.88,-166 442.12,-166 442.12,-196.5"/>
<text text-anchor="start" x="320.88" y="-183" font-family="Helvetica,sans-Serif" font-size="10.00">JStudio_JStage::TAdaptor</text>
<text text-anchor="middle" x="377.5" y="-171.75" font-family="Helvetica,sans-Serif" font-size="10.00">_actor</text>
</a>
</g>
</g>
<!-- Node1&#45;&gt;Node2 -->
<g id="edge1433_Node000001_Node000002" class="edge">
<title>Node1&#45;&gt;Node2</title>
<g id="a_edge1433_Node000001_Node000002"><a xlink:title=" ">
<path fill="none" stroke="#63b8ff" d="M267.92,-200.25C282.6,-197.68 298.05,-194.98 312.54,-192.44"/>
<polygon fill="#63b8ff" stroke="#63b8ff" points="267.62,-196.75 258.37,-201.92 268.83,-203.65 267.62,-196.75"/>
</a>
</g>
</g>
<!-- Node5 -->
<g id="Node000005" class="node">
<title>Node5</title>
<g id="a_Node000005"><a xlink:href="structJStudio__JStage_1_1TAdaptor__ambientLight.html" target="_top" xlink:title=" ">
<polygon fill="white" stroke="#666666" points="442.12,-307.5 312.88,-307.5 312.88,-277 442.12,-277 442.12,-307.5"/>
<text text-anchor="start" x="320.88" y="-294" font-family="Helvetica,sans-Serif" font-size="10.00">JStudio_JStage::TAdaptor</text>
<text text-anchor="middle" x="377.5" y="-282.75" font-family="Helvetica,sans-Serif" font-size="10.00">_ambientLight</text>
</a>
</g>
</g>
<!-- Node4&#45;&gt;Node5 -->
<g id="edge1435_Node000004_Node000005" class="edge">
<title>Node4&#45;&gt;Node5</title>
<g id="a_edge1435_Node000004_Node000005"><a xlink:title=" ">
<path fill="none" stroke="#63b8ff" d="M276.69,-292.25C288.66,-292.25 300.92,-292.25 312.55,-292.25"/>
<polygon fill="#63b8ff" stroke="#63b8ff" points="276.84,-288.75 266.84,-292.25 276.84,-295.75 276.84,-288.75"/>
</a>
</g>
</g>
<!-- Node7 -->
<g id="Node000007" class="node">
<title>Node7</title>
<g id="a_Node000007"><a xlink:href="structJStudio__JStage_1_1TAdaptor__camera.html" target="_top" xlink:title=" ">
<polygon fill="white" stroke="#666666" points="442.12,-258.5 312.88,-258.5 312.88,-228 442.12,-228 442.12,-258.5"/>
<text text-anchor="start" x="320.88" y="-245" font-family="Helvetica,sans-Serif" font-size="10.00">JStudio_JStage::TAdaptor</text>
<text text-anchor="middle" x="377.5" y="-233.75" font-family="Helvetica,sans-Serif" font-size="10.00">_camera</text>
</a>
</g>
</g>
<!-- Node6&#45;&gt;Node7 -->
<g id="edge1437_Node000006_Node000007" class="edge">
<title>Node6&#45;&gt;Node7</title>
<g id="a_edge1437_Node000006_Node000007"><a xlink:title=" ">
<path fill="none" stroke="#63b8ff" d="M275.34,-246.68C287.75,-246.26 300.49,-245.82 312.57,-245.42"/>
<polygon fill="#63b8ff" stroke="#63b8ff" points="275.46,-243.17 265.59,-247.01 275.7,-250.17 275.46,-243.17"/>
</a>
</g>
</g>
<!-- Node9 -->
<g id="Node000009" class="node">
<title>Node9</title>
<g id="a_Node000009"><a xlink:href="structJStudio__JStage_1_1TAdaptor__fog.html" target="_top" xlink:title=" ">
<polygon fill="white" stroke="#666666" points="451.5,-138.88 303.5,-138.88 303.5,-119.62 451.5,-119.62 451.5,-138.88"/>
<text text-anchor="middle" x="377.5" y="-125.38" font-family="Helvetica,sans-Serif" font-size="10.00">JStudio_JStage::TAdaptor_fog</text>
</a>
</g>
</g>
<!-- Node8&#45;&gt;Node9 -->
<g id="edge1439_Node000008_Node000009" class="edge">
<title>Node8&#45;&gt;Node9</title>
<g id="a_edge1439_Node000008_Node000009"><a xlink:title=" ">
<path fill="none" stroke="#63b8ff" d="M265.91,-127.38C278.09,-127.58 290.86,-127.8 303.23,-128.01"/>
<polygon fill="#63b8ff" stroke="#63b8ff" points="266.02,-123.88 255.96,-127.21 265.9,-130.88 266.02,-123.88"/>
</a>
</g>
</g>
<!-- Node11 -->
<g id="Node000011" class="node">
<title>Node11</title>
<g id="a_Node000011"><a xlink:href="structJStudio__JStage_1_1TAdaptor__light.html" target="_top" xlink:title=" ">
<polygon fill="white" stroke="#666666" points="442.12,-101.5 312.88,-101.5 312.88,-71 442.12,-71 442.12,-101.5"/>
<text text-anchor="start" x="320.88" y="-88" font-family="Helvetica,sans-Serif" font-size="10.00">JStudio_JStage::TAdaptor</text>
<text text-anchor="middle" x="377.5" y="-76.75" font-family="Helvetica,sans-Serif" font-size="10.00">_light</text>
</a>
</g>
</g>
<!-- Node10&#45;&gt;Node11 -->
<g id="edge1441_Node000010_Node000011" class="edge">
<title>Node10&#45;&gt;Node11</title>
<g id="a_edge1441_Node000010_Node000011"><a xlink:title=" ">
<path fill="none" stroke="#63b8ff" d="M268.36,-88.08C282.9,-87.84 298.19,-87.58 312.54,-87.33"/>
<polygon fill="#63b8ff" stroke="#63b8ff" points="268.34,-84.58 258.4,-88.25 268.45,-91.58 268.34,-84.58"/>
</a>
</g>
</g>
<!-- Node14 -->
<g id="Node000014" class="node">
<title>Node14</title>
<g id="a_Node000014"><a xlink:href="structJStudio__JParticle_1_1TAdaptor__particle.html" target="_top" xlink:title=" ">
<polygon fill="white" stroke="#666666" points="426,-30.5 329,-30.5 329,0 426,0 426,-30.5"/>
<text text-anchor="start" x="337" y="-17" font-family="Helvetica,sans-Serif" font-size="10.00">JStudio_JParticle::</text>
<text text-anchor="middle" x="377.5" y="-5.75" font-family="Helvetica,sans-Serif" font-size="10.00">TAdaptor_particle</text>
</a>
</g>
</g>
<!-- Node13&#45;&gt;Node14 -->
<g id="edge1444_Node000013_Node000014" class="edge">
<title>Node13&#45;&gt;Node14</title>
<g id="a_edge1444_Node000013_Node000014"><a xlink:title=" ">
<path fill="none" stroke="#63b8ff" d="M275.3,-15.25C293.44,-15.25 312.31,-15.25 328.76,-15.25"/>
<polygon fill="#63b8ff" stroke="#63b8ff" points="275.34,-11.75 265.34,-15.25 275.34,-18.75 275.34,-11.75"/>
</a>
</g>
</g>
<!-- Node16 -->
<g id="Node000016" class="node">
<title>Node16</title>
<g id="a_Node000016"><a xlink:href="structJStudio__JAudio2_1_1TAdaptor__sound.html" target="_top" xlink:title=" ">
<polygon fill="white" stroke="#666666" points="444.38,-356.5 310.62,-356.5 310.62,-326 444.38,-326 444.38,-356.5"/>
<text text-anchor="start" x="318.62" y="-343" font-family="Helvetica,sans-Serif" font-size="10.00">JStudio_JAudio2::TAdaptor</text>
<text text-anchor="middle" x="377.5" y="-331.75" font-family="Helvetica,sans-Serif" font-size="10.00">_sound</text>
</a>
</g>
</g>
<!-- Node15&#45;&gt;Node16 -->
<g id="edge1446_Node000015_Node000016" class="edge">
<title>Node15&#45;&gt;Node16</title>
<g id="a_edge1446_Node000015_Node000016"><a xlink:title=" ">
<path fill="none" stroke="#63b8ff" d="M272.25,-339.48C284.86,-339.7 297.91,-339.92 310.32,-340.13"/>
<polygon fill="#63b8ff" stroke="#63b8ff" points="272.4,-335.99 262.34,-339.32 272.28,-342.99 272.4,-335.99"/>
</a>
</g>
</g>
<!-- Node3 -->
<g id="Node000003" class="node">
<title>Node3</title>
<g id="a_Node000003"><a xlink:href="structJStudio__JStage_1_1TAdaptor__object__.html" target="_top" xlink:title=" ">
<polygon fill="white" stroke="#666666" points="263,-184.5 133.75,-184.5 133.75,-154 263,-154 263,-184.5"/>
<text text-anchor="start" x="141.75" y="-171" font-family="Helvetica,sans-Serif" font-size="10.00">JStudio_JStage::TAdaptor</text>
<text text-anchor="middle" x="198.38" y="-159.75" font-family="Helvetica,sans-Serif" font-size="10.00">_object_</text>
</a>
</g>
</g>
<!-- Node3&#45;&gt;Node2 -->
<g id="edge1447_Node000003_Node000002" class="edge">
<title>Node3&#45;&gt;Node2</title>
<g id="a_edge1447_Node000003_Node000002"><a xlink:title=" ">
<path fill="none" stroke="#63b8ff" d="M274.77,-174.36C287.38,-175.21 300.36,-176.09 312.65,-176.92"/>
<polygon fill="#63b8ff" stroke="#63b8ff" points="275.05,-170.87 264.83,-173.68 274.57,-177.85 275.05,-170.87"/>
</a>
</g>
</g>
</g>
</svg>
