<?xml version="1.0" encoding="UTF-8" standalone="no"?>
<!DOCTYPE svg PUBLIC "-//W3C//DTD SVG 1.1//EN"
 "http://www.w3.org/Graphics/SVG/1.1/DTD/svg11.dtd">
<!-- Generated by graphviz version 9.0.0 (20230911.1827)
 -->
<!-- Title: Graphical Class Hierarchy Pages: 1 -->
<svg width="581pt" height="341pt"
 viewBox="0.00 0.00 580.50 341.25" xmlns="http://www.w3.org/2000/svg" xmlns:xlink="http://www.w3.org/1999/xlink">
<g id="graph0" class="graph" transform="scale(1 1) rotate(0) translate(4 337.25)">
<title>Graphical Class Hierarchy</title>
<!-- Node0 -->
<g id="Node000000" class="node">
<title>Node0</title>
<g id="a_Node000000"><a xlink:href="classJ3DAnmBase.html" target="_top" xlink:title=" ">
<polygon fill="white" stroke="#666666" points="76,-166.25 0,-166.25 0,-147 76,-147 76,-166.25"/>
<text text-anchor="middle" x="38" y="-152.75" font-family="Helvetica,sans-Serif" font-size="10.00">J3DAnmBase</text>
</a>
</g>
</g>
<!-- Node1 -->
<g id="Node000001" class="node">
<title>Node1</title>
<g id="a_Node000001"><a xlink:href="classJ3DAnmCluster.html" target="_top" xlink:title=" ">
<polygon fill="white" stroke="#666666" points="215,-296.25 130.75,-296.25 130.75,-277 215,-277 215,-296.25"/>
<text text-anchor="middle" x="172.88" y="-282.75" font-family="Helvetica,sans-Serif" font-size="10.00">J3DAnmCluster</text>
</a>
</g>
</g>
<!-- Node0&#45;&gt;Node1 -->
<g id="edge1013_Node000000_Node000001" class="edge">
<title>Node0&#45;&gt;Node1</title>
<g id="a_edge1013_Node000000_Node000001"><a xlink:title=" ">
<path fill="none" stroke="#63b8ff" d="M47.14,-177.25C58.13,-202.47 80.08,-244.73 112,-268.62 117.47,-272.72 123.88,-275.89 130.43,-278.35"/>
<polygon fill="#63b8ff" stroke="#63b8ff" points="50.4,-175.98 43.33,-168.09 43.94,-178.67 50.4,-175.98"/>
</a>
</g>
</g>
<!-- Node4 -->
<g id="Node000004" class="node">
<title>Node4</title>
<g id="a_Node000004"><a xlink:href="classJ3DAnmColor.html" target="_top" xlink:title=" ">
<polygon fill="white" stroke="#666666" points="210.88,-259.25 134.88,-259.25 134.88,-240 210.88,-240 210.88,-259.25"/>
<text text-anchor="middle" x="172.88" y="-245.75" font-family="Helvetica,sans-Serif" font-size="10.00">J3DAnmColor</text>
</a>
</g>
</g>
<!-- Node0&#45;&gt;Node4 -->
<g id="edge1016_Node000000_Node000004" class="edge">
<title>Node0&#45;&gt;Node4</title>
<g id="a_edge1016_Node000000_Node000004"><a xlink:title=" ">
<path fill="none" stroke="#63b8ff" d="M52.97,-175.73C66.34,-192.71 87.98,-217.05 112,-231.62 118.87,-235.79 126.77,-239.05 134.53,-241.59"/>
<polygon fill="#63b8ff" stroke="#63b8ff" points="55.86,-173.75 47.02,-167.91 50.29,-177.99 55.86,-173.75"/>
</a>
</g>
</g>
<!-- Node7 -->
<g id="Node000007" class="node">
<title>Node7</title>
<g id="a_Node000007"><a xlink:href="classJ3DAnmTevRegKey.html" target="_top" xlink:title=" ">
<polygon fill="white" stroke="#666666" points="224.75,-222.25 121,-222.25 121,-203 224.75,-203 224.75,-222.25"/>
<text text-anchor="middle" x="172.88" y="-208.75" font-family="Helvetica,sans-Serif" font-size="10.00">J3DAnmTevRegKey</text>
</a>
</g>
</g>
<!-- Node0&#45;&gt;Node7 -->
<g id="edge1019_Node000000_Node000007" class="edge">
<title>Node0&#45;&gt;Node7</title>
<g id="a_edge1019_Node000000_Node000007"><a xlink:title=" ">
<path fill="none" stroke="#63b8ff" d="M65.63,-172.03C79.22,-179.49 96.18,-188.2 112,-194.62 119.14,-197.53 126.92,-200.2 134.45,-202.56"/>
<polygon fill="#63b8ff" stroke="#63b8ff" points="67.73,-169.19 57.29,-167.36 64.31,-175.3 67.73,-169.19"/>
</a>
</g>
</g>
<!-- Node8 -->
<g id="Node000008" class="node">
<title>Node8</title>
<g id="a_Node000008"><a xlink:href="classJ3DAnmTexPattern.html" target="_top" xlink:title=" ">
<polygon fill="white" stroke="#666666" points="223.25,-185.25 122.5,-185.25 122.5,-166 223.25,-166 223.25,-185.25"/>
<text text-anchor="middle" x="172.88" y="-171.75" font-family="Helvetica,sans-Serif" font-size="10.00">J3DAnmTexPattern</text>
</a>
</g>
</g>
<!-- Node0&#45;&gt;Node8 -->
<g id="edge1020_Node000000_Node000008" class="edge">
<title>Node0&#45;&gt;Node8</title>
<g id="a_edge1020_Node000000_Node000008"><a xlink:title=" ">
<path fill="none" stroke="#63b8ff" d="M87.44,-163.55C98.82,-165.18 110.96,-166.91 122.39,-168.55"/>
<polygon fill="#63b8ff" stroke="#63b8ff" points="88.26,-160.13 77.87,-162.18 87.27,-167.06 88.26,-160.13"/>
</a>
</g>
</g>
<!-- Node9 -->
<g id="Node000009" class="node">
<title>Node9</title>
<g id="a_Node000009"><a xlink:href="classJ3DAnmTextureSRTKey.html" target="_top" xlink:title=" ">
<polygon fill="white" stroke="#666666" points="233.75,-148.25 112,-148.25 112,-129 233.75,-129 233.75,-148.25"/>
<text text-anchor="middle" x="172.88" y="-134.75" font-family="Helvetica,sans-Serif" font-size="10.00">J3DAnmTextureSRTKey</text>
</a>
</g>
</g>
<!-- Node0&#45;&gt;Node9 -->
<g id="edge1021_Node000000_Node000009" class="edge">
<title>Node0&#45;&gt;Node9</title>
<g id="a_edge1021_Node000000_Node000009"><a xlink:title=" ">
<path fill="none" stroke="#63b8ff" d="M87.54,-150.05C95.38,-148.99 103.58,-147.88 111.66,-146.78"/>
<polygon fill="#63b8ff" stroke="#63b8ff" points="87.31,-146.55 77.87,-151.36 88.25,-153.49 87.31,-146.55"/>
</a>
</g>
</g>
<!-- Node10 -->
<g id="Node000010" class="node">
<title>Node10</title>
<g id="a_Node000010"><a xlink:href="structJ3DAnmTransform.html" target="_top" xlink:title=" ">
<polygon fill="white" stroke="#666666" points="221.75,-111.25 124,-111.25 124,-92 221.75,-92 221.75,-111.25"/>
<text text-anchor="middle" x="172.88" y="-97.75" font-family="Helvetica,sans-Serif" font-size="10.00">J3DAnmTransform</text>
</a>
</g>
</g>
<!-- Node0&#45;&gt;Node10 -->
<g id="edge1022_Node000000_Node000010" class="edge">
<title>Node0&#45;&gt;Node10</title>
<g id="a_edge1022_Node000000_Node000010"><a xlink:title=" ">
<path fill="none" stroke="#63b8ff" d="M66.62,-141.17C80.05,-134.03 96.59,-125.79 112,-119.62 119.26,-116.72 127.17,-114.03 134.79,-111.66"/>
<polygon fill="#63b8ff" stroke="#63b8ff" points="65.05,-138.04 57.92,-145.88 68.38,-144.19 65.05,-138.04"/>
</a>
</g>
</g>
<!-- Node15 -->
<g id="Node000015" class="node">
<title>Node15</title>
<g id="a_Node000015"><a xlink:href="classJ3DAnmVisibilityFull.html" target="_top" xlink:title=" ">
<polygon fill="white" stroke="#666666" points="225.5,-74.25 120.25,-74.25 120.25,-55 225.5,-55 225.5,-74.25"/>
<text text-anchor="middle" x="172.88" y="-60.75" font-family="Helvetica,sans-Serif" font-size="10.00">J3DAnmVisibilityFull</text>
</a>
</g>
</g>
<!-- Node0&#45;&gt;Node15 -->
<g id="edge1027_Node000000_Node000015" class="edge">
<title>Node0&#45;&gt;Node15</title>
<g id="a_edge1027_Node000000_Node000015"><a xlink:title=" ">
<path fill="none" stroke="#63b8ff" d="M53.02,-137.78C66.43,-121.03 88.09,-97.02 112,-82.62 117.21,-79.49 123,-76.86 128.88,-74.68"/>
<polygon fill="#63b8ff" stroke="#63b8ff" points="50.42,-135.44 47.06,-145.48 55.95,-139.72 50.42,-135.44"/>
</a>
</g>
</g>
<!-- Node16 -->
<g id="Node000016" class="node">
<title>Node16</title>
<g id="a_Node000016"><a xlink:href="classJ3DAnmVtxColor.html" target="_top" xlink:title=" ">
<polygon fill="white" stroke="#666666" points="218,-37.25 127.75,-37.25 127.75,-18 218,-18 218,-37.25"/>
<text text-anchor="middle" x="172.88" y="-23.75" font-family="Helvetica,sans-Serif" font-size="10.00">J3DAnmVtxColor</text>
</a>
</g>
</g>
<!-- Node0&#45;&gt;Node16 -->
<g id="edge1028_Node000000_Node000016" class="edge">
<title>Node0&#45;&gt;Node16</title>
<g id="a_edge1028_Node000000_Node000016"><a xlink:title=" ">
<path fill="none" stroke="#63b8ff" d="M47.19,-136.18C58.23,-111.19 80.23,-69.31 112,-45.62 116.61,-42.19 121.88,-39.4 127.34,-37.14"/>
<polygon fill="#63b8ff" stroke="#63b8ff" points="44.02,-134.68 43.36,-145.25 50.47,-137.4 44.02,-134.68"/>
</a>
</g>
</g>
<!-- Node2 -->
<g id="Node000002" class="node">
<title>Node2</title>
<g id="a_Node000002"><a xlink:href="classJ3DAnmClusterFull.html" target="_top" xlink:title=" ">
<polygon fill="white" stroke="#666666" points="376.88,-333.25 276.88,-333.25 276.88,-314 376.88,-314 376.88,-333.25"/>
<text text-anchor="middle" x="326.88" y="-319.75" font-family="Helvetica,sans-Serif" font-size="10.00">J3DAnmClusterFull</text>
</a>
</g>
</g>
<!-- Node1&#45;&gt;Node2 -->
<g id="edge1014_Node000001_Node000002" class="edge">
<title>Node1&#45;&gt;Node2</title>
<g id="a_edge1014_Node000001_Node000002"><a xlink:title=" ">
<path fill="none" stroke="#63b8ff" d="M226.57,-299.45C245.49,-304.06 266.55,-309.18 284.39,-313.53"/>
<polygon fill="#63b8ff" stroke="#63b8ff" points="227.42,-296.06 216.88,-297.09 225.77,-302.86 227.42,-296.06"/>
</a>
</g>
</g>
<!-- Node3 -->
<g id="Node000003" class="node">
<title>Node3</title>
<g id="a_Node000003"><a xlink:href="classJ3DAnmClusterKey.html" target="_top" xlink:title=" ">
<polygon fill="white" stroke="#666666" points="377.25,-296.25 276.5,-296.25 276.5,-277 377.25,-277 377.25,-296.25"/>
<text text-anchor="middle" x="326.88" y="-282.75" font-family="Helvetica,sans-Serif" font-size="10.00">J3DAnmClusterKey</text>
</a>
</g>
</g>
<!-- Node1&#45;&gt;Node3 -->
<g id="edge1015_Node000001_Node000003" class="edge">
<title>Node1&#45;&gt;Node3</title>
<g id="a_edge1015_Node000001_Node000003"><a xlink:title=" ">
<path fill="none" stroke="#63b8ff" d="M226.74,-286.62C242.73,-286.62 260.23,-286.62 276.01,-286.62"/>
<polygon fill="#63b8ff" stroke="#63b8ff" points="226.92,-283.13 216.92,-286.63 226.92,-290.13 226.92,-283.13"/>
</a>
</g>
</g>
<!-- Node5 -->
<g id="Node000005" class="node">
<title>Node5</title>
<g id="a_Node000005"><a xlink:href="classJ3DAnmColorFull.html" target="_top" xlink:title=" ">
<polygon fill="white" stroke="#666666" points="372.75,-259.25 281,-259.25 281,-240 372.75,-240 372.75,-259.25"/>
<text text-anchor="middle" x="326.88" y="-245.75" font-family="Helvetica,sans-Serif" font-size="10.00">J3DAnmColorFull</text>
</a>
</g>
</g>
<!-- Node4&#45;&gt;Node5 -->
<g id="edge1017_Node000004_Node000005" class="edge">
<title>Node4&#45;&gt;Node5</title>
<g id="a_edge1017_Node000004_Node000005"><a xlink:title=" ">
<path fill="none" stroke="#63b8ff" d="M222.32,-249.62C241.02,-249.62 262.29,-249.62 280.67,-249.62"/>
<polygon fill="#63b8ff" stroke="#63b8ff" points="222.57,-246.13 212.57,-249.63 222.57,-253.13 222.57,-246.13"/>
</a>
</g>
</g>
<!-- Node6 -->
<g id="Node000006" class="node">
<title>Node6</title>
<g id="a_Node000006"><a xlink:href="classJ3DAnmColorKey.html" target="_top" xlink:title=" ">
<polygon fill="white" stroke="#666666" points="373.12,-222.25 280.62,-222.25 280.62,-203 373.12,-203 373.12,-222.25"/>
<text text-anchor="middle" x="326.88" y="-208.75" font-family="Helvetica,sans-Serif" font-size="10.00">J3DAnmColorKey</text>
</a>
</g>
</g>
<!-- Node4&#45;&gt;Node6 -->
<g id="edge1018_Node000004_Node000006" class="edge">
<title>Node4&#45;&gt;Node6</title>
<g id="a_edge1018_Node000004_Node000006"><a xlink:title=" ">
<path fill="none" stroke="#63b8ff" d="M222.16,-237.87C242.22,-232.99 265.26,-227.38 284.53,-222.69"/>
<polygon fill="#63b8ff" stroke="#63b8ff" points="221.42,-234.45 212.53,-240.22 223.07,-241.25 221.42,-234.45"/>
</a>
</g>
</g>
<!-- Node11 -->
<g id="Node000011" class="node">
<title>Node11</title>
<g id="a_Node000011"><a xlink:href="classJ3DAnmTransformFull.html" target="_top" xlink:title=" ">
<polygon fill="white" stroke="#666666" points="383.62,-139.25 270.12,-139.25 270.12,-120 383.62,-120 383.62,-139.25"/>
<text text-anchor="middle" x="326.88" y="-125.75" font-family="Helvetica,sans-Serif" font-size="10.00">J3DAnmTransformFull</text>
</a>
</g>
</g>
<!-- Node10&#45;&gt;Node11 -->
<g id="edge1023_Node000010_Node000011" class="edge">
<title>Node10&#45;&gt;Node11</title>
<g id="a_edge1023_Node000010_Node000011"><a xlink:title=" ">
<path fill="none" stroke="#63b8ff" d="M233.17,-112.55C245.61,-114.84 258.68,-117.25 270.95,-119.51"/>
<polygon fill="#63b8ff" stroke="#63b8ff" points="233.93,-109.13 223.46,-110.76 232.66,-116.01 233.93,-109.13"/>
</a>
</g>
</g>
<!-- Node13 -->
<g id="Node000013" class="node">
<title>Node13</title>
<g id="a_Node000013"><a xlink:href="classJ3DAnmTransformKey.html" target="_top" xlink:title=" ">
<polygon fill="white" stroke="#666666" points="384,-102.25 269.75,-102.25 269.75,-83 384,-83 384,-102.25"/>
<text text-anchor="middle" x="326.88" y="-88.75" font-family="Helvetica,sans-Serif" font-size="10.00">J3DAnmTransformKey</text>
</a>
</g>
</g>
<!-- Node10&#45;&gt;Node13 -->
<g id="edge1025_Node000010_Node000013" class="edge">
<title>Node10&#45;&gt;Node13</title>
<g id="a_edge1025_Node000010_Node000013"><a xlink:title=" ">
<path fill="none" stroke="#63b8ff" d="M233.16,-98.11C245.06,-97.41 257.53,-96.67 269.33,-95.97"/>
<polygon fill="#63b8ff" stroke="#63b8ff" points="233.26,-94.6 223.48,-98.69 233.67,-101.59 233.26,-94.6"/>
</a>
</g>
</g>
<!-- Node12 -->
<g id="Node000012" class="node">
<title>Node12</title>
<g id="a_Node000012"><a xlink:href="classJ3DAnmTransformFullWithLerp.html" target="_top" xlink:title=" ">
<polygon fill="white" stroke="#666666" points="572.5,-139.25 420,-139.25 420,-120 572.5,-120 572.5,-139.25"/>
<text text-anchor="middle" x="496.25" y="-125.75" font-family="Helvetica,sans-Serif" font-size="10.00">J3DAnmTransformFullWithLerp</text>
</a>
</g>
</g>
<!-- Node11&#45;&gt;Node12 -->
<g id="edge1024_Node000011_Node000012" class="edge">
<title>Node11&#45;&gt;Node12</title>
<g id="a_edge1024_Node000011_Node000012"><a xlink:title=" ">
<path fill="none" stroke="#63b8ff" d="M395.5,-129.62C403.43,-129.62 411.55,-129.62 419.57,-129.62"/>
<polygon fill="#63b8ff" stroke="#63b8ff" points="395.59,-126.13 385.59,-129.63 395.59,-133.13 395.59,-126.13"/>
</a>
</g>
</g>
<!-- Node14 -->
<g id="Node000014" class="node">
<title>Node14</title>
<g id="a_Node000014"><a xlink:href="classmDoExt__transAnmBas.html" target="_top" xlink:title=" ">
<polygon fill="white" stroke="#666666" points="553.38,-102.25 439.12,-102.25 439.12,-83 553.38,-83 553.38,-102.25"/>
<text text-anchor="middle" x="496.25" y="-88.75" font-family="Helvetica,sans-Serif" font-size="10.00">mDoExt_transAnmBas</text>
</a>
</g>
</g>
<!-- Node13&#45;&gt;Node14 -->
<g id="edge1026_Node000013_Node000014" class="edge">
<title>Node13&#45;&gt;Node14</title>
<g id="a_edge1026_Node000013_Node000014"><a xlink:title=" ">
<path fill="none" stroke="#63b8ff" d="M395.4,-92.62C409.74,-92.62 424.74,-92.62 438.63,-92.62"/>
<polygon fill="#63b8ff" stroke="#63b8ff" points="395.59,-89.13 385.59,-92.63 395.59,-96.13 395.59,-89.13"/>
</a>
</g>
</g>
<!-- Node17 -->
<g id="Node000017" class="node">
<title>Node17</title>
<g id="a_Node000017"><a xlink:href="classJ3DAnmVtxColorFull.html" target="_top" xlink:title=" ">
<polygon fill="white" stroke="#666666" points="379.88,-56.25 273.88,-56.25 273.88,-37 379.88,-37 379.88,-56.25"/>
<text text-anchor="middle" x="326.88" y="-42.75" font-family="Helvetica,sans-Serif" font-size="10.00">J3DAnmVtxColorFull</text>
</a>
</g>
</g>
<!-- Node16&#45;&gt;Node17 -->
<g id="edge1029_Node000016_Node000017" class="edge">
<title>Node16&#45;&gt;Node17</title>
<g id="a_edge1029_Node000016_Node000017"><a xlink:title=" ">
<path fill="none" stroke="#63b8ff" d="M229.48,-34.58C243.82,-36.37 259.21,-38.29 273.39,-40.06"/>
<polygon fill="#63b8ff" stroke="#63b8ff" points="230.11,-31.13 219.75,-33.36 229.24,-38.07 230.11,-31.13"/>
</a>
</g>
</g>
<!-- Node18 -->
<g id="Node000018" class="node">
<title>Node18</title>
<g id="a_Node000018"><a xlink:href="classJ3DAnmVtxColorKey.html" target="_top" xlink:title=" ">
<polygon fill="white" stroke="#666666" points="380.25,-19.25 273.5,-19.25 273.5,0 380.25,0 380.25,-19.25"/>
<text text-anchor="middle" x="326.88" y="-5.75" font-family="Helvetica,sans-Serif" font-size="10.00">J3DAnmVtxColorKey</text>
</a>
</g>
</g>
<!-- Node16&#45;&gt;Node18 -->
<g id="edge1030_Node000016_Node000018" class="edge">
<title>Node16&#45;&gt;Node18</title>
<g id="a_edge1030_Node000016_Node000018"><a xlink:title=" ">
<path fill="none" stroke="#63b8ff" d="M229.42,-21.05C243.69,-19.36 259,-17.54 273.12,-15.87"/>
<polygon fill="#63b8ff" stroke="#63b8ff" points="229.27,-17.54 219.75,-22.19 230.09,-24.49 229.27,-17.54"/>
</a>
</g>
</g>
</g>
</svg>
