<?xml version="1.0" encoding="UTF-8" standalone="no"?>
<!DOCTYPE svg PUBLIC "-//W3C//DTD SVG 1.1//EN"
 "http://www.w3.org/Graphics/SVG/1.1/DTD/svg11.dtd">
<!-- Generated by graphviz version 9.0.0 (20230911.1827)
 -->
<!-- Title: Graphical Class Hierarchy Pages: 1 -->
<svg width="238pt" height="101pt"
 viewBox="0.00 0.00 238.00 101.25" xmlns="http://www.w3.org/2000/svg" xmlns:xlink="http://www.w3.org/1999/xlink">
<g id="graph0" class="graph" transform="scale(1 1) rotate(0) translate(4 97.25)">
<title>Graphical Class Hierarchy</title>
<!-- Node0 -->
<g id="Node000000" class="node">
<title>Node0</title>
<g id="a_Node000000"><a xlink:href="structcCcD__ObjCommonBase.html" target="_top" xlink:title=" ">
<polygon fill="white" stroke="#666666" points="121.75,-56.25 0,-56.25 0,-37 121.75,-37 121.75,-56.25"/>
<text text-anchor="middle" x="60.88" y="-42.75" font-family="Helvetica,sans-Serif" font-size="10.00">cCcD_ObjCommonBase</text>
</a>
</g>
</g>
<!-- Node1 -->
<g id="Node000001" class="node">
<title>Node1</title>
<g id="a_Node000001"><a xlink:href="structcCcD__ObjAt.html" target="_top" xlink:title=" ">
<polygon fill="white" stroke="#666666" points="228.88,-93.25 158.88,-93.25 158.88,-74 228.88,-74 228.88,-93.25"/>
<text text-anchor="middle" x="193.88" y="-79.75" font-family="Helvetica,sans-Serif" font-size="10.00">cCcD_ObjAt</text>
</a>
</g>
</g>
<!-- Node0&#45;&gt;Node1 -->
<g id="edge87_Node000000_Node000001" class="edge">
<title>Node0&#45;&gt;Node1</title>
<g id="a_edge87_Node000000_Node000001"><a xlink:title=" ">
<path fill="none" stroke="#63b8ff" d="M108.71,-59.85C125.13,-64.49 143.26,-69.61 158.48,-73.91"/>
<polygon fill="#63b8ff" stroke="#63b8ff" points="109.7,-56.5 99.13,-57.15 107.8,-63.23 109.7,-56.5"/>
</a>
</g>
</g>
<!-- Node2 -->
<g id="Node000002" class="node">
<title>Node2</title>
<g id="a_Node000002"><a xlink:href="structcCcD__ObjCo.html" target="_top" xlink:title=" ">
<polygon fill="white" stroke="#666666" points="230,-56.25 157.75,-56.25 157.75,-37 230,-37 230,-56.25"/>
<text text-anchor="middle" x="193.88" y="-42.75" font-family="Helvetica,sans-Serif" font-size="10.00">cCcD_ObjCo</text>
</a>
</g>
</g>
<!-- Node0&#45;&gt;Node2 -->
<g id="edge88_Node000000_Node000002" class="edge">
<title>Node0&#45;&gt;Node2</title>
<g id="a_edge88_Node000000_Node000002"><a xlink:title=" ">
<path fill="none" stroke="#63b8ff" d="M133.38,-46.62C141.7,-46.62 149.88,-46.62 157.4,-46.62"/>
<polygon fill="#63b8ff" stroke="#63b8ff" points="133.52,-43.13 123.52,-46.63 133.52,-50.13 133.52,-43.13"/>
</a>
</g>
</g>
<!-- Node3 -->
<g id="Node000003" class="node">
<title>Node3</title>
<g id="a_Node000003"><a xlink:href="structcCcD__ObjTg.html" target="_top" xlink:title=" ">
<polygon fill="white" stroke="#666666" points="229.62,-19.25 158.12,-19.25 158.12,0 229.62,0 229.62,-19.25"/>
<text text-anchor="middle" x="193.88" y="-5.75" font-family="Helvetica,sans-Serif" font-size="10.00">cCcD_ObjTg</text>
</a>
</g>
</g>
<!-- Node0&#45;&gt;Node3 -->
<g id="edge89_Node000000_Node000003" class="edge">
<title>Node0&#45;&gt;Node3</title>
<g id="a_edge89_Node000000_Node000003"><a xlink:title=" ">
<path fill="none" stroke="#63b8ff" d="M108.62,-33.42C124.9,-28.82 142.88,-23.75 158.03,-19.47"/>
<polygon fill="#63b8ff" stroke="#63b8ff" points="107.8,-30.02 99.13,-36.1 109.7,-36.75 107.8,-30.02"/>
</a>
</g>
</g>
</g>
</svg>
