<?xml version="1.0" encoding="UTF-8" standalone="no"?>
<!DOCTYPE svg PUBLIC "-//W3C//DTD SVG 1.1//EN"
 "http://www.w3.org/Graphics/SVG/1.1/DTD/svg11.dtd">
<!-- Generated by graphviz version 9.0.0 (20230911.1827)
 -->
<!-- Title: Graphical Class Hierarchy Pages: 1 -->
<svg width="478pt" height="440pt"
 viewBox="0.00 0.00 477.75 439.88" xmlns="http://www.w3.org/2000/svg" xmlns:xlink="http://www.w3.org/1999/xlink">
<g id="graph0" class="graph" transform="scale(1 1) rotate(0) translate(4 435.88)">
<title>Graphical Class Hierarchy</title>
<!-- Node0 -->
<g id="Node000000" class="node">
<title>Node0</title>
<g id="a_Node000000"><a xlink:href="classJASGlobalInstance.html" target="_top" xlink:title=" ">
<polygon fill="white" stroke="#666666" points="215,-431.88 109,-431.88 109,-401.38 215,-401.38 215,-431.88"/>
<text text-anchor="start" x="117" y="-418.38" font-family="Helvetica,sans-Serif" font-size="10.00">JASGlobalInstance&lt;</text>
<text text-anchor="middle" x="162" y="-407.12" font-family="Helvetica,sans-Serif" font-size="10.00"> JASAudioThread &gt;</text>
</a>
</g>
</g>
<!-- Node1 -->
<g id="Node000001" class="node">
<title>Node1</title>
<g id="a_Node000001"><a xlink:href="structJASAudioThread.html" target="_top" xlink:title=" ">
<polygon fill="white" stroke="#666666" points="340.5,-426.25 251,-426.25 251,-407 340.5,-407 340.5,-426.25"/>
<text text-anchor="middle" x="295.75" y="-412.75" font-family="Helvetica,sans-Serif" font-size="10.00">JASAudioThread</text>
</a>
</g>
</g>
<!-- Node0&#45;&gt;Node1 -->
<g id="edge1275_Node000000_Node000001" class="edge">
<title>Node0&#45;&gt;Node1</title>
<g id="a_edge1275_Node000000_Node000001"><a xlink:title=" ">
<path fill="none" stroke="#63b8ff" d="M226.75,-416.62C234.8,-416.62 242.89,-416.62 250.54,-416.62"/>
<polygon fill="#63b8ff" stroke="#63b8ff" points="226.96,-413.13 216.96,-416.63 226.96,-420.13 226.96,-413.13"/>
</a>
</g>
</g>
<!-- Node8 -->
<g id="Node000008" class="node">
<title>Node8</title>
<g id="a_Node000008"><a xlink:href="classJKRDisposer.html" target="_top" xlink:title=" ">
<polygon fill="white" stroke="#666666" points="73,-130.25 0,-130.25 0,-111 73,-111 73,-130.25"/>
<text text-anchor="middle" x="36.5" y="-116.75" font-family="Helvetica,sans-Serif" font-size="10.00">JKRDisposer</text>
</a>
</g>
</g>
<!-- Node9 -->
<g id="Node000009" class="node">
<title>Node9</title>
<g id="a_Node000009"><a xlink:href="classJKRAramHeap.html" target="_top" xlink:title=" ">
<polygon fill="white" stroke="#666666" points="202.62,-204.25 121.38,-204.25 121.38,-185 202.62,-185 202.62,-204.25"/>
<text text-anchor="middle" x="162" y="-190.75" font-family="Helvetica,sans-Serif" font-size="10.00">JKRAramHeap</text>
</a>
</g>
</g>
<!-- Node8&#45;&gt;Node9 -->
<g id="edge1276_Node000008_Node000009" class="edge">
<title>Node8&#45;&gt;Node9</title>
<g id="a_edge1276_Node000008_Node000009"><a xlink:title=" ">
<path fill="none" stroke="#63b8ff" d="M56.37,-138.26C70.12,-150.36 89.65,-166.08 109,-176.62 114.54,-179.64 120.68,-182.3 126.74,-184.58"/>
<polygon fill="#63b8ff" stroke="#63b8ff" points="58.74,-135.68 48.97,-131.58 54.05,-140.88 58.74,-135.68"/>
</a>
</g>
</g>
<!-- Node10 -->
<g id="Node000010" class="node">
<title>Node10</title>
<g id="a_Node000010"><a xlink:href="classJKRFile.html" target="_top" xlink:title=" ">
<polygon fill="white" stroke="#666666" points="187.25,-167.25 136.75,-167.25 136.75,-148 187.25,-148 187.25,-167.25"/>
<text text-anchor="middle" x="162" y="-153.75" font-family="Helvetica,sans-Serif" font-size="10.00">JKRFile</text>
</a>
</g>
</g>
<!-- Node8&#45;&gt;Node10 -->
<g id="edge1277_Node000008_Node000010" class="edge">
<title>Node8&#45;&gt;Node10</title>
<g id="a_edge1277_Node000008_Node000010"><a xlink:title=" ">
<path fill="none" stroke="#63b8ff" d="M82.26,-134.03C100.48,-139.49 120.85,-145.6 136.3,-150.23"/>
<polygon fill="#63b8ff" stroke="#63b8ff" points="83.28,-130.69 72.7,-131.17 81.27,-137.39 83.28,-130.69"/>
</a>
</g>
</g>
<!-- Node12 -->
<g id="Node000012" class="node">
<title>Node12</title>
<g id="a_Node000012"><a xlink:href="structJKRFileLoader.html" target="_top" xlink:title=" ">
<polygon fill="white" stroke="#666666" points="202.25,-130.25 121.75,-130.25 121.75,-111 202.25,-111 202.25,-130.25"/>
<text text-anchor="middle" x="162" y="-116.75" font-family="Helvetica,sans-Serif" font-size="10.00">JKRFileLoader</text>
</a>
</g>
</g>
<!-- Node8&#45;&gt;Node12 -->
<g id="edge1279_Node000008_Node000012" class="edge">
<title>Node8&#45;&gt;Node12</title>
<g id="a_edge1279_Node000008_Node000012"><a xlink:title=" ">
<path fill="none" stroke="#63b8ff" d="M84.58,-120.62C96.74,-120.62 109.72,-120.62 121.46,-120.62"/>
<polygon fill="#63b8ff" stroke="#63b8ff" points="84.73,-117.13 74.73,-120.63 84.73,-124.13 84.73,-117.13"/>
</a>
</g>
</g>
<!-- Node19 -->
<g id="Node000019" class="node">
<title>Node19</title>
<g id="a_Node000019"><a xlink:href="structJKRHeap.html" target="_top" xlink:title=" ">
<polygon fill="white" stroke="#666666" points="191,-93.25 133,-93.25 133,-74 191,-74 191,-93.25"/>
<text text-anchor="middle" x="162" y="-79.75" font-family="Helvetica,sans-Serif" font-size="10.00">JKRHeap</text>
</a>
</g>
</g>
<!-- Node8&#45;&gt;Node19 -->
<g id="edge1286_Node000008_Node000019" class="edge">
<title>Node8&#45;&gt;Node19</title>
<g id="a_edge1286_Node000008_Node000019"><a xlink:title=" ">
<path fill="none" stroke="#63b8ff" d="M82.03,-107.28C98.94,-102.22 117.72,-96.59 132.72,-92.1"/>
<polygon fill="#63b8ff" stroke="#63b8ff" points="81.27,-103.86 72.7,-110.08 83.28,-110.56 81.27,-103.86"/>
</a>
</g>
</g>
<!-- Node2 -->
<g id="Node000002" class="node">
<title>Node2</title>
<g id="a_Node000002"><a xlink:href="classJKRThread.html" target="_top" xlink:title=" ">
<polygon fill="white" stroke="#666666" points="194.38,-315.25 129.62,-315.25 129.62,-296 194.38,-296 194.38,-315.25"/>
<text text-anchor="middle" x="162" y="-301.75" font-family="Helvetica,sans-Serif" font-size="10.00">JKRThread</text>
</a>
</g>
</g>
<!-- Node8&#45;&gt;Node2 -->
<g id="edge1290_Node000008_Node000002" class="edge">
<title>Node8&#45;&gt;Node2</title>
<g id="a_edge1290_Node000008_Node000002"><a xlink:title=" ">
<path fill="none" stroke="#8b1a1a" d="M50.46,-140.04C76.56,-179.13 134.64,-266.14 154.33,-295.63"/>
<polygon fill="#8b1a1a" stroke="#8b1a1a" points="53.44,-138.2 44.98,-131.83 47.62,-142.09 53.44,-138.2"/>
</a>
</g>
</g>
<!-- Node23 -->
<g id="Node000023" class="node">
<title>Node23</title>
<g id="a_Node000023"><a xlink:href="classJUTConsole.html" target="_top" xlink:title=" ">
<polygon fill="white" stroke="#666666" points="197,-56.25 127,-56.25 127,-37 197,-37 197,-56.25"/>
<text text-anchor="middle" x="162" y="-42.75" font-family="Helvetica,sans-Serif" font-size="10.00">JUTConsole</text>
</a>
</g>
</g>
<!-- Node8&#45;&gt;Node23 -->
<g id="edge1297_Node000008_Node000023" class="edge">
<title>Node8&#45;&gt;Node23</title>
<g id="a_edge1297_Node000008_Node000023"><a xlink:title=" ">
<path fill="none" stroke="#63b8ff" d="M56.37,-102.99C70.12,-90.89 89.65,-75.17 109,-64.62 114.54,-61.61 120.68,-58.95 126.74,-56.67"/>
<polygon fill="#63b8ff" stroke="#63b8ff" points="54.05,-100.37 48.97,-109.67 58.74,-105.57 54.05,-100.37"/>
</a>
</g>
</g>
<!-- Node24 -->
<g id="Node000024" class="node">
<title>Node24</title>
<g id="a_Node000024"><a xlink:href="structJUTGamePad.html" target="_top" xlink:title=" ">
<polygon fill="white" stroke="#666666" points="201.12,-19.25 122.88,-19.25 122.88,0 201.12,0 201.12,-19.25"/>
<text text-anchor="middle" x="162" y="-5.75" font-family="Helvetica,sans-Serif" font-size="10.00">JUTGamePad</text>
</a>
</g>
</g>
<!-- Node8&#45;&gt;Node24 -->
<g id="edge1298_Node000008_Node000024" class="edge">
<title>Node8&#45;&gt;Node24</title>
<g id="a_edge1298_Node000008_Node000024"><a xlink:title=" ">
<path fill="none" stroke="#63b8ff" d="M48.16,-100.63C60.28,-79.66 81.97,-47.1 109,-27.62 113.34,-24.5 118.27,-21.88 123.32,-19.69"/>
<polygon fill="#63b8ff" stroke="#63b8ff" points="45.11,-98.91 43.3,-109.35 51.22,-102.32 45.11,-98.91"/>
</a>
</g>
</g>
<!-- Node11 -->
<g id="Node000011" class="node">
<title>Node11</title>
<g id="a_Node000011"><a xlink:href="classJKRDvdFile.html" target="_top" xlink:title=" ">
<polygon fill="white" stroke="#666666" points="329.62,-204.25 261.88,-204.25 261.88,-185 329.62,-185 329.62,-204.25"/>
<text text-anchor="middle" x="295.75" y="-190.75" font-family="Helvetica,sans-Serif" font-size="10.00">JKRDvdFile</text>
</a>
</g>
</g>
<!-- Node10&#45;&gt;Node11 -->
<g id="edge1278_Node000010_Node000011" class="edge">
<title>Node10&#45;&gt;Node11</title>
<g id="a_edge1278_Node000010_Node000011"><a xlink:title=" ">
<path fill="none" stroke="#63b8ff" d="M198.41,-167.57C218,-173.07 242.22,-179.87 261.47,-185.28"/>
<polygon fill="#63b8ff" stroke="#63b8ff" points="199.5,-164.24 188.93,-164.91 197.61,-170.98 199.5,-164.24"/>
</a>
</g>
</g>
<!-- Node13 -->
<g id="Node000013" class="node">
<title>Node13</title>
<g id="a_Node000013"><a xlink:href="structJKRArchive.html" target="_top" xlink:title=" ">
<polygon fill="white" stroke="#666666" points="329.62,-167.25 261.88,-167.25 261.88,-148 329.62,-148 329.62,-167.25"/>
<text text-anchor="middle" x="295.75" y="-153.75" font-family="Helvetica,sans-Serif" font-size="10.00">JKRArchive</text>
</a>
</g>
</g>
<!-- Node12&#45;&gt;Node13 -->
<g id="edge1280_Node000012_Node000013" class="edge">
<title>Node12&#45;&gt;Node13</title>
<g id="a_edge1280_Node000012_Node000013"><a xlink:title=" ">
<path fill="none" stroke="#63b8ff" d="M209.89,-133.79C226.95,-138.58 245.87,-143.9 261.5,-148.29"/>
<polygon fill="#63b8ff" stroke="#63b8ff" points="211.03,-130.48 200.46,-131.14 209.14,-137.22 211.03,-130.48"/>
</a>
</g>
</g>
<!-- Node18 -->
<g id="Node000018" class="node">
<title>Node18</title>
<g id="a_Node000018"><a xlink:href="classJKRFileCache.html" target="_top" xlink:title=" ">
<polygon fill="white" stroke="#666666" points="334.88,-130.25 256.62,-130.25 256.62,-111 334.88,-111 334.88,-130.25"/>
<text text-anchor="middle" x="295.75" y="-116.75" font-family="Helvetica,sans-Serif" font-size="10.00">JKRFileCache</text>
</a>
</g>
</g>
<!-- Node12&#45;&gt;Node18 -->
<g id="edge1285_Node000012_Node000018" class="edge">
<title>Node12&#45;&gt;Node18</title>
<g id="a_edge1285_Node000012_Node000018"><a xlink:title=" ">
<path fill="none" stroke="#63b8ff" d="M214.01,-120.62C228.02,-120.62 242.97,-120.62 256.16,-120.62"/>
<polygon fill="#63b8ff" stroke="#63b8ff" points="214.04,-117.13 204.04,-120.63 214.04,-124.13 214.04,-117.13"/>
</a>
</g>
</g>
<!-- Node14 -->
<g id="Node000014" class="node">
<title>Node14</title>
<g id="a_Node000014"><a xlink:href="structJKRAramArchive.html" target="_top" xlink:title=" ">
<polygon fill="white" stroke="#666666" points="468.62,-222.25 377.62,-222.25 377.62,-203 468.62,-203 468.62,-222.25"/>
<text text-anchor="middle" x="423.12" y="-208.75" font-family="Helvetica,sans-Serif" font-size="10.00">JKRAramArchive</text>
</a>
</g>
</g>
<!-- Node13&#45;&gt;Node14 -->
<g id="edge1281_Node000013_Node000014" class="edge">
<title>Node13&#45;&gt;Node14</title>
<g id="a_edge1281_Node000013_Node000014"><a xlink:title=" ">
<path fill="none" stroke="#63b8ff" d="M332.94,-172.2C335.51,-173.33 338.05,-174.48 340.5,-175.62 356.88,-183.3 360.06,-187.07 376.5,-194.62 382.54,-197.4 389.13,-200.15 395.38,-202.64"/>
<polygon fill="#63b8ff" stroke="#63b8ff" points="334.34,-168.99 323.77,-168.28 331.59,-175.43 334.34,-168.99"/>
</a>
</g>
</g>
<!-- Node15 -->
<g id="Node000015" class="node">
<title>Node15</title>
<g id="a_Node000015"><a xlink:href="classJKRCompArchive.html" target="_top" xlink:title=" ">
<polygon fill="white" stroke="#666666" points="469.75,-185.25 376.5,-185.25 376.5,-166 469.75,-166 469.75,-185.25"/>
<text text-anchor="middle" x="423.12" y="-171.75" font-family="Helvetica,sans-Serif" font-size="10.00">JKRCompArchive</text>
</a>
</g>
</g>
<!-- Node13&#45;&gt;Node15 -->
<g id="edge1282_Node000013_Node000015" class="edge">
<title>Node13&#45;&gt;Node15</title>
<g id="a_edge1282_Node000013_Node000015"><a xlink:title=" ">
<path fill="none" stroke="#63b8ff" d="M341.11,-163.99C352.56,-165.64 364.91,-167.41 376.43,-169.06"/>
<polygon fill="#63b8ff" stroke="#63b8ff" points="341.91,-160.57 331.52,-162.62 340.92,-167.5 341.91,-160.57"/>
</a>
</g>
</g>
<!-- Node16 -->
<g id="Node000016" class="node">
<title>Node16</title>
<g id="a_Node000016"><a xlink:href="classJKRDvdArchive.html" target="_top" xlink:title=" ">
<polygon fill="white" stroke="#666666" points="465.62,-148.25 380.62,-148.25 380.62,-129 465.62,-129 465.62,-148.25"/>
<text text-anchor="middle" x="423.12" y="-134.75" font-family="Helvetica,sans-Serif" font-size="10.00">JKRDvdArchive</text>
</a>
</g>
</g>
<!-- Node13&#45;&gt;Node16 -->
<g id="edge1283_Node000013_Node000016" class="edge">
<title>Node13&#45;&gt;Node16</title>
<g id="a_edge1283_Node000013_Node000016"><a xlink:title=" ">
<path fill="none" stroke="#63b8ff" d="M341.27,-150.88C353.92,-148.96 367.66,-146.88 380.16,-144.99"/>
<polygon fill="#63b8ff" stroke="#63b8ff" points="340.88,-147.4 331.52,-152.36 341.93,-154.32 340.88,-147.4"/>
</a>
</g>
</g>
<!-- Node17 -->
<g id="Node000017" class="node">
<title>Node17</title>
<g id="a_Node000017"><a xlink:href="classJKRMemArchive.html" target="_top" xlink:title=" ">
<polygon fill="white" stroke="#666666" points="467.88,-111.25 378.38,-111.25 378.38,-92 467.88,-92 467.88,-111.25"/>
<text text-anchor="middle" x="423.12" y="-97.75" font-family="Helvetica,sans-Serif" font-size="10.00">JKRMemArchive</text>
</a>
</g>
</g>
<!-- Node13&#45;&gt;Node17 -->
<g id="edge1284_Node000013_Node000017" class="edge">
<title>Node13&#45;&gt;Node17</title>
<g id="a_edge1284_Node000013_Node000017"><a xlink:title=" ">
<path fill="none" stroke="#63b8ff" d="M332.97,-143.11C335.53,-141.97 338.06,-140.8 340.5,-139.62 356.99,-131.68 359.95,-127.44 376.5,-119.62 382.35,-116.86 388.75,-114.15 394.85,-111.71"/>
<polygon fill="#63b8ff" stroke="#63b8ff" points="331.61,-139.89 323.81,-147.05 334.38,-146.32 331.61,-139.89"/>
</a>
</g>
</g>
<!-- Node20 -->
<g id="Node000020" class="node">
<title>Node20</title>
<g id="a_Node000020"><a xlink:href="classJKRAssertHeap.html" target="_top" xlink:title=" ">
<polygon fill="white" stroke="#666666" points="339,-93.25 252.5,-93.25 252.5,-74 339,-74 339,-93.25"/>
<text text-anchor="middle" x="295.75" y="-79.75" font-family="Helvetica,sans-Serif" font-size="10.00">JKRAssertHeap</text>
</a>
</g>
</g>
<!-- Node19&#45;&gt;Node20 -->
<g id="edge1287_Node000019_Node000020" class="edge">
<title>Node19&#45;&gt;Node20</title>
<g id="a_edge1287_Node000019_Node000020"><a xlink:title=" ">
<path fill="none" stroke="#63b8ff" d="M202.65,-83.62C218.22,-83.62 236.14,-83.62 252,-83.62"/>
<polygon fill="#63b8ff" stroke="#63b8ff" points="202.78,-80.13 192.78,-83.63 202.78,-87.13 202.78,-80.13"/>
</a>
</g>
</g>
<!-- Node21 -->
<g id="Node000021" class="node">
<title>Node21</title>
<g id="a_Node000021"><a xlink:href="structJKRExpHeap.html" target="_top" xlink:title=" ">
<polygon fill="white" stroke="#666666" points="332.62,-56.25 258.88,-56.25 258.88,-37 332.62,-37 332.62,-56.25"/>
<text text-anchor="middle" x="295.75" y="-42.75" font-family="Helvetica,sans-Serif" font-size="10.00">JKRExpHeap</text>
</a>
</g>
</g>
<!-- Node19&#45;&gt;Node21 -->
<g id="edge1288_Node000019_Node000021" class="edge">
<title>Node19&#45;&gt;Node21</title>
<g id="a_edge1288_Node000019_Node000021"><a xlink:title=" ">
<path fill="none" stroke="#63b8ff" d="M202.28,-72.59C220.27,-67.54 241.45,-61.59 258.99,-56.67"/>
<polygon fill="#63b8ff" stroke="#63b8ff" points="201.4,-69.2 192.72,-75.28 203.29,-75.94 201.4,-69.2"/>
</a>
</g>
</g>
<!-- Node22 -->
<g id="Node000022" class="node">
<title>Node22</title>
<g id="a_Node000022"><a xlink:href="classJKRSolidHeap.html" target="_top" xlink:title=" ">
<polygon fill="white" stroke="#666666" points="335.62,-19.25 255.88,-19.25 255.88,0 335.62,0 335.62,-19.25"/>
<text text-anchor="middle" x="295.75" y="-5.75" font-family="Helvetica,sans-Serif" font-size="10.00">JKRSolidHeap</text>
</a>
</g>
</g>
<!-- Node19&#45;&gt;Node22 -->
<g id="edge1289_Node000019_Node000022" class="edge">
<title>Node19&#45;&gt;Node22</title>
<g id="a_edge1289_Node000019_Node000022"><a xlink:title=" ">
<path fill="none" stroke="#63b8ff" d="M202.01,-72.45C206.54,-70.48 210.98,-68.22 215,-65.62 234.55,-53.02 231.82,-40.79 251,-27.62 255.47,-24.56 260.54,-21.88 265.61,-19.58"/>
<polygon fill="#63b8ff" stroke="#63b8ff" points="200.89,-69.13 192.81,-75.98 203.4,-75.67 200.89,-69.13"/>
</a>
</g>
</g>
<!-- Node2&#45;&gt;Node1 -->
<g id="edge1291_Node000002_Node000001" class="edge">
<title>Node2&#45;&gt;Node1</title>
<g id="a_edge1291_Node000002_Node000001"><a xlink:title=" ">
<path fill="none" stroke="#63b8ff" d="M176.99,-324.65C192.95,-345.23 220.76,-377.87 251,-398.62 255.47,-401.69 260.54,-404.38 265.61,-406.67"/>
<polygon fill="#63b8ff" stroke="#63b8ff" points="179.89,-322.69 171.07,-316.83 174.32,-326.92 179.89,-322.69"/>
</a>
</g>
</g>
<!-- Node3 -->
<g id="Node000003" class="node">
<title>Node3</title>
<g id="a_Node000003"><a xlink:href="classJASTaskThread.html" target="_top" xlink:title=" ">
<polygon fill="white" stroke="#666666" points="339,-389.25 252.5,-389.25 252.5,-370 339,-370 339,-389.25"/>
<text text-anchor="middle" x="295.75" y="-375.75" font-family="Helvetica,sans-Serif" font-size="10.00">JASTaskThread</text>
</a>
</g>
</g>
<!-- Node2&#45;&gt;Node3 -->
<g id="edge1292_Node000002_Node000003" class="edge">
<title>Node2&#45;&gt;Node3</title>
<g id="a_edge1292_Node000002_Node000003"><a xlink:title=" ">
<path fill="none" stroke="#63b8ff" d="M186.5,-322.19C203.85,-334.01 228.29,-349.84 251,-361.62 256.4,-364.42 262.33,-367.11 268.03,-369.51"/>
<polygon fill="#63b8ff" stroke="#63b8ff" points="188.63,-319.41 178.42,-316.61 184.66,-325.17 188.63,-319.41"/>
</a>
</g>
</g>
<!-- Node4 -->
<g id="Node000004" class="node">
<title>Node4</title>
<g id="a_Node000004"><a xlink:href="classJKRAram.html" target="_top" xlink:title=" ">
<polygon fill="white" stroke="#666666" points="324.75,-352.25 266.75,-352.25 266.75,-333 324.75,-333 324.75,-352.25"/>
<text text-anchor="middle" x="295.75" y="-338.75" font-family="Helvetica,sans-Serif" font-size="10.00">JKRAram</text>
</a>
</g>
</g>
<!-- Node2&#45;&gt;Node4 -->
<g id="edge1293_Node000002_Node000004" class="edge">
<title>Node2&#45;&gt;Node4</title>
<g id="a_edge1293_Node000002_Node000004"><a xlink:title=" ">
<path fill="none" stroke="#63b8ff" d="M205.57,-317.58C225.56,-323.19 248.83,-329.73 266.59,-334.72"/>
<polygon fill="#63b8ff" stroke="#63b8ff" points="206.59,-314.23 196.01,-314.9 204.7,-320.97 206.59,-314.23"/>
</a>
</g>
</g>
<!-- Node5 -->
<g id="Node000005" class="node">
<title>Node5</title>
<g id="a_Node000005"><a xlink:href="classJKRAramStream.html" target="_top" xlink:title=" ">
<polygon fill="white" stroke="#666666" points="340.5,-315.25 251,-315.25 251,-296 340.5,-296 340.5,-315.25"/>
<text text-anchor="middle" x="295.75" y="-301.75" font-family="Helvetica,sans-Serif" font-size="10.00">JKRAramStream</text>
</a>
</g>
</g>
<!-- Node2&#45;&gt;Node5 -->
<g id="edge1294_Node000002_Node000005" class="edge">
<title>Node2&#45;&gt;Node5</title>
<g id="a_edge1294_Node000002_Node000005"><a xlink:title=" ">
<path fill="none" stroke="#63b8ff" d="M205.75,-305.62C220.23,-305.62 236.43,-305.62 251,-305.62"/>
<polygon fill="#63b8ff" stroke="#63b8ff" points="206.07,-302.13 196.07,-305.63 206.07,-309.13 206.07,-302.13"/>
</a>
</g>
</g>
<!-- Node6 -->
<g id="Node000006" class="node">
<title>Node6</title>
<g id="a_Node000006"><a xlink:href="classJKRDecomp.html" target="_top" xlink:title=" ">
<polygon fill="white" stroke="#666666" points="331.12,-278.25 260.38,-278.25 260.38,-259 331.12,-259 331.12,-278.25"/>
<text text-anchor="middle" x="295.75" y="-264.75" font-family="Helvetica,sans-Serif" font-size="10.00">JKRDecomp</text>
</a>
</g>
</g>
<!-- Node2&#45;&gt;Node6 -->
<g id="edge1295_Node000002_Node000006" class="edge">
<title>Node2&#45;&gt;Node6</title>
<g id="a_edge1295_Node000002_Node000006"><a xlink:title=" ">
<path fill="none" stroke="#63b8ff" d="M205.47,-293.7C223.16,-288.73 243.45,-283.03 260.21,-278.32"/>
<polygon fill="#63b8ff" stroke="#63b8ff" points="204.7,-290.28 196.01,-296.35 206.59,-297.02 204.7,-290.28"/>
</a>
</g>
</g>
<!-- Node7 -->
<g id="Node000007" class="node">
<title>Node7</title>
<g id="a_Node000007"><a xlink:href="classJUTException.html" target="_top" xlink:title=" ">
<polygon fill="white" stroke="#666666" points="334.12,-241.25 257.38,-241.25 257.38,-222 334.12,-222 334.12,-241.25"/>
<text text-anchor="middle" x="295.75" y="-227.75" font-family="Helvetica,sans-Serif" font-size="10.00">JUTException</text>
</a>
</g>
</g>
<!-- Node2&#45;&gt;Node7 -->
<g id="edge1296_Node000002_Node000007" class="edge">
<title>Node2&#45;&gt;Node7</title>
<g id="a_edge1296_Node000002_Node000007"><a xlink:title=" ">
<path fill="none" stroke="#63b8ff" d="M186.5,-289.06C203.85,-277.24 228.29,-261.41 251,-249.62 256.4,-246.83 262.33,-244.14 268.03,-241.74"/>
<polygon fill="#63b8ff" stroke="#63b8ff" points="184.66,-286.08 178.42,-294.64 188.63,-291.84 184.66,-286.08"/>
</a>
</g>
</g>
</g>
</svg>
