<?xml version="1.0" encoding="UTF-8" standalone="no"?>
<!DOCTYPE svg PUBLIC "-//W3C//DTD SVG 1.1//EN"
 "http://www.w3.org/Graphics/SVG/1.1/DTD/svg11.dtd">
<!-- Generated by graphviz version 9.0.0 (20230911.1827)
 -->
<!-- Title: cM3dGAab Pages: 1 -->
<svg width="208pt" height="83pt"
 viewBox="0.00 0.00 208.38 82.50" xmlns="http://www.w3.org/2000/svg" xmlns:xlink="http://www.w3.org/1999/xlink">
<g id="graph0" class="graph" transform="scale(1 1) rotate(0) translate(4 78.5)">
<title>cM3dGAab</title>
<!-- Node1 -->
<g id="Node000001" class="node">
<title>Node1</title>
<g id="a_Node000001"><a xlink:title=" ">
<polygon fill="#999999" stroke="#666666" points="131.5,-74.5 66.75,-74.5 66.75,-55.25 131.5,-55.25 131.5,-74.5"/>
<text text-anchor="middle" x="99.12" y="-61" font-family="Helvetica,sans-Serif" font-size="10.00">cM3dGAab</text>
</a>
</g>
</g>
<!-- Node2 -->
<g id="Node000002" class="node">
<title>Node2</title>
<g id="a_Node000002"><a xlink:href="classcBgW__NodeTree.html" target="_top" xlink:title=" ">
<polygon fill="white" stroke="#666666" points="90.25,-19.25 0,-19.25 0,0 90.25,0 90.25,-19.25"/>
<text text-anchor="middle" x="45.12" y="-5.75" font-family="Helvetica,sans-Serif" font-size="10.00">cBgW_NodeTree</text>
</a>
</g>
</g>
<!-- Node1&#45;&gt;Node2 -->
<g id="edge1_Node000001_Node000002" class="edge">
<title>Node1&#45;&gt;Node2</title>
<g id="a_edge1_Node000001_Node000002"><a xlink:title=" ">
<path fill="none" stroke="#63b8ff" d="M82.09,-47.07C72.86,-37.98 61.83,-27.1 54.24,-19.61"/>
<polygon fill="#63b8ff" stroke="#63b8ff" points="79.55,-49.49 89.13,-54.02 84.47,-44.51 79.55,-49.49"/>
</a>
</g>
</g>
<!-- Node3 -->
<g id="Node000003" class="node">
<title>Node3</title>
<g id="a_Node000003"><a xlink:href="classcCcD__DivideArea.html" target="_top" xlink:title=" ">
<polygon fill="white" stroke="#666666" points="200.38,-19.25 107.88,-19.25 107.88,0 200.38,0 200.38,-19.25"/>
<text text-anchor="middle" x="154.12" y="-5.75" font-family="Helvetica,sans-Serif" font-size="10.00">cCcD_DivideArea</text>
</a>
</g>
</g>
<!-- Node1&#45;&gt;Node3 -->
<g id="edge2_Node000001_Node000003" class="edge">
<title>Node1&#45;&gt;Node3</title>
<g id="a_edge2_Node000001_Node000003"><a xlink:title=" ">
<path fill="none" stroke="#63b8ff" d="M116.48,-47.07C125.87,-37.98 137.11,-27.1 144.85,-19.61"/>
<polygon fill="#63b8ff" stroke="#63b8ff" points="114.04,-44.56 109.29,-54.03 118.91,-49.59 114.04,-44.56"/>
</a>
</g>
</g>
</g>
</svg>
