<?xml version="1.0" encoding="UTF-8" standalone="no"?>
<!DOCTYPE svg PUBLIC "-//W3C//DTD SVG 1.1//EN"
 "http://www.w3.org/Graphics/SVG/1.1/DTD/svg11.dtd">
<!-- Generated by graphviz version 9.0.0 (20230911.1827)
 -->
<!-- Title: J2DOrthoGraph Pages: 1 -->
<svg width="507pt" height="240pt"
 viewBox="0.00 0.00 506.88 240.00" xmlns="http://www.w3.org/2000/svg" xmlns:xlink="http://www.w3.org/1999/xlink">
<g id="graph0" class="graph" transform="scale(1 1) rotate(0) translate(4 236)">
<title>J2DOrthoGraph</title>
<!-- Node1 -->
<g id="Node000001" class="node">
<title>Node1</title>
<g id="a_Node000001"><a xlink:title=" ">
<polygon fill="#999999" stroke="#666666" points="116.5,-19.25 33,-19.25 33,0 116.5,0 116.5,-19.25"/>
<text text-anchor="middle" x="74.75" y="-5.75" font-family="Helvetica,sans-Serif" font-size="10.00">J2DOrthoGraph</text>
</a>
</g>
</g>
<!-- Node2 -->
<g id="Node000002" class="node">
<title>Node2</title>
<g id="a_Node000002"><a xlink:href="classJ2DGrafContext.html" target="_top" xlink:title=" ">
<polygon fill="white" stroke="#666666" points="235.25,-75.5 150.25,-75.5 150.25,-56.25 235.25,-56.25 235.25,-75.5"/>
<text text-anchor="middle" x="192.75" y="-62" font-family="Helvetica,sans-Serif" font-size="10.00">J2DGrafContext</text>
</a>
</g>
</g>
<!-- Node2&#45;&gt;Node1 -->
<g id="edge1_Node000001_Node000002" class="edge">
<title>Node2&#45;&gt;Node1</title>
<g id="a_edge1_Node000001_Node000002"><a xlink:title=" ">
<path fill="none" stroke="#63b8ff" d="M162.82,-51.11C141.42,-41.28 113.22,-28.31 94.56,-19.73"/>
<polygon fill="#63b8ff" stroke="#63b8ff" points="161.08,-54.17 171.62,-55.16 164,-47.81 161.08,-54.17"/>
</a>
</g>
</g>
<!-- Node3 -->
<g id="Node000003" class="node">
<title>Node3</title>
<g id="a_Node000003"><a xlink:href="structJGeometry_1_1TBox2.html" target="_top" xlink:title=" ">
<polygon fill="white" stroke="#666666" points="125.5,-175.75 0,-175.75 0,-156.5 125.5,-156.5 125.5,-175.75"/>
<text text-anchor="middle" x="62.75" y="-162.25" font-family="Helvetica,sans-Serif" font-size="10.00">JGeometry::TBox2&lt; f32 &gt;</text>
</a>
</g>
</g>
<!-- Node3&#45;&gt;Node1 -->
<g id="edge8_Node000001_Node000003" class="edge">
<title>Node3&#45;&gt;Node1</title>
<g id="a_edge8_Node000001_Node000003"><a xlink:title=" ">
<path fill="none" stroke="#9a32cd" stroke-dasharray="5,2" d="M64.3,-145.21C66.92,-111.39 72.16,-44.01 74.05,-19.66"/>
<polygon fill="#9a32cd" stroke="#9a32cd" points="60.83,-144.63 63.55,-154.87 67.81,-145.17 60.83,-144.63"/>
</a>
</g>
<text text-anchor="middle" x="89" y="-62" font-family="Helvetica,sans-Serif" font-size="10.00" fill="grey"> mOrtho</text>
</g>
<!-- Node3&#45;&gt;Node2 -->
<g id="edge2_Node000002_Node000003" class="edge">
<title>Node3&#45;&gt;Node2</title>
<g id="a_edge2_Node000002_Node000003"><a xlink:title=" ">
<path fill="none" stroke="#9a32cd" stroke-dasharray="5,2" d="M72.73,-145.98C82.79,-127.32 98.13,-100.73 107.5,-93.5 119.77,-84.02 135.47,-77.89 150.03,-73.93"/>
<polygon fill="#9a32cd" stroke="#9a32cd" points="69.67,-144.27 68.08,-154.75 75.86,-147.55 69.67,-144.27"/>
</a>
</g>
<text text-anchor="middle" x="144.88" y="-117.75" font-family="Helvetica,sans-Serif" font-size="10.00" fill="grey"> mBounds</text>
<text text-anchor="middle" x="144.88" y="-106.5" font-family="Helvetica,sans-Serif" font-size="10.00" fill="grey">mScissorBounds</text>
</g>
<!-- Node4 -->
<g id="Node000004" class="node">
<title>Node4</title>
<g id="a_Node000004"><a xlink:href="structJGeometry_1_1TBox.html" target="_top" xlink:title=" ">
<polygon fill="white" stroke="#666666" points="119.12,-232 6.38,-232 6.38,-212.75 119.12,-212.75 119.12,-232"/>
<text text-anchor="middle" x="62.75" y="-218.5" font-family="Helvetica,sans-Serif" font-size="10.00">JGeometry::TBox&lt; T &gt;</text>
</a>
</g>
</g>
<!-- Node4&#45;&gt;Node3 -->
<g id="edge3_Node000003_Node000004" class="edge">
<title>Node4&#45;&gt;Node3</title>
<g id="a_edge3_Node000003_Node000004"><a xlink:title=" ">
<path fill="none" stroke="#63b8ff" d="M62.75,-201.19C62.75,-192.48 62.75,-182.74 62.75,-175.92"/>
<polygon fill="#63b8ff" stroke="#63b8ff" points="59.25,-200.9 62.75,-210.9 66.25,-200.9 59.25,-200.9"/>
</a>
</g>
</g>
<!-- Node5 -->
<g id="Node000005" class="node">
<title>Node5</title>
<g id="a_Node000005"><a xlink:href="structJUtility_1_1TColor.html" target="_top" xlink:title=" ">
<polygon fill="white" stroke="#666666" points="222.25,-175.75 143.25,-175.75 143.25,-156.5 222.25,-156.5 222.25,-175.75"/>
<text text-anchor="middle" x="182.75" y="-162.25" font-family="Helvetica,sans-Serif" font-size="10.00">JUtility::TColor</text>
</a>
</g>
</g>
<!-- Node5&#45;&gt;Node2 -->
<g id="edge4_Node000002_Node000005" class="edge">
<title>Node5&#45;&gt;Node2</title>
<g id="a_edge4_Node000002_Node000005"><a xlink:title=" ">
<path fill="none" stroke="#9a32cd" stroke-dasharray="5,2" d="M184.82,-144.82C186.97,-123.67 190.25,-91.48 191.83,-75.92"/>
<polygon fill="#9a32cd" stroke="#9a32cd" points="181.36,-144.25 183.83,-154.55 188.32,-144.96 181.36,-144.25"/>
</a>
</g>
<text text-anchor="middle" x="213.62" y="-129" font-family="Helvetica,sans-Serif" font-size="10.00" fill="grey"> mColorBL</text>
<text text-anchor="middle" x="213.62" y="-117.75" font-family="Helvetica,sans-Serif" font-size="10.00" fill="grey">mColorBR</text>
<text text-anchor="middle" x="213.62" y="-106.5" font-family="Helvetica,sans-Serif" font-size="10.00" fill="grey">mColorTL</text>
<text text-anchor="middle" x="213.62" y="-95.25" font-family="Helvetica,sans-Serif" font-size="10.00" fill="grey">mColorTR</text>
</g>
<!-- Node6 -->
<g id="Node000006" class="node">
<title>Node6</title>
<g id="a_Node000006"><a xlink:href="struct__GXColor.html" target="_top" xlink:title=" ">
<polygon fill="white" stroke="#666666" points="209.12,-232 156.38,-232 156.38,-212.75 209.12,-212.75 209.12,-232"/>
<text text-anchor="middle" x="182.75" y="-218.5" font-family="Helvetica,sans-Serif" font-size="10.00">GXColor</text>
</a>
</g>
</g>
<!-- Node6&#45;&gt;Node5 -->
<g id="edge5_Node000005_Node000006" class="edge">
<title>Node6&#45;&gt;Node5</title>
<g id="a_edge5_Node000005_Node000006"><a xlink:title=" ">
<path fill="none" stroke="#63b8ff" d="M182.75,-201.19C182.75,-192.48 182.75,-182.74 182.75,-175.92"/>
<polygon fill="#63b8ff" stroke="#63b8ff" points="179.25,-200.9 182.75,-210.9 186.25,-200.9 179.25,-200.9"/>
</a>
</g>
</g>
<!-- Node7 -->
<g id="Node000007" class="node">
<title>Node7</title>
<g id="a_Node000007"><a xlink:href="structJGeometry_1_1TVec2.html" target="_top" xlink:title=" ">
<polygon fill="white" stroke="#666666" points="366.88,-175.75 240.62,-175.75 240.62,-156.5 366.88,-156.5 366.88,-175.75"/>
<text text-anchor="middle" x="303.75" y="-162.25" font-family="Helvetica,sans-Serif" font-size="10.00">JGeometry::TVec2&lt; f32 &gt;</text>
</a>
</g>
</g>
<!-- Node7&#45;&gt;Node2 -->
<g id="edge6_Node000002_Node000007" class="edge">
<title>Node7&#45;&gt;Node2</title>
<g id="a_edge6_Node000002_Node000007"><a xlink:title=" ">
<path fill="none" stroke="#9a32cd" stroke-dasharray="5,2" d="M290.85,-147.26C279.03,-131.75 260.43,-109.35 240.75,-93.5 232.14,-86.57 221.48,-80.45 212.39,-75.83"/>
<polygon fill="#9a32cd" stroke="#9a32cd" points="287.9,-149.16 296.67,-155.11 293.52,-144.99 287.9,-149.16"/>
</a>
</g>
<text text-anchor="middle" x="306.75" y="-112.12" font-family="Helvetica,sans-Serif" font-size="10.00" fill="grey"> mPrevPos</text>
</g>
<!-- Node8 -->
<g id="Node000008" class="node">
<title>Node8</title>
<g id="a_Node000008"><a xlink:href="structJ2DGrafContext_1_1Blend.html" target="_top" xlink:title=" ">
<polygon fill="white" stroke="#666666" points="498.88,-175.75 384.62,-175.75 384.62,-156.5 498.88,-156.5 498.88,-175.75"/>
<text text-anchor="middle" x="441.75" y="-162.25" font-family="Helvetica,sans-Serif" font-size="10.00">J2DGrafContext::Blend</text>
</a>
</g>
</g>
<!-- Node8&#45;&gt;Node2 -->
<g id="edge7_Node000002_Node000008" class="edge">
<title>Node8&#45;&gt;Node2</title>
<g id="a_edge7_Node000002_Node000008"><a xlink:title=" ">
<path fill="none" stroke="#9a32cd" stroke-dasharray="5,2" d="M422.74,-148.87C402.34,-132.33 368.34,-107.21 334.75,-93.5 302.94,-80.51 264.51,-73.8 235.65,-70.37"/>
<polygon fill="#9a32cd" stroke="#9a32cd" points="420.25,-151.36 430.18,-155.05 424.72,-145.97 420.25,-151.36"/>
</a>
</g>
<text text-anchor="middle" x="430.25" y="-123.38" font-family="Helvetica,sans-Serif" font-size="10.00" fill="grey"> field_0xb0</text>
<text text-anchor="middle" x="430.25" y="-112.12" font-family="Helvetica,sans-Serif" font-size="10.00" fill="grey">mBoxPart</text>
<text text-anchor="middle" x="430.25" y="-100.88" font-family="Helvetica,sans-Serif" font-size="10.00" fill="grey">mLinePart</text>
</g>
</g>
</svg>
