<?xml version="1.0" encoding="UTF-8" standalone="no"?>
<!DOCTYPE svg PUBLIC "-//W3C//DTD SVG 1.1//EN"
 "http://www.w3.org/Graphics/SVG/1.1/DTD/svg11.dtd">
<!-- Generated by graphviz version 9.0.0 (20230911.1827)
 -->
<!-- Title: mDoExt_morf_c Pages: 1 -->
<svg width="343pt" height="271pt"
 viewBox="0.00 0.00 343.38 270.75" xmlns="http://www.w3.org/2000/svg" xmlns:xlink="http://www.w3.org/1999/xlink">
<g id="graph0" class="graph" transform="scale(1 1) rotate(0) translate(4 266.75)">
<title>mDoExt_morf_c</title>
<!-- Node1 -->
<g id="Node000001" class="node">
<title>Node1</title>
<g id="a_Node000001"><a xlink:title=" ">
<polygon fill="#999999" stroke="#666666" points="203.12,-74.5 118.12,-74.5 118.12,-55.25 203.12,-55.25 203.12,-74.5"/>
<text text-anchor="middle" x="160.62" y="-61" font-family="Helvetica,sans-Serif" font-size="10.00">mDoExt_morf_c</text>
</a>
</g>
</g>
<!-- Node5 -->
<g id="Node000005" class="node">
<title>Node5</title>
<g id="a_Node000005"><a xlink:href="classmDoExt__McaMorf.html" target="_top" xlink:title=" ">
<polygon fill="white" stroke="#666666" points="93.25,-19.25 0,-19.25 0,0 93.25,0 93.25,-19.25"/>
<text text-anchor="middle" x="46.62" y="-5.75" font-family="Helvetica,sans-Serif" font-size="10.00">mDoExt_McaMorf</text>
</a>
</g>
</g>
<!-- Node1&#45;&gt;Node5 -->
<g id="edge4_Node000001_Node000005" class="edge">
<title>Node1&#45;&gt;Node5</title>
<g id="a_edge4_Node000001_Node000005"><a xlink:title=" ">
<path fill="none" stroke="#63b8ff" d="M130.94,-50.01C110.47,-40.45 83.86,-28.02 66.06,-19.7"/>
<polygon fill="#63b8ff" stroke="#63b8ff" points="129.37,-53.14 139.92,-54.2 132.34,-46.8 129.37,-53.14"/>
</a>
</g>
</g>
<!-- Node6 -->
<g id="Node000006" class="node">
<title>Node6</title>
<g id="a_Node000006"><a xlink:href="classmDoExt__McaMorf2.html" target="_top" xlink:title=" ">
<polygon fill="white" stroke="#666666" points="209.88,-19.25 111.38,-19.25 111.38,0 209.88,0 209.88,-19.25"/>
<text text-anchor="middle" x="160.62" y="-5.75" font-family="Helvetica,sans-Serif" font-size="10.00">mDoExt_McaMorf2</text>
</a>
</g>
</g>
<!-- Node1&#45;&gt;Node6 -->
<g id="edge5_Node000001_Node000006" class="edge">
<title>Node1&#45;&gt;Node6</title>
<g id="a_edge5_Node000001_Node000006"><a xlink:title=" ">
<path fill="none" stroke="#63b8ff" d="M160.62,-43.63C160.62,-35.34 160.62,-26.17 160.62,-19.61"/>
<polygon fill="#63b8ff" stroke="#63b8ff" points="157.13,-43.57 160.63,-53.57 164.13,-43.57 157.13,-43.57"/>
</a>
</g>
</g>
<!-- Node7 -->
<g id="Node000007" class="node">
<title>Node7</title>
<g id="a_Node000007"><a xlink:href="structmDoExt__McaMorfSO.html" target="_top" xlink:title=" ">
<polygon fill="white" stroke="#666666" points="335.38,-19.25 227.88,-19.25 227.88,0 335.38,0 335.38,-19.25"/>
<text text-anchor="middle" x="281.62" y="-5.75" font-family="Helvetica,sans-Serif" font-size="10.00">mDoExt_McaMorfSO</text>
</a>
</g>
</g>
<!-- Node1&#45;&gt;Node7 -->
<g id="edge6_Node000001_Node000007" class="edge">
<title>Node1&#45;&gt;Node7</title>
<g id="a_edge6_Node000001_Node000007"><a xlink:title=" ">
<path fill="none" stroke="#63b8ff" d="M191.54,-50.27C213.34,-40.68 241.93,-28.09 261,-19.7"/>
<polygon fill="#63b8ff" stroke="#63b8ff" points="190.28,-47 182.54,-54.23 193.1,-53.41 190.28,-47"/>
</a>
</g>
</g>
<!-- Node2 -->
<g id="Node000002" class="node">
<title>Node2</title>
<g id="a_Node000002"><a xlink:href="structJ3DMtxCalcNoAnm.html" target="_top" xlink:title=" ">
<polygon fill="white" stroke="#666666" points="246.25,-152.25 75,-152.25 75,-110.5 246.25,-110.5 246.25,-152.25"/>
<text text-anchor="start" x="83" y="-138.75" font-family="Helvetica,sans-Serif" font-size="10.00">J3DMtxCalcNoAnm&lt; J3DMtxCalc</text>
<text text-anchor="start" x="83" y="-127.5" font-family="Helvetica,sans-Serif" font-size="10.00">CalcTransformMaya, J3DMtxCalcJ3</text>
<text text-anchor="middle" x="160.62" y="-116.25" font-family="Helvetica,sans-Serif" font-size="10.00">DSysInitMaya &gt;</text>
</a>
</g>
</g>
<!-- Node2&#45;&gt;Node1 -->
<g id="edge1_Node000001_Node000002" class="edge">
<title>Node2&#45;&gt;Node1</title>
<g id="a_edge1_Node000001_Node000002"><a xlink:title=" ">
<path fill="none" stroke="#63b8ff" d="M160.62,-99.01C160.62,-90.2 160.62,-81.3 160.62,-74.95"/>
<polygon fill="#63b8ff" stroke="#63b8ff" points="157.13,-98.81 160.63,-108.81 164.13,-98.81 157.13,-98.81"/>
</a>
</g>
</g>
<!-- Node3 -->
<g id="Node000003" class="node">
<title>Node3</title>
<g id="a_Node000003"><a xlink:href="structJ3DMtxCalcNoAnmBase.html" target="_top" xlink:title=" ">
<polygon fill="white" stroke="#666666" points="222.62,-207.5 98.62,-207.5 98.62,-188.25 222.62,-188.25 222.62,-207.5"/>
<text text-anchor="middle" x="160.62" y="-194" font-family="Helvetica,sans-Serif" font-size="10.00">J3DMtxCalcNoAnmBase</text>
</a>
</g>
</g>
<!-- Node3&#45;&gt;Node2 -->
<g id="edge2_Node000002_Node000003" class="edge">
<title>Node3&#45;&gt;Node2</title>
<g id="a_edge2_Node000002_Node000003"><a xlink:title=" ">
<path fill="none" stroke="#63b8ff" d="M160.62,-176.45C160.62,-168.86 160.62,-160.26 160.62,-152.68"/>
<polygon fill="#63b8ff" stroke="#63b8ff" points="157.13,-176.39 160.63,-186.39 164.13,-176.39 157.13,-176.39"/>
</a>
</g>
</g>
<!-- Node4 -->
<g id="Node000004" class="node">
<title>Node4</title>
<g id="a_Node000004"><a xlink:href="structJ3DMtxCalc.html" target="_top" xlink:title=" ">
<polygon fill="white" stroke="#666666" points="194.88,-262.75 126.38,-262.75 126.38,-243.5 194.88,-243.5 194.88,-262.75"/>
<text text-anchor="middle" x="160.62" y="-249.25" font-family="Helvetica,sans-Serif" font-size="10.00">J3DMtxCalc</text>
</a>
</g>
</g>
<!-- Node4&#45;&gt;Node3 -->
<g id="edge3_Node000003_Node000004" class="edge">
<title>Node4&#45;&gt;Node3</title>
<g id="a_edge3_Node000003_Node000004"><a xlink:title=" ">
<path fill="none" stroke="#63b8ff" d="M160.62,-231.88C160.62,-223.59 160.62,-214.42 160.62,-207.86"/>
<polygon fill="#63b8ff" stroke="#63b8ff" points="157.13,-231.82 160.63,-241.82 164.13,-231.82 157.13,-231.82"/>
</a>
</g>
</g>
</g>
</svg>
