<?xml version="1.0" encoding="UTF-8" standalone="no"?>
<!DOCTYPE svg PUBLIC "-//W3C//DTD SVG 1.1//EN"
 "http://www.w3.org/Graphics/SVG/1.1/DTD/svg11.dtd">
<!-- Generated by graphviz version 9.0.0 (20230911.1827)
 -->
<!-- Title: JStudio_JStage::TAdaptor_fog Pages: 1 -->
<svg width="268pt" height="149pt"
 viewBox="0.00 0.00 267.62 149.00" xmlns="http://www.w3.org/2000/svg" xmlns:xlink="http://www.w3.org/1999/xlink">
<g id="graph0" class="graph" transform="scale(1 1) rotate(0) translate(4 145)">
<title>JStudio_JStage::TAdaptor_fog</title>
<!-- Node1 -->
<g id="Node000001" class="node">
<title>Node1</title>
<g id="a_Node000001"><a xlink:title=" ">
<polygon fill="#999999" stroke="#666666" points="199,-19.25 51,-19.25 51,0 199,0 199,-19.25"/>
<text text-anchor="middle" x="125" y="-5.75" font-family="Helvetica,sans-Serif" font-size="10.00">JStudio_JStage::TAdaptor_fog</text>
</a>
</g>
</g>
<!-- Node2 -->
<g id="Node000002" class="node">
<title>Node2</title>
<g id="a_Node000002"><a xlink:href="structJStudio_1_1TAdaptor__fog.html" target="_top" xlink:title=" ">
<polygon fill="white" stroke="#666666" points="112,-80.12 0,-80.12 0,-60.88 112,-60.88 112,-80.12"/>
<text text-anchor="middle" x="56" y="-66.62" font-family="Helvetica,sans-Serif" font-size="10.00">JStudio::TAdaptor_fog</text>
</a>
</g>
</g>
<!-- Node2&#45;&gt;Node1 -->
<g id="edge1_Node000001_Node000002" class="edge">
<title>Node2&#45;&gt;Node1</title>
<g id="a_edge1_Node000001_Node000002"><a xlink:title=" ">
<path fill="none" stroke="#63b8ff" d="M74.97,-53.31C87.69,-42.46 103.95,-28.59 114.42,-19.65"/>
<polygon fill="#63b8ff" stroke="#63b8ff" points="72.97,-50.42 67.63,-59.58 77.51,-55.75 72.97,-50.42"/>
</a>
</g>
</g>
<!-- Node3 -->
<g id="Node000003" class="node">
<title>Node3</title>
<g id="a_Node000003"><a xlink:href="structJStudio_1_1TAdaptor.html" target="_top" xlink:title=" ">
<polygon fill="white" stroke="#666666" points="102.62,-141 9.38,-141 9.38,-121.75 102.62,-121.75 102.62,-141"/>
<text text-anchor="middle" x="56" y="-127.5" font-family="Helvetica,sans-Serif" font-size="10.00">JStudio::TAdaptor</text>
</a>
</g>
</g>
<!-- Node3&#45;&gt;Node2 -->
<g id="edge2_Node000002_Node000003" class="edge">
<title>Node3&#45;&gt;Node2</title>
<g id="a_edge2_Node000002_Node000003"><a xlink:title=" ">
<path fill="none" stroke="#63b8ff" d="M56,-109.95C56,-99.92 56,-88.33 56,-80.53"/>
<polygon fill="#63b8ff" stroke="#63b8ff" points="52.5,-109.92 56,-119.92 59.5,-109.92 52.5,-109.92"/>
</a>
</g>
</g>
<!-- Node4 -->
<g id="Node000004" class="node">
<title>Node4</title>
<g id="a_Node000004"><a xlink:href="structJStudio__JStage_1_1TAdaptor__object__.html" target="_top" xlink:title=" ">
<polygon fill="white" stroke="#666666" points="259.62,-85.75 130.38,-85.75 130.38,-55.25 259.62,-55.25 259.62,-85.75"/>
<text text-anchor="start" x="138.38" y="-72.25" font-family="Helvetica,sans-Serif" font-size="10.00">JStudio_JStage::TAdaptor</text>
<text text-anchor="middle" x="195" y="-61" font-family="Helvetica,sans-Serif" font-size="10.00">_object_</text>
</a>
</g>
</g>
<!-- Node4&#45;&gt;Node1 -->
<g id="edge3_Node000001_Node000004" class="edge">
<title>Node4&#45;&gt;Node1</title>
<g id="a_edge3_Node000001_Node000004"><a xlink:title=" ">
<path fill="none" stroke="#63b8ff" d="M168.9,-47.55C157.43,-37.9 144.6,-27.11 135.79,-19.7"/>
<polygon fill="#63b8ff" stroke="#63b8ff" points="166.63,-50.21 176.54,-53.97 171.14,-44.86 166.63,-50.21"/>
</a>
</g>
</g>
</g>
</svg>
