<?xml version="1.0" encoding="UTF-8" standalone="no"?>
<!DOCTYPE svg PUBLIC "-//W3C//DTD SVG 1.1//EN"
 "http://www.w3.org/Graphics/SVG/1.1/DTD/svg11.dtd">
<!-- Generated by graphviz version 9.0.0 (20230911.1827)
 -->
<!-- Title: leafdraw_class Pages: 1 -->
<svg width="366pt" height="1581pt"
 viewBox="0.00 0.00 365.75 1581.25" xmlns="http://www.w3.org/2000/svg" xmlns:xlink="http://www.w3.org/1999/xlink">
<g id="graph0" class="graph" transform="scale(1 1) rotate(0) translate(4 1577.25)">
<title>leafdraw_class</title>
<!-- Node1 -->
<g id="Node000001" class="node">
<title>Node1</title>
<g id="a_Node000001"><a xlink:title=" ">
<polygon fill="#999999" stroke="#666666" points="81.25,-722.25 0,-722.25 0,-703 81.25,-703 81.25,-722.25"/>
<text text-anchor="middle" x="40.62" y="-708.75" font-family="Helvetica,sans-Serif" font-size="10.00">leafdraw_class</text>
</a>
</g>
</g>
<!-- Node2 -->
<g id="Node000002" class="node">
<title>Node2</title>
<g id="a_Node000002"><a xlink:href="structfopAc__ac__c.html" target="_top" xlink:title=" ">
<polygon fill="#fff0f0" stroke="red" points="201.12,-796.25 133.38,-796.25 133.38,-777 201.12,-777 201.12,-796.25"/>
<text text-anchor="middle" x="167.25" y="-782.75" font-family="Helvetica,sans-Serif" font-size="10.00">fopAc_ac_c</text>
</a>
</g>
</g>
<!-- Node1&#45;&gt;Node2 -->
<g id="edge1_Node000001_Node000002" class="edge">
<title>Node1&#45;&gt;Node2</title>
<g id="a_edge1_Node000001_Node000002"><a xlink:title=" ">
<path fill="none" stroke="#63b8ff" d="M61.39,-729.73C76.07,-741.79 96.96,-757.68 117.25,-768.62 122.75,-771.59 128.85,-774.27 134.82,-776.6"/>
<polygon fill="#63b8ff" stroke="#63b8ff" points="63.79,-727.17 53.88,-723.42 59.29,-732.53 63.79,-727.17"/>
</a>
</g>
</g>
<!-- Node773 -->
<g id="Node000773" class="node">
<title>Node773</title>
<g id="a_Node000773"><a xlink:href="classkankyo__class.html" target="_top" xlink:title=" ">
<polygon fill="#fff0f0" stroke="red" points="204.88,-759.25 129.62,-759.25 129.62,-740 204.88,-740 204.88,-759.25"/>
<text text-anchor="middle" x="167.25" y="-745.75" font-family="Helvetica,sans-Serif" font-size="10.00">kankyo_class</text>
</a>
</g>
</g>
<!-- Node1&#45;&gt;Node773 -->
<g id="edge45_Node000001_Node000773" class="edge">
<title>Node1&#45;&gt;Node773</title>
<g id="a_edge45_Node000001_Node000773"><a xlink:title=" ">
<path fill="none" stroke="#63b8ff" d="M86.36,-725.91C101.48,-730.39 118.09,-735.33 132.24,-739.53"/>
<polygon fill="#63b8ff" stroke="#63b8ff" points="87.71,-722.66 77.13,-723.17 85.72,-729.37 87.71,-722.66"/>
</a>
</g>
</g>
<!-- Node780 -->
<g id="Node000780" class="node">
<title>Node780</title>
<g id="a_Node000780"><a xlink:href="classmsg__class.html" target="_top" xlink:title=" ">
<polygon fill="#fff0f0" stroke="red" points="198.88,-722.25 135.62,-722.25 135.62,-703 198.88,-703 198.88,-722.25"/>
<text text-anchor="middle" x="167.25" y="-708.75" font-family="Helvetica,sans-Serif" font-size="10.00">msg_class</text>
</a>
</g>
</g>
<!-- Node1&#45;&gt;Node780 -->
<g id="edge46_Node000001_Node000780" class="edge">
<title>Node1&#45;&gt;Node780</title>
<g id="a_edge46_Node000001_Node000780"><a xlink:title=" ">
<path fill="none" stroke="#63b8ff" d="M93.02,-712.62C107.38,-712.62 122.53,-712.62 135.3,-712.62"/>
<polygon fill="#63b8ff" stroke="#63b8ff" points="93.26,-709.13 83.26,-712.63 93.26,-716.13 93.26,-709.13"/>
</a>
</g>
</g>
<!-- Node786 -->
<g id="Node000786" class="node">
<title>Node786</title>
<g id="a_Node000786"><a xlink:href="classoverlap__task__class.html" target="_top" xlink:title=" ">
<polygon fill="#fff0f0" stroke="red" points="217.25,-685.25 117.25,-685.25 117.25,-666 217.25,-666 217.25,-685.25"/>
<text text-anchor="middle" x="167.25" y="-671.75" font-family="Helvetica,sans-Serif" font-size="10.00">overlap_task_class</text>
</a>
</g>
</g>
<!-- Node1&#45;&gt;Node786 -->
<g id="edge47_Node000001_Node000786" class="edge">
<title>Node1&#45;&gt;Node786</title>
<g id="a_edge47_Node000001_Node000786"><a xlink:title=" ">
<path fill="none" stroke="#63b8ff" d="M86.36,-699.34C101.48,-694.86 118.09,-689.92 132.24,-685.72"/>
<polygon fill="#63b8ff" stroke="#63b8ff" points="85.72,-695.88 77.13,-702.08 87.71,-702.59 85.72,-695.88"/>
</a>
</g>
</g>
<!-- Node790 -->
<g id="Node000790" class="node">
<title>Node790</title>
<g id="a_Node000790"><a xlink:href="structview__class.html" target="_top" xlink:title=" ">
<polygon fill="#fff0f0" stroke="red" points="199.62,-648.25 134.88,-648.25 134.88,-629 199.62,-629 199.62,-648.25"/>
<text text-anchor="middle" x="167.25" y="-634.75" font-family="Helvetica,sans-Serif" font-size="10.00">view_class</text>
</a>
</g>
</g>
<!-- Node1&#45;&gt;Node790 -->
<g id="edge48_Node000001_Node000790" class="edge">
<title>Node1&#45;&gt;Node790</title>
<g id="a_edge48_Node000001_Node000790"><a xlink:title=" ">
<path fill="none" stroke="#63b8ff" d="M61.39,-695.52C76.07,-683.46 96.96,-667.57 117.25,-656.62 122.75,-653.66 128.85,-650.98 134.82,-648.65"/>
<polygon fill="#63b8ff" stroke="#63b8ff" points="59.29,-692.72 53.88,-701.83 63.79,-698.08 59.29,-692.72"/>
</a>
</g>
</g>
<!-- Node3 -->
<g id="Node000003" class="node">
<title>Node3</title>
<g id="a_Node000003"><a xlink:href="class__Fairy__Feather__c.html" target="_top" xlink:title=" ">
<polygon fill="white" stroke="#666666" points="351,-1573.25 260,-1573.25 260,-1554 351,-1554 351,-1573.25"/>
<text text-anchor="middle" x="305.5" y="-1559.75" font-family="Helvetica,sans-Serif" font-size="10.00">_Fairy_Feather_c</text>
</a>
</g>
</g>
<!-- Node2&#45;&gt;Node3 -->
<g id="edge2_Node000002_Node000003" class="edge">
<title>Node2&#45;&gt;Node3</title>
<g id="a_edge2_Node000002_Node000003"><a xlink:title=" ">
<path fill="none" stroke="#63b8ff" d="M169.3,-807.95C175.22,-924.97 205.94,-1486.19 253.25,-1545.62 255.83,-1548.87 259.04,-1551.53 262.59,-1553.72"/>
<polygon fill="#63b8ff" stroke="#63b8ff" points="172.81,-808.03 168.81,-798.22 165.81,-808.38 172.81,-808.03"/>
</a>
</g>
</g>
<!-- Node4 -->
<g id="Node000004" class="node">
<title>Node4</title>
<g id="a_Node000004"><a xlink:href="classdBgS__MoveBgActor.html" target="_top" xlink:title=" ">
<polygon fill="#fff0f0" stroke="red" points="357.75,-1536.25 253.25,-1536.25 253.25,-1517 357.75,-1517 357.75,-1536.25"/>
<text text-anchor="middle" x="305.5" y="-1522.75" font-family="Helvetica,sans-Serif" font-size="10.00">dBgS_MoveBgActor</text>
</a>
</g>
</g>
<!-- Node2&#45;&gt;Node4 -->
<g id="edge3_Node000002_Node000004" class="edge">
<title>Node2&#45;&gt;Node4</title>
<g id="a_edge3_Node000002_Node000004"><a xlink:title=" ">
<path fill="none" stroke="#63b8ff" d="M167.83,-807.97C166.13,-915.47 163.71,-1396.78 253.25,-1508.62 255.84,-1511.86 259.06,-1514.52 262.61,-1516.7"/>
<polygon fill="#63b8ff" stroke="#63b8ff" points="171.33,-808.1 168,-798.04 164.33,-807.98 171.33,-808.1"/>
</a>
</g>
</g>
<!-- Node73 -->
<g id="Node000073" class="node">
<title>Node73</title>
<g id="a_Node000073"><a xlink:href="classdBomb__c.html" target="_top" xlink:title=" ">
<polygon fill="#fff0f0" stroke="red" points="334.12,-1499.25 276.88,-1499.25 276.88,-1480 334.12,-1480 334.12,-1499.25"/>
<text text-anchor="middle" x="305.5" y="-1485.75" font-family="Helvetica,sans-Serif" font-size="10.00">dBomb_c</text>
</a>
</g>
</g>
<!-- Node2&#45;&gt;Node73 -->
<g id="edge4_Node000002_Node000073" class="edge">
<title>Node2&#45;&gt;Node73</title>
<g id="a_edge4_Node000002_Node000073"><a xlink:title=" ">
<path fill="none" stroke="#63b8ff" d="M167.98,-807.85C167.09,-911.77 168.17,-1366.03 253.25,-1471.62 258.99,-1478.75 267.74,-1483.06 276.39,-1485.66"/>
<polygon fill="#63b8ff" stroke="#63b8ff" points="171.48,-808.05 168.08,-798.01 164.48,-807.97 171.48,-808.05"/>
</a>
</g>
</g>
<!-- Node75 -->
<g id="Node000075" class="node">
<title>Node75</title>
<g id="a_Node000075"><a xlink:href="classdInsect__c.html" target="_top" xlink:title=" ">
<polygon fill="#fff0f0" stroke="red" points="334.88,-1462.25 276.12,-1462.25 276.12,-1443 334.88,-1443 334.88,-1462.25"/>
<text text-anchor="middle" x="305.5" y="-1448.75" font-family="Helvetica,sans-Serif" font-size="10.00">dInsect_c</text>
</a>
</g>
</g>
<!-- Node2&#45;&gt;Node75 -->
<g id="edge5_Node000002_Node000075" class="edge">
<title>Node2&#45;&gt;Node75</title>
<g id="a_edge5_Node000002_Node000075"><a xlink:title=" ">
<path fill="none" stroke="#63b8ff" d="M168.15,-807.65C168.08,-907.74 172.6,-1335.24 253.25,-1434.62 258.9,-1441.58 267.41,-1445.85 275.88,-1448.48"/>
<polygon fill="#63b8ff" stroke="#63b8ff" points="171.65,-807.95 168.17,-797.94 164.65,-807.93 171.65,-807.95"/>
</a>
</g>
</g>
<!-- Node83 -->
<g id="Node000083" class="node">
<title>Node83</title>
<g id="a_Node000083"><a xlink:href="classd__a__npc__henna0.html" target="_top" xlink:title="Henna 0 (unused?)">
<polygon fill="white" stroke="#666666" points="350.25,-1425.25 260.75,-1425.25 260.75,-1406 350.25,-1406 350.25,-1425.25"/>
<text text-anchor="middle" x="305.5" y="-1411.75" font-family="Helvetica,sans-Serif" font-size="10.00">d_a_npc_henna0</text>
</a>
</g>
</g>
<!-- Node2&#45;&gt;Node83 -->
<g id="edge6_Node000002_Node000083" class="edge">
<title>Node2&#45;&gt;Node83</title>
<g id="a_edge6_Node000002_Node000083"><a xlink:title=" ">
<path fill="none" stroke="#63b8ff" d="M168.33,-807.65C169.14,-904.22 177.07,-1304.5 253.25,-1397.62 255.88,-1400.84 259.12,-1403.48 262.68,-1405.65"/>
<polygon fill="#63b8ff" stroke="#63b8ff" points="171.84,-807.81 168.27,-797.83 164.84,-807.85 171.84,-807.81"/>
</a>
</g>
</g>
<!-- Node84 -->
<g id="Node000084" class="node">
<title>Node84</title>
<g id="a_Node000084"><a xlink:href="classdaAlldie__c.html" target="_top" xlink:title=" ">
<polygon fill="white" stroke="#666666" points="336,-1388.25 275,-1388.25 275,-1369 336,-1369 336,-1388.25"/>
<text text-anchor="middle" x="305.5" y="-1374.75" font-family="Helvetica,sans-Serif" font-size="10.00">daAlldie_c</text>
</a>
</g>
</g>
<!-- Node2&#45;&gt;Node84 -->
<g id="edge7_Node000002_Node000084" class="edge">
<title>Node2&#45;&gt;Node84</title>
<g id="a_edge7_Node000002_Node000084"><a xlink:title=" ">
<path fill="none" stroke="#63b8ff" d="M168.55,-807.85C170.27,-901.11 181.59,-1273.81 253.25,-1360.62 258.65,-1367.17 266.59,-1371.34 274.61,-1373.99"/>
<polygon fill="#63b8ff" stroke="#63b8ff" points="172.05,-808.05 168.39,-798.11 165.05,-808.17 172.05,-808.05"/>
</a>
</g>
</g>
<!-- Node85 -->
<g id="Node000085" class="node">
<title>Node85</title>
<g id="a_Node000085"><a xlink:href="classdaAmiShutter__c.html" target="_top" xlink:title="Drain Gate.">
<polygon fill="white" stroke="#666666" points="348.38,-1351.25 262.62,-1351.25 262.62,-1332 348.38,-1332 348.38,-1351.25"/>
<text text-anchor="middle" x="305.5" y="-1337.75" font-family="Helvetica,sans-Serif" font-size="10.00">daAmiShutter_c</text>
</a>
</g>
</g>
<!-- Node2&#45;&gt;Node85 -->
<g id="edge8_Node000002_Node000085" class="edge">
<title>Node2&#45;&gt;Node85</title>
<g id="a_edge8_Node000002_Node000085"><a xlink:title=" ">
<path fill="none" stroke="#63b8ff" d="M168.79,-807.87C171.46,-897.4 186.06,-1243.04 253.25,-1323.62 255.91,-1326.81 259.17,-1329.44 262.74,-1331.59"/>
<polygon fill="#63b8ff" stroke="#63b8ff" points="172.29,-807.79 168.51,-797.89 165.29,-807.99 172.29,-807.79"/>
</a>
</g>
</g>
<!-- Node86 -->
<g id="Node000086" class="node">
<title>Node86</title>
<g id="a_Node000086"><a xlink:href="classdaAndsw2__c.html" target="_top" xlink:title=" ">
<polygon fill="white" stroke="#666666" points="341.62,-1314.25 269.38,-1314.25 269.38,-1295 341.62,-1295 341.62,-1314.25"/>
<text text-anchor="middle" x="305.5" y="-1300.75" font-family="Helvetica,sans-Serif" font-size="10.00">daAndsw2_c</text>
</a>
</g>
</g>
<!-- Node2&#45;&gt;Node86 -->
<g id="edge9_Node000002_Node000086" class="edge">
<title>Node2&#45;&gt;Node86</title>
<g id="a_edge9_Node000002_Node000086"><a xlink:title=" ">
<path fill="none" stroke="#63b8ff" d="M169.06,-807.77C172.73,-893.24 190.48,-1212.2 253.25,-1286.62 257.45,-1291.6 263.1,-1295.2 269.13,-1297.8"/>
<polygon fill="#63b8ff" stroke="#63b8ff" points="172.56,-807.88 168.66,-798.03 165.57,-808.16 172.56,-807.88"/>
</a>
</g>
</g>
<!-- Node87 -->
<g id="Node000087" class="node">
<title>Node87</title>
<g id="a_Node000087"><a xlink:href="classdaAndsw__c.html" target="_top" xlink:title=" ">
<polygon fill="white" stroke="#666666" points="339,-1277.25 272,-1277.25 272,-1258 339,-1258 339,-1277.25"/>
<text text-anchor="middle" x="305.5" y="-1263.75" font-family="Helvetica,sans-Serif" font-size="10.00">daAndsw_c</text>
</a>
</g>
</g>
<!-- Node2&#45;&gt;Node87 -->
<g id="edge10_Node000002_Node000087" class="edge">
<title>Node2&#45;&gt;Node87</title>
<g id="a_edge10_Node000002_Node000087"><a xlink:title=" ">
<path fill="none" stroke="#63b8ff" d="M169.39,-808C174.14,-889.75 194.96,-1181.44 253.25,-1249.62 258.03,-1255.22 264.65,-1259.07 271.56,-1261.73"/>
<polygon fill="#63b8ff" stroke="#63b8ff" points="172.88,-807.86 168.83,-798.07 165.89,-808.25 172.88,-807.86"/>
</a>
</g>
</g>
<!-- Node88 -->
<g id="Node000088" class="node">
<title>Node88</title>
<g id="a_Node000088"><a xlink:href="structdaArrow__c.html" target="_top" xlink:title="Arrow.">
<polygon fill="white" stroke="#666666" points="336.75,-1240.25 274.25,-1240.25 274.25,-1221 336.75,-1221 336.75,-1240.25"/>
<text text-anchor="middle" x="305.5" y="-1226.75" font-family="Helvetica,sans-Serif" font-size="10.00">daArrow_c</text>
</a>
</g>
</g>
<!-- Node2&#45;&gt;Node88 -->
<g id="edge11_Node000002_Node000088" class="edge">
<title>Node2&#45;&gt;Node88</title>
<g id="a_edge11_Node000002_Node000088"><a xlink:title=" ">
<path fill="none" stroke="#63b8ff" d="M169.72,-807.53C175.54,-884.44 199.27,-1150.45 253.25,-1212.62 258.63,-1218.82 266.27,-1222.88 274.02,-1225.55"/>
<polygon fill="#63b8ff" stroke="#63b8ff" points="173.25,-807.74 169.03,-798.02 166.27,-808.25 173.25,-807.74"/>
</a>
</g>
</g>
<!-- Node89 -->
<g id="Node000089" class="node">
<title>Node89</title>
<g id="a_Node000089"><a xlink:href="classdaAttp__c.html" target="_top" xlink:title=" ">
<polygon fill="white" stroke="#666666" points="333,-1203.25 278,-1203.25 278,-1184 333,-1184 333,-1203.25"/>
<text text-anchor="middle" x="305.5" y="-1189.75" font-family="Helvetica,sans-Serif" font-size="10.00">daAttp_c</text>
</a>
</g>
</g>
<!-- Node2&#45;&gt;Node89 -->
<g id="edge12_Node000002_Node000089" class="edge">
<title>Node2&#45;&gt;Node89</title>
<g id="a_edge12_Node000002_Node000089"><a xlink:title=" ">
<path fill="none" stroke="#63b8ff" d="M170.2,-808.02C177.27,-881.15 203.79,-1119.69 253.25,-1175.62 259.5,-1182.69 268.68,-1186.98 277.56,-1189.59"/>
<polygon fill="#63b8ff" stroke="#63b8ff" points="173.7,-807.85 169.28,-798.22 166.73,-808.51 173.7,-807.85"/>
</a>
</g>
</g>
<!-- Node90 -->
<g id="Node000090" class="node">
<title>Node90</title>
<g id="a_Node000090"><a xlink:href="classdaB__ZANTS__c.html" target="_top" xlink:title="Zant (Goron Mines Phase)">
<polygon fill="white" stroke="#666666" points="346.5,-1166.25 264.5,-1166.25 264.5,-1147 346.5,-1147 346.5,-1166.25"/>
<text text-anchor="middle" x="305.5" y="-1152.75" font-family="Helvetica,sans-Serif" font-size="10.00">daB_ZANTS_c</text>
</a>
</g>
</g>
<!-- Node2&#45;&gt;Node90 -->
<g id="edge13_Node000002_Node000090" class="edge">
<title>Node2&#45;&gt;Node90</title>
<g id="a_edge13_Node000002_Node000090"><a xlink:title=" ">
<path fill="none" stroke="#63b8ff" d="M170.7,-807.72C179,-875.89 208.1,-1088.68 253.25,-1138.62 256.35,-1142.05 260.14,-1144.83 264.24,-1147.07"/>
<polygon fill="#63b8ff" stroke="#63b8ff" points="174.19,-807.45 169.53,-797.93 167.24,-808.28 174.19,-807.45"/>
</a>
</g>
</g>
<!-- Node91 -->
<g id="Node000091" class="node">
<title>Node91</title>
<g id="a_Node000091"><a xlink:href="classdaBalloon2D__c.html" target="_top" xlink:title="???">
<polygon fill="white" stroke="#666666" points="346.12,-1129.25 264.88,-1129.25 264.88,-1110 346.12,-1110 346.12,-1129.25"/>
<text text-anchor="middle" x="305.5" y="-1115.75" font-family="Helvetica,sans-Serif" font-size="10.00">daBalloon2D_c</text>
</a>
</g>
</g>
<!-- Node2&#45;&gt;Node91 -->
<g id="edge14_Node000002_Node000091" class="edge">
<title>Node2&#45;&gt;Node91</title>
<g id="a_edge14_Node000002_Node000091"><a xlink:title=" ">
<path fill="none" stroke="#63b8ff" d="M167.63,-807.85C167.17,-863.63 173.7,-1015.94 253.25,-1101.62 256.46,-1105.08 260.37,-1107.87 264.58,-1110.13"/>
<polygon fill="#63b8ff" stroke="#63b8ff" points="171.12,-808.23 167.8,-798.16 164.12,-808.1 171.12,-808.23"/>
</a>
</g>
</g>
<!-- Node92 -->
<g id="Node000092" class="node">
<title>Node92</title>
<g id="a_Node000092"><a xlink:href="classdaBaseNpc__c.html" target="_top" xlink:title=" ">
<polygon fill="#fff0f0" stroke="red" points="344.25,-1092.25 266.75,-1092.25 266.75,-1073 344.25,-1073 344.25,-1092.25"/>
<text text-anchor="middle" x="305.5" y="-1078.75" font-family="Helvetica,sans-Serif" font-size="10.00">daBaseNpc_c</text>
</a>
</g>
</g>
<!-- Node2&#45;&gt;Node92 -->
<g id="edge15_Node000002_Node000092" class="edge">
<title>Node2&#45;&gt;Node92</title>
<g id="a_edge15_Node000002_Node000092"><a xlink:title=" ">
<path fill="none" stroke="#63b8ff" d="M168.55,-808.05C170.45,-859.42 182.36,-990.77 253.25,-1064.62 256.97,-1068.5 261.58,-1071.55 266.49,-1073.93"/>
<polygon fill="#63b8ff" stroke="#63b8ff" points="172.05,-807.97 168.29,-798.06 165.05,-808.15 172.05,-807.97"/>
</a>
</g>
</g>
<!-- Node94 -->
<g id="Node000094" class="node">
<title>Node94</title>
<g id="a_Node000094"><a xlink:href="classdaBdoorL1__c.html" target="_top" xlink:title="Boss Door.">
<polygon fill="white" stroke="#666666" points="342.38,-1055.25 268.62,-1055.25 268.62,-1036 342.38,-1036 342.38,-1055.25"/>
<text text-anchor="middle" x="305.5" y="-1041.75" font-family="Helvetica,sans-Serif" font-size="10.00">daBdoorL1_c</text>
</a>
</g>
</g>
<!-- Node2&#45;&gt;Node94 -->
<g id="edge16_Node000002_Node000094" class="edge">
<title>Node2&#45;&gt;Node94</title>
<g id="a_edge16_Node000002_Node000094"><a xlink:title=" ">
<path fill="none" stroke="#63b8ff" d="M169.74,-808C174.1,-854.43 190.84,-965.3 253.25,-1027.62 257.45,-1031.82 262.69,-1035.05 268.2,-1037.52"/>
<polygon fill="#63b8ff" stroke="#63b8ff" points="173.24,-807.9 168.93,-798.22 166.26,-808.47 173.24,-807.9"/>
</a>
</g>
</g>
<!-- Node95 -->
<g id="Node000095" class="node">
<title>Node95</title>
<g id="a_Node000095"><a xlink:href="classdaBdoorL5__c.html" target="_top" xlink:title="Snowpeak Ruins Boss Door.">
<polygon fill="white" stroke="#666666" points="342.38,-1018.25 268.62,-1018.25 268.62,-999 342.38,-999 342.38,-1018.25"/>
<text text-anchor="middle" x="305.5" y="-1004.75" font-family="Helvetica,sans-Serif" font-size="10.00">daBdoorL5_c</text>
</a>
</g>
</g>
<!-- Node2&#45;&gt;Node95 -->
<g id="edge17_Node000002_Node000095" class="edge">
<title>Node2&#45;&gt;Node95</title>
<g id="a_edge17_Node000002_Node000095"><a xlink:title=" ">
<path fill="none" stroke="#63b8ff" d="M171.32,-808.04C178.33,-849.16 199.27,-939.64 253.25,-990.62 257.5,-994.64 262.7,-997.77 268.14,-1000.2"/>
<polygon fill="#63b8ff" stroke="#63b8ff" points="174.79,-807.57 169.78,-798.24 167.88,-808.66 174.79,-807.57"/>
</a>
</g>
</g>
<!-- Node96 -->
<g id="Node000096" class="node">
<title>Node96</title>
<g id="a_Node000096"><a xlink:href="classdaBdoor__c.html" target="_top" xlink:title="Boss Door (Unused?)">
<polygon fill="white" stroke="#666666" points="336.75,-981.25 274.25,-981.25 274.25,-962 336.75,-962 336.75,-981.25"/>
<text text-anchor="middle" x="305.5" y="-967.75" font-family="Helvetica,sans-Serif" font-size="10.00">daBdoor_c</text>
</a>
</g>
</g>
<!-- Node2&#45;&gt;Node96 -->
<g id="edge18_Node000002_Node000096" class="edge">
<title>Node2&#45;&gt;Node96</title>
<g id="a_edge18_Node000002_Node000096"><a xlink:title=" ">
<path fill="none" stroke="#63b8ff" d="M173.34,-807.27C183,-842.28 207.26,-913.38 253.25,-953.62 259.14,-958.78 266.6,-962.48 273.99,-965.14"/>
<polygon fill="#63b8ff" stroke="#63b8ff" points="176.82,-806.76 170.9,-797.97 170.05,-808.53 176.82,-806.76"/>
</a>
</g>
</g>
<!-- Node97 -->
<g id="Node000097" class="node">
<title>Node97</title>
<g id="a_Node000097"><a xlink:href="classdaBg__c.html" target="_top" xlink:title="Background.">
<polygon fill="white" stroke="#666666" points="330,-944.25 281,-944.25 281,-925 330,-925 330,-944.25"/>
<text text-anchor="middle" x="305.5" y="-930.75" font-family="Helvetica,sans-Serif" font-size="10.00">daBg_c</text>
</a>
</g>
</g>
<!-- Node2&#45;&gt;Node97 -->
<g id="edge19_Node000002_Node000097" class="edge">
<title>Node2&#45;&gt;Node97</title>
<g id="a_edge19_Node000002_Node000097"><a xlink:title=" ">
<path fill="none" stroke="#63b8ff" d="M176.5,-807.03C189.01,-835.49 215.38,-886.95 253.25,-916.62 261.19,-922.85 271.45,-927.02 280.7,-929.76"/>
<polygon fill="#63b8ff" stroke="#63b8ff" points="179.84,-805.93 172.72,-798.09 173.39,-808.66 179.84,-805.93"/>
</a>
</g>
</g>
<!-- Node98 -->
<g id="Node000098" class="node">
<title>Node98</title>
<g id="a_Node000098"><a xlink:href="classdaBkLeaf__c.html" target="_top" xlink:title="Baba Stem Leaf.">
<polygon fill="white" stroke="#666666" points="339.75,-907.25 271.25,-907.25 271.25,-888 339.75,-888 339.75,-907.25"/>
<text text-anchor="middle" x="305.5" y="-893.75" font-family="Helvetica,sans-Serif" font-size="10.00">daBkLeaf_c</text>
</a>
</g>
</g>
<!-- Node2&#45;&gt;Node98 -->
<g id="edge20_Node000002_Node000098" class="edge">
<title>Node2&#45;&gt;Node98</title>
<g id="a_edge20_Node000002_Node000098"><a xlink:title=" ">
<path fill="none" stroke="#63b8ff" d="M181.19,-805.66C196.26,-826.5 222.98,-859.62 253.25,-879.62 258.6,-883.16 264.72,-886.09 270.83,-888.48"/>
<polygon fill="#63b8ff" stroke="#63b8ff" points="184.25,-803.92 175.63,-797.76 178.52,-807.95 184.25,-803.92"/>
</a>
</g>
</g>
<!-- Node99 -->
<g id="Node000099" class="node">
<title>Node99</title>
<g id="a_Node000099"><a xlink:href="classdaBkyRock__c.html" target="_top" xlink:title="Bomb Shack Rock.">
<polygon fill="white" stroke="#666666" points="343.5,-870.25 267.5,-870.25 267.5,-851 343.5,-851 343.5,-870.25"/>
<text text-anchor="middle" x="305.5" y="-856.75" font-family="Helvetica,sans-Serif" font-size="10.00">daBkyRock_c</text>
</a>
</g>
</g>
<!-- Node2&#45;&gt;Node99 -->
<g id="edge21_Node000002_Node000099" class="edge">
<title>Node2&#45;&gt;Node99</title>
<g id="a_edge21_Node000002_Node000099"><a xlink:title=" ">
<path fill="none" stroke="#63b8ff" d="M190.1,-803.18C206.76,-815.26 230.62,-831.41 253.25,-842.62 259.16,-845.56 265.68,-848.23 272.02,-850.57"/>
<polygon fill="#63b8ff" stroke="#63b8ff" points="192.53,-800.62 182.4,-797.51 188.37,-806.26 192.53,-800.62"/>
</a>
</g>
</g>
<!-- Node100 -->
<g id="Node000100" class="node">
<title>Node100</title>
<g id="a_Node000100"><a xlink:href="classdaBoomerang__c.html" target="_top" xlink:title="Gale Boomerang.">
<polygon fill="white" stroke="#666666" points="348.75,-833.25 262.25,-833.25 262.25,-814 348.75,-814 348.75,-833.25"/>
<text text-anchor="middle" x="305.5" y="-819.75" font-family="Helvetica,sans-Serif" font-size="10.00">daBoomerang_c</text>
</a>
</g>
</g>
<!-- Node2&#45;&gt;Node100 -->
<g id="edge22_Node000002_Node000100" class="edge">
<title>Node2&#45;&gt;Node100</title>
<g id="a_edge22_Node000002_Node000100"><a xlink:title=" ">
<path fill="none" stroke="#63b8ff" d="M212.58,-798.66C230.4,-803.5 250.7,-809.01 267.68,-813.63"/>
<polygon fill="#63b8ff" stroke="#63b8ff" points="213.61,-795.32 203.04,-796.07 211.77,-802.07 213.61,-795.32"/>
</a>
</g>
</g>
<!-- Node101 -->
<g id="Node000101" class="node">
<title>Node101</title>
<g id="a_Node000101"><a xlink:href="classdaBubbPilar__c.html" target="_top" xlink:title="Bubble Pillar.">
<polygon fill="white" stroke="#666666" points="345,-796.25 266,-796.25 266,-777 345,-777 345,-796.25"/>
<text text-anchor="middle" x="305.5" y="-782.75" font-family="Helvetica,sans-Serif" font-size="10.00">daBubbPilar_c</text>
</a>
</g>
</g>
<!-- Node2&#45;&gt;Node101 -->
<g id="edge23_Node000002_Node000101" class="edge">
<title>Node2&#45;&gt;Node101</title>
<g id="a_edge23_Node000002_Node000101"><a xlink:title=" ">
<path fill="none" stroke="#63b8ff" d="M212.96,-786.62C230,-786.62 249.27,-786.62 265.72,-786.62"/>
<polygon fill="#63b8ff" stroke="#63b8ff" points="213.09,-783.13 203.09,-786.63 213.09,-790.13 213.09,-783.13"/>
</a>
</g>
</g>
<!-- Node102 -->
<g id="Node000102" class="node">
<title>Node102</title>
<g id="a_Node000102"><a xlink:href="classdaCanoe__c.html" target="_top" xlink:title="Canoe.">
<polygon fill="white" stroke="#666666" points="337.88,-759.25 273.12,-759.25 273.12,-740 337.88,-740 337.88,-759.25"/>
<text text-anchor="middle" x="305.5" y="-745.75" font-family="Helvetica,sans-Serif" font-size="10.00">daCanoe_c</text>
</a>
</g>
</g>
<!-- Node2&#45;&gt;Node102 -->
<g id="edge24_Node000002_Node000102" class="edge">
<title>Node2&#45;&gt;Node102</title>
<g id="a_edge24_Node000002_Node000102"><a xlink:title=" ">
<path fill="none" stroke="#63b8ff" d="M212.47,-774.62C232.18,-769.26 254.96,-763.08 272.92,-758.2"/>
<polygon fill="#63b8ff" stroke="#63b8ff" points="211.77,-771.18 203.04,-777.18 213.61,-777.93 211.77,-771.18"/>
</a>
</g>
</g>
<!-- Node103 -->
<g id="Node000103" class="node">
<title>Node103</title>
<g id="a_Node000103"><a xlink:href="classdaCoach2D__c.html" target="_top" xlink:title="Coach 2D.">
<polygon fill="white" stroke="#666666" points="343.88,-722.25 267.12,-722.25 267.12,-703 343.88,-703 343.88,-722.25"/>
<text text-anchor="middle" x="305.5" y="-708.75" font-family="Helvetica,sans-Serif" font-size="10.00">daCoach2D_c</text>
</a>
</g>
</g>
<!-- Node2&#45;&gt;Node103 -->
<g id="edge25_Node000002_Node000103" class="edge">
<title>Node2&#45;&gt;Node103</title>
<g id="a_edge25_Node000002_Node000103"><a xlink:title=" ">
<path fill="none" stroke="#63b8ff" d="M211.56,-772.02C213.53,-770.95 215.43,-769.82 217.25,-768.62 236.68,-755.83 233.73,-743.28 253.25,-730.62 258,-727.55 263.34,-724.92 268.73,-722.71"/>
<polygon fill="#63b8ff" stroke="#63b8ff" points="210.33,-768.73 202.79,-776.17 213.32,-775.06 210.33,-768.73"/>
</a>
</g>
</g>
<!-- Node104 -->
<g id="Node000104" class="node">
<title>Node104</title>
<g id="a_Node000104"><a xlink:href="classdaCoachFire__c.html" target="_top" xlink:title="Coach Fire.">
<polygon fill="white" stroke="#666666" points="346.12,-685.25 264.88,-685.25 264.88,-666 346.12,-666 346.12,-685.25"/>
<text text-anchor="middle" x="305.5" y="-671.75" font-family="Helvetica,sans-Serif" font-size="10.00">daCoachFire_c</text>
</a>
</g>
</g>
<!-- Node2&#45;&gt;Node104 -->
<g id="edge26_Node000002_Node000104" class="edge">
<title>Node2&#45;&gt;Node104</title>
<g id="a_edge26_Node000002_Node000104"><a xlink:title=" ">
<path fill="none" stroke="#63b8ff" d="M211.33,-773.17C213.43,-771.79 215.42,-770.28 217.25,-768.62 244.61,-743.76 225.71,-718.3 253.25,-693.62 256.76,-690.48 260.86,-687.87 265.17,-685.72"/>
<polygon fill="#63b8ff" stroke="#63b8ff" points="210.11,-769.85 202.93,-777.64 213.4,-776.03 210.11,-769.85"/>
</a>
</g>
</g>
<!-- Node105 -->
<g id="Node000105" class="node">
<title>Node105</title>
<g id="a_Node000105"><a xlink:href="classdaCow__c.html" target="_top" xlink:title="Ordon Goat.">
<polygon fill="white" stroke="#666666" points="333.75,-648.25 277.25,-648.25 277.25,-629 333.75,-629 333.75,-648.25"/>
<text text-anchor="middle" x="305.5" y="-634.75" font-family="Helvetica,sans-Serif" font-size="10.00">daCow_c</text>
</a>
</g>
</g>
<!-- Node2&#45;&gt;Node105 -->
<g id="edge27_Node000002_Node000105" class="edge">
<title>Node2&#45;&gt;Node105</title>
<g id="a_edge27_Node000002_Node000105"><a xlink:title=" ">
<path fill="none" stroke="#63b8ff" d="M211.43,-773.59C213.53,-772.11 215.49,-770.46 217.25,-768.62 253.46,-730.9 216.78,-694.09 253.25,-656.62 259.57,-650.14 268.35,-645.99 276.87,-643.33"/>
<polygon fill="#63b8ff" stroke="#63b8ff" points="209.93,-770.42 202.88,-778.33 213.32,-776.54 209.93,-770.42"/>
</a>
</g>
</g>
<!-- Node106 -->
<g id="Node000106" class="node">
<title>Node106</title>
<g id="a_Node000106"><a xlink:href="classdaCrod__c.html" target="_top" xlink:title="Dominion Rod.">
<polygon fill="white" stroke="#666666" points="334.12,-611.25 276.88,-611.25 276.88,-592 334.12,-592 334.12,-611.25"/>
<text text-anchor="middle" x="305.5" y="-597.75" font-family="Helvetica,sans-Serif" font-size="10.00">daCrod_c</text>
</a>
</g>
</g>
<!-- Node2&#45;&gt;Node106 -->
<g id="edge28_Node000002_Node000106" class="edge">
<title>Node2&#45;&gt;Node106</title>
<g id="a_edge28_Node000002_Node000106"><a xlink:title=" ">
<path fill="none" stroke="#63b8ff" d="M211.51,-773.8C213.6,-772.27 215.54,-770.55 217.25,-768.62 262.58,-717.76 207.56,-670.16 253.25,-619.62 259.32,-612.91 268.05,-608.7 276.58,-606.06"/>
<polygon fill="#63b8ff" stroke="#63b8ff" points="209.87,-770.71 202.9,-778.68 213.32,-776.8 209.87,-770.71"/>
</a>
</g>
</g>
<!-- Node107 -->
<g id="Node000107" class="node">
<title>Node107</title>
<g id="a_Node000107"><a xlink:href="classdaCstatue__c.html" target="_top" xlink:title="Dominion Rod Statue (small?)">
<polygon fill="white" stroke="#666666" points="340.88,-574.25 270.12,-574.25 270.12,-555 340.88,-555 340.88,-574.25"/>
<text text-anchor="middle" x="305.5" y="-560.75" font-family="Helvetica,sans-Serif" font-size="10.00">daCstatue_c</text>
</a>
</g>
</g>
<!-- Node2&#45;&gt;Node107 -->
<g id="edge29_Node000002_Node000107" class="edge">
<title>Node2&#45;&gt;Node107</title>
<g id="a_edge29_Node000002_Node000107"><a xlink:title=" ">
<path fill="none" stroke="#63b8ff" d="M211.04,-774.32C213.32,-772.66 215.43,-770.77 217.25,-768.62 271.81,-704.49 198.23,-646.36 253.25,-582.62 257.63,-577.56 263.52,-573.91 269.74,-571.3"/>
<polygon fill="#63b8ff" stroke="#63b8ff" points="209.82,-770.99 202.82,-778.95 213.25,-777.09 209.82,-770.99"/>
</a>
</g>
</g>
<!-- Node108 -->
<g id="Node000108" class="node">
<title>Node108</title>
<g id="a_Node000108"><a xlink:href="classdaDbDoor00__c.html" target="_top" xlink:title="Double Door.">
<polygon fill="white" stroke="#666666" points="345.38,-537.25 265.62,-537.25 265.62,-518 345.38,-518 345.38,-537.25"/>
<text text-anchor="middle" x="305.5" y="-523.75" font-family="Helvetica,sans-Serif" font-size="10.00">daDbDoor00_c</text>
</a>
</g>
</g>
<!-- Node2&#45;&gt;Node108 -->
<g id="edge30_Node000002_Node000108" class="edge">
<title>Node2&#45;&gt;Node108</title>
<g id="a_edge30_Node000002_Node000108"><a xlink:title=" ">
<path fill="none" stroke="#63b8ff" d="M211.11,-774.39C213.38,-772.71 215.46,-770.8 217.25,-768.62 281.11,-691.16 188.84,-622.63 253.25,-545.62 256.52,-541.72 260.69,-538.66 265.23,-536.26"/>
<polygon fill="#63b8ff" stroke="#63b8ff" points="209.9,-771.05 202.94,-779.04 213.36,-777.14 209.9,-771.05"/>
</a>
</g>
</g>
<!-- Node109 -->
<g id="Node000109" class="node">
<title>Node109</title>
<g id="a_Node000109"><a xlink:href="classdaDemo00__c.html" target="_top" xlink:title="Cutscene.">
<polygon fill="white" stroke="#666666" points="342,-500.25 269,-500.25 269,-481 342,-481 342,-500.25"/>
<text text-anchor="middle" x="305.5" y="-486.75" font-family="Helvetica,sans-Serif" font-size="10.00">daDemo00_c</text>
</a>
</g>
</g>
<!-- Node2&#45;&gt;Node109 -->
<g id="edge31_Node000002_Node000109" class="edge">
<title>Node2&#45;&gt;Node109</title>
<g id="a_edge31_Node000002_Node000109"><a xlink:title=" ">
<path fill="none" stroke="#63b8ff" d="M211.07,-774.5C213.37,-772.8 215.46,-770.85 217.25,-768.62 290.44,-677.78 179.42,-598.94 253.25,-508.62 257.31,-503.66 262.83,-500.06 268.74,-497.46"/>
<polygon fill="#63b8ff" stroke="#63b8ff" points="209.74,-771.24 202.77,-779.22 213.2,-777.32 209.74,-771.24"/>
</a>
</g>
</g>
<!-- Node110 -->
<g id="Node000110" class="node">
<title>Node110</title>
<g id="a_Node000110"><a xlink:href="classdaDitem__c.html" target="_top" xlink:title="Cutscene Item.">
<polygon fill="white" stroke="#666666" points="336.75,-463.25 274.25,-463.25 274.25,-444 336.75,-444 336.75,-463.25"/>
<text text-anchor="middle" x="305.5" y="-449.75" font-family="Helvetica,sans-Serif" font-size="10.00">daDitem_c</text>
</a>
</g>
</g>
<!-- Node2&#45;&gt;Node110 -->
<g id="edge32_Node000002_Node000110" class="edge">
<title>Node2&#45;&gt;Node110</title>
<g id="a_edge32_Node000002_Node000110"><a xlink:title=" ">
<path fill="none" stroke="#63b8ff" d="M211.12,-774.54C213.4,-772.82 215.48,-770.86 217.25,-768.62 299.79,-664.38 169.97,-575.28 253.25,-471.62 258.45,-465.16 266.13,-461.01 273.97,-458.35"/>
<polygon fill="#63b8ff" stroke="#63b8ff" points="209.78,-771.27 202.84,-779.27 213.26,-777.35 209.78,-771.27"/>
</a>
</g>
</g>
<!-- Node111 -->
<g id="Node000111" class="node">
<title>Node111</title>
<g id="a_Node000111"><a xlink:href="classdaDmidna__c.html" target="_top" xlink:title="Dying Midna (White Midna)">
<polygon fill="white" stroke="#666666" points="340.5,-426.25 270.5,-426.25 270.5,-407 340.5,-407 340.5,-426.25"/>
<text text-anchor="middle" x="305.5" y="-412.75" font-family="Helvetica,sans-Serif" font-size="10.00">daDmidna_c</text>
</a>
</g>
</g>
<!-- Node2&#45;&gt;Node111 -->
<g id="edge33_Node000002_Node000111" class="edge">
<title>Node2&#45;&gt;Node111</title>
<g id="a_edge33_Node000002_Node000111"><a xlink:title=" ">
<path fill="none" stroke="#63b8ff" d="M211.15,-774.57C213.43,-772.84 215.49,-770.87 217.25,-768.62 309.15,-650.96 160.51,-551.63 253.25,-434.62 257.58,-429.16 263.7,-425.34 270.19,-422.69"/>
<polygon fill="#63b8ff" stroke="#63b8ff" points="209.82,-771.3 202.89,-779.31 213.3,-777.37 209.82,-771.3"/>
</a>
</g>
</g>
<!-- Node112 -->
<g id="Node000112" class="node">
<title>Node112</title>
<g id="a_Node000112"><a xlink:href="classdaDoor20__c.html" target="_top" xlink:title="Sliding Door.">
<polygon fill="white" stroke="#666666" points="339.38,-389.25 271.62,-389.25 271.62,-370 339.38,-370 339.38,-389.25"/>
<text text-anchor="middle" x="305.5" y="-375.75" font-family="Helvetica,sans-Serif" font-size="10.00">daDoor20_c</text>
</a>
</g>
</g>
<!-- Node2&#45;&gt;Node112 -->
<g id="edge34_Node000002_Node000112" class="edge">
<title>Node2&#45;&gt;Node112</title>
<g id="a_edge34_Node000002_Node000112"><a xlink:title=" ">
<path fill="none" stroke="#63b8ff" d="M211.18,-774.59C213.45,-772.86 215.5,-770.88 217.25,-768.62 318.53,-637.52 151.04,-528 253.25,-397.62 257.79,-391.84 264.32,-387.9 271.21,-385.23"/>
<polygon fill="#63b8ff" stroke="#63b8ff" points="209.85,-771.32 202.93,-779.34 213.34,-777.38 209.85,-771.32"/>
</a>
</g>
</g>
<!-- Node113 -->
<g id="Node000113" class="node">
<title>Node113</title>
<g id="a_Node000113"><a xlink:href="classdaDr__c.html" target="_top" xlink:title=" ">
<polygon fill="white" stroke="#666666" points="328.88,-352.25 282.12,-352.25 282.12,-333 328.88,-333 328.88,-352.25"/>
<text text-anchor="middle" x="305.5" y="-338.75" font-family="Helvetica,sans-Serif" font-size="10.00">daDr_c</text>
</a>
</g>
</g>
<!-- Node2&#45;&gt;Node113 -->
<g id="edge35_Node000002_Node000113" class="edge">
<title>Node2&#45;&gt;Node113</title>
<g id="a_edge35_Node000002_Node000113"><a xlink:title=" ">
<path fill="none" stroke="#63b8ff" d="M211.11,-774.68C213.41,-772.93 215.49,-770.92 217.25,-768.62 272.58,-696.35 197.41,-432.5 253.25,-360.62 260.08,-351.84 271.5,-347.33 281.83,-345.02"/>
<polygon fill="#63b8ff" stroke="#63b8ff" points="209.66,-771.48 202.72,-779.48 213.13,-777.55 209.66,-771.48"/>
</a>
</g>
</g>
<!-- Node114 -->
<g id="Node000114" class="node">
<title>Node114</title>
<g id="a_Node000114"><a xlink:href="classdaE__YM__TAG__c.html" target="_top" xlink:title="Twilight Insect Tag.">
<polygon fill="white" stroke="#666666" points="349.88,-315.25 261.12,-315.25 261.12,-296 349.88,-296 349.88,-315.25"/>
<text text-anchor="middle" x="305.5" y="-301.75" font-family="Helvetica,sans-Serif" font-size="10.00">daE_YM_TAG_c</text>
</a>
</g>
</g>
<!-- Node2&#45;&gt;Node114 -->
<g id="edge36_Node000002_Node000114" class="edge">
<title>Node2&#45;&gt;Node114</title>
<g id="a_edge36_Node000002_Node000114"><a xlink:title=" ">
<path fill="none" stroke="#63b8ff" d="M211.13,-774.69C213.42,-772.94 215.5,-770.93 217.25,-768.62 277.27,-689.63 192.67,-402.19 253.25,-323.62 255.78,-320.34 258.96,-317.65 262.48,-315.45"/>
<polygon fill="#63b8ff" stroke="#63b8ff" points="209.68,-771.49 202.75,-779.5 213.16,-777.56 209.68,-771.49"/>
</a>
</g>
</g>
<!-- Node115 -->
<g id="Node000115" class="node">
<title>Node115</title>
<g id="a_Node000115"><a xlink:href="classdaFireWood2__c.html" target="_top" xlink:title="Firewood 2 (Flame)">
<polygon fill="white" stroke="#666666" points="347.25,-278.25 263.75,-278.25 263.75,-259 347.25,-259 347.25,-278.25"/>
<text text-anchor="middle" x="305.5" y="-264.75" font-family="Helvetica,sans-Serif" font-size="10.00">daFireWood2_c</text>
</a>
</g>
</g>
<!-- Node2&#45;&gt;Node115 -->
<g id="edge37_Node000002_Node000115" class="edge">
<title>Node2&#45;&gt;Node115</title>
<g id="a_edge37_Node000002_Node000115"><a xlink:title=" ">
<path fill="none" stroke="#63b8ff" d="M211.14,-774.7C213.43,-772.95 215.51,-770.94 217.25,-768.62 281.97,-682.9 187.92,-371.88 253.25,-286.62 256,-283.03 259.53,-280.15 263.43,-277.85"/>
<polygon fill="#63b8ff" stroke="#63b8ff" points="209.69,-771.5 202.77,-779.52 213.18,-777.57 209.69,-771.5"/>
</a>
</g>
</g>
<!-- Node116 -->
<g id="Node000116" class="node">
<title>Node116</title>
<g id="a_Node000116"><a xlink:href="classdaFireWood__c.html" target="_top" xlink:title="Kakariko Stove Flame?">
<polygon fill="white" stroke="#666666" points="344.62,-241.25 266.38,-241.25 266.38,-222 344.62,-222 344.62,-241.25"/>
<text text-anchor="middle" x="305.5" y="-227.75" font-family="Helvetica,sans-Serif" font-size="10.00">daFireWood_c</text>
</a>
</g>
</g>
<!-- Node2&#45;&gt;Node116 -->
<g id="edge38_Node000002_Node000116" class="edge">
<title>Node2&#45;&gt;Node116</title>
<g id="a_edge38_Node000002_Node000116"><a xlink:title=" ">
<path fill="none" stroke="#63b8ff" d="M211.16,-774.72C213.45,-772.96 215.51,-770.94 217.25,-768.62 286.66,-676.17 183.18,-341.58 253.25,-249.62 256.57,-245.27 261.01,-241.97 265.9,-239.46"/>
<polygon fill="#63b8ff" stroke="#63b8ff" points="209.71,-771.51 202.79,-779.54 213.2,-777.58 209.71,-771.51"/>
</a>
</g>
</g>
<!-- Node117 -->
<g id="Node000117" class="node">
<title>Node117</title>
<g id="a_Node000117"><a xlink:href="structdaFmtMng__c.html" target="_top" xlink:title=" ">
<polygon fill="white" stroke="#666666" points="342,-204.25 269,-204.25 269,-185 342,-185 342,-204.25"/>
<text text-anchor="middle" x="305.5" y="-190.75" font-family="Helvetica,sans-Serif" font-size="10.00">daFmtMng_c</text>
</a>
</g>
</g>
<!-- Node2&#45;&gt;Node117 -->
<g id="edge39_Node000002_Node000117" class="edge">
<title>Node2&#45;&gt;Node117</title>
<g id="a_edge39_Node000002_Node000117"><a xlink:title=" ">
<path fill="none" stroke="#63b8ff" d="M211.17,-774.72C213.45,-772.96 215.52,-770.94 217.25,-768.62 291.36,-669.44 178.43,-311.28 253.25,-212.62 257.18,-207.44 262.72,-203.74 268.71,-201.11"/>
<polygon fill="#63b8ff" stroke="#63b8ff" points="209.72,-771.52 202.81,-779.55 213.22,-777.58 209.72,-771.52"/>
</a>
</g>
</g>
<!-- Node118 -->
<g id="Node000118" class="node">
<title>Node118</title>
<g id="a_Node000118"><a xlink:href="classdaGlwSph__c.html" target="_top" xlink:title="STAR Game Glow Sphere.">
<polygon fill="white" stroke="#666666" points="341.25,-167.25 269.75,-167.25 269.75,-148 341.25,-148 341.25,-167.25"/>
<text text-anchor="middle" x="305.5" y="-153.75" font-family="Helvetica,sans-Serif" font-size="10.00">daGlwSph_c</text>
</a>
</g>
</g>
<!-- Node2&#45;&gt;Node118 -->
<g id="edge40_Node000002_Node000118" class="edge">
<title>Node2&#45;&gt;Node118</title>
<g id="a_edge40_Node000002_Node000118"><a xlink:title=" ">
<path fill="none" stroke="#63b8ff" d="M211.18,-774.73C213.46,-772.97 215.52,-770.95 217.25,-768.62 296.06,-662.71 173.69,-280.98 253.25,-175.62 257.34,-170.21 263.19,-166.41 269.47,-163.76"/>
<polygon fill="#63b8ff" stroke="#63b8ff" points="209.73,-771.53 202.83,-779.56 213.23,-777.59 209.73,-771.53"/>
</a>
</g>
</g>
<!-- Node119 -->
<g id="Node000119" class="node">
<title>Node119</title>
<g id="a_Node000119"><a xlink:href="classdaGoGate__c.html" target="_top" xlink:title="Goron Gate.">
<polygon fill="white" stroke="#666666" points="340.88,-130.25 270.12,-130.25 270.12,-111 340.88,-111 340.88,-130.25"/>
<text text-anchor="middle" x="305.5" y="-116.75" font-family="Helvetica,sans-Serif" font-size="10.00">daGoGate_c</text>
</a>
</g>
</g>
<!-- Node2&#45;&gt;Node119 -->
<g id="edge41_Node000002_Node000119" class="edge">
<title>Node2&#45;&gt;Node119</title>
<g id="a_edge41_Node000002_Node000119"><a xlink:title=" ">
<path fill="none" stroke="#63b8ff" d="M211.19,-774.74C213.47,-772.98 215.53,-770.95 217.25,-768.62 300.76,-655.97 168.94,-250.68 253.25,-138.62 257.39,-133.12 263.33,-129.3 269.72,-126.64"/>
<polygon fill="#63b8ff" stroke="#63b8ff" points="209.74,-771.53 202.84,-779.57 213.25,-777.59 209.74,-771.53"/>
</a>
</g>
</g>
<!-- Node120 -->
<g id="Node000120" class="node">
<title>Node120</title>
<g id="a_Node000120"><a xlink:href="classdaGpTaru__c.html" target="_top" xlink:title="Gunpowder Barrel.">
<polygon fill="white" stroke="#666666" points="340.12,-93.25 270.88,-93.25 270.88,-74 340.12,-74 340.12,-93.25"/>
<text text-anchor="middle" x="305.5" y="-79.75" font-family="Helvetica,sans-Serif" font-size="10.00">daGpTaru_c</text>
</a>
</g>
</g>
<!-- Node2&#45;&gt;Node120 -->
<g id="edge42_Node000002_Node000120" class="edge">
<title>Node2&#45;&gt;Node120</title>
<g id="a_edge42_Node000002_Node000120"><a xlink:title=" ">
<path fill="none" stroke="#63b8ff" d="M211.2,-774.75C213.48,-772.98 215.53,-770.95 217.25,-768.62 305.46,-649.24 164.19,-220.38 253.25,-101.62 257.55,-95.89 263.81,-91.98 270.5,-89.3"/>
<polygon fill="#63b8ff" stroke="#63b8ff" points="209.75,-771.54 202.85,-779.58 213.26,-777.6 209.75,-771.54"/>
</a>
</g>
</g>
<!-- Node121 -->
<g id="Node000121" class="node">
<title>Node121</title>
<g id="a_Node000121"><a xlink:href="classdaGrass__c.html" target="_top" xlink:title="Grass.">
<polygon fill="white" stroke="#666666" points="337.12,-56.25 273.88,-56.25 273.88,-37 337.12,-37 337.12,-56.25"/>
<text text-anchor="middle" x="305.5" y="-42.75" font-family="Helvetica,sans-Serif" font-size="10.00">daGrass_c</text>
</a>
</g>
</g>
<!-- Node2&#45;&gt;Node121 -->
<g id="edge43_Node000002_Node000121" class="edge">
<title>Node2&#45;&gt;Node121</title>
<g id="a_edge43_Node000002_Node000121"><a xlink:title=" ">
<path fill="none" stroke="#63b8ff" d="M211.21,-774.75C213.48,-772.98 215.53,-770.96 217.25,-768.62 310.16,-642.5 159.44,-190.08 253.25,-64.62 258.16,-58.05 265.66,-53.87 273.41,-51.21"/>
<polygon fill="#63b8ff" stroke="#63b8ff" points="209.76,-771.54 202.86,-779.59 213.27,-777.6 209.76,-771.54"/>
</a>
</g>
</g>
<!-- Node122 -->
<g id="Node000122" class="node">
<title>Node122</title>
<g id="a_Node000122"><a xlink:href="classdaGrdWater__c.html" target="_top" xlink:title="Ground Water.">
<polygon fill="white" stroke="#666666" points="344.62,-19.25 266.38,-19.25 266.38,0 344.62,0 344.62,-19.25"/>
<text text-anchor="middle" x="305.5" y="-5.75" font-family="Helvetica,sans-Serif" font-size="10.00">daGrdWater_c</text>
</a>
</g>
</g>
<!-- Node2&#45;&gt;Node122 -->
<g id="edge44_Node000002_Node000122" class="edge">
<title>Node2&#45;&gt;Node122</title>
<g id="a_edge44_Node000002_Node000122"><a xlink:title=" ">
<path fill="none" stroke="#63b8ff" d="M211.21,-774.76C213.49,-772.99 215.54,-770.96 217.25,-768.62 314.86,-635.77 154.69,-159.78 253.25,-27.62 256.58,-23.16 261.09,-19.8 266.07,-17.27"/>
<polygon fill="#63b8ff" stroke="#63b8ff" points="209.77,-771.55 202.87,-779.59 213.28,-777.6 209.77,-771.55"/>
</a>
</g>
</g>
</g>
</svg>
