<?xml version="1.0" encoding="UTF-8" standalone="no"?>
<!DOCTYPE svg PUBLIC "-//W3C//DTD SVG 1.1//EN"
 "http://www.w3.org/Graphics/SVG/1.1/DTD/svg11.dtd">
<!-- Generated by graphviz version 9.0.0 (20230911.1827)
 -->
<!-- Title: Z2EnvSeAutoPan Pages: 1 -->
<!--zoomable 391 -->

<svg id="main" version="1.1" xmlns="http://www.w3.org/2000/svg" xmlns:xlink="http://www.w3.org/1999/xlink" xml:space="preserve" onload="init(evt)">
<style type="text/css"><![CDATA[
.node, .edge {opacity: 0.7;}
.node.selected, .edge.selected {opacity: 1;}
.edge:hover path { stroke: red; }
.edge:hover polygon { stroke: red; fill: red; }
]]></style>

<defs>
  <circle id="rim" cx="0" cy="0" r="7"/>
  <circle id="rim2" cx="0" cy="0" r="3.5"/>
  <g id="zoomPlus">
    <use xlink:href="#rim" fill="#404040"><set attributeName="fill" to="#808080" begin="zoomplus.mouseover" end="zoomplus.mouseout"/></use>
    <path d="M-4,0h8M0,-4v8" fill="none" stroke="white" stroke-width="1.5" pointer-events="none"/>
  </g>
  <g id="zoomMin">
    <use xlink:href="#rim" fill="#404040"><set attributeName="fill" to="#808080" begin="zoomminus.mouseover" end="zoomminus.mouseout"/></use>
    <path d="M-4,0h8" fill="none" stroke="white" stroke-width="1.5" pointer-events="none"/>
  </g>
  <g id="arrowUp" transform="translate(30 24)">
    <use xlink:href="#rim"/>
    <path pointer-events="none" fill="none" stroke="white" stroke-width="1.5" d="M0,-3.0v7 M-2.5,-0.5L0,-3.0L2.5,-0.5"/>
  </g>
  <g id="arrowRight" transform="rotate(90) translate(36 -43)">
    <use xlink:href="#rim"/>
    <path pointer-events="none" fill="none" stroke="white" stroke-width="1.5" d="M0,-3.0v7 M-2.5,-0.5L0,-3.0L2.5,-0.5"/>
  </g>
  <g id="arrowDown" transform="rotate(180) translate(-30 -48)">
    <use xlink:href="#rim"/>
    <path pointer-events="none" fill="none" stroke="white" stroke-width="1.5" d="M0,-3.0v7 M-2.5,-0.5L0,-3.0L2.5,-0.5"/>
  </g>
  <g id="arrowLeft" transform="rotate(270) translate(-36 17)">
    <use xlink:href="#rim"/>
    <path pointer-events="none" fill="none" stroke="white" stroke-width="1.5" d="M0,-3.0v7 M-2.5,-0.5L0,-3.0L2.5,-0.5"/>
  </g>
  <g id="resetDef">
    <use xlink:href="#rim2" fill="#404040"><set attributeName="fill" to="#808080" begin="reset.mouseover" end="reset.mouseout"/></use>
  </g>
</defs>
<script type="application/ecmascript">
var viewWidth = 1084;
var viewHeight = 391;
var sectionId = 'dynsection-1';
</script>
<script type="application/ecmascript" xlink:href="svg.min.js"/>
<svg id="graph" class="graph">
<g id="viewport">
<title>Z2EnvSeAutoPan</title>
<!-- Node1 -->
<g id="Node000001" class="node">
<title>Node1</title>
<g id="a_Node000001"><a xlink:title=" ">
<polygon fill="#999999" stroke="#666666" points="1076,-366.25 982.75,-366.25 982.75,-347 1076,-347 1076,-366.25"/>
<text text-anchor="middle" x="1029.38" y="-352.75" font-family="Helvetica,sans-Serif" font-size="10.00">Z2EnvSeAutoPan</text>
</a>
</g>
</g>
<!-- Node2 -->
<g id="Node000002" class="node">
<title>Node2</title>
<g id="a_Node000002"><a xlink:href="structZ2EnvSeBase.html" target="_top" xlink:title=" ">
<polygon fill="white" stroke="#666666" points="945.75,-366.25 867.5,-366.25 867.5,-347 945.75,-347 945.75,-366.25"/>
<text text-anchor="middle" x="906.62" y="-352.75" font-family="Helvetica,sans-Serif" font-size="10.00">Z2EnvSeBase</text>
</a>
</g>
</g>
<!-- Node2&#45;&gt;Node1 -->
<g id="edge1_Node000001_Node000002" class="edge">
<title>Node2&#45;&gt;Node1</title>
<g id="a_edge1_Node000001_Node000002"><a xlink:title=" ">
<path fill="none" stroke="#63b8ff" d="M957.62,-356.62C965.9,-356.62 974.44,-356.62 982.61,-356.62"/>
<polygon fill="#63b8ff" stroke="#63b8ff" points="957.68,-353.13 947.68,-356.63 957.68,-360.13 957.68,-353.13"/>
</a>
</g>
</g>
<!-- Node3 -->
<g id="Node000003" class="node">
<title>Node3</title>
<g id="a_Node000003"><a xlink:href="structVec.html" target="_top" xlink:title=" ">
<polygon fill="white" stroke="#666666" points="755.38,-383.25 722.12,-383.25 722.12,-364 755.38,-364 755.38,-383.25"/>
<text text-anchor="middle" x="738.75" y="-369.75" font-family="Helvetica,sans-Serif" font-size="10.00">Vec</text>
</a>
</g>
</g>
<!-- Node3&#45;&gt;Node2 -->
<g id="edge2_Node000002_Node000003" class="edge">
<title>Node3&#45;&gt;Node2</title>
<g id="a_edge2_Node000002_Node000003"><a xlink:title=" ">
<path fill="none" stroke="#9a32cd" stroke-dasharray="5,2" d="M767.04,-370.83C794.3,-368.03 836.45,-363.71 867.11,-360.57"/>
<polygon fill="#9a32cd" stroke="#9a32cd" points="766.75,-367.34 757.16,-371.84 767.47,-374.3 766.75,-367.34"/>
</a>
</g>
<text text-anchor="middle" x="826.25" y="-368.38" font-family="Helvetica,sans-Serif" font-size="10.00" fill="grey"> mPos</text>
</g>
<!-- Node4 -->
<g id="Node000004" class="node">
<title>Node4</title>
<g id="a_Node000004"><a xlink:href="classJAISoundHandle.html" target="_top" xlink:title=" ">
<polygon fill="white" stroke="#666666" points="783.5,-315.25 694,-315.25 694,-296 783.5,-296 783.5,-315.25"/>
<text text-anchor="middle" x="738.75" y="-301.75" font-family="Helvetica,sans-Serif" font-size="10.00">JAISoundHandle</text>
</a>
</g>
</g>
<!-- Node4&#45;&gt;Node2 -->
<g id="edge3_Node000002_Node000004" class="edge">
<title>Node4&#45;&gt;Node2</title>
<g id="a_edge3_Node000002_Node000004"><a xlink:title=" ">
<path fill="none" stroke="#9a32cd" stroke-dasharray="5,2" d="M783.25,-319C811.33,-327.63 847.27,-338.68 872.92,-346.57"/>
<polygon fill="#9a32cd" stroke="#9a32cd" points="784.56,-315.74 773.97,-316.15 782.5,-322.43 784.56,-315.74"/>
</a>
</g>
<text text-anchor="middle" x="826.25" y="-340.38" font-family="Helvetica,sans-Serif" font-size="10.00" fill="grey"> mHandle</text>
</g>
<!-- Node5 -->
<g id="Node000005" class="node">
<title>Node5</title>
<g id="a_Node000005"><a xlink:href="classJAISound.html" target="_top" xlink:title=" ">
<polygon fill="white" stroke="#666666" points="936,-196.25 877.25,-196.25 877.25,-177 936,-177 936,-196.25"/>
<text text-anchor="middle" x="906.62" y="-182.75" font-family="Helvetica,sans-Serif" font-size="10.00">JAISound</text>
</a>
</g>
</g>
<!-- Node4&#45;&gt;Node5 -->
<g id="edge5_Node000005_Node000004" class="edge">
<title>Node4&#45;&gt;Node5</title>
<g id="a_edge5_Node000005_Node000004"><a xlink:title=" ">
<path fill="none" stroke="#9a32cd" stroke-dasharray="5,2" d="M795.34,-303.6C813.93,-300.66 833.87,-294.83 849.5,-283.62 880.49,-261.4 896.93,-216.35 902.93,-196.45"/>
<polygon fill="#9a32cd" stroke="#9a32cd" points="794.95,-300.12 785.49,-304.88 795.86,-307.06 794.95,-300.12"/>
</a>
</g>
<text text-anchor="middle" x="826.25" y="-303.38" font-family="Helvetica,sans-Serif" font-size="10.00" fill="grey"> handle_</text>
</g>
<!-- Node5&#45;&gt;Node4 -->
<g id="edge4_Node000004_Node000005" class="edge">
<title>Node5&#45;&gt;Node4</title>
<g id="a_edge4_Node000004_Node000005"><a xlink:title=" ">
<path fill="none" stroke="#9a32cd" stroke-dasharray="5,2" d="M889.09,-205.01C878.42,-216.3 863.88,-230.66 849.5,-241.62 820.39,-263.83 782.88,-284.15 760.11,-295.69"/>
<polygon fill="#9a32cd" stroke="#9a32cd" points="891.5,-207.56 895.72,-197.84 886.36,-202.8 891.5,-207.56"/>
</a>
</g>
<text text-anchor="middle" x="826.25" y="-273.38" font-family="Helvetica,sans-Serif" font-size="10.00" fill="grey"> sound_</text>
</g>
<!-- Node6 -->
<g id="Node000006" class="node">
<title>Node6</title>
<g id="a_Node000006"><a xlink:href="classJAIAudible.html" target="_top" xlink:title=" ">
<polygon fill="white" stroke="#666666" points="770.38,-253.25 707.12,-253.25 707.12,-234 770.38,-234 770.38,-253.25"/>
<text text-anchor="middle" x="738.75" y="-239.75" font-family="Helvetica,sans-Serif" font-size="10.00">JAIAudible</text>
</a>
</g>
</g>
<!-- Node6&#45;&gt;Node5 -->
<g id="edge6_Node000005_Node000006" class="edge">
<title>Node6&#45;&gt;Node5</title>
<g id="a_edge6_Node000005_Node000006"><a xlink:title=" ">
<path fill="none" stroke="#9a32cd" stroke-dasharray="5,2" d="M781.44,-233.52C802.15,-228.07 827.41,-220.8 849.5,-212.62 861.89,-208.04 875.33,-201.86 885.95,-196.67"/>
<polygon fill="#9a32cd" stroke="#9a32cd" points="780.72,-230.09 771.91,-235.97 782.47,-236.86 780.72,-230.09"/>
</a>
</g>
<text text-anchor="middle" x="826.25" y="-228.38" font-family="Helvetica,sans-Serif" font-size="10.00" fill="grey"> audible_</text>
</g>
<!-- Node7 -->
<g id="Node000007" class="node">
<title>Node7</title>
<g id="a_Node000007"><a xlink:href="structJGeometry_1_1TVec3.html" target="_top" xlink:title=" ">
<polygon fill="white" stroke="#666666" points="610,-253.25 479.25,-253.25 479.25,-234 610,-234 610,-253.25"/>
<text text-anchor="middle" x="544.62" y="-239.75" font-family="Helvetica,sans-Serif" font-size="10.00">JGeometry::TVec3&lt; float &gt;</text>
</a>
</g>
</g>
<!-- Node7&#45;&gt;Node6 -->
<g id="edge7_Node000006_Node000007" class="edge">
<title>Node7&#45;&gt;Node6</title>
<g id="a_edge7_Node000006_Node000007"><a xlink:title=" ">
<path fill="none" stroke="#9a32cd" stroke-dasharray="5,2" d="M621.65,-243.62C651.42,-243.62 683.87,-243.62 706.88,-243.62"/>
<polygon fill="#9a32cd" stroke="#9a32cd" points="621.92,-240.13 611.92,-243.63 621.92,-247.13 621.92,-240.13"/>
</a>
</g>
<text text-anchor="middle" x="651.25" y="-245.38" font-family="Helvetica,sans-Serif" font-size="10.00" fill="grey"> mPos</text>
</g>
<!-- Node8 -->
<g id="Node000008" class="node">
<title>Node8</title>
<g id="a_Node000008"><a xlink:href="structJAIAudience.html" target="_top" xlink:title=" ">
<polygon fill="white" stroke="#666666" points="774.5,-216.25 703,-216.25 703,-197 774.5,-197 774.5,-216.25"/>
<text text-anchor="middle" x="738.75" y="-202.75" font-family="Helvetica,sans-Serif" font-size="10.00">JAIAudience</text>
</a>
</g>
</g>
<!-- Node8&#45;&gt;Node5 -->
<g id="edge8_Node000005_Node000008" class="edge">
<title>Node8&#45;&gt;Node5</title>
<g id="a_edge8_Node000005_Node000008"><a xlink:title=" ">
<path fill="none" stroke="#9a32cd" stroke-dasharray="5,2" d="M786.08,-201.04C815.2,-197.53 851.85,-193.11 876.84,-190.1"/>
<polygon fill="#9a32cd" stroke="#9a32cd" points="785.94,-197.53 776.43,-202.2 786.78,-204.48 785.94,-197.53"/>
</a>
</g>
<text text-anchor="middle" x="826.25" y="-199.38" font-family="Helvetica,sans-Serif" font-size="10.00" fill="grey"> audience_</text>
</g>
<!-- Node9 -->
<g id="Node000009" class="node">
<title>Node9</title>
<g id="a_Node000009"><a xlink:href="structJAISoundID.html" target="_top" xlink:title=" ">
<polygon fill="white" stroke="#666666" points="773,-179.25 704.5,-179.25 704.5,-160 773,-160 773,-179.25"/>
<text text-anchor="middle" x="738.75" y="-165.75" font-family="Helvetica,sans-Serif" font-size="10.00">JAISoundID</text>
</a>
</g>
</g>
<!-- Node9&#45;&gt;Node5 -->
<g id="edge9_Node000005_Node000009" class="edge">
<title>Node9&#45;&gt;Node5</title>
<g id="a_edge9_Node000005_Node000009"><a xlink:title=" ">
<path fill="none" stroke="#9a32cd" stroke-dasharray="5,2" d="M784.36,-167.17C804.37,-166.77 828.22,-167.28 849.5,-170.38 858.53,-171.69 868.15,-174.09 876.83,-176.64"/>
<polygon fill="#9a32cd" stroke="#9a32cd" points="784.48,-163.66 774.58,-167.45 784.68,-170.66 784.48,-163.66"/>
</a>
</g>
<text text-anchor="middle" x="826.25" y="-171.38" font-family="Helvetica,sans-Serif" font-size="10.00" fill="grey"> soundID</text>
</g>
<!-- Node10 -->
<g id="Node000010" class="node">
<title>Node10</title>
<g id="a_Node000010"><a xlink:href="structJAISoundStatus__.html" target="_top" xlink:title=" ">
<polygon fill="white" stroke="#666666" points="785,-142.25 692.5,-142.25 692.5,-123 785,-123 785,-142.25"/>
<text text-anchor="middle" x="738.75" y="-128.75" font-family="Helvetica,sans-Serif" font-size="10.00">JAISoundStatus_</text>
</a>
</g>
</g>
<!-- Node10&#45;&gt;Node5 -->
<g id="edge10_Node000005_Node000010" class="edge">
<title>Node10&#45;&gt;Node5</title>
<g id="a_edge10_Node000005_Node000010"><a xlink:title=" ">
<path fill="none" stroke="#9a32cd" stroke-dasharray="5,2" d="M796.55,-138.01C813.92,-140.79 832.84,-145.01 849.5,-151.38 865.62,-157.54 882.12,-168.58 893.02,-176.67"/>
<polygon fill="#9a32cd" stroke="#9a32cd" points="797.29,-134.58 786.89,-136.6 796.28,-141.51 797.29,-134.58"/>
</a>
</g>
<text text-anchor="middle" x="826.25" y="-152.38" font-family="Helvetica,sans-Serif" font-size="10.00" fill="grey"> status_</text>
</g>
<!-- Node11 -->
<g id="Node000011" class="node">
<title>Node11</title>
<g id="a_Node000011"><a xlink:href="structJAISoundFader.html" target="_top" xlink:title=" ">
<polygon fill="white" stroke="#666666" points="461.25,-109.25 377.75,-109.25 377.75,-90 461.25,-90 461.25,-109.25"/>
<text text-anchor="middle" x="419.5" y="-95.75" font-family="Helvetica,sans-Serif" font-size="10.00">JAISoundFader</text>
</a>
</g>
</g>
<!-- Node11&#45;&gt;Node5 -->
<g id="edge11_Node000005_Node000011" class="edge">
<title>Node11&#45;&gt;Node5</title>
<g id="a_edge11_Node000005_Node000011"><a xlink:title=" ">
<path fill="none" stroke="#9a32cd" stroke-dasharray="5,2" d="M472.95,-97.13C544.21,-94.77 675.3,-94.05 785,-113.62 814.68,-118.92 823.5,-119.36 849.5,-134.62 868.97,-146.06 887.33,-165.24 897.47,-176.83"/>
<polygon fill="#9a32cd" stroke="#9a32cd" points="473,-93.63 463.13,-97.49 473.25,-100.63 473,-93.63"/>
</a>
</g>
<text text-anchor="middle" x="651.25" y="-101.38" font-family="Helvetica,sans-Serif" font-size="10.00" fill="grey"> fader</text>
</g>
<!-- Node12 -->
<g id="Node000012" class="node">
<title>Node12</title>
<g id="a_Node000012"><a xlink:href="structJAISoundParamsTransition_1_1TTransition.html" target="_top" xlink:title=" ">
<polygon fill="white" stroke="#666666" points="135.25,-79.88 0,-79.88 0,-49.38 135.25,-49.38 135.25,-79.88"/>
<text text-anchor="start" x="8" y="-66.38" font-family="Helvetica,sans-Serif" font-size="10.00">JAISoundParamsTransition</text>
<text text-anchor="middle" x="67.62" y="-55.12" font-family="Helvetica,sans-Serif" font-size="10.00">::TTransition</text>
</a>
</g>
</g>
<!-- Node12&#45;&gt;Node11 -->
<g id="edge12_Node000011_Node000012" class="edge">
<title>Node12&#45;&gt;Node11</title>
<g id="a_edge12_Node000011_Node000012"><a xlink:title=" ">
<path fill="none" stroke="#9a32cd" stroke-dasharray="5,2" d="M146.65,-81.66C148.87,-82 151.07,-82.33 153.25,-82.62 232.11,-93.48 325.13,-97.42 377.42,-98.84"/>
<polygon fill="#9a32cd" stroke="#9a32cd" points="147.38,-78.23 136.94,-80.03 146.22,-85.13 147.38,-78.23"/>
</a>
</g>
<text text-anchor="middle" x="179.88" y="-90.38" font-family="Helvetica,sans-Serif" font-size="10.00" fill="grey"> mTransition</text>
</g>
<!-- Node17 -->
<g id="Node000017" class="node">
<title>Node17</title>
<g id="a_Node000017"><a xlink:href="structJAISoundParamsTransition.html" target="_top" xlink:title=" ">
<polygon fill="white" stroke="#666666" points="359.75,-56.25 224.5,-56.25 224.5,-37 359.75,-37 359.75,-56.25"/>
<text text-anchor="middle" x="292.12" y="-42.75" font-family="Helvetica,sans-Serif" font-size="10.00">JAISoundParamsTransition</text>
</a>
</g>
</g>
<!-- Node12&#45;&gt;Node17 -->
<g id="edge18_Node000017_Node000012" class="edge">
<title>Node12&#45;&gt;Node17</title>
<g id="a_edge18_Node000017_Node000012"><a xlink:title=" ">
<path fill="none" stroke="#9a32cd" stroke-dasharray="5,2" d="M105.44,-43.88C119.88,-36.86 136.89,-29.9 153.25,-26.38 176.39,-21.39 183,-23.6 206.5,-26.38 223.45,-28.38 241.93,-32.55 257.28,-36.6"/>
<polygon fill="#9a32cd" stroke="#9a32cd" points="104.12,-40.63 96.78,-48.27 107.28,-46.87 104.12,-40.63"/>
</a>
</g>
<text text-anchor="middle" x="179.88" y="-72.38" font-family="Helvetica,sans-Serif" font-size="10.00" fill="grey"> mDolby</text>
<text text-anchor="middle" x="179.88" y="-61.12" font-family="Helvetica,sans-Serif" font-size="10.00" fill="grey">mFxMix</text>
<text text-anchor="middle" x="179.88" y="-49.88" font-family="Helvetica,sans-Serif" font-size="10.00" fill="grey">mPan</text>
<text text-anchor="middle" x="179.88" y="-38.62" font-family="Helvetica,sans-Serif" font-size="10.00" fill="grey">mPitch</text>
<text text-anchor="middle" x="179.88" y="-27.38" font-family="Helvetica,sans-Serif" font-size="10.00" fill="grey">mVolume</text>
</g>
<!-- Node13 -->
<g id="Node000013" class="node">
<title>Node13</title>
<g id="a_Node000013"><a xlink:href="structJAISoundParams.html" target="_top" xlink:title=" ">
<polygon fill="white" stroke="#666666" points="785,-56.25 692.5,-56.25 692.5,-37 785,-37 785,-56.25"/>
<text text-anchor="middle" x="738.75" y="-42.75" font-family="Helvetica,sans-Serif" font-size="10.00">JAISoundParams</text>
</a>
</g>
</g>
<!-- Node13&#45;&gt;Node5 -->
<g id="edge13_Node000005_Node000013" class="edge">
<title>Node13&#45;&gt;Node5</title>
<g id="a_edge13_Node000005_Node000013"><a xlink:title=" ">
<path fill="none" stroke="#9a32cd" stroke-dasharray="5,2" d="M796.57,-48.52C815,-51.56 834.53,-57.65 849.5,-69.38 885.21,-97.34 899.44,-153.67 903.91,-176.59"/>
<polygon fill="#9a32cd" stroke="#9a32cd" points="797.16,-45.06 786.78,-47.19 796.22,-52 797.16,-45.06"/>
</a>
</g>
<text text-anchor="middle" x="826.25" y="-70.38" font-family="Helvetica,sans-Serif" font-size="10.00" fill="grey"> params</text>
</g>
<!-- Node14 -->
<g id="Node000014" class="node">
<title>Node14</title>
<g id="a_Node000014"><a xlink:href="structJAISoundParamsProperty.html" target="_top" xlink:title=" ">
<polygon fill="white" stroke="#666666" points="608.88,-19.25 480.38,-19.25 480.38,0 608.88,0 608.88,-19.25"/>
<text text-anchor="middle" x="544.62" y="-5.75" font-family="Helvetica,sans-Serif" font-size="10.00">JAISoundParamsProperty</text>
</a>
</g>
</g>
<!-- Node14&#45;&gt;Node13 -->
<g id="edge14_Node000013_Node000014" class="edge">
<title>Node14&#45;&gt;Node13</title>
<g id="a_edge14_Node000013_Node000014"><a xlink:title=" ">
<path fill="none" stroke="#9a32cd" stroke-dasharray="5,2" d="M620.55,-21.37C638.28,-24.39 657.09,-27.81 674.5,-31.38 682.02,-32.92 690.02,-34.71 697.69,-36.52"/>
<polygon fill="#9a32cd" stroke="#9a32cd" points="621.31,-17.94 610.86,-19.73 620.14,-24.85 621.31,-17.94"/>
</a>
</g>
<text text-anchor="middle" x="651.25" y="-32.38" font-family="Helvetica,sans-Serif" font-size="10.00" fill="grey"> mProperty</text>
</g>
<!-- Node15 -->
<g id="Node000015" class="node">
<title>Node15</title>
<g id="a_Node000015"><a xlink:href="structJAISoundParamsMove.html" target="_top" xlink:title=" ">
<polygon fill="white" stroke="#666666" points="602.88,-56.25 486.38,-56.25 486.38,-37 602.88,-37 602.88,-56.25"/>
<text text-anchor="middle" x="544.62" y="-42.75" font-family="Helvetica,sans-Serif" font-size="10.00">JAISoundParamsMove</text>
</a>
</g>
</g>
<!-- Node15&#45;&gt;Node13 -->
<g id="edge15_Node000013_Node000015" class="edge">
<title>Node15&#45;&gt;Node13</title>
<g id="a_edge15_Node000013_Node000015"><a xlink:title=" ">
<path fill="none" stroke="#9a32cd" stroke-dasharray="5,2" d="M614.49,-46.62C640.26,-46.62 668.88,-46.62 692.04,-46.62"/>
<polygon fill="#9a32cd" stroke="#9a32cd" points="614.78,-43.13 604.78,-46.63 614.78,-50.13 614.78,-43.13"/>
</a>
</g>
<text text-anchor="middle" x="651.25" y="-48.38" font-family="Helvetica,sans-Serif" font-size="10.00" fill="grey"> mMove</text>
</g>
<!-- Node16 -->
<g id="Node000016" class="node">
<title>Node16</title>
<g id="a_Node000016"><a xlink:href="structJASSoundParams.html" target="_top" xlink:title=" ">
<polygon fill="white" stroke="#666666" points="340.25,-19.25 244,-19.25 244,0 340.25,0 340.25,-19.25"/>
<text text-anchor="middle" x="292.12" y="-5.75" font-family="Helvetica,sans-Serif" font-size="10.00">JASSoundParams</text>
</a>
</g>
</g>
<!-- Node16&#45;&gt;Node15 -->
<g id="edge16_Node000015_Node000016" class="edge">
<title>Node16&#45;&gt;Node15</title>
<g id="a_edge16_Node000015_Node000016"><a xlink:title=" ">
<path fill="none" stroke="#9a32cd" stroke-dasharray="5,2" d="M351.76,-16.42C384.11,-20.36 424.97,-25.67 461.25,-31.38 471.02,-32.91 481.41,-34.71 491.41,-36.52"/>
<polygon fill="#9a32cd" stroke="#9a32cd" points="352.54,-12.99 342.19,-15.26 351.7,-19.94 352.54,-12.99"/>
</a>
</g>
<text text-anchor="middle" x="419.5" y="-32.38" font-family="Helvetica,sans-Serif" font-size="10.00" fill="grey"> mParams</text>
</g>
<!-- Node17&#45;&gt;Node15 -->
<g id="edge17_Node000015_Node000017" class="edge">
<title>Node17&#45;&gt;Node15</title>
<g id="a_edge17_Node000015_Node000017"><a xlink:title=" ">
<path fill="none" stroke="#9a32cd" stroke-dasharray="5,2" d="M371.22,-46.62C408.32,-46.62 451.89,-46.62 485.95,-46.62"/>
<polygon fill="#9a32cd" stroke="#9a32cd" points="371.44,-43.13 361.44,-46.63 371.44,-50.13 371.44,-43.13"/>
</a>
</g>
<text text-anchor="middle" x="419.5" y="-48.38" font-family="Helvetica,sans-Serif" font-size="10.00" fill="grey"> mTransition</text>
</g>
</g>
</svg>

<g id="navigator" transform="translate(0 0)" fill="#404254">
  <rect fill="#f2f5e9" fill-opacity="0.5" stroke="#606060" stroke-width=".5" x="0" y="0" width="60" height="60"/>
  <use id="zoomplus" xlink:href="#zoomPlus" x="17" y="9" onmousedown="handleZoom(evt,'in')"/>
  <use id="zoomminus" xlink:href="#zoomMin" x="42" y="9" onmousedown="handleZoom(evt,'out')"/>
  <use id="reset" xlink:href="#resetDef" x="30" y="36" onmousedown="handleReset()"/>
   <use id="arrowup" xlink:href="#arrowUp" x="0" y="0" onmousedown="handlePan(0,-1)"/>
  <use id="arrowright" xlink:href="#arrowRight" x="0" y="0" onmousedown="handlePan(1,0)"/>
  <use id="arrowdown" xlink:href="#arrowDown" x="0" y="0" onmousedown="handlePan(0,1)"/>
  <use id="arrowleft" xlink:href="#arrowLeft" x="0" y="0" onmousedown="handlePan(-1,0)"/>
</g>
<svg viewBox="0 0 15 15" width="100%" height="30px" preserveAspectRatio="xMaxYMin meet">
 <g id="arrow_out" transform="scale(0.3 0.3)">
  <a xlink:href="structZ2EnvSeAutoPan__coll__graph_org.svg" target="_base">
   <rect id="button" ry="5" rx="5" y="6" x="6" height="38" width="38"
        fill="#f2f5e9" fill-opacity="0.5" stroke="#606060" stroke-width="1.0"/>
   <path id="arrow"
     d="M 11.500037,31.436501 C 11.940474,20.09759 22.043105,11.32322 32.158766,21.979434 L 37.068811,17.246167 C 37.068811,17.246167 37.088388,32 37.088388,32 L 22.160133,31.978069 C 22.160133,31.978069 26.997745,27.140456 26.997745,27.140456 C 18.528582,18.264221 13.291696,25.230495 11.500037,31.436501 z"
     style="fill:#404040;"/>
  </a>
 </g>
</svg>

<style type='text/css'>
<![CDATA[
[data-mouse-over-selected='false'] { opacity: 0.7; }
[data-mouse-over-selected='true']  { opacity: 1.0; }
]]>
</style>
<script type="application/ecmascript"><![CDATA[
document.addEventListener('DOMContentLoaded', (event) => {
  highlightEdges();
  highlightAdjacentNodes();
});
]]></script>
</svg>
