<?xml version="1.0" encoding="UTF-8" standalone="no"?>
<!DOCTYPE svg PUBLIC "-//W3C//DTD SVG 1.1//EN"
 "http://www.w3.org/Graphics/SVG/1.1/DTD/svg11.dtd">
<!-- Generated by graphviz version 9.0.0 (20230911.1827)
 -->
<!-- Title: JKRHeap Pages: 1 -->
<svg width="284pt" height="138pt"
 viewBox="0.00 0.00 284.12 137.75" xmlns="http://www.w3.org/2000/svg" xmlns:xlink="http://www.w3.org/1999/xlink">
<g id="graph0" class="graph" transform="scale(1 1) rotate(0) translate(4 133.75)">
<title>JKRHeap</title>
<!-- Node1 -->
<g id="Node000001" class="node">
<title>Node1</title>
<g id="a_Node000001"><a xlink:title=" ">
<polygon fill="#999999" stroke="#666666" points="170.25,-74.5 112.25,-74.5 112.25,-55.25 170.25,-55.25 170.25,-74.5"/>
<text text-anchor="middle" x="141.25" y="-61" font-family="Helvetica,sans-Serif" font-size="10.00">JKRHeap</text>
</a>
</g>
</g>
<!-- Node3 -->
<g id="Node000003" class="node">
<title>Node3</title>
<g id="a_Node000003"><a xlink:href="classJKRAssertHeap.html" target="_top" xlink:title=" ">
<polygon fill="white" stroke="#666666" points="86.5,-19.25 0,-19.25 0,0 86.5,0 86.5,-19.25"/>
<text text-anchor="middle" x="43.25" y="-5.75" font-family="Helvetica,sans-Serif" font-size="10.00">JKRAssertHeap</text>
</a>
</g>
</g>
<!-- Node1&#45;&gt;Node3 -->
<g id="edge2_Node000001_Node000003" class="edge">
<title>Node1&#45;&gt;Node3</title>
<g id="a_edge2_Node000001_Node000003"><a xlink:title=" ">
<path fill="none" stroke="#63b8ff" d="M115,-49.61C97.51,-40.11 75.05,-27.9 59.96,-19.7"/>
<polygon fill="#63b8ff" stroke="#63b8ff" points="112.84,-52.42 123.3,-54.12 116.18,-46.27 112.84,-52.42"/>
</a>
</g>
</g>
<!-- Node4 -->
<g id="Node000004" class="node">
<title>Node4</title>
<g id="a_Node000004"><a xlink:href="structJKRExpHeap.html" target="_top" xlink:title=" ">
<polygon fill="white" stroke="#666666" points="178.12,-19.25 104.38,-19.25 104.38,0 178.12,0 178.12,-19.25"/>
<text text-anchor="middle" x="141.25" y="-5.75" font-family="Helvetica,sans-Serif" font-size="10.00">JKRExpHeap</text>
</a>
</g>
</g>
<!-- Node1&#45;&gt;Node4 -->
<g id="edge3_Node000001_Node000004" class="edge">
<title>Node1&#45;&gt;Node4</title>
<g id="a_edge3_Node000001_Node000004"><a xlink:title=" ">
<path fill="none" stroke="#63b8ff" d="M141.25,-43.63C141.25,-35.34 141.25,-26.17 141.25,-19.61"/>
<polygon fill="#63b8ff" stroke="#63b8ff" points="137.75,-43.57 141.25,-53.57 144.75,-43.57 137.75,-43.57"/>
</a>
</g>
</g>
<!-- Node5 -->
<g id="Node000005" class="node">
<title>Node5</title>
<g id="a_Node000005"><a xlink:href="classJKRSolidHeap.html" target="_top" xlink:title=" ">
<polygon fill="white" stroke="#666666" points="276.12,-19.25 196.38,-19.25 196.38,0 276.12,0 276.12,-19.25"/>
<text text-anchor="middle" x="236.25" y="-5.75" font-family="Helvetica,sans-Serif" font-size="10.00">JKRSolidHeap</text>
</a>
</g>
</g>
<!-- Node1&#45;&gt;Node5 -->
<g id="edge4_Node000001_Node000005" class="edge">
<title>Node1&#45;&gt;Node5</title>
<g id="a_edge4_Node000001_Node000005"><a xlink:title=" ">
<path fill="none" stroke="#63b8ff" d="M167.18,-49.34C184.06,-39.88 205.56,-27.83 220.06,-19.7"/>
<polygon fill="#63b8ff" stroke="#63b8ff" points="165.7,-46.16 158.69,-54.1 169.12,-52.27 165.7,-46.16"/>
</a>
</g>
</g>
<!-- Node2 -->
<g id="Node000002" class="node">
<title>Node2</title>
<g id="a_Node000002"><a xlink:href="classJKRDisposer.html" target="_top" xlink:title=" ">
<polygon fill="white" stroke="#666666" points="177.75,-129.75 104.75,-129.75 104.75,-110.5 177.75,-110.5 177.75,-129.75"/>
<text text-anchor="middle" x="141.25" y="-116.25" font-family="Helvetica,sans-Serif" font-size="10.00">JKRDisposer</text>
</a>
</g>
</g>
<!-- Node2&#45;&gt;Node1 -->
<g id="edge1_Node000001_Node000002" class="edge">
<title>Node2&#45;&gt;Node1</title>
<g id="a_edge1_Node000001_Node000002"><a xlink:title=" ">
<path fill="none" stroke="#63b8ff" d="M141.25,-98.88C141.25,-90.59 141.25,-81.42 141.25,-74.86"/>
<polygon fill="#63b8ff" stroke="#63b8ff" points="137.75,-98.82 141.25,-108.82 144.75,-98.82 137.75,-98.82"/>
</a>
</g>
</g>
</g>
</svg>
