<?xml version="1.0" encoding="UTF-8" standalone="no"?>
<!DOCTYPE svg PUBLIC "-//W3C//DTD SVG 1.1//EN"
 "http://www.w3.org/Graphics/SVG/1.1/DTD/svg11.dtd">
<!-- Generated by graphviz version 9.0.0 (20230911.1827)
 -->
<!-- Title: JASSimpleWaveBank Pages: 1 -->
<!--zoomable 472 -->

<svg id="main" version="1.1" xmlns="http://www.w3.org/2000/svg" xmlns:xlink="http://www.w3.org/1999/xlink" xml:space="preserve" onload="init(evt)">
<style type="text/css"><![CDATA[
.node, .edge {opacity: 0.7;}
.node.selected, .edge.selected {opacity: 1;}
.edge:hover path { stroke: red; }
.edge:hover polygon { stroke: red; fill: red; }
]]></style>

<defs>
  <circle id="rim" cx="0" cy="0" r="7"/>
  <circle id="rim2" cx="0" cy="0" r="3.5"/>
  <g id="zoomPlus">
    <use xlink:href="#rim" fill="#404040"><set attributeName="fill" to="#808080" begin="zoomplus.mouseover" end="zoomplus.mouseout"/></use>
    <path d="M-4,0h8M0,-4v8" fill="none" stroke="white" stroke-width="1.5" pointer-events="none"/>
  </g>
  <g id="zoomMin">
    <use xlink:href="#rim" fill="#404040"><set attributeName="fill" to="#808080" begin="zoomminus.mouseover" end="zoomminus.mouseout"/></use>
    <path d="M-4,0h8" fill="none" stroke="white" stroke-width="1.5" pointer-events="none"/>
  </g>
  <g id="arrowUp" transform="translate(30 24)">
    <use xlink:href="#rim"/>
    <path pointer-events="none" fill="none" stroke="white" stroke-width="1.5" d="M0,-3.0v7 M-2.5,-0.5L0,-3.0L2.5,-0.5"/>
  </g>
  <g id="arrowRight" transform="rotate(90) translate(36 -43)">
    <use xlink:href="#rim"/>
    <path pointer-events="none" fill="none" stroke="white" stroke-width="1.5" d="M0,-3.0v7 M-2.5,-0.5L0,-3.0L2.5,-0.5"/>
  </g>
  <g id="arrowDown" transform="rotate(180) translate(-30 -48)">
    <use xlink:href="#rim"/>
    <path pointer-events="none" fill="none" stroke="white" stroke-width="1.5" d="M0,-3.0v7 M-2.5,-0.5L0,-3.0L2.5,-0.5"/>
  </g>
  <g id="arrowLeft" transform="rotate(270) translate(-36 17)">
    <use xlink:href="#rim"/>
    <path pointer-events="none" fill="none" stroke="white" stroke-width="1.5" d="M0,-3.0v7 M-2.5,-0.5L0,-3.0L2.5,-0.5"/>
  </g>
  <g id="resetDef">
    <use xlink:href="#rim2" fill="#404040"><set attributeName="fill" to="#808080" begin="reset.mouseover" end="reset.mouseout"/></use>
  </g>
</defs>
<script type="application/ecmascript">
var viewWidth = 939;
var viewHeight = 472;
var sectionId = 'dynsection-1';
</script>
<script type="application/ecmascript" xlink:href="svg.min.js"/>
<svg id="graph" class="graph">
<g id="viewport">
<title>JASSimpleWaveBank</title>
<!-- Node1 -->
<g id="Node000001" class="node">
<title>Node1</title>
<g id="a_Node000001"><a xlink:title=" ">
<polygon fill="#999999" stroke="#666666" points="243.5,-19.25 131.5,-19.25 131.5,0 243.5,0 243.5,-19.25"/>
<text text-anchor="middle" x="187.5" y="-5.75" font-family="Helvetica,sans-Serif" font-size="10.00">JASSimpleWaveBank</text>
</a>
</g>
</g>
<!-- Node2 -->
<g id="Node000002" class="node">
<title>Node2</title>
<g id="a_Node000002"><a xlink:href="classJASWaveBank.html" target="_top" xlink:title=" ">
<polygon fill="white" stroke="#666666" points="132.5,-102.62 50.5,-102.62 50.5,-83.38 132.5,-83.38 132.5,-102.62"/>
<text text-anchor="middle" x="91.5" y="-89.12" font-family="Helvetica,sans-Serif" font-size="10.00">JASWaveBank</text>
</a>
</g>
</g>
<!-- Node2&#45;&gt;Node1 -->
<g id="edge1_Node000001_Node000002" class="edge">
<title>Node2&#45;&gt;Node1</title>
<g id="a_edge1_Node000001_Node000002"><a xlink:title=" ">
<path fill="none" stroke="#63b8ff" d="M110.69,-75.73C130.55,-58.9 160.85,-33.21 176.81,-19.68"/>
<polygon fill="#63b8ff" stroke="#63b8ff" points="108.66,-72.87 103.3,-82 113.19,-78.21 108.66,-72.87"/>
</a>
</g>
</g>
<!-- Node3 -->
<g id="Node000003" class="node">
<title>Node3</title>
<g id="a_Node000003"><a xlink:href="structJASWaveArc.html" target="_top" xlink:title=" ">
<polygon fill="white" stroke="#666666" points="224.75,-102.62 150.25,-102.62 150.25,-83.38 224.75,-83.38 224.75,-102.62"/>
<text text-anchor="middle" x="187.5" y="-89.12" font-family="Helvetica,sans-Serif" font-size="10.00">JASWaveArc</text>
</a>
</g>
</g>
<!-- Node3&#45;&gt;Node1 -->
<g id="edge2_Node000001_Node000003" class="edge">
<title>Node3&#45;&gt;Node1</title>
<g id="a_edge2_Node000001_Node000003"><a xlink:title=" ">
<path fill="none" stroke="#63b8ff" d="M187.5,-71.63C187.5,-54.85 187.5,-31.85 187.5,-19.44"/>
<polygon fill="#63b8ff" stroke="#63b8ff" points="184,-71.47 187.5,-81.47 191,-71.47 184,-71.47"/>
</a>
</g>
</g>
<!-- Node4 -->
<g id="Node000004" class="node">
<title>Node4</title>
<g id="a_Node000004"><a xlink:href="structJASDisposer.html" target="_top" xlink:title=" ">
<polygon fill="white" stroke="#666666" points="73,-252.5 0,-252.5 0,-233.25 73,-233.25 73,-252.5"/>
<text text-anchor="middle" x="36.5" y="-239" font-family="Helvetica,sans-Serif" font-size="10.00">JASDisposer</text>
</a>
</g>
</g>
<!-- Node4&#45;&gt;Node3 -->
<g id="edge3_Node000003_Node000004" class="edge">
<title>Node4&#45;&gt;Node3</title>
<g id="a_edge3_Node000003_Node000004"><a xlink:title=" ">
<path fill="none" stroke="#63b8ff" d="M41.9,-222.06C44.76,-212.88 48.69,-201.99 53.5,-192.75 62.95,-174.62 65.3,-169.18 80.5,-155.5 106.62,-132 143.19,-113.37 166.1,-103.01"/>
<polygon fill="#63b8ff" stroke="#63b8ff" points="38.61,-220.82 39.18,-231.4 45.33,-222.78 38.61,-220.82"/>
</a>
</g>
</g>
<!-- Node5 -->
<g id="Node000005" class="node">
<title>Node5</title>
<g id="a_Node000005"><a xlink:href="classJASHeap.html" target="_top" xlink:title=" ">
<polygon fill="white" stroke="#666666" points="147.5,-174.75 89.5,-174.75 89.5,-155.5 147.5,-155.5 147.5,-174.75"/>
<text text-anchor="middle" x="118.5" y="-161.25" font-family="Helvetica,sans-Serif" font-size="10.00">JASHeap</text>
</a>
</g>
</g>
<!-- Node4&#45;&gt;Node5 -->
<g id="edge26_Node000005_Node000004" class="edge">
<title>Node4&#45;&gt;Node5</title>
<g id="a_edge26_Node000005_Node000004"><a xlink:title=" ">
<path fill="none" stroke="#9a32cd" stroke-dasharray="5,2" d="M49.29,-223.56C56.65,-213.77 66.47,-201.88 76.75,-192.75 84.34,-186.02 93.8,-179.83 101.8,-175.12"/>
<polygon fill="#9a32cd" stroke="#9a32cd" points="46.51,-221.43 43.48,-231.59 52.18,-225.54 46.51,-221.43"/>
</a>
</g>
<text text-anchor="middle" x="101.88" y="-200.12" font-family="Helvetica,sans-Serif" font-size="10.00" fill="grey"> mDisposer</text>
</g>
<!-- Node5&#45;&gt;Node3 -->
<g id="edge4_Node000003_Node000005" class="edge">
<title>Node5&#45;&gt;Node3</title>
<g id="a_edge4_Node000003_Node000005"><a xlink:title=" ">
<path fill="none" stroke="#9a32cd" stroke-dasharray="5,2" d="M134.96,-147.39C148.65,-133.48 167.61,-114.21 178.61,-103.03"/>
<polygon fill="#9a32cd" stroke="#9a32cd" points="132.82,-144.58 128.3,-154.16 137.81,-149.49 132.82,-144.58"/>
</a>
</g>
<text text-anchor="middle" x="172.38" y="-128" font-family="Helvetica,sans-Serif" font-size="10.00" fill="grey"> mHeap</text>
</g>
<!-- Node5&#45;&gt;Node5 -->
<g id="edge27_Node000005_Node000005" class="edge">
<title>Node5&#45;&gt;Node5</title>
<g id="a_edge27_Node000005_Node000005"><a xlink:title=" ">
<path fill="none" stroke="#9a32cd" stroke-dasharray="5,2" d="M159.11,-170.17C163.02,-169.14 165.5,-167.46 165.5,-165.12 165.5,-160.97 157.67,-158.89 147.88,-158.89"/>
<polygon fill="#9a32cd" stroke="#9a32cd" points="158.95,-166.66 149.38,-171.2 159.69,-173.62 158.95,-166.66"/>
</a>
</g>
<text text-anchor="middle" x="188" y="-161.25" font-family="Helvetica,sans-Serif" font-size="10.00" fill="grey"> field_0x40</text>
</g>
<!-- Node18 -->
<g id="Node000018" class="node">
<title>Node18</title>
<g id="a_Node000018"><a xlink:href="structJASSimpleWaveBank_1_1TWaveHandle.html" target="_top" xlink:title=" ">
<polygon fill="white" stroke="#666666" points="376.75,-108.25 260.25,-108.25 260.25,-77.75 376.75,-77.75 376.75,-108.25"/>
<text text-anchor="start" x="268.25" y="-94.75" font-family="Helvetica,sans-Serif" font-size="10.00">JASSimpleWaveBank::</text>
<text text-anchor="middle" x="318.5" y="-83.5" font-family="Helvetica,sans-Serif" font-size="10.00">TWaveHandle</text>
</a>
</g>
</g>
<!-- Node5&#45;&gt;Node18 -->
<g id="edge32_Node000018_Node000005" class="edge">
<title>Node5&#45;&gt;Node18</title>
<g id="a_edge32_Node000018_Node000005"><a xlink:title=" ">
<path fill="none" stroke="#9a32cd" stroke-dasharray="5,2" d="M154.72,-151.43C188.99,-139.41 240.42,-121.38 276.48,-108.73"/>
<polygon fill="#9a32cd" stroke="#9a32cd" points="153.94,-147.99 145.67,-154.6 156.26,-154.59 153.94,-147.99"/>
</a>
</g>
<text text-anchor="middle" x="241.38" y="-128" font-family="Helvetica,sans-Serif" font-size="10.00" fill="grey"> mHeap</text>
</g>
<!-- Node6 -->
<g id="Node000006" class="node">
<title>Node6</title>
<g id="a_Node000006"><a xlink:href="classJSUTree.html" target="_top" xlink:title=" ">
<polygon fill="white" stroke="#666666" points="204.25,-252.5 90.75,-252.5 90.75,-233.25 204.25,-233.25 204.25,-252.5"/>
<text text-anchor="middle" x="147.5" y="-239" font-family="Helvetica,sans-Serif" font-size="10.00">JSUTree&lt; JASHeap &gt;</text>
</a>
</g>
</g>
<!-- Node6&#45;&gt;Node5 -->
<g id="edge5_Node000005_Node000006" class="edge">
<title>Node6&#45;&gt;Node5</title>
<g id="a_edge5_Node000005_Node000006"><a xlink:title=" ">
<path fill="none" stroke="#9a32cd" stroke-dasharray="5,2" d="M140.08,-222.5C134.25,-207.26 126.38,-186.71 121.94,-175.1"/>
<polygon fill="#9a32cd" stroke="#9a32cd" points="136.67,-223.39 143.52,-231.47 143.21,-220.88 136.67,-223.39"/>
</a>
</g>
<text text-anchor="middle" x="152.5" y="-200.12" font-family="Helvetica,sans-Serif" font-size="10.00" fill="grey"> mTree</text>
</g>
<!-- Node7 -->
<g id="Node000007" class="node">
<title>Node7</title>
<g id="a_Node000007"><a xlink:href="classJSUList.html" target="_top" xlink:title=" ">
<polygon fill="white" stroke="#666666" points="161.75,-346 87.25,-346 87.25,-326.75 161.75,-326.75 161.75,-346"/>
<text text-anchor="middle" x="124.5" y="-332.5" font-family="Helvetica,sans-Serif" font-size="10.00">JSUList&lt; T &gt;</text>
</a>
</g>
</g>
<!-- Node7&#45;&gt;Node6 -->
<g id="edge6_Node000006_Node000007" class="edge">
<title>Node7&#45;&gt;Node6</title>
<g id="a_edge6_Node000006_Node000007"><a xlink:title=" ">
<path fill="none" stroke="#63b8ff" d="M129.54,-315.32C134.42,-295.91 141.59,-267.38 145.22,-252.95"/>
<polygon fill="#63b8ff" stroke="#63b8ff" points="126.2,-314.25 127.16,-324.8 132.99,-315.95 126.2,-314.25"/>
</a>
</g>
</g>
<!-- Node8 -->
<g id="Node000008" class="node">
<title>Node8</title>
<g id="a_Node000008"><a xlink:href="classJSUPtrList.html" target="_top" xlink:title=" ">
<polygon fill="white" stroke="#666666" points="189.88,-464.25 125.12,-464.25 125.12,-445 189.88,-445 189.88,-464.25"/>
<text text-anchor="middle" x="157.5" y="-450.75" font-family="Helvetica,sans-Serif" font-size="10.00">JSUPtrList</text>
</a>
</g>
</g>
<!-- Node8&#45;&gt;Node7 -->
<g id="edge7_Node000007_Node000008" class="edge">
<title>Node8&#45;&gt;Node7</title>
<g id="a_edge7_Node000007_Node000008"><a xlink:title=" ">
<path fill="none" stroke="#63b8ff" d="M149.94,-434.22C149.08,-431.81 148.24,-429.35 147.5,-427 138.33,-397.89 130.1,-362.62 126.47,-346.37"/>
<polygon fill="#63b8ff" stroke="#63b8ff" points="146.6,-435.29 153.39,-443.42 153.15,-432.82 146.6,-435.29"/>
</a>
</g>
</g>
<!-- Node9 -->
<g id="Node000009" class="node">
<title>Node9</title>
<g id="a_Node000009"><a xlink:href="classJSUPtrLink.html" target="_top" xlink:title=" ">
<polygon fill="white" stroke="#666666" points="224,-384.88 157,-384.88 157,-365.62 224,-365.62 224,-384.88"/>
<text text-anchor="middle" x="190.5" y="-371.38" font-family="Helvetica,sans-Serif" font-size="10.00">JSUPtrLink</text>
</a>
</g>
</g>
<!-- Node8&#45;&gt;Node9 -->
<g id="edge9_Node000009_Node000008" class="edge">
<title>Node8&#45;&gt;Node9</title>
<g id="a_edge9_Node000009_Node000008"><a xlink:title=" ">
<path fill="none" stroke="#9a32cd" stroke-dasharray="5,2" d="M151.93,-433.81C150.38,-424.49 150.13,-413.48 154.5,-404.5 158.46,-396.36 166.03,-389.86 173.22,-385.17"/>
<polygon fill="#9a32cd" stroke="#9a32cd" points="148.46,-434.34 154.12,-443.3 155.28,-432.77 148.46,-434.34"/>
</a>
</g>
<text text-anchor="middle" x="168" y="-411.88" font-family="Helvetica,sans-Serif" font-size="10.00" fill="grey"> mList</text>
</g>
<!-- Node9&#45;&gt;Node8 -->
<g id="edge8_Node000008_Node000009" class="edge">
<title>Node9&#45;&gt;Node8</title>
<g id="a_edge8_Node000008_Node000009"><a xlink:title=" ">
<path fill="none" stroke="#9a32cd" stroke-dasharray="5,2" d="M191.71,-396.36C191.51,-406.06 190.09,-417.6 185.5,-427 182.08,-433.99 176.02,-440.11 170.4,-444.72"/>
<polygon fill="#9a32cd" stroke="#9a32cd" points="195.21,-396.43 191.46,-386.52 188.21,-396.6 195.21,-396.43"/>
</a>
</g>
<text text-anchor="middle" x="208.38" y="-417.5" font-family="Helvetica,sans-Serif" font-size="10.00" fill="grey"> mHead</text>
<text text-anchor="middle" x="208.38" y="-406.25" font-family="Helvetica,sans-Serif" font-size="10.00" fill="grey">mTail</text>
</g>
<!-- Node9&#45;&gt;Node9 -->
<g id="edge10_Node000009_Node000009" class="edge">
<title>Node9&#45;&gt;Node9</title>
<g id="a_edge10_Node000009_Node000009"><a xlink:title=" ">
<path fill="none" stroke="#9a32cd" stroke-dasharray="5,2" d="M235.26,-381.07C239.39,-379.87 242,-377.93 242,-375.25 242,-370.62 234.2,-368.19 224.18,-367.98"/>
<polygon fill="#9a32cd" stroke="#9a32cd" points="235.14,-377.55 225.68,-382.33 236.05,-384.5 235.14,-377.55"/>
</a>
</g>
<text text-anchor="middle" x="257.38" y="-377" font-family="Helvetica,sans-Serif" font-size="10.00" fill="grey"> mNext</text>
<text text-anchor="middle" x="257.38" y="-365.75" font-family="Helvetica,sans-Serif" font-size="10.00" fill="grey">mPrev</text>
</g>
<!-- Node10 -->
<g id="Node000010" class="node">
<title>Node10</title>
<g id="a_Node000010"><a xlink:href="classJSULink.html" target="_top" xlink:title=" ">
<polygon fill="white" stroke="#666666" points="228.88,-308.75 152.12,-308.75 152.12,-289.5 228.88,-289.5 228.88,-308.75"/>
<text text-anchor="middle" x="190.5" y="-295.25" font-family="Helvetica,sans-Serif" font-size="10.00">JSULink&lt; T &gt;</text>
</a>
</g>
</g>
<!-- Node9&#45;&gt;Node10 -->
<g id="edge12_Node000010_Node000009" class="edge">
<title>Node9&#45;&gt;Node10</title>
<g id="a_edge12_Node000010_Node000009"><a xlink:title=" ">
<path fill="none" stroke="#63b8ff" d="M190.5,-354.08C190.5,-339.26 190.5,-319.87 190.5,-308.83"/>
<polygon fill="#63b8ff" stroke="#63b8ff" points="187,-353.65 190.5,-363.65 194,-353.65 187,-353.65"/>
</a>
</g>
</g>
<!-- Node10&#45;&gt;Node6 -->
<g id="edge11_Node000006_Node000010" class="edge">
<title>Node10&#45;&gt;Node6</title>
<g id="a_edge11_Node000006_Node000010"><a xlink:title=" ">
<path fill="none" stroke="#63b8ff" d="M176.39,-280.32C169.04,-271.05 160.38,-260.12 154.47,-252.67"/>
<polygon fill="#63b8ff" stroke="#63b8ff" points="173.5,-282.32 182.46,-287.98 178.99,-277.97 173.5,-282.32"/>
</a>
</g>
</g>
<!-- Node11 -->
<g id="Node000011" class="node">
<title>Node11</title>
<g id="a_Node000011"><a xlink:href="structOSMutex.html" target="_top" xlink:title=" ">
<polygon fill="white" stroke="#666666" points="619.75,-252.5 563.25,-252.5 563.25,-233.25 619.75,-233.25 619.75,-252.5"/>
<text text-anchor="middle" x="591.5" y="-239" font-family="Helvetica,sans-Serif" font-size="10.00">OSMutex</text>
</a>
</g>
</g>
<!-- Node11&#45;&gt;Node3 -->
<g id="edge28_Node000003_Node000011" class="edge">
<title>Node11&#45;&gt;Node3</title>
<g id="a_edge28_Node000003_Node000011"><a xlink:title=" ">
<path fill="none" stroke="#9a32cd" stroke-dasharray="5,2" d="M551.61,-242.18C485.51,-240.95 351.13,-231.04 255.75,-174.75 225.24,-156.74 201.94,-119.99 192.32,-102.99"/>
<polygon fill="#9a32cd" stroke="#9a32cd" points="551.2,-245.67 561.24,-242.29 551.28,-238.67 551.2,-245.67"/>
</a>
</g>
<text text-anchor="middle" x="274.88" y="-161.25" font-family="Helvetica,sans-Serif" font-size="10.00" fill="grey"> mMutex</text>
</g>
<!-- Node11&#45;&gt;Node5 -->
<g id="edge13_Node000005_Node000011" class="edge">
<title>Node11&#45;&gt;Node5</title>
<g id="a_edge13_Node000005_Node000011"><a xlink:title=" ">
<path fill="none" stroke="#9a32cd" stroke-dasharray="5,2" d="M551.49,-242.53C464.08,-243.44 258.84,-242.49 195.75,-215.25 182.25,-209.42 183.58,-201.13 171.5,-192.75 161.69,-185.94 149.89,-179.83 139.91,-175.19"/>
<polygon fill="#9a32cd" stroke="#9a32cd" points="551.3,-246.04 561.26,-242.42 551.22,-239.04 551.3,-246.04"/>
</a>
</g>
<text text-anchor="middle" x="214.88" y="-200.12" font-family="Helvetica,sans-Serif" font-size="10.00" fill="grey"> mMutex</text>
</g>
<!-- Node13 -->
<g id="Node000013" class="node">
<title>Node13</title>
<g id="a_Node000013"><a xlink:href="structOSThread.html" target="_top" xlink:title=" ">
<polygon fill="white" stroke="#666666" points="674.62,-102.62 614.38,-102.62 614.38,-83.38 674.62,-83.38 674.62,-102.62"/>
<text text-anchor="middle" x="644.5" y="-89.12" font-family="Helvetica,sans-Serif" font-size="10.00">OSThread</text>
</a>
</g>
</g>
<!-- Node11&#45;&gt;Node13 -->
<g id="edge20_Node000013_Node000011" class="edge">
<title>Node11&#45;&gt;Node13</title>
<g id="a_edge20_Node000013_Node000011"><a xlink:title=" ">
<path fill="none" stroke="#9a32cd" stroke-dasharray="5,2" d="M581.15,-222.79C572.85,-204.76 564.08,-177.31 574,-155.5 584.89,-131.55 610.23,-113.28 627.37,-103.1"/>
<polygon fill="#9a32cd" stroke="#9a32cd" points="577.92,-224.16 585.53,-231.54 584.18,-221.03 577.92,-224.16"/>
</a>
</g>
<text text-anchor="middle" x="588.75" y="-161.25" font-family="Helvetica,sans-Serif" font-size="10.00" fill="grey"> mutex</text>
</g>
<!-- Node16 -->
<g id="Node000016" class="node">
<title>Node16</title>
<g id="a_Node000016"><a xlink:href="structOSMutexQueue.html" target="_top" xlink:title=" ">
<polygon fill="white" stroke="#666666" points="838,-174.75 753,-174.75 753,-155.5 838,-155.5 838,-174.75"/>
<text text-anchor="middle" x="795.5" y="-161.25" font-family="Helvetica,sans-Serif" font-size="10.00">OSMutexQueue</text>
</a>
</g>
</g>
<!-- Node11&#45;&gt;Node16 -->
<g id="edge22_Node000016_Node000011" class="edge">
<title>Node11&#45;&gt;Node16</title>
<g id="a_edge22_Node000016_Node000011"><a xlink:title=" ">
<path fill="none" stroke="#9a32cd" stroke-dasharray="5,2" d="M626.32,-228.95C667.5,-213.66 734.98,-188.6 771.01,-175.22"/>
<polygon fill="#9a32cd" stroke="#9a32cd" points="625.28,-225.6 617.12,-232.36 627.71,-232.16 625.28,-225.6"/>
</a>
</g>
<text text-anchor="middle" x="736.12" y="-205.75" font-family="Helvetica,sans-Serif" font-size="10.00" fill="grey"> head</text>
<text text-anchor="middle" x="736.12" y="-194.5" font-family="Helvetica,sans-Serif" font-size="10.00" fill="grey">tail</text>
</g>
<!-- Node17 -->
<g id="Node000017" class="node">
<title>Node17</title>
<g id="a_Node000017"><a xlink:href="structOSMutexLink.html" target="_top" xlink:title=" ">
<polygon fill="white" stroke="#666666" points="931.12,-174.75 855.88,-174.75 855.88,-155.5 931.12,-155.5 931.12,-174.75"/>
<text text-anchor="middle" x="893.5" y="-161.25" font-family="Helvetica,sans-Serif" font-size="10.00">OSMutexLink</text>
</a>
</g>
</g>
<!-- Node11&#45;&gt;Node17 -->
<g id="edge25_Node000017_Node000011" class="edge">
<title>Node11&#45;&gt;Node17</title>
<g id="a_edge25_Node000017_Node000011"><a xlink:title=" ">
<path fill="none" stroke="#9a32cd" stroke-dasharray="5,2" d="M631.52,-237.42C664.16,-233.26 711.29,-226.05 751.5,-215.25 778.9,-207.89 784.47,-202.12 811.25,-192.75 828.82,-186.6 848.66,-180.16 864.46,-175.16"/>
<polygon fill="#9a32cd" stroke="#9a32cd" points="631.18,-233.93 621.69,-238.63 632.04,-240.88 631.18,-233.93"/>
</a>
</g>
<text text-anchor="middle" x="821.62" y="-205.75" font-family="Helvetica,sans-Serif" font-size="10.00" fill="grey"> next</text>
<text text-anchor="middle" x="821.62" y="-194.5" font-family="Helvetica,sans-Serif" font-size="10.00" fill="grey">prev</text>
</g>
<!-- Node12 -->
<g id="Node000012" class="node">
<title>Node12</title>
<g id="a_Node000012"><a xlink:href="structOSThreadQueue.html" target="_top" xlink:title=" ">
<polygon fill="white" stroke="#666666" points="590.88,-19.25 502.12,-19.25 502.12,0 590.88,0 590.88,-19.25"/>
<text text-anchor="middle" x="546.5" y="-5.75" font-family="Helvetica,sans-Serif" font-size="10.00">OSThreadQueue</text>
</a>
</g>
</g>
<!-- Node12&#45;&gt;Node11 -->
<g id="edge14_Node000011_Node000012" class="edge">
<title>Node12&#45;&gt;Node11</title>
<g id="a_edge14_Node000011_Node000012"><a xlink:title=" ">
<path fill="none" stroke="#9a32cd" stroke-dasharray="5,2" d="M539.08,-30.22C538.43,-32.56 537.88,-34.94 537.5,-37.25 535.88,-47.12 536.55,-49.8 537.5,-59.75 544.2,-129.82 536.12,-152.25 567.5,-215.25 570.83,-221.93 576.31,-228.2 581.2,-232.98"/>
<polygon fill="#9a32cd" stroke="#9a32cd" points="542.4,-31.34 542.28,-20.75 535.76,-29.11 542.4,-31.34"/>
</a>
</g>
<text text-anchor="middle" x="557.75" y="-128" font-family="Helvetica,sans-Serif" font-size="10.00" fill="grey"> queue</text>
</g>
<!-- Node12&#45;&gt;Node13 -->
<g id="edge17_Node000013_Node000012" class="edge">
<title>Node12&#45;&gt;Node13</title>
<g id="a_edge17_Node000013_Node000012"><a xlink:title=" ">
<path fill="none" stroke="#9a32cd" stroke-dasharray="5,2" d="M563.68,-27.46C573.89,-37.21 587.24,-49.54 599.75,-59.75 609.99,-68.11 622.19,-76.83 631.27,-83.09"/>
<polygon fill="#9a32cd" stroke="#9a32cd" points="566.33,-25.16 556.71,-20.73 561.47,-30.19 566.33,-25.16"/>
</a>
</g>
<text text-anchor="middle" x="624.88" y="-50.25" font-family="Helvetica,sans-Serif" font-size="10.00" fill="grey"> join_queue</text>
<text text-anchor="middle" x="624.88" y="-39" font-family="Helvetica,sans-Serif" font-size="10.00" fill="grey">queue</text>
</g>
<!-- Node13&#45;&gt;Node11 -->
<g id="edge23_Node000011_Node000013" class="edge">
<title>Node13&#45;&gt;Node11</title>
<g id="a_edge23_Node000011_Node000013"><a xlink:title=" ">
<path fill="none" stroke="#9a32cd" stroke-dasharray="5,2" d="M637.42,-113.74C625.77,-146.26 603,-209.8 594.66,-233.07"/>
<polygon fill="#9a32cd" stroke="#9a32cd" points="640.7,-114.97 640.78,-104.37 634.11,-112.61 640.7,-114.97"/>
</a>
</g>
<text text-anchor="middle" x="637.12" y="-161.25" font-family="Helvetica,sans-Serif" font-size="10.00" fill="grey"> thread</text>
</g>
<!-- Node13&#45;&gt;Node12 -->
<g id="edge15_Node000012_Node000013" class="edge">
<title>Node13&#45;&gt;Node12</title>
<g id="a_edge15_Node000012_Node000013"><a xlink:title=" ">
<path fill="none" stroke="#9a32cd" stroke-dasharray="5,2" d="M602.9,-89.1C582.69,-85.36 560.06,-77.22 547.25,-59.75 538.67,-48.06 541.16,-30.23 543.79,-19.57"/>
<polygon fill="#9a32cd" stroke="#9a32cd" points="602.2,-92.54 612.61,-90.57 603.25,-85.62 602.2,-92.54"/>
</a>
</g>
<text text-anchor="middle" x="559.12" y="-50.25" font-family="Helvetica,sans-Serif" font-size="10.00" fill="grey"> head</text>
<text text-anchor="middle" x="559.12" y="-39" font-family="Helvetica,sans-Serif" font-size="10.00" fill="grey">tail</text>
</g>
<!-- Node15 -->
<g id="Node000015" class="node">
<title>Node15</title>
<g id="a_Node000015"><a xlink:href="structOSThreadLink.html" target="_top" xlink:title=" ">
<polygon fill="white" stroke="#666666" points="725,-19.25 646,-19.25 646,0 725,0 725,-19.25"/>
<text text-anchor="middle" x="685.5" y="-5.75" font-family="Helvetica,sans-Serif" font-size="10.00">OSThreadLink</text>
</a>
</g>
</g>
<!-- Node13&#45;&gt;Node15 -->
<g id="edge19_Node000015_Node000013" class="edge">
<title>Node13&#45;&gt;Node15</title>
<g id="a_edge19_Node000015_Node000013"><a xlink:title=" ">
<path fill="none" stroke="#9a32cd" stroke-dasharray="5,2" d="M648.43,-71.79C651.05,-61.06 655.17,-47.93 661.25,-37.25 664.96,-30.73 670.52,-24.47 675.38,-19.66"/>
<polygon fill="#9a32cd" stroke="#9a32cd" points="645.02,-70.99 646.31,-81.5 651.86,-72.47 645.02,-70.99"/>
</a>
</g>
<text text-anchor="middle" x="671.62" y="-50.25" font-family="Helvetica,sans-Serif" font-size="10.00" fill="grey"> next</text>
<text text-anchor="middle" x="671.62" y="-39" font-family="Helvetica,sans-Serif" font-size="10.00" fill="grey">prev</text>
</g>
<!-- Node14 -->
<g id="Node000014" class="node">
<title>Node14</title>
<g id="a_Node000014"><a xlink:href="structOSContext.html" target="_top" xlink:title=" ">
<polygon fill="white" stroke="#666666" points="735.12,-174.75 671.88,-174.75 671.88,-155.5 735.12,-155.5 735.12,-174.75"/>
<text text-anchor="middle" x="703.5" y="-161.25" font-family="Helvetica,sans-Serif" font-size="10.00">OSContext</text>
</a>
</g>
</g>
<!-- Node14&#45;&gt;Node13 -->
<g id="edge16_Node000013_Node000014" class="edge">
<title>Node14&#45;&gt;Node13</title>
<g id="a_edge16_Node000013_Node000014"><a xlink:title=" ">
<path fill="none" stroke="#9a32cd" stroke-dasharray="5,2" d="M688.76,-146.6C677.11,-132.76 661.33,-114 652.1,-103.03"/>
<polygon fill="#9a32cd" stroke="#9a32cd" points="685.94,-148.69 695.05,-154.09 691.29,-144.18 685.94,-148.69"/>
</a>
</g>
<text text-anchor="middle" x="698.38" y="-128" font-family="Helvetica,sans-Serif" font-size="10.00" fill="grey"> context</text>
</g>
<!-- Node15&#45;&gt;Node13 -->
<g id="edge18_Node000013_Node000015" class="edge">
<title>Node15&#45;&gt;Node13</title>
<g id="a_edge18_Node000013_Node000015"><a xlink:title=" ">
<path fill="none" stroke="#9a32cd" stroke-dasharray="5,2" d="M689.39,-30.77C690.22,-40.02 689.8,-50.89 685.5,-59.75 680.67,-69.69 671.14,-77.48 662.47,-82.91"/>
<polygon fill="#9a32cd" stroke="#9a32cd" points="692.87,-30.36 687.94,-20.98 685.94,-31.38 692.87,-30.36"/>
</a>
</g>
<text text-anchor="middle" x="733.62" y="-50.25" font-family="Helvetica,sans-Serif" font-size="10.00" fill="grey"> active_threads_link</text>
<text text-anchor="middle" x="733.62" y="-39" font-family="Helvetica,sans-Serif" font-size="10.00" fill="grey">link</text>
</g>
<!-- Node16&#45;&gt;Node13 -->
<g id="edge21_Node000013_Node000016" class="edge">
<title>Node16&#45;&gt;Node13</title>
<g id="a_edge21_Node000013_Node000016"><a xlink:title=" ">
<path fill="none" stroke="#9a32cd" stroke-dasharray="5,2" d="M767.93,-149.92C753.58,-142.64 735.7,-133.76 719.5,-126.25 701.76,-118.02 681.35,-109.29 666.3,-102.99"/>
<polygon fill="#9a32cd" stroke="#9a32cd" points="766.28,-153.01 776.78,-154.43 769.46,-146.77 766.28,-153.01"/>
</a>
</g>
<text text-anchor="middle" x="779.88" y="-128" font-family="Helvetica,sans-Serif" font-size="10.00" fill="grey"> owned_mutexes</text>
</g>
<!-- Node17&#45;&gt;Node11 -->
<g id="edge24_Node000011_Node000017" class="edge">
<title>Node17&#45;&gt;Node11</title>
<g id="a_edge24_Node000011_Node000017"><a xlink:title=" ">
<path fill="none" stroke="#9a32cd" stroke-dasharray="5,2" d="M878.39,-183.4C867.62,-194.49 852.15,-208.1 835.5,-215.25 797.33,-231.65 675.73,-238.51 619.96,-240.85"/>
<polygon fill="#9a32cd" stroke="#9a32cd" points="880.71,-186.06 884.93,-176.34 875.57,-181.3 880.71,-186.06"/>
</a>
</g>
<text text-anchor="middle" x="876.12" y="-200.12" font-family="Helvetica,sans-Serif" font-size="10.00" fill="grey"> link</text>
</g>
<!-- Node18&#45;&gt;Node1 -->
<g id="edge29_Node000001_Node000018" class="edge">
<title>Node18&#45;&gt;Node1</title>
<g id="a_edge29_Node000001_Node000018"><a xlink:title=" ">
<path fill="none" stroke="#9a32cd" stroke-dasharray="5,2" d="M285.03,-71.21C258.26,-54.58 222.02,-32.07 202.11,-19.7"/>
<polygon fill="#9a32cd" stroke="#9a32cd" points="283.15,-74.16 293.49,-76.46 286.84,-68.22 283.15,-74.16"/>
</a>
</g>
<text text-anchor="middle" x="295.12" y="-44.62" font-family="Helvetica,sans-Serif" font-size="10.00" fill="grey"> mWaveTable</text>
</g>
<!-- Node19 -->
<g id="Node000019" class="node">
<title>Node19</title>
<g id="a_Node000019"><a xlink:href="classJASWaveHandle.html" target="_top" xlink:title=" ">
<polygon fill="white" stroke="#666666" points="391.62,-174.75 301.38,-174.75 301.38,-155.5 391.62,-155.5 391.62,-174.75"/>
<text text-anchor="middle" x="346.5" y="-161.25" font-family="Helvetica,sans-Serif" font-size="10.00">JASWaveHandle</text>
</a>
</g>
</g>
<!-- Node19&#45;&gt;Node18 -->
<g id="edge30_Node000018_Node000019" class="edge">
<title>Node19&#45;&gt;Node18</title>
<g id="a_edge30_Node000018_Node000019"><a xlink:title=" ">
<path fill="none" stroke="#63b8ff" d="M338.72,-144.64C334.17,-133.25 328.53,-119.11 324.36,-108.67"/>
<polygon fill="#63b8ff" stroke="#63b8ff" points="335.43,-145.85 342.39,-153.84 341.93,-143.25 335.43,-145.85"/>
</a>
</g>
</g>
<!-- Node20 -->
<g id="Node000020" class="node">
<title>Node20</title>
<g id="a_Node000020"><a xlink:href="structJASWaveInfo.html" target="_top" xlink:title=" ">
<polygon fill="white" stroke="#666666" points="485.5,-174.75 409.5,-174.75 409.5,-155.5 485.5,-155.5 485.5,-174.75"/>
<text text-anchor="middle" x="447.5" y="-161.25" font-family="Helvetica,sans-Serif" font-size="10.00">JASWaveInfo</text>
</a>
</g>
</g>
<!-- Node20&#45;&gt;Node18 -->
<g id="edge31_Node000018_Node000020" class="edge">
<title>Node20&#45;&gt;Node18</title>
<g id="a_edge31_Node000018_Node000020"><a xlink:title=" ">
<path fill="none" stroke="#9a32cd" stroke-dasharray="5,2" d="M420.87,-149.65C398.78,-137.64 367.52,-120.65 345.36,-108.6"/>
<polygon fill="#9a32cd" stroke="#9a32cd" points="419.11,-152.68 429.57,-154.38 422.46,-146.53 419.11,-152.68"/>
</a>
</g>
<text text-anchor="middle" x="424.38" y="-128" font-family="Helvetica,sans-Serif" font-size="10.00" fill="grey"> mWaveInfo</text>
</g>
</g>
</svg>

<g id="navigator" transform="translate(0 0)" fill="#404254">
  <rect fill="#f2f5e9" fill-opacity="0.5" stroke="#606060" stroke-width=".5" x="0" y="0" width="60" height="60"/>
  <use id="zoomplus" xlink:href="#zoomPlus" x="17" y="9" onmousedown="handleZoom(evt,'in')"/>
  <use id="zoomminus" xlink:href="#zoomMin" x="42" y="9" onmousedown="handleZoom(evt,'out')"/>
  <use id="reset" xlink:href="#resetDef" x="30" y="36" onmousedown="handleReset()"/>
   <use id="arrowup" xlink:href="#arrowUp" x="0" y="0" onmousedown="handlePan(0,-1)"/>
  <use id="arrowright" xlink:href="#arrowRight" x="0" y="0" onmousedown="handlePan(1,0)"/>
  <use id="arrowdown" xlink:href="#arrowDown" x="0" y="0" onmousedown="handlePan(0,1)"/>
  <use id="arrowleft" xlink:href="#arrowLeft" x="0" y="0" onmousedown="handlePan(-1,0)"/>
</g>
<svg viewBox="0 0 15 15" width="100%" height="30px" preserveAspectRatio="xMaxYMin meet">
 <g id="arrow_out" transform="scale(0.3 0.3)">
  <a xlink:href="structJASSimpleWaveBank__coll__graph_org.svg" target="_base">
   <rect id="button" ry="5" rx="5" y="6" x="6" height="38" width="38"
        fill="#f2f5e9" fill-opacity="0.5" stroke="#606060" stroke-width="1.0"/>
   <path id="arrow"
     d="M 11.500037,31.436501 C 11.940474,20.09759 22.043105,11.32322 32.158766,21.979434 L 37.068811,17.246167 C 37.068811,17.246167 37.088388,32 37.088388,32 L 22.160133,31.978069 C 22.160133,31.978069 26.997745,27.140456 26.997745,27.140456 C 18.528582,18.264221 13.291696,25.230495 11.500037,31.436501 z"
     style="fill:#404040;"/>
  </a>
 </g>
</svg>

<style type='text/css'>
<![CDATA[
[data-mouse-over-selected='false'] { opacity: 0.7; }
[data-mouse-over-selected='true']  { opacity: 1.0; }
]]>
</style>
<script type="application/ecmascript"><![CDATA[
document.addEventListener('DOMContentLoaded', (event) => {
  highlightEdges();
  highlightAdjacentNodes();
});
]]></script>
</svg>
