<?xml version="1.0" encoding="UTF-8" standalone="no"?>
<!DOCTYPE svg PUBLIC "-//W3C//DTD SVG 1.1//EN"
 "http://www.w3.org/Graphics/SVG/1.1/DTD/svg11.dtd">
<!-- Generated by graphviz version 9.0.0 (20230911.1827)
 -->
<!-- Title: JAUSection::TSectionData Pages: 1 -->
<svg width="2315pt" height="577pt"
 viewBox="0.00 0.00 2314.50 577.16" xmlns="http://www.w3.org/2000/svg" xmlns:xlink="http://www.w3.org/1999/xlink">
<g id="graph0" class="graph" transform="scale(1 1) rotate(0) translate(4 573.16)">
<title>JAUSection::TSectionData</title>
<!-- Node1 -->
<g id="Node000001" class="node">
<title>Node1</title>
<g id="a_Node000001"><a xlink:title=" ">
<polygon fill="#999999" stroke="#666666" points="2306.5,-338.16 2174.25,-338.16 2174.25,-318.91 2306.5,-318.91 2306.5,-338.16"/>
<text text-anchor="middle" x="2240.38" y="-324.66" font-family="Helvetica,sans-Serif" font-size="10.00">JAUSection::TSectionData</text>
</a>
</g>
</g>
<!-- Node2 -->
<g id="Node000002" class="node">
<title>Node2</title>
<g id="a_Node000002"><a xlink:href="classJAUDynamicSeqDataBlocks.html" target="_top" xlink:title=" ">
<polygon fill="white" stroke="#666666" points="2019,-418.16 1878.5,-418.16 1878.5,-398.91 2019,-398.91 2019,-418.16"/>
<text text-anchor="middle" x="1948.75" y="-404.66" font-family="Helvetica,sans-Serif" font-size="10.00">JAUDynamicSeqDataBlocks</text>
</a>
</g>
</g>
<!-- Node2&#45;&gt;Node1 -->
<g id="edge1_Node000001_Node000002" class="edge">
<title>Node2&#45;&gt;Node1</title>
<g id="a_edge1_Node000001_Node000002"><a xlink:title=" ">
<path fill="none" stroke="#9a32cd" stroke-dasharray="5,2" d="M2030.39,-397.19C2069.03,-390.58 2115.64,-380.87 2156.25,-367.53 2179.57,-359.87 2204.92,-347.31 2221.41,-338.52"/>
<polygon fill="#9a32cd" stroke="#9a32cd" points="2029.97,-393.71 2020.68,-398.81 2031.12,-400.62 2029.97,-393.71"/>
</a>
</g>
<text text-anchor="middle" x="2096.62" y="-396.28" font-family="Helvetica,sans-Serif" font-size="10.00" fill="grey"> field_0x00</text>
</g>
<!-- Node3 -->
<g id="Node000003" class="node">
<title>Node3</title>
<g id="a_Node000003"><a xlink:href="classJAUSeqDataBlocks.html" target="_top" xlink:title=" ">
<polygon fill="white" stroke="#666666" points="1766,-493.16 1663,-493.16 1663,-473.91 1766,-473.91 1766,-493.16"/>
<text text-anchor="middle" x="1714.5" y="-479.66" font-family="Helvetica,sans-Serif" font-size="10.00">JAUSeqDataBlocks</text>
</a>
</g>
</g>
<!-- Node3&#45;&gt;Node2 -->
<g id="edge2_Node000002_Node000003" class="edge">
<title>Node3&#45;&gt;Node2</title>
<g id="a_edge2_Node000002_Node000003"><a xlink:title=" ">
<path fill="none" stroke="#9a32cd" stroke-dasharray="5,2" d="M1757.58,-469.94C1803.39,-455.15 1875.55,-431.85 1916.55,-418.61"/>
<polygon fill="#9a32cd" stroke="#9a32cd" points="1756.7,-466.55 1748.26,-472.95 1758.85,-473.21 1756.7,-466.55"/>
</a>
</g>
<text text-anchor="middle" x="1822.25" y="-484.78" font-family="Helvetica,sans-Serif" font-size="10.00" fill="grey"> field_0xc</text>
<text text-anchor="middle" x="1822.25" y="-473.53" font-family="Helvetica,sans-Serif" font-size="10.00" fill="grey">mFreeBlocks</text>
<text text-anchor="middle" x="1822.25" y="-462.28" font-family="Helvetica,sans-Serif" font-size="10.00" fill="grey">mLoadedBlocks</text>
</g>
<!-- Node4 -->
<g id="Node000004" class="node">
<title>Node4</title>
<g id="a_Node000004"><a xlink:href="classJSUList.html" target="_top" xlink:title=" ">
<polygon fill="white" stroke="#666666" points="1560.25,-569.16 1410,-569.16 1410,-549.91 1560.25,-549.91 1560.25,-569.16"/>
<text text-anchor="middle" x="1485.12" y="-555.66" font-family="Helvetica,sans-Serif" font-size="10.00">JSUList&lt; JAUSeqDataBlock &gt;</text>
</a>
</g>
</g>
<!-- Node4&#45;&gt;Node1 -->
<g id="edge45_Node000001_Node000004" class="edge">
<title>Node4&#45;&gt;Node1</title>
<g id="a_edge45_Node000001_Node000004"><a xlink:title=" ">
<path fill="none" stroke="#9a32cd" stroke-dasharray="5,2" d="M1572.14,-552.54C1595.81,-550.16 1621.46,-547.16 1645,-543.53 1877.15,-507.71 1953.86,-528.76 2156.25,-409.53 2188.89,-390.3 2218.42,-355.63 2231.8,-338.57"/>
<polygon fill="#9a32cd" stroke="#9a32cd" points="1571.81,-549.06 1562.2,-553.51 1572.49,-556.02 1571.81,-549.06"/>
</a>
</g>
<text text-anchor="middle" x="1822.25" y="-526.28" font-family="Helvetica,sans-Serif" font-size="10.00" fill="grey"> field_0x28</text>
</g>
<!-- Node4&#45;&gt;Node3 -->
<g id="edge3_Node000003_Node000004" class="edge">
<title>Node4&#45;&gt;Node3</title>
<g id="a_edge3_Node000003_Node000004"><a xlink:title=" ">
<path fill="none" stroke="#63b8ff" d="M1553.15,-547.05C1581.94,-540.68 1615.64,-531.85 1645,-520.53 1663.92,-513.24 1684.18,-501.79 1697.72,-493.56"/>
<polygon fill="#63b8ff" stroke="#63b8ff" points="1552.48,-543.61 1543.44,-549.14 1553.95,-550.45 1552.48,-543.61"/>
</a>
</g>
</g>
<!-- Node5 -->
<g id="Node000005" class="node">
<title>Node5</title>
<g id="a_Node000005"><a xlink:href="classJSUPtrList.html" target="_top" xlink:title=" ">
<polygon fill="white" stroke="#666666" points="64.75,-398.16 0,-398.16 0,-378.91 64.75,-378.91 64.75,-398.16"/>
<text text-anchor="middle" x="32.38" y="-384.66" font-family="Helvetica,sans-Serif" font-size="10.00">JSUPtrList</text>
</a>
</g>
</g>
<!-- Node5&#45;&gt;Node4 -->
<g id="edge4_Node000004_Node000005" class="edge">
<title>Node5&#45;&gt;Node4</title>
<g id="a_edge4_Node000004_Node000005"><a xlink:title=" ">
<path fill="none" stroke="#63b8ff" d="M40.77,-408.91C49.1,-430.37 63.96,-464.58 82.75,-490.53 118.38,-539.74 140,-559.53 200.75,-559.53 200.75,-559.53 200.75,-559.53 1251.25,-559.53 1304.21,-559.53 1363.95,-559.53 1409.66,-559.53"/>
<polygon fill="#63b8ff" stroke="#63b8ff" points="44.16,-407.98 37.36,-399.85 37.6,-410.44 44.16,-407.98"/>
</a>
</g>
</g>
<!-- Node6 -->
<g id="Node000006" class="node">
<title>Node6</title>
<g id="a_Node000006"><a xlink:href="classJSUPtrLink.html" target="_top" xlink:title=" ">
<polygon fill="white" stroke="#666666" points="235.25,-491.16 168.25,-491.16 168.25,-471.91 235.25,-471.91 235.25,-491.16"/>
<text text-anchor="middle" x="201.75" y="-477.66" font-family="Helvetica,sans-Serif" font-size="10.00">JSUPtrLink</text>
</a>
</g>
</g>
<!-- Node5&#45;&gt;Node6 -->
<g id="edge6_Node000006_Node000005" class="edge">
<title>Node5&#45;&gt;Node6</title>
<g id="a_edge6_Node000006_Node000005"><a xlink:title=" ">
<path fill="none" stroke="#9a32cd" stroke-dasharray="5,2" d="M41.33,-408.77C49.19,-425.95 62.92,-449.79 82.75,-462.53 108.15,-478.85 142.8,-482.76 167.97,-483.09"/>
<polygon fill="#9a32cd" stroke="#9a32cd" points="44.74,-407.84 37.6,-400.01 38.3,-410.59 44.74,-407.84"/>
</a>
</g>
<text text-anchor="middle" x="99.62" y="-477.28" font-family="Helvetica,sans-Serif" font-size="10.00" fill="grey"> mList</text>
</g>
<!-- Node19 -->
<g id="Node000019" class="node">
<title>Node19</title>
<g id="a_Node000019"><a xlink:href="classJSUList.html" target="_top" xlink:title=" ">
<polygon fill="white" stroke="#666666" points="390.75,-417.16 316.25,-417.16 316.25,-397.91 390.75,-397.91 390.75,-417.16"/>
<text text-anchor="middle" x="353.5" y="-403.66" font-family="Helvetica,sans-Serif" font-size="10.00">JSUList&lt; T &gt;</text>
</a>
</g>
</g>
<!-- Node5&#45;&gt;Node19 -->
<g id="edge28_Node000019_Node000005" class="edge">
<title>Node5&#45;&gt;Node19</title>
<g id="a_edge28_Node000019_Node000005"><a xlink:title=" ">
<path fill="none" stroke="#63b8ff" d="M76.3,-391.09C139.54,-394.85 256.66,-401.83 316,-405.36"/>
<polygon fill="#63b8ff" stroke="#63b8ff" points="76.84,-387.61 66.65,-390.51 76.43,-394.6 76.84,-387.61"/>
</a>
</g>
</g>
<!-- Node21 -->
<g id="Node000021" class="node">
<title>Node21</title>
<g id="a_Node000021"><a xlink:href="classJSUList.html" target="_top" xlink:title=" ">
<polygon fill="white" stroke="#666666" points="416.25,-379.16 290.75,-379.16 290.75,-359.91 416.25,-359.91 416.25,-379.16"/>
<text text-anchor="middle" x="353.5" y="-365.66" font-family="Helvetica,sans-Serif" font-size="10.00">JSUList&lt; JKRDisposer &gt;</text>
</a>
</g>
</g>
<!-- Node5&#45;&gt;Node21 -->
<g id="edge32_Node000021_Node000005" class="edge">
<title>Node5&#45;&gt;Node21</title>
<g id="a_edge32_Node000021_Node000005"><a xlink:title=" ">
<path fill="none" stroke="#63b8ff" d="M76.59,-385.96C131.7,-382.68 227.39,-376.98 290.33,-373.23"/>
<polygon fill="#63b8ff" stroke="#63b8ff" points="76.43,-382.46 66.65,-386.55 76.84,-389.45 76.43,-382.46"/>
</a>
</g>
</g>
<!-- Node24 -->
<g id="Node000024" class="node">
<title>Node24</title>
<g id="a_Node000024"><a xlink:href="classJSUList.html" target="_top" xlink:title=" ">
<polygon fill="white" stroke="#666666" points="420,-341.16 287,-341.16 287,-321.91 420,-321.91 420,-341.16"/>
<text text-anchor="middle" x="353.5" y="-327.66" font-family="Helvetica,sans-Serif" font-size="10.00">JSUList&lt; JKRFileLoader &gt;</text>
</a>
</g>
</g>
<!-- Node5&#45;&gt;Node24 -->
<g id="edge40_Node000024_Node000005" class="edge">
<title>Node5&#45;&gt;Node24</title>
<g id="a_edge40_Node000024_Node000005"><a xlink:title=" ">
<path fill="none" stroke="#63b8ff" d="M76.53,-380.65C78.64,-380.27 80.72,-379.9 82.75,-379.53 156.13,-366.31 240.78,-351.29 295.39,-341.62"/>
<polygon fill="#63b8ff" stroke="#63b8ff" points="75.95,-377.2 66.73,-382.43 77.2,-384.09 75.95,-377.2"/>
</a>
</g>
</g>
<!-- Node31 -->
<g id="Node000031" class="node">
<title>Node31</title>
<g id="a_Node000031"><a xlink:href="classJSUList.html" target="_top" xlink:title=" ">
<polygon fill="white" stroke="#666666" points="269,-303.16 134.5,-303.16 134.5,-283.91 269,-283.91 269,-303.16"/>
<text text-anchor="middle" x="201.75" y="-289.66" font-family="Helvetica,sans-Serif" font-size="10.00">JSUList&lt; JAUBankTable &gt;</text>
</a>
</g>
</g>
<!-- Node5&#45;&gt;Node31 -->
<g id="edge50_Node000031_Node000005" class="edge">
<title>Node5&#45;&gt;Node31</title>
<g id="a_edge50_Node000031_Node000005"><a xlink:title=" ">
<path fill="none" stroke="#63b8ff" d="M42.16,-368.3C50.31,-352.01 64,-329.87 82.75,-317.53 97.94,-307.54 116.44,-301.56 134.24,-298.03"/>
<polygon fill="#63b8ff" stroke="#63b8ff" points="39.13,-366.53 38.06,-377.07 45.47,-369.5 39.13,-366.53"/>
</a>
</g>
</g>
<!-- Node33 -->
<g id="Node000033" class="node">
<title>Node33</title>
<g id="a_Node000033"><a xlink:href="classJSUList.html" target="_top" xlink:title=" ">
<polygon fill="white" stroke="#666666" points="664.25,-250.16 532.75,-250.16 532.75,-230.91 664.25,-230.91 664.25,-250.16"/>
<text text-anchor="middle" x="598.5" y="-236.66" font-family="Helvetica,sans-Serif" font-size="10.00">JSUList&lt; JAUDisposer_ &gt;</text>
</a>
</g>
</g>
<!-- Node5&#45;&gt;Node33 -->
<g id="edge53_Node000033_Node000005" class="edge">
<title>Node5&#45;&gt;Node33</title>
<g id="a_edge53_Node000033_Node000005"><a xlink:title=" ">
<path fill="none" stroke="#63b8ff" d="M40.36,-367.86C48.03,-347.88 62.06,-317.87 82.75,-298.53 101.27,-281.22 109.96,-280.9 134.5,-274.53 272.79,-238.67 441.54,-236.17 532.27,-238.02"/>
<polygon fill="#63b8ff" stroke="#63b8ff" points="37.12,-366.55 37.01,-377.14 43.7,-368.93 37.12,-366.55"/>
</a>
</g>
</g>
<!-- Node6&#45;&gt;Node5 -->
<g id="edge5_Node000005_Node000006" class="edge">
<title>Node6&#45;&gt;Node5</title>
<g id="a_edge5_Node000005_Node000006"><a xlink:title=" ">
<path fill="none" stroke="#9a32cd" stroke-dasharray="5,2" d="M171.45,-466.47C147.42,-453.97 112.63,-435.57 82.75,-418.53 71.42,-412.07 58.87,-404.44 49.25,-398.49"/>
<polygon fill="#9a32cd" stroke="#9a32cd" points="169.53,-469.41 180.01,-470.9 172.75,-463.2 169.53,-469.41"/>
</a>
</g>
<text text-anchor="middle" x="99.62" y="-448.53" font-family="Helvetica,sans-Serif" font-size="10.00" fill="grey"> mHead</text>
<text text-anchor="middle" x="99.62" y="-437.28" font-family="Helvetica,sans-Serif" font-size="10.00" fill="grey">mTail</text>
</g>
<!-- Node6&#45;&gt;Node6 -->
<g id="edge7_Node000006_Node000006" class="edge">
<title>Node6&#45;&gt;Node6</title>
<g id="a_edge7_Node000006_Node000006"><a xlink:title=" ">
<path fill="none" stroke="#9a32cd" stroke-dasharray="5,2" d="M183.62,-502.56C185.89,-506.43 191.93,-509.16 201.75,-509.16 219.7,-509.16 225.03,-500.05 217.74,-491.44"/>
<polygon fill="#9a32cd" stroke="#9a32cd" points="187.02,-503.41 185.48,-492.93 180.15,-502.09 187.02,-503.41"/>
</a>
</g>
<text text-anchor="middle" x="201.75" y="-522.16" font-family="Helvetica,sans-Serif" font-size="10.00" fill="grey"> mNext</text>
<text text-anchor="middle" x="201.75" y="-510.91" font-family="Helvetica,sans-Serif" font-size="10.00" fill="grey">mPrev</text>
</g>
<!-- Node20 -->
<g id="Node000020" class="node">
<title>Node20</title>
<g id="a_Node000020"><a xlink:href="classJSULink.html" target="_top" xlink:title=" ">
<polygon fill="white" stroke="#666666" points="514.75,-455.16 438,-455.16 438,-435.91 514.75,-435.91 514.75,-455.16"/>
<text text-anchor="middle" x="476.38" y="-441.66" font-family="Helvetica,sans-Serif" font-size="10.00">JSULink&lt; T &gt;</text>
</a>
</g>
</g>
<!-- Node6&#45;&gt;Node20 -->
<g id="edge30_Node000020_Node000006" class="edge">
<title>Node6&#45;&gt;Node20</title>
<g id="a_edge30_Node000020_Node000006"><a xlink:title=" ">
<path fill="none" stroke="#63b8ff" d="M246.58,-475.16C259.59,-473.31 273.86,-471.3 287,-469.53 339.28,-462.48 399.79,-454.87 437.83,-450.15"/>
<polygon fill="#63b8ff" stroke="#63b8ff" points="246.44,-471.65 237.04,-476.53 247.44,-478.58 246.44,-471.65"/>
</a>
</g>
</g>
<!-- Node22 -->
<g id="Node000022" class="node">
<title>Node22</title>
<g id="a_Node000022"><a xlink:href="classJSULink.html" target="_top" xlink:title=" ">
<polygon fill="white" stroke="#666666" points="662.38,-490.16 534.62,-490.16 534.62,-470.91 662.38,-470.91 662.38,-490.16"/>
<text text-anchor="middle" x="598.5" y="-476.66" font-family="Helvetica,sans-Serif" font-size="10.00">JSULink&lt; JKRDisposer &gt;</text>
</a>
</g>
</g>
<!-- Node6&#45;&gt;Node22 -->
<g id="edge35_Node000022_Node000006" class="edge">
<title>Node6&#45;&gt;Node22</title>
<g id="a_edge35_Node000022_Node000006"><a xlink:title=" ">
<path fill="none" stroke="#63b8ff" d="M247.2,-481.42C317.3,-481.24 453.8,-480.9 534.15,-480.69"/>
<polygon fill="#63b8ff" stroke="#63b8ff" points="247.23,-477.92 237.24,-481.44 247.25,-484.92 247.23,-477.92"/>
</a>
</g>
</g>
<!-- Node23 -->
<g id="Node000023" class="node">
<title>Node23</title>
<g id="a_Node000023"><a xlink:href="classJSULink.html" target="_top" xlink:title=" ">
<polygon fill="white" stroke="#666666" points="1194.75,-531.16 1059.5,-531.16 1059.5,-511.91 1194.75,-511.91 1194.75,-531.16"/>
<text text-anchor="middle" x="1127.12" y="-517.66" font-family="Helvetica,sans-Serif" font-size="10.00">JSULink&lt; JKRFileLoader &gt;</text>
</a>
</g>
</g>
<!-- Node6&#45;&gt;Node23 -->
<g id="edge37_Node000023_Node000006" class="edge">
<title>Node6&#45;&gt;Node23</title>
<g id="a_edge37_Node000023_Node000006"><a xlink:title=" ">
<path fill="none" stroke="#63b8ff" d="M246.82,-492.04C300.49,-503.89 394.04,-521.53 475.38,-521.53 475.38,-521.53 475.38,-521.53 877.12,-521.53 938.73,-521.53 1008.9,-521.53 1059.02,-521.53"/>
<polygon fill="#63b8ff" stroke="#63b8ff" points="247.68,-488.64 237.15,-489.86 246.14,-495.47 247.68,-488.64"/>
</a>
</g>
</g>
<!-- Node7 -->
<g id="Node000007" class="node">
<title>Node7</title>
<g id="a_Node000007"><a xlink:href="classJKRArchive.html" target="_top" xlink:title=" ">
<polygon fill="white" stroke="#666666" points="1748.38,-418.16 1680.62,-418.16 1680.62,-398.91 1748.38,-398.91 1748.38,-418.16"/>
<text text-anchor="middle" x="1714.5" y="-404.66" font-family="Helvetica,sans-Serif" font-size="10.00">JKRArchive</text>
</a>
</g>
</g>
<!-- Node7&#45;&gt;Node2 -->
<g id="edge8_Node000002_Node000007" class="edge">
<title>Node7&#45;&gt;Node2</title>
<g id="a_edge8_Node000002_Node000007"><a xlink:title=" ">
<path fill="none" stroke="#9a32cd" stroke-dasharray="5,2" d="M1760.02,-408.53C1793.45,-408.53 1839.85,-408.53 1878.16,-408.53"/>
<polygon fill="#9a32cd" stroke="#9a32cd" points="1760.29,-405.03 1750.29,-408.53 1760.29,-412.03 1760.29,-405.03"/>
</a>
</g>
<text text-anchor="middle" x="1822.25" y="-410.28" font-family="Helvetica,sans-Serif" font-size="10.00" fill="grey"> seqDataArchive_</text>
</g>
<!-- Node8 -->
<g id="Node000008" class="node">
<title>Node8</title>
<g id="a_Node000008"><a xlink:href="classJKRFileLoader.html" target="_top" xlink:title=" ">
<polygon fill="white" stroke="#666666" points="1525.38,-418.16 1444.88,-418.16 1444.88,-398.91 1525.38,-398.91 1525.38,-418.16"/>
<text text-anchor="middle" x="1485.12" y="-404.66" font-family="Helvetica,sans-Serif" font-size="10.00">JKRFileLoader</text>
</a>
</g>
</g>
<!-- Node8&#45;&gt;Node7 -->
<g id="edge9_Node000007_Node000008" class="edge">
<title>Node8&#45;&gt;Node7</title>
<g id="a_edge9_Node000007_Node000008"><a xlink:title=" ">
<path fill="none" stroke="#63b8ff" d="M1537,-408.53C1580.74,-408.53 1642.58,-408.53 1680.26,-408.53"/>
<polygon fill="#63b8ff" stroke="#63b8ff" points="1537.24,-405.03 1527.24,-408.53 1537.24,-412.03 1537.24,-405.03"/>
</a>
</g>
</g>
<!-- Node8&#45;&gt;Node8 -->
<g id="edge38_Node000008_Node000008" class="edge">
<title>Node8&#45;&gt;Node8</title>
<g id="a_edge38_Node000008_Node000008"><a xlink:title=" ">
<path fill="none" stroke="#9a32cd" stroke-dasharray="5,2" d="M1462.67,-429.56C1465.48,-433.43 1472.96,-436.16 1485.12,-436.16 1507.36,-436.16 1513.96,-427.05 1504.93,-418.44"/>
<polygon fill="#9a32cd" stroke="#9a32cd" points="1466.06,-430.46 1464.97,-419.92 1459.25,-428.83 1466.06,-430.46"/>
</a>
</g>
<text text-anchor="middle" x="1485.12" y="-437.91" font-family="Helvetica,sans-Serif" font-size="10.00" fill="grey"> sCurrentVolume</text>
</g>
<!-- Node9 -->
<g id="Node000009" class="node">
<title>Node9</title>
<g id="a_Node000009"><a xlink:href="classJKRDisposer.html" target="_top" xlink:title=" ">
<polygon fill="white" stroke="#666666" points="1286.75,-437.16 1213.75,-437.16 1213.75,-417.91 1286.75,-417.91 1286.75,-437.16"/>
<text text-anchor="middle" x="1250.25" y="-423.66" font-family="Helvetica,sans-Serif" font-size="10.00">JKRDisposer</text>
</a>
</g>
</g>
<!-- Node9&#45;&gt;Node8 -->
<g id="edge10_Node000008_Node000009" class="edge">
<title>Node9&#45;&gt;Node8</title>
<g id="a_edge10_Node000008_Node000009"><a xlink:title=" ">
<path fill="none" stroke="#63b8ff" d="M1298.43,-423.68C1341.45,-420.17 1404.29,-415.04 1444.7,-411.75"/>
<polygon fill="#63b8ff" stroke="#63b8ff" points="1298.32,-420.18 1288.63,-424.48 1298.89,-427.16 1298.32,-420.18"/>
</a>
</g>
</g>
<!-- Node10 -->
<g id="Node000010" class="node">
<title>Node10</title>
<g id="a_Node000010"><a xlink:href="structJKRHeap.html" target="_top" xlink:title=" ">
<polygon fill="white" stroke="#666666" points="1028,-380.16 970,-380.16 970,-360.91 1028,-360.91 1028,-380.16"/>
<text text-anchor="middle" x="999" y="-366.66" font-family="Helvetica,sans-Serif" font-size="10.00">JKRHeap</text>
</a>
</g>
</g>
<!-- Node9&#45;&gt;Node10 -->
<g id="edge12_Node000010_Node000009" class="edge">
<title>Node9&#45;&gt;Node10</title>
<g id="a_edge12_Node000010_Node000009"><a xlink:title=" ">
<path fill="none" stroke="#63b8ff" d="M1202,-431.95C1162.63,-433.91 1105.73,-432.69 1059.5,-415.53 1039.34,-408.05 1020.31,-391.35 1009.42,-380.53"/>
<polygon fill="#63b8ff" stroke="#63b8ff" points="1202.08,-435.45 1211.86,-431.36 1201.66,-428.46 1202.08,-435.45"/>
</a>
</g>
</g>
<!-- Node10&#45;&gt;Node7 -->
<g id="edge41_Node000007_Node000010" class="edge">
<title>Node10&#45;&gt;Node7</title>
<g id="a_edge41_Node000007_Node000010"><a xlink:title=" ">
<path fill="none" stroke="#9a32cd" stroke-dasharray="5,2" d="M1039.82,-370.66C1131.69,-371.22 1365.49,-374.19 1560.25,-389.53 1601.81,-392.81 1649.42,-399.11 1680.4,-403.56"/>
<polygon fill="#9a32cd" stroke="#9a32cd" points="1039.86,-367.16 1029.84,-370.61 1039.82,-374.16 1039.86,-367.16"/>
</a>
</g>
<text text-anchor="middle" x="1348.88" y="-380.28" font-family="Helvetica,sans-Serif" font-size="10.00" fill="grey"> mHeap</text>
</g>
<!-- Node10&#45;&gt;Node9 -->
<g id="edge11_Node000009_Node000010" class="edge">
<title>Node10&#45;&gt;Node9</title>
<g id="a_edge11_Node000009_Node000010"><a xlink:title=" ">
<path fill="none" stroke="#9a32cd" stroke-dasharray="5,2" d="M1039.42,-377.91C1046.12,-379.14 1053.01,-380.38 1059.5,-381.53 1119.53,-392.13 1136.25,-387.15 1194.75,-404.28 1206.4,-407.69 1218.89,-412.9 1228.97,-417.52"/>
<polygon fill="#9a32cd" stroke="#9a32cd" points="1040.39,-374.53 1029.92,-376.16 1039.12,-381.42 1040.39,-374.53"/>
</a>
</g>
<text text-anchor="middle" x="1127.12" y="-405.28" font-family="Helvetica,sans-Serif" font-size="10.00" fill="grey"> mHeap</text>
</g>
<!-- Node10&#45;&gt;Node10 -->
<g id="edge33_Node000010_Node000010" class="edge">
<title>Node10&#45;&gt;Node10</title>
<g id="a_edge33_Node000010_Node000010"><a xlink:title=" ">
<path fill="none" stroke="#9a32cd" stroke-dasharray="5,2" d="M977.19,-391.56C979.92,-395.43 987.19,-398.16 999,-398.16 1020.6,-398.16 1027.01,-389.05 1018.24,-380.44"/>
<polygon fill="#9a32cd" stroke="#9a32cd" points="980.58,-392.45 979.42,-381.92 973.76,-390.87 980.58,-392.45"/>
</a>
</g>
<text text-anchor="middle" x="999" y="-433.66" font-family="Helvetica,sans-Serif" font-size="10.00" fill="grey"> sCurrentHeap</text>
<text text-anchor="middle" x="999" y="-422.41" font-family="Helvetica,sans-Serif" font-size="10.00" fill="grey">sRootHeap</text>
<text text-anchor="middle" x="999" y="-411.16" font-family="Helvetica,sans-Serif" font-size="10.00" fill="grey">sRootHeap2</text>
<text text-anchor="middle" x="999" y="-399.91" font-family="Helvetica,sans-Serif" font-size="10.00" fill="grey">sSystemHeap</text>
</g>
<!-- Node11 -->
<g id="Node000011" class="node">
<title>Node11</title>
<g id="a_Node000011"><a xlink:href="structOSMutex.html" target="_top" xlink:title=" ">
<polygon fill="white" stroke="#666666" points="767.25,-128.16 710.75,-128.16 710.75,-108.91 767.25,-108.91 767.25,-128.16"/>
<text text-anchor="middle" x="739" y="-114.66" font-family="Helvetica,sans-Serif" font-size="10.00">OSMutex</text>
</a>
</g>
</g>
<!-- Node11&#45;&gt;Node10 -->
<g id="edge13_Node000010_Node000011" class="edge">
<title>Node11&#45;&gt;Node10</title>
<g id="a_edge13_Node000010_Node000011"><a xlink:title=" ">
<path fill="none" stroke="#9a32cd" stroke-dasharray="5,2" d="M752.01,-138.21C765.11,-158.33 787.71,-189.39 813.75,-209.53 861.93,-246.8 893.5,-225.23 938.5,-266.28 968.68,-293.81 987.52,-340.29 994.7,-360.57"/>
<polygon fill="#9a32cd" stroke="#9a32cd" points="755.02,-136.42 746.72,-129.84 749.1,-140.16 755.02,-136.42"/>
</a>
</g>
<text text-anchor="middle" x="876.12" y="-267.28" font-family="Helvetica,sans-Serif" font-size="10.00" fill="grey"> mMutex</text>
</g>
<!-- Node13 -->
<g id="Node000013" class="node">
<title>Node13</title>
<g id="a_Node000013"><a xlink:href="structOSThread.html" target="_top" xlink:title=" ">
<polygon fill="white" stroke="#666666" points="1280.38,-98.16 1220.12,-98.16 1220.12,-78.91 1280.38,-78.91 1280.38,-98.16"/>
<text text-anchor="middle" x="1250.25" y="-84.66" font-family="Helvetica,sans-Serif" font-size="10.00">OSThread</text>
</a>
</g>
</g>
<!-- Node11&#45;&gt;Node13 -->
<g id="edge20_Node000013_Node000011" class="edge">
<title>Node11&#45;&gt;Node13</title>
<g id="a_edge20_Node000013_Node000011"><a xlink:title=" ">
<path fill="none" stroke="#9a32cd" stroke-dasharray="5,2" d="M779.2,-116.22C877.56,-110.43 1133.11,-95.37 1219.91,-90.26"/>
<polygon fill="#9a32cd" stroke="#9a32cd" points="779.03,-112.73 769.25,-116.81 779.44,-119.71 779.03,-112.73"/>
</a>
</g>
<text text-anchor="middle" x="999" y="-107.28" font-family="Helvetica,sans-Serif" font-size="10.00" fill="grey"> mutex</text>
</g>
<!-- Node16 -->
<g id="Node000016" class="node">
<title>Node16</title>
<g id="a_Node000016"><a xlink:href="structOSMutexQueue.html" target="_top" xlink:title=" ">
<polygon fill="white" stroke="#666666" points="1041.5,-167.16 956.5,-167.16 956.5,-147.91 1041.5,-147.91 1041.5,-167.16"/>
<text text-anchor="middle" x="999" y="-153.66" font-family="Helvetica,sans-Serif" font-size="10.00">OSMutexQueue</text>
</a>
</g>
</g>
<!-- Node11&#45;&gt;Node16 -->
<g id="edge22_Node000016_Node000011" class="edge">
<title>Node11&#45;&gt;Node16</title>
<g id="a_edge22_Node000016_Node000011"><a xlink:title=" ">
<path fill="none" stroke="#9a32cd" stroke-dasharray="5,2" d="M778.85,-126.3C790.09,-128.44 802.39,-130.68 813.75,-132.53 862.5,-140.46 918.79,-147.84 956.2,-152.5"/>
<polygon fill="#9a32cd" stroke="#9a32cd" points="779.57,-122.88 769.09,-124.42 778.25,-129.75 779.57,-122.88"/>
</a>
</g>
<text text-anchor="middle" x="876.12" y="-163.53" font-family="Helvetica,sans-Serif" font-size="10.00" fill="grey"> head</text>
<text text-anchor="middle" x="876.12" y="-152.28" font-family="Helvetica,sans-Serif" font-size="10.00" fill="grey">tail</text>
</g>
<!-- Node17 -->
<g id="Node000017" class="node">
<title>Node17</title>
<g id="a_Node000017"><a xlink:href="structOSMutexLink.html" target="_top" xlink:title=" ">
<polygon fill="white" stroke="#666666" points="1036.62,-82.16 961.38,-82.16 961.38,-62.91 1036.62,-62.91 1036.62,-82.16"/>
<text text-anchor="middle" x="999" y="-68.66" font-family="Helvetica,sans-Serif" font-size="10.00">OSMutexLink</text>
</a>
</g>
</g>
<!-- Node11&#45;&gt;Node17 -->
<g id="edge25_Node000017_Node000011" class="edge">
<title>Node11&#45;&gt;Node17</title>
<g id="a_edge25_Node000017_Node000011"><a xlink:title=" ">
<path fill="none" stroke="#9a32cd" stroke-dasharray="5,2" d="M765.36,-102.76C779.14,-95.03 796.79,-86.46 813.75,-82.03 863.49,-69.04 923.28,-68.6 960.97,-70.09"/>
<polygon fill="#9a32cd" stroke="#9a32cd" points="763.84,-99.59 756.96,-107.65 767.37,-105.64 763.84,-99.59"/>
</a>
</g>
<text text-anchor="middle" x="876.12" y="-95.53" font-family="Helvetica,sans-Serif" font-size="10.00" fill="grey"> next</text>
<text text-anchor="middle" x="876.12" y="-84.28" font-family="Helvetica,sans-Serif" font-size="10.00" fill="grey">prev</text>
</g>
<!-- Node12 -->
<g id="Node000012" class="node">
<title>Node12</title>
<g id="a_Node000012"><a xlink:href="structOSThreadQueue.html" target="_top" xlink:title=" ">
<polygon fill="white" stroke="#666666" points="1529.5,-167.16 1440.75,-167.16 1440.75,-147.91 1529.5,-147.91 1529.5,-167.16"/>
<text text-anchor="middle" x="1485.12" y="-153.66" font-family="Helvetica,sans-Serif" font-size="10.00">OSThreadQueue</text>
</a>
</g>
</g>
<!-- Node12&#45;&gt;Node11 -->
<g id="edge14_Node000011_Node000012" class="edge">
<title>Node12&#45;&gt;Node11</title>
<g id="a_edge14_Node000011_Node000012"><a xlink:title=" ">
<path fill="none" stroke="#9a32cd" stroke-dasharray="5,2" d="M1442.46,-170.79C1426.81,-175.13 1408.75,-179.38 1392,-181.53 1353.98,-186.4 1344.08,-181.73 1305.75,-181.53 1087.07,-180.42 1020.03,-249.11 813.75,-176.53 786.09,-166.8 760.87,-142.08 748.33,-128.26"/>
<polygon fill="#9a32cd" stroke="#9a32cd" points="1443.29,-174.19 1451.93,-168.06 1441.35,-167.47 1443.29,-174.19"/>
</a>
</g>
<text text-anchor="middle" x="1127.12" y="-207.28" font-family="Helvetica,sans-Serif" font-size="10.00" fill="grey"> queue</text>
</g>
<!-- Node12&#45;&gt;Node13 -->
<g id="edge17_Node000013_Node000012" class="edge">
<title>Node12&#45;&gt;Node13</title>
<g id="a_edge17_Node000013_Node000012"><a xlink:title=" ">
<path fill="none" stroke="#9a32cd" stroke-dasharray="5,2" d="M1459.19,-141.41C1441.22,-130.55 1415.99,-116.84 1392,-109.03 1354.78,-96.92 1309.7,-91.95 1280.75,-89.92"/>
<polygon fill="#9a32cd" stroke="#9a32cd" points="1457.24,-144.32 1467.58,-146.61 1460.93,-138.37 1457.24,-144.32"/>
</a>
</g>
<text text-anchor="middle" x="1348.88" y="-122.53" font-family="Helvetica,sans-Serif" font-size="10.00" fill="grey"> join_queue</text>
<text text-anchor="middle" x="1348.88" y="-111.28" font-family="Helvetica,sans-Serif" font-size="10.00" fill="grey">queue</text>
</g>
<!-- Node13&#45;&gt;Node11 -->
<g id="edge23_Node000011_Node000013" class="edge">
<title>Node13&#45;&gt;Node11</title>
<g id="a_edge23_Node000011_Node000013"><a xlink:title=" ">
<path fill="none" stroke="#9a32cd" stroke-dasharray="5,2" d="M1231.48,-70.9C1221.44,-61.83 1208.23,-51.29 1194.75,-44.53 1098.83,3.59 1063.37,4.46 956.5,-5.28 892.26,-11.14 869.58,0.79 813.75,-31.53 780.85,-50.58 755.81,-89.99 745.35,-108.51"/>
<polygon fill="#9a32cd" stroke="#9a32cd" points="1228.94,-73.32 1238.62,-77.63 1233.74,-68.22 1228.94,-73.32"/>
</a>
</g>
<text text-anchor="middle" x="999" y="-7.28" font-family="Helvetica,sans-Serif" font-size="10.00" fill="grey"> thread</text>
</g>
<!-- Node13&#45;&gt;Node12 -->
<g id="edge15_Node000012_Node000013" class="edge">
<title>Node13&#45;&gt;Node12</title>
<g id="a_edge15_Node000012_Node000013"><a xlink:title=" ">
<path fill="none" stroke="#9a32cd" stroke-dasharray="5,2" d="M1267.08,-106.71C1277.09,-116.94 1290.91,-128.95 1305.75,-135.53 1348.82,-154.62 1403.14,-158.85 1440.46,-159.1"/>
<polygon fill="#9a32cd" stroke="#9a32cd" points="1269.73,-104.42 1260.37,-99.47 1264.6,-109.18 1269.73,-104.42"/>
</a>
</g>
<text text-anchor="middle" x="1348.88" y="-169.53" font-family="Helvetica,sans-Serif" font-size="10.00" fill="grey"> head</text>
<text text-anchor="middle" x="1348.88" y="-158.28" font-family="Helvetica,sans-Serif" font-size="10.00" fill="grey">tail</text>
</g>
<!-- Node15 -->
<g id="Node000015" class="node">
<title>Node15</title>
<g id="a_Node000015"><a xlink:href="structOSThreadLink.html" target="_top" xlink:title=" ">
<polygon fill="white" stroke="#666666" points="1524.62,-52.16 1445.62,-52.16 1445.62,-32.91 1524.62,-32.91 1524.62,-52.16"/>
<text text-anchor="middle" x="1485.12" y="-38.66" font-family="Helvetica,sans-Serif" font-size="10.00">OSThreadLink</text>
</a>
</g>
</g>
<!-- Node13&#45;&gt;Node15 -->
<g id="edge19_Node000015_Node000013" class="edge">
<title>Node13&#45;&gt;Node15</title>
<g id="a_edge19_Node000015_Node000013"><a xlink:title=" ">
<path fill="none" stroke="#9a32cd" stroke-dasharray="5,2" d="M1261.76,-68.92C1271.08,-53.8 1286.23,-34 1305.75,-25.03 1356.36,-1.77 1423.4,-19.6 1459.16,-32.42"/>
<polygon fill="#9a32cd" stroke="#9a32cd" points="1258.98,-66.73 1257.01,-77.14 1265.04,-70.23 1258.98,-66.73"/>
</a>
</g>
<text text-anchor="middle" x="1348.88" y="-38.53" font-family="Helvetica,sans-Serif" font-size="10.00" fill="grey"> next</text>
<text text-anchor="middle" x="1348.88" y="-27.28" font-family="Helvetica,sans-Serif" font-size="10.00" fill="grey">prev</text>
</g>
<!-- Node14 -->
<g id="Node000014" class="node">
<title>Node14</title>
<g id="a_Node000014"><a xlink:href="structOSContext.html" target="_top" xlink:title=" ">
<polygon fill="white" stroke="#666666" points="1030.62,-45.16 967.38,-45.16 967.38,-25.91 1030.62,-25.91 1030.62,-45.16"/>
<text text-anchor="middle" x="999" y="-31.66" font-family="Helvetica,sans-Serif" font-size="10.00">OSContext</text>
</a>
</g>
</g>
<!-- Node14&#45;&gt;Node13 -->
<g id="edge16_Node000013_Node000014" class="edge">
<title>Node14&#45;&gt;Node13</title>
<g id="a_edge16_Node000013_Node000014"><a xlink:title=" ">
<path fill="none" stroke="#9a32cd" stroke-dasharray="5,2" d="M1042.22,-44.51C1092.66,-55.23 1175.72,-72.9 1219.74,-82.26"/>
<polygon fill="#9a32cd" stroke="#9a32cd" points="1043.05,-41.11 1032.54,-42.45 1041.6,-47.95 1043.05,-41.11"/>
</a>
</g>
<text text-anchor="middle" x="1127.12" y="-78.28" font-family="Helvetica,sans-Serif" font-size="10.00" fill="grey"> context</text>
</g>
<!-- Node15&#45;&gt;Node13 -->
<g id="edge18_Node000013_Node000015" class="edge">
<title>Node15&#45;&gt;Node13</title>
<g id="a_edge18_Node000013_Node000015"><a xlink:title=" ">
<path fill="none" stroke="#9a32cd" stroke-dasharray="5,2" d="M1434.11,-46.18C1398,-49.59 1348.32,-55.88 1305.75,-67.03 1294.73,-69.92 1282.92,-74.39 1273.12,-78.52"/>
<polygon fill="#9a32cd" stroke="#9a32cd" points="1434.18,-49.69 1443.82,-45.31 1433.55,-42.72 1434.18,-49.69"/>
</a>
</g>
<text text-anchor="middle" x="1348.88" y="-80.53" font-family="Helvetica,sans-Serif" font-size="10.00" fill="grey"> active_threads_link</text>
<text text-anchor="middle" x="1348.88" y="-69.28" font-family="Helvetica,sans-Serif" font-size="10.00" fill="grey">link</text>
</g>
<!-- Node16&#45;&gt;Node13 -->
<g id="edge21_Node000013_Node000016" class="edge">
<title>Node16&#45;&gt;Node13</title>
<g id="a_edge21_Node000013_Node000016"><a xlink:title=" ">
<path fill="none" stroke="#9a32cd" stroke-dasharray="5,2" d="M1053.45,-158.42C1093.78,-157.29 1149.67,-151.78 1194.75,-132.53 1213.09,-124.7 1230.3,-108.85 1240.3,-98.46"/>
<polygon fill="#9a32cd" stroke="#9a32cd" points="1053.44,-154.92 1043.5,-158.61 1053.57,-161.92 1053.44,-154.92"/>
</a>
</g>
<text text-anchor="middle" x="1127.12" y="-160.28" font-family="Helvetica,sans-Serif" font-size="10.00" fill="grey"> owned_mutexes</text>
</g>
<!-- Node17&#45;&gt;Node11 -->
<g id="edge24_Node000011_Node000017" class="edge">
<title>Node17&#45;&gt;Node11</title>
<g id="a_edge24_Node000011_Node000017"><a xlink:title=" ">
<path fill="none" stroke="#9a32cd" stroke-dasharray="5,2" d="M964.71,-58.08C951.96,-52.61 940.06,-47.6 938.5,-47.28 884.17,-36.23 865.15,-26.51 813.75,-47.28 782.88,-59.76 757.76,-92.02 746.46,-108.51"/>
<polygon fill="#9a32cd" stroke="#9a32cd" points="962.98,-61.15 973.55,-61.89 965.75,-54.72 962.98,-61.15"/>
</a>
</g>
<text text-anchor="middle" x="876.12" y="-49.28" font-family="Helvetica,sans-Serif" font-size="10.00" fill="grey"> link</text>
</g>
<!-- Node18 -->
<g id="Node000018" class="node">
<title>Node18</title>
<g id="a_Node000018"><a xlink:href="classJSUTree.html" target="_top" xlink:title=" ">
<polygon fill="white" stroke="#666666" points="795.75,-417.16 682.25,-417.16 682.25,-397.91 795.75,-397.91 795.75,-417.16"/>
<text text-anchor="middle" x="739" y="-403.66" font-family="Helvetica,sans-Serif" font-size="10.00">JSUTree&lt; JKRHeap &gt;</text>
</a>
</g>
</g>
<!-- Node18&#45;&gt;Node10 -->
<g id="edge26_Node000010_Node000018" class="edge">
<title>Node18&#45;&gt;Node10</title>
<g id="a_edge26_Node000010_Node000018"><a xlink:title=" ">
<path fill="none" stroke="#9a32cd" stroke-dasharray="5,2" d="M807.33,-400.99C845.87,-396.85 895.04,-390.89 938.5,-383.53 948.72,-381.8 959.83,-379.49 969.66,-377.3"/>
<polygon fill="#9a32cd" stroke="#9a32cd" points="807.33,-397.47 797.75,-402.01 808.07,-404.44 807.33,-397.47"/>
</a>
</g>
<text text-anchor="middle" x="876.12" y="-401.28" font-family="Helvetica,sans-Serif" font-size="10.00" fill="grey"> mChildTree</text>
</g>
<!-- Node19&#45;&gt;Node18 -->
<g id="edge27_Node000018_Node000019" class="edge">
<title>Node19&#45;&gt;Node18</title>
<g id="a_edge27_Node000018_Node000019"><a xlink:title=" ">
<path fill="none" stroke="#63b8ff" d="M402.18,-407.53C473.14,-407.53 606.28,-407.53 681.86,-407.53"/>
<polygon fill="#63b8ff" stroke="#63b8ff" points="402.44,-404.03 392.44,-407.53 402.44,-411.03 402.44,-404.03"/>
</a>
</g>
</g>
<!-- Node20&#45;&gt;Node18 -->
<g id="edge29_Node000018_Node000020" class="edge">
<title>Node20&#45;&gt;Node18</title>
<g id="a_edge29_Node000018_Node000020"><a xlink:title=" ">
<path fill="none" stroke="#63b8ff" d="M526.24,-440.07C564.01,-435.65 617.56,-428.96 664.25,-421.53 671.59,-420.37 679.31,-419.02 686.89,-417.64"/>
<polygon fill="#63b8ff" stroke="#63b8ff" points="526.09,-436.56 516.56,-441.19 526.89,-443.51 526.09,-436.56"/>
</a>
</g>
</g>
<!-- Node21&#45;&gt;Node10 -->
<g id="edge31_Node000010_Node000021" class="edge">
<title>Node21&#45;&gt;Node10</title>
<g id="a_edge31_Node000010_Node000021"><a xlink:title=" ">
<path fill="none" stroke="#9a32cd" stroke-dasharray="5,2" d="M427.63,-369.65C569.31,-369.87 875.55,-370.34 969.81,-370.49"/>
<polygon fill="#9a32cd" stroke="#9a32cd" points="428.01,-366.15 418.01,-369.63 428,-373.15 428.01,-366.15"/>
</a>
</g>
<text text-anchor="middle" x="598.5" y="-371.28" font-family="Helvetica,sans-Serif" font-size="10.00" fill="grey"> mDisposerList</text>
</g>
<!-- Node22&#45;&gt;Node9 -->
<g id="edge34_Node000009_Node000022" class="edge">
<title>Node22&#45;&gt;Node9</title>
<g id="a_edge34_Node000009_Node000022"><a xlink:title=" ">
<path fill="none" stroke="#9a32cd" stroke-dasharray="5,2" d="M674.32,-476.58C762.27,-471.74 912.59,-462.92 1041.5,-452.53 1109.72,-447.03 1126.98,-447.05 1194.75,-437.53 1200.75,-436.69 1207.1,-435.66 1213.26,-434.58"/>
<polygon fill="#9a32cd" stroke="#9a32cd" points="674.17,-473.08 664.37,-477.12 674.55,-480.07 674.17,-473.08"/>
</a>
</g>
<text text-anchor="middle" x="876.12" y="-469.28" font-family="Helvetica,sans-Serif" font-size="10.00" fill="grey"> mLink</text>
</g>
<!-- Node23&#45;&gt;Node8 -->
<g id="edge36_Node000008_Node000023" class="edge">
<title>Node23&#45;&gt;Node8</title>
<g id="a_edge36_Node000008_Node000023"><a xlink:title=" ">
<path fill="none" stroke="#9a32cd" stroke-dasharray="5,2" d="M1170.67,-508.03C1242.96,-485.08 1388.15,-439 1452.35,-418.62"/>
<polygon fill="#9a32cd" stroke="#9a32cd" points="1169.63,-504.68 1161.16,-511.05 1171.75,-511.36 1169.63,-504.68"/>
</a>
</g>
<text text-anchor="middle" x="1250.25" y="-494.28" font-family="Helvetica,sans-Serif" font-size="10.00" fill="grey"> mFileLoaderLink</text>
</g>
<!-- Node24&#45;&gt;Node8 -->
<g id="edge39_Node000008_Node000024" class="edge">
<title>Node24&#45;&gt;Node8</title>
<g id="a_edge39_Node000008_Node000024"><a xlink:title=" ">
<path fill="none" stroke="#9a32cd" stroke-dasharray="5,2" d="M431.6,-331.29C558.84,-331.46 820.67,-334.14 1041.5,-351.53 1119.71,-357.69 1351.14,-389.77 1444.46,-402.91"/>
<polygon fill="#9a32cd" stroke="#9a32cd" points="431.97,-327.79 421.97,-331.29 431.97,-334.79 431.97,-327.79"/>
</a>
</g>
<text text-anchor="middle" x="876.12" y="-346.28" font-family="Helvetica,sans-Serif" font-size="10.00" fill="grey"> sVolumeList</text>
</g>
<!-- Node25 -->
<g id="Node000025" class="node">
<title>Node25</title>
<g id="a_Node000025"><a xlink:href="structSArcDataInfo.html" target="_top" xlink:title=" ">
<polygon fill="white" stroke="#666666" points="1522.38,-342.16 1447.88,-342.16 1447.88,-322.91 1522.38,-322.91 1522.38,-342.16"/>
<text text-anchor="middle" x="1485.12" y="-328.66" font-family="Helvetica,sans-Serif" font-size="10.00">SArcDataInfo</text>
</a>
</g>
</g>
<!-- Node25&#45;&gt;Node7 -->
<g id="edge42_Node000007_Node000025" class="edge">
<title>Node25&#45;&gt;Node7</title>
<g id="a_edge42_Node000007_Node000025"><a xlink:title=" ">
<path fill="none" stroke="#9a32cd" stroke-dasharray="5,2" d="M1534.03,-325.14C1567.66,-322.48 1612.3,-324.28 1645,-345.28 1658.81,-354.15 1651.64,-365.69 1663,-377.53 1671.19,-386.07 1682.21,-393.19 1691.87,-398.45"/>
<polygon fill="#9a32cd" stroke="#9a32cd" points="1533.75,-321.65 1524.13,-326.1 1534.42,-328.62 1533.75,-321.65"/>
</a>
</g>
<text text-anchor="middle" x="1611.62" y="-346.28" font-family="Helvetica,sans-Serif" font-size="10.00" fill="grey"> mArcInfoBlock</text>
</g>
<!-- Node26 -->
<g id="Node000026" class="node">
<title>Node26</title>
<g id="a_Node000026"><a xlink:href="structJKRArchive_1_1SDIDirEntry.html" target="_top" xlink:title=" ">
<polygon fill="white" stroke="#666666" points="1546.38,-522.16 1423.88,-522.16 1423.88,-502.91 1546.38,-502.91 1546.38,-522.16"/>
<text text-anchor="middle" x="1485.12" y="-508.66" font-family="Helvetica,sans-Serif" font-size="10.00">JKRArchive::SDIDirEntry</text>
</a>
</g>
</g>
<!-- Node26&#45;&gt;Node7 -->
<g id="edge43_Node000007_Node000026" class="edge">
<title>Node26&#45;&gt;Node7</title>
<g id="a_edge43_Node000007_Node000026"><a xlink:title=" ">
<path fill="none" stroke="#9a32cd" stroke-dasharray="5,2" d="M1551.13,-499.74C1580.97,-492.18 1616.06,-480.83 1645,-464.53 1668.02,-451.57 1691.03,-430.75 1703.65,-418.48"/>
<polygon fill="#9a32cd" stroke="#9a32cd" points="1550.34,-496.33 1541.45,-502.09 1551.99,-503.13 1550.34,-496.33"/>
</a>
</g>
<text text-anchor="middle" x="1611.62" y="-492.28" font-family="Helvetica,sans-Serif" font-size="10.00" fill="grey"> mNodes</text>
</g>
<!-- Node27 -->
<g id="Node000027" class="node">
<title>Node27</title>
<g id="a_Node000027"><a xlink:href="structJKRArchive_1_1SDIFileEntry.html" target="_top" xlink:title=" ">
<polygon fill="white" stroke="#666666" points="1548.25,-485.16 1422,-485.16 1422,-465.91 1548.25,-465.91 1548.25,-485.16"/>
<text text-anchor="middle" x="1485.12" y="-471.66" font-family="Helvetica,sans-Serif" font-size="10.00">JKRArchive::SDIFileEntry</text>
</a>
</g>
</g>
<!-- Node27&#45;&gt;Node7 -->
<g id="edge44_Node000007_Node000027" class="edge">
<title>Node27&#45;&gt;Node7</title>
<g id="a_edge44_Node000007_Node000027"><a xlink:title=" ">
<path fill="none" stroke="#9a32cd" stroke-dasharray="5,2" d="M1538.15,-462.57C1545.58,-460.61 1553.12,-458.56 1560.25,-456.53 1603.16,-444.32 1652.29,-428.62 1683.11,-418.57"/>
<polygon fill="#9a32cd" stroke="#9a32cd" points="1537.27,-459.18 1528.47,-465.08 1539.03,-465.95 1537.27,-459.18"/>
</a>
</g>
<text text-anchor="middle" x="1611.62" y="-451.28" font-family="Helvetica,sans-Serif" font-size="10.00" fill="grey"> mFiles</text>
</g>
<!-- Node28 -->
<g id="Node000028" class="node">
<title>Node28</title>
<g id="a_Node000028"><a xlink:href="classstd_1_1bitset.html" target="_top" xlink:title=" ">
<polygon fill="white" stroke="#666666" points="1993.88,-357.16 1903.62,-357.16 1903.62,-337.91 1993.88,-337.91 1993.88,-357.16"/>
<text text-anchor="middle" x="1948.75" y="-343.66" font-family="Helvetica,sans-Serif" font-size="10.00">std::bitset&lt; 255 &gt;</text>
</a>
</g>
</g>
<!-- Node28&#45;&gt;Node1 -->
<g id="edge46_Node000001_Node000028" class="edge">
<title>Node28&#45;&gt;Node1</title>
<g id="a_edge46_Node000001_Node000028"><a xlink:title=" ">
<path fill="none" stroke="#9a32cd" stroke-dasharray="5,2" d="M2005.82,-343.85C2053.94,-340.7 2123.35,-336.14 2173.99,-332.82"/>
<polygon fill="#9a32cd" stroke="#9a32cd" points="2005.63,-340.36 1995.88,-344.51 2006.09,-347.34 2005.63,-340.36"/>
</a>
</g>
<text text-anchor="middle" x="2096.62" y="-353.53" font-family="Helvetica,sans-Serif" font-size="10.00" fill="grey"> registeredBankTables</text>
<text text-anchor="middle" x="2096.62" y="-342.28" font-family="Helvetica,sans-Serif" font-size="10.00" fill="grey">registeredWaveBankTables</text>
</g>
<!-- Node29 -->
<g id="Node000029" class="node">
<title>Node29</title>
<g id="a_Node000029"><a xlink:href="classstd_1_1____bitset__base.html" target="_top" xlink:title=" ">
<polygon fill="white" stroke="#666666" points="1764.5,-368.41 1664.5,-368.41 1664.5,-326.66 1764.5,-326.66 1764.5,-368.41"/>
<text text-anchor="start" x="1672.5" y="-354.91" font-family="Helvetica,sans-Serif" font-size="10.00">std::__bitset_base</text>
<text text-anchor="start" x="1672.5" y="-343.66" font-family="Helvetica,sans-Serif" font-size="10.00">&lt;(N &#45; 1)/(sizeof(size</text>
<text text-anchor="middle" x="1714.5" y="-332.41" font-family="Helvetica,sans-Serif" font-size="10.00">_t) *8)+1 &gt;</text>
</a>
</g>
</g>
<!-- Node29&#45;&gt;Node28 -->
<g id="edge47_Node000028_Node000029" class="edge">
<title>Node29&#45;&gt;Node28</title>
<g id="a_edge47_Node000028_Node000029"><a xlink:title=" ">
<path fill="none" stroke="#8b1a1a" d="M1776.19,-347.53C1816.02,-347.53 1867.22,-347.53 1903.28,-347.53"/>
<polygon fill="#8b1a1a" stroke="#8b1a1a" points="1776.27,-344.03 1766.27,-347.53 1776.27,-351.03 1776.27,-344.03"/>
</a>
</g>
</g>
<!-- Node30 -->
<g id="Node000030" class="node">
<title>Node30</title>
<g id="a_Node000030"><a xlink:href="structJAUBankTableDictionary.html" target="_top" xlink:title=" ">
<polygon fill="white" stroke="#666666" points="938.5,-303.16 813.75,-303.16 813.75,-283.91 938.5,-283.91 938.5,-303.16"/>
<text text-anchor="middle" x="876.12" y="-289.66" font-family="Helvetica,sans-Serif" font-size="10.00">JAUBankTableDictionary</text>
</a>
</g>
</g>
<!-- Node30&#45;&gt;Node1 -->
<g id="edge48_Node000001_Node000030" class="edge">
<title>Node30&#45;&gt;Node1</title>
<g id="a_edge48_Node000001_Node000030"><a xlink:title=" ">
<path fill="none" stroke="#9a32cd" stroke-dasharray="5,2" d="M950.13,-293.85C1075.1,-294.53 1338.05,-296.57 1560.25,-302.28 1785.54,-308.08 2052.69,-319.84 2173.83,-325.43"/>
<polygon fill="#9a32cd" stroke="#9a32cd" points="950.37,-290.35 940.35,-293.8 950.33,-297.35 950.37,-290.35"/>
</a>
</g>
<text text-anchor="middle" x="1485.12" y="-303.28" font-family="Helvetica,sans-Serif" font-size="10.00" fill="grey"> field_0x74</text>
</g>
<!-- Node31&#45;&gt;Node30 -->
<g id="edge49_Node000030_Node000031" class="edge">
<title>Node31&#45;&gt;Node30</title>
<g id="a_edge49_Node000030_Node000031"><a xlink:title=" ">
<path fill="none" stroke="#63b8ff" d="M280.82,-293.53C415.88,-293.53 690.45,-293.53 813.3,-293.53"/>
<polygon fill="#63b8ff" stroke="#63b8ff" points="280.88,-290.03 270.88,-293.53 280.88,-297.03 280.88,-290.03"/>
</a>
</g>
</g>
<!-- Node32 -->
<g id="Node000032" class="node">
<title>Node32</title>
<g id="a_Node000032"><a xlink:href="structJAISeqDataMgr.html" target="_top" xlink:title=" ">
<polygon fill="white" stroke="#666666" points="1991.25,-281.16 1906.25,-281.16 1906.25,-261.91 1991.25,-261.91 1991.25,-281.16"/>
<text text-anchor="middle" x="1948.75" y="-267.66" font-family="Helvetica,sans-Serif" font-size="10.00">JAISeqDataMgr</text>
</a>
</g>
</g>
<!-- Node32&#45;&gt;Node1 -->
<g id="edge51_Node000001_Node000032" class="edge">
<title>Node32&#45;&gt;Node1</title>
<g id="a_edge51_Node000001_Node000032"><a xlink:title=" ">
<path fill="none" stroke="#9a32cd" stroke-dasharray="5,2" d="M2002.8,-268.68C2045.13,-267.86 2105.54,-269.95 2156.25,-284.28 2182.21,-291.62 2209.24,-307.88 2225.17,-318.51"/>
<polygon fill="#9a32cd" stroke="#9a32cd" points="2002.78,-265.18 1992.87,-268.95 2002.96,-272.18 2002.78,-265.18"/>
</a>
</g>
<text text-anchor="middle" x="2096.62" y="-285.28" font-family="Helvetica,sans-Serif" font-size="10.00" fill="grey"> field_0x80</text>
</g>
<!-- Node33&#45;&gt;Node1 -->
<g id="edge52_Node000001_Node000033" class="edge">
<title>Node33&#45;&gt;Node1</title>
<g id="a_edge52_Node000001_Node000033"><a xlink:title=" ">
<path fill="none" stroke="#9a32cd" stroke-dasharray="5,2" d="M676.11,-237.54C731.41,-235.64 807.87,-233.53 875.12,-233.53 875.12,-233.53 875.12,-233.53 1949.75,-233.53 2042.56,-233.53 2070.86,-228.17 2156.25,-264.53 2186.75,-277.52 2215.9,-304.39 2230.2,-318.84"/>
<polygon fill="#9a32cd" stroke="#9a32cd" points="676.03,-234.04 666.16,-237.89 676.27,-241.04 676.03,-234.04"/>
</a>
</g>
<text text-anchor="middle" x="1348.88" y="-235.28" font-family="Helvetica,sans-Serif" font-size="10.00" fill="grey"> field_0x8c</text>
</g>
</g>
</svg>
