<?xml version="1.0" encoding="UTF-8" standalone="no"?>
<!DOCTYPE svg PUBLIC "-//W3C//DTD SVG 1.1//EN"
 "http://www.w3.org/Graphics/SVG/1.1/DTD/svg11.dtd">
<!-- Generated by graphviz version 9.0.0 (20230911.1827)
 -->
<!-- Title: JASBasicWaveBank::TWaveGroup Pages: 1 -->
<svg width="1007pt" height="539pt"
 viewBox="0.00 0.00 1007.25 538.75" xmlns="http://www.w3.org/2000/svg" xmlns:xlink="http://www.w3.org/1999/xlink">
<g id="graph0" class="graph" transform="scale(1 1) rotate(0) translate(4 534.75)">
<title>JASBasicWaveBank::TWaveGroup</title>
<!-- Node1 -->
<g id="Node000001" class="node">
<title>Node1</title>
<g id="a_Node000001"><a xlink:title=" ">
<polygon fill="#999999" stroke="#666666" points="332.62,-85.75 164.38,-85.75 164.38,-66.5 332.62,-66.5 332.62,-85.75"/>
<text text-anchor="middle" x="248.5" y="-72.25" font-family="Helvetica,sans-Serif" font-size="10.00">JASBasicWaveBank::TWaveGroup</text>
</a>
</g>
</g>
<!-- Node17 -->
<g id="Node000017" class="node">
<title>Node17</title>
<g id="a_Node000017"><a xlink:href="structJASBasicWaveBank.html" target="_top" xlink:title=" ">
<polygon fill="white" stroke="#666666" points="470.88,-19.25 364.12,-19.25 364.12,0 470.88,0 470.88,-19.25"/>
<text text-anchor="middle" x="417.5" y="-5.75" font-family="Helvetica,sans-Serif" font-size="10.00">JASBasicWaveBank</text>
</a>
</g>
</g>
<!-- Node1&#45;&gt;Node17 -->
<g id="edge35_Node000017_Node000001" class="edge">
<title>Node1&#45;&gt;Node17</title>
<g id="a_edge35_Node000017_Node000001"><a xlink:title=" ">
<path fill="none" stroke="#9a32cd" stroke-dasharray="5,2" d="M272.86,-60.37C286.27,-52.71 303.41,-43.63 319.5,-37.25 337.53,-30.1 358.16,-24.18 375.82,-19.75"/>
<polygon fill="#9a32cd" stroke="#9a32cd" points="271.17,-57.31 264.3,-65.38 274.7,-63.35 271.17,-57.31"/>
</a>
</g>
<text text-anchor="middle" x="361.5" y="-39" font-family="Helvetica,sans-Serif" font-size="10.00" fill="grey"> mWaveGroupArray</text>
</g>
<!-- Node2 -->
<g id="Node000002" class="node">
<title>Node2</title>
<g id="a_Node000002"><a xlink:href="structJASWaveArc.html" target="_top" xlink:title=" ">
<polygon fill="white" stroke="#666666" points="283.75,-169.12 209.25,-169.12 209.25,-149.88 283.75,-149.88 283.75,-169.12"/>
<text text-anchor="middle" x="246.5" y="-155.62" font-family="Helvetica,sans-Serif" font-size="10.00">JASWaveArc</text>
</a>
</g>
</g>
<!-- Node2&#45;&gt;Node1 -->
<g id="edge1_Node000001_Node000002" class="edge">
<title>Node2&#45;&gt;Node1</title>
<g id="a_edge1_Node000001_Node000002"><a xlink:title=" ">
<path fill="none" stroke="#63b8ff" d="M247,-138.13C247.41,-121.35 247.98,-98.35 248.28,-85.94"/>
<polygon fill="#63b8ff" stroke="#63b8ff" points="243.51,-137.88 246.76,-147.97 250.5,-138.06 243.51,-137.88"/>
</a>
</g>
</g>
<!-- Node3 -->
<g id="Node000003" class="node">
<title>Node3</title>
<g id="a_Node000003"><a xlink:href="structJASDisposer.html" target="_top" xlink:title=" ">
<polygon fill="white" stroke="#666666" points="73,-319 0,-319 0,-299.75 73,-299.75 73,-319"/>
<text text-anchor="middle" x="36.5" y="-305.5" font-family="Helvetica,sans-Serif" font-size="10.00">JASDisposer</text>
</a>
</g>
</g>
<!-- Node3&#45;&gt;Node2 -->
<g id="edge2_Node000002_Node000003" class="edge">
<title>Node3&#45;&gt;Node2</title>
<g id="a_edge2_Node000002_Node000003"><a xlink:title=" ">
<path fill="none" stroke="#63b8ff" d="M41.21,-288.47C47.01,-268.5 58.85,-238.43 80.5,-222 91.95,-213.31 175.24,-184.5 219.32,-169.6"/>
<polygon fill="#63b8ff" stroke="#63b8ff" points="37.89,-287.35 38.74,-297.91 44.66,-289.13 37.89,-287.35"/>
</a>
</g>
</g>
<!-- Node4 -->
<g id="Node000004" class="node">
<title>Node4</title>
<g id="a_Node000004"><a xlink:href="classJASHeap.html" target="_top" xlink:title=" ">
<polygon fill="white" stroke="#666666" points="147.5,-241.25 89.5,-241.25 89.5,-222 147.5,-222 147.5,-241.25"/>
<text text-anchor="middle" x="118.5" y="-227.75" font-family="Helvetica,sans-Serif" font-size="10.00">JASHeap</text>
</a>
</g>
</g>
<!-- Node3&#45;&gt;Node4 -->
<g id="edge25_Node000004_Node000003" class="edge">
<title>Node3&#45;&gt;Node4</title>
<g id="a_edge25_Node000004_Node000003"><a xlink:title=" ">
<path fill="none" stroke="#9a32cd" stroke-dasharray="5,2" d="M49.29,-290.06C56.65,-280.27 66.47,-268.38 76.75,-259.25 84.34,-252.52 93.8,-246.33 101.8,-241.62"/>
<polygon fill="#9a32cd" stroke="#9a32cd" points="46.51,-287.93 43.48,-298.09 52.18,-292.04 46.51,-287.93"/>
</a>
</g>
<text text-anchor="middle" x="101.88" y="-266.62" font-family="Helvetica,sans-Serif" font-size="10.00" fill="grey"> mDisposer</text>
</g>
<!-- Node4&#45;&gt;Node2 -->
<g id="edge3_Node000002_Node000004" class="edge">
<title>Node4&#45;&gt;Node2</title>
<g id="a_edge3_Node000002_Node000004"><a xlink:title=" ">
<path fill="none" stroke="#9a32cd" stroke-dasharray="5,2" d="M144.77,-216.23C170.38,-202.2 208.52,-181.31 230.09,-169.49"/>
<polygon fill="#9a32cd" stroke="#9a32cd" points="143.39,-213 136.3,-220.87 146.75,-219.14 143.39,-213"/>
</a>
</g>
<text text-anchor="middle" x="203.38" y="-194.5" font-family="Helvetica,sans-Serif" font-size="10.00" fill="grey"> mHeap</text>
</g>
<!-- Node4&#45;&gt;Node4 -->
<g id="edge26_Node000004_Node000004" class="edge">
<title>Node4&#45;&gt;Node4</title>
<g id="a_edge26_Node000004_Node000004"><a xlink:title=" ">
<path fill="none" stroke="#9a32cd" stroke-dasharray="5,2" d="M159.11,-236.67C163.02,-235.64 165.5,-233.96 165.5,-231.62 165.5,-227.47 157.67,-225.39 147.88,-225.39"/>
<polygon fill="#9a32cd" stroke="#9a32cd" points="158.95,-233.16 149.38,-237.7 159.69,-240.12 158.95,-233.16"/>
</a>
</g>
<text text-anchor="middle" x="188" y="-227.75" font-family="Helvetica,sans-Serif" font-size="10.00" fill="grey"> field_0x40</text>
</g>
<!-- Node19 -->
<g id="Node000019" class="node">
<title>Node19</title>
<g id="a_Node000019"><a xlink:href="structJASBasicWaveBank_1_1TWaveHandle.html" target="_top" xlink:title=" ">
<polygon fill="white" stroke="#666666" points="511.88,-169.12 339.12,-169.12 339.12,-149.88 511.88,-149.88 511.88,-169.12"/>
<text text-anchor="middle" x="425.5" y="-155.62" font-family="Helvetica,sans-Serif" font-size="10.00">JASBasicWaveBank::TWaveHandle</text>
</a>
</g>
</g>
<!-- Node4&#45;&gt;Node19 -->
<g id="edge34_Node000019_Node000004" class="edge">
<title>Node4&#45;&gt;Node19</title>
<g id="a_edge34_Node000019_Node000004"><a xlink:title=" ">
<path fill="none" stroke="#9a32cd" stroke-dasharray="5,2" d="M159.04,-221.36C218.06,-207.88 326.95,-183.01 385.6,-169.61"/>
<polygon fill="#9a32cd" stroke="#9a32cd" points="158.38,-217.93 149.41,-223.56 159.94,-224.75 158.38,-217.93"/>
</a>
</g>
<text text-anchor="middle" x="298.38" y="-194.5" font-family="Helvetica,sans-Serif" font-size="10.00" fill="grey"> mHeap</text>
</g>
<!-- Node5 -->
<g id="Node000005" class="node">
<title>Node5</title>
<g id="a_Node000005"><a xlink:href="classJSUTree.html" target="_top" xlink:title=" ">
<polygon fill="white" stroke="#666666" points="204.25,-319 90.75,-319 90.75,-299.75 204.25,-299.75 204.25,-319"/>
<text text-anchor="middle" x="147.5" y="-305.5" font-family="Helvetica,sans-Serif" font-size="10.00">JSUTree&lt; JASHeap &gt;</text>
</a>
</g>
</g>
<!-- Node5&#45;&gt;Node4 -->
<g id="edge4_Node000004_Node000005" class="edge">
<title>Node5&#45;&gt;Node4</title>
<g id="a_edge4_Node000004_Node000005"><a xlink:title=" ">
<path fill="none" stroke="#9a32cd" stroke-dasharray="5,2" d="M140.08,-289C134.25,-273.76 126.38,-253.21 121.94,-241.6"/>
<polygon fill="#9a32cd" stroke="#9a32cd" points="136.67,-289.89 143.52,-297.97 143.21,-287.38 136.67,-289.89"/>
</a>
</g>
<text text-anchor="middle" x="152.5" y="-266.62" font-family="Helvetica,sans-Serif" font-size="10.00" fill="grey"> mTree</text>
</g>
<!-- Node6 -->
<g id="Node000006" class="node">
<title>Node6</title>
<g id="a_Node000006"><a xlink:href="classJSUList.html" target="_top" xlink:title=" ">
<polygon fill="white" stroke="#666666" points="161.75,-412.5 87.25,-412.5 87.25,-393.25 161.75,-393.25 161.75,-412.5"/>
<text text-anchor="middle" x="124.5" y="-399" font-family="Helvetica,sans-Serif" font-size="10.00">JSUList&lt; T &gt;</text>
</a>
</g>
</g>
<!-- Node6&#45;&gt;Node5 -->
<g id="edge5_Node000005_Node000006" class="edge">
<title>Node6&#45;&gt;Node5</title>
<g id="a_edge5_Node000005_Node000006"><a xlink:title=" ">
<path fill="none" stroke="#63b8ff" d="M129.54,-381.82C134.42,-362.41 141.59,-333.88 145.22,-319.45"/>
<polygon fill="#63b8ff" stroke="#63b8ff" points="126.2,-380.75 127.16,-391.3 132.99,-382.45 126.2,-380.75"/>
</a>
</g>
</g>
<!-- Node7 -->
<g id="Node000007" class="node">
<title>Node7</title>
<g id="a_Node000007"><a xlink:href="classJSUPtrList.html" target="_top" xlink:title=" ">
<polygon fill="white" stroke="#666666" points="189.88,-530.75 125.12,-530.75 125.12,-511.5 189.88,-511.5 189.88,-530.75"/>
<text text-anchor="middle" x="157.5" y="-517.25" font-family="Helvetica,sans-Serif" font-size="10.00">JSUPtrList</text>
</a>
</g>
</g>
<!-- Node7&#45;&gt;Node6 -->
<g id="edge6_Node000006_Node000007" class="edge">
<title>Node7&#45;&gt;Node6</title>
<g id="a_edge6_Node000006_Node000007"><a xlink:title=" ">
<path fill="none" stroke="#63b8ff" d="M151.81,-500.07C144.57,-474.56 132.37,-431.59 127.08,-412.95"/>
<polygon fill="#63b8ff" stroke="#63b8ff" points="148.4,-500.88 154.5,-509.55 155.13,-498.97 148.4,-500.88"/>
</a>
</g>
</g>
<!-- Node8 -->
<g id="Node000008" class="node">
<title>Node8</title>
<g id="a_Node000008"><a xlink:href="classJSUPtrLink.html" target="_top" xlink:title=" ">
<polygon fill="white" stroke="#666666" points="224,-451.38 157,-451.38 157,-432.12 224,-432.12 224,-451.38"/>
<text text-anchor="middle" x="190.5" y="-437.88" font-family="Helvetica,sans-Serif" font-size="10.00">JSUPtrLink</text>
</a>
</g>
</g>
<!-- Node7&#45;&gt;Node8 -->
<g id="edge8_Node000008_Node000007" class="edge">
<title>Node7&#45;&gt;Node8</title>
<g id="a_edge8_Node000008_Node000007"><a xlink:title=" ">
<path fill="none" stroke="#9a32cd" stroke-dasharray="5,2" d="M184.21,-504.27C187.56,-501.13 190.5,-497.54 192.5,-493.5 199.16,-480.07 196.09,-462.1 193.28,-451.54"/>
<polygon fill="#9a32cd" stroke="#9a32cd" points="182.34,-501.3 176.59,-510.2 186.63,-506.82 182.34,-501.3"/>
</a>
</g>
<text text-anchor="middle" x="210" y="-478.38" font-family="Helvetica,sans-Serif" font-size="10.00" fill="grey"> mList</text>
</g>
<!-- Node8&#45;&gt;Node7 -->
<g id="edge7_Node000007_Node000008" class="edge">
<title>Node8&#45;&gt;Node7</title>
<g id="a_edge7_Node000007_Node000008"><a xlink:title=" ">
<path fill="none" stroke="#9a32cd" stroke-dasharray="5,2" d="M167.44,-458.98C163.94,-462.52 160.81,-466.56 158.75,-471 152.72,-484 154.06,-501.09 155.7,-511.31"/>
<polygon fill="#9a32cd" stroke="#9a32cd" points="169.52,-461.8 174.82,-452.63 164.95,-456.5 169.52,-461.8"/>
</a>
</g>
<text text-anchor="middle" x="176.38" y="-484" font-family="Helvetica,sans-Serif" font-size="10.00" fill="grey"> mHead</text>
<text text-anchor="middle" x="176.38" y="-472.75" font-family="Helvetica,sans-Serif" font-size="10.00" fill="grey">mTail</text>
</g>
<!-- Node8&#45;&gt;Node8 -->
<g id="edge9_Node000008_Node000008" class="edge">
<title>Node8&#45;&gt;Node8</title>
<g id="a_edge9_Node000008_Node000008"><a xlink:title=" ">
<path fill="none" stroke="#9a32cd" stroke-dasharray="5,2" d="M235.26,-447.57C239.39,-446.37 242,-444.43 242,-441.75 242,-437.12 234.2,-434.69 224.18,-434.48"/>
<polygon fill="#9a32cd" stroke="#9a32cd" points="235.14,-444.05 225.68,-448.83 236.05,-451 235.14,-444.05"/>
</a>
</g>
<text text-anchor="middle" x="257.38" y="-443.5" font-family="Helvetica,sans-Serif" font-size="10.00" fill="grey"> mNext</text>
<text text-anchor="middle" x="257.38" y="-432.25" font-family="Helvetica,sans-Serif" font-size="10.00" fill="grey">mPrev</text>
</g>
<!-- Node9 -->
<g id="Node000009" class="node">
<title>Node9</title>
<g id="a_Node000009"><a xlink:href="classJSULink.html" target="_top" xlink:title=" ">
<polygon fill="white" stroke="#666666" points="228.88,-375.25 152.12,-375.25 152.12,-356 228.88,-356 228.88,-375.25"/>
<text text-anchor="middle" x="190.5" y="-361.75" font-family="Helvetica,sans-Serif" font-size="10.00">JSULink&lt; T &gt;</text>
</a>
</g>
</g>
<!-- Node8&#45;&gt;Node9 -->
<g id="edge11_Node000009_Node000008" class="edge">
<title>Node8&#45;&gt;Node9</title>
<g id="a_edge11_Node000009_Node000008"><a xlink:title=" ">
<path fill="none" stroke="#63b8ff" d="M190.5,-420.58C190.5,-405.76 190.5,-386.37 190.5,-375.33"/>
<polygon fill="#63b8ff" stroke="#63b8ff" points="187,-420.15 190.5,-430.15 194,-420.15 187,-420.15"/>
</a>
</g>
</g>
<!-- Node9&#45;&gt;Node5 -->
<g id="edge10_Node000005_Node000009" class="edge">
<title>Node9&#45;&gt;Node5</title>
<g id="a_edge10_Node000005_Node000009"><a xlink:title=" ">
<path fill="none" stroke="#63b8ff" d="M176.39,-346.82C169.04,-337.55 160.38,-326.62 154.47,-319.17"/>
<polygon fill="#63b8ff" stroke="#63b8ff" points="173.5,-348.82 182.46,-354.48 178.99,-344.47 173.5,-348.82"/>
</a>
</g>
</g>
<!-- Node10 -->
<g id="Node000010" class="node">
<title>Node10</title>
<g id="a_Node000010"><a xlink:href="structOSMutex.html" target="_top" xlink:title=" ">
<polygon fill="white" stroke="#666666" points="634.75,-319 578.25,-319 578.25,-299.75 634.75,-299.75 634.75,-319"/>
<text text-anchor="middle" x="606.5" y="-305.5" font-family="Helvetica,sans-Serif" font-size="10.00">OSMutex</text>
</a>
</g>
</g>
<!-- Node10&#45;&gt;Node2 -->
<g id="edge27_Node000002_Node000010" class="edge">
<title>Node10&#45;&gt;Node2</title>
<g id="a_edge27_Node000002_Node000010"><a xlink:title=" ">
<path fill="none" stroke="#9a32cd" stroke-dasharray="5,2" d="M566.61,-307.09C482.7,-303.45 292.58,-289.89 254.75,-241.25 238.31,-220.11 241.73,-185.87 244.58,-169.62"/>
<polygon fill="#9a32cd" stroke="#9a32cd" points="566.3,-310.58 576.44,-307.49 566.59,-303.59 566.3,-310.58"/>
</a>
</g>
<text text-anchor="middle" x="273.88" y="-227.75" font-family="Helvetica,sans-Serif" font-size="10.00" fill="grey"> mMutex</text>
</g>
<!-- Node10&#45;&gt;Node4 -->
<g id="edge12_Node000004_Node000010" class="edge">
<title>Node10&#45;&gt;Node4</title>
<g id="a_edge12_Node000004_Node000010"><a xlink:title=" ">
<path fill="none" stroke="#9a32cd" stroke-dasharray="5,2" d="M566.67,-307.31C470.16,-304.51 229.23,-296.15 195.75,-281.75 182.24,-275.94 183.58,-267.63 171.5,-259.25 161.69,-252.44 149.89,-246.33 139.91,-241.69"/>
<polygon fill="#9a32cd" stroke="#9a32cd" points="566.36,-310.8 576.46,-307.59 566.56,-303.8 566.36,-310.8"/>
</a>
</g>
<text text-anchor="middle" x="214.88" y="-266.62" font-family="Helvetica,sans-Serif" font-size="10.00" fill="grey"> mMutex</text>
</g>
<!-- Node12 -->
<g id="Node000012" class="node">
<title>Node12</title>
<g id="a_Node000012"><a xlink:href="structOSThread.html" target="_top" xlink:title=" ">
<polygon fill="white" stroke="#666666" points="777.62,-169.12 717.38,-169.12 717.38,-149.88 777.62,-149.88 777.62,-169.12"/>
<text text-anchor="middle" x="747.5" y="-155.62" font-family="Helvetica,sans-Serif" font-size="10.00">OSThread</text>
</a>
</g>
</g>
<!-- Node10&#45;&gt;Node12 -->
<g id="edge19_Node000012_Node000010" class="edge">
<title>Node10&#45;&gt;Node12</title>
<g id="a_edge19_Node000012_Node000010"><a xlink:title=" ">
<path fill="none" stroke="#9a32cd" stroke-dasharray="5,2" d="M645.9,-304.49C713.71,-296.9 847.89,-277.56 875.5,-241.25 889.24,-223.18 877.22,-206.94 859.5,-192.75 836.13,-174.03 802.34,-166.18 778,-162.88"/>
<polygon fill="#9a32cd" stroke="#9a32cd" points="645.9,-300.97 636.33,-305.53 646.65,-307.93 645.9,-300.97"/>
</a>
</g>
<text text-anchor="middle" x="894.75" y="-227.75" font-family="Helvetica,sans-Serif" font-size="10.00" fill="grey"> mutex</text>
</g>
<!-- Node15 -->
<g id="Node000015" class="node">
<title>Node15</title>
<g id="a_Node000015"><a xlink:href="structOSMutexQueue.html" target="_top" xlink:title=" ">
<polygon fill="white" stroke="#666666" points="785,-241.25 700,-241.25 700,-222 785,-222 785,-241.25"/>
<text text-anchor="middle" x="742.5" y="-227.75" font-family="Helvetica,sans-Serif" font-size="10.00">OSMutexQueue</text>
</a>
</g>
</g>
<!-- Node10&#45;&gt;Node15 -->
<g id="edge21_Node000015_Node000010" class="edge">
<title>Node10&#45;&gt;Node15</title>
<g id="a_edge21_Node000015_Node000010"><a xlink:title=" ">
<path fill="none" stroke="#9a32cd" stroke-dasharray="5,2" d="M639.55,-294.82C648.43,-290.87 657.95,-286.37 666.5,-281.75 689.72,-269.19 715.19,-251.96 729.96,-241.6"/>
<polygon fill="#9a32cd" stroke="#9a32cd" points="638.3,-291.54 630.51,-298.72 641.08,-297.97 638.3,-291.54"/>
</a>
</g>
<text text-anchor="middle" x="714.12" y="-272.25" font-family="Helvetica,sans-Serif" font-size="10.00" fill="grey"> head</text>
<text text-anchor="middle" x="714.12" y="-261" font-family="Helvetica,sans-Serif" font-size="10.00" fill="grey">tail</text>
</g>
<!-- Node16 -->
<g id="Node000016" class="node">
<title>Node16</title>
<g id="a_Node000016"><a xlink:href="structOSMutexLink.html" target="_top" xlink:title=" ">
<polygon fill="white" stroke="#666666" points="376.12,-241.25 300.88,-241.25 300.88,-222 376.12,-222 376.12,-241.25"/>
<text text-anchor="middle" x="338.5" y="-227.75" font-family="Helvetica,sans-Serif" font-size="10.00">OSMutexLink</text>
</a>
</g>
</g>
<!-- Node10&#45;&gt;Node16 -->
<g id="edge24_Node000016_Node000010" class="edge">
<title>Node10&#45;&gt;Node16</title>
<g id="a_edge24_Node000016_Node000010"><a xlink:title=" ">
<path fill="none" stroke="#9a32cd" stroke-dasharray="5,2" d="M566.44,-308.53C525.38,-307.43 460.34,-302.17 408.25,-281.75 384.26,-272.35 360.66,-253.03 348,-241.62"/>
<polygon fill="#9a32cd" stroke="#9a32cd" points="566.29,-312.03 576.35,-308.71 566.42,-305.03 566.29,-312.03"/>
</a>
</g>
<text text-anchor="middle" x="417.62" y="-272.25" font-family="Helvetica,sans-Serif" font-size="10.00" fill="grey"> next</text>
<text text-anchor="middle" x="417.62" y="-261" font-family="Helvetica,sans-Serif" font-size="10.00" fill="grey">prev</text>
</g>
<!-- Node10&#45;&gt;Node17 -->
<g id="edge30_Node000017_Node000010" class="edge">
<title>Node10&#45;&gt;Node17</title>
<g id="a_edge30_Node000017_Node000010"><a xlink:title=" ">
<path fill="none" stroke="#9a32cd" stroke-dasharray="5,2" d="M646.47,-308.15C738.89,-306.54 959.5,-296.05 959.5,-232.62 959.5,-232.62 959.5,-232.62 959.5,-75.12 959.5,-26.26 607.69,-14.27 470.95,-11.45"/>
<polygon fill="#9a32cd" stroke="#9a32cd" points="646.55,-304.64 636.6,-308.29 646.65,-311.64 646.55,-304.64"/>
</a>
</g>
<text text-anchor="middle" x="979.38" y="-155.62" font-family="Helvetica,sans-Serif" font-size="10.00" fill="grey"> field_0x4</text>
</g>
<!-- Node11 -->
<g id="Node000011" class="node">
<title>Node11</title>
<g id="a_Node000011"><a xlink:href="structOSThreadQueue.html" target="_top" xlink:title=" ">
<polygon fill="white" stroke="#666666" points="683.88,-85.75 595.12,-85.75 595.12,-66.5 683.88,-66.5 683.88,-85.75"/>
<text text-anchor="middle" x="639.5" y="-72.25" font-family="Helvetica,sans-Serif" font-size="10.00">OSThreadQueue</text>
</a>
</g>
</g>
<!-- Node11&#45;&gt;Node10 -->
<g id="edge13_Node000010_Node000011" class="edge">
<title>Node11&#45;&gt;Node10</title>
<g id="a_edge13_Node000010_Node000011"><a xlink:title=" ">
<path fill="none" stroke="#9a32cd" stroke-dasharray="5,2" d="M631.61,-96.44C630.81,-98.87 630.08,-101.35 629.5,-103.75 611.73,-177.79 607.61,-270.28 606.72,-299.26"/>
<polygon fill="#9a32cd" stroke="#9a32cd" points="634.83,-97.84 635.07,-87.24 628.28,-95.37 634.83,-97.84"/>
</a>
</g>
<text text-anchor="middle" x="627.75" y="-194.5" font-family="Helvetica,sans-Serif" font-size="10.00" fill="grey"> queue</text>
</g>
<!-- Node11&#45;&gt;Node12 -->
<g id="edge16_Node000012_Node000011" class="edge">
<title>Node11&#45;&gt;Node12</title>
<g id="a_edge16_Node000012_Node000011"><a xlink:title=" ">
<path fill="none" stroke="#9a32cd" stroke-dasharray="5,2" d="M656.81,-93.54C667.64,-103.46 682.08,-116.12 695.75,-126.25 707.32,-134.82 721.2,-143.39 731.67,-149.53"/>
<polygon fill="#9a32cd" stroke="#9a32cd" points="659.48,-91.24 649.77,-86.98 654.71,-96.36 659.48,-91.24"/>
</a>
</g>
<text text-anchor="middle" x="719.88" y="-116.75" font-family="Helvetica,sans-Serif" font-size="10.00" fill="grey"> join_queue</text>
<text text-anchor="middle" x="719.88" y="-105.5" font-family="Helvetica,sans-Serif" font-size="10.00" fill="grey">queue</text>
</g>
<!-- Node12&#45;&gt;Node10 -->
<g id="edge22_Node000010_Node000012" class="edge">
<title>Node12&#45;&gt;Node10</title>
<g id="a_edge22_Node000010_Node000012"><a xlink:title=" ">
<path fill="none" stroke="#9a32cd" stroke-dasharray="5,2" d="M721.79,-175.46C703.78,-186.76 679.87,-203.44 662.25,-222 650.02,-234.88 623.12,-279.93 611.74,-299.35"/>
<polygon fill="#9a32cd" stroke="#9a32cd" points="723.36,-178.6 730.07,-170.41 719.71,-172.63 723.36,-178.6"/>
</a>
</g>
<text text-anchor="middle" x="676.12" y="-227.75" font-family="Helvetica,sans-Serif" font-size="10.00" fill="grey"> thread</text>
</g>
<!-- Node12&#45;&gt;Node11 -->
<g id="edge14_Node000011_Node000012" class="edge">
<title>Node12&#45;&gt;Node11</title>
<g id="a_edge14_Node000011_Node000012"><a xlink:title=" ">
<path fill="none" stroke="#9a32cd" stroke-dasharray="5,2" d="M705.76,-157.35C682.56,-154.32 655.39,-146.29 640.25,-126.25 631.51,-114.68 634.05,-96.81 636.74,-86.11"/>
<polygon fill="#9a32cd" stroke="#9a32cd" points="705.3,-160.82 715.6,-158.35 706,-153.86 705.3,-160.82"/>
</a>
</g>
<text text-anchor="middle" x="651.12" y="-116.75" font-family="Helvetica,sans-Serif" font-size="10.00" fill="grey"> head</text>
<text text-anchor="middle" x="651.12" y="-105.5" font-family="Helvetica,sans-Serif" font-size="10.00" fill="grey">tail</text>
</g>
<!-- Node14 -->
<g id="Node000014" class="node">
<title>Node14</title>
<g id="a_Node000014"><a xlink:href="structOSThreadLink.html" target="_top" xlink:title=" ">
<polygon fill="white" stroke="#666666" points="852,-85.75 773,-85.75 773,-66.5 852,-66.5 852,-85.75"/>
<text text-anchor="middle" x="812.5" y="-72.25" font-family="Helvetica,sans-Serif" font-size="10.00">OSThreadLink</text>
</a>
</g>
</g>
<!-- Node12&#45;&gt;Node14 -->
<g id="edge18_Node000014_Node000012" class="edge">
<title>Node12&#45;&gt;Node14</title>
<g id="a_edge18_Node000014_Node000012"><a xlink:title=" ">
<path fill="none" stroke="#9a32cd" stroke-dasharray="5,2" d="M789.11,-155.65C809.29,-151.93 831.86,-143.78 844.5,-126.25 850.35,-118.14 848.75,-112.8 844.5,-103.75 841.13,-96.55 834.74,-90.62 828.56,-86.2"/>
<polygon fill="#9a32cd" stroke="#9a32cd" points="788.77,-152.17 779.4,-157.11 789.81,-159.09 788.77,-152.17"/>
</a>
</g>
<text text-anchor="middle" x="857.62" y="-116.75" font-family="Helvetica,sans-Serif" font-size="10.00" fill="grey"> next</text>
<text text-anchor="middle" x="857.62" y="-105.5" font-family="Helvetica,sans-Serif" font-size="10.00" fill="grey">prev</text>
</g>
<!-- Node13 -->
<g id="Node000013" class="node">
<title>Node13</title>
<g id="a_Node000013"><a xlink:href="structOSContext.html" target="_top" xlink:title=" ">
<polygon fill="white" stroke="#666666" points="866.12,-241.25 802.88,-241.25 802.88,-222 866.12,-222 866.12,-241.25"/>
<text text-anchor="middle" x="834.5" y="-227.75" font-family="Helvetica,sans-Serif" font-size="10.00">OSContext</text>
</a>
</g>
</g>
<!-- Node13&#45;&gt;Node12 -->
<g id="edge15_Node000012_Node000013" class="edge">
<title>Node13&#45;&gt;Node12</title>
<g id="a_edge15_Node000012_Node000013"><a xlink:title=" ">
<path fill="none" stroke="#9a32cd" stroke-dasharray="5,2" d="M826.13,-211.35C822.62,-204.86 818.05,-197.94 812.5,-192.75 801.56,-182.5 786.74,-174.81 774.02,-169.52"/>
<polygon fill="#9a32cd" stroke="#9a32cd" points="822.87,-212.66 830.36,-220.15 829.18,-209.62 822.87,-212.66"/>
</a>
</g>
<text text-anchor="middle" x="838.38" y="-194.5" font-family="Helvetica,sans-Serif" font-size="10.00" fill="grey"> context</text>
</g>
<!-- Node14&#45;&gt;Node12 -->
<g id="edge17_Node000012_Node000014" class="edge">
<title>Node14&#45;&gt;Node12</title>
<g id="a_edge17_Node000012_Node000014"><a xlink:title=" ">
<path fill="none" stroke="#9a32cd" stroke-dasharray="5,2" d="M772.19,-91.48C766.89,-94.81 762,-98.86 758.25,-103.75 747.88,-117.28 746.68,-138.08 746.95,-149.77"/>
<polygon fill="#9a32cd" stroke="#9a32cd" points="773.53,-94.73 780.7,-86.93 770.23,-88.56 773.53,-94.73"/>
</a>
</g>
<text text-anchor="middle" x="800.62" y="-116.75" font-family="Helvetica,sans-Serif" font-size="10.00" fill="grey"> active_threads_link</text>
<text text-anchor="middle" x="800.62" y="-105.5" font-family="Helvetica,sans-Serif" font-size="10.00" fill="grey">link</text>
</g>
<!-- Node15&#45;&gt;Node12 -->
<g id="edge20_Node000012_Node000015" class="edge">
<title>Node15&#45;&gt;Node12</title>
<g id="a_edge20_Node000012_Node000015"><a xlink:title=" ">
<path fill="none" stroke="#9a32cd" stroke-dasharray="5,2" d="M740.21,-210.58C740.02,-208.36 739.86,-206.13 739.75,-204 739.49,-199.01 739.16,-197.72 739.75,-192.75 740.7,-184.74 742.93,-175.85 744.75,-169.43"/>
<polygon fill="#9a32cd" stroke="#9a32cd" points="736.7,-210.67 741.2,-220.26 743.66,-209.96 736.7,-210.67"/>
</a>
</g>
<text text-anchor="middle" x="775.88" y="-194.5" font-family="Helvetica,sans-Serif" font-size="10.00" fill="grey"> owned_mutexes</text>
</g>
<!-- Node16&#45;&gt;Node10 -->
<g id="edge23_Node000010_Node000016" class="edge">
<title>Node16&#45;&gt;Node10</title>
<g id="a_edge23_Node000010_Node000016"><a xlink:title=" ">
<path fill="none" stroke="#9a32cd" stroke-dasharray="5,2" d="M381.51,-244.78C436.64,-260.36 530.7,-286.95 577.82,-300.27"/>
<polygon fill="#9a32cd" stroke="#9a32cd" points="382.73,-241.49 372.16,-242.14 380.83,-248.23 382.73,-241.49"/>
</a>
</g>
<text text-anchor="middle" x="520.12" y="-266.62" font-family="Helvetica,sans-Serif" font-size="10.00" fill="grey"> link</text>
</g>
<!-- Node17&#45;&gt;Node1 -->
<g id="edge28_Node000001_Node000017" class="edge">
<title>Node17&#45;&gt;Node1</title>
<g id="a_edge28_Node000001_Node000017"><a xlink:title=" ">
<path fill="none" stroke="#9a32cd" stroke-dasharray="5,2" d="M352.76,-15.06C316.27,-18.81 275.3,-25.52 261.5,-37.25 253.03,-44.45 250.07,-57.45 249.04,-66.18"/>
<polygon fill="#9a32cd" stroke="#9a32cd" points="352.78,-18.57 362.4,-14.13 352.11,-11.6 352.78,-18.57"/>
</a>
</g>
<text text-anchor="middle" x="278" y="-39" font-family="Helvetica,sans-Serif" font-size="10.00" fill="grey"> mBank</text>
</g>
<!-- Node18 -->
<g id="Node000018" class="node">
<title>Node18</title>
<g id="a_Node000018"><a xlink:href="classJASWaveBank.html" target="_top" xlink:title=" ">
<polygon fill="white" stroke="#666666" points="576.5,-85.75 494.5,-85.75 494.5,-66.5 576.5,-66.5 576.5,-85.75"/>
<text text-anchor="middle" x="535.5" y="-72.25" font-family="Helvetica,sans-Serif" font-size="10.00">JASWaveBank</text>
</a>
</g>
</g>
<!-- Node18&#45;&gt;Node17 -->
<g id="edge29_Node000017_Node000018" class="edge">
<title>Node18&#45;&gt;Node17</title>
<g id="a_edge29_Node000017_Node000018"><a xlink:title=" ">
<path fill="none" stroke="#63b8ff" d="M509.05,-60.67C486.08,-48.11 453.54,-30.32 434.07,-19.68"/>
<polygon fill="#63b8ff" stroke="#63b8ff" points="507.06,-63.57 517.52,-65.29 510.42,-57.43 507.06,-63.57"/>
</a>
</g>
</g>
<!-- Node19&#45;&gt;Node17 -->
<g id="edge31_Node000017_Node000019" class="edge">
<title>Node19&#45;&gt;Node17</title>
<g id="a_edge31_Node000017_Node000019"><a xlink:title=" ">
<path fill="none" stroke="#9a32cd" stroke-dasharray="5,2" d="M424.42,-138.52C422.66,-106 419.25,-42.9 417.98,-19.57"/>
<polygon fill="#9a32cd" stroke="#9a32cd" points="420.91,-138.38 424.94,-148.18 427.9,-138.01 420.91,-138.38"/>
</a>
</g>
<text text-anchor="middle" x="451.12" y="-72.25" font-family="Helvetica,sans-Serif" font-size="10.00" fill="grey"> mWaveTable</text>
</g>
<!-- Node20 -->
<g id="Node000020" class="node">
<title>Node20</title>
<g id="a_Node000020"><a xlink:href="classJASWaveHandle.html" target="_top" xlink:title=" ">
<polygon fill="white" stroke="#666666" points="578.62,-241.25 488.38,-241.25 488.38,-222 578.62,-222 578.62,-241.25"/>
<text text-anchor="middle" x="533.5" y="-227.75" font-family="Helvetica,sans-Serif" font-size="10.00">JASWaveHandle</text>
</a>
</g>
</g>
<!-- Node20&#45;&gt;Node19 -->
<g id="edge32_Node000019_Node000020" class="edge">
<title>Node20&#45;&gt;Node19</title>
<g id="a_edge32_Node000019_Node000020"><a xlink:title=" ">
<path fill="none" stroke="#63b8ff" d="M510.41,-215.64C488.85,-201.63 457.36,-181.19 439.41,-169.53"/>
<polygon fill="#63b8ff" stroke="#63b8ff" points="508.26,-218.41 518.55,-220.92 512.07,-212.54 508.26,-218.41"/>
</a>
</g>
</g>
<!-- Node21 -->
<g id="Node000021" class="node">
<title>Node21</title>
<g id="a_Node000021"><a xlink:href="structJASWaveInfo.html" target="_top" xlink:title=" ">
<polygon fill="white" stroke="#666666" points="470.5,-241.25 394.5,-241.25 394.5,-222 470.5,-222 470.5,-241.25"/>
<text text-anchor="middle" x="432.5" y="-227.75" font-family="Helvetica,sans-Serif" font-size="10.00">JASWaveInfo</text>
</a>
</g>
</g>
<!-- Node21&#45;&gt;Node19 -->
<g id="edge33_Node000019_Node000021" class="edge">
<title>Node21&#45;&gt;Node19</title>
<g id="a_edge33_Node000019_Node000021"><a xlink:title=" ">
<path fill="none" stroke="#9a32cd" stroke-dasharray="5,2" d="M430.51,-210.66C429.16,-197.12 427.43,-179.87 426.4,-169.53"/>
<polygon fill="#9a32cd" stroke="#9a32cd" points="426.99,-210.63 431.46,-220.24 433.95,-209.94 426.99,-210.63"/>
</a>
</g>
<text text-anchor="middle" x="449.38" y="-194.5" font-family="Helvetica,sans-Serif" font-size="10.00" fill="grey"> field_0x4</text>
</g>
<!-- Node22 -->
<g id="Node000022" class="node">
<title>Node22</title>
<g id="a_Node000022"><a xlink:href="structJASBasicWaveBank_1_1TGroupWaveInfo.html" target="_top" xlink:title=" ">
<polygon fill="white" stroke="#666666" points="191.25,-174.75 47.75,-174.75 47.75,-144.25 191.25,-144.25 191.25,-174.75"/>
<text text-anchor="start" x="55.75" y="-161.25" font-family="Helvetica,sans-Serif" font-size="10.00">JASBasicWaveBank::TGroup</text>
<text text-anchor="middle" x="119.5" y="-150" font-family="Helvetica,sans-Serif" font-size="10.00">WaveInfo</text>
</a>
</g>
</g>
<!-- Node22&#45;&gt;Node1 -->
<g id="edge36_Node000001_Node000022" class="edge">
<title>Node22&#45;&gt;Node1</title>
<g id="a_edge36_Node000001_Node000022"><a xlink:title=" ">
<path fill="none" stroke="#9a32cd" stroke-dasharray="5,2" d="M136.98,-135.08C146.04,-124.29 157.9,-112.06 170.75,-103.75 182.61,-96.08 196.92,-90.36 210.02,-86.23"/>
<polygon fill="#9a32cd" stroke="#9a32cd" points="134.25,-132.88 130.72,-142.88 139.71,-137.26 134.25,-132.88"/>
</a>
</g>
<text text-anchor="middle" x="207.88" y="-111.12" font-family="Helvetica,sans-Serif" font-size="10.00" fill="grey"> mCtrlWaveArray</text>
</g>
</g>
</svg>
