<?xml version="1.0" encoding="UTF-8" standalone="no"?>
<!DOCTYPE svg PUBLIC "-//W3C//DTD SVG 1.1//EN"
 "http://www.w3.org/Graphics/SVG/1.1/DTD/svg11.dtd">
<!-- Generated by graphviz version 9.0.0 (20230911.1827)
 -->
<!-- Title: J3DAnmTextureSRTKey Pages: 1 -->
<svg width="467pt" height="261pt"
 viewBox="0.00 0.00 466.75 260.50" xmlns="http://www.w3.org/2000/svg" xmlns:xlink="http://www.w3.org/1999/xlink">
<g id="graph0" class="graph" transform="scale(1 1) rotate(0) translate(4 256.5)">
<title>J3DAnmTextureSRTKey</title>
<!-- Node1 -->
<g id="Node000001" class="node">
<title>Node1</title>
<g id="a_Node000001"><a xlink:title=" ">
<polygon fill="#999999" stroke="#666666" points="262.88,-19.25 141.12,-19.25 141.12,0 262.88,0 262.88,-19.25"/>
<text text-anchor="middle" x="202" y="-5.75" font-family="Helvetica,sans-Serif" font-size="10.00">J3DAnmTextureSRTKey</text>
</a>
</g>
</g>
<!-- Node2 -->
<g id="Node000002" class="node">
<title>Node2</title>
<g id="a_Node000002"><a xlink:href="classJ3DAnmBase.html" target="_top" xlink:title=" ">
<polygon fill="white" stroke="#666666" points="76,-97 0,-97 0,-77.75 76,-77.75 76,-97"/>
<text text-anchor="middle" x="38" y="-83.5" font-family="Helvetica,sans-Serif" font-size="10.00">J3DAnmBase</text>
</a>
</g>
</g>
<!-- Node2&#45;&gt;Node1 -->
<g id="edge1_Node000001_Node000002" class="edge">
<title>Node2&#45;&gt;Node1</title>
<g id="a_edge1_Node000001_Node000002"><a xlink:title=" ">
<path fill="none" stroke="#63b8ff" d="M67.49,-72.75C100.71,-57.41 153.78,-32.9 182.31,-19.72"/>
<polygon fill="#63b8ff" stroke="#63b8ff" points="66.44,-69.38 58.83,-76.75 69.38,-75.74 66.44,-69.38"/>
</a>
</g>
</g>
<!-- Node3 -->
<g id="Node000003" class="node">
<title>Node3</title>
<g id="a_Node000003"><a xlink:href="structJ3DAnmTransformKeyTable.html" target="_top" xlink:title=" ">
<polygon fill="white" stroke="#666666" points="232.12,-97 93.88,-97 93.88,-77.75 232.12,-77.75 232.12,-97"/>
<text text-anchor="middle" x="163" y="-83.5" font-family="Helvetica,sans-Serif" font-size="10.00">J3DAnmTransformKeyTable</text>
</a>
</g>
</g>
<!-- Node3&#45;&gt;Node1 -->
<g id="edge2_Node000001_Node000003" class="edge">
<title>Node3&#45;&gt;Node1</title>
<g id="a_edge2_Node000001_Node000003"><a xlink:title=" ">
<path fill="none" stroke="#9a32cd" stroke-dasharray="5,2" d="M159.52,-66.08C158.9,-56.79 159.6,-45.94 164.25,-37.25 168.26,-29.75 175.42,-23.9 182.44,-19.61"/>
<polygon fill="#9a32cd" stroke="#9a32cd" points="156.04,-66.45 160.76,-75.93 162.98,-65.57 156.04,-66.45"/>
</a>
</g>
<text text-anchor="middle" x="191.38" y="-44.62" font-family="Helvetica,sans-Serif" font-size="10.00" fill="grey"> mAnmTable</text>
</g>
<!-- Node4 -->
<g id="Node000004" class="node">
<title>Node4</title>
<g id="a_Node000004"><a xlink:href="structJ3DAnmKeyTableBase.html" target="_top" xlink:title=" ">
<polygon fill="white" stroke="#666666" points="221.25,-186 104.75,-186 104.75,-166.75 221.25,-166.75 221.25,-186"/>
<text text-anchor="middle" x="163" y="-172.5" font-family="Helvetica,sans-Serif" font-size="10.00">J3DAnmKeyTableBase</text>
</a>
</g>
</g>
<!-- Node4&#45;&gt;Node3 -->
<g id="edge3_Node000003_Node000004" class="edge">
<title>Node4&#45;&gt;Node3</title>
<g id="a_edge3_Node000003_Node000004"><a xlink:title=" ">
<path fill="none" stroke="#9a32cd" stroke-dasharray="5,2" d="M163,-155.01C163,-136.8 163,-110.97 163,-97.44"/>
<polygon fill="#9a32cd" stroke="#9a32cd" points="159.5,-154.88 163,-164.88 166.5,-154.88 159.5,-154.88"/>
</a>
</g>
<text text-anchor="middle" x="195.62" y="-139.25" font-family="Helvetica,sans-Serif" font-size="10.00" fill="grey"> mRotationInfo</text>
<text text-anchor="middle" x="195.62" y="-128" font-family="Helvetica,sans-Serif" font-size="10.00" fill="grey">mScaleInfo</text>
<text text-anchor="middle" x="195.62" y="-116.75" font-family="Helvetica,sans-Serif" font-size="10.00" fill="grey">mTranslateInfo</text>
</g>
<!-- Node5 -->
<g id="Node000005" class="node">
<title>Node5</title>
<g id="a_Node000005"><a xlink:href="structJUTNameTab.html" target="_top" xlink:title=" ">
<polygon fill="white" stroke="#666666" points="327.75,-97 250.25,-97 250.25,-77.75 327.75,-77.75 327.75,-97"/>
<text text-anchor="middle" x="289" y="-83.5" font-family="Helvetica,sans-Serif" font-size="10.00">JUTNameTab</text>
</a>
</g>
</g>
<!-- Node5&#45;&gt;Node1 -->
<g id="edge4_Node000001_Node000005" class="edge">
<title>Node5&#45;&gt;Node1</title>
<g id="a_edge4_Node000001_Node000005"><a xlink:title=" ">
<path fill="none" stroke="#9a32cd" stroke-dasharray="5,2" d="M259.31,-71.79C253.3,-68.23 247.23,-64.17 242,-59.75 227.72,-47.68 214.76,-29.98 207.67,-19.45"/>
<polygon fill="#9a32cd" stroke="#9a32cd" points="257.43,-74.75 267.87,-76.52 260.82,-68.62 257.43,-74.75"/>
</a>
</g>
<text text-anchor="middle" x="303.5" y="-50.25" font-family="Helvetica,sans-Serif" font-size="10.00" fill="grey"> mPostUpdateMaterialName</text>
<text text-anchor="middle" x="303.5" y="-39" font-family="Helvetica,sans-Serif" font-size="10.00" fill="grey">mUpdateMaterialName</text>
</g>
<!-- Node6 -->
<g id="Node000006" class="node">
<title>Node6</title>
<g id="a_Node000006"><a xlink:href="structResNTAB.html" target="_top" xlink:title=" ">
<polygon fill="white" stroke="#666666" points="319.12,-186 258.88,-186 258.88,-166.75 319.12,-166.75 319.12,-186"/>
<text text-anchor="middle" x="289" y="-172.5" font-family="Helvetica,sans-Serif" font-size="10.00">ResNTAB</text>
</a>
</g>
</g>
<!-- Node6&#45;&gt;Node5 -->
<g id="edge5_Node000005_Node000006" class="edge">
<title>Node6&#45;&gt;Node5</title>
<g id="a_edge5_Node000005_Node000006"><a xlink:title=" ">
<path fill="none" stroke="#9a32cd" stroke-dasharray="5,2" d="M289,-155.01C289,-136.8 289,-110.97 289,-97.44"/>
<polygon fill="#9a32cd" stroke="#9a32cd" points="285.5,-154.88 289,-164.88 292.5,-154.88 285.5,-154.88"/>
</a>
</g>
<text text-anchor="middle" x="319.38" y="-128" font-family="Helvetica,sans-Serif" font-size="10.00" fill="grey"> mNameTable</text>
</g>
<!-- Node7 -->
<g id="Node000007" class="node">
<title>Node7</title>
<g id="a_Node000007"><a xlink:href="structResNTAB_1_1Entry.html" target="_top" xlink:title=" ">
<polygon fill="white" stroke="#666666" points="332.25,-252.5 245.75,-252.5 245.75,-233.25 332.25,-233.25 332.25,-252.5"/>
<text text-anchor="middle" x="289" y="-239" font-family="Helvetica,sans-Serif" font-size="10.00">ResNTAB::Entry</text>
</a>
</g>
</g>
<!-- Node7&#45;&gt;Node6 -->
<g id="edge6_Node000006_Node000007" class="edge">
<title>Node7&#45;&gt;Node6</title>
<g id="a_edge6_Node000006_Node000007"><a xlink:title=" ">
<path fill="none" stroke="#9a32cd" stroke-dasharray="5,2" d="M289,-221.4C289,-209.57 289,-195.29 289,-186.27"/>
<polygon fill="#9a32cd" stroke="#9a32cd" points="285.5,-221.39 289,-231.39 292.5,-221.39 285.5,-221.39"/>
</a>
</g>
<text text-anchor="middle" x="309.25" y="-205.75" font-family="Helvetica,sans-Serif" font-size="10.00" fill="grey"> mEntries</text>
</g>
<!-- Node8 -->
<g id="Node000008" class="node">
<title>Node8</title>
<g id="a_Node000008"><a xlink:href="structVec.html" target="_top" xlink:title=" ">
<polygon fill="white" stroke="#666666" points="403.62,-97 370.38,-97 370.38,-77.75 403.62,-77.75 403.62,-97"/>
<text text-anchor="middle" x="387" y="-83.5" font-family="Helvetica,sans-Serif" font-size="10.00">Vec</text>
</a>
</g>
</g>
<!-- Node8&#45;&gt;Node1 -->
<g id="edge7_Node000001_Node000008" class="edge">
<title>Node8&#45;&gt;Node1</title>
<g id="a_edge7_Node000001_Node000008"><a xlink:title=" ">
<path fill="none" stroke="#9a32cd" stroke-dasharray="5,2" d="M382.89,-66.56C379.73,-56.26 374.26,-44.38 365,-37.25 349.21,-25.1 302.51,-18.29 263.12,-14.61"/>
<polygon fill="#9a32cd" stroke="#9a32cd" points="379.45,-67.22 385.27,-76.07 386.24,-65.52 379.45,-67.22"/>
</a>
</g>
<text text-anchor="middle" x="419.38" y="-50.25" font-family="Helvetica,sans-Serif" font-size="10.00" fill="grey"> mPostSRTCenter</text>
<text text-anchor="middle" x="419.38" y="-39" font-family="Helvetica,sans-Serif" font-size="10.00" fill="grey">mSRTCenter</text>
</g>
</g>
</svg>
