<?xml version="1.0" encoding="UTF-8" standalone="no"?>
<!DOCTYPE svg PUBLIC "-//W3C//DTD SVG 1.1//EN"
 "http://www.w3.org/Graphics/SVG/1.1/DTD/svg11.dtd">
<!-- Generated by graphviz version 9.0.0 (20230911.1827)
 -->
<!-- Title: cBgS_LinChk Pages: 1 -->
<svg width="427pt" height="299pt"
 viewBox="0.00 0.00 427.38 298.50" xmlns="http://www.w3.org/2000/svg" xmlns:xlink="http://www.w3.org/1999/xlink">

<svg id="main" version="1.1" xmlns="http://www.w3.org/2000/svg" xmlns:xlink="http://www.w3.org/1999/xlink" xml:space="preserve" onload="init(evt)">
<style type="text/css"><![CDATA[
.node, .edge {opacity: 0.7;}
.node.selected, .edge.selected {opacity: 1;}
.edge:hover path { stroke: red; }
.edge:hover polygon { stroke: red; fill: red; }
]]></style>
<script type="application/ecmascript" xlink:href="svg.min.js"/>
<svg id="graph" class="graph">
<g id="graph0" class="graph" transform="scale(1 1) rotate(0) translate(4 294.5)">
<title>cBgS_LinChk</title>
<!-- Node1 -->
<g id="Node000001" class="node">
<title>Node1</title>
<g id="a_Node000001"><a xlink:title=" ">
<polygon fill="#999999" stroke="#666666" points="294.88,-19.25 218.88,-19.25 218.88,0 294.88,0 294.88,-19.25"/>
<text text-anchor="middle" x="256.88" y="-5.75" font-family="Helvetica,sans-Serif" font-size="10.00">cBgS_LinChk</text>
</a>
</g>
</g>
<!-- Node2 -->
<g id="Node000002" class="node">
<title>Node2</title>
<g id="a_Node000002"><a xlink:href="classcBgS__Chk.html" target="_top" xlink:title=" ">
<polygon fill="white" stroke="#666666" points="160.12,-85.75 97.62,-85.75 97.62,-66.5 160.12,-66.5 160.12,-85.75"/>
<text text-anchor="middle" x="128.88" y="-72.25" font-family="Helvetica,sans-Serif" font-size="10.00">cBgS_Chk</text>
</a>
</g>
</g>
<!-- Node2&#45;&gt;Node1 -->
<g id="edge1_Node000001_Node000002" class="edge">
<title>Node2&#45;&gt;Node1</title>
<g id="a_edge1_Node000001_Node000002"><a xlink:title=" ">
<path fill="none" stroke="#63b8ff" d="M156.9,-61C181.85,-48.43 217.59,-30.42 238.9,-19.68"/>
<polygon fill="#63b8ff" stroke="#63b8ff" points="155.65,-57.71 148.29,-65.34 158.8,-63.96 155.65,-57.71"/>
</a>
</g>
</g>
<!-- Node3 -->
<g id="Node000003" class="node">
<title>Node3</title>
<g id="a_Node000003"><a xlink:href="classcBgS__PolyPassChk.html" target="_top" xlink:title=" ">
<polygon fill="white" stroke="#666666" points="103.75,-198.88 0,-198.88 0,-179.62 103.75,-179.62 103.75,-198.88"/>
<text text-anchor="middle" x="51.88" y="-185.38" font-family="Helvetica,sans-Serif" font-size="10.00">cBgS_PolyPassChk</text>
</a>
</g>
</g>
<!-- Node3&#45;&gt;Node2 -->
<g id="edge2_Node000002_Node000003" class="edge">
<title>Node3&#45;&gt;Node2</title>
<g id="a_edge2_Node000002_Node000003"><a xlink:title=" ">
<path fill="none" stroke="#9a32cd" stroke-dasharray="5,2" d="M50.04,-167.98C49.46,-149.36 51.51,-121.97 65.88,-103.75 73.67,-93.87 85.81,-87.6 97.36,-83.65"/>
<polygon fill="#9a32cd" stroke="#9a32cd" points="46.53,-167.98 50.65,-177.74 53.52,-167.54 46.53,-167.98"/>
</a>
</g>
<text text-anchor="middle" x="100.38" y="-111.12" font-family="Helvetica,sans-Serif" font-size="10.00" fill="grey"> mPolyPassChk</text>
</g>
<!-- Node4 -->
<g id="Node000004" class="node">
<title>Node4</title>
<g id="a_Node000004"><a xlink:href="classcBgS__GrpPassChk.html" target="_top" xlink:title=" ">
<polygon fill="white" stroke="#666666" points="222.25,-198.88 121.5,-198.88 121.5,-179.62 222.25,-179.62 222.25,-198.88"/>
<text text-anchor="middle" x="171.88" y="-185.38" font-family="Helvetica,sans-Serif" font-size="10.00">cBgS_GrpPassChk</text>
</a>
</g>
</g>
<!-- Node4&#45;&gt;Node2 -->
<g id="edge3_Node000002_Node000004" class="edge">
<title>Node4&#45;&gt;Node2</title>
<g id="a_edge3_Node000002_Node000004"><a xlink:title=" ">
<path fill="none" stroke="#9a32cd" stroke-dasharray="5,2" d="M164.3,-168.68C154.89,-144.36 139.23,-103.88 132.32,-86.03"/>
<polygon fill="#9a32cd" stroke="#9a32cd" points="160.94,-169.68 167.81,-177.74 167.47,-167.16 160.94,-169.68"/>
</a>
</g>
<text text-anchor="middle" x="179.88" y="-111.12" font-family="Helvetica,sans-Serif" font-size="10.00" fill="grey"> mGrpPassChk</text>
</g>
<!-- Node5 -->
<g id="Node000005" class="node">
<title>Node5</title>
<g id="a_Node000005"><a xlink:href="structcBgS__PolyInfo.html" target="_top" xlink:title=" ">
<polygon fill="white" stroke="#666666" points="259.12,-85.75 178.62,-85.75 178.62,-66.5 259.12,-66.5 259.12,-85.75"/>
<text text-anchor="middle" x="218.88" y="-72.25" font-family="Helvetica,sans-Serif" font-size="10.00">cBgS_PolyInfo</text>
</a>
</g>
</g>
<!-- Node5&#45;&gt;Node1 -->
<g id="edge4_Node000001_Node000005" class="edge">
<title>Node5&#45;&gt;Node1</title>
<g id="a_edge4_Node000001_Node000005"><a xlink:title=" ">
<path fill="none" stroke="#63b8ff" d="M229.84,-56.51C237.01,-44.35 246.04,-29.02 251.64,-19.52"/>
<polygon fill="#63b8ff" stroke="#63b8ff" points="226.99,-54.46 224.93,-64.85 233.02,-58.01 226.99,-54.46"/>
</a>
</g>
</g>
<!-- Node6 -->
<g id="Node000006" class="node">
<title>Node6</title>
<g id="a_Node000006"><a xlink:href="structcM3dGLin.html" target="_top" xlink:title=" ">
<polygon fill="white" stroke="#666666" points="419.38,-85.75 358.38,-85.75 358.38,-66.5 419.38,-66.5 419.38,-85.75"/>
<text text-anchor="middle" x="388.88" y="-72.25" font-family="Helvetica,sans-Serif" font-size="10.00">cM3dGLin</text>
</a>
</g>
</g>
<!-- Node6&#45;&gt;Node1 -->
<g id="edge5_Node000001_Node000006" class="edge">
<title>Node6&#45;&gt;Node1</title>
<g id="a_edge5_Node000001_Node000006"><a xlink:title=" ">
<path fill="none" stroke="#9a32cd" stroke-dasharray="5,2" d="M359.97,-61C334.25,-48.43 297.38,-30.42 275.41,-19.68"/>
<polygon fill="#9a32cd" stroke="#9a32cd" points="358.36,-64.11 368.88,-65.36 361.43,-57.82 358.36,-64.11"/>
</a>
</g>
<text text-anchor="middle" x="341.88" y="-39" font-family="Helvetica,sans-Serif" font-size="10.00" fill="grey"> mLin</text>
</g>
<!-- Node7 -->
<g id="Node000007" class="node">
<title>Node7</title>
<g id="a_Node000007"><a xlink:href="structcXyz.html" target="_top" xlink:title=" ">
<polygon fill="white" stroke="#666666" points="345.38,-198.88 308.38,-198.88 308.38,-179.62 345.38,-179.62 345.38,-198.88"/>
<text text-anchor="middle" x="326.88" y="-185.38" font-family="Helvetica,sans-Serif" font-size="10.00">cXyz</text>
</a>
</g>
</g>
<!-- Node7&#45;&gt;Node1 -->
<g id="edge9_Node000001_Node000007" class="edge">
<title>Node7&#45;&gt;Node1</title>
<g id="a_edge9_Node000001_Node000007"><a xlink:title=" ">
<path fill="none" stroke="#9a32cd" stroke-dasharray="5,2" d="M319.16,-168.67C304.05,-130.34 271.11,-46.75 260.35,-19.45"/>
<polygon fill="#9a32cd" stroke="#9a32cd" points="315.83,-169.77 322.75,-177.79 322.34,-167.2 315.83,-169.77"/>
</a>
</g>
<text text-anchor="middle" x="308.38" y="-72.25" font-family="Helvetica,sans-Serif" font-size="10.00" fill="grey"> field_0x40</text>
</g>
<!-- Node7&#45;&gt;Node6 -->
<g id="edge6_Node000006_Node000007" class="edge">
<title>Node7&#45;&gt;Node6</title>
<g id="a_edge6_Node000006_Node000007"><a xlink:title=" ">
<path fill="none" stroke="#9a32cd" stroke-dasharray="5,2" d="M337.42,-169.34C350.95,-145.1 373.86,-104.04 383.9,-86.03"/>
<polygon fill="#9a32cd" stroke="#9a32cd" points="334.5,-167.4 332.69,-177.83 340.61,-170.81 334.5,-167.4"/>
</a>
</g>
<text text-anchor="middle" x="388.5" y="-116.75" font-family="Helvetica,sans-Serif" font-size="10.00" fill="grey"> mEnd</text>
<text text-anchor="middle" x="388.5" y="-105.5" font-family="Helvetica,sans-Serif" font-size="10.00" fill="grey">mStart</text>
</g>
<!-- Node7&#45;&gt;Node7 -->
<g id="edge8_Node000007_Node000007" class="edge">
<title>Node7&#45;&gt;Node7</title>
<g id="a_edge8_Node000007_Node000007"><a xlink:title=" ">
<path fill="none" stroke="#9a32cd" stroke-dasharray="5,2" d="M351.64,-201.07C358.31,-200.43 363.38,-196.49 363.38,-189.25 363.38,-178.21 351.61,-174.85 340.35,-179.16"/>
<polygon fill="#9a32cd" stroke="#9a32cd" points="352.26,-197.62 341.85,-199.57 351.2,-204.54 352.26,-197.62"/>
</a>
</g>
<text text-anchor="middle" x="384.38" y="-224.75" font-family="Helvetica,sans-Serif" font-size="10.00" fill="grey"> BaseX</text>
<text text-anchor="middle" x="384.38" y="-213.5" font-family="Helvetica,sans-Serif" font-size="10.00" fill="grey">BaseXY</text>
<text text-anchor="middle" x="384.38" y="-202.25" font-family="Helvetica,sans-Serif" font-size="10.00" fill="grey">BaseXYZ</text>
<text text-anchor="middle" x="384.38" y="-191" font-family="Helvetica,sans-Serif" font-size="10.00" fill="grey">BaseXZ</text>
<text text-anchor="middle" x="384.38" y="-179.75" font-family="Helvetica,sans-Serif" font-size="10.00" fill="grey">BaseY</text>
<text text-anchor="middle" x="384.38" y="-168.5" font-family="Helvetica,sans-Serif" font-size="10.00" fill="grey">BaseYZ</text>
<text text-anchor="middle" x="384.38" y="-157.25" font-family="Helvetica,sans-Serif" font-size="10.00" fill="grey">BaseZ</text>
<text text-anchor="middle" x="384.38" y="-146" font-family="Helvetica,sans-Serif" font-size="10.00" fill="grey">Zero</text>
</g>
<!-- Node8 -->
<g id="Node000008" class="node">
<title>Node8</title>
<g id="a_Node000008"><a xlink:href="structVec.html" target="_top" xlink:title=" ">
<polygon fill="white" stroke="#666666" points="343.5,-290.5 310.25,-290.5 310.25,-271.25 343.5,-271.25 343.5,-290.5"/>
<text text-anchor="middle" x="326.88" y="-277" font-family="Helvetica,sans-Serif" font-size="10.00">Vec</text>
</a>
</g>
</g>
<!-- Node8&#45;&gt;Node7 -->
<g id="edge7_Node000007_Node000008" class="edge">
<title>Node8&#45;&gt;Node7</title>
<g id="a_edge7_Node000007_Node000008"><a xlink:title=" ">
<path fill="none" stroke="#63b8ff" d="M326.88,-259.69C326.88,-240.69 326.88,-213.14 326.88,-199.14"/>
<polygon fill="#63b8ff" stroke="#63b8ff" points="323.38,-259.44 326.88,-269.44 330.38,-259.44 323.38,-259.44"/>
</a>
</g>
</g>
</g>
</svg>
</svg>

<style type='text/css'>
<![CDATA[
[data-mouse-over-selected='false'] { opacity: 0.7; }
[data-mouse-over-selected='true']  { opacity: 1.0; }
]]>
</style>
<script type="application/ecmascript"><![CDATA[
document.addEventListener('DOMContentLoaded', (event) => {
  highlightEdges();
  highlightAdjacentNodes();
});
]]></script>
</svg>
