<?xml version="1.0" encoding="UTF-8" standalone="no"?>
<!DOCTYPE svg PUBLIC "-//W3C//DTD SVG 1.1//EN"
 "http://www.w3.org/Graphics/SVG/1.1/DTD/svg11.dtd">
<!-- Generated by graphviz version 9.0.0 (20230911.1827)
 -->
<!-- Title: JASWSParser::THeader Pages: 1 -->
<svg width="413pt" height="98pt"
 viewBox="0.00 0.00 412.75 98.12" xmlns="http://www.w3.org/2000/svg" xmlns:xlink="http://www.w3.org/1999/xlink">
<g id="graph0" class="graph" transform="scale(1 1) rotate(0) translate(4 94.12)">
<title>JASWSParser::THeader</title>
<!-- Node1 -->
<g id="Node000001" class="node">
<title>Node1</title>
<g id="a_Node000001"><a xlink:title=" ">
<polygon fill="#999999" stroke="#666666" points="404.75,-51.88 283.75,-51.88 283.75,-32.62 404.75,-32.62 404.75,-51.88"/>
<text text-anchor="middle" x="344.25" y="-38.38" font-family="Helvetica,sans-Serif" font-size="10.00">JASWSParser::THeader</text>
</a>
</g>
</g>
<!-- Node2 -->
<g id="Node000002" class="node">
<title>Node2</title>
<g id="a_Node000002"><a xlink:href="classJASWSParser_1_1TOffset.html" target="_top" xlink:title=" ">
<polygon fill="white" stroke="#666666" points="155.5,-90.12 0,-90.12 0,-48.38 155.5,-48.38 155.5,-90.12"/>
<text text-anchor="start" x="8" y="-76.62" font-family="Helvetica,sans-Serif" font-size="10.00">JASWSParser::TOffset</text>
<text text-anchor="start" x="8" y="-65.38" font-family="Helvetica,sans-Serif" font-size="10.00">&lt; JASWSParser::TWaveArchive</text>
<text text-anchor="middle" x="77.75" y="-54.12" font-family="Helvetica,sans-Serif" font-size="10.00">Bank &gt;</text>
</a>
</g>
</g>
<!-- Node2&#45;&gt;Node1 -->
<g id="edge1_Node000001_Node000002" class="edge">
<title>Node2&#45;&gt;Node1</title>
<g id="a_edge1_Node000001_Node000002"><a xlink:title=" ">
<path fill="none" stroke="#9a32cd" stroke-dasharray="5,2" d="M167.13,-60.23C205.42,-56.32 249.25,-51.85 283.61,-48.34"/>
<polygon fill="#9a32cd" stroke="#9a32cd" points="167.06,-56.72 157.47,-61.21 167.77,-63.68 167.06,-56.72"/>
</a>
</g>
<text text-anchor="middle" x="219.62" y="-60" font-family="Helvetica,sans-Serif" font-size="10.00" fill="grey"> mArchiveBankOffset</text>
</g>
<!-- Node3 -->
<g id="Node000003" class="node">
<title>Node3</title>
<g id="a_Node000003"><a xlink:href="classJASWSParser_1_1TOffset.html" target="_top" xlink:title=" ">
<polygon fill="white" stroke="#666666" points="151.38,-30.5 4.12,-30.5 4.12,0 151.38,0 151.38,-30.5"/>
<text text-anchor="start" x="12.12" y="-17" font-family="Helvetica,sans-Serif" font-size="10.00">JASWSParser::TOffset</text>
<text text-anchor="middle" x="77.75" y="-5.75" font-family="Helvetica,sans-Serif" font-size="10.00">&lt; JASWSParser::TCtrlGroup &gt;</text>
</a>
</g>
</g>
<!-- Node3&#45;&gt;Node1 -->
<g id="edge2_Node000001_Node000003" class="edge">
<title>Node3&#45;&gt;Node1</title>
<g id="a_edge2_Node000001_Node000003"><a xlink:title=" ">
<path fill="none" stroke="#9a32cd" stroke-dasharray="5,2" d="M162.76,-23.56C194.97,-26.78 232.07,-30.52 265.75,-34 271.54,-34.6 277.57,-35.23 283.59,-35.86"/>
<polygon fill="#9a32cd" stroke="#9a32cd" points="163.39,-20.11 153.09,-22.6 162.69,-27.07 163.39,-20.11"/>
</a>
</g>
<text text-anchor="middle" x="219.62" y="-35" font-family="Helvetica,sans-Serif" font-size="10.00" fill="grey"> mCtrlGroupOffset</text>
</g>
</g>
</svg>
