<?xml version="1.0" encoding="UTF-8" standalone="no"?>
<!DOCTYPE svg PUBLIC "-//W3C//DTD SVG 1.1//EN"
 "http://www.w3.org/Graphics/SVG/1.1/DTD/svg11.dtd">
<!-- Generated by graphviz version 9.0.0 (20230911.1827)
 -->
<!-- Title: J3DAnmTevRegKey Pages: 1 -->
<svg width="488pt" height="272pt"
 viewBox="0.00 0.00 488.25 271.75" xmlns="http://www.w3.org/2000/svg" xmlns:xlink="http://www.w3.org/1999/xlink">
<g id="graph0" class="graph" transform="scale(1 1) rotate(0) translate(4 267.75)">
<title>J3DAnmTevRegKey</title>
<!-- Node1 -->
<g id="Node000001" class="node">
<title>Node1</title>
<g id="a_Node000001"><a xlink:title=" ">
<polygon fill="#999999" stroke="#666666" points="246.88,-19.25 143.12,-19.25 143.12,0 246.88,0 246.88,-19.25"/>
<text text-anchor="middle" x="195" y="-5.75" font-family="Helvetica,sans-Serif" font-size="10.00">J3DAnmTevRegKey</text>
</a>
</g>
</g>
<!-- Node2 -->
<g id="Node000002" class="node">
<title>Node2</title>
<g id="a_Node000002"><a xlink:href="classJ3DAnmBase.html" target="_top" xlink:title=" ">
<polygon fill="white" stroke="#666666" points="76,-97 0,-97 0,-77.75 76,-77.75 76,-97"/>
<text text-anchor="middle" x="38" y="-83.5" font-family="Helvetica,sans-Serif" font-size="10.00">J3DAnmBase</text>
</a>
</g>
</g>
<!-- Node2&#45;&gt;Node1 -->
<g id="edge1_Node000001_Node000002" class="edge">
<title>Node2&#45;&gt;Node1</title>
<g id="a_edge1_Node000001_Node000002"><a xlink:title=" ">
<path fill="none" stroke="#63b8ff" d="M59.05,-70.67C73.84,-60.17 94.42,-46.6 114,-37.25 128.96,-30.1 146.33,-24.11 161.15,-19.64"/>
<polygon fill="#63b8ff" stroke="#63b8ff" points="57.08,-67.78 51.03,-76.48 61.19,-73.44 57.08,-67.78"/>
</a>
</g>
</g>
<!-- Node3 -->
<g id="Node000003" class="node">
<title>Node3</title>
<g id="a_Node000003"><a xlink:href="structJUTNameTab.html" target="_top" xlink:title=" ">
<polygon fill="white" stroke="#666666" points="171.75,-97 94.25,-97 94.25,-77.75 171.75,-77.75 171.75,-97"/>
<text text-anchor="middle" x="133" y="-83.5" font-family="Helvetica,sans-Serif" font-size="10.00">JUTNameTab</text>
</a>
</g>
</g>
<!-- Node3&#45;&gt;Node1 -->
<g id="edge2_Node000001_Node000003" class="edge">
<title>Node3&#45;&gt;Node1</title>
<g id="a_edge2_Node000001_Node000003"><a xlink:title=" ">
<path fill="none" stroke="#9a32cd" stroke-dasharray="5,2" d="M121.82,-67.64C117.54,-57.86 115.03,-46.11 121.25,-37.25 126.88,-29.23 135.18,-23.61 144.2,-19.69"/>
<polygon fill="#9a32cd" stroke="#9a32cd" points="118.58,-69.01 126.31,-76.26 124.79,-65.77 118.58,-69.01"/>
</a>
</g>
<text text-anchor="middle" x="185.38" y="-50.25" font-family="Helvetica,sans-Serif" font-size="10.00" fill="grey"> mCRegUpdateMaterialName</text>
<text text-anchor="middle" x="185.38" y="-39" font-family="Helvetica,sans-Serif" font-size="10.00" fill="grey">mKRegUpdateMaterialName</text>
</g>
<!-- Node4 -->
<g id="Node000004" class="node">
<title>Node4</title>
<g id="a_Node000004"><a xlink:href="structResNTAB.html" target="_top" xlink:title=" ">
<polygon fill="white" stroke="#666666" points="163.12,-197.25 102.88,-197.25 102.88,-178 163.12,-178 163.12,-197.25"/>
<text text-anchor="middle" x="133" y="-183.75" font-family="Helvetica,sans-Serif" font-size="10.00">ResNTAB</text>
</a>
</g>
</g>
<!-- Node4&#45;&gt;Node3 -->
<g id="edge3_Node000003_Node000004" class="edge">
<title>Node4&#45;&gt;Node3</title>
<g id="a_edge3_Node000003_Node000004"><a xlink:title=" ">
<path fill="none" stroke="#9a32cd" stroke-dasharray="5,2" d="M133,-166.32C133,-145.17 133,-112.98 133,-97.42"/>
<polygon fill="#9a32cd" stroke="#9a32cd" points="129.5,-166.04 133,-176.04 136.5,-166.04 129.5,-166.04"/>
</a>
</g>
<text text-anchor="middle" x="163.38" y="-133.62" font-family="Helvetica,sans-Serif" font-size="10.00" fill="grey"> mNameTable</text>
</g>
<!-- Node5 -->
<g id="Node000005" class="node">
<title>Node5</title>
<g id="a_Node000005"><a xlink:href="structResNTAB_1_1Entry.html" target="_top" xlink:title=" ">
<polygon fill="white" stroke="#666666" points="176.25,-263.75 89.75,-263.75 89.75,-244.5 176.25,-244.5 176.25,-263.75"/>
<text text-anchor="middle" x="133" y="-250.25" font-family="Helvetica,sans-Serif" font-size="10.00">ResNTAB::Entry</text>
</a>
</g>
</g>
<!-- Node5&#45;&gt;Node4 -->
<g id="edge4_Node000004_Node000005" class="edge">
<title>Node5&#45;&gt;Node4</title>
<g id="a_edge4_Node000004_Node000005"><a xlink:title=" ">
<path fill="none" stroke="#9a32cd" stroke-dasharray="5,2" d="M133,-232.65C133,-220.82 133,-206.54 133,-197.52"/>
<polygon fill="#9a32cd" stroke="#9a32cd" points="129.5,-232.64 133,-242.64 136.5,-232.64 129.5,-232.64"/>
</a>
</g>
<text text-anchor="middle" x="153.25" y="-217" font-family="Helvetica,sans-Serif" font-size="10.00" fill="grey"> mEntries</text>
</g>
<!-- Node6 -->
<g id="Node000006" class="node">
<title>Node6</title>
<g id="a_Node000006"><a xlink:href="structJ3DAnmCRegKeyTable.html" target="_top" xlink:title=" ">
<polygon fill="white" stroke="#666666" points="325,-97 207,-97 207,-77.75 325,-77.75 325,-97"/>
<text text-anchor="middle" x="266" y="-83.5" font-family="Helvetica,sans-Serif" font-size="10.00">J3DAnmCRegKeyTable</text>
</a>
</g>
</g>
<!-- Node6&#45;&gt;Node1 -->
<g id="edge5_Node000001_Node000006" class="edge">
<title>Node6&#45;&gt;Node1</title>
<g id="a_edge5_Node000001_Node000006"><a xlink:title=" ">
<path fill="none" stroke="#9a32cd" stroke-dasharray="5,2" d="M262.27,-66.29C259.63,-56.6 255.23,-45.35 248,-37.25 241.15,-29.56 231.56,-23.82 222.42,-19.67"/>
<polygon fill="#9a32cd" stroke="#9a32cd" points="258.82,-66.9 264.42,-75.89 265.65,-65.37 258.82,-66.9"/>
</a>
</g>
<text text-anchor="middle" x="308.62" y="-44.62" font-family="Helvetica,sans-Serif" font-size="10.00" fill="grey"> mAnmCRegKeyTable</text>
</g>
<!-- Node7 -->
<g id="Node000007" class="node">
<title>Node7</title>
<g id="a_Node000007"><a xlink:href="structJ3DAnmKeyTableBase.html" target="_top" xlink:title=" ">
<polygon fill="white" stroke="#666666" points="374.25,-197.25 257.75,-197.25 257.75,-178 374.25,-178 374.25,-197.25"/>
<text text-anchor="middle" x="316" y="-183.75" font-family="Helvetica,sans-Serif" font-size="10.00">J3DAnmKeyTableBase</text>
</a>
</g>
</g>
<!-- Node7&#45;&gt;Node6 -->
<g id="edge6_Node000006_Node000007" class="edge">
<title>Node7&#45;&gt;Node6</title>
<g id="a_edge6_Node000006_Node000007"><a xlink:title=" ">
<path fill="none" stroke="#9a32cd" stroke-dasharray="5,2" d="M306.27,-167.5C295.52,-146.38 278.67,-113.27 270.6,-97.42"/>
<polygon fill="#9a32cd" stroke="#9a32cd" points="303.04,-168.88 310.7,-176.21 309.28,-165.71 303.04,-168.88"/>
</a>
</g>
<text text-anchor="middle" x="322.62" y="-150.5" font-family="Helvetica,sans-Serif" font-size="10.00" fill="grey"> mATable</text>
<text text-anchor="middle" x="322.62" y="-139.25" font-family="Helvetica,sans-Serif" font-size="10.00" fill="grey">mBTable</text>
<text text-anchor="middle" x="322.62" y="-128" font-family="Helvetica,sans-Serif" font-size="10.00" fill="grey">mGTable</text>
<text text-anchor="middle" x="322.62" y="-116.75" font-family="Helvetica,sans-Serif" font-size="10.00" fill="grey">mRTable</text>
</g>
<!-- Node8 -->
<g id="Node000008" class="node">
<title>Node8</title>
<g id="a_Node000008"><a xlink:href="structJ3DAnmKRegKeyTable.html" target="_top" xlink:title=" ">
<polygon fill="white" stroke="#666666" points="461,-97 343,-97 343,-77.75 461,-77.75 461,-97"/>
<text text-anchor="middle" x="402" y="-83.5" font-family="Helvetica,sans-Serif" font-size="10.00">J3DAnmKRegKeyTable</text>
</a>
</g>
</g>
<!-- Node7&#45;&gt;Node8 -->
<g id="edge8_Node000008_Node000007" class="edge">
<title>Node7&#45;&gt;Node8</title>
<g id="a_edge8_Node000008_Node000007"><a xlink:title=" ">
<path fill="none" stroke="#9a32cd" stroke-dasharray="5,2" d="M336.44,-170.12C340.08,-166.89 343.75,-163.44 347,-160 366.83,-139.05 386.57,-111.21 396.1,-97.21"/>
<polygon fill="#9a32cd" stroke="#9a32cd" points="334.21,-167.42 328.85,-176.56 338.74,-172.76 334.21,-167.42"/>
</a>
</g>
<text text-anchor="middle" x="403.62" y="-150.5" font-family="Helvetica,sans-Serif" font-size="10.00" fill="grey"> mATable</text>
<text text-anchor="middle" x="403.62" y="-139.25" font-family="Helvetica,sans-Serif" font-size="10.00" fill="grey">mBTable</text>
<text text-anchor="middle" x="403.62" y="-128" font-family="Helvetica,sans-Serif" font-size="10.00" fill="grey">mGTable</text>
<text text-anchor="middle" x="403.62" y="-116.75" font-family="Helvetica,sans-Serif" font-size="10.00" fill="grey">mRTable</text>
</g>
<!-- Node8&#45;&gt;Node1 -->
<g id="edge7_Node000001_Node000008" class="edge">
<title>Node8&#45;&gt;Node1</title>
<g id="a_edge7_Node000001_Node000008"><a xlink:title=" ">
<path fill="none" stroke="#9a32cd" stroke-dasharray="5,2" d="M391.05,-68.03C383.65,-57.31 372.9,-44.49 360,-37.25 341.09,-26.63 287.99,-19.33 247.09,-15.1"/>
<polygon fill="#9a32cd" stroke="#9a32cd" points="387.91,-69.62 396.26,-76.15 393.8,-65.84 387.91,-69.62"/>
</a>
</g>
<text text-anchor="middle" x="432.62" y="-44.62" font-family="Helvetica,sans-Serif" font-size="10.00" fill="grey"> mAnmKRegKeyTable</text>
</g>
</g>
</svg>
