<?xml version="1.0" encoding="UTF-8" standalone="no"?>
<!DOCTYPE svg PUBLIC "-//W3C//DTD SVG 1.1//EN"
 "http://www.w3.org/Graphics/SVG/1.1/DTD/svg11.dtd">
<!-- Generated by graphviz version 9.0.0 (20230911.1827)
 -->
<!-- Title: J3DTexMtxAnm Pages: 1 -->
<svg width="467pt" height="327pt"
 viewBox="0.00 0.00 466.75 327.00" xmlns="http://www.w3.org/2000/svg" xmlns:xlink="http://www.w3.org/1999/xlink">

<svg id="main" version="1.1" xmlns="http://www.w3.org/2000/svg" xmlns:xlink="http://www.w3.org/1999/xlink" xml:space="preserve" onload="init(evt)">
<style type="text/css"><![CDATA[
.node, .edge {opacity: 0.7;}
.node.selected, .edge.selected {opacity: 1;}
.edge:hover path { stroke: red; }
.edge:hover polygon { stroke: red; fill: red; }
]]></style>
<script type="application/ecmascript" xlink:href="svg.min.js"/>
<svg id="graph" class="graph">
<g id="graph0" class="graph" transform="scale(1 1) rotate(0) translate(4 323)">
<title>J3DTexMtxAnm</title>
<!-- Node1 -->
<g id="Node000001" class="node">
<title>Node1</title>
<g id="a_Node000001"><a xlink:title=" ">
<polygon fill="#999999" stroke="#666666" points="244.5,-19.25 159.5,-19.25 159.5,0 244.5,0 244.5,-19.25"/>
<text text-anchor="middle" x="202" y="-5.75" font-family="Helvetica,sans-Serif" font-size="10.00">J3DTexMtxAnm</text>
</a>
</g>
</g>
<!-- Node2 -->
<g id="Node000002" class="node">
<title>Node2</title>
<g id="a_Node000002"><a xlink:href="structJ3DAnmTextureSRTKey.html" target="_top" xlink:title=" ">
<polygon fill="white" stroke="#666666" points="262.88,-85.75 141.12,-85.75 141.12,-66.5 262.88,-66.5 262.88,-85.75"/>
<text text-anchor="middle" x="202" y="-72.25" font-family="Helvetica,sans-Serif" font-size="10.00">J3DAnmTextureSRTKey</text>
</a>
</g>
</g>
<!-- Node2&#45;&gt;Node1 -->
<g id="edge1_Node000001_Node000002" class="edge">
<title>Node2&#45;&gt;Node1</title>
<g id="a_edge1_Node000001_Node000002"><a xlink:title=" ">
<path fill="none" stroke="#9a32cd" stroke-dasharray="5,2" d="M202,-54.65C202,-42.82 202,-28.54 202,-19.52"/>
<polygon fill="#9a32cd" stroke="#9a32cd" points="198.5,-54.64 202,-64.64 205.5,-54.64 198.5,-54.64"/>
</a>
</g>
<text text-anchor="middle" x="239.5" y="-39" font-family="Helvetica,sans-Serif" font-size="10.00" fill="grey"> mAnmTransform</text>
</g>
<!-- Node3 -->
<g id="Node000003" class="node">
<title>Node3</title>
<g id="a_Node000003"><a xlink:href="classJ3DAnmBase.html" target="_top" xlink:title=" ">
<polygon fill="white" stroke="#666666" points="76,-163.5 0,-163.5 0,-144.25 76,-144.25 76,-163.5"/>
<text text-anchor="middle" x="38" y="-150" font-family="Helvetica,sans-Serif" font-size="10.00">J3DAnmBase</text>
</a>
</g>
</g>
<!-- Node3&#45;&gt;Node2 -->
<g id="edge2_Node000002_Node000003" class="edge">
<title>Node3&#45;&gt;Node2</title>
<g id="a_edge2_Node000002_Node000003"><a xlink:title=" ">
<path fill="none" stroke="#63b8ff" d="M67.49,-139.25C100.71,-123.91 153.78,-99.4 182.31,-86.22"/>
<polygon fill="#63b8ff" stroke="#63b8ff" points="66.44,-135.88 58.83,-143.25 69.38,-142.24 66.44,-135.88"/>
</a>
</g>
</g>
<!-- Node4 -->
<g id="Node000004" class="node">
<title>Node4</title>
<g id="a_Node000004"><a xlink:href="structJ3DAnmTransformKeyTable.html" target="_top" xlink:title=" ">
<polygon fill="white" stroke="#666666" points="232.12,-163.5 93.88,-163.5 93.88,-144.25 232.12,-144.25 232.12,-163.5"/>
<text text-anchor="middle" x="163" y="-150" font-family="Helvetica,sans-Serif" font-size="10.00">J3DAnmTransformKeyTable</text>
</a>
</g>
</g>
<!-- Node4&#45;&gt;Node2 -->
<g id="edge3_Node000002_Node000004" class="edge">
<title>Node4&#45;&gt;Node2</title>
<g id="a_edge3_Node000002_Node000004"><a xlink:title=" ">
<path fill="none" stroke="#9a32cd" stroke-dasharray="5,2" d="M159.52,-132.58C158.9,-123.29 159.6,-112.44 164.25,-103.75 168.26,-96.25 175.42,-90.4 182.44,-86.11"/>
<polygon fill="#9a32cd" stroke="#9a32cd" points="156.04,-132.95 160.76,-142.43 162.98,-132.07 156.04,-132.95"/>
</a>
</g>
<text text-anchor="middle" x="191.38" y="-111.12" font-family="Helvetica,sans-Serif" font-size="10.00" fill="grey"> mAnmTable</text>
</g>
<!-- Node5 -->
<g id="Node000005" class="node">
<title>Node5</title>
<g id="a_Node000005"><a xlink:href="structJ3DAnmKeyTableBase.html" target="_top" xlink:title=" ">
<polygon fill="white" stroke="#666666" points="221.25,-252.5 104.75,-252.5 104.75,-233.25 221.25,-233.25 221.25,-252.5"/>
<text text-anchor="middle" x="163" y="-239" font-family="Helvetica,sans-Serif" font-size="10.00">J3DAnmKeyTableBase</text>
</a>
</g>
</g>
<!-- Node5&#45;&gt;Node4 -->
<g id="edge4_Node000004_Node000005" class="edge">
<title>Node5&#45;&gt;Node4</title>
<g id="a_edge4_Node000004_Node000005"><a xlink:title=" ">
<path fill="none" stroke="#9a32cd" stroke-dasharray="5,2" d="M163,-221.51C163,-203.3 163,-177.47 163,-163.94"/>
<polygon fill="#9a32cd" stroke="#9a32cd" points="159.5,-221.38 163,-231.38 166.5,-221.38 159.5,-221.38"/>
</a>
</g>
<text text-anchor="middle" x="195.62" y="-205.75" font-family="Helvetica,sans-Serif" font-size="10.00" fill="grey"> mRotationInfo</text>
<text text-anchor="middle" x="195.62" y="-194.5" font-family="Helvetica,sans-Serif" font-size="10.00" fill="grey">mScaleInfo</text>
<text text-anchor="middle" x="195.62" y="-183.25" font-family="Helvetica,sans-Serif" font-size="10.00" fill="grey">mTranslateInfo</text>
</g>
<!-- Node6 -->
<g id="Node000006" class="node">
<title>Node6</title>
<g id="a_Node000006"><a xlink:href="structJUTNameTab.html" target="_top" xlink:title=" ">
<polygon fill="white" stroke="#666666" points="327.75,-163.5 250.25,-163.5 250.25,-144.25 327.75,-144.25 327.75,-163.5"/>
<text text-anchor="middle" x="289" y="-150" font-family="Helvetica,sans-Serif" font-size="10.00">JUTNameTab</text>
</a>
</g>
</g>
<!-- Node6&#45;&gt;Node2 -->
<g id="edge5_Node000002_Node000006" class="edge">
<title>Node6&#45;&gt;Node2</title>
<g id="a_edge5_Node000002_Node000006"><a xlink:title=" ">
<path fill="none" stroke="#9a32cd" stroke-dasharray="5,2" d="M259.31,-138.29C253.3,-134.73 247.23,-130.67 242,-126.25 227.72,-114.18 214.76,-96.48 207.67,-85.95"/>
<polygon fill="#9a32cd" stroke="#9a32cd" points="257.43,-141.25 267.87,-143.02 260.82,-135.12 257.43,-141.25"/>
</a>
</g>
<text text-anchor="middle" x="303.5" y="-116.75" font-family="Helvetica,sans-Serif" font-size="10.00" fill="grey"> mPostUpdateMaterialName</text>
<text text-anchor="middle" x="303.5" y="-105.5" font-family="Helvetica,sans-Serif" font-size="10.00" fill="grey">mUpdateMaterialName</text>
</g>
<!-- Node7 -->
<g id="Node000007" class="node">
<title>Node7</title>
<g id="a_Node000007"><a xlink:href="structResNTAB.html" target="_top" xlink:title=" ">
<polygon fill="white" stroke="#666666" points="319.12,-252.5 258.88,-252.5 258.88,-233.25 319.12,-233.25 319.12,-252.5"/>
<text text-anchor="middle" x="289" y="-239" font-family="Helvetica,sans-Serif" font-size="10.00">ResNTAB</text>
</a>
</g>
</g>
<!-- Node7&#45;&gt;Node6 -->
<g id="edge6_Node000006_Node000007" class="edge">
<title>Node7&#45;&gt;Node6</title>
<g id="a_edge6_Node000006_Node000007"><a xlink:title=" ">
<path fill="none" stroke="#9a32cd" stroke-dasharray="5,2" d="M289,-221.51C289,-203.3 289,-177.47 289,-163.94"/>
<polygon fill="#9a32cd" stroke="#9a32cd" points="285.5,-221.38 289,-231.38 292.5,-221.38 285.5,-221.38"/>
</a>
</g>
<text text-anchor="middle" x="319.38" y="-194.5" font-family="Helvetica,sans-Serif" font-size="10.00" fill="grey"> mNameTable</text>
</g>
<!-- Node8 -->
<g id="Node000008" class="node">
<title>Node8</title>
<g id="a_Node000008"><a xlink:href="structResNTAB_1_1Entry.html" target="_top" xlink:title=" ">
<polygon fill="white" stroke="#666666" points="332.25,-319 245.75,-319 245.75,-299.75 332.25,-299.75 332.25,-319"/>
<text text-anchor="middle" x="289" y="-305.5" font-family="Helvetica,sans-Serif" font-size="10.00">ResNTAB::Entry</text>
</a>
</g>
</g>
<!-- Node8&#45;&gt;Node7 -->
<g id="edge7_Node000007_Node000008" class="edge">
<title>Node8&#45;&gt;Node7</title>
<g id="a_edge7_Node000007_Node000008"><a xlink:title=" ">
<path fill="none" stroke="#9a32cd" stroke-dasharray="5,2" d="M289,-287.9C289,-276.07 289,-261.79 289,-252.77"/>
<polygon fill="#9a32cd" stroke="#9a32cd" points="285.5,-287.89 289,-297.89 292.5,-287.89 285.5,-287.89"/>
</a>
</g>
<text text-anchor="middle" x="309.25" y="-272.25" font-family="Helvetica,sans-Serif" font-size="10.00" fill="grey"> mEntries</text>
</g>
<!-- Node9 -->
<g id="Node000009" class="node">
<title>Node9</title>
<g id="a_Node000009"><a xlink:href="structVec.html" target="_top" xlink:title=" ">
<polygon fill="white" stroke="#666666" points="403.62,-163.5 370.38,-163.5 370.38,-144.25 403.62,-144.25 403.62,-163.5"/>
<text text-anchor="middle" x="387" y="-150" font-family="Helvetica,sans-Serif" font-size="10.00">Vec</text>
</a>
</g>
</g>
<!-- Node9&#45;&gt;Node2 -->
<g id="edge8_Node000002_Node000009" class="edge">
<title>Node9&#45;&gt;Node2</title>
<g id="a_edge8_Node000002_Node000009"><a xlink:title=" ">
<path fill="none" stroke="#9a32cd" stroke-dasharray="5,2" d="M382.89,-133.06C379.73,-122.76 374.26,-110.88 365,-103.75 349.21,-91.6 302.51,-84.79 263.12,-81.11"/>
<polygon fill="#9a32cd" stroke="#9a32cd" points="379.45,-133.72 385.27,-142.57 386.24,-132.02 379.45,-133.72"/>
</a>
</g>
<text text-anchor="middle" x="419.38" y="-116.75" font-family="Helvetica,sans-Serif" font-size="10.00" fill="grey"> mPostSRTCenter</text>
<text text-anchor="middle" x="419.38" y="-105.5" font-family="Helvetica,sans-Serif" font-size="10.00" fill="grey">mSRTCenter</text>
</g>
</g>
</svg>
</svg>

<style type='text/css'>
<![CDATA[
[data-mouse-over-selected='false'] { opacity: 0.7; }
[data-mouse-over-selected='true']  { opacity: 1.0; }
]]>
</style>
<script type="application/ecmascript"><![CDATA[
document.addEventListener('DOMContentLoaded', (event) => {
  highlightEdges();
  highlightAdjacentNodes();
});
]]></script>
</svg>
