<?xml version="1.0" encoding="UTF-8" standalone="no"?>
<!DOCTYPE svg PUBLIC "-//W3C//DTD SVG 1.1//EN"
 "http://www.w3.org/Graphics/SVG/1.1/DTD/svg11.dtd">
<!-- Generated by graphviz version 9.0.0 (20230911.1827)
 -->
<!-- Title: JStudio_JStage::TAdaptor_ambientLight Pages: 1 -->
<svg width="288pt" height="160pt"
 viewBox="0.00 0.00 288.12 160.25" xmlns="http://www.w3.org/2000/svg" xmlns:xlink="http://www.w3.org/1999/xlink">
<g id="graph0" class="graph" transform="scale(1 1) rotate(0) translate(4 156.25)">
<title>JStudio_JStage::TAdaptor_ambientLight</title>
<!-- Node1 -->
<g id="Node000001" class="node">
<title>Node1</title>
<g id="a_Node000001"><a xlink:title=" ">
<polygon fill="#999999" stroke="#666666" points="205.12,-30.5 75.88,-30.5 75.88,0 205.12,0 205.12,-30.5"/>
<text text-anchor="start" x="83.88" y="-17" font-family="Helvetica,sans-Serif" font-size="10.00">JStudio_JStage::TAdaptor</text>
<text text-anchor="middle" x="140.5" y="-5.75" font-family="Helvetica,sans-Serif" font-size="10.00">_ambientLight</text>
</a>
</g>
</g>
<!-- Node2 -->
<g id="Node000002" class="node">
<title>Node2</title>
<g id="a_Node000002"><a xlink:href="structJStudio_1_1TAdaptor__ambientLight.html" target="_top" xlink:title=" ">
<polygon fill="white" stroke="#666666" points="133,-97 0,-97 0,-66.5 133,-66.5 133,-97"/>
<text text-anchor="start" x="8" y="-83.5" font-family="Helvetica,sans-Serif" font-size="10.00">JStudio::TAdaptor_ambient</text>
<text text-anchor="middle" x="66.5" y="-72.25" font-family="Helvetica,sans-Serif" font-size="10.00">Light</text>
</a>
</g>
</g>
<!-- Node2&#45;&gt;Node1 -->
<g id="edge1_Node000001_Node000002" class="edge">
<title>Node2&#45;&gt;Node1</title>
<g id="a_edge1_Node000001_Node000002"><a xlink:title=" ">
<path fill="none" stroke="#63b8ff" d="M91.75,-58.74C102.32,-49.53 114.33,-39.06 123.77,-30.83"/>
<polygon fill="#63b8ff" stroke="#63b8ff" points="89.67,-55.91 84.43,-65.12 94.27,-61.19 89.67,-55.91"/>
</a>
</g>
</g>
<!-- Node3 -->
<g id="Node000003" class="node">
<title>Node3</title>
<g id="a_Node000003"><a xlink:href="structJStudio_1_1TAdaptor.html" target="_top" xlink:title=" ">
<polygon fill="white" stroke="#666666" points="113.12,-152.25 19.88,-152.25 19.88,-133 113.12,-133 113.12,-152.25"/>
<text text-anchor="middle" x="66.5" y="-138.75" font-family="Helvetica,sans-Serif" font-size="10.00">JStudio::TAdaptor</text>
</a>
</g>
</g>
<!-- Node3&#45;&gt;Node2 -->
<g id="edge2_Node000002_Node000003" class="edge">
<title>Node3&#45;&gt;Node2</title>
<g id="a_edge2_Node000002_Node000003"><a xlink:title=" ">
<path fill="none" stroke="#63b8ff" d="M66.5,-121.42C66.5,-113.49 66.5,-104.56 66.5,-97.28"/>
<polygon fill="#63b8ff" stroke="#63b8ff" points="63,-121.17 66.5,-131.17 70,-121.17 63,-121.17"/>
</a>
</g>
</g>
<!-- Node4 -->
<g id="Node000004" class="node">
<title>Node4</title>
<g id="a_Node000004"><a xlink:href="structJStudio__JStage_1_1TAdaptor__object__.html" target="_top" xlink:title=" ">
<polygon fill="white" stroke="#666666" points="280.12,-97 150.88,-97 150.88,-66.5 280.12,-66.5 280.12,-97"/>
<text text-anchor="start" x="158.88" y="-83.5" font-family="Helvetica,sans-Serif" font-size="10.00">JStudio_JStage::TAdaptor</text>
<text text-anchor="middle" x="215.5" y="-72.25" font-family="Helvetica,sans-Serif" font-size="10.00">_object_</text>
</a>
</g>
</g>
<!-- Node4&#45;&gt;Node1 -->
<g id="edge3_Node000001_Node000004" class="edge">
<title>Node4&#45;&gt;Node1</title>
<g id="a_edge3_Node000001_Node000004"><a xlink:title=" ">
<path fill="none" stroke="#63b8ff" d="M189.91,-58.74C179.19,-49.53 167.03,-39.06 157.45,-30.83"/>
<polygon fill="#63b8ff" stroke="#63b8ff" points="187.47,-61.26 197.33,-65.13 192.03,-55.95 187.47,-61.26"/>
</a>
</g>
</g>
</g>
</svg>
