<?xml version="1.0" encoding="UTF-8" standalone="no"?>
<!DOCTYPE svg PUBLIC "-//W3C//DTD SVG 1.1//EN"
 "http://www.w3.org/Graphics/SVG/1.1/DTD/svg11.dtd">
<!-- Generated by graphviz version 9.0.0 (20230911.1827)
 -->
<!-- Title: Z2FxLineMgr Pages: 1 -->
<svg width="206pt" height="172pt"
 viewBox="0.00 0.00 205.88 171.50" xmlns="http://www.w3.org/2000/svg" xmlns:xlink="http://www.w3.org/1999/xlink">
<g id="graph0" class="graph" transform="scale(1 1) rotate(0) translate(4 167.5)">
<title>Z2FxLineMgr</title>
<!-- Node1 -->
<g id="Node000001" class="node">
<title>Node1</title>
<g id="a_Node000001"><a xlink:title=" ">
<polygon fill="#999999" stroke="#666666" points="132.25,-97 59.25,-97 59.25,-77.75 132.25,-77.75 132.25,-97"/>
<text text-anchor="middle" x="95.75" y="-83.5" font-family="Helvetica,sans-Serif" font-size="10.00">Z2FxLineMgr</text>
</a>
</g>
</g>
<!-- Node2 -->
<g id="Node000002" class="node">
<title>Node2</title>
<g id="a_Node000002"><a xlink:href="classJASGlobalInstance.html" target="_top" xlink:title=" ">
<polygon fill="white" stroke="#666666" points="148.75,-30.5 42.75,-30.5 42.75,0 148.75,0 148.75,-30.5"/>
<text text-anchor="start" x="50.75" y="-17" font-family="Helvetica,sans-Serif" font-size="10.00">JASGlobalInstance&lt;</text>
<text text-anchor="middle" x="95.75" y="-5.75" font-family="Helvetica,sans-Serif" font-size="10.00"> Z2FxLineMgr &gt;</text>
</a>
</g>
</g>
<!-- Node1&#45;&gt;Node2 -->
<g id="edge2_Node000002_Node000001" class="edge">
<title>Node1&#45;&gt;Node2</title>
<g id="a_edge2_Node000002_Node000001"><a xlink:title=" ">
<path fill="none" stroke="#9a32cd" stroke-dasharray="5,2" d="M70.12,-70.25C63.65,-64.05 59.37,-56.53 62.75,-48.5 65.55,-41.86 70.46,-35.9 75.65,-30.96"/>
<polygon fill="#9a32cd" stroke="#9a32cd" points="67.88,-72.94 77.9,-76.38 72.22,-67.44 67.88,-72.94"/>
</a>
</g>
<text text-anchor="middle" x="85.25" y="-50.25" font-family="Helvetica,sans-Serif" font-size="10.00" fill="grey"> sInstance</text>
</g>
<!-- Node2&#45;&gt;Node1 -->
<g id="edge1_Node000001_Node000002" class="edge">
<title>Node2&#45;&gt;Node1</title>
<g id="a_edge1_Node000001_Node000002"><a xlink:title=" ">
<path fill="none" stroke="#63b8ff" d="M110.58,-41.15C112.58,-47.18 113.44,-53.64 111.75,-59.75 109.96,-66.19 106.15,-72.64 102.7,-77.58"/>
<polygon fill="#63b8ff" stroke="#63b8ff" points="113.91,-40.05 106.65,-32.33 107.52,-42.89 113.91,-40.05"/>
</a>
</g>
</g>
<!-- Node3 -->
<g id="Node000003" class="node">
<title>Node3</title>
<g id="a_Node000003"><a xlink:href="structZ2FxLineConfig.html" target="_top" xlink:title=" ">
<polygon fill="white" stroke="#666666" points="83.5,-163.5 0,-163.5 0,-144.25 83.5,-144.25 83.5,-163.5"/>
<text text-anchor="middle" x="41.75" y="-150" font-family="Helvetica,sans-Serif" font-size="10.00">Z2FxLineConfig</text>
</a>
</g>
</g>
<!-- Node3&#45;&gt;Node1 -->
<g id="edge3_Node000001_Node000003" class="edge">
<title>Node3&#45;&gt;Node1</title>
<g id="a_edge3_Node000001_Node000003"><a xlink:title=" ">
<path fill="none" stroke="#9a32cd" stroke-dasharray="5,2" d="M56.42,-135.36C66.73,-123.03 80.11,-107.06 88.31,-97.27"/>
<polygon fill="#9a32cd" stroke="#9a32cd" points="53.97,-132.83 50.23,-142.75 59.33,-137.33 53.97,-132.83"/>
</a>
</g>
<text text-anchor="middle" x="91.5" y="-116.75" font-family="Helvetica,sans-Serif" font-size="10.00" fill="grey"> mConfig</text>
</g>
<!-- Node4 -->
<g id="Node000004" class="node">
<title>Node4</title>
<g id="a_Node000004"><a xlink:href="structZ2FxLineEditNode.html" target="_top" xlink:title=" ">
<polygon fill="white" stroke="#666666" points="197.88,-163.5 101.62,-163.5 101.62,-144.25 197.88,-144.25 197.88,-163.5"/>
<text text-anchor="middle" x="149.75" y="-150" font-family="Helvetica,sans-Serif" font-size="10.00">Z2FxLineEditNode</text>
</a>
</g>
</g>
<!-- Node4&#45;&gt;Node1 -->
<g id="edge4_Node000001_Node000004" class="edge">
<title>Node4&#45;&gt;Node1</title>
<g id="a_edge4_Node000001_Node000004"><a xlink:title=" ">
<path fill="none" stroke="#9a32cd" stroke-dasharray="5,2" d="M135.08,-135.36C124.77,-123.03 111.39,-107.06 103.19,-97.27"/>
<polygon fill="#9a32cd" stroke="#9a32cd" points="132.17,-137.33 141.27,-142.75 137.53,-132.83 132.17,-137.33"/>
</a>
</g>
<text text-anchor="middle" x="148.25" y="-116.75" font-family="Helvetica,sans-Serif" font-size="10.00" fill="grey"> mHIOEdit</text>
</g>
</g>
</svg>
