<?xml version="1.0" encoding="UTF-8" standalone="no"?>
<!DOCTYPE svg PUBLIC "-//W3C//DTD SVG 1.1//EN"
 "http://www.w3.org/Graphics/SVG/1.1/DTD/svg11.dtd">
<!-- Generated by graphviz version 9.0.0 (20230911.1827)
 -->
<!-- Title: J3DMtxCalcNoAnmBase Pages: 1 -->
<!--zoomable 138 -->

<svg id="main" version="1.1" xmlns="http://www.w3.org/2000/svg" xmlns:xlink="http://www.w3.org/1999/xlink" xml:space="preserve" onload="init(evt)">
<style type="text/css"><![CDATA[
.node, .edge {opacity: 0.7;}
.node.selected, .edge.selected {opacity: 1;}
.edge:hover path { stroke: red; }
.edge:hover polygon { stroke: red; fill: red; }
]]></style>

<defs>
  <circle id="rim" cx="0" cy="0" r="7"/>
  <circle id="rim2" cx="0" cy="0" r="3.5"/>
  <g id="zoomPlus">
    <use xlink:href="#rim" fill="#404040"><set attributeName="fill" to="#808080" begin="zoomplus.mouseover" end="zoomplus.mouseout"/></use>
    <path d="M-4,0h8M0,-4v8" fill="none" stroke="white" stroke-width="1.5" pointer-events="none"/>
  </g>
  <g id="zoomMin">
    <use xlink:href="#rim" fill="#404040"><set attributeName="fill" to="#808080" begin="zoomminus.mouseover" end="zoomminus.mouseout"/></use>
    <path d="M-4,0h8" fill="none" stroke="white" stroke-width="1.5" pointer-events="none"/>
  </g>
  <g id="arrowUp" transform="translate(30 24)">
    <use xlink:href="#rim"/>
    <path pointer-events="none" fill="none" stroke="white" stroke-width="1.5" d="M0,-3.0v7 M-2.5,-0.5L0,-3.0L2.5,-0.5"/>
  </g>
  <g id="arrowRight" transform="rotate(90) translate(36 -43)">
    <use xlink:href="#rim"/>
    <path pointer-events="none" fill="none" stroke="white" stroke-width="1.5" d="M0,-3.0v7 M-2.5,-0.5L0,-3.0L2.5,-0.5"/>
  </g>
  <g id="arrowDown" transform="rotate(180) translate(-30 -48)">
    <use xlink:href="#rim"/>
    <path pointer-events="none" fill="none" stroke="white" stroke-width="1.5" d="M0,-3.0v7 M-2.5,-0.5L0,-3.0L2.5,-0.5"/>
  </g>
  <g id="arrowLeft" transform="rotate(270) translate(-36 17)">
    <use xlink:href="#rim"/>
    <path pointer-events="none" fill="none" stroke="white" stroke-width="1.5" d="M0,-3.0v7 M-2.5,-0.5L0,-3.0L2.5,-0.5"/>
  </g>
  <g id="resetDef">
    <use xlink:href="#rim2" fill="#404040"><set attributeName="fill" to="#808080" begin="reset.mouseover" end="reset.mouseout"/></use>
  </g>
</defs>
<script type="application/ecmascript">
var viewWidth = 828;
var viewHeight = 138;
var sectionId = 'dynsection-0';
</script>
<script type="application/ecmascript" xlink:href="svg.min.js"/>
<svg id="graph" class="graph">
<g id="viewport">
<title>J3DMtxCalcNoAnmBase</title>
<!-- Node1 -->
<g id="Node000001" class="node">
<title>Node1</title>
<g id="a_Node000001"><a xlink:title=" ">
<polygon fill="#999999" stroke="#666666" points="228.5,-70.25 104.5,-70.25 104.5,-51 228.5,-51 228.5,-70.25"/>
<text text-anchor="middle" x="166.5" y="-56.75" font-family="Helvetica,sans-Serif" font-size="10.00">J3DMtxCalcNoAnmBase</text>
</a>
</g>
</g>
<!-- Node3 -->
<g id="Node000003" class="node">
<title>Node3</title>
<g id="a_Node000003"><a xlink:href="structJ3DMtxCalcNoAnm.html" target="_top" xlink:title=" ">
<polygon fill="white" stroke="#666666" points="435.75,-108.5 264.5,-108.5 264.5,-66.75 435.75,-66.75 435.75,-108.5"/>
<text text-anchor="start" x="272.5" y="-95" font-family="Helvetica,sans-Serif" font-size="10.00">J3DMtxCalcNoAnm&lt; J3DMtxCalc</text>
<text text-anchor="start" x="272.5" y="-83.75" font-family="Helvetica,sans-Serif" font-size="10.00">CalcTransformMaya, J3DMtxCalcJ3</text>
<text text-anchor="middle" x="350.12" y="-72.5" font-family="Helvetica,sans-Serif" font-size="10.00">DSysInitMaya &gt;</text>
</a>
</g>
</g>
<!-- Node1&#45;&gt;Node3 -->
<g id="edge2_Node000001_Node000003" class="edge">
<title>Node1&#45;&gt;Node3</title>
<g id="a_edge2_Node000001_Node000003"><a xlink:title=" ">
<path fill="none" stroke="#63b8ff" d="M240.32,-71.45C248.17,-72.62 256.21,-73.81 264.18,-75"/>
<polygon fill="#63b8ff" stroke="#63b8ff" points="240.89,-68 230.49,-69.99 239.86,-74.92 240.89,-68"/>
</a>
</g>
</g>
<!-- Node10 -->
<g id="Node000010" class="node">
<title>Node10</title>
<g id="a_Node000010"><a xlink:href="structJ3DMtxCalcNoAnm.html" target="_top" xlink:title=" ">
<polygon fill="white" stroke="#666666" points="412.5,-48.88 287.75,-48.88 287.75,-18.38 412.5,-18.38 412.5,-48.88"/>
<text text-anchor="start" x="295.75" y="-35.38" font-family="Helvetica,sans-Serif" font-size="10.00">J3DMtxCalcNoAnm&lt; A0,</text>
<text text-anchor="middle" x="350.12" y="-24.12" font-family="Helvetica,sans-Serif" font-size="10.00"> B0 &gt;</text>
</a>
</g>
</g>
<!-- Node1&#45;&gt;Node10 -->
<g id="edge9_Node000001_Node000010" class="edge">
<title>Node1&#45;&gt;Node10</title>
<g id="a_edge9_Node000001_Node000010"><a xlink:title=" ">
<path fill="none" stroke="#63b8ff" d="M240.21,-49.82C255.84,-47.49 272.22,-45.06 287.39,-42.8"/>
<polygon fill="#63b8ff" stroke="#63b8ff" points="239.86,-46.33 230.49,-51.26 240.89,-53.25 239.86,-46.33"/>
</a>
</g>
</g>
<!-- Node2 -->
<g id="Node000002" class="node">
<title>Node2</title>
<g id="a_Node000002"><a xlink:href="structJ3DMtxCalc.html" target="_top" xlink:title=" ">
<polygon fill="white" stroke="#666666" points="68.5,-70.25 0,-70.25 0,-51 68.5,-51 68.5,-70.25"/>
<text text-anchor="middle" x="34.25" y="-56.75" font-family="Helvetica,sans-Serif" font-size="10.00">J3DMtxCalc</text>
</a>
</g>
</g>
<!-- Node2&#45;&gt;Node1 -->
<g id="edge1_Node000001_Node000002" class="edge">
<title>Node2&#45;&gt;Node1</title>
<g id="a_edge1_Node000001_Node000002"><a xlink:title=" ">
<path fill="none" stroke="#63b8ff" d="M80.11,-60.62C87.82,-60.62 95.95,-60.62 104.01,-60.62"/>
<polygon fill="#63b8ff" stroke="#63b8ff" points="80.31,-57.13 70.31,-60.63 80.31,-64.13 80.31,-57.13"/>
</a>
</g>
</g>
<!-- Node4 -->
<g id="Node000004" class="node">
<title>Node4</title>
<g id="a_Node000004"><a xlink:href="structmDoExt__MtxCalcAnmBlendTbl.html" target="_top" xlink:title=" ">
<polygon fill="white" stroke="#666666" points="620.5,-120.25 471.75,-120.25 471.75,-101 620.5,-101 620.5,-120.25"/>
<text text-anchor="middle" x="546.12" y="-106.75" font-family="Helvetica,sans-Serif" font-size="10.00">mDoExt_MtxCalcAnmBlendTbl</text>
</a>
</g>
</g>
<!-- Node3&#45;&gt;Node4 -->
<g id="edge3_Node000003_Node000004" class="edge">
<title>Node3&#45;&gt;Node4</title>
<g id="a_edge3_Node000003_Node000004"><a xlink:title=" ">
<path fill="none" stroke="#63b8ff" d="M447.52,-99.05C455.53,-100 463.54,-100.95 471.35,-101.88"/>
<polygon fill="#63b8ff" stroke="#63b8ff" points="448.06,-95.59 437.72,-97.89 447.24,-102.54 448.06,-95.59"/>
</a>
</g>
</g>
<!-- Node6 -->
<g id="Node000006" class="node">
<title>Node6</title>
<g id="a_Node000006"><a xlink:href="structmDoExt__morf__c.html" target="_top" xlink:title=" ">
<polygon fill="white" stroke="#666666" points="588.62,-74.25 503.62,-74.25 503.62,-55 588.62,-55 588.62,-74.25"/>
<text text-anchor="middle" x="546.12" y="-60.75" font-family="Helvetica,sans-Serif" font-size="10.00">mDoExt_morf_c</text>
</a>
</g>
</g>
<!-- Node3&#45;&gt;Node6 -->
<g id="edge5_Node000003_Node000006" class="edge">
<title>Node3&#45;&gt;Node6</title>
<g id="a_edge5_Node000003_Node000006"><a xlink:title=" ">
<path fill="none" stroke="#63b8ff" d="M447.42,-76.21C467.04,-73.88 486.71,-71.55 503.2,-69.6"/>
<polygon fill="#63b8ff" stroke="#63b8ff" points="447.24,-72.71 437.72,-77.36 448.06,-79.66 447.24,-72.71"/>
</a>
</g>
</g>
<!-- Node5 -->
<g id="Node000005" class="node">
<title>Node5</title>
<g id="a_Node000005"><a xlink:href="structmDoExt__MtxCalcAnmBlendTblOld.html" target="_top" xlink:title=" ">
<polygon fill="white" stroke="#666666" points="820.25,-130.25 656.5,-130.25 656.5,-111 820.25,-111 820.25,-130.25"/>
<text text-anchor="middle" x="738.38" y="-116.75" font-family="Helvetica,sans-Serif" font-size="10.00">mDoExt_MtxCalcAnmBlendTblOld</text>
</a>
</g>
</g>
<!-- Node4&#45;&gt;Node5 -->
<g id="edge4_Node000004_Node000005" class="edge">
<title>Node4&#45;&gt;Node5</title>
<g id="a_edge4_Node000004_Node000005"><a xlink:title=" ">
<path fill="none" stroke="#63b8ff" d="M632.38,-115.11C640.24,-115.52 648.19,-115.94 656.01,-116.35"/>
<polygon fill="#63b8ff" stroke="#63b8ff" points="632.63,-111.61 622.46,-114.59 632.27,-118.61 632.63,-111.61"/>
</a>
</g>
</g>
<!-- Node7 -->
<g id="Node000007" class="node">
<title>Node7</title>
<g id="a_Node000007"><a xlink:href="classmDoExt__McaMorf.html" target="_top" xlink:title=" ">
<polygon fill="white" stroke="#666666" points="785,-93.25 691.75,-93.25 691.75,-74 785,-74 785,-93.25"/>
<text text-anchor="middle" x="738.38" y="-79.75" font-family="Helvetica,sans-Serif" font-size="10.00">mDoExt_McaMorf</text>
</a>
</g>
</g>
<!-- Node6&#45;&gt;Node7 -->
<g id="edge6_Node000006_Node000007" class="edge">
<title>Node6&#45;&gt;Node7</title>
<g id="a_edge6_Node000006_Node000007"><a xlink:title=" ">
<path fill="none" stroke="#63b8ff" d="M600.32,-69.94C628.96,-72.8 663.94,-76.29 691.39,-79.03"/>
<polygon fill="#63b8ff" stroke="#63b8ff" points="600.68,-66.46 590.38,-68.95 599.98,-73.42 600.68,-66.46"/>
</a>
</g>
</g>
<!-- Node8 -->
<g id="Node000008" class="node">
<title>Node8</title>
<g id="a_Node000008"><a xlink:href="classmDoExt__McaMorf2.html" target="_top" xlink:title=" ">
<polygon fill="white" stroke="#666666" points="787.62,-56.25 689.12,-56.25 689.12,-37 787.62,-37 787.62,-56.25"/>
<text text-anchor="middle" x="738.38" y="-42.75" font-family="Helvetica,sans-Serif" font-size="10.00">mDoExt_McaMorf2</text>
</a>
</g>
</g>
<!-- Node6&#45;&gt;Node8 -->
<g id="edge7_Node000006_Node000008" class="edge">
<title>Node6&#45;&gt;Node8</title>
<g id="a_edge7_Node000006_Node000008"><a xlink:title=" ">
<path fill="none" stroke="#63b8ff" d="M599.98,-59.62C627.74,-57 661.53,-53.8 688.66,-51.23"/>
<polygon fill="#63b8ff" stroke="#63b8ff" points="600.01,-56.11 590.38,-60.53 600.67,-63.07 600.01,-56.11"/>
</a>
</g>
</g>
<!-- Node9 -->
<g id="Node000009" class="node">
<title>Node9</title>
<g id="a_Node000009"><a xlink:href="structmDoExt__McaMorfSO.html" target="_top" xlink:title=" ">
<polygon fill="white" stroke="#666666" points="792.12,-19.25 684.62,-19.25 684.62,0 792.12,0 792.12,-19.25"/>
<text text-anchor="middle" x="738.38" y="-5.75" font-family="Helvetica,sans-Serif" font-size="10.00">mDoExt_McaMorfSO</text>
</a>
</g>
</g>
<!-- Node6&#45;&gt;Node9 -->
<g id="edge8_Node000006_Node000009" class="edge">
<title>Node6&#45;&gt;Node9</title>
<g id="a_edge8_Node000006_Node000009"><a xlink:title=" ">
<path fill="none" stroke="#63b8ff" d="M584.98,-50.7C605.89,-43.29 632.44,-34.35 656.5,-27.62 666.61,-24.8 677.53,-22.12 687.98,-19.73"/>
<polygon fill="#63b8ff" stroke="#63b8ff" points="583.95,-47.35 575.72,-54.02 586.31,-53.94 583.95,-47.35"/>
</a>
</g>
</g>
</g>
</svg>

<g id="navigator" transform="translate(0 0)" fill="#404254">
  <rect fill="#f2f5e9" fill-opacity="0.5" stroke="#606060" stroke-width=".5" x="0" y="0" width="60" height="60"/>
  <use id="zoomplus" xlink:href="#zoomPlus" x="17" y="9" onmousedown="handleZoom(evt,'in')"/>
  <use id="zoomminus" xlink:href="#zoomMin" x="42" y="9" onmousedown="handleZoom(evt,'out')"/>
  <use id="reset" xlink:href="#resetDef" x="30" y="36" onmousedown="handleReset()"/>
   <use id="arrowup" xlink:href="#arrowUp" x="0" y="0" onmousedown="handlePan(0,-1)"/>
  <use id="arrowright" xlink:href="#arrowRight" x="0" y="0" onmousedown="handlePan(1,0)"/>
  <use id="arrowdown" xlink:href="#arrowDown" x="0" y="0" onmousedown="handlePan(0,1)"/>
  <use id="arrowleft" xlink:href="#arrowLeft" x="0" y="0" onmousedown="handlePan(-1,0)"/>
</g>
<svg viewBox="0 0 15 15" width="100%" height="30px" preserveAspectRatio="xMaxYMin meet">
 <g id="arrow_out" transform="scale(0.3 0.3)">
  <a xlink:href="structJ3DMtxCalcNoAnmBase__inherit__graph_org.svg" target="_base">
   <rect id="button" ry="5" rx="5" y="6" x="6" height="38" width="38"
        fill="#f2f5e9" fill-opacity="0.5" stroke="#606060" stroke-width="1.0"/>
   <path id="arrow"
     d="M 11.500037,31.436501 C 11.940474,20.09759 22.043105,11.32322 32.158766,21.979434 L 37.068811,17.246167 C 37.068811,17.246167 37.088388,32 37.088388,32 L 22.160133,31.978069 C 22.160133,31.978069 26.997745,27.140456 26.997745,27.140456 C 18.528582,18.264221 13.291696,25.230495 11.500037,31.436501 z"
     style="fill:#404040;"/>
  </a>
 </g>
</svg>

<style type='text/css'>
<![CDATA[
[data-mouse-over-selected='false'] { opacity: 0.7; }
[data-mouse-over-selected='true']  { opacity: 1.0; }
]]>
</style>
<script type="application/ecmascript"><![CDATA[
document.addEventListener('DOMContentLoaded', (event) => {
  highlightEdges();
  highlightAdjacentNodes();
});
]]></script>
</svg>
