<?xml version="1.0" encoding="UTF-8" standalone="no"?>
<!DOCTYPE svg PUBLIC "-//W3C//DTD SVG 1.1//EN"
 "http://www.w3.org/Graphics/SVG/1.1/DTD/svg11.dtd">
<!-- Generated by graphviz version 9.0.0 (20230911.1827)
 -->
<!-- Title: J3DAnmTransformKey Pages: 1 -->
<svg width="122pt" height="193pt"
 viewBox="0.00 0.00 122.25 193.00" xmlns="http://www.w3.org/2000/svg" xmlns:xlink="http://www.w3.org/1999/xlink">
<g id="graph0" class="graph" transform="scale(1 1) rotate(0) translate(4 189)">
<title>J3DAnmTransformKey</title>
<!-- Node1 -->
<g id="Node000001" class="node">
<title>Node1</title>
<g id="a_Node000001"><a xlink:title=" ">
<polygon fill="#999999" stroke="#666666" points="114.25,-74.5 0,-74.5 0,-55.25 114.25,-55.25 114.25,-74.5"/>
<text text-anchor="middle" x="57.13" y="-61" font-family="Helvetica,sans-Serif" font-size="10.00">J3DAnmTransformKey</text>
</a>
</g>
</g>
<!-- Node4 -->
<g id="Node000004" class="node">
<title>Node4</title>
<g id="a_Node000004"><a xlink:href="classmDoExt__transAnmBas.html" target="_top" xlink:title=" ">
<polygon fill="white" stroke="#666666" points="114.25,-19.25 0,-19.25 0,0 114.25,0 114.25,-19.25"/>
<text text-anchor="middle" x="57.13" y="-5.75" font-family="Helvetica,sans-Serif" font-size="10.00">mDoExt_transAnmBas</text>
</a>
</g>
</g>
<!-- Node1&#45;&gt;Node4 -->
<g id="edge3_Node000001_Node000004" class="edge">
<title>Node1&#45;&gt;Node4</title>
<g id="a_edge3_Node000001_Node000004"><a xlink:title=" ">
<path fill="none" stroke="#63b8ff" d="M57.13,-43.63C57.13,-35.34 57.13,-26.17 57.13,-19.61"/>
<polygon fill="#63b8ff" stroke="#63b8ff" points="53.63,-43.57 57.13,-53.57 60.63,-43.57 53.63,-43.57"/>
</a>
</g>
</g>
<!-- Node2 -->
<g id="Node000002" class="node">
<title>Node2</title>
<g id="a_Node000002"><a xlink:href="structJ3DAnmTransform.html" target="_top" xlink:title=" ">
<polygon fill="white" stroke="#666666" points="106,-129.75 8.25,-129.75 8.25,-110.5 106,-110.5 106,-129.75"/>
<text text-anchor="middle" x="57.13" y="-116.25" font-family="Helvetica,sans-Serif" font-size="10.00">J3DAnmTransform</text>
</a>
</g>
</g>
<!-- Node2&#45;&gt;Node1 -->
<g id="edge1_Node000001_Node000002" class="edge">
<title>Node2&#45;&gt;Node1</title>
<g id="a_edge1_Node000001_Node000002"><a xlink:title=" ">
<path fill="none" stroke="#63b8ff" d="M57.13,-98.88C57.13,-90.59 57.13,-81.42 57.13,-74.86"/>
<polygon fill="#63b8ff" stroke="#63b8ff" points="53.63,-98.82 57.13,-108.82 60.63,-98.82 53.63,-98.82"/>
</a>
</g>
</g>
<!-- Node3 -->
<g id="Node000003" class="node">
<title>Node3</title>
<g id="a_Node000003"><a xlink:href="classJ3DAnmBase.html" target="_top" xlink:title=" ">
<polygon fill="white" stroke="#666666" points="95.12,-185 19.13,-185 19.13,-165.75 95.12,-165.75 95.12,-185"/>
<text text-anchor="middle" x="57.13" y="-171.5" font-family="Helvetica,sans-Serif" font-size="10.00">J3DAnmBase</text>
</a>
</g>
</g>
<!-- Node3&#45;&gt;Node2 -->
<g id="edge2_Node000002_Node000003" class="edge">
<title>Node3&#45;&gt;Node2</title>
<g id="a_edge2_Node000002_Node000003"><a xlink:title=" ">
<path fill="none" stroke="#63b8ff" d="M57.13,-154.13C57.13,-145.84 57.13,-136.67 57.13,-130.11"/>
<polygon fill="#63b8ff" stroke="#63b8ff" points="53.63,-154.07 57.13,-164.07 60.63,-154.07 53.63,-154.07"/>
</a>
</g>
</g>
</g>
</svg>
