<?xml version="1.0" encoding="UTF-8" standalone="no"?>
<!DOCTYPE svg PUBLIC "-//W3C//DTD SVG 1.1//EN"
 "http://www.w3.org/Graphics/SVG/1.1/DTD/svg11.dtd">
<!-- Generated by graphviz version 9.0.0 (20230911.1827)
 -->
<!-- Title: daNpcT_Path_c Pages: 1 -->
<svg width="198pt" height="306pt"
 viewBox="0.00 0.00 197.88 305.50" xmlns="http://www.w3.org/2000/svg" xmlns:xlink="http://www.w3.org/1999/xlink">
<g id="graph0" class="graph" transform="scale(1 1) rotate(0) translate(4 301.5)">
<title>daNpcT_Path_c</title>
<!-- Node1 -->
<g id="Node000001" class="node">
<title>Node1</title>
<g id="a_Node000001"><a xlink:title=" ">
<polygon fill="#999999" stroke="#666666" points="115.62,-19.25 29.12,-19.25 29.12,0 115.62,0 115.62,-19.25"/>
<text text-anchor="middle" x="72.38" y="-5.75" font-family="Helvetica,sans-Serif" font-size="10.00">daNpcT_Path_c</text>
</a>
</g>
</g>
<!-- Node2 -->
<g id="Node000002" class="node">
<title>Node2</title>
<g id="a_Node000002"><a xlink:href="structdPath.html" target="_top" xlink:title=" ">
<polygon fill="white" stroke="#666666" points="56.12,-85.75 14.62,-85.75 14.62,-66.5 56.12,-66.5 56.12,-85.75"/>
<text text-anchor="middle" x="35.38" y="-72.25" font-family="Helvetica,sans-Serif" font-size="10.00">dPath</text>
</a>
</g>
</g>
<!-- Node2&#45;&gt;Node1 -->
<g id="edge1_Node000001_Node000002" class="edge">
<title>Node2&#45;&gt;Node1</title>
<g id="a_edge1_Node000001_Node000002"><a xlink:title=" ">
<path fill="none" stroke="#9a32cd" stroke-dasharray="5,2" d="M32.31,-54.92C32.26,-48.95 33.11,-42.59 35.88,-37.25 39.69,-29.86 46.61,-24.03 53.4,-19.73"/>
<polygon fill="#9a32cd" stroke="#9a32cd" points="28.8,-55.02 33.2,-64.66 35.77,-54.38 28.8,-55.02"/>
</a>
</g>
<text text-anchor="middle" x="67.12" y="-39" font-family="Helvetica,sans-Serif" font-size="10.00" fill="grey"> mpRoomPath</text>
</g>
<!-- Node3 -->
<g id="Node000003" class="node">
<title>Node3</title>
<g id="a_Node000003"><a xlink:href="structdStage__dPnt__c.html" target="_top" xlink:title=" ">
<polygon fill="white" stroke="#666666" points="82.75,-231 0,-231 0,-211.75 82.75,-211.75 82.75,-231"/>
<text text-anchor="middle" x="41.38" y="-217.5" font-family="Helvetica,sans-Serif" font-size="10.00">dStage_dPnt_c</text>
</a>
</g>
</g>
<!-- Node3&#45;&gt;Node2 -->
<g id="edge2_Node000002_Node000003" class="edge">
<title>Node3&#45;&gt;Node2</title>
<g id="a_edge2_Node000002_Node000003"><a xlink:title=" ">
<path fill="none" stroke="#9a32cd" stroke-dasharray="5,2" d="M40.53,-200.12C39.2,-168.5 36.7,-108.69 35.75,-86.08"/>
<polygon fill="#9a32cd" stroke="#9a32cd" points="37.02,-200.06 40.94,-209.9 44.01,-199.76 37.02,-200.06"/>
</a>
</g>
<text text-anchor="middle" x="61.38" y="-144.88" font-family="Helvetica,sans-Serif" font-size="10.00" fill="grey"> m_points</text>
</g>
<!-- Node4 -->
<g id="Node000004" class="node">
<title>Node4</title>
<g id="a_Node000004"><a xlink:href="structVec.html" target="_top" xlink:title=" ">
<polygon fill="white" stroke="#666666" points="93,-297.5 59.75,-297.5 59.75,-278.25 93,-278.25 93,-297.5"/>
<text text-anchor="middle" x="76.38" y="-284" font-family="Helvetica,sans-Serif" font-size="10.00">Vec</text>
</a>
</g>
</g>
<!-- Node4&#45;&gt;Node3 -->
<g id="edge3_Node000003_Node000004" class="edge">
<title>Node4&#45;&gt;Node3</title>
<g id="a_edge3_Node000003_Node000004"><a xlink:title=" ">
<path fill="none" stroke="#9a32cd" stroke-dasharray="5,2" d="M55.2,-270.21C52.38,-267.17 49.8,-263.81 47.88,-260.25 43,-251.21 41.64,-239.34 41.33,-231.32"/>
<polygon fill="#9a32cd" stroke="#9a32cd" points="52.66,-272.62 62.36,-276.87 57.42,-267.5 52.66,-272.62"/>
</a>
</g>
<text text-anchor="middle" x="73.12" y="-250.75" font-family="Helvetica,sans-Serif" font-size="10.00" fill="grey"> m_position</text>
</g>
<!-- Node5 -->
<g id="Node000005" class="node">
<title>Node5</title>
<g id="a_Node000005"><a xlink:href="structcXyz.html" target="_top" xlink:title=" ">
<polygon fill="white" stroke="#666666" points="129.88,-158.38 92.88,-158.38 92.88,-139.12 129.88,-139.12 129.88,-158.38"/>
<text text-anchor="middle" x="111.38" y="-144.88" font-family="Helvetica,sans-Serif" font-size="10.00">cXyz</text>
</a>
</g>
</g>
<!-- Node4&#45;&gt;Node5 -->
<g id="edge5_Node000005_Node000004" class="edge">
<title>Node4&#45;&gt;Node5</title>
<g id="a_edge5_Node000005_Node000004"><a xlink:title=" ">
<path fill="none" stroke="#63b8ff" d="M92.63,-268.84C94.48,-266.1 96.14,-263.2 97.38,-260.25 112.18,-224.94 112.46,-178.15 111.82,-158.76"/>
<polygon fill="#63b8ff" stroke="#63b8ff" points="89.92,-266.62 86.48,-276.64 95.42,-270.95 89.92,-266.62"/>
</a>
</g>
</g>
<!-- Node5&#45;&gt;Node1 -->
<g id="edge4_Node000001_Node000005" class="edge">
<title>Node5&#45;&gt;Node1</title>
<g id="a_edge4_Node000001_Node000005"><a xlink:title=" ">
<path fill="none" stroke="#9a32cd" stroke-dasharray="5,2" d="M112.47,-127.27C112.88,-104.26 111.07,-66.34 97.38,-37.25 94.19,-30.48 88.63,-24.29 83.56,-19.59"/>
<polygon fill="#9a32cd" stroke="#9a32cd" points="108.98,-127.01 112.11,-137.13 115.97,-127.26 108.98,-127.01"/>
</a>
</g>
<text text-anchor="middle" x="133.25" y="-72.25" font-family="Helvetica,sans-Serif" font-size="10.00" fill="grey"> mPosition</text>
</g>
<!-- Node5&#45;&gt;Node5 -->
<g id="edge6_Node000005_Node000005" class="edge">
<title>Node5&#45;&gt;Node5</title>
<g id="a_edge6_Node000005_Node000005"><a xlink:title=" ">
<path fill="none" stroke="#9a32cd" stroke-dasharray="5,2" d="M132.67,-162.31C140.97,-162.94 147.88,-158.42 147.88,-148.75 147.88,-134.99 133.9,-131.66 121.84,-138.75"/>
<polygon fill="#9a32cd" stroke="#9a32cd" points="133.87,-159.02 123.28,-159.22 131.68,-165.67 133.87,-159.02"/>
</a>
</g>
<text text-anchor="middle" x="168.88" y="-184.25" font-family="Helvetica,sans-Serif" font-size="10.00" fill="grey"> BaseX</text>
<text text-anchor="middle" x="168.88" y="-173" font-family="Helvetica,sans-Serif" font-size="10.00" fill="grey">BaseXY</text>
<text text-anchor="middle" x="168.88" y="-161.75" font-family="Helvetica,sans-Serif" font-size="10.00" fill="grey">BaseXYZ</text>
<text text-anchor="middle" x="168.88" y="-150.5" font-family="Helvetica,sans-Serif" font-size="10.00" fill="grey">BaseXZ</text>
<text text-anchor="middle" x="168.88" y="-139.25" font-family="Helvetica,sans-Serif" font-size="10.00" fill="grey">BaseY</text>
<text text-anchor="middle" x="168.88" y="-128" font-family="Helvetica,sans-Serif" font-size="10.00" fill="grey">BaseYZ</text>
<text text-anchor="middle" x="168.88" y="-116.75" font-family="Helvetica,sans-Serif" font-size="10.00" fill="grey">BaseZ</text>
<text text-anchor="middle" x="168.88" y="-105.5" font-family="Helvetica,sans-Serif" font-size="10.00" fill="grey">Zero</text>
</g>
</g>
</svg>
