<?xml version="1.0" encoding="UTF-8" standalone="no"?>
<!DOCTYPE svg PUBLIC "-//W3C//DTD SVG 1.1//EN"
 "http://www.w3.org/Graphics/SVG/1.1/DTD/svg11.dtd">
<!-- Generated by graphviz version 9.0.0 (20230911.1827)
 -->
<!-- Title: dMfm_prm_res_s Pages: 1 -->
<svg width="235pt" height="273pt"
 viewBox="0.00 0.00 235.25 272.75" xmlns="http://www.w3.org/2000/svg" xmlns:xlink="http://www.w3.org/1999/xlink">
<g id="graph0" class="graph" transform="scale(1 1) rotate(0) translate(4 268.75)">
<title>dMfm_prm_res_s</title>
<!-- Node1 -->
<g id="Node000001" class="node">
<title>Node1</title>
<g id="a_Node000001"><a xlink:title=" ">
<polygon fill="#999999" stroke="#666666" points="166.88,-19.25 75.12,-19.25 75.12,0 166.88,0 166.88,-19.25"/>
<text text-anchor="middle" x="121" y="-5.75" font-family="Helvetica,sans-Serif" font-size="10.00">dMfm_prm_res_s</text>
</a>
</g>
</g>
<!-- Node2 -->
<g id="Node000002" class="node">
<title>Node2</title>
<g id="a_Node000002"><a xlink:href="structdMpath__RGB5A3__palDt__s.html" target="_top" xlink:title=" ">
<polygon fill="white" stroke="#666666" points="130,-164.5 0,-164.5 0,-145.25 130,-145.25 130,-164.5"/>
<text text-anchor="middle" x="65" y="-151" font-family="Helvetica,sans-Serif" font-size="10.00">dMpath_RGB5A3_palDt_s</text>
</a>
</g>
</g>
<!-- Node2&#45;&gt;Node1 -->
<g id="edge1_Node000001_Node000002" class="edge">
<title>Node2&#45;&gt;Node1</title>
<g id="a_edge1_Node000001_Node000002"><a xlink:title=" ">
<path fill="none" stroke="#9a32cd" stroke-dasharray="5,2" d="M68.45,-133.79C73.13,-109.81 82.86,-68.94 99.5,-37.25 102.92,-30.73 108.08,-24.28 112.48,-19.36"/>
<polygon fill="#9a32cd" stroke="#9a32cd" points="65.04,-132.99 66.69,-143.45 71.93,-134.25 65.04,-132.99"/>
</a>
</g>
<text text-anchor="middle" x="126.75" y="-78.38" font-family="Helvetica,sans-Serif" font-size="10.00" fill="grey"> palette_data</text>
</g>
<!-- Node3 -->
<g id="Node000003" class="node">
<title>Node3</title>
<g id="a_Node000003"><a xlink:href="structdMpath__RGB5A3__s.html" target="_top" xlink:title=" ">
<polygon fill="white" stroke="#666666" points="116.12,-264.75 13.88,-264.75 13.88,-245.5 116.12,-245.5 116.12,-264.75"/>
<text text-anchor="middle" x="65" y="-251.25" font-family="Helvetica,sans-Serif" font-size="10.00">dMpath_RGB5A3_s</text>
</a>
</g>
</g>
<!-- Node3&#45;&gt;Node2 -->
<g id="edge2_Node000002_Node000003" class="edge">
<title>Node3&#45;&gt;Node2</title>
<g id="a_edge2_Node000002_Node000003"><a xlink:title=" ">
<path fill="none" stroke="#9a32cd" stroke-dasharray="5,2" d="M65,-233.82C65,-212.67 65,-180.48 65,-164.92"/>
<polygon fill="#9a32cd" stroke="#9a32cd" points="61.5,-233.54 65,-243.54 68.5,-233.54 61.5,-233.54"/>
</a>
</g>
<text text-anchor="middle" x="84.88" y="-218" font-family="Helvetica,sans-Serif" font-size="10.00" fill="grey"> field_0x0</text>
<text text-anchor="middle" x="84.88" y="-206.75" font-family="Helvetica,sans-Serif" font-size="10.00" fill="grey">field_0x2</text>
<text text-anchor="middle" x="84.88" y="-195.5" font-family="Helvetica,sans-Serif" font-size="10.00" fill="grey">field_0x4</text>
<text text-anchor="middle" x="84.88" y="-184.25" font-family="Helvetica,sans-Serif" font-size="10.00" fill="grey">field_0x6</text>
</g>
<!-- Node4 -->
<g id="Node000004" class="node">
<title>Node4</title>
<g id="a_Node000004"><a xlink:href="struct__GXColor.html" target="_top" xlink:title=" ">
<polygon fill="white" stroke="#666666" points="206,-164.5 148,-164.5 148,-145.25 206,-145.25 206,-164.5"/>
<text text-anchor="middle" x="177" y="-151" font-family="Helvetica,sans-Serif" font-size="10.00">_GXColor</text>
</a>
</g>
</g>
<!-- Node4&#45;&gt;Node1 -->
<g id="edge3_Node000001_Node000004" class="edge">
<title>Node4&#45;&gt;Node1</title>
<g id="a_edge3_Node000001_Node000004"><a xlink:title=" ">
<path fill="none" stroke="#9a32cd" stroke-dasharray="5,2" d="M177.39,-133.53C176.95,-108.97 173.24,-67.24 155,-37.25 150.64,-30.08 143.58,-24.08 137.03,-19.61"/>
<polygon fill="#9a32cd" stroke="#9a32cd" points="173.89,-133.42 177.37,-143.42 180.89,-133.43 173.89,-133.42"/>
</a>
</g>
<text text-anchor="middle" x="202.12" y="-117.75" font-family="Helvetica,sans-Serif" font-size="10.00" fill="grey"> field_0x108</text>
<text text-anchor="middle" x="202.12" y="-106.5" font-family="Helvetica,sans-Serif" font-size="10.00" fill="grey">field_0x128</text>
<text text-anchor="middle" x="202.12" y="-95.25" font-family="Helvetica,sans-Serif" font-size="10.00" fill="grey">field_0x148</text>
<text text-anchor="middle" x="202.12" y="-84" font-family="Helvetica,sans-Serif" font-size="10.00" fill="grey">field_0xd8</text>
<text text-anchor="middle" x="202.12" y="-72.75" font-family="Helvetica,sans-Serif" font-size="10.00" fill="grey">field_0xdc</text>
<text text-anchor="middle" x="202.12" y="-61.5" font-family="Helvetica,sans-Serif" font-size="10.00" fill="grey">field_0xe0</text>
<text text-anchor="middle" x="202.12" y="-50.25" font-family="Helvetica,sans-Serif" font-size="10.00" fill="grey">field_0xe4</text>
<text text-anchor="middle" x="202.12" y="-39" font-family="Helvetica,sans-Serif" font-size="10.00" fill="grey">field_0xe8</text>
</g>
</g>
</svg>
