<?xml version="1.0" encoding="UTF-8" standalone="no"?>
<!DOCTYPE svg PUBLIC "-//W3C//DTD SVG 1.1//EN"
 "http://www.w3.org/Graphics/SVG/1.1/DTD/svg11.dtd">
<!-- Generated by graphviz version 9.0.0 (20230911.1827)
 -->
<!-- Title: JAISoundStarter Pages: 1 -->
<svg width="340pt" height="260pt"
 viewBox="0.00 0.00 340.25 259.50" xmlns="http://www.w3.org/2000/svg" xmlns:xlink="http://www.w3.org/1999/xlink">
<g id="graph0" class="graph" transform="scale(1 1) rotate(0) translate(4 255.5)">
<title>JAISoundStarter</title>
<!-- Node1 -->
<g id="Node000001" class="node">
<title>Node1</title>
<g id="a_Node000001"><a xlink:title=" ">
<polygon fill="#999999" stroke="#666666" points="216.5,-185 128.5,-185 128.5,-165.75 216.5,-165.75 216.5,-185"/>
<text text-anchor="middle" x="172.5" y="-171.5" font-family="Helvetica,sans-Serif" font-size="10.00">JAISoundStarter</text>
</a>
</g>
</g>
<!-- Node3 -->
<g id="Node000003" class="node">
<title>Node3</title>
<g id="a_Node000003"><a xlink:href="structZ2SoundStarter.html" target="_top" xlink:title=" ">
<polygon fill="white" stroke="#666666" points="214.62,-129.75 130.38,-129.75 130.38,-110.5 214.62,-110.5 214.62,-129.75"/>
<text text-anchor="middle" x="172.5" y="-116.25" font-family="Helvetica,sans-Serif" font-size="10.00">Z2SoundStarter</text>
</a>
</g>
</g>
<!-- Node1&#45;&gt;Node3 -->
<g id="edge2_Node000001_Node000003" class="edge">
<title>Node1&#45;&gt;Node3</title>
<g id="a_edge2_Node000001_Node000003"><a xlink:title=" ">
<path fill="none" stroke="#63b8ff" d="M172.5,-154.13C172.5,-145.84 172.5,-136.67 172.5,-130.11"/>
<polygon fill="#63b8ff" stroke="#63b8ff" points="169,-154.07 172.5,-164.07 176,-154.07 169,-154.07"/>
</a>
</g>
</g>
<!-- Node2 -->
<g id="Node000002" class="node">
<title>Node2</title>
<g id="a_Node000002"><a xlink:href="classJASGlobalInstance.html" target="_top" xlink:title=" ">
<polygon fill="white" stroke="#666666" points="225.5,-251.5 119.5,-251.5 119.5,-221 225.5,-221 225.5,-251.5"/>
<text text-anchor="start" x="127.5" y="-238" font-family="Helvetica,sans-Serif" font-size="10.00">JASGlobalInstance&lt;</text>
<text text-anchor="middle" x="172.5" y="-226.75" font-family="Helvetica,sans-Serif" font-size="10.00"> JAISoundStarter &gt;</text>
</a>
</g>
</g>
<!-- Node2&#45;&gt;Node1 -->
<g id="edge1_Node000001_Node000002" class="edge">
<title>Node2&#45;&gt;Node1</title>
<g id="a_edge1_Node000001_Node000002"><a xlink:title=" ">
<path fill="none" stroke="#63b8ff" d="M172.5,-209.23C172.5,-200.73 172.5,-191.84 172.5,-185.45"/>
<polygon fill="#63b8ff" stroke="#63b8ff" points="169,-209.18 172.5,-219.18 176,-209.18 169,-209.18"/>
</a>
</g>
</g>
<!-- Node4 -->
<g id="Node000004" class="node">
<title>Node4</title>
<g id="a_Node000004"><a xlink:href="structZ2LinkSoundStarter.html" target="_top" xlink:title=" ">
<polygon fill="white" stroke="#666666" points="103,-74.5 0,-74.5 0,-55.25 103,-55.25 103,-74.5"/>
<text text-anchor="middle" x="51.5" y="-61" font-family="Helvetica,sans-Serif" font-size="10.00">Z2LinkSoundStarter</text>
</a>
</g>
</g>
<!-- Node3&#45;&gt;Node4 -->
<g id="edge3_Node000003_Node000004" class="edge">
<title>Node3&#45;&gt;Node4</title>
<g id="a_edge3_Node000003_Node000004"><a xlink:title=" ">
<path fill="none" stroke="#63b8ff" d="M141.59,-105.52C119.79,-95.93 91.19,-83.34 72.13,-74.95"/>
<polygon fill="#63b8ff" stroke="#63b8ff" points="140.03,-108.66 150.59,-109.48 142.85,-102.25 140.03,-108.66"/>
</a>
</g>
</g>
<!-- Node6 -->
<g id="Node000006" class="node">
<title>Node6</title>
<g id="a_Node000006"><a xlink:href="structZ2RideSoundStarter.html" target="_top" xlink:title=" ">
<polygon fill="white" stroke="#666666" points="224.38,-74.5 120.62,-74.5 120.62,-55.25 224.38,-55.25 224.38,-74.5"/>
<text text-anchor="middle" x="172.5" y="-61" font-family="Helvetica,sans-Serif" font-size="10.00">Z2RideSoundStarter</text>
</a>
</g>
</g>
<!-- Node3&#45;&gt;Node6 -->
<g id="edge5_Node000003_Node000006" class="edge">
<title>Node3&#45;&gt;Node6</title>
<g id="a_edge5_Node000003_Node000006"><a xlink:title=" ">
<path fill="none" stroke="#63b8ff" d="M172.5,-98.88C172.5,-90.59 172.5,-81.42 172.5,-74.86"/>
<polygon fill="#63b8ff" stroke="#63b8ff" points="169,-98.82 172.5,-108.82 176,-98.82 169,-98.82"/>
</a>
</g>
</g>
<!-- Node8 -->
<g id="Node000008" class="node">
<title>Node8</title>
<g id="a_Node000008"><a xlink:href="structZ2SpeechStarter.html" target="_top" xlink:title=" ">
<polygon fill="white" stroke="#666666" points="332.25,-74.5 242.75,-74.5 242.75,-55.25 332.25,-55.25 332.25,-74.5"/>
<text text-anchor="middle" x="287.5" y="-61" font-family="Helvetica,sans-Serif" font-size="10.00">Z2SpeechStarter</text>
</a>
</g>
</g>
<!-- Node3&#45;&gt;Node8 -->
<g id="edge7_Node000003_Node000008" class="edge">
<title>Node3&#45;&gt;Node8</title>
<g id="a_edge7_Node000003_Node000008"><a xlink:title=" ">
<path fill="none" stroke="#63b8ff" d="M202.45,-105.26C223.09,-95.7 249.94,-83.27 267.9,-74.95"/>
<polygon fill="#63b8ff" stroke="#63b8ff" points="200.99,-102.08 193.38,-109.46 203.93,-108.43 200.99,-102.08"/>
</a>
</g>
</g>
<!-- Node5 -->
<g id="Node000005" class="node">
<title>Node5</title>
<g id="a_Node000005"><a xlink:href="classZ2CreatureLink.html" target="_top" xlink:title=" ">
<polygon fill="white" stroke="#666666" points="92.88,-19.25 10.12,-19.25 10.12,0 92.88,0 92.88,-19.25"/>
<text text-anchor="middle" x="51.5" y="-5.75" font-family="Helvetica,sans-Serif" font-size="10.00">Z2CreatureLink</text>
</a>
</g>
</g>
<!-- Node4&#45;&gt;Node5 -->
<g id="edge4_Node000004_Node000005" class="edge">
<title>Node4&#45;&gt;Node5</title>
<g id="a_edge4_Node000004_Node000005"><a xlink:title=" ">
<path fill="none" stroke="#63b8ff" d="M51.5,-43.63C51.5,-35.34 51.5,-26.17 51.5,-19.61"/>
<polygon fill="#63b8ff" stroke="#63b8ff" points="48,-43.57 51.5,-53.57 55,-43.57 48,-43.57"/>
</a>
</g>
</g>
<!-- Node7 -->
<g id="Node000007" class="node">
<title>Node7</title>
<g id="a_Node000007"><a xlink:href="classZ2CreatureRide.html" target="_top" xlink:title=" ">
<polygon fill="white" stroke="#666666" points="214.25,-19.25 130.75,-19.25 130.75,0 214.25,0 214.25,-19.25"/>
<text text-anchor="middle" x="172.5" y="-5.75" font-family="Helvetica,sans-Serif" font-size="10.00">Z2CreatureRide</text>
</a>
</g>
</g>
<!-- Node6&#45;&gt;Node7 -->
<g id="edge6_Node000006_Node000007" class="edge">
<title>Node6&#45;&gt;Node7</title>
<g id="a_edge6_Node000006_Node000007"><a xlink:title=" ">
<path fill="none" stroke="#63b8ff" d="M172.5,-43.63C172.5,-35.34 172.5,-26.17 172.5,-19.61"/>
<polygon fill="#63b8ff" stroke="#63b8ff" points="169,-43.57 172.5,-53.57 176,-43.57 169,-43.57"/>
</a>
</g>
</g>
</g>
</svg>
