<?xml version="1.0" encoding="UTF-8" standalone="no"?>
<!DOCTYPE svg PUBLIC "-//W3C//DTD SVG 1.1//EN"
 "http://www.w3.org/Graphics/SVG/1.1/DTD/svg11.dtd">
<!-- Generated by graphviz version 9.0.0 (20230911.1827)
 -->
<!-- Title: dBgS_LinChk Pages: 1 -->
<!--zoomable 286 -->

<svg id="main" version="1.1" xmlns="http://www.w3.org/2000/svg" xmlns:xlink="http://www.w3.org/1999/xlink" xml:space="preserve" onload="init(evt)">
<style type="text/css"><![CDATA[
.node, .edge {opacity: 0.7;}
.node.selected, .edge.selected {opacity: 1;}
.edge:hover path { stroke: red; }
.edge:hover polygon { stroke: red; fill: red; }
]]></style>

<defs>
  <circle id="rim" cx="0" cy="0" r="7"/>
  <circle id="rim2" cx="0" cy="0" r="3.5"/>
  <g id="zoomPlus">
    <use xlink:href="#rim" fill="#404040"><set attributeName="fill" to="#808080" begin="zoomplus.mouseover" end="zoomplus.mouseout"/></use>
    <path d="M-4,0h8M0,-4v8" fill="none" stroke="white" stroke-width="1.5" pointer-events="none"/>
  </g>
  <g id="zoomMin">
    <use xlink:href="#rim" fill="#404040"><set attributeName="fill" to="#808080" begin="zoomminus.mouseover" end="zoomminus.mouseout"/></use>
    <path d="M-4,0h8" fill="none" stroke="white" stroke-width="1.5" pointer-events="none"/>
  </g>
  <g id="arrowUp" transform="translate(30 24)">
    <use xlink:href="#rim"/>
    <path pointer-events="none" fill="none" stroke="white" stroke-width="1.5" d="M0,-3.0v7 M-2.5,-0.5L0,-3.0L2.5,-0.5"/>
  </g>
  <g id="arrowRight" transform="rotate(90) translate(36 -43)">
    <use xlink:href="#rim"/>
    <path pointer-events="none" fill="none" stroke="white" stroke-width="1.5" d="M0,-3.0v7 M-2.5,-0.5L0,-3.0L2.5,-0.5"/>
  </g>
  <g id="arrowDown" transform="rotate(180) translate(-30 -48)">
    <use xlink:href="#rim"/>
    <path pointer-events="none" fill="none" stroke="white" stroke-width="1.5" d="M0,-3.0v7 M-2.5,-0.5L0,-3.0L2.5,-0.5"/>
  </g>
  <g id="arrowLeft" transform="rotate(270) translate(-36 17)">
    <use xlink:href="#rim"/>
    <path pointer-events="none" fill="none" stroke="white" stroke-width="1.5" d="M0,-3.0v7 M-2.5,-0.5L0,-3.0L2.5,-0.5"/>
  </g>
  <g id="resetDef">
    <use xlink:href="#rim2" fill="#404040"><set attributeName="fill" to="#808080" begin="reset.mouseover" end="reset.mouseout"/></use>
  </g>
</defs>
<script type="application/ecmascript">
var viewWidth = 805;
var viewHeight = 286;
var sectionId = 'dynsection-0';
</script>
<script type="application/ecmascript" xlink:href="svg.min.js"/>
<svg id="graph" class="graph">
<g id="viewport">
<title>dBgS_LinChk</title>
<!-- Node1 -->
<g id="Node000001" class="node">
<title>Node1</title>
<g id="a_Node000001"><a xlink:title=" ">
<polygon fill="#999999" stroke="#666666" points="467.5,-148.25 391.5,-148.25 391.5,-129 467.5,-129 467.5,-148.25"/>
<text text-anchor="middle" x="429.5" y="-134.75" font-family="Helvetica,sans-Serif" font-size="10.00">dBgS_LinChk</text>
</a>
</g>
</g>
<!-- Node10 -->
<g id="Node000010" class="node">
<title>Node10</title>
<g id="a_Node000010"><a xlink:href="classdBgS__ArrowLinChk.html" target="_top" xlink:title=" ">
<polygon fill="white" stroke="#666666" points="617,-278.25 515.5,-278.25 515.5,-259 617,-259 617,-278.25"/>
<text text-anchor="middle" x="566.25" y="-264.75" font-family="Helvetica,sans-Serif" font-size="10.00">dBgS_ArrowLinChk</text>
</a>
</g>
</g>
<!-- Node1&#45;&gt;Node10 -->
<g id="edge9_Node000001_Node000010" class="edge">
<title>Node1&#45;&gt;Node10</title>
<g id="a_edge9_Node000001_Node000010"><a xlink:title=" ">
<path fill="none" stroke="#63b8ff" d="M438.61,-159.29C449.56,-184.56 471.48,-226.86 503.5,-250.62 507.8,-253.82 512.67,-256.45 517.72,-258.61"/>
<polygon fill="#63b8ff" stroke="#63b8ff" points="441.86,-158.02 434.81,-150.11 435.4,-160.69 441.86,-158.02"/>
</a>
</g>
</g>
<!-- Node11 -->
<g id="Node000011" class="node">
<title>Node11</title>
<g id="a_Node000011"><a xlink:href="classdBgS__BombLinChk.html" target="_top" xlink:title=" ">
<polygon fill="white" stroke="#666666" points="617,-241.25 515.5,-241.25 515.5,-222 617,-222 617,-241.25"/>
<text text-anchor="middle" x="566.25" y="-227.75" font-family="Helvetica,sans-Serif" font-size="10.00">dBgS_BombLinChk</text>
</a>
</g>
</g>
<!-- Node1&#45;&gt;Node11 -->
<g id="edge10_Node000001_Node000011" class="edge">
<title>Node1&#45;&gt;Node11</title>
<g id="a_edge10_Node000001_Node000011"><a xlink:title=" ">
<path fill="none" stroke="#63b8ff" d="M444.44,-157.78C457.79,-174.79 479.42,-199.15 503.5,-213.62 508.76,-216.79 514.62,-219.42 520.56,-221.61"/>
<polygon fill="#63b8ff" stroke="#63b8ff" points="447.33,-155.79 438.5,-149.94 441.75,-160.02 447.33,-155.79"/>
</a>
</g>
</g>
<!-- Node12 -->
<g id="Node000012" class="node">
<title>Node12</title>
<g id="a_Node000012"><a xlink:href="classdBgS__BoomerangLinChk.html" target="_top" xlink:title=" ">
<polygon fill="white" stroke="#666666" points="629,-204.25 503.5,-204.25 503.5,-185 629,-185 629,-204.25"/>
<text text-anchor="middle" x="566.25" y="-190.75" font-family="Helvetica,sans-Serif" font-size="10.00">dBgS_BoomerangLinChk</text>
</a>
</g>
</g>
<!-- Node1&#45;&gt;Node12 -->
<g id="edge11_Node000001_Node000012" class="edge">
<title>Node1&#45;&gt;Node12</title>
<g id="a_edge11_Node000001_Node000012"><a xlink:title=" ">
<path fill="none" stroke="#63b8ff" d="M457.11,-154.08C470.69,-161.56 487.65,-170.26 503.5,-176.62 510.75,-179.54 518.66,-182.2 526.31,-184.54"/>
<polygon fill="#63b8ff" stroke="#63b8ff" points="459.21,-151.25 448.77,-149.41 455.78,-157.35 459.21,-151.25"/>
</a>
</g>
</g>
<!-- Node13 -->
<g id="Node000013" class="node">
<title>Node13</title>
<g id="a_Node000013"><a xlink:href="classdBgS__CamLinChk.html" target="_top" xlink:title=" ">
<polygon fill="white" stroke="#666666" points="614.38,-167.25 518.12,-167.25 518.12,-148 614.38,-148 614.38,-167.25"/>
<text text-anchor="middle" x="566.25" y="-153.75" font-family="Helvetica,sans-Serif" font-size="10.00">dBgS_CamLinChk</text>
</a>
</g>
</g>
<!-- Node1&#45;&gt;Node13 -->
<g id="edge12_Node000001_Node000013" class="edge">
<title>Node1&#45;&gt;Node13</title>
<g id="a_edge12_Node000001_Node000013"><a xlink:title=" ">
<path fill="none" stroke="#63b8ff" d="M479.02,-145.47C491.74,-147.26 505.42,-149.19 518.07,-150.97"/>
<polygon fill="#63b8ff" stroke="#63b8ff" points="479.57,-142.01 469.18,-144.08 478.59,-148.94 479.57,-142.01"/>
</a>
</g>
</g>
<!-- Node15 -->
<g id="Node000015" class="node">
<title>Node15</title>
<g id="a_Node000015"><a xlink:href="classdBgS__HorseLinChk.html" target="_top" xlink:title=" ">
<polygon fill="white" stroke="#666666" points="617.38,-130.25 515.12,-130.25 515.12,-111 617.38,-111 617.38,-130.25"/>
<text text-anchor="middle" x="566.25" y="-116.75" font-family="Helvetica,sans-Serif" font-size="10.00">dBgS_HorseLinChk</text>
</a>
</g>
</g>
<!-- Node1&#45;&gt;Node15 -->
<g id="edge14_Node000001_Node000015" class="edge">
<title>Node1&#45;&gt;Node15</title>
<g id="a_edge14_Node000001_Node000015"><a xlink:title=" ">
<path fill="none" stroke="#63b8ff" d="M478.99,-132.15C490.63,-130.59 503.1,-128.93 514.83,-127.36"/>
<polygon fill="#63b8ff" stroke="#63b8ff" points="478.63,-128.67 469.18,-133.46 479.55,-135.6 478.63,-128.67"/>
</a>
</g>
</g>
<!-- Node16 -->
<g id="Node000016" class="node">
<title>Node16</title>
<g id="a_Node000016"><a xlink:href="classdBgS__LinkLinChk.html" target="_top" xlink:title=" ">
<polygon fill="white" stroke="#666666" points="613.62,-93.25 518.88,-93.25 518.88,-74 613.62,-74 613.62,-93.25"/>
<text text-anchor="middle" x="566.25" y="-79.75" font-family="Helvetica,sans-Serif" font-size="10.00">dBgS_LinkLinChk</text>
</a>
</g>
</g>
<!-- Node1&#45;&gt;Node16 -->
<g id="edge15_Node000001_Node000016" class="edge">
<title>Node1&#45;&gt;Node16</title>
<g id="a_edge15_Node000001_Node000016"><a xlink:title=" ">
<path fill="none" stroke="#63b8ff" d="M458.1,-123.11C471.52,-115.96 488.07,-107.72 503.5,-101.62 510.87,-98.71 518.91,-96.03 526.67,-93.67"/>
<polygon fill="#63b8ff" stroke="#63b8ff" points="456.52,-119.98 449.4,-127.83 459.86,-126.13 456.52,-119.98"/>
</a>
</g>
</g>
<!-- Node17 -->
<g id="Node000017" class="node">
<title>Node17</title>
<g id="a_Node000017"><a xlink:href="classdBgS__ObjLinChk.html" target="_top" xlink:title=" ">
<polygon fill="white" stroke="#666666" points="611.75,-56.25 520.75,-56.25 520.75,-37 611.75,-37 611.75,-56.25"/>
<text text-anchor="middle" x="566.25" y="-42.75" font-family="Helvetica,sans-Serif" font-size="10.00">dBgS_ObjLinChk</text>
</a>
</g>
</g>
<!-- Node1&#45;&gt;Node17 -->
<g id="edge16_Node000001_Node000017" class="edge">
<title>Node1&#45;&gt;Node17</title>
<g id="a_edge16_Node000001_Node000017"><a xlink:title=" ">
<path fill="none" stroke="#63b8ff" d="M444.5,-119.74C457.88,-102.95 479.53,-78.92 503.5,-64.62 508.77,-61.48 514.63,-58.85 520.58,-56.67"/>
<polygon fill="#63b8ff" stroke="#63b8ff" points="441.88,-117.4 438.54,-127.46 447.42,-121.68 441.88,-117.4"/>
</a>
</g>
</g>
<!-- Node18 -->
<g id="Node000018" class="node">
<title>Node18</title>
<g id="a_Node000018"><a xlink:href="classdBgS__RopeLinChk.html" target="_top" xlink:title=" ">
<polygon fill="white" stroke="#666666" points="615.5,-19.25 517,-19.25 517,0 615.5,0 615.5,-19.25"/>
<text text-anchor="middle" x="566.25" y="-5.75" font-family="Helvetica,sans-Serif" font-size="10.00">dBgS_RopeLinChk</text>
</a>
</g>
</g>
<!-- Node1&#45;&gt;Node18 -->
<g id="edge17_Node000001_Node000018" class="edge">
<title>Node1&#45;&gt;Node18</title>
<g id="a_edge17_Node000001_Node000018"><a xlink:title=" ">
<path fill="none" stroke="#63b8ff" d="M438.65,-118.14C449.66,-93.1 471.63,-51.17 503.5,-27.62 507.81,-24.44 512.68,-21.82 517.74,-19.66"/>
<polygon fill="#63b8ff" stroke="#63b8ff" points="435.48,-116.65 434.84,-127.23 441.94,-119.36 435.48,-116.65"/>
</a>
</g>
</g>
<!-- Node2 -->
<g id="Node000002" class="node">
<title>Node2</title>
<g id="a_Node000002"><a xlink:href="structcBgS__LinChk.html" target="_top" xlink:title=" ">
<polygon fill="white" stroke="#666666" points="355.5,-167.25 279.5,-167.25 279.5,-148 355.5,-148 355.5,-167.25"/>
<text text-anchor="middle" x="317.5" y="-153.75" font-family="Helvetica,sans-Serif" font-size="10.00">cBgS_LinChk</text>
</a>
</g>
</g>
<!-- Node2&#45;&gt;Node1 -->
<g id="edge1_Node000001_Node000002" class="edge">
<title>Node2&#45;&gt;Node1</title>
<g id="a_edge1_Node000001_Node000002"><a xlink:title=" ">
<path fill="none" stroke="#63b8ff" d="M367.04,-149.24C375.18,-147.84 383.5,-146.4 391.3,-145.05"/>
<polygon fill="#63b8ff" stroke="#63b8ff" points="366.49,-145.78 357.23,-150.93 367.68,-152.68 366.49,-145.78"/>
</a>
</g>
</g>
<!-- Node3 -->
<g id="Node000003" class="node">
<title>Node3</title>
<g id="a_Node000003"><a xlink:href="classcBgS__Chk.html" target="_top" xlink:title=" ">
<polygon fill="white" stroke="#666666" points="222.88,-204.25 160.38,-204.25 160.38,-185 222.88,-185 222.88,-204.25"/>
<text text-anchor="middle" x="191.62" y="-190.75" font-family="Helvetica,sans-Serif" font-size="10.00">cBgS_Chk</text>
</a>
</g>
</g>
<!-- Node3&#45;&gt;Node2 -->
<g id="edge2_Node000002_Node000003" class="edge">
<title>Node3&#45;&gt;Node2</title>
<g id="a_edge2_Node000002_Node000003"><a xlink:title=" ">
<path fill="none" stroke="#63b8ff" d="M233.85,-182.31C249.73,-177.57 267.66,-172.21 282.75,-167.71"/>
<polygon fill="#63b8ff" stroke="#63b8ff" points="233.28,-178.83 224.7,-185.05 235.28,-185.54 233.28,-178.83"/>
</a>
</g>
</g>
<!-- Node4 -->
<g id="Node000004" class="node">
<title>Node4</title>
<g id="a_Node000004"><a xlink:href="structcBgS__PolyInfo.html" target="_top" xlink:title=" ">
<polygon fill="white" stroke="#666666" points="231.88,-167.25 151.38,-167.25 151.38,-148 231.88,-148 231.88,-167.25"/>
<text text-anchor="middle" x="191.62" y="-153.75" font-family="Helvetica,sans-Serif" font-size="10.00">cBgS_PolyInfo</text>
</a>
</g>
</g>
<!-- Node4&#45;&gt;Node2 -->
<g id="edge3_Node000002_Node000004" class="edge">
<title>Node4&#45;&gt;Node2</title>
<g id="a_edge3_Node000002_Node000004"><a xlink:title=" ">
<path fill="none" stroke="#63b8ff" d="M243.36,-157.62C255.29,-157.62 267.8,-157.62 279.03,-157.62"/>
<polygon fill="#63b8ff" stroke="#63b8ff" points="243.67,-154.13 233.67,-157.63 243.67,-161.13 243.67,-154.13"/>
</a>
</g>
</g>
<!-- Node5 -->
<g id="Node000005" class="node">
<title>Node5</title>
<g id="a_Node000005"><a xlink:href="classdBgS__Chk.html" target="_top" xlink:title=" ">
<polygon fill="white" stroke="#666666" points="348.75,-130.25 286.25,-130.25 286.25,-111 348.75,-111 348.75,-130.25"/>
<text text-anchor="middle" x="317.5" y="-116.75" font-family="Helvetica,sans-Serif" font-size="10.00">dBgS_Chk</text>
</a>
</g>
</g>
<!-- Node5&#45;&gt;Node1 -->
<g id="edge4_Node000001_Node000005" class="edge">
<title>Node5&#45;&gt;Node1</title>
<g id="a_edge4_Node000001_Node000005"><a xlink:title=" ">
<path fill="none" stroke="#63b8ff" d="M360.32,-127.47C370.54,-129.14 381.4,-130.92 391.38,-132.55"/>
<polygon fill="#63b8ff" stroke="#63b8ff" points="361.07,-124.04 350.63,-125.88 359.94,-130.95 361.07,-124.04"/>
</a>
</g>
</g>
<!-- Node6 -->
<g id="Node000006" class="node">
<title>Node6</title>
<g id="a_Node000006"><a xlink:href="structdBgS__PolyPassChk.html" target="_top" xlink:title=" ">
<polygon fill="white" stroke="#666666" points="243.5,-130.25 139.75,-130.25 139.75,-111 243.5,-111 243.5,-130.25"/>
<text text-anchor="middle" x="191.62" y="-116.75" font-family="Helvetica,sans-Serif" font-size="10.00">dBgS_PolyPassChk</text>
</a>
</g>
</g>
<!-- Node6&#45;&gt;Node5 -->
<g id="edge5_Node000005_Node000006" class="edge">
<title>Node6&#45;&gt;Node5</title>
<g id="a_edge5_Node000005_Node000006"><a xlink:title=" ">
<path fill="none" stroke="#63b8ff" d="M254.96,-120.62C265.8,-120.62 276.61,-120.62 286.09,-120.62"/>
<polygon fill="#63b8ff" stroke="#63b8ff" points="255.24,-117.13 245.24,-120.63 255.24,-124.13 255.24,-117.13"/>
</a>
</g>
</g>
<!-- Node7 -->
<g id="Node000007" class="node">
<title>Node7</title>
<g id="a_Node000007"><a xlink:href="classcBgS__PolyPassChk.html" target="_top" xlink:title=" ">
<polygon fill="white" stroke="#666666" points="103.75,-130.25 0,-130.25 0,-111 103.75,-111 103.75,-130.25"/>
<text text-anchor="middle" x="51.88" y="-116.75" font-family="Helvetica,sans-Serif" font-size="10.00">cBgS_PolyPassChk</text>
</a>
</g>
</g>
<!-- Node7&#45;&gt;Node6 -->
<g id="edge6_Node000006_Node000007" class="edge">
<title>Node7&#45;&gt;Node6</title>
<g id="a_edge6_Node000006_Node000007"><a xlink:title=" ">
<path fill="none" stroke="#63b8ff" d="M115.64,-120.62C123.55,-120.62 131.58,-120.62 139.29,-120.62"/>
<polygon fill="#63b8ff" stroke="#63b8ff" points="115.68,-117.13 105.68,-120.63 115.68,-124.13 115.68,-117.13"/>
</a>
</g>
</g>
<!-- Node8 -->
<g id="Node000008" class="node">
<title>Node8</title>
<g id="a_Node000008"><a xlink:href="classdBgS__GrpPassChk.html" target="_top" xlink:title=" ">
<polygon fill="white" stroke="#666666" points="242,-93.25 141.25,-93.25 141.25,-74 242,-74 242,-93.25"/>
<text text-anchor="middle" x="191.62" y="-79.75" font-family="Helvetica,sans-Serif" font-size="10.00">dBgS_GrpPassChk</text>
</a>
</g>
</g>
<!-- Node8&#45;&gt;Node5 -->
<g id="edge7_Node000005_Node000008" class="edge">
<title>Node8&#45;&gt;Node5</title>
<g id="a_edge7_Node000005_Node000008"><a xlink:title=" ">
<path fill="none" stroke="#63b8ff" d="M237.34,-96.98C253.52,-101.82 271.41,-107.16 286.08,-111.54"/>
<polygon fill="#63b8ff" stroke="#63b8ff" points="238.51,-93.68 227.92,-94.17 236.5,-100.38 238.51,-93.68"/>
</a>
</g>
</g>
<!-- Node9 -->
<g id="Node000009" class="node">
<title>Node9</title>
<g id="a_Node000009"><a xlink:href="classcBgS__GrpPassChk.html" target="_top" xlink:title=" ">
<polygon fill="white" stroke="#666666" points="102.25,-93.25 1.5,-93.25 1.5,-74 102.25,-74 102.25,-93.25"/>
<text text-anchor="middle" x="51.88" y="-79.75" font-family="Helvetica,sans-Serif" font-size="10.00">cBgS_GrpPassChk</text>
</a>
</g>
</g>
<!-- Node9&#45;&gt;Node8 -->
<g id="edge8_Node000008_Node000009" class="edge">
<title>Node9&#45;&gt;Node8</title>
<g id="a_edge8_Node000008_Node000009"><a xlink:title=" ">
<path fill="none" stroke="#63b8ff" d="M113.92,-83.62C122.96,-83.62 132.19,-83.62 140.97,-83.62"/>
<polygon fill="#63b8ff" stroke="#63b8ff" points="114.12,-80.13 104.12,-83.63 114.12,-87.13 114.12,-80.13"/>
</a>
</g>
</g>
<!-- Node14 -->
<g id="Node000014" class="node">
<title>Node14</title>
<g id="a_Node000014"><a xlink:href="classdBgS__CamLinChk__NorWtr.html" target="_top" xlink:title=" ">
<polygon fill="white" stroke="#666666" points="797.25,-167.25 665,-167.25 665,-148 797.25,-148 797.25,-167.25"/>
<text text-anchor="middle" x="731.12" y="-153.75" font-family="Helvetica,sans-Serif" font-size="10.00">dBgS_CamLinChk_NorWtr</text>
</a>
</g>
</g>
<!-- Node13&#45;&gt;Node14 -->
<g id="edge13_Node000013_Node000014" class="edge">
<title>Node13&#45;&gt;Node14</title>
<g id="a_edge13_Node000013_Node000014"><a xlink:title=" ">
<path fill="none" stroke="#63b8ff" d="M626.05,-157.62C638.58,-157.62 651.9,-157.62 664.66,-157.62"/>
<polygon fill="#63b8ff" stroke="#63b8ff" points="626.31,-154.13 616.31,-157.63 626.31,-161.13 626.31,-154.13"/>
</a>
</g>
</g>
</g>
</svg>

<g id="navigator" transform="translate(0 0)" fill="#404254">
  <rect fill="#f2f5e9" fill-opacity="0.5" stroke="#606060" stroke-width=".5" x="0" y="0" width="60" height="60"/>
  <use id="zoomplus" xlink:href="#zoomPlus" x="17" y="9" onmousedown="handleZoom(evt,'in')"/>
  <use id="zoomminus" xlink:href="#zoomMin" x="42" y="9" onmousedown="handleZoom(evt,'out')"/>
  <use id="reset" xlink:href="#resetDef" x="30" y="36" onmousedown="handleReset()"/>
   <use id="arrowup" xlink:href="#arrowUp" x="0" y="0" onmousedown="handlePan(0,-1)"/>
  <use id="arrowright" xlink:href="#arrowRight" x="0" y="0" onmousedown="handlePan(1,0)"/>
  <use id="arrowdown" xlink:href="#arrowDown" x="0" y="0" onmousedown="handlePan(0,1)"/>
  <use id="arrowleft" xlink:href="#arrowLeft" x="0" y="0" onmousedown="handlePan(-1,0)"/>
</g>
<svg viewBox="0 0 15 15" width="100%" height="30px" preserveAspectRatio="xMaxYMin meet">
 <g id="arrow_out" transform="scale(0.3 0.3)">
  <a xlink:href="structdBgS__LinChk__inherit__graph_org.svg" target="_base">
   <rect id="button" ry="5" rx="5" y="6" x="6" height="38" width="38"
        fill="#f2f5e9" fill-opacity="0.5" stroke="#606060" stroke-width="1.0"/>
   <path id="arrow"
     d="M 11.500037,31.436501 C 11.940474,20.09759 22.043105,11.32322 32.158766,21.979434 L 37.068811,17.246167 C 37.068811,17.246167 37.088388,32 37.088388,32 L 22.160133,31.978069 C 22.160133,31.978069 26.997745,27.140456 26.997745,27.140456 C 18.528582,18.264221 13.291696,25.230495 11.500037,31.436501 z"
     style="fill:#404040;"/>
  </a>
 </g>
</svg>

<style type='text/css'>
<![CDATA[
[data-mouse-over-selected='false'] { opacity: 0.7; }
[data-mouse-over-selected='true']  { opacity: 1.0; }
]]>
</style>
<script type="application/ecmascript"><![CDATA[
document.addEventListener('DOMContentLoaded', (event) => {
  highlightEdges();
  highlightAdjacentNodes();
});
]]></script>
</svg>
