<?xml version="1.0" encoding="UTF-8" standalone="no"?>
<!DOCTYPE svg PUBLIC "-//W3C//DTD SVG 1.1//EN"
 "http://www.w3.org/Graphics/SVG/1.1/DTD/svg11.dtd">
<!-- Generated by graphviz version 9.0.0 (20230911.1827)
 -->
<!-- Title: stage_arrow_class Pages: 1 -->
<svg width="205pt" height="287pt"
 viewBox="0.00 0.00 205.38 287.25" xmlns="http://www.w3.org/2000/svg" xmlns:xlink="http://www.w3.org/1999/xlink">

<svg id="main" version="1.1" xmlns="http://www.w3.org/2000/svg" xmlns:xlink="http://www.w3.org/1999/xlink" xml:space="preserve" onload="init(evt)">
<style type="text/css"><![CDATA[
.node, .edge {opacity: 0.7;}
.node.selected, .edge.selected {opacity: 1;}
.edge:hover path { stroke: red; }
.edge:hover polygon { stroke: red; fill: red; }
]]></style>
<script type="application/ecmascript" xlink:href="svg.min.js"/>
<svg id="graph" class="graph">
<g id="graph0" class="graph" transform="scale(1 1) rotate(0) translate(4 283.25)">
<title>stage_arrow_class</title>
<!-- Node1 -->
<g id="Node000001" class="node">
<title>Node1</title>
<g id="a_Node000001"><a xlink:title=" ">
<polygon fill="#999999" stroke="#666666" points="125.38,-19.25 27.62,-19.25 27.62,0 125.38,0 125.38,-19.25"/>
<text text-anchor="middle" x="76.5" y="-5.75" font-family="Helvetica,sans-Serif" font-size="10.00">stage_arrow_class</text>
</a>
</g>
</g>
<!-- Node2 -->
<g id="Node000002" class="node">
<title>Node2</title>
<g id="a_Node000002"><a xlink:href="structstage__arrow__data__class.html" target="_top" xlink:title=" ">
<polygon fill="white" stroke="#666666" points="137.38,-85.75 15.62,-85.75 15.62,-66.5 137.38,-66.5 137.38,-85.75"/>
<text text-anchor="middle" x="76.5" y="-72.25" font-family="Helvetica,sans-Serif" font-size="10.00">stage_arrow_data_class</text>
</a>
</g>
</g>
<!-- Node2&#45;&gt;Node1 -->
<g id="edge1_Node000001_Node000002" class="edge">
<title>Node2&#45;&gt;Node1</title>
<g id="a_edge1_Node000001_Node000002"><a xlink:title=" ">
<path fill="none" stroke="#9a32cd" stroke-dasharray="5,2" d="M76.5,-54.65C76.5,-42.82 76.5,-28.54 76.5,-19.52"/>
<polygon fill="#9a32cd" stroke="#9a32cd" points="73,-54.64 76.5,-64.64 80,-54.64 73,-54.64"/>
</a>
</g>
<text text-anchor="middle" x="96.75" y="-39" font-family="Helvetica,sans-Serif" font-size="10.00" fill="grey"> mEntries</text>
</g>
<!-- Node3 -->
<g id="Node000003" class="node">
<title>Node3</title>
<g id="a_Node000003"><a xlink:href="structcXyz.html" target="_top" xlink:title=" ">
<polygon fill="white" stroke="#666666" points="37,-187.62 0,-187.62 0,-168.38 37,-168.38 37,-187.62"/>
<text text-anchor="middle" x="18.5" y="-174.12" font-family="Helvetica,sans-Serif" font-size="10.00">cXyz</text>
</a>
</g>
</g>
<!-- Node3&#45;&gt;Node2 -->
<g id="edge2_Node000002_Node000003" class="edge">
<title>Node3&#45;&gt;Node2</title>
<g id="a_edge2_Node000002_Node000003"><a xlink:title=" ">
<path fill="none" stroke="#9a32cd" stroke-dasharray="5,2" d="M26.94,-157.98C33.94,-142.86 44.53,-121.4 55.75,-103.75 59.65,-97.62 64.64,-91.18 68.75,-86.17"/>
<polygon fill="#9a32cd" stroke="#9a32cd" points="23.91,-156.2 22.97,-166.76 30.28,-159.09 23.91,-156.2"/>
</a>
</g>
<text text-anchor="middle" x="79.38" y="-105.5" font-family="Helvetica,sans-Serif" font-size="10.00" fill="grey"> mPosition</text>
</g>
<!-- Node3&#45;&gt;Node3 -->
<g id="edge4_Node000003_Node000003" class="edge">
<title>Node3&#45;&gt;Node3</title>
<g id="a_edge4_Node000003_Node000003"><a xlink:title=" ">
<path fill="none" stroke="#9a32cd" stroke-dasharray="5,2" d="M43.27,-189.82C49.93,-189.18 55,-185.24 55,-178 55,-166.96 43.24,-163.6 31.98,-167.91"/>
<polygon fill="#9a32cd" stroke="#9a32cd" points="43.89,-186.37 33.47,-188.32 42.83,-193.29 43.89,-186.37"/>
</a>
</g>
<text text-anchor="middle" x="76" y="-213.5" font-family="Helvetica,sans-Serif" font-size="10.00" fill="grey"> BaseX</text>
<text text-anchor="middle" x="76" y="-202.25" font-family="Helvetica,sans-Serif" font-size="10.00" fill="grey">BaseXY</text>
<text text-anchor="middle" x="76" y="-191" font-family="Helvetica,sans-Serif" font-size="10.00" fill="grey">BaseXYZ</text>
<text text-anchor="middle" x="76" y="-179.75" font-family="Helvetica,sans-Serif" font-size="10.00" fill="grey">BaseXZ</text>
<text text-anchor="middle" x="76" y="-168.5" font-family="Helvetica,sans-Serif" font-size="10.00" fill="grey">BaseY</text>
<text text-anchor="middle" x="76" y="-157.25" font-family="Helvetica,sans-Serif" font-size="10.00" fill="grey">BaseYZ</text>
<text text-anchor="middle" x="76" y="-146" font-family="Helvetica,sans-Serif" font-size="10.00" fill="grey">BaseZ</text>
<text text-anchor="middle" x="76" y="-134.75" font-family="Helvetica,sans-Serif" font-size="10.00" fill="grey">Zero</text>
</g>
<!-- Node4 -->
<g id="Node000004" class="node">
<title>Node4</title>
<g id="a_Node000004"><a xlink:href="structVec.html" target="_top" xlink:title=" ">
<polygon fill="white" stroke="#666666" points="35.12,-279.25 1.88,-279.25 1.88,-260 35.12,-260 35.12,-279.25"/>
<text text-anchor="middle" x="18.5" y="-265.75" font-family="Helvetica,sans-Serif" font-size="10.00">Vec</text>
</a>
</g>
</g>
<!-- Node4&#45;&gt;Node3 -->
<g id="edge3_Node000003_Node000004" class="edge">
<title>Node4&#45;&gt;Node3</title>
<g id="a_edge3_Node000003_Node000004"><a xlink:title=" ">
<path fill="none" stroke="#63b8ff" d="M18.5,-248.44C18.5,-229.44 18.5,-201.89 18.5,-187.89"/>
<polygon fill="#63b8ff" stroke="#63b8ff" points="15,-248.19 18.5,-258.19 22,-248.19 15,-248.19"/>
</a>
</g>
</g>
<!-- Node5 -->
<g id="Node000005" class="node">
<title>Node5</title>
<g id="a_Node000005"><a xlink:href="structcsXyz.html" target="_top" xlink:title=" ">
<polygon fill="white" stroke="#666666" points="157.62,-187.62 115.38,-187.62 115.38,-168.38 157.62,-168.38 157.62,-187.62"/>
<text text-anchor="middle" x="136.5" y="-174.12" font-family="Helvetica,sans-Serif" font-size="10.00">csXyz</text>
</a>
</g>
</g>
<!-- Node5&#45;&gt;Node2 -->
<g id="edge5_Node000002_Node000005" class="edge">
<title>Node5&#45;&gt;Node2</title>
<g id="a_edge5_Node000002_Node000005"><a xlink:title=" ">
<path fill="none" stroke="#9a32cd" stroke-dasharray="5,2" d="M129.18,-157.65C122.95,-142.36 113.17,-120.81 101.5,-103.75 97.06,-97.26 91.06,-90.81 86.05,-85.88"/>
<polygon fill="#9a32cd" stroke="#9a32cd" points="125.76,-158.52 132.67,-166.55 132.28,-155.96 125.76,-158.52"/>
</a>
</g>
<text text-anchor="middle" x="127.12" y="-105.5" font-family="Helvetica,sans-Serif" font-size="10.00" fill="grey"> mAngle</text>
</g>
<!-- Node5&#45;&gt;Node5 -->
<g id="edge7_Node000005_Node000005" class="edge">
<title>Node5&#45;&gt;Node5</title>
<g id="a_edge7_Node000005_Node000005"><a xlink:title=" ">
<path fill="none" stroke="#9a32cd" stroke-dasharray="5,2" d="M162.28,-189.87C169.8,-189.46 175.62,-185.5 175.62,-178 175.62,-166.96 163.01,-163.6 150.95,-167.91"/>
<polygon fill="#9a32cd" stroke="#9a32cd" points="162.86,-186.42 152.44,-188.32 161.78,-193.33 162.86,-186.42"/>
</a>
</g>
<text text-anchor="middle" x="186.5" y="-174.12" font-family="Helvetica,sans-Serif" font-size="10.00" fill="grey"> Zero</text>
</g>
<!-- Node6 -->
<g id="Node000006" class="node">
<title>Node6</title>
<g id="a_Node000006"><a xlink:href="structSVec.html" target="_top" xlink:title=" ">
<polygon fill="white" stroke="#666666" points="156.5,-279.25 116.5,-279.25 116.5,-260 156.5,-260 156.5,-279.25"/>
<text text-anchor="middle" x="136.5" y="-265.75" font-family="Helvetica,sans-Serif" font-size="10.00">SVec</text>
</a>
</g>
</g>
<!-- Node6&#45;&gt;Node5 -->
<g id="edge6_Node000005_Node000006" class="edge">
<title>Node6&#45;&gt;Node5</title>
<g id="a_edge6_Node000005_Node000006"><a xlink:title=" ">
<path fill="none" stroke="#63b8ff" d="M136.5,-248.44C136.5,-229.44 136.5,-201.89 136.5,-187.89"/>
<polygon fill="#63b8ff" stroke="#63b8ff" points="133,-248.19 136.5,-258.19 140,-248.19 133,-248.19"/>
</a>
</g>
</g>
</g>
</svg>
</svg>

<style type='text/css'>
<![CDATA[
[data-mouse-over-selected='false'] { opacity: 0.7; }
[data-mouse-over-selected='true']  { opacity: 1.0; }
]]>
</style>
<script type="application/ecmascript"><![CDATA[
document.addEventListener('DOMContentLoaded', (event) => {
  highlightEdges();
  highlightAdjacentNodes();
});
]]></script>
</svg>
