<?xml version="1.0" encoding="UTF-8" standalone="no"?>
<!DOCTYPE svg PUBLIC "-//W3C//DTD SVG 1.1//EN"
 "http://www.w3.org/Graphics/SVG/1.1/DTD/svg11.dtd">
<!-- Generated by graphviz version 9.0.0 (20230911.1827)
 -->
<!-- Title: JASBasicWaveBank Pages: 1 -->
<!--zoomable 479 -->

<svg id="main" version="1.1" xmlns="http://www.w3.org/2000/svg" xmlns:xlink="http://www.w3.org/1999/xlink" xml:space="preserve" onload="init(evt)">
<style type="text/css"><![CDATA[
.node, .edge {opacity: 0.7;}
.node.selected, .edge.selected {opacity: 1;}
.edge:hover path { stroke: red; }
.edge:hover polygon { stroke: red; fill: red; }
]]></style>

<defs>
  <circle id="rim" cx="0" cy="0" r="7"/>
  <circle id="rim2" cx="0" cy="0" r="3.5"/>
  <g id="zoomPlus">
    <use xlink:href="#rim" fill="#404040"><set attributeName="fill" to="#808080" begin="zoomplus.mouseover" end="zoomplus.mouseout"/></use>
    <path d="M-4,0h8M0,-4v8" fill="none" stroke="white" stroke-width="1.5" pointer-events="none"/>
  </g>
  <g id="zoomMin">
    <use xlink:href="#rim" fill="#404040"><set attributeName="fill" to="#808080" begin="zoomminus.mouseover" end="zoomminus.mouseout"/></use>
    <path d="M-4,0h8" fill="none" stroke="white" stroke-width="1.5" pointer-events="none"/>
  </g>
  <g id="arrowUp" transform="translate(30 24)">
    <use xlink:href="#rim"/>
    <path pointer-events="none" fill="none" stroke="white" stroke-width="1.5" d="M0,-3.0v7 M-2.5,-0.5L0,-3.0L2.5,-0.5"/>
  </g>
  <g id="arrowRight" transform="rotate(90) translate(36 -43)">
    <use xlink:href="#rim"/>
    <path pointer-events="none" fill="none" stroke="white" stroke-width="1.5" d="M0,-3.0v7 M-2.5,-0.5L0,-3.0L2.5,-0.5"/>
  </g>
  <g id="arrowDown" transform="rotate(180) translate(-30 -48)">
    <use xlink:href="#rim"/>
    <path pointer-events="none" fill="none" stroke="white" stroke-width="1.5" d="M0,-3.0v7 M-2.5,-0.5L0,-3.0L2.5,-0.5"/>
  </g>
  <g id="arrowLeft" transform="rotate(270) translate(-36 17)">
    <use xlink:href="#rim"/>
    <path pointer-events="none" fill="none" stroke="white" stroke-width="1.5" d="M0,-3.0v7 M-2.5,-0.5L0,-3.0L2.5,-0.5"/>
  </g>
  <g id="resetDef">
    <use xlink:href="#rim2" fill="#404040"><set attributeName="fill" to="#808080" begin="reset.mouseover" end="reset.mouseout"/></use>
  </g>
</defs>
<script type="application/ecmascript">
var viewWidth = 1558;
var viewHeight = 479;
var sectionId = 'dynsection-1';
</script>
<script type="application/ecmascript" xlink:href="svg.min.js"/>
<svg id="graph" class="graph">
<g id="viewport">
<title>JASBasicWaveBank</title>
<!-- Node1 -->
<g id="Node000001" class="node">
<title>Node1</title>
<g id="a_Node000001"><a xlink:title=" ">
<polygon fill="#999999" stroke="#666666" points="1243.12,-109.25 1136.38,-109.25 1136.38,-90 1243.12,-90 1243.12,-109.25"/>
<text text-anchor="middle" x="1189.75" y="-95.75" font-family="Helvetica,sans-Serif" font-size="10.00">JASBasicWaveBank</text>
</a>
</g>
</g>
<!-- Node20 -->
<g id="Node000020" class="node">
<title>Node20</title>
<g id="a_Node000020"><a xlink:href="structJASBasicWaveBank_1_1TWaveGroup.html" target="_top" xlink:title=" ">
<polygon fill="white" stroke="#666666" points="1549.75,-121.25 1381.5,-121.25 1381.5,-102 1549.75,-102 1549.75,-121.25"/>
<text text-anchor="middle" x="1465.62" y="-107.75" font-family="Helvetica,sans-Serif" font-size="10.00">JASBasicWaveBank::TWaveGroup</text>
</a>
</g>
</g>
<!-- Node1&#45;&gt;Node20 -->
<g id="edge35_Node000020_Node000001" class="edge">
<title>Node1&#45;&gt;Node20</title>
<g id="a_edge35_Node000020_Node000001"><a xlink:title=" ">
<path fill="none" stroke="#9a32cd" stroke-dasharray="5,2" d="M1254.59,-94.59C1262.96,-94.09 1271.43,-93.66 1279.5,-93.38 1316.81,-92.06 1326.32,-90.05 1363.5,-93.38 1381.62,-95 1401.36,-98.22 1418.55,-101.52"/>
<polygon fill="#9a32cd" stroke="#9a32cd" points="1254.54,-91.08 1244.79,-95.22 1254.99,-98.07 1254.54,-91.08"/>
</a>
</g>
<text text-anchor="middle" x="1321.5" y="-94.38" font-family="Helvetica,sans-Serif" font-size="10.00" fill="grey"> mBank</text>
</g>
<!-- Node2 -->
<g id="Node000002" class="node">
<title>Node2</title>
<g id="a_Node000002"><a xlink:href="classJASWaveBank.html" target="_top" xlink:title=" ">
<polygon fill="white" stroke="#666666" points="950.38,-63.25 868.38,-63.25 868.38,-44 950.38,-44 950.38,-63.25"/>
<text text-anchor="middle" x="909.38" y="-49.75" font-family="Helvetica,sans-Serif" font-size="10.00">JASWaveBank</text>
</a>
</g>
</g>
<!-- Node2&#45;&gt;Node1 -->
<g id="edge1_Node000001_Node000002" class="edge">
<title>Node2&#45;&gt;Node1</title>
<g id="a_edge1_Node000001_Node000002"><a xlink:title=" ">
<path fill="none" stroke="#63b8ff" d="M961.98,-62.15C1011.66,-70.36 1086.4,-82.71 1136.34,-90.96"/>
<polygon fill="#63b8ff" stroke="#63b8ff" points="962.78,-58.74 952.35,-60.56 961.64,-65.64 962.78,-58.74"/>
</a>
</g>
</g>
<!-- Node3 -->
<g id="Node000003" class="node">
<title>Node3</title>
<g id="a_Node000003"><a xlink:href="structOSMutex.html" target="_top" xlink:title=" ">
<polygon fill="white" stroke="#666666" points="510.75,-331.25 454.25,-331.25 454.25,-312 510.75,-312 510.75,-331.25"/>
<text text-anchor="middle" x="482.5" y="-317.75" font-family="Helvetica,sans-Serif" font-size="10.00">OSMutex</text>
</a>
</g>
</g>
<!-- Node3&#45;&gt;Node1 -->
<g id="edge2_Node000001_Node000003" class="edge">
<title>Node3&#45;&gt;Node1</title>
<g id="a_edge2_Node000001_Node000003"><a xlink:title=" ">
<path fill="none" stroke="#9a32cd" stroke-dasharray="5,2" d="M501.15,-303.77C515.16,-290.64 535.88,-273.45 557.25,-263.62 647.5,-222.11 900.49,-204.82 995.75,-176.62 1059.75,-157.69 1132.04,-125.91 1167.22,-109.74"/>
<polygon fill="#9a32cd" stroke="#9a32cd" points="498.81,-301.16 494.06,-310.63 503.68,-306.19 498.81,-301.16"/>
</a>
</g>
<text text-anchor="middle" x="768.62" y="-222.38" font-family="Helvetica,sans-Serif" font-size="10.00" fill="grey"> field_0x4</text>
</g>
<!-- Node5 -->
<g id="Node000005" class="node">
<title>Node5</title>
<g id="a_Node000005"><a xlink:href="structOSThread.html" target="_top" xlink:title=" ">
<polygon fill="white" stroke="#666666" points="939.5,-392.25 879.25,-392.25 879.25,-373 939.5,-373 939.5,-392.25"/>
<text text-anchor="middle" x="909.38" y="-378.75" font-family="Helvetica,sans-Serif" font-size="10.00">OSThread</text>
</a>
</g>
</g>
<!-- Node3&#45;&gt;Node5 -->
<g id="edge9_Node000005_Node000003" class="edge">
<title>Node3&#45;&gt;Node5</title>
<g id="a_edge9_Node000005_Node000003"><a xlink:title=" ">
<path fill="none" stroke="#9a32cd" stroke-dasharray="5,2" d="M503.32,-338.42C517.4,-349.33 537.3,-362.76 557.25,-369.62 670.89,-408.71 817.56,-395.34 879.13,-387.1"/>
<polygon fill="#9a32cd" stroke="#9a32cd" points="505.73,-335.87 495.74,-332.33 501.34,-341.32 505.73,-335.87"/>
</a>
</g>
<text text-anchor="middle" x="669.12" y="-396.38" font-family="Helvetica,sans-Serif" font-size="10.00" fill="grey"> mutex</text>
</g>
<!-- Node8 -->
<g id="Node000008" class="node">
<title>Node8</title>
<g id="a_Node000008"><a xlink:href="structOSMutexQueue.html" target="_top" xlink:title=" ">
<polygon fill="white" stroke="#666666" points="711.62,-364.25 626.62,-364.25 626.62,-345 711.62,-345 711.62,-364.25"/>
<text text-anchor="middle" x="669.12" y="-350.75" font-family="Helvetica,sans-Serif" font-size="10.00">OSMutexQueue</text>
</a>
</g>
</g>
<!-- Node3&#45;&gt;Node8 -->
<g id="edge11_Node000008_Node000003" class="edge">
<title>Node3&#45;&gt;Node8</title>
<g id="a_edge11_Node000008_Node000003"><a xlink:title=" ">
<path fill="none" stroke="#9a32cd" stroke-dasharray="5,2" d="M522.18,-328.54C552.63,-333.98 595,-341.55 626.24,-347.14"/>
<polygon fill="#9a32cd" stroke="#9a32cd" points="523.09,-325.15 512.63,-326.83 521.86,-332.04 523.09,-325.15"/>
</a>
</g>
<text text-anchor="middle" x="581.62" y="-355.62" font-family="Helvetica,sans-Serif" font-size="10.00" fill="grey"> head</text>
<text text-anchor="middle" x="581.62" y="-344.38" font-family="Helvetica,sans-Serif" font-size="10.00" fill="grey">tail</text>
</g>
<!-- Node9 -->
<g id="Node000009" class="node">
<title>Node9</title>
<g id="a_Node000009"><a xlink:href="structOSMutexLink.html" target="_top" xlink:title=" ">
<polygon fill="white" stroke="#666666" points="706.75,-290.25 631.5,-290.25 631.5,-271 706.75,-271 706.75,-290.25"/>
<text text-anchor="middle" x="669.12" y="-276.75" font-family="Helvetica,sans-Serif" font-size="10.00">OSMutexLink</text>
</a>
</g>
</g>
<!-- Node3&#45;&gt;Node9 -->
<g id="edge14_Node000009_Node000003" class="edge">
<title>Node3&#45;&gt;Node9</title>
<g id="a_edge14_Node000009_Node000003"><a xlink:title=" ">
<path fill="none" stroke="#9a32cd" stroke-dasharray="5,2" d="M502.62,-304.5C516.64,-293.16 536.73,-279.27 557.25,-273.12 581.19,-265.96 609.28,-267.96 631.2,-271.69"/>
<polygon fill="#9a32cd" stroke="#9a32cd" points="500.49,-301.72 495.11,-310.85 505.01,-307.07 500.49,-301.72"/>
</a>
</g>
<text text-anchor="middle" x="581.62" y="-285.62" font-family="Helvetica,sans-Serif" font-size="10.00" fill="grey"> next</text>
<text text-anchor="middle" x="581.62" y="-274.38" font-family="Helvetica,sans-Serif" font-size="10.00" fill="grey">prev</text>
</g>
<!-- Node13 -->
<g id="Node000013" class="node">
<title>Node13</title>
<g id="a_Node000013"><a xlink:href="classJASHeap.html" target="_top" xlink:title=" ">
<polygon fill="white" stroke="#666666" points="698.12,-100.25 640.12,-100.25 640.12,-81 698.12,-81 698.12,-100.25"/>
<text text-anchor="middle" x="669.12" y="-86.75" font-family="Helvetica,sans-Serif" font-size="10.00">JASHeap</text>
</a>
</g>
</g>
<!-- Node3&#45;&gt;Node13 -->
<g id="edge27_Node000013_Node000003" class="edge">
<title>Node3&#45;&gt;Node13</title>
<g id="a_edge27_Node000013_Node000003"><a xlink:title=" ">
<path fill="none" stroke="#9a32cd" stroke-dasharray="5,2" d="M490.81,-301.18C501.98,-271.85 525.39,-217.11 557.25,-178.38 585.01,-144.63 627.77,-115.39 651.25,-100.7"/>
<polygon fill="#9a32cd" stroke="#9a32cd" points="487.62,-299.74 487.43,-310.33 494.18,-302.17 487.62,-299.74"/>
</a>
</g>
<text text-anchor="middle" x="581.62" y="-179.38" font-family="Helvetica,sans-Serif" font-size="10.00" fill="grey"> mMutex</text>
</g>
<!-- Node21 -->
<g id="Node000021" class="node">
<title>Node21</title>
<g id="a_Node000021"><a xlink:href="structJASWaveArc.html" target="_top" xlink:title=" ">
<polygon fill="white" stroke="#666666" points="946.62,-167.25 872.12,-167.25 872.12,-148 946.62,-148 946.62,-167.25"/>
<text text-anchor="middle" x="909.38" y="-153.75" font-family="Helvetica,sans-Serif" font-size="10.00">JASWaveArc</text>
</a>
</g>
</g>
<!-- Node3&#45;&gt;Node21 -->
<g id="edge34_Node000021_Node000003" class="edge">
<title>Node3&#45;&gt;Node21</title>
<g id="a_edge34_Node000021_Node000003"><a xlink:title=" ">
<path fill="none" stroke="#9a32cd" stroke-dasharray="5,2" d="M493.8,-301.54C505.95,-279.97 528.23,-246.42 557.25,-228.62 610.01,-196.28 792.92,-171.32 871.75,-161.81"/>
<polygon fill="#9a32cd" stroke="#9a32cd" points="490.77,-299.78 489.1,-310.25 496.93,-303.11 490.77,-299.78"/>
</a>
</g>
<text text-anchor="middle" x="669.12" y="-205.38" font-family="Helvetica,sans-Serif" font-size="10.00" fill="grey"> mMutex</text>
</g>
<!-- Node4 -->
<g id="Node000004" class="node">
<title>Node4</title>
<g id="a_Node000004"><a xlink:href="structOSThreadQueue.html" target="_top" xlink:title=" ">
<polygon fill="white" stroke="#666666" points="1234.12,-458.25 1145.38,-458.25 1145.38,-439 1234.12,-439 1234.12,-458.25"/>
<text text-anchor="middle" x="1189.75" y="-444.75" font-family="Helvetica,sans-Serif" font-size="10.00">OSThreadQueue</text>
</a>
</g>
</g>
<!-- Node4&#45;&gt;Node3 -->
<g id="edge3_Node000003_Node000004" class="edge">
<title>Node4&#45;&gt;Node3</title>
<g id="a_edge3_Node000003_Node000004"><a xlink:title=" ">
<path fill="none" stroke="#9a32cd" stroke-dasharray="5,2" d="M1141.51,-461.31C1128.19,-464.33 1113.61,-467.11 1100,-468.62 1061.9,-472.86 1052.04,-470.44 1013.75,-468.62 839.94,-460.39 794.77,-464.98 624,-431.62 593.6,-425.69 583.02,-428.8 557.25,-411.62 524.97,-390.12 499.63,-350.25 488.97,-331.66"/>
<polygon fill="#9a32cd" stroke="#9a32cd" points="1141.96,-464.8 1150.88,-459.09 1140.35,-457.99 1141.96,-464.8"/>
</a>
</g>
<text text-anchor="middle" x="768.62" y="-459.38" font-family="Helvetica,sans-Serif" font-size="10.00" fill="grey"> queue</text>
</g>
<!-- Node4&#45;&gt;Node5 -->
<g id="edge6_Node000005_Node000004" class="edge">
<title>Node4&#45;&gt;Node5</title>
<g id="a_edge6_Node000005_Node000004"><a xlink:title=" ">
<path fill="none" stroke="#9a32cd" stroke-dasharray="5,2" d="M1165.55,-432.49C1148.29,-421.38 1123.73,-407.36 1100,-400.12 1045.29,-383.44 977.93,-381.31 940,-381.69"/>
<polygon fill="#9a32cd" stroke="#9a32cd" points="1163.27,-435.18 1173.54,-437.79 1167.14,-429.35 1163.27,-435.18"/>
</a>
</g>
<text text-anchor="middle" x="1056.88" y="-412.62" font-family="Helvetica,sans-Serif" font-size="10.00" fill="grey"> join_queue</text>
<text text-anchor="middle" x="1056.88" y="-401.38" font-family="Helvetica,sans-Serif" font-size="10.00" fill="grey">queue</text>
</g>
<!-- Node5&#45;&gt;Node3 -->
<g id="edge12_Node000003_Node000005" class="edge">
<title>Node5&#45;&gt;Node3</title>
<g id="a_edge12_Node000003_Node000005"><a xlink:title=" ">
<path fill="none" stroke="#9a32cd" stroke-dasharray="5,2" d="M867.96,-395.14C849.04,-400.39 826.07,-405.9 805,-408.62 725.22,-418.95 703.59,-421.29 624,-409.62 593.36,-405.13 584.16,-404.96 557.25,-389.62 529.71,-373.93 504.05,-346.18 491.52,-331.45"/>
<polygon fill="#9a32cd" stroke="#9a32cd" points="868.77,-398.55 877.42,-392.43 866.84,-391.82 868.77,-398.55"/>
</a>
</g>
<text text-anchor="middle" x="669.12" y="-418.38" font-family="Helvetica,sans-Serif" font-size="10.00" fill="grey"> thread</text>
</g>
<!-- Node5&#45;&gt;Node4 -->
<g id="edge4_Node000004_Node000005" class="edge">
<title>Node5&#45;&gt;Node4</title>
<g id="a_edge4_Node000004_Node000005"><a xlink:title=" ">
<path fill="none" stroke="#9a32cd" stroke-dasharray="5,2" d="M939.75,-397.72C960.03,-407.49 987.89,-419.64 1013.75,-426.62 1057.5,-438.44 1109.16,-443.95 1144.95,-446.49"/>
<polygon fill="#9a32cd" stroke="#9a32cd" points="941.49,-394.68 930.97,-393.4 938.4,-400.96 941.49,-394.68"/>
</a>
</g>
<text text-anchor="middle" x="1056.88" y="-454.62" font-family="Helvetica,sans-Serif" font-size="10.00" fill="grey"> head</text>
<text text-anchor="middle" x="1056.88" y="-443.38" font-family="Helvetica,sans-Serif" font-size="10.00" fill="grey">tail</text>
</g>
<!-- Node7 -->
<g id="Node000007" class="node">
<title>Node7</title>
<g id="a_Node000007"><a xlink:href="structOSThreadLink.html" target="_top" xlink:title=" ">
<polygon fill="white" stroke="#666666" points="1229.25,-343.25 1150.25,-343.25 1150.25,-324 1229.25,-324 1229.25,-343.25"/>
<text text-anchor="middle" x="1189.75" y="-329.75" font-family="Helvetica,sans-Serif" font-size="10.00">OSThreadLink</text>
</a>
</g>
</g>
<!-- Node5&#45;&gt;Node7 -->
<g id="edge8_Node000007_Node000005" class="edge">
<title>Node5&#45;&gt;Node7</title>
<g id="a_edge8_Node000007_Node000005"><a xlink:title=" ">
<path fill="none" stroke="#9a32cd" stroke-dasharray="5,2" d="M930,-365.33C949.64,-349.27 981.48,-326.49 1013.75,-317.12 1062.11,-303.09 1120.83,-314 1156.46,-323.53"/>
<polygon fill="#9a32cd" stroke="#9a32cd" points="927.95,-362.49 922.55,-371.61 932.46,-367.84 927.95,-362.49"/>
</a>
</g>
<text text-anchor="middle" x="1056.88" y="-329.62" font-family="Helvetica,sans-Serif" font-size="10.00" fill="grey"> next</text>
<text text-anchor="middle" x="1056.88" y="-318.38" font-family="Helvetica,sans-Serif" font-size="10.00" fill="grey">prev</text>
</g>
<!-- Node6 -->
<g id="Node000006" class="node">
<title>Node6</title>
<g id="a_Node000006"><a xlink:href="structOSContext.html" target="_top" xlink:title=" ">
<polygon fill="white" stroke="#666666" points="700.75,-327.25 637.5,-327.25 637.5,-308 700.75,-308 700.75,-327.25"/>
<text text-anchor="middle" x="669.12" y="-313.75" font-family="Helvetica,sans-Serif" font-size="10.00">OSContext</text>
</a>
</g>
</g>
<!-- Node6&#45;&gt;Node5 -->
<g id="edge5_Node000005_Node000006" class="edge">
<title>Node6&#45;&gt;Node5</title>
<g id="a_edge5_Node000005_Node000006"><a xlink:title=" ">
<path fill="none" stroke="#9a32cd" stroke-dasharray="5,2" d="M712.48,-325.22C739.22,-330.36 774.38,-337.78 805,-346.38 831.92,-353.93 862.01,-364.76 882.75,-372.62"/>
<polygon fill="#9a32cd" stroke="#9a32cd" points="713.16,-321.78 702.69,-323.37 711.86,-328.66 713.16,-321.78"/>
</a>
</g>
<text text-anchor="middle" x="768.62" y="-347.38" font-family="Helvetica,sans-Serif" font-size="10.00" fill="grey"> context</text>
</g>
<!-- Node7&#45;&gt;Node5 -->
<g id="edge7_Node000005_Node000007" class="edge">
<title>Node7&#45;&gt;Node5</title>
<g id="a_edge7_Node000005_Node000007"><a xlink:title=" ">
<path fill="none" stroke="#9a32cd" stroke-dasharray="5,2" d="M1138.62,-339.38C1103.52,-343.72 1055.6,-350.25 1013.75,-358.12 988.55,-362.86 960.24,-369.68 939.63,-374.92"/>
<polygon fill="#9a32cd" stroke="#9a32cd" points="1139,-342.86 1148.5,-338.18 1138.15,-335.91 1139,-342.86"/>
</a>
</g>
<text text-anchor="middle" x="1056.88" y="-370.62" font-family="Helvetica,sans-Serif" font-size="10.00" fill="grey"> active_threads_link</text>
<text text-anchor="middle" x="1056.88" y="-359.38" font-family="Helvetica,sans-Serif" font-size="10.00" fill="grey">link</text>
</g>
<!-- Node8&#45;&gt;Node5 -->
<g id="edge10_Node000005_Node000008" class="edge">
<title>Node8&#45;&gt;Node5</title>
<g id="a_edge10_Node000005_Node000008"><a xlink:title=" ">
<path fill="none" stroke="#9a32cd" stroke-dasharray="5,2" d="M723.33,-360.88C771.38,-366.53 840.32,-374.63 879.06,-379.18"/>
<polygon fill="#9a32cd" stroke="#9a32cd" points="723.74,-357.4 713.4,-359.71 722.92,-364.35 723.74,-357.4"/>
</a>
</g>
<text text-anchor="middle" x="768.62" y="-371.38" font-family="Helvetica,sans-Serif" font-size="10.00" fill="grey"> owned_mutexes</text>
</g>
<!-- Node9&#45;&gt;Node3 -->
<g id="edge13_Node000003_Node000009" class="edge">
<title>Node9&#45;&gt;Node3</title>
<g id="a_edge13_Node000003_Node000009"><a xlink:title=" ">
<path fill="none" stroke="#9a32cd" stroke-dasharray="5,2" d="M626.99,-293.96C620.02,-296 612.83,-297.97 606,-299.62 573.66,-307.45 535.9,-313.82 510.94,-317.66"/>
<polygon fill="#9a32cd" stroke="#9a32cd" points="627.66,-297.41 636.23,-291.17 625.64,-290.71 627.66,-297.41"/>
</a>
</g>
<text text-anchor="middle" x="581.62" y="-310.38" font-family="Helvetica,sans-Serif" font-size="10.00" fill="grey"> link</text>
</g>
<!-- Node10 -->
<g id="Node000010" class="node">
<title>Node10</title>
<g id="a_Node000010"><a xlink:href="structJASBasicWaveBank_1_1TWaveHandle.html" target="_top" xlink:title=" ">
<polygon fill="white" stroke="#666666" points="995.75,-100.25 823,-100.25 823,-81 995.75,-81 995.75,-100.25"/>
<text text-anchor="middle" x="909.38" y="-86.75" font-family="Helvetica,sans-Serif" font-size="10.00">JASBasicWaveBank::TWaveHandle</text>
</a>
</g>
</g>
<!-- Node10&#45;&gt;Node1 -->
<g id="edge15_Node000001_Node000010" class="edge">
<title>Node10&#45;&gt;Node1</title>
<g id="a_edge15_Node000001_Node000010"><a xlink:title=" ">
<path fill="none" stroke="#9a32cd" stroke-dasharray="5,2" d="M1007.58,-93.77C1050.73,-95.16 1099.83,-96.75 1136.01,-97.92"/>
<polygon fill="#9a32cd" stroke="#9a32cd" points="1007.79,-90.27 997.68,-93.45 1007.56,-97.27 1007.79,-90.27"/>
</a>
</g>
<text text-anchor="middle" x="1056.88" y="-98.38" font-family="Helvetica,sans-Serif" font-size="10.00" fill="grey"> mWaveTable</text>
</g>
<!-- Node11 -->
<g id="Node000011" class="node">
<title>Node11</title>
<g id="a_Node000011"><a xlink:href="classJASWaveHandle.html" target="_top" xlink:title=" ">
<polygon fill="white" stroke="#666666" points="714.25,-63.25 624,-63.25 624,-44 714.25,-44 714.25,-63.25"/>
<text text-anchor="middle" x="669.12" y="-49.75" font-family="Helvetica,sans-Serif" font-size="10.00">JASWaveHandle</text>
</a>
</g>
</g>
<!-- Node11&#45;&gt;Node10 -->
<g id="edge16_Node000010_Node000011" class="edge">
<title>Node11&#45;&gt;Node10</title>
<g id="a_edge16_Node000010_Node000011"><a xlink:title=" ">
<path fill="none" stroke="#63b8ff" d="M725.69,-62.25C760.87,-67.72 806.51,-74.81 843.37,-80.53"/>
<polygon fill="#63b8ff" stroke="#63b8ff" points="726.57,-58.85 716.15,-60.77 725.5,-65.77 726.57,-58.85"/>
</a>
</g>
</g>
<!-- Node12 -->
<g id="Node000012" class="node">
<title>Node12</title>
<g id="a_Node000012"><a xlink:href="structJASWaveInfo.html" target="_top" xlink:title=" ">
<polygon fill="white" stroke="#666666" points="707.12,-26.25 631.12,-26.25 631.12,-7 707.12,-7 707.12,-26.25"/>
<text text-anchor="middle" x="669.12" y="-12.75" font-family="Helvetica,sans-Serif" font-size="10.00">JASWaveInfo</text>
</a>
</g>
</g>
<!-- Node12&#45;&gt;Node10 -->
<g id="edge17_Node000010_Node000012" class="edge">
<title>Node12&#45;&gt;Node10</title>
<g id="a_edge17_Node000010_Node000012"><a xlink:title=" ">
<path fill="none" stroke="#9a32cd" stroke-dasharray="5,2" d="M718.82,-19.27C746.06,-22.72 779.56,-30.42 805,-47.38 816.47,-55.02 811.47,-65.08 823,-72.62 827.82,-75.78 833.08,-78.39 838.56,-80.56"/>
<polygon fill="#9a32cd" stroke="#9a32cd" points="719.39,-15.81 709.07,-18.2 718.63,-22.77 719.39,-15.81"/>
</a>
</g>
<text text-anchor="middle" x="768.62" y="-49.38" font-family="Helvetica,sans-Serif" font-size="10.00" fill="grey"> field_0x4</text>
</g>
<!-- Node13&#45;&gt;Node10 -->
<g id="edge18_Node000010_Node000013" class="edge">
<title>Node13&#45;&gt;Node10</title>
<g id="a_edge18_Node000010_Node000013"><a xlink:title=" ">
<path fill="none" stroke="#9a32cd" stroke-dasharray="5,2" d="M709.88,-90.62C740.55,-90.62 784.09,-90.62 822.58,-90.62"/>
<polygon fill="#9a32cd" stroke="#9a32cd" points="709.9,-87.13 699.9,-90.63 709.9,-94.13 709.9,-87.13"/>
</a>
</g>
<text text-anchor="middle" x="768.62" y="-92.38" font-family="Helvetica,sans-Serif" font-size="10.00" fill="grey"> mHeap</text>
</g>
<!-- Node13&#45;&gt;Node13 -->
<g id="edge29_Node000013_Node000013" class="edge">
<title>Node13&#45;&gt;Node13</title>
<g id="a_edge29_Node000013_Node000013"><a xlink:title=" ">
<path fill="none" stroke="#9a32cd" stroke-dasharray="5,2" d="M653.59,-111.65C655.54,-115.53 660.71,-118.25 669.12,-118.25 684.51,-118.25 689.07,-109.15 682.82,-100.54"/>
<polygon fill="#9a32cd" stroke="#9a32cd" points="657.01,-112.47 655.18,-102.03 650.1,-111.33 657.01,-112.47"/>
</a>
</g>
<text text-anchor="middle" x="669.12" y="-120" font-family="Helvetica,sans-Serif" font-size="10.00" fill="grey"> field_0x40</text>
</g>
<!-- Node13&#45;&gt;Node21 -->
<g id="edge33_Node000021_Node000013" class="edge">
<title>Node13&#45;&gt;Node21</title>
<g id="a_edge33_Node000021_Node000013"><a xlink:title=" ">
<path fill="none" stroke="#9a32cd" stroke-dasharray="5,2" d="M709.25,-101.63C754.53,-114.36 828.48,-135.16 872.38,-147.5"/>
<polygon fill="#9a32cd" stroke="#9a32cd" points="710.42,-98.32 699.85,-98.98 708.53,-105.06 710.42,-98.32"/>
</a>
</g>
<text text-anchor="middle" x="768.62" y="-129.38" font-family="Helvetica,sans-Serif" font-size="10.00" fill="grey"> mHeap</text>
</g>
<!-- Node14 -->
<g id="Node000014" class="node">
<title>Node14</title>
<g id="a_Node000014"><a xlink:href="classJSUTree.html" target="_top" xlink:title=" ">
<polygon fill="white" stroke="#666666" points="539.25,-73.25 425.75,-73.25 425.75,-54 539.25,-54 539.25,-73.25"/>
<text text-anchor="middle" x="482.5" y="-59.75" font-family="Helvetica,sans-Serif" font-size="10.00">JSUTree&lt; JASHeap &gt;</text>
</a>
</g>
</g>
<!-- Node14&#45;&gt;Node13 -->
<g id="edge19_Node000013_Node000014" class="edge">
<title>Node14&#45;&gt;Node13</title>
<g id="a_edge19_Node000013_Node000014"><a xlink:title=" ">
<path fill="none" stroke="#9a32cd" stroke-dasharray="5,2" d="M550.9,-58.95C568.96,-59.07 588.37,-60.47 606,-64.38 614.59,-66.28 615.92,-69.13 624,-72.62 630.07,-75.25 636.66,-78 642.85,-80.53"/>
<polygon fill="#9a32cd" stroke="#9a32cd" points="551.04,-55.45 541.06,-59.02 551.09,-62.45 551.04,-55.45"/>
</a>
</g>
<text text-anchor="middle" x="581.62" y="-65.38" font-family="Helvetica,sans-Serif" font-size="10.00" fill="grey"> mTree</text>
</g>
<!-- Node15 -->
<g id="Node000015" class="node">
<title>Node15</title>
<g id="a_Node000015"><a xlink:href="classJSUList.html" target="_top" xlink:title=" ">
<polygon fill="white" stroke="#666666" points="294,-94.25 219.5,-94.25 219.5,-75 294,-75 294,-94.25"/>
<text text-anchor="middle" x="256.75" y="-80.75" font-family="Helvetica,sans-Serif" font-size="10.00">JSUList&lt; T &gt;</text>
</a>
</g>
</g>
<!-- Node15&#45;&gt;Node14 -->
<g id="edge20_Node000014_Node000015" class="edge">
<title>Node15&#45;&gt;Node14</title>
<g id="a_edge20_Node000014_Node000015"><a xlink:title=" ">
<path fill="none" stroke="#63b8ff" d="M305.58,-80.14C340.68,-76.84 388.46,-72.36 425.37,-68.89"/>
<polygon fill="#63b8ff" stroke="#63b8ff" points="305.33,-76.64 295.7,-81.06 305.99,-83.61 305.33,-76.64"/>
</a>
</g>
</g>
<!-- Node16 -->
<g id="Node000016" class="node">
<title>Node16</title>
<g id="a_Node000016"><a xlink:href="classJSUPtrList.html" target="_top" xlink:title=" ">
<polygon fill="white" stroke="#666666" points="64.75,-53.25 0,-53.25 0,-34 64.75,-34 64.75,-53.25"/>
<text text-anchor="middle" x="32.38" y="-39.75" font-family="Helvetica,sans-Serif" font-size="10.00">JSUPtrList</text>
</a>
</g>
</g>
<!-- Node16&#45;&gt;Node15 -->
<g id="edge21_Node000015_Node000016" class="edge">
<title>Node16&#45;&gt;Node15</title>
<g id="a_edge21_Node000015_Node000016"><a xlink:title=" ">
<path fill="none" stroke="#63b8ff" d="M75.8,-56.82C78.15,-57.46 80.47,-58.06 82.75,-58.62 129.18,-70.13 183.96,-77.32 219.25,-81.15"/>
<polygon fill="#63b8ff" stroke="#63b8ff" points="76.88,-53.49 66.3,-54.13 74.97,-60.22 76.88,-53.49"/>
</a>
</g>
</g>
<!-- Node17 -->
<g id="Node000017" class="node">
<title>Node17</title>
<g id="a_Node000017"><a xlink:href="classJSUPtrLink.html" target="_top" xlink:title=" ">
<polygon fill="white" stroke="#666666" points="201.5,-19.25 134.5,-19.25 134.5,0 201.5,0 201.5,-19.25"/>
<text text-anchor="middle" x="168" y="-5.75" font-family="Helvetica,sans-Serif" font-size="10.00">JSUPtrLink</text>
</a>
</g>
</g>
<!-- Node16&#45;&gt;Node17 -->
<g id="edge23_Node000017_Node000016" class="edge">
<title>Node16&#45;&gt;Node17</title>
<g id="a_edge23_Node000017_Node000016"><a xlink:title=" ">
<path fill="none" stroke="#9a32cd" stroke-dasharray="5,2" d="M51.75,-26.33C60.45,-19.31 71.41,-12.01 82.75,-8.38 99.19,-3.11 118.37,-2.96 134.28,-4.34"/>
<polygon fill="#9a32cd" stroke="#9a32cd" points="49.71,-23.47 44.43,-32.66 54.29,-28.77 49.71,-23.47"/>
</a>
</g>
<text text-anchor="middle" x="99.62" y="-10.38" font-family="Helvetica,sans-Serif" font-size="10.00" fill="grey"> mList</text>
</g>
<!-- Node17&#45;&gt;Node16 -->
<g id="edge22_Node000016_Node000017" class="edge">
<title>Node17&#45;&gt;Node16</title>
<g id="a_edge22_Node000016_Node000017"><a xlink:title=" ">
<path fill="none" stroke="#9a32cd" stroke-dasharray="5,2" d="M123.09,-20.8C104.13,-25.62 82.38,-31.16 65.04,-35.57"/>
<polygon fill="#9a32cd" stroke="#9a32cd" points="123.87,-24.21 132.7,-18.35 122.14,-17.43 123.87,-24.21"/>
</a>
</g>
<text text-anchor="middle" x="99.62" y="-44.62" font-family="Helvetica,sans-Serif" font-size="10.00" fill="grey"> mHead</text>
<text text-anchor="middle" x="99.62" y="-33.38" font-family="Helvetica,sans-Serif" font-size="10.00" fill="grey">mTail</text>
</g>
<!-- Node17&#45;&gt;Node17 -->
<g id="edge24_Node000017_Node000017" class="edge">
<title>Node17&#45;&gt;Node17</title>
<g id="a_edge24_Node000017_Node000017"><a xlink:title=" ">
<path fill="none" stroke="#9a32cd" stroke-dasharray="5,2" d="M155.86,-30.65C157.38,-34.53 161.43,-37.25 168,-37.25 180.02,-37.25 183.59,-28.15 178.7,-19.54"/>
<polygon fill="#9a32cd" stroke="#9a32cd" points="159.3,-31.4 157.1,-21.04 152.35,-30.51 159.3,-31.4"/>
</a>
</g>
<text text-anchor="middle" x="168" y="-50.25" font-family="Helvetica,sans-Serif" font-size="10.00" fill="grey"> mNext</text>
<text text-anchor="middle" x="168" y="-39" font-family="Helvetica,sans-Serif" font-size="10.00" fill="grey">mPrev</text>
</g>
<!-- Node18 -->
<g id="Node000018" class="node">
<title>Node18</title>
<g id="a_Node000018"><a xlink:href="classJSULink.html" target="_top" xlink:title=" ">
<polygon fill="white" stroke="#666666" points="388.75,-49.25 312,-49.25 312,-30 388.75,-30 388.75,-49.25"/>
<text text-anchor="middle" x="350.38" y="-35.75" font-family="Helvetica,sans-Serif" font-size="10.00">JSULink&lt; T &gt;</text>
</a>
</g>
</g>
<!-- Node17&#45;&gt;Node18 -->
<g id="edge26_Node000018_Node000017" class="edge">
<title>Node17&#45;&gt;Node18</title>
<g id="a_edge26_Node000018_Node000017"><a xlink:title=" ">
<path fill="none" stroke="#63b8ff" d="M212.74,-16.9C242.98,-21.93 282.8,-28.55 311.65,-33.35"/>
<polygon fill="#63b8ff" stroke="#63b8ff" points="213.6,-13.49 203.16,-15.31 212.45,-20.4 213.6,-13.49"/>
</a>
</g>
</g>
<!-- Node18&#45;&gt;Node14 -->
<g id="edge25_Node000014_Node000018" class="edge">
<title>Node18&#45;&gt;Node14</title>
<g id="a_edge25_Node000014_Node000018"><a xlink:title=" ">
<path fill="none" stroke="#63b8ff" d="M400.21,-48.63C408.95,-50.24 418.12,-51.93 427.01,-53.57"/>
<polygon fill="#63b8ff" stroke="#63b8ff" points="400.97,-45.21 390.5,-46.84 399.7,-52.1 400.97,-45.21"/>
</a>
</g>
</g>
<!-- Node19 -->
<g id="Node000019" class="node">
<title>Node19</title>
<g id="a_Node000019"><a xlink:href="structJASDisposer.html" target="_top" xlink:title=" ">
<polygon fill="white" stroke="#666666" points="519,-139.25 446,-139.25 446,-120 519,-120 519,-139.25"/>
<text text-anchor="middle" x="482.5" y="-125.75" font-family="Helvetica,sans-Serif" font-size="10.00">JASDisposer</text>
</a>
</g>
</g>
<!-- Node19&#45;&gt;Node13 -->
<g id="edge28_Node000013_Node000019" class="edge">
<title>Node19&#45;&gt;Node13</title>
<g id="a_edge28_Node000013_Node000019"><a xlink:title=" ">
<path fill="none" stroke="#9a32cd" stroke-dasharray="5,2" d="M512.3,-114.8C525.63,-108.63 541.88,-102.06 557.25,-98.38 584.83,-91.76 617.3,-90.19 639.94,-90.05"/>
<polygon fill="#9a32cd" stroke="#9a32cd" points="511.18,-111.45 503.68,-118.94 514.21,-117.76 511.18,-111.45"/>
</a>
</g>
<text text-anchor="middle" x="581.62" y="-99.38" font-family="Helvetica,sans-Serif" font-size="10.00" fill="grey"> mDisposer</text>
</g>
<!-- Node19&#45;&gt;Node21 -->
<g id="edge32_Node000021_Node000019" class="edge">
<title>Node19&#45;&gt;Node21</title>
<g id="a_edge32_Node000021_Node000019"><a xlink:title=" ">
<path fill="none" stroke="#63b8ff" d="M530.65,-139.65C539.46,-141.21 548.61,-142.64 557.25,-143.62 671.51,-156.68 807.88,-158.1 871.84,-157.94"/>
<polygon fill="#63b8ff" stroke="#63b8ff" points="531.31,-136.21 520.84,-137.81 530.02,-143.09 531.31,-136.21"/>
</a>
</g>
</g>
<!-- Node20&#45;&gt;Node1 -->
<g id="edge30_Node000001_Node000020" class="edge">
<title>Node20&#45;&gt;Node1</title>
<g id="a_edge30_Node000001_Node000020"><a xlink:title=" ">
<path fill="none" stroke="#9a32cd" stroke-dasharray="5,2" d="M1369.81,-110.01C1340.81,-109.26 1308.84,-108.18 1279.5,-106.62 1267.77,-106 1255.18,-105.14 1243.28,-104.22"/>
<polygon fill="#9a32cd" stroke="#9a32cd" points="1369.59,-113.5 1379.67,-110.25 1369.76,-106.5 1369.59,-113.5"/>
</a>
</g>
<text text-anchor="middle" x="1321.5" y="-111.38" font-family="Helvetica,sans-Serif" font-size="10.00" fill="grey"> mWaveGroupArray</text>
</g>
<!-- Node21&#45;&gt;Node20 -->
<g id="edge31_Node000020_Node000021" class="edge">
<title>Node21&#45;&gt;Node20</title>
<g id="a_edge31_Node000020_Node000021"><a xlink:title=" ">
<path fill="none" stroke="#63b8ff" d="M958.13,-155.02C1040.82,-150.3 1215.99,-139.47 1363.5,-124.62 1371.95,-123.77 1380.79,-122.79 1389.57,-121.74"/>
<polygon fill="#63b8ff" stroke="#63b8ff" points="958.15,-151.51 948.36,-155.57 958.54,-158.5 958.15,-151.51"/>
</a>
</g>
</g>
<!-- Node22 -->
<g id="Node000022" class="node">
<title>Node22</title>
<g id="a_Node000022"><a xlink:href="structJASBasicWaveBank_1_1TGroupWaveInfo.html" target="_top" xlink:title=" ">
<polygon fill="white" stroke="#666666" points="1261.5,-71.88 1118,-71.88 1118,-41.38 1261.5,-41.38 1261.5,-71.88"/>
<text text-anchor="start" x="1126" y="-58.38" font-family="Helvetica,sans-Serif" font-size="10.00">JASBasicWaveBank::TGroup</text>
<text text-anchor="middle" x="1189.75" y="-47.12" font-family="Helvetica,sans-Serif" font-size="10.00">WaveInfo</text>
</a>
</g>
</g>
<!-- Node22&#45;&gt;Node20 -->
<g id="edge36_Node000020_Node000022" class="edge">
<title>Node22&#45;&gt;Node20</title>
<g id="a_edge36_Node000020_Node000022"><a xlink:title=" ">
<path fill="none" stroke="#9a32cd" stroke-dasharray="5,2" d="M1273.25,-61.59C1302.05,-64.37 1334.43,-68.69 1363.5,-75.38 1390.94,-81.69 1421.2,-93.17 1441.39,-101.52"/>
<polygon fill="#9a32cd" stroke="#9a32cd" points="1273.77,-58.12 1263.49,-60.69 1273.13,-65.09 1273.77,-58.12"/>
</a>
</g>
<text text-anchor="middle" x="1321.5" y="-76.38" font-family="Helvetica,sans-Serif" font-size="10.00" fill="grey"> mCtrlWaveArray</text>
</g>
</g>
</svg>

<g id="navigator" transform="translate(0 0)" fill="#404254">
  <rect fill="#f2f5e9" fill-opacity="0.5" stroke="#606060" stroke-width=".5" x="0" y="0" width="60" height="60"/>
  <use id="zoomplus" xlink:href="#zoomPlus" x="17" y="9" onmousedown="handleZoom(evt,'in')"/>
  <use id="zoomminus" xlink:href="#zoomMin" x="42" y="9" onmousedown="handleZoom(evt,'out')"/>
  <use id="reset" xlink:href="#resetDef" x="30" y="36" onmousedown="handleReset()"/>
   <use id="arrowup" xlink:href="#arrowUp" x="0" y="0" onmousedown="handlePan(0,-1)"/>
  <use id="arrowright" xlink:href="#arrowRight" x="0" y="0" onmousedown="handlePan(1,0)"/>
  <use id="arrowdown" xlink:href="#arrowDown" x="0" y="0" onmousedown="handlePan(0,1)"/>
  <use id="arrowleft" xlink:href="#arrowLeft" x="0" y="0" onmousedown="handlePan(-1,0)"/>
</g>
<svg viewBox="0 0 15 15" width="100%" height="30px" preserveAspectRatio="xMaxYMin meet">
 <g id="arrow_out" transform="scale(0.3 0.3)">
  <a xlink:href="structJASBasicWaveBank__coll__graph_org.svg" target="_base">
   <rect id="button" ry="5" rx="5" y="6" x="6" height="38" width="38"
        fill="#f2f5e9" fill-opacity="0.5" stroke="#606060" stroke-width="1.0"/>
   <path id="arrow"
     d="M 11.500037,31.436501 C 11.940474,20.09759 22.043105,11.32322 32.158766,21.979434 L 37.068811,17.246167 C 37.068811,17.246167 37.088388,32 37.088388,32 L 22.160133,31.978069 C 22.160133,31.978069 26.997745,27.140456 26.997745,27.140456 C 18.528582,18.264221 13.291696,25.230495 11.500037,31.436501 z"
     style="fill:#404040;"/>
  </a>
 </g>
</svg>

<style type='text/css'>
<![CDATA[
[data-mouse-over-selected='false'] { opacity: 0.7; }
[data-mouse-over-selected='true']  { opacity: 1.0; }
]]>
</style>
<script type="application/ecmascript"><![CDATA[
document.addEventListener('DOMContentLoaded', (event) => {
  highlightEdges();
  highlightAdjacentNodes();
});
]]></script>
</svg>
