<?xml version="1.0" encoding="UTF-8" standalone="no"?>
<!DOCTYPE svg PUBLIC "-//W3C//DTD SVG 1.1//EN"
 "http://www.w3.org/Graphics/SVG/1.1/DTD/svg11.dtd">
<!-- Generated by graphviz version 9.0.0 (20230911.1827)
 -->
<!-- Title: dBgS_CaptPoly Pages: 1 -->
<svg width="426pt" height="309pt"
 viewBox="0.00 0.00 426.38 308.75" xmlns="http://www.w3.org/2000/svg" xmlns:xlink="http://www.w3.org/1999/xlink">
<g id="graph0" class="graph" transform="scale(1 1) rotate(0) translate(4 304.75)">
<title>dBgS_CaptPoly</title>
<!-- Node1 -->
<g id="Node000001" class="node">
<title>Node1</title>
<g id="a_Node000001"><a xlink:title=" ">
<polygon fill="#999999" stroke="#666666" points="314,-19.25 229.75,-19.25 229.75,0 314,0 314,-19.25"/>
<text text-anchor="middle" x="271.88" y="-5.75" font-family="Helvetica,sans-Serif" font-size="10.00">dBgS_CaptPoly</text>
</a>
</g>
</g>
<!-- Node1&#45;&gt;Node1 -->
<g id="edge13_Node000001_Node000001" class="edge">
<title>Node1&#45;&gt;Node1</title>
<g id="a_edge13_Node000001_Node000001"><a xlink:title=" ">
<path fill="none" stroke="#9a32cd" stroke-dasharray="5,2" d="M325.39,-14.31C329.48,-13.27 332,-11.71 332,-9.62 332,-6.02 324.46,-3.98 314.29,-3.5"/>
<polygon fill="#9a32cd" stroke="#9a32cd" points="325.26,-10.8 315.79,-15.55 326.16,-17.74 325.26,-10.8"/>
</a>
</g>
<text text-anchor="middle" x="357.88" y="-5.75" font-family="Helvetica,sans-Serif" font-size="10.00" fill="grey"> m_callback</text>
</g>
<!-- Node2 -->
<g id="Node000002" class="node">
<title>Node2</title>
<g id="a_Node000002"><a xlink:href="classcBgS__Chk.html" target="_top" xlink:title=" ">
<polygon fill="white" stroke="#666666" points="303.12,-198.88 240.62,-198.88 240.62,-179.62 303.12,-179.62 303.12,-198.88"/>
<text text-anchor="middle" x="271.88" y="-185.38" font-family="Helvetica,sans-Serif" font-size="10.00">cBgS_Chk</text>
</a>
</g>
</g>
<!-- Node2&#45;&gt;Node1 -->
<g id="edge1_Node000001_Node000002" class="edge">
<title>Node2&#45;&gt;Node1</title>
<g id="a_edge1_Node000001_Node000002"><a xlink:title=" ">
<path fill="none" stroke="#63b8ff" d="M271.88,-167.92C271.88,-129.25 271.88,-46.58 271.88,-19.45"/>
<polygon fill="#63b8ff" stroke="#63b8ff" points="268.38,-167.68 271.88,-177.68 275.38,-167.68 268.38,-167.68"/>
</a>
</g>
</g>
<!-- Node3 -->
<g id="Node000003" class="node">
<title>Node3</title>
<g id="a_Node000003"><a xlink:href="classcBgS__PolyPassChk.html" target="_top" xlink:title=" ">
<polygon fill="white" stroke="#666666" points="141.75,-300.75 38,-300.75 38,-281.5 141.75,-281.5 141.75,-300.75"/>
<text text-anchor="middle" x="89.88" y="-287.25" font-family="Helvetica,sans-Serif" font-size="10.00">cBgS_PolyPassChk</text>
</a>
</g>
</g>
<!-- Node3&#45;&gt;Node2 -->
<g id="edge2_Node000002_Node000003" class="edge">
<title>Node3&#45;&gt;Node2</title>
<g id="a_edge2_Node000002_Node000003"><a xlink:title=" ">
<path fill="none" stroke="#9a32cd" stroke-dasharray="5,2" d="M117.28,-275.85C132.52,-268.25 151.97,-259.08 169.88,-252.25 196.28,-242.17 206.83,-249.12 230.88,-234.25 245.62,-225.13 258.48,-209.34 265.7,-199.36"/>
<polygon fill="#9a32cd" stroke="#9a32cd" points="115.7,-272.73 108.37,-280.37 118.87,-278.97 115.7,-272.73"/>
</a>
</g>
<text text-anchor="middle" x="204.38" y="-254" font-family="Helvetica,sans-Serif" font-size="10.00" fill="grey"> mPolyPassChk</text>
</g>
<!-- Node6 -->
<g id="Node000006" class="node">
<title>Node6</title>
<g id="a_Node000006"><a xlink:href="structdBgS__PolyPassChk.html" target="_top" xlink:title=" ">
<polygon fill="white" stroke="#666666" points="103.75,-198.88 0,-198.88 0,-179.62 103.75,-179.62 103.75,-198.88"/>
<text text-anchor="middle" x="51.88" y="-185.38" font-family="Helvetica,sans-Serif" font-size="10.00">dBgS_PolyPassChk</text>
</a>
</g>
</g>
<!-- Node3&#45;&gt;Node6 -->
<g id="edge6_Node000006_Node000003" class="edge">
<title>Node3&#45;&gt;Node6</title>
<g id="a_edge6_Node000006_Node000003"><a xlink:title=" ">
<path fill="none" stroke="#63b8ff" d="M82.5,-270.75C74.3,-249.19 61.4,-215.28 55.29,-199.24"/>
<polygon fill="#63b8ff" stroke="#63b8ff" points="79.14,-271.75 85.96,-279.85 85.68,-269.26 79.14,-271.75"/>
</a>
</g>
</g>
<!-- Node4 -->
<g id="Node000004" class="node">
<title>Node4</title>
<g id="a_Node000004"><a xlink:href="classcBgS__GrpPassChk.html" target="_top" xlink:title=" ">
<polygon fill="white" stroke="#666666" points="282.25,-300.75 181.5,-300.75 181.5,-281.5 282.25,-281.5 282.25,-300.75"/>
<text text-anchor="middle" x="231.88" y="-287.25" font-family="Helvetica,sans-Serif" font-size="10.00">cBgS_GrpPassChk</text>
</a>
</g>
</g>
<!-- Node4&#45;&gt;Node2 -->
<g id="edge3_Node000002_Node000004" class="edge">
<title>Node4&#45;&gt;Node2</title>
<g id="a_edge3_Node000002_Node000004"><a xlink:title=" ">
<path fill="none" stroke="#9a32cd" stroke-dasharray="5,2" d="M239.64,-270.75C248.27,-249.19 261.85,-215.28 268.28,-199.24"/>
<polygon fill="#9a32cd" stroke="#9a32cd" points="236.46,-269.27 235.99,-279.86 242.95,-271.87 236.46,-269.27"/>
</a>
</g>
<text text-anchor="middle" x="279.88" y="-254" font-family="Helvetica,sans-Serif" font-size="10.00" fill="grey"> mGrpPassChk</text>
</g>
<!-- Node7 -->
<g id="Node000007" class="node">
<title>Node7</title>
<g id="a_Node000007"><a xlink:href="classdBgS__GrpPassChk.html" target="_top" xlink:title=" ">
<polygon fill="white" stroke="#666666" points="222.25,-198.88 121.5,-198.88 121.5,-179.62 222.25,-179.62 222.25,-198.88"/>
<text text-anchor="middle" x="171.88" y="-185.38" font-family="Helvetica,sans-Serif" font-size="10.00">dBgS_GrpPassChk</text>
</a>
</g>
</g>
<!-- Node4&#45;&gt;Node7 -->
<g id="edge8_Node000007_Node000004" class="edge">
<title>Node4&#45;&gt;Node7</title>
<g id="a_edge8_Node000007_Node000004"><a xlink:title=" ">
<path fill="none" stroke="#63b8ff" d="M220.77,-271.64C207.85,-250.13 187.05,-215.5 177.27,-199.24"/>
<polygon fill="#63b8ff" stroke="#63b8ff" points="217.62,-273.19 225.77,-279.96 223.62,-269.59 217.62,-273.19"/>
</a>
</g>
</g>
<!-- Node5 -->
<g id="Node000005" class="node">
<title>Node5</title>
<g id="a_Node000005"><a xlink:href="classdBgS__Chk.html" target="_top" xlink:title=" ">
<polygon fill="white" stroke="#666666" points="203.12,-85.75 140.62,-85.75 140.62,-66.5 203.12,-66.5 203.12,-85.75"/>
<text text-anchor="middle" x="171.88" y="-72.25" font-family="Helvetica,sans-Serif" font-size="10.00">dBgS_Chk</text>
</a>
</g>
</g>
<!-- Node5&#45;&gt;Node1 -->
<g id="edge4_Node000001_Node000005" class="edge">
<title>Node5&#45;&gt;Node1</title>
<g id="a_edge4_Node000001_Node000005"><a xlink:title=" ">
<path fill="none" stroke="#63b8ff" d="M195.39,-59.96C214.76,-47.47 241.57,-30.17 257.77,-19.73"/>
<polygon fill="#63b8ff" stroke="#63b8ff" points="193.56,-56.97 187.05,-65.34 197.35,-62.86 193.56,-56.97"/>
</a>
</g>
</g>
<!-- Node6&#45;&gt;Node5 -->
<g id="edge5_Node000005_Node000006" class="edge">
<title>Node6&#45;&gt;Node5</title>
<g id="a_edge5_Node000005_Node000006"><a xlink:title=" ">
<path fill="none" stroke="#63b8ff" d="M69.87,-171.58C95.65,-147.71 142.2,-104.61 162.25,-86.03"/>
<polygon fill="#63b8ff" stroke="#63b8ff" points="67.76,-168.77 62.81,-178.13 72.52,-173.9 67.76,-168.77"/>
</a>
</g>
</g>
<!-- Node7&#45;&gt;Node5 -->
<g id="edge7_Node000005_Node000007" class="edge">
<title>Node7&#45;&gt;Node5</title>
<g id="a_edge7_Node000005_Node000007"><a xlink:title=" ">
<path fill="none" stroke="#63b8ff" d="M171.88,-167.68C171.88,-143.26 171.88,-103.63 171.88,-86.03"/>
<polygon fill="#63b8ff" stroke="#63b8ff" points="168.38,-167.64 171.88,-177.64 175.38,-167.64 168.38,-167.64"/>
</a>
</g>
</g>
<!-- Node8 -->
<g id="Node000008" class="node">
<title>Node8</title>
<g id="a_Node000008"><a xlink:href="structcM3dGAab.html" target="_top" xlink:title=" ">
<polygon fill="white" stroke="#666666" points="368.25,-85.75 303.5,-85.75 303.5,-66.5 368.25,-66.5 368.25,-85.75"/>
<text text-anchor="middle" x="335.88" y="-72.25" font-family="Helvetica,sans-Serif" font-size="10.00">cM3dGAab</text>
</a>
</g>
</g>
<!-- Node8&#45;&gt;Node1 -->
<g id="edge9_Node000001_Node000008" class="edge">
<title>Node8&#45;&gt;Node1</title>
<g id="a_edge9_Node000001_Node000008"><a xlink:title=" ">
<path fill="none" stroke="#9a32cd" stroke-dasharray="5,2" d="M319.21,-58.33C306.89,-45.91 290.6,-29.5 280.7,-19.52"/>
<polygon fill="#9a32cd" stroke="#9a32cd" points="316.38,-60.45 325.91,-65.08 321.35,-55.52 316.38,-60.45"/>
</a>
</g>
<text text-anchor="middle" x="323.62" y="-39" font-family="Helvetica,sans-Serif" font-size="10.00" fill="grey"> m_pos</text>
</g>
<!-- Node9 -->
<g id="Node000009" class="node">
<title>Node9</title>
<g id="a_Node000009"><a xlink:href="structcXyz.html" target="_top" xlink:title=" ">
<polygon fill="white" stroke="#666666" points="358.38,-198.88 321.38,-198.88 321.38,-179.62 358.38,-179.62 358.38,-198.88"/>
<text text-anchor="middle" x="339.88" y="-185.38" font-family="Helvetica,sans-Serif" font-size="10.00">cXyz</text>
</a>
</g>
</g>
<!-- Node9&#45;&gt;Node8 -->
<g id="edge10_Node000008_Node000009" class="edge">
<title>Node9&#45;&gt;Node8</title>
<g id="a_edge10_Node000008_Node000009"><a xlink:title=" ">
<path fill="none" stroke="#9a32cd" stroke-dasharray="5,2" d="M339.13,-167.68C338.26,-143.26 336.83,-103.63 336.2,-86.03"/>
<polygon fill="#9a32cd" stroke="#9a32cd" points="335.64,-167.78 339.49,-177.64 342.63,-167.52 335.64,-167.78"/>
</a>
</g>
<text text-anchor="middle" x="352.12" y="-116.75" font-family="Helvetica,sans-Serif" font-size="10.00" fill="grey"> mMax</text>
<text text-anchor="middle" x="352.12" y="-105.5" font-family="Helvetica,sans-Serif" font-size="10.00" fill="grey">mMin</text>
</g>
<!-- Node9&#45;&gt;Node9 -->
<g id="edge12_Node000009_Node000009" class="edge">
<title>Node9&#45;&gt;Node9</title>
<g id="a_edge12_Node000009_Node000009"><a xlink:title=" ">
<path fill="none" stroke="#9a32cd" stroke-dasharray="5,2" d="M362.46,-202.12C370.17,-202.2 376.38,-197.91 376.38,-189.25 376.38,-176.65 363.25,-173.3 351.46,-179.21"/>
<polygon fill="#9a32cd" stroke="#9a32cd" points="363.48,-198.76 352.93,-199.67 361.74,-205.54 363.48,-198.76"/>
</a>
</g>
<text text-anchor="middle" x="397.38" y="-224.75" font-family="Helvetica,sans-Serif" font-size="10.00" fill="grey"> BaseX</text>
<text text-anchor="middle" x="397.38" y="-213.5" font-family="Helvetica,sans-Serif" font-size="10.00" fill="grey">BaseXY</text>
<text text-anchor="middle" x="397.38" y="-202.25" font-family="Helvetica,sans-Serif" font-size="10.00" fill="grey">BaseXYZ</text>
<text text-anchor="middle" x="397.38" y="-191" font-family="Helvetica,sans-Serif" font-size="10.00" fill="grey">BaseXZ</text>
<text text-anchor="middle" x="397.38" y="-179.75" font-family="Helvetica,sans-Serif" font-size="10.00" fill="grey">BaseY</text>
<text text-anchor="middle" x="397.38" y="-168.5" font-family="Helvetica,sans-Serif" font-size="10.00" fill="grey">BaseYZ</text>
<text text-anchor="middle" x="397.38" y="-157.25" font-family="Helvetica,sans-Serif" font-size="10.00" fill="grey">BaseZ</text>
<text text-anchor="middle" x="397.38" y="-146" font-family="Helvetica,sans-Serif" font-size="10.00" fill="grey">Zero</text>
</g>
<!-- Node10 -->
<g id="Node000010" class="node">
<title>Node10</title>
<g id="a_Node000010"><a xlink:href="structVec.html" target="_top" xlink:title=" ">
<polygon fill="white" stroke="#666666" points="356.5,-300.75 323.25,-300.75 323.25,-281.5 356.5,-281.5 356.5,-300.75"/>
<text text-anchor="middle" x="339.88" y="-287.25" font-family="Helvetica,sans-Serif" font-size="10.00">Vec</text>
</a>
</g>
</g>
<!-- Node10&#45;&gt;Node9 -->
<g id="edge11_Node000009_Node000010" class="edge">
<title>Node10&#45;&gt;Node9</title>
<g id="a_edge11_Node000009_Node000010"><a xlink:title=" ">
<path fill="none" stroke="#63b8ff" d="M339.88,-269.84C339.88,-248.25 339.88,-215.06 339.88,-199.24"/>
<polygon fill="#63b8ff" stroke="#63b8ff" points="336.38,-269.75 339.88,-279.75 343.38,-269.75 336.38,-269.75"/>
</a>
</g>
</g>
</g>
</svg>
