<?xml version="1.0" encoding="UTF-8" standalone="no"?>
<!DOCTYPE svg PUBLIC "-//W3C//DTD SVG 1.1//EN"
 "http://www.w3.org/Graphics/SVG/1.1/DTD/svg11.dtd">
<!-- Generated by graphviz version 9.0.0 (20230911.1827)
 -->
<!-- Title: dBgS_CaptPoly Pages: 1 -->
<svg width="231pt" height="193pt"
 viewBox="0.00 0.00 230.62 193.00" xmlns="http://www.w3.org/2000/svg" xmlns:xlink="http://www.w3.org/1999/xlink">
<g id="graph0" class="graph" transform="scale(1 1) rotate(0) translate(4 189)">
<title>dBgS_CaptPoly</title>
<!-- Node1 -->
<g id="Node000001" class="node">
<title>Node1</title>
<g id="a_Node000001"><a xlink:title=" ">
<polygon fill="#999999" stroke="#666666" points="113.38,-19.25 29.12,-19.25 29.12,0 113.38,0 113.38,-19.25"/>
<text text-anchor="middle" x="71.25" y="-5.75" font-family="Helvetica,sans-Serif" font-size="10.00">dBgS_CaptPoly</text>
</a>
</g>
</g>
<!-- Node2 -->
<g id="Node000002" class="node">
<title>Node2</title>
<g id="a_Node000002"><a xlink:href="classcBgS__Chk.html" target="_top" xlink:title=" ">
<polygon fill="white" stroke="#666666" points="62.5,-74.5 0,-74.5 0,-55.25 62.5,-55.25 62.5,-74.5"/>
<text text-anchor="middle" x="31.25" y="-61" font-family="Helvetica,sans-Serif" font-size="10.00">cBgS_Chk</text>
</a>
</g>
</g>
<!-- Node2&#45;&gt;Node1 -->
<g id="edge1_Node000001_Node000002" class="edge">
<title>Node2&#45;&gt;Node1</title>
<g id="a_edge1_Node000001_Node000002"><a xlink:title=" ">
<path fill="none" stroke="#63b8ff" d="M44.72,-45.94C51.37,-37.09 59.11,-26.79 64.5,-19.61"/>
<polygon fill="#63b8ff" stroke="#63b8ff" points="41.97,-43.77 38.76,-53.87 47.57,-47.98 41.97,-43.77"/>
</a>
</g>
</g>
<!-- Node3 -->
<g id="Node000003" class="node">
<title>Node3</title>
<g id="a_Node000003"><a xlink:href="classdBgS__Chk.html" target="_top" xlink:title=" ">
<polygon fill="white" stroke="#666666" points="143.5,-74.5 81,-74.5 81,-55.25 143.5,-55.25 143.5,-74.5"/>
<text text-anchor="middle" x="112.25" y="-61" font-family="Helvetica,sans-Serif" font-size="10.00">dBgS_Chk</text>
</a>
</g>
</g>
<!-- Node3&#45;&gt;Node1 -->
<g id="edge2_Node000001_Node000003" class="edge">
<title>Node3&#45;&gt;Node1</title>
<g id="a_edge2_Node000001_Node000003"><a xlink:title=" ">
<path fill="none" stroke="#63b8ff" d="M98.66,-46.22C91.79,-37.31 83.76,-26.87 78.17,-19.61"/>
<polygon fill="#63b8ff" stroke="#63b8ff" points="95.68,-48.09 104.56,-53.88 101.23,-43.82 95.68,-48.09"/>
</a>
</g>
</g>
<!-- Node4 -->
<g id="Node000004" class="node">
<title>Node4</title>
<g id="a_Node000004"><a xlink:href="structdBgS__PolyPassChk.html" target="_top" xlink:title=" ">
<polygon fill="white" stroke="#666666" points="104.12,-129.75 0.38,-129.75 0.38,-110.5 104.12,-110.5 104.12,-129.75"/>
<text text-anchor="middle" x="52.25" y="-116.25" font-family="Helvetica,sans-Serif" font-size="10.00">dBgS_PolyPassChk</text>
</a>
</g>
</g>
<!-- Node4&#45;&gt;Node3 -->
<g id="edge3_Node000003_Node000004" class="edge">
<title>Node4&#45;&gt;Node3</title>
<g id="a_edge3_Node000003_Node000004"><a xlink:title=" ">
<path fill="none" stroke="#63b8ff" d="M70.83,-102.64C81.19,-93.44 93.68,-82.35 102.22,-74.77"/>
<polygon fill="#63b8ff" stroke="#63b8ff" points="68.72,-99.83 63.56,-109.09 73.36,-105.07 68.72,-99.83"/>
</a>
</g>
</g>
<!-- Node5 -->
<g id="Node000005" class="node">
<title>Node5</title>
<g id="a_Node000005"><a xlink:href="classcBgS__PolyPassChk.html" target="_top" xlink:title=" ">
<polygon fill="white" stroke="#666666" points="104.12,-185 0.38,-185 0.38,-165.75 104.12,-165.75 104.12,-185"/>
<text text-anchor="middle" x="52.25" y="-171.5" font-family="Helvetica,sans-Serif" font-size="10.00">cBgS_PolyPassChk</text>
</a>
</g>
</g>
<!-- Node5&#45;&gt;Node4 -->
<g id="edge4_Node000004_Node000005" class="edge">
<title>Node5&#45;&gt;Node4</title>
<g id="a_edge4_Node000004_Node000005"><a xlink:title=" ">
<path fill="none" stroke="#63b8ff" d="M52.25,-154.13C52.25,-145.84 52.25,-136.67 52.25,-130.11"/>
<polygon fill="#63b8ff" stroke="#63b8ff" points="48.75,-154.07 52.25,-164.07 55.75,-154.07 48.75,-154.07"/>
</a>
</g>
</g>
<!-- Node6 -->
<g id="Node000006" class="node">
<title>Node6</title>
<g id="a_Node000006"><a xlink:href="classdBgS__GrpPassChk.html" target="_top" xlink:title=" ">
<polygon fill="white" stroke="#666666" points="222.62,-129.75 121.88,-129.75 121.88,-110.5 222.62,-110.5 222.62,-129.75"/>
<text text-anchor="middle" x="172.25" y="-116.25" font-family="Helvetica,sans-Serif" font-size="10.00">dBgS_GrpPassChk</text>
</a>
</g>
</g>
<!-- Node6&#45;&gt;Node3 -->
<g id="edge5_Node000003_Node000006" class="edge">
<title>Node6&#45;&gt;Node3</title>
<g id="a_edge5_Node000003_Node000006"><a xlink:title=" ">
<path fill="none" stroke="#63b8ff" d="M153.67,-102.64C143.31,-93.44 130.82,-82.35 122.28,-74.77"/>
<polygon fill="#63b8ff" stroke="#63b8ff" points="151.14,-105.07 160.94,-109.09 155.78,-99.83 151.14,-105.07"/>
</a>
</g>
</g>
<!-- Node7 -->
<g id="Node000007" class="node">
<title>Node7</title>
<g id="a_Node000007"><a xlink:href="classcBgS__GrpPassChk.html" target="_top" xlink:title=" ">
<polygon fill="white" stroke="#666666" points="222.62,-185 121.88,-185 121.88,-165.75 222.62,-165.75 222.62,-185"/>
<text text-anchor="middle" x="172.25" y="-171.5" font-family="Helvetica,sans-Serif" font-size="10.00">cBgS_GrpPassChk</text>
</a>
</g>
</g>
<!-- Node7&#45;&gt;Node6 -->
<g id="edge6_Node000006_Node000007" class="edge">
<title>Node7&#45;&gt;Node6</title>
<g id="a_edge6_Node000006_Node000007"><a xlink:title=" ">
<path fill="none" stroke="#63b8ff" d="M172.25,-154.13C172.25,-145.84 172.25,-136.67 172.25,-130.11"/>
<polygon fill="#63b8ff" stroke="#63b8ff" points="168.75,-154.07 172.25,-164.07 175.75,-154.07 168.75,-154.07"/>
</a>
</g>
</g>
</g>
</svg>
