<?xml version="1.0" encoding="UTF-8" standalone="no"?>
<!DOCTYPE svg PUBLIC "-//W3C//DTD SVG 1.1//EN"
 "http://www.w3.org/Graphics/SVG/1.1/DTD/svg11.dtd">
<!-- Generated by graphviz version 9.0.0 (20230911.1827)
 -->
<!-- Title: JKRExpHeap Pages: 1 -->
<svg width="1287pt" height="467pt"
 viewBox="0.00 0.00 1286.75 467.28" xmlns="http://www.w3.org/2000/svg" xmlns:xlink="http://www.w3.org/1999/xlink">
<g id="graph0" class="graph" transform="scale(1 1) rotate(0) translate(4 463.28)">
<title>JKRExpHeap</title>
<!-- Node1 -->
<g id="Node000001" class="node">
<title>Node1</title>
<g id="a_Node000001"><a xlink:title=" ">
<polygon fill="#999999" stroke="#666666" points="1067.75,-348.78 994,-348.78 994,-329.53 1067.75,-329.53 1067.75,-348.78"/>
<text text-anchor="middle" x="1030.88" y="-335.28" font-family="Helvetica,sans-Serif" font-size="10.00">JKRExpHeap</text>
</a>
</g>
</g>
<!-- Node2 -->
<g id="Node000002" class="node">
<title>Node2</title>
<g id="a_Node000002"><a xlink:href="structJKRHeap.html" target="_top" xlink:title=" ">
<polygon fill="white" stroke="#666666" points="848.5,-279.78 790.5,-279.78 790.5,-260.53 848.5,-260.53 848.5,-279.78"/>
<text text-anchor="middle" x="819.5" y="-266.28" font-family="Helvetica,sans-Serif" font-size="10.00">JKRHeap</text>
</a>
</g>
</g>
<!-- Node2&#45;&gt;Node1 -->
<g id="edge1_Node000001_Node000002" class="edge">
<title>Node2&#45;&gt;Node1</title>
<g id="a_edge1_Node000001_Node000002"><a xlink:title=" ">
<path fill="none" stroke="#63b8ff" d="M857.61,-284.05C871.83,-289.26 888.24,-295.13 903.25,-300.16 934.33,-310.57 970.04,-321.48 995.6,-329.1"/>
<polygon fill="#63b8ff" stroke="#63b8ff" points="859.23,-280.92 848.64,-280.74 856.81,-287.49 859.23,-280.92"/>
</a>
</g>
</g>
<!-- Node2&#45;&gt;Node2 -->
<g id="edge29_Node000002_Node000002" class="edge">
<title>Node2&#45;&gt;Node2</title>
<g id="a_edge29_Node000002_Node000002"><a xlink:title=" ">
<path fill="none" stroke="#9a32cd" stroke-dasharray="5,2" d="M800.04,-291.18C802.48,-295.06 808.96,-297.78 819.5,-297.78 838.77,-297.78 844.49,-288.68 836.66,-280.07"/>
<polygon fill="#9a32cd" stroke="#9a32cd" points="803.44,-292.05 802.03,-281.55 796.58,-290.64 803.44,-292.05"/>
</a>
</g>
<text text-anchor="middle" x="819.5" y="-333.28" font-family="Helvetica,sans-Serif" font-size="10.00" fill="grey"> sCurrentHeap</text>
<text text-anchor="middle" x="819.5" y="-322.03" font-family="Helvetica,sans-Serif" font-size="10.00" fill="grey">sRootHeap</text>
<text text-anchor="middle" x="819.5" y="-310.78" font-family="Helvetica,sans-Serif" font-size="10.00" fill="grey">sRootHeap2</text>
<text text-anchor="middle" x="819.5" y="-299.53" font-family="Helvetica,sans-Serif" font-size="10.00" fill="grey">sSystemHeap</text>
</g>
<!-- Node3 -->
<g id="Node000003" class="node">
<title>Node3</title>
<g id="a_Node000003"><a xlink:href="classJKRDisposer.html" target="_top" xlink:title=" ">
<polygon fill="white" stroke="#666666" points="1067.38,-305.78 994.38,-305.78 994.38,-286.53 1067.38,-286.53 1067.38,-305.78"/>
<text text-anchor="middle" x="1030.88" y="-292.28" font-family="Helvetica,sans-Serif" font-size="10.00">JKRDisposer</text>
</a>
</g>
</g>
<!-- Node2&#45;&gt;Node3 -->
<g id="edge3_Node000003_Node000002" class="edge">
<title>Node2&#45;&gt;Node3</title>
<g id="a_edge3_Node000003_Node000002"><a xlink:title=" ">
<path fill="none" stroke="#9a32cd" stroke-dasharray="5,2" d="M859.81,-264.69C891.61,-261.49 937.29,-259.68 976,-268.91 990.07,-272.26 1004.63,-279.92 1015.06,-286.27"/>
<polygon fill="#9a32cd" stroke="#9a32cd" points="859.82,-261.17 850.27,-265.75 860.59,-268.12 859.82,-261.17"/>
</a>
</g>
<text text-anchor="middle" x="939.62" y="-269.91" font-family="Helvetica,sans-Serif" font-size="10.00" fill="grey"> mHeap</text>
</g>
<!-- Node3&#45;&gt;Node2 -->
<g id="edge2_Node000002_Node000003" class="edge">
<title>Node3&#45;&gt;Node2</title>
<g id="a_edge2_Node000002_Node000003"><a xlink:title=" ">
<path fill="none" stroke="#63b8ff" d="M982.86,-291.34C958.99,-288.8 929.55,-285.52 903.25,-282.16 885.11,-279.84 864.78,-276.9 848.81,-274.51"/>
<polygon fill="#63b8ff" stroke="#63b8ff" points="982.27,-294.8 992.58,-292.37 983,-287.84 982.27,-294.8"/>
</a>
</g>
</g>
<!-- Node4 -->
<g id="Node000004" class="node">
<title>Node4</title>
<g id="a_Node000004"><a xlink:href="classJSULink.html" target="_top" xlink:title=" ">
<polygon fill="white" stroke="#666666" points="534.5,-383.78 406.75,-383.78 406.75,-364.53 534.5,-364.53 534.5,-383.78"/>
<text text-anchor="middle" x="470.62" y="-370.28" font-family="Helvetica,sans-Serif" font-size="10.00">JSULink&lt; JKRDisposer &gt;</text>
</a>
</g>
</g>
<!-- Node4&#45;&gt;Node3 -->
<g id="edge4_Node000003_Node000004" class="edge">
<title>Node4&#45;&gt;Node3</title>
<g id="a_edge4_Node000003_Node000004"><a xlink:title=" ">
<path fill="none" stroke="#9a32cd" stroke-dasharray="5,2" d="M546.21,-377.2C629.76,-379 768.74,-377.15 885.25,-352.16 931.58,-342.22 982.57,-319.48 1009.91,-306.23"/>
<polygon fill="#9a32cd" stroke="#9a32cd" points="546.4,-373.71 536.31,-376.96 546.23,-380.71 546.4,-373.71"/>
</a>
</g>
<text text-anchor="middle" x="709.88" y="-376.91" font-family="Helvetica,sans-Serif" font-size="10.00" fill="grey"> mLink</text>
</g>
<!-- Node5 -->
<g id="Node000005" class="node">
<title>Node5</title>
<g id="a_Node000005"><a xlink:href="classJSUPtrLink.html" target="_top" xlink:title=" ">
<polygon fill="white" stroke="#666666" points="67,-326.78 0,-326.78 0,-307.53 67,-307.53 67,-326.78"/>
<text text-anchor="middle" x="33.5" y="-313.28" font-family="Helvetica,sans-Serif" font-size="10.00">JSUPtrLink</text>
</a>
</g>
</g>
<!-- Node5&#45;&gt;Node4 -->
<g id="edge5_Node000004_Node000005" class="edge">
<title>Node5&#45;&gt;Node4</title>
<g id="a_edge5_Node000004_Node000005"><a xlink:title=" ">
<path fill="none" stroke="#63b8ff" d="M66.64,-331.23C72.66,-333.48 78.95,-335.58 85,-337.16 195.51,-365.97 329.15,-372.83 406.27,-374.18"/>
<polygon fill="#63b8ff" stroke="#63b8ff" points="68.23,-328.1 57.64,-327.67 65.65,-334.61 68.23,-328.1"/>
</a>
</g>
</g>
<!-- Node5&#45;&gt;Node5 -->
<g id="edge8_Node000005_Node000005" class="edge">
<title>Node5&#45;&gt;Node5</title>
<g id="a_edge8_Node000005_Node000005"><a xlink:title=" ">
<path fill="none" stroke="#9a32cd" stroke-dasharray="5,2" d="M21.36,-338.18C22.88,-342.06 26.93,-344.78 33.5,-344.78 45.52,-344.78 49.09,-335.68 44.2,-327.07"/>
<polygon fill="#9a32cd" stroke="#9a32cd" points="24.8,-338.94 22.6,-328.57 17.85,-338.04 24.8,-338.94"/>
</a>
</g>
<text text-anchor="middle" x="33.5" y="-357.78" font-family="Helvetica,sans-Serif" font-size="10.00" fill="grey"> mNext</text>
<text text-anchor="middle" x="33.5" y="-346.53" font-family="Helvetica,sans-Serif" font-size="10.00" fill="grey">mPrev</text>
</g>
<!-- Node6 -->
<g id="Node000006" class="node">
<title>Node6</title>
<g id="a_Node000006"><a xlink:href="classJSUPtrList.html" target="_top" xlink:title=" ">
<polygon fill="white" stroke="#666666" points="201.5,-287.78 136.75,-287.78 136.75,-268.53 201.5,-268.53 201.5,-287.78"/>
<text text-anchor="middle" x="169.12" y="-274.28" font-family="Helvetica,sans-Serif" font-size="10.00">JSUPtrList</text>
</a>
</g>
</g>
<!-- Node5&#45;&gt;Node6 -->
<g id="edge7_Node000006_Node000005" class="edge">
<title>Node5&#45;&gt;Node6</title>
<g id="a_edge7_Node000006_Node000005"><a xlink:title=" ">
<path fill="none" stroke="#9a32cd" stroke-dasharray="5,2" d="M72.97,-303.47C77.02,-302.14 81.08,-300.84 85,-299.66 101.84,-294.57 120.81,-289.61 136.38,-285.73"/>
<polygon fill="#9a32cd" stroke="#9a32cd" points="72.2,-300.03 63.85,-306.55 74.44,-306.66 72.2,-300.03"/>
</a>
</g>
<text text-anchor="middle" x="101.88" y="-312.16" font-family="Helvetica,sans-Serif" font-size="10.00" fill="grey"> mHead</text>
<text text-anchor="middle" x="101.88" y="-300.91" font-family="Helvetica,sans-Serif" font-size="10.00" fill="grey">mTail</text>
</g>
<!-- Node16 -->
<g id="Node000016" class="node">
<title>Node16</title>
<g id="a_Node000016"><a xlink:href="classJSULink.html" target="_top" xlink:title=" ">
<polygon fill="white" stroke="#666666" points="296.25,-345.78 219.5,-345.78 219.5,-326.53 296.25,-326.53 296.25,-345.78"/>
<text text-anchor="middle" x="257.88" y="-332.28" font-family="Helvetica,sans-Serif" font-size="10.00">JSULink&lt; T &gt;</text>
</a>
</g>
</g>
<!-- Node5&#45;&gt;Node16 -->
<g id="edge26_Node000016_Node000005" class="edge">
<title>Node5&#45;&gt;Node16</title>
<g id="a_edge26_Node000016_Node000005"><a xlink:title=" ">
<path fill="none" stroke="#63b8ff" d="M78.74,-321.58C80.85,-321.78 82.95,-321.97 85,-322.16 131.22,-326.33 184.48,-330.58 219.31,-333.29"/>
<polygon fill="#63b8ff" stroke="#63b8ff" points="79.16,-318.11 68.87,-320.64 78.49,-325.07 79.16,-318.11"/>
</a>
</g>
</g>
<!-- Node6&#45;&gt;Node5 -->
<g id="edge6_Node000005_Node000006" class="edge">
<title>Node6&#45;&gt;Node5</title>
<g id="a_edge6_Node000005_Node000006"><a xlink:title=" ">
<path fill="none" stroke="#9a32cd" stroke-dasharray="5,2" d="M134.69,-264.65C119.1,-260.38 100.59,-258.29 85,-264.91 64.79,-273.48 48.72,-294.54 40.5,-307.15"/>
<polygon fill="#9a32cd" stroke="#9a32cd" points="133.41,-267.92 144,-267.59 135.52,-261.24 133.41,-267.92"/>
</a>
</g>
<text text-anchor="middle" x="101.88" y="-265.91" font-family="Helvetica,sans-Serif" font-size="10.00" fill="grey"> mList</text>
</g>
<!-- Node15 -->
<g id="Node000015" class="node">
<title>Node15</title>
<g id="a_Node000015"><a xlink:href="classJSUList.html" target="_top" xlink:title=" ">
<polygon fill="white" stroke="#666666" points="388.75,-307.78 314.25,-307.78 314.25,-288.53 388.75,-288.53 388.75,-307.78"/>
<text text-anchor="middle" x="351.5" y="-294.28" font-family="Helvetica,sans-Serif" font-size="10.00">JSUList&lt; T &gt;</text>
</a>
</g>
</g>
<!-- Node6&#45;&gt;Node15 -->
<g id="edge24_Node000015_Node000006" class="edge">
<title>Node6&#45;&gt;Node15</title>
<g id="a_edge24_Node000015_Node000006"><a xlink:title=" ">
<path fill="none" stroke="#63b8ff" d="M213.2,-282.93C243.96,-286.34 284.87,-290.88 314.02,-294.11"/>
<polygon fill="#63b8ff" stroke="#63b8ff" points="213.79,-279.48 203.46,-281.85 213.01,-286.43 213.79,-279.48"/>
</a>
</g>
</g>
<!-- Node17 -->
<g id="Node000017" class="node">
<title>Node17</title>
<g id="a_Node000017"><a xlink:href="classJSUList.html" target="_top" xlink:title=" ">
<polygon fill="white" stroke="#666666" points="533.38,-277.78 407.88,-277.78 407.88,-258.53 533.38,-258.53 533.38,-277.78"/>
<text text-anchor="middle" x="470.62" y="-264.28" font-family="Helvetica,sans-Serif" font-size="10.00">JSUList&lt; JKRDisposer &gt;</text>
</a>
</g>
</g>
<!-- Node6&#45;&gt;Node17 -->
<g id="edge28_Node000017_Node000006" class="edge">
<title>Node6&#45;&gt;Node17</title>
<g id="a_edge28_Node000017_Node000006"><a xlink:title=" ">
<path fill="none" stroke="#63b8ff" d="M213.15,-276.72C264.13,-275.02 349.45,-272.17 407.57,-270.23"/>
<polygon fill="#63b8ff" stroke="#63b8ff" points="213.28,-273.21 203.41,-277.05 213.52,-280.21 213.28,-273.21"/>
</a>
</g>
</g>
<!-- Node7 -->
<g id="Node000007" class="node">
<title>Node7</title>
<g id="a_Node000007"><a xlink:href="structOSMutex.html" target="_top" xlink:title=" ">
<polygon fill="white" stroke="#666666" points="637.5,-97.78 581,-97.78 581,-78.53 637.5,-78.53 637.5,-97.78"/>
<text text-anchor="middle" x="609.25" y="-84.28" font-family="Helvetica,sans-Serif" font-size="10.00">OSMutex</text>
</a>
</g>
</g>
<!-- Node7&#45;&gt;Node2 -->
<g id="edge9_Node000002_Node000007" class="edge">
<title>Node7&#45;&gt;Node2</title>
<g id="a_edge9_Node000002_Node000007"><a xlink:title=" ">
<path fill="none" stroke="#9a32cd" stroke-dasharray="5,2" d="M616.51,-109.12C626.29,-138.41 647.91,-191.43 684,-222.16 692.33,-229.25 753.11,-249.38 790.05,-261.2"/>
<polygon fill="#9a32cd" stroke="#9a32cd" points="619.85,-108.07 613.49,-99.59 613.18,-110.18 619.85,-108.07"/>
</a>
</g>
<text text-anchor="middle" x="709.88" y="-244.91" font-family="Helvetica,sans-Serif" font-size="10.00" fill="grey"> mMutex</text>
</g>
<!-- Node9 -->
<g id="Node000009" class="node">
<title>Node9</title>
<g id="a_Node000009"><a xlink:href="structOSThread.html" target="_top" xlink:title=" ">
<polygon fill="white" stroke="#666666" points="1061,-135.78 1000.75,-135.78 1000.75,-116.53 1061,-116.53 1061,-135.78"/>
<text text-anchor="middle" x="1030.88" y="-122.28" font-family="Helvetica,sans-Serif" font-size="10.00">OSThread</text>
</a>
</g>
</g>
<!-- Node7&#45;&gt;Node9 -->
<g id="edge16_Node000009_Node000007" class="edge">
<title>Node7&#45;&gt;Node9</title>
<g id="a_edge16_Node000009_Node000007"><a xlink:title=" ">
<path fill="none" stroke="#9a32cd" stroke-dasharray="5,2" d="M647.42,-101.81C658.99,-105.49 671.89,-109.04 684,-111.16 799.75,-131.36 940.42,-129.46 1000.45,-127.43"/>
<polygon fill="#9a32cd" stroke="#9a32cd" points="648.84,-98.59 638.25,-98.75 646.63,-105.23 648.84,-98.59"/>
</a>
</g>
<text text-anchor="middle" x="819.5" y="-129.91" font-family="Helvetica,sans-Serif" font-size="10.00" fill="grey"> mutex</text>
</g>
<!-- Node12 -->
<g id="Node000012" class="node">
<title>Node12</title>
<g id="a_Node000012"><a xlink:href="structOSMutexQueue.html" target="_top" xlink:title=" ">
<polygon fill="white" stroke="#666666" points="862,-89.78 777,-89.78 777,-70.53 862,-70.53 862,-89.78"/>
<text text-anchor="middle" x="819.5" y="-76.28" font-family="Helvetica,sans-Serif" font-size="10.00">OSMutexQueue</text>
</a>
</g>
</g>
<!-- Node7&#45;&gt;Node12 -->
<g id="edge18_Node000012_Node000007" class="edge">
<title>Node7&#45;&gt;Node12</title>
<g id="a_edge18_Node000012_Node000007"><a xlink:title=" ">
<path fill="none" stroke="#9a32cd" stroke-dasharray="5,2" d="M649.02,-86.67C685.33,-85.27 739.42,-83.2 776.68,-81.76"/>
<polygon fill="#9a32cd" stroke="#9a32cd" points="649.27,-83.16 639.42,-87.04 649.54,-90.15 649.27,-83.16"/>
</a>
</g>
<text text-anchor="middle" x="709.88" y="-98.16" font-family="Helvetica,sans-Serif" font-size="10.00" fill="grey"> head</text>
<text text-anchor="middle" x="709.88" y="-86.91" font-family="Helvetica,sans-Serif" font-size="10.00" fill="grey">tail</text>
</g>
<!-- Node13 -->
<g id="Node000013" class="node">
<title>Node13</title>
<g id="a_Node000013"><a xlink:href="structOSMutexLink.html" target="_top" xlink:title=" ">
<polygon fill="white" stroke="#666666" points="857.12,-37.78 781.88,-37.78 781.88,-18.53 857.12,-18.53 857.12,-37.78"/>
<text text-anchor="middle" x="819.5" y="-24.28" font-family="Helvetica,sans-Serif" font-size="10.00">OSMutexLink</text>
</a>
</g>
</g>
<!-- Node7&#45;&gt;Node13 -->
<g id="edge21_Node000013_Node000007" class="edge">
<title>Node7&#45;&gt;Node13</title>
<g id="a_edge21_Node000013_Node000007"><a xlink:title=" ">
<path fill="none" stroke="#9a32cd" stroke-dasharray="5,2" d="M625.42,-69.85C639.01,-55.01 660.38,-35.22 684,-26.66 715.51,-15.24 753.95,-17.1 781.66,-20.93"/>
<polygon fill="#9a32cd" stroke="#9a32cd" points="622.97,-67.33 619.02,-77.16 628.24,-71.95 622.97,-67.33"/>
</a>
</g>
<text text-anchor="middle" x="709.88" y="-40.16" font-family="Helvetica,sans-Serif" font-size="10.00" fill="grey"> next</text>
<text text-anchor="middle" x="709.88" y="-28.91" font-family="Helvetica,sans-Serif" font-size="10.00" fill="grey">prev</text>
</g>
<!-- Node8 -->
<g id="Node000008" class="node">
<title>Node8</title>
<g id="a_Node000008"><a xlink:href="structOSThreadQueue.html" target="_top" xlink:title=" ">
<polygon fill="white" stroke="#666666" points="1278.75,-43.78 1190,-43.78 1190,-24.53 1278.75,-24.53 1278.75,-43.78"/>
<text text-anchor="middle" x="1234.38" y="-30.28" font-family="Helvetica,sans-Serif" font-size="10.00">OSThreadQueue</text>
</a>
</g>
</g>
<!-- Node8&#45;&gt;Node7 -->
<g id="edge10_Node000007_Node000008" class="edge">
<title>Node8&#45;&gt;Node7</title>
<g id="a_edge10_Node000007_Node000008"><a xlink:title=" ">
<path fill="none" stroke="#9a32cd" stroke-dasharray="5,2" d="M1191.93,-21.22C1185.32,-19.58 1178.51,-18.14 1172,-17.16 988.14,10.45 939.55,-2.51 753.75,-9.16 722.69,-10.27 712.26,-1.22 684,-14.16 653,-28.35 627.75,-61.61 616.53,-78.27"/>
<polygon fill="#9a32cd" stroke="#9a32cd" points="1190.76,-24.53 1201.32,-23.73 1192.56,-17.76 1190.76,-24.53"/>
</a>
</g>
<text text-anchor="middle" x="939.62" y="-3.91" font-family="Helvetica,sans-Serif" font-size="10.00" fill="grey"> queue</text>
</g>
<!-- Node8&#45;&gt;Node9 -->
<g id="edge13_Node000009_Node000008" class="edge">
<title>Node8&#45;&gt;Node9</title>
<g id="a_edge13_Node000009_Node000008"><a xlink:title=" ">
<path fill="none" stroke="#9a32cd" stroke-dasharray="5,2" d="M1196.97,-48.38C1166.81,-60.45 1123.01,-78.62 1085.75,-96.66 1073.27,-102.7 1059.57,-110.21 1049.11,-116.14"/>
<polygon fill="#9a32cd" stroke="#9a32cd" points="1198.02,-51.73 1206.02,-44.79 1195.43,-45.23 1198.02,-51.73"/>
</a>
</g>
<text text-anchor="middle" x="1128.88" y="-110.16" font-family="Helvetica,sans-Serif" font-size="10.00" fill="grey"> join_queue</text>
<text text-anchor="middle" x="1128.88" y="-98.91" font-family="Helvetica,sans-Serif" font-size="10.00" fill="grey">queue</text>
</g>
<!-- Node9&#45;&gt;Node7 -->
<g id="edge19_Node000007_Node000009" class="edge">
<title>Node9&#45;&gt;Node7</title>
<g id="a_edge19_Node000007_Node000009"><a xlink:title=" ">
<path fill="none" stroke="#9a32cd" stroke-dasharray="5,2" d="M1012.5,-143.85C1002.63,-152.84 989.56,-163.12 976,-169.16 885.55,-209.41 848.48,-212.92 753.75,-184.16 696.96,-166.91 642.18,-118.92 620.27,-98.05"/>
<polygon fill="#9a32cd" stroke="#9a32cd" points="1014.69,-146.59 1019.49,-137.15 1009.85,-141.54 1014.69,-146.59"/>
</a>
</g>
<text text-anchor="middle" x="819.5" y="-204.91" font-family="Helvetica,sans-Serif" font-size="10.00" fill="grey"> thread</text>
</g>
<!-- Node9&#45;&gt;Node8 -->
<g id="edge11_Node000008_Node000009" class="edge">
<title>Node9&#45;&gt;Node8</title>
<g id="a_edge11_Node000008_Node000009"><a xlink:title=" ">
<path fill="none" stroke="#9a32cd" stroke-dasharray="5,2" d="M1037.61,-105.5C1044.86,-83.76 1059.67,-50.66 1085.75,-35.66 1117.41,-17.45 1159.56,-19.04 1190.72,-24.04"/>
<polygon fill="#9a32cd" stroke="#9a32cd" points="1034.35,-104.19 1034.77,-114.77 1041.04,-106.23 1034.35,-104.19"/>
</a>
</g>
<text text-anchor="middle" x="1128.88" y="-49.16" font-family="Helvetica,sans-Serif" font-size="10.00" fill="grey"> head</text>
<text text-anchor="middle" x="1128.88" y="-37.91" font-family="Helvetica,sans-Serif" font-size="10.00" fill="grey">tail</text>
</g>
<!-- Node11 -->
<g id="Node000011" class="node">
<title>Node11</title>
<g id="a_Node000011"><a xlink:href="structOSThreadLink.html" target="_top" xlink:title=" ">
<polygon fill="white" stroke="#666666" points="1273.88,-158.78 1194.88,-158.78 1194.88,-139.53 1273.88,-139.53 1273.88,-158.78"/>
<text text-anchor="middle" x="1234.38" y="-145.28" font-family="Helvetica,sans-Serif" font-size="10.00">OSThreadLink</text>
</a>
</g>
</g>
<!-- Node9&#45;&gt;Node11 -->
<g id="edge15_Node000011_Node000009" class="edge">
<title>Node9&#45;&gt;Node11</title>
<g id="a_edge15_Node000011_Node000009"><a xlink:title=" ">
<path fill="none" stroke="#9a32cd" stroke-dasharray="5,2" d="M1059.36,-141.05C1067.61,-144.78 1076.84,-148.26 1085.75,-150.16 1122.1,-157.89 1164.63,-156.54 1194.68,-153.92"/>
<polygon fill="#9a32cd" stroke="#9a32cd" points="1061.08,-138 1050.56,-136.77 1058.02,-144.29 1061.08,-138"/>
</a>
</g>
<text text-anchor="middle" x="1128.88" y="-169.16" font-family="Helvetica,sans-Serif" font-size="10.00" fill="grey"> next</text>
<text text-anchor="middle" x="1128.88" y="-157.91" font-family="Helvetica,sans-Serif" font-size="10.00" fill="grey">prev</text>
</g>
<!-- Node10 -->
<g id="Node000010" class="node">
<title>Node10</title>
<g id="a_Node000010"><a xlink:href="structOSContext.html" target="_top" xlink:title=" ">
<polygon fill="white" stroke="#666666" points="851.12,-174.78 787.88,-174.78 787.88,-155.53 851.12,-155.53 851.12,-174.78"/>
<text text-anchor="middle" x="819.5" y="-161.28" font-family="Helvetica,sans-Serif" font-size="10.00">OSContext</text>
</a>
</g>
</g>
<!-- Node10&#45;&gt;Node9 -->
<g id="edge12_Node000009_Node000010" class="edge">
<title>Node10&#45;&gt;Node9</title>
<g id="a_edge12_Node000009_Node000010"><a xlink:title=" ">
<path fill="none" stroke="#9a32cd" stroke-dasharray="5,2" d="M862.73,-159.47C894.12,-154.98 937.91,-148.15 976,-140.16 983.94,-138.49 992.48,-136.41 1000.35,-134.37"/>
<polygon fill="#9a32cd" stroke="#9a32cd" points="862.26,-156.01 852.84,-160.87 863.23,-162.94 862.26,-156.01"/>
</a>
</g>
<text text-anchor="middle" x="939.62" y="-155.91" font-family="Helvetica,sans-Serif" font-size="10.00" fill="grey"> context</text>
</g>
<!-- Node11&#45;&gt;Node9 -->
<g id="edge14_Node000009_Node000011" class="edge">
<title>Node11&#45;&gt;Node9</title>
<g id="a_edge14_Node000009_Node000011"><a xlink:title=" ">
<path fill="none" stroke="#9a32cd" stroke-dasharray="5,2" d="M1199.58,-135.11C1190.75,-132.06 1181.15,-129.26 1172,-127.66 1134.26,-121.03 1089.92,-121.99 1061.38,-123.71"/>
<polygon fill="#9a32cd" stroke="#9a32cd" points="1198.24,-138.35 1208.83,-138.52 1200.66,-131.78 1198.24,-138.35"/>
</a>
</g>
<text text-anchor="middle" x="1128.88" y="-141.16" font-family="Helvetica,sans-Serif" font-size="10.00" fill="grey"> active_threads_link</text>
<text text-anchor="middle" x="1128.88" y="-129.91" font-family="Helvetica,sans-Serif" font-size="10.00" fill="grey">link</text>
</g>
<!-- Node12&#45;&gt;Node9 -->
<g id="edge17_Node000009_Node000012" class="edge">
<title>Node12&#45;&gt;Node9</title>
<g id="a_edge17_Node000009_Node000012"><a xlink:title=" ">
<path fill="none" stroke="#9a32cd" stroke-dasharray="5,2" d="M873.7,-83.22C904.13,-85.96 942.75,-91.15 976,-100.91 988.49,-104.57 1001.73,-110.75 1011.97,-116.07"/>
<polygon fill="#9a32cd" stroke="#9a32cd" points="874.23,-79.75 863.98,-82.41 873.65,-86.73 874.23,-79.75"/>
</a>
</g>
<text text-anchor="middle" x="939.62" y="-102.91" font-family="Helvetica,sans-Serif" font-size="10.00" fill="grey"> owned_mutexes</text>
</g>
<!-- Node13&#45;&gt;Node7 -->
<g id="edge20_Node000007_Node000013" class="edge">
<title>Node13&#45;&gt;Node7</title>
<g id="a_edge20_Node000007_Node000013"><a xlink:title=" ">
<path fill="none" stroke="#9a32cd" stroke-dasharray="5,2" d="M772.58,-41.39C731.37,-53.26 672.26,-70.29 637.9,-80.19"/>
<polygon fill="#9a32cd" stroke="#9a32cd" points="773.33,-44.81 781.97,-38.68 771.39,-38.09 773.33,-44.81"/>
</a>
</g>
<text text-anchor="middle" x="709.88" y="-67.91" font-family="Helvetica,sans-Serif" font-size="10.00" fill="grey"> link</text>
</g>
<!-- Node14 -->
<g id="Node000014" class="node">
<title>Node14</title>
<g id="a_Node000014"><a xlink:href="classJSUTree.html" target="_top" xlink:title=" ">
<polygon fill="white" stroke="#666666" points="666,-318.78 552.5,-318.78 552.5,-299.53 666,-299.53 666,-318.78"/>
<text text-anchor="middle" x="609.25" y="-305.28" font-family="Helvetica,sans-Serif" font-size="10.00">JSUTree&lt; JKRHeap &gt;</text>
</a>
</g>
</g>
<!-- Node14&#45;&gt;Node2 -->
<g id="edge22_Node000002_Node000014" class="edge">
<title>Node14&#45;&gt;Node2</title>
<g id="a_edge22_Node000002_Node000014"><a xlink:title=" ">
<path fill="none" stroke="#9a32cd" stroke-dasharray="5,2" d="M675.29,-296.98C713.83,-289.76 760.72,-280.98 790.1,-275.48"/>
<polygon fill="#9a32cd" stroke="#9a32cd" points="674.82,-293.5 665.64,-298.78 676.11,-300.38 674.82,-293.5"/>
</a>
</g>
<text text-anchor="middle" x="709.88" y="-295.91" font-family="Helvetica,sans-Serif" font-size="10.00" fill="grey"> mChildTree</text>
</g>
<!-- Node15&#45;&gt;Node14 -->
<g id="edge23_Node000014_Node000015" class="edge">
<title>Node15&#45;&gt;Node14</title>
<g id="a_edge23_Node000014_Node000015"><a xlink:title=" ">
<path fill="none" stroke="#63b8ff" d="M400.47,-300.22C443.59,-302.08 506.95,-304.8 552.36,-306.75"/>
<polygon fill="#63b8ff" stroke="#63b8ff" points="400.8,-296.73 390.65,-299.8 400.5,-303.73 400.8,-296.73"/>
</a>
</g>
</g>
<!-- Node16&#45;&gt;Node14 -->
<g id="edge25_Node000014_Node000016" class="edge">
<title>Node16&#45;&gt;Node14</title>
<g id="a_edge25_Node000014_Node000016"><a xlink:title=" ">
<path fill="none" stroke="#63b8ff" d="M307.53,-333.38C362.64,-330.1 455.1,-324.2 534.5,-317.16 540.27,-316.65 546.3,-316.07 552.3,-315.46"/>
<polygon fill="#63b8ff" stroke="#63b8ff" points="307.65,-329.87 297.87,-333.95 308.06,-336.86 307.65,-329.87"/>
</a>
</g>
</g>
<!-- Node17&#45;&gt;Node2 -->
<g id="edge27_Node000002_Node000017" class="edge">
<title>Node17&#45;&gt;Node2</title>
<g id="a_edge27_Node000002_Node000017"><a xlink:title=" ">
<path fill="none" stroke="#9a32cd" stroke-dasharray="5,2" d="M545.08,-268.58C621.49,-269.02 737.22,-269.69 790.2,-269.99"/>
<polygon fill="#9a32cd" stroke="#9a32cd" points="545.17,-265.08 535.15,-268.52 545.13,-272.08 545.17,-265.08"/>
</a>
</g>
<text text-anchor="middle" x="609.25" y="-270.91" font-family="Helvetica,sans-Serif" font-size="10.00" fill="grey"> mDisposerList</text>
</g>
<!-- Node18 -->
<g id="Node000018" class="node">
<title>Node18</title>
<g id="a_Node000018"><a xlink:href="classJKRExpHeap_1_1CMemBlock.html" target="_top" xlink:title=" ">
<polygon fill="white" stroke="#666666" points="885.25,-418.78 753.75,-418.78 753.75,-399.53 885.25,-399.53 885.25,-418.78"/>
<text text-anchor="middle" x="819.5" y="-405.28" font-family="Helvetica,sans-Serif" font-size="10.00">JKRExpHeap::CMemBlock</text>
</a>
</g>
</g>
<!-- Node18&#45;&gt;Node1 -->
<g id="edge30_Node000001_Node000018" class="edge">
<title>Node18&#45;&gt;Node1</title>
<g id="a_edge30_Node000001_Node000018"><a xlink:title=" ">
<path fill="none" stroke="#9a32cd" stroke-dasharray="5,2" d="M896.88,-405.09C922.86,-401.59 951.51,-395.32 976,-384.16 994.19,-375.87 1011.18,-359.73 1021.05,-349.2"/>
<polygon fill="#9a32cd" stroke="#9a32cd" points="896.54,-401.6 887.04,-406.28 897.39,-408.55 896.54,-401.6"/>
</a>
</g>
<text text-anchor="middle" x="939.62" y="-438.66" font-family="Helvetica,sans-Serif" font-size="10.00" fill="grey"> mHeadFreeList</text>
<text text-anchor="middle" x="939.62" y="-427.41" font-family="Helvetica,sans-Serif" font-size="10.00" fill="grey">mHeadUsedList</text>
<text text-anchor="middle" x="939.62" y="-416.16" font-family="Helvetica,sans-Serif" font-size="10.00" fill="grey">mTailFreeList</text>
<text text-anchor="middle" x="939.62" y="-404.91" font-family="Helvetica,sans-Serif" font-size="10.00" fill="grey">mTailUsedList</text>
</g>
<!-- Node18&#45;&gt;Node18 -->
<g id="edge31_Node000018_Node000018" class="edge">
<title>Node18&#45;&gt;Node18</title>
<g id="a_edge31_Node000018_Node000018"><a xlink:title=" ">
<path fill="none" stroke="#9a32cd" stroke-dasharray="5,2" d="M800.04,-430.18C802.48,-434.06 808.96,-436.78 819.5,-436.78 838.77,-436.78 844.49,-427.68 836.66,-419.07"/>
<polygon fill="#9a32cd" stroke="#9a32cd" points="803.44,-431.05 802.03,-420.55 796.58,-429.64 803.44,-431.05"/>
</a>
</g>
<text text-anchor="middle" x="819.5" y="-449.78" font-family="Helvetica,sans-Serif" font-size="10.00" fill="grey"> mNext</text>
<text text-anchor="middle" x="819.5" y="-438.53" font-family="Helvetica,sans-Serif" font-size="10.00" fill="grey">mPrev</text>
</g>
</g>
</svg>
