<?xml version="1.0" encoding="UTF-8" standalone="no"?>
<!DOCTYPE svg PUBLIC "-//W3C//DTD SVG 1.1//EN"
 "http://www.w3.org/Graphics/SVG/1.1/DTD/svg11.dtd">
<!-- Generated by graphviz version 9.0.0 (20230911.1827)
 -->
<!-- Title: Z2SeMgr Pages: 1 -->
<svg width="1346pt" height="347pt"
 viewBox="0.00 0.00 1345.75 346.88" xmlns="http://www.w3.org/2000/svg" xmlns:xlink="http://www.w3.org/1999/xlink">
<g id="graph0" class="graph" transform="scale(1 1) rotate(0) translate(4 342.88)">
<title>Z2SeMgr</title>
<!-- Node1 -->
<g id="Node000001" class="node">
<title>Node1</title>
<g id="a_Node000001"><a xlink:title=" ">
<polygon fill="#999999" stroke="#666666" points="1150.75,-253.25 1095,-253.25 1095,-234 1150.75,-234 1150.75,-253.25"/>
<text text-anchor="middle" x="1122.88" y="-239.75" font-family="Helvetica,sans-Serif" font-size="10.00">Z2SeMgr</text>
</a>
</g>
</g>
<!-- Node2 -->
<g id="Node000002" class="node">
<title>Node2</title>
<g id="a_Node000002"><a xlink:href="classJASGlobalInstance.html" target="_top" xlink:title=" ">
<polygon fill="white" stroke="#666666" points="1337.75,-258.88 1231.75,-258.88 1231.75,-228.38 1337.75,-228.38 1337.75,-258.88"/>
<text text-anchor="start" x="1239.75" y="-245.38" font-family="Helvetica,sans-Serif" font-size="10.00">JASGlobalInstance&lt;</text>
<text text-anchor="middle" x="1284.75" y="-234.12" font-family="Helvetica,sans-Serif" font-size="10.00"> Z2SeMgr &gt;</text>
</a>
</g>
</g>
<!-- Node1&#45;&gt;Node2 -->
<g id="edge2_Node000002_Node000001" class="edge">
<title>Node1&#45;&gt;Node2</title>
<g id="a_edge2_Node000002_Node000001"><a xlink:title=" ">
<path fill="none" stroke="#9a32cd" stroke-dasharray="5,2" d="M1162.25,-243.62C1183.02,-243.62 1208.98,-243.62 1231.56,-243.62"/>
<polygon fill="#9a32cd" stroke="#9a32cd" points="1162.51,-240.13 1152.51,-243.63 1162.51,-247.13 1162.51,-240.13"/>
</a>
</g>
<text text-anchor="middle" x="1191.25" y="-245.38" font-family="Helvetica,sans-Serif" font-size="10.00" fill="grey"> sInstance</text>
</g>
<!-- Node2&#45;&gt;Node1 -->
<g id="edge1_Node000001_Node000002" class="edge">
<title>Node2&#45;&gt;Node1</title>
<g id="a_edge1_Node000001_Node000002"><a xlink:title=" ">
<path fill="none" stroke="#63b8ff" d="M1220.05,-241.62C1203.35,-241.34 1185.38,-241.25 1168.75,-241.62 1162.98,-241.75 1156.8,-241.97 1150.92,-242.22"/>
<polygon fill="#63b8ff" stroke="#63b8ff" points="1219.79,-245.11 1229.85,-241.81 1219.92,-238.11 1219.79,-245.11"/>
</a>
</g>
</g>
<!-- Node3 -->
<g id="Node000003" class="node">
<title>Node3</title>
<g id="a_Node000003"><a xlink:href="classJAISoundHandle.html" target="_top" xlink:title=" ">
<polygon fill="white" stroke="#666666" points="783.5,-322.25 694,-322.25 694,-303 783.5,-303 783.5,-322.25"/>
<text text-anchor="middle" x="738.75" y="-308.75" font-family="Helvetica,sans-Serif" font-size="10.00">JAISoundHandle</text>
</a>
</g>
</g>
<!-- Node3&#45;&gt;Node1 -->
<g id="edge3_Node000001_Node000003" class="edge">
<title>Node3&#45;&gt;Node1</title>
<g id="a_edge3_Node000001_Node000003"><a xlink:title=" ">
<path fill="none" stroke="#9a32cd" stroke-dasharray="5,2" d="M779.59,-325.77C787.28,-327.79 795.33,-329.55 803,-330.62 833.37,-334.86 841.6,-334.63 872,-330.62 965.52,-318.3 991.68,-315.87 1077,-275.62 1089.29,-269.83 1101.75,-260.62 1110.41,-253.56"/>
<polygon fill="#9a32cd" stroke="#9a32cd" points="780.7,-322.44 770.13,-323.09 778.8,-329.18 780.7,-322.44"/>
</a>
</g>
<text text-anchor="middle" x="937.38" y="-329.38" font-family="Helvetica,sans-Serif" font-size="10.00" fill="grey"> mSoundHandle</text>
</g>
<!-- Node4 -->
<g id="Node000004" class="node">
<title>Node4</title>
<g id="a_Node000004"><a xlink:href="classJAISound.html" target="_top" xlink:title=" ">
<polygon fill="white" stroke="#666666" points="966.75,-203.25 908,-203.25 908,-184 966.75,-184 966.75,-203.25"/>
<text text-anchor="middle" x="937.38" y="-189.75" font-family="Helvetica,sans-Serif" font-size="10.00">JAISound</text>
</a>
</g>
</g>
<!-- Node3&#45;&gt;Node4 -->
<g id="edge5_Node000004_Node000003" class="edge">
<title>Node3&#45;&gt;Node4</title>
<g id="a_edge5_Node000004_Node000003"><a xlink:title=" ">
<path fill="none" stroke="#9a32cd" stroke-dasharray="5,2" d="M785.35,-299.35C823.21,-288.3 871.04,-274.27 872,-273.62 872.92,-273.01 911.31,-225.01 928.36,-203.67"/>
<polygon fill="#9a32cd" stroke="#9a32cd" points="784.56,-295.93 775.94,-302.09 786.52,-302.65 784.56,-295.93"/>
</a>
</g>
<text text-anchor="middle" x="837.5" y="-294.38" font-family="Helvetica,sans-Serif" font-size="10.00" fill="grey"> handle_</text>
</g>
<!-- Node17 -->
<g id="Node000017" class="node">
<title>Node17</title>
<g id="a_Node000017"><a xlink:href="classJAISoundHandles.html" target="_top" xlink:title=" ">
<polygon fill="white" stroke="#666666" points="984.75,-280.25 890,-280.25 890,-261 984.75,-261 984.75,-280.25"/>
<text text-anchor="middle" x="937.38" y="-266.75" font-family="Helvetica,sans-Serif" font-size="10.00">JAISoundHandles</text>
</a>
</g>
</g>
<!-- Node3&#45;&gt;Node17 -->
<g id="edge20_Node000017_Node000003" class="edge">
<title>Node3&#45;&gt;Node17</title>
<g id="a_edge20_Node000017_Node000003"><a xlink:title=" ">
<path fill="none" stroke="#9a32cd" stroke-dasharray="5,2" d="M795.19,-316.41C819.22,-316.55 847.42,-314.68 872,-307.62 891.33,-302.07 911,-289.55 923.43,-280.61"/>
<polygon fill="#9a32cd" stroke="#9a32cd" points="795.34,-312.91 785.28,-316.22 795.21,-319.91 795.34,-312.91"/>
</a>
</g>
<text text-anchor="middle" x="837.5" y="-317.38" font-family="Helvetica,sans-Serif" font-size="10.00" fill="grey"> mSoundHandle</text>
</g>
<!-- Node4&#45;&gt;Node3 -->
<g id="edge4_Node000003_Node000004" class="edge">
<title>Node4&#45;&gt;Node3</title>
<g id="a_edge4_Node000003_Node000004"><a xlink:title=" ">
<path fill="none" stroke="#9a32cd" stroke-dasharray="5,2" d="M913.8,-210.02C901.75,-218.33 886.47,-228.2 872,-235.62 842.74,-250.64 831.53,-246.02 803,-262.38 782.8,-273.95 762.2,-291.65 750.22,-302.65"/>
<polygon fill="#9a32cd" stroke="#9a32cd" points="915.66,-212.99 921.82,-204.37 911.63,-207.26 915.66,-212.99"/>
</a>
</g>
<text text-anchor="middle" x="837.5" y="-263.38" font-family="Helvetica,sans-Serif" font-size="10.00" fill="grey"> sound_</text>
</g>
<!-- Node5 -->
<g id="Node000005" class="node">
<title>Node5</title>
<g id="a_Node000005"><a xlink:href="classJAIAudible.html" target="_top" xlink:title=" ">
<polygon fill="white" stroke="#666666" points="770.38,-243.25 707.12,-243.25 707.12,-224 770.38,-224 770.38,-243.25"/>
<text text-anchor="middle" x="738.75" y="-229.75" font-family="Helvetica,sans-Serif" font-size="10.00">JAIAudible</text>
</a>
</g>
</g>
<!-- Node5&#45;&gt;Node4 -->
<g id="edge6_Node000004_Node000005" class="edge">
<title>Node5&#45;&gt;Node4</title>
<g id="a_edge6_Node000004_Node000005"><a xlink:title=" ">
<path fill="none" stroke="#9a32cd" stroke-dasharray="5,2" d="M781.67,-225.1C819.66,-217.37 874.62,-206.19 907.78,-199.44"/>
<polygon fill="#9a32cd" stroke="#9a32cd" points="781.06,-221.65 771.96,-227.07 782.45,-228.51 781.06,-221.65"/>
</a>
</g>
<text text-anchor="middle" x="837.5" y="-222.38" font-family="Helvetica,sans-Serif" font-size="10.00" fill="grey"> audible_</text>
</g>
<!-- Node6 -->
<g id="Node000006" class="node">
<title>Node6</title>
<g id="a_Node000006"><a xlink:href="structJGeometry_1_1TVec3.html" target="_top" xlink:title=" ">
<polygon fill="white" stroke="#666666" points="610,-243.25 479.25,-243.25 479.25,-224 610,-224 610,-243.25"/>
<text text-anchor="middle" x="544.62" y="-229.75" font-family="Helvetica,sans-Serif" font-size="10.00">JGeometry::TVec3&lt; float &gt;</text>
</a>
</g>
</g>
<!-- Node6&#45;&gt;Node5 -->
<g id="edge7_Node000005_Node000006" class="edge">
<title>Node6&#45;&gt;Node5</title>
<g id="a_edge7_Node000005_Node000006"><a xlink:title=" ">
<path fill="none" stroke="#9a32cd" stroke-dasharray="5,2" d="M621.65,-233.62C651.42,-233.62 683.87,-233.62 706.88,-233.62"/>
<polygon fill="#9a32cd" stroke="#9a32cd" points="621.92,-230.13 611.92,-233.63 621.92,-237.13 621.92,-230.13"/>
</a>
</g>
<text text-anchor="middle" x="651.25" y="-235.38" font-family="Helvetica,sans-Serif" font-size="10.00" fill="grey"> mPos</text>
</g>
<!-- Node7 -->
<g id="Node000007" class="node">
<title>Node7</title>
<g id="a_Node000007"><a xlink:href="structJAIAudience.html" target="_top" xlink:title=" ">
<polygon fill="white" stroke="#666666" points="774.5,-206.25 703,-206.25 703,-187 774.5,-187 774.5,-206.25"/>
<text text-anchor="middle" x="738.75" y="-192.75" font-family="Helvetica,sans-Serif" font-size="10.00">JAIAudience</text>
</a>
</g>
</g>
<!-- Node7&#45;&gt;Node4 -->
<g id="edge8_Node000004_Node000007" class="edge">
<title>Node7&#45;&gt;Node4</title>
<g id="a_edge8_Node000004_Node000007"><a xlink:title=" ">
<path fill="none" stroke="#9a32cd" stroke-dasharray="5,2" d="M786.28,-194.81C791.91,-194.64 797.59,-194.49 803,-194.38 839.12,-193.63 880.74,-193.52 907.75,-193.54"/>
<polygon fill="#9a32cd" stroke="#9a32cd" points="786.26,-191.31 776.39,-195.14 786.5,-198.31 786.26,-191.31"/>
</a>
</g>
<text text-anchor="middle" x="837.5" y="-195.38" font-family="Helvetica,sans-Serif" font-size="10.00" fill="grey"> audience_</text>
</g>
<!-- Node8 -->
<g id="Node000008" class="node">
<title>Node8</title>
<g id="a_Node000008"><a xlink:href="structJAISoundID.html" target="_top" xlink:title=" ">
<polygon fill="white" stroke="#666666" points="773,-169.25 704.5,-169.25 704.5,-150 773,-150 773,-169.25"/>
<text text-anchor="middle" x="738.75" y="-155.75" font-family="Helvetica,sans-Serif" font-size="10.00">JAISoundID</text>
</a>
</g>
</g>
<!-- Node8&#45;&gt;Node4 -->
<g id="edge9_Node000004_Node000008" class="edge">
<title>Node8&#45;&gt;Node4</title>
<g id="a_edge9_Node000004_Node000008"><a xlink:title=" ">
<path fill="none" stroke="#9a32cd" stroke-dasharray="5,2" d="M784.62,-164.36C810.31,-167.39 843.1,-171.81 872,-177.38 883.77,-179.64 896.6,-182.75 907.69,-185.64"/>
<polygon fill="#9a32cd" stroke="#9a32cd" points="785.19,-160.9 774.85,-163.24 784.39,-167.86 785.19,-160.9"/>
</a>
</g>
<text text-anchor="middle" x="837.5" y="-178.38" font-family="Helvetica,sans-Serif" font-size="10.00" fill="grey"> soundID</text>
</g>
<!-- Node9 -->
<g id="Node000009" class="node">
<title>Node9</title>
<g id="a_Node000009"><a xlink:href="structJAISoundStatus__.html" target="_top" xlink:title=" ">
<polygon fill="white" stroke="#666666" points="785,-132.25 692.5,-132.25 692.5,-113 785,-113 785,-132.25"/>
<text text-anchor="middle" x="738.75" y="-118.75" font-family="Helvetica,sans-Serif" font-size="10.00">JAISoundStatus_</text>
</a>
</g>
</g>
<!-- Node9&#45;&gt;Node4 -->
<g id="edge10_Node000004_Node000009" class="edge">
<title>Node9&#45;&gt;Node4</title>
<g id="a_edge10_Node000004_Node000009"><a xlink:title=" ">
<path fill="none" stroke="#9a32cd" stroke-dasharray="5,2" d="M796.45,-126.02C821.23,-129.67 849.66,-136.96 872,-151.38 883.28,-158.65 879.32,-167.49 890,-175.62 895.22,-179.6 901.43,-182.81 907.58,-185.34"/>
<polygon fill="#9a32cd" stroke="#9a32cd" points="797.23,-122.59 786.86,-124.78 796.33,-129.53 797.23,-122.59"/>
</a>
</g>
<text text-anchor="middle" x="837.5" y="-152.38" font-family="Helvetica,sans-Serif" font-size="10.00" fill="grey"> status_</text>
</g>
<!-- Node10 -->
<g id="Node000010" class="node">
<title>Node10</title>
<g id="a_Node000010"><a xlink:href="structJAISoundFader.html" target="_top" xlink:title=" ">
<polygon fill="white" stroke="#666666" points="461.25,-104.25 377.75,-104.25 377.75,-85 461.25,-85 461.25,-104.25"/>
<text text-anchor="middle" x="419.5" y="-90.75" font-family="Helvetica,sans-Serif" font-size="10.00">JAISoundFader</text>
</a>
</g>
</g>
<!-- Node10&#45;&gt;Node4 -->
<g id="edge11_Node000004_Node000010" class="edge">
<title>Node10&#45;&gt;Node4</title>
<g id="a_edge11_Node000004_Node000010"><a xlink:title=" ">
<path fill="none" stroke="#9a32cd" stroke-dasharray="5,2" d="M472.82,-90.26C578.99,-82.58 814.55,-72.03 872,-123.62 890.2,-139.97 873.03,-158.01 890,-175.62 894.79,-180.6 901.12,-184.22 907.55,-186.85"/>
<polygon fill="#9a32cd" stroke="#9a32cd" points="472.66,-86.76 462.95,-90.99 473.18,-93.74 472.66,-86.76"/>
</a>
</g>
<text text-anchor="middle" x="651.25" y="-86.38" font-family="Helvetica,sans-Serif" font-size="10.00" fill="grey"> fader</text>
</g>
<!-- Node11 -->
<g id="Node000011" class="node">
<title>Node11</title>
<g id="a_Node000011"><a xlink:href="structJAISoundParamsTransition_1_1TTransition.html" target="_top" xlink:title=" ">
<polygon fill="white" stroke="#666666" points="135.25,-79.88 0,-79.88 0,-49.38 135.25,-49.38 135.25,-79.88"/>
<text text-anchor="start" x="8" y="-66.38" font-family="Helvetica,sans-Serif" font-size="10.00">JAISoundParamsTransition</text>
<text text-anchor="middle" x="67.62" y="-55.12" font-family="Helvetica,sans-Serif" font-size="10.00">::TTransition</text>
</a>
</g>
</g>
<!-- Node11&#45;&gt;Node10 -->
<g id="edge12_Node000010_Node000011" class="edge">
<title>Node11&#45;&gt;Node10</title>
<g id="a_edge12_Node000010_Node000011"><a xlink:title=" ">
<path fill="none" stroke="#9a32cd" stroke-dasharray="5,2" d="M146.64,-81.71C148.86,-82.04 151.07,-82.35 153.25,-82.62 232.12,-92.73 325.14,-94.66 377.42,-94.85"/>
<polygon fill="#9a32cd" stroke="#9a32cd" points="147.36,-78.28 136.93,-80.14 146.24,-85.19 147.36,-78.28"/>
</a>
</g>
<text text-anchor="middle" x="179.88" y="-90.38" font-family="Helvetica,sans-Serif" font-size="10.00" fill="grey"> mTransition</text>
</g>
<!-- Node16 -->
<g id="Node000016" class="node">
<title>Node16</title>
<g id="a_Node000016"><a xlink:href="structJAISoundParamsTransition.html" target="_top" xlink:title=" ">
<polygon fill="white" stroke="#666666" points="359.75,-56.25 224.5,-56.25 224.5,-37 359.75,-37 359.75,-56.25"/>
<text text-anchor="middle" x="292.12" y="-42.75" font-family="Helvetica,sans-Serif" font-size="10.00">JAISoundParamsTransition</text>
</a>
</g>
</g>
<!-- Node11&#45;&gt;Node16 -->
<g id="edge18_Node000016_Node000011" class="edge">
<title>Node11&#45;&gt;Node16</title>
<g id="a_edge18_Node000016_Node000011"><a xlink:title=" ">
<path fill="none" stroke="#9a32cd" stroke-dasharray="5,2" d="M105.44,-43.88C119.88,-36.86 136.89,-29.9 153.25,-26.38 176.39,-21.39 183,-23.6 206.5,-26.38 223.45,-28.38 241.93,-32.55 257.28,-36.6"/>
<polygon fill="#9a32cd" stroke="#9a32cd" points="104.12,-40.63 96.78,-48.27 107.28,-46.87 104.12,-40.63"/>
</a>
</g>
<text text-anchor="middle" x="179.88" y="-73.38" font-family="Helvetica,sans-Serif" font-size="10.00" fill="grey"> mDolby</text>
<text text-anchor="middle" x="179.88" y="-62.12" font-family="Helvetica,sans-Serif" font-size="10.00" fill="grey">mFxMix</text>
<text text-anchor="middle" x="179.88" y="-50.88" font-family="Helvetica,sans-Serif" font-size="10.00" fill="grey">mPan</text>
<text text-anchor="middle" x="179.88" y="-39.62" font-family="Helvetica,sans-Serif" font-size="10.00" fill="grey">mPitch</text>
<text text-anchor="middle" x="179.88" y="-28.38" font-family="Helvetica,sans-Serif" font-size="10.00" fill="grey">mVolume</text>
</g>
<!-- Node12 -->
<g id="Node000012" class="node">
<title>Node12</title>
<g id="a_Node000012"><a xlink:href="structJAISoundParams.html" target="_top" xlink:title=" ">
<polygon fill="white" stroke="#666666" points="785,-56.25 692.5,-56.25 692.5,-37 785,-37 785,-56.25"/>
<text text-anchor="middle" x="738.75" y="-42.75" font-family="Helvetica,sans-Serif" font-size="10.00">JAISoundParams</text>
</a>
</g>
</g>
<!-- Node12&#45;&gt;Node4 -->
<g id="edge13_Node000004_Node000012" class="edge">
<title>Node12&#45;&gt;Node4</title>
<g id="a_edge13_Node000004_Node000012"><a xlink:title=" ">
<path fill="none" stroke="#9a32cd" stroke-dasharray="5,2" d="M796.62,-37.45C822.77,-36.55 852.28,-40.75 872,-59.38 910.02,-95.27 857.24,-134.88 890,-175.62 894.55,-181.28 901.1,-185.16 907.86,-187.82"/>
<polygon fill="#9a32cd" stroke="#9a32cd" points="796.56,-33.94 786.79,-38.06 796.99,-40.93 796.56,-33.94"/>
</a>
</g>
<text text-anchor="middle" x="837.5" y="-61.38" font-family="Helvetica,sans-Serif" font-size="10.00" fill="grey"> params</text>
</g>
<!-- Node13 -->
<g id="Node000013" class="node">
<title>Node13</title>
<g id="a_Node000013"><a xlink:href="structJAISoundParamsProperty.html" target="_top" xlink:title=" ">
<polygon fill="white" stroke="#666666" points="608.88,-19.25 480.38,-19.25 480.38,0 608.88,0 608.88,-19.25"/>
<text text-anchor="middle" x="544.62" y="-5.75" font-family="Helvetica,sans-Serif" font-size="10.00">JAISoundParamsProperty</text>
</a>
</g>
</g>
<!-- Node13&#45;&gt;Node12 -->
<g id="edge14_Node000012_Node000013" class="edge">
<title>Node13&#45;&gt;Node12</title>
<g id="a_edge14_Node000012_Node000013"><a xlink:title=" ">
<path fill="none" stroke="#9a32cd" stroke-dasharray="5,2" d="M620.55,-21.37C638.28,-24.39 657.09,-27.81 674.5,-31.38 682.02,-32.92 690.02,-34.71 697.69,-36.52"/>
<polygon fill="#9a32cd" stroke="#9a32cd" points="621.31,-17.94 610.86,-19.73 620.14,-24.85 621.31,-17.94"/>
</a>
</g>
<text text-anchor="middle" x="651.25" y="-33.38" font-family="Helvetica,sans-Serif" font-size="10.00" fill="grey"> mProperty</text>
</g>
<!-- Node14 -->
<g id="Node000014" class="node">
<title>Node14</title>
<g id="a_Node000014"><a xlink:href="structJAISoundParamsMove.html" target="_top" xlink:title=" ">
<polygon fill="white" stroke="#666666" points="602.88,-56.25 486.38,-56.25 486.38,-37 602.88,-37 602.88,-56.25"/>
<text text-anchor="middle" x="544.62" y="-42.75" font-family="Helvetica,sans-Serif" font-size="10.00">JAISoundParamsMove</text>
</a>
</g>
</g>
<!-- Node14&#45;&gt;Node12 -->
<g id="edge15_Node000012_Node000014" class="edge">
<title>Node14&#45;&gt;Node12</title>
<g id="a_edge15_Node000012_Node000014"><a xlink:title=" ">
<path fill="none" stroke="#9a32cd" stroke-dasharray="5,2" d="M614.49,-46.62C640.26,-46.62 668.88,-46.62 692.04,-46.62"/>
<polygon fill="#9a32cd" stroke="#9a32cd" points="614.78,-43.13 604.78,-46.63 614.78,-50.13 614.78,-43.13"/>
</a>
</g>
<text text-anchor="middle" x="651.25" y="-48.38" font-family="Helvetica,sans-Serif" font-size="10.00" fill="grey"> mMove</text>
</g>
<!-- Node15 -->
<g id="Node000015" class="node">
<title>Node15</title>
<g id="a_Node000015"><a xlink:href="structJASSoundParams.html" target="_top" xlink:title=" ">
<polygon fill="white" stroke="#666666" points="340.25,-19.25 244,-19.25 244,0 340.25,0 340.25,-19.25"/>
<text text-anchor="middle" x="292.12" y="-5.75" font-family="Helvetica,sans-Serif" font-size="10.00">JASSoundParams</text>
</a>
</g>
</g>
<!-- Node15&#45;&gt;Node14 -->
<g id="edge16_Node000014_Node000015" class="edge">
<title>Node15&#45;&gt;Node14</title>
<g id="a_edge16_Node000014_Node000015"><a xlink:title=" ">
<path fill="none" stroke="#9a32cd" stroke-dasharray="5,2" d="M351.76,-16.42C384.11,-20.36 424.97,-25.67 461.25,-31.38 471.02,-32.91 481.41,-34.71 491.41,-36.52"/>
<polygon fill="#9a32cd" stroke="#9a32cd" points="352.54,-12.99 342.19,-15.26 351.7,-19.94 352.54,-12.99"/>
</a>
</g>
<text text-anchor="middle" x="419.5" y="-33.38" font-family="Helvetica,sans-Serif" font-size="10.00" fill="grey"> mParams</text>
</g>
<!-- Node16&#45;&gt;Node14 -->
<g id="edge17_Node000014_Node000016" class="edge">
<title>Node16&#45;&gt;Node14</title>
<g id="a_edge17_Node000014_Node000016"><a xlink:title=" ">
<path fill="none" stroke="#9a32cd" stroke-dasharray="5,2" d="M371.22,-46.62C408.32,-46.62 451.89,-46.62 485.95,-46.62"/>
<polygon fill="#9a32cd" stroke="#9a32cd" points="371.44,-43.13 361.44,-46.63 371.44,-50.13 371.44,-43.13"/>
</a>
</g>
<text text-anchor="middle" x="419.5" y="-48.38" font-family="Helvetica,sans-Serif" font-size="10.00" fill="grey"> mTransition</text>
</g>
<!-- Node17&#45;&gt;Node1 -->
<g id="edge19_Node000001_Node000017" class="edge">
<title>Node17&#45;&gt;Node1</title>
<g id="a_edge19_Node000001_Node000017"><a xlink:title=" ">
<path fill="none" stroke="#9a32cd" stroke-dasharray="5,2" d="M996.45,-262.08C1029.28,-257.25 1068.77,-251.44 1094.56,-247.64"/>
<polygon fill="#9a32cd" stroke="#9a32cd" points="996.04,-258.6 986.65,-263.52 997.06,-265.53 996.04,-258.6"/>
</a>
</g>
<text text-anchor="middle" x="1039.88" y="-262.38" font-family="Helvetica,sans-Serif" font-size="10.00" fill="grey"> mSoundHandles</text>
</g>
<!-- Node18 -->
<g id="Node000018" class="node">
<title>Node18</title>
<g id="a_Node000018"><a xlink:href="structZ2MultiSeObj.html" target="_top" xlink:title=" ">
<polygon fill="white" stroke="#666666" points="975,-166.25 899.75,-166.25 899.75,-147 975,-147 975,-166.25"/>
<text text-anchor="middle" x="937.38" y="-152.75" font-family="Helvetica,sans-Serif" font-size="10.00">Z2MultiSeObj</text>
</a>
</g>
</g>
<!-- Node18&#45;&gt;Node1 -->
<g id="edge21_Node000001_Node000018" class="edge">
<title>Node18&#45;&gt;Node1</title>
<g id="a_edge21_Node000001_Node000018"><a xlink:title=" ">
<path fill="none" stroke="#9a32cd" stroke-dasharray="5,2" d="M976.13,-170.93C979.06,-172.14 981.96,-173.39 984.75,-174.62 1028.1,-193.89 1077.46,-219.72 1103.52,-233.68"/>
<polygon fill="#9a32cd" stroke="#9a32cd" points="977.52,-167.71 966.93,-167.23 974.9,-174.21 977.52,-167.71"/>
</a>
</g>
<text text-anchor="middle" x="1039.88" y="-231.62" font-family="Helvetica,sans-Serif" font-size="10.00" fill="grey"> mLevelObjSe</text>
<text text-anchor="middle" x="1039.88" y="-220.38" font-family="Helvetica,sans-Serif" font-size="10.00" fill="grey">mMultiTriggerSe</text>
</g>
<!-- Node19 -->
<g id="Node000019" class="node">
<title>Node19</title>
<g id="a_Node000019"><a xlink:href="structZ2MultiSeMgr.html" target="_top" xlink:title=" ">
<polygon fill="white" stroke="#666666" points="777.12,-19.25 700.38,-19.25 700.38,0 777.12,0 777.12,-19.25"/>
<text text-anchor="middle" x="738.75" y="-5.75" font-family="Helvetica,sans-Serif" font-size="10.00">Z2MultiSeMgr</text>
</a>
</g>
</g>
<!-- Node19&#45;&gt;Node18 -->
<g id="edge22_Node000018_Node000019" class="edge">
<title>Node19&#45;&gt;Node18</title>
<g id="a_edge22_Node000018_Node000019"><a xlink:title=" ">
<path fill="none" stroke="#63b8ff" d="M788.76,-5.68C816.84,-6.21 850.64,-12.06 872,-33.62 905.32,-67.27 860.04,-101.96 890,-138.62 892.62,-141.83 895.89,-144.47 899.48,-146.64"/>
<polygon fill="#63b8ff" stroke="#63b8ff" points="789.02,-2.18 779.04,-5.73 789.06,-9.18 789.02,-2.18"/>
</a>
</g>
</g>
<!-- Node20 -->
<g id="Node000020" class="node">
<title>Node20</title>
<g id="a_Node000020"><a xlink:href="structVec.html" target="_top" xlink:title=" ">
<polygon fill="white" stroke="#666666" points="954,-129.25 920.75,-129.25 920.75,-110 954,-110 954,-129.25"/>
<text text-anchor="middle" x="937.38" y="-115.75" font-family="Helvetica,sans-Serif" font-size="10.00">Vec</text>
</a>
</g>
</g>
<!-- Node20&#45;&gt;Node1 -->
<g id="edge23_Node000001_Node000020" class="edge">
<title>Node20&#45;&gt;Node1</title>
<g id="a_edge23_Node000001_Node000020"><a xlink:title=" ">
<path fill="none" stroke="#9a32cd" stroke-dasharray="5,2" d="M965.73,-120.38C996.01,-122.57 1044.78,-130.22 1077,-156.12 1102.41,-176.56 1114.88,-215.21 1119.58,-233.52"/>
<polygon fill="#9a32cd" stroke="#9a32cd" points="966.05,-116.9 955.87,-119.84 965.66,-123.89 966.05,-116.9"/>
</a>
</g>
<text text-anchor="middle" x="1039.88" y="-168.62" font-family="Helvetica,sans-Serif" font-size="10.00" fill="grey"> field_0x340</text>
<text text-anchor="middle" x="1039.88" y="-157.38" font-family="Helvetica,sans-Serif" font-size="10.00" fill="grey">mModY</text>
</g>
</g>
</svg>
