<?xml version="1.0" encoding="UTF-8" standalone="no"?>
<!DOCTYPE svg PUBLIC "-//W3C//DTD SVG 1.1//EN"
 "http://www.w3.org/Graphics/SVG/1.1/DTD/svg11.dtd">
<!-- Generated by graphviz version 9.0.0 (20230911.1827)
 -->
<!-- Title: J2DAnmColorKey Pages: 1 -->
<svg width="314pt" height="327pt"
 viewBox="0.00 0.00 314.25 327.00" xmlns="http://www.w3.org/2000/svg" xmlns:xlink="http://www.w3.org/1999/xlink">
<g id="graph0" class="graph" transform="scale(1 1) rotate(0) translate(4 323)">
<title>J2DAnmColorKey</title>
<!-- Node1 -->
<g id="Node000001" class="node">
<title>Node1</title>
<g id="a_Node000001"><a xlink:title=" ">
<polygon fill="#999999" stroke="#666666" points="236.25,-19.25 143.75,-19.25 143.75,0 236.25,0 236.25,-19.25"/>
<text text-anchor="middle" x="190" y="-5.75" font-family="Helvetica,sans-Serif" font-size="10.00">J2DAnmColorKey</text>
</a>
</g>
</g>
<!-- Node2 -->
<g id="Node000002" class="node">
<title>Node2</title>
<g id="a_Node000002"><a xlink:href="classJ2DAnmColor.html" target="_top" xlink:title=" ">
<polygon fill="white" stroke="#666666" points="171,-85.75 95,-85.75 95,-66.5 171,-66.5 171,-85.75"/>
<text text-anchor="middle" x="133" y="-72.25" font-family="Helvetica,sans-Serif" font-size="10.00">J2DAnmColor</text>
</a>
</g>
</g>
<!-- Node2&#45;&gt;Node1 -->
<g id="edge1_Node000001_Node000002" class="edge">
<title>Node2&#45;&gt;Node1</title>
<g id="a_edge1_Node000001_Node000002"><a xlink:title=" ">
<path fill="none" stroke="#63b8ff" d="M148.48,-57.61C159.37,-45.28 173.49,-29.31 182.14,-19.52"/>
<polygon fill="#63b8ff" stroke="#63b8ff" points="145.93,-55.21 141.93,-65.02 151.17,-59.85 145.93,-55.21"/>
</a>
</g>
</g>
<!-- Node3 -->
<g id="Node000003" class="node">
<title>Node3</title>
<g id="a_Node000003"><a xlink:href="structJ2DAnmBase.html" target="_top" xlink:title=" ">
<polygon fill="white" stroke="#666666" points="76,-186 0,-186 0,-166.75 76,-166.75 76,-186"/>
<text text-anchor="middle" x="38" y="-172.5" font-family="Helvetica,sans-Serif" font-size="10.00">J2DAnmBase</text>
</a>
</g>
</g>
<!-- Node3&#45;&gt;Node2 -->
<g id="edge2_Node000002_Node000003" class="edge">
<title>Node3&#45;&gt;Node2</title>
<g id="a_edge2_Node000002_Node000003"><a xlink:title=" ">
<path fill="none" stroke="#63b8ff" d="M54.55,-158.26C74.83,-137.29 108.43,-102.53 124.25,-86.17"/>
<polygon fill="#63b8ff" stroke="#63b8ff" points="52.25,-155.6 47.82,-165.22 57.29,-160.46 52.25,-155.6"/>
</a>
</g>
</g>
<!-- Node4 -->
<g id="Node000004" class="node">
<title>Node4</title>
<g id="a_Node000004"><a xlink:href="structJUTNameTab.html" target="_top" xlink:title=" ">
<polygon fill="white" stroke="#666666" points="171.75,-186 94.25,-186 94.25,-166.75 171.75,-166.75 171.75,-186"/>
<text text-anchor="middle" x="133" y="-172.5" font-family="Helvetica,sans-Serif" font-size="10.00">JUTNameTab</text>
</a>
</g>
</g>
<!-- Node4&#45;&gt;Node2 -->
<g id="edge3_Node000002_Node000004" class="edge">
<title>Node4&#45;&gt;Node2</title>
<g id="a_edge3_Node000002_Node000004"><a xlink:title=" ">
<path fill="none" stroke="#9a32cd" stroke-dasharray="5,2" d="M133,-155.07C133,-133.92 133,-101.73 133,-86.17"/>
<polygon fill="#9a32cd" stroke="#9a32cd" points="129.5,-154.79 133,-164.79 136.5,-154.79 129.5,-154.79"/>
</a>
</g>
<text text-anchor="middle" x="155.5" y="-122.38" font-family="Helvetica,sans-Serif" font-size="10.00" fill="grey"> field_0x20</text>
</g>
<!-- Node5 -->
<g id="Node000005" class="node">
<title>Node5</title>
<g id="a_Node000005"><a xlink:href="structResNTAB.html" target="_top" xlink:title=" ">
<polygon fill="white" stroke="#666666" points="163.12,-252.5 102.88,-252.5 102.88,-233.25 163.12,-233.25 163.12,-252.5"/>
<text text-anchor="middle" x="133" y="-239" font-family="Helvetica,sans-Serif" font-size="10.00">ResNTAB</text>
</a>
</g>
</g>
<!-- Node5&#45;&gt;Node4 -->
<g id="edge4_Node000004_Node000005" class="edge">
<title>Node5&#45;&gt;Node4</title>
<g id="a_edge4_Node000004_Node000005"><a xlink:title=" ">
<path fill="none" stroke="#9a32cd" stroke-dasharray="5,2" d="M133,-221.4C133,-209.57 133,-195.29 133,-186.27"/>
<polygon fill="#9a32cd" stroke="#9a32cd" points="129.5,-221.39 133,-231.39 136.5,-221.39 129.5,-221.39"/>
</a>
</g>
<text text-anchor="middle" x="163.38" y="-205.75" font-family="Helvetica,sans-Serif" font-size="10.00" fill="grey"> mNameTable</text>
</g>
<!-- Node6 -->
<g id="Node000006" class="node">
<title>Node6</title>
<g id="a_Node000006"><a xlink:href="structResNTAB_1_1Entry.html" target="_top" xlink:title=" ">
<polygon fill="white" stroke="#666666" points="176.25,-319 89.75,-319 89.75,-299.75 176.25,-299.75 176.25,-319"/>
<text text-anchor="middle" x="133" y="-305.5" font-family="Helvetica,sans-Serif" font-size="10.00">ResNTAB::Entry</text>
</a>
</g>
</g>
<!-- Node6&#45;&gt;Node5 -->
<g id="edge5_Node000005_Node000006" class="edge">
<title>Node6&#45;&gt;Node5</title>
<g id="a_edge5_Node000005_Node000006"><a xlink:title=" ">
<path fill="none" stroke="#9a32cd" stroke-dasharray="5,2" d="M133,-287.9C133,-276.07 133,-261.79 133,-252.77"/>
<polygon fill="#9a32cd" stroke="#9a32cd" points="129.5,-287.89 133,-297.89 136.5,-287.89 129.5,-287.89"/>
</a>
</g>
<text text-anchor="middle" x="153.25" y="-272.25" font-family="Helvetica,sans-Serif" font-size="10.00" fill="grey"> mEntries</text>
</g>
<!-- Node7 -->
<g id="Node000007" class="node">
<title>Node7</title>
<g id="a_Node000007"><a xlink:href="structJ3DAnmColorKeyTable.html" target="_top" xlink:title=" ">
<polygon fill="white" stroke="#666666" points="306.25,-85.75 189.75,-85.75 189.75,-66.5 306.25,-66.5 306.25,-85.75"/>
<text text-anchor="middle" x="248" y="-72.25" font-family="Helvetica,sans-Serif" font-size="10.00">J3DAnmColorKeyTable</text>
</a>
</g>
</g>
<!-- Node7&#45;&gt;Node1 -->
<g id="edge6_Node000001_Node000007" class="edge">
<title>Node7&#45;&gt;Node1</title>
<g id="a_edge6_Node000001_Node000007"><a xlink:title=" ">
<path fill="none" stroke="#9a32cd" stroke-dasharray="5,2" d="M232.25,-57.61C221.17,-45.28 206.8,-29.31 198,-19.52"/>
<polygon fill="#9a32cd" stroke="#9a32cd" points="229.63,-59.94 238.92,-65.03 234.84,-55.26 229.63,-59.94"/>
</a>
</g>
<text text-anchor="middle" x="248.5" y="-39" font-family="Helvetica,sans-Serif" font-size="10.00" fill="grey"> mInfoTable</text>
</g>
<!-- Node8 -->
<g id="Node000008" class="node">
<title>Node8</title>
<g id="a_Node000008"><a xlink:href="structJ3DAnmKeyTableBase.html" target="_top" xlink:title=" ">
<polygon fill="white" stroke="#666666" points="306.25,-186 189.75,-186 189.75,-166.75 306.25,-166.75 306.25,-186"/>
<text text-anchor="middle" x="248" y="-172.5" font-family="Helvetica,sans-Serif" font-size="10.00">J3DAnmKeyTableBase</text>
</a>
</g>
</g>
<!-- Node8&#45;&gt;Node7 -->
<g id="edge7_Node000007_Node000008" class="edge">
<title>Node8&#45;&gt;Node7</title>
<g id="a_edge7_Node000007_Node000008"><a xlink:title=" ">
<path fill="none" stroke="#9a32cd" stroke-dasharray="5,2" d="M248,-155.07C248,-133.92 248,-101.73 248,-86.17"/>
<polygon fill="#9a32cd" stroke="#9a32cd" points="244.5,-154.79 248,-164.79 251.5,-154.79 244.5,-154.79"/>
</a>
</g>
<text text-anchor="middle" x="264.88" y="-139.25" font-family="Helvetica,sans-Serif" font-size="10.00" fill="grey"> mAInfo</text>
<text text-anchor="middle" x="264.88" y="-128" font-family="Helvetica,sans-Serif" font-size="10.00" fill="grey">mBInfo</text>
<text text-anchor="middle" x="264.88" y="-116.75" font-family="Helvetica,sans-Serif" font-size="10.00" fill="grey">mGInfo</text>
<text text-anchor="middle" x="264.88" y="-105.5" font-family="Helvetica,sans-Serif" font-size="10.00" fill="grey">mRInfo</text>
</g>
</g>
</svg>
