<?xml version="1.0" encoding="UTF-8" standalone="no"?>
<!DOCTYPE svg PUBLIC "-//W3C//DTD SVG 1.1//EN"
 "http://www.w3.org/Graphics/SVG/1.1/DTD/svg11.dtd">
<!-- Generated by graphviz version 9.0.0 (20230911.1827)
 -->
<!-- Title: daNpcT_c Pages: 1 -->
<svg width="301pt" height="193pt"
 viewBox="0.00 0.00 300.50 193.00" xmlns="http://www.w3.org/2000/svg" xmlns:xlink="http://www.w3.org/1999/xlink">
<g id="graph0" class="graph" transform="scale(1 1) rotate(0) translate(4 189)">
<title>daNpcT_c</title>
<!-- Node1 -->
<g id="Node000001" class="node">
<title>Node1</title>
<g id="a_Node000001"><a xlink:title=" ">
<polygon fill="#999999" stroke="#666666" points="174.12,-74.5 113.12,-74.5 113.12,-55.25 174.12,-55.25 174.12,-74.5"/>
<text text-anchor="middle" x="143.62" y="-61" font-family="Helvetica,sans-Serif" font-size="10.00">daNpcT_c</text>
</a>
</g>
</g>
<!-- Node4 -->
<g id="Node000004" class="node">
<title>Node4</title>
<g id="a_Node000004"><a xlink:href="classdShopSystem__c.html" target="_top" xlink:title=" ">
<polygon fill="white" stroke="#666666" points="87.25,-19.25 0,-19.25 0,0 87.25,0 87.25,-19.25"/>
<text text-anchor="middle" x="43.62" y="-5.75" font-family="Helvetica,sans-Serif" font-size="10.00">dShopSystem_c</text>
</a>
</g>
</g>
<!-- Node1&#45;&gt;Node4 -->
<g id="edge3_Node000001_Node000004" class="edge">
<title>Node1&#45;&gt;Node4</title>
<g id="a_edge3_Node000001_Node000004"><a xlink:title=" ">
<path fill="none" stroke="#63b8ff" d="M116.58,-49.48C98.77,-39.99 76,-27.86 60.67,-19.7"/>
<polygon fill="#63b8ff" stroke="#63b8ff" points="114.85,-52.52 125.33,-54.13 118.14,-46.34 114.85,-52.52"/>
</a>
</g>
</g>
<!-- Node5 -->
<g id="Node000005" class="node">
<title>Node5</title>
<g id="a_Node000005"><a xlink:href="classdaNpc__Hoz__c.html" target="_top" xlink:title="Iza.">
<polygon fill="white" stroke="#666666" points="182.38,-19.25 104.88,-19.25 104.88,0 182.38,0 182.38,-19.25"/>
<text text-anchor="middle" x="143.62" y="-5.75" font-family="Helvetica,sans-Serif" font-size="10.00">daNpc_Hoz_c</text>
</a>
</g>
</g>
<!-- Node1&#45;&gt;Node5 -->
<g id="edge4_Node000001_Node000005" class="edge">
<title>Node1&#45;&gt;Node5</title>
<g id="a_edge4_Node000001_Node000005"><a xlink:title=" ">
<path fill="none" stroke="#63b8ff" d="M143.62,-43.63C143.62,-35.34 143.62,-26.17 143.62,-19.61"/>
<polygon fill="#63b8ff" stroke="#63b8ff" points="140.13,-43.57 143.63,-53.57 147.13,-43.57 140.13,-43.57"/>
</a>
</g>
</g>
<!-- Node6 -->
<g id="Node000006" class="node">
<title>Node6</title>
<g id="a_Node000006"><a xlink:href="structdaObj__Sekizoa__c.html" target="_top" xlink:title="Stone Guardian Statue(s)">
<polygon fill="white" stroke="#666666" points="292.5,-19.25 200.75,-19.25 200.75,0 292.5,0 292.5,-19.25"/>
<text text-anchor="middle" x="246.62" y="-5.75" font-family="Helvetica,sans-Serif" font-size="10.00">daObj_Sekizoa_c</text>
</a>
</g>
</g>
<!-- Node1&#45;&gt;Node6 -->
<g id="edge5_Node000001_Node000006" class="edge">
<title>Node1&#45;&gt;Node6</title>
<g id="a_edge5_Node000001_Node000006"><a xlink:title=" ">
<path fill="none" stroke="#63b8ff" d="M171.22,-49.61C189.6,-40.11 213.21,-27.9 229.07,-19.7"/>
<polygon fill="#63b8ff" stroke="#63b8ff" points="169.72,-46.45 162.44,-54.15 172.93,-52.66 169.72,-46.45"/>
</a>
</g>
</g>
<!-- Node2 -->
<g id="Node000002" class="node">
<title>Node2</title>
<g id="a_Node000002"><a xlink:href="structfopAc__ac__c.html" target="_top" xlink:title=" ">
<polygon fill="white" stroke="#666666" points="177.5,-129.75 109.75,-129.75 109.75,-110.5 177.5,-110.5 177.5,-129.75"/>
<text text-anchor="middle" x="143.62" y="-116.25" font-family="Helvetica,sans-Serif" font-size="10.00">fopAc_ac_c</text>
</a>
</g>
</g>
<!-- Node2&#45;&gt;Node1 -->
<g id="edge1_Node000001_Node000002" class="edge">
<title>Node2&#45;&gt;Node1</title>
<g id="a_edge1_Node000001_Node000002"><a xlink:title=" ">
<path fill="none" stroke="#63b8ff" d="M143.62,-98.88C143.62,-90.59 143.62,-81.42 143.62,-74.86"/>
<polygon fill="#63b8ff" stroke="#63b8ff" points="140.13,-98.82 143.63,-108.82 147.13,-98.82 140.13,-98.82"/>
</a>
</g>
</g>
<!-- Node3 -->
<g id="Node000003" class="node">
<title>Node3</title>
<g id="a_Node000003"><a xlink:href="structleafdraw__class.html" target="_top" xlink:title=" ">
<polygon fill="white" stroke="#666666" points="184.25,-185 103,-185 103,-165.75 184.25,-165.75 184.25,-185"/>
<text text-anchor="middle" x="143.62" y="-171.5" font-family="Helvetica,sans-Serif" font-size="10.00">leafdraw_class</text>
</a>
</g>
</g>
<!-- Node3&#45;&gt;Node2 -->
<g id="edge2_Node000002_Node000003" class="edge">
<title>Node3&#45;&gt;Node2</title>
<g id="a_edge2_Node000002_Node000003"><a xlink:title=" ">
<path fill="none" stroke="#63b8ff" d="M143.62,-154.13C143.62,-145.84 143.62,-136.67 143.62,-130.11"/>
<polygon fill="#63b8ff" stroke="#63b8ff" points="140.13,-154.07 143.63,-164.07 147.13,-154.07 140.13,-154.07"/>
</a>
</g>
</g>
</g>
</svg>
