<?xml version="1.0" encoding="UTF-8" standalone="no"?>
<!DOCTYPE svg PUBLIC "-//W3C//DTD SVG 1.1//EN"
 "http://www.w3.org/Graphics/SVG/1.1/DTD/svg11.dtd">
<!-- Generated by graphviz version 9.0.0 (20230911.1827)
 -->
<!-- Title: daNpcT_DmgStagger_c Pages: 1 -->
<svg width="129pt" height="150pt"
 viewBox="0.00 0.00 129.00 150.00" xmlns="http://www.w3.org/2000/svg" xmlns:xlink="http://www.w3.org/1999/xlink">
<g id="graph0" class="graph" transform="scale(1 1) rotate(0) translate(4 146)">
<title>daNpcT_DmgStagger_c</title>
<!-- Node1 -->
<g id="Node000001" class="node">
<title>Node1</title>
<g id="a_Node000001"><a xlink:title=" ">
<polygon fill="#999999" stroke="#666666" points="120.25,-19.25 0,-19.25 0,0 120.25,0 120.25,-19.25"/>
<text text-anchor="middle" x="60.12" y="-5.75" font-family="Helvetica,sans-Serif" font-size="10.00">daNpcT_DmgStagger_c</text>
</a>
</g>
</g>
<!-- Node2 -->
<g id="Node000002" class="node">
<title>Node2</title>
<g id="a_Node000002"><a xlink:href="structcsXyz.html" target="_top" xlink:title=" ">
<polygon fill="white" stroke="#666666" points="81.25,-85.75 39,-85.75 39,-66.5 81.25,-66.5 81.25,-85.75"/>
<text text-anchor="middle" x="60.12" y="-72.25" font-family="Helvetica,sans-Serif" font-size="10.00">csXyz</text>
</a>
</g>
</g>
<!-- Node2&#45;&gt;Node1 -->
<g id="edge1_Node000001_Node000002" class="edge">
<title>Node2&#45;&gt;Node1</title>
<g id="a_edge1_Node000001_Node000002"><a xlink:title=" ">
<path fill="none" stroke="#9a32cd" stroke-dasharray="5,2" d="M60.12,-54.65C60.12,-42.82 60.12,-28.54 60.12,-19.52"/>
<polygon fill="#9a32cd" stroke="#9a32cd" points="56.63,-54.64 60.13,-64.64 63.63,-54.64 56.63,-54.64"/>
</a>
</g>
<text text-anchor="middle" x="80" y="-39" font-family="Helvetica,sans-Serif" font-size="10.00" fill="grey"> field_0x0</text>
</g>
<!-- Node2&#45;&gt;Node2 -->
<g id="edge3_Node000002_Node000002" class="edge">
<title>Node2&#45;&gt;Node2</title>
<g id="a_edge3_Node000002_Node000002"><a xlink:title=" ">
<path fill="none" stroke="#9a32cd" stroke-dasharray="5,2" d="M92.66,-80.69C96.64,-79.87 99.25,-78.35 99.25,-76.12 99.25,-72.17 91,-70.44 81.45,-70.93"/>
<polygon fill="#9a32cd" stroke="#9a32cd" points="92.75,-77.18 82.97,-81.23 93.15,-84.17 92.75,-77.18"/>
</a>
</g>
<text text-anchor="middle" x="110.12" y="-72.25" font-family="Helvetica,sans-Serif" font-size="10.00" fill="grey"> Zero</text>
</g>
<!-- Node3 -->
<g id="Node000003" class="node">
<title>Node3</title>
<g id="a_Node000003"><a xlink:href="structSVec.html" target="_top" xlink:title=" ">
<polygon fill="white" stroke="#666666" points="80.12,-142 40.12,-142 40.12,-122.75 80.12,-122.75 80.12,-142"/>
<text text-anchor="middle" x="60.12" y="-128.5" font-family="Helvetica,sans-Serif" font-size="10.00">SVec</text>
</a>
</g>
</g>
<!-- Node3&#45;&gt;Node2 -->
<g id="edge2_Node000002_Node000003" class="edge">
<title>Node3&#45;&gt;Node2</title>
<g id="a_edge2_Node000002_Node000003"><a xlink:title=" ">
<path fill="none" stroke="#63b8ff" d="M60.12,-111.19C60.12,-102.48 60.12,-92.74 60.12,-85.92"/>
<polygon fill="#63b8ff" stroke="#63b8ff" points="56.63,-110.9 60.13,-120.9 63.63,-110.9 56.63,-110.9"/>
</a>
</g>
</g>
</g>
</svg>
