<?xml version="1.0" encoding="UTF-8" standalone="no"?>
<!DOCTYPE svg PUBLIC "-//W3C//DTD SVG 1.1//EN"
 "http://www.w3.org/Graphics/SVG/1.1/DTD/svg11.dtd">
<!-- Generated by graphviz version 9.0.0 (20230911.1827)
 -->
<!-- Title: JStudio_JStage::TAdaptor_actor Pages: 1 -->
<!--zoomable 388 -->

<svg id="main" version="1.1" xmlns="http://www.w3.org/2000/svg" xmlns:xlink="http://www.w3.org/1999/xlink" xml:space="preserve" onload="init(evt)">
<style type="text/css"><![CDATA[
.node, .edge {opacity: 0.7;}
.node.selected, .edge.selected {opacity: 1;}
.edge:hover path { stroke: red; }
.edge:hover polygon { stroke: red; fill: red; }
]]></style>

<defs>
  <circle id="rim" cx="0" cy="0" r="7"/>
  <circle id="rim2" cx="0" cy="0" r="3.5"/>
  <g id="zoomPlus">
    <use xlink:href="#rim" fill="#404040"><set attributeName="fill" to="#808080" begin="zoomplus.mouseover" end="zoomplus.mouseout"/></use>
    <path d="M-4,0h8M0,-4v8" fill="none" stroke="white" stroke-width="1.5" pointer-events="none"/>
  </g>
  <g id="zoomMin">
    <use xlink:href="#rim" fill="#404040"><set attributeName="fill" to="#808080" begin="zoomminus.mouseover" end="zoomminus.mouseout"/></use>
    <path d="M-4,0h8" fill="none" stroke="white" stroke-width="1.5" pointer-events="none"/>
  </g>
  <g id="arrowUp" transform="translate(30 24)">
    <use xlink:href="#rim"/>
    <path pointer-events="none" fill="none" stroke="white" stroke-width="1.5" d="M0,-3.0v7 M-2.5,-0.5L0,-3.0L2.5,-0.5"/>
  </g>
  <g id="arrowRight" transform="rotate(90) translate(36 -43)">
    <use xlink:href="#rim"/>
    <path pointer-events="none" fill="none" stroke="white" stroke-width="1.5" d="M0,-3.0v7 M-2.5,-0.5L0,-3.0L2.5,-0.5"/>
  </g>
  <g id="arrowDown" transform="rotate(180) translate(-30 -48)">
    <use xlink:href="#rim"/>
    <path pointer-events="none" fill="none" stroke="white" stroke-width="1.5" d="M0,-3.0v7 M-2.5,-0.5L0,-3.0L2.5,-0.5"/>
  </g>
  <g id="arrowLeft" transform="rotate(270) translate(-36 17)">
    <use xlink:href="#rim"/>
    <path pointer-events="none" fill="none" stroke="white" stroke-width="1.5" d="M0,-3.0v7 M-2.5,-0.5L0,-3.0L2.5,-0.5"/>
  </g>
  <g id="resetDef">
    <use xlink:href="#rim2" fill="#404040"><set attributeName="fill" to="#808080" begin="reset.mouseover" end="reset.mouseout"/></use>
  </g>
</defs>
<script type="application/ecmascript">
var viewWidth = 1022;
var viewHeight = 388;
var sectionId = 'dynsection-1';
</script>
<script type="application/ecmascript" xlink:href="svg.min.js"/>
<svg id="graph" class="graph">
<g id="viewport">
<title>JStudio_JStage::TAdaptor_actor</title>
<!-- Node1 -->
<g id="Node000001" class="node">
<title>Node1</title>
<g id="a_Node000001"><a xlink:title=" ">
<polygon fill="#999999" stroke="#666666" points="1013.75,-69.28 884.5,-69.28 884.5,-38.78 1013.75,-38.78 1013.75,-69.28"/>
<text text-anchor="start" x="892.5" y="-55.78" font-family="Helvetica,sans-Serif" font-size="10.00">JStudio_JStage::TAdaptor</text>
<text text-anchor="middle" x="949.12" y="-44.53" font-family="Helvetica,sans-Serif" font-size="10.00">_actor</text>
</a>
</g>
</g>
<!-- Node2 -->
<g id="Node000002" class="node">
<title>Node2</title>
<g id="a_Node000002"><a xlink:href="structJStudio_1_1TAdaptor__actor.html" target="_top" xlink:title=" ">
<polygon fill="white" stroke="#666666" points="763.75,-88.66 643.5,-88.66 643.5,-69.41 763.75,-69.41 763.75,-88.66"/>
<text text-anchor="middle" x="703.62" y="-75.16" font-family="Helvetica,sans-Serif" font-size="10.00">JStudio::TAdaptor_actor</text>
</a>
</g>
</g>
<!-- Node2&#45;&gt;Node1 -->
<g id="edge1_Node000001_Node000002" class="edge">
<title>Node2&#45;&gt;Node1</title>
<g id="a_edge1_Node000001_Node000002"><a xlink:title=" ">
<path fill="none" stroke="#63b8ff" d="M775.55,-71.75C809.85,-68.23 850.71,-64.03 884.06,-60.61"/>
<polygon fill="#63b8ff" stroke="#63b8ff" points="775.29,-68.26 765.7,-72.76 776,-75.22 775.29,-68.26"/>
</a>
</g>
</g>
<!-- Node3 -->
<g id="Node000003" class="node">
<title>Node3</title>
<g id="a_Node000003"><a xlink:href="structJStudio_1_1TAdaptor.html" target="_top" xlink:title=" ">
<polygon fill="white" stroke="#666666" points="523.5,-140.66 430.25,-140.66 430.25,-121.41 523.5,-121.41 523.5,-140.66"/>
<text text-anchor="middle" x="476.88" y="-127.16" font-family="Helvetica,sans-Serif" font-size="10.00">JStudio::TAdaptor</text>
</a>
</g>
</g>
<!-- Node3&#45;&gt;Node2 -->
<g id="edge2_Node000002_Node000003" class="edge">
<title>Node3&#45;&gt;Node2</title>
<g id="a_edge2_Node000002_Node000003"><a xlink:title=" ">
<path fill="none" stroke="#63b8ff" d="M532.6,-118.37C571.5,-109.37 623.05,-97.44 659.15,-89.09"/>
<polygon fill="#63b8ff" stroke="#63b8ff" points="531.9,-114.94 522.95,-120.6 533.48,-121.76 531.9,-114.94"/>
</a>
</g>
</g>
<!-- Node4 -->
<g id="Node000004" class="node">
<title>Node4</title>
<g id="a_Node000004"><a xlink:href="classJStudio_1_1TObject.html" target="_top" xlink:title=" ">
<polygon fill="white" stroke="#666666" points="747.62,-180.66 659.62,-180.66 659.62,-161.41 747.62,-161.41 747.62,-180.66"/>
<text text-anchor="middle" x="703.62" y="-167.16" font-family="Helvetica,sans-Serif" font-size="10.00">JStudio::TObject</text>
</a>
</g>
</g>
<!-- Node3&#45;&gt;Node4 -->
<g id="edge16_Node000004_Node000003" class="edge">
<title>Node3&#45;&gt;Node4</title>
<g id="a_edge16_Node000004_Node000003"><a xlink:title=" ">
<path fill="none" stroke="#9a32cd" stroke-dasharray="5,2" d="M529.75,-143.62C538.41,-145.55 547.31,-147.43 555.75,-149.03 590.45,-155.63 630.08,-161.47 659.42,-165.47"/>
<polygon fill="#9a32cd" stroke="#9a32cd" points="530.57,-140.22 520.04,-141.41 529.02,-147.04 530.57,-140.22"/>
</a>
</g>
<text text-anchor="middle" x="588.38" y="-160.78" font-family="Helvetica,sans-Serif" font-size="10.00" fill="grey"> mpAdaptor</text>
</g>
<!-- Node4&#45;&gt;Node3 -->
<g id="edge3_Node000003_Node000004" class="edge">
<title>Node4&#45;&gt;Node3</title>
<g id="a_edge3_Node000003_Node000004"><a xlink:title=" ">
<path fill="none" stroke="#9a32cd" stroke-dasharray="5,2" d="M673.13,-156.18C657.96,-149.27 638.92,-141.73 621,-137.78 589.06,-130.74 552.16,-129.15 523.84,-129.27"/>
<polygon fill="#9a32cd" stroke="#9a32cd" points="671.53,-159.29 682.07,-160.39 674.51,-152.96 671.53,-159.29"/>
</a>
</g>
<text text-anchor="middle" x="588.38" y="-138.78" font-family="Helvetica,sans-Serif" font-size="10.00" fill="grey"> pObject_</text>
</g>
<!-- Node5 -->
<g id="Node000005" class="node">
<title>Node5</title>
<g id="a_Node000005"><a xlink:href="classJStudio_1_1stb_1_1TObject.html" target="_top" xlink:title=" ">
<polygon fill="white" stroke="#666666" points="529.88,-237.66 423.88,-237.66 423.88,-218.41 529.88,-218.41 529.88,-237.66"/>
<text text-anchor="middle" x="476.88" y="-224.16" font-family="Helvetica,sans-Serif" font-size="10.00">JStudio::stb::TObject</text>
</a>
</g>
</g>
<!-- Node5&#45;&gt;Node4 -->
<g id="edge4_Node000004_Node000005" class="edge">
<title>Node5&#45;&gt;Node4</title>
<g id="a_edge4_Node000004_Node000005"><a xlink:title=" ">
<path fill="none" stroke="#63b8ff" d="M528.83,-215.11C569.53,-204.79 625.73,-190.53 663.07,-181.06"/>
<polygon fill="#63b8ff" stroke="#63b8ff" points="528.1,-211.68 519.26,-217.53 529.82,-218.47 528.1,-211.68"/>
</a>
</g>
</g>
<!-- Node13 -->
<g id="Node000013" class="node">
<title>Node13</title>
<g id="a_Node000013"><a xlink:href="classJStudio_1_1stb_1_1TObject__control.html" target="_top" xlink:title=" ">
<polygon fill="white" stroke="#666666" points="756.62,-282.28 650.62,-282.28 650.62,-251.78 756.62,-251.78 756.62,-282.28"/>
<text text-anchor="start" x="658.62" y="-268.78" font-family="Helvetica,sans-Serif" font-size="10.00">JStudio::stb::TObject</text>
<text text-anchor="middle" x="703.62" y="-257.53" font-family="Helvetica,sans-Serif" font-size="10.00">_control</text>
</a>
</g>
</g>
<!-- Node5&#45;&gt;Node13 -->
<g id="edge15_Node000013_Node000005" class="edge">
<title>Node5&#45;&gt;Node13</title>
<g id="a_edge15_Node000013_Node000005"><a xlink:title=" ">
<path fill="none" stroke="#63b8ff" d="M541.61,-239.09C575.92,-245.04 617.72,-252.3 650.13,-257.92"/>
<polygon fill="#63b8ff" stroke="#63b8ff" points="542.23,-235.65 531.78,-237.38 541.03,-242.54 542.23,-235.65"/>
</a>
</g>
</g>
<!-- Node6 -->
<g id="Node000006" class="node">
<title>Node6</title>
<g id="a_Node000006"><a xlink:href="structJStudio_1_1object_1_1TObject__ID.html" target="_top" xlink:title=" ">
<polygon fill="white" stroke="#666666" points="333.5,-237.66 199.75,-237.66 199.75,-218.41 333.5,-218.41 333.5,-237.66"/>
<text text-anchor="middle" x="266.62" y="-224.16" font-family="Helvetica,sans-Serif" font-size="10.00">JStudio::object::TObject_ID</text>
</a>
</g>
</g>
<!-- Node6&#45;&gt;Node5 -->
<g id="edge5_Node000005_Node000006" class="edge">
<title>Node6&#45;&gt;Node5</title>
<g id="a_edge5_Node000005_Node000006"><a xlink:title=" ">
<path fill="none" stroke="#63b8ff" d="M345.2,-228.03C371.27,-228.03 399.72,-228.03 423.4,-228.03"/>
<polygon fill="#63b8ff" stroke="#63b8ff" points="345.32,-224.53 335.32,-228.03 345.32,-231.53 345.32,-224.53"/>
</a>
</g>
</g>
<!-- Node7 -->
<g id="Node000007" class="node">
<title>Node7</title>
<g id="a_Node000007"><a xlink:href="structJStudio_1_1object_1_1TIDData.html" target="_top" xlink:title=" ">
<polygon fill="white" stroke="#666666" points="121,-237.66 0.75,-237.66 0.75,-218.41 121,-218.41 121,-237.66"/>
<text text-anchor="middle" x="60.88" y="-224.16" font-family="Helvetica,sans-Serif" font-size="10.00">JStudio::object::TIDData</text>
</a>
</g>
</g>
<!-- Node7&#45;&gt;Node6 -->
<g id="edge6_Node000006_Node000007" class="edge">
<title>Node7&#45;&gt;Node6</title>
<g id="a_edge6_Node000006_Node000007"><a xlink:title=" ">
<path fill="none" stroke="#63b8ff" d="M132.77,-228.03C154.36,-228.03 178,-228.03 199.28,-228.03"/>
<polygon fill="#63b8ff" stroke="#63b8ff" points="132.87,-224.53 122.87,-228.03 132.87,-231.53 132.87,-224.53"/>
</a>
</g>
</g>
<!-- Node8 -->
<g id="Node000008" class="node">
<title>Node8</title>
<g id="a_Node000008"><a xlink:href="structJGadget_1_1TLinkListNode.html" target="_top" xlink:title=" ">
<polygon fill="white" stroke="#666666" points="327.5,-289.66 205.75,-289.66 205.75,-270.41 327.5,-270.41 327.5,-289.66"/>
<text text-anchor="middle" x="266.62" y="-276.16" font-family="Helvetica,sans-Serif" font-size="10.00">JGadget::TLinkListNode</text>
</a>
</g>
</g>
<!-- Node8&#45;&gt;Node5 -->
<g id="edge7_Node000005_Node000008" class="edge">
<title>Node8&#45;&gt;Node5</title>
<g id="a_edge7_Node000005_Node000008"><a xlink:title=" ">
<path fill="none" stroke="#9a32cd" stroke-dasharray="5,2" d="M318.55,-267.32C354.53,-258.33 402.11,-246.45 435.49,-238.12"/>
<polygon fill="#9a32cd" stroke="#9a32cd" points="318.1,-263.82 309.25,-269.64 319.8,-270.61 318.1,-263.82"/>
</a>
</g>
<text text-anchor="middle" x="374.75" y="-259.78" font-family="Helvetica,sans-Serif" font-size="10.00" fill="grey"> ocObject_</text>
</g>
<!-- Node8&#45;&gt;Node8 -->
<g id="edge8_Node000008_Node000008" class="edge">
<title>Node8&#45;&gt;Node8</title>
<g id="a_edge8_Node000008_Node000008"><a xlink:title=" ">
<path fill="none" stroke="#9a32cd" stroke-dasharray="5,2" d="M247.83,-301.06C250.18,-304.93 256.45,-307.66 266.62,-307.66 285.24,-307.66 290.76,-298.55 283.2,-289.94"/>
<polygon fill="#9a32cd" stroke="#9a32cd" points="251.23,-301.92 249.75,-291.43 244.36,-300.55 251.23,-301.92"/>
</a>
</g>
<text text-anchor="middle" x="266.62" y="-320.66" font-family="Helvetica,sans-Serif" font-size="10.00" fill="grey"> mNext</text>
<text text-anchor="middle" x="266.62" y="-309.41" font-family="Helvetica,sans-Serif" font-size="10.00" fill="grey">mPrev</text>
</g>
<!-- Node12 -->
<g id="Node000012" class="node">
<title>Node12</title>
<g id="a_Node000012"><a xlink:href="structJGadget_1_1TNodeLinkList.html" target="_top" xlink:title=" ">
<polygon fill="white" stroke="#666666" points="537.75,-325.66 416,-325.66 416,-306.41 537.75,-306.41 537.75,-325.66"/>
<text text-anchor="middle" x="476.88" y="-312.16" font-family="Helvetica,sans-Serif" font-size="10.00">JGadget::TNodeLinkList</text>
</a>
</g>
</g>
<!-- Node8&#45;&gt;Node12 -->
<g id="edge13_Node000012_Node000008" class="edge">
<title>Node8&#45;&gt;Node12</title>
<g id="a_edge13_Node000012_Node000008"><a xlink:title=" ">
<path fill="none" stroke="#9a32cd" stroke-dasharray="5,2" d="M337.47,-292.11C363.42,-296.59 392.56,-301.63 417.39,-305.92"/>
<polygon fill="#9a32cd" stroke="#9a32cd" points="338.13,-288.67 327.68,-290.41 336.94,-295.57 338.13,-288.67"/>
</a>
</g>
<text text-anchor="middle" x="374.75" y="-303.78" font-family="Helvetica,sans-Serif" font-size="10.00" fill="grey"> ocObject_</text>
</g>
<!-- Node9 -->
<g id="Node000009" class="node">
<title>Node9</title>
<g id="a_Node000009"><a xlink:href="classJStudio_1_1stb_1_1TControl.html" target="_top" xlink:title=" ">
<polygon fill="white" stroke="#666666" points="1003.25,-300.66 895,-300.66 895,-281.41 1003.25,-281.41 1003.25,-300.66"/>
<text text-anchor="middle" x="949.12" y="-287.16" font-family="Helvetica,sans-Serif" font-size="10.00">JStudio::stb::TControl</text>
</a>
</g>
</g>
<!-- Node9&#45;&gt;Node5 -->
<g id="edge9_Node000005_Node000009" class="edge">
<title>Node9&#45;&gt;Node5</title>
<g id="a_edge9_Node000005_Node000009"><a xlink:title=" ">
<path fill="none" stroke="#9a32cd" stroke-dasharray="5,2" d="M914.87,-276.66C879.34,-262.13 821,-240.6 768.25,-231.78 685.95,-218.03 588.7,-220.49 530.23,-223.95"/>
<polygon fill="#9a32cd" stroke="#9a32cd" points="913.16,-279.74 923.73,-280.35 915.84,-273.28 913.16,-279.74"/>
</a>
</g>
<text text-anchor="middle" x="703.62" y="-232.78" font-family="Helvetica,sans-Serif" font-size="10.00" fill="grey"> pControl</text>
</g>
<!-- Node10 -->
<g id="Node000010" class="node">
<title>Node10</title>
<g id="a_Node000010"><a xlink:href="classJStudio_1_1stb_1_1TFactory.html" target="_top" xlink:title=" ">
<polygon fill="white" stroke="#666666" points="758.5,-379.66 648.75,-379.66 648.75,-360.41 758.5,-360.41 758.5,-379.66"/>
<text text-anchor="middle" x="703.62" y="-366.16" font-family="Helvetica,sans-Serif" font-size="10.00">JStudio::stb::TFactory</text>
</a>
</g>
</g>
<!-- Node10&#45;&gt;Node9 -->
<g id="edge10_Node000009_Node000010" class="edge">
<title>Node10&#45;&gt;Node9</title>
<g id="a_edge10_Node000009_Node000010"><a xlink:title=" ">
<path fill="none" stroke="#9a32cd" stroke-dasharray="5,2" d="M757.18,-357.18C789.1,-348.94 830.5,-337.48 866.5,-325.03 887.1,-317.91 909.96,-308.23 926.24,-301.02"/>
<polygon fill="#9a32cd" stroke="#9a32cd" points="756.6,-353.71 747.78,-359.58 758.33,-360.5 756.6,-353.71"/>
</a>
</g>
<text text-anchor="middle" x="826.38" y="-350.78" font-family="Helvetica,sans-Serif" font-size="10.00" fill="grey"> pFactory</text>
</g>
<!-- Node11 -->
<g id="Node000011" class="node">
<title>Node11</title>
<g id="a_Node000011"><a xlink:href="structJGadget_1_1TLinkList.html" target="_top" xlink:title=" ">
<polygon fill="white" stroke="#666666" points="762.25,-341.91 645,-341.91 645,-300.16 762.25,-300.16 762.25,-341.91"/>
<text text-anchor="start" x="653" y="-328.41" font-family="Helvetica,sans-Serif" font-size="10.00">JGadget::TLinkList</text>
<text text-anchor="start" x="653" y="-317.16" font-family="Helvetica,sans-Serif" font-size="10.00">&lt; JStudio::stb::TObject,</text>
<text text-anchor="middle" x="703.62" y="-305.91" font-family="Helvetica,sans-Serif" font-size="10.00"> &#45;12 &gt;</text>
</a>
</g>
</g>
<!-- Node11&#45;&gt;Node9 -->
<g id="edge11_Node000009_Node000011" class="edge">
<title>Node11&#45;&gt;Node9</title>
<g id="a_edge11_Node000009_Node000011"><a xlink:title=" ">
<path fill="none" stroke="#9a32cd" stroke-dasharray="5,2" d="M773.74,-312.52C812.13,-307.79 859.17,-301.99 894.72,-297.61"/>
<polygon fill="#9a32cd" stroke="#9a32cd" points="773.64,-309 764.14,-313.7 774.5,-315.95 773.64,-309"/>
</a>
</g>
<text text-anchor="middle" x="826.38" y="-311.78" font-family="Helvetica,sans-Serif" font-size="10.00" fill="grey"> mObjectContainer</text>
</g>
<!-- Node12&#45;&gt;Node11 -->
<g id="edge12_Node000011_Node000012" class="edge">
<title>Node12&#45;&gt;Node11</title>
<g id="a_edge12_Node000011_Node000012"><a xlink:title=" ">
<path fill="none" stroke="#63b8ff" d="M549.6,-317.63C580.26,-318.31 615.58,-319.1 644.56,-319.74"/>
<polygon fill="#63b8ff" stroke="#63b8ff" points="549.69,-314.13 539.62,-317.41 549.54,-321.13 549.69,-314.13"/>
</a>
</g>
</g>
<!-- Node13&#45;&gt;Node9 -->
<g id="edge14_Node000009_Node000013" class="edge">
<title>Node13&#45;&gt;Node9</title>
<g id="a_edge14_Node000009_Node000013"><a xlink:title=" ">
<path fill="none" stroke="#9a32cd" stroke-dasharray="5,2" d="M768.01,-269.85C797.94,-271.54 834.12,-274.09 866.5,-277.78 875.63,-278.82 885.29,-280.17 894.66,-281.61"/>
<polygon fill="#9a32cd" stroke="#9a32cd" points="768.55,-266.37 758.37,-269.33 768.17,-273.36 768.55,-266.37"/>
</a>
</g>
<text text-anchor="middle" x="826.38" y="-278.78" font-family="Helvetica,sans-Serif" font-size="10.00" fill="grey"> mObject_control</text>
</g>
<!-- Node14 -->
<g id="Node000014" class="node">
<title>Node14</title>
<g id="a_Node000014"><a xlink:href="structJStudio_1_1TVariableValue.html" target="_top" xlink:title=" ">
<polygon fill="white" stroke="#666666" points="326.38,-108.66 206.88,-108.66 206.88,-89.41 326.38,-89.41 326.38,-108.66"/>
<text text-anchor="middle" x="266.62" y="-95.16" font-family="Helvetica,sans-Serif" font-size="10.00">JStudio::TVariableValue</text>
</a>
</g>
</g>
<!-- Node14&#45;&gt;Node2 -->
<g id="edge20_Node000002_Node000014" class="edge">
<title>Node14&#45;&gt;Node2</title>
<g id="a_edge20_Node000002_Node000014"><a xlink:title=" ">
<path fill="none" stroke="#9a32cd" stroke-dasharray="5,2" d="M338.07,-95.79C422.87,-91.89 563.78,-85.42 643.29,-81.76"/>
<polygon fill="#9a32cd" stroke="#9a32cd" points="338.08,-92.29 328.26,-96.24 338.41,-99.28 338.08,-92.29"/>
</a>
</g>
<text text-anchor="middle" x="476.88" y="-92.78" font-family="Helvetica,sans-Serif" font-size="10.00" fill="grey"> mValue</text>
</g>
<!-- Node14&#45;&gt;Node3 -->
<g id="edge17_Node000003_Node000014" class="edge">
<title>Node14&#45;&gt;Node3</title>
<g id="a_edge17_Node000003_Node000014"><a xlink:title=" ">
<path fill="none" stroke="#9a32cd" stroke-dasharray="5,2" d="M338.12,-109.86C368.4,-114.52 402.94,-119.82 429.85,-123.96"/>
<polygon fill="#9a32cd" stroke="#9a32cd" points="338.66,-106.41 328.24,-108.35 337.59,-113.32 338.66,-106.41"/>
</a>
</g>
<text text-anchor="middle" x="374.75" y="-119.78" font-family="Helvetica,sans-Serif" font-size="10.00" fill="grey"> pValue_</text>
</g>
<!-- Node15 -->
<g id="Node000015" class="node">
<title>Node15</title>
<g id="a_Node000015"><a xlink:href="classJStudio_1_1TFunctionValue.html" target="_top" xlink:title=" ">
<polygon fill="white" stroke="#666666" points="121.75,-130.66 0,-130.66 0,-111.41 121.75,-111.41 121.75,-130.66"/>
<text text-anchor="middle" x="60.88" y="-117.16" font-family="Helvetica,sans-Serif" font-size="10.00">JStudio::TFunctionValue</text>
</a>
</g>
</g>
<!-- Node15&#45;&gt;Node14 -->
<g id="edge18_Node000014_Node000015" class="edge">
<title>Node15&#45;&gt;Node14</title>
<g id="a_edge18_Node000014_Node000015"><a xlink:title=" ">
<path fill="none" stroke="#9a32cd" stroke-dasharray="5,2" d="M133.34,-113.32C157.26,-110.73 183.65,-107.88 206.53,-105.41"/>
<polygon fill="#9a32cd" stroke="#9a32cd" points="133.25,-109.8 123.68,-114.36 134,-116.76 133.25,-109.8"/>
</a>
</g>
<text text-anchor="middle" x="160.75" y="-112.78" font-family="Helvetica,sans-Serif" font-size="10.00" fill="grey"> fv</text>
</g>
<!-- Node16 -->
<g id="Node000016" class="node">
<title>Node16</title>
<g id="a_Node000016"><a xlink:href="structJStudio_1_1TVariableValue_1_1TOutput.html" target="_top" xlink:title=" ">
<polygon fill="white" stroke="#666666" points="120.62,-93.28 1.13,-93.28 1.13,-62.78 120.62,-62.78 120.62,-93.28"/>
<text text-anchor="start" x="9.12" y="-79.78" font-family="Helvetica,sans-Serif" font-size="10.00">JStudio::TVariableValue</text>
<text text-anchor="middle" x="60.88" y="-68.53" font-family="Helvetica,sans-Serif" font-size="10.00">::TOutput</text>
</a>
</g>
</g>
<!-- Node16&#45;&gt;Node14 -->
<g id="edge19_Node000014_Node000016" class="edge">
<title>Node16&#45;&gt;Node14</title>
<g id="a_edge19_Node000014_Node000016"><a xlink:title=" ">
<path fill="none" stroke="#9a32cd" stroke-dasharray="5,2" d="M132.17,-83.13C148.47,-84.49 165.73,-86.06 181.75,-87.78 189.78,-88.65 198.24,-89.66 206.56,-90.72"/>
<polygon fill="#9a32cd" stroke="#9a32cd" points="132.84,-79.67 122.58,-82.35 132.27,-86.65 132.84,-79.67"/>
</a>
</g>
<text text-anchor="middle" x="160.75" y="-88.78" font-family="Helvetica,sans-Serif" font-size="10.00" fill="grey"> pOutput_</text>
</g>
<!-- Node17 -->
<g id="Node000017" class="node">
<title>Node17</title>
<g id="a_Node000017"><a xlink:href="structJStudio__JStage_1_1TAdaptor__object__.html" target="_top" xlink:title=" ">
<polygon fill="white" stroke="#666666" points="768.25,-48.28 639,-48.28 639,-17.78 768.25,-17.78 768.25,-48.28"/>
<text text-anchor="start" x="647" y="-34.78" font-family="Helvetica,sans-Serif" font-size="10.00">JStudio_JStage::TAdaptor</text>
<text text-anchor="middle" x="703.62" y="-23.53" font-family="Helvetica,sans-Serif" font-size="10.00">_object_</text>
</a>
</g>
</g>
<!-- Node17&#45;&gt;Node1 -->
<g id="edge21_Node000001_Node000017" class="edge">
<title>Node17&#45;&gt;Node1</title>
<g id="a_edge21_Node000001_Node000017"><a xlink:title=" ">
<path fill="none" stroke="#63b8ff" d="M779.71,-39.51C813.15,-42.39 852.12,-45.75 884.15,-48.51"/>
<polygon fill="#63b8ff" stroke="#63b8ff" points="780.37,-36.05 770.11,-38.68 779.77,-43.03 780.37,-36.05"/>
</a>
</g>
</g>
<!-- Node18 -->
<g id="Node000018" class="node">
<title>Node18</title>
<g id="a_Node000018"><a xlink:href="structJStage_1_1TSystem.html" target="_top" xlink:title=" ">
<polygon fill="white" stroke="#666666" points="522,-42.66 431.75,-42.66 431.75,-23.41 522,-23.41 522,-42.66"/>
<text text-anchor="middle" x="476.88" y="-29.16" font-family="Helvetica,sans-Serif" font-size="10.00">JStage::TSystem</text>
</a>
</g>
</g>
<!-- Node18&#45;&gt;Node17 -->
<g id="edge22_Node000017_Node000018" class="edge">
<title>Node18&#45;&gt;Node17</title>
<g id="a_edge22_Node000017_Node000018"><a xlink:title=" ">
<path fill="none" stroke="#9a32cd" stroke-dasharray="5,2" d="M533.62,-33.03C565.49,-33.03 605.6,-33.03 638.74,-33.03"/>
<polygon fill="#9a32cd" stroke="#9a32cd" points="533.79,-29.53 523.79,-33.03 533.79,-36.53 533.79,-29.53"/>
</a>
</g>
<text text-anchor="middle" x="588.38" y="-34.78" font-family="Helvetica,sans-Serif" font-size="10.00" fill="grey"> pJSGSystem_</text>
</g>
<!-- Node19 -->
<g id="Node000019" class="node">
<title>Node19</title>
<g id="a_Node000019"><a xlink:href="structJStage_1_1TObject.html" target="_top" xlink:title=" ">
<polygon fill="white" stroke="#666666" points="309.5,-19.66 223.75,-19.66 223.75,-0.41 309.5,-0.41 309.5,-19.66"/>
<text text-anchor="middle" x="266.62" y="-6.16" font-family="Helvetica,sans-Serif" font-size="10.00">JStage::TObject</text>
</a>
</g>
</g>
<!-- Node19&#45;&gt;Node17 -->
<g id="edge24_Node000017_Node000019" class="edge">
<title>Node19&#45;&gt;Node17</title>
<g id="a_edge24_Node000017_Node000019"><a xlink:title=" ">
<path fill="none" stroke="#9a32cd" stroke-dasharray="5,2" d="M321.05,-6.79C349.28,-5.24 384.5,-3.55 416,-2.78 470.09,-1.46 483.86,2.12 537.75,-2.78 571.37,-5.84 608.37,-12.34 638.79,-18.53"/>
<polygon fill="#9a32cd" stroke="#9a32cd" points="321.11,-3.28 311.33,-7.34 321.51,-10.27 321.11,-3.28"/>
</a>
</g>
<text text-anchor="middle" x="476.88" y="-4.78" font-family="Helvetica,sans-Serif" font-size="10.00" fill="grey"> pJSGObject_</text>
</g>
<!-- Node19&#45;&gt;Node18 -->
<g id="edge23_Node000018_Node000019" class="edge">
<title>Node19&#45;&gt;Node18</title>
<g id="a_edge23_Node000018_Node000019"><a xlink:title=" ">
<path fill="none" stroke="#63b8ff" d="M320.95,-15.92C355.12,-19.7 398.96,-24.54 431.28,-28.11"/>
<polygon fill="#63b8ff" stroke="#63b8ff" points="321.6,-12.47 311.27,-14.85 320.83,-19.43 321.6,-12.47"/>
</a>
</g>
</g>
</g>
</svg>

<g id="navigator" transform="translate(0 0)" fill="#404254">
  <rect fill="#f2f5e9" fill-opacity="0.5" stroke="#606060" stroke-width=".5" x="0" y="0" width="60" height="60"/>
  <use id="zoomplus" xlink:href="#zoomPlus" x="17" y="9" onmousedown="handleZoom(evt,'in')"/>
  <use id="zoomminus" xlink:href="#zoomMin" x="42" y="9" onmousedown="handleZoom(evt,'out')"/>
  <use id="reset" xlink:href="#resetDef" x="30" y="36" onmousedown="handleReset()"/>
   <use id="arrowup" xlink:href="#arrowUp" x="0" y="0" onmousedown="handlePan(0,-1)"/>
  <use id="arrowright" xlink:href="#arrowRight" x="0" y="0" onmousedown="handlePan(1,0)"/>
  <use id="arrowdown" xlink:href="#arrowDown" x="0" y="0" onmousedown="handlePan(0,1)"/>
  <use id="arrowleft" xlink:href="#arrowLeft" x="0" y="0" onmousedown="handlePan(-1,0)"/>
</g>
<svg viewBox="0 0 15 15" width="100%" height="30px" preserveAspectRatio="xMaxYMin meet">
 <g id="arrow_out" transform="scale(0.3 0.3)">
  <a xlink:href="structJStudio__JStage_1_1TAdaptor__actor__coll__graph_org.svg" target="_base">
   <rect id="button" ry="5" rx="5" y="6" x="6" height="38" width="38"
        fill="#f2f5e9" fill-opacity="0.5" stroke="#606060" stroke-width="1.0"/>
   <path id="arrow"
     d="M 11.500037,31.436501 C 11.940474,20.09759 22.043105,11.32322 32.158766,21.979434 L 37.068811,17.246167 C 37.068811,17.246167 37.088388,32 37.088388,32 L 22.160133,31.978069 C 22.160133,31.978069 26.997745,27.140456 26.997745,27.140456 C 18.528582,18.264221 13.291696,25.230495 11.500037,31.436501 z"
     style="fill:#404040;"/>
  </a>
 </g>
</svg>

<style type='text/css'>
<![CDATA[
[data-mouse-over-selected='false'] { opacity: 0.7; }
[data-mouse-over-selected='true']  { opacity: 1.0; }
]]>
</style>
<script type="application/ecmascript"><![CDATA[
document.addEventListener('DOMContentLoaded', (event) => {
  highlightEdges();
  highlightAdjacentNodes();
});
]]></script>
</svg>
