<?xml version="1.0" encoding="UTF-8" standalone="no"?>
<!DOCTYPE svg PUBLIC "-//W3C//DTD SVG 1.1//EN"
 "http://www.w3.org/Graphics/SVG/1.1/DTD/svg11.dtd">
<!-- Generated by graphviz version 9.0.0 (20230911.1827)
 -->
<!-- Title: Z2LinkSoundStarter Pages: 1 -->
<svg width="229pt" height="271pt"
 viewBox="0.00 0.00 229.00 270.75" xmlns="http://www.w3.org/2000/svg" xmlns:xlink="http://www.w3.org/1999/xlink">
<g id="graph0" class="graph" transform="scale(1 1) rotate(0) translate(4 266.75)">
<title>Z2LinkSoundStarter</title>
<!-- Node1 -->
<g id="Node000001" class="node">
<title>Node1</title>
<g id="a_Node000001"><a xlink:title=" ">
<polygon fill="#999999" stroke="#666666" points="161.5,-74.5 58.5,-74.5 58.5,-55.25 161.5,-55.25 161.5,-74.5"/>
<text text-anchor="middle" x="110" y="-61" font-family="Helvetica,sans-Serif" font-size="10.00">Z2LinkSoundStarter</text>
</a>
</g>
</g>
<!-- Node6 -->
<g id="Node000006" class="node">
<title>Node6</title>
<g id="a_Node000006"><a xlink:href="classZ2CreatureLink.html" target="_top" xlink:title=" ">
<polygon fill="white" stroke="#666666" points="151.38,-19.25 68.62,-19.25 68.62,0 151.38,0 151.38,-19.25"/>
<text text-anchor="middle" x="110" y="-5.75" font-family="Helvetica,sans-Serif" font-size="10.00">Z2CreatureLink</text>
</a>
</g>
</g>
<!-- Node1&#45;&gt;Node6 -->
<g id="edge5_Node000001_Node000006" class="edge">
<title>Node1&#45;&gt;Node6</title>
<g id="a_edge5_Node000001_Node000006"><a xlink:title=" ">
<path fill="none" stroke="#63b8ff" d="M110,-43.63C110,-35.34 110,-26.17 110,-19.61"/>
<polygon fill="#63b8ff" stroke="#63b8ff" points="106.5,-43.57 110,-53.57 113.5,-43.57 106.5,-43.57"/>
</a>
</g>
</g>
<!-- Node2 -->
<g id="Node000002" class="node">
<title>Node2</title>
<g id="a_Node000002"><a xlink:href="structZ2SoundStarter.html" target="_top" xlink:title=" ">
<polygon fill="white" stroke="#666666" points="152.12,-129.75 67.88,-129.75 67.88,-110.5 152.12,-110.5 152.12,-129.75"/>
<text text-anchor="middle" x="110" y="-116.25" font-family="Helvetica,sans-Serif" font-size="10.00">Z2SoundStarter</text>
</a>
</g>
</g>
<!-- Node2&#45;&gt;Node1 -->
<g id="edge1_Node000001_Node000002" class="edge">
<title>Node2&#45;&gt;Node1</title>
<g id="a_edge1_Node000001_Node000002"><a xlink:title=" ">
<path fill="none" stroke="#63b8ff" d="M110,-98.88C110,-90.59 110,-81.42 110,-74.86"/>
<polygon fill="#63b8ff" stroke="#63b8ff" points="106.5,-98.82 110,-108.82 113.5,-98.82 106.5,-98.82"/>
</a>
</g>
</g>
<!-- Node3 -->
<g id="Node000003" class="node">
<title>Node3</title>
<g id="a_Node000003"><a xlink:href="structJAISoundStarter.html" target="_top" xlink:title=" ">
<polygon fill="white" stroke="#666666" points="97,-190.62 9,-190.62 9,-171.38 97,-171.38 97,-190.62"/>
<text text-anchor="middle" x="53" y="-177.12" font-family="Helvetica,sans-Serif" font-size="10.00">JAISoundStarter</text>
</a>
</g>
</g>
<!-- Node3&#45;&gt;Node2 -->
<g id="edge2_Node000002_Node000003" class="edge">
<title>Node3&#45;&gt;Node2</title>
<g id="a_edge2_Node000002_Node000003"><a xlink:title=" ">
<path fill="none" stroke="#63b8ff" d="M69.6,-162.86C79.95,-152.16 92.86,-138.83 101.26,-130.15"/>
<polygon fill="#63b8ff" stroke="#63b8ff" points="67.15,-160.35 62.71,-169.97 72.18,-165.22 67.15,-160.35"/>
</a>
</g>
</g>
<!-- Node4 -->
<g id="Node000004" class="node">
<title>Node4</title>
<g id="a_Node000004"><a xlink:href="classJASGlobalInstance.html" target="_top" xlink:title=" ">
<polygon fill="white" stroke="#666666" points="106,-262.75 0,-262.75 0,-232.25 106,-232.25 106,-262.75"/>
<text text-anchor="start" x="8" y="-249.25" font-family="Helvetica,sans-Serif" font-size="10.00">JASGlobalInstance&lt;</text>
<text text-anchor="middle" x="53" y="-238" font-family="Helvetica,sans-Serif" font-size="10.00"> JAISoundStarter &gt;</text>
</a>
</g>
</g>
<!-- Node4&#45;&gt;Node3 -->
<g id="edge3_Node000003_Node000004" class="edge">
<title>Node4&#45;&gt;Node3</title>
<g id="a_edge3_Node000003_Node000004"><a xlink:title=" ">
<path fill="none" stroke="#63b8ff" d="M53,-220.59C53,-210.01 53,-198.5 53,-190.82"/>
<polygon fill="#63b8ff" stroke="#63b8ff" points="49.5,-220.35 53,-230.35 56.5,-220.35 49.5,-220.35"/>
</a>
</g>
</g>
<!-- Node5 -->
<g id="Node000005" class="node">
<title>Node5</title>
<g id="a_Node000005"><a xlink:href="classJASGlobalInstance.html" target="_top" xlink:title=" ">
<polygon fill="white" stroke="#666666" points="221,-196.25 115,-196.25 115,-165.75 221,-165.75 221,-196.25"/>
<text text-anchor="start" x="123" y="-182.75" font-family="Helvetica,sans-Serif" font-size="10.00">JASGlobalInstance&lt;</text>
<text text-anchor="middle" x="168" y="-171.5" font-family="Helvetica,sans-Serif" font-size="10.00"> Z2SoundStarter &gt;</text>
</a>
</g>
</g>
<!-- Node5&#45;&gt;Node2 -->
<g id="edge4_Node000002_Node000005" class="edge">
<title>Node5&#45;&gt;Node2</title>
<g id="a_edge4_Node000002_Node000005"><a xlink:title=" ">
<path fill="none" stroke="#63b8ff" d="M145.81,-157.47C136.45,-147.98 126.1,-137.47 118.94,-130.2"/>
<polygon fill="#63b8ff" stroke="#63b8ff" points="143.09,-159.7 152.6,-164.37 148.08,-154.79 143.09,-159.7"/>
</a>
</g>
</g>
</g>
</svg>
