<?xml version="1.0" encoding="UTF-8" standalone="no"?>
<!DOCTYPE svg PUBLIC "-//W3C//DTD SVG 1.1//EN"
 "http://www.w3.org/Graphics/SVG/1.1/DTD/svg11.dtd">
<!-- Generated by graphviz version 9.0.0 (20230911.1827)
 -->
<!-- Title: mDoExt_McaMorfSO Pages: 1 -->
<svg width="179pt" height="271pt"
 viewBox="0.00 0.00 179.25 270.75" xmlns="http://www.w3.org/2000/svg" xmlns:xlink="http://www.w3.org/1999/xlink">
<g id="graph0" class="graph" transform="scale(1 1) rotate(0) translate(4 266.75)">
<title>mDoExt_McaMorfSO</title>
<!-- Node1 -->
<g id="Node000001" class="node">
<title>Node1</title>
<g id="a_Node000001"><a xlink:title=" ">
<polygon fill="#999999" stroke="#666666" points="139.38,-19.25 31.88,-19.25 31.88,0 139.38,0 139.38,-19.25"/>
<text text-anchor="middle" x="85.62" y="-5.75" font-family="Helvetica,sans-Serif" font-size="10.00">mDoExt_McaMorfSO</text>
</a>
</g>
</g>
<!-- Node2 -->
<g id="Node000002" class="node">
<title>Node2</title>
<g id="a_Node000002"><a xlink:href="structmDoExt__morf__c.html" target="_top" xlink:title=" ">
<polygon fill="white" stroke="#666666" points="128.12,-74.5 43.12,-74.5 43.12,-55.25 128.12,-55.25 128.12,-74.5"/>
<text text-anchor="middle" x="85.62" y="-61" font-family="Helvetica,sans-Serif" font-size="10.00">mDoExt_morf_c</text>
</a>
</g>
</g>
<!-- Node2&#45;&gt;Node1 -->
<g id="edge1_Node000001_Node000002" class="edge">
<title>Node2&#45;&gt;Node1</title>
<g id="a_edge1_Node000001_Node000002"><a xlink:title=" ">
<path fill="none" stroke="#63b8ff" d="M85.62,-43.63C85.62,-35.34 85.62,-26.17 85.62,-19.61"/>
<polygon fill="#63b8ff" stroke="#63b8ff" points="82.13,-43.57 85.63,-53.57 89.13,-43.57 82.13,-43.57"/>
</a>
</g>
</g>
<!-- Node3 -->
<g id="Node000003" class="node">
<title>Node3</title>
<g id="a_Node000003"><a xlink:href="structJ3DMtxCalcNoAnm.html" target="_top" xlink:title=" ">
<polygon fill="white" stroke="#666666" points="171.25,-152.25 0,-152.25 0,-110.5 171.25,-110.5 171.25,-152.25"/>
<text text-anchor="start" x="8" y="-138.75" font-family="Helvetica,sans-Serif" font-size="10.00">J3DMtxCalcNoAnm&lt; J3DMtxCalc</text>
<text text-anchor="start" x="8" y="-127.5" font-family="Helvetica,sans-Serif" font-size="10.00">CalcTransformMaya, J3DMtxCalcJ3</text>
<text text-anchor="middle" x="85.62" y="-116.25" font-family="Helvetica,sans-Serif" font-size="10.00">DSysInitMaya &gt;</text>
</a>
</g>
</g>
<!-- Node3&#45;&gt;Node2 -->
<g id="edge2_Node000002_Node000003" class="edge">
<title>Node3&#45;&gt;Node2</title>
<g id="a_edge2_Node000002_Node000003"><a xlink:title=" ">
<path fill="none" stroke="#63b8ff" d="M85.62,-99.01C85.62,-90.2 85.62,-81.3 85.62,-74.95"/>
<polygon fill="#63b8ff" stroke="#63b8ff" points="82.13,-98.81 85.63,-108.81 89.13,-98.81 82.13,-98.81"/>
</a>
</g>
</g>
<!-- Node4 -->
<g id="Node000004" class="node">
<title>Node4</title>
<g id="a_Node000004"><a xlink:href="structJ3DMtxCalcNoAnmBase.html" target="_top" xlink:title=" ">
<polygon fill="white" stroke="#666666" points="147.62,-207.5 23.62,-207.5 23.62,-188.25 147.62,-188.25 147.62,-207.5"/>
<text text-anchor="middle" x="85.62" y="-194" font-family="Helvetica,sans-Serif" font-size="10.00">J3DMtxCalcNoAnmBase</text>
</a>
</g>
</g>
<!-- Node4&#45;&gt;Node3 -->
<g id="edge3_Node000003_Node000004" class="edge">
<title>Node4&#45;&gt;Node3</title>
<g id="a_edge3_Node000003_Node000004"><a xlink:title=" ">
<path fill="none" stroke="#63b8ff" d="M85.62,-176.45C85.62,-168.86 85.62,-160.26 85.62,-152.68"/>
<polygon fill="#63b8ff" stroke="#63b8ff" points="82.13,-176.39 85.63,-186.39 89.13,-176.39 82.13,-176.39"/>
</a>
</g>
</g>
<!-- Node5 -->
<g id="Node000005" class="node">
<title>Node5</title>
<g id="a_Node000005"><a xlink:href="structJ3DMtxCalc.html" target="_top" xlink:title=" ">
<polygon fill="white" stroke="#666666" points="119.88,-262.75 51.38,-262.75 51.38,-243.5 119.88,-243.5 119.88,-262.75"/>
<text text-anchor="middle" x="85.62" y="-249.25" font-family="Helvetica,sans-Serif" font-size="10.00">J3DMtxCalc</text>
</a>
</g>
</g>
<!-- Node5&#45;&gt;Node4 -->
<g id="edge4_Node000004_Node000005" class="edge">
<title>Node5&#45;&gt;Node4</title>
<g id="a_edge4_Node000004_Node000005"><a xlink:title=" ">
<path fill="none" stroke="#63b8ff" d="M85.62,-231.88C85.62,-223.59 85.62,-214.42 85.62,-207.86"/>
<polygon fill="#63b8ff" stroke="#63b8ff" points="82.13,-231.82 85.63,-241.82 89.13,-231.82 82.13,-231.82"/>
</a>
</g>
</g>
</g>
</svg>
