<?xml version="1.0" encoding="UTF-8" standalone="no"?>
<!DOCTYPE svg PUBLIC "-//W3C//DTD SVG 1.1//EN"
 "http://www.w3.org/Graphics/SVG/1.1/DTD/svg11.dtd">
<!-- Generated by graphviz version 9.0.0 (20230911.1827)
 -->
<!-- Title: request_of_phase_process_class Pages: 1 -->
<svg width="299pt" height="508pt"
 viewBox="0.00 0.00 298.75 508.25" xmlns="http://www.w3.org/2000/svg" xmlns:xlink="http://www.w3.org/1999/xlink">
<g id="graph0" class="graph" transform="scale(1 1) rotate(0) translate(4 504.25)">
<title>request_of_phase_process_class</title>
<!-- Node1 -->
<g id="Node000001" class="node">
<title>Node1</title>
<g id="a_Node000001"><a xlink:title=" ">
<polygon fill="#999999" stroke="#666666" points="133,-264.88 0,-264.88 0,-234.38 133,-234.38 133,-264.88"/>
<text text-anchor="start" x="8" y="-251.38" font-family="Helvetica,sans-Serif" font-size="10.00">request_of_phase_process</text>
<text text-anchor="middle" x="66.5" y="-240.12" font-family="Helvetica,sans-Serif" font-size="10.00">_class</text>
</a>
</g>
</g>
<!-- Node2 -->
<g id="Node000002" class="node">
<title>Node2</title>
<g id="a_Node000002"><a xlink:href="classdaBalloon2D__c.html" target="_top" xlink:title="???">
<polygon fill="white" stroke="#666666" points="270.5,-500.25 189.25,-500.25 189.25,-481 270.5,-481 270.5,-500.25"/>
<text text-anchor="middle" x="229.88" y="-486.75" font-family="Helvetica,sans-Serif" font-size="10.00">daBalloon2D_c</text>
</a>
</g>
</g>
<!-- Node1&#45;&gt;Node2 -->
<g id="edge1_Node000001_Node000002" class="edge">
<title>Node1&#45;&gt;Node2</title>
<g id="a_edge1_Node000001_Node000002"><a xlink:title=" ">
<path fill="none" stroke="#63b8ff" d="M72.26,-276.51C81.95,-323.29 108.41,-419.72 169,-472.62 174.72,-477.62 181.79,-481.23 189.05,-483.84"/>
<polygon fill="#63b8ff" stroke="#63b8ff" points="75.7,-275.85 70.34,-266.71 68.83,-277.2 75.7,-275.85"/>
</a>
</g>
</g>
<!-- Node3 -->
<g id="Node000003" class="node">
<title>Node3</title>
<g id="a_Node000003"><a xlink:href="classdaMirror__c.html" target="_top" xlink:title="Mirror.">
<polygon fill="white" stroke="#666666" points="260.75,-463.25 199,-463.25 199,-444 260.75,-444 260.75,-463.25"/>
<text text-anchor="middle" x="229.88" y="-449.75" font-family="Helvetica,sans-Serif" font-size="10.00">daMirror_c</text>
</a>
</g>
</g>
<!-- Node1&#45;&gt;Node3 -->
<g id="edge2_Node000001_Node000003" class="edge">
<title>Node1&#45;&gt;Node3</title>
<g id="a_edge2_Node000001_Node000003"><a xlink:title=" ">
<path fill="none" stroke="#63b8ff" d="M74.81,-276.06C87.34,-316.44 116.74,-393.22 169,-435.62 177.43,-442.46 188.41,-446.71 198.66,-449.34"/>
<polygon fill="#63b8ff" stroke="#63b8ff" points="78.23,-275.28 72.02,-266.69 71.52,-277.27 78.23,-275.28"/>
</a>
</g>
</g>
<!-- Node4 -->
<g id="Node000004" class="node">
<title>Node4</title>
<g id="a_Node000004"><a xlink:href="classdaObjChandelier__c.html" target="_top" xlink:title="Hyrule Castle Chandelier.">
<polygon fill="white" stroke="#666666" points="278.75,-426.25 181,-426.25 181,-407 278.75,-407 278.75,-426.25"/>
<text text-anchor="middle" x="229.88" y="-412.75" font-family="Helvetica,sans-Serif" font-size="10.00">daObjChandelier_c</text>
</a>
</g>
</g>
<!-- Node1&#45;&gt;Node4 -->
<g id="edge3_Node000001_Node000004" class="edge">
<title>Node1&#45;&gt;Node4</title>
<g id="a_edge3_Node000001_Node000004"><a xlink:title=" ">
<path fill="none" stroke="#63b8ff" d="M78.47,-275.61C93.86,-308.97 125,-366.38 169,-398.62 173.29,-401.77 178.13,-404.37 183.16,-406.52"/>
<polygon fill="#63b8ff" stroke="#63b8ff" points="81.75,-274.38 74.48,-266.68 75.36,-277.23 81.75,-274.38"/>
</a>
</g>
</g>
<!-- Node5 -->
<g id="Node000005" class="node">
<title>Node5</title>
<g id="a_Node000005"><a xlink:href="classdaObjHBombkoya__c.html" target="_top" xlink:title="Destructable Bomb House.">
<polygon fill="white" stroke="#666666" points="282.5,-389.25 177.25,-389.25 177.25,-370 282.5,-370 282.5,-389.25"/>
<text text-anchor="middle" x="229.88" y="-375.75" font-family="Helvetica,sans-Serif" font-size="10.00">daObjHBombkoya_c</text>
</a>
</g>
</g>
<!-- Node1&#45;&gt;Node5 -->
<g id="edge4_Node000001_Node000005" class="edge">
<title>Node1&#45;&gt;Node5</title>
<g id="a_edge4_Node000001_Node000005"><a xlink:title=" ">
<path fill="none" stroke="#63b8ff" d="M83.82,-274.45C101.79,-299.89 132.96,-338.86 169,-361.62 173.96,-364.75 179.49,-367.37 185.13,-369.54"/>
<polygon fill="#63b8ff" stroke="#63b8ff" points="86.8,-272.6 78.24,-266.35 81.03,-276.57 86.8,-272.6"/>
</a>
</g>
</g>
<!-- Node6 -->
<g id="Node000006" class="node">
<title>Node6</title>
<g id="a_Node000006"><a xlink:href="classdaObjKJgjs__c.html" target="_top" xlink:title="???">
<polygon fill="white" stroke="#666666" points="268.25,-352.25 191.5,-352.25 191.5,-333 268.25,-333 268.25,-352.25"/>
<text text-anchor="middle" x="229.88" y="-338.75" font-family="Helvetica,sans-Serif" font-size="10.00">daObjKJgjs_c</text>
</a>
</g>
</g>
<!-- Node1&#45;&gt;Node6 -->
<g id="edge5_Node000001_Node000006" class="edge">
<title>Node1&#45;&gt;Node6</title>
<g id="a_edge5_Node000001_Node000006"><a xlink:title=" ">
<path fill="none" stroke="#63b8ff" d="M93.22,-272.56C112.82,-289.01 141.09,-310.65 169,-324.62 175.89,-328.08 183.57,-331 191.06,-333.42"/>
<polygon fill="#63b8ff" stroke="#63b8ff" points="95.63,-270.01 85.75,-266.17 91.08,-275.33 95.63,-270.01"/>
</a>
</g>
</g>
<!-- Node7 -->
<g id="Node000007" class="node">
<title>Node7</title>
<g id="a_Node000007"><a xlink:href="classdaObjProp__c.html" target="_top" xlink:title="City in the Sky Propeller?">
<polygon fill="white" stroke="#666666" points="266,-315.25 193.75,-315.25 193.75,-296 266,-296 266,-315.25"/>
<text text-anchor="middle" x="229.88" y="-301.75" font-family="Helvetica,sans-Serif" font-size="10.00">daObjProp_c</text>
</a>
</g>
</g>
<!-- Node1&#45;&gt;Node7 -->
<g id="edge6_Node000001_Node000007" class="edge">
<title>Node1&#45;&gt;Node7</title>
<g id="a_edge6_Node000001_Node000007"><a xlink:title=" ">
<path fill="none" stroke="#63b8ff" d="M117.69,-269.16C133.97,-275.3 152.18,-281.95 169,-287.62 177.02,-290.33 185.72,-293.06 193.92,-295.54"/>
<polygon fill="#63b8ff" stroke="#63b8ff" points="119.3,-266.03 108.71,-265.76 116.82,-272.58 119.3,-266.03"/>
</a>
</g>
</g>
<!-- Node8 -->
<g id="Node000008" class="node">
<title>Node8</title>
<g id="a_Node000008"><a xlink:href="classdaObjRCircle__c.html" target="_top" xlink:title="River Circle.">
<polygon fill="white" stroke="#666666" points="271.62,-278.25 188.12,-278.25 188.12,-259 271.62,-259 271.62,-278.25"/>
<text text-anchor="middle" x="229.88" y="-264.75" font-family="Helvetica,sans-Serif" font-size="10.00">daObjRCircle_c</text>
</a>
</g>
</g>
<!-- Node1&#45;&gt;Node8 -->
<g id="edge7_Node000001_Node000008" class="edge">
<title>Node1&#45;&gt;Node8</title>
<g id="a_edge7_Node000001_Node000008"><a xlink:title=" ">
<path fill="none" stroke="#63b8ff" d="M144.51,-258.69C159.47,-260.45 174.6,-262.24 187.84,-263.79"/>
<polygon fill="#63b8ff" stroke="#63b8ff" points="144.98,-255.22 134.64,-257.53 144.16,-262.18 144.98,-255.22"/>
</a>
</g>
</g>
<!-- Node9 -->
<g id="Node000009" class="node">
<title>Node9</title>
<g id="a_Node000009"><a xlink:href="classdaObjSnowSoup__c.html" target="_top" xlink:title="Snowpeak Ruins Soup Pot?">
<polygon fill="white" stroke="#666666" points="279.5,-241.25 180.25,-241.25 180.25,-222 279.5,-222 279.5,-241.25"/>
<text text-anchor="middle" x="229.88" y="-227.75" font-family="Helvetica,sans-Serif" font-size="10.00">daObjSnowSoup_c</text>
</a>
</g>
</g>
<!-- Node1&#45;&gt;Node9 -->
<g id="edge8_Node000001_Node000009" class="edge">
<title>Node1&#45;&gt;Node9</title>
<g id="a_edge8_Node000001_Node000009"><a xlink:title=" ">
<path fill="none" stroke="#63b8ff" d="M144.28,-241.06C156.48,-239.7 168.81,-238.33 180.13,-237.06"/>
<polygon fill="#63b8ff" stroke="#63b8ff" points="144.19,-237.55 134.64,-242.14 144.97,-244.51 144.19,-237.55"/>
</a>
</g>
</g>
<!-- Node10 -->
<g id="Node000010" class="node">
<title>Node10</title>
<g id="a_Node000010"><a xlink:href="classdaObjToaruMaki__c.html" target="_top" xlink:title="Ordon Bundle.">
<polygon fill="white" stroke="#666666" points="278.75,-204.25 181,-204.25 181,-185 278.75,-185 278.75,-204.25"/>
<text text-anchor="middle" x="229.88" y="-190.75" font-family="Helvetica,sans-Serif" font-size="10.00">daObjToaruMaki_c</text>
</a>
</g>
</g>
<!-- Node1&#45;&gt;Node10 -->
<g id="edge9_Node000001_Node000010" class="edge">
<title>Node1&#45;&gt;Node10</title>
<g id="a_edge9_Node000001_Node000010"><a xlink:title=" ">
<path fill="none" stroke="#63b8ff" d="M119.46,-230.03C135.3,-224.24 152.8,-218.01 169,-212.62 177.14,-209.92 185.95,-207.17 194.26,-204.66"/>
<polygon fill="#63b8ff" stroke="#63b8ff" points="118.39,-226.7 110.21,-233.44 120.81,-233.27 118.39,-226.7"/>
</a>
</g>
</g>
<!-- Node11 -->
<g id="Node000011" class="node">
<title>Node11</title>
<g id="a_Node000011"><a xlink:href="classdaObjYIblltray__c.html" target="_top" xlink:title="Snowpeak Ruins Cannonball Transporter.">
<polygon fill="white" stroke="#666666" points="273.5,-167.25 186.25,-167.25 186.25,-148 273.5,-148 273.5,-167.25"/>
<text text-anchor="middle" x="229.88" y="-153.75" font-family="Helvetica,sans-Serif" font-size="10.00">daObjYIblltray_c</text>
</a>
</g>
</g>
<!-- Node1&#45;&gt;Node11 -->
<g id="edge10_Node000001_Node000011" class="edge">
<title>Node1&#45;&gt;Node11</title>
<g id="a_edge10_Node000001_Node000011"><a xlink:title=" ">
<path fill="none" stroke="#63b8ff" d="M93.63,-226.72C113.24,-210.54 141.35,-189.36 169,-175.62 175.12,-172.58 181.86,-169.95 188.54,-167.7"/>
<polygon fill="#63b8ff" stroke="#63b8ff" points="91.55,-223.9 86.15,-233.01 96.06,-229.25 91.55,-223.9"/>
</a>
</g>
</g>
<!-- Node12 -->
<g id="Node000012" class="node">
<title>Node12</title>
<g id="a_Node000012"><a xlink:href="classdaObjYchndlr__c.html" target="_top" xlink:title="Snowpeak Ruins Chandelier (Swinging Platform)">
<polygon fill="white" stroke="#666666" points="272.38,-130.25 187.38,-130.25 187.38,-111 272.38,-111 272.38,-130.25"/>
<text text-anchor="middle" x="229.88" y="-116.75" font-family="Helvetica,sans-Serif" font-size="10.00">daObjYchndlr_c</text>
</a>
</g>
</g>
<!-- Node1&#45;&gt;Node12 -->
<g id="edge11_Node000001_Node000012" class="edge">
<title>Node1&#45;&gt;Node12</title>
<g id="a_edge11_Node000001_Node000012"><a xlink:title=" ">
<path fill="none" stroke="#63b8ff" d="M84.17,-224.61C102.22,-199.39 133.28,-161.07 169,-138.62 174.51,-135.16 180.73,-132.33 187.02,-130.03"/>
<polygon fill="#63b8ff" stroke="#63b8ff" points="81.41,-222.45 78.55,-232.66 87.14,-226.46 81.41,-222.45"/>
</a>
</g>
</g>
<!-- Node13 -->
<g id="Node000013" class="node">
<title>Node13</title>
<g id="a_Node000013"><a xlink:href="structdaTagCsw__c.html" target="_top" xlink:title=" ">
<polygon fill="white" stroke="#666666" points="266.38,-93.25 193.38,-93.25 193.38,-74 266.38,-74 266.38,-93.25"/>
<text text-anchor="middle" x="229.88" y="-79.75" font-family="Helvetica,sans-Serif" font-size="10.00">daTagCsw_c</text>
</a>
</g>
</g>
<!-- Node1&#45;&gt;Node13 -->
<g id="edge12_Node000001_Node000013" class="edge">
<title>Node1&#45;&gt;Node13</title>
<g id="a_edge12_Node000001_Node000013"><a xlink:title=" ">
<path fill="none" stroke="#63b8ff" d="M78.52,-223.81C93.96,-190.68 125.15,-133.66 169,-101.62 176.1,-96.44 184.7,-92.73 193.14,-90.09"/>
<polygon fill="#63b8ff" stroke="#63b8ff" points="75.44,-222.13 74.51,-232.68 81.82,-225.01 75.44,-222.13"/>
</a>
</g>
</g>
<!-- Node14 -->
<g id="Node000014" class="node">
<title>Node14</title>
<g id="a_Node000014"><a xlink:href="classdaWindStone__c.html" target="_top" xlink:title="Howling Stone (Hole)">
<polygon fill="white" stroke="#666666" points="272,-56.25 187.75,-56.25 187.75,-37 272,-37 272,-56.25"/>
<text text-anchor="middle" x="229.88" y="-42.75" font-family="Helvetica,sans-Serif" font-size="10.00">daWindStone_c</text>
</a>
</g>
</g>
<!-- Node1&#45;&gt;Node14 -->
<g id="edge13_Node000001_Node000014" class="edge">
<title>Node1&#45;&gt;Node14</title>
<g id="a_edge13_Node000001_Node000014"><a xlink:title=" ">
<path fill="none" stroke="#63b8ff" d="M74.94,-223.07C87.56,-182.84 117.02,-106.7 169,-64.62 174.4,-60.25 180.84,-56.94 187.47,-54.44"/>
<polygon fill="#63b8ff" stroke="#63b8ff" points="71.58,-222.06 72.05,-232.64 78.29,-224.08 71.58,-222.06"/>
</a>
</g>
</g>
<!-- Node15 -->
<g id="Node000015" class="node">
<title>Node15</title>
<g id="a_Node000015"><a xlink:href="classdalv4CandleDemoTag__c.html" target="_top" xlink:title="Arbiter&#39;s Grounds Torch Cutscene Tag.">
<polygon fill="white" stroke="#666666" points="290.75,-19.25 169,-19.25 169,0 290.75,0 290.75,-19.25"/>
<text text-anchor="middle" x="229.88" y="-5.75" font-family="Helvetica,sans-Serif" font-size="10.00">dalv4CandleDemoTag_c</text>
</a>
</g>
</g>
<!-- Node1&#45;&gt;Node15 -->
<g id="edge14_Node000001_Node000015" class="edge">
<title>Node1&#45;&gt;Node15</title>
<g id="a_edge14_Node000001_Node000015"><a xlink:title=" ">
<path fill="none" stroke="#63b8ff" d="M72.3,-222.86C82.05,-176.28 108.59,-80.29 169,-27.62 172.68,-24.42 176.92,-21.78 181.4,-19.61"/>
<polygon fill="#63b8ff" stroke="#63b8ff" points="68.87,-222.12 70.37,-232.61 75.74,-223.48 68.87,-222.12"/>
</a>
</g>
</g>
</g>
</svg>
