<?xml version="1.0" encoding="UTF-8" standalone="no"?>
<!DOCTYPE svg PUBLIC "-//W3C//DTD SVG 1.1//EN"
 "http://www.w3.org/Graphics/SVG/1.1/DTD/svg11.dtd">
<!-- Generated by graphviz version 9.0.0 (20230911.1827)
 -->
<!-- Title: JStudio_JStage::TAdaptor_ambientLight Pages: 1 -->
<svg width="1026pt" height="389pt"
 viewBox="0.00 0.00 1025.50 388.55" xmlns="http://www.w3.org/2000/svg" xmlns:xlink="http://www.w3.org/1999/xlink">
<g id="graph0" class="graph" transform="scale(1 1) rotate(0) translate(4 384.55)">
<title>JStudio_JStage::TAdaptor_ambientLight</title>
<!-- Node1 -->
<g id="Node000001" class="node">
<title>Node1</title>
<g id="a_Node000001"><a xlink:title=" ">
<polygon fill="#999999" stroke="#666666" points="1017.5,-69.18 888.25,-69.18 888.25,-38.68 1017.5,-38.68 1017.5,-69.18"/>
<text text-anchor="start" x="896.25" y="-55.68" font-family="Helvetica,sans-Serif" font-size="10.00">JStudio_JStage::TAdaptor</text>
<text text-anchor="middle" x="952.88" y="-44.43" font-family="Helvetica,sans-Serif" font-size="10.00">_ambientLight</text>
</a>
</g>
</g>
<!-- Node2 -->
<g id="Node000002" class="node">
<title>Node2</title>
<g id="a_Node000002"><a xlink:href="structJStudio_1_1TAdaptor__ambientLight.html" target="_top" xlink:title=" ">
<polygon fill="white" stroke="#666666" points="772,-96.18 639,-96.18 639,-65.68 772,-65.68 772,-96.18"/>
<text text-anchor="start" x="647" y="-82.68" font-family="Helvetica,sans-Serif" font-size="10.00">JStudio::TAdaptor_ambient</text>
<text text-anchor="middle" x="705.5" y="-71.43" font-family="Helvetica,sans-Serif" font-size="10.00">Light</text>
</a>
</g>
</g>
<!-- Node2&#45;&gt;Node1 -->
<g id="edge1_Node000001_Node000002" class="edge">
<title>Node2&#45;&gt;Node1</title>
<g id="a_edge1_Node000001_Node000002"><a xlink:title=" ">
<path fill="none" stroke="#63b8ff" d="M783.44,-72.46C817.08,-68.76 856.07,-64.47 888.06,-60.95"/>
<polygon fill="#63b8ff" stroke="#63b8ff" points="783.32,-68.95 773.76,-73.53 784.08,-75.91 783.32,-68.95"/>
</a>
</g>
</g>
<!-- Node3 -->
<g id="Node000003" class="node">
<title>Node3</title>
<g id="a_Node000003"><a xlink:href="structJStudio_1_1TAdaptor.html" target="_top" xlink:title=" ">
<polygon fill="white" stroke="#666666" points="523.5,-141.55 430.25,-141.55 430.25,-122.3 523.5,-122.3 523.5,-141.55"/>
<text text-anchor="middle" x="476.88" y="-128.05" font-family="Helvetica,sans-Serif" font-size="10.00">JStudio::TAdaptor</text>
</a>
</g>
</g>
<!-- Node3&#45;&gt;Node2 -->
<g id="edge2_Node000002_Node000003" class="edge">
<title>Node3&#45;&gt;Node2</title>
<g id="a_edge2_Node000002_Node000003"><a xlink:title=" ">
<path fill="none" stroke="#63b8ff" d="M533.53,-119.4C565.34,-112.24 605.42,-103.22 638.78,-95.72"/>
<polygon fill="#63b8ff" stroke="#63b8ff" points="533.11,-115.91 524.13,-121.52 534.65,-122.74 533.11,-115.91"/>
</a>
</g>
</g>
<!-- Node4 -->
<g id="Node000004" class="node">
<title>Node4</title>
<g id="a_Node000004"><a xlink:href="classJStudio_1_1TObject.html" target="_top" xlink:title=" ">
<polygon fill="white" stroke="#666666" points="749.5,-181.55 661.5,-181.55 661.5,-162.3 749.5,-162.3 749.5,-181.55"/>
<text text-anchor="middle" x="705.5" y="-168.05" font-family="Helvetica,sans-Serif" font-size="10.00">JStudio::TObject</text>
</a>
</g>
</g>
<!-- Node3&#45;&gt;Node4 -->
<g id="edge16_Node000004_Node000003" class="edge">
<title>Node3&#45;&gt;Node4</title>
<g id="a_edge16_Node000004_Node000003"><a xlink:title=" ">
<path fill="none" stroke="#9a32cd" stroke-dasharray="5,2" d="M529.74,-144.53C538.4,-146.45 547.31,-148.33 555.75,-149.93 591.02,-156.6 631.31,-162.45 661.06,-166.44"/>
<polygon fill="#9a32cd" stroke="#9a32cd" points="530.57,-141.12 520.04,-142.32 529.02,-147.95 530.57,-141.12"/>
</a>
</g>
<text text-anchor="middle" x="588.38" y="-161.68" font-family="Helvetica,sans-Serif" font-size="10.00" fill="grey"> mpAdaptor</text>
</g>
<!-- Node4&#45;&gt;Node3 -->
<g id="edge3_Node000003_Node000004" class="edge">
<title>Node4&#45;&gt;Node3</title>
<g id="a_edge3_Node000003_Node000004"><a xlink:title=" ">
<path fill="none" stroke="#9a32cd" stroke-dasharray="5,2" d="M674.75,-157.28C659.14,-150.32 639.46,-142.67 621,-138.68 589.03,-131.76 552.14,-130.17 523.82,-130.26"/>
<polygon fill="#9a32cd" stroke="#9a32cd" points="672.92,-160.29 683.47,-161.3 675.85,-153.93 672.92,-160.29"/>
</a>
</g>
<text text-anchor="middle" x="588.38" y="-139.68" font-family="Helvetica,sans-Serif" font-size="10.00" fill="grey"> pObject_</text>
</g>
<!-- Node5 -->
<g id="Node000005" class="node">
<title>Node5</title>
<g id="a_Node000005"><a xlink:href="classJStudio_1_1stb_1_1TObject.html" target="_top" xlink:title=" ">
<polygon fill="white" stroke="#666666" points="529.88,-238.55 423.88,-238.55 423.88,-219.3 529.88,-219.3 529.88,-238.55"/>
<text text-anchor="middle" x="476.88" y="-225.05" font-family="Helvetica,sans-Serif" font-size="10.00">JStudio::stb::TObject</text>
</a>
</g>
</g>
<!-- Node5&#45;&gt;Node4 -->
<g id="edge4_Node000004_Node000005" class="edge">
<title>Node5&#45;&gt;Node4</title>
<g id="a_edge4_Node000004_Node000005"><a xlink:title=" ">
<path fill="none" stroke="#63b8ff" d="M529.26,-216C570.29,-205.68 626.96,-191.43 664.62,-181.96"/>
<polygon fill="#63b8ff" stroke="#63b8ff" points="528.44,-212.6 519.6,-218.43 530.15,-219.39 528.44,-212.6"/>
</a>
</g>
</g>
<!-- Node13 -->
<g id="Node000013" class="node">
<title>Node13</title>
<g id="a_Node000013"><a xlink:href="classJStudio_1_1stb_1_1TObject__control.html" target="_top" xlink:title=" ">
<polygon fill="white" stroke="#666666" points="758.5,-283.18 652.5,-283.18 652.5,-252.68 758.5,-252.68 758.5,-283.18"/>
<text text-anchor="start" x="660.5" y="-269.68" font-family="Helvetica,sans-Serif" font-size="10.00">JStudio::stb::TObject</text>
<text text-anchor="middle" x="705.5" y="-258.43" font-family="Helvetica,sans-Serif" font-size="10.00">_control</text>
</a>
</g>
</g>
<!-- Node5&#45;&gt;Node13 -->
<g id="edge15_Node000013_Node000005" class="edge">
<title>Node5&#45;&gt;Node13</title>
<g id="a_edge15_Node000013_Node000005"><a xlink:title=" ">
<path fill="none" stroke="#63b8ff" d="M541.2,-239.82C576.15,-245.84 619.04,-253.22 652.09,-258.91"/>
<polygon fill="#63b8ff" stroke="#63b8ff" points="542.09,-236.43 531.64,-238.18 540.91,-243.32 542.09,-236.43"/>
</a>
</g>
</g>
<!-- Node6 -->
<g id="Node000006" class="node">
<title>Node6</title>
<g id="a_Node000006"><a xlink:href="structJStudio_1_1object_1_1TObject__ID.html" target="_top" xlink:title=" ">
<polygon fill="white" stroke="#666666" points="333.5,-238.55 199.75,-238.55 199.75,-219.3 333.5,-219.3 333.5,-238.55"/>
<text text-anchor="middle" x="266.62" y="-225.05" font-family="Helvetica,sans-Serif" font-size="10.00">JStudio::object::TObject_ID</text>
</a>
</g>
</g>
<!-- Node6&#45;&gt;Node5 -->
<g id="edge5_Node000005_Node000006" class="edge">
<title>Node6&#45;&gt;Node5</title>
<g id="a_edge5_Node000005_Node000006"><a xlink:title=" ">
<path fill="none" stroke="#63b8ff" d="M345.2,-228.93C371.27,-228.93 399.72,-228.93 423.4,-228.93"/>
<polygon fill="#63b8ff" stroke="#63b8ff" points="345.32,-225.43 335.32,-228.93 345.32,-232.43 345.32,-225.43"/>
</a>
</g>
</g>
<!-- Node7 -->
<g id="Node000007" class="node">
<title>Node7</title>
<g id="a_Node000007"><a xlink:href="structJStudio_1_1object_1_1TIDData.html" target="_top" xlink:title=" ">
<polygon fill="white" stroke="#666666" points="121,-238.55 0.75,-238.55 0.75,-219.3 121,-219.3 121,-238.55"/>
<text text-anchor="middle" x="60.88" y="-225.05" font-family="Helvetica,sans-Serif" font-size="10.00">JStudio::object::TIDData</text>
</a>
</g>
</g>
<!-- Node7&#45;&gt;Node6 -->
<g id="edge6_Node000006_Node000007" class="edge">
<title>Node7&#45;&gt;Node6</title>
<g id="a_edge6_Node000006_Node000007"><a xlink:title=" ">
<path fill="none" stroke="#63b8ff" d="M132.77,-228.93C154.36,-228.93 178,-228.93 199.28,-228.93"/>
<polygon fill="#63b8ff" stroke="#63b8ff" points="132.87,-225.43 122.87,-228.93 132.87,-232.43 132.87,-225.43"/>
</a>
</g>
</g>
<!-- Node8 -->
<g id="Node000008" class="node">
<title>Node8</title>
<g id="a_Node000008"><a xlink:href="structJGadget_1_1TLinkListNode.html" target="_top" xlink:title=" ">
<polygon fill="white" stroke="#666666" points="327.5,-290.55 205.75,-290.55 205.75,-271.3 327.5,-271.3 327.5,-290.55"/>
<text text-anchor="middle" x="266.62" y="-277.05" font-family="Helvetica,sans-Serif" font-size="10.00">JGadget::TLinkListNode</text>
</a>
</g>
</g>
<!-- Node8&#45;&gt;Node5 -->
<g id="edge7_Node000005_Node000008" class="edge">
<title>Node8&#45;&gt;Node5</title>
<g id="a_edge7_Node000005_Node000008"><a xlink:title=" ">
<path fill="none" stroke="#9a32cd" stroke-dasharray="5,2" d="M318.55,-268.21C354.53,-259.23 402.11,-247.34 435.49,-239.01"/>
<polygon fill="#9a32cd" stroke="#9a32cd" points="318.1,-264.72 309.25,-270.53 319.8,-271.51 318.1,-264.72"/>
</a>
</g>
<text text-anchor="middle" x="374.75" y="-260.68" font-family="Helvetica,sans-Serif" font-size="10.00" fill="grey"> ocObject_</text>
</g>
<!-- Node8&#45;&gt;Node8 -->
<g id="edge8_Node000008_Node000008" class="edge">
<title>Node8&#45;&gt;Node8</title>
<g id="a_edge8_Node000008_Node000008"><a xlink:title=" ">
<path fill="none" stroke="#9a32cd" stroke-dasharray="5,2" d="M247.83,-301.95C250.18,-305.83 256.45,-308.55 266.62,-308.55 285.24,-308.55 290.76,-299.45 283.2,-290.84"/>
<polygon fill="#9a32cd" stroke="#9a32cd" points="251.23,-302.82 249.75,-292.32 244.36,-301.45 251.23,-302.82"/>
</a>
</g>
<text text-anchor="middle" x="266.62" y="-321.55" font-family="Helvetica,sans-Serif" font-size="10.00" fill="grey"> mNext</text>
<text text-anchor="middle" x="266.62" y="-310.3" font-family="Helvetica,sans-Serif" font-size="10.00" fill="grey">mPrev</text>
</g>
<!-- Node12 -->
<g id="Node000012" class="node">
<title>Node12</title>
<g id="a_Node000012"><a xlink:href="structJGadget_1_1TNodeLinkList.html" target="_top" xlink:title=" ">
<polygon fill="white" stroke="#666666" points="537.75,-326.55 416,-326.55 416,-307.3 537.75,-307.3 537.75,-326.55"/>
<text text-anchor="middle" x="476.88" y="-313.05" font-family="Helvetica,sans-Serif" font-size="10.00">JGadget::TNodeLinkList</text>
</a>
</g>
</g>
<!-- Node8&#45;&gt;Node12 -->
<g id="edge13_Node000012_Node000008" class="edge">
<title>Node8&#45;&gt;Node12</title>
<g id="a_edge13_Node000012_Node000008"><a xlink:title=" ">
<path fill="none" stroke="#9a32cd" stroke-dasharray="5,2" d="M337.47,-293C363.42,-297.49 392.56,-302.52 417.39,-306.82"/>
<polygon fill="#9a32cd" stroke="#9a32cd" points="338.13,-289.56 327.68,-291.31 336.94,-296.46 338.13,-289.56"/>
</a>
</g>
<text text-anchor="middle" x="374.75" y="-304.68" font-family="Helvetica,sans-Serif" font-size="10.00" fill="grey"> ocObject_</text>
</g>
<!-- Node9 -->
<g id="Node000009" class="node">
<title>Node9</title>
<g id="a_Node000009"><a xlink:href="classJStudio_1_1stb_1_1TControl.html" target="_top" xlink:title=" ">
<polygon fill="white" stroke="#666666" points="1007,-301.55 898.75,-301.55 898.75,-282.3 1007,-282.3 1007,-301.55"/>
<text text-anchor="middle" x="952.88" y="-288.05" font-family="Helvetica,sans-Serif" font-size="10.00">JStudio::stb::TControl</text>
</a>
</g>
</g>
<!-- Node9&#45;&gt;Node5 -->
<g id="edge9_Node000005_Node000009" class="edge">
<title>Node9&#45;&gt;Node5</title>
<g id="a_edge9_Node000005_Node000009"><a xlink:title=" ">
<path fill="none" stroke="#9a32cd" stroke-dasharray="5,2" d="M918.62,-277.56C883.09,-263.02 824.75,-241.49 772,-232.68 688.39,-218.71 589.54,-221.28 530.37,-224.81"/>
<polygon fill="#9a32cd" stroke="#9a32cd" points="916.91,-280.63 927.48,-281.24 919.59,-274.17 916.91,-280.63"/>
</a>
</g>
<text text-anchor="middle" x="705.5" y="-233.68" font-family="Helvetica,sans-Serif" font-size="10.00" fill="grey"> pControl</text>
</g>
<!-- Node10 -->
<g id="Node000010" class="node">
<title>Node10</title>
<g id="a_Node000010"><a xlink:href="classJStudio_1_1stb_1_1TFactory.html" target="_top" xlink:title=" ">
<polygon fill="white" stroke="#666666" points="760.38,-380.55 650.62,-380.55 650.62,-361.3 760.38,-361.3 760.38,-380.55"/>
<text text-anchor="middle" x="705.5" y="-367.05" font-family="Helvetica,sans-Serif" font-size="10.00">JStudio::stb::TFactory</text>
</a>
</g>
</g>
<!-- Node10&#45;&gt;Node9 -->
<g id="edge10_Node000009_Node000010" class="edge">
<title>Node10&#45;&gt;Node9</title>
<g id="a_edge10_Node000009_Node000010"><a xlink:title=" ">
<path fill="none" stroke="#9a32cd" stroke-dasharray="5,2" d="M760,-358.05C792.25,-349.83 833.97,-338.41 870.25,-325.93 890.86,-318.83 913.72,-309.15 929.99,-301.93"/>
<polygon fill="#9a32cd" stroke="#9a32cd" points="759.33,-354.61 750.48,-360.44 761.04,-361.4 759.33,-354.61"/>
</a>
</g>
<text text-anchor="middle" x="830.12" y="-351.68" font-family="Helvetica,sans-Serif" font-size="10.00" fill="grey"> pFactory</text>
</g>
<!-- Node11 -->
<g id="Node000011" class="node">
<title>Node11</title>
<g id="a_Node000011"><a xlink:href="structJGadget_1_1TLinkList.html" target="_top" xlink:title=" ">
<polygon fill="white" stroke="#666666" points="764.12,-342.8 646.88,-342.8 646.88,-301.05 764.12,-301.05 764.12,-342.8"/>
<text text-anchor="start" x="654.88" y="-329.3" font-family="Helvetica,sans-Serif" font-size="10.00">JGadget::TLinkList</text>
<text text-anchor="start" x="654.88" y="-318.05" font-family="Helvetica,sans-Serif" font-size="10.00">&lt; JStudio::stb::TObject,</text>
<text text-anchor="middle" x="705.5" y="-306.8" font-family="Helvetica,sans-Serif" font-size="10.00"> &#45;12 &gt;</text>
</a>
</g>
</g>
<!-- Node11&#45;&gt;Node9 -->
<g id="edge11_Node000009_Node000011" class="edge">
<title>Node11&#45;&gt;Node9</title>
<g id="a_edge11_Node000009_Node000011"><a xlink:title=" ">
<path fill="none" stroke="#9a32cd" stroke-dasharray="5,2" d="M775.6,-313.48C814.59,-308.71 862.56,-302.85 898.62,-298.44"/>
<polygon fill="#9a32cd" stroke="#9a32cd" points="775.34,-309.98 765.84,-314.67 776.19,-316.93 775.34,-309.98"/>
</a>
</g>
<text text-anchor="middle" x="830.12" y="-312.68" font-family="Helvetica,sans-Serif" font-size="10.00" fill="grey"> mObjectContainer</text>
</g>
<!-- Node12&#45;&gt;Node11 -->
<g id="edge12_Node000011_Node000012" class="edge">
<title>Node12&#45;&gt;Node11</title>
<g id="a_edge12_Node000011_Node000012"><a xlink:title=" ">
<path fill="none" stroke="#63b8ff" d="M549.29,-318.5C580.59,-319.19 616.84,-319.99 646.43,-320.65"/>
<polygon fill="#63b8ff" stroke="#63b8ff" points="549.6,-315.01 539.52,-318.29 549.44,-322.01 549.6,-315.01"/>
</a>
</g>
</g>
<!-- Node13&#45;&gt;Node9 -->
<g id="edge14_Node000009_Node000013" class="edge">
<title>Node13&#45;&gt;Node9</title>
<g id="a_edge14_Node000009_Node000013"><a xlink:title=" ">
<path fill="none" stroke="#9a32cd" stroke-dasharray="5,2" d="M770.27,-270.7C800.61,-272.38 837.37,-274.94 870.25,-278.68 879.38,-279.71 889.05,-281.06 898.41,-282.5"/>
<polygon fill="#9a32cd" stroke="#9a32cd" points="770.66,-267.21 760.48,-270.18 770.28,-274.2 770.66,-267.21"/>
</a>
</g>
<text text-anchor="middle" x="830.12" y="-279.68" font-family="Helvetica,sans-Serif" font-size="10.00" fill="grey"> mObject_control</text>
</g>
<!-- Node14 -->
<g id="Node000014" class="node">
<title>Node14</title>
<g id="a_Node000014"><a xlink:href="structJStudio_1_1TVariableValue.html" target="_top" xlink:title=" ">
<polygon fill="white" stroke="#666666" points="326.38,-109.55 206.88,-109.55 206.88,-90.3 326.38,-90.3 326.38,-109.55"/>
<text text-anchor="middle" x="266.62" y="-96.05" font-family="Helvetica,sans-Serif" font-size="10.00">JStudio::TVariableValue</text>
</a>
</g>
</g>
<!-- Node14&#45;&gt;Node2 -->
<g id="edge20_Node000002_Node000014" class="edge">
<title>Node14&#45;&gt;Node2</title>
<g id="a_edge20_Node000002_Node000014"><a xlink:title=" ">
<path fill="none" stroke="#9a32cd" stroke-dasharray="5,2" d="M337.88,-96.87C420.83,-93.26 557.72,-87.31 638.69,-83.79"/>
<polygon fill="#9a32cd" stroke="#9a32cd" points="337.89,-93.37 328.06,-97.3 338.2,-100.36 337.89,-93.37"/>
</a>
</g>
<text text-anchor="middle" x="476.88" y="-94.68" font-family="Helvetica,sans-Serif" font-size="10.00" fill="grey"> mValue</text>
</g>
<!-- Node14&#45;&gt;Node3 -->
<g id="edge17_Node000003_Node000014" class="edge">
<title>Node14&#45;&gt;Node3</title>
<g id="a_edge17_Node000003_Node000014"><a xlink:title=" ">
<path fill="none" stroke="#9a32cd" stroke-dasharray="5,2" d="M338.12,-110.76C368.4,-115.41 402.94,-120.72 429.85,-124.85"/>
<polygon fill="#9a32cd" stroke="#9a32cd" points="338.66,-107.3 328.24,-109.24 337.59,-114.22 338.66,-107.3"/>
</a>
</g>
<text text-anchor="middle" x="374.75" y="-120.68" font-family="Helvetica,sans-Serif" font-size="10.00" fill="grey"> pValue_</text>
</g>
<!-- Node15 -->
<g id="Node000015" class="node">
<title>Node15</title>
<g id="a_Node000015"><a xlink:href="classJStudio_1_1TFunctionValue.html" target="_top" xlink:title=" ">
<polygon fill="white" stroke="#666666" points="121.75,-131.55 0,-131.55 0,-112.3 121.75,-112.3 121.75,-131.55"/>
<text text-anchor="middle" x="60.88" y="-118.05" font-family="Helvetica,sans-Serif" font-size="10.00">JStudio::TFunctionValue</text>
</a>
</g>
</g>
<!-- Node15&#45;&gt;Node14 -->
<g id="edge18_Node000014_Node000015" class="edge">
<title>Node15&#45;&gt;Node14</title>
<g id="a_edge18_Node000014_Node000015"><a xlink:title=" ">
<path fill="none" stroke="#9a32cd" stroke-dasharray="5,2" d="M133.34,-114.21C157.26,-111.63 183.65,-108.78 206.53,-106.31"/>
<polygon fill="#9a32cd" stroke="#9a32cd" points="133.25,-110.7 123.68,-115.25 134,-117.66 133.25,-110.7"/>
</a>
</g>
<text text-anchor="middle" x="160.75" y="-113.68" font-family="Helvetica,sans-Serif" font-size="10.00" fill="grey"> fv</text>
</g>
<!-- Node16 -->
<g id="Node000016" class="node">
<title>Node16</title>
<g id="a_Node000016"><a xlink:href="structJStudio_1_1TVariableValue_1_1TOutput.html" target="_top" xlink:title=" ">
<polygon fill="white" stroke="#666666" points="120.62,-94.18 1.13,-94.18 1.13,-63.68 120.62,-63.68 120.62,-94.18"/>
<text text-anchor="start" x="9.12" y="-80.68" font-family="Helvetica,sans-Serif" font-size="10.00">JStudio::TVariableValue</text>
<text text-anchor="middle" x="60.88" y="-69.43" font-family="Helvetica,sans-Serif" font-size="10.00">::TOutput</text>
</a>
</g>
</g>
<!-- Node16&#45;&gt;Node14 -->
<g id="edge19_Node000014_Node000016" class="edge">
<title>Node16&#45;&gt;Node14</title>
<g id="a_edge19_Node000014_Node000016"><a xlink:title=" ">
<path fill="none" stroke="#9a32cd" stroke-dasharray="5,2" d="M132.17,-84.03C148.47,-85.38 165.73,-86.95 181.75,-88.68 189.78,-89.54 198.24,-90.55 206.56,-91.61"/>
<polygon fill="#9a32cd" stroke="#9a32cd" points="132.84,-80.57 122.58,-83.25 132.27,-87.55 132.84,-80.57"/>
</a>
</g>
<text text-anchor="middle" x="160.75" y="-89.68" font-family="Helvetica,sans-Serif" font-size="10.00" fill="grey"> pOutput_</text>
</g>
<!-- Node17 -->
<g id="Node000017" class="node">
<title>Node17</title>
<g id="a_Node000017"><a xlink:href="structJStudio__JStage_1_1TAdaptor__object__.html" target="_top" xlink:title=" ">
<polygon fill="white" stroke="#666666" points="770.12,-47.18 640.88,-47.18 640.88,-16.68 770.12,-16.68 770.12,-47.18"/>
<text text-anchor="start" x="648.88" y="-33.68" font-family="Helvetica,sans-Serif" font-size="10.00">JStudio_JStage::TAdaptor</text>
<text text-anchor="middle" x="705.5" y="-22.43" font-family="Helvetica,sans-Serif" font-size="10.00">_object_</text>
</a>
</g>
</g>
<!-- Node17&#45;&gt;Node1 -->
<g id="edge21_Node000001_Node000017" class="edge">
<title>Node17&#45;&gt;Node1</title>
<g id="a_edge21_Node000001_Node000017"><a xlink:title=" ">
<path fill="none" stroke="#63b8ff" d="M781.62,-38.66C815.62,-41.71 855.39,-45.28 887.94,-48.19"/>
<polygon fill="#63b8ff" stroke="#63b8ff" points="782.11,-35.19 771.84,-37.78 781.48,-42.16 782.11,-35.19"/>
</a>
</g>
</g>
<!-- Node18 -->
<g id="Node000018" class="node">
<title>Node18</title>
<g id="a_Node000018"><a xlink:href="structJStage_1_1TSystem.html" target="_top" xlink:title=" ">
<polygon fill="white" stroke="#666666" points="522,-42.55 431.75,-42.55 431.75,-23.3 522,-23.3 522,-42.55"/>
<text text-anchor="middle" x="476.88" y="-29.05" font-family="Helvetica,sans-Serif" font-size="10.00">JStage::TSystem</text>
</a>
</g>
</g>
<!-- Node18&#45;&gt;Node17 -->
<g id="edge22_Node000017_Node000018" class="edge">
<title>Node18&#45;&gt;Node17</title>
<g id="a_edge22_Node000017_Node000018"><a xlink:title=" ">
<path fill="none" stroke="#9a32cd" stroke-dasharray="5,2" d="M533.48,-32.68C565.94,-32.54 607.03,-32.36 640.8,-32.21"/>
<polygon fill="#9a32cd" stroke="#9a32cd" points="533.88,-29.18 523.89,-32.72 533.91,-36.18 533.88,-29.18"/>
</a>
</g>
<text text-anchor="middle" x="588.38" y="-34.68" font-family="Helvetica,sans-Serif" font-size="10.00" fill="grey"> pJSGSystem_</text>
</g>
<!-- Node19 -->
<g id="Node000019" class="node">
<title>Node19</title>
<g id="a_Node000019"><a xlink:href="structJStage_1_1TObject.html" target="_top" xlink:title=" ">
<polygon fill="white" stroke="#666666" points="309.5,-19.55 223.75,-19.55 223.75,-0.3 309.5,-0.3 309.5,-19.55"/>
<text text-anchor="middle" x="266.62" y="-6.05" font-family="Helvetica,sans-Serif" font-size="10.00">JStage::TObject</text>
</a>
</g>
</g>
<!-- Node19&#45;&gt;Node17 -->
<g id="edge24_Node000017_Node000019" class="edge">
<title>Node19&#45;&gt;Node17</title>
<g id="a_edge24_Node000017_Node000019"><a xlink:title=" ">
<path fill="none" stroke="#9a32cd" stroke-dasharray="5,2" d="M321.05,-6.68C349.28,-5.13 384.5,-3.45 416,-2.68 470.09,-1.36 483.84,2.02 537.75,-2.68 572.01,-5.66 609.78,-12.02 640.7,-18.06"/>
<polygon fill="#9a32cd" stroke="#9a32cd" points="321.11,-3.18 311.33,-7.23 321.51,-10.16 321.11,-3.18"/>
</a>
</g>
<text text-anchor="middle" x="476.88" y="-4.68" font-family="Helvetica,sans-Serif" font-size="10.00" fill="grey"> pJSGObject_</text>
</g>
<!-- Node19&#45;&gt;Node18 -->
<g id="edge23_Node000018_Node000019" class="edge">
<title>Node19&#45;&gt;Node18</title>
<g id="a_edge23_Node000018_Node000019"><a xlink:title=" ">
<path fill="none" stroke="#63b8ff" d="M320.95,-15.82C355.12,-19.59 398.96,-24.43 431.28,-28"/>
<polygon fill="#63b8ff" stroke="#63b8ff" points="321.6,-12.37 311.27,-14.75 320.83,-19.32 321.6,-12.37"/>
</a>
</g>
</g>
</g>
</svg>
