<?xml version="1.0" encoding="UTF-8" standalone="no"?>
<!DOCTYPE svg PUBLIC "-//W3C//DTD SVG 1.1//EN"
 "http://www.w3.org/Graphics/SVG/1.1/DTD/svg11.dtd">
<!-- Generated by graphviz version 9.0.0 (20230911.1827)
 -->
<!-- Title: mDoExt_btkAnm Pages: 1 -->
<svg width="548pt" height="327pt"
 viewBox="0.00 0.00 547.75 327.00" xmlns="http://www.w3.org/2000/svg" xmlns:xlink="http://www.w3.org/1999/xlink">
<g id="graph0" class="graph" transform="scale(1 1) rotate(0) translate(4 323)">
<title>mDoExt_btkAnm</title>
<!-- Node1 -->
<g id="Node000001" class="node">
<title>Node1</title>
<g id="a_Node000001"><a xlink:title=" ">
<polygon fill="#999999" stroke="#666666" points="185.38,-19.25 96.62,-19.25 96.62,0 185.38,0 185.38,-19.25"/>
<text text-anchor="middle" x="141" y="-5.75" font-family="Helvetica,sans-Serif" font-size="10.00">mDoExt_btkAnm</text>
</a>
</g>
</g>
<!-- Node2 -->
<g id="Node000002" class="node">
<title>Node2</title>
<g id="a_Node000002"><a xlink:href="structmDoExt__baseAnm.html" target="_top" xlink:title=" ">
<polygon fill="white" stroke="#666666" points="126.12,-85.75 29.88,-85.75 29.88,-66.5 126.12,-66.5 126.12,-85.75"/>
<text text-anchor="middle" x="78" y="-72.25" font-family="Helvetica,sans-Serif" font-size="10.00">mDoExt_baseAnm</text>
</a>
</g>
</g>
<!-- Node2&#45;&gt;Node1 -->
<g id="edge1_Node000001_Node000002" class="edge">
<title>Node2&#45;&gt;Node1</title>
<g id="a_edge1_Node000001_Node000002"><a xlink:title=" ">
<path fill="none" stroke="#63b8ff" d="M94.76,-57.97C106.84,-45.6 122.66,-29.4 132.31,-19.52"/>
<polygon fill="#63b8ff" stroke="#63b8ff" points="92.3,-55.47 87.82,-65.07 97.31,-60.37 92.3,-55.47"/>
</a>
</g>
</g>
<!-- Node3 -->
<g id="Node000003" class="node">
<title>Node3</title>
<g id="a_Node000003"><a xlink:href="structJ3DFrameCtrl.html" target="_top" xlink:title=" ">
<polygon fill="white" stroke="#666666" points="76,-163.5 0,-163.5 0,-144.25 76,-144.25 76,-163.5"/>
<text text-anchor="middle" x="38" y="-150" font-family="Helvetica,sans-Serif" font-size="10.00">J3DFrameCtrl</text>
</a>
</g>
</g>
<!-- Node3&#45;&gt;Node2 -->
<g id="edge2_Node000002_Node000003" class="edge">
<title>Node3&#45;&gt;Node2</title>
<g id="a_edge2_Node000002_Node000003"><a xlink:title=" ">
<path fill="none" stroke="#9a32cd" stroke-dasharray="5,2" d="M48,-133.95C56.07,-118.66 67.07,-97.83 73.26,-86.1"/>
<polygon fill="#9a32cd" stroke="#9a32cd" points="45.03,-132.07 43.45,-142.55 51.22,-135.34 45.03,-132.07"/>
</a>
</g>
<text text-anchor="middle" x="90.62" y="-111.12" font-family="Helvetica,sans-Serif" font-size="10.00" fill="grey"> mFrameCtrl</text>
</g>
<!-- Node4 -->
<g id="Node000004" class="node">
<title>Node4</title>
<g id="a_Node000004"><a xlink:href="structJ3DAnmTextureSRTKey.html" target="_top" xlink:title=" ">
<polygon fill="white" stroke="#666666" points="304.88,-85.75 183.12,-85.75 183.12,-66.5 304.88,-66.5 304.88,-85.75"/>
<text text-anchor="middle" x="244" y="-72.25" font-family="Helvetica,sans-Serif" font-size="10.00">J3DAnmTextureSRTKey</text>
</a>
</g>
</g>
<!-- Node4&#45;&gt;Node1 -->
<g id="edge3_Node000001_Node000004" class="edge">
<title>Node4&#45;&gt;Node1</title>
<g id="a_edge3_Node000001_Node000004"><a xlink:title=" ">
<path fill="none" stroke="#9a32cd" stroke-dasharray="5,2" d="M220.05,-60.13C200.08,-47.62 172.29,-30.22 155.53,-19.73"/>
<polygon fill="#9a32cd" stroke="#9a32cd" points="218.06,-63.01 228.4,-65.35 221.78,-57.08 218.06,-63.01"/>
</a>
</g>
<text text-anchor="middle" x="217" y="-39" font-family="Helvetica,sans-Serif" font-size="10.00" fill="grey"> mpAnm</text>
</g>
<!-- Node5 -->
<g id="Node000005" class="node">
<title>Node5</title>
<g id="a_Node000005"><a xlink:href="classJ3DAnmBase.html" target="_top" xlink:title=" ">
<polygon fill="white" stroke="#666666" points="170,-163.5 94,-163.5 94,-144.25 170,-144.25 170,-163.5"/>
<text text-anchor="middle" x="132" y="-150" font-family="Helvetica,sans-Serif" font-size="10.00">J3DAnmBase</text>
</a>
</g>
</g>
<!-- Node5&#45;&gt;Node4 -->
<g id="edge4_Node000004_Node000005" class="edge">
<title>Node5&#45;&gt;Node4</title>
<g id="a_edge4_Node000004_Node000005"><a xlink:title=" ">
<path fill="none" stroke="#63b8ff" d="M154.57,-137.61C177.41,-122.16 211.96,-98.79 230.73,-86.1"/>
<polygon fill="#63b8ff" stroke="#63b8ff" points="152.86,-134.54 146.54,-143.04 156.79,-140.34 152.86,-134.54"/>
</a>
</g>
</g>
<!-- Node6 -->
<g id="Node000006" class="node">
<title>Node6</title>
<g id="a_Node000006"><a xlink:href="structJ3DAnmTransformKeyTable.html" target="_top" xlink:title=" ">
<polygon fill="white" stroke="#666666" points="326.12,-163.5 187.88,-163.5 187.88,-144.25 326.12,-144.25 326.12,-163.5"/>
<text text-anchor="middle" x="257" y="-150" font-family="Helvetica,sans-Serif" font-size="10.00">J3DAnmTransformKeyTable</text>
</a>
</g>
</g>
<!-- Node6&#45;&gt;Node4 -->
<g id="edge5_Node000004_Node000006" class="edge">
<title>Node6&#45;&gt;Node4</title>
<g id="a_edge5_Node000004_Node000006"><a xlink:title=" ">
<path fill="none" stroke="#9a32cd" stroke-dasharray="5,2" d="M247.41,-133.46C246.54,-131.08 245.79,-128.64 245.25,-126.25 242.15,-112.43 242.55,-95.88 243.21,-85.95"/>
<polygon fill="#9a32cd" stroke="#9a32cd" points="244.12,-134.67 251.34,-142.43 250.53,-131.86 244.12,-134.67"/>
</a>
</g>
<text text-anchor="middle" x="273.38" y="-111.12" font-family="Helvetica,sans-Serif" font-size="10.00" fill="grey"> mAnmTable</text>
</g>
<!-- Node7 -->
<g id="Node000007" class="node">
<title>Node7</title>
<g id="a_Node000007"><a xlink:href="structJ3DAnmKeyTableBase.html" target="_top" xlink:title=" ">
<polygon fill="white" stroke="#666666" points="315.25,-252.5 198.75,-252.5 198.75,-233.25 315.25,-233.25 315.25,-252.5"/>
<text text-anchor="middle" x="257" y="-239" font-family="Helvetica,sans-Serif" font-size="10.00">J3DAnmKeyTableBase</text>
</a>
</g>
</g>
<!-- Node7&#45;&gt;Node6 -->
<g id="edge6_Node000006_Node000007" class="edge">
<title>Node7&#45;&gt;Node6</title>
<g id="a_edge6_Node000006_Node000007"><a xlink:title=" ">
<path fill="none" stroke="#9a32cd" stroke-dasharray="5,2" d="M257,-221.51C257,-203.3 257,-177.47 257,-163.94"/>
<polygon fill="#9a32cd" stroke="#9a32cd" points="253.5,-221.38 257,-231.38 260.5,-221.38 253.5,-221.38"/>
</a>
</g>
<text text-anchor="middle" x="289.62" y="-205.75" font-family="Helvetica,sans-Serif" font-size="10.00" fill="grey"> mRotationInfo</text>
<text text-anchor="middle" x="289.62" y="-194.5" font-family="Helvetica,sans-Serif" font-size="10.00" fill="grey">mScaleInfo</text>
<text text-anchor="middle" x="289.62" y="-183.25" font-family="Helvetica,sans-Serif" font-size="10.00" fill="grey">mTranslateInfo</text>
</g>
<!-- Node8 -->
<g id="Node000008" class="node">
<title>Node8</title>
<g id="a_Node000008"><a xlink:href="structJUTNameTab.html" target="_top" xlink:title=" ">
<polygon fill="white" stroke="#666666" points="421.75,-163.5 344.25,-163.5 344.25,-144.25 421.75,-144.25 421.75,-163.5"/>
<text text-anchor="middle" x="383" y="-150" font-family="Helvetica,sans-Serif" font-size="10.00">JUTNameTab</text>
</a>
</g>
</g>
<!-- Node8&#45;&gt;Node4 -->
<g id="edge7_Node000004_Node000008" class="edge">
<title>Node8&#45;&gt;Node4</title>
<g id="a_edge7_Node000004_Node000008"><a xlink:title=" ">
<path fill="none" stroke="#9a32cd" stroke-dasharray="5,2" d="M346.73,-139.28C338.62,-135.57 330.28,-131.19 323,-126.25 311.17,-118.22 311.73,-111.93 300,-103.75 289.93,-96.73 277.73,-90.68 267.28,-86.13"/>
<polygon fill="#9a32cd" stroke="#9a32cd" points="345.18,-142.42 355.74,-143.16 347.94,-135.99 345.18,-142.42"/>
</a>
</g>
<text text-anchor="middle" x="384.5" y="-116.75" font-family="Helvetica,sans-Serif" font-size="10.00" fill="grey"> mPostUpdateMaterialName</text>
<text text-anchor="middle" x="384.5" y="-105.5" font-family="Helvetica,sans-Serif" font-size="10.00" fill="grey">mUpdateMaterialName</text>
</g>
<!-- Node9 -->
<g id="Node000009" class="node">
<title>Node9</title>
<g id="a_Node000009"><a xlink:href="structResNTAB.html" target="_top" xlink:title=" ">
<polygon fill="white" stroke="#666666" points="413.12,-252.5 352.88,-252.5 352.88,-233.25 413.12,-233.25 413.12,-252.5"/>
<text text-anchor="middle" x="383" y="-239" font-family="Helvetica,sans-Serif" font-size="10.00">ResNTAB</text>
</a>
</g>
</g>
<!-- Node9&#45;&gt;Node8 -->
<g id="edge8_Node000008_Node000009" class="edge">
<title>Node9&#45;&gt;Node8</title>
<g id="a_edge8_Node000008_Node000009"><a xlink:title=" ">
<path fill="none" stroke="#9a32cd" stroke-dasharray="5,2" d="M383,-221.51C383,-203.3 383,-177.47 383,-163.94"/>
<polygon fill="#9a32cd" stroke="#9a32cd" points="379.5,-221.38 383,-231.38 386.5,-221.38 379.5,-221.38"/>
</a>
</g>
<text text-anchor="middle" x="413.38" y="-194.5" font-family="Helvetica,sans-Serif" font-size="10.00" fill="grey"> mNameTable</text>
</g>
<!-- Node10 -->
<g id="Node000010" class="node">
<title>Node10</title>
<g id="a_Node000010"><a xlink:href="structResNTAB_1_1Entry.html" target="_top" xlink:title=" ">
<polygon fill="white" stroke="#666666" points="426.25,-319 339.75,-319 339.75,-299.75 426.25,-299.75 426.25,-319"/>
<text text-anchor="middle" x="383" y="-305.5" font-family="Helvetica,sans-Serif" font-size="10.00">ResNTAB::Entry</text>
</a>
</g>
</g>
<!-- Node10&#45;&gt;Node9 -->
<g id="edge9_Node000009_Node000010" class="edge">
<title>Node10&#45;&gt;Node9</title>
<g id="a_edge9_Node000009_Node000010"><a xlink:title=" ">
<path fill="none" stroke="#9a32cd" stroke-dasharray="5,2" d="M383,-287.9C383,-276.07 383,-261.79 383,-252.77"/>
<polygon fill="#9a32cd" stroke="#9a32cd" points="379.5,-287.89 383,-297.89 386.5,-287.89 379.5,-287.89"/>
</a>
</g>
<text text-anchor="middle" x="403.25" y="-272.25" font-family="Helvetica,sans-Serif" font-size="10.00" fill="grey"> mEntries</text>
</g>
<!-- Node11 -->
<g id="Node000011" class="node">
<title>Node11</title>
<g id="a_Node000011"><a xlink:href="structVec.html" target="_top" xlink:title=" ">
<polygon fill="white" stroke="#666666" points="484.62,-163.5 451.38,-163.5 451.38,-144.25 484.62,-144.25 484.62,-163.5"/>
<text text-anchor="middle" x="468" y="-150" font-family="Helvetica,sans-Serif" font-size="10.00">Vec</text>
</a>
</g>
</g>
<!-- Node11&#45;&gt;Node4 -->
<g id="edge10_Node000004_Node000011" class="edge">
<title>Node11&#45;&gt;Node4</title>
<g id="a_edge10_Node000004_Node000011"><a xlink:title=" ">
<path fill="none" stroke="#9a32cd" stroke-dasharray="5,2" d="M463.98,-132.95C460.84,-122.62 455.37,-110.73 446,-103.75 424.3,-87.58 356.39,-81.23 305.25,-78.73"/>
<polygon fill="#9a32cd" stroke="#9a32cd" points="460.54,-133.63 466.33,-142.5 467.34,-131.96 460.54,-133.63"/>
</a>
</g>
<text text-anchor="middle" x="500.38" y="-116.75" font-family="Helvetica,sans-Serif" font-size="10.00" fill="grey"> mPostSRTCenter</text>
<text text-anchor="middle" x="500.38" y="-105.5" font-family="Helvetica,sans-Serif" font-size="10.00" fill="grey">mSRTCenter</text>
</g>
</g>
</svg>
