<?xml version="1.0" encoding="UTF-8" standalone="no"?>
<!DOCTYPE svg PUBLIC "-//W3C//DTD SVG 1.1//EN"
 "http://www.w3.org/Graphics/SVG/1.1/DTD/svg11.dtd">
<!-- Generated by graphviz version 9.0.0 (20230911.1827)
 -->
<!-- Title: DynamicModuleControl Pages: 1 -->
<svg width="1907pt" height="669pt"
 viewBox="0.00 0.00 1907.25 668.75" xmlns="http://www.w3.org/2000/svg" xmlns:xlink="http://www.w3.org/1999/xlink">
<g id="graph0" class="graph" transform="scale(1 1) rotate(0) translate(4 664.75)">
<title>DynamicModuleControl</title>
<!-- Node1 -->
<g id="Node000001" class="node">
<title>Node1</title>
<g id="a_Node000001"><a xlink:title=" ">
<polygon fill="#999999" stroke="#666666" points="1899.25,-450.25 1783.5,-450.25 1783.5,-431 1899.25,-431 1899.25,-450.25"/>
<text text-anchor="middle" x="1841.38" y="-436.75" font-family="Helvetica,sans-Serif" font-size="10.00">DynamicModuleControl</text>
</a>
</g>
</g>
<!-- Node2 -->
<g id="Node000002" class="node">
<title>Node2</title>
<g id="a_Node000002"><a xlink:href="structDynamicModuleControlBase.html" target="_top" xlink:title=" ">
<polygon fill="white" stroke="#666666" points="1650.75,-524.25 1512.5,-524.25 1512.5,-505 1650.75,-505 1650.75,-524.25"/>
<text text-anchor="middle" x="1581.62" y="-510.75" font-family="Helvetica,sans-Serif" font-size="10.00">DynamicModuleControlBase</text>
</a>
</g>
</g>
<!-- Node2&#45;&gt;Node1 -->
<g id="edge1_Node000001_Node000002" class="edge">
<title>Node2&#45;&gt;Node1</title>
<g id="a_edge1_Node000001_Node000002"><a xlink:title=" ">
<path fill="none" stroke="#63b8ff" d="M1662.16,-505.97C1694.8,-500.96 1732.58,-493.27 1765.5,-481.63 1787.58,-473.82 1810.92,-460.04 1825.56,-450.62"/>
<polygon fill="#63b8ff" stroke="#63b8ff" points="1661.73,-502.49 1652.35,-507.41 1662.75,-509.42 1661.73,-502.49"/>
</a>
</g>
</g>
<!-- Node2&#45;&gt;Node2 -->
<g id="edge2_Node000002_Node000002" class="edge">
<title>Node2&#45;&gt;Node2</title>
<g id="a_edge2_Node000002_Node000002"><a xlink:title=" ">
<path fill="none" stroke="#9a32cd" stroke-dasharray="5,2" d="M1560.24,-535.65C1562.91,-539.53 1570.04,-542.25 1581.62,-542.25 1602.81,-542.25 1609.09,-533.15 1600.49,-524.54"/>
<polygon fill="#9a32cd" stroke="#9a32cd" points="1563.62,-536.54 1562.42,-526.02 1556.8,-534.99 1563.62,-536.54"/>
</a>
</g>
<text text-anchor="middle" x="1581.62" y="-577.75" font-family="Helvetica,sans-Serif" font-size="10.00" fill="grey"> mFirst</text>
<text text-anchor="middle" x="1581.62" y="-566.5" font-family="Helvetica,sans-Serif" font-size="10.00" fill="grey">mLast</text>
<text text-anchor="middle" x="1581.62" y="-555.25" font-family="Helvetica,sans-Serif" font-size="10.00" fill="grey">mNext</text>
<text text-anchor="middle" x="1581.62" y="-544" font-family="Helvetica,sans-Serif" font-size="10.00" fill="grey">mPrev</text>
</g>
<!-- Node3 -->
<g id="Node000003" class="node">
<title>Node3</title>
<g id="a_Node000003"><a xlink:href="structOSModuleHeader.html" target="_top" xlink:title=" ">
<polygon fill="white" stroke="#666666" points="1628.25,-283.25 1535,-283.25 1535,-264 1628.25,-264 1628.25,-283.25"/>
<text text-anchor="middle" x="1581.62" y="-269.75" font-family="Helvetica,sans-Serif" font-size="10.00">OSModuleHeader</text>
</a>
</g>
</g>
<!-- Node3&#45;&gt;Node1 -->
<g id="edge3_Node000001_Node000003" class="edge">
<title>Node3&#45;&gt;Node1</title>
<g id="a_edge3_Node000001_Node000003"><a xlink:title=" ">
<path fill="none" stroke="#9a32cd" stroke-dasharray="5,2" d="M1615.74,-288.49C1653.5,-306.1 1716.35,-337.5 1765.5,-372.38 1791.03,-390.5 1817.26,-416.42 1830.87,-430.53"/>
<polygon fill="#9a32cd" stroke="#9a32cd" points="1617.25,-285.33 1606.7,-284.32 1614.31,-291.69 1617.25,-285.33"/>
</a>
</g>
<text text-anchor="middle" x="1717.12" y="-373.38" font-family="Helvetica,sans-Serif" font-size="10.00" fill="grey"> mModule</text>
</g>
<!-- Node4 -->
<g id="Node000004" class="node">
<title>Node4</title>
<g id="a_Node000004"><a xlink:href="structOSModuleInfo.html" target="_top" xlink:title=" ">
<polygon fill="white" stroke="#666666" points="1384.62,-225.25 1306.38,-225.25 1306.38,-206 1384.62,-206 1384.62,-225.25"/>
<text text-anchor="middle" x="1345.5" y="-211.75" font-family="Helvetica,sans-Serif" font-size="10.00">OSModuleInfo</text>
</a>
</g>
</g>
<!-- Node4&#45;&gt;Node3 -->
<g id="edge4_Node000003_Node000004" class="edge">
<title>Node4&#45;&gt;Node3</title>
<g id="a_edge4_Node000003_Node000004"><a xlink:title=" ">
<path fill="none" stroke="#9a32cd" stroke-dasharray="5,2" d="M1396.07,-221.36C1425.08,-225.35 1462.22,-231.55 1494.5,-240.38 1516.76,-246.47 1541.23,-256.23 1558.38,-263.6"/>
<polygon fill="#9a32cd" stroke="#9a32cd" points="1396.86,-217.93 1386.48,-220.09 1395.94,-224.87 1396.86,-217.93"/>
</a>
</g>
<text text-anchor="middle" x="1461.12" y="-241.38" font-family="Helvetica,sans-Serif" font-size="10.00" fill="grey"> info</text>
</g>
<!-- Node5 -->
<g id="Node000005" class="node">
<title>Node5</title>
<g id="a_Node000005"><a xlink:href="structOSModuleLink.html" target="_top" xlink:title=" ">
<polygon fill="white" stroke="#666666" points="1621.88,-192.25 1541.38,-192.25 1541.38,-173 1621.88,-173 1621.88,-192.25"/>
<text text-anchor="middle" x="1581.62" y="-178.75" font-family="Helvetica,sans-Serif" font-size="10.00">OSModuleLink</text>
</a>
</g>
</g>
<!-- Node4&#45;&gt;Node5 -->
<g id="edge6_Node000005_Node000004" class="edge">
<title>Node4&#45;&gt;Node5</title>
<g id="a_edge6_Node000005_Node000004"><a xlink:title=" ">
<path fill="none" stroke="#9a32cd" stroke-dasharray="5,2" d="M1395.58,-205.64C1400.62,-203.47 1405.46,-200.84 1409.75,-197.63 1421.75,-188.65 1414.63,-176.36 1427.75,-169.13 1468.47,-146.69 1524.71,-161.11 1556.39,-172.57"/>
<polygon fill="#9a32cd" stroke="#9a32cd" points="1394.67,-202.25 1386.46,-208.95 1397.06,-208.83 1394.67,-202.25"/>
</a>
</g>
<text text-anchor="middle" x="1461.12" y="-182.63" font-family="Helvetica,sans-Serif" font-size="10.00" fill="grey"> next</text>
<text text-anchor="middle" x="1461.12" y="-171.38" font-family="Helvetica,sans-Serif" font-size="10.00" fill="grey">prev</text>
</g>
<!-- Node5&#45;&gt;Node4 -->
<g id="edge5_Node000004_Node000005" class="edge">
<title>Node5&#45;&gt;Node4</title>
<g id="a_edge5_Node000004_Node000005"><a xlink:title=" ">
<path fill="none" stroke="#9a32cd" stroke-dasharray="5,2" d="M1529.82,-189.79C1486.25,-195.93 1424.44,-204.64 1384.9,-210.22"/>
<polygon fill="#9a32cd" stroke="#9a32cd" points="1530.12,-193.28 1539.53,-188.42 1529.14,-186.35 1530.12,-193.28"/>
</a>
</g>
<text text-anchor="middle" x="1461.12" y="-206.38" font-family="Helvetica,sans-Serif" font-size="10.00" fill="grey"> link</text>
</g>
<!-- Node6 -->
<g id="Node000006" class="node">
<title>Node6</title>
<g id="a_Node000006"><a xlink:href="classmDoDvdThd__callback__c.html" target="_top" xlink:title=" ">
<polygon fill="white" stroke="#666666" points="1642.5,-487.25 1520.75,-487.25 1520.75,-468 1642.5,-468 1642.5,-487.25"/>
<text text-anchor="middle" x="1581.62" y="-473.75" font-family="Helvetica,sans-Serif" font-size="10.00">mDoDvdThd_callback_c</text>
</a>
</g>
</g>
<!-- Node6&#45;&gt;Node1 -->
<g id="edge7_Node000001_Node000006" class="edge">
<title>Node6&#45;&gt;Node1</title>
<g id="a_edge7_Node000001_Node000006"><a xlink:title=" ">
<path fill="none" stroke="#9a32cd" stroke-dasharray="5,2" d="M1654.03,-468.95C1687.86,-464.67 1728.81,-459.22 1765.5,-453.63 1771.37,-452.73 1777.49,-451.75 1783.59,-450.74"/>
<polygon fill="#9a32cd" stroke="#9a32cd" points="1653.83,-465.45 1644.34,-470.17 1654.7,-472.4 1653.83,-465.45"/>
</a>
</g>
<text text-anchor="middle" x="1717.12" y="-468.38" font-family="Helvetica,sans-Serif" font-size="10.00" fill="grey"> mAsyncLoadCallback</text>
</g>
<!-- Node7 -->
<g id="Node000007" class="node">
<title>Node7</title>
<g id="a_Node000007"><a xlink:href="classmDoDvdThd__command__c.html" target="_top" xlink:title=" ">
<polygon fill="white" stroke="#666666" points="1409.75,-597.25 1281.25,-597.25 1281.25,-578 1409.75,-578 1409.75,-597.25"/>
<text text-anchor="middle" x="1345.5" y="-583.75" font-family="Helvetica,sans-Serif" font-size="10.00">mDoDvdThd_command_c</text>
</a>
</g>
</g>
<!-- Node7&#45;&gt;Node6 -->
<g id="edge8_Node000006_Node000007" class="edge">
<title>Node7&#45;&gt;Node6</title>
<g id="a_edge8_Node000006_Node000007"><a xlink:title=" ">
<path fill="none" stroke="#63b8ff" d="M1420.92,-577.38C1446.81,-570.6 1474.37,-559.34 1494.5,-540.63 1510.28,-525.96 1496.37,-509.9 1512.5,-495.63 1516.07,-492.47 1520.14,-489.85 1524.46,-487.69"/>
<polygon fill="#63b8ff" stroke="#63b8ff" points="1420.33,-573.92 1411.42,-579.66 1421.97,-580.73 1420.33,-573.92"/>
</a>
</g>
</g>
<!-- Node8 -->
<g id="Node000008" class="node">
<title>Node8</title>
<g id="a_Node000008"><a xlink:href="structnode__class.html" target="_top" xlink:title=" ">
<polygon fill="white" stroke="#666666" points="1155.25,-620.25 1089.75,-620.25 1089.75,-601 1155.25,-601 1155.25,-620.25"/>
<text text-anchor="middle" x="1122.5" y="-606.75" font-family="Helvetica,sans-Serif" font-size="10.00">node_class</text>
</a>
</g>
</g>
<!-- Node8&#45;&gt;Node7 -->
<g id="edge9_Node000007_Node000008" class="edge">
<title>Node8&#45;&gt;Node7</title>
<g id="a_edge9_Node000007_Node000008"><a xlink:title=" ">
<path fill="none" stroke="#63b8ff" d="M1167,-606.1C1199.46,-602.72 1244.32,-598.05 1280.82,-594.26"/>
<polygon fill="#63b8ff" stroke="#63b8ff" points="1166.72,-602.61 1157.14,-607.13 1167.45,-609.57 1166.72,-602.61"/>
</a>
</g>
</g>
<!-- Node8&#45;&gt;Node8 -->
<g id="edge10_Node000008_Node000008" class="edge">
<title>Node8&#45;&gt;Node8</title>
<g id="a_edge10_Node000008_Node000008"><a xlink:title=" ">
<path fill="none" stroke="#9a32cd" stroke-dasharray="5,2" d="M1105.17,-631.65C1107.34,-635.53 1113.12,-638.25 1122.5,-638.25 1139.66,-638.25 1144.76,-629.15 1137.78,-620.54"/>
<polygon fill="#9a32cd" stroke="#9a32cd" points="1108.58,-632.5 1106.94,-622.03 1101.69,-631.23 1108.58,-632.5"/>
</a>
</g>
<text text-anchor="middle" x="1122.5" y="-651.25" font-family="Helvetica,sans-Serif" font-size="10.00" fill="grey"> mpNextNode</text>
<text text-anchor="middle" x="1122.5" y="-640" font-family="Helvetica,sans-Serif" font-size="10.00" fill="grey">mpPrevNode</text>
</g>
<!-- Node9 -->
<g id="Node000009" class="node">
<title>Node9</title>
<g id="a_Node000009"><a xlink:href="classJKRArchive.html" target="_top" xlink:title=" ">
<polygon fill="white" stroke="#666666" points="1615.5,-369.25 1547.75,-369.25 1547.75,-350 1615.5,-350 1615.5,-369.25"/>
<text text-anchor="middle" x="1581.62" y="-355.75" font-family="Helvetica,sans-Serif" font-size="10.00">JKRArchive</text>
</a>
</g>
</g>
<!-- Node9&#45;&gt;Node1 -->
<g id="edge11_Node000001_Node000009" class="edge">
<title>Node9&#45;&gt;Node1</title>
<g id="a_edge11_Node000001_Node000009"><a xlink:title=" ">
<path fill="none" stroke="#9a32cd" stroke-dasharray="5,2" d="M1625.51,-373.1C1676.98,-389.28 1762.11,-416.03 1808.25,-430.53"/>
<polygon fill="#9a32cd" stroke="#9a32cd" points="1626.78,-369.84 1616.19,-370.18 1624.68,-376.51 1626.78,-369.84"/>
</a>
</g>
<text text-anchor="middle" x="1717.12" y="-418.38" font-family="Helvetica,sans-Serif" font-size="10.00" fill="grey"> sArchive</text>
</g>
<!-- Node10 -->
<g id="Node000010" class="node">
<title>Node10</title>
<g id="a_Node000010"><a xlink:href="classJKRFileLoader.html" target="_top" xlink:title=" ">
<polygon fill="white" stroke="#666666" points="1385.75,-469.25 1305.25,-469.25 1305.25,-450 1385.75,-450 1385.75,-469.25"/>
<text text-anchor="middle" x="1345.5" y="-455.75" font-family="Helvetica,sans-Serif" font-size="10.00">JKRFileLoader</text>
</a>
</g>
</g>
<!-- Node10&#45;&gt;Node9 -->
<g id="edge12_Node000009_Node000010" class="edge">
<title>Node10&#45;&gt;Node9</title>
<g id="a_edge12_Node000009_Node000010"><a xlink:title=" ">
<path fill="none" stroke="#63b8ff" d="M1380.3,-445.19C1428.39,-424.65 1515.36,-387.51 1557.07,-369.69"/>
<polygon fill="#63b8ff" stroke="#63b8ff" points="1379.02,-441.93 1371.2,-449.08 1381.77,-448.37 1379.02,-441.93"/>
</a>
</g>
</g>
<!-- Node10&#45;&gt;Node10 -->
<g id="edge44_Node000010_Node000010" class="edge">
<title>Node10&#45;&gt;Node10</title>
<g id="a_edge44_Node000010_Node000010"><a xlink:title=" ">
<path fill="none" stroke="#9a32cd" stroke-dasharray="5,2" d="M1324.98,-480.65C1327.54,-484.53 1334.38,-487.25 1345.5,-487.25 1365.82,-487.25 1371.86,-478.15 1363.6,-469.54"/>
<polygon fill="#9a32cd" stroke="#9a32cd" points="1328.37,-481.54 1327.08,-471.02 1321.53,-480.05 1328.37,-481.54"/>
</a>
</g>
<text text-anchor="middle" x="1345.5" y="-489" font-family="Helvetica,sans-Serif" font-size="10.00" fill="grey"> sCurrentVolume</text>
</g>
<!-- Node32 -->
<g id="Node000032" class="node">
<title>Node32</title>
<g id="a_Node000032"><a xlink:href="classJKRFileCache.html" target="_top" xlink:title=" ">
<polygon fill="white" stroke="#666666" points="1620.75,-450.25 1542.5,-450.25 1542.5,-431 1620.75,-431 1620.75,-450.25"/>
<text text-anchor="middle" x="1581.62" y="-436.75" font-family="Helvetica,sans-Serif" font-size="10.00">JKRFileCache</text>
</a>
</g>
</g>
<!-- Node10&#45;&gt;Node32 -->
<g id="edge52_Node000032_Node000010" class="edge">
<title>Node10&#45;&gt;Node32</title>
<g id="a_edge52_Node000032_Node000010"><a xlink:title=" ">
<path fill="none" stroke="#63b8ff" d="M1397.47,-457.79C1426.04,-456.53 1462.29,-454.55 1494.5,-451.63 1510.11,-450.21 1527.25,-448.13 1542.11,-446.16"/>
<polygon fill="#63b8ff" stroke="#63b8ff" points="1397.49,-454.29 1387.64,-458.21 1397.78,-461.28 1397.49,-454.29"/>
</a>
</g>
</g>
<!-- Node11 -->
<g id="Node000011" class="node">
<title>Node11</title>
<g id="a_Node000011"><a xlink:href="classJKRDisposer.html" target="_top" xlink:title=" ">
<polygon fill="white" stroke="#666666" points="1159,-452.25 1086,-452.25 1086,-433 1159,-433 1159,-452.25"/>
<text text-anchor="middle" x="1122.5" y="-438.75" font-family="Helvetica,sans-Serif" font-size="10.00">JKRDisposer</text>
</a>
</g>
</g>
<!-- Node11&#45;&gt;Node10 -->
<g id="edge13_Node000010_Node000011" class="edge">
<title>Node11&#45;&gt;Node10</title>
<g id="a_edge13_Node000010_Node000011"><a xlink:title=" ">
<path fill="none" stroke="#63b8ff" d="M1170.8,-446.27C1210.71,-449.34 1267.18,-453.68 1304.78,-456.57"/>
<polygon fill="#63b8ff" stroke="#63b8ff" points="1171.25,-442.79 1161.01,-445.51 1170.71,-449.77 1171.25,-442.79"/>
</a>
</g>
</g>
<!-- Node12 -->
<g id="Node000012" class="node">
<title>Node12</title>
<g id="a_Node000012"><a xlink:href="structJKRHeap.html" target="_top" xlink:title=" ">
<polygon fill="white" stroke="#666666" points="914,-397.25 856,-397.25 856,-378 914,-378 914,-397.25"/>
<text text-anchor="middle" x="885" y="-383.75" font-family="Helvetica,sans-Serif" font-size="10.00">JKRHeap</text>
</a>
</g>
</g>
<!-- Node11&#45;&gt;Node12 -->
<g id="edge15_Node000012_Node000011" class="edge">
<title>Node11&#45;&gt;Node12</title>
<g id="a_edge15_Node000012_Node000011"><a xlink:title=" ">
<path fill="none" stroke="#63b8ff" d="M1074.42,-451.27C1037.96,-455.88 986.87,-457.74 945.5,-441.63 922.62,-432.72 903.08,-410.54 893.1,-397.54"/>
<polygon fill="#63b8ff" stroke="#63b8ff" points="1074.8,-454.75 1084.22,-449.9 1073.83,-447.82 1074.8,-454.75"/>
</a>
</g>
</g>
<!-- Node12&#45;&gt;Node9 -->
<g id="edge47_Node000009_Node000012" class="edge">
<title>Node12&#45;&gt;Node9</title>
<g id="a_edge47_Node000009_Node000012"><a xlink:title=" ">
<path fill="none" stroke="#9a32cd" stroke-dasharray="5,2" d="M924.79,-373.98C994.87,-350.12 1147.72,-301.74 1281.25,-284.63 1337.9,-277.37 1353.32,-275.86 1409.75,-284.63 1471.22,-294.18 1536.6,-331.59 1565.45,-349.7"/>
<polygon fill="#9a32cd" stroke="#9a32cd" points="924.03,-370.54 915.7,-377.1 926.3,-377.16 924.03,-370.54"/>
</a>
</g>
<text text-anchor="middle" x="1220.12" y="-303.38" font-family="Helvetica,sans-Serif" font-size="10.00" fill="grey"> mHeap</text>
</g>
<!-- Node12&#45;&gt;Node11 -->
<g id="edge14_Node000011_Node000012" class="edge">
<title>Node12&#45;&gt;Node11</title>
<g id="a_edge14_Node000011_Node000012"><a xlink:title=" ">
<path fill="none" stroke="#9a32cd" stroke-dasharray="5,2" d="M924.08,-401.31C931.15,-403.6 938.51,-405.81 945.5,-407.63 999.1,-421.54 1013.78,-419.14 1068,-430.38 1073.69,-431.56 1079.71,-432.87 1085.57,-434.19"/>
<polygon fill="#9a32cd" stroke="#9a32cd" points="925.34,-398.04 914.74,-398.18 923.11,-404.68 925.34,-398.04"/>
</a>
</g>
<text text-anchor="middle" x="1006.75" y="-431.38" font-family="Helvetica,sans-Serif" font-size="10.00" fill="grey"> mHeap</text>
</g>
<!-- Node12&#45;&gt;Node12 -->
<g id="edge39_Node000012_Node000012" class="edge">
<title>Node12&#45;&gt;Node12</title>
<g id="a_edge39_Node000012_Node000012"><a xlink:title=" ">
<path fill="none" stroke="#9a32cd" stroke-dasharray="5,2" d="M863.39,-408.65C866.09,-412.53 873.3,-415.25 885,-415.25 906.4,-415.25 912.75,-406.15 904.06,-397.54"/>
<polygon fill="#9a32cd" stroke="#9a32cd" points="866.78,-409.55 865.6,-399.02 859.95,-407.98 866.78,-409.55"/>
</a>
</g>
<text text-anchor="middle" x="885" y="-450.75" font-family="Helvetica,sans-Serif" font-size="10.00" fill="grey"> sCurrentHeap</text>
<text text-anchor="middle" x="885" y="-439.5" font-family="Helvetica,sans-Serif" font-size="10.00" fill="grey">sRootHeap</text>
<text text-anchor="middle" x="885" y="-428.25" font-family="Helvetica,sans-Serif" font-size="10.00" fill="grey">sRootHeap2</text>
<text text-anchor="middle" x="885" y="-417" font-family="Helvetica,sans-Serif" font-size="10.00" fill="grey">sSystemHeap</text>
</g>
<!-- Node12&#45;&gt;Node32 -->
<g id="edge53_Node000032_Node000012" class="edge">
<title>Node12&#45;&gt;Node32</title>
<g id="a_edge53_Node000032_Node000012"><a xlink:title=" ">
<path fill="none" stroke="#9a32cd" stroke-dasharray="5,2" d="M925.49,-390.64C1048.12,-400 1421.37,-428.48 1542.34,-437.71"/>
<polygon fill="#9a32cd" stroke="#9a32cd" points="925.84,-387.16 915.6,-389.89 925.3,-394.14 925.84,-387.16"/>
</a>
</g>
<text text-anchor="middle" x="1220.12" y="-417.38" font-family="Helvetica,sans-Serif" font-size="10.00" fill="grey"> mParentHeap</text>
</g>
<!-- Node13 -->
<g id="Node000013" class="node">
<title>Node13</title>
<g id="a_Node000013"><a xlink:href="structOSMutex.html" target="_top" xlink:title=" ">
<polygon fill="white" stroke="#666666" points="645,-157.25 588.5,-157.25 588.5,-138 645,-138 645,-157.25"/>
<text text-anchor="middle" x="616.75" y="-143.75" font-family="Helvetica,sans-Serif" font-size="10.00">OSMutex</text>
</a>
</g>
</g>
<!-- Node13&#45;&gt;Node12 -->
<g id="edge16_Node000012_Node000013" class="edge">
<title>Node13&#45;&gt;Node12</title>
<g id="a_edge16_Node000012_Node000013"><a xlink:title=" ">
<path fill="none" stroke="#9a32cd" stroke-dasharray="5,2" d="M630.02,-166.99C643.32,-186.84 666.09,-217.69 691.5,-238.63 743.17,-281.21 780.87,-258.6 824.5,-309.38 840.23,-327.69 827.59,-341.64 842.5,-360.63 847.92,-367.52 855.6,-373.21 862.89,-377.56"/>
<polygon fill="#9a32cd" stroke="#9a32cd" points="633.03,-165.2 624.63,-158.74 627.17,-169.02 633.03,-165.2"/>
</a>
</g>
<text text-anchor="middle" x="758" y="-310.38" font-family="Helvetica,sans-Serif" font-size="10.00" fill="grey"> mMutex</text>
</g>
<!-- Node15 -->
<g id="Node000015" class="node">
<title>Node15</title>
<g id="a_Node000015"><a xlink:href="structOSThread.html" target="_top" xlink:title=" ">
<polygon fill="white" stroke="#666666" points="1152.62,-127.25 1092.38,-127.25 1092.38,-108 1152.62,-108 1152.62,-127.25"/>
<text text-anchor="middle" x="1122.5" y="-113.75" font-family="Helvetica,sans-Serif" font-size="10.00">OSThread</text>
</a>
</g>
</g>
<!-- Node13&#45;&gt;Node15 -->
<g id="edge23_Node000015_Node000013" class="edge">
<title>Node13&#45;&gt;Node15</title>
<g id="a_edge23_Node000015_Node000013"><a xlink:title=" ">
<path fill="none" stroke="#9a32cd" stroke-dasharray="5,2" d="M656.52,-145.32C753.68,-139.53 1005.99,-124.51 1092.16,-119.38"/>
<polygon fill="#9a32cd" stroke="#9a32cd" points="656.48,-141.82 646.7,-145.9 656.89,-148.8 656.48,-141.82"/>
</a>
</g>
<text text-anchor="middle" x="885" y="-136.38" font-family="Helvetica,sans-Serif" font-size="10.00" fill="grey"> mutex</text>
</g>
<!-- Node18 -->
<g id="Node000018" class="node">
<title>Node18</title>
<g id="a_Node000018"><a xlink:href="structOSMutexQueue.html" target="_top" xlink:title=" ">
<polygon fill="white" stroke="#666666" points="927.5,-196.25 842.5,-196.25 842.5,-177 927.5,-177 927.5,-196.25"/>
<text text-anchor="middle" x="885" y="-182.75" font-family="Helvetica,sans-Serif" font-size="10.00">OSMutexQueue</text>
</a>
</g>
</g>
<!-- Node13&#45;&gt;Node18 -->
<g id="edge25_Node000018_Node000013" class="edge">
<title>Node13&#45;&gt;Node18</title>
<g id="a_edge25_Node000018_Node000013"><a xlink:title=" ">
<path fill="none" stroke="#9a32cd" stroke-dasharray="5,2" d="M656.59,-155.44C667.83,-157.58 680.13,-159.81 691.5,-161.63 743.25,-169.89 803.16,-177.34 842.22,-181.92"/>
<polygon fill="#9a32cd" stroke="#9a32cd" points="657.32,-152.02 646.84,-153.55 655.99,-158.89 657.32,-152.02"/>
</a>
</g>
<text text-anchor="middle" x="758" y="-193.63" font-family="Helvetica,sans-Serif" font-size="10.00" fill="grey"> head</text>
<text text-anchor="middle" x="758" y="-182.38" font-family="Helvetica,sans-Serif" font-size="10.00" fill="grey">tail</text>
</g>
<!-- Node19 -->
<g id="Node000019" class="node">
<title>Node19</title>
<g id="a_Node000019"><a xlink:href="structOSMutexLink.html" target="_top" xlink:title=" ">
<polygon fill="white" stroke="#666666" points="922.62,-27.25 847.38,-27.25 847.38,-8 922.62,-8 922.62,-27.25"/>
<text text-anchor="middle" x="885" y="-13.75" font-family="Helvetica,sans-Serif" font-size="10.00">OSMutexLink</text>
</a>
</g>
</g>
<!-- Node13&#45;&gt;Node19 -->
<g id="edge28_Node000019_Node000013" class="edge">
<title>Node13&#45;&gt;Node19</title>
<g id="a_edge28_Node000019_Node000013"><a xlink:title=" ">
<path fill="none" stroke="#9a32cd" stroke-dasharray="5,2" d="M622.86,-126.83C631.41,-97.08 651.74,-43.41 691.5,-20.13 739.38,7.9 806.11,0.63 847.11,-7.94"/>
<polygon fill="#9a32cd" stroke="#9a32cd" points="619.57,-125.59 620.37,-136.16 626.33,-127.4 619.57,-125.59"/>
</a>
</g>
<text text-anchor="middle" x="758" y="-33.63" font-family="Helvetica,sans-Serif" font-size="10.00" fill="grey"> next</text>
<text text-anchor="middle" x="758" y="-22.38" font-family="Helvetica,sans-Serif" font-size="10.00" fill="grey">prev</text>
</g>
<!-- Node14 -->
<g id="Node000014" class="node">
<title>Node14</title>
<g id="a_Node000014"><a xlink:href="structOSThreadQueue.html" target="_top" xlink:title=" ">
<polygon fill="white" stroke="#666666" points="1389.88,-188.25 1301.12,-188.25 1301.12,-169 1389.88,-169 1389.88,-188.25"/>
<text text-anchor="middle" x="1345.5" y="-174.75" font-family="Helvetica,sans-Serif" font-size="10.00">OSThreadQueue</text>
</a>
</g>
</g>
<!-- Node14&#45;&gt;Node13 -->
<g id="edge17_Node000013_Node000014" class="edge">
<title>Node14&#45;&gt;Node13</title>
<g id="a_edge17_Node000013_Node000014"><a xlink:title=" ">
<path fill="none" stroke="#9a32cd" stroke-dasharray="5,2" d="M1294.93,-192.01C1290.28,-193.48 1285.66,-195.03 1281.25,-196.63 1273.02,-199.61 1271.81,-202.79 1263.25,-204.63 1084.62,-242.96 725.89,-218.69 691.5,-206.63 663.65,-196.86 638.5,-171.66 626.03,-157.56"/>
<polygon fill="#9a32cd" stroke="#9a32cd" points="1295.76,-195.42 1304.31,-189.16 1293.72,-188.72 1295.76,-195.42"/>
</a>
</g>
<text text-anchor="middle" x="1006.75" y="-227.38" font-family="Helvetica,sans-Serif" font-size="10.00" fill="grey"> queue</text>
</g>
<!-- Node14&#45;&gt;Node15 -->
<g id="edge20_Node000015_Node000014" class="edge">
<title>Node14&#45;&gt;Node15</title>
<g id="a_edge20_Node000015_Node000014"><a xlink:title=" ">
<path fill="none" stroke="#9a32cd" stroke-dasharray="5,2" d="M1321.25,-162.29C1305.6,-152.15 1284.09,-139.81 1263.25,-133.13 1226.52,-121.34 1181.9,-118.2 1153.11,-117.52"/>
<polygon fill="#9a32cd" stroke="#9a32cd" points="1319.11,-165.07 1329.37,-167.72 1323,-159.25 1319.11,-165.07"/>
</a>
</g>
<text text-anchor="middle" x="1220.12" y="-146.63" font-family="Helvetica,sans-Serif" font-size="10.00" fill="grey"> join_queue</text>
<text text-anchor="middle" x="1220.12" y="-135.38" font-family="Helvetica,sans-Serif" font-size="10.00" fill="grey">queue</text>
</g>
<!-- Node15&#45;&gt;Node13 -->
<g id="edge26_Node000013_Node000015" class="edge">
<title>Node15&#45;&gt;Node13</title>
<g id="a_edge26_Node000013_Node000015"><a xlink:title=" ">
<path fill="none" stroke="#9a32cd" stroke-dasharray="5,2" d="M1080.46,-117.01C1041.2,-116.46 980.31,-115.68 927.5,-115.38 889.72,-115.16 880.22,-113.35 842.5,-115.38 775.1,-118.99 758.13,-120.85 691.5,-131.63 676.11,-134.12 659.09,-137.75 645.28,-140.93"/>
<polygon fill="#9a32cd" stroke="#9a32cd" points="1080.36,-120.51 1090.41,-117.16 1080.46,-113.51 1080.36,-120.51"/>
</a>
</g>
<text text-anchor="middle" x="885" y="-117.38" font-family="Helvetica,sans-Serif" font-size="10.00" fill="grey"> thread</text>
</g>
<!-- Node15&#45;&gt;Node14 -->
<g id="edge18_Node000014_Node000015" class="edge">
<title>Node15&#45;&gt;Node14</title>
<g id="a_edge18_Node000014_Node000015"><a xlink:title=" ">
<path fill="none" stroke="#9a32cd" stroke-dasharray="5,2" d="M1140.99,-135.45C1150.74,-144.24 1163.59,-154.13 1177,-159.63 1216.8,-175.95 1266.12,-179.8 1300.91,-180.11"/>
<polygon fill="#9a32cd" stroke="#9a32cd" points="1143.43,-132.94 1133.78,-128.57 1138.6,-138 1143.43,-132.94"/>
</a>
</g>
<text text-anchor="middle" x="1220.12" y="-191.63" font-family="Helvetica,sans-Serif" font-size="10.00" fill="grey"> head</text>
<text text-anchor="middle" x="1220.12" y="-180.38" font-family="Helvetica,sans-Serif" font-size="10.00" fill="grey">tail</text>
</g>
<!-- Node17 -->
<g id="Node000017" class="node">
<title>Node17</title>
<g id="a_Node000017"><a xlink:href="structOSThreadLink.html" target="_top" xlink:title=" ">
<polygon fill="white" stroke="#666666" points="1385,-76.25 1306,-76.25 1306,-57 1385,-57 1385,-76.25"/>
<text text-anchor="middle" x="1345.5" y="-62.75" font-family="Helvetica,sans-Serif" font-size="10.00">OSThreadLink</text>
</a>
</g>
</g>
<!-- Node15&#45;&gt;Node17 -->
<g id="edge22_Node000017_Node000015" class="edge">
<title>Node15&#45;&gt;Node17</title>
<g id="a_edge22_Node000017_Node000015"><a xlink:title=" ">
<path fill="none" stroke="#9a32cd" stroke-dasharray="5,2" d="M1150.19,-102.35C1158.55,-98.14 1167.96,-93.95 1177,-91.13 1219.92,-77.73 1271.37,-71.6 1305.82,-68.83"/>
<polygon fill="#9a32cd" stroke="#9a32cd" points="1148.81,-99.12 1141.61,-106.9 1152.09,-105.31 1148.81,-99.12"/>
</a>
</g>
<text text-anchor="middle" x="1220.12" y="-104.63" font-family="Helvetica,sans-Serif" font-size="10.00" fill="grey"> next</text>
<text text-anchor="middle" x="1220.12" y="-93.38" font-family="Helvetica,sans-Serif" font-size="10.00" fill="grey">prev</text>
</g>
<!-- Node16 -->
<g id="Node000016" class="node">
<title>Node16</title>
<g id="a_Node000016"><a xlink:href="structOSContext.html" target="_top" xlink:title=" ">
<polygon fill="white" stroke="#666666" points="916.62,-64.25 853.38,-64.25 853.38,-45 916.62,-45 916.62,-64.25"/>
<text text-anchor="middle" x="885" y="-50.75" font-family="Helvetica,sans-Serif" font-size="10.00">OSContext</text>
</a>
</g>
</g>
<!-- Node16&#45;&gt;Node15 -->
<g id="edge19_Node000015_Node000016" class="edge">
<title>Node16&#45;&gt;Node15</title>
<g id="a_edge19_Node000015_Node000016"><a xlink:title=" ">
<path fill="none" stroke="#9a32cd" stroke-dasharray="5,2" d="M928.04,-53C966.01,-52.99 1022.7,-56.71 1068,-75.38 1085.73,-82.69 1102.44,-97.66 1112.33,-107.68"/>
<polygon fill="#9a32cd" stroke="#9a32cd" points="928.37,-49.49 918.41,-53.09 928.44,-56.49 928.37,-49.49"/>
</a>
</g>
<text text-anchor="middle" x="1006.75" y="-77.38" font-family="Helvetica,sans-Serif" font-size="10.00" fill="grey"> context</text>
</g>
<!-- Node17&#45;&gt;Node15 -->
<g id="edge21_Node000015_Node000017" class="edge">
<title>Node17&#45;&gt;Node15</title>
<g id="a_edge21_Node000015_Node000017"><a xlink:title=" ">
<path fill="none" stroke="#9a32cd" stroke-dasharray="5,2" d="M1312.79,-52.29C1277.69,-38.67 1220.34,-23.25 1177,-45.13 1150.89,-58.31 1134.38,-90.92 1127.37,-107.54"/>
<polygon fill="#9a32cd" stroke="#9a32cd" points="1311.38,-55.49 1321.96,-56.03 1314.02,-49.01 1311.38,-55.49"/>
</a>
</g>
<text text-anchor="middle" x="1220.12" y="-58.63" font-family="Helvetica,sans-Serif" font-size="10.00" fill="grey"> active_threads_link</text>
<text text-anchor="middle" x="1220.12" y="-47.38" font-family="Helvetica,sans-Serif" font-size="10.00" fill="grey">link</text>
</g>
<!-- Node18&#45;&gt;Node15 -->
<g id="edge24_Node000015_Node000018" class="edge">
<title>Node18&#45;&gt;Node15</title>
<g id="a_edge24_Node000015_Node000018"><a xlink:title=" ">
<path fill="none" stroke="#9a32cd" stroke-dasharray="5,2" d="M939.03,-186.9C976.48,-185.32 1027.09,-179.53 1068,-161.63 1086.07,-153.72 1102.94,-137.89 1112.74,-127.53"/>
<polygon fill="#9a32cd" stroke="#9a32cd" points="939.25,-183.4 929.37,-187.22 939.47,-190.39 939.25,-183.4"/>
</a>
</g>
<text text-anchor="middle" x="1006.75" y="-188.38" font-family="Helvetica,sans-Serif" font-size="10.00" fill="grey"> owned_mutexes</text>
</g>
<!-- Node19&#45;&gt;Node13 -->
<g id="edge27_Node000013_Node000019" class="edge">
<title>Node19&#45;&gt;Node13</title>
<g id="a_edge27_Node000013_Node000019"><a xlink:title=" ">
<path fill="none" stroke="#9a32cd" stroke-dasharray="5,2" d="M848.9,-32.44C846.72,-33.49 844.57,-34.55 842.5,-35.63 834.18,-39.95 833.2,-43.14 824.5,-46.63 768.35,-69.1 744.75,-46.7 691.5,-75.38 662.3,-91.1 636.79,-121.83 624.88,-137.67"/>
<polygon fill="#9a32cd" stroke="#9a32cd" points="850.15,-35.71 857.78,-28.36 847.23,-29.35 850.15,-35.71"/>
</a>
</g>
<text text-anchor="middle" x="758" y="-77.38" font-family="Helvetica,sans-Serif" font-size="10.00" fill="grey"> link</text>
</g>
<!-- Node20 -->
<g id="Node000020" class="node">
<title>Node20</title>
<g id="a_Node000020"><a xlink:href="classJSUTree.html" target="_top" xlink:title=" ">
<polygon fill="white" stroke="#666666" points="673.5,-397.25 560,-397.25 560,-378 673.5,-378 673.5,-397.25"/>
<text text-anchor="middle" x="616.75" y="-383.75" font-family="Helvetica,sans-Serif" font-size="10.00">JSUTree&lt; JKRHeap &gt;</text>
</a>
</g>
</g>
<!-- Node20&#45;&gt;Node12 -->
<g id="edge29_Node000012_Node000020" class="edge">
<title>Node20&#45;&gt;Node12</title>
<g id="a_edge29_Node000012_Node000020"><a xlink:title=" ">
<path fill="none" stroke="#9a32cd" stroke-dasharray="5,2" d="M685.33,-387.63C740.43,-387.63 815.51,-387.63 855.76,-387.63"/>
<polygon fill="#9a32cd" stroke="#9a32cd" points="685.4,-384.13 675.4,-387.63 685.4,-391.13 685.4,-384.13"/>
</a>
</g>
<text text-anchor="middle" x="758" y="-389.38" font-family="Helvetica,sans-Serif" font-size="10.00" fill="grey"> mChildTree</text>
</g>
<!-- Node21 -->
<g id="Node000021" class="node">
<title>Node21</title>
<g id="a_Node000021"><a xlink:href="classJSUList.html" target="_top" xlink:title=" ">
<polygon fill="white" stroke="#666666" points="388.75,-422.25 314.25,-422.25 314.25,-403 388.75,-403 388.75,-422.25"/>
<text text-anchor="middle" x="351.5" y="-408.75" font-family="Helvetica,sans-Serif" font-size="10.00">JSUList&lt; T &gt;</text>
</a>
</g>
</g>
<!-- Node21&#45;&gt;Node20 -->
<g id="edge30_Node000020_Node000021" class="edge">
<title>Node21&#45;&gt;Node20</title>
<g id="a_edge30_Node000020_Node000021"><a xlink:title=" ">
<path fill="none" stroke="#63b8ff" d="M400.29,-408.09C445.16,-403.83 512.31,-397.45 559.69,-392.95"/>
<polygon fill="#63b8ff" stroke="#63b8ff" points="400.23,-404.58 390.61,-409.01 400.9,-411.55 400.23,-404.58"/>
</a>
</g>
</g>
<!-- Node22 -->
<g id="Node000022" class="node">
<title>Node22</title>
<g id="a_Node000022"><a xlink:href="classJSUPtrList.html" target="_top" xlink:title=" ">
<polygon fill="white" stroke="#666666" points="201.5,-460.25 136.75,-460.25 136.75,-441 201.5,-441 201.5,-460.25"/>
<text text-anchor="middle" x="169.12" y="-446.75" font-family="Helvetica,sans-Serif" font-size="10.00">JSUPtrList</text>
</a>
</g>
</g>
<!-- Node22&#45;&gt;Node21 -->
<g id="edge31_Node000021_Node000022" class="edge">
<title>Node22&#45;&gt;Node21</title>
<g id="a_edge31_Node000021_Node000022"><a xlink:title=" ">
<path fill="none" stroke="#63b8ff" d="M212.95,-438.22C215.16,-437.66 217.35,-437.13 219.5,-436.63 251.14,-429.26 287.51,-422.75 313.89,-418.38"/>
<polygon fill="#63b8ff" stroke="#63b8ff" points="212.12,-434.82 203.35,-440.76 213.91,-441.59 212.12,-434.82"/>
</a>
</g>
</g>
<!-- Node23 -->
<g id="Node000023" class="node">
<title>Node23</title>
<g id="a_Node000023"><a xlink:href="classJSUPtrLink.html" target="_top" xlink:title=" ">
<polygon fill="white" stroke="#666666" points="67,-426.25 0,-426.25 0,-407 67,-407 67,-426.25"/>
<text text-anchor="middle" x="33.5" y="-412.75" font-family="Helvetica,sans-Serif" font-size="10.00">JSUPtrLink</text>
</a>
</g>
</g>
<!-- Node22&#45;&gt;Node23 -->
<g id="edge33_Node000023_Node000022" class="edge">
<title>Node22&#45;&gt;Node23</title>
<g id="a_edge33_Node000023_Node000022"><a xlink:title=" ">
<path fill="none" stroke="#9a32cd" stroke-dasharray="5,2" d="M149.75,-433.34C141.05,-426.31 130.09,-419.01 118.75,-415.38 102.31,-410.11 83.13,-409.97 67.22,-411.34"/>
<polygon fill="#9a32cd" stroke="#9a32cd" points="147.21,-435.77 157.07,-439.67 151.79,-430.48 147.21,-435.77"/>
</a>
</g>
<text text-anchor="middle" x="101.88" y="-416.38" font-family="Helvetica,sans-Serif" font-size="10.00" fill="grey"> mList</text>
</g>
<!-- Node25 -->
<g id="Node000025" class="node">
<title>Node25</title>
<g id="a_Node000025"><a xlink:href="classJSUList.html" target="_top" xlink:title=" ">
<polygon fill="white" stroke="#666666" points="537.12,-456.25 411.62,-456.25 411.62,-437 537.12,-437 537.12,-456.25"/>
<text text-anchor="middle" x="474.38" y="-442.75" font-family="Helvetica,sans-Serif" font-size="10.00">JSUList&lt; JKRDisposer &gt;</text>
</a>
</g>
</g>
<!-- Node22&#45;&gt;Node25 -->
<g id="edge38_Node000025_Node000022" class="edge">
<title>Node22&#45;&gt;Node25</title>
<g id="a_edge38_Node000025_Node000022"><a xlink:title=" ">
<path fill="none" stroke="#63b8ff" d="M213.13,-450.06C264.86,-449.38 352.09,-448.23 411.16,-447.45"/>
<polygon fill="#63b8ff" stroke="#63b8ff" points="213.19,-446.56 203.23,-450.19 213.28,-453.56 213.19,-446.56"/>
</a>
</g>
</g>
<!-- Node28 -->
<g id="Node000028" class="node">
<title>Node28</title>
<g id="a_Node000028"><a xlink:href="classJSUList.html" target="_top" xlink:title=" ">
<polygon fill="white" stroke="#666666" points="824.5,-498.25 691.5,-498.25 691.5,-479 824.5,-479 824.5,-498.25"/>
<text text-anchor="middle" x="758" y="-484.75" font-family="Helvetica,sans-Serif" font-size="10.00">JSUList&lt; JKRFileLoader &gt;</text>
</a>
</g>
</g>
<!-- Node22&#45;&gt;Node28 -->
<g id="edge46_Node000028_Node000022" class="edge">
<title>Node22&#45;&gt;Node28</title>
<g id="a_edge46_Node000028_Node000022"><a xlink:title=" ">
<path fill="none" stroke="#63b8ff" d="M212.91,-461.55C215.13,-461.95 217.34,-462.32 219.5,-462.63 388.25,-486.99 589.56,-489.83 691.25,-489.45"/>
<polygon fill="#63b8ff" stroke="#63b8ff" points="213.81,-458.16 203.31,-459.58 212.4,-465.02 213.81,-458.16"/>
</a>
</g>
</g>
<!-- Node33 -->
<g id="Node000033" class="node">
<title>Node33</title>
<g id="a_Node000033"><a xlink:href="classJSUList.html" target="_top" xlink:title=" ">
<polygon fill="white" stroke="#666666" points="1068,-541.88 945.5,-541.88 945.5,-511.38 1068,-511.38 1068,-541.88"/>
<text text-anchor="start" x="953.5" y="-528.38" font-family="Helvetica,sans-Serif" font-size="10.00">JSUList&lt; JKRFileCache</text>
<text text-anchor="middle" x="1006.75" y="-517.13" font-family="Helvetica,sans-Serif" font-size="10.00">::CCacheBlock &gt;</text>
</a>
</g>
</g>
<!-- Node22&#45;&gt;Node33 -->
<g id="edge55_Node000033_Node000022" class="edge">
<title>Node22&#45;&gt;Node33</title>
<g id="a_edge55_Node000033_Node000022"><a xlink:title=" ">
<path fill="none" stroke="#63b8ff" d="M192.51,-466.96C225.41,-489.29 289.52,-526.63 350.5,-526.63 350.5,-526.63 350.5,-526.63 759,-526.63 822.51,-526.63 895.21,-526.63 945.16,-526.63"/>
<polygon fill="#63b8ff" stroke="#63b8ff" points="194.79,-464.28 184.59,-461.43 190.79,-470.02 194.79,-464.28"/>
</a>
</g>
</g>
<!-- Node23&#45;&gt;Node22 -->
<g id="edge32_Node000022_Node000023" class="edge">
<title>Node23&#45;&gt;Node22</title>
<g id="a_edge32_Node000022_Node000023"><a xlink:title=" ">
<path fill="none" stroke="#9a32cd" stroke-dasharray="5,2" d="M78.32,-427.78C97.39,-432.63 119.29,-438.2 136.69,-442.63"/>
<polygon fill="#9a32cd" stroke="#9a32cd" points="79.21,-424.39 68.66,-425.32 77.48,-431.18 79.21,-424.39"/>
</a>
</g>
<text text-anchor="middle" x="101.88" y="-450.63" font-family="Helvetica,sans-Serif" font-size="10.00" fill="grey"> mHead</text>
<text text-anchor="middle" x="101.88" y="-439.38" font-family="Helvetica,sans-Serif" font-size="10.00" fill="grey">mTail</text>
</g>
<!-- Node23&#45;&gt;Node23 -->
<g id="edge34_Node000023_Node000023" class="edge">
<title>Node23&#45;&gt;Node23</title>
<g id="a_edge34_Node000023_Node000023"><a xlink:title=" ">
<path fill="none" stroke="#9a32cd" stroke-dasharray="5,2" d="M21.36,-437.65C22.88,-441.53 26.93,-444.25 33.5,-444.25 45.52,-444.25 49.09,-435.15 44.2,-426.54"/>
<polygon fill="#9a32cd" stroke="#9a32cd" points="24.8,-438.41 22.6,-428.04 17.85,-437.51 24.8,-438.41"/>
</a>
</g>
<text text-anchor="middle" x="33.5" y="-457.25" font-family="Helvetica,sans-Serif" font-size="10.00" fill="grey"> mNext</text>
<text text-anchor="middle" x="33.5" y="-446" font-family="Helvetica,sans-Serif" font-size="10.00" fill="grey">mPrev</text>
</g>
<!-- Node24 -->
<g id="Node000024" class="node">
<title>Node24</title>
<g id="a_Node000024"><a xlink:href="classJSULink.html" target="_top" xlink:title=" ">
<polygon fill="white" stroke="#666666" points="296.25,-386.25 219.5,-386.25 219.5,-367 296.25,-367 296.25,-386.25"/>
<text text-anchor="middle" x="257.88" y="-372.75" font-family="Helvetica,sans-Serif" font-size="10.00">JSULink&lt; T &gt;</text>
</a>
</g>
</g>
<!-- Node23&#45;&gt;Node24 -->
<g id="edge36_Node000024_Node000023" class="edge">
<title>Node23&#45;&gt;Node24</title>
<g id="a_edge36_Node000024_Node000023"><a xlink:title=" ">
<path fill="none" stroke="#63b8ff" d="M78.45,-407.86C80.67,-407.44 82.86,-407.03 85,-406.63 131.16,-398.03 184.43,-388.85 219.28,-382.94"/>
<polygon fill="#63b8ff" stroke="#63b8ff" points="77.99,-404.39 68.83,-409.72 79.32,-411.26 77.99,-404.39"/>
</a>
</g>
</g>
<!-- Node26 -->
<g id="Node000026" class="node">
<title>Node26</title>
<g id="a_Node000026"><a xlink:href="classJSULink.html" target="_top" xlink:title=" ">
<polygon fill="white" stroke="#666666" points="821.88,-349.25 694.12,-349.25 694.12,-330 821.88,-330 821.88,-349.25"/>
<text text-anchor="middle" x="758" y="-335.75" font-family="Helvetica,sans-Serif" font-size="10.00">JSULink&lt; JKRDisposer &gt;</text>
</a>
</g>
</g>
<!-- Node23&#45;&gt;Node26 -->
<g id="edge41_Node000026_Node000023" class="edge">
<title>Node23&#45;&gt;Node26</title>
<g id="a_edge41_Node000026_Node000023"><a xlink:title=" ">
<path fill="none" stroke="#63b8ff" d="M51.01,-398.61C74.53,-375.02 120.17,-336.63 168.12,-336.63 168.12,-336.63 168.12,-336.63 475.38,-336.63 550.43,-336.63 636.73,-337.71 693.81,-338.57"/>
<polygon fill="#63b8ff" stroke="#63b8ff" points="48.58,-396.09 44.17,-405.73 53.62,-400.94 48.58,-396.09"/>
</a>
</g>
</g>
<!-- Node27 -->
<g id="Node000027" class="node">
<title>Node27</title>
<g id="a_Node000027"><a xlink:href="classJSULink.html" target="_top" xlink:title=" ">
<polygon fill="white" stroke="#666666" points="542,-580.25 406.75,-580.25 406.75,-561 542,-561 542,-580.25"/>
<text text-anchor="middle" x="474.38" y="-566.75" font-family="Helvetica,sans-Serif" font-size="10.00">JSULink&lt; JKRFileLoader &gt;</text>
</a>
</g>
</g>
<!-- Node23&#45;&gt;Node27 -->
<g id="edge43_Node000027_Node000023" class="edge">
<title>Node23&#45;&gt;Node27</title>
<g id="a_edge43_Node000027_Node000023"><a xlink:title=" ">
<path fill="none" stroke="#63b8ff" d="M51.31,-434.63C60.71,-444.16 72.94,-455.7 85,-464.63 140.19,-505.48 154.24,-519.29 219.5,-540.63 280.77,-560.66 354.24,-567.62 406.35,-569.89"/>
<polygon fill="#63b8ff" stroke="#63b8ff" points="54.06,-432.44 44.61,-427.67 49.02,-437.3 54.06,-432.44"/>
</a>
</g>
</g>
<!-- Node24&#45;&gt;Node20 -->
<g id="edge35_Node000020_Node000024" class="edge">
<title>Node24&#45;&gt;Node20</title>
<g id="a_edge35_Node000020_Node000024"><a xlink:title=" ">
<path fill="none" stroke="#63b8ff" d="M308.02,-378.14C373.86,-380.17 490.42,-383.77 559.63,-385.9"/>
<polygon fill="#63b8ff" stroke="#63b8ff" points="308.34,-374.65 298.24,-377.84 308.13,-381.65 308.34,-374.65"/>
</a>
</g>
</g>
<!-- Node25&#45;&gt;Node12 -->
<g id="edge37_Node000012_Node000025" class="edge">
<title>Node25&#45;&gt;Node12</title>
<g id="a_edge37_Node000012_Node000025"><a xlink:title=" ">
<path fill="none" stroke="#9a32cd" stroke-dasharray="5,2" d="M548.57,-440.02C619.49,-433 729.9,-420.45 824.5,-402.63 834.76,-400.7 845.88,-398.04 855.71,-395.51"/>
<polygon fill="#9a32cd" stroke="#9a32cd" points="548.65,-436.49 539.04,-440.95 549.33,-443.46 548.65,-436.49"/>
</a>
</g>
<text text-anchor="middle" x="616.75" y="-439.38" font-family="Helvetica,sans-Serif" font-size="10.00" fill="grey"> mDisposerList</text>
</g>
<!-- Node26&#45;&gt;Node11 -->
<g id="edge40_Node000011_Node000026" class="edge">
<title>Node26&#45;&gt;Node11</title>
<g id="a_edge40_Node000011_Node000026"><a xlink:title=" ">
<path fill="none" stroke="#9a32cd" stroke-dasharray="5,2" d="M833.78,-344.07C863.21,-346.7 897.16,-350.86 927.5,-357.38 991.78,-371.18 1009.51,-373.62 1068,-403.63 1083.75,-411.71 1099.91,-424.18 1110.29,-432.84"/>
<polygon fill="#9a32cd" stroke="#9a32cd" points="834.08,-340.58 823.82,-343.22 833.49,-347.55 834.08,-340.58"/>
</a>
</g>
<text text-anchor="middle" x="885" y="-358.38" font-family="Helvetica,sans-Serif" font-size="10.00" fill="grey"> mLink</text>
</g>
<!-- Node27&#45;&gt;Node10 -->
<g id="edge42_Node000010_Node000027" class="edge">
<title>Node27&#45;&gt;Node10</title>
<g id="a_edge42_Node000010_Node000027"><a xlink:title=" ">
<path fill="none" stroke="#9a32cd" stroke-dasharray="5,2" d="M553.6,-571.48C610.11,-572.03 688.27,-572.63 757,-572.63 757,-572.63 757,-572.63 1123.5,-572.63 1186.6,-572.63 1207.91,-577.94 1263.25,-547.63 1298.45,-528.35 1326.75,-488.12 1338.55,-469.49"/>
<polygon fill="#9a32cd" stroke="#9a32cd" points="553.78,-567.98 543.75,-571.39 553.71,-574.98 553.78,-567.98"/>
</a>
</g>
<text text-anchor="middle" x="885" y="-574.38" font-family="Helvetica,sans-Serif" font-size="10.00" fill="grey"> mFileLoaderLink</text>
</g>
<!-- Node28&#45;&gt;Node10 -->
<g id="edge45_Node000010_Node000028" class="edge">
<title>Node28&#45;&gt;Node10</title>
<g id="a_edge45_Node000010_Node000028"><a xlink:title=" ">
<path fill="none" stroke="#9a32cd" stroke-dasharray="5,2" d="M836.22,-484.8C962.62,-478.54 1209.2,-466.33 1305.06,-461.58"/>
<polygon fill="#9a32cd" stroke="#9a32cd" points="836.07,-481.31 826.25,-485.3 836.42,-488.3 836.07,-481.31"/>
</a>
</g>
<text text-anchor="middle" x="1006.75" y="-480.38" font-family="Helvetica,sans-Serif" font-size="10.00" fill="grey"> sVolumeList</text>
</g>
<!-- Node29 -->
<g id="Node000029" class="node">
<title>Node29</title>
<g id="a_Node000029"><a xlink:href="structSArcDataInfo.html" target="_top" xlink:title=" ">
<polygon fill="white" stroke="#666666" points="1382.75,-387.25 1308.25,-387.25 1308.25,-368 1382.75,-368 1382.75,-387.25"/>
<text text-anchor="middle" x="1345.5" y="-373.75" font-family="Helvetica,sans-Serif" font-size="10.00">SArcDataInfo</text>
</a>
</g>
</g>
<!-- Node29&#45;&gt;Node9 -->
<g id="edge48_Node000009_Node000029" class="edge">
<title>Node29&#45;&gt;Node9</title>
<g id="a_edge48_Node000009_Node000029"><a xlink:title=" ">
<path fill="none" stroke="#9a32cd" stroke-dasharray="5,2" d="M1394.46,-373.94C1440.02,-370.44 1507.36,-365.26 1547.33,-362.19"/>
<polygon fill="#9a32cd" stroke="#9a32cd" points="1394.29,-370.44 1384.59,-374.7 1394.83,-377.42 1394.29,-370.44"/>
</a>
</g>
<text text-anchor="middle" x="1461.12" y="-372.38" font-family="Helvetica,sans-Serif" font-size="10.00" fill="grey"> mArcInfoBlock</text>
</g>
<!-- Node30 -->
<g id="Node000030" class="node">
<title>Node30</title>
<g id="a_Node000030"><a xlink:href="structJKRArchive_1_1SDIDirEntry.html" target="_top" xlink:title=" ">
<polygon fill="white" stroke="#666666" points="1406.75,-350.25 1284.25,-350.25 1284.25,-331 1406.75,-331 1406.75,-350.25"/>
<text text-anchor="middle" x="1345.5" y="-336.75" font-family="Helvetica,sans-Serif" font-size="10.00">JKRArchive::SDIDirEntry</text>
</a>
</g>
</g>
<!-- Node30&#45;&gt;Node9 -->
<g id="edge49_Node000009_Node000030" class="edge">
<title>Node30&#45;&gt;Node9</title>
<g id="a_edge49_Node000009_Node000030"><a xlink:title=" ">
<path fill="none" stroke="#9a32cd" stroke-dasharray="5,2" d="M1418.29,-344.76C1442.52,-346.31 1469.7,-348.23 1494.5,-350.38 1512.03,-351.9 1531.53,-353.96 1547.53,-355.75"/>
<polygon fill="#9a32cd" stroke="#9a32cd" points="1418.74,-341.28 1408.54,-344.15 1418.3,-348.27 1418.74,-341.28"/>
</a>
</g>
<text text-anchor="middle" x="1461.12" y="-351.38" font-family="Helvetica,sans-Serif" font-size="10.00" fill="grey"> mNodes</text>
</g>
<!-- Node31 -->
<g id="Node000031" class="node">
<title>Node31</title>
<g id="a_Node000031"><a xlink:href="structJKRArchive_1_1SDIFileEntry.html" target="_top" xlink:title=" ">
<polygon fill="white" stroke="#666666" points="1408.62,-313.25 1282.38,-313.25 1282.38,-294 1408.62,-294 1408.62,-313.25"/>
<text text-anchor="middle" x="1345.5" y="-299.75" font-family="Helvetica,sans-Serif" font-size="10.00">JKRArchive::SDIFileEntry</text>
</a>
</g>
</g>
<!-- Node31&#45;&gt;Node9 -->
<g id="edge50_Node000009_Node000031" class="edge">
<title>Node31&#45;&gt;Node9</title>
<g id="a_edge50_Node000009_Node000031"><a xlink:title=" ">
<path fill="none" stroke="#9a32cd" stroke-dasharray="5,2" d="M1420.06,-313.96C1443.98,-317.97 1470.53,-323.13 1494.5,-329.38 1515.36,-334.82 1538.36,-343.01 1555.34,-349.5"/>
<polygon fill="#9a32cd" stroke="#9a32cd" points="1420.85,-310.54 1410.41,-312.38 1419.72,-317.45 1420.85,-310.54"/>
</a>
</g>
<text text-anchor="middle" x="1461.12" y="-330.38" font-family="Helvetica,sans-Serif" font-size="10.00" fill="grey"> mFiles</text>
</g>
<!-- Node32&#45;&gt;Node1 -->
<g id="edge51_Node000001_Node000032" class="edge">
<title>Node32&#45;&gt;Node1</title>
<g id="a_edge51_Node000001_Node000032"><a xlink:title=" ">
<path fill="none" stroke="#9a32cd" stroke-dasharray="5,2" d="M1632.58,-440.63C1675.78,-440.63 1738.22,-440.63 1783.36,-440.63"/>
<polygon fill="#9a32cd" stroke="#9a32cd" points="1632.73,-437.13 1622.73,-440.63 1632.73,-444.13 1632.73,-437.13"/>
</a>
</g>
<text text-anchor="middle" x="1717.12" y="-442.38" font-family="Helvetica,sans-Serif" font-size="10.00" fill="grey"> sFileCache</text>
</g>
<!-- Node33&#45;&gt;Node32 -->
<g id="edge54_Node000032_Node000033" class="edge">
<title>Node33&#45;&gt;Node32</title>
<g id="a_edge54_Node000032_Node000033"><a xlink:title=" ">
<path fill="none" stroke="#9a32cd" stroke-dasharray="5,2" d="M1079.52,-531.6C1160.9,-535.33 1296.92,-535.73 1409.75,-507.63 1450.17,-497.56 1457.04,-485.83 1494.5,-467.63 1502.54,-463.72 1504.13,-461.79 1512.5,-458.63 1522,-455.04 1532.5,-451.89 1542.35,-449.27"/>
<polygon fill="#9a32cd" stroke="#9a32cd" points="1080.08,-528.12 1069.92,-531.13 1079.74,-535.11 1080.08,-528.12"/>
</a>
</g>
<text text-anchor="middle" x="1220.12" y="-534.38" font-family="Helvetica,sans-Serif" font-size="10.00" fill="grey"> mCacheBlockList</text>
</g>
</g>
</svg>
