<?xml version="1.0" encoding="UTF-8" standalone="no"?>
<!DOCTYPE svg PUBLIC "-//W3C//DTD SVG 1.1//EN"
 "http://www.w3.org/Graphics/SVG/1.1/DTD/svg11.dtd">
<!-- Generated by graphviz version 9.0.0 (20230911.1827)
 -->
<!-- Title: Z2SeqMgr Pages: 1 -->
<svg width="1006pt" height="582pt"
 viewBox="0.00 0.00 1005.62 581.50" xmlns="http://www.w3.org/2000/svg" xmlns:xlink="http://www.w3.org/1999/xlink">
<g id="graph0" class="graph" transform="scale(1 1) rotate(0) translate(4 577.5)">
<title>Z2SeqMgr</title>
<!-- Node1 -->
<g id="Node000001" class="node">
<title>Node1</title>
<g id="a_Node000001"><a xlink:title=" ">
<polygon fill="#999999" stroke="#666666" points="903.12,-97 842.12,-97 842.12,-77.75 903.12,-77.75 903.12,-97"/>
<text text-anchor="middle" x="872.62" y="-83.5" font-family="Helvetica,sans-Serif" font-size="10.00">Z2SeqMgr</text>
</a>
</g>
</g>
<!-- Node2 -->
<g id="Node000002" class="node">
<title>Node2</title>
<g id="a_Node000002"><a xlink:href="classJASGlobalInstance.html" target="_top" xlink:title=" ">
<polygon fill="white" stroke="#666666" points="925.62,-30.5 819.62,-30.5 819.62,0 925.62,0 925.62,-30.5"/>
<text text-anchor="start" x="827.62" y="-17" font-family="Helvetica,sans-Serif" font-size="10.00">JASGlobalInstance&lt;</text>
<text text-anchor="middle" x="872.62" y="-5.75" font-family="Helvetica,sans-Serif" font-size="10.00"> Z2SeqMgr &gt;</text>
</a>
</g>
</g>
<!-- Node1&#45;&gt;Node2 -->
<g id="edge2_Node000002_Node000001" class="edge">
<title>Node1&#45;&gt;Node2</title>
<g id="a_edge2_Node000002_Node000001"><a xlink:title=" ">
<path fill="none" stroke="#9a32cd" stroke-dasharray="5,2" d="M847,-70.25C840.52,-64.05 836.25,-56.53 839.62,-48.5 842.42,-41.86 847.33,-35.9 852.52,-30.96"/>
<polygon fill="#9a32cd" stroke="#9a32cd" points="844.76,-72.94 854.77,-76.38 849.09,-67.44 844.76,-72.94"/>
</a>
</g>
<text text-anchor="middle" x="862.12" y="-50.25" font-family="Helvetica,sans-Serif" font-size="10.00" fill="grey"> sInstance</text>
</g>
<!-- Node2&#45;&gt;Node1 -->
<g id="edge1_Node000001_Node000002" class="edge">
<title>Node2&#45;&gt;Node1</title>
<g id="a_edge1_Node000001_Node000002"><a xlink:title=" ">
<path fill="none" stroke="#63b8ff" d="M887.45,-41.15C889.46,-47.18 890.32,-53.64 888.62,-59.75 886.84,-66.19 883.03,-72.64 879.57,-77.58"/>
<polygon fill="#63b8ff" stroke="#63b8ff" points="890.79,-40.05 883.52,-32.33 884.39,-42.89 890.79,-40.05"/>
</a>
</g>
</g>
<!-- Node3 -->
<g id="Node000003" class="node">
<title>Node3</title>
<g id="a_Node000003"><a xlink:href="classJAISoundHandle.html" target="_top" xlink:title=" ">
<polygon fill="white" stroke="#666666" points="707.38,-197.25 617.88,-197.25 617.88,-178 707.38,-178 707.38,-197.25"/>
<text text-anchor="middle" x="662.62" y="-183.75" font-family="Helvetica,sans-Serif" font-size="10.00">JAISoundHandle</text>
</a>
</g>
</g>
<!-- Node3&#45;&gt;Node1 -->
<g id="edge3_Node000001_Node000003" class="edge">
<title>Node3&#45;&gt;Node1</title>
<g id="a_edge3_Node000001_Node000003"><a xlink:title=" ">
<path fill="none" stroke="#9a32cd" stroke-dasharray="5,2" d="M716.7,-173.19C723.97,-169.74 730.89,-165.41 736.62,-160 752.45,-145.08 739.17,-128.94 755.88,-115 779.9,-94.95 816.03,-89.28 841.72,-88"/>
<polygon fill="#9a32cd" stroke="#9a32cd" points="715.56,-169.87 707.66,-176.93 718.24,-176.34 715.56,-169.87"/>
</a>
</g>
<text text-anchor="middle" x="802" y="-150.5" font-family="Helvetica,sans-Serif" font-size="10.00" fill="grey"> mFanfareHandle</text>
<text text-anchor="middle" x="802" y="-139.25" font-family="Helvetica,sans-Serif" font-size="10.00" fill="grey">mMainBgmHandle</text>
<text text-anchor="middle" x="802" y="-128" font-family="Helvetica,sans-Serif" font-size="10.00" fill="grey">mStreamBgmHandle</text>
<text text-anchor="middle" x="802" y="-116.75" font-family="Helvetica,sans-Serif" font-size="10.00" fill="grey">mSubBgmHandle</text>
</g>
<!-- Node4 -->
<g id="Node000004" class="node">
<title>Node4</title>
<g id="a_Node000004"><a xlink:href="classJAISound.html" target="_top" xlink:title=" ">
<polygon fill="white" stroke="#666666" points="518,-97 459.25,-97 459.25,-77.75 518,-77.75 518,-97"/>
<text text-anchor="middle" x="488.62" y="-83.5" font-family="Helvetica,sans-Serif" font-size="10.00">JAISound</text>
</a>
</g>
</g>
<!-- Node3&#45;&gt;Node4 -->
<g id="edge5_Node000004_Node000003" class="edge">
<title>Node3&#45;&gt;Node4</title>
<g id="a_edge5_Node000004_Node000003"><a xlink:title=" ">
<path fill="none" stroke="#9a32cd" stroke-dasharray="5,2" d="M646.43,-169.06C644.03,-166.12 641.67,-163.04 639.62,-160 627.08,-141.37 634.48,-128.62 616.62,-115 588.2,-93.32 546.3,-88.24 518.27,-87.54"/>
<polygon fill="#9a32cd" stroke="#9a32cd" points="643.76,-171.32 652.97,-176.56 649.04,-166.72 643.76,-171.32"/>
</a>
</g>
<text text-anchor="middle" x="657.62" y="-133.62" font-family="Helvetica,sans-Serif" font-size="10.00" fill="grey"> handle_</text>
</g>
<!-- Node4&#45;&gt;Node3 -->
<g id="edge4_Node000003_Node000004" class="edge">
<title>Node4&#45;&gt;Node3</title>
<g id="a_edge4_Node000003_Node000004"><a xlink:title=" ">
<path fill="none" stroke="#9a32cd" stroke-dasharray="5,2" d="M528.85,-97.72C539.74,-101.69 550.91,-107.26 559.62,-115 576.46,-129.95 565.77,-145.36 582.88,-160 592.74,-168.45 605.39,-174.24 617.69,-178.2"/>
<polygon fill="#9a32cd" stroke="#9a32cd" points="530.18,-94.47 519.59,-94.72 528.03,-101.13 530.18,-94.47"/>
</a>
</g>
<text text-anchor="middle" x="600.5" y="-133.62" font-family="Helvetica,sans-Serif" font-size="10.00" fill="grey"> sound_</text>
</g>
<!-- Node5 -->
<g id="Node000005" class="node">
<title>Node5</title>
<g id="a_Node000005"><a xlink:href="classJAIAudible.html" target="_top" xlink:title=" ">
<polygon fill="white" stroke="#666666" points="400.25,-197.25 337,-197.25 337,-178 400.25,-178 400.25,-197.25"/>
<text text-anchor="middle" x="368.62" y="-183.75" font-family="Helvetica,sans-Serif" font-size="10.00">JAIAudible</text>
</a>
</g>
</g>
<!-- Node5&#45;&gt;Node4 -->
<g id="edge6_Node000004_Node000005" class="edge">
<title>Node5&#45;&gt;Node4</title>
<g id="a_edge6_Node000004_Node000005"><a xlink:title=" ">
<path fill="none" stroke="#9a32cd" stroke-dasharray="5,2" d="M374.4,-166.88C380.08,-150.78 390.26,-128.56 406.38,-115 421.19,-102.54 441.96,-95.87 458.92,-92.33"/>
<polygon fill="#9a32cd" stroke="#9a32cd" points="371.1,-165.72 371.38,-176.31 377.77,-167.85 371.1,-165.72"/>
</a>
</g>
<text text-anchor="middle" x="425.75" y="-133.62" font-family="Helvetica,sans-Serif" font-size="10.00" fill="grey"> audible_</text>
</g>
<!-- Node6 -->
<g id="Node000006" class="node">
<title>Node6</title>
<g id="a_Node000006"><a xlink:href="structJGeometry_1_1TVec3.html" target="_top" xlink:title=" ">
<polygon fill="white" stroke="#666666" points="459,-376.25 328.25,-376.25 328.25,-357 459,-357 459,-376.25"/>
<text text-anchor="middle" x="393.62" y="-362.75" font-family="Helvetica,sans-Serif" font-size="10.00">JGeometry::TVec3&lt; float &gt;</text>
</a>
</g>
</g>
<!-- Node6&#45;&gt;Node5 -->
<g id="edge7_Node000005_Node000006" class="edge">
<title>Node6&#45;&gt;Node5</title>
<g id="a_edge7_Node000005_Node000006"><a xlink:title=" ">
<path fill="none" stroke="#9a32cd" stroke-dasharray="5,2" d="M390.76,-345.36C385.32,-306.84 373.69,-224.45 369.87,-197.42"/>
<polygon fill="#9a32cd" stroke="#9a32cd" points="387.27,-345.69 392.14,-355.11 394.21,-344.71 387.27,-345.69"/>
</a>
</g>
<text text-anchor="middle" x="403.5" y="-273.25" font-family="Helvetica,sans-Serif" font-size="10.00" fill="grey"> mPos</text>
</g>
<!-- Node7 -->
<g id="Node000007" class="node">
<title>Node7</title>
<g id="a_Node000007"><a xlink:href="structJAIAudience.html" target="_top" xlink:title=" ">
<polygon fill="white" stroke="#666666" points="489.38,-197.25 417.88,-197.25 417.88,-178 489.38,-178 489.38,-197.25"/>
<text text-anchor="middle" x="453.62" y="-183.75" font-family="Helvetica,sans-Serif" font-size="10.00">JAIAudience</text>
</a>
</g>
</g>
<!-- Node7&#45;&gt;Node4 -->
<g id="edge8_Node000004_Node000007" class="edge">
<title>Node7&#45;&gt;Node4</title>
<g id="a_edge8_Node000004_Node000007"><a xlink:title=" ">
<path fill="none" stroke="#9a32cd" stroke-dasharray="5,2" d="M449.66,-166.63C447.69,-151.63 447.19,-131.02 455.12,-115 458.75,-107.68 465.45,-101.73 471.91,-97.33"/>
<polygon fill="#9a32cd" stroke="#9a32cd" points="446.16,-166.9 451.25,-176.19 453.06,-165.75 446.16,-166.9"/>
</a>
</g>
<text text-anchor="middle" x="478.88" y="-133.62" font-family="Helvetica,sans-Serif" font-size="10.00" fill="grey"> audience_</text>
</g>
<!-- Node8 -->
<g id="Node000008" class="node">
<title>Node8</title>
<g id="a_Node000008"><a xlink:href="structJAISoundID.html" target="_top" xlink:title=" ">
<polygon fill="white" stroke="#666666" points="850.88,-197.25 782.38,-197.25 782.38,-178 850.88,-178 850.88,-197.25"/>
<text text-anchor="middle" x="816.62" y="-183.75" font-family="Helvetica,sans-Serif" font-size="10.00">JAISoundID</text>
</a>
</g>
</g>
<!-- Node8&#45;&gt;Node1 -->
<g id="edge19_Node000001_Node000008" class="edge">
<title>Node8&#45;&gt;Node1</title>
<g id="a_edge19_Node000001_Node000008"><a xlink:title=" ">
<path fill="none" stroke="#9a32cd" stroke-dasharray="5,2" d="M841.01,-170.58C844.6,-167.41 847.98,-163.85 850.62,-160 864.33,-140.06 869.73,-111.29 871.66,-97.04"/>
<polygon fill="#9a32cd" stroke="#9a32cd" points="838.88,-167.81 833.13,-176.71 843.17,-173.33 838.88,-167.81"/>
</a>
</g>
<text text-anchor="middle" x="895.25" y="-133.62" font-family="Helvetica,sans-Serif" font-size="10.00" fill="grey"> mFanfareID</text>
</g>
<!-- Node8&#45;&gt;Node4 -->
<g id="edge9_Node000004_Node000008" class="edge">
<title>Node8&#45;&gt;Node4</title>
<g id="a_edge9_Node000004_Node000008"><a xlink:title=" ">
<path fill="none" stroke="#9a32cd" stroke-dasharray="5,2" d="M771.04,-181.15C741.35,-176.75 706.02,-169.72 694.38,-160 677.74,-146.12 692.76,-128.26 675.62,-115 651.64,-96.43 564.66,-90.8 518.26,-89.1"/>
<polygon fill="#9a32cd" stroke="#9a32cd" points="770.2,-184.56 780.59,-182.49 771.18,-177.63 770.2,-184.56"/>
</a>
</g>
<text text-anchor="middle" x="713.75" y="-133.62" font-family="Helvetica,sans-Serif" font-size="10.00" fill="grey"> soundID</text>
</g>
<!-- Node9 -->
<g id="Node000009" class="node">
<title>Node9</title>
<g id="a_Node000009"><a xlink:href="structJAISoundStatus__.html" target="_top" xlink:title=" ">
<polygon fill="white" stroke="#666666" points="599.88,-197.25 507.38,-197.25 507.38,-178 599.88,-178 599.88,-197.25"/>
<text text-anchor="middle" x="553.62" y="-183.75" font-family="Helvetica,sans-Serif" font-size="10.00">JAISoundStatus_</text>
</a>
</g>
</g>
<!-- Node9&#45;&gt;Node4 -->
<g id="edge10_Node000004_Node000009" class="edge">
<title>Node9&#45;&gt;Node4</title>
<g id="a_edge10_Node000004_Node000009"><a xlink:title=" ">
<path fill="none" stroke="#9a32cd" stroke-dasharray="5,2" d="M533.94,-169.97C530.79,-166.83 527.72,-163.45 525.12,-160 521.01,-154.54 501.8,-115.45 493.02,-97.43"/>
<polygon fill="#9a32cd" stroke="#9a32cd" points="531.34,-172.33 541.07,-176.54 536.09,-167.18 531.34,-172.33"/>
</a>
</g>
<text text-anchor="middle" x="542.88" y="-133.62" font-family="Helvetica,sans-Serif" font-size="10.00" fill="grey"> status_</text>
</g>
<!-- Node10 -->
<g id="Node000010" class="node">
<title>Node10</title>
<g id="a_Node000010"><a xlink:href="structJAISoundFader.html" target="_top" xlink:title=" ">
<polygon fill="white" stroke="#666666" points="342.38,-286.75 258.88,-286.75 258.88,-267.5 342.38,-267.5 342.38,-286.75"/>
<text text-anchor="middle" x="300.62" y="-273.25" font-family="Helvetica,sans-Serif" font-size="10.00">JAISoundFader</text>
</a>
</g>
</g>
<!-- Node10&#45;&gt;Node4 -->
<g id="edge11_Node000004_Node000010" class="edge">
<title>Node10&#45;&gt;Node4</title>
<g id="a_edge11_Node000004_Node000010"><a xlink:title=" ">
<path fill="none" stroke="#9a32cd" stroke-dasharray="5,2" d="M296.81,-256.09C293.88,-235.48 292.04,-202.97 303.62,-178 321.24,-140.03 336.5,-134.33 373.62,-115 400.53,-100.99 434.76,-94.28 458.85,-91.11"/>
<polygon fill="#9a32cd" stroke="#9a32cd" points="293.32,-256.42 298.42,-265.71 300.23,-255.27 293.32,-256.42"/>
</a>
</g>
<text text-anchor="middle" x="315.62" y="-183.75" font-family="Helvetica,sans-Serif" font-size="10.00" fill="grey"> fader</text>
</g>
<!-- Node11 -->
<g id="Node000011" class="node">
<title>Node11</title>
<g id="a_Node000011"><a xlink:href="structJAISoundParamsTransition_1_1TTransition.html" target="_top" xlink:title=" ">
<polygon fill="white" stroke="#666666" points="368.25,-573.5 233,-573.5 233,-543 368.25,-543 368.25,-573.5"/>
<text text-anchor="start" x="241" y="-560" font-family="Helvetica,sans-Serif" font-size="10.00">JAISoundParamsTransition</text>
<text text-anchor="middle" x="300.62" y="-548.75" font-family="Helvetica,sans-Serif" font-size="10.00">::TTransition</text>
</a>
</g>
</g>
<!-- Node11&#45;&gt;Node10 -->
<g id="edge12_Node000010_Node000011" class="edge">
<title>Node11&#45;&gt;Node10</title>
<g id="a_edge12_Node000010_Node000011"><a xlink:title=" ">
<path fill="none" stroke="#9a32cd" stroke-dasharray="5,2" d="M300.62,-531.18C300.62,-471.04 300.62,-324.87 300.62,-287.14"/>
<polygon fill="#9a32cd" stroke="#9a32cd" points="297.13,-531.12 300.63,-541.12 304.13,-531.12 297.13,-531.12"/>
</a>
</g>
<text text-anchor="middle" x="327.25" y="-437.25" font-family="Helvetica,sans-Serif" font-size="10.00" fill="grey"> mTransition</text>
</g>
<!-- Node16 -->
<g id="Node000016" class="node">
<title>Node16</title>
<g id="a_Node000016"><a xlink:href="structJAISoundParamsTransition.html" target="_top" xlink:title=" ">
<polygon fill="white" stroke="#666666" points="135.25,-450.75 0,-450.75 0,-431.5 135.25,-431.5 135.25,-450.75"/>
<text text-anchor="middle" x="67.62" y="-437.25" font-family="Helvetica,sans-Serif" font-size="10.00">JAISoundParamsTransition</text>
</a>
</g>
</g>
<!-- Node11&#45;&gt;Node16 -->
<g id="edge18_Node000016_Node000011" class="edge">
<title>Node11&#45;&gt;Node16</title>
<g id="a_edge18_Node000016_Node000011"><a xlink:title=" ">
<path fill="none" stroke="#9a32cd" stroke-dasharray="5,2" d="M261.1,-537.72C210.08,-512.51 123.38,-469.67 85.85,-451.13"/>
<polygon fill="#9a32cd" stroke="#9a32cd" points="259.24,-540.71 269.76,-542 262.34,-534.43 259.24,-540.71"/>
</a>
</g>
<text text-anchor="middle" x="253.25" y="-515.5" font-family="Helvetica,sans-Serif" font-size="10.00" fill="grey"> mDolby</text>
<text text-anchor="middle" x="253.25" y="-504.25" font-family="Helvetica,sans-Serif" font-size="10.00" fill="grey">mFxMix</text>
<text text-anchor="middle" x="253.25" y="-493" font-family="Helvetica,sans-Serif" font-size="10.00" fill="grey">mPan</text>
<text text-anchor="middle" x="253.25" y="-481.75" font-family="Helvetica,sans-Serif" font-size="10.00" fill="grey">mPitch</text>
<text text-anchor="middle" x="253.25" y="-470.5" font-family="Helvetica,sans-Serif" font-size="10.00" fill="grey">mVolume</text>
</g>
<!-- Node17 -->
<g id="Node000017" class="node">
<title>Node17</title>
<g id="a_Node000017"><a xlink:href="structZ2SoundFader.html" target="_top" xlink:title=" ">
<polygon fill="white" stroke="#666666" points="839.5,-413.5 759.75,-413.5 759.75,-394.25 839.5,-394.25 839.5,-413.5"/>
<text text-anchor="middle" x="799.62" y="-400" font-family="Helvetica,sans-Serif" font-size="10.00">Z2SoundFader</text>
</a>
</g>
</g>
<!-- Node11&#45;&gt;Node17 -->
<g id="edge21_Node000017_Node000011" class="edge">
<title>Node11&#45;&gt;Node17</title>
<g id="a_edge21_Node000017_Node000011"><a xlink:title=" ">
<path fill="none" stroke="#9a32cd" stroke-dasharray="5,2" d="M359.86,-539.16C467.1,-506.42 689.71,-438.44 769.97,-413.93"/>
<polygon fill="#9a32cd" stroke="#9a32cd" points="358.91,-535.79 350.37,-542.06 360.96,-542.49 358.91,-535.79"/>
</a>
</g>
<text text-anchor="middle" x="609.25" y="-493" font-family="Helvetica,sans-Serif" font-size="10.00" fill="grey"> mTransition</text>
</g>
<!-- Node12 -->
<g id="Node000012" class="node">
<title>Node12</title>
<g id="a_Node000012"><a xlink:href="structJAISoundParams.html" target="_top" xlink:title=" ">
<polygon fill="white" stroke="#666666" points="253.88,-197.25 161.38,-197.25 161.38,-178 253.88,-178 253.88,-197.25"/>
<text text-anchor="middle" x="207.62" y="-183.75" font-family="Helvetica,sans-Serif" font-size="10.00">JAISoundParams</text>
</a>
</g>
</g>
<!-- Node12&#45;&gt;Node4 -->
<g id="edge13_Node000004_Node000012" class="edge">
<title>Node12&#45;&gt;Node4</title>
<g id="a_edge13_Node000004_Node000012"><a xlink:title=" ">
<path fill="none" stroke="#9a32cd" stroke-dasharray="5,2" d="M212.62,-167C217.98,-150.27 228.23,-127.07 246.12,-115 280.18,-92.02 401.88,-88.58 458.84,-88.26"/>
<polygon fill="#9a32cd" stroke="#9a32cd" points="209.34,-165.76 209.96,-176.33 216.07,-167.68 209.34,-165.76"/>
</a>
</g>
<text text-anchor="middle" x="263.88" y="-133.62" font-family="Helvetica,sans-Serif" font-size="10.00" fill="grey"> params</text>
</g>
<!-- Node13 -->
<g id="Node000013" class="node">
<title>Node13</title>
<g id="a_Node000013"><a xlink:href="structJAISoundParamsProperty.html" target="_top" xlink:title=" ">
<polygon fill="white" stroke="#666666" points="272.88,-376.25 144.38,-376.25 144.38,-357 272.88,-357 272.88,-376.25"/>
<text text-anchor="middle" x="208.62" y="-362.75" font-family="Helvetica,sans-Serif" font-size="10.00">JAISoundParamsProperty</text>
</a>
</g>
</g>
<!-- Node13&#45;&gt;Node12 -->
<g id="edge14_Node000012_Node000013" class="edge">
<title>Node13&#45;&gt;Node12</title>
<g id="a_edge14_Node000012_Node000013"><a xlink:title=" ">
<path fill="none" stroke="#9a32cd" stroke-dasharray="5,2" d="M204.04,-345.63C203.66,-343.4 203.35,-341.16 203.12,-339 197.53,-284.29 198.53,-270.06 203.12,-215.25 203.63,-209.27 204.75,-202.61 205.75,-197.45"/>
<polygon fill="#9a32cd" stroke="#9a32cd" points="200.59,-346.25 206.03,-355.34 207.45,-344.84 200.59,-346.25"/>
</a>
</g>
<text text-anchor="middle" x="226.88" y="-273.25" font-family="Helvetica,sans-Serif" font-size="10.00" fill="grey"> mProperty</text>
</g>
<!-- Node14 -->
<g id="Node000014" class="node">
<title>Node14</title>
<g id="a_Node000014"><a xlink:href="structJAISoundParamsMove.html" target="_top" xlink:title=" ">
<polygon fill="white" stroke="#666666" points="125.88,-376.25 9.38,-376.25 9.38,-357 125.88,-357 125.88,-376.25"/>
<text text-anchor="middle" x="67.62" y="-362.75" font-family="Helvetica,sans-Serif" font-size="10.00">JAISoundParamsMove</text>
</a>
</g>
</g>
<!-- Node14&#45;&gt;Node12 -->
<g id="edge15_Node000012_Node000014" class="edge">
<title>Node14&#45;&gt;Node12</title>
<g id="a_edge15_Node000012_Node000014"><a xlink:title=" ">
<path fill="none" stroke="#9a32cd" stroke-dasharray="5,2" d="M75.69,-346.61C89.48,-315.89 120.12,-254.8 161.12,-215.25 168.62,-208.02 178.46,-202.02 187.16,-197.56"/>
<polygon fill="#9a32cd" stroke="#9a32cd" points="72.65,-344.84 71.85,-355.4 79.06,-347.64 72.65,-344.84"/>
</a>
</g>
<text text-anchor="middle" x="178.88" y="-273.25" font-family="Helvetica,sans-Serif" font-size="10.00" fill="grey"> mMove</text>
</g>
<!-- Node15 -->
<g id="Node000015" class="node">
<title>Node15</title>
<g id="a_Node000015"><a xlink:href="structJASSoundParams.html" target="_top" xlink:title=" ">
<polygon fill="white" stroke="#666666" points="249.75,-450.75 153.5,-450.75 153.5,-431.5 249.75,-431.5 249.75,-450.75"/>
<text text-anchor="middle" x="201.62" y="-437.25" font-family="Helvetica,sans-Serif" font-size="10.00">JASSoundParams</text>
</a>
</g>
</g>
<!-- Node15&#45;&gt;Node14 -->
<g id="edge16_Node000014_Node000015" class="edge">
<title>Node15&#45;&gt;Node14</title>
<g id="a_edge16_Node000014_Node000015"><a xlink:title=" ">
<path fill="none" stroke="#9a32cd" stroke-dasharray="5,2" d="M177.85,-425.12C162.81,-415.84 142.84,-403.9 124.62,-394.25 112.85,-388.01 99.35,-381.67 88.45,-376.75"/>
<polygon fill="#9a32cd" stroke="#9a32cd" points="175.77,-427.95 186.11,-430.26 179.47,-422.01 175.77,-427.95"/>
</a>
</g>
<text text-anchor="middle" x="179.75" y="-400" font-family="Helvetica,sans-Serif" font-size="10.00" fill="grey"> mParams</text>
</g>
<!-- Node16&#45;&gt;Node14 -->
<g id="edge17_Node000014_Node000016" class="edge">
<title>Node16&#45;&gt;Node14</title>
<g id="a_edge17_Node000014_Node000016"><a xlink:title=" ">
<path fill="none" stroke="#9a32cd" stroke-dasharray="5,2" d="M67.62,-420.1C67.62,-405.85 67.62,-387.38 67.62,-376.59"/>
<polygon fill="#9a32cd" stroke="#9a32cd" points="64.13,-419.72 67.63,-429.72 71.13,-419.72 64.13,-419.72"/>
</a>
</g>
<text text-anchor="middle" x="94.25" y="-400" font-family="Helvetica,sans-Serif" font-size="10.00" fill="grey"> mTransition</text>
</g>
<!-- Node17&#45;&gt;Node1 -->
<g id="edge20_Node000001_Node000017" class="edge">
<title>Node17&#45;&gt;Node1</title>
<g id="a_edge20_Node000001_Node000017"><a xlink:title=" ">
<path fill="none" stroke="#9a32cd" stroke-dasharray="5,2" d="M812.93,-384.82C840.56,-346.08 903.41,-251.08 925.62,-160 930.37,-140.57 936.12,-132.02 925.62,-115 920.6,-106.85 912.23,-101.11 903.61,-97.1"/>
<polygon fill="#9a32cd" stroke="#9a32cd" points="810.34,-382.44 807.31,-392.59 816.01,-386.54 810.34,-382.44"/>
</a>
</g>
<text text-anchor="middle" x="952.62" y="-329.5" font-family="Helvetica,sans-Serif" font-size="10.00" fill="grey"> field_0x84</text>
<text text-anchor="middle" x="952.62" y="-318.25" font-family="Helvetica,sans-Serif" font-size="10.00" fill="grey">field_0xa4</text>
<text text-anchor="middle" x="952.62" y="-307" font-family="Helvetica,sans-Serif" font-size="10.00" fill="grey">mAllBgmMaster</text>
<text text-anchor="middle" x="952.62" y="-295.75" font-family="Helvetica,sans-Serif" font-size="10.00" fill="grey">mBgmPause</text>
<text text-anchor="middle" x="952.62" y="-284.5" font-family="Helvetica,sans-Serif" font-size="10.00" fill="grey">mFanfareMute</text>
<text text-anchor="middle" x="952.62" y="-273.25" font-family="Helvetica,sans-Serif" font-size="10.00" fill="grey">mMainBgmMaster</text>
<text text-anchor="middle" x="952.62" y="-262" font-family="Helvetica,sans-Serif" font-size="10.00" fill="grey">mSceneBgm</text>
<text text-anchor="middle" x="952.62" y="-250.75" font-family="Helvetica,sans-Serif" font-size="10.00" fill="grey">mStreamBgmMaster</text>
<text text-anchor="middle" x="952.62" y="-239.5" font-family="Helvetica,sans-Serif" font-size="10.00" fill="grey">mSubBgmMaster</text>
<text text-anchor="middle" x="952.62" y="-228.25" font-family="Helvetica,sans-Serif" font-size="10.00" fill="grey">mWindStone</text>
<text text-anchor="middle" x="952.62" y="-217" font-family="Helvetica,sans-Serif" font-size="10.00" fill="grey">...</text>
</g>
</g>
</svg>
