<?xml version="1.0" encoding="UTF-8" standalone="no"?>
<!DOCTYPE svg PUBLIC "-//W3C//DTD SVG 1.1//EN"
 "http://www.w3.org/Graphics/SVG/1.1/DTD/svg11.dtd">
<!-- Generated by graphviz version 9.0.0 (20230911.1827)
 -->
<!-- Title: dBgS_LinChk Pages: 1 -->
<svg width="570pt" height="355pt"
 viewBox="0.00 0.00 569.88 354.75" xmlns="http://www.w3.org/2000/svg" xmlns:xlink="http://www.w3.org/1999/xlink">
<g id="graph0" class="graph" transform="scale(1 1) rotate(0) translate(4 350.75)">
<title>dBgS_LinChk</title>
<!-- Node1 -->
<g id="Node000001" class="node">
<title>Node1</title>
<g id="a_Node000001"><a xlink:title=" ">
<polygon fill="#999999" stroke="#666666" points="328.5,-19.25 252.5,-19.25 252.5,0 328.5,0 328.5,-19.25"/>
<text text-anchor="middle" x="290.5" y="-5.75" font-family="Helvetica,sans-Serif" font-size="10.00">dBgS_LinChk</text>
</a>
</g>
</g>
<!-- Node2 -->
<g id="Node000002" class="node">
<title>Node2</title>
<g id="a_Node000002"><a xlink:href="structcBgS__LinChk.html" target="_top" xlink:title=" ">
<polygon fill="white" stroke="#666666" points="229.5,-75.5 153.5,-75.5 153.5,-56.25 229.5,-56.25 229.5,-75.5"/>
<text text-anchor="middle" x="191.5" y="-62" font-family="Helvetica,sans-Serif" font-size="10.00">cBgS_LinChk</text>
</a>
</g>
</g>
<!-- Node2&#45;&gt;Node1 -->
<g id="edge1_Node000001_Node000002" class="edge">
<title>Node2&#45;&gt;Node1</title>
<g id="a_edge1_Node000001_Node000002"><a xlink:title=" ">
<path fill="none" stroke="#63b8ff" d="M217.94,-50.39C235.81,-40.59 258.86,-27.96 274.13,-19.6"/>
<polygon fill="#63b8ff" stroke="#63b8ff" points="216.26,-47.31 209.18,-55.19 219.63,-53.45 216.26,-47.31"/>
</a>
</g>
</g>
<!-- Node3 -->
<g id="Node000003" class="node">
<title>Node3</title>
<g id="a_Node000003"><a xlink:href="classcBgS__Chk.html" target="_top" xlink:title=" ">
<polygon fill="white" stroke="#666666" points="222.75,-142 160.25,-142 160.25,-122.75 222.75,-122.75 222.75,-142"/>
<text text-anchor="middle" x="191.5" y="-128.5" font-family="Helvetica,sans-Serif" font-size="10.00">cBgS_Chk</text>
</a>
</g>
</g>
<!-- Node3&#45;&gt;Node2 -->
<g id="edge2_Node000002_Node000003" class="edge">
<title>Node3&#45;&gt;Node2</title>
<g id="a_edge2_Node000002_Node000003"><a xlink:title=" ">
<path fill="none" stroke="#63b8ff" d="M191.5,-110.9C191.5,-99.07 191.5,-84.79 191.5,-75.77"/>
<polygon fill="#63b8ff" stroke="#63b8ff" points="188,-110.89 191.5,-120.89 195,-110.89 188,-110.89"/>
</a>
</g>
</g>
<!-- Node4 -->
<g id="Node000004" class="node">
<title>Node4</title>
<g id="a_Node000004"><a xlink:href="classcBgS__PolyPassChk.html" target="_top" xlink:title=" ">
<polygon fill="white" stroke="#666666" points="301.38,-255.12 197.62,-255.12 197.62,-235.88 301.38,-235.88 301.38,-255.12"/>
<text text-anchor="middle" x="249.5" y="-241.62" font-family="Helvetica,sans-Serif" font-size="10.00">cBgS_PolyPassChk</text>
</a>
</g>
</g>
<!-- Node4&#45;&gt;Node3 -->
<g id="edge3_Node000003_Node000004" class="edge">
<title>Node4&#45;&gt;Node3</title>
<g id="a_edge3_Node000003_Node000004"><a xlink:title=" ">
<path fill="none" stroke="#9a32cd" stroke-dasharray="5,2" d="M239.46,-225.26C226.78,-200.98 205.5,-160.21 196.15,-142.28"/>
<polygon fill="#9a32cd" stroke="#9a32cd" points="236.32,-226.82 244.05,-234.06 242.53,-223.58 236.32,-226.82"/>
</a>
</g>
<text text-anchor="middle" x="251" y="-167.38" font-family="Helvetica,sans-Serif" font-size="10.00" fill="grey"> mPolyPassChk</text>
</g>
<!-- Node11 -->
<g id="Node000011" class="node">
<title>Node11</title>
<g id="a_Node000011"><a xlink:href="structdBgS__PolyPassChk.html" target="_top" xlink:title=" ">
<polygon fill="white" stroke="#666666" points="443.38,-142 339.62,-142 339.62,-122.75 443.38,-122.75 443.38,-142"/>
<text text-anchor="middle" x="391.5" y="-128.5" font-family="Helvetica,sans-Serif" font-size="10.00">dBgS_PolyPassChk</text>
</a>
</g>
</g>
<!-- Node4&#45;&gt;Node11 -->
<g id="edge13_Node000011_Node000004" class="edge">
<title>Node4&#45;&gt;Node11</title>
<g id="a_edge13_Node000011_Node000004"><a xlink:title=" ">
<path fill="none" stroke="#63b8ff" d="M263.11,-226.56C278,-207.94 303.37,-178.92 330.5,-160 340.93,-152.73 353.65,-146.79 364.78,-142.38"/>
<polygon fill="#63b8ff" stroke="#63b8ff" points="260.48,-224.25 257.09,-234.29 266,-228.56 260.48,-224.25"/>
</a>
</g>
</g>
<!-- Node5 -->
<g id="Node000005" class="node">
<title>Node5</title>
<g id="a_Node000005"><a xlink:href="classcBgS__GrpPassChk.html" target="_top" xlink:title=" ">
<polygon fill="white" stroke="#666666" points="464.88,-255.12 364.12,-255.12 364.12,-235.88 464.88,-235.88 464.88,-255.12"/>
<text text-anchor="middle" x="414.5" y="-241.62" font-family="Helvetica,sans-Serif" font-size="10.00">cBgS_GrpPassChk</text>
</a>
</g>
</g>
<!-- Node5&#45;&gt;Node3 -->
<g id="edge4_Node000003_Node000005" class="edge">
<title>Node5&#45;&gt;Node3</title>
<g id="a_edge4_Node000003_Node000005"><a xlink:title=" ">
<path fill="none" stroke="#9a32cd" stroke-dasharray="5,2" d="M395.21,-228.46C371.64,-209.6 329.89,-178.52 289.5,-160 277.64,-154.56 246.74,-146.51 222.78,-140.69"/>
<polygon fill="#9a32cd" stroke="#9a32cd" points="392.72,-230.95 402.69,-234.54 397.14,-225.52 392.72,-230.95"/>
</a>
</g>
<text text-anchor="middle" x="361.5" y="-167.38" font-family="Helvetica,sans-Serif" font-size="10.00" fill="grey"> mGrpPassChk</text>
</g>
<!-- Node12 -->
<g id="Node000012" class="node">
<title>Node12</title>
<g id="a_Node000012"><a xlink:href="classdBgS__GrpPassChk.html" target="_top" xlink:title=" ">
<polygon fill="white" stroke="#666666" points="561.88,-142 461.12,-142 461.12,-122.75 561.88,-122.75 561.88,-142"/>
<text text-anchor="middle" x="511.5" y="-128.5" font-family="Helvetica,sans-Serif" font-size="10.00">dBgS_GrpPassChk</text>
</a>
</g>
</g>
<!-- Node5&#45;&gt;Node12 -->
<g id="edge15_Node000012_Node000005" class="edge">
<title>Node5&#45;&gt;Node12</title>
<g id="a_edge15_Node000012_Node000005"><a xlink:title=" ">
<path fill="none" stroke="#63b8ff" d="M429.87,-226.89C450.87,-202.83 487.73,-160.61 503.72,-142.28"/>
<polygon fill="#63b8ff" stroke="#63b8ff" points="427.37,-224.43 423.43,-234.27 432.65,-229.03 427.37,-224.43"/>
</a>
</g>
</g>
<!-- Node6 -->
<g id="Node000006" class="node">
<title>Node6</title>
<g id="a_Node000006"><a xlink:href="structcBgS__PolyInfo.html" target="_top" xlink:title=" ">
<polygon fill="white" stroke="#666666" points="321.75,-142 241.25,-142 241.25,-122.75 321.75,-122.75 321.75,-142"/>
<text text-anchor="middle" x="281.5" y="-128.5" font-family="Helvetica,sans-Serif" font-size="10.00">cBgS_PolyInfo</text>
</a>
</g>
</g>
<!-- Node6&#45;&gt;Node2 -->
<g id="edge5_Node000002_Node000006" class="edge">
<title>Node6&#45;&gt;Node2</title>
<g id="a_edge5_Node000002_Node000006"><a xlink:title=" ">
<path fill="none" stroke="#63b8ff" d="M260.09,-116.03C242.68,-103.56 218.71,-86.37 204.2,-75.98"/>
<polygon fill="#63b8ff" stroke="#63b8ff" points="257.59,-118.54 267.76,-121.52 261.67,-112.85 257.59,-118.54"/>
</a>
</g>
</g>
<!-- Node7 -->
<g id="Node000007" class="node">
<title>Node7</title>
<g id="a_Node000007"><a xlink:href="structcM3dGLin.html" target="_top" xlink:title=" ">
<polygon fill="white" stroke="#666666" points="61,-142 0,-142 0,-122.75 61,-122.75 61,-142"/>
<text text-anchor="middle" x="30.5" y="-128.5" font-family="Helvetica,sans-Serif" font-size="10.00">cM3dGLin</text>
</a>
</g>
</g>
<!-- Node7&#45;&gt;Node2 -->
<g id="edge6_Node000002_Node000007" class="edge">
<title>Node7&#45;&gt;Node2</title>
<g id="a_edge6_Node000002_Node000007"><a xlink:title=" ">
<path fill="none" stroke="#9a32cd" stroke-dasharray="5,2" d="M40.83,-112.69C45.63,-105.65 51.95,-98.22 59.5,-93.5 87.66,-75.92 125.19,-69.65 153.04,-67.55"/>
<polygon fill="#9a32cd" stroke="#9a32cd" points="37.94,-110.7 35.72,-121.06 43.92,-114.35 37.94,-110.7"/>
</a>
</g>
<text text-anchor="middle" x="71.5" y="-95.25" font-family="Helvetica,sans-Serif" font-size="10.00" fill="grey"> mLin</text>
</g>
<!-- Node8 -->
<g id="Node000008" class="node">
<title>Node8</title>
<g id="a_Node000008"><a xlink:href="structcXyz.html" target="_top" xlink:title=" ">
<polygon fill="white" stroke="#666666" points="83,-255.12 46,-255.12 46,-235.88 83,-235.88 83,-255.12"/>
<text text-anchor="middle" x="64.5" y="-241.62" font-family="Helvetica,sans-Serif" font-size="10.00">cXyz</text>
</a>
</g>
</g>
<!-- Node8&#45;&gt;Node2 -->
<g id="edge10_Node000002_Node000008" class="edge">
<title>Node8&#45;&gt;Node2</title>
<g id="a_edge10_Node000002_Node000008"><a xlink:title=" ">
<path fill="none" stroke="#9a32cd" stroke-dasharray="5,2" d="M69.64,-224.73C77.76,-194.6 93.9,-138.96 106.5,-122.75 123.41,-101 151.27,-85.01 170.46,-75.83"/>
<polygon fill="#9a32cd" stroke="#9a32cd" points="66.34,-223.54 67.16,-234.1 73.11,-225.33 66.34,-223.54"/>
</a>
</g>
<text text-anchor="middle" x="129" y="-128.5" font-family="Helvetica,sans-Serif" font-size="10.00" fill="grey"> field_0x40</text>
</g>
<!-- Node8&#45;&gt;Node7 -->
<g id="edge7_Node000007_Node000008" class="edge">
<title>Node8&#45;&gt;Node7</title>
<g id="a_edge7_Node000007_Node000008"><a xlink:title=" ">
<path fill="none" stroke="#9a32cd" stroke-dasharray="5,2" d="M58.41,-224.6C50.96,-200.24 38.66,-160.04 33.23,-142.28"/>
<polygon fill="#9a32cd" stroke="#9a32cd" points="55,-225.42 61.27,-233.96 61.7,-223.37 55,-225.42"/>
</a>
</g>
<text text-anchor="middle" x="60.12" y="-173" font-family="Helvetica,sans-Serif" font-size="10.00" fill="grey"> mEnd</text>
<text text-anchor="middle" x="60.12" y="-161.75" font-family="Helvetica,sans-Serif" font-size="10.00" fill="grey">mStart</text>
</g>
<!-- Node8&#45;&gt;Node8 -->
<g id="edge9_Node000008_Node000008" class="edge">
<title>Node8&#45;&gt;Node8</title>
<g id="a_edge9_Node000008_Node000008"><a xlink:title=" ">
<path fill="none" stroke="#9a32cd" stroke-dasharray="5,2" d="M89.27,-257.32C95.93,-256.68 101,-252.74 101,-245.5 101,-234.46 89.24,-231.1 77.98,-235.41"/>
<polygon fill="#9a32cd" stroke="#9a32cd" points="89.89,-253.87 79.47,-255.82 88.83,-260.79 89.89,-253.87"/>
</a>
</g>
<text text-anchor="middle" x="122" y="-281" font-family="Helvetica,sans-Serif" font-size="10.00" fill="grey"> BaseX</text>
<text text-anchor="middle" x="122" y="-269.75" font-family="Helvetica,sans-Serif" font-size="10.00" fill="grey">BaseXY</text>
<text text-anchor="middle" x="122" y="-258.5" font-family="Helvetica,sans-Serif" font-size="10.00" fill="grey">BaseXYZ</text>
<text text-anchor="middle" x="122" y="-247.25" font-family="Helvetica,sans-Serif" font-size="10.00" fill="grey">BaseXZ</text>
<text text-anchor="middle" x="122" y="-236" font-family="Helvetica,sans-Serif" font-size="10.00" fill="grey">BaseY</text>
<text text-anchor="middle" x="122" y="-224.75" font-family="Helvetica,sans-Serif" font-size="10.00" fill="grey">BaseYZ</text>
<text text-anchor="middle" x="122" y="-213.5" font-family="Helvetica,sans-Serif" font-size="10.00" fill="grey">BaseZ</text>
<text text-anchor="middle" x="122" y="-202.25" font-family="Helvetica,sans-Serif" font-size="10.00" fill="grey">Zero</text>
</g>
<!-- Node9 -->
<g id="Node000009" class="node">
<title>Node9</title>
<g id="a_Node000009"><a xlink:href="structVec.html" target="_top" xlink:title=" ">
<polygon fill="white" stroke="#666666" points="81.12,-346.75 47.88,-346.75 47.88,-327.5 81.12,-327.5 81.12,-346.75"/>
<text text-anchor="middle" x="64.5" y="-333.25" font-family="Helvetica,sans-Serif" font-size="10.00">Vec</text>
</a>
</g>
</g>
<!-- Node9&#45;&gt;Node8 -->
<g id="edge8_Node000008_Node000009" class="edge">
<title>Node9&#45;&gt;Node8</title>
<g id="a_edge8_Node000008_Node000009"><a xlink:title=" ">
<path fill="none" stroke="#63b8ff" d="M64.5,-315.94C64.5,-296.94 64.5,-269.39 64.5,-255.39"/>
<polygon fill="#63b8ff" stroke="#63b8ff" points="61,-315.69 64.5,-325.69 68,-315.69 61,-315.69"/>
</a>
</g>
</g>
<!-- Node10 -->
<g id="Node000010" class="node">
<title>Node10</title>
<g id="a_Node000010"><a xlink:href="classdBgS__Chk.html" target="_top" xlink:title=" ">
<polygon fill="white" stroke="#666666" points="422.75,-75.5 360.25,-75.5 360.25,-56.25 422.75,-56.25 422.75,-75.5"/>
<text text-anchor="middle" x="391.5" y="-62" font-family="Helvetica,sans-Serif" font-size="10.00">dBgS_Chk</text>
</a>
</g>
</g>
<!-- Node10&#45;&gt;Node1 -->
<g id="edge11_Node000001_Node000010" class="edge">
<title>Node10&#45;&gt;Node1</title>
<g id="a_edge11_Node000001_Node000010"><a xlink:title=" ">
<path fill="none" stroke="#63b8ff" d="M364.79,-50.53C346.51,-40.71 322.85,-28 307.2,-19.6"/>
<polygon fill="#63b8ff" stroke="#63b8ff" points="363.02,-53.55 373.49,-55.2 366.34,-47.39 363.02,-53.55"/>
</a>
</g>
</g>
<!-- Node11&#45;&gt;Node10 -->
<g id="edge12_Node000010_Node000011" class="edge">
<title>Node11&#45;&gt;Node10</title>
<g id="a_edge12_Node000010_Node000011"><a xlink:title=" ">
<path fill="none" stroke="#63b8ff" d="M391.5,-110.9C391.5,-99.07 391.5,-84.79 391.5,-75.77"/>
<polygon fill="#63b8ff" stroke="#63b8ff" points="388,-110.89 391.5,-120.89 395,-110.89 388,-110.89"/>
</a>
</g>
</g>
<!-- Node12&#45;&gt;Node10 -->
<g id="edge14_Node000010_Node000012" class="edge">
<title>Node12&#45;&gt;Node10</title>
<g id="a_edge14_Node000010_Node000012"><a xlink:title=" ">
<path fill="none" stroke="#63b8ff" d="M484.6,-116.92C461.24,-104.36 428.15,-86.57 408.35,-75.93"/>
<polygon fill="#63b8ff" stroke="#63b8ff" points="482.76,-119.9 493.23,-121.55 486.08,-113.74 482.76,-119.9"/>
</a>
</g>
</g>
</g>
</svg>
