<?xml version="1.0" encoding="UTF-8" standalone="no"?>
<!DOCTYPE svg PUBLIC "-//W3C//DTD SVG 1.1//EN"
 "http://www.w3.org/Graphics/SVG/1.1/DTD/svg11.dtd">
<!-- Generated by graphviz version 9.0.0 (20230911.1827)
 -->
<!-- Title: daTag_EvtArea_c Pages: 1 -->
<svg width="101pt" height="138pt"
 viewBox="0.00 0.00 101.25 137.75" xmlns="http://www.w3.org/2000/svg" xmlns:xlink="http://www.w3.org/1999/xlink">
<g id="graph0" class="graph" transform="scale(1 1) rotate(0) translate(4 133.75)">
<title>daTag_EvtArea_c</title>
<!-- Node1 -->
<g id="Node000001" class="node">
<title>Node1</title>
<g id="a_Node000001"><a xlink:title=" ">
<polygon fill="#999999" stroke="#666666" points="93.25,-19.25 0,-19.25 0,0 93.25,0 93.25,-19.25"/>
<text text-anchor="middle" x="46.62" y="-5.75" font-family="Helvetica,sans-Serif" font-size="10.00">daTag_EvtArea_c</text>
</a>
</g>
</g>
<!-- Node2 -->
<g id="Node000002" class="node">
<title>Node2</title>
<g id="a_Node000002"><a xlink:href="structfopAc__ac__c.html" target="_top" xlink:title=" ">
<polygon fill="white" stroke="#666666" points="80.5,-74.5 12.75,-74.5 12.75,-55.25 80.5,-55.25 80.5,-74.5"/>
<text text-anchor="middle" x="46.62" y="-61" font-family="Helvetica,sans-Serif" font-size="10.00">fopAc_ac_c</text>
</a>
</g>
</g>
<!-- Node2&#45;&gt;Node1 -->
<g id="edge1_Node000001_Node000002" class="edge">
<title>Node2&#45;&gt;Node1</title>
<g id="a_edge1_Node000001_Node000002"><a xlink:title=" ">
<path fill="none" stroke="#63b8ff" d="M46.62,-43.63C46.62,-35.34 46.62,-26.17 46.62,-19.61"/>
<polygon fill="#63b8ff" stroke="#63b8ff" points="43.13,-43.57 46.63,-53.57 50.13,-43.57 43.13,-43.57"/>
</a>
</g>
</g>
<!-- Node3 -->
<g id="Node000003" class="node">
<title>Node3</title>
<g id="a_Node000003"><a xlink:href="structleafdraw__class.html" target="_top" xlink:title=" ">
<polygon fill="white" stroke="#666666" points="87.25,-129.75 6,-129.75 6,-110.5 87.25,-110.5 87.25,-129.75"/>
<text text-anchor="middle" x="46.62" y="-116.25" font-family="Helvetica,sans-Serif" font-size="10.00">leafdraw_class</text>
</a>
</g>
</g>
<!-- Node3&#45;&gt;Node2 -->
<g id="edge2_Node000002_Node000003" class="edge">
<title>Node3&#45;&gt;Node2</title>
<g id="a_edge2_Node000002_Node000003"><a xlink:title=" ">
<path fill="none" stroke="#63b8ff" d="M46.62,-98.88C46.62,-90.59 46.62,-81.42 46.62,-74.86"/>
<polygon fill="#63b8ff" stroke="#63b8ff" points="43.13,-98.82 46.63,-108.82 50.13,-98.82 43.13,-98.82"/>
</a>
</g>
</g>
</g>
</svg>
