<?xml version="1.0" encoding="UTF-8" standalone="no"?>
<!DOCTYPE svg PUBLIC "-//W3C//DTD SVG 1.1//EN"
 "http://www.w3.org/Graphics/SVG/1.1/DTD/svg11.dtd">
<!-- Generated by graphviz version 9.0.0 (20230911.1827)
 -->
<!-- Title: cBgS_GndChk Pages: 1 -->
<svg width="384pt" height="231pt"
 viewBox="0.00 0.00 384.38 231.00" xmlns="http://www.w3.org/2000/svg" xmlns:xlink="http://www.w3.org/1999/xlink">

<svg id="main" version="1.1" xmlns="http://www.w3.org/2000/svg" xmlns:xlink="http://www.w3.org/1999/xlink" xml:space="preserve" onload="init(evt)">
<style type="text/css"><![CDATA[
.node, .edge {opacity: 0.7;}
.node.selected, .edge.selected {opacity: 1;}
.edge:hover path { stroke: red; }
.edge:hover polygon { stroke: red; fill: red; }
]]></style>
<script type="application/ecmascript" xlink:href="svg.min.js"/>
<svg id="graph" class="graph">
<g id="graph0" class="graph" transform="scale(1 1) rotate(0) translate(4 227)">
<title>cBgS_GndChk</title>
<!-- Node1 -->
<g id="Node000001" class="node">
<title>Node1</title>
<g id="a_Node000001"><a xlink:title=" ">
<polygon fill="#999999" stroke="#666666" points="261.12,-19.25 180.62,-19.25 180.62,0 261.12,0 261.12,-19.25"/>
<text text-anchor="middle" x="220.88" y="-5.75" font-family="Helvetica,sans-Serif" font-size="10.00">cBgS_GndChk</text>
</a>
</g>
</g>
<!-- Node2 -->
<g id="Node000002" class="node">
<title>Node2</title>
<g id="a_Node000002"><a xlink:href="classcBgS__Chk.html" target="_top" xlink:title=" ">
<polygon fill="white" stroke="#666666" points="162.12,-121.12 99.62,-121.12 99.62,-101.88 162.12,-101.88 162.12,-121.12"/>
<text text-anchor="middle" x="130.88" y="-107.62" font-family="Helvetica,sans-Serif" font-size="10.00">cBgS_Chk</text>
</a>
</g>
</g>
<!-- Node2&#45;&gt;Node1 -->
<g id="edge1_Node000001_Node000002" class="edge">
<title>Node2&#45;&gt;Node1</title>
<g id="a_edge1_Node000001_Node000002"><a xlink:title=" ">
<path fill="none" stroke="#63b8ff" d="M146.48,-93.18C165.77,-71.78 197.85,-36.18 212.78,-19.61"/>
<polygon fill="#63b8ff" stroke="#63b8ff" points="143.97,-90.74 139.88,-100.51 149.17,-95.43 143.97,-90.74"/>
</a>
</g>
</g>
<!-- Node3 -->
<g id="Node000003" class="node">
<title>Node3</title>
<g id="a_Node000003"><a xlink:href="classcBgS__PolyPassChk.html" target="_top" xlink:title=" ">
<polygon fill="white" stroke="#666666" points="103.75,-223 0,-223 0,-203.75 103.75,-203.75 103.75,-223"/>
<text text-anchor="middle" x="51.88" y="-209.5" font-family="Helvetica,sans-Serif" font-size="10.00">cBgS_PolyPassChk</text>
</a>
</g>
</g>
<!-- Node3&#45;&gt;Node2 -->
<g id="edge2_Node000002_Node000003" class="edge">
<title>Node3&#45;&gt;Node2</title>
<g id="a_edge2_Node000002_Node000003"><a xlink:title=" ">
<path fill="none" stroke="#9a32cd" stroke-dasharray="5,2" d="M65.81,-194.76C82.76,-173.33 110.72,-137.98 123.77,-121.49"/>
<polygon fill="#9a32cd" stroke="#9a32cd" points="63.28,-192.31 59.82,-202.32 68.77,-196.65 63.28,-192.31"/>
</a>
</g>
<text text-anchor="middle" x="114.38" y="-176.25" font-family="Helvetica,sans-Serif" font-size="10.00" fill="grey"> mPolyPassChk</text>
</g>
<!-- Node4 -->
<g id="Node000004" class="node">
<title>Node4</title>
<g id="a_Node000004"><a xlink:href="classcBgS__GrpPassChk.html" target="_top" xlink:title=" ">
<polygon fill="white" stroke="#666666" points="222.25,-223 121.5,-223 121.5,-203.75 222.25,-203.75 222.25,-223"/>
<text text-anchor="middle" x="171.88" y="-209.5" font-family="Helvetica,sans-Serif" font-size="10.00">cBgS_GrpPassChk</text>
</a>
</g>
</g>
<!-- Node4&#45;&gt;Node2 -->
<g id="edge3_Node000002_Node000004" class="edge">
<title>Node4&#45;&gt;Node2</title>
<g id="a_edge3_Node000002_Node000004"><a xlink:title=" ">
<path fill="none" stroke="#9a32cd" stroke-dasharray="5,2" d="M163.92,-193C155.07,-171.44 141.15,-137.53 134.56,-121.49"/>
<polygon fill="#9a32cd" stroke="#9a32cd" points="160.63,-194.19 167.66,-202.11 167.1,-191.53 160.63,-194.19"/>
</a>
</g>
<text text-anchor="middle" x="194.88" y="-176.25" font-family="Helvetica,sans-Serif" font-size="10.00" fill="grey"> mGrpPassChk</text>
</g>
<!-- Node5 -->
<g id="Node000005" class="node">
<title>Node5</title>
<g id="a_Node000005"><a xlink:href="structcBgS__PolyInfo.html" target="_top" xlink:title=" ">
<polygon fill="white" stroke="#666666" points="261.12,-121.12 180.62,-121.12 180.62,-101.88 261.12,-101.88 261.12,-121.12"/>
<text text-anchor="middle" x="220.88" y="-107.62" font-family="Helvetica,sans-Serif" font-size="10.00">cBgS_PolyInfo</text>
</a>
</g>
</g>
<!-- Node5&#45;&gt;Node1 -->
<g id="edge4_Node000001_Node000005" class="edge">
<title>Node5&#45;&gt;Node1</title>
<g id="a_edge4_Node000001_Node000005"><a xlink:title=" ">
<path fill="none" stroke="#63b8ff" d="M220.88,-90.22C220.88,-68.62 220.88,-35.43 220.88,-19.61"/>
<polygon fill="#63b8ff" stroke="#63b8ff" points="217.38,-90.12 220.88,-100.12 224.38,-90.12 217.38,-90.12"/>
</a>
</g>
</g>
<!-- Node6 -->
<g id="Node000006" class="node">
<title>Node6</title>
<g id="a_Node000006"><a xlink:href="structcXyz.html" target="_top" xlink:title=" ">
<polygon fill="white" stroke="#666666" points="316.38,-121.12 279.38,-121.12 279.38,-101.88 316.38,-101.88 316.38,-121.12"/>
<text text-anchor="middle" x="297.88" y="-107.62" font-family="Helvetica,sans-Serif" font-size="10.00">cXyz</text>
</a>
</g>
</g>
<!-- Node6&#45;&gt;Node1 -->
<g id="edge5_Node000001_Node000006" class="edge">
<title>Node6&#45;&gt;Node1</title>
<g id="a_edge5_Node000001_Node000006"><a xlink:title=" ">
<path fill="none" stroke="#9a32cd" stroke-dasharray="5,2" d="M286.77,-91.67C281.86,-83.71 275.85,-74.47 269.88,-66.5 256.87,-49.16 239.83,-30.51 229.66,-19.75"/>
<polygon fill="#9a32cd" stroke="#9a32cd" points="283.74,-93.42 291.9,-100.17 289.73,-89.8 283.74,-93.42"/>
</a>
</g>
<text text-anchor="middle" x="270.62" y="-39" font-family="Helvetica,sans-Serif" font-size="10.00" fill="grey"> m_pos</text>
</g>
<!-- Node6&#45;&gt;Node6 -->
<g id="edge7_Node000006_Node000006" class="edge">
<title>Node6&#45;&gt;Node6</title>
<g id="a_edge7_Node000006_Node000006"><a xlink:title=" ">
<path fill="none" stroke="#9a32cd" stroke-dasharray="5,2" d="M320.46,-124.37C328.17,-124.45 334.38,-120.16 334.38,-111.5 334.38,-98.9 321.25,-95.55 309.46,-101.46"/>
<polygon fill="#9a32cd" stroke="#9a32cd" points="321.48,-121.01 310.93,-121.92 319.74,-127.79 321.48,-121.01"/>
</a>
</g>
<text text-anchor="middle" x="355.38" y="-147" font-family="Helvetica,sans-Serif" font-size="10.00" fill="grey"> BaseX</text>
<text text-anchor="middle" x="355.38" y="-135.75" font-family="Helvetica,sans-Serif" font-size="10.00" fill="grey">BaseXY</text>
<text text-anchor="middle" x="355.38" y="-124.5" font-family="Helvetica,sans-Serif" font-size="10.00" fill="grey">BaseXYZ</text>
<text text-anchor="middle" x="355.38" y="-113.25" font-family="Helvetica,sans-Serif" font-size="10.00" fill="grey">BaseXZ</text>
<text text-anchor="middle" x="355.38" y="-102" font-family="Helvetica,sans-Serif" font-size="10.00" fill="grey">BaseY</text>
<text text-anchor="middle" x="355.38" y="-90.75" font-family="Helvetica,sans-Serif" font-size="10.00" fill="grey">BaseYZ</text>
<text text-anchor="middle" x="355.38" y="-79.5" font-family="Helvetica,sans-Serif" font-size="10.00" fill="grey">BaseZ</text>
<text text-anchor="middle" x="355.38" y="-68.25" font-family="Helvetica,sans-Serif" font-size="10.00" fill="grey">Zero</text>
</g>
<!-- Node7 -->
<g id="Node000007" class="node">
<title>Node7</title>
<g id="a_Node000007"><a xlink:href="structVec.html" target="_top" xlink:title=" ">
<polygon fill="white" stroke="#666666" points="314.5,-223 281.25,-223 281.25,-203.75 314.5,-203.75 314.5,-223"/>
<text text-anchor="middle" x="297.88" y="-209.5" font-family="Helvetica,sans-Serif" font-size="10.00">Vec</text>
</a>
</g>
</g>
<!-- Node7&#45;&gt;Node6 -->
<g id="edge6_Node000006_Node000007" class="edge">
<title>Node7&#45;&gt;Node6</title>
<g id="a_edge6_Node000006_Node000007"><a xlink:title=" ">
<path fill="none" stroke="#63b8ff" d="M297.88,-192.09C297.88,-170.5 297.88,-137.31 297.88,-121.49"/>
<polygon fill="#63b8ff" stroke="#63b8ff" points="294.38,-192 297.88,-202 301.38,-192 294.38,-192"/>
</a>
</g>
</g>
</g>
</svg>
</svg>

<style type='text/css'>
<![CDATA[
[data-mouse-over-selected='false'] { opacity: 0.7; }
[data-mouse-over-selected='true']  { opacity: 1.0; }
]]>
</style>
<script type="application/ecmascript"><![CDATA[
document.addEventListener('DOMContentLoaded', (event) => {
  highlightEdges();
  highlightAdjacentNodes();
});
]]></script>
</svg>
