<?xml version="1.0" encoding="UTF-8" standalone="no"?>
<!DOCTYPE svg PUBLIC "-//W3C//DTD SVG 1.1//EN"
 "http://www.w3.org/Graphics/SVG/1.1/DTD/svg11.dtd">
<!-- Generated by graphviz version 9.0.0 (20230911.1827)
 -->
<!-- Title: dCamera_c::BG Pages: 1 -->
<svg width="631pt" height="483pt"
 viewBox="0.00 0.00 631.38 483.00" xmlns="http://www.w3.org/2000/svg" xmlns:xlink="http://www.w3.org/1999/xlink">
<g id="graph0" class="graph" transform="scale(1 1) rotate(0) translate(4 479)">
<title>dCamera_c::BG</title>
<!-- Node1 -->
<g id="Node000001" class="node">
<title>Node1</title>
<g id="a_Node000001"><a xlink:title=" ">
<polygon fill="#999999" stroke="#666666" points="507,-19.25 422.75,-19.25 422.75,0 507,0 507,-19.25"/>
<text text-anchor="middle" x="464.88" y="-5.75" font-family="Helvetica,sans-Serif" font-size="10.00">dCamera_c::BG</text>
</a>
</g>
</g>
<!-- Node2 -->
<g id="Node000002" class="node">
<title>Node2</title>
<g id="a_Node000002"><a xlink:href="classdBgS__CamGndChk.html" target="_top" xlink:title=" ">
<polygon fill="white" stroke="#666666" points="414.25,-98.62 313.5,-98.62 313.5,-79.38 414.25,-79.38 414.25,-98.62"/>
<text text-anchor="middle" x="363.88" y="-85.12" font-family="Helvetica,sans-Serif" font-size="10.00">dBgS_CamGndChk</text>
</a>
</g>
</g>
<!-- Node2&#45;&gt;Node1 -->
<g id="edge1_Node000001_Node000002" class="edge">
<title>Node2&#45;&gt;Node1</title>
<g id="a_edge1_Node000001_Node000002"><a xlink:title=" ">
<path fill="none" stroke="#9a32cd" stroke-dasharray="5,2" d="M369.15,-68.48C372.89,-57.96 378.92,-45.48 388.12,-37.25 397.8,-28.6 410.43,-22.73 422.65,-18.76"/>
<polygon fill="#9a32cd" stroke="#9a32cd" points="365.89,-67.17 366.29,-77.75 372.58,-69.23 365.89,-67.17"/>
</a>
</g>
<text text-anchor="middle" x="408.75" y="-44.62" font-family="Helvetica,sans-Serif" font-size="10.00" fill="grey"> field_0x4</text>
</g>
<!-- Node3 -->
<g id="Node000003" class="node">
<title>Node3</title>
<g id="a_Node000003"><a xlink:href="structdBgS__GndChk.html" target="_top" xlink:title=" ">
<polygon fill="white" stroke="#666666" points="402.12,-196.5 321.62,-196.5 321.62,-177.25 402.12,-177.25 402.12,-196.5"/>
<text text-anchor="middle" x="361.88" y="-183" font-family="Helvetica,sans-Serif" font-size="10.00">dBgS_GndChk</text>
</a>
</g>
</g>
<!-- Node3&#45;&gt;Node2 -->
<g id="edge2_Node000002_Node000003" class="edge">
<title>Node3&#45;&gt;Node2</title>
<g id="a_edge2_Node000002_Node000003"><a xlink:title=" ">
<path fill="none" stroke="#63b8ff" d="M362.3,-165.55C362.73,-145.02 363.37,-114.26 363.69,-99.11"/>
<polygon fill="#63b8ff" stroke="#63b8ff" points="358.8,-165.44 362.09,-175.51 365.8,-165.59 358.8,-165.44"/>
</a>
</g>
</g>
<!-- Node4 -->
<g id="Node000004" class="node">
<title>Node4</title>
<g id="a_Node000004"><a xlink:href="structcBgS__GndChk.html" target="_top" xlink:title=" ">
<polygon fill="white" stroke="#666666" points="402.12,-271.25 321.62,-271.25 321.62,-252 402.12,-252 402.12,-271.25"/>
<text text-anchor="middle" x="361.88" y="-257.75" font-family="Helvetica,sans-Serif" font-size="10.00">cBgS_GndChk</text>
</a>
</g>
</g>
<!-- Node4&#45;&gt;Node3 -->
<g id="edge3_Node000003_Node000004" class="edge">
<title>Node4&#45;&gt;Node3</title>
<g id="a_edge3_Node000003_Node000004"><a xlink:title=" ">
<path fill="none" stroke="#63b8ff" d="M361.88,-240.53C361.88,-226.23 361.88,-207.7 361.88,-196.87"/>
<polygon fill="#63b8ff" stroke="#63b8ff" points="358.38,-240.19 361.88,-250.19 365.38,-240.19 358.38,-240.19"/>
</a>
</g>
</g>
<!-- Node5 -->
<g id="Node000005" class="node">
<title>Node5</title>
<g id="a_Node000005"><a xlink:href="classcBgS__Chk.html" target="_top" xlink:title=" ">
<polygon fill="white" stroke="#666666" points="185.12,-373.12 122.62,-373.12 122.62,-353.88 185.12,-353.88 185.12,-373.12"/>
<text text-anchor="middle" x="153.88" y="-359.62" font-family="Helvetica,sans-Serif" font-size="10.00">cBgS_Chk</text>
</a>
</g>
</g>
<!-- Node5&#45;&gt;Node4 -->
<g id="edge4_Node000004_Node000005" class="edge">
<title>Node5&#45;&gt;Node4</title>
<g id="a_edge4_Node000004_Node000005"><a xlink:title=" ">
<path fill="none" stroke="#63b8ff" d="M167.03,-344.6C174.36,-335.69 184.17,-325.39 194.88,-318.5 234.08,-293.27 285.84,-278.27 321.28,-270.27"/>
<polygon fill="#63b8ff" stroke="#63b8ff" points="164.42,-342.25 161.04,-352.29 169.94,-346.55 164.42,-342.25"/>
</a>
</g>
</g>
<!-- Node6 -->
<g id="Node000006" class="node">
<title>Node6</title>
<g id="a_Node000006"><a xlink:href="classcBgS__PolyPassChk.html" target="_top" xlink:title=" ">
<polygon fill="white" stroke="#666666" points="119.75,-475 16,-475 16,-455.75 119.75,-455.75 119.75,-475"/>
<text text-anchor="middle" x="67.88" y="-461.5" font-family="Helvetica,sans-Serif" font-size="10.00">cBgS_PolyPassChk</text>
</a>
</g>
</g>
<!-- Node6&#45;&gt;Node5 -->
<g id="edge5_Node000005_Node000006" class="edge">
<title>Node6&#45;&gt;Node5</title>
<g id="a_edge5_Node000005_Node000006"><a xlink:title=" ">
<path fill="none" stroke="#9a32cd" stroke-dasharray="5,2" d="M82.67,-446.75C88.07,-440.35 94.23,-433.08 99.88,-426.5 116.23,-407.43 135.62,-385.28 146.14,-373.29"/>
<polygon fill="#9a32cd" stroke="#9a32cd" points="80.2,-444.25 76.44,-454.15 85.56,-448.76 80.2,-444.25"/>
</a>
</g>
<text text-anchor="middle" x="134.38" y="-428.25" font-family="Helvetica,sans-Serif" font-size="10.00" fill="grey"> mPolyPassChk</text>
</g>
<!-- Node12 -->
<g id="Node000012" class="node">
<title>Node12</title>
<g id="a_Node000012"><a xlink:href="structdBgS__PolyPassChk.html" target="_top" xlink:title=" ">
<polygon fill="white" stroke="#666666" points="103.75,-373.12 0,-373.12 0,-353.88 103.75,-353.88 103.75,-373.12"/>
<text text-anchor="middle" x="51.88" y="-359.62" font-family="Helvetica,sans-Serif" font-size="10.00">dBgS_PolyPassChk</text>
</a>
</g>
</g>
<!-- Node6&#45;&gt;Node12 -->
<g id="edge13_Node000012_Node000006" class="edge">
<title>Node6&#45;&gt;Node12</title>
<g id="a_edge13_Node000012_Node000006"><a xlink:title=" ">
<path fill="none" stroke="#63b8ff" d="M64.67,-444.39C61.22,-422.81 55.86,-389.38 53.31,-373.49"/>
<polygon fill="#63b8ff" stroke="#63b8ff" points="61.18,-444.7 66.22,-454.02 68.09,-443.59 61.18,-444.7"/>
</a>
</g>
</g>
<!-- Node7 -->
<g id="Node000007" class="node">
<title>Node7</title>
<g id="a_Node000007"><a xlink:href="classcBgS__GrpPassChk.html" target="_top" xlink:title=" ">
<polygon fill="white" stroke="#666666" points="240.25,-475 139.5,-475 139.5,-455.75 240.25,-455.75 240.25,-475"/>
<text text-anchor="middle" x="189.88" y="-461.5" font-family="Helvetica,sans-Serif" font-size="10.00">cBgS_GrpPassChk</text>
</a>
</g>
</g>
<!-- Node7&#45;&gt;Node5 -->
<g id="edge6_Node000005_Node000007" class="edge">
<title>Node7&#45;&gt;Node5</title>
<g id="a_edge6_Node000005_Node000007"><a xlink:title=" ">
<path fill="none" stroke="#9a32cd" stroke-dasharray="5,2" d="M179.47,-445.68C178.18,-443.05 176.94,-440.36 175.88,-437.75 166.63,-415.13 159.31,-387.19 155.92,-373.26"/>
<polygon fill="#9a32cd" stroke="#9a32cd" points="176.3,-447.16 184.06,-454.37 182.49,-443.89 176.3,-447.16"/>
</a>
</g>
<text text-anchor="middle" x="208.88" y="-428.25" font-family="Helvetica,sans-Serif" font-size="10.00" fill="grey"> mGrpPassChk</text>
</g>
<!-- Node13 -->
<g id="Node000013" class="node">
<title>Node13</title>
<g id="a_Node000013"><a xlink:href="classdBgS__GrpPassChk.html" target="_top" xlink:title=" ">
<polygon fill="white" stroke="#666666" points="304.25,-373.12 203.5,-373.12 203.5,-353.88 304.25,-353.88 304.25,-373.12"/>
<text text-anchor="middle" x="253.88" y="-359.62" font-family="Helvetica,sans-Serif" font-size="10.00">dBgS_GrpPassChk</text>
</a>
</g>
</g>
<!-- Node7&#45;&gt;Node13 -->
<g id="edge15_Node000013_Node000007" class="edge">
<title>Node7&#45;&gt;Node13</title>
<g id="a_edge15_Node000013_Node000007"><a xlink:title=" ">
<path fill="none" stroke="#63b8ff" d="M228.89,-449.74C233.86,-446.45 238.42,-442.49 241.88,-437.75 256,-418.38 255.93,-388.49 254.84,-373.59"/>
<polygon fill="#63b8ff" stroke="#63b8ff" points="227.33,-446.61 220.29,-454.53 230.73,-452.72 227.33,-446.61"/>
</a>
</g>
</g>
<!-- Node8 -->
<g id="Node000008" class="node">
<title>Node8</title>
<g id="a_Node000008"><a xlink:href="structcBgS__PolyInfo.html" target="_top" xlink:title=" ">
<polygon fill="white" stroke="#666666" points="403.12,-373.12 322.62,-373.12 322.62,-353.88 403.12,-353.88 403.12,-373.12"/>
<text text-anchor="middle" x="362.88" y="-359.62" font-family="Helvetica,sans-Serif" font-size="10.00">cBgS_PolyInfo</text>
</a>
</g>
</g>
<!-- Node8&#45;&gt;Node4 -->
<g id="edge7_Node000004_Node000008" class="edge">
<title>Node8&#45;&gt;Node4</title>
<g id="a_edge7_Node000004_Node000008"><a xlink:title=" ">
<path fill="none" stroke="#63b8ff" d="M362.67,-342.22C362.46,-320.62 362.12,-287.43 361.96,-271.61"/>
<polygon fill="#63b8ff" stroke="#63b8ff" points="359.17,-342.16 362.77,-352.12 366.17,-342.09 359.17,-342.16"/>
</a>
</g>
</g>
<!-- Node9 -->
<g id="Node000009" class="node">
<title>Node9</title>
<g id="a_Node000009"><a xlink:href="structcXyz.html" target="_top" xlink:title=" ">
<polygon fill="white" stroke="#666666" points="459.38,-373.12 422.38,-373.12 422.38,-353.88 459.38,-353.88 459.38,-373.12"/>
<text text-anchor="middle" x="440.88" y="-359.62" font-family="Helvetica,sans-Serif" font-size="10.00">cXyz</text>
</a>
</g>
</g>
<!-- Node9&#45;&gt;Node1 -->
<g id="edge16_Node000001_Node000009" class="edge">
<title>Node9&#45;&gt;Node1</title>
<g id="a_edge16_Node000001_Node000009"><a xlink:title=" ">
<path fill="none" stroke="#9a32cd" stroke-dasharray="5,2" d="M441.2,-341.96C441.49,-321.77 441.88,-290.08 441.88,-262.62 441.88,-262.62 441.88,-262.62 441.88,-88 441.88,-62.21 453.76,-33.52 460.44,-19.42"/>
<polygon fill="#9a32cd" stroke="#9a32cd" points="437.7,-341.85 441.05,-351.9 444.7,-341.95 437.7,-341.85"/>
</a>
</g>
<text text-anchor="middle" x="464.38" y="-194.25" font-family="Helvetica,sans-Serif" font-size="10.00" fill="grey"> field_0x10</text>
<text text-anchor="middle" x="464.38" y="-183" font-family="Helvetica,sans-Serif" font-size="10.00" fill="grey">field_0x4</text>
<text text-anchor="middle" x="464.38" y="-171.75" font-family="Helvetica,sans-Serif" font-size="10.00" fill="grey">field_0x8</text>
</g>
<!-- Node9&#45;&gt;Node4 -->
<g id="edge8_Node000004_Node000009" class="edge">
<title>Node9&#45;&gt;Node4</title>
<g id="a_edge8_Node000004_Node000009"><a xlink:title=" ">
<path fill="none" stroke="#9a32cd" stroke-dasharray="5,2" d="M429.5,-343.94C424.38,-335.93 418.09,-326.56 411.88,-318.5 408.14,-313.65 382.93,-285.79 369.79,-271.33"/>
<polygon fill="#9a32cd" stroke="#9a32cd" points="426.39,-345.57 434.66,-352.19 432.33,-341.85 426.39,-345.57"/>
</a>
</g>
<text text-anchor="middle" x="410.62" y="-291" font-family="Helvetica,sans-Serif" font-size="10.00" fill="grey"> m_pos</text>
</g>
<!-- Node9&#45;&gt;Node9 -->
<g id="edge10_Node000009_Node000009" class="edge">
<title>Node9&#45;&gt;Node9</title>
<g id="a_edge10_Node000009_Node000009"><a xlink:title=" ">
<path fill="none" stroke="#9a32cd" stroke-dasharray="5,2" d="M463.46,-376.37C471.17,-376.45 477.38,-372.16 477.38,-363.5 477.38,-350.9 464.25,-347.55 452.46,-353.46"/>
<polygon fill="#9a32cd" stroke="#9a32cd" points="464.48,-373.01 453.93,-373.92 462.74,-379.79 464.48,-373.01"/>
</a>
</g>
<text text-anchor="middle" x="498.38" y="-399" font-family="Helvetica,sans-Serif" font-size="10.00" fill="grey"> BaseX</text>
<text text-anchor="middle" x="498.38" y="-387.75" font-family="Helvetica,sans-Serif" font-size="10.00" fill="grey">BaseXY</text>
<text text-anchor="middle" x="498.38" y="-376.5" font-family="Helvetica,sans-Serif" font-size="10.00" fill="grey">BaseXYZ</text>
<text text-anchor="middle" x="498.38" y="-365.25" font-family="Helvetica,sans-Serif" font-size="10.00" fill="grey">BaseXZ</text>
<text text-anchor="middle" x="498.38" y="-354" font-family="Helvetica,sans-Serif" font-size="10.00" fill="grey">BaseY</text>
<text text-anchor="middle" x="498.38" y="-342.75" font-family="Helvetica,sans-Serif" font-size="10.00" fill="grey">BaseYZ</text>
<text text-anchor="middle" x="498.38" y="-331.5" font-family="Helvetica,sans-Serif" font-size="10.00" fill="grey">BaseZ</text>
<text text-anchor="middle" x="498.38" y="-320.25" font-family="Helvetica,sans-Serif" font-size="10.00" fill="grey">Zero</text>
</g>
<!-- Node10 -->
<g id="Node000010" class="node">
<title>Node10</title>
<g id="a_Node000010"><a xlink:href="structVec.html" target="_top" xlink:title=" ">
<polygon fill="white" stroke="#666666" points="457.5,-475 424.25,-475 424.25,-455.75 457.5,-455.75 457.5,-475"/>
<text text-anchor="middle" x="440.88" y="-461.5" font-family="Helvetica,sans-Serif" font-size="10.00">Vec</text>
</a>
</g>
</g>
<!-- Node10&#45;&gt;Node9 -->
<g id="edge9_Node000009_Node000010" class="edge">
<title>Node10&#45;&gt;Node9</title>
<g id="a_edge9_Node000009_Node000010"><a xlink:title=" ">
<path fill="none" stroke="#63b8ff" d="M440.88,-444.09C440.88,-422.5 440.88,-389.31 440.88,-373.49"/>
<polygon fill="#63b8ff" stroke="#63b8ff" points="437.38,-444 440.88,-454 444.38,-444 437.38,-444"/>
</a>
</g>
</g>
<!-- Node11 -->
<g id="Node000011" class="node">
<title>Node11</title>
<g id="a_Node000011"><a xlink:href="classdBgS__Chk.html" target="_top" xlink:title=" ">
<polygon fill="white" stroke="#666666" points="285.12,-271.25 222.62,-271.25 222.62,-252 285.12,-252 285.12,-271.25"/>
<text text-anchor="middle" x="253.88" y="-257.75" font-family="Helvetica,sans-Serif" font-size="10.00">dBgS_Chk</text>
</a>
</g>
</g>
<!-- Node11&#45;&gt;Node3 -->
<g id="edge11_Node000003_Node000011" class="edge">
<title>Node11&#45;&gt;Node3</title>
<g id="a_edge11_Node000003_Node000011"><a xlink:title=" ">
<path fill="none" stroke="#63b8ff" d="M276.6,-245.32C298.39,-230.64 330.57,-208.96 348.52,-196.87"/>
<polygon fill="#63b8ff" stroke="#63b8ff" points="274.71,-242.37 268.37,-250.86 278.62,-248.17 274.71,-242.37"/>
</a>
</g>
</g>
<!-- Node12&#45;&gt;Node11 -->
<g id="edge12_Node000011_Node000012" class="edge">
<title>Node12&#45;&gt;Node11</title>
<g id="a_edge12_Node000011_Node000012"><a xlink:title=" ">
<path fill="none" stroke="#63b8ff" d="M72.32,-346.56C84.11,-337.73 99.43,-326.89 113.88,-318.5 149.75,-297.68 194.87,-281.22 224.03,-271.7"/>
<polygon fill="#63b8ff" stroke="#63b8ff" points="70.37,-343.64 64.54,-352.48 74.61,-349.21 70.37,-343.64"/>
</a>
</g>
</g>
<!-- Node13&#45;&gt;Node11 -->
<g id="edge14_Node000011_Node000013" class="edge">
<title>Node13&#45;&gt;Node11</title>
<g id="a_edge14_Node000011_Node000013"><a xlink:title=" ">
<path fill="none" stroke="#63b8ff" d="M253.88,-342.22C253.88,-320.62 253.88,-287.43 253.88,-271.61"/>
<polygon fill="#63b8ff" stroke="#63b8ff" points="250.38,-342.12 253.88,-352.12 257.38,-342.12 250.38,-342.12"/>
</a>
</g>
</g>
<!-- Node14 -->
<g id="Node000014" class="node">
<title>Node14</title>
<g id="a_Node000014"><a xlink:href="classcSAngle.html" target="_top" xlink:title=" ">
<polygon fill="white" stroke="#666666" points="580.25,-196.5 527.5,-196.5 527.5,-177.25 580.25,-177.25 580.25,-196.5"/>
<text text-anchor="middle" x="553.88" y="-183" font-family="Helvetica,sans-Serif" font-size="10.00">cSAngle</text>
</a>
</g>
</g>
<!-- Node14&#45;&gt;Node1 -->
<g id="edge17_Node000001_Node000014" class="edge">
<title>Node14&#45;&gt;Node1</title>
<g id="a_edge17_Node000001_Node000014"><a xlink:title=" ">
<path fill="none" stroke="#9a32cd" stroke-dasharray="5,2" d="M539.82,-167.64C527.34,-150.83 509.21,-124.83 496.88,-100.25 482.72,-72.05 471.87,-36.04 467.28,-19.57"/>
<polygon fill="#9a32cd" stroke="#9a32cd" points="537.03,-169.75 545.85,-175.62 542.61,-165.53 537.03,-169.75"/>
</a>
</g>
<text text-anchor="middle" x="519.38" y="-90.75" font-family="Helvetica,sans-Serif" font-size="10.00" fill="grey"> field_0x1c</text>
<text text-anchor="middle" x="519.38" y="-79.5" font-family="Helvetica,sans-Serif" font-size="10.00" fill="grey">field_0x1e</text>
</g>
<!-- Node14&#45;&gt;Node14 -->
<g id="edge18_Node000014_Node000014" class="edge">
<title>Node14&#45;&gt;Node14</title>
<g id="a_edge18_Node000014_Node000014"><a xlink:title=" ">
<path fill="none" stroke="#9a32cd" stroke-dasharray="5,2" d="M591.87,-194.08C595.76,-192.66 598.25,-190.26 598.25,-186.88 598.25,-180.86 590.38,-177.95 580.74,-178.14"/>
<polygon fill="#9a32cd" stroke="#9a32cd" points="591.67,-190.57 582.24,-195.4 592.62,-197.5 591.67,-190.57"/>
</a>
</g>
<text text-anchor="middle" x="608.75" y="-205.5" font-family="Helvetica,sans-Serif" font-size="10.00" fill="grey"> _0</text>
<text text-anchor="middle" x="608.75" y="-194.25" font-family="Helvetica,sans-Serif" font-size="10.00" fill="grey">_1</text>
<text text-anchor="middle" x="608.75" y="-183" font-family="Helvetica,sans-Serif" font-size="10.00" fill="grey">_180</text>
<text text-anchor="middle" x="608.75" y="-171.75" font-family="Helvetica,sans-Serif" font-size="10.00" fill="grey">_270</text>
<text text-anchor="middle" x="608.75" y="-160.5" font-family="Helvetica,sans-Serif" font-size="10.00" fill="grey">_90</text>
</g>
<!-- Node15 -->
<g id="Node000015" class="node">
<title>Node15</title>
<g id="a_Node000015"><a xlink:href="classcSGlobe.html" target="_top" xlink:title=" ">
<polygon fill="white" stroke="#666666" points="604.62,-98.62 551.12,-98.62 551.12,-79.38 604.62,-79.38 604.62,-98.62"/>
<text text-anchor="middle" x="577.88" y="-85.12" font-family="Helvetica,sans-Serif" font-size="10.00">cSGlobe</text>
</a>
</g>
</g>
<!-- Node14&#45;&gt;Node15 -->
<g id="edge20_Node000015_Node000014" class="edge">
<title>Node14&#45;&gt;Node15</title>
<g id="a_edge20_Node000015_Node000014"><a xlink:title=" ">
<path fill="none" stroke="#9a32cd" stroke-dasharray="5,2" d="M558.82,-166.13C563.95,-145.61 571.77,-114.41 575.6,-99.11"/>
<polygon fill="#9a32cd" stroke="#9a32cd" points="555.49,-165.01 556.46,-175.56 562.28,-166.71 555.49,-165.01"/>
</a>
</g>
<text text-anchor="middle" x="597.12" y="-131.25" font-family="Helvetica,sans-Serif" font-size="10.00" fill="grey"> mAzimuth</text>
<text text-anchor="middle" x="597.12" y="-120" font-family="Helvetica,sans-Serif" font-size="10.00" fill="grey">mInclination</text>
</g>
<!-- Node15&#45;&gt;Node1 -->
<g id="edge19_Node000001_Node000015" class="edge">
<title>Node15&#45;&gt;Node1</title>
<g id="a_edge19_Node000001_Node000015"><a xlink:title=" ">
<path fill="none" stroke="#9a32cd" stroke-dasharray="5,2" d="M555.54,-72.71C532.4,-56.86 497.03,-32.65 478.03,-19.64"/>
<polygon fill="#9a32cd" stroke="#9a32cd" points="553.44,-75.51 563.66,-78.27 557.39,-69.73 553.44,-75.51"/>
</a>
</g>
<text text-anchor="middle" x="557.38" y="-50.25" font-family="Helvetica,sans-Serif" font-size="10.00" fill="grey"> field_0x24</text>
<text text-anchor="middle" x="557.38" y="-39" font-family="Helvetica,sans-Serif" font-size="10.00" fill="grey">field_0x2c</text>
</g>
</g>
</svg>
