<?xml version="1.0" encoding="UTF-8" standalone="no"?>
<!DOCTYPE svg PUBLIC "-//W3C//DTD SVG 1.1//EN"
 "http://www.w3.org/Graphics/SVG/1.1/DTD/svg11.dtd">
<!-- Generated by graphviz version 9.0.0 (20230911.1827)
 -->
<!-- Title: JStudio_JStage::TAdaptor_camera Pages: 1 -->
<!--zoomable 486 -->

<svg id="main" version="1.1" xmlns="http://www.w3.org/2000/svg" xmlns:xlink="http://www.w3.org/1999/xlink" xml:space="preserve" onload="init(evt)">
<style type="text/css"><![CDATA[
.node, .edge {opacity: 0.7;}
.node.selected, .edge.selected {opacity: 1;}
.edge:hover path { stroke: red; }
.edge:hover polygon { stroke: red; fill: red; }
]]></style>

<defs>
  <circle id="rim" cx="0" cy="0" r="7"/>
  <circle id="rim2" cx="0" cy="0" r="3.5"/>
  <g id="zoomPlus">
    <use xlink:href="#rim" fill="#404040"><set attributeName="fill" to="#808080" begin="zoomplus.mouseover" end="zoomplus.mouseout"/></use>
    <path d="M-4,0h8M0,-4v8" fill="none" stroke="white" stroke-width="1.5" pointer-events="none"/>
  </g>
  <g id="zoomMin">
    <use xlink:href="#rim" fill="#404040"><set attributeName="fill" to="#808080" begin="zoomminus.mouseover" end="zoomminus.mouseout"/></use>
    <path d="M-4,0h8" fill="none" stroke="white" stroke-width="1.5" pointer-events="none"/>
  </g>
  <g id="arrowUp" transform="translate(30 24)">
    <use xlink:href="#rim"/>
    <path pointer-events="none" fill="none" stroke="white" stroke-width="1.5" d="M0,-3.0v7 M-2.5,-0.5L0,-3.0L2.5,-0.5"/>
  </g>
  <g id="arrowRight" transform="rotate(90) translate(36 -43)">
    <use xlink:href="#rim"/>
    <path pointer-events="none" fill="none" stroke="white" stroke-width="1.5" d="M0,-3.0v7 M-2.5,-0.5L0,-3.0L2.5,-0.5"/>
  </g>
  <g id="arrowDown" transform="rotate(180) translate(-30 -48)">
    <use xlink:href="#rim"/>
    <path pointer-events="none" fill="none" stroke="white" stroke-width="1.5" d="M0,-3.0v7 M-2.5,-0.5L0,-3.0L2.5,-0.5"/>
  </g>
  <g id="arrowLeft" transform="rotate(270) translate(-36 17)">
    <use xlink:href="#rim"/>
    <path pointer-events="none" fill="none" stroke="white" stroke-width="1.5" d="M0,-3.0v7 M-2.5,-0.5L0,-3.0L2.5,-0.5"/>
  </g>
  <g id="resetDef">
    <use xlink:href="#rim2" fill="#404040"><set attributeName="fill" to="#808080" begin="reset.mouseover" end="reset.mouseout"/></use>
  </g>
</defs>
<script type="application/ecmascript">
var viewWidth = 1135;
var viewHeight = 486;
var sectionId = 'dynsection-1';
</script>
<script type="application/ecmascript" xlink:href="svg.min.js"/>
<svg id="graph" class="graph">
<g id="viewport">
<title>JStudio_JStage::TAdaptor_camera</title>
<!-- Node1 -->
<g id="Node000001" class="node">
<title>Node1</title>
<g id="a_Node000001"><a xlink:title=" ">
<polygon fill="#999999" stroke="#666666" points="1127.25,-132.88 998,-132.88 998,-102.38 1127.25,-102.38 1127.25,-132.88"/>
<text text-anchor="start" x="1006" y="-119.38" font-family="Helvetica,sans-Serif" font-size="10.00">JStudio_JStage::TAdaptor</text>
<text text-anchor="middle" x="1062.62" y="-108.12" font-family="Helvetica,sans-Serif" font-size="10.00">_camera</text>
</a>
</g>
</g>
<!-- Node2 -->
<g id="Node000002" class="node">
<title>Node2</title>
<g id="a_Node000002"><a xlink:href="structJStudio_1_1TAdaptor__camera.html" target="_top" xlink:title=" ">
<polygon fill="white" stroke="#666666" points="881.75,-196.25 751,-196.25 751,-177 881.75,-177 881.75,-196.25"/>
<text text-anchor="middle" x="816.38" y="-182.75" font-family="Helvetica,sans-Serif" font-size="10.00">JStudio::TAdaptor_camera</text>
</a>
</g>
</g>
<!-- Node2&#45;&gt;Node1 -->
<g id="edge1_Node000001_Node000002" class="edge">
<title>Node2&#45;&gt;Node1</title>
<g id="a_edge1_Node000001_Node000002"><a xlink:title=" ">
<path fill="none" stroke="#63b8ff" d="M893.17,-175.46C920.85,-170.41 952.18,-163.53 980,-154.62 997.63,-148.98 1016.51,-140.59 1031.66,-133.22"/>
<polygon fill="#63b8ff" stroke="#63b8ff" points="892.69,-171.99 883.45,-177.18 893.91,-178.89 892.69,-171.99"/>
</a>
</g>
</g>
<!-- Node3 -->
<g id="Node000003" class="node">
<title>Node3</title>
<g id="a_Node000003"><a xlink:href="structJStudio_1_1TAdaptor.html" target="_top" xlink:title=" ">
<polygon fill="white" stroke="#666666" points="634.75,-244.25 541.5,-244.25 541.5,-225 634.75,-225 634.75,-244.25"/>
<text text-anchor="middle" x="588.12" y="-230.75" font-family="Helvetica,sans-Serif" font-size="10.00">JStudio::TAdaptor</text>
</a>
</g>
</g>
<!-- Node3&#45;&gt;Node2 -->
<g id="edge2_Node000002_Node000003" class="edge">
<title>Node3&#45;&gt;Node2</title>
<g id="a_edge2_Node000002_Node000003"><a xlink:title=" ">
<path fill="none" stroke="#63b8ff" d="M645.97,-222.57C683.56,-214.59 732.29,-204.25 767.82,-196.71"/>
<polygon fill="#63b8ff" stroke="#63b8ff" points="645.72,-219.04 636.66,-224.54 647.17,-225.89 645.72,-219.04"/>
</a>
</g>
</g>
<!-- Node4 -->
<g id="Node000004" class="node">
<title>Node4</title>
<g id="a_Node000004"><a xlink:href="classJStudio_1_1TObject.html" target="_top" xlink:title=" ">
<polygon fill="white" stroke="#666666" points="860.38,-285.25 772.38,-285.25 772.38,-266 860.38,-266 860.38,-285.25"/>
<text text-anchor="middle" x="816.38" y="-271.75" font-family="Helvetica,sans-Serif" font-size="10.00">JStudio::TObject</text>
</a>
</g>
</g>
<!-- Node3&#45;&gt;Node4 -->
<g id="edge16_Node000004_Node000003" class="edge">
<title>Node3&#45;&gt;Node4</title>
<g id="a_edge16_Node000004_Node000003"><a xlink:title=" ">
<path fill="none" stroke="#9a32cd" stroke-dasharray="5,2" d="M631.69,-247.88C643.08,-251.08 655.44,-254.26 667,-256.62 701.99,-263.77 742.19,-268.72 771.92,-271.77"/>
<polygon fill="#9a32cd" stroke="#9a32cd" points="632.72,-244.53 622.14,-245.11 630.78,-251.26 632.72,-244.53"/>
</a>
</g>
<text text-anchor="middle" x="700" y="-268.38" font-family="Helvetica,sans-Serif" font-size="10.00" fill="grey"> mpAdaptor</text>
</g>
<!-- Node4&#45;&gt;Node3 -->
<g id="edge3_Node000003_Node000004" class="edge">
<title>Node4&#45;&gt;Node3</title>
<g id="a_edge3_Node000003_Node000004"><a xlink:title=" ">
<path fill="none" stroke="#9a32cd" stroke-dasharray="5,2" d="M782.91,-261.34C767.99,-255.39 749.89,-249.03 733,-245.38 700.69,-238.38 663.44,-235.74 634.95,-234.82"/>
<polygon fill="#9a32cd" stroke="#9a32cd" points="781.17,-264.4 791.75,-264.97 783.83,-257.93 781.17,-264.4"/>
</a>
</g>
<text text-anchor="middle" x="700" y="-246.38" font-family="Helvetica,sans-Serif" font-size="10.00" fill="grey"> pObject_</text>
</g>
<!-- Node5 -->
<g id="Node000005" class="node">
<title>Node5</title>
<g id="a_Node000005"><a xlink:href="classJStudio_1_1stb_1_1TObject.html" target="_top" xlink:title=" ">
<polygon fill="white" stroke="#666666" points="641.12,-354.25 535.12,-354.25 535.12,-335 641.12,-335 641.12,-354.25"/>
<text text-anchor="middle" x="588.12" y="-340.75" font-family="Helvetica,sans-Serif" font-size="10.00">JStudio::stb::TObject</text>
</a>
</g>
</g>
<!-- Node5&#45;&gt;Node4 -->
<g id="edge4_Node000004_Node000005" class="edge">
<title>Node5&#45;&gt;Node4</title>
<g id="a_edge4_Node000004_Node000005"><a xlink:title=" ">
<path fill="none" stroke="#63b8ff" d="M632.28,-331.13C664.86,-320.99 710.7,-306.8 751,-294.62 760.71,-291.69 771.25,-288.56 780.94,-285.7"/>
<polygon fill="#63b8ff" stroke="#63b8ff" points="631.29,-327.78 622.78,-334.09 633.37,-334.46 631.29,-327.78"/>
</a>
</g>
</g>
<!-- Node13 -->
<g id="Node000013" class="node">
<title>Node13</title>
<g id="a_Node000013"><a xlink:href="classJStudio_1_1stb_1_1TObject__control.html" target="_top" xlink:title=" ">
<polygon fill="white" stroke="#666666" points="869.38,-333.88 763.38,-333.88 763.38,-303.38 869.38,-303.38 869.38,-333.88"/>
<text text-anchor="start" x="771.38" y="-320.38" font-family="Helvetica,sans-Serif" font-size="10.00">JStudio::stb::TObject</text>
<text text-anchor="middle" x="816.38" y="-309.12" font-family="Helvetica,sans-Serif" font-size="10.00">_control</text>
</a>
</g>
</g>
<!-- Node5&#45;&gt;Node13 -->
<g id="edge15_Node000013_Node000005" class="edge">
<title>Node5&#45;&gt;Node13</title>
<g id="a_edge15_Node000013_Node000005"><a xlink:title=" ">
<path fill="none" stroke="#63b8ff" d="M652.63,-337.33C687.52,-333.32 730.26,-328.41 763.18,-324.62"/>
<polygon fill="#63b8ff" stroke="#63b8ff" points="652.64,-333.8 643.1,-338.42 653.44,-340.76 652.64,-333.8"/>
</a>
</g>
</g>
<!-- Node6 -->
<g id="Node000006" class="node">
<title>Node6</title>
<g id="a_Node000006"><a xlink:href="structJStudio_1_1object_1_1TObject__ID.html" target="_top" xlink:title=" ">
<polygon fill="white" stroke="#666666" points="333.5,-354.25 199.75,-354.25 199.75,-335 333.5,-335 333.5,-354.25"/>
<text text-anchor="middle" x="266.62" y="-340.75" font-family="Helvetica,sans-Serif" font-size="10.00">JStudio::object::TObject_ID</text>
</a>
</g>
</g>
<!-- Node6&#45;&gt;Node5 -->
<g id="edge5_Node000005_Node000006" class="edge">
<title>Node6&#45;&gt;Node5</title>
<g id="a_edge5_Node000005_Node000006"><a xlink:title=" ">
<path fill="none" stroke="#63b8ff" d="M345.3,-344.62C404.09,-344.62 483.24,-344.62 534.72,-344.62"/>
<polygon fill="#63b8ff" stroke="#63b8ff" points="345.34,-341.13 335.34,-344.63 345.34,-348.13 345.34,-341.13"/>
</a>
</g>
</g>
<!-- Node7 -->
<g id="Node000007" class="node">
<title>Node7</title>
<g id="a_Node000007"><a xlink:href="structJStudio_1_1object_1_1TIDData.html" target="_top" xlink:title=" ">
<polygon fill="white" stroke="#666666" points="121,-354.25 0.75,-354.25 0.75,-335 121,-335 121,-354.25"/>
<text text-anchor="middle" x="60.88" y="-340.75" font-family="Helvetica,sans-Serif" font-size="10.00">JStudio::object::TIDData</text>
</a>
</g>
</g>
<!-- Node7&#45;&gt;Node6 -->
<g id="edge6_Node000006_Node000007" class="edge">
<title>Node7&#45;&gt;Node6</title>
<g id="a_edge6_Node000006_Node000007"><a xlink:title=" ">
<path fill="none" stroke="#63b8ff" d="M132.77,-344.62C154.36,-344.62 178,-344.62 199.28,-344.62"/>
<polygon fill="#63b8ff" stroke="#63b8ff" points="132.87,-341.13 122.87,-344.63 132.87,-348.13 132.87,-341.13"/>
</a>
</g>
</g>
<!-- Node8 -->
<g id="Node000008" class="node">
<title>Node8</title>
<g id="a_Node000008"><a xlink:href="structJGadget_1_1TLinkListNode.html" target="_top" xlink:title=" ">
<polygon fill="white" stroke="#666666" points="327.5,-406.25 205.75,-406.25 205.75,-387 327.5,-387 327.5,-406.25"/>
<text text-anchor="middle" x="266.62" y="-392.75" font-family="Helvetica,sans-Serif" font-size="10.00">JGadget::TLinkListNode</text>
</a>
</g>
</g>
<!-- Node8&#45;&gt;Node5 -->
<g id="edge7_Node000005_Node000008" class="edge">
<title>Node8&#45;&gt;Node5</title>
<g id="a_edge7_Node000005_Node000008"><a xlink:title=" ">
<path fill="none" stroke="#9a32cd" stroke-dasharray="5,2" d="M339,-385.82C387.14,-378.43 452.07,-368.26 509.25,-358.62 517.51,-357.23 526.26,-355.71 534.79,-354.2"/>
<polygon fill="#9a32cd" stroke="#9a32cd" points="338.61,-382.34 329.26,-387.31 339.67,-389.26 338.61,-382.34"/>
</a>
</g>
<text text-anchor="middle" x="430.38" y="-384.38" font-family="Helvetica,sans-Serif" font-size="10.00" fill="grey"> ocObject_</text>
</g>
<!-- Node8&#45;&gt;Node8 -->
<g id="edge8_Node000008_Node000008" class="edge">
<title>Node8&#45;&gt;Node8</title>
<g id="a_edge8_Node000008_Node000008"><a xlink:title=" ">
<path fill="none" stroke="#9a32cd" stroke-dasharray="5,2" d="M247.83,-417.65C250.18,-421.53 256.45,-424.25 266.62,-424.25 285.24,-424.25 290.76,-415.15 283.2,-406.54"/>
<polygon fill="#9a32cd" stroke="#9a32cd" points="251.23,-418.51 249.75,-408.02 244.36,-417.14 251.23,-418.51"/>
</a>
</g>
<text text-anchor="middle" x="266.62" y="-437.25" font-family="Helvetica,sans-Serif" font-size="10.00" fill="grey"> mNext</text>
<text text-anchor="middle" x="266.62" y="-426" font-family="Helvetica,sans-Serif" font-size="10.00" fill="grey">mPrev</text>
</g>
<!-- Node12 -->
<g id="Node000012" class="node">
<title>Node12</title>
<g id="a_Node000012"><a xlink:href="structJGadget_1_1TNodeLinkList.html" target="_top" xlink:title=" ">
<polygon fill="white" stroke="#666666" points="649,-427.25 527.25,-427.25 527.25,-408 649,-408 649,-427.25"/>
<text text-anchor="middle" x="588.12" y="-413.75" font-family="Helvetica,sans-Serif" font-size="10.00">JGadget::TNodeLinkList</text>
</a>
</g>
</g>
<!-- Node8&#45;&gt;Node12 -->
<g id="edge13_Node000012_Node000008" class="edge">
<title>Node8&#45;&gt;Node12</title>
<g id="a_edge13_Node000012_Node000008"><a xlink:title=" ">
<path fill="none" stroke="#9a32cd" stroke-dasharray="5,2" d="M339.07,-401.32C395.51,-405.03 473.4,-410.15 526.76,-413.66"/>
<polygon fill="#9a32cd" stroke="#9a32cd" points="339.44,-397.84 329.23,-400.67 338.98,-404.82 339.44,-397.84"/>
</a>
</g>
<text text-anchor="middle" x="430.38" y="-413.38" font-family="Helvetica,sans-Serif" font-size="10.00" fill="grey"> ocObject_</text>
</g>
<!-- Node9 -->
<g id="Node000009" class="node">
<title>Node9</title>
<g id="a_Node000009"><a xlink:href="classJStudio_1_1stb_1_1TControl.html" target="_top" xlink:title=" ">
<polygon fill="white" stroke="#666666" points="1116.75,-400.25 1008.5,-400.25 1008.5,-381 1116.75,-381 1116.75,-400.25"/>
<text text-anchor="middle" x="1062.62" y="-386.75" font-family="Helvetica,sans-Serif" font-size="10.00">JStudio::stb::TControl</text>
</a>
</g>
</g>
<!-- Node9&#45;&gt;Node5 -->
<g id="edge9_Node000005_Node000009" class="edge">
<title>Node9&#45;&gt;Node5</title>
<g id="a_edge9_Node000005_Node000009"><a xlink:title=" ">
<path fill="none" stroke="#9a32cd" stroke-dasharray="5,2" d="M996.9,-384.32C902.39,-375.12 728.45,-358.19 641.5,-349.72"/>
<polygon fill="#9a32cd" stroke="#9a32cd" points="996.5,-387.8 1006.79,-385.29 997.18,-380.83 996.5,-387.8"/>
</a>
</g>
<text text-anchor="middle" x="816.38" y="-374.38" font-family="Helvetica,sans-Serif" font-size="10.00" fill="grey"> pControl</text>
</g>
<!-- Node10 -->
<g id="Node000010" class="node">
<title>Node10</title>
<g id="a_Node000010"><a xlink:href="classJStudio_1_1stb_1_1TFactory.html" target="_top" xlink:title=" ">
<polygon fill="white" stroke="#666666" points="871.25,-478.25 761.5,-478.25 761.5,-459 871.25,-459 871.25,-478.25"/>
<text text-anchor="middle" x="816.38" y="-464.75" font-family="Helvetica,sans-Serif" font-size="10.00">JStudio::stb::TFactory</text>
</a>
</g>
</g>
<!-- Node10&#45;&gt;Node9 -->
<g id="edge10_Node000009_Node000010" class="edge">
<title>Node10&#45;&gt;Node9</title>
<g id="a_edge10_Node000009_Node000010"><a xlink:title=" ">
<path fill="none" stroke="#9a32cd" stroke-dasharray="5,2" d="M869.8,-455.74C901.9,-447.46 943.65,-435.96 980,-423.62 1000.12,-416.8 1022.46,-407.66 1038.67,-400.73"/>
<polygon fill="#9a32cd" stroke="#9a32cd" points="869.16,-452.29 860.34,-458.16 870.9,-459.08 869.16,-452.29"/>
</a>
</g>
<text text-anchor="middle" x="939.88" y="-448.38" font-family="Helvetica,sans-Serif" font-size="10.00" fill="grey"> pFactory</text>
</g>
<!-- Node11 -->
<g id="Node000011" class="node">
<title>Node11</title>
<g id="a_Node000011"><a xlink:href="structJGadget_1_1TLinkList.html" target="_top" xlink:title=" ">
<polygon fill="white" stroke="#666666" points="875,-440.5 757.75,-440.5 757.75,-398.75 875,-398.75 875,-440.5"/>
<text text-anchor="start" x="765.75" y="-427" font-family="Helvetica,sans-Serif" font-size="10.00">JGadget::TLinkList</text>
<text text-anchor="start" x="765.75" y="-415.75" font-family="Helvetica,sans-Serif" font-size="10.00">&lt; JStudio::stb::TObject,</text>
<text text-anchor="middle" x="816.38" y="-404.5" font-family="Helvetica,sans-Serif" font-size="10.00"> &#45;12 &gt;</text>
</a>
</g>
</g>
<!-- Node11&#45;&gt;Node9 -->
<g id="edge11_Node000009_Node000011" class="edge">
<title>Node11&#45;&gt;Node9</title>
<g id="a_edge11_Node000009_Node000011"><a xlink:title=" ">
<path fill="none" stroke="#9a32cd" stroke-dasharray="5,2" d="M886.43,-411.43C925.09,-406.84 972.56,-401.2 1008.33,-396.95"/>
<polygon fill="#9a32cd" stroke="#9a32cd" points="886.28,-407.92 876.76,-412.57 887.1,-414.87 886.28,-407.92"/>
</a>
</g>
<text text-anchor="middle" x="939.88" y="-410.38" font-family="Helvetica,sans-Serif" font-size="10.00" fill="grey"> mObjectContainer</text>
</g>
<!-- Node12&#45;&gt;Node11 -->
<g id="edge12_Node000011_Node000012" class="edge">
<title>Node12&#45;&gt;Node11</title>
<g id="a_edge12_Node000011_Node000012"><a xlink:title=" ">
<path fill="none" stroke="#63b8ff" d="M660.72,-418.26C691.94,-418.53 728.07,-418.85 757.55,-419.11"/>
<polygon fill="#63b8ff" stroke="#63b8ff" points="661,-414.76 650.97,-418.17 660.94,-421.76 661,-414.76"/>
</a>
</g>
</g>
<!-- Node13&#45;&gt;Node9 -->
<g id="edge14_Node000009_Node000013" class="edge">
<title>Node13&#45;&gt;Node9</title>
<g id="a_edge14_Node000009_Node000013"><a xlink:title=" ">
<path fill="none" stroke="#9a32cd" stroke-dasharray="5,2" d="M881.18,-323.39C911.72,-327.01 948.42,-333.33 980,-344.38 1005.37,-353.24 1031.94,-369.89 1047.63,-380.61"/>
<polygon fill="#9a32cd" stroke="#9a32cd" points="881.63,-319.92 871.31,-322.3 880.87,-326.88 881.63,-319.92"/>
</a>
</g>
<text text-anchor="middle" x="939.88" y="-345.38" font-family="Helvetica,sans-Serif" font-size="10.00" fill="grey"> mObject_control</text>
</g>
<!-- Node14 -->
<g id="Node000014" class="node">
<title>Node14</title>
<g id="a_Node000014"><a xlink:href="structJStudio_1_1TVariableValue.html" target="_top" xlink:title=" ">
<polygon fill="white" stroke="#666666" points="326.38,-207.25 206.88,-207.25 206.88,-188 326.38,-188 326.38,-207.25"/>
<text text-anchor="middle" x="266.62" y="-193.75" font-family="Helvetica,sans-Serif" font-size="10.00">JStudio::TVariableValue</text>
</a>
</g>
</g>
<!-- Node14&#45;&gt;Node2 -->
<g id="edge20_Node000002_Node000014" class="edge">
<title>Node14&#45;&gt;Node2</title>
<g id="a_edge20_Node000002_Node000014"><a xlink:title=" ">
<path fill="none" stroke="#9a32cd" stroke-dasharray="5,2" d="M338.07,-196.21C445.07,-194.06 647.02,-190.01 750.57,-187.93"/>
<polygon fill="#9a32cd" stroke="#9a32cd" points="338.21,-192.71 328.28,-196.41 338.35,-199.71 338.21,-192.71"/>
</a>
</g>
<text text-anchor="middle" x="588.12" y="-193.38" font-family="Helvetica,sans-Serif" font-size="10.00" fill="grey"> mValue</text>
</g>
<!-- Node14&#45;&gt;Node3 -->
<g id="edge17_Node000003_Node000014" class="edge">
<title>Node14&#45;&gt;Node3</title>
<g id="a_edge17_Node000003_Node000014"><a xlink:title=" ">
<path fill="none" stroke="#9a32cd" stroke-dasharray="5,2" d="M337.84,-205.76C399.77,-212.93 488.22,-223.17 541.42,-229.33"/>
<polygon fill="#9a32cd" stroke="#9a32cd" points="338.44,-202.3 328.1,-204.63 337.63,-209.26 338.44,-202.3"/>
</a>
</g>
<text text-anchor="middle" x="430.38" y="-226.38" font-family="Helvetica,sans-Serif" font-size="10.00" fill="grey"> pValue_</text>
</g>
<!-- Node15 -->
<g id="Node000015" class="node">
<title>Node15</title>
<g id="a_Node000015"><a xlink:href="classJStudio_1_1TFunctionValue.html" target="_top" xlink:title=" ">
<polygon fill="white" stroke="#666666" points="121.75,-217.25 0,-217.25 0,-198 121.75,-198 121.75,-217.25"/>
<text text-anchor="middle" x="60.88" y="-203.75" font-family="Helvetica,sans-Serif" font-size="10.00">JStudio::TFunctionValue</text>
</a>
</g>
</g>
<!-- Node15&#45;&gt;Node14 -->
<g id="edge18_Node000014_Node000015" class="edge">
<title>Node15&#45;&gt;Node14</title>
<g id="a_edge18_Node000014_Node000015"><a xlink:title=" ">
<path fill="none" stroke="#9a32cd" stroke-dasharray="5,2" d="M133.66,-204.1C157.5,-202.93 183.76,-201.64 206.53,-200.53"/>
<polygon fill="#9a32cd" stroke="#9a32cd" points="133.51,-200.6 123.69,-204.59 133.85,-207.6 133.51,-200.6"/>
</a>
</g>
<text text-anchor="middle" x="160.75" y="-204.38" font-family="Helvetica,sans-Serif" font-size="10.00" fill="grey"> fv</text>
</g>
<!-- Node16 -->
<g id="Node000016" class="node">
<title>Node16</title>
<g id="a_Node000016"><a xlink:href="structJStudio_1_1TVariableValue_1_1TOutput.html" target="_top" xlink:title=" ">
<polygon fill="white" stroke="#666666" points="120.62,-167.88 1.13,-167.88 1.13,-137.38 120.62,-137.38 120.62,-167.88"/>
<text text-anchor="start" x="9.12" y="-154.38" font-family="Helvetica,sans-Serif" font-size="10.00">JStudio::TVariableValue</text>
<text text-anchor="middle" x="60.88" y="-143.12" font-family="Helvetica,sans-Serif" font-size="10.00">::TOutput</text>
</a>
</g>
</g>
<!-- Node16&#45;&gt;Node14 -->
<g id="edge19_Node000014_Node000016" class="edge">
<title>Node16&#45;&gt;Node14</title>
<g id="a_edge19_Node000014_Node000016"><a xlink:title=" ">
<path fill="none" stroke="#9a32cd" stroke-dasharray="5,2" d="M132.02,-168.12C161.09,-174.54 194,-181.81 219.89,-187.52"/>
<polygon fill="#9a32cd" stroke="#9a32cd" points="133.08,-164.77 122.56,-166.03 131.57,-171.6 133.08,-164.77"/>
</a>
</g>
<text text-anchor="middle" x="160.75" y="-179.38" font-family="Helvetica,sans-Serif" font-size="10.00" fill="grey"> pOutput_</text>
</g>
<!-- Node20 -->
<g id="Node000020" class="node">
<title>Node20</title>
<g id="a_Node000020"><a xlink:href="structJStudio__JStage_1_1TVariableValueOutput__object__.html" target="_top" xlink:title=" ">
<polygon fill="white" stroke="#666666" points="509.25,-161.5 351.5,-161.5 351.5,-119.75 509.25,-119.75 509.25,-161.5"/>
<text text-anchor="start" x="359.5" y="-148" font-family="Helvetica,sans-Serif" font-size="10.00">JStudio_JStage::TVariable</text>
<text text-anchor="start" x="359.5" y="-136.75" font-family="Helvetica,sans-Serif" font-size="10.00">ValueOutput_object_&lt; TAdaptor,</text>
<text text-anchor="middle" x="430.38" y="-125.5" font-family="Helvetica,sans-Serif" font-size="10.00"> TStageObject &gt;</text>
</a>
</g>
</g>
<!-- Node16&#45;&gt;Node20 -->
<g id="edge26_Node000020_Node000016" class="edge">
<title>Node16&#45;&gt;Node20</title>
<g id="a_edge26_Node000020_Node000016"><a xlink:title=" ">
<path fill="none" stroke="#63b8ff" d="M132.27,-150.33C194.9,-148.28 286.38,-145.29 351.26,-143.18"/>
<polygon fill="#63b8ff" stroke="#63b8ff" points="132.31,-146.82 122.43,-150.65 132.54,-153.82 132.31,-146.82"/>
</a>
</g>
</g>
<!-- Node17 -->
<g id="Node000017" class="node">
<title>Node17</title>
<g id="a_Node000017"><a xlink:href="structJStudio__JStage_1_1TAdaptor__object__.html" target="_top" xlink:title=" ">
<polygon fill="white" stroke="#666666" points="881,-66.88 751.75,-66.88 751.75,-36.38 881,-36.38 881,-66.88"/>
<text text-anchor="start" x="759.75" y="-53.38" font-family="Helvetica,sans-Serif" font-size="10.00">JStudio_JStage::TAdaptor</text>
<text text-anchor="middle" x="816.38" y="-42.12" font-family="Helvetica,sans-Serif" font-size="10.00">_object_</text>
</a>
</g>
</g>
<!-- Node17&#45;&gt;Node1 -->
<g id="edge21_Node000001_Node000017" class="edge">
<title>Node17&#45;&gt;Node1</title>
<g id="a_edge21_Node000001_Node000017"><a xlink:title=" ">
<path fill="none" stroke="#63b8ff" d="M892.47,-61.01C920.33,-65.54 951.96,-71.92 980,-80.62 997.68,-86.11 1016.56,-94.5 1031.71,-101.89"/>
<polygon fill="#63b8ff" stroke="#63b8ff" points="893.11,-57.57 882.69,-59.48 892.03,-64.49 893.11,-57.57"/>
</a>
</g>
</g>
<!-- Node18 -->
<g id="Node000018" class="node">
<title>Node18</title>
<g id="a_Node000018"><a xlink:href="structJStage_1_1TSystem.html" target="_top" xlink:title=" ">
<polygon fill="white" stroke="#666666" points="633.25,-19.25 543,-19.25 543,0 633.25,0 633.25,-19.25"/>
<text text-anchor="middle" x="588.12" y="-5.75" font-family="Helvetica,sans-Serif" font-size="10.00">JStage::TSystem</text>
</a>
</g>
</g>
<!-- Node18&#45;&gt;Node17 -->
<g id="edge22_Node000017_Node000018" class="edge">
<title>Node18&#45;&gt;Node17</title>
<g id="a_edge22_Node000017_Node000018"><a xlink:title=" ">
<path fill="none" stroke="#9a32cd" stroke-dasharray="5,2" d="M644.84,-16.22C671.61,-19.75 704.1,-24.58 733,-30.38 741.11,-32 749.61,-33.93 757.95,-35.96"/>
<polygon fill="#9a32cd" stroke="#9a32cd" points="645.6,-12.79 635.24,-14.98 644.71,-19.73 645.6,-12.79"/>
</a>
</g>
<text text-anchor="middle" x="700" y="-32.38" font-family="Helvetica,sans-Serif" font-size="10.00" fill="grey"> pJSGSystem_</text>
</g>
<!-- Node19 -->
<g id="Node000019" class="node">
<title>Node19</title>
<g id="a_Node000019"><a xlink:href="structJStage_1_1TObject.html" target="_top" xlink:title=" ">
<polygon fill="white" stroke="#666666" points="309.5,-65.25 223.75,-65.25 223.75,-46 309.5,-46 309.5,-65.25"/>
<text text-anchor="middle" x="266.62" y="-51.75" font-family="Helvetica,sans-Serif" font-size="10.00">JStage::TObject</text>
</a>
</g>
</g>
<!-- Node19&#45;&gt;Node1 -->
<g id="edge27_Node000001_Node000019" class="edge">
<title>Node19&#45;&gt;Node1</title>
<g id="a_edge27_Node000001_Node000019"><a xlink:title=" ">
<path fill="none" stroke="#9a32cd" stroke-dasharray="5,2" d="M320.97,-64.59C331.09,-66.09 341.6,-67.52 351.5,-68.62 589.14,-95.19 873.25,-109.59 997.81,-115.04"/>
<polygon fill="#9a32cd" stroke="#9a32cd" points="321.68,-61.16 311.27,-63.1 320.62,-68.08 321.68,-61.16"/>
</a>
</g>
<text text-anchor="middle" x="700" y="-112.62" font-family="Helvetica,sans-Serif" font-size="10.00" fill="grey"> field_0x10c</text>
<text text-anchor="middle" x="700" y="-101.38" font-family="Helvetica,sans-Serif" font-size="10.00" fill="grey">field_0x118</text>
</g>
<!-- Node19&#45;&gt;Node17 -->
<g id="edge24_Node000017_Node000019" class="edge">
<title>Node19&#45;&gt;Node17</title>
<g id="a_edge24_Node000017_Node000019"><a xlink:title=" ">
<path fill="none" stroke="#9a32cd" stroke-dasharray="5,2" d="M321.17,-55.23C422.59,-54.49 642.26,-52.89 751.3,-52.09"/>
<polygon fill="#9a32cd" stroke="#9a32cd" points="321.18,-51.73 311.21,-55.31 321.24,-58.73 321.18,-51.73"/>
</a>
</g>
<text text-anchor="middle" x="588.12" y="-56.38" font-family="Helvetica,sans-Serif" font-size="10.00" fill="grey"> pJSGObject_</text>
</g>
<!-- Node19&#45;&gt;Node18 -->
<g id="edge23_Node000018_Node000019" class="edge">
<title>Node19&#45;&gt;Node18</title>
<g id="a_edge23_Node000018_Node000019"><a xlink:title=" ">
<path fill="none" stroke="#63b8ff" d="M321.02,-46.46C331.14,-44.8 341.64,-43.12 351.5,-41.62 418.03,-31.56 495.37,-21.34 542.77,-15.24"/>
<polygon fill="#63b8ff" stroke="#63b8ff" points="320.61,-42.98 311.32,-48.08 321.76,-49.89 320.61,-42.98"/>
</a>
</g>
</g>
<!-- Node20&#45;&gt;Node1 -->
<g id="edge25_Node000001_Node000020" class="edge">
<title>Node20&#45;&gt;Node1</title>
<g id="a_edge25_Node000001_Node000020"><a xlink:title=" ">
<path fill="none" stroke="#9a32cd" stroke-dasharray="5,2" d="M520.99,-137.35C649.99,-132.65 884.89,-124.07 997.75,-119.96"/>
<polygon fill="#9a32cd" stroke="#9a32cd" points="520.98,-133.85 511.12,-137.71 521.24,-140.85 520.98,-133.85"/>
</a>
</g>
<text text-anchor="middle" x="700" y="-133.38" font-family="Helvetica,sans-Serif" font-size="10.00" fill="grey"> saoVVOutput_</text>
</g>
</g>
</svg>

<g id="navigator" transform="translate(0 0)" fill="#404254">
  <rect fill="#f2f5e9" fill-opacity="0.5" stroke="#606060" stroke-width=".5" x="0" y="0" width="60" height="60"/>
  <use id="zoomplus" xlink:href="#zoomPlus" x="17" y="9" onmousedown="handleZoom(evt,'in')"/>
  <use id="zoomminus" xlink:href="#zoomMin" x="42" y="9" onmousedown="handleZoom(evt,'out')"/>
  <use id="reset" xlink:href="#resetDef" x="30" y="36" onmousedown="handleReset()"/>
   <use id="arrowup" xlink:href="#arrowUp" x="0" y="0" onmousedown="handlePan(0,-1)"/>
  <use id="arrowright" xlink:href="#arrowRight" x="0" y="0" onmousedown="handlePan(1,0)"/>
  <use id="arrowdown" xlink:href="#arrowDown" x="0" y="0" onmousedown="handlePan(0,1)"/>
  <use id="arrowleft" xlink:href="#arrowLeft" x="0" y="0" onmousedown="handlePan(-1,0)"/>
</g>
<svg viewBox="0 0 15 15" width="100%" height="30px" preserveAspectRatio="xMaxYMin meet">
 <g id="arrow_out" transform="scale(0.3 0.3)">
  <a xlink:href="structJStudio__JStage_1_1TAdaptor__camera__coll__graph_org.svg" target="_base">
   <rect id="button" ry="5" rx="5" y="6" x="6" height="38" width="38"
        fill="#f2f5e9" fill-opacity="0.5" stroke="#606060" stroke-width="1.0"/>
   <path id="arrow"
     d="M 11.500037,31.436501 C 11.940474,20.09759 22.043105,11.32322 32.158766,21.979434 L 37.068811,17.246167 C 37.068811,17.246167 37.088388,32 37.088388,32 L 22.160133,31.978069 C 22.160133,31.978069 26.997745,27.140456 26.997745,27.140456 C 18.528582,18.264221 13.291696,25.230495 11.500037,31.436501 z"
     style="fill:#404040;"/>
  </a>
 </g>
</svg>

<style type='text/css'>
<![CDATA[
[data-mouse-over-selected='false'] { opacity: 0.7; }
[data-mouse-over-selected='true']  { opacity: 1.0; }
]]>
</style>
<script type="application/ecmascript"><![CDATA[
document.addEventListener('DOMContentLoaded', (event) => {
  highlightEdges();
  highlightAdjacentNodes();
});
]]></script>
</svg>
