<?xml version="1.0" encoding="UTF-8" standalone="no"?>
<!DOCTYPE svg PUBLIC "-//W3C//DTD SVG 1.1//EN"
 "http://www.w3.org/Graphics/SVG/1.1/DTD/svg11.dtd">
<!-- Generated by graphviz version 9.0.0 (20230911.1827)
 -->
<!-- Title: dBgS_PolyPassChk Pages: 1 -->
<!--zoomable 656 -->

<svg id="main" version="1.1" xmlns="http://www.w3.org/2000/svg" xmlns:xlink="http://www.w3.org/1999/xlink" xml:space="preserve" onload="init(evt)">
<style type="text/css"><![CDATA[
.node, .edge {opacity: 0.7;}
.node.selected, .edge.selected {opacity: 1;}
.edge:hover path { stroke: red; }
.edge:hover polygon { stroke: red; fill: red; }
]]></style>

<defs>
  <circle id="rim" cx="0" cy="0" r="7"/>
  <circle id="rim2" cx="0" cy="0" r="3.5"/>
  <g id="zoomPlus">
    <use xlink:href="#rim" fill="#404040"><set attributeName="fill" to="#808080" begin="zoomplus.mouseover" end="zoomplus.mouseout"/></use>
    <path d="M-4,0h8M0,-4v8" fill="none" stroke="white" stroke-width="1.5" pointer-events="none"/>
  </g>
  <g id="zoomMin">
    <use xlink:href="#rim" fill="#404040"><set attributeName="fill" to="#808080" begin="zoomminus.mouseover" end="zoomminus.mouseout"/></use>
    <path d="M-4,0h8" fill="none" stroke="white" stroke-width="1.5" pointer-events="none"/>
  </g>
  <g id="arrowUp" transform="translate(30 24)">
    <use xlink:href="#rim"/>
    <path pointer-events="none" fill="none" stroke="white" stroke-width="1.5" d="M0,-3.0v7 M-2.5,-0.5L0,-3.0L2.5,-0.5"/>
  </g>
  <g id="arrowRight" transform="rotate(90) translate(36 -43)">
    <use xlink:href="#rim"/>
    <path pointer-events="none" fill="none" stroke="white" stroke-width="1.5" d="M0,-3.0v7 M-2.5,-0.5L0,-3.0L2.5,-0.5"/>
  </g>
  <g id="arrowDown" transform="rotate(180) translate(-30 -48)">
    <use xlink:href="#rim"/>
    <path pointer-events="none" fill="none" stroke="white" stroke-width="1.5" d="M0,-3.0v7 M-2.5,-0.5L0,-3.0L2.5,-0.5"/>
  </g>
  <g id="arrowLeft" transform="rotate(270) translate(-36 17)">
    <use xlink:href="#rim"/>
    <path pointer-events="none" fill="none" stroke="white" stroke-width="1.5" d="M0,-3.0v7 M-2.5,-0.5L0,-3.0L2.5,-0.5"/>
  </g>
  <g id="resetDef">
    <use xlink:href="#rim2" fill="#404040"><set attributeName="fill" to="#808080" begin="reset.mouseover" end="reset.mouseout"/></use>
  </g>
</defs>
<script type="application/ecmascript">
var viewWidth = 808;
var viewHeight = 656;
var sectionId = 'dynsection-0';
</script>
<script type="application/ecmascript" xlink:href="svg.min.js"/>
<svg id="graph" class="graph">
<g id="viewport">
<title>dBgS_PolyPassChk</title>
<!-- Node1 -->
<g id="Node000001" class="node">
<title>Node1</title>
<g id="a_Node000001"><a xlink:title=" ">
<polygon fill="#999999" stroke="#666666" points="243.5,-259.25 139.75,-259.25 139.75,-240 243.5,-240 243.5,-259.25"/>
<text text-anchor="middle" x="191.62" y="-245.75" font-family="Helvetica,sans-Serif" font-size="10.00">dBgS_PolyPassChk</text>
</a>
</g>
</g>
<!-- Node3 -->
<g id="Node000003" class="node">
<title>Node3</title>
<g id="a_Node000003"><a xlink:href="classdBgS__Chk.html" target="_top" xlink:title=" ">
<polygon fill="white" stroke="#666666" points="342,-259.25 279.5,-259.25 279.5,-240 342,-240 342,-259.25"/>
<text text-anchor="middle" x="310.75" y="-245.75" font-family="Helvetica,sans-Serif" font-size="10.00">dBgS_Chk</text>
</a>
</g>
</g>
<!-- Node1&#45;&gt;Node3 -->
<g id="edge2_Node000001_Node000003" class="edge">
<title>Node1&#45;&gt;Node3</title>
<g id="a_edge2_Node000001_Node000003"><a xlink:title=" ">
<path fill="none" stroke="#63b8ff" d="M255.35,-249.62C263.67,-249.62 271.88,-249.62 279.29,-249.62"/>
<polygon fill="#63b8ff" stroke="#63b8ff" points="255.51,-246.13 245.51,-249.63 255.51,-253.13 255.51,-246.13"/>
</a>
</g>
</g>
<!-- Node2 -->
<g id="Node000002" class="node">
<title>Node2</title>
<g id="a_Node000002"><a xlink:href="classcBgS__PolyPassChk.html" target="_top" xlink:title=" ">
<polygon fill="white" stroke="#666666" points="103.75,-259.25 0,-259.25 0,-240 103.75,-240 103.75,-259.25"/>
<text text-anchor="middle" x="51.88" y="-245.75" font-family="Helvetica,sans-Serif" font-size="10.00">cBgS_PolyPassChk</text>
</a>
</g>
</g>
<!-- Node2&#45;&gt;Node1 -->
<g id="edge1_Node000001_Node000002" class="edge">
<title>Node2&#45;&gt;Node1</title>
<g id="a_edge1_Node000001_Node000002"><a xlink:title=" ">
<path fill="none" stroke="#63b8ff" d="M115.64,-249.62C123.55,-249.62 131.58,-249.62 139.29,-249.62"/>
<polygon fill="#63b8ff" stroke="#63b8ff" points="115.68,-246.13 105.68,-249.63 115.68,-253.13 115.68,-246.13"/>
</a>
</g>
</g>
<!-- Node4 -->
<g id="Node000004" class="node">
<title>Node4</title>
<g id="a_Node000004"><a xlink:href="structdBgS__Acch.html" target="_top" xlink:title=" ">
<polygon fill="white" stroke="#666666" points="458.12,-574.25 390.38,-574.25 390.38,-555 458.12,-555 458.12,-574.25"/>
<text text-anchor="middle" x="424.25" y="-560.75" font-family="Helvetica,sans-Serif" font-size="10.00">dBgS_Acch</text>
</a>
</g>
</g>
<!-- Node3&#45;&gt;Node4 -->
<g id="edge3_Node000003_Node000004" class="edge">
<title>Node3&#45;&gt;Node4</title>
<g id="a_edge3_Node000003_Node000004"><a xlink:title=" ">
<path fill="none" stroke="#63b8ff" d="M316.71,-270.54C326.46,-310.51 349.66,-400.18 378,-472.62 390.06,-503.46 408.48,-538.05 417.66,-554.67"/>
<polygon fill="#63b8ff" stroke="#63b8ff" points="320.17,-269.98 314.43,-261.08 313.37,-271.62 320.17,-269.98"/>
</a>
</g>
</g>
<!-- Node9 -->
<g id="Node000009" class="node">
<title>Node9</title>
<g id="a_Node000009"><a xlink:href="structdBgS__CaptPoly.html" target="_top" xlink:title=" ">
<polygon fill="white" stroke="#666666" points="466.38,-463.25 382.12,-463.25 382.12,-444 466.38,-444 466.38,-463.25"/>
<text text-anchor="middle" x="424.25" y="-449.75" font-family="Helvetica,sans-Serif" font-size="10.00">dBgS_CaptPoly</text>
</a>
</g>
</g>
<!-- Node3&#45;&gt;Node9 -->
<g id="edge8_Node000003_Node000009" class="edge">
<title>Node3&#45;&gt;Node9</title>
<g id="a_edge8_Node000003_Node000009"><a xlink:title=" ">
<path fill="none" stroke="#63b8ff" d="M313.64,-270.71C318.12,-308.6 332.68,-388.62 378,-435.62 381.05,-438.79 384.73,-441.41 388.66,-443.58"/>
<polygon fill="#63b8ff" stroke="#63b8ff" points="317.16,-270.67 312.64,-261.09 310.2,-271.4 317.16,-270.67"/>
</a>
</g>
</g>
<!-- Node10 -->
<g id="Node000010" class="node">
<title>Node10</title>
<g id="a_Node000010"><a xlink:href="structdBgS__GndChk.html" target="_top" xlink:title=" ">
<polygon fill="white" stroke="#666666" points="464.5,-426.25 384,-426.25 384,-407 464.5,-407 464.5,-426.25"/>
<text text-anchor="middle" x="424.25" y="-412.75" font-family="Helvetica,sans-Serif" font-size="10.00">dBgS_GndChk</text>
</a>
</g>
</g>
<!-- Node3&#45;&gt;Node10 -->
<g id="edge9_Node000003_Node000010" class="edge">
<title>Node3&#45;&gt;Node10</title>
<g id="a_edge9_Node000003_Node000010"><a xlink:title=" ">
<path fill="none" stroke="#63b8ff" d="M324.6,-268.88C348.36,-304.46 398.37,-379.36 416.5,-406.52"/>
<polygon fill="#63b8ff" stroke="#63b8ff" points="327.69,-267.2 319.23,-260.83 321.87,-271.09 327.69,-267.2"/>
</a>
</g>
</g>
<!-- Node18 -->
<g id="Node000018" class="node">
<title>Node18</title>
<g id="a_Node000018"><a xlink:href="structdBgS__LinChk.html" target="_top" xlink:title=" ">
<polygon fill="white" stroke="#666666" points="462.25,-259.25 386.25,-259.25 386.25,-240 462.25,-240 462.25,-259.25"/>
<text text-anchor="middle" x="424.25" y="-245.75" font-family="Helvetica,sans-Serif" font-size="10.00">dBgS_LinChk</text>
</a>
</g>
</g>
<!-- Node3&#45;&gt;Node18 -->
<g id="edge17_Node000003_Node000018" class="edge">
<title>Node3&#45;&gt;Node18</title>
<g id="a_edge17_Node000003_Node000018"><a xlink:title=" ">
<path fill="none" stroke="#63b8ff" d="M353.46,-249.62C364.16,-249.62 375.61,-249.62 386.06,-249.62"/>
<polygon fill="#63b8ff" stroke="#63b8ff" points="353.73,-246.13 343.73,-249.63 353.73,-253.13 353.73,-246.13"/>
</a>
</g>
</g>
<!-- Node28 -->
<g id="Node000028" class="node">
<title>Node28</title>
<g id="a_Node000028"><a xlink:href="classdBgS__RoofChk.html" target="_top" xlink:title=" ">
<polygon fill="white" stroke="#666666" points="465.62,-148.25 382.88,-148.25 382.88,-129 465.62,-129 465.62,-148.25"/>
<text text-anchor="middle" x="424.25" y="-134.75" font-family="Helvetica,sans-Serif" font-size="10.00">dBgS_RoofChk</text>
</a>
</g>
</g>
<!-- Node3&#45;&gt;Node28 -->
<g id="edge27_Node000003_Node000028" class="edge">
<title>Node3&#45;&gt;Node28</title>
<g id="a_edge27_Node000003_Node000028"><a xlink:title=" ">
<path fill="none" stroke="#63b8ff" d="M329.51,-231.95C353.19,-208.37 394.31,-167.43 413.22,-148.61"/>
<polygon fill="#63b8ff" stroke="#63b8ff" points="327.34,-229.17 322.72,-238.71 332.27,-234.13 327.34,-229.17"/>
</a>
</g>
</g>
<!-- Node31 -->
<g id="Node000031" class="node">
<title>Node31</title>
<g id="a_Node000031"><a xlink:href="classdBgS__SphChk.html" target="_top" xlink:title=" ">
<polygon fill="white" stroke="#666666" points="464.12,-111.25 384.38,-111.25 384.38,-92 464.12,-92 464.12,-111.25"/>
<text text-anchor="middle" x="424.25" y="-97.75" font-family="Helvetica,sans-Serif" font-size="10.00">dBgS_SphChk</text>
</a>
</g>
</g>
<!-- Node3&#45;&gt;Node31 -->
<g id="edge30_Node000003_Node000031" class="edge">
<title>Node3&#45;&gt;Node31</title>
<g id="a_edge30_Node000003_Node000031"><a xlink:title=" ">
<path fill="none" stroke="#63b8ff" d="M317.34,-228.67C325.91,-200.31 344.89,-149.8 378,-119.62 381.5,-116.44 385.63,-113.78 389.96,-111.58"/>
<polygon fill="#63b8ff" stroke="#63b8ff" points="314,-227.64 314.62,-238.21 320.73,-229.56 314,-227.64"/>
</a>
</g>
</g>
<!-- Node32 -->
<g id="Node000032" class="node">
<title>Node32</title>
<g id="a_Node000032"><a xlink:href="classdBgS__SplGrpChk.html" target="_top" xlink:title=" ">
<polygon fill="white" stroke="#666666" points="470.5,-19.25 378,-19.25 378,0 470.5,0 470.5,-19.25"/>
<text text-anchor="middle" x="424.25" y="-5.75" font-family="Helvetica,sans-Serif" font-size="10.00">dBgS_SplGrpChk</text>
</a>
</g>
</g>
<!-- Node3&#45;&gt;Node32 -->
<g id="edge31_Node000003_Node000032" class="edge">
<title>Node3&#45;&gt;Node32</title>
<g id="a_edge31_Node000003_Node000032"><a xlink:title=" ">
<path fill="none" stroke="#63b8ff" d="M318.64,-228.89C329.6,-196.81 352.39,-133.52 378,-82.62 389.8,-59.18 406.76,-33.47 416.21,-19.69"/>
<polygon fill="#63b8ff" stroke="#63b8ff" points="315.4,-227.54 315.52,-238.14 322.03,-229.78 315.4,-227.54"/>
</a>
</g>
</g>
<!-- Node5 -->
<g id="Node000005" class="node">
<title>Node5</title>
<g id="a_Node000005"><a xlink:href="classdBgS__BombAcch.html" target="_top" xlink:title=" ">
<polygon fill="white" stroke="#666666" points="615.88,-648.25 522.62,-648.25 522.62,-629 615.88,-629 615.88,-648.25"/>
<text text-anchor="middle" x="569.25" y="-634.75" font-family="Helvetica,sans-Serif" font-size="10.00">dBgS_BombAcch</text>
</a>
</g>
</g>
<!-- Node4&#45;&gt;Node5 -->
<g id="edge4_Node000004_Node000005" class="edge">
<title>Node4&#45;&gt;Node5</title>
<g id="a_edge4_Node000004_Node000005"><a xlink:title=" ">
<path fill="none" stroke="#63b8ff" d="M446.02,-581.73C461.79,-594 484.46,-610.15 506.5,-620.62 512.85,-623.64 519.82,-626.27 526.71,-628.51"/>
<polygon fill="#63b8ff" stroke="#63b8ff" points="448.34,-579.1 438.34,-575.61 443.99,-584.58 448.34,-579.1"/>
</a>
</g>
</g>
<!-- Node6 -->
<g id="Node000006" class="node">
<title>Node6</title>
<g id="a_Node000006"><a xlink:href="classdBgS__LinkAcch.html" target="_top" xlink:title=" ">
<polygon fill="white" stroke="#666666" points="612.5,-611.25 526,-611.25 526,-592 612.5,-592 612.5,-611.25"/>
<text text-anchor="middle" x="569.25" y="-597.75" font-family="Helvetica,sans-Serif" font-size="10.00">dBgS_LinkAcch</text>
</a>
</g>
</g>
<!-- Node4&#45;&gt;Node6 -->
<g id="edge5_Node000004_Node000006" class="edge">
<title>Node4&#45;&gt;Node6</title>
<g id="a_edge5_Node000004_Node000006"><a xlink:title=" ">
<path fill="none" stroke="#63b8ff" d="M469.54,-576.08C488.61,-581.02 510.72,-586.74 529.17,-591.51"/>
<polygon fill="#63b8ff" stroke="#63b8ff" points="470.44,-572.7 459.88,-573.59 468.69,-579.48 470.44,-572.7"/>
</a>
</g>
</g>
<!-- Node7 -->
<g id="Node000007" class="node">
<title>Node7</title>
<g id="a_Node000007"><a xlink:href="structdBgS__ObjAcch.html" target="_top" xlink:title=" ">
<polygon fill="white" stroke="#666666" points="610.62,-574.25 527.88,-574.25 527.88,-555 610.62,-555 610.62,-574.25"/>
<text text-anchor="middle" x="569.25" y="-560.75" font-family="Helvetica,sans-Serif" font-size="10.00">dBgS_ObjAcch</text>
</a>
</g>
</g>
<!-- Node4&#45;&gt;Node7 -->
<g id="edge6_Node000004_Node000007" class="edge">
<title>Node4&#45;&gt;Node7</title>
<g id="a_edge6_Node000004_Node000007"><a xlink:title=" ">
<path fill="none" stroke="#63b8ff" d="M469.8,-564.62C488.27,-564.62 509.56,-564.62 527.61,-564.62"/>
<polygon fill="#63b8ff" stroke="#63b8ff" points="469.93,-561.13 459.93,-564.63 469.93,-568.13 469.93,-561.13"/>
</a>
</g>
</g>
<!-- Node8 -->
<g id="Node000008" class="node">
<title>Node8</title>
<g id="a_Node000008"><a xlink:href="classdBgS__StatueAcch.html" target="_top" xlink:title=" ">
<polygon fill="white" stroke="#666666" points="617.38,-537.25 521.12,-537.25 521.12,-518 617.38,-518 617.38,-537.25"/>
<text text-anchor="middle" x="569.25" y="-523.75" font-family="Helvetica,sans-Serif" font-size="10.00">dBgS_StatueAcch</text>
</a>
</g>
</g>
<!-- Node4&#45;&gt;Node8 -->
<g id="edge7_Node000004_Node000008" class="edge">
<title>Node4&#45;&gt;Node8</title>
<g id="a_edge7_Node000004_Node000008"><a xlink:title=" ">
<path fill="none" stroke="#63b8ff" d="M469.54,-553.17C488.61,-548.23 510.72,-542.51 529.17,-537.74"/>
<polygon fill="#63b8ff" stroke="#63b8ff" points="468.69,-549.77 459.88,-555.66 470.44,-556.55 468.69,-549.77"/>
</a>
</g>
</g>
<!-- Node11 -->
<g id="Node000011" class="node">
<title>Node11</title>
<g id="a_Node000011"><a xlink:href="classdBgS__CamGndChk.html" target="_top" xlink:title=" ">
<polygon fill="white" stroke="#666666" points="619.62,-500.25 518.88,-500.25 518.88,-481 619.62,-481 619.62,-500.25"/>
<text text-anchor="middle" x="569.25" y="-486.75" font-family="Helvetica,sans-Serif" font-size="10.00">dBgS_CamGndChk</text>
</a>
</g>
</g>
<!-- Node10&#45;&gt;Node11 -->
<g id="edge10_Node000010_Node000011" class="edge">
<title>Node10&#45;&gt;Node11</title>
<g id="a_edge10_Node000010_Node000011"><a xlink:title=" ">
<path fill="none" stroke="#63b8ff" d="M465.7,-431.63C467.35,-432.58 468.96,-433.58 470.5,-434.62 489.76,-447.67 486.64,-460.5 506.5,-472.62 511.65,-475.77 517.37,-478.38 523.2,-480.56"/>
<polygon fill="#63b8ff" stroke="#63b8ff" points="467.73,-428.74 457.22,-427.37 464.58,-434.99 467.73,-428.74"/>
</a>
</g>
</g>
<!-- Node13 -->
<g id="Node000013" class="node">
<title>Node13</title>
<g id="a_Node000013"><a xlink:href="classdBgS__LinkGndChk.html" target="_top" xlink:title=" ">
<polygon fill="white" stroke="#666666" points="618.88,-463.25 519.62,-463.25 519.62,-444 618.88,-444 618.88,-463.25"/>
<text text-anchor="middle" x="569.25" y="-449.75" font-family="Helvetica,sans-Serif" font-size="10.00">dBgS_LinkGndChk</text>
</a>
</g>
</g>
<!-- Node10&#45;&gt;Node13 -->
<g id="edge12_Node000010_Node000013" class="edge">
<title>Node10&#45;&gt;Node13</title>
<g id="a_edge12_Node000010_Node000013"><a xlink:title=" ">
<path fill="none" stroke="#63b8ff" d="M475.32,-429.58C493,-434.15 512.6,-439.23 529.22,-443.53"/>
<polygon fill="#63b8ff" stroke="#63b8ff" points="476.35,-426.23 465.79,-427.11 474.6,-433.01 476.35,-426.23"/>
</a>
</g>
</g>
<!-- Node14 -->
<g id="Node000014" class="node">
<title>Node14</title>
<g id="a_Node000014"><a xlink:href="structdBgS__ObjGndChk.html" target="_top" xlink:title=" ">
<polygon fill="white" stroke="#666666" points="617,-426.25 521.5,-426.25 521.5,-407 617,-407 617,-426.25"/>
<text text-anchor="middle" x="569.25" y="-412.75" font-family="Helvetica,sans-Serif" font-size="10.00">dBgS_ObjGndChk</text>
</a>
</g>
</g>
<!-- Node10&#45;&gt;Node14 -->
<g id="edge13_Node000010_Node000014" class="edge">
<title>Node10&#45;&gt;Node14</title>
<g id="a_edge13_Node000010_Node000014"><a xlink:title=" ">
<path fill="none" stroke="#63b8ff" d="M476.12,-416.62C490.75,-416.62 506.65,-416.62 521.05,-416.62"/>
<polygon fill="#63b8ff" stroke="#63b8ff" points="476.22,-413.13 466.22,-416.63 476.22,-420.13 476.22,-413.13"/>
</a>
</g>
</g>
<!-- Node12 -->
<g id="Node000012" class="node">
<title>Node12</title>
<g id="a_Node000012"><a xlink:href="classdBgS__CamGndChk__Wtr.html" target="_top" xlink:title=" ">
<polygon fill="white" stroke="#666666" points="794.62,-500.25 673.62,-500.25 673.62,-481 794.62,-481 794.62,-500.25"/>
<text text-anchor="middle" x="734.12" y="-486.75" font-family="Helvetica,sans-Serif" font-size="10.00">dBgS_CamGndChk_Wtr</text>
</a>
</g>
</g>
<!-- Node11&#45;&gt;Node12 -->
<g id="edge11_Node000011_Node000012" class="edge">
<title>Node11&#45;&gt;Node12</title>
<g id="a_edge11_Node000011_Node000012"><a xlink:title=" ">
<path fill="none" stroke="#63b8ff" d="M631.32,-490.62C645.08,-490.62 659.66,-490.62 673.36,-490.62"/>
<polygon fill="#63b8ff" stroke="#63b8ff" points="631.52,-487.13 621.52,-490.63 631.52,-494.13 631.52,-487.13"/>
</a>
</g>
</g>
<!-- Node15 -->
<g id="Node000015" class="node">
<title>Node15</title>
<g id="a_Node000015"><a xlink:href="classdBgS__ObjGndChk__All.html" target="_top" xlink:title=" ">
<polygon fill="white" stroke="#666666" points="790.12,-463.25 678.12,-463.25 678.12,-444 790.12,-444 790.12,-463.25"/>
<text text-anchor="middle" x="734.12" y="-449.75" font-family="Helvetica,sans-Serif" font-size="10.00">dBgS_ObjGndChk_All</text>
</a>
</g>
</g>
<!-- Node14&#45;&gt;Node15 -->
<g id="edge14_Node000014_Node000015" class="edge">
<title>Node14&#45;&gt;Node15</title>
<g id="a_edge14_Node000014_Node000015"><a xlink:title=" ">
<path fill="none" stroke="#63b8ff" d="M625.86,-429.26C646.35,-433.91 669.29,-439.12 688.67,-443.53"/>
<polygon fill="#63b8ff" stroke="#63b8ff" points="626.76,-425.87 616.23,-427.07 625.21,-432.7 626.76,-425.87"/>
</a>
</g>
</g>
<!-- Node16 -->
<g id="Node000016" class="node">
<title>Node16</title>
<g id="a_Node000016"><a xlink:href="structdBgS__ObjGndChk__Spl.html" target="_top" xlink:title=" ">
<polygon fill="white" stroke="#666666" points="791.62,-426.25 676.62,-426.25 676.62,-407 791.62,-407 791.62,-426.25"/>
<text text-anchor="middle" x="734.12" y="-412.75" font-family="Helvetica,sans-Serif" font-size="10.00">dBgS_ObjGndChk_Spl</text>
</a>
</g>
</g>
<!-- Node14&#45;&gt;Node16 -->
<g id="edge15_Node000014_Node000016" class="edge">
<title>Node14&#45;&gt;Node16</title>
<g id="a_edge15_Node000014_Node000016"><a xlink:title=" ">
<path fill="none" stroke="#63b8ff" d="M628.44,-416.62C644.01,-416.62 660.82,-416.62 676.31,-416.62"/>
<polygon fill="#63b8ff" stroke="#63b8ff" points="628.87,-413.13 618.87,-416.63 628.87,-420.13 628.87,-413.13"/>
</a>
</g>
</g>
<!-- Node17 -->
<g id="Node000017" class="node">
<title>Node17</title>
<g id="a_Node000017"><a xlink:href="classdBgS__ObjGndChk__Wtr.html" target="_top" xlink:title=" ">
<polygon fill="white" stroke="#666666" points="792,-389.25 676.25,-389.25 676.25,-370 792,-370 792,-389.25"/>
<text text-anchor="middle" x="734.12" y="-375.75" font-family="Helvetica,sans-Serif" font-size="10.00">dBgS_ObjGndChk_Wtr</text>
</a>
</g>
</g>
<!-- Node14&#45;&gt;Node17 -->
<g id="edge16_Node000014_Node000017" class="edge">
<title>Node14&#45;&gt;Node17</title>
<g id="a_edge16_Node000014_Node000017"><a xlink:title=" ">
<path fill="none" stroke="#63b8ff" d="M625.86,-403.99C646.35,-399.34 669.29,-394.13 688.67,-389.72"/>
<polygon fill="#63b8ff" stroke="#63b8ff" points="625.21,-400.55 616.23,-406.18 626.76,-407.38 625.21,-400.55"/>
</a>
</g>
</g>
<!-- Node19 -->
<g id="Node000019" class="node">
<title>Node19</title>
<g id="a_Node000019"><a xlink:href="classdBgS__ArrowLinChk.html" target="_top" xlink:title=" ">
<polygon fill="white" stroke="#666666" points="620,-389.25 518.5,-389.25 518.5,-370 620,-370 620,-389.25"/>
<text text-anchor="middle" x="569.25" y="-375.75" font-family="Helvetica,sans-Serif" font-size="10.00">dBgS_ArrowLinChk</text>
</a>
</g>
</g>
<!-- Node18&#45;&gt;Node19 -->
<g id="edge18_Node000018_Node000019" class="edge">
<title>Node18&#45;&gt;Node19</title>
<g id="a_edge18_Node000018_Node000019"><a xlink:title=" ">
<path fill="none" stroke="#63b8ff" d="M434.71,-269.95C447.48,-295.18 472.6,-337.76 506.5,-361.62 510.97,-364.77 516,-367.38 521.2,-369.53"/>
<polygon fill="#63b8ff" stroke="#63b8ff" points="437.92,-268.54 430.39,-261.08 431.62,-271.6 437.92,-268.54"/>
</a>
</g>
</g>
<!-- Node20 -->
<g id="Node000020" class="node">
<title>Node20</title>
<g id="a_Node000020"><a xlink:href="classdBgS__BombLinChk.html" target="_top" xlink:title=" ">
<polygon fill="white" stroke="#666666" points="620,-352.25 518.5,-352.25 518.5,-333 620,-333 620,-352.25"/>
<text text-anchor="middle" x="569.25" y="-338.75" font-family="Helvetica,sans-Serif" font-size="10.00">dBgS_BombLinChk</text>
</a>
</g>
</g>
<!-- Node18&#45;&gt;Node20 -->
<g id="edge19_Node000018_Node000020" class="edge">
<title>Node18&#45;&gt;Node20</title>
<g id="a_edge19_Node000018_Node000020"><a xlink:title=" ">
<path fill="none" stroke="#63b8ff" d="M440.8,-268.24C455.93,-285.23 480.41,-309.88 506.5,-324.62 512.04,-327.76 518.18,-330.39 524.37,-332.58"/>
<polygon fill="#63b8ff" stroke="#63b8ff" points="443.58,-266.11 434.39,-260.84 438.29,-270.69 443.58,-266.11"/>
</a>
</g>
</g>
<!-- Node21 -->
<g id="Node000021" class="node">
<title>Node21</title>
<g id="a_Node000021"><a xlink:href="classdBgS__BoomerangLinChk.html" target="_top" xlink:title=" ">
<polygon fill="white" stroke="#666666" points="632,-315.25 506.5,-315.25 506.5,-296 632,-296 632,-315.25"/>
<text text-anchor="middle" x="569.25" y="-301.75" font-family="Helvetica,sans-Serif" font-size="10.00">dBgS_BoomerangLinChk</text>
</a>
</g>
</g>
<!-- Node18&#45;&gt;Node21 -->
<g id="edge20_Node000018_Node000021" class="edge">
<title>Node18&#45;&gt;Node21</title>
<g id="a_edge20_Node000018_Node000021"><a xlink:title=" ">
<path fill="none" stroke="#63b8ff" d="M454.47,-264.62C469.73,-272.12 488.86,-280.97 506.5,-287.62 514.13,-290.5 522.43,-293.2 530.39,-295.59"/>
<polygon fill="#63b8ff" stroke="#63b8ff" points="456.45,-261.7 445.94,-260.38 453.33,-267.97 456.45,-261.7"/>
</a>
</g>
</g>
<!-- Node22 -->
<g id="Node000022" class="node">
<title>Node22</title>
<g id="a_Node000022"><a xlink:href="classdBgS__CamLinChk.html" target="_top" xlink:title=" ">
<polygon fill="white" stroke="#666666" points="617.38,-278.25 521.12,-278.25 521.12,-259 617.38,-259 617.38,-278.25"/>
<text text-anchor="middle" x="569.25" y="-264.75" font-family="Helvetica,sans-Serif" font-size="10.00">dBgS_CamLinChk</text>
</a>
</g>
</g>
<!-- Node18&#45;&gt;Node22 -->
<g id="edge21_Node000018_Node000022" class="edge">
<title>Node18&#45;&gt;Node22</title>
<g id="a_edge21_Node000018_Node000022"><a xlink:title=" ">
<path fill="none" stroke="#63b8ff" d="M473.7,-256.06C488.87,-258.08 505.6,-260.3 520.71,-262.31"/>
<polygon fill="#63b8ff" stroke="#63b8ff" points="474.32,-252.61 463.95,-254.77 473.4,-259.55 474.32,-252.61"/>
</a>
</g>
</g>
<!-- Node24 -->
<g id="Node000024" class="node">
<title>Node24</title>
<g id="a_Node000024"><a xlink:href="classdBgS__HorseLinChk.html" target="_top" xlink:title=" ">
<polygon fill="white" stroke="#666666" points="620.38,-241.25 518.12,-241.25 518.12,-222 620.38,-222 620.38,-241.25"/>
<text text-anchor="middle" x="569.25" y="-227.75" font-family="Helvetica,sans-Serif" font-size="10.00">dBgS_HorseLinChk</text>
</a>
</g>
</g>
<!-- Node18&#45;&gt;Node24 -->
<g id="edge23_Node000018_Node000024" class="edge">
<title>Node18&#45;&gt;Node24</title>
<g id="a_edge23_Node000018_Node000024"><a xlink:title=" ">
<path fill="none" stroke="#63b8ff" d="M473.53,-243.55C487.77,-241.75 503.4,-239.79 517.78,-237.98"/>
<polygon fill="#63b8ff" stroke="#63b8ff" points="473.43,-240.03 463.95,-244.75 474.31,-246.98 473.43,-240.03"/>
</a>
</g>
</g>
<!-- Node25 -->
<g id="Node000025" class="node">
<title>Node25</title>
<g id="a_Node000025"><a xlink:href="classdBgS__LinkLinChk.html" target="_top" xlink:title=" ">
<polygon fill="white" stroke="#666666" points="616.62,-204.25 521.88,-204.25 521.88,-185 616.62,-185 616.62,-204.25"/>
<text text-anchor="middle" x="569.25" y="-190.75" font-family="Helvetica,sans-Serif" font-size="10.00">dBgS_LinkLinChk</text>
</a>
</g>
</g>
<!-- Node18&#45;&gt;Node25 -->
<g id="edge24_Node000018_Node000025" class="edge">
<title>Node18&#45;&gt;Node25</title>
<g id="a_edge24_Node000018_Node000025"><a xlink:title=" ">
<path fill="none" stroke="#63b8ff" d="M455.57,-234.56C470.66,-227.39 489.31,-219.01 506.5,-212.62 514.14,-209.79 522.45,-207.11 530.42,-204.72"/>
<polygon fill="#63b8ff" stroke="#63b8ff" points="454.13,-231.37 446.64,-238.87 457.17,-237.68 454.13,-231.37"/>
</a>
</g>
</g>
<!-- Node26 -->
<g id="Node000026" class="node">
<title>Node26</title>
<g id="a_Node000026"><a xlink:href="classdBgS__ObjLinChk.html" target="_top" xlink:title=" ">
<polygon fill="white" stroke="#666666" points="614.75,-167.25 523.75,-167.25 523.75,-148 614.75,-148 614.75,-167.25"/>
<text text-anchor="middle" x="569.25" y="-153.75" font-family="Helvetica,sans-Serif" font-size="10.00">dBgS_ObjLinChk</text>
</a>
</g>
</g>
<!-- Node18&#45;&gt;Node26 -->
<g id="edge25_Node000018_Node000026" class="edge">
<title>Node18&#45;&gt;Node26</title>
<g id="a_edge25_Node000018_Node000026"><a xlink:title=" ">
<path fill="none" stroke="#63b8ff" d="M440.85,-231.27C456.02,-214.51 480.53,-190.19 506.5,-175.62 512.05,-172.51 518.19,-169.89 524.38,-167.7"/>
<polygon fill="#63b8ff" stroke="#63b8ff" points="438.41,-228.74 434.43,-238.56 443.66,-233.36 438.41,-228.74"/>
</a>
</g>
</g>
<!-- Node27 -->
<g id="Node000027" class="node">
<title>Node27</title>
<g id="a_Node000027"><a xlink:href="classdBgS__RopeLinChk.html" target="_top" xlink:title=" ">
<polygon fill="white" stroke="#666666" points="618.5,-130.25 520,-130.25 520,-111 618.5,-111 618.5,-130.25"/>
<text text-anchor="middle" x="569.25" y="-116.75" font-family="Helvetica,sans-Serif" font-size="10.00">dBgS_RopeLinChk</text>
</a>
</g>
</g>
<!-- Node18&#45;&gt;Node27 -->
<g id="edge26_Node000018_Node000027" class="edge">
<title>Node18&#45;&gt;Node27</title>
<g id="a_edge26_Node000018_Node000027"><a xlink:title=" ">
<path fill="none" stroke="#63b8ff" d="M434.76,-229.48C447.58,-204.48 472.75,-162.28 506.5,-138.62 510.98,-135.48 516.01,-132.89 521.21,-130.74"/>
<polygon fill="#63b8ff" stroke="#63b8ff" points="431.71,-227.75 430.42,-238.27 437.99,-230.85 431.71,-227.75"/>
</a>
</g>
</g>
<!-- Node23 -->
<g id="Node000023" class="node">
<title>Node23</title>
<g id="a_Node000023"><a xlink:href="classdBgS__CamLinChk__NorWtr.html" target="_top" xlink:title=" ">
<polygon fill="white" stroke="#666666" points="800.25,-278.25 668,-278.25 668,-259 800.25,-259 800.25,-278.25"/>
<text text-anchor="middle" x="734.12" y="-264.75" font-family="Helvetica,sans-Serif" font-size="10.00">dBgS_CamLinChk_NorWtr</text>
</a>
</g>
</g>
<!-- Node22&#45;&gt;Node23 -->
<g id="edge22_Node000022_Node000023" class="edge">
<title>Node22&#45;&gt;Node23</title>
<g id="a_edge22_Node000022_Node000023"><a xlink:title=" ">
<path fill="none" stroke="#63b8ff" d="M629.05,-268.62C641.58,-268.62 654.9,-268.62 667.66,-268.62"/>
<polygon fill="#63b8ff" stroke="#63b8ff" points="629.31,-265.13 619.31,-268.63 629.31,-272.13 629.31,-265.13"/>
</a>
</g>
</g>
<!-- Node29 -->
<g id="Node000029" class="node">
<title>Node29</title>
<g id="a_Node000029"><a xlink:href="classdBgS__LinkRoofChk.html" target="_top" xlink:title=" ">
<polygon fill="white" stroke="#666666" points="620,-93.25 518.5,-93.25 518.5,-74 620,-74 620,-93.25"/>
<text text-anchor="middle" x="569.25" y="-79.75" font-family="Helvetica,sans-Serif" font-size="10.00">dBgS_LinkRoofChk</text>
</a>
</g>
</g>
<!-- Node28&#45;&gt;Node29 -->
<g id="edge28_Node000028_Node000029" class="edge">
<title>Node28&#45;&gt;Node29</title>
<g id="a_edge28_Node000028_Node000029"><a xlink:title=" ">
<path fill="none" stroke="#63b8ff" d="M462.4,-124.22C465.15,-123.04 467.88,-121.83 470.5,-120.62 486.93,-113.05 489.73,-108.41 506.5,-101.62 513.75,-98.69 521.65,-96.02 529.3,-93.68"/>
<polygon fill="#63b8ff" stroke="#63b8ff" points="461.07,-120.98 453.17,-128.05 463.75,-127.45 461.07,-120.98"/>
</a>
</g>
</g>
<!-- Node30 -->
<g id="Node000030" class="node">
<title>Node30</title>
<g id="a_Node000030"><a xlink:href="classdBgS__ObjRoofChk.html" target="_top" xlink:title=" ">
<polygon fill="white" stroke="#666666" points="618.12,-56.25 520.38,-56.25 520.38,-37 618.12,-37 618.12,-56.25"/>
<text text-anchor="middle" x="569.25" y="-42.75" font-family="Helvetica,sans-Serif" font-size="10.00">dBgS_ObjRoofChk</text>
</a>
</g>
</g>
<!-- Node28&#45;&gt;Node30 -->
<g id="edge29_Node000028_Node000030" class="edge">
<title>Node28&#45;&gt;Node30</title>
<g id="a_edge29_Node000028_Node000030"><a xlink:title=" ">
<path fill="none" stroke="#63b8ff" d="M467.55,-122.87C468.57,-122.15 469.55,-121.4 470.5,-120.62 493.34,-101.81 482.79,-82.33 506.5,-64.62 510.7,-61.48 515.45,-58.89 520.39,-56.75"/>
<polygon fill="#63b8ff" stroke="#63b8ff" points="465.97,-119.75 459.1,-127.81 469.5,-125.79 465.97,-119.75"/>
</a>
</g>
</g>
<!-- Node33 -->
<g id="Node000033" class="node">
<title>Node33</title>
<g id="a_Node000033"><a xlink:href="classdBgS__WtrChk.html" target="_top" xlink:title=" ">
<polygon fill="white" stroke="#666666" points="608,-19.25 530.5,-19.25 530.5,0 608,0 608,-19.25"/>
<text text-anchor="middle" x="569.25" y="-5.75" font-family="Helvetica,sans-Serif" font-size="10.00">dBgS_WtrChk</text>
</a>
</g>
</g>
<!-- Node32&#45;&gt;Node33 -->
<g id="edge32_Node000032_Node000033" class="edge">
<title>Node32&#45;&gt;Node33</title>
<g id="a_edge32_Node000032_Node000033"><a xlink:title=" ">
<path fill="none" stroke="#63b8ff" d="M482.37,-9.62C498.46,-9.62 515.56,-9.62 530.23,-9.62"/>
<polygon fill="#63b8ff" stroke="#63b8ff" points="482.4,-6.13 472.4,-9.63 482.4,-13.13 482.4,-6.13"/>
</a>
</g>
</g>
</g>
</svg>

<g id="navigator" transform="translate(0 0)" fill="#404254">
  <rect fill="#f2f5e9" fill-opacity="0.5" stroke="#606060" stroke-width=".5" x="0" y="0" width="60" height="60"/>
  <use id="zoomplus" xlink:href="#zoomPlus" x="17" y="9" onmousedown="handleZoom(evt,'in')"/>
  <use id="zoomminus" xlink:href="#zoomMin" x="42" y="9" onmousedown="handleZoom(evt,'out')"/>
  <use id="reset" xlink:href="#resetDef" x="30" y="36" onmousedown="handleReset()"/>
   <use id="arrowup" xlink:href="#arrowUp" x="0" y="0" onmousedown="handlePan(0,-1)"/>
  <use id="arrowright" xlink:href="#arrowRight" x="0" y="0" onmousedown="handlePan(1,0)"/>
  <use id="arrowdown" xlink:href="#arrowDown" x="0" y="0" onmousedown="handlePan(0,1)"/>
  <use id="arrowleft" xlink:href="#arrowLeft" x="0" y="0" onmousedown="handlePan(-1,0)"/>
</g>
<svg viewBox="0 0 15 15" width="100%" height="30px" preserveAspectRatio="xMaxYMin meet">
 <g id="arrow_out" transform="scale(0.3 0.3)">
  <a xlink:href="structdBgS__PolyPassChk__inherit__graph_org.svg" target="_base">
   <rect id="button" ry="5" rx="5" y="6" x="6" height="38" width="38"
        fill="#f2f5e9" fill-opacity="0.5" stroke="#606060" stroke-width="1.0"/>
   <path id="arrow"
     d="M 11.500037,31.436501 C 11.940474,20.09759 22.043105,11.32322 32.158766,21.979434 L 37.068811,17.246167 C 37.068811,17.246167 37.088388,32 37.088388,32 L 22.160133,31.978069 C 22.160133,31.978069 26.997745,27.140456 26.997745,27.140456 C 18.528582,18.264221 13.291696,25.230495 11.500037,31.436501 z"
     style="fill:#404040;"/>
  </a>
 </g>
</svg>

<style type='text/css'>
<![CDATA[
[data-mouse-over-selected='false'] { opacity: 0.7; }
[data-mouse-over-selected='true']  { opacity: 1.0; }
]]>
</style>
<script type="application/ecmascript"><![CDATA[
document.addEventListener('DOMContentLoaded', (event) => {
  highlightEdges();
  highlightAdjacentNodes();
});
]]></script>
</svg>
