<?xml version="1.0" encoding="UTF-8" standalone="no"?>
<!DOCTYPE svg PUBLIC "-//W3C//DTD SVG 1.1//EN"
 "http://www.w3.org/Graphics/SVG/1.1/DTD/svg11.dtd">
<!-- Generated by graphviz version 9.0.0 (20230911.1827)
 -->
<!-- Title: JAISeqDataMgr Pages: 1 -->
<svg width="272pt" height="83pt"
 viewBox="0.00 0.00 272.25 82.50" xmlns="http://www.w3.org/2000/svg" xmlns:xlink="http://www.w3.org/1999/xlink">
<g id="graph0" class="graph" transform="scale(1 1) rotate(0) translate(4 78.5)">
<title>JAISeqDataMgr</title>
<!-- Node1 -->
<g id="Node000001" class="node">
<title>Node1</title>
<g id="a_Node000001"><a xlink:title=" ">
<polygon fill="#999999" stroke="#666666" points="158.38,-74.5 73.38,-74.5 73.38,-55.25 158.38,-55.25 158.38,-74.5"/>
<text text-anchor="middle" x="115.88" y="-61" font-family="Helvetica,sans-Serif" font-size="10.00">JAISeqDataMgr</text>
</a>
</g>
</g>
<!-- Node2 -->
<g id="Node000002" class="node">
<title>Node2</title>
<g id="a_Node000002"><a xlink:href="classJAUSectionHeap.html" target="_top" xlink:title=" ">
<polygon fill="white" stroke="#666666" points="91.75,-19.25 0,-19.25 0,0 91.75,0 91.75,-19.25"/>
<text text-anchor="middle" x="45.88" y="-5.75" font-family="Helvetica,sans-Serif" font-size="10.00">JAUSectionHeap</text>
</a>
</g>
</g>
<!-- Node1&#45;&gt;Node2 -->
<g id="edge1_Node000001_Node000002" class="edge">
<title>Node1&#45;&gt;Node2</title>
<g id="a_edge1_Node000001_Node000002"><a xlink:title=" ">
<path fill="none" stroke="#63b8ff" d="M94.93,-47.94C82.7,-38.64 67.74,-27.26 57.57,-19.52"/>
<polygon fill="#63b8ff" stroke="#63b8ff" points="92.72,-50.66 102.8,-53.93 96.96,-45.09 92.72,-50.66"/>
</a>
</g>
</g>
<!-- Node3 -->
<g id="Node000003" class="node">
<title>Node3</title>
<g id="a_Node000003"><a xlink:href="classJAUSeqDataMgr__SeqCollection.html" target="_top" xlink:title=" ">
<polygon fill="white" stroke="#666666" points="264.25,-19.25 109.5,-19.25 109.5,0 264.25,0 264.25,-19.25"/>
<text text-anchor="middle" x="186.88" y="-5.75" font-family="Helvetica,sans-Serif" font-size="10.00">JAUSeqDataMgr_SeqCollection</text>
</a>
</g>
</g>
<!-- Node1&#45;&gt;Node3 -->
<g id="edge2_Node000001_Node000003" class="edge">
<title>Node1&#45;&gt;Node3</title>
<g id="a_edge2_Node000001_Node000003"><a xlink:title=" ">
<path fill="none" stroke="#63b8ff" d="M137.12,-47.94C149.52,-38.64 164.7,-27.26 175.01,-19.52"/>
<polygon fill="#63b8ff" stroke="#63b8ff" points="135.03,-45.13 129.13,-53.93 139.23,-50.73 135.03,-45.13"/>
</a>
</g>
</g>
</g>
</svg>
