<?xml version="1.0" encoding="UTF-8" standalone="no"?>
<!DOCTYPE svg PUBLIC "-//W3C//DTD SVG 1.1//EN"
 "http://www.w3.org/Graphics/SVG/1.1/DTD/svg11.dtd">
<!-- Generated by graphviz version 9.0.0 (20230911.1827)
 -->
<!-- Title: JASSimpleWaveBank Pages: 1 -->
<svg width="182pt" height="138pt"
 viewBox="0.00 0.00 182.25 137.75" xmlns="http://www.w3.org/2000/svg" xmlns:xlink="http://www.w3.org/1999/xlink">

<svg id="main" version="1.1" xmlns="http://www.w3.org/2000/svg" xmlns:xlink="http://www.w3.org/1999/xlink" xml:space="preserve" onload="init(evt)">
<style type="text/css"><![CDATA[
.node, .edge {opacity: 0.7;}
.node.selected, .edge.selected {opacity: 1;}
.edge:hover path { stroke: red; }
.edge:hover polygon { stroke: red; fill: red; }
]]></style>
<script type="application/ecmascript" xlink:href="svg.min.js"/>
<svg id="graph" class="graph">
<g id="graph0" class="graph" transform="scale(1 1) rotate(0) translate(4 133.75)">
<title>JASSimpleWaveBank</title>
<!-- Node1 -->
<g id="Node000001" class="node">
<title>Node1</title>
<g id="a_Node000001"><a xlink:title=" ">
<polygon fill="#999999" stroke="#666666" points="145,-19.25 33,-19.25 33,0 145,0 145,-19.25"/>
<text text-anchor="middle" x="89" y="-5.75" font-family="Helvetica,sans-Serif" font-size="10.00">JASSimpleWaveBank</text>
</a>
</g>
</g>
<!-- Node2 -->
<g id="Node000002" class="node">
<title>Node2</title>
<g id="a_Node000002"><a xlink:href="classJASWaveBank.html" target="_top" xlink:title=" ">
<polygon fill="white" stroke="#666666" points="82,-74.5 0,-74.5 0,-55.25 82,-55.25 82,-74.5"/>
<text text-anchor="middle" x="41" y="-61" font-family="Helvetica,sans-Serif" font-size="10.00">JASWaveBank</text>
</a>
</g>
</g>
<!-- Node2&#45;&gt;Node1 -->
<g id="edge1_Node000001_Node000002" class="edge">
<title>Node2&#45;&gt;Node1</title>
<g id="a_edge1_Node000001_Node000002"><a xlink:title=" ">
<path fill="none" stroke="#63b8ff" d="M56.4,-46.79C64.55,-37.75 74.22,-27.02 80.9,-19.61"/>
<polygon fill="#63b8ff" stroke="#63b8ff" points="54.04,-44.19 49.94,-53.96 59.23,-48.87 54.04,-44.19"/>
</a>
</g>
</g>
<!-- Node3 -->
<g id="Node000003" class="node">
<title>Node3</title>
<g id="a_Node000003"><a xlink:href="structJASWaveArc.html" target="_top" xlink:title=" ">
<polygon fill="white" stroke="#666666" points="174.25,-74.5 99.75,-74.5 99.75,-55.25 174.25,-55.25 174.25,-74.5"/>
<text text-anchor="middle" x="137" y="-61" font-family="Helvetica,sans-Serif" font-size="10.00">JASWaveArc</text>
</a>
</g>
</g>
<!-- Node3&#45;&gt;Node1 -->
<g id="edge2_Node000001_Node000003" class="edge">
<title>Node3&#45;&gt;Node1</title>
<g id="a_edge2_Node000001_Node000003"><a xlink:title=" ">
<path fill="none" stroke="#63b8ff" d="M121.6,-46.79C113.45,-37.75 103.78,-27.02 97.1,-19.61"/>
<polygon fill="#63b8ff" stroke="#63b8ff" points="118.77,-48.87 128.06,-53.96 123.96,-44.19 118.77,-48.87"/>
</a>
</g>
</g>
<!-- Node4 -->
<g id="Node000004" class="node">
<title>Node4</title>
<g id="a_Node000004"><a xlink:href="structJASDisposer.html" target="_top" xlink:title=" ">
<polygon fill="white" stroke="#666666" points="173.5,-129.75 100.5,-129.75 100.5,-110.5 173.5,-110.5 173.5,-129.75"/>
<text text-anchor="middle" x="137" y="-116.25" font-family="Helvetica,sans-Serif" font-size="10.00">JASDisposer</text>
</a>
</g>
</g>
<!-- Node4&#45;&gt;Node3 -->
<g id="edge3_Node000003_Node000004" class="edge">
<title>Node4&#45;&gt;Node3</title>
<g id="a_edge3_Node000003_Node000004"><a xlink:title=" ">
<path fill="none" stroke="#63b8ff" d="M137,-98.88C137,-90.59 137,-81.42 137,-74.86"/>
<polygon fill="#63b8ff" stroke="#63b8ff" points="133.5,-98.82 137,-108.82 140.5,-98.82 133.5,-98.82"/>
</a>
</g>
</g>
</g>
</svg>
</svg>

<style type='text/css'>
<![CDATA[
[data-mouse-over-selected='false'] { opacity: 0.7; }
[data-mouse-over-selected='true']  { opacity: 1.0; }
]]>
</style>
<script type="application/ecmascript"><![CDATA[
document.addEventListener('DOMContentLoaded', (event) => {
  highlightEdges();
  highlightAdjacentNodes();
});
]]></script>
</svg>
