<?xml version="1.0" encoding="UTF-8" standalone="no"?>
<!DOCTYPE svg PUBLIC "-//W3C//DTD SVG 1.1//EN"
 "http://www.w3.org/Graphics/SVG/1.1/DTD/svg11.dtd">
<!-- Generated by graphviz version 9.0.0 (20230911.1827)
 -->
<!-- Title: Z2Creature Pages: 1 -->
<svg width="325pt" height="212pt"
 viewBox="0.00 0.00 325.25 212.25" xmlns="http://www.w3.org/2000/svg" xmlns:xlink="http://www.w3.org/1999/xlink">
<g id="graph0" class="graph" transform="scale(1 1) rotate(0) translate(4 208.25)">
<title>Z2Creature</title>
<!-- Node1 -->
<g id="Node000001" class="node">
<title>Node1</title>
<g id="a_Node000001"><a xlink:title=" ">
<polygon fill="#999999" stroke="#666666" points="64,-111.25 0,-111.25 0,-92 64,-92 64,-111.25"/>
<text text-anchor="middle" x="32" y="-97.75" font-family="Helvetica,sans-Serif" font-size="10.00">Z2Creature</text>
</a>
</g>
</g>
<!-- Node2 -->
<g id="Node000002" class="node">
<title>Node2</title>
<g id="a_Node000002"><a xlink:href="structZ2CreatureCitizen.html" target="_top" xlink:title=" ">
<polygon fill="white" stroke="#666666" points="198.12,-204.25 104.88,-204.25 104.88,-185 198.12,-185 198.12,-204.25"/>
<text text-anchor="middle" x="151.5" y="-190.75" font-family="Helvetica,sans-Serif" font-size="10.00">Z2CreatureCitizen</text>
</a>
</g>
</g>
<!-- Node1&#45;&gt;Node2 -->
<g id="edge1_Node000001_Node000002" class="edge">
<title>Node1&#45;&gt;Node2</title>
<g id="a_edge1_Node000001_Node000002"><a xlink:title=" ">
<path fill="none" stroke="#63b8ff" d="M46,-120.97C58.18,-137.78 77.8,-161.7 100,-176.62 104.63,-179.74 109.87,-182.39 115.17,-184.61"/>
<polygon fill="#63b8ff" stroke="#63b8ff" points="48.89,-119 40.29,-112.81 43.15,-123.01 48.89,-119"/>
</a>
</g>
</g>
<!-- Node3 -->
<g id="Node000003" class="node">
<title>Node3</title>
<g id="a_Node000003"><a xlink:href="classZ2CreatureEnemy.html" target="_top" xlink:title=" ">
<polygon fill="white" stroke="#666666" points="198.12,-167.25 104.88,-167.25 104.88,-148 198.12,-148 198.12,-167.25"/>
<text text-anchor="middle" x="151.5" y="-153.75" font-family="Helvetica,sans-Serif" font-size="10.00">Z2CreatureEnemy</text>
</a>
</g>
</g>
<!-- Node1&#45;&gt;Node3 -->
<g id="edge2_Node000001_Node000003" class="edge">
<title>Node1&#45;&gt;Node3</title>
<g id="a_edge2_Node000001_Node000003"><a xlink:title=" ">
<path fill="none" stroke="#63b8ff" d="M58.41,-117.42C70.71,-124.7 85.85,-133.15 100,-139.62 106.18,-142.45 112.94,-145.13 119.45,-147.52"/>
<polygon fill="#63b8ff" stroke="#63b8ff" points="60.5,-114.59 50.13,-112.43 56.89,-120.59 60.5,-114.59"/>
</a>
</g>
</g>
<!-- Node6 -->
<g id="Node000006" class="node">
<title>Node6</title>
<g id="a_Node000006"><a xlink:href="classZ2CreatureGob.html" target="_top" xlink:title=" ">
<polygon fill="white" stroke="#666666" points="192.5,-130.25 110.5,-130.25 110.5,-111 192.5,-111 192.5,-130.25"/>
<text text-anchor="middle" x="151.5" y="-116.75" font-family="Helvetica,sans-Serif" font-size="10.00">Z2CreatureGob</text>
</a>
</g>
</g>
<!-- Node1&#45;&gt;Node6 -->
<g id="edge5_Node000001_Node000006" class="edge">
<title>Node1&#45;&gt;Node6</title>
<g id="a_edge5_Node000001_Node000006"><a xlink:title=" ">
<path fill="none" stroke="#63b8ff" d="M75.77,-108.54C86.96,-110.35 98.99,-112.3 110.06,-114.09"/>
<polygon fill="#63b8ff" stroke="#63b8ff" points="76.41,-105.1 65.98,-106.96 75.3,-112.01 76.41,-105.1"/>
</a>
</g>
</g>
<!-- Node7 -->
<g id="Node000007" class="node">
<title>Node7</title>
<g id="a_Node000007"><a xlink:href="classZ2CreatureLink.html" target="_top" xlink:title=" ">
<polygon fill="white" stroke="#666666" points="192.88,-93.25 110.12,-93.25 110.12,-74 192.88,-74 192.88,-93.25"/>
<text text-anchor="middle" x="151.5" y="-79.75" font-family="Helvetica,sans-Serif" font-size="10.00">Z2CreatureLink</text>
</a>
</g>
</g>
<!-- Node1&#45;&gt;Node7 -->
<g id="edge6_Node000001_Node000007" class="edge">
<title>Node1&#45;&gt;Node7</title>
<g id="a_edge6_Node000001_Node000007"><a xlink:title=" ">
<path fill="none" stroke="#63b8ff" d="M75.66,-95.09C86.74,-93.39 98.64,-91.57 109.63,-89.89"/>
<polygon fill="#63b8ff" stroke="#63b8ff" points="75.34,-91.6 65.98,-96.57 76.4,-98.52 75.34,-91.6"/>
</a>
</g>
</g>
<!-- Node8 -->
<g id="Node000008" class="node">
<title>Node8</title>
<g id="a_Node000008"><a xlink:href="classZ2CreatureRide.html" target="_top" xlink:title=" ">
<polygon fill="white" stroke="#666666" points="193.25,-56.25 109.75,-56.25 109.75,-37 193.25,-37 193.25,-56.25"/>
<text text-anchor="middle" x="151.5" y="-42.75" font-family="Helvetica,sans-Serif" font-size="10.00">Z2CreatureRide</text>
</a>
</g>
</g>
<!-- Node1&#45;&gt;Node8 -->
<g id="edge7_Node000001_Node000008" class="edge">
<title>Node1&#45;&gt;Node8</title>
<g id="a_edge7_Node000001_Node000008"><a xlink:title=" ">
<path fill="none" stroke="#63b8ff" d="M59.32,-85.79C71.47,-78.83 86.23,-70.83 100,-64.62 106.28,-61.79 113.15,-59.1 119.74,-56.69"/>
<polygon fill="#63b8ff" stroke="#63b8ff" points="57.59,-82.75 50.72,-90.82 61.12,-88.8 57.59,-82.75"/>
</a>
</g>
</g>
<!-- Node9 -->
<g id="Node000009" class="node">
<title>Node9</title>
<g id="a_Node000009"><a xlink:href="classZ2CreatureSumomo.html" target="_top" xlink:title=" ">
<polygon fill="white" stroke="#666666" points="203,-19.25 100,-19.25 100,0 203,0 203,-19.25"/>
<text text-anchor="middle" x="151.5" y="-5.75" font-family="Helvetica,sans-Serif" font-size="10.00">Z2CreatureSumomo</text>
</a>
</g>
</g>
<!-- Node1&#45;&gt;Node9 -->
<g id="edge8_Node000001_Node000009" class="edge">
<title>Node1&#45;&gt;Node9</title>
<g id="a_edge8_Node000001_Node000009"><a xlink:title=" ">
<path fill="none" stroke="#63b8ff" d="M46.25,-82.27C58.48,-65.71 78.04,-42.29 100,-27.62 104.64,-24.52 109.89,-21.89 115.19,-19.67"/>
<polygon fill="#63b8ff" stroke="#63b8ff" points="43.46,-80.15 40.5,-90.33 49.16,-84.22 43.46,-80.15"/>
</a>
</g>
</g>
<!-- Node4 -->
<g id="Node000004" class="node">
<title>Node4</title>
<g id="a_Node000004"><a xlink:href="classZ2CreatureFM.html" target="_top" xlink:title=" ">
<polygon fill="white" stroke="#666666" points="317.25,-185.25 239,-185.25 239,-166 317.25,-166 317.25,-185.25"/>
<text text-anchor="middle" x="278.12" y="-171.75" font-family="Helvetica,sans-Serif" font-size="10.00">Z2CreatureFM</text>
</a>
</g>
</g>
<!-- Node3&#45;&gt;Node4 -->
<g id="edge3_Node000003_Node000004" class="edge">
<title>Node3&#45;&gt;Node4</title>
<g id="a_edge3_Node000003_Node000004"><a xlink:title=" ">
<path fill="none" stroke="#63b8ff" d="M209.86,-165.91C219.6,-167.32 229.51,-168.75 238.61,-170.06"/>
<polygon fill="#63b8ff" stroke="#63b8ff" points="210.45,-162.46 200.05,-164.49 209.45,-169.39 210.45,-162.46"/>
</a>
</g>
</g>
<!-- Node5 -->
<g id="Node000005" class="node">
<title>Node5</title>
<g id="a_Node000005"><a xlink:href="classZ2CreatureOI.html" target="_top" xlink:title=" ">
<polygon fill="white" stroke="#666666" points="315.38,-148.25 240.88,-148.25 240.88,-129 315.38,-129 315.38,-148.25"/>
<text text-anchor="middle" x="278.12" y="-134.75" font-family="Helvetica,sans-Serif" font-size="10.00">Z2CreatureOI</text>
</a>
</g>
</g>
<!-- Node3&#45;&gt;Node5 -->
<g id="edge4_Node000003_Node000005" class="edge">
<title>Node3&#45;&gt;Node5</title>
<g id="a_edge4_Node000003_Node000005"><a xlink:title=" ">
<path fill="none" stroke="#63b8ff" d="M209.79,-148.89C220.27,-147.29 230.94,-145.67 240.6,-144.19"/>
<polygon fill="#63b8ff" stroke="#63b8ff" points="209.41,-145.41 200.05,-150.38 210.46,-152.33 209.41,-145.41"/>
</a>
</g>
</g>
</g>
</svg>
