<?xml version="1.0" encoding="UTF-8" standalone="no"?>
<!DOCTYPE svg PUBLIC "-//W3C//DTD SVG 1.1//EN"
 "http://www.w3.org/Graphics/SVG/1.1/DTD/svg11.dtd">
<!-- Generated by graphviz version 9.0.0 (20230911.1827)
 -->
<!-- Title: J3DTevColorAnm Pages: 1 -->
<svg width="488pt" height="338pt"
 viewBox="0.00 0.00 488.25 338.25" xmlns="http://www.w3.org/2000/svg" xmlns:xlink="http://www.w3.org/1999/xlink">

<svg id="main" version="1.1" xmlns="http://www.w3.org/2000/svg" xmlns:xlink="http://www.w3.org/1999/xlink" xml:space="preserve" onload="init(evt)">
<style type="text/css"><![CDATA[
.node, .edge {opacity: 0.7;}
.node.selected, .edge.selected {opacity: 1;}
.edge:hover path { stroke: red; }
.edge:hover polygon { stroke: red; fill: red; }
]]></style>
<script type="application/ecmascript" xlink:href="svg.min.js"/>
<svg id="graph" class="graph">
<g id="graph0" class="graph" transform="scale(1 1) rotate(0) translate(4 334.25)">
<title>J3DTevColorAnm</title>
<!-- Node1 -->
<g id="Node000001" class="node">
<title>Node1</title>
<g id="a_Node000001"><a xlink:title=" ">
<polygon fill="#999999" stroke="#666666" points="241.25,-19.25 148.75,-19.25 148.75,0 241.25,0 241.25,-19.25"/>
<text text-anchor="middle" x="195" y="-5.75" font-family="Helvetica,sans-Serif" font-size="10.00">J3DTevColorAnm</text>
</a>
</g>
</g>
<!-- Node2 -->
<g id="Node000002" class="node">
<title>Node2</title>
<g id="a_Node000002"><a xlink:href="structJ3DAnmTevRegKey.html" target="_top" xlink:title=" ">
<polygon fill="white" stroke="#666666" points="246.88,-85.75 143.12,-85.75 143.12,-66.5 246.88,-66.5 246.88,-85.75"/>
<text text-anchor="middle" x="195" y="-72.25" font-family="Helvetica,sans-Serif" font-size="10.00">J3DAnmTevRegKey</text>
</a>
</g>
</g>
<!-- Node2&#45;&gt;Node1 -->
<g id="edge1_Node000001_Node000002" class="edge">
<title>Node2&#45;&gt;Node1</title>
<g id="a_edge1_Node000001_Node000002"><a xlink:title=" ">
<path fill="none" stroke="#9a32cd" stroke-dasharray="5,2" d="M195,-54.65C195,-42.82 195,-28.54 195,-19.52"/>
<polygon fill="#9a32cd" stroke="#9a32cd" points="191.5,-54.64 195,-64.64 198.5,-54.64 191.5,-54.64"/>
</a>
</g>
<text text-anchor="middle" x="227.25" y="-39" font-family="Helvetica,sans-Serif" font-size="10.00" fill="grey"> mAnmTevReg</text>
</g>
<!-- Node3 -->
<g id="Node000003" class="node">
<title>Node3</title>
<g id="a_Node000003"><a xlink:href="classJ3DAnmBase.html" target="_top" xlink:title=" ">
<polygon fill="white" stroke="#666666" points="76,-163.5 0,-163.5 0,-144.25 76,-144.25 76,-163.5"/>
<text text-anchor="middle" x="38" y="-150" font-family="Helvetica,sans-Serif" font-size="10.00">J3DAnmBase</text>
</a>
</g>
</g>
<!-- Node3&#45;&gt;Node2 -->
<g id="edge2_Node000002_Node000003" class="edge">
<title>Node3&#45;&gt;Node2</title>
<g id="a_edge2_Node000002_Node000003"><a xlink:title=" ">
<path fill="none" stroke="#63b8ff" d="M59.05,-137.17C73.84,-126.67 94.42,-113.1 114,-103.75 128.96,-96.6 146.33,-90.61 161.15,-86.14"/>
<polygon fill="#63b8ff" stroke="#63b8ff" points="57.08,-134.28 51.03,-142.98 61.19,-139.94 57.08,-134.28"/>
</a>
</g>
</g>
<!-- Node4 -->
<g id="Node000004" class="node">
<title>Node4</title>
<g id="a_Node000004"><a xlink:href="structJUTNameTab.html" target="_top" xlink:title=" ">
<polygon fill="white" stroke="#666666" points="171.75,-163.5 94.25,-163.5 94.25,-144.25 171.75,-144.25 171.75,-163.5"/>
<text text-anchor="middle" x="133" y="-150" font-family="Helvetica,sans-Serif" font-size="10.00">JUTNameTab</text>
</a>
</g>
</g>
<!-- Node4&#45;&gt;Node2 -->
<g id="edge3_Node000002_Node000004" class="edge">
<title>Node4&#45;&gt;Node2</title>
<g id="a_edge3_Node000002_Node000004"><a xlink:title=" ">
<path fill="none" stroke="#9a32cd" stroke-dasharray="5,2" d="M121.82,-134.14C117.54,-124.36 115.03,-112.61 121.25,-103.75 126.88,-95.73 135.18,-90.11 144.2,-86.19"/>
<polygon fill="#9a32cd" stroke="#9a32cd" points="118.58,-135.51 126.31,-142.76 124.79,-132.27 118.58,-135.51"/>
</a>
</g>
<text text-anchor="middle" x="185.38" y="-116.75" font-family="Helvetica,sans-Serif" font-size="10.00" fill="grey"> mCRegUpdateMaterialName</text>
<text text-anchor="middle" x="185.38" y="-105.5" font-family="Helvetica,sans-Serif" font-size="10.00" fill="grey">mKRegUpdateMaterialName</text>
</g>
<!-- Node5 -->
<g id="Node000005" class="node">
<title>Node5</title>
<g id="a_Node000005"><a xlink:href="structResNTAB.html" target="_top" xlink:title=" ">
<polygon fill="white" stroke="#666666" points="163.12,-263.75 102.88,-263.75 102.88,-244.5 163.12,-244.5 163.12,-263.75"/>
<text text-anchor="middle" x="133" y="-250.25" font-family="Helvetica,sans-Serif" font-size="10.00">ResNTAB</text>
</a>
</g>
</g>
<!-- Node5&#45;&gt;Node4 -->
<g id="edge4_Node000004_Node000005" class="edge">
<title>Node5&#45;&gt;Node4</title>
<g id="a_edge4_Node000004_Node000005"><a xlink:title=" ">
<path fill="none" stroke="#9a32cd" stroke-dasharray="5,2" d="M133,-232.82C133,-211.67 133,-179.48 133,-163.92"/>
<polygon fill="#9a32cd" stroke="#9a32cd" points="129.5,-232.54 133,-242.54 136.5,-232.54 129.5,-232.54"/>
</a>
</g>
<text text-anchor="middle" x="163.38" y="-200.12" font-family="Helvetica,sans-Serif" font-size="10.00" fill="grey"> mNameTable</text>
</g>
<!-- Node6 -->
<g id="Node000006" class="node">
<title>Node6</title>
<g id="a_Node000006"><a xlink:href="structResNTAB_1_1Entry.html" target="_top" xlink:title=" ">
<polygon fill="white" stroke="#666666" points="176.25,-330.25 89.75,-330.25 89.75,-311 176.25,-311 176.25,-330.25"/>
<text text-anchor="middle" x="133" y="-316.75" font-family="Helvetica,sans-Serif" font-size="10.00">ResNTAB::Entry</text>
</a>
</g>
</g>
<!-- Node6&#45;&gt;Node5 -->
<g id="edge5_Node000005_Node000006" class="edge">
<title>Node6&#45;&gt;Node5</title>
<g id="a_edge5_Node000005_Node000006"><a xlink:title=" ">
<path fill="none" stroke="#9a32cd" stroke-dasharray="5,2" d="M133,-299.15C133,-287.32 133,-273.04 133,-264.02"/>
<polygon fill="#9a32cd" stroke="#9a32cd" points="129.5,-299.14 133,-309.14 136.5,-299.14 129.5,-299.14"/>
</a>
</g>
<text text-anchor="middle" x="153.25" y="-283.5" font-family="Helvetica,sans-Serif" font-size="10.00" fill="grey"> mEntries</text>
</g>
<!-- Node7 -->
<g id="Node000007" class="node">
<title>Node7</title>
<g id="a_Node000007"><a xlink:href="structJ3DAnmCRegKeyTable.html" target="_top" xlink:title=" ">
<polygon fill="white" stroke="#666666" points="325,-163.5 207,-163.5 207,-144.25 325,-144.25 325,-163.5"/>
<text text-anchor="middle" x="266" y="-150" font-family="Helvetica,sans-Serif" font-size="10.00">J3DAnmCRegKeyTable</text>
</a>
</g>
</g>
<!-- Node7&#45;&gt;Node2 -->
<g id="edge6_Node000002_Node000007" class="edge">
<title>Node7&#45;&gt;Node2</title>
<g id="a_edge6_Node000002_Node000007"><a xlink:title=" ">
<path fill="none" stroke="#9a32cd" stroke-dasharray="5,2" d="M262.27,-132.79C259.63,-123.1 255.23,-111.85 248,-103.75 241.15,-96.06 231.56,-90.32 222.42,-86.17"/>
<polygon fill="#9a32cd" stroke="#9a32cd" points="258.82,-133.4 264.42,-142.39 265.65,-131.87 258.82,-133.4"/>
</a>
</g>
<text text-anchor="middle" x="308.62" y="-111.12" font-family="Helvetica,sans-Serif" font-size="10.00" fill="grey"> mAnmCRegKeyTable</text>
</g>
<!-- Node8 -->
<g id="Node000008" class="node">
<title>Node8</title>
<g id="a_Node000008"><a xlink:href="structJ3DAnmKeyTableBase.html" target="_top" xlink:title=" ">
<polygon fill="white" stroke="#666666" points="374.25,-263.75 257.75,-263.75 257.75,-244.5 374.25,-244.5 374.25,-263.75"/>
<text text-anchor="middle" x="316" y="-250.25" font-family="Helvetica,sans-Serif" font-size="10.00">J3DAnmKeyTableBase</text>
</a>
</g>
</g>
<!-- Node8&#45;&gt;Node7 -->
<g id="edge7_Node000007_Node000008" class="edge">
<title>Node8&#45;&gt;Node7</title>
<g id="a_edge7_Node000007_Node000008"><a xlink:title=" ">
<path fill="none" stroke="#9a32cd" stroke-dasharray="5,2" d="M306.27,-234C295.52,-212.88 278.67,-179.77 270.6,-163.92"/>
<polygon fill="#9a32cd" stroke="#9a32cd" points="303.04,-235.38 310.7,-242.71 309.28,-232.21 303.04,-235.38"/>
</a>
</g>
<text text-anchor="middle" x="322.62" y="-217" font-family="Helvetica,sans-Serif" font-size="10.00" fill="grey"> mATable</text>
<text text-anchor="middle" x="322.62" y="-205.75" font-family="Helvetica,sans-Serif" font-size="10.00" fill="grey">mBTable</text>
<text text-anchor="middle" x="322.62" y="-194.5" font-family="Helvetica,sans-Serif" font-size="10.00" fill="grey">mGTable</text>
<text text-anchor="middle" x="322.62" y="-183.25" font-family="Helvetica,sans-Serif" font-size="10.00" fill="grey">mRTable</text>
</g>
<!-- Node9 -->
<g id="Node000009" class="node">
<title>Node9</title>
<g id="a_Node000009"><a xlink:href="structJ3DAnmKRegKeyTable.html" target="_top" xlink:title=" ">
<polygon fill="white" stroke="#666666" points="461,-163.5 343,-163.5 343,-144.25 461,-144.25 461,-163.5"/>
<text text-anchor="middle" x="402" y="-150" font-family="Helvetica,sans-Serif" font-size="10.00">J3DAnmKRegKeyTable</text>
</a>
</g>
</g>
<!-- Node8&#45;&gt;Node9 -->
<g id="edge9_Node000009_Node000008" class="edge">
<title>Node8&#45;&gt;Node9</title>
<g id="a_edge9_Node000009_Node000008"><a xlink:title=" ">
<path fill="none" stroke="#9a32cd" stroke-dasharray="5,2" d="M336.44,-236.62C340.08,-233.39 343.75,-229.94 347,-226.5 366.83,-205.55 386.57,-177.71 396.1,-163.71"/>
<polygon fill="#9a32cd" stroke="#9a32cd" points="334.21,-233.92 328.85,-243.06 338.74,-239.26 334.21,-233.92"/>
</a>
</g>
<text text-anchor="middle" x="403.62" y="-217" font-family="Helvetica,sans-Serif" font-size="10.00" fill="grey"> mATable</text>
<text text-anchor="middle" x="403.62" y="-205.75" font-family="Helvetica,sans-Serif" font-size="10.00" fill="grey">mBTable</text>
<text text-anchor="middle" x="403.62" y="-194.5" font-family="Helvetica,sans-Serif" font-size="10.00" fill="grey">mGTable</text>
<text text-anchor="middle" x="403.62" y="-183.25" font-family="Helvetica,sans-Serif" font-size="10.00" fill="grey">mRTable</text>
</g>
<!-- Node9&#45;&gt;Node2 -->
<g id="edge8_Node000002_Node000009" class="edge">
<title>Node9&#45;&gt;Node2</title>
<g id="a_edge8_Node000002_Node000009"><a xlink:title=" ">
<path fill="none" stroke="#9a32cd" stroke-dasharray="5,2" d="M391.05,-134.53C383.65,-123.81 372.9,-110.99 360,-103.75 341.09,-93.13 287.99,-85.83 247.09,-81.6"/>
<polygon fill="#9a32cd" stroke="#9a32cd" points="387.91,-136.12 396.26,-142.65 393.8,-132.34 387.91,-136.12"/>
</a>
</g>
<text text-anchor="middle" x="432.62" y="-111.12" font-family="Helvetica,sans-Serif" font-size="10.00" fill="grey"> mAnmKRegKeyTable</text>
</g>
</g>
</svg>
</svg>

<style type='text/css'>
<![CDATA[
[data-mouse-over-selected='false'] { opacity: 0.7; }
[data-mouse-over-selected='true']  { opacity: 1.0; }
]]>
</style>
<script type="application/ecmascript"><![CDATA[
document.addEventListener('DOMContentLoaded', (event) => {
  highlightEdges();
  highlightAdjacentNodes();
});
]]></script>
</svg>
