<?xml version="1.0" encoding="UTF-8" standalone="no"?>
<!DOCTYPE svg PUBLIC "-//W3C//DTD SVG 1.1//EN"
 "http://www.w3.org/Graphics/SVG/1.1/DTD/svg11.dtd">
<!-- Generated by graphviz version 9.0.0 (20230911.1827)
 -->
<!-- Title: dSv_info_c Pages: 1 -->
<!--zoomable 829 -->

<svg id="main" version="1.1" xmlns="http://www.w3.org/2000/svg" xmlns:xlink="http://www.w3.org/1999/xlink" xml:space="preserve" onload="init(evt)">
<style type="text/css"><![CDATA[
.node, .edge {opacity: 0.7;}
.node.selected, .edge.selected {opacity: 1;}
.edge:hover path { stroke: red; }
.edge:hover polygon { stroke: red; fill: red; }
]]></style>

<defs>
  <circle id="rim" cx="0" cy="0" r="7"/>
  <circle id="rim2" cx="0" cy="0" r="3.5"/>
  <g id="zoomPlus">
    <use xlink:href="#rim" fill="#404040"><set attributeName="fill" to="#808080" begin="zoomplus.mouseover" end="zoomplus.mouseout"/></use>
    <path d="M-4,0h8M0,-4v8" fill="none" stroke="white" stroke-width="1.5" pointer-events="none"/>
  </g>
  <g id="zoomMin">
    <use xlink:href="#rim" fill="#404040"><set attributeName="fill" to="#808080" begin="zoomminus.mouseover" end="zoomminus.mouseout"/></use>
    <path d="M-4,0h8" fill="none" stroke="white" stroke-width="1.5" pointer-events="none"/>
  </g>
  <g id="arrowUp" transform="translate(30 24)">
    <use xlink:href="#rim"/>
    <path pointer-events="none" fill="none" stroke="white" stroke-width="1.5" d="M0,-3.0v7 M-2.5,-0.5L0,-3.0L2.5,-0.5"/>
  </g>
  <g id="arrowRight" transform="rotate(90) translate(36 -43)">
    <use xlink:href="#rim"/>
    <path pointer-events="none" fill="none" stroke="white" stroke-width="1.5" d="M0,-3.0v7 M-2.5,-0.5L0,-3.0L2.5,-0.5"/>
  </g>
  <g id="arrowDown" transform="rotate(180) translate(-30 -48)">
    <use xlink:href="#rim"/>
    <path pointer-events="none" fill="none" stroke="white" stroke-width="1.5" d="M0,-3.0v7 M-2.5,-0.5L0,-3.0L2.5,-0.5"/>
  </g>
  <g id="arrowLeft" transform="rotate(270) translate(-36 17)">
    <use xlink:href="#rim"/>
    <path pointer-events="none" fill="none" stroke="white" stroke-width="1.5" d="M0,-3.0v7 M-2.5,-0.5L0,-3.0L2.5,-0.5"/>
  </g>
  <g id="resetDef">
    <use xlink:href="#rim2" fill="#404040"><set attributeName="fill" to="#808080" begin="reset.mouseover" end="reset.mouseout"/></use>
  </g>
</defs>
<script type="application/ecmascript">
var viewWidth = 964;
var viewHeight = 829;
var sectionId = 'dynsection-0';
</script>
<script type="application/ecmascript" xlink:href="svg.min.js"/>
<svg id="graph" class="graph">
<g id="viewport">
<title>dSv_info_c</title>
<!-- Node1 -->
<g id="Node000001" class="node">
<title>Node1</title>
<g id="a_Node000001"><a xlink:title=" ">
<polygon fill="#999999" stroke="#666666" points="955.5,-474.16 890.75,-474.16 890.75,-454.91 955.5,-454.91 955.5,-474.16"/>
<text text-anchor="middle" x="923.12" y="-460.66" font-family="Helvetica,sans-Serif" font-size="10.00">dSv_info_c</text>
</a>
</g>
</g>
<!-- Node2 -->
<g id="Node000002" class="node">
<title>Node2</title>
<g id="a_Node000002"><a xlink:href="classdSv__save__c.html" target="_top" xlink:title=" ">
<polygon fill="white" stroke="#666666" points="799.62,-474.16 729.62,-474.16 729.62,-454.91 799.62,-454.91 799.62,-474.16"/>
<text text-anchor="middle" x="764.62" y="-460.66" font-family="Helvetica,sans-Serif" font-size="10.00">dSv_save_c</text>
</a>
</g>
</g>
<!-- Node2&#45;&gt;Node1 -->
<g id="edge1_Node000001_Node000002" class="edge">
<title>Node2&#45;&gt;Node1</title>
<g id="a_edge1_Node000001_Node000002"><a xlink:title=" ">
<path fill="none" stroke="#9a32cd" stroke-dasharray="5,2" d="M811.18,-464.53C836.55,-464.53 867.5,-464.53 890.26,-464.53"/>
<polygon fill="#9a32cd" stroke="#9a32cd" points="811.48,-461.03 801.48,-464.53 811.48,-468.03 811.48,-461.03"/>
</a>
</g>
<text text-anchor="middle" x="846.88" y="-466.28" font-family="Helvetica,sans-Serif" font-size="10.00" fill="grey"> mSavedata</text>
</g>
<!-- Node3 -->
<g id="Node000003" class="node">
<title>Node3</title>
<g id="a_Node000003"><a xlink:href="classdSv__player__c.html" target="_top" xlink:title=" ">
<polygon fill="white" stroke="#666666" points="624.25,-381.16 549.75,-381.16 549.75,-361.91 624.25,-361.91 624.25,-381.16"/>
<text text-anchor="middle" x="587" y="-367.66" font-family="Helvetica,sans-Serif" font-size="10.00">dSv_player_c</text>
</a>
</g>
</g>
<!-- Node3&#45;&gt;Node2 -->
<g id="edge2_Node000002_Node000003" class="edge">
<title>Node3&#45;&gt;Node2</title>
<g id="a_edge2_Node000002_Node000003"><a xlink:title=" ">
<path fill="none" stroke="#9a32cd" stroke-dasharray="5,2" d="M618.21,-386.63C642.63,-398.94 677.83,-416.9 708.25,-433.28 721.08,-440.19 735.4,-448.28 746.26,-454.5"/>
<polygon fill="#9a32cd" stroke="#9a32cd" points="619.99,-383.61 609.48,-382.24 616.84,-389.86 619.99,-383.61"/>
</a>
</g>
<text text-anchor="middle" x="680.88" y="-434.28" font-family="Helvetica,sans-Serif" font-size="10.00" fill="grey"> mPlayer</text>
</g>
<!-- Node4 -->
<g id="Node000004" class="node">
<title>Node4</title>
<g id="a_Node000004"><a xlink:href="classdSv__player__status__a__c.html" target="_top" xlink:title=" ">
<polygon fill="white" stroke="#666666" points="379.88,-646.16 262.62,-646.16 262.62,-626.91 379.88,-626.91 379.88,-646.16"/>
<text text-anchor="middle" x="321.25" y="-632.66" font-family="Helvetica,sans-Serif" font-size="10.00">dSv_player_status_a_c</text>
</a>
</g>
</g>
<!-- Node4&#45;&gt;Node3 -->
<g id="edge3_Node000003_Node000004" class="edge">
<title>Node4&#45;&gt;Node3</title>
<g id="a_edge3_Node000003_Node000004"><a xlink:title=" ">
<path fill="none" stroke="#9a32cd" stroke-dasharray="5,2" d="M391.66,-636.69C441.54,-635.21 502.95,-629.6 520.5,-611.53 549.44,-581.75 521.99,-463.63 538.5,-425.53 546.25,-407.66 562.19,-391.52 573.46,-381.63"/>
<polygon fill="#9a32cd" stroke="#9a32cd" points="391.67,-633.19 381.76,-636.93 391.84,-640.18 391.67,-633.19"/>
</a>
</g>
<text text-anchor="middle" x="463.5" y="-637.28" font-family="Helvetica,sans-Serif" font-size="10.00" fill="grey"> mPlayerStatusA</text>
</g>
<!-- Node5 -->
<g id="Node000005" class="node">
<title>Node5</title>
<g id="a_Node000005"><a xlink:href="classdSv__player__status__b__c.html" target="_top" xlink:title=" ">
<polygon fill="white" stroke="#666666" points="379.88,-609.16 262.62,-609.16 262.62,-589.91 379.88,-589.91 379.88,-609.16"/>
<text text-anchor="middle" x="321.25" y="-595.66" font-family="Helvetica,sans-Serif" font-size="10.00">dSv_player_status_b_c</text>
</a>
</g>
</g>
<!-- Node5&#45;&gt;Node3 -->
<g id="edge4_Node000003_Node000005" class="edge">
<title>Node5&#45;&gt;Node3</title>
<g id="a_edge4_Node000003_Node000005"><a xlink:title=" ">
<path fill="none" stroke="#9a32cd" stroke-dasharray="5,2" d="M391.6,-598.08C441.44,-595.49 502.84,-588.58 520.5,-570.53 543.21,-547.32 525.19,-455.15 538.5,-425.53 546.59,-407.54 562.79,-391.19 574,-381.3"/>
<polygon fill="#9a32cd" stroke="#9a32cd" points="391.53,-594.58 381.7,-598.54 391.85,-601.57 391.53,-594.58"/>
</a>
</g>
<text text-anchor="middle" x="463.5" y="-598.28" font-family="Helvetica,sans-Serif" font-size="10.00" fill="grey"> mPlayerStatusB</text>
</g>
<!-- Node6 -->
<g id="Node000006" class="node">
<title>Node6</title>
<g id="a_Node000006"><a xlink:href="classdSv__horse__place__c.html" target="_top" xlink:title=" ">
<polygon fill="white" stroke="#666666" points="372,-572.16 270.5,-572.16 270.5,-552.91 372,-552.91 372,-572.16"/>
<text text-anchor="middle" x="321.25" y="-558.66" font-family="Helvetica,sans-Serif" font-size="10.00">dSv_horse_place_c</text>
</a>
</g>
</g>
<!-- Node6&#45;&gt;Node3 -->
<g id="edge5_Node000003_Node000006" class="edge">
<title>Node6&#45;&gt;Node3</title>
<g id="a_edge5_Node000003_Node000006"><a xlink:title=" ">
<path fill="none" stroke="#9a32cd" stroke-dasharray="5,2" d="M383.6,-558.6C434.55,-554.03 501.63,-544.52 520.5,-525.53 552.33,-493.5 518.87,-466.2 538.5,-425.53 547.08,-407.77 563.16,-391.36 574.22,-381.4"/>
<polygon fill="#9a32cd" stroke="#9a32cd" points="383.52,-555.1 373.85,-559.43 384.11,-562.07 383.52,-555.1"/>
</a>
</g>
<text text-anchor="middle" x="463.5" y="-557.28" font-family="Helvetica,sans-Serif" font-size="10.00" fill="grey"> mHorsePlace</text>
</g>
<!-- Node7 -->
<g id="Node000007" class="node">
<title>Node7</title>
<g id="a_Node000007"><a xlink:href="structcXyz.html" target="_top" xlink:title=" ">
<polygon fill="white" stroke="#666666" points="133.75,-689.16 96.75,-689.16 96.75,-669.91 133.75,-669.91 133.75,-689.16"/>
<text text-anchor="middle" x="115.25" y="-675.66" font-family="Helvetica,sans-Serif" font-size="10.00">cXyz</text>
</a>
</g>
</g>
<!-- Node7&#45;&gt;Node6 -->
<g id="edge6_Node000006_Node000007" class="edge">
<title>Node7&#45;&gt;Node6</title>
<g id="a_edge6_Node000006_Node000007"><a xlink:title=" ">
<path fill="none" stroke="#9a32cd" stroke-dasharray="5,2" d="M135.5,-662.22C160.9,-640.23 207.82,-602.51 254,-580.53 260.46,-577.46 267.53,-574.84 274.57,-572.62"/>
<polygon fill="#9a32cd" stroke="#9a32cd" points="133.49,-659.32 128.29,-668.55 138.11,-664.58 133.49,-659.32"/>
</a>
</g>
<text text-anchor="middle" x="207.12" y="-628.28" font-family="Helvetica,sans-Serif" font-size="10.00" fill="grey"> mPos</text>
</g>
<!-- Node7&#45;&gt;Node7 -->
<g id="edge8_Node000007_Node000007" class="edge">
<title>Node7&#45;&gt;Node7</title>
<g id="a_edge8_Node000007_Node000007"><a xlink:title=" ">
<path fill="none" stroke="#9a32cd" stroke-dasharray="5,2" d="M104.11,-700.89C105.61,-704.59 109.32,-707.16 115.25,-707.16 126.41,-707.16 129.73,-698.05 125.19,-689.45"/>
<polygon fill="#9a32cd" stroke="#9a32cd" points="107.59,-701.26 105.15,-690.95 100.62,-700.53 107.59,-701.26"/>
</a>
</g>
<text text-anchor="middle" x="115.25" y="-787.66" font-family="Helvetica,sans-Serif" font-size="10.00" fill="grey"> BaseX</text>
<text text-anchor="middle" x="115.25" y="-776.41" font-family="Helvetica,sans-Serif" font-size="10.00" fill="grey">BaseXY</text>
<text text-anchor="middle" x="115.25" y="-765.16" font-family="Helvetica,sans-Serif" font-size="10.00" fill="grey">BaseXYZ</text>
<text text-anchor="middle" x="115.25" y="-753.91" font-family="Helvetica,sans-Serif" font-size="10.00" fill="grey">BaseXZ</text>
<text text-anchor="middle" x="115.25" y="-742.66" font-family="Helvetica,sans-Serif" font-size="10.00" fill="grey">BaseY</text>
<text text-anchor="middle" x="115.25" y="-731.41" font-family="Helvetica,sans-Serif" font-size="10.00" fill="grey">BaseYZ</text>
<text text-anchor="middle" x="115.25" y="-720.16" font-family="Helvetica,sans-Serif" font-size="10.00" fill="grey">BaseZ</text>
<text text-anchor="middle" x="115.25" y="-708.91" font-family="Helvetica,sans-Serif" font-size="10.00" fill="grey">Zero</text>
</g>
<!-- Node10 -->
<g id="Node000010" class="node">
<title>Node10</title>
<g id="a_Node000010"><a xlink:href="classdSv__player__field__last__stay__info__c.html" target="_top" xlink:title=" ">
<polygon fill="white" stroke="#666666" points="375,-534.78 267.5,-534.78 267.5,-504.28 375,-504.28 375,-534.78"/>
<text text-anchor="start" x="275.5" y="-521.28" font-family="Helvetica,sans-Serif" font-size="10.00">dSv_player_field_last</text>
<text text-anchor="middle" x="321.25" y="-510.03" font-family="Helvetica,sans-Serif" font-size="10.00">_stay_info_c</text>
</a>
</g>
</g>
<!-- Node7&#45;&gt;Node10 -->
<g id="edge11_Node000010_Node000007" class="edge">
<title>Node7&#45;&gt;Node10</title>
<g id="a_edge11_Node000010_Node000007"><a xlink:title=" ">
<path fill="none" stroke="#9a32cd" stroke-dasharray="5,2" d="M123.91,-658.82C133.43,-635.65 151.72,-598.34 178.25,-575.28 203.44,-553.39 238.23,-539.54 267.07,-531.12"/>
<polygon fill="#9a32cd" stroke="#9a32cd" points="120.67,-657.5 120.29,-668.09 127.19,-660.05 120.67,-657.5"/>
</a>
</g>
<text text-anchor="middle" x="207.12" y="-576.28" font-family="Helvetica,sans-Serif" font-size="10.00" fill="grey"> mPos</text>
</g>
<!-- Node11 -->
<g id="Node000011" class="node">
<title>Node11</title>
<g id="a_Node000011"><a xlink:href="classdSv__player__last__mark__info__c.html" target="_top" xlink:title=" ">
<polygon fill="white" stroke="#666666" points="377.25,-485.78 265.25,-485.78 265.25,-455.28 377.25,-455.28 377.25,-485.78"/>
<text text-anchor="start" x="273.25" y="-472.28" font-family="Helvetica,sans-Serif" font-size="10.00">dSv_player_last_mark</text>
<text text-anchor="middle" x="321.25" y="-461.03" font-family="Helvetica,sans-Serif" font-size="10.00">_info_c</text>
</a>
</g>
</g>
<!-- Node7&#45;&gt;Node11 -->
<g id="edge13_Node000011_Node000007" class="edge">
<title>Node7&#45;&gt;Node11</title>
<g id="a_edge13_Node000011_Node000007"><a xlink:title=" ">
<path fill="none" stroke="#9a32cd" stroke-dasharray="5,2" d="M119.47,-658.18C125.44,-625.61 141.19,-563.39 178.25,-526.28 201.55,-502.95 235.77,-489.13 264.78,-481.08"/>
<polygon fill="#9a32cd" stroke="#9a32cd" points="116.03,-657.52 117.83,-667.96 122.94,-658.68 116.03,-657.52"/>
</a>
</g>
<text text-anchor="middle" x="207.12" y="-527.28" font-family="Helvetica,sans-Serif" font-size="10.00" fill="grey"> mPos</text>
</g>
<!-- Node33 -->
<g id="Node000033" class="node">
<title>Node33</title>
<g id="a_Node000033"><a xlink:href="classdSv__restart__c.html" target="_top" xlink:title=" ">
<polygon fill="white" stroke="#666666" points="501.88,-806.16 425.12,-806.16 425.12,-786.91 501.88,-786.91 501.88,-806.16"/>
<text text-anchor="middle" x="463.5" y="-792.66" font-family="Helvetica,sans-Serif" font-size="10.00">dSv_restart_c</text>
</a>
</g>
</g>
<!-- Node7&#45;&gt;Node33 -->
<g id="edge37_Node000033_Node000007" class="edge">
<title>Node7&#45;&gt;Node33</title>
<g id="a_edge37_Node000033_Node000007"><a xlink:title=" ">
<path fill="none" stroke="#9a32cd" stroke-dasharray="5,2" d="M121.61,-700.66C129.36,-726.28 146.39,-768.41 178.25,-787.53 255.51,-833.91 367.07,-818.74 424.77,-806.2"/>
<polygon fill="#9a32cd" stroke="#9a32cd" points="124.99,-699.73 118.94,-691.04 118.25,-701.61 124.99,-699.73"/>
</a>
</g>
<text text-anchor="middle" x="207.12" y="-811.28" font-family="Helvetica,sans-Serif" font-size="10.00" fill="grey"> mRoomPos</text>
</g>
<!-- Node34 -->
<g id="Node000034" class="node">
<title>Node34</title>
<g id="a_Node000034"><a xlink:href="classdSv__turnRestart__c.html" target="_top" xlink:title=" ">
<polygon fill="white" stroke="#666666" points="635.5,-729.16 538.5,-729.16 538.5,-709.91 635.5,-709.91 635.5,-729.16"/>
<text text-anchor="middle" x="587" y="-715.66" font-family="Helvetica,sans-Serif" font-size="10.00">dSv_turnRestart_c</text>
</a>
</g>
</g>
<!-- Node7&#45;&gt;Node34 -->
<g id="edge40_Node000034_Node000007" class="edge">
<title>Node7&#45;&gt;Node34</title>
<g id="a_edge40_Node000034_Node000007"><a xlink:title=" ">
<path fill="none" stroke="#9a32cd" stroke-dasharray="5,2" d="M145.37,-682.39C173.25,-685.1 216.48,-689.24 254,-692.53 355.1,-701.41 473.61,-710.81 538.15,-715.84"/>
<polygon fill="#9a32cd" stroke="#9a32cd" points="145.87,-678.92 135.58,-681.44 145.19,-685.89 145.87,-678.92"/>
</a>
</g>
<text text-anchor="middle" x="321.25" y="-705.28" font-family="Helvetica,sans-Serif" font-size="10.00" fill="grey"> mPosition</text>
</g>
<!-- Node35 -->
<g id="Node000035" class="node">
<title>Node35</title>
<g id="a_Node000035"><a xlink:href="classdSv__turnRestart__c_1_1dSv__turnRestart__camera__c.html" target="_top" xlink:title=" ">
<polygon fill="white" stroke="#666666" points="388.5,-779.78 254,-779.78 254,-749.28 388.5,-749.28 388.5,-779.78"/>
<text text-anchor="start" x="262" y="-766.28" font-family="Helvetica,sans-Serif" font-size="10.00">dSv_turnRestart_c::</text>
<text text-anchor="middle" x="321.25" y="-755.03" font-family="Helvetica,sans-Serif" font-size="10.00">dSv_turnRestart_camera_c</text>
</a>
</g>
</g>
<!-- Node7&#45;&gt;Node35 -->
<g id="edge42_Node000035_Node000007" class="edge">
<title>Node7&#45;&gt;Node35</title>
<g id="a_edge42_Node000035_Node000007"><a xlink:title=" ">
<path fill="none" stroke="#9a32cd" stroke-dasharray="5,2" d="M133.3,-697.21C144.97,-708.33 161.35,-722.12 178.25,-730.53 201.63,-742.16 229.18,-749.94 253.76,-755.08"/>
<polygon fill="#9a32cd" stroke="#9a32cd" points="136.01,-694.96 126.43,-690.42 131.08,-699.94 136.01,-694.96"/>
</a>
</g>
<text text-anchor="middle" x="207.12" y="-774.78" font-family="Helvetica,sans-Serif" font-size="10.00" fill="grey"> mCameraCtr</text>
<text text-anchor="middle" x="207.12" y="-763.53" font-family="Helvetica,sans-Serif" font-size="10.00" fill="grey">mCameraEye</text>
<text text-anchor="middle" x="207.12" y="-752.28" font-family="Helvetica,sans-Serif" font-size="10.00" fill="grey">mCameraUp</text>
</g>
<!-- Node8 -->
<g id="Node000008" class="node">
<title>Node8</title>
<g id="a_Node000008"><a xlink:href="structVec.html" target="_top" xlink:title=" ">
<polygon fill="white" stroke="#666666" points="33.25,-689.16 0,-689.16 0,-669.91 33.25,-669.91 33.25,-689.16"/>
<text text-anchor="middle" x="16.62" y="-675.66" font-family="Helvetica,sans-Serif" font-size="10.00">Vec</text>
</a>
</g>
</g>
<!-- Node8&#45;&gt;Node7 -->
<g id="edge7_Node000007_Node000008" class="edge">
<title>Node8&#45;&gt;Node7</title>
<g id="a_edge7_Node000007_Node000008"><a xlink:title=" ">
<path fill="none" stroke="#63b8ff" d="M44.71,-679.53C61.21,-679.53 81.81,-679.53 96.3,-679.53"/>
<polygon fill="#63b8ff" stroke="#63b8ff" points="45.09,-676.03 35.09,-679.53 45.09,-683.03 45.09,-676.03"/>
</a>
</g>
</g>
<!-- Node9 -->
<g id="Node000009" class="node">
<title>Node9</title>
<g id="a_Node000009"><a xlink:href="classdSv__player__return__place__c.html" target="_top" xlink:title=" ">
<polygon fill="white" stroke="#666666" points="387.75,-326.16 254.75,-326.16 254.75,-306.91 387.75,-306.91 387.75,-326.16"/>
<text text-anchor="middle" x="321.25" y="-312.66" font-family="Helvetica,sans-Serif" font-size="10.00">dSv_player_return_place_c</text>
</a>
</g>
</g>
<!-- Node9&#45;&gt;Node3 -->
<g id="edge9_Node000003_Node000009" class="edge">
<title>Node9&#45;&gt;Node3</title>
<g id="a_edge9_Node000003_Node000009"><a xlink:title=" ">
<path fill="none" stroke="#9a32cd" stroke-dasharray="5,2" d="M399.23,-311.72C437.36,-312.28 483.12,-317.53 520.5,-335.28 530.79,-340.17 528.95,-347.31 538.5,-353.53 543.16,-356.56 548.4,-359.19 553.65,-361.44"/>
<polygon fill="#9a32cd" stroke="#9a32cd" points="399.7,-308.22 389.68,-311.69 399.67,-315.22 399.7,-308.22"/>
</a>
</g>
<text text-anchor="middle" x="463.5" y="-336.28" font-family="Helvetica,sans-Serif" font-size="10.00" fill="grey"> mPlayerReturnPlace</text>
</g>
<!-- Node10&#45;&gt;Node3 -->
<g id="edge10_Node000003_Node000010" class="edge">
<title>Node10&#45;&gt;Node3</title>
<g id="a_edge10_Node000003_Node000010"><a xlink:title=" ">
<path fill="none" stroke="#9a32cd" stroke-dasharray="5,2" d="M386.57,-513.91C436.67,-508.27 500.88,-497.89 520.5,-480.53 539.76,-463.49 525.75,-447.87 538.5,-425.53 548.41,-408.18 564.48,-391.43 575.15,-381.3"/>
<polygon fill="#9a32cd" stroke="#9a32cd" points="386.23,-510.42 376.66,-514.97 386.98,-517.38 386.23,-510.42"/>
</a>
</g>
<text text-anchor="middle" x="463.5" y="-512.28" font-family="Helvetica,sans-Serif" font-size="10.00" fill="grey"> mPlayerFieldLastStayInfo</text>
</g>
<!-- Node11&#45;&gt;Node3 -->
<g id="edge12_Node000003_Node000011" class="edge">
<title>Node11&#45;&gt;Node3</title>
<g id="a_edge12_Node000003_Node000011"><a xlink:title=" ">
<path fill="none" stroke="#9a32cd" stroke-dasharray="5,2" d="M388.81,-468.08C428.83,-464.32 479.74,-455.38 520.5,-434.53 545.78,-421.6 567.89,-395.71 578.79,-381.47"/>
<polygon fill="#9a32cd" stroke="#9a32cd" points="388.74,-464.57 379.07,-468.9 389.33,-471.55 388.74,-464.57"/>
</a>
</g>
<text text-anchor="middle" x="463.5" y="-467.28" font-family="Helvetica,sans-Serif" font-size="10.00" fill="grey"> mPlayerLastMarkInfo</text>
</g>
<!-- Node12 -->
<g id="Node000012" class="node">
<title>Node12</title>
<g id="a_Node000012"><a xlink:href="classdSv__player__item__c.html" target="_top" xlink:title=" ">
<polygon fill="white" stroke="#666666" points="370.5,-289.16 272,-289.16 272,-269.91 370.5,-269.91 370.5,-289.16"/>
<text text-anchor="middle" x="321.25" y="-275.66" font-family="Helvetica,sans-Serif" font-size="10.00">dSv_player_item_c</text>
</a>
</g>
</g>
<!-- Node12&#45;&gt;Node3 -->
<g id="edge14_Node000003_Node000012" class="edge">
<title>Node12&#45;&gt;Node3</title>
<g id="a_edge14_Node000003_Node000012"><a xlink:title=" ">
<path fill="none" stroke="#9a32cd" stroke-dasharray="5,2" d="M382.14,-268.33C425.18,-263.82 482.14,-265.56 520.5,-296.28 541.32,-312.95 520.19,-334.14 538.5,-353.53 541.65,-356.87 545.48,-359.59 549.58,-361.81"/>
<polygon fill="#9a32cd" stroke="#9a32cd" points="381.98,-264.82 372.46,-269.49 382.81,-271.77 381.98,-264.82"/>
</a>
</g>
<text text-anchor="middle" x="463.5" y="-297.28" font-family="Helvetica,sans-Serif" font-size="10.00" fill="grey"> mItem</text>
</g>
<!-- Node13 -->
<g id="Node000013" class="node">
<title>Node13</title>
<g id="a_Node000013"><a xlink:href="classdSv__player__get__item__c.html" target="_top" xlink:title=" ">
<polygon fill="white" stroke="#666666" points="379.88,-252.16 262.62,-252.16 262.62,-232.91 379.88,-232.91 379.88,-252.16"/>
<text text-anchor="middle" x="321.25" y="-238.66" font-family="Helvetica,sans-Serif" font-size="10.00">dSv_player_get_item_c</text>
</a>
</g>
</g>
<!-- Node13&#45;&gt;Node3 -->
<g id="edge15_Node000003_Node000013" class="edge">
<title>Node13&#45;&gt;Node3</title>
<g id="a_edge15_Node000003_Node000013"><a xlink:title=" ">
<path fill="none" stroke="#9a32cd" stroke-dasharray="5,2" d="M367.44,-229.97C411.93,-220.6 479.05,-214.91 520.5,-251.28 555.18,-281.72 509.08,-317.99 538.5,-353.53 541.54,-357.2 545.41,-360.12 549.62,-362.45"/>
<polygon fill="#9a32cd" stroke="#9a32cd" points="366.83,-226.52 357.85,-232.14 368.38,-233.35 366.83,-226.52"/>
</a>
</g>
<text text-anchor="middle" x="463.5" y="-253.28" font-family="Helvetica,sans-Serif" font-size="10.00" fill="grey"> mGetItem</text>
</g>
<!-- Node14 -->
<g id="Node000014" class="node">
<title>Node14</title>
<g id="a_Node000014"><a xlink:href="classdSv__player__item__record__c.html" target="_top" xlink:title=" ">
<polygon fill="white" stroke="#666666" points="386.62,-215.16 255.88,-215.16 255.88,-195.91 386.62,-195.91 386.62,-215.16"/>
<text text-anchor="middle" x="321.25" y="-201.66" font-family="Helvetica,sans-Serif" font-size="10.00">dSv_player_item_record_c</text>
</a>
</g>
</g>
<!-- Node14&#45;&gt;Node3 -->
<g id="edge16_Node000003_Node000014" class="edge">
<title>Node14&#45;&gt;Node3</title>
<g id="a_edge16_Node000003_Node000014"><a xlink:title=" ">
<path fill="none" stroke="#9a32cd" stroke-dasharray="5,2" d="M398.33,-196.66C446.44,-192.87 502.79,-192.41 520.5,-208.28 568.94,-251.69 498.31,-302.38 538.5,-353.53 541.44,-357.28 545.26,-360.24 549.44,-362.59"/>
<polygon fill="#9a32cd" stroke="#9a32cd" points="398.11,-193.16 388.45,-197.5 398.71,-200.14 398.11,-193.16"/>
</a>
</g>
<text text-anchor="middle" x="463.5" y="-210.28" font-family="Helvetica,sans-Serif" font-size="10.00" fill="grey"> mItemRecord</text>
</g>
<!-- Node15 -->
<g id="Node000015" class="node">
<title>Node15</title>
<g id="a_Node000015"><a xlink:href="classdSv__player__item__max__c.html" target="_top" xlink:title=" ">
<polygon fill="white" stroke="#666666" points="382.12,-178.16 260.38,-178.16 260.38,-158.91 382.12,-158.91 382.12,-178.16"/>
<text text-anchor="middle" x="321.25" y="-164.66" font-family="Helvetica,sans-Serif" font-size="10.00">dSv_player_item_max_c</text>
</a>
</g>
</g>
<!-- Node15&#45;&gt;Node3 -->
<g id="edge17_Node000003_Node000015" class="edge">
<title>Node15&#45;&gt;Node3</title>
<g id="a_edge17_Node000003_Node000015"><a xlink:title=" ">
<path fill="none" stroke="#9a32cd" stroke-dasharray="5,2" d="M367.69,-155.98C412.66,-146.59 480.43,-141.12 520.5,-179.28 548.69,-206.13 514.76,-322.68 538.5,-353.53 541.4,-357.31 545.2,-360.29 549.37,-362.65"/>
<polygon fill="#9a32cd" stroke="#9a32cd" points="366.96,-152.56 357.97,-158.16 368.49,-159.39 366.96,-152.56"/>
</a>
</g>
<text text-anchor="middle" x="463.5" y="-181.28" font-family="Helvetica,sans-Serif" font-size="10.00" fill="grey"> mItemMax</text>
</g>
<!-- Node16 -->
<g id="Node000016" class="node">
<title>Node16</title>
<g id="a_Node000016"><a xlink:href="classdSv__player__collect__c.html" target="_top" xlink:title=" ">
<polygon fill="white" stroke="#666666" points="375.38,-141.16 267.12,-141.16 267.12,-121.91 375.38,-121.91 375.38,-141.16"/>
<text text-anchor="middle" x="321.25" y="-127.66" font-family="Helvetica,sans-Serif" font-size="10.00">dSv_player_collect_c</text>
</a>
</g>
</g>
<!-- Node16&#45;&gt;Node3 -->
<g id="edge18_Node000003_Node000016" class="edge">
<title>Node16&#45;&gt;Node3</title>
<g id="a_edge18_Node000003_Node000016"><a xlink:title=" ">
<path fill="none" stroke="#9a32cd" stroke-dasharray="5,2" d="M386.69,-123.46C437.09,-118.73 501.68,-116.7 520.5,-134.28 556.22,-167.65 509.1,-314.47 538.5,-353.53 541.36,-357.34 545.13,-360.34 549.3,-362.7"/>
<polygon fill="#9a32cd" stroke="#9a32cd" points="386.64,-119.95 377.03,-124.42 387.33,-126.91 386.64,-119.95"/>
</a>
</g>
<text text-anchor="middle" x="463.5" y="-136.28" font-family="Helvetica,sans-Serif" font-size="10.00" fill="grey"> mCollect</text>
</g>
<!-- Node17 -->
<g id="Node000017" class="node">
<title>Node17</title>
<g id="a_Node000017"><a xlink:href="classdSv__player__wolf__c.html" target="_top" xlink:title=" ">
<polygon fill="white" stroke="#666666" points="370.12,-104.16 272.38,-104.16 272.38,-84.91 370.12,-84.91 370.12,-104.16"/>
<text text-anchor="middle" x="321.25" y="-90.66" font-family="Helvetica,sans-Serif" font-size="10.00">dSv_player_wolf_c</text>
</a>
</g>
</g>
<!-- Node17&#45;&gt;Node3 -->
<g id="edge19_Node000003_Node000017" class="edge">
<title>Node17&#45;&gt;Node3</title>
<g id="a_edge19_Node000003_Node000017"><a xlink:title=" ">
<path fill="none" stroke="#9a32cd" stroke-dasharray="5,2" d="M366.87,-81.95C412.03,-72.23 480.71,-66.21 520.5,-105.28 559.97,-144.04 505.45,-309.18 538.5,-353.53 541.35,-357.35 545.1,-360.36 549.26,-362.73"/>
<polygon fill="#9a32cd" stroke="#9a32cd" points="366.36,-78.48 357.4,-84.14 367.93,-85.3 366.36,-78.48"/>
</a>
</g>
<text text-anchor="middle" x="463.5" y="-107.28" font-family="Helvetica,sans-Serif" font-size="10.00" fill="grey"> mWolf</text>
</g>
<!-- Node18 -->
<g id="Node000018" class="node">
<title>Node18</title>
<g id="a_Node000018"><a xlink:href="classdSv__light__drop__c.html" target="_top" xlink:title=" ">
<polygon fill="white" stroke="#666666" points="366.75,-67.16 275.75,-67.16 275.75,-47.91 366.75,-47.91 366.75,-67.16"/>
<text text-anchor="middle" x="321.25" y="-53.66" font-family="Helvetica,sans-Serif" font-size="10.00">dSv_light_drop_c</text>
</a>
</g>
</g>
<!-- Node18&#45;&gt;Node3 -->
<g id="edge20_Node000003_Node000018" class="edge">
<title>Node18&#45;&gt;Node3</title>
<g id="a_edge20_Node000003_Node000018"><a xlink:title=" ">
<path fill="none" stroke="#9a32cd" stroke-dasharray="5,2" d="M378.47,-50.19C429.87,-44.87 500.82,-41.51 520.5,-60.28 567.75,-105.34 499.78,-300.97 538.5,-353.53 541.43,-357.51 545.35,-360.61 549.69,-363.02"/>
<polygon fill="#9a32cd" stroke="#9a32cd" points="378.24,-46.69 368.67,-51.25 378.99,-53.65 378.24,-46.69"/>
</a>
</g>
<text text-anchor="middle" x="463.5" y="-62.28" font-family="Helvetica,sans-Serif" font-size="10.00" fill="grey"> mLightDrop</text>
</g>
<!-- Node19 -->
<g id="Node000019" class="node">
<title>Node19</title>
<g id="a_Node000019"><a xlink:href="classdSv__letter__info__c.html" target="_top" xlink:title=" ">
<polygon fill="white" stroke="#666666" points="367.12,-30.16 275.38,-30.16 275.38,-10.91 367.12,-10.91 367.12,-30.16"/>
<text text-anchor="middle" x="321.25" y="-16.66" font-family="Helvetica,sans-Serif" font-size="10.00">dSv_letter_info_c</text>
</a>
</g>
</g>
<!-- Node19&#45;&gt;Node3 -->
<g id="edge21_Node000003_Node000019" class="edge">
<title>Node19&#45;&gt;Node3</title>
<g id="a_edge21_Node000003_Node000019"><a xlink:title=" ">
<path fill="none" stroke="#9a32cd" stroke-dasharray="5,2" d="M366.62,-7.9C411.88,1.98 480.92,8.23 520.5,-31.28 545.88,-56.62 517.31,-324.6 538.5,-353.53 541.42,-357.52 545.33,-360.62 549.67,-363.03"/>
<polygon fill="#9a32cd" stroke="#9a32cd" points="366.07,-4.44 357.13,-10.12 367.66,-11.25 366.07,-4.44"/>
</a>
</g>
<text text-anchor="middle" x="463.5" y="-33.28" font-family="Helvetica,sans-Serif" font-size="10.00" fill="grey"> mLetterInfo</text>
</g>
<!-- Node20 -->
<g id="Node000020" class="node">
<title>Node20</title>
<g id="a_Node000020"><a xlink:href="classdSv__fishing__info__c.html" target="_top" xlink:title=" ">
<polygon fill="white" stroke="#666666" points="370.12,-437.16 272.38,-437.16 272.38,-417.91 370.12,-417.91 370.12,-437.16"/>
<text text-anchor="middle" x="321.25" y="-423.66" font-family="Helvetica,sans-Serif" font-size="10.00">dSv_fishing_info_c</text>
</a>
</g>
</g>
<!-- Node20&#45;&gt;Node3 -->
<g id="edge22_Node000003_Node000020" class="edge">
<title>Node20&#45;&gt;Node3</title>
<g id="a_edge22_Node000003_Node000020"><a xlink:title=" ">
<path fill="none" stroke="#9a32cd" stroke-dasharray="5,2" d="M381.96,-422.66C421.73,-418.47 474.86,-411.07 520.5,-398.53 535.92,-394.3 552.57,-387.4 565.22,-381.64"/>
<polygon fill="#9a32cd" stroke="#9a32cd" points="381.7,-419.17 372.11,-423.65 382.41,-426.13 381.7,-419.17"/>
</a>
</g>
<text text-anchor="middle" x="463.5" y="-421.28" font-family="Helvetica,sans-Serif" font-size="10.00" fill="grey"> mFishingInfo</text>
</g>
<!-- Node21 -->
<g id="Node000021" class="node">
<title>Node21</title>
<g id="a_Node000021"><a xlink:href="classdSv__player__info__c.html" target="_top" xlink:title=" ">
<polygon fill="white" stroke="#666666" points="369,-400.16 273.5,-400.16 273.5,-380.91 369,-380.91 369,-400.16"/>
<text text-anchor="middle" x="321.25" y="-386.66" font-family="Helvetica,sans-Serif" font-size="10.00">dSv_player_info_c</text>
</a>
</g>
</g>
<!-- Node21&#45;&gt;Node3 -->
<g id="edge23_Node000003_Node000021" class="edge">
<title>Node21&#45;&gt;Node3</title>
<g id="a_edge23_Node000003_Node000021"><a xlink:title=" ">
<path fill="none" stroke="#9a32cd" stroke-dasharray="5,2" d="M380.7,-386.32C432.26,-382.61 505.8,-377.31 549.44,-374.17"/>
<polygon fill="#9a32cd" stroke="#9a32cd" points="380.64,-382.82 370.91,-387.03 381.14,-389.8 380.64,-382.82"/>
</a>
</g>
<text text-anchor="middle" x="463.5" y="-385.28" font-family="Helvetica,sans-Serif" font-size="10.00" fill="grey"> mPlayerInfo</text>
</g>
<!-- Node22 -->
<g id="Node000022" class="node">
<title>Node22</title>
<g id="a_Node000022"><a xlink:href="classdSv__player__config__c.html" target="_top" xlink:title=" ">
<polygon fill="white" stroke="#666666" points="373.88,-363.16 268.62,-363.16 268.62,-343.91 373.88,-343.91 373.88,-363.16"/>
<text text-anchor="middle" x="321.25" y="-349.66" font-family="Helvetica,sans-Serif" font-size="10.00">dSv_player_config_c</text>
</a>
</g>
</g>
<!-- Node22&#45;&gt;Node3 -->
<g id="edge24_Node000003_Node000022" class="edge">
<title>Node22&#45;&gt;Node3</title>
<g id="a_edge24_Node000003_Node000022"><a xlink:title=" ">
<path fill="none" stroke="#9a32cd" stroke-dasharray="5,2" d="M385.64,-351.59C424.66,-351.18 475.63,-352.03 520.5,-357.28 529.98,-358.39 540.1,-360.25 549.49,-362.27"/>
<polygon fill="#9a32cd" stroke="#9a32cd" points="385.66,-348.09 375.71,-351.73 385.76,-355.09 385.66,-348.09"/>
</a>
</g>
<text text-anchor="middle" x="463.5" y="-358.28" font-family="Helvetica,sans-Serif" font-size="10.00" fill="grey"> mConfig</text>
</g>
<!-- Node23 -->
<g id="Node000023" class="node">
<title>Node23</title>
<g id="a_Node000023"><a xlink:href="classdSv__memory__c.html" target="_top" xlink:title=" ">
<polygon fill="white" stroke="#666666" points="628.75,-586.16 545.25,-586.16 545.25,-566.91 628.75,-566.91 628.75,-586.16"/>
<text text-anchor="middle" x="587" y="-572.66" font-family="Helvetica,sans-Serif" font-size="10.00">dSv_memory_c</text>
</a>
</g>
</g>
<!-- Node23&#45;&gt;Node1 -->
<g id="edge31_Node000001_Node000023" class="edge">
<title>Node23&#45;&gt;Node1</title>
<g id="a_edge31_Node000001_Node000023"><a xlink:title=" ">
<path fill="none" stroke="#9a32cd" stroke-dasharray="5,2" d="M640.69,-573.99C661.96,-572.04 686.56,-568.6 708.25,-562.53 785.34,-540.96 869.76,-494.98 905.09,-474.6"/>
<polygon fill="#9a32cd" stroke="#9a32cd" points="640.44,-570.5 630.76,-574.8 641.01,-577.48 640.44,-570.5"/>
</a>
</g>
<text text-anchor="middle" x="764.62" y="-557.28" font-family="Helvetica,sans-Serif" font-size="10.00" fill="grey"> mMemory</text>
</g>
<!-- Node23&#45;&gt;Node2 -->
<g id="edge25_Node000002_Node000023" class="edge">
<title>Node23&#45;&gt;Node2</title>
<g id="a_edge25_Node000002_Node000023"><a xlink:title=" ">
<path fill="none" stroke="#9a32cd" stroke-dasharray="5,2" d="M625.06,-562.34C649.75,-552.03 682.29,-536.72 708.25,-518.53 726.95,-505.43 745.23,-485.92 755.41,-474.29"/>
<polygon fill="#9a32cd" stroke="#9a32cd" points="624.01,-558.99 616.07,-566.01 626.65,-565.47 624.01,-558.99"/>
</a>
</g>
<text text-anchor="middle" x="680.88" y="-550.28" font-family="Helvetica,sans-Serif" font-size="10.00" fill="grey"> mSave</text>
</g>
<!-- Node24 -->
<g id="Node000024" class="node">
<title>Node24</title>
<g id="a_Node000024"><a xlink:href="structdSv__memBit__c.html" target="_top" xlink:title=" ">
<polygon fill="white" stroke="#666666" points="362.62,-683.16 279.88,-683.16 279.88,-663.91 362.62,-663.91 362.62,-683.16"/>
<text text-anchor="middle" x="321.25" y="-669.66" font-family="Helvetica,sans-Serif" font-size="10.00">dSv_memBit_c</text>
</a>
</g>
</g>
<!-- Node24&#45;&gt;Node23 -->
<g id="edge26_Node000023_Node000024" class="edge">
<title>Node24&#45;&gt;Node23</title>
<g id="a_edge26_Node000023_Node000024"><a xlink:title=" ">
<path fill="none" stroke="#9a32cd" stroke-dasharray="5,2" d="M374.4,-677.78C416.22,-678.9 475.2,-675.22 520.5,-651.53 549.3,-636.47 571.13,-603.08 580.69,-586.41"/>
<polygon fill="#9a32cd" stroke="#9a32cd" points="374.73,-674.29 364.6,-677.4 374.46,-681.28 374.73,-674.29"/>
</a>
</g>
<text text-anchor="middle" x="463.5" y="-679.28" font-family="Helvetica,sans-Serif" font-size="10.00" fill="grey"> mBit</text>
</g>
<!-- Node25 -->
<g id="Node000025" class="node">
<title>Node25</title>
<g id="a_Node000025"><a xlink:href="classdSv__memory2__c.html" target="_top" xlink:title=" ">
<polygon fill="white" stroke="#666666" points="631.38,-491.16 542.62,-491.16 542.62,-471.91 631.38,-471.91 631.38,-491.16"/>
<text text-anchor="middle" x="587" y="-477.66" font-family="Helvetica,sans-Serif" font-size="10.00">dSv_memory2_c</text>
</a>
</g>
</g>
<!-- Node25&#45;&gt;Node2 -->
<g id="edge27_Node000002_Node000025" class="edge">
<title>Node25&#45;&gt;Node2</title>
<g id="a_edge27_Node000002_Node000025"><a xlink:title=" ">
<path fill="none" stroke="#9a32cd" stroke-dasharray="5,2" d="M643.2,-476.19C671.44,-473.46 704.92,-470.21 729.4,-467.85"/>
<polygon fill="#9a32cd" stroke="#9a32cd" points="642.99,-472.69 633.37,-477.14 643.66,-479.66 642.99,-472.69"/>
</a>
</g>
<text text-anchor="middle" x="680.88" y="-476.28" font-family="Helvetica,sans-Serif" font-size="10.00" fill="grey"> mSave2</text>
</g>
<!-- Node26 -->
<g id="Node000026" class="node">
<title>Node26</title>
<g id="a_Node000026"><a xlink:href="classdSv__event__c.html" target="_top" xlink:title=" ">
<polygon fill="white" stroke="#666666" points="623.5,-344.16 550.5,-344.16 550.5,-324.91 623.5,-324.91 623.5,-344.16"/>
<text text-anchor="middle" x="587" y="-330.66" font-family="Helvetica,sans-Serif" font-size="10.00">dSv_event_c</text>
</a>
</g>
</g>
<!-- Node26&#45;&gt;Node1 -->
<g id="edge38_Node000001_Node000026" class="edge">
<title>Node26&#45;&gt;Node1</title>
<g id="a_edge38_Node000001_Node000026"><a xlink:title=" ">
<path fill="none" stroke="#9a32cd" stroke-dasharray="5,2" d="M635.16,-342.02C657.64,-346.27 684.7,-352.39 708.25,-360.53 784.74,-386.97 869.47,-433.89 904.99,-454.43"/>
<polygon fill="#9a32cd" stroke="#9a32cd" points="635.82,-338.58 625.36,-340.24 634.57,-345.47 635.82,-338.58"/>
</a>
</g>
<text text-anchor="middle" x="764.62" y="-401.28" font-family="Helvetica,sans-Serif" font-size="10.00" fill="grey"> mTmp</text>
</g>
<!-- Node26&#45;&gt;Node2 -->
<g id="edge28_Node000002_Node000026" class="edge">
<title>Node26&#45;&gt;Node2</title>
<g id="a_edge28_Node000002_Node000026"><a xlink:title=" ">
<path fill="none" stroke="#9a32cd" stroke-dasharray="5,2" d="M626.5,-348.68C629.56,-349.94 632.59,-351.23 635.5,-352.53 668.75,-367.4 680.49,-366.69 708.25,-390.28 730.68,-409.34 749.34,-439.09 758.16,-454.51"/>
<polygon fill="#9a32cd" stroke="#9a32cd" points="628.09,-345.55 617.51,-345.12 625.51,-352.06 628.09,-345.55"/>
</a>
</g>
<text text-anchor="middle" x="680.88" y="-391.28" font-family="Helvetica,sans-Serif" font-size="10.00" fill="grey"> mEvent</text>
</g>
<!-- Node27 -->
<g id="Node000027" class="node">
<title>Node27</title>
<g id="a_Node000027"><a xlink:href="classdSv__reserve__c.html" target="_top" xlink:title=" ">
<polygon fill="white" stroke="#666666" points="627.62,-454.16 546.38,-454.16 546.38,-434.91 627.62,-434.91 627.62,-454.16"/>
<text text-anchor="middle" x="587" y="-440.66" font-family="Helvetica,sans-Serif" font-size="10.00">dSv_reserve_c</text>
</a>
</g>
</g>
<!-- Node27&#45;&gt;Node2 -->
<g id="edge29_Node000002_Node000027" class="edge">
<title>Node27&#45;&gt;Node2</title>
<g id="a_edge29_Node000002_Node000027"><a xlink:title=" ">
<path fill="none" stroke="#9a32cd" stroke-dasharray="5,2" d="M639.37,-447.54C660.73,-449.09 685.74,-451.29 708.25,-454.28 715.03,-455.18 722.25,-456.36 729.15,-457.59"/>
<polygon fill="#9a32cd" stroke="#9a32cd" points="639.65,-444.05 629.43,-446.85 639.16,-451.03 639.65,-444.05"/>
</a>
</g>
<text text-anchor="middle" x="680.88" y="-455.28" font-family="Helvetica,sans-Serif" font-size="10.00" fill="grey"> reserve</text>
</g>
<!-- Node28 -->
<g id="Node000028" class="node">
<title>Node28</title>
<g id="a_Node000028"><a xlink:href="classdSv__MiniGame__c.html" target="_top" xlink:title=" ">
<polygon fill="white" stroke="#666666" points="633.62,-528.16 540.38,-528.16 540.38,-508.91 633.62,-508.91 633.62,-528.16"/>
<text text-anchor="middle" x="587" y="-514.66" font-family="Helvetica,sans-Serif" font-size="10.00">dSv_MiniGame_c</text>
</a>
</g>
</g>
<!-- Node28&#45;&gt;Node2 -->
<g id="edge30_Node000002_Node000028" class="edge">
<title>Node28&#45;&gt;Node2</title>
<g id="a_edge30_Node000002_Node000028"><a xlink:title=" ">
<path fill="none" stroke="#9a32cd" stroke-dasharray="5,2" d="M645.2,-507.04C665.36,-502.39 688.03,-496.46 708.25,-489.53 720.32,-485.39 733.35,-479.58 743.74,-474.6"/>
<polygon fill="#9a32cd" stroke="#9a32cd" points="644.44,-503.63 635.45,-509.23 645.97,-510.46 644.44,-503.63"/>
</a>
</g>
<text text-anchor="middle" x="680.88" y="-505.28" font-family="Helvetica,sans-Serif" font-size="10.00" fill="grey"> mMiniGame</text>
</g>
<!-- Node29 -->
<g id="Node000029" class="node">
<title>Node29</title>
<g id="a_Node000029"><a xlink:href="classdSv__danBit__c.html" target="_top" xlink:title=" ">
<polygon fill="white" stroke="#666666" points="803,-310.16 726.25,-310.16 726.25,-290.91 803,-290.91 803,-310.16"/>
<text text-anchor="middle" x="764.62" y="-296.66" font-family="Helvetica,sans-Serif" font-size="10.00">dSv_danBit_c</text>
</a>
</g>
</g>
<!-- Node29&#45;&gt;Node1 -->
<g id="edge32_Node000001_Node000029" class="edge">
<title>Node29&#45;&gt;Node1</title>
<g id="a_edge32_Node000001_Node000029"><a xlink:title=" ">
<path fill="none" stroke="#9a32cd" stroke-dasharray="5,2" d="M814.59,-299.7C834.68,-301.78 856.89,-307.51 872.75,-321.28 913.86,-356.99 920.77,-428.61 921.91,-454.72"/>
<polygon fill="#9a32cd" stroke="#9a32cd" points="815.13,-296.23 804.9,-298.99 814.62,-303.21 815.13,-296.23"/>
</a>
</g>
<text text-anchor="middle" x="846.88" y="-322.28" font-family="Helvetica,sans-Serif" font-size="10.00" fill="grey"> mDan</text>
</g>
<!-- Node30 -->
<g id="Node000030" class="node">
<title>Node30</title>
<g id="a_Node000030"><a xlink:href="classdSv__zone__c.html" target="_top" xlink:title=" ">
<polygon fill="white" stroke="#666666" points="799.25,-273.16 730,-273.16 730,-253.91 799.25,-253.91 799.25,-273.16"/>
<text text-anchor="middle" x="764.62" y="-259.66" font-family="Helvetica,sans-Serif" font-size="10.00">dSv_zone_c</text>
</a>
</g>
</g>
<!-- Node30&#45;&gt;Node1 -->
<g id="edge33_Node000001_Node000030" class="edge">
<title>Node30&#45;&gt;Node1</title>
<g id="a_edge33_Node000001_Node000030"><a xlink:title=" ">
<path fill="none" stroke="#9a32cd" stroke-dasharray="5,2" d="M811.12,-262.35C832.29,-264.17 856.37,-269.98 872.75,-285.28 922.77,-331.99 923.8,-424.26 922.68,-454.61"/>
<polygon fill="#9a32cd" stroke="#9a32cd" points="811.41,-258.86 801.23,-261.8 811.02,-265.85 811.41,-258.86"/>
</a>
</g>
<text text-anchor="middle" x="846.88" y="-286.28" font-family="Helvetica,sans-Serif" font-size="10.00" fill="grey"> mZone</text>
</g>
<!-- Node31 -->
<g id="Node000031" class="node">
<title>Node31</title>
<g id="a_Node000031"><a xlink:href="classdSv__zoneBit__c.html" target="_top" xlink:title=" ">
<polygon fill="white" stroke="#666666" points="627.62,-284.16 546.38,-284.16 546.38,-264.91 627.62,-264.91 627.62,-284.16"/>
<text text-anchor="middle" x="587" y="-270.66" font-family="Helvetica,sans-Serif" font-size="10.00">dSv_zoneBit_c</text>
</a>
</g>
</g>
<!-- Node31&#45;&gt;Node30 -->
<g id="edge34_Node000030_Node000031" class="edge">
<title>Node31&#45;&gt;Node30</title>
<g id="a_edge34_Node000030_Node000031"><a xlink:title=" ">
<path fill="none" stroke="#9a32cd" stroke-dasharray="5,2" d="M639.06,-271.33C668.17,-269.51 703.85,-267.28 729.55,-265.67"/>
<polygon fill="#9a32cd" stroke="#9a32cd" points="639.12,-267.82 629.36,-271.94 639.56,-274.81 639.12,-267.82"/>
</a>
</g>
<text text-anchor="middle" x="680.88" y="-272.28" font-family="Helvetica,sans-Serif" font-size="10.00" fill="grey"> mBit</text>
</g>
<!-- Node32 -->
<g id="Node000032" class="node">
<title>Node32</title>
<g id="a_Node000032"><a xlink:href="classdSv__zoneActor__c.html" target="_top" xlink:title=" ">
<polygon fill="white" stroke="#666666" points="633.25,-247.16 540.75,-247.16 540.75,-227.91 633.25,-227.91 633.25,-247.16"/>
<text text-anchor="middle" x="587" y="-233.66" font-family="Helvetica,sans-Serif" font-size="10.00">dSv_zoneActor_c</text>
</a>
</g>
</g>
<!-- Node32&#45;&gt;Node30 -->
<g id="edge35_Node000030_Node000032" class="edge">
<title>Node32&#45;&gt;Node30</title>
<g id="a_edge35_Node000030_Node000032"><a xlink:title=" ">
<path fill="none" stroke="#9a32cd" stroke-dasharray="5,2" d="M644.7,-243.56C664.82,-245.94 687.59,-248.92 708.25,-252.28 715.22,-253.42 722.65,-254.8 729.73,-256.21"/>
<polygon fill="#9a32cd" stroke="#9a32cd" points="645.36,-240.11 635.02,-242.44 644.55,-247.07 645.36,-240.11"/>
</a>
</g>
<text text-anchor="middle" x="680.88" y="-254.28" font-family="Helvetica,sans-Serif" font-size="10.00" fill="grey"> mActor</text>
</g>
<!-- Node33&#45;&gt;Node1 -->
<g id="edge36_Node000001_Node000033" class="edge">
<title>Node33&#45;&gt;Node1</title>
<g id="a_edge36_Node000001_Node000033"><a xlink:title=" ">
<path fill="none" stroke="#9a32cd" stroke-dasharray="5,2" d="M513.07,-784.67C583.65,-765.44 715.64,-721.7 803,-645.53 862.83,-593.37 904.96,-504.23 917.92,-474.51"/>
<polygon fill="#9a32cd" stroke="#9a32cd" points="512.51,-781.2 503.75,-787.16 514.31,-787.96 512.51,-781.2"/>
</a>
</g>
<text text-anchor="middle" x="680.88" y="-736.28" font-family="Helvetica,sans-Serif" font-size="10.00" fill="grey"> mRestart</text>
</g>
<!-- Node34&#45;&gt;Node1 -->
<g id="edge39_Node000001_Node000034" class="edge">
<title>Node34&#45;&gt;Node1</title>
<g id="a_edge39_Node000001_Node000034"><a xlink:title=" ">
<path fill="none" stroke="#9a32cd" stroke-dasharray="5,2" d="M614.65,-703.76C666.98,-672.16 785.67,-597.31 872.75,-518.53 888.39,-504.39 904.51,-485.88 913.91,-474.62"/>
<polygon fill="#9a32cd" stroke="#9a32cd" points="613.16,-700.57 606.39,-708.72 616.77,-706.57 613.16,-700.57"/>
</a>
</g>
<text text-anchor="middle" x="764.62" y="-632.28" font-family="Helvetica,sans-Serif" font-size="10.00" fill="grey"> mTurnRestart</text>
</g>
<!-- Node35&#45;&gt;Node34 -->
<g id="edge41_Node000034_Node000035" class="edge">
<title>Node35&#45;&gt;Node34</title>
<g id="a_edge41_Node000034_Node000035"><a xlink:title=" ">
<path fill="none" stroke="#9a32cd" stroke-dasharray="5,2" d="M400.05,-753.39C436.68,-747.88 480.92,-740.85 520.5,-733.53 526.9,-732.35 533.64,-731.01 540.26,-729.65"/>
<polygon fill="#9a32cd" stroke="#9a32cd" points="399.81,-749.88 390.44,-754.82 400.85,-756.81 399.81,-749.88"/>
</a>
</g>
<text text-anchor="middle" x="463.5" y="-753.28" font-family="Helvetica,sans-Serif" font-size="10.00" fill="grey"> mCamera</text>
</g>
</g>
</svg>

<g id="navigator" transform="translate(0 0)" fill="#404254">
  <rect fill="#f2f5e9" fill-opacity="0.5" stroke="#606060" stroke-width=".5" x="0" y="0" width="60" height="60"/>
  <use id="zoomplus" xlink:href="#zoomPlus" x="17" y="9" onmousedown="handleZoom(evt,'in')"/>
  <use id="zoomminus" xlink:href="#zoomMin" x="42" y="9" onmousedown="handleZoom(evt,'out')"/>
  <use id="reset" xlink:href="#resetDef" x="30" y="36" onmousedown="handleReset()"/>
   <use id="arrowup" xlink:href="#arrowUp" x="0" y="0" onmousedown="handlePan(0,-1)"/>
  <use id="arrowright" xlink:href="#arrowRight" x="0" y="0" onmousedown="handlePan(1,0)"/>
  <use id="arrowdown" xlink:href="#arrowDown" x="0" y="0" onmousedown="handlePan(0,1)"/>
  <use id="arrowleft" xlink:href="#arrowLeft" x="0" y="0" onmousedown="handlePan(-1,0)"/>
</g>
<svg viewBox="0 0 15 15" width="100%" height="30px" preserveAspectRatio="xMaxYMin meet">
 <g id="arrow_out" transform="scale(0.3 0.3)">
  <a xlink:href="structdSv__info__c__coll__graph_org.svg" target="_base">
   <rect id="button" ry="5" rx="5" y="6" x="6" height="38" width="38"
        fill="#f2f5e9" fill-opacity="0.5" stroke="#606060" stroke-width="1.0"/>
   <path id="arrow"
     d="M 11.500037,31.436501 C 11.940474,20.09759 22.043105,11.32322 32.158766,21.979434 L 37.068811,17.246167 C 37.068811,17.246167 37.088388,32 37.088388,32 L 22.160133,31.978069 C 22.160133,31.978069 26.997745,27.140456 26.997745,27.140456 C 18.528582,18.264221 13.291696,25.230495 11.500037,31.436501 z"
     style="fill:#404040;"/>
  </a>
 </g>
</svg>

<style type='text/css'>
<![CDATA[
[data-mouse-over-selected='false'] { opacity: 0.7; }
[data-mouse-over-selected='true']  { opacity: 1.0; }
]]>
</style>
<script type="application/ecmascript"><![CDATA[
document.addEventListener('DOMContentLoaded', (event) => {
  highlightEdges();
  highlightAdjacentNodes();
});
]]></script>
</svg>
