<?xml version="1.0" encoding="UTF-8" standalone="no"?>
<!DOCTYPE svg PUBLIC "-//W3C//DTD SVG 1.1//EN"
 "http://www.w3.org/Graphics/SVG/1.1/DTD/svg11.dtd">
<!-- Generated by graphviz version 9.0.0 (20230911.1827)
 -->
<!-- Title: dBgS_ObjGndChk Pages: 1 -->
<svg width="421pt" height="304pt"
 viewBox="0.00 0.00 421.38 303.50" xmlns="http://www.w3.org/2000/svg" xmlns:xlink="http://www.w3.org/1999/xlink">
<g id="graph0" class="graph" transform="scale(1 1) rotate(0) translate(4 299.5)">
<title>dBgS_ObjGndChk</title>
<!-- Node1 -->
<g id="Node000001" class="node">
<title>Node1</title>
<g id="a_Node000001"><a xlink:title=" ">
<polygon fill="#999999" stroke="#666666" points="235.75,-74.5 140.25,-74.5 140.25,-55.25 235.75,-55.25 235.75,-74.5"/>
<text text-anchor="middle" x="188" y="-61" font-family="Helvetica,sans-Serif" font-size="10.00">dBgS_ObjGndChk</text>
</a>
</g>
</g>
<!-- Node11 -->
<g id="Node000011" class="node">
<title>Node11</title>
<g id="a_Node000011"><a xlink:href="classdBgS__ObjGndChk__All.html" target="_top" xlink:title=" ">
<polygon fill="white" stroke="#666666" points="112,-19.25 0,-19.25 0,0 112,0 112,-19.25"/>
<text text-anchor="middle" x="56" y="-5.75" font-family="Helvetica,sans-Serif" font-size="10.00">dBgS_ObjGndChk_All</text>
</a>
</g>
</g>
<!-- Node1&#45;&gt;Node11 -->
<g id="edge10_Node000001_Node000011" class="edge">
<title>Node1&#45;&gt;Node11</title>
<g id="a_edge10_Node000001_Node000011"><a xlink:title=" ">
<path fill="none" stroke="#63b8ff" d="M155.25,-50.66C131.35,-41.02 99.59,-28.21 78.5,-19.7"/>
<polygon fill="#63b8ff" stroke="#63b8ff" points="153.62,-53.78 164.2,-54.28 156.24,-47.29 153.62,-53.78"/>
</a>
</g>
</g>
<!-- Node12 -->
<g id="Node000012" class="node">
<title>Node12</title>
<g id="a_Node000012"><a xlink:href="structdBgS__ObjGndChk__Spl.html" target="_top" xlink:title=" ">
<polygon fill="white" stroke="#666666" points="245.5,-19.25 130.5,-19.25 130.5,0 245.5,0 245.5,-19.25"/>
<text text-anchor="middle" x="188" y="-5.75" font-family="Helvetica,sans-Serif" font-size="10.00">dBgS_ObjGndChk_Spl</text>
</a>
</g>
</g>
<!-- Node1&#45;&gt;Node12 -->
<g id="edge11_Node000001_Node000012" class="edge">
<title>Node1&#45;&gt;Node12</title>
<g id="a_edge11_Node000001_Node000012"><a xlink:title=" ">
<path fill="none" stroke="#63b8ff" d="M188,-43.63C188,-35.34 188,-26.17 188,-19.61"/>
<polygon fill="#63b8ff" stroke="#63b8ff" points="184.5,-43.57 188,-53.57 191.5,-43.57 184.5,-43.57"/>
</a>
</g>
</g>
<!-- Node13 -->
<g id="Node000013" class="node">
<title>Node13</title>
<g id="a_Node000013"><a xlink:href="classdBgS__ObjGndChk__Wtr.html" target="_top" xlink:title=" ">
<polygon fill="white" stroke="#666666" points="378.88,-19.25 263.12,-19.25 263.12,0 378.88,0 378.88,-19.25"/>
<text text-anchor="middle" x="321" y="-5.75" font-family="Helvetica,sans-Serif" font-size="10.00">dBgS_ObjGndChk_Wtr</text>
</a>
</g>
</g>
<!-- Node1&#45;&gt;Node13 -->
<g id="edge12_Node000001_Node000013" class="edge">
<title>Node1&#45;&gt;Node13</title>
<g id="a_edge12_Node000001_Node000013"><a xlink:title=" ">
<path fill="none" stroke="#63b8ff" d="M221,-50.66C245.07,-41.02 277.08,-28.21 298.33,-19.7"/>
<polygon fill="#63b8ff" stroke="#63b8ff" points="219.95,-47.31 211.97,-54.28 222.55,-53.81 219.95,-47.31"/>
</a>
</g>
</g>
<!-- Node2 -->
<g id="Node000002" class="node">
<title>Node2</title>
<g id="a_Node000002"><a xlink:href="structdBgS__GndChk.html" target="_top" xlink:title=" ">
<polygon fill="white" stroke="#666666" points="228.25,-129.75 147.75,-129.75 147.75,-110.5 228.25,-110.5 228.25,-129.75"/>
<text text-anchor="middle" x="188" y="-116.25" font-family="Helvetica,sans-Serif" font-size="10.00">dBgS_GndChk</text>
</a>
</g>
</g>
<!-- Node2&#45;&gt;Node1 -->
<g id="edge1_Node000001_Node000002" class="edge">
<title>Node2&#45;&gt;Node1</title>
<g id="a_edge1_Node000001_Node000002"><a xlink:title=" ">
<path fill="none" stroke="#63b8ff" d="M188,-98.88C188,-90.59 188,-81.42 188,-74.86"/>
<polygon fill="#63b8ff" stroke="#63b8ff" points="184.5,-98.82 188,-108.82 191.5,-98.82 184.5,-98.82"/>
</a>
</g>
</g>
<!-- Node3 -->
<g id="Node000003" class="node">
<title>Node3</title>
<g id="a_Node000003"><a xlink:href="structcBgS__GndChk.html" target="_top" xlink:title=" ">
<polygon fill="white" stroke="#666666" points="173.25,-185 92.75,-185 92.75,-165.75 173.25,-165.75 173.25,-185"/>
<text text-anchor="middle" x="133" y="-171.5" font-family="Helvetica,sans-Serif" font-size="10.00">cBgS_GndChk</text>
</a>
</g>
</g>
<!-- Node3&#45;&gt;Node2 -->
<g id="edge2_Node000002_Node000003" class="edge">
<title>Node3&#45;&gt;Node2</title>
<g id="a_edge2_Node000002_Node000003"><a xlink:title=" ">
<path fill="none" stroke="#63b8ff" d="M150.35,-157.57C159.75,-148.48 170.98,-137.6 178.72,-130.11"/>
<polygon fill="#63b8ff" stroke="#63b8ff" points="147.92,-155.06 143.17,-164.53 152.79,-160.09 147.92,-155.06"/>
</a>
</g>
</g>
<!-- Node4 -->
<g id="Node000004" class="node">
<title>Node4</title>
<g id="a_Node000004"><a xlink:href="classcBgS__Chk.html" target="_top" xlink:title=" ">
<polygon fill="white" stroke="#666666" points="74.25,-240.25 11.75,-240.25 11.75,-221 74.25,-221 74.25,-240.25"/>
<text text-anchor="middle" x="43" y="-226.75" font-family="Helvetica,sans-Serif" font-size="10.00">cBgS_Chk</text>
</a>
</g>
</g>
<!-- Node4&#45;&gt;Node3 -->
<g id="edge3_Node000003_Node000004" class="edge">
<title>Node4&#45;&gt;Node3</title>
<g id="a_edge3_Node000003_Node000004"><a xlink:title=" ">
<path fill="none" stroke="#63b8ff" d="M68.02,-214.82C83.94,-205.4 104.06,-193.5 117.66,-185.45"/>
<polygon fill="#63b8ff" stroke="#63b8ff" points="66.39,-211.72 59.57,-219.82 69.96,-217.74 66.39,-211.72"/>
</a>
</g>
</g>
<!-- Node5 -->
<g id="Node000005" class="node">
<title>Node5</title>
<g id="a_Node000005"><a xlink:href="structcBgS__PolyInfo.html" target="_top" xlink:title=" ">
<polygon fill="white" stroke="#666666" points="173.25,-240.25 92.75,-240.25 92.75,-221 173.25,-221 173.25,-240.25"/>
<text text-anchor="middle" x="133" y="-226.75" font-family="Helvetica,sans-Serif" font-size="10.00">cBgS_PolyInfo</text>
</a>
</g>
</g>
<!-- Node5&#45;&gt;Node3 -->
<g id="edge4_Node000003_Node000005" class="edge">
<title>Node5&#45;&gt;Node3</title>
<g id="a_edge4_Node000003_Node000005"><a xlink:title=" ">
<path fill="none" stroke="#63b8ff" d="M133,-209.38C133,-201.09 133,-191.92 133,-185.36"/>
<polygon fill="#63b8ff" stroke="#63b8ff" points="129.5,-209.32 133,-219.32 136.5,-209.32 129.5,-209.32"/>
</a>
</g>
</g>
<!-- Node6 -->
<g id="Node000006" class="node">
<title>Node6</title>
<g id="a_Node000006"><a xlink:href="classdBgS__Chk.html" target="_top" xlink:title=" ">
<polygon fill="white" stroke="#666666" points="274.25,-185 211.75,-185 211.75,-165.75 274.25,-165.75 274.25,-185"/>
<text text-anchor="middle" x="243" y="-171.5" font-family="Helvetica,sans-Serif" font-size="10.00">dBgS_Chk</text>
</a>
</g>
</g>
<!-- Node6&#45;&gt;Node2 -->
<g id="edge5_Node000002_Node000006" class="edge">
<title>Node6&#45;&gt;Node2</title>
<g id="a_edge5_Node000002_Node000006"><a xlink:title=" ">
<path fill="none" stroke="#63b8ff" d="M225.65,-157.57C216.25,-148.48 205.02,-137.6 197.28,-130.11"/>
<polygon fill="#63b8ff" stroke="#63b8ff" points="223.21,-160.09 232.83,-164.53 228.08,-155.06 223.21,-160.09"/>
</a>
</g>
</g>
<!-- Node7 -->
<g id="Node000007" class="node">
<title>Node7</title>
<g id="a_Node000007"><a xlink:href="structdBgS__PolyPassChk.html" target="_top" xlink:title=" ">
<polygon fill="white" stroke="#666666" points="294.88,-240.25 191.12,-240.25 191.12,-221 294.88,-221 294.88,-240.25"/>
<text text-anchor="middle" x="243" y="-226.75" font-family="Helvetica,sans-Serif" font-size="10.00">dBgS_PolyPassChk</text>
</a>
</g>
</g>
<!-- Node7&#45;&gt;Node6 -->
<g id="edge6_Node000006_Node000007" class="edge">
<title>Node7&#45;&gt;Node6</title>
<g id="a_edge6_Node000006_Node000007"><a xlink:title=" ">
<path fill="none" stroke="#63b8ff" d="M243,-209.38C243,-201.09 243,-191.92 243,-185.36"/>
<polygon fill="#63b8ff" stroke="#63b8ff" points="239.5,-209.32 243,-219.32 246.5,-209.32 239.5,-209.32"/>
</a>
</g>
</g>
<!-- Node8 -->
<g id="Node000008" class="node">
<title>Node8</title>
<g id="a_Node000008"><a xlink:href="classcBgS__PolyPassChk.html" target="_top" xlink:title=" ">
<polygon fill="white" stroke="#666666" points="294.88,-295.5 191.12,-295.5 191.12,-276.25 294.88,-276.25 294.88,-295.5"/>
<text text-anchor="middle" x="243" y="-282" font-family="Helvetica,sans-Serif" font-size="10.00">cBgS_PolyPassChk</text>
</a>
</g>
</g>
<!-- Node8&#45;&gt;Node7 -->
<g id="edge7_Node000007_Node000008" class="edge">
<title>Node8&#45;&gt;Node7</title>
<g id="a_edge7_Node000007_Node000008"><a xlink:title=" ">
<path fill="none" stroke="#63b8ff" d="M243,-264.63C243,-256.34 243,-247.17 243,-240.61"/>
<polygon fill="#63b8ff" stroke="#63b8ff" points="239.5,-264.57 243,-274.57 246.5,-264.57 239.5,-264.57"/>
</a>
</g>
</g>
<!-- Node9 -->
<g id="Node000009" class="node">
<title>Node9</title>
<g id="a_Node000009"><a xlink:href="classdBgS__GrpPassChk.html" target="_top" xlink:title=" ">
<polygon fill="white" stroke="#666666" points="413.38,-240.25 312.62,-240.25 312.62,-221 413.38,-221 413.38,-240.25"/>
<text text-anchor="middle" x="363" y="-226.75" font-family="Helvetica,sans-Serif" font-size="10.00">dBgS_GrpPassChk</text>
</a>
</g>
</g>
<!-- Node9&#45;&gt;Node6 -->
<g id="edge8_Node000006_Node000009" class="edge">
<title>Node9&#45;&gt;Node6</title>
<g id="a_edge8_Node000006_Node000009"><a xlink:title=" ">
<path fill="none" stroke="#63b8ff" d="M332.34,-216.02C310.73,-206.43 282.37,-193.84 263.46,-185.45"/>
<polygon fill="#63b8ff" stroke="#63b8ff" points="330.7,-219.12 341.26,-219.98 333.54,-212.72 330.7,-219.12"/>
</a>
</g>
</g>
<!-- Node10 -->
<g id="Node000010" class="node">
<title>Node10</title>
<g id="a_Node000010"><a xlink:href="classcBgS__GrpPassChk.html" target="_top" xlink:title=" ">
<polygon fill="white" stroke="#666666" points="413.38,-295.5 312.62,-295.5 312.62,-276.25 413.38,-276.25 413.38,-295.5"/>
<text text-anchor="middle" x="363" y="-282" font-family="Helvetica,sans-Serif" font-size="10.00">cBgS_GrpPassChk</text>
</a>
</g>
</g>
<!-- Node10&#45;&gt;Node9 -->
<g id="edge9_Node000009_Node000010" class="edge">
<title>Node10&#45;&gt;Node9</title>
<g id="a_edge9_Node000009_Node000010"><a xlink:title=" ">
<path fill="none" stroke="#63b8ff" d="M363,-264.63C363,-256.34 363,-247.17 363,-240.61"/>
<polygon fill="#63b8ff" stroke="#63b8ff" points="359.5,-264.57 363,-274.57 366.5,-264.57 359.5,-264.57"/>
</a>
</g>
</g>
</g>
</svg>
