<?xml version="1.0" encoding="UTF-8" standalone="no"?>
<!DOCTYPE svg PUBLIC "-//W3C//DTD SVG 1.1//EN"
 "http://www.w3.org/Graphics/SVG/1.1/DTD/svg11.dtd">
<!-- Generated by graphviz version 9.0.0 (20230911.1827)
 -->
<!-- Title: dPa_levelEcallBack Pages: 1 -->
<svg width="424pt" height="286pt"
 viewBox="0.00 0.00 423.50 286.25" xmlns="http://www.w3.org/2000/svg" xmlns:xlink="http://www.w3.org/1999/xlink">
<g id="graph0" class="graph" transform="scale(1 1) rotate(0) translate(4 282.25)">
<title>dPa_levelEcallBack</title>
<!-- Node1 -->
<g id="Node000001" class="node">
<title>Node1</title>
<g id="a_Node000001"><a xlink:title=" ">
<polygon fill="#999999" stroke="#666666" points="242.75,-148.25 140.5,-148.25 140.5,-129 242.75,-129 242.75,-148.25"/>
<text text-anchor="middle" x="191.62" y="-134.75" font-family="Helvetica,sans-Serif" font-size="10.00">dPa_levelEcallBack</text>
</a>
</g>
</g>
<!-- Node3 -->
<g id="Node000003" class="node">
<title>Node3</title>
<g id="a_Node000003"><a xlink:href="classdPa__followEcallBack.html" target="_top" xlink:title=" ">
<polygon fill="white" stroke="#666666" points="400.88,-278.25 293.38,-278.25 293.38,-259 400.88,-259 400.88,-278.25"/>
<text text-anchor="middle" x="347.12" y="-264.75" font-family="Helvetica,sans-Serif" font-size="10.00">dPa_followEcallBack</text>
</a>
</g>
</g>
<!-- Node1&#45;&gt;Node3 -->
<g id="edge2_Node000001_Node000003" class="edge">
<title>Node1&#45;&gt;Node3</title>
<g id="a_edge2_Node000001_Node000003"><a xlink:title=" ">
<path fill="none" stroke="#63b8ff" d="M202.49,-158.35C216.15,-183.6 243.2,-226.91 278.75,-250.62 283.48,-253.78 288.75,-256.39 294.2,-258.54"/>
<polygon fill="#63b8ff" stroke="#63b8ff" points="205.76,-157.04 198.03,-149.79 199.55,-160.28 205.76,-157.04"/>
</a>
</g>
</g>
<!-- Node4 -->
<g id="Node000004" class="node">
<title>Node4</title>
<g id="a_Node000004"><a xlink:href="classdPa__gen__b__light8EcallBack.html" target="_top" xlink:title=" ">
<polygon fill="white" stroke="#666666" points="415.5,-241.25 278.75,-241.25 278.75,-222 415.5,-222 415.5,-241.25"/>
<text text-anchor="middle" x="347.12" y="-227.75" font-family="Helvetica,sans-Serif" font-size="10.00">dPa_gen_b_light8EcallBack</text>
</a>
</g>
</g>
<!-- Node1&#45;&gt;Node4 -->
<g id="edge3_Node000001_Node000004" class="edge">
<title>Node1&#45;&gt;Node4</title>
<g id="a_edge3_Node000001_Node000004"><a xlink:title=" ">
<path fill="none" stroke="#63b8ff" d="M208.55,-156.59C224.64,-173.67 251.02,-198.88 278.75,-213.62 284.63,-216.75 291.09,-219.37 297.62,-221.54"/>
<polygon fill="#63b8ff" stroke="#63b8ff" points="211.48,-154.61 202.14,-149.61 206.33,-159.35 211.48,-154.61"/>
</a>
</g>
</g>
<!-- Node5 -->
<g id="Node000005" class="node">
<title>Node5</title>
<g id="a_Node000005"><a xlink:href="classdPa__gen__d__light8EcallBack.html" target="_top" xlink:title=" ">
<polygon fill="white" stroke="#666666" points="415.5,-204.25 278.75,-204.25 278.75,-185 415.5,-185 415.5,-204.25"/>
<text text-anchor="middle" x="347.12" y="-190.75" font-family="Helvetica,sans-Serif" font-size="10.00">dPa_gen_d_light8EcallBack</text>
</a>
</g>
</g>
<!-- Node1&#45;&gt;Node5 -->
<g id="edge4_Node000001_Node000005" class="edge">
<title>Node1&#45;&gt;Node5</title>
<g id="a_edge4_Node000001_Node000005"><a xlink:title=" ">
<path fill="none" stroke="#63b8ff" d="M222.84,-153.33C239.15,-160.91 259.78,-169.95 278.75,-176.62 286.97,-179.52 295.9,-182.21 304.48,-184.58"/>
<polygon fill="#63b8ff" stroke="#63b8ff" points="224.71,-150.34 214.17,-149.24 221.72,-156.67 224.71,-150.34"/>
</a>
</g>
</g>
<!-- Node6 -->
<g id="Node000006" class="node">
<title>Node6</title>
<g id="a_Node000006"><a xlink:href="classdPa__hermiteEcallBack__c.html" target="_top" xlink:title=" ">
<polygon fill="white" stroke="#666666" points="409.5,-167.25 284.75,-167.25 284.75,-148 409.5,-148 409.5,-167.25"/>
<text text-anchor="middle" x="347.12" y="-153.75" font-family="Helvetica,sans-Serif" font-size="10.00">dPa_hermiteEcallBack_c</text>
</a>
</g>
</g>
<!-- Node1&#45;&gt;Node6 -->
<g id="edge5_Node000001_Node000006" class="edge">
<title>Node1&#45;&gt;Node6</title>
<g id="a_edge5_Node000001_Node000006"><a xlink:title=" ">
<path fill="none" stroke="#63b8ff" d="M254.02,-146.22C264.05,-147.47 274.45,-148.75 284.49,-150"/>
<polygon fill="#63b8ff" stroke="#63b8ff" points="254.74,-142.79 244.39,-145.03 253.88,-149.73 254.74,-142.79"/>
</a>
</g>
</g>
<!-- Node7 -->
<g id="Node000007" class="node">
<title>Node7</title>
<g id="a_Node000007"><a xlink:href="classdPa__light8EcallBack.html" target="_top" xlink:title=" ">
<polygon fill="white" stroke="#666666" points="399.75,-130.25 294.5,-130.25 294.5,-111 399.75,-111 399.75,-130.25"/>
<text text-anchor="middle" x="347.12" y="-116.75" font-family="Helvetica,sans-Serif" font-size="10.00">dPa_light8EcallBack</text>
</a>
</g>
</g>
<!-- Node1&#45;&gt;Node7 -->
<g id="edge6_Node000001_Node000007" class="edge">
<title>Node1&#45;&gt;Node7</title>
<g id="a_edge6_Node000001_Node000007"><a xlink:title=" ">
<path fill="none" stroke="#63b8ff" d="M254.3,-131.39C267.52,-129.84 281.36,-128.22 294.17,-126.72"/>
<polygon fill="#63b8ff" stroke="#63b8ff" points="253.91,-127.91 244.39,-132.55 254.73,-134.87 253.91,-127.91"/>
</a>
</g>
</g>
<!-- Node8 -->
<g id="Node000008" class="node">
<title>Node8</title>
<g id="a_Node000008"><a xlink:href="classdPa__modelEcallBack.html" target="_top" xlink:title=" ">
<polygon fill="white" stroke="#666666" points="401.25,-93.25 293,-93.25 293,-74 401.25,-74 401.25,-93.25"/>
<text text-anchor="middle" x="347.12" y="-79.75" font-family="Helvetica,sans-Serif" font-size="10.00">dPa_modelEcallBack</text>
</a>
</g>
</g>
<!-- Node1&#45;&gt;Node8 -->
<g id="edge7_Node000001_Node000008" class="edge">
<title>Node1&#45;&gt;Node8</title>
<g id="a_edge7_Node000001_Node000008"><a xlink:title=" ">
<path fill="none" stroke="#63b8ff" d="M223.99,-123.85C240.14,-116.58 260.26,-108.03 278.75,-101.62 286.99,-98.77 295.92,-96.1 304.51,-93.73"/>
<polygon fill="#63b8ff" stroke="#63b8ff" points="222.54,-120.67 214.9,-128.01 225.45,-127.03 222.54,-120.67"/>
</a>
</g>
</g>
<!-- Node9 -->
<g id="Node000009" class="node">
<title>Node9</title>
<g id="a_Node000009"><a xlink:href="classdPa__selectTexEcallBack.html" target="_top" xlink:title=" ">
<polygon fill="white" stroke="#666666" points="409.12,-56.25 285.12,-56.25 285.12,-37 409.12,-37 409.12,-56.25"/>
<text text-anchor="middle" x="347.12" y="-42.75" font-family="Helvetica,sans-Serif" font-size="10.00">dPa_selectTexEcallBack</text>
</a>
</g>
</g>
<!-- Node1&#45;&gt;Node9 -->
<g id="edge8_Node000001_Node000009" class="edge">
<title>Node1&#45;&gt;Node9</title>
<g id="a_edge8_Node000001_Node000009"><a xlink:title=" ">
<path fill="none" stroke="#63b8ff" d="M208.86,-120.64C225,-103.8 251.28,-79.12 278.75,-64.62 284.64,-61.52 291.11,-58.92 297.64,-56.74"/>
<polygon fill="#63b8ff" stroke="#63b8ff" points="206.69,-117.83 202.41,-127.53 211.8,-122.61 206.69,-117.83"/>
</a>
</g>
</g>
<!-- Node10 -->
<g id="Node000010" class="node">
<title>Node10</title>
<g id="a_Node000010"><a xlink:href="classdPa__setColorEcallBack.html" target="_top" xlink:title=" ">
<polygon fill="white" stroke="#666666" points="406.12,-19.25 288.12,-19.25 288.12,0 406.12,0 406.12,-19.25"/>
<text text-anchor="middle" x="347.12" y="-5.75" font-family="Helvetica,sans-Serif" font-size="10.00">dPa_setColorEcallBack</text>
</a>
</g>
</g>
<!-- Node1&#45;&gt;Node10 -->
<g id="edge9_Node000001_Node000010" class="edge">
<title>Node1&#45;&gt;Node10</title>
<g id="a_edge9_Node000001_Node000010"><a xlink:title=" ">
<path fill="none" stroke="#63b8ff" d="M202.74,-118.7C216.51,-93.62 243.52,-51.01 278.75,-27.62 283.49,-24.48 288.76,-21.88 294.21,-19.74"/>
<polygon fill="#63b8ff" stroke="#63b8ff" points="199.82,-116.75 198.23,-127.22 206,-120.02 199.82,-116.75"/>
</a>
</g>
</g>
<!-- Node2 -->
<g id="Node000002" class="node">
<title>Node2</title>
<g id="a_Node000002"><a xlink:href="classJPAEmitterCallBack.html" target="_top" xlink:title=" ">
<polygon fill="white" stroke="#666666" points="104.5,-148.25 0,-148.25 0,-129 104.5,-129 104.5,-148.25"/>
<text text-anchor="middle" x="52.25" y="-134.75" font-family="Helvetica,sans-Serif" font-size="10.00">JPAEmitterCallBack</text>
</a>
</g>
</g>
<!-- Node2&#45;&gt;Node1 -->
<g id="edge1_Node000001_Node000002" class="edge">
<title>Node2&#45;&gt;Node1</title>
<g id="a_edge1_Node000001_Node000002"><a xlink:title=" ">
<path fill="none" stroke="#63b8ff" d="M116.08,-138.62C124.15,-138.62 132.33,-138.62 140.16,-138.62"/>
<polygon fill="#63b8ff" stroke="#63b8ff" points="116.31,-135.13 106.31,-138.63 116.31,-142.13 116.31,-135.13"/>
</a>
</g>
</g>
</g>
</svg>
