<?xml version="1.0" encoding="UTF-8" standalone="no"?>
<!DOCTYPE svg PUBLIC "-//W3C//DTD SVG 1.1//EN"
 "http://www.w3.org/Graphics/SVG/1.1/DTD/svg11.dtd">
<!-- Generated by graphviz version 9.0.0 (20230911.1827)
 -->
<!-- Title: JStudio_JStage::TAdaptor_actor Pages: 1 -->
<svg width="1270pt" height="522pt"
 viewBox="0.00 0.00 1269.75 522.12" xmlns="http://www.w3.org/2000/svg" xmlns:xlink="http://www.w3.org/1999/xlink">
<g id="graph0" class="graph" transform="scale(1 1) rotate(0) translate(4 518.12)">
<title>JStudio_JStage::TAdaptor_actor</title>
<!-- Node1 -->
<g id="Node000001" class="node">
<title>Node1</title>
<g id="a_Node000001"><a xlink:title=" ">
<polygon fill="#999999" stroke="#666666" points="1261.75,-142.5 1132.5,-142.5 1132.5,-112 1261.75,-112 1261.75,-142.5"/>
<text text-anchor="start" x="1140.5" y="-129" font-family="Helvetica,sans-Serif" font-size="10.00">JStudio_JStage::TAdaptor</text>
<text text-anchor="middle" x="1197.12" y="-117.75" font-family="Helvetica,sans-Serif" font-size="10.00">_actor</text>
</a>
</g>
</g>
<!-- Node2 -->
<g id="Node000002" class="node">
<title>Node2</title>
<g id="a_Node000002"><a xlink:href="structJStudio_1_1TAdaptor__actor.html" target="_top" xlink:title=" ">
<polygon fill="white" stroke="#666666" points="1011.75,-296.88 891.5,-296.88 891.5,-277.62 1011.75,-277.62 1011.75,-296.88"/>
<text text-anchor="middle" x="951.62" y="-283.38" font-family="Helvetica,sans-Serif" font-size="10.00">JStudio::TAdaptor_actor</text>
</a>
</g>
</g>
<!-- Node2&#45;&gt;Node1 -->
<g id="edge1_Node000001_Node000002" class="edge">
<title>Node2&#45;&gt;Node1</title>
<g id="a_edge1_Node000001_Node000002"><a xlink:title=" ">
<path fill="none" stroke="#63b8ff" d="M1007.74,-273.16C1010.66,-271.95 1013.52,-270.65 1016.25,-269.25 1084.29,-234.52 1151.45,-172.01 1180.78,-142.93"/>
<polygon fill="#63b8ff" stroke="#63b8ff" points="1006.53,-269.87 998.37,-276.62 1008.96,-276.43 1006.53,-269.87"/>
</a>
</g>
</g>
<!-- Node3 -->
<g id="Node000003" class="node">
<title>Node3</title>
<g id="a_Node000003"><a xlink:href="structJStudio_1_1TAdaptor.html" target="_top" xlink:title=" ">
<polygon fill="white" stroke="#666666" points="679,-265.88 585.75,-265.88 585.75,-246.62 679,-246.62 679,-265.88"/>
<text text-anchor="middle" x="632.38" y="-252.38" font-family="Helvetica,sans-Serif" font-size="10.00">JStudio::TAdaptor</text>
</a>
</g>
</g>
<!-- Node3&#45;&gt;Node2 -->
<g id="edge2_Node000002_Node000003" class="edge">
<title>Node3&#45;&gt;Node2</title>
<g id="a_edge2_Node000002_Node000003"><a xlink:title=" ">
<path fill="none" stroke="#63b8ff" d="M690.6,-265.56C697.55,-266.54 704.55,-267.47 711.25,-268.25 772.53,-275.39 842.96,-280.63 891.48,-283.77"/>
<polygon fill="#63b8ff" stroke="#63b8ff" points="691.32,-262.13 680.92,-264.14 690.3,-269.05 691.32,-262.13"/>
</a>
</g>
</g>
<!-- Node4 -->
<g id="Node000004" class="node">
<title>Node4</title>
<g id="a_Node000004"><a xlink:href="classJStudio_1_1TObject.html" target="_top" xlink:title=" ">
<polygon fill="white" stroke="#666666" points="995.62,-259.88 907.62,-259.88 907.62,-240.62 995.62,-240.62 995.62,-259.88"/>
<text text-anchor="middle" x="951.62" y="-246.38" font-family="Helvetica,sans-Serif" font-size="10.00">JStudio::TObject</text>
</a>
</g>
</g>
<!-- Node3&#45;&gt;Node4 -->
<g id="edge16_Node000004_Node000003" class="edge">
<title>Node3&#45;&gt;Node4</title>
<g id="a_edge16_Node000004_Node000003"><a xlink:title=" ">
<path fill="none" stroke="#9a32cd" stroke-dasharray="5,2" d="M690.35,-255.17C752.56,-254 850.83,-252.14 907.14,-251.07"/>
<polygon fill="#9a32cd" stroke="#9a32cd" points="690.61,-251.67 680.68,-255.36 690.74,-258.67 690.61,-251.67"/>
</a>
</g>
<text text-anchor="middle" x="790.12" y="-256" font-family="Helvetica,sans-Serif" font-size="10.00" fill="grey"> mpAdaptor</text>
</g>
<!-- Node4&#45;&gt;Node3 -->
<g id="edge3_Node000003_Node000004" class="edge">
<title>Node4&#45;&gt;Node3</title>
<g id="a_edge3_Node000003_Node000004"><a xlink:title=" ">
<path fill="none" stroke="#9a32cd" stroke-dasharray="5,2" d="M916.76,-236.22C902.31,-230.96 885.1,-225.62 869,-223 799.8,-211.75 779.94,-208.95 711.25,-223 689.65,-227.42 666.62,-238.08 651.26,-246.14"/>
<polygon fill="#9a32cd" stroke="#9a32cd" points="915.2,-239.37 925.79,-239.65 917.68,-232.83 915.2,-239.37"/>
</a>
</g>
<text text-anchor="middle" x="790.12" y="-224" font-family="Helvetica,sans-Serif" font-size="10.00" fill="grey"> pObject_</text>
</g>
<!-- Node5 -->
<g id="Node000005" class="node">
<title>Node5</title>
<g id="a_Node000005"><a xlink:href="classJStudio_1_1stb_1_1TObject.html" target="_top" xlink:title=" ">
<polygon fill="white" stroke="#666666" points="685.38,-381.88 579.38,-381.88 579.38,-362.62 685.38,-362.62 685.38,-381.88"/>
<text text-anchor="middle" x="632.38" y="-368.38" font-family="Helvetica,sans-Serif" font-size="10.00">JStudio::stb::TObject</text>
</a>
</g>
</g>
<!-- Node5&#45;&gt;Node4 -->
<g id="edge4_Node000004_Node000005" class="edge">
<title>Node5&#45;&gt;Node4</title>
<g id="a_edge4_Node000004_Node000005"><a xlink:title=" ">
<path fill="none" stroke="#63b8ff" d="M665.77,-357.58C713.55,-336.26 806.04,-296.2 887,-268.25 895.14,-265.44 903.97,-262.73 912.39,-260.31"/>
<polygon fill="#63b8ff" stroke="#63b8ff" points="664.52,-354.3 656.82,-361.59 667.38,-360.69 664.52,-354.3"/>
</a>
</g>
</g>
<!-- Node13 -->
<g id="Node000013" class="node">
<title>Node13</title>
<g id="a_Node000013"><a xlink:href="classJStudio_1_1stb_1_1TObject__control.html" target="_top" xlink:title=" ">
<polygon fill="white" stroke="#666666" points="1004.62,-454.5 898.62,-454.5 898.62,-424 1004.62,-424 1004.62,-454.5"/>
<text text-anchor="start" x="906.62" y="-441" font-family="Helvetica,sans-Serif" font-size="10.00">JStudio::stb::TObject</text>
<text text-anchor="middle" x="951.62" y="-429.75" font-family="Helvetica,sans-Serif" font-size="10.00">_control</text>
</a>
</g>
</g>
<!-- Node5&#45;&gt;Node13 -->
<g id="edge15_Node000013_Node000005" class="edge">
<title>Node5&#45;&gt;Node13</title>
<g id="a_edge15_Node000013_Node000005"><a xlink:title=" ">
<path fill="none" stroke="#63b8ff" d="M692.23,-384.68C751.31,-397.16 841.46,-416.2 898.16,-428.17"/>
<polygon fill="#63b8ff" stroke="#63b8ff" points="693.2,-381.31 682.69,-382.67 691.76,-388.16 693.2,-381.31"/>
</a>
</g>
</g>
<!-- Node6 -->
<g id="Node000006" class="node">
<title>Node6</title>
<g id="a_Node000006"><a xlink:href="structJStudio_1_1object_1_1TObject__ID.html" target="_top" xlink:title=" ">
<polygon fill="white" stroke="#666666" points="333.5,-381.88 199.75,-381.88 199.75,-362.62 333.5,-362.62 333.5,-381.88"/>
<text text-anchor="middle" x="266.62" y="-368.38" font-family="Helvetica,sans-Serif" font-size="10.00">JStudio::object::TObject_ID</text>
</a>
</g>
</g>
<!-- Node6&#45;&gt;Node5 -->
<g id="edge5_Node000005_Node000006" class="edge">
<title>Node6&#45;&gt;Node5</title>
<g id="a_edge5_Node000005_Node000006"><a xlink:title=" ">
<path fill="none" stroke="#63b8ff" d="M345.39,-372.25C415.89,-372.25 517.86,-372.25 579.08,-372.25"/>
<polygon fill="#63b8ff" stroke="#63b8ff" points="345.43,-368.75 335.43,-372.25 345.43,-375.75 345.43,-368.75"/>
</a>
</g>
</g>
<!-- Node7 -->
<g id="Node000007" class="node">
<title>Node7</title>
<g id="a_Node000007"><a xlink:href="structJStudio_1_1object_1_1TIDData.html" target="_top" xlink:title=" ">
<polygon fill="white" stroke="#666666" points="121,-381.88 0.75,-381.88 0.75,-362.62 121,-362.62 121,-381.88"/>
<text text-anchor="middle" x="60.88" y="-368.38" font-family="Helvetica,sans-Serif" font-size="10.00">JStudio::object::TIDData</text>
</a>
</g>
</g>
<!-- Node7&#45;&gt;Node6 -->
<g id="edge6_Node000006_Node000007" class="edge">
<title>Node7&#45;&gt;Node6</title>
<g id="a_edge6_Node000006_Node000007"><a xlink:title=" ">
<path fill="none" stroke="#63b8ff" d="M132.77,-372.25C154.36,-372.25 178,-372.25 199.28,-372.25"/>
<polygon fill="#63b8ff" stroke="#63b8ff" points="132.87,-368.75 122.87,-372.25 132.87,-375.75 132.87,-368.75"/>
</a>
</g>
</g>
<!-- Node8 -->
<g id="Node000008" class="node">
<title>Node8</title>
<g id="a_Node000008"><a xlink:href="structJGadget_1_1TLinkListNode.html" target="_top" xlink:title=" ">
<polygon fill="white" stroke="#666666" points="327.5,-433.88 205.75,-433.88 205.75,-414.62 327.5,-414.62 327.5,-433.88"/>
<text text-anchor="middle" x="266.62" y="-420.38" font-family="Helvetica,sans-Serif" font-size="10.00">JGadget::TLinkListNode</text>
</a>
</g>
</g>
<!-- Node8&#45;&gt;Node5 -->
<g id="edge7_Node000005_Node000008" class="edge">
<title>Node8&#45;&gt;Node5</title>
<g id="a_edge7_Node000005_Node000008"><a xlink:title=" ">
<path fill="none" stroke="#9a32cd" stroke-dasharray="5,2" d="M339.2,-415.66C397.1,-408.48 480.69,-397.63 553.5,-386.25 561.78,-384.96 570.53,-383.48 579.07,-381.99"/>
<polygon fill="#9a32cd" stroke="#9a32cd" points="338.97,-412.16 329.48,-416.86 339.83,-419.11 338.97,-412.16"/>
</a>
</g>
<text text-anchor="middle" x="452.5" y="-415" font-family="Helvetica,sans-Serif" font-size="10.00" fill="grey"> ocObject_</text>
</g>
<!-- Node8&#45;&gt;Node8 -->
<g id="edge8_Node000008_Node000008" class="edge">
<title>Node8&#45;&gt;Node8</title>
<g id="a_edge8_Node000008_Node000008"><a xlink:title=" ">
<path fill="none" stroke="#9a32cd" stroke-dasharray="5,2" d="M247.83,-445.28C250.18,-449.15 256.45,-451.88 266.62,-451.88 285.24,-451.88 290.76,-442.77 283.2,-434.16"/>
<polygon fill="#9a32cd" stroke="#9a32cd" points="251.23,-446.14 249.75,-435.65 244.36,-444.77 251.23,-446.14"/>
</a>
</g>
<text text-anchor="middle" x="266.62" y="-464.88" font-family="Helvetica,sans-Serif" font-size="10.00" fill="grey"> mNext</text>
<text text-anchor="middle" x="266.62" y="-453.62" font-family="Helvetica,sans-Serif" font-size="10.00" fill="grey">mPrev</text>
</g>
<!-- Node12 -->
<g id="Node000012" class="node">
<title>Node12</title>
<g id="a_Node000012"><a xlink:href="structJGadget_1_1TNodeLinkList.html" target="_top" xlink:title=" ">
<polygon fill="white" stroke="#666666" points="693.25,-470.88 571.5,-470.88 571.5,-451.62 693.25,-451.62 693.25,-470.88"/>
<text text-anchor="middle" x="632.38" y="-457.38" font-family="Helvetica,sans-Serif" font-size="10.00">JGadget::TNodeLinkList</text>
</a>
</g>
</g>
<!-- Node8&#45;&gt;Node12 -->
<g id="edge13_Node000012_Node000008" class="edge">
<title>Node8&#45;&gt;Node12</title>
<g id="a_edge13_Node000012_Node000008"><a xlink:title=" ">
<path fill="none" stroke="#9a32cd" stroke-dasharray="5,2" d="M339.11,-431.52C406.85,-438.41 507.47,-448.65 571.22,-455.13"/>
<polygon fill="#9a32cd" stroke="#9a32cd" points="339.5,-428.04 329.2,-430.51 338.79,-435.01 339.5,-428.04"/>
</a>
</g>
<text text-anchor="middle" x="452.5" y="-455" font-family="Helvetica,sans-Serif" font-size="10.00" fill="grey"> ocObject_</text>
</g>
<!-- Node9 -->
<g id="Node000009" class="node">
<title>Node9</title>
<g id="a_Node000009"><a xlink:href="classJStudio_1_1stb_1_1TControl.html" target="_top" xlink:title=" ">
<polygon fill="white" stroke="#666666" points="1251.25,-424.88 1143,-424.88 1143,-405.62 1251.25,-405.62 1251.25,-424.88"/>
<text text-anchor="middle" x="1197.12" y="-411.38" font-family="Helvetica,sans-Serif" font-size="10.00">JStudio::stb::TControl</text>
</a>
</g>
</g>
<!-- Node9&#45;&gt;Node5 -->
<g id="edge9_Node000005_Node000009" class="edge">
<title>Node9&#45;&gt;Node5</title>
<g id="a_edge9_Node000005_Node000009"><a xlink:title=" ">
<path fill="none" stroke="#9a32cd" stroke-dasharray="5,2" d="M1158.07,-401.56C1122.08,-389.4 1066.29,-372.57 1016.25,-366 898.92,-350.6 759.65,-359.64 685.67,-366.57"/>
<polygon fill="#9a32cd" stroke="#9a32cd" points="1156.54,-404.73 1167.14,-404.67 1158.82,-398.11 1156.54,-404.73"/>
</a>
</g>
<text text-anchor="middle" x="951.62" y="-367" font-family="Helvetica,sans-Serif" font-size="10.00" fill="grey"> pControl</text>
</g>
<!-- Node10 -->
<g id="Node000010" class="node">
<title>Node10</title>
<g id="a_Node000010"><a xlink:href="classJStudio_1_1stb_1_1TFactory.html" target="_top" xlink:title=" ">
<polygon fill="white" stroke="#666666" points="1006.5,-405.88 896.75,-405.88 896.75,-386.62 1006.5,-386.62 1006.5,-405.88"/>
<text text-anchor="middle" x="951.62" y="-392.38" font-family="Helvetica,sans-Serif" font-size="10.00">JStudio::stb::TFactory</text>
</a>
</g>
</g>
<!-- Node10&#45;&gt;Node9 -->
<g id="edge10_Node000009_Node000010" class="edge">
<title>Node10&#45;&gt;Node9</title>
<g id="a_edge10_Node000009_Node000010"><a xlink:title=" ">
<path fill="none" stroke="#9a32cd" stroke-dasharray="5,2" d="M1018.14,-396.04C1047.65,-396.49 1082.89,-397.79 1114.5,-401 1124.38,-402 1134.86,-403.5 1144.9,-405.15"/>
<polygon fill="#9a32cd" stroke="#9a32cd" points="1018.26,-392.54 1008.22,-395.92 1018.18,-399.54 1018.26,-392.54"/>
</a>
</g>
<text text-anchor="middle" x="1074.38" y="-402" font-family="Helvetica,sans-Serif" font-size="10.00" fill="grey"> pFactory</text>
</g>
<!-- Node11 -->
<g id="Node000011" class="node">
<title>Node11</title>
<g id="a_Node000011"><a xlink:href="structJGadget_1_1TLinkList.html" target="_top" xlink:title=" ">
<polygon fill="white" stroke="#666666" points="1010.25,-514.12 893,-514.12 893,-472.38 1010.25,-472.38 1010.25,-514.12"/>
<text text-anchor="start" x="901" y="-500.62" font-family="Helvetica,sans-Serif" font-size="10.00">JGadget::TLinkList</text>
<text text-anchor="start" x="901" y="-489.38" font-family="Helvetica,sans-Serif" font-size="10.00">&lt; JStudio::stb::TObject,</text>
<text text-anchor="middle" x="951.62" y="-478.12" font-family="Helvetica,sans-Serif" font-size="10.00"> &#45;12 &gt;</text>
</a>
</g>
</g>
<!-- Node11&#45;&gt;Node9 -->
<g id="edge11_Node000009_Node000011" class="edge">
<title>Node11&#45;&gt;Node9</title>
<g id="a_edge11_Node000009_Node000011"><a xlink:title=" ">
<path fill="none" stroke="#9a32cd" stroke-dasharray="5,2" d="M1021.4,-473.91C1050.28,-465.52 1084.15,-455.31 1114.5,-445.25 1133.27,-439.02 1154.21,-431.31 1170.17,-425.27"/>
<polygon fill="#9a32cd" stroke="#9a32cd" points="1020.68,-470.47 1012.05,-476.61 1022.62,-477.2 1020.68,-470.47"/>
</a>
</g>
<text text-anchor="middle" x="1074.38" y="-471" font-family="Helvetica,sans-Serif" font-size="10.00" fill="grey"> mObjectContainer</text>
</g>
<!-- Node12&#45;&gt;Node11 -->
<g id="edge12_Node000011_Node000012" class="edge">
<title>Node12&#45;&gt;Node11</title>
<g id="a_edge12_Node000011_Node000012"><a xlink:title=" ">
<path fill="none" stroke="#63b8ff" d="M704.82,-468.46C761.54,-474.18 839.84,-482.08 892.7,-487.41"/>
<polygon fill="#63b8ff" stroke="#63b8ff" points="705.23,-464.98 694.93,-467.46 704.52,-471.94 705.23,-464.98"/>
</a>
</g>
</g>
<!-- Node13&#45;&gt;Node9 -->
<g id="edge14_Node000009_Node000013" class="edge">
<title>Node13&#45;&gt;Node9</title>
<g id="a_edge14_Node000009_Node000013"><a xlink:title=" ">
<path fill="none" stroke="#9a32cd" stroke-dasharray="5,2" d="M1016.18,-432.99C1055.51,-429.11 1105.43,-424.19 1142.71,-420.51"/>
<polygon fill="#9a32cd" stroke="#9a32cd" points="1015.98,-429.49 1006.37,-433.95 1016.66,-436.46 1015.98,-429.49"/>
</a>
</g>
<text text-anchor="middle" x="1074.38" y="-432" font-family="Helvetica,sans-Serif" font-size="10.00" fill="grey"> mObject_control</text>
</g>
<!-- Node14 -->
<g id="Node000014" class="node">
<title>Node14</title>
<g id="a_Node000014"><a xlink:href="structJStudio_1_1TVariableValue.html" target="_top" xlink:title=" ">
<polygon fill="white" stroke="#666666" points="326.38,-265.88 206.88,-265.88 206.88,-246.62 326.38,-246.62 326.38,-265.88"/>
<text text-anchor="middle" x="266.62" y="-252.38" font-family="Helvetica,sans-Serif" font-size="10.00">JStudio::TVariableValue</text>
</a>
</g>
</g>
<!-- Node14&#45;&gt;Node2 -->
<g id="edge20_Node000002_Node000014" class="edge">
<title>Node14&#45;&gt;Node2</title>
<g id="a_edge20_Node000002_Node000014"><a xlink:title=" ">
<path fill="none" stroke="#9a32cd" stroke-dasharray="5,2" d="M329.27,-268.21C336.74,-269.38 344.28,-270.44 351.5,-271.25 548.22,-293.39 783.44,-291.46 891.29,-289.01"/>
<polygon fill="#9a32cd" stroke="#9a32cd" points="329.96,-264.78 319.53,-266.6 328.82,-271.69 329.96,-264.78"/>
</a>
</g>
<text text-anchor="middle" x="632.38" y="-291" font-family="Helvetica,sans-Serif" font-size="10.00" fill="grey"> mValue</text>
</g>
<!-- Node14&#45;&gt;Node3 -->
<g id="edge17_Node000003_Node000014" class="edge">
<title>Node14&#45;&gt;Node3</title>
<g id="a_edge17_Node000003_Node000014"><a xlink:title=" ">
<path fill="none" stroke="#9a32cd" stroke-dasharray="5,2" d="M337.83,-256.25C410.79,-256.25 522.86,-256.25 585.3,-256.25"/>
<polygon fill="#9a32cd" stroke="#9a32cd" points="337.99,-252.75 327.99,-256.25 337.99,-259.75 337.99,-252.75"/>
</a>
</g>
<text text-anchor="middle" x="452.5" y="-258" font-family="Helvetica,sans-Serif" font-size="10.00" fill="grey"> pValue_</text>
</g>
<!-- Node15 -->
<g id="Node000015" class="node">
<title>Node15</title>
<g id="a_Node000015"><a xlink:href="classJStudio_1_1TFunctionValue.html" target="_top" xlink:title=" ">
<polygon fill="white" stroke="#666666" points="121.75,-265.88 0,-265.88 0,-246.62 121.75,-246.62 121.75,-265.88"/>
<text text-anchor="middle" x="60.88" y="-252.38" font-family="Helvetica,sans-Serif" font-size="10.00">JStudio::TFunctionValue</text>
</a>
</g>
</g>
<!-- Node15&#45;&gt;Node14 -->
<g id="edge18_Node000014_Node000015" class="edge">
<title>Node15&#45;&gt;Node14</title>
<g id="a_edge18_Node000014_Node000015"><a xlink:title=" ">
<path fill="none" stroke="#9a32cd" stroke-dasharray="5,2" d="M133.66,-256.25C157.5,-256.25 183.76,-256.25 206.53,-256.25"/>
<polygon fill="#9a32cd" stroke="#9a32cd" points="133.69,-252.75 123.69,-256.25 133.69,-259.75 133.69,-252.75"/>
</a>
</g>
<text text-anchor="middle" x="160.75" y="-258" font-family="Helvetica,sans-Serif" font-size="10.00" fill="grey"> fv</text>
</g>
<!-- Node16 -->
<g id="Node000016" class="node">
<title>Node16</title>
<g id="a_Node000016"><a xlink:href="structJStudio_1_1TVariableValue_1_1TOutput.html" target="_top" xlink:title=" ">
<polygon fill="white" stroke="#666666" points="120.62,-68.5 1.13,-68.5 1.13,-38 120.62,-38 120.62,-68.5"/>
<text text-anchor="start" x="9.12" y="-55" font-family="Helvetica,sans-Serif" font-size="10.00">JStudio::TVariableValue</text>
<text text-anchor="middle" x="60.88" y="-43.75" font-family="Helvetica,sans-Serif" font-size="10.00">::TOutput</text>
</a>
</g>
</g>
<!-- Node16&#45;&gt;Node14 -->
<g id="edge19_Node000014_Node000016" class="edge">
<title>Node16&#45;&gt;Node14</title>
<g id="a_edge19_Node000014_Node000016"><a xlink:title=" ">
<path fill="none" stroke="#9a32cd" stroke-dasharray="5,2" d="M85.49,-76.78C130.1,-121.22 225.02,-215.79 255.78,-246.44"/>
<polygon fill="#9a32cd" stroke="#9a32cd" points="88.15,-74.49 78.6,-69.91 83.21,-79.45 88.15,-74.49"/>
</a>
</g>
<text text-anchor="middle" x="160.75" y="-168" font-family="Helvetica,sans-Serif" font-size="10.00" fill="grey"> pOutput_</text>
</g>
<!-- Node20 -->
<g id="Node000020" class="node">
<title>Node20</title>
<g id="a_Node000020"><a xlink:href="structJStudio__JStage_1_1TVariableValueOutput__object__.html" target="_top" xlink:title=" ">
<polygon fill="white" stroke="#666666" points="869,-85.12 711.25,-85.12 711.25,-43.38 869,-43.38 869,-85.12"/>
<text text-anchor="start" x="719.25" y="-71.62" font-family="Helvetica,sans-Serif" font-size="10.00">JStudio_JStage::TVariable</text>
<text text-anchor="start" x="719.25" y="-60.38" font-family="Helvetica,sans-Serif" font-size="10.00">ValueOutput_object_&lt; TAdaptor,</text>
<text text-anchor="middle" x="790.12" y="-49.12" font-family="Helvetica,sans-Serif" font-size="10.00"> TStageObject &gt;</text>
</a>
</g>
</g>
<!-- Node16&#45;&gt;Node20 -->
<g id="edge26_Node000020_Node000016" class="edge">
<title>Node16&#45;&gt;Node20</title>
<g id="a_edge26_Node000020_Node000016"><a xlink:title=" ">
<path fill="none" stroke="#63b8ff" d="M132.19,-54.31C268.62,-56.38 568.32,-60.91 710.85,-63.07"/>
<polygon fill="#63b8ff" stroke="#63b8ff" points="132.65,-50.82 122.59,-54.17 132.54,-57.82 132.65,-50.82"/>
</a>
</g>
</g>
<!-- Node21 -->
<g id="Node000021" class="node">
<title>Node21</title>
<g id="a_Node000021"><a xlink:href="structJStudio__JStage_1_1TAdaptor__actor_1_1TVVOutput__ANIMATION__FRAME__.html" target="_top" xlink:title=" ">
<polygon fill="white" stroke="#666666" points="553.5,-30.5 351.5,-30.5 351.5,0 553.5,0 553.5,-30.5"/>
<text text-anchor="start" x="359.5" y="-17" font-family="Helvetica,sans-Serif" font-size="10.00">JStudio_JStage::TAdaptor</text>
<text text-anchor="middle" x="452.5" y="-5.75" font-family="Helvetica,sans-Serif" font-size="10.00">_actor::TVVOutput_ANIMATION_FRAME_</text>
</a>
</g>
</g>
<!-- Node16&#45;&gt;Node21 -->
<g id="edge28_Node000021_Node000016" class="edge">
<title>Node16&#45;&gt;Node21</title>
<g id="a_edge28_Node000021_Node000016"><a xlink:title=" ">
<path fill="none" stroke="#63b8ff" d="M132.17,-40.28C134.73,-39.91 137.26,-39.57 139.75,-39.25 210.15,-30.24 289.96,-24.17 351.2,-20.39"/>
<polygon fill="#63b8ff" stroke="#63b8ff" points="131.74,-36.8 122.38,-41.77 132.79,-43.73 131.74,-36.8"/>
</a>
</g>
</g>
<!-- Node17 -->
<g id="Node000017" class="node">
<title>Node17</title>
<g id="a_Node000017"><a xlink:href="structJStudio__JStage_1_1TAdaptor__object__.html" target="_top" xlink:title=" ">
<polygon fill="white" stroke="#666666" points="1016.25,-142.5 887,-142.5 887,-112 1016.25,-112 1016.25,-142.5"/>
<text text-anchor="start" x="895" y="-129" font-family="Helvetica,sans-Serif" font-size="10.00">JStudio_JStage::TAdaptor</text>
<text text-anchor="middle" x="951.62" y="-117.75" font-family="Helvetica,sans-Serif" font-size="10.00">_object_</text>
</a>
</g>
</g>
<!-- Node17&#45;&gt;Node1 -->
<g id="edge21_Node000001_Node000017" class="edge">
<title>Node17&#45;&gt;Node1</title>
<g id="a_edge21_Node000001_Node000017"><a xlink:title=" ">
<path fill="none" stroke="#63b8ff" d="M1027.71,-127.25C1061.15,-127.25 1100.12,-127.25 1132.15,-127.25"/>
<polygon fill="#63b8ff" stroke="#63b8ff" points="1028.12,-123.75 1018.12,-127.25 1028.12,-130.75 1028.12,-123.75"/>
</a>
</g>
</g>
<!-- Node18 -->
<g id="Node000018" class="node">
<title>Node18</title>
<g id="a_Node000018"><a xlink:href="structJStage_1_1TSystem.html" target="_top" xlink:title=" ">
<polygon fill="white" stroke="#666666" points="677.5,-100.88 587.25,-100.88 587.25,-81.62 677.5,-81.62 677.5,-100.88"/>
<text text-anchor="middle" x="632.38" y="-87.38" font-family="Helvetica,sans-Serif" font-size="10.00">JStage::TSystem</text>
</a>
</g>
</g>
<!-- Node18&#45;&gt;Node17 -->
<g id="edge22_Node000017_Node000018" class="edge">
<title>Node18&#45;&gt;Node17</title>
<g id="a_edge22_Node000017_Node000018"><a xlink:title=" ">
<path fill="none" stroke="#9a32cd" stroke-dasharray="5,2" d="M689.17,-94.63C737.02,-97.9 807.74,-103.6 869,-112 874.71,-112.78 880.63,-113.69 886.56,-114.67"/>
<polygon fill="#9a32cd" stroke="#9a32cd" points="689.54,-91.15 679.32,-93.98 689.07,-98.14 689.54,-91.15"/>
</a>
</g>
<text text-anchor="middle" x="790.12" y="-114" font-family="Helvetica,sans-Serif" font-size="10.00" fill="grey"> pJSGSystem_</text>
</g>
<!-- Node19 -->
<g id="Node000019" class="node">
<title>Node19</title>
<g id="a_Node000019"><a xlink:href="structJStage_1_1TObject.html" target="_top" xlink:title=" ">
<polygon fill="white" stroke="#666666" points="309.5,-146.88 223.75,-146.88 223.75,-127.62 309.5,-127.62 309.5,-146.88"/>
<text text-anchor="middle" x="266.62" y="-133.38" font-family="Helvetica,sans-Serif" font-size="10.00">JStage::TObject</text>
</a>
</g>
</g>
<!-- Node19&#45;&gt;Node1 -->
<g id="edge29_Node000001_Node000019" class="edge">
<title>Node19&#45;&gt;Node1</title>
<g id="a_edge29_Node000001_Node000019"><a xlink:title=" ">
<path fill="none" stroke="#9a32cd" stroke-dasharray="5,2" d="M320.94,-146.01C331.06,-147.35 341.59,-148.53 351.5,-149.25 646.16,-170.77 721.18,-166.23 1016.25,-151.25 1060.09,-149.02 1071.01,-147.19 1114.5,-141.25 1120.2,-140.47 1126.11,-139.6 1132.03,-138.67"/>
<polygon fill="#9a32cd" stroke="#9a32cd" points="321.63,-142.57 311.24,-144.65 320.66,-149.5 321.63,-142.57"/>
</a>
</g>
<text text-anchor="middle" x="790.12" y="-176.25" font-family="Helvetica,sans-Serif" font-size="10.00" fill="grey"> field_0x13c</text>
<text text-anchor="middle" x="790.12" y="-165" font-family="Helvetica,sans-Serif" font-size="10.00" fill="grey">field_0x148</text>
</g>
<!-- Node19&#45;&gt;Node17 -->
<g id="edge24_Node000017_Node000019" class="edge">
<title>Node19&#45;&gt;Node17</title>
<g id="a_edge24_Node000017_Node000019"><a xlink:title=" ">
<path fill="none" stroke="#9a32cd" stroke-dasharray="5,2" d="M321.28,-136.46C445.59,-134.64 752.9,-130.14 886.68,-128.19"/>
<polygon fill="#9a32cd" stroke="#9a32cd" points="321.3,-132.96 311.35,-136.61 321.4,-139.96 321.3,-132.96"/>
</a>
</g>
<text text-anchor="middle" x="632.38" y="-135" font-family="Helvetica,sans-Serif" font-size="10.00" fill="grey"> pJSGObject_</text>
</g>
<!-- Node19&#45;&gt;Node18 -->
<g id="edge23_Node000018_Node000019" class="edge">
<title>Node19&#45;&gt;Node18</title>
<g id="a_edge23_Node000018_Node000019"><a xlink:title=" ">
<path fill="none" stroke="#63b8ff" d="M321,-127.92C331.11,-126.27 341.62,-124.64 351.5,-123.25 434.56,-111.58 531.94,-101.18 587.17,-95.59"/>
<polygon fill="#63b8ff" stroke="#63b8ff" points="320.58,-124.44 311.29,-129.53 321.73,-131.34 320.58,-124.44"/>
</a>
</g>
</g>
<!-- Node20&#45;&gt;Node1 -->
<g id="edge25_Node000001_Node000020" class="edge">
<title>Node20&#45;&gt;Node1</title>
<g id="a_edge25_Node000001_Node000020"><a xlink:title=" ">
<path fill="none" stroke="#9a32cd" stroke-dasharray="5,2" d="M880.88,-73.84C922.2,-78.63 971.82,-84.92 1016.25,-92 1054.9,-98.16 1097.94,-106.54 1132.22,-113.58"/>
<polygon fill="#9a32cd" stroke="#9a32cd" points="881.29,-70.36 870.96,-72.7 880.5,-77.32 881.29,-70.36"/>
</a>
</g>
<text text-anchor="middle" x="951.62" y="-94" font-family="Helvetica,sans-Serif" font-size="10.00" fill="grey"> saoVVOutput_</text>
</g>
<!-- Node21&#45;&gt;Node1 -->
<g id="edge27_Node000001_Node000021" class="edge">
<title>Node21&#45;&gt;Node1</title>
<g id="a_edge27_Node000001_Node000021"><a xlink:title=" ">
<path fill="none" stroke="#9a32cd" stroke-dasharray="5,2" d="M565.22,-13.4C610.54,-12.74 663.39,-12.07 711.25,-11.75 781.36,-11.27 799.77,-0.69 869,-11.75 982.39,-29.87 1007.07,-51.7 1114.5,-92.25 1130.08,-98.13 1147.04,-105.28 1161.45,-111.58"/>
<polygon fill="#9a32cd" stroke="#9a32cd" points="565.33,-9.9 555.38,-13.55 565.43,-16.9 565.33,-9.9"/>
</a>
</g>
<text text-anchor="start" x="729" y="-25.25" font-family="Helvetica,sans-Serif" font-size="10.00" fill="grey"> saoVVOutput_ANIMATION</text>
<text text-anchor="middle" x="790.12" y="-14" font-family="Helvetica,sans-Serif" font-size="10.00" fill="grey">_FRAME_</text>
</g>
</g>
</svg>
