<?xml version="1.0" encoding="UTF-8" standalone="no"?>
<!DOCTYPE svg PUBLIC "-//W3C//DTD SVG 1.1//EN"
 "http://www.w3.org/Graphics/SVG/1.1/DTD/svg11.dtd">
<!-- Generated by graphviz version 9.0.0 (20230911.1827)
 -->
<!-- Title: JStudio_JStage::TAdaptor_object_ Pages: 1 -->
<svg width="321pt" height="223pt"
 viewBox="0.00 0.00 321.25 222.50" xmlns="http://www.w3.org/2000/svg" xmlns:xlink="http://www.w3.org/1999/xlink">
<g id="graph0" class="graph" transform="scale(1 1) rotate(0) translate(4 218.5)">
<title>JStudio_JStage::TAdaptor_object_</title>
<!-- Node1 -->
<g id="Node000001" class="node">
<title>Node1</title>
<g id="a_Node000001"><a xlink:title=" ">
<polygon fill="#999999" stroke="#666666" points="129.25,-116.5 0,-116.5 0,-86 129.25,-86 129.25,-116.5"/>
<text text-anchor="start" x="8" y="-103" font-family="Helvetica,sans-Serif" font-size="10.00">JStudio_JStage::TAdaptor</text>
<text text-anchor="middle" x="64.62" y="-91.75" font-family="Helvetica,sans-Serif" font-size="10.00">_object_</text>
</a>
</g>
</g>
<!-- Node2 -->
<g id="Node000002" class="node">
<title>Node2</title>
<g id="a_Node000002"><a xlink:href="structJStudio__JStage_1_1TAdaptor__actor.html" target="_top" xlink:title=" ">
<polygon fill="white" stroke="#666666" points="303.88,-214.5 174.62,-214.5 174.62,-184 303.88,-184 303.88,-214.5"/>
<text text-anchor="start" x="182.62" y="-201" font-family="Helvetica,sans-Serif" font-size="10.00">JStudio_JStage::TAdaptor</text>
<text text-anchor="middle" x="239.25" y="-189.75" font-family="Helvetica,sans-Serif" font-size="10.00">_actor</text>
</a>
</g>
</g>
<!-- Node1&#45;&gt;Node2 -->
<g id="edge1_Node000001_Node000002" class="edge">
<title>Node1&#45;&gt;Node2</title>
<g id="a_edge1_Node000001_Node000002"><a xlink:title=" ">
<path fill="none" stroke="#63b8ff" d="M92.03,-124.05C111.31,-139.8 138.62,-160.35 165.25,-174.25 171.78,-177.66 178.88,-180.76 185.99,-183.52"/>
<polygon fill="#63b8ff" stroke="#63b8ff" points="94.34,-121.42 84.41,-117.72 89.86,-126.8 94.34,-121.42"/>
</a>
</g>
</g>
<!-- Node3 -->
<g id="Node000003" class="node">
<title>Node3</title>
<g id="a_Node000003"><a xlink:href="structJStudio__JStage_1_1TAdaptor__ambientLight.html" target="_top" xlink:title=" ">
<polygon fill="white" stroke="#666666" points="303.88,-165.5 174.62,-165.5 174.62,-135 303.88,-135 303.88,-165.5"/>
<text text-anchor="start" x="182.62" y="-152" font-family="Helvetica,sans-Serif" font-size="10.00">JStudio_JStage::TAdaptor</text>
<text text-anchor="middle" x="239.25" y="-140.75" font-family="Helvetica,sans-Serif" font-size="10.00">_ambientLight</text>
</a>
</g>
</g>
<!-- Node1&#45;&gt;Node3 -->
<g id="edge2_Node000001_Node000003" class="edge">
<title>Node1&#45;&gt;Node3</title>
<g id="a_edge2_Node000001_Node000003"><a xlink:title=" ">
<path fill="none" stroke="#63b8ff" d="M131.63,-119.98C148.51,-124.78 166.5,-129.88 182.79,-134.51"/>
<polygon fill="#63b8ff" stroke="#63b8ff" points="132.75,-116.67 122.18,-117.3 130.84,-123.4 132.75,-116.67"/>
</a>
</g>
</g>
<!-- Node4 -->
<g id="Node000004" class="node">
<title>Node4</title>
<g id="a_Node000004"><a xlink:href="structJStudio__JStage_1_1TAdaptor__camera.html" target="_top" xlink:title=" ">
<polygon fill="white" stroke="#666666" points="303.88,-116.5 174.62,-116.5 174.62,-86 303.88,-86 303.88,-116.5"/>
<text text-anchor="start" x="182.62" y="-103" font-family="Helvetica,sans-Serif" font-size="10.00">JStudio_JStage::TAdaptor</text>
<text text-anchor="middle" x="239.25" y="-91.75" font-family="Helvetica,sans-Serif" font-size="10.00">_camera</text>
</a>
</g>
</g>
<!-- Node1&#45;&gt;Node4 -->
<g id="edge3_Node000001_Node000004" class="edge">
<title>Node1&#45;&gt;Node4</title>
<g id="a_edge3_Node000001_Node000004"><a xlink:title=" ">
<path fill="none" stroke="#63b8ff" d="M140.86,-101.25C151.96,-101.25 163.3,-101.25 174.15,-101.25"/>
<polygon fill="#63b8ff" stroke="#63b8ff" points="140.93,-97.75 130.93,-101.25 140.93,-104.75 140.93,-97.75"/>
</a>
</g>
</g>
<!-- Node5 -->
<g id="Node000005" class="node">
<title>Node5</title>
<g id="a_Node000005"><a xlink:href="structJStudio__JStage_1_1TAdaptor__fog.html" target="_top" xlink:title=" ">
<polygon fill="white" stroke="#666666" points="313.25,-67.88 165.25,-67.88 165.25,-48.62 313.25,-48.62 313.25,-67.88"/>
<text text-anchor="middle" x="239.25" y="-54.38" font-family="Helvetica,sans-Serif" font-size="10.00">JStudio_JStage::TAdaptor_fog</text>
</a>
</g>
</g>
<!-- Node1&#45;&gt;Node5 -->
<g id="edge4_Node000001_Node000005" class="edge">
<title>Node1&#45;&gt;Node5</title>
<g id="a_edge4_Node000001_Node000005"><a xlink:title=" ">
<path fill="none" stroke="#63b8ff" d="M139.43,-82.87C159.44,-77.88 180.37,-72.67 197.79,-68.33"/>
<polygon fill="#63b8ff" stroke="#63b8ff" points="138.76,-79.43 129.9,-85.24 140.45,-86.22 138.76,-79.43"/>
</a>
</g>
</g>
<!-- Node6 -->
<g id="Node000006" class="node">
<title>Node6</title>
<g id="a_Node000006"><a xlink:href="structJStudio__JStage_1_1TAdaptor__light.html" target="_top" xlink:title=" ">
<polygon fill="white" stroke="#666666" points="303.88,-30.5 174.62,-30.5 174.62,0 303.88,0 303.88,-30.5"/>
<text text-anchor="start" x="182.62" y="-17" font-family="Helvetica,sans-Serif" font-size="10.00">JStudio_JStage::TAdaptor</text>
<text text-anchor="middle" x="239.25" y="-5.75" font-family="Helvetica,sans-Serif" font-size="10.00">_light</text>
</a>
</g>
</g>
<!-- Node1&#45;&gt;Node6 -->
<g id="edge5_Node000001_Node000006" class="edge">
<title>Node1&#45;&gt;Node6</title>
<g id="a_edge5_Node000001_Node000006"><a xlink:title=" ">
<path fill="none" stroke="#63b8ff" d="M96.71,-79.21C115.83,-66.35 141.2,-50.49 165.25,-39.25 171.66,-36.26 178.54,-33.47 185.43,-30.94"/>
<polygon fill="#63b8ff" stroke="#63b8ff" points="94.85,-76.24 88.57,-84.77 98.8,-82.02 94.85,-76.24"/>
</a>
</g>
</g>
</g>
</svg>
