<?xml version="1.0" encoding="UTF-8" standalone="no"?>
<!DOCTYPE svg PUBLIC "-//W3C//DTD SVG 1.1//EN"
 "http://www.w3.org/Graphics/SVG/1.1/DTD/svg11.dtd">
<!-- Generated by graphviz version 9.0.0 (20230911.1827)
 -->
<!-- Title: dMenuMapCommon_c Pages: 1 -->
<svg width="244pt" height="83pt"
 viewBox="0.00 0.00 244.38 82.50" xmlns="http://www.w3.org/2000/svg" xmlns:xlink="http://www.w3.org/1999/xlink">
<g id="graph0" class="graph" transform="scale(1 1) rotate(0) translate(4 78.5)">
<title>dMenuMapCommon_c</title>
<!-- Node1 -->
<g id="Node000001" class="node">
<title>Node1</title>
<g id="a_Node000001"><a xlink:title=" ">
<polygon fill="#999999" stroke="#666666" points="169,-74.5 55.5,-74.5 55.5,-55.25 169,-55.25 169,-74.5"/>
<text text-anchor="middle" x="112.25" y="-61" font-family="Helvetica,sans-Serif" font-size="10.00">dMenuMapCommon_c</text>
</a>
</g>
</g>
<!-- Node2 -->
<g id="Node000002" class="node">
<title>Node2</title>
<g id="a_Node000002"><a xlink:href="structdMenu__DmapBg__c.html" target="_top" xlink:title=" ">
<polygon fill="white" stroke="#666666" points="98.5,-19.25 0,-19.25 0,0 98.5,0 98.5,-19.25"/>
<text text-anchor="middle" x="49.25" y="-5.75" font-family="Helvetica,sans-Serif" font-size="10.00">dMenu_DmapBg_c</text>
</a>
</g>
</g>
<!-- Node1&#45;&gt;Node2 -->
<g id="edge1_Node000001_Node000002" class="edge">
<title>Node1&#45;&gt;Node2</title>
<g id="a_edge1_Node000001_Node000002"><a xlink:title=" ">
<path fill="none" stroke="#63b8ff" d="M93.07,-47.66C82.13,-38.42 68.84,-27.18 59.78,-19.52"/>
<polygon fill="#63b8ff" stroke="#63b8ff" points="90.51,-50.08 100.41,-53.86 95.03,-44.74 90.51,-50.08"/>
</a>
</g>
</g>
<!-- Node3 -->
<g id="Node000003" class="node">
<title>Node3</title>
<g id="a_Node000003"><a xlink:href="classdMenu__Fmap2DBack__c.html" target="_top" xlink:title=" ">
<polygon fill="white" stroke="#666666" points="236.38,-19.25 116.12,-19.25 116.12,0 236.38,0 236.38,-19.25"/>
<text text-anchor="middle" x="176.25" y="-5.75" font-family="Helvetica,sans-Serif" font-size="10.00">dMenu_Fmap2DBack_c</text>
</a>
</g>
</g>
<!-- Node1&#45;&gt;Node3 -->
<g id="edge2_Node000001_Node000003" class="edge">
<title>Node1&#45;&gt;Node3</title>
<g id="a_edge2_Node000001_Node000003"><a xlink:title=" ">
<path fill="none" stroke="#63b8ff" d="M131.73,-47.66C142.85,-38.42 156.35,-27.18 165.55,-19.52"/>
<polygon fill="#63b8ff" stroke="#63b8ff" points="129.72,-44.79 124.27,-53.87 134.2,-50.17 129.72,-44.79"/>
</a>
</g>
</g>
</g>
</svg>
