<?xml version="1.0" encoding="UTF-8" standalone="no"?>
<!DOCTYPE svg PUBLIC "-//W3C//DTD SVG 1.1//EN"
 "http://www.w3.org/Graphics/SVG/1.1/DTD/svg11.dtd">
<!-- Generated by graphviz version 9.0.0 (20230911.1827)
 -->
<!-- Title: dCcD_Cyl Pages: 1 -->
<svg width="276pt" height="248pt"
 viewBox="0.00 0.00 275.62 248.25" xmlns="http://www.w3.org/2000/svg" xmlns:xlink="http://www.w3.org/1999/xlink">

<svg id="main" version="1.1" xmlns="http://www.w3.org/2000/svg" xmlns:xlink="http://www.w3.org/1999/xlink" xml:space="preserve" onload="init(evt)">
<style type="text/css"><![CDATA[
.node, .edge {opacity: 0.7;}
.node.selected, .edge.selected {opacity: 1;}
.edge:hover path { stroke: red; }
.edge:hover polygon { stroke: red; fill: red; }
]]></style>
<script type="application/ecmascript" xlink:href="svg.min.js"/>
<svg id="graph" class="graph">
<g id="graph0" class="graph" transform="scale(1 1) rotate(0) translate(4 244.25)">
<title>dCcD_Cyl</title>
<!-- Node1 -->
<g id="Node000001" class="node">
<title>Node1</title>
<g id="a_Node000001"><a xlink:title=" ">
<polygon fill="#999999" stroke="#666666" points="122.5,-19.25 63.75,-19.25 63.75,0 122.5,0 122.5,-19.25"/>
<text text-anchor="middle" x="93.12" y="-5.75" font-family="Helvetica,sans-Serif" font-size="10.00">dCcD_Cyl</text>
</a>
</g>
</g>
<!-- Node2 -->
<g id="Node000002" class="node">
<title>Node2</title>
<g id="a_Node000002"><a xlink:href="structdCcD__GObjInf.html" target="_top" xlink:title=" ">
<polygon fill="white" stroke="#666666" points="85.62,-74.5 6.62,-74.5 6.62,-55.25 85.62,-55.25 85.62,-74.5"/>
<text text-anchor="middle" x="46.12" y="-61" font-family="Helvetica,sans-Serif" font-size="10.00">dCcD_GObjInf</text>
</a>
</g>
</g>
<!-- Node2&#45;&gt;Node1 -->
<g id="edge1_Node000001_Node000002" class="edge">
<title>Node2&#45;&gt;Node1</title>
<g id="a_edge1_Node000001_Node000002"><a xlink:title=" ">
<path fill="none" stroke="#63b8ff" d="M61.45,-46.51C69.38,-37.53 78.72,-26.95 85.2,-19.61"/>
<polygon fill="#63b8ff" stroke="#63b8ff" points="58.88,-44.13 54.89,-53.95 64.13,-48.77 58.88,-44.13"/>
</a>
</g>
</g>
<!-- Node3 -->
<g id="Node000003" class="node">
<title>Node3</title>
<g id="a_Node000003"><a xlink:href="classcCcD__GObjInf.html" target="_top" xlink:title=" ">
<polygon fill="white" stroke="#666666" points="81.62,-129.75 2.62,-129.75 2.62,-110.5 81.62,-110.5 81.62,-129.75"/>
<text text-anchor="middle" x="42.12" y="-116.25" font-family="Helvetica,sans-Serif" font-size="10.00">cCcD_GObjInf</text>
</a>
</g>
</g>
<!-- Node3&#45;&gt;Node2 -->
<g id="edge2_Node000002_Node000003" class="edge">
<title>Node3&#45;&gt;Node2</title>
<g id="a_edge2_Node000002_Node000003"><a xlink:title=" ">
<path fill="none" stroke="#63b8ff" d="M43.65,-98.88C44.27,-90.59 44.96,-81.42 45.45,-74.86"/>
<polygon fill="#63b8ff" stroke="#63b8ff" points="40.16,-98.59 42.9,-108.82 47.14,-99.11 40.16,-98.59"/>
</a>
</g>
</g>
<!-- Node4 -->
<g id="Node000004" class="node">
<title>Node4</title>
<g id="a_Node000004"><a xlink:href="structcCcD__Obj.html" target="_top" xlink:title=" ">
<polygon fill="white" stroke="#666666" points="72.25,-185 12,-185 12,-165.75 72.25,-165.75 72.25,-185"/>
<text text-anchor="middle" x="42.12" y="-171.5" font-family="Helvetica,sans-Serif" font-size="10.00">cCcD_Obj</text>
</a>
</g>
</g>
<!-- Node4&#45;&gt;Node3 -->
<g id="edge3_Node000003_Node000004" class="edge">
<title>Node4&#45;&gt;Node3</title>
<g id="a_edge3_Node000003_Node000004"><a xlink:title=" ">
<path fill="none" stroke="#63b8ff" d="M42.12,-154.13C42.12,-145.84 42.12,-136.67 42.12,-130.11"/>
<polygon fill="#63b8ff" stroke="#63b8ff" points="38.63,-154.07 42.13,-164.07 45.63,-154.07 38.63,-154.07"/>
</a>
</g>
</g>
<!-- Node5 -->
<g id="Node000005" class="node">
<title>Node5</title>
<g id="a_Node000005"><a xlink:href="classcCcD__ObjHitInf.html" target="_top" xlink:title=" ">
<polygon fill="white" stroke="#666666" points="84.25,-240.25 0,-240.25 0,-221 84.25,-221 84.25,-240.25"/>
<text text-anchor="middle" x="42.12" y="-226.75" font-family="Helvetica,sans-Serif" font-size="10.00">cCcD_ObjHitInf</text>
</a>
</g>
</g>
<!-- Node5&#45;&gt;Node4 -->
<g id="edge4_Node000004_Node000005" class="edge">
<title>Node5&#45;&gt;Node4</title>
<g id="a_edge4_Node000004_Node000005"><a xlink:title=" ">
<path fill="none" stroke="#63b8ff" d="M42.12,-209.38C42.12,-201.09 42.12,-191.92 42.12,-185.36"/>
<polygon fill="#63b8ff" stroke="#63b8ff" points="38.63,-209.32 42.13,-219.32 45.63,-209.32 38.63,-209.32"/>
</a>
</g>
</g>
<!-- Node6 -->
<g id="Node000006" class="node">
<title>Node6</title>
<g id="a_Node000006"><a xlink:href="classcCcD__CylAttr.html" target="_top" xlink:title=" ">
<polygon fill="white" stroke="#666666" points="181.38,-74.5 106.88,-74.5 106.88,-55.25 181.38,-55.25 181.38,-74.5"/>
<text text-anchor="middle" x="144.12" y="-61" font-family="Helvetica,sans-Serif" font-size="10.00">cCcD_CylAttr</text>
</a>
</g>
</g>
<!-- Node6&#45;&gt;Node1 -->
<g id="edge5_Node000001_Node000006" class="edge">
<title>Node6&#45;&gt;Node1</title>
<g id="a_edge5_Node000001_Node000006"><a xlink:title=" ">
<path fill="none" stroke="#63b8ff" d="M127.76,-46.79C119.11,-37.75 108.83,-27.02 101.73,-19.61"/>
<polygon fill="#63b8ff" stroke="#63b8ff" points="125.21,-49.19 134.66,-53.99 130.27,-44.35 125.21,-49.19"/>
</a>
</g>
</g>
<!-- Node7 -->
<g id="Node000007" class="node">
<title>Node7</title>
<g id="a_Node000007"><a xlink:href="classcCcD__ShapeAttr.html" target="_top" xlink:title=" ">
<polygon fill="white" stroke="#666666" points="188.5,-129.75 99.75,-129.75 99.75,-110.5 188.5,-110.5 188.5,-129.75"/>
<text text-anchor="middle" x="144.12" y="-116.25" font-family="Helvetica,sans-Serif" font-size="10.00">cCcD_ShapeAttr</text>
</a>
</g>
</g>
<!-- Node7&#45;&gt;Node6 -->
<g id="edge6_Node000006_Node000007" class="edge">
<title>Node7&#45;&gt;Node6</title>
<g id="a_edge6_Node000006_Node000007"><a xlink:title=" ">
<path fill="none" stroke="#63b8ff" d="M144.12,-98.88C144.12,-90.59 144.12,-81.42 144.12,-74.86"/>
<polygon fill="#63b8ff" stroke="#63b8ff" points="140.63,-98.82 144.13,-108.82 147.63,-98.82 140.63,-98.82"/>
</a>
</g>
</g>
<!-- Node8 -->
<g id="Node000008" class="node">
<title>Node8</title>
<g id="a_Node000008"><a xlink:href="structcM3dGCyl.html" target="_top" xlink:title=" ">
<polygon fill="white" stroke="#666666" points="267.62,-129.75 206.62,-129.75 206.62,-110.5 267.62,-110.5 267.62,-129.75"/>
<text text-anchor="middle" x="237.12" y="-116.25" font-family="Helvetica,sans-Serif" font-size="10.00">cM3dGCyl</text>
</a>
</g>
</g>
<!-- Node8&#45;&gt;Node6 -->
<g id="edge7_Node000006_Node000008" class="edge">
<title>Node8&#45;&gt;Node6</title>
<g id="a_edge7_Node000006_Node000008"><a xlink:title=" ">
<path fill="none" stroke="#63b8ff" d="M211.74,-104.59C195.21,-95.13 174.17,-83.08 159.98,-74.95"/>
<polygon fill="#63b8ff" stroke="#63b8ff" points="209.62,-107.41 220.04,-109.34 213.1,-101.33 209.62,-107.41"/>
</a>
</g>
</g>
</g>
</svg>
</svg>

<style type='text/css'>
<![CDATA[
[data-mouse-over-selected='false'] { opacity: 0.7; }
[data-mouse-over-selected='true']  { opacity: 1.0; }
]]>
</style>
<script type="application/ecmascript"><![CDATA[
document.addEventListener('DOMContentLoaded', (event) => {
  highlightEdges();
  highlightAdjacentNodes();
});
]]></script>
</svg>
