<?xml version="1.0" encoding="UTF-8" standalone="no"?>
<!DOCTYPE svg PUBLIC "-//W3C//DTD SVG 1.1//EN"
 "http://www.w3.org/Graphics/SVG/1.1/DTD/svg11.dtd">
<!-- Generated by graphviz version 9.0.0 (20230911.1827)
 -->
<!-- Title: J3DMaterialAnm Pages: 1 -->
<svg width="484pt" height="83pt"
 viewBox="0.00 0.00 483.88 82.50" xmlns="http://www.w3.org/2000/svg" xmlns:xlink="http://www.w3.org/1999/xlink">

<svg id="main" version="1.1" xmlns="http://www.w3.org/2000/svg" xmlns:xlink="http://www.w3.org/1999/xlink" xml:space="preserve" onload="init(evt)">
<style type="text/css"><![CDATA[
.node, .edge {opacity: 0.7;}
.node.selected, .edge.selected {opacity: 1;}
.edge:hover path { stroke: red; }
.edge:hover polygon { stroke: red; fill: red; }
]]></style>
<script type="application/ecmascript" xlink:href="svg.min.js"/>
<svg id="graph" class="graph">
<g id="graph0" class="graph" transform="scale(1 1) rotate(0) translate(4 78.5)">
<title>J3DMaterialAnm</title>
<!-- Node1 -->
<g id="Node000001" class="node">
<title>Node1</title>
<g id="a_Node000001"><a xlink:title=" ">
<polygon fill="#999999" stroke="#666666" points="283.38,-74.5 195.38,-74.5 195.38,-55.25 283.38,-55.25 283.38,-74.5"/>
<text text-anchor="middle" x="239.38" y="-61" font-family="Helvetica,sans-Serif" font-size="10.00">J3DMaterialAnm</text>
</a>
</g>
</g>
<!-- Node2 -->
<g id="Node000002" class="node">
<title>Node2</title>
<g id="a_Node000002"><a xlink:href="classdaAlink__matAnm__c.html" target="_top" xlink:title=" ">
<polygon fill="white" stroke="#666666" points="100.75,-19.25 0,-19.25 0,0 100.75,0 100.75,-19.25"/>
<text text-anchor="middle" x="50.38" y="-5.75" font-family="Helvetica,sans-Serif" font-size="10.00">daAlink_matAnm_c</text>
</a>
</g>
</g>
<!-- Node1&#45;&gt;Node2 -->
<g id="edge1_Node000001_Node000002" class="edge">
<title>Node1&#45;&gt;Node2</title>
<g id="a_edge1_Node000001_Node000002"><a xlink:title=" ">
<path fill="none" stroke="#63b8ff" d="M196.59,-51.82C161.98,-42.07 114.01,-28.55 82.59,-19.7"/>
<polygon fill="#63b8ff" stroke="#63b8ff" points="195.28,-55.09 205.86,-54.43 197.18,-48.35 195.28,-55.09"/>
</a>
</g>
</g>
<!-- Node3 -->
<g id="Node000003" class="node">
<title>Node3</title>
<g id="a_Node000003"><a xlink:href="structdaHoZelda__matAnm__c.html" target="_top" xlink:title=" ">
<polygon fill="white" stroke="#666666" points="234.25,-19.25 118.5,-19.25 118.5,0 234.25,0 234.25,-19.25"/>
<text text-anchor="middle" x="176.38" y="-5.75" font-family="Helvetica,sans-Serif" font-size="10.00">daHoZelda_matAnm_c</text>
</a>
</g>
</g>
<!-- Node1&#45;&gt;Node3 -->
<g id="edge2_Node000001_Node000003" class="edge">
<title>Node1&#45;&gt;Node3</title>
<g id="a_edge2_Node000001_Node000003"><a xlink:title=" ">
<path fill="none" stroke="#63b8ff" d="M220.2,-47.66C209.26,-38.42 195.96,-27.18 186.9,-19.52"/>
<polygon fill="#63b8ff" stroke="#63b8ff" points="217.64,-50.08 227.53,-53.86 222.15,-44.74 217.64,-50.08"/>
</a>
</g>
</g>
<!-- Node4 -->
<g id="Node000004" class="node">
<title>Node4</title>
<g id="a_Node000004"><a xlink:href="classdaNpcF__MatAnm__c.html" target="_top" xlink:title=" ">
<polygon fill="white" stroke="#666666" points="354.88,-19.25 251.88,-19.25 251.88,0 354.88,0 354.88,-19.25"/>
<text text-anchor="middle" x="303.38" y="-5.75" font-family="Helvetica,sans-Serif" font-size="10.00">daNpcF_MatAnm_c</text>
</a>
</g>
</g>
<!-- Node1&#45;&gt;Node4 -->
<g id="edge3_Node000001_Node000004" class="edge">
<title>Node1&#45;&gt;Node4</title>
<g id="a_edge3_Node000001_Node000004"><a xlink:title=" ">
<path fill="none" stroke="#63b8ff" d="M258.86,-47.66C269.97,-38.42 283.48,-27.18 292.68,-19.52"/>
<polygon fill="#63b8ff" stroke="#63b8ff" points="256.84,-44.79 251.4,-53.87 261.32,-50.17 256.84,-44.79"/>
</a>
</g>
</g>
<!-- Node5 -->
<g id="Node000005" class="node">
<title>Node5</title>
<g id="a_Node000005"><a xlink:href="structdaNpcT__MatAnm__c.html" target="_top" xlink:title=" ">
<polygon fill="white" stroke="#666666" points="475.88,-19.25 372.88,-19.25 372.88,0 475.88,0 475.88,-19.25"/>
<text text-anchor="middle" x="424.38" y="-5.75" font-family="Helvetica,sans-Serif" font-size="10.00">daNpcT_MatAnm_c</text>
</a>
</g>
</g>
<!-- Node1&#45;&gt;Node5 -->
<g id="edge4_Node000001_Node000005" class="edge">
<title>Node1&#45;&gt;Node5</title>
<g id="a_edge4_Node000001_Node000005"><a xlink:title=" ">
<path fill="none" stroke="#63b8ff" d="M281.7,-51.69C315.54,-41.95 362.22,-28.52 392.84,-19.7"/>
<polygon fill="#63b8ff" stroke="#63b8ff" points="280.85,-48.29 272.21,-54.42 282.79,-55.02 280.85,-48.29"/>
</a>
</g>
</g>
</g>
</svg>
</svg>

<style type='text/css'>
<![CDATA[
[data-mouse-over-selected='false'] { opacity: 0.7; }
[data-mouse-over-selected='true']  { opacity: 1.0; }
]]>
</style>
<script type="application/ecmascript"><![CDATA[
document.addEventListener('DOMContentLoaded', (event) => {
  highlightEdges();
  highlightAdjacentNodes();
});
]]></script>
</svg>
