<?xml version="1.0" encoding="UTF-8" standalone="no"?>
<!DOCTYPE svg PUBLIC "-//W3C//DTD SVG 1.1//EN"
 "http://www.w3.org/Graphics/SVG/1.1/DTD/svg11.dtd">
<!-- Generated by graphviz version 9.0.0 (20230911.1827)
 -->
<!-- Title: JAUSeqDataBlock Pages: 1 -->
<svg width="448pt" height="175pt"
 viewBox="0.00 0.00 447.50 174.75" xmlns="http://www.w3.org/2000/svg" xmlns:xlink="http://www.w3.org/1999/xlink">
<g id="graph0" class="graph" transform="scale(1 1) rotate(0) translate(4 170.75)">
<title>JAUSeqDataBlock</title>
<!-- Node1 -->
<g id="Node000001" class="node">
<title>Node1</title>
<g id="a_Node000001"><a xlink:title=" ">
<polygon fill="#999999" stroke="#666666" points="337.12,-19.25 239.38,-19.25 239.38,0 337.12,0 337.12,-19.25"/>
<text text-anchor="middle" x="288.25" y="-5.75" font-family="Helvetica,sans-Serif" font-size="10.00">JAUSeqDataBlock</text>
</a>
</g>
</g>
<!-- Node2 -->
<g id="Node000002" class="node">
<title>Node2</title>
<g id="a_Node000002"><a xlink:href="classJSULink.html" target="_top" xlink:title=" ">
<polygon fill="white" stroke="#666666" points="152.5,-85.75 0,-85.75 0,-66.5 152.5,-66.5 152.5,-85.75"/>
<text text-anchor="middle" x="76.25" y="-72.25" font-family="Helvetica,sans-Serif" font-size="10.00">JSULink&lt; JAUSeqDataBlock &gt;</text>
</a>
</g>
</g>
<!-- Node2&#45;&gt;Node1 -->
<g id="edge1_Node000001_Node000002" class="edge">
<title>Node2&#45;&gt;Node1</title>
<g id="a_edge1_Node000001_Node000002"><a xlink:title=" ">
<path fill="none" stroke="#9a32cd" stroke-dasharray="5,2" d="M116.98,-62.73C158.38,-50.14 221.54,-30.92 258.48,-19.68"/>
<polygon fill="#9a32cd" stroke="#9a32cd" points="116.17,-59.32 107.62,-65.58 118.21,-66.02 116.17,-59.32"/>
</a>
</g>
<text text-anchor="middle" x="215.12" y="-39" font-family="Helvetica,sans-Serif" font-size="10.00" fill="grey"> field_0x0</text>
</g>
<!-- Node3 -->
<g id="Node000003" class="node">
<title>Node3</title>
<g id="a_Node000003"><a xlink:href="classJSUPtrLink.html" target="_top" xlink:title=" ">
<polygon fill="white" stroke="#666666" points="179.75,-165.12 112.75,-165.12 112.75,-145.88 179.75,-145.88 179.75,-165.12"/>
<text text-anchor="middle" x="146.25" y="-151.62" font-family="Helvetica,sans-Serif" font-size="10.00">JSUPtrLink</text>
</a>
</g>
</g>
<!-- Node3&#45;&gt;Node2 -->
<g id="edge2_Node000002_Node000003" class="edge">
<title>Node3&#45;&gt;Node2</title>
<g id="a_edge2_Node000002_Node000003"><a xlink:title=" ">
<path fill="none" stroke="#63b8ff" d="M130.6,-137.2C116.2,-121.28 95.42,-98.32 84.19,-85.9"/>
<polygon fill="#63b8ff" stroke="#63b8ff" points="127.9,-139.43 137.2,-144.5 133.09,-134.74 127.9,-139.43"/>
</a>
</g>
</g>
<!-- Node3&#45;&gt;Node3 -->
<g id="edge5_Node000003_Node000003" class="edge">
<title>Node3&#45;&gt;Node3</title>
<g id="a_edge5_Node000003_Node000003"><a xlink:title=" ">
<path fill="none" stroke="#9a32cd" stroke-dasharray="5,2" d="M191.01,-161.56C195.14,-160.31 197.75,-158.29 197.75,-155.5 197.75,-150.67 189.95,-148.15 179.93,-147.92"/>
<polygon fill="#9a32cd" stroke="#9a32cd" points="190.86,-158.05 181.43,-162.87 191.81,-164.99 190.86,-158.05"/>
</a>
</g>
<text text-anchor="middle" x="213.12" y="-157.25" font-family="Helvetica,sans-Serif" font-size="10.00" fill="grey"> mNext</text>
<text text-anchor="middle" x="213.12" y="-146" font-family="Helvetica,sans-Serif" font-size="10.00" fill="grey">mPrev</text>
</g>
<!-- Node4 -->
<g id="Node000004" class="node">
<title>Node4</title>
<g id="a_Node000004"><a xlink:href="classJSUPtrList.html" target="_top" xlink:title=" ">
<polygon fill="white" stroke="#666666" points="235.62,-85.75 170.88,-85.75 170.88,-66.5 235.62,-66.5 235.62,-85.75"/>
<text text-anchor="middle" x="203.25" y="-72.25" font-family="Helvetica,sans-Serif" font-size="10.00">JSUPtrList</text>
</a>
</g>
</g>
<!-- Node3&#45;&gt;Node4 -->
<g id="edge4_Node000004_Node000003" class="edge">
<title>Node3&#45;&gt;Node4</title>
<g id="a_edge4_Node000004_Node000003"><a xlink:title=" ">
<path fill="none" stroke="#9a32cd" stroke-dasharray="5,2" d="M139.91,-134.48C137.98,-124.51 137.69,-112.69 143.5,-103.75 149.68,-94.22 160.15,-88.08 170.62,-84.12"/>
<polygon fill="#9a32cd" stroke="#9a32cd" points="136.47,-135.17 142.38,-143.96 143.24,-133.4 136.47,-135.17"/>
</a>
</g>
<text text-anchor="middle" x="161.12" y="-116.75" font-family="Helvetica,sans-Serif" font-size="10.00" fill="grey"> mHead</text>
<text text-anchor="middle" x="161.12" y="-105.5" font-family="Helvetica,sans-Serif" font-size="10.00" fill="grey">mTail</text>
</g>
<!-- Node4&#45;&gt;Node3 -->
<g id="edge3_Node000003_Node000004" class="edge">
<title>Node4&#45;&gt;Node3</title>
<g id="a_edge3_Node000003_Node000004"><a xlink:title=" ">
<path fill="none" stroke="#9a32cd" stroke-dasharray="5,2" d="M196.84,-96.91C193.19,-106.37 187.99,-117.51 181.25,-126.25 175.44,-133.8 167.21,-140.57 160.2,-145.59"/>
<polygon fill="#9a32cd" stroke="#9a32cd" points="200.11,-98.16 200.13,-87.57 193.51,-95.84 200.11,-98.16"/>
</a>
</g>
<text text-anchor="middle" x="207.75" y="-111.12" font-family="Helvetica,sans-Serif" font-size="10.00" fill="grey"> mList</text>
</g>
<!-- Node5 -->
<g id="Node000005" class="node">
<title>Node5</title>
<g id="a_Node000005"><a xlink:href="structJAISoundID.html" target="_top" xlink:title=" ">
<polygon fill="white" stroke="#666666" points="322.5,-85.75 254,-85.75 254,-66.5 322.5,-66.5 322.5,-85.75"/>
<text text-anchor="middle" x="288.25" y="-72.25" font-family="Helvetica,sans-Serif" font-size="10.00">JAISoundID</text>
</a>
</g>
</g>
<!-- Node5&#45;&gt;Node1 -->
<g id="edge6_Node000001_Node000005" class="edge">
<title>Node5&#45;&gt;Node1</title>
<g id="a_edge6_Node000001_Node000005"><a xlink:title=" ">
<path fill="none" stroke="#9a32cd" stroke-dasharray="5,2" d="M288.25,-54.65C288.25,-42.82 288.25,-28.54 288.25,-19.52"/>
<polygon fill="#9a32cd" stroke="#9a32cd" points="284.75,-54.64 288.25,-64.64 291.75,-54.64 284.75,-54.64"/>
</a>
</g>
<text text-anchor="middle" x="310.75" y="-39" font-family="Helvetica,sans-Serif" font-size="10.00" fill="grey"> field_0x10</text>
</g>
<!-- Node6 -->
<g id="Node000006" class="node">
<title>Node6</title>
<g id="a_Node000006"><a xlink:href="structJAISeqDataRegion.html" target="_top" xlink:title=" ">
<polygon fill="white" stroke="#666666" points="439.5,-85.75 341,-85.75 341,-66.5 439.5,-66.5 439.5,-85.75"/>
<text text-anchor="middle" x="390.25" y="-72.25" font-family="Helvetica,sans-Serif" font-size="10.00">JAISeqDataRegion</text>
</a>
</g>
</g>
<!-- Node6&#45;&gt;Node1 -->
<g id="edge7_Node000001_Node000006" class="edge">
<title>Node6&#45;&gt;Node1</title>
<g id="a_edge7_Node000001_Node000006"><a xlink:title=" ">
<path fill="none" stroke="#9a32cd" stroke-dasharray="5,2" d="M369.58,-59.46C359.95,-52.39 348.21,-44.11 337.25,-37.25 327.24,-30.98 315.64,-24.64 306.24,-19.72"/>
<polygon fill="#9a32cd" stroke="#9a32cd" points="367.42,-62.21 377.53,-65.37 371.6,-56.6 367.42,-62.21"/>
</a>
</g>
<text text-anchor="middle" x="375.75" y="-39" font-family="Helvetica,sans-Serif" font-size="10.00" fill="grey"> field_0x14</text>
</g>
</g>
</svg>
