<?xml version="1.0" encoding="UTF-8" standalone="no"?>
<!DOCTYPE svg PUBLIC "-//W3C//DTD SVG 1.1//EN"
 "http://www.w3.org/Graphics/SVG/1.1/DTD/svg11.dtd">
<!-- Generated by graphviz version 9.0.0 (20230911.1827)
 -->
<!-- Title: dBgS_GndChk Pages: 1 -->
<svg width="526pt" height="304pt"
 viewBox="0.00 0.00 526.38 303.50" xmlns="http://www.w3.org/2000/svg" xmlns:xlink="http://www.w3.org/1999/xlink">
<g id="graph0" class="graph" transform="scale(1 1) rotate(0) translate(4 299.5)">
<title>dBgS_GndChk</title>
<!-- Node1 -->
<g id="Node000001" class="node">
<title>Node1</title>
<g id="a_Node000001"><a xlink:title=" ">
<polygon fill="#999999" stroke="#666666" points="243.75,-129.75 163.25,-129.75 163.25,-110.5 243.75,-110.5 243.75,-129.75"/>
<text text-anchor="middle" x="203.5" y="-116.25" font-family="Helvetica,sans-Serif" font-size="10.00">dBgS_GndChk</text>
</a>
</g>
</g>
<!-- Node10 -->
<g id="Node000010" class="node">
<title>Node10</title>
<g id="a_Node000010"><a xlink:href="classdBgS__CamGndChk.html" target="_top" xlink:title=" ">
<polygon fill="white" stroke="#666666" points="127.88,-74.5 27.12,-74.5 27.12,-55.25 127.88,-55.25 127.88,-74.5"/>
<text text-anchor="middle" x="77.5" y="-61" font-family="Helvetica,sans-Serif" font-size="10.00">dBgS_CamGndChk</text>
</a>
</g>
</g>
<!-- Node1&#45;&gt;Node10 -->
<g id="edge9_Node000001_Node000010" class="edge">
<title>Node1&#45;&gt;Node10</title>
<g id="a_edge9_Node000001_Node000010"><a xlink:title=" ">
<path fill="none" stroke="#63b8ff" d="M171.62,-105.65C148.88,-96.04 118.93,-83.38 98.98,-74.95"/>
<polygon fill="#63b8ff" stroke="#63b8ff" points="170.16,-108.83 180.73,-109.5 172.88,-102.39 170.16,-108.83"/>
</a>
</g>
</g>
<!-- Node12 -->
<g id="Node000012" class="node">
<title>Node12</title>
<g id="a_Node000012"><a xlink:href="classdBgS__LinkGndChk.html" target="_top" xlink:title=" ">
<polygon fill="white" stroke="#666666" points="253.12,-74.5 153.88,-74.5 153.88,-55.25 253.12,-55.25 253.12,-74.5"/>
<text text-anchor="middle" x="203.5" y="-61" font-family="Helvetica,sans-Serif" font-size="10.00">dBgS_LinkGndChk</text>
</a>
</g>
</g>
<!-- Node1&#45;&gt;Node12 -->
<g id="edge11_Node000001_Node000012" class="edge">
<title>Node1&#45;&gt;Node12</title>
<g id="a_edge11_Node000001_Node000012"><a xlink:title=" ">
<path fill="none" stroke="#63b8ff" d="M203.5,-98.88C203.5,-90.59 203.5,-81.42 203.5,-74.86"/>
<polygon fill="#63b8ff" stroke="#63b8ff" points="200,-98.82 203.5,-108.82 207,-98.82 200,-98.82"/>
</a>
</g>
</g>
<!-- Node13 -->
<g id="Node000013" class="node">
<title>Node13</title>
<g id="a_Node000013"><a xlink:href="structdBgS__ObjGndChk.html" target="_top" xlink:title=" ">
<polygon fill="white" stroke="#666666" points="370.25,-74.5 274.75,-74.5 274.75,-55.25 370.25,-55.25 370.25,-74.5"/>
<text text-anchor="middle" x="322.5" y="-61" font-family="Helvetica,sans-Serif" font-size="10.00">dBgS_ObjGndChk</text>
</a>
</g>
</g>
<!-- Node1&#45;&gt;Node13 -->
<g id="edge12_Node000001_Node000013" class="edge">
<title>Node1&#45;&gt;Node13</title>
<g id="a_edge12_Node000001_Node000013"><a xlink:title=" ">
<path fill="none" stroke="#63b8ff" d="M233.9,-105.52C255.34,-95.93 283.46,-83.34 302.21,-74.95"/>
<polygon fill="#63b8ff" stroke="#63b8ff" points="232.77,-102.19 225.07,-109.47 235.63,-108.58 232.77,-102.19"/>
</a>
</g>
</g>
<!-- Node2 -->
<g id="Node000002" class="node">
<title>Node2</title>
<g id="a_Node000002"><a xlink:href="structcBgS__GndChk.html" target="_top" xlink:title=" ">
<polygon fill="white" stroke="#666666" points="188.75,-185 108.25,-185 108.25,-165.75 188.75,-165.75 188.75,-185"/>
<text text-anchor="middle" x="148.5" y="-171.5" font-family="Helvetica,sans-Serif" font-size="10.00">cBgS_GndChk</text>
</a>
</g>
</g>
<!-- Node2&#45;&gt;Node1 -->
<g id="edge1_Node000001_Node000002" class="edge">
<title>Node2&#45;&gt;Node1</title>
<g id="a_edge1_Node000001_Node000002"><a xlink:title=" ">
<path fill="none" stroke="#63b8ff" d="M165.85,-157.57C175.25,-148.48 186.48,-137.6 194.22,-130.11"/>
<polygon fill="#63b8ff" stroke="#63b8ff" points="163.42,-155.06 158.67,-164.53 168.29,-160.09 163.42,-155.06"/>
</a>
</g>
</g>
<!-- Node3 -->
<g id="Node000003" class="node">
<title>Node3</title>
<g id="a_Node000003"><a xlink:href="classcBgS__Chk.html" target="_top" xlink:title=" ">
<polygon fill="white" stroke="#666666" points="89.75,-240.25 27.25,-240.25 27.25,-221 89.75,-221 89.75,-240.25"/>
<text text-anchor="middle" x="58.5" y="-226.75" font-family="Helvetica,sans-Serif" font-size="10.00">cBgS_Chk</text>
</a>
</g>
</g>
<!-- Node3&#45;&gt;Node2 -->
<g id="edge2_Node000002_Node000003" class="edge">
<title>Node3&#45;&gt;Node2</title>
<g id="a_edge2_Node000002_Node000003"><a xlink:title=" ">
<path fill="none" stroke="#63b8ff" d="M83.52,-214.82C99.44,-205.4 119.56,-193.5 133.16,-185.45"/>
<polygon fill="#63b8ff" stroke="#63b8ff" points="81.89,-211.72 75.07,-219.82 85.46,-217.74 81.89,-211.72"/>
</a>
</g>
</g>
<!-- Node4 -->
<g id="Node000004" class="node">
<title>Node4</title>
<g id="a_Node000004"><a xlink:href="structcBgS__PolyInfo.html" target="_top" xlink:title=" ">
<polygon fill="white" stroke="#666666" points="188.75,-240.25 108.25,-240.25 108.25,-221 188.75,-221 188.75,-240.25"/>
<text text-anchor="middle" x="148.5" y="-226.75" font-family="Helvetica,sans-Serif" font-size="10.00">cBgS_PolyInfo</text>
</a>
</g>
</g>
<!-- Node4&#45;&gt;Node2 -->
<g id="edge3_Node000002_Node000004" class="edge">
<title>Node4&#45;&gt;Node2</title>
<g id="a_edge3_Node000002_Node000004"><a xlink:title=" ">
<path fill="none" stroke="#63b8ff" d="M148.5,-209.38C148.5,-201.09 148.5,-191.92 148.5,-185.36"/>
<polygon fill="#63b8ff" stroke="#63b8ff" points="145,-209.32 148.5,-219.32 152,-209.32 145,-209.32"/>
</a>
</g>
</g>
<!-- Node5 -->
<g id="Node000005" class="node">
<title>Node5</title>
<g id="a_Node000005"><a xlink:href="classdBgS__Chk.html" target="_top" xlink:title=" ">
<polygon fill="white" stroke="#666666" points="289.75,-185 227.25,-185 227.25,-165.75 289.75,-165.75 289.75,-185"/>
<text text-anchor="middle" x="258.5" y="-171.5" font-family="Helvetica,sans-Serif" font-size="10.00">dBgS_Chk</text>
</a>
</g>
</g>
<!-- Node5&#45;&gt;Node1 -->
<g id="edge4_Node000001_Node000005" class="edge">
<title>Node5&#45;&gt;Node1</title>
<g id="a_edge4_Node000001_Node000005"><a xlink:title=" ">
<path fill="none" stroke="#63b8ff" d="M241.15,-157.57C231.75,-148.48 220.52,-137.6 212.78,-130.11"/>
<polygon fill="#63b8ff" stroke="#63b8ff" points="238.71,-160.09 248.33,-164.53 243.58,-155.06 238.71,-160.09"/>
</a>
</g>
</g>
<!-- Node6 -->
<g id="Node000006" class="node">
<title>Node6</title>
<g id="a_Node000006"><a xlink:href="structdBgS__PolyPassChk.html" target="_top" xlink:title=" ">
<polygon fill="white" stroke="#666666" points="310.38,-240.25 206.62,-240.25 206.62,-221 310.38,-221 310.38,-240.25"/>
<text text-anchor="middle" x="258.5" y="-226.75" font-family="Helvetica,sans-Serif" font-size="10.00">dBgS_PolyPassChk</text>
</a>
</g>
</g>
<!-- Node6&#45;&gt;Node5 -->
<g id="edge5_Node000005_Node000006" class="edge">
<title>Node6&#45;&gt;Node5</title>
<g id="a_edge5_Node000005_Node000006"><a xlink:title=" ">
<path fill="none" stroke="#63b8ff" d="M258.5,-209.38C258.5,-201.09 258.5,-191.92 258.5,-185.36"/>
<polygon fill="#63b8ff" stroke="#63b8ff" points="255,-209.32 258.5,-219.32 262,-209.32 255,-209.32"/>
</a>
</g>
</g>
<!-- Node7 -->
<g id="Node000007" class="node">
<title>Node7</title>
<g id="a_Node000007"><a xlink:href="classcBgS__PolyPassChk.html" target="_top" xlink:title=" ">
<polygon fill="white" stroke="#666666" points="310.38,-295.5 206.62,-295.5 206.62,-276.25 310.38,-276.25 310.38,-295.5"/>
<text text-anchor="middle" x="258.5" y="-282" font-family="Helvetica,sans-Serif" font-size="10.00">cBgS_PolyPassChk</text>
</a>
</g>
</g>
<!-- Node7&#45;&gt;Node6 -->
<g id="edge6_Node000006_Node000007" class="edge">
<title>Node7&#45;&gt;Node6</title>
<g id="a_edge6_Node000006_Node000007"><a xlink:title=" ">
<path fill="none" stroke="#63b8ff" d="M258.5,-264.63C258.5,-256.34 258.5,-247.17 258.5,-240.61"/>
<polygon fill="#63b8ff" stroke="#63b8ff" points="255,-264.57 258.5,-274.57 262,-264.57 255,-264.57"/>
</a>
</g>
</g>
<!-- Node8 -->
<g id="Node000008" class="node">
<title>Node8</title>
<g id="a_Node000008"><a xlink:href="classdBgS__GrpPassChk.html" target="_top" xlink:title=" ">
<polygon fill="white" stroke="#666666" points="428.88,-240.25 328.12,-240.25 328.12,-221 428.88,-221 428.88,-240.25"/>
<text text-anchor="middle" x="378.5" y="-226.75" font-family="Helvetica,sans-Serif" font-size="10.00">dBgS_GrpPassChk</text>
</a>
</g>
</g>
<!-- Node8&#45;&gt;Node5 -->
<g id="edge7_Node000005_Node000008" class="edge">
<title>Node8&#45;&gt;Node5</title>
<g id="a_edge7_Node000005_Node000008"><a xlink:title=" ">
<path fill="none" stroke="#63b8ff" d="M347.84,-216.02C326.23,-206.43 297.87,-193.84 278.96,-185.45"/>
<polygon fill="#63b8ff" stroke="#63b8ff" points="346.2,-219.12 356.76,-219.98 349.04,-212.72 346.2,-219.12"/>
</a>
</g>
</g>
<!-- Node9 -->
<g id="Node000009" class="node">
<title>Node9</title>
<g id="a_Node000009"><a xlink:href="classcBgS__GrpPassChk.html" target="_top" xlink:title=" ">
<polygon fill="white" stroke="#666666" points="428.88,-295.5 328.12,-295.5 328.12,-276.25 428.88,-276.25 428.88,-295.5"/>
<text text-anchor="middle" x="378.5" y="-282" font-family="Helvetica,sans-Serif" font-size="10.00">cBgS_GrpPassChk</text>
</a>
</g>
</g>
<!-- Node9&#45;&gt;Node8 -->
<g id="edge8_Node000008_Node000009" class="edge">
<title>Node9&#45;&gt;Node8</title>
<g id="a_edge8_Node000008_Node000009"><a xlink:title=" ">
<path fill="none" stroke="#63b8ff" d="M378.5,-264.63C378.5,-256.34 378.5,-247.17 378.5,-240.61"/>
<polygon fill="#63b8ff" stroke="#63b8ff" points="375,-264.57 378.5,-274.57 382,-264.57 375,-264.57"/>
</a>
</g>
</g>
<!-- Node11 -->
<g id="Node000011" class="node">
<title>Node11</title>
<g id="a_Node000011"><a xlink:href="classdBgS__CamGndChk__Wtr.html" target="_top" xlink:title=" ">
<polygon fill="white" stroke="#666666" points="121,-19.25 0,-19.25 0,0 121,0 121,-19.25"/>
<text text-anchor="middle" x="60.5" y="-5.75" font-family="Helvetica,sans-Serif" font-size="10.00">dBgS_CamGndChk_Wtr</text>
</a>
</g>
</g>
<!-- Node10&#45;&gt;Node11 -->
<g id="edge10_Node000010_Node000011" class="edge">
<title>Node10&#45;&gt;Node11</title>
<g id="a_edge10_Node000010_Node000011"><a xlink:title=" ">
<path fill="none" stroke="#63b8ff" d="M71.22,-44.21C68.53,-35.77 65.51,-26.33 63.37,-19.61"/>
<polygon fill="#63b8ff" stroke="#63b8ff" points="67.86,-45.18 74.23,-53.64 74.53,-43.05 67.86,-45.18"/>
</a>
</g>
</g>
<!-- Node14 -->
<g id="Node000014" class="node">
<title>Node14</title>
<g id="a_Node000014"><a xlink:href="classdBgS__ObjGndChk__All.html" target="_top" xlink:title=" ">
<polygon fill="white" stroke="#666666" points="251.5,-19.25 139.5,-19.25 139.5,0 251.5,0 251.5,-19.25"/>
<text text-anchor="middle" x="195.5" y="-5.75" font-family="Helvetica,sans-Serif" font-size="10.00">dBgS_ObjGndChk_All</text>
</a>
</g>
</g>
<!-- Node13&#45;&gt;Node14 -->
<g id="edge13_Node000013_Node000014" class="edge">
<title>Node13&#45;&gt;Node14</title>
<g id="a_edge13_Node000013_Node000014"><a xlink:title=" ">
<path fill="none" stroke="#63b8ff" d="M290.37,-50.4C267.45,-40.79 237.25,-28.13 217.15,-19.7"/>
<polygon fill="#63b8ff" stroke="#63b8ff" points="288.98,-53.62 299.56,-54.26 291.69,-47.16 288.98,-53.62"/>
</a>
</g>
</g>
<!-- Node15 -->
<g id="Node000015" class="node">
<title>Node15</title>
<g id="a_Node000015"><a xlink:href="structdBgS__ObjGndChk__Spl.html" target="_top" xlink:title=" ">
<polygon fill="white" stroke="#666666" points="385,-19.25 270,-19.25 270,0 385,0 385,-19.25"/>
<text text-anchor="middle" x="327.5" y="-5.75" font-family="Helvetica,sans-Serif" font-size="10.00">dBgS_ObjGndChk_Spl</text>
</a>
</g>
</g>
<!-- Node13&#45;&gt;Node15 -->
<g id="edge14_Node000013_Node000015" class="edge">
<title>Node13&#45;&gt;Node15</title>
<g id="a_edge14_Node000013_Node000015"><a xlink:title=" ">
<path fill="none" stroke="#63b8ff" d="M324.4,-43.63C325.18,-35.34 326.04,-26.17 326.66,-19.61"/>
<polygon fill="#63b8ff" stroke="#63b8ff" points="320.92,-43.29 323.47,-53.57 327.89,-43.95 320.92,-43.29"/>
</a>
</g>
</g>
<!-- Node16 -->
<g id="Node000016" class="node">
<title>Node16</title>
<g id="a_Node000016"><a xlink:href="classdBgS__ObjGndChk__Wtr.html" target="_top" xlink:title=" ">
<polygon fill="white" stroke="#666666" points="518.38,-19.25 402.62,-19.25 402.62,0 518.38,0 518.38,-19.25"/>
<text text-anchor="middle" x="460.5" y="-5.75" font-family="Helvetica,sans-Serif" font-size="10.00">dBgS_ObjGndChk_Wtr</text>
</a>
</g>
</g>
<!-- Node13&#45;&gt;Node16 -->
<g id="edge15_Node000013_Node000016" class="edge">
<title>Node13&#45;&gt;Node16</title>
<g id="a_edge15_Node000013_Node000016"><a xlink:title=" ">
<path fill="none" stroke="#63b8ff" d="M356.4,-50.79C381.42,-41.14 414.83,-28.25 436.98,-19.7"/>
<polygon fill="#63b8ff" stroke="#63b8ff" points="355.39,-47.43 347.32,-54.3 357.91,-53.96 355.39,-47.43"/>
</a>
</g>
</g>
</g>
</svg>
