<?xml version="1.0" encoding="UTF-8" standalone="no"?>
<!DOCTYPE svg PUBLIC "-//W3C//DTD SVG 1.1//EN"
 "http://www.w3.org/Graphics/SVG/1.1/DTD/svg11.dtd">
<!-- Generated by graphviz version 9.0.0 (20230911.1827)
 -->
<!-- Title: JStudio::stb::TParseData_fixed&lt; T, Iterator &gt; Pages: 1 -->
<svg width="154pt" height="172pt"
 viewBox="0.00 0.00 153.75 171.50" xmlns="http://www.w3.org/2000/svg" xmlns:xlink="http://www.w3.org/1999/xlink">
<g id="graph0" class="graph" transform="scale(1 1) rotate(0) translate(4 167.5)">
<title>JStudio::stb::TParseData_fixed&lt; T, Iterator &gt;</title>
<!-- Node1 -->
<g id="Node000001" class="node">
<title>Node1</title>
<g id="a_Node000001"><a xlink:title=" ">
<polygon fill="#999999" stroke="#666666" points="134.5,-30.5 11.25,-30.5 11.25,0 134.5,0 134.5,-30.5"/>
<text text-anchor="start" x="19.25" y="-17" font-family="Helvetica,sans-Serif" font-size="10.00">JStudio::stb::TParseData</text>
<text text-anchor="middle" x="72.88" y="-5.75" font-family="Helvetica,sans-Serif" font-size="10.00">_fixed&lt; T, Iterator &gt;</text>
</a>
</g>
</g>
<!-- Node2 -->
<g id="Node000002" class="node">
<title>Node2</title>
<g id="a_Node000002"><a xlink:href="structJStudio_1_1stb_1_1TParseData.html" target="_top" xlink:title=" ">
<polygon fill="white" stroke="#666666" points="145.75,-85.75 0,-85.75 0,-66.5 145.75,-66.5 145.75,-85.75"/>
<text text-anchor="middle" x="72.88" y="-72.25" font-family="Helvetica,sans-Serif" font-size="10.00">JStudio::stb::TParseData&lt; T &gt;</text>
</a>
</g>
</g>
<!-- Node2&#45;&gt;Node1 -->
<g id="edge1_Node000001_Node000002" class="edge">
<title>Node2&#45;&gt;Node1</title>
<g id="a_edge1_Node000001_Node000002"><a xlink:title=" ">
<path fill="none" stroke="#63b8ff" d="M72.88,-54.92C72.88,-46.99 72.88,-38.06 72.88,-30.78"/>
<polygon fill="#63b8ff" stroke="#63b8ff" points="69.38,-54.67 72.88,-64.67 76.38,-54.67 69.38,-54.67"/>
</a>
</g>
</g>
<!-- Node3 -->
<g id="Node000003" class="node">
<title>Node3</title>
<g id="a_Node000003"><a xlink:href="structJStudio_1_1stb_1_1data_1_1TParse__TParagraph__data_1_1TData.html" target="_top" xlink:title=" ">
<polygon fill="white" stroke="#666666" points="126.62,-163.5 19.12,-163.5 19.12,-121.75 126.62,-121.75 126.62,-163.5"/>
<text text-anchor="start" x="27.12" y="-150" font-family="Helvetica,sans-Serif" font-size="10.00">JStudio::stb::data</text>
<text text-anchor="start" x="27.12" y="-138.75" font-family="Helvetica,sans-Serif" font-size="10.00">::TParse_TParagraph</text>
<text text-anchor="middle" x="72.88" y="-127.5" font-family="Helvetica,sans-Serif" font-size="10.00">_data::TData</text>
</a>
</g>
</g>
<!-- Node3&#45;&gt;Node2 -->
<g id="edge2_Node000002_Node000003" class="edge">
<title>Node3&#45;&gt;Node2</title>
<g id="a_edge2_Node000002_Node000003"><a xlink:title=" ">
<path fill="none" stroke="#63b8ff" d="M72.88,-110.26C72.88,-101.45 72.88,-92.55 72.88,-86.2"/>
<polygon fill="#63b8ff" stroke="#63b8ff" points="69.38,-110.06 72.88,-120.06 76.38,-110.06 69.38,-110.06"/>
</a>
</g>
</g>
</g>
</svg>
