<?xml version="1.0" encoding="UTF-8" standalone="no"?>
<!DOCTYPE svg PUBLIC "-//W3C//DTD SVG 1.1//EN"
 "http://www.w3.org/Graphics/SVG/1.1/DTD/svg11.dtd">
<!-- Generated by graphviz version 9.0.0 (20230911.1827)
 -->
<!-- Title: dMeterMap_c Pages: 1 -->
<!--zoomable 439 -->

<svg id="main" version="1.1" xmlns="http://www.w3.org/2000/svg" xmlns:xlink="http://www.w3.org/1999/xlink" xml:space="preserve" onload="init(evt)">
<style type="text/css"><![CDATA[
.node, .edge {opacity: 0.7;}
.node.selected, .edge.selected {opacity: 1;}
.edge:hover path { stroke: red; }
.edge:hover polygon { stroke: red; fill: red; }
]]></style>

<defs>
  <circle id="rim" cx="0" cy="0" r="7"/>
  <circle id="rim2" cx="0" cy="0" r="3.5"/>
  <g id="zoomPlus">
    <use xlink:href="#rim" fill="#404040"><set attributeName="fill" to="#808080" begin="zoomplus.mouseover" end="zoomplus.mouseout"/></use>
    <path d="M-4,0h8M0,-4v8" fill="none" stroke="white" stroke-width="1.5" pointer-events="none"/>
  </g>
  <g id="zoomMin">
    <use xlink:href="#rim" fill="#404040"><set attributeName="fill" to="#808080" begin="zoomminus.mouseover" end="zoomminus.mouseout"/></use>
    <path d="M-4,0h8" fill="none" stroke="white" stroke-width="1.5" pointer-events="none"/>
  </g>
  <g id="arrowUp" transform="translate(30 24)">
    <use xlink:href="#rim"/>
    <path pointer-events="none" fill="none" stroke="white" stroke-width="1.5" d="M0,-3.0v7 M-2.5,-0.5L0,-3.0L2.5,-0.5"/>
  </g>
  <g id="arrowRight" transform="rotate(90) translate(36 -43)">
    <use xlink:href="#rim"/>
    <path pointer-events="none" fill="none" stroke="white" stroke-width="1.5" d="M0,-3.0v7 M-2.5,-0.5L0,-3.0L2.5,-0.5"/>
  </g>
  <g id="arrowDown" transform="rotate(180) translate(-30 -48)">
    <use xlink:href="#rim"/>
    <path pointer-events="none" fill="none" stroke="white" stroke-width="1.5" d="M0,-3.0v7 M-2.5,-0.5L0,-3.0L2.5,-0.5"/>
  </g>
  <g id="arrowLeft" transform="rotate(270) translate(-36 17)">
    <use xlink:href="#rim"/>
    <path pointer-events="none" fill="none" stroke="white" stroke-width="1.5" d="M0,-3.0v7 M-2.5,-0.5L0,-3.0L2.5,-0.5"/>
  </g>
  <g id="resetDef">
    <use xlink:href="#rim2" fill="#404040"><set attributeName="fill" to="#808080" begin="reset.mouseover" end="reset.mouseout"/></use>
  </g>
</defs>
<script type="application/ecmascript">
var viewWidth = 1913;
var viewHeight = 439;
var sectionId = 'dynsection-1';
</script>
<script type="application/ecmascript" xlink:href="svg.min.js"/>
<svg id="graph" class="graph">
<g id="viewport">
<title>dMeterMap_c</title>
<!-- Node1 -->
<g id="Node000001" class="node">
<title>Node1</title>
<g id="a_Node000001"><a xlink:title=" ">
<polygon fill="#999999" stroke="#666666" points="1905.25,-273.25 1830,-273.25 1830,-254 1905.25,-254 1905.25,-273.25"/>
<text text-anchor="middle" x="1867.62" y="-259.75" font-family="Helvetica,sans-Serif" font-size="10.00">dMeterMap_c</text>
</a>
</g>
</g>
<!-- Node2 -->
<g id="Node000002" class="node">
<title>Node2</title>
<g id="a_Node000002"><a xlink:href="classdDlst__base__c.html" target="_top" xlink:title=" ">
<polygon fill="white" stroke="#666666" points="75.25,-421.25 0,-421.25 0,-402 75.25,-402 75.25,-421.25"/>
<text text-anchor="middle" x="37.62" y="-407.75" font-family="Helvetica,sans-Serif" font-size="10.00">dDlst_base_c</text>
</a>
</g>
</g>
<!-- Node2&#45;&gt;Node1 -->
<g id="edge1_Node000001_Node000002" class="edge">
<title>Node2&#45;&gt;Node1</title>
<g id="a_edge1_Node000001_Node000002"><a xlink:title=" ">
<path fill="none" stroke="#63b8ff" d="M86.86,-423.63C105.93,-427.41 128.12,-430.62 148.5,-430.62 148.5,-430.62 148.5,-430.62 1685.75,-430.62 1778.92,-430.62 1844.57,-309.52 1862.01,-273.57"/>
<polygon fill="#63b8ff" stroke="#63b8ff" points="87.72,-420.23 77.21,-421.6 86.28,-427.09 87.72,-420.23"/>
</a>
</g>
</g>
<!-- Node31 -->
<g id="Node000031" class="node">
<title>Node31</title>
<g id="a_Node000031"><a xlink:href="structdDrawPath__c.html" target="_top" xlink:title=" ">
<polygon fill="white" stroke="#666666" points="186.75,-399.25 112.25,-399.25 112.25,-380 186.75,-380 186.75,-399.25"/>
<text text-anchor="middle" x="149.5" y="-385.75" font-family="Helvetica,sans-Serif" font-size="10.00">dDrawPath_c</text>
</a>
</g>
</g>
<!-- Node2&#45;&gt;Node31 -->
<g id="edge35_Node000031_Node000002" class="edge">
<title>Node2&#45;&gt;Node31</title>
<g id="a_edge35_Node000031_Node000002"><a xlink:title=" ">
<path fill="none" stroke="#63b8ff" d="M86.79,-401.98C95.21,-400.29 103.85,-398.57 111.89,-396.95"/>
<polygon fill="#63b8ff" stroke="#63b8ff" points="86.12,-398.55 77,-403.94 87.49,-405.41 86.12,-398.55"/>
</a>
</g>
</g>
<!-- Node3 -->
<g id="Node000003" class="node">
<title>Node3</title>
<g id="a_Node000003"><a xlink:href="classJ2DPicture.html" target="_top" xlink:title=" ">
<polygon fill="white" stroke="#666666" points="1716.75,-273.25 1652.75,-273.25 1652.75,-254 1716.75,-254 1716.75,-273.25"/>
<text text-anchor="middle" x="1684.75" y="-259.75" font-family="Helvetica,sans-Serif" font-size="10.00">J2DPicture</text>
</a>
</g>
</g>
<!-- Node3&#45;&gt;Node1 -->
<g id="edge2_Node000001_Node000003" class="edge">
<title>Node3&#45;&gt;Node1</title>
<g id="a_edge2_Node000001_Node000003"><a xlink:title=" ">
<path fill="none" stroke="#9a32cd" stroke-dasharray="5,2" d="M1728.09,-263.62C1758.91,-263.62 1800.22,-263.62 1829.7,-263.62"/>
<polygon fill="#9a32cd" stroke="#9a32cd" points="1728.36,-260.13 1718.36,-263.63 1728.36,-267.13 1728.36,-260.13"/>
</a>
</g>
<text text-anchor="middle" x="1773.38" y="-265.38" font-family="Helvetica,sans-Serif" font-size="10.00" fill="grey"> mMapJ2DPicture</text>
</g>
<!-- Node4 -->
<g id="Node000004" class="node">
<title>Node4</title>
<g id="a_Node000004"><a xlink:href="classJ2DPane.html" target="_top" xlink:title=" ">
<polygon fill="white" stroke="#666666" points="1497.12,-294.25 1441.38,-294.25 1441.38,-275 1497.12,-275 1497.12,-294.25"/>
<text text-anchor="middle" x="1469.25" y="-280.75" font-family="Helvetica,sans-Serif" font-size="10.00">J2DPane</text>
</a>
</g>
</g>
<!-- Node4&#45;&gt;Node3 -->
<g id="edge3_Node000003_Node000004" class="edge">
<title>Node4&#45;&gt;Node3</title>
<g id="a_edge3_Node000003_Node000004"><a xlink:title=" ">
<path fill="none" stroke="#63b8ff" d="M1508.74,-280.84C1549.87,-276.79 1614.29,-270.46 1652.43,-266.71"/>
<polygon fill="#63b8ff" stroke="#63b8ff" points="1508.41,-277.36 1498.8,-281.82 1509.09,-284.32 1508.41,-277.36"/>
</a>
</g>
</g>
<!-- Node5 -->
<g id="Node000005" class="node">
<title>Node5</title>
<g id="a_Node000005"><a xlink:href="structJGeometry_1_1TBox2.html" target="_top" xlink:title=" ">
<polygon fill="white" stroke="#666666" points="1285.38,-315.25 1159.88,-315.25 1159.88,-296 1285.38,-296 1285.38,-315.25"/>
<text text-anchor="middle" x="1222.62" y="-301.75" font-family="Helvetica,sans-Serif" font-size="10.00">JGeometry::TBox2&lt; f32 &gt;</text>
</a>
</g>
</g>
<!-- Node5&#45;&gt;Node4 -->
<g id="edge4_Node000004_Node000005" class="edge">
<title>Node5&#45;&gt;Node4</title>
<g id="a_edge4_Node000004_Node000005"><a xlink:title=" ">
<path fill="none" stroke="#9a32cd" stroke-dasharray="5,2" d="M1297.1,-299.32C1345.72,-295.14 1406.64,-289.91 1441.14,-286.95"/>
<polygon fill="#9a32cd" stroke="#9a32cd" points="1296.84,-295.83 1287.18,-300.17 1297.44,-302.8 1296.84,-295.83"/>
</a>
</g>
<text text-anchor="middle" x="1351.75" y="-332.12" font-family="Helvetica,sans-Serif" font-size="10.00" fill="grey"> mBounds</text>
<text text-anchor="middle" x="1351.75" y="-320.88" font-family="Helvetica,sans-Serif" font-size="10.00" fill="grey">mClipRect</text>
<text text-anchor="middle" x="1351.75" y="-309.62" font-family="Helvetica,sans-Serif" font-size="10.00" fill="grey">mGlobalBounds</text>
<text text-anchor="middle" x="1351.75" y="-298.38" font-family="Helvetica,sans-Serif" font-size="10.00" fill="grey">static_mBounds</text>
</g>
<!-- Node6 -->
<g id="Node000006" class="node">
<title>Node6</title>
<g id="a_Node000006"><a xlink:href="structJGeometry_1_1TBox.html" target="_top" xlink:title=" ">
<polygon fill="white" stroke="#666666" points="1053.75,-319.25 941,-319.25 941,-300 1053.75,-300 1053.75,-319.25"/>
<text text-anchor="middle" x="997.38" y="-305.75" font-family="Helvetica,sans-Serif" font-size="10.00">JGeometry::TBox&lt; T &gt;</text>
</a>
</g>
</g>
<!-- Node6&#45;&gt;Node5 -->
<g id="edge5_Node000005_Node000006" class="edge">
<title>Node6&#45;&gt;Node5</title>
<g id="a_edge5_Node000005_Node000006"><a xlink:title=" ">
<path fill="none" stroke="#63b8ff" d="M1065.32,-308.43C1095.2,-307.89 1130.2,-307.26 1159.5,-306.74"/>
<polygon fill="#63b8ff" stroke="#63b8ff" points="1065.58,-304.92 1055.65,-308.6 1065.71,-311.92 1065.58,-304.92"/>
</a>
</g>
</g>
<!-- Node7 -->
<g id="Node000007" class="node">
<title>Node7</title>
<g id="a_Node000007"><a xlink:href="classJSUTree.html" target="_top" xlink:title=" ">
<polygon fill="white" stroke="#666666" points="1278.25,-274.25 1167,-274.25 1167,-255 1278.25,-255 1278.25,-274.25"/>
<text text-anchor="middle" x="1222.62" y="-260.75" font-family="Helvetica,sans-Serif" font-size="10.00">JSUTree&lt; J2DPane &gt;</text>
</a>
</g>
</g>
<!-- Node7&#45;&gt;Node4 -->
<g id="edge6_Node000004_Node000007" class="edge">
<title>Node7&#45;&gt;Node4</title>
<g id="a_edge6_Node000004_Node000007"><a xlink:title=" ">
<path fill="none" stroke="#9a32cd" stroke-dasharray="5,2" d="M1289.77,-261.52C1319.58,-260.99 1355.16,-261.58 1387,-265.38 1405.28,-267.55 1425.42,-272.31 1441.07,-276.55"/>
<polygon fill="#9a32cd" stroke="#9a32cd" points="1290.08,-258.01 1280.16,-261.73 1290.24,-265.01 1290.08,-258.01"/>
</a>
</g>
<text text-anchor="middle" x="1351.75" y="-266.38" font-family="Helvetica,sans-Serif" font-size="10.00" fill="grey"> mPaneTree</text>
</g>
<!-- Node8 -->
<g id="Node000008" class="node">
<title>Node8</title>
<g id="a_Node000008"><a xlink:href="classJSUList.html" target="_top" xlink:title=" ">
<polygon fill="white" stroke="#666666" points="923,-287.25 848.5,-287.25 848.5,-268 923,-268 923,-287.25"/>
<text text-anchor="middle" x="885.75" y="-273.75" font-family="Helvetica,sans-Serif" font-size="10.00">JSUList&lt; T &gt;</text>
</a>
</g>
</g>
<!-- Node8&#45;&gt;Node7 -->
<g id="edge7_Node000007_Node000008" class="edge">
<title>Node8&#45;&gt;Node7</title>
<g id="a_edge7_Node000007_Node000008"><a xlink:title=" ">
<path fill="none" stroke="#63b8ff" d="M934.5,-275.77C995.82,-273.39 1102.03,-269.27 1166.66,-266.76"/>
<polygon fill="#63b8ff" stroke="#63b8ff" points="934.59,-272.26 924.74,-276.15 934.87,-279.26 934.59,-272.26"/>
</a>
</g>
</g>
<!-- Node9 -->
<g id="Node000009" class="node">
<title>Node9</title>
<g id="a_Node000009"><a xlink:href="classJSUPtrList.html" target="_top" xlink:title=" ">
<polygon fill="white" stroke="#666666" points="637.88,-267.25 573.12,-267.25 573.12,-248 637.88,-248 637.88,-267.25"/>
<text text-anchor="middle" x="605.5" y="-253.75" font-family="Helvetica,sans-Serif" font-size="10.00">JSUPtrList</text>
</a>
</g>
</g>
<!-- Node9&#45;&gt;Node8 -->
<g id="edge8_Node000008_Node000009" class="edge">
<title>Node9&#45;&gt;Node8</title>
<g id="a_edge8_Node000008_Node000009"><a xlink:title=" ">
<path fill="none" stroke="#63b8ff" d="M649.49,-262.69C673.69,-265.39 704.5,-268.57 732,-270.62 771.71,-273.59 817.33,-275.48 848.3,-276.54"/>
<polygon fill="#63b8ff" stroke="#63b8ff" points="650.01,-259.23 639.68,-261.58 649.22,-266.19 650.01,-259.23"/>
</a>
</g>
</g>
<!-- Node10 -->
<g id="Node000010" class="node">
<title>Node10</title>
<g id="a_Node000010"><a xlink:href="classJSUPtrLink.html" target="_top" xlink:title=" ">
<polygon fill="white" stroke="#666666" points="814.75,-221.25 747.75,-221.25 747.75,-202 814.75,-202 814.75,-221.25"/>
<text text-anchor="middle" x="781.25" y="-207.75" font-family="Helvetica,sans-Serif" font-size="10.00">JSUPtrLink</text>
</a>
</g>
</g>
<!-- Node9&#45;&gt;Node10 -->
<g id="edge10_Node000010_Node000009" class="edge">
<title>Node9&#45;&gt;Node10</title>
<g id="a_edge10_Node000010_Node000009"><a xlink:title=" ">
<path fill="none" stroke="#9a32cd" stroke-dasharray="5,2" d="M649.47,-250.32C669.28,-246.57 693,-241.54 714,-235.62 727.78,-231.74 742.8,-226.4 755.05,-221.73"/>
<polygon fill="#9a32cd" stroke="#9a32cd" points="649,-246.84 639.8,-252.1 650.26,-253.73 649,-246.84"/>
</a>
</g>
<text text-anchor="middle" x="697.12" y="-245.38" font-family="Helvetica,sans-Serif" font-size="10.00" fill="grey"> mList</text>
</g>
<!-- Node10&#45;&gt;Node9 -->
<g id="edge9_Node000009_Node000010" class="edge">
<title>Node10&#45;&gt;Node9</title>
<g id="a_edge9_Node000009_Node000010"><a xlink:title=" ">
<path fill="none" stroke="#9a32cd" stroke-dasharray="5,2" d="M736.18,-207.36C718.49,-206.91 698.1,-208.01 680.25,-213.12 656.39,-219.96 632.46,-236.64 618.59,-247.53"/>
<polygon fill="#9a32cd" stroke="#9a32cd" points="735.99,-210.85 746.14,-207.8 736.3,-203.86 735.99,-210.85"/>
</a>
</g>
<text text-anchor="middle" x="697.12" y="-225.62" font-family="Helvetica,sans-Serif" font-size="10.00" fill="grey"> mHead</text>
<text text-anchor="middle" x="697.12" y="-214.38" font-family="Helvetica,sans-Serif" font-size="10.00" fill="grey">mTail</text>
</g>
<!-- Node10&#45;&gt;Node10 -->
<g id="edge11_Node000010_Node000010" class="edge">
<title>Node10&#45;&gt;Node10</title>
<g id="a_edge11_Node000010_Node000010"><a xlink:title=" ">
<path fill="none" stroke="#9a32cd" stroke-dasharray="5,2" d="M766.32,-232.65C768.19,-236.53 773.16,-239.25 781.25,-239.25 796.04,-239.25 800.43,-230.15 794.42,-221.54"/>
<polygon fill="#9a32cd" stroke="#9a32cd" points="769.73,-233.46 767.84,-223.03 762.82,-232.36 769.73,-233.46"/>
</a>
</g>
<text text-anchor="middle" x="781.25" y="-252.25" font-family="Helvetica,sans-Serif" font-size="10.00" fill="grey"> mNext</text>
<text text-anchor="middle" x="781.25" y="-241" font-family="Helvetica,sans-Serif" font-size="10.00" fill="grey">mPrev</text>
</g>
<!-- Node11 -->
<g id="Node000011" class="node">
<title>Node11</title>
<g id="a_Node000011"><a xlink:href="classJSULink.html" target="_top" xlink:title=" ">
<polygon fill="white" stroke="#666666" points="1035.75,-243.25 959,-243.25 959,-224 1035.75,-224 1035.75,-243.25"/>
<text text-anchor="middle" x="997.38" y="-229.75" font-family="Helvetica,sans-Serif" font-size="10.00">JSULink&lt; T &gt;</text>
</a>
</g>
</g>
<!-- Node10&#45;&gt;Node11 -->
<g id="edge13_Node000011_Node000010" class="edge">
<title>Node10&#45;&gt;Node11</title>
<g id="a_edge13_Node000011_Node000010"><a xlink:title=" ">
<path fill="none" stroke="#63b8ff" d="M826.5,-216.17C865.51,-220.18 921.74,-225.96 958.66,-229.75"/>
<polygon fill="#63b8ff" stroke="#63b8ff" points="827.05,-212.71 816.74,-215.17 826.33,-219.67 827.05,-212.71"/>
</a>
</g>
</g>
<!-- Node11&#45;&gt;Node7 -->
<g id="edge12_Node000007_Node000011" class="edge">
<title>Node11&#45;&gt;Node7</title>
<g id="a_edge12_Node000007_Node000011"><a xlink:title=" ">
<path fill="none" stroke="#63b8ff" d="M1047.24,-240.41C1082.53,-245.31 1130.21,-251.93 1166.8,-257.01"/>
<polygon fill="#63b8ff" stroke="#63b8ff" points="1048.13,-237 1037.75,-239.09 1047.17,-243.93 1048.13,-237"/>
</a>
</g>
</g>
<!-- Node12 -->
<g id="Node000012" class="node">
<title>Node12</title>
<g id="a_Node000012"><a xlink:href="classJ2DAnmTransform.html" target="_top" xlink:title=" ">
<polygon fill="white" stroke="#666666" points="1271.5,-365.25 1173.75,-365.25 1173.75,-346 1271.5,-346 1271.5,-365.25"/>
<text text-anchor="middle" x="1222.62" y="-351.75" font-family="Helvetica,sans-Serif" font-size="10.00">J2DAnmTransform</text>
</a>
</g>
</g>
<!-- Node12&#45;&gt;Node4 -->
<g id="edge14_Node000004_Node000012" class="edge">
<title>Node12&#45;&gt;Node4</title>
<g id="a_edge14_Node000004_Node000012"><a xlink:title=" ">
<path fill="none" stroke="#9a32cd" stroke-dasharray="5,2" d="M1283.09,-364.89C1316.13,-366.95 1356.59,-364.09 1387,-344.62 1401.07,-335.62 1392.63,-322.86 1405,-311.62 1415.16,-302.39 1428.96,-296.01 1441.07,-291.77"/>
<polygon fill="#9a32cd" stroke="#9a32cd" points="1283.49,-361.41 1273.25,-364.09 1282.93,-368.38 1283.49,-361.41"/>
</a>
</g>
<text text-anchor="middle" x="1351.75" y="-366.38" font-family="Helvetica,sans-Serif" font-size="10.00" fill="grey"> mTransform</text>
</g>
<!-- Node13 -->
<g id="Node000013" class="node">
<title>Node13</title>
<g id="a_Node000013"><a xlink:href="structJ2DAnmBase.html" target="_top" xlink:title=" ">
<polygon fill="white" stroke="#666666" points="1035.38,-365.25 959.38,-365.25 959.38,-346 1035.38,-346 1035.38,-365.25"/>
<text text-anchor="middle" x="997.38" y="-351.75" font-family="Helvetica,sans-Serif" font-size="10.00">J2DAnmBase</text>
</a>
</g>
</g>
<!-- Node13&#45;&gt;Node12 -->
<g id="edge15_Node000012_Node000013" class="edge">
<title>Node13&#45;&gt;Node12</title>
<g id="a_edge15_Node000012_Node000013"><a xlink:title=" ">
<path fill="none" stroke="#63b8ff" d="M1046.91,-355.62C1084.46,-355.62 1136.19,-355.62 1173.61,-355.62"/>
<polygon fill="#63b8ff" stroke="#63b8ff" points="1047.26,-352.13 1037.26,-355.63 1047.26,-359.13 1047.26,-352.13"/>
</a>
</g>
</g>
<!-- Node14 -->
<g id="Node000014" class="node">
<title>Node14</title>
<g id="a_Node000014"><a xlink:href="classJUTTexture.html" target="_top" xlink:title=" ">
<polygon fill="white" stroke="#666666" points="1502.75,-180.25 1435.75,-180.25 1435.75,-161 1502.75,-161 1502.75,-180.25"/>
<text text-anchor="middle" x="1469.25" y="-166.75" font-family="Helvetica,sans-Serif" font-size="10.00">JUTTexture</text>
</a>
</g>
</g>
<!-- Node14&#45;&gt;Node3 -->
<g id="edge16_Node000003_Node000014" class="edge">
<title>Node14&#45;&gt;Node3</title>
<g id="a_edge16_Node000003_Node000014"><a xlink:title=" ">
<path fill="none" stroke="#9a32cd" stroke-dasharray="5,2" d="M1514.34,-172.57C1549.17,-175.84 1597.89,-184.36 1634.75,-206.38 1654.52,-218.18 1670.26,-240.81 1678.18,-253.81"/>
<polygon fill="#9a32cd" stroke="#9a32cd" points="1514.85,-169.1 1504.6,-171.78 1514.28,-176.08 1514.85,-169.1"/>
</a>
</g>
<text text-anchor="middle" x="1593.12" y="-207.38" font-family="Helvetica,sans-Serif" font-size="10.00" fill="grey"> mTexture</text>
</g>
<!-- Node15 -->
<g id="Node000015" class="node">
<title>Node15</title>
<g id="a_Node000015"><a xlink:href="struct__GXTexObj.html" target="_top" xlink:title=" ">
<polygon fill="white" stroke="#666666" points="1255.75,-169.25 1189.5,-169.25 1189.5,-150 1255.75,-150 1255.75,-169.25"/>
<text text-anchor="middle" x="1222.62" y="-155.75" font-family="Helvetica,sans-Serif" font-size="10.00">_GXTexObj</text>
</a>
</g>
</g>
<!-- Node15&#45;&gt;Node14 -->
<g id="edge17_Node000014_Node000015" class="edge">
<title>Node15&#45;&gt;Node14</title>
<g id="a_edge17_Node000014_Node000015"><a xlink:title=" ">
<path fill="none" stroke="#9a32cd" stroke-dasharray="5,2" d="M1267.71,-158.39C1300.61,-157.81 1346.67,-157.75 1387,-160.38 1403.03,-161.42 1420.74,-163.54 1435.52,-165.58"/>
<polygon fill="#9a32cd" stroke="#9a32cd" points="1267.65,-154.89 1257.73,-158.59 1267.79,-161.89 1267.65,-154.89"/>
</a>
</g>
<text text-anchor="middle" x="1351.75" y="-161.38" font-family="Helvetica,sans-Serif" font-size="10.00" fill="grey"> mTexObj</text>
</g>
<!-- Node16 -->
<g id="Node000016" class="node">
<title>Node16</title>
<g id="a_Node000016"><a xlink:href="structResTIMG.html" target="_top" xlink:title="Image data header.">
<polygon fill="white" stroke="#666666" points="1251.62,-119.25 1193.62,-119.25 1193.62,-100 1251.62,-100 1251.62,-119.25"/>
<text text-anchor="middle" x="1222.62" y="-105.75" font-family="Helvetica,sans-Serif" font-size="10.00">ResTIMG</text>
</a>
</g>
</g>
<!-- Node16&#45;&gt;Node14 -->
<g id="edge18_Node000014_Node000016" class="edge">
<title>Node16&#45;&gt;Node14</title>
<g id="a_edge18_Node000014_Node000016"><a xlink:title=" ">
<path fill="none" stroke="#9a32cd" stroke-dasharray="5,2" d="M1263.04,-115.97C1296.35,-121.7 1345.18,-130.97 1387,-142.38 1405.73,-147.48 1426.39,-154.69 1442.19,-160.54"/>
<polygon fill="#9a32cd" stroke="#9a32cd" points="1263.88,-112.56 1253.43,-114.34 1262.71,-119.46 1263.88,-112.56"/>
</a>
</g>
<text text-anchor="middle" x="1351.75" y="-143.38" font-family="Helvetica,sans-Serif" font-size="10.00" fill="grey"> mTexInfo</text>
</g>
<!-- Node23 -->
<g id="Node000023" class="node">
<title>Node23</title>
<g id="a_Node000023"><a xlink:href="classdMap__c.html" target="_top" xlink:title=" ">
<polygon fill="white" stroke="#666666" points="1710,-87.25 1659.5,-87.25 1659.5,-68 1710,-68 1710,-87.25"/>
<text text-anchor="middle" x="1684.75" y="-73.75" font-family="Helvetica,sans-Serif" font-size="10.00">dMap_c</text>
</a>
</g>
</g>
<!-- Node16&#45;&gt;Node23 -->
<g id="edge39_Node000023_Node000016" class="edge">
<title>Node16&#45;&gt;Node23</title>
<g id="a_edge39_Node000023_Node000016"><a xlink:title=" ">
<path fill="none" stroke="#9a32cd" stroke-dasharray="5,2" d="M1263.44,-106.86C1356.09,-100.41 1583.96,-84.56 1659.2,-79.33"/>
<polygon fill="#9a32cd" stroke="#9a32cd" points="1263.3,-103.36 1253.57,-107.54 1263.79,-110.34 1263.3,-103.36"/>
</a>
</g>
<text text-anchor="middle" x="1469.25" y="-99.38" font-family="Helvetica,sans-Serif" font-size="10.00" fill="grey"> mResTIMG</text>
</g>
<!-- Node17 -->
<g id="Node000017" class="node">
<title>Node17</title>
<g id="a_Node000017"><a xlink:href="classJUTPalette.html" target="_top" xlink:title=" ">
<polygon fill="white" stroke="#666666" points="1255.38,-206.25 1189.88,-206.25 1189.88,-187 1255.38,-187 1255.38,-206.25"/>
<text text-anchor="middle" x="1222.62" y="-192.75" font-family="Helvetica,sans-Serif" font-size="10.00">JUTPalette</text>
</a>
</g>
</g>
<!-- Node17&#45;&gt;Node3 -->
<g id="edge23_Node000003_Node000017" class="edge">
<title>Node17&#45;&gt;Node3</title>
<g id="a_edge23_Node000003_Node000017"><a xlink:title=" ">
<path fill="none" stroke="#9a32cd" stroke-dasharray="5,2" d="M1266.75,-204.94C1282.39,-207.85 1300.22,-211.03 1316.5,-213.62 1440.73,-233.44 1589.4,-252.15 1652.73,-259.89"/>
<polygon fill="#9a32cd" stroke="#9a32cd" points="1267.76,-201.57 1257.29,-203.17 1266.47,-208.45 1267.76,-201.57"/>
</a>
</g>
<text text-anchor="middle" x="1469.25" y="-245.38" font-family="Helvetica,sans-Serif" font-size="10.00" fill="grey"> mPalette</text>
</g>
<!-- Node17&#45;&gt;Node14 -->
<g id="edge19_Node000014_Node000017" class="edge">
<title>Node17&#45;&gt;Node14</title>
<g id="a_edge19_Node000014_Node000017"><a xlink:title=" ">
<path fill="none" stroke="#9a32cd" stroke-dasharray="5,2" d="M1267.18,-192C1315.44,-186.87 1392.17,-178.71 1435.56,-174.1"/>
<polygon fill="#9a32cd" stroke="#9a32cd" points="1266.94,-188.5 1257.36,-193.04 1267.68,-195.46 1266.94,-188.5"/>
</a>
</g>
<text text-anchor="middle" x="1351.75" y="-199.62" font-family="Helvetica,sans-Serif" font-size="10.00" fill="grey"> field_0x2c</text>
<text text-anchor="middle" x="1351.75" y="-188.38" font-family="Helvetica,sans-Serif" font-size="10.00" fill="grey">mEmbPalette</text>
</g>
<!-- Node18 -->
<g id="Node000018" class="node">
<title>Node18</title>
<g id="a_Node000018"><a xlink:href="struct__GXTlutObj.html" target="_top" xlink:title=" ">
<polygon fill="white" stroke="#666666" points="1030.88,-206.25 963.88,-206.25 963.88,-187 1030.88,-187 1030.88,-206.25"/>
<text text-anchor="middle" x="997.38" y="-192.75" font-family="Helvetica,sans-Serif" font-size="10.00">_GXTlutObj</text>
</a>
</g>
</g>
<!-- Node18&#45;&gt;Node17 -->
<g id="edge20_Node000017_Node000018" class="edge">
<title>Node18&#45;&gt;Node17</title>
<g id="a_edge20_Node000017_Node000018"><a xlink:title=" ">
<path fill="none" stroke="#9a32cd" stroke-dasharray="5,2" d="M1042.66,-196.62C1086.04,-196.62 1151.07,-196.62 1189.64,-196.62"/>
<polygon fill="#9a32cd" stroke="#9a32cd" points="1042.83,-193.13 1032.83,-196.63 1042.83,-200.13 1042.83,-193.13"/>
</a>
</g>
<text text-anchor="middle" x="1100.25" y="-198.38" font-family="Helvetica,sans-Serif" font-size="10.00" fill="grey"> mTlutObj</text>
</g>
<!-- Node19 -->
<g id="Node000019" class="node">
<title>Node19</title>
<g id="a_Node000019"><a xlink:href="structResTLUT.html" target="_top" xlink:title=" ">
<polygon fill="white" stroke="#666666" points="1026.75,-169.25 968,-169.25 968,-150 1026.75,-150 1026.75,-169.25"/>
<text text-anchor="middle" x="997.38" y="-155.75" font-family="Helvetica,sans-Serif" font-size="10.00">ResTLUT</text>
</a>
</g>
</g>
<!-- Node19&#45;&gt;Node17 -->
<g id="edge21_Node000017_Node000019" class="edge">
<title>Node19&#45;&gt;Node17</title>
<g id="a_edge21_Node000017_Node000019"><a xlink:title=" ">
<path fill="none" stroke="#9a32cd" stroke-dasharray="5,2" d="M1038.31,-166.24C1081.5,-173.4 1149.48,-184.67 1189.4,-191.28"/>
<polygon fill="#9a32cd" stroke="#9a32cd" points="1039.03,-162.82 1028.6,-164.63 1037.89,-169.72 1039.03,-162.82"/>
</a>
</g>
<text text-anchor="middle" x="1100.25" y="-181.38" font-family="Helvetica,sans-Serif" font-size="10.00" fill="grey"> mColorTable</text>
</g>
<!-- Node20 -->
<g id="Node000020" class="node">
<title>Node20</title>
<g id="a_Node000020"><a xlink:href="structJGeometry_1_1TVec2.html" target="_top" xlink:title=" ">
<polygon fill="white" stroke="#666666" points="1533.5,-385.25 1405,-385.25 1405,-366 1533.5,-366 1533.5,-385.25"/>
<text text-anchor="middle" x="1469.25" y="-371.75" font-family="Helvetica,sans-Serif" font-size="10.00">JGeometry::TVec2&lt; s16 &gt;</text>
</a>
</g>
</g>
<!-- Node20&#45;&gt;Node3 -->
<g id="edge22_Node000003_Node000020" class="edge">
<title>Node20&#45;&gt;Node3</title>
<g id="a_edge22_Node000003_Node000020"><a xlink:title=" ">
<path fill="none" stroke="#9a32cd" stroke-dasharray="5,2" d="M1545.03,-379.8C1575.17,-378.06 1608.86,-371.44 1634.75,-353.62 1663.19,-334.06 1676.66,-292.46 1681.52,-273.46"/>
<polygon fill="#9a32cd" stroke="#9a32cd" points="1545.04,-376.3 1535.19,-380.19 1545.31,-383.3 1545.04,-376.3"/>
</a>
</g>
<text text-anchor="middle" x="1593.12" y="-380.38" font-family="Helvetica,sans-Serif" font-size="10.00" fill="grey"> field_0x10a</text>
</g>
<!-- Node21 -->
<g id="Node000021" class="node">
<title>Node21</title>
<g id="a_Node000021"><a xlink:href="structJUtility_1_1TColor.html" target="_top" xlink:title=" ">
<polygon fill="white" stroke="#666666" points="1508.75,-340.25 1429.75,-340.25 1429.75,-321 1508.75,-321 1508.75,-340.25"/>
<text text-anchor="middle" x="1469.25" y="-326.75" font-family="Helvetica,sans-Serif" font-size="10.00">JUtility::TColor</text>
</a>
</g>
</g>
<!-- Node21&#45;&gt;Node3 -->
<g id="edge24_Node000003_Node000021" class="edge">
<title>Node21&#45;&gt;Node3</title>
<g id="a_edge24_Node000003_Node000021"><a xlink:title=" ">
<path fill="none" stroke="#9a32cd" stroke-dasharray="5,2" d="M1502.5,-316.23C1517.26,-309.95 1535.08,-302.8 1551.5,-297.38 1570.06,-291.24 1619.64,-278.99 1652.53,-271.06"/>
<polygon fill="#9a32cd" stroke="#9a32cd" points="1501.54,-312.83 1493.74,-320.01 1504.31,-319.25 1501.54,-312.83"/>
</a>
</g>
<text text-anchor="middle" x="1593.12" y="-343.38" font-family="Helvetica,sans-Serif" font-size="10.00" fill="grey"> mBlack</text>
<text text-anchor="middle" x="1593.12" y="-332.12" font-family="Helvetica,sans-Serif" font-size="10.00" fill="grey">mBlendKonstAlpha</text>
<text text-anchor="middle" x="1593.12" y="-320.88" font-family="Helvetica,sans-Serif" font-size="10.00" fill="grey">mBlendKonstColor</text>
<text text-anchor="middle" x="1593.12" y="-309.62" font-family="Helvetica,sans-Serif" font-size="10.00" fill="grey">mCornerColor</text>
<text text-anchor="middle" x="1593.12" y="-298.38" font-family="Helvetica,sans-Serif" font-size="10.00" fill="grey">mWhite</text>
</g>
<!-- Node22 -->
<g id="Node000022" class="node">
<title>Node22</title>
<g id="a_Node000022"><a xlink:href="struct__GXColor.html" target="_top" xlink:title=" ">
<polygon fill="white" stroke="#666666" points="1249,-402.25 1196.25,-402.25 1196.25,-383 1249,-383 1249,-402.25"/>
<text text-anchor="middle" x="1222.62" y="-388.75" font-family="Helvetica,sans-Serif" font-size="10.00">GXColor</text>
</a>
</g>
</g>
<!-- Node22&#45;&gt;Node21 -->
<g id="edge25_Node000021_Node000022" class="edge">
<title>Node22&#45;&gt;Node21</title>
<g id="a_edge25_Node000021_Node000022"><a xlink:title=" ">
<path fill="none" stroke="#63b8ff" d="M1260.44,-397.33C1295.12,-400.01 1347.52,-399.44 1387,-378.62 1398.17,-372.73 1394.85,-364.14 1405,-356.62 1413.97,-349.98 1424.88,-344.71 1435.09,-340.7"/>
<polygon fill="#63b8ff" stroke="#63b8ff" points="1261.18,-393.88 1250.9,-396.46 1260.54,-400.85 1261.18,-393.88"/>
</a>
</g>
</g>
<!-- Node23&#45;&gt;Node1 -->
<g id="edge26_Node000001_Node000023" class="edge">
<title>Node23&#45;&gt;Node1</title>
<g id="a_edge26_Node000001_Node000023"><a xlink:title=" ">
<path fill="none" stroke="#9a32cd" stroke-dasharray="5,2" d="M1703.05,-95.41C1740.4,-133.82 1827.59,-223.49 1856.85,-253.58"/>
<polygon fill="#9a32cd" stroke="#9a32cd" points="1706.01,-93.44 1696.53,-88.71 1700.99,-98.32 1706.01,-93.44"/>
</a>
</g>
<text text-anchor="middle" x="1773.38" y="-204.38" font-family="Helvetica,sans-Serif" font-size="10.00" fill="grey"> mMap</text>
</g>
<!-- Node24 -->
<g id="Node000024" class="node">
<title>Node24</title>
<g id="a_Node000024"><a xlink:href="classrenderingAmap__c.html" target="_top" xlink:title=" ">
<polygon fill="white" stroke="#666666" points="1515.12,-56.25 1423.38,-56.25 1423.38,-37 1515.12,-37 1515.12,-56.25"/>
<text text-anchor="middle" x="1469.25" y="-42.75" font-family="Helvetica,sans-Serif" font-size="10.00">renderingAmap_c</text>
</a>
</g>
</g>
<!-- Node24&#45;&gt;Node23 -->
<g id="edge27_Node000023_Node000024" class="edge">
<title>Node24&#45;&gt;Node23</title>
<g id="a_edge27_Node000023_Node000024"><a xlink:title=" ">
<path fill="none" stroke="#63b8ff" d="M1526.71,-54.82C1569.78,-61.08 1627.01,-69.39 1659.14,-74.05"/>
<polygon fill="#63b8ff" stroke="#63b8ff" points="1527.42,-51.39 1517.03,-53.42 1526.42,-58.32 1527.42,-51.39"/>
</a>
</g>
</g>
<!-- Node25 -->
<g id="Node000025" class="node">
<title>Node25</title>
<g id="a_Node000025"><a xlink:href="classrenderingPlusDoorAndCursor__c.html" target="_top" xlink:title=" ">
<polygon fill="white" stroke="#666666" points="1298.5,-75.25 1146.75,-75.25 1146.75,-56 1298.5,-56 1298.5,-75.25"/>
<text text-anchor="middle" x="1222.62" y="-61.75" font-family="Helvetica,sans-Serif" font-size="10.00">renderingPlusDoorAndCursor_c</text>
</a>
</g>
</g>
<!-- Node25&#45;&gt;Node24 -->
<g id="edge28_Node000024_Node000025" class="edge">
<title>Node25&#45;&gt;Node24</title>
<g id="a_edge28_Node000024_Node000025"><a xlink:title=" ">
<path fill="none" stroke="#63b8ff" d="M1309.84,-58.93C1348.1,-55.96 1391.53,-52.58 1423.23,-50.12"/>
<polygon fill="#63b8ff" stroke="#63b8ff" points="1309.89,-55.41 1300.19,-59.68 1310.43,-62.39 1309.89,-55.41"/>
</a>
</g>
</g>
<!-- Node26 -->
<g id="Node000026" class="node">
<title>Node26</title>
<g id="a_Node000026"><a xlink:href="structrenderingPlusDoor__c.html" target="_top" xlink:title=" ">
<polygon fill="white" stroke="#666666" points="1050.38,-106.25 944.38,-106.25 944.38,-87 1050.38,-87 1050.38,-106.25"/>
<text text-anchor="middle" x="997.38" y="-92.75" font-family="Helvetica,sans-Serif" font-size="10.00">renderingPlusDoor_c</text>
</a>
</g>
</g>
<!-- Node26&#45;&gt;Node25 -->
<g id="edge29_Node000025_Node000026" class="edge">
<title>Node26&#45;&gt;Node25</title>
<g id="a_edge29_Node000025_Node000026"><a xlink:title=" ">
<path fill="none" stroke="#63b8ff" d="M1062.02,-87.79C1089.12,-84.02 1120.88,-79.61 1148.91,-75.72"/>
<polygon fill="#63b8ff" stroke="#63b8ff" points="1061.64,-84.31 1052.22,-89.15 1062.6,-91.24 1061.64,-84.31"/>
</a>
</g>
</g>
<!-- Node27 -->
<g id="Node000027" class="node">
<title>Node27</title>
<g id="a_Node000027"><a xlink:href="structrenderingDAmap__c.html" target="_top" xlink:title=" ">
<polygon fill="white" stroke="#666666" points="830.5,-169.25 732,-169.25 732,-150 830.5,-150 830.5,-169.25"/>
<text text-anchor="middle" x="781.25" y="-155.75" font-family="Helvetica,sans-Serif" font-size="10.00">renderingDAmap_c</text>
</a>
</g>
</g>
<!-- Node27&#45;&gt;Node26 -->
<g id="edge30_Node000026_Node000027" class="edge">
<title>Node27&#45;&gt;Node26</title>
<g id="a_edge30_Node000026_Node000027"><a xlink:title=" ">
<path fill="none" stroke="#63b8ff" d="M827.49,-146.31C867.68,-134.49 925.57,-117.46 962.06,-106.72"/>
<polygon fill="#63b8ff" stroke="#63b8ff" points="826.71,-142.9 818.1,-149.08 828.69,-149.61 826.71,-142.9"/>
</a>
</g>
</g>
<!-- Node28 -->
<g id="Node000028" class="node">
<title>Node28</title>
<g id="a_Node000028"><a xlink:href="structdRenderingFDAmap__c.html" target="_top" xlink:title=" ">
<polygon fill="white" stroke="#666666" points="662.25,-209.25 548.75,-209.25 548.75,-190 662.25,-190 662.25,-209.25"/>
<text text-anchor="middle" x="605.5" y="-195.75" font-family="Helvetica,sans-Serif" font-size="10.00">dRenderingFDAmap_c</text>
</a>
</g>
</g>
<!-- Node28&#45;&gt;Node27 -->
<g id="edge31_Node000027_Node000028" class="edge">
<title>Node28&#45;&gt;Node27</title>
<g id="a_edge31_Node000027_Node000028"><a xlink:title=" ">
<path fill="none" stroke="#63b8ff" d="M661.51,-186.96C685.68,-181.4 713.68,-174.95 736.42,-169.72"/>
<polygon fill="#63b8ff" stroke="#63b8ff" points="660.78,-183.54 651.82,-189.19 662.35,-190.36 660.78,-183.54"/>
</a>
</g>
</g>
<!-- Node29 -->
<g id="Node000029" class="node">
<title>Node29</title>
<g id="a_Node000029"><a xlink:href="structdRenderingMap__c.html" target="_top" xlink:title=" ">
<polygon fill="white" stroke="#666666" points="511.75,-310.25 417.75,-310.25 417.75,-291 511.75,-291 511.75,-310.25"/>
<text text-anchor="middle" x="464.75" y="-296.75" font-family="Helvetica,sans-Serif" font-size="10.00">dRenderingMap_c</text>
</a>
</g>
</g>
<!-- Node29&#45;&gt;Node28 -->
<g id="edge32_Node000028_Node000029" class="edge">
<title>Node29&#45;&gt;Node28</title>
<g id="a_edge32_Node000028_Node000029"><a xlink:title=" ">
<path fill="none" stroke="#63b8ff" d="M487.82,-283.84C504.47,-271.26 527.91,-253.69 548.75,-238.62 562.73,-228.52 578.89,-217.26 590.21,-209.44"/>
<polygon fill="#63b8ff" stroke="#63b8ff" points="485.95,-280.88 480.09,-289.7 490.17,-286.46 485.95,-280.88"/>
</a>
</g>
</g>
<!-- Node30 -->
<g id="Node000030" class="node">
<title>Node30</title>
<g id="a_Node000030"><a xlink:href="classdDrawPathWithNormalPattern__c.html" target="_top" xlink:title=" ">
<polygon fill="white" stroke="#666666" points="380.75,-381.25 223.75,-381.25 223.75,-362 380.75,-362 380.75,-381.25"/>
<text text-anchor="middle" x="302.25" y="-367.75" font-family="Helvetica,sans-Serif" font-size="10.00">dDrawPathWithNormalPattern_c</text>
</a>
</g>
</g>
<!-- Node30&#45;&gt;Node29 -->
<g id="edge33_Node000029_Node000030" class="edge">
<title>Node30&#45;&gt;Node29</title>
<g id="a_edge33_Node000029_Node000030"><a xlink:title=" ">
<path fill="none" stroke="#63b8ff" d="M336.28,-357.01C367.53,-343.19 413.6,-322.81 440.95,-310.71"/>
<polygon fill="#63b8ff" stroke="#63b8ff" points="335.02,-353.74 327.29,-360.99 337.85,-360.15 335.02,-353.74"/>
</a>
</g>
</g>
<!-- Node31&#45;&gt;Node30 -->
<g id="edge34_Node000030_Node000031" class="edge">
<title>Node31&#45;&gt;Node30</title>
<g id="a_edge34_Node000030_Node000031"><a xlink:title=" ">
<path fill="none" stroke="#63b8ff" d="M198.33,-383.91C206.34,-382.96 214.83,-381.94 223.37,-380.92"/>
<polygon fill="#63b8ff" stroke="#63b8ff" points="198.01,-380.43 188.5,-385.09 198.84,-387.38 198.01,-380.43"/>
</a>
</g>
</g>
<!-- Node32 -->
<g id="Node000032" class="node">
<title>Node32</title>
<g id="a_Node000032"><a xlink:href="structdMap__prm__res__s.html" target="_top" xlink:title=" ">
<polygon fill="white" stroke="#666666" points="1514.75,-19.25 1423.75,-19.25 1423.75,0 1514.75,0 1514.75,-19.25"/>
<text text-anchor="middle" x="1469.25" y="-5.75" font-family="Helvetica,sans-Serif" font-size="10.00">dMap_prm_res_s</text>
</a>
</g>
</g>
<!-- Node32&#45;&gt;Node23 -->
<g id="edge36_Node000023_Node000032" class="edge">
<title>Node32&#45;&gt;Node23</title>
<g id="a_edge36_Node000023_Node000032"><a xlink:title=" ">
<path fill="none" stroke="#9a32cd" stroke-dasharray="5,2" d="M1526.18,-8.97C1559.18,-10.56 1600.96,-16.13 1634.75,-32.12 1652.17,-40.37 1667.6,-57.05 1676.3,-67.77"/>
<polygon fill="#9a32cd" stroke="#9a32cd" points="1526.54,-5.48 1516.42,-8.62 1526.28,-12.48 1526.54,-5.48"/>
</a>
</g>
<text text-anchor="middle" x="1593.12" y="-45.62" font-family="Helvetica,sans-Serif" font-size="10.00" fill="grey"> m_res</text>
<text text-anchor="middle" x="1593.12" y="-34.38" font-family="Helvetica,sans-Serif" font-size="10.00" fill="grey">m_res_src</text>
</g>
<!-- Node33 -->
<g id="Node000033" class="node">
<title>Node33</title>
<g id="a_Node000033"><a xlink:href="structdMpath__RGB5A3__palDt__s.html" target="_top" xlink:title=" ">
<polygon fill="white" stroke="#666666" points="1287.62,-19.25 1157.62,-19.25 1157.62,0 1287.62,0 1287.62,-19.25"/>
<text text-anchor="middle" x="1222.62" y="-5.75" font-family="Helvetica,sans-Serif" font-size="10.00">dMpath_RGB5A3_palDt_s</text>
</a>
</g>
</g>
<!-- Node33&#45;&gt;Node32 -->
<g id="edge37_Node000032_Node000033" class="edge">
<title>Node33&#45;&gt;Node32</title>
<g id="a_edge37_Node000032_Node000033"><a xlink:title=" ">
<path fill="none" stroke="#9a32cd" stroke-dasharray="5,2" d="M1299.4,-9.62C1340.02,-9.62 1388.69,-9.62 1423.32,-9.62"/>
<polygon fill="#9a32cd" stroke="#9a32cd" points="1299.41,-6.13 1289.41,-9.63 1299.41,-13.13 1299.41,-6.13"/>
</a>
</g>
<text text-anchor="middle" x="1351.75" y="-11.38" font-family="Helvetica,sans-Serif" font-size="10.00" fill="grey"> palette_data</text>
</g>
<!-- Node34 -->
<g id="Node000034" class="node">
<title>Node34</title>
<g id="a_Node000034"><a xlink:href="structdMpath__RGB5A3__s.html" target="_top" xlink:title=" ">
<polygon fill="white" stroke="#666666" points="1048.5,-19.25 946.25,-19.25 946.25,0 1048.5,0 1048.5,-19.25"/>
<text text-anchor="middle" x="997.38" y="-5.75" font-family="Helvetica,sans-Serif" font-size="10.00">dMpath_RGB5A3_s</text>
</a>
</g>
</g>
<!-- Node34&#45;&gt;Node33 -->
<g id="edge38_Node000033_Node000034" class="edge">
<title>Node34&#45;&gt;Node33</title>
<g id="a_edge38_Node000033_Node000034"><a xlink:title=" ">
<path fill="none" stroke="#9a32cd" stroke-dasharray="5,2" d="M1060.03,-9.62C1090.32,-9.62 1126.79,-9.62 1157.41,-9.62"/>
<polygon fill="#9a32cd" stroke="#9a32cd" points="1060.27,-6.13 1050.27,-9.63 1060.27,-13.13 1060.27,-6.13"/>
</a>
</g>
<text text-anchor="middle" x="1100.25" y="-45.12" font-family="Helvetica,sans-Serif" font-size="10.00" fill="grey"> field_0x0</text>
<text text-anchor="middle" x="1100.25" y="-33.88" font-family="Helvetica,sans-Serif" font-size="10.00" fill="grey">field_0x2</text>
<text text-anchor="middle" x="1100.25" y="-22.62" font-family="Helvetica,sans-Serif" font-size="10.00" fill="grey">field_0x4</text>
<text text-anchor="middle" x="1100.25" y="-11.38" font-family="Helvetica,sans-Serif" font-size="10.00" fill="grey">field_0x6</text>
</g>
</g>
</svg>

<g id="navigator" transform="translate(0 0)" fill="#404254">
  <rect fill="#f2f5e9" fill-opacity="0.5" stroke="#606060" stroke-width=".5" x="0" y="0" width="60" height="60"/>
  <use id="zoomplus" xlink:href="#zoomPlus" x="17" y="9" onmousedown="handleZoom(evt,'in')"/>
  <use id="zoomminus" xlink:href="#zoomMin" x="42" y="9" onmousedown="handleZoom(evt,'out')"/>
  <use id="reset" xlink:href="#resetDef" x="30" y="36" onmousedown="handleReset()"/>
   <use id="arrowup" xlink:href="#arrowUp" x="0" y="0" onmousedown="handlePan(0,-1)"/>
  <use id="arrowright" xlink:href="#arrowRight" x="0" y="0" onmousedown="handlePan(1,0)"/>
  <use id="arrowdown" xlink:href="#arrowDown" x="0" y="0" onmousedown="handlePan(0,1)"/>
  <use id="arrowleft" xlink:href="#arrowLeft" x="0" y="0" onmousedown="handlePan(-1,0)"/>
</g>
<svg viewBox="0 0 15 15" width="100%" height="30px" preserveAspectRatio="xMaxYMin meet">
 <g id="arrow_out" transform="scale(0.3 0.3)">
  <a xlink:href="structdMeterMap__c__coll__graph_org.svg" target="_base">
   <rect id="button" ry="5" rx="5" y="6" x="6" height="38" width="38"
        fill="#f2f5e9" fill-opacity="0.5" stroke="#606060" stroke-width="1.0"/>
   <path id="arrow"
     d="M 11.500037,31.436501 C 11.940474,20.09759 22.043105,11.32322 32.158766,21.979434 L 37.068811,17.246167 C 37.068811,17.246167 37.088388,32 37.088388,32 L 22.160133,31.978069 C 22.160133,31.978069 26.997745,27.140456 26.997745,27.140456 C 18.528582,18.264221 13.291696,25.230495 11.500037,31.436501 z"
     style="fill:#404040;"/>
  </a>
 </g>
</svg>

<style type='text/css'>
<![CDATA[
[data-mouse-over-selected='false'] { opacity: 0.7; }
[data-mouse-over-selected='true']  { opacity: 1.0; }
]]>
</style>
<script type="application/ecmascript"><![CDATA[
document.addEventListener('DOMContentLoaded', (event) => {
  highlightEdges();
  highlightAdjacentNodes();
});
]]></script>
</svg>
