<?xml version="1.0" encoding="UTF-8" standalone="no"?>
<!DOCTYPE svg PUBLIC "-//W3C//DTD SVG 1.1//EN"
 "http://www.w3.org/Graphics/SVG/1.1/DTD/svg11.dtd">
<!-- Generated by graphviz version 9.0.0 (20230911.1827)
 -->
<!-- Title: JStudio_JStage::TAdaptor_camera Pages: 1 -->
<svg width="286pt" height="160pt"
 viewBox="0.00 0.00 286.00 160.25" xmlns="http://www.w3.org/2000/svg" xmlns:xlink="http://www.w3.org/1999/xlink">
<g id="graph0" class="graph" transform="scale(1 1) rotate(0) translate(4 156.25)">
<title>JStudio_JStage::TAdaptor_camera</title>
<!-- Node1 -->
<g id="Node000001" class="node">
<title>Node1</title>
<g id="a_Node000001"><a xlink:title=" ">
<polygon fill="#999999" stroke="#666666" points="204,-30.5 74.75,-30.5 74.75,0 204,0 204,-30.5"/>
<text text-anchor="start" x="82.75" y="-17" font-family="Helvetica,sans-Serif" font-size="10.00">JStudio_JStage::TAdaptor</text>
<text text-anchor="middle" x="139.38" y="-5.75" font-family="Helvetica,sans-Serif" font-size="10.00">_camera</text>
</a>
</g>
</g>
<!-- Node2 -->
<g id="Node000002" class="node">
<title>Node2</title>
<g id="a_Node000002"><a xlink:href="structJStudio_1_1TAdaptor__camera.html" target="_top" xlink:title=" ">
<polygon fill="white" stroke="#666666" points="130.75,-91.38 0,-91.38 0,-72.12 130.75,-72.12 130.75,-91.38"/>
<text text-anchor="middle" x="65.38" y="-77.88" font-family="Helvetica,sans-Serif" font-size="10.00">JStudio::TAdaptor_camera</text>
</a>
</g>
</g>
<!-- Node2&#45;&gt;Node1 -->
<g id="edge1_Node000001_Node000002" class="edge">
<title>Node2&#45;&gt;Node1</title>
<g id="a_edge1_Node000001_Node000002"><a xlink:title=" ">
<path fill="none" stroke="#63b8ff" d="M84.32,-64.24C96.15,-53.92 111.25,-40.77 122.64,-30.84"/>
<polygon fill="#63b8ff" stroke="#63b8ff" points="82.04,-61.58 76.81,-70.79 86.64,-66.85 82.04,-61.58"/>
</a>
</g>
</g>
<!-- Node3 -->
<g id="Node000003" class="node">
<title>Node3</title>
<g id="a_Node000003"><a xlink:href="structJStudio_1_1TAdaptor.html" target="_top" xlink:title=" ">
<polygon fill="white" stroke="#666666" points="112,-152.25 18.75,-152.25 18.75,-133 112,-133 112,-152.25"/>
<text text-anchor="middle" x="65.38" y="-138.75" font-family="Helvetica,sans-Serif" font-size="10.00">JStudio::TAdaptor</text>
</a>
</g>
</g>
<!-- Node3&#45;&gt;Node2 -->
<g id="edge2_Node000002_Node000003" class="edge">
<title>Node3&#45;&gt;Node2</title>
<g id="a_edge2_Node000002_Node000003"><a xlink:title=" ">
<path fill="none" stroke="#63b8ff" d="M65.38,-121.2C65.38,-111.17 65.38,-99.58 65.38,-91.78"/>
<polygon fill="#63b8ff" stroke="#63b8ff" points="61.88,-121.17 65.38,-131.17 68.88,-121.17 61.88,-121.17"/>
</a>
</g>
</g>
<!-- Node4 -->
<g id="Node000004" class="node">
<title>Node4</title>
<g id="a_Node000004"><a xlink:href="structJStudio__JStage_1_1TAdaptor__object__.html" target="_top" xlink:title=" ">
<polygon fill="white" stroke="#666666" points="278,-97 148.75,-97 148.75,-66.5 278,-66.5 278,-97"/>
<text text-anchor="start" x="156.75" y="-83.5" font-family="Helvetica,sans-Serif" font-size="10.00">JStudio_JStage::TAdaptor</text>
<text text-anchor="middle" x="213.38" y="-72.25" font-family="Helvetica,sans-Serif" font-size="10.00">_object_</text>
</a>
</g>
</g>
<!-- Node4&#45;&gt;Node1 -->
<g id="edge3_Node000001_Node000004" class="edge">
<title>Node4&#45;&gt;Node1</title>
<g id="a_edge3_Node000001_Node000004"><a xlink:title=" ">
<path fill="none" stroke="#63b8ff" d="M188.12,-58.74C177.55,-49.53 165.55,-39.06 156.1,-30.83"/>
<polygon fill="#63b8ff" stroke="#63b8ff" points="185.6,-61.19 195.44,-65.12 190.2,-55.91 185.6,-61.19"/>
</a>
</g>
</g>
</g>
</svg>
