<?xml version="1.0" encoding="UTF-8" standalone="no"?>
<!DOCTYPE svg PUBLIC "-//W3C//DTD SVG 1.1//EN"
 "http://www.w3.org/Graphics/SVG/1.1/DTD/svg11.dtd">
<!-- Generated by graphviz version 9.0.0 (20230911.1827)
 -->
<!-- Title: dRenderingFDAmap_c Pages: 1 -->
<svg width="259pt" height="525pt"
 viewBox="0.00 0.00 259.12 524.50" xmlns="http://www.w3.org/2000/svg" xmlns:xlink="http://www.w3.org/1999/xlink">
<g id="graph0" class="graph" transform="scale(1 1) rotate(0) translate(4 520.5)">
<title>dRenderingFDAmap_c</title>
<!-- Node1 -->
<g id="Node000001" class="node">
<title>Node1</title>
<g id="a_Node000001"><a xlink:title=" ">
<polygon fill="#999999" stroke="#666666" points="193.62,-295.5 80.12,-295.5 80.12,-276.25 193.62,-276.25 193.62,-295.5"/>
<text text-anchor="middle" x="136.88" y="-282" font-family="Helvetica,sans-Serif" font-size="10.00">dRenderingFDAmap_c</text>
</a>
</g>
</g>
<!-- Node6 -->
<g id="Node000006" class="node">
<title>Node6</title>
<g id="a_Node000006"><a xlink:href="structrenderingDAmap__c.html" target="_top" xlink:title=" ">
<polygon fill="white" stroke="#666666" points="130.12,-240.25 31.62,-240.25 31.62,-221 130.12,-221 130.12,-240.25"/>
<text text-anchor="middle" x="80.88" y="-226.75" font-family="Helvetica,sans-Serif" font-size="10.00">renderingDAmap_c</text>
</a>
</g>
</g>
<!-- Node1&#45;&gt;Node6 -->
<g id="edge5_Node000001_Node000006" class="edge">
<title>Node1&#45;&gt;Node6</title>
<g id="a_edge5_Node000001_Node000006"><a xlink:title=" ">
<path fill="none" stroke="#63b8ff" d="M119.24,-268.11C109.63,-258.97 98.12,-248.03 90.23,-240.52"/>
<polygon fill="#63b8ff" stroke="#63b8ff" points="116.62,-270.44 126.28,-274.8 121.44,-265.37 116.62,-270.44"/>
</a>
</g>
</g>
<!-- Node11 -->
<g id="Node000011" class="node">
<title>Node11</title>
<g id="a_Node000011"><a xlink:href="classrenderingFmap__c.html" target="_top" xlink:title=" ">
<polygon fill="white" stroke="#666666" points="241.38,-240.25 150.38,-240.25 150.38,-221 241.38,-221 241.38,-240.25"/>
<text text-anchor="middle" x="195.88" y="-226.75" font-family="Helvetica,sans-Serif" font-size="10.00">renderingFmap_c</text>
</a>
</g>
</g>
<!-- Node1&#45;&gt;Node11 -->
<g id="edge10_Node000001_Node000011" class="edge">
<title>Node1&#45;&gt;Node11</title>
<g id="a_edge10_Node000001_Node000011"><a xlink:title=" ">
<path fill="none" stroke="#63b8ff" d="M155.14,-268.39C165.33,-259.19 177.62,-248.1 186.01,-240.52"/>
<polygon fill="#63b8ff" stroke="#63b8ff" points="153.09,-265.53 148.01,-274.83 157.78,-270.73 153.09,-265.53"/>
</a>
</g>
</g>
<!-- Node2 -->
<g id="Node000002" class="node">
<title>Node2</title>
<g id="a_Node000002"><a xlink:href="structdRenderingMap__c.html" target="_top" xlink:title=" ">
<polygon fill="white" stroke="#666666" points="183.88,-350.75 89.88,-350.75 89.88,-331.5 183.88,-331.5 183.88,-350.75"/>
<text text-anchor="middle" x="136.88" y="-337.25" font-family="Helvetica,sans-Serif" font-size="10.00">dRenderingMap_c</text>
</a>
</g>
</g>
<!-- Node2&#45;&gt;Node1 -->
<g id="edge1_Node000001_Node000002" class="edge">
<title>Node2&#45;&gt;Node1</title>
<g id="a_edge1_Node000001_Node000002"><a xlink:title=" ">
<path fill="none" stroke="#63b8ff" d="M136.88,-319.88C136.88,-311.59 136.88,-302.42 136.88,-295.86"/>
<polygon fill="#63b8ff" stroke="#63b8ff" points="133.38,-319.82 136.88,-329.82 140.38,-319.82 133.38,-319.82"/>
</a>
</g>
</g>
<!-- Node3 -->
<g id="Node000003" class="node">
<title>Node3</title>
<g id="a_Node000003"><a xlink:href="classdDrawPathWithNormalPattern__c.html" target="_top" xlink:title=" ">
<polygon fill="white" stroke="#666666" points="215.38,-406 58.38,-406 58.38,-386.75 215.38,-386.75 215.38,-406"/>
<text text-anchor="middle" x="136.88" y="-392.5" font-family="Helvetica,sans-Serif" font-size="10.00">dDrawPathWithNormalPattern_c</text>
</a>
</g>
</g>
<!-- Node3&#45;&gt;Node2 -->
<g id="edge2_Node000002_Node000003" class="edge">
<title>Node3&#45;&gt;Node2</title>
<g id="a_edge2_Node000002_Node000003"><a xlink:title=" ">
<path fill="none" stroke="#63b8ff" d="M136.88,-375.13C136.88,-366.84 136.88,-357.67 136.88,-351.11"/>
<polygon fill="#63b8ff" stroke="#63b8ff" points="133.38,-375.07 136.88,-385.07 140.38,-375.07 133.38,-375.07"/>
</a>
</g>
</g>
<!-- Node4 -->
<g id="Node000004" class="node">
<title>Node4</title>
<g id="a_Node000004"><a xlink:href="structdDrawPath__c.html" target="_top" xlink:title=" ">
<polygon fill="white" stroke="#666666" points="174.12,-461.25 99.62,-461.25 99.62,-442 174.12,-442 174.12,-461.25"/>
<text text-anchor="middle" x="136.88" y="-447.75" font-family="Helvetica,sans-Serif" font-size="10.00">dDrawPath_c</text>
</a>
</g>
</g>
<!-- Node4&#45;&gt;Node3 -->
<g id="edge3_Node000003_Node000004" class="edge">
<title>Node4&#45;&gt;Node3</title>
<g id="a_edge3_Node000003_Node000004"><a xlink:title=" ">
<path fill="none" stroke="#63b8ff" d="M136.88,-430.38C136.88,-422.09 136.88,-412.92 136.88,-406.36"/>
<polygon fill="#63b8ff" stroke="#63b8ff" points="133.38,-430.32 136.88,-440.32 140.38,-430.32 133.38,-430.32"/>
</a>
</g>
</g>
<!-- Node5 -->
<g id="Node000005" class="node">
<title>Node5</title>
<g id="a_Node000005"><a xlink:href="classdDlst__base__c.html" target="_top" xlink:title=" ">
<polygon fill="white" stroke="#666666" points="174.5,-516.5 99.25,-516.5 99.25,-497.25 174.5,-497.25 174.5,-516.5"/>
<text text-anchor="middle" x="136.88" y="-503" font-family="Helvetica,sans-Serif" font-size="10.00">dDlst_base_c</text>
</a>
</g>
</g>
<!-- Node5&#45;&gt;Node4 -->
<g id="edge4_Node000004_Node000005" class="edge">
<title>Node5&#45;&gt;Node4</title>
<g id="a_edge4_Node000004_Node000005"><a xlink:title=" ">
<path fill="none" stroke="#63b8ff" d="M136.88,-485.63C136.88,-477.34 136.88,-468.17 136.88,-461.61"/>
<polygon fill="#63b8ff" stroke="#63b8ff" points="133.38,-485.57 136.88,-495.57 140.38,-485.57 133.38,-485.57"/>
</a>
</g>
</g>
<!-- Node7 -->
<g id="Node000007" class="node">
<title>Node7</title>
<g id="a_Node000007"><a xlink:href="structrenderingPlusDoor__c.html" target="_top" xlink:title=" ">
<polygon fill="white" stroke="#666666" points="128.88,-185 22.88,-185 22.88,-165.75 128.88,-165.75 128.88,-185"/>
<text text-anchor="middle" x="75.88" y="-171.5" font-family="Helvetica,sans-Serif" font-size="10.00">renderingPlusDoor_c</text>
</a>
</g>
</g>
<!-- Node6&#45;&gt;Node7 -->
<g id="edge6_Node000006_Node000007" class="edge">
<title>Node6&#45;&gt;Node7</title>
<g id="a_edge6_Node000006_Node000007"><a xlink:title=" ">
<path fill="none" stroke="#63b8ff" d="M78.97,-209.38C78.2,-201.09 77.33,-191.92 76.72,-185.36"/>
<polygon fill="#63b8ff" stroke="#63b8ff" points="75.49,-209.7 79.91,-219.32 82.46,-209.04 75.49,-209.7"/>
</a>
</g>
</g>
<!-- Node8 -->
<g id="Node000008" class="node">
<title>Node8</title>
<g id="a_Node000008"><a xlink:href="classrenderingPlusDoorAndCursor__c.html" target="_top" xlink:title=" ">
<polygon fill="white" stroke="#666666" points="151.75,-129.75 0,-129.75 0,-110.5 151.75,-110.5 151.75,-129.75"/>
<text text-anchor="middle" x="75.88" y="-116.25" font-family="Helvetica,sans-Serif" font-size="10.00">renderingPlusDoorAndCursor_c</text>
</a>
</g>
</g>
<!-- Node7&#45;&gt;Node8 -->
<g id="edge7_Node000007_Node000008" class="edge">
<title>Node7&#45;&gt;Node8</title>
<g id="a_edge7_Node000007_Node000008"><a xlink:title=" ">
<path fill="none" stroke="#63b8ff" d="M75.88,-154.13C75.88,-145.84 75.88,-136.67 75.88,-130.11"/>
<polygon fill="#63b8ff" stroke="#63b8ff" points="72.38,-154.07 75.88,-164.07 79.38,-154.07 72.38,-154.07"/>
</a>
</g>
</g>
<!-- Node9 -->
<g id="Node000009" class="node">
<title>Node9</title>
<g id="a_Node000009"><a xlink:href="classrenderingAmap__c.html" target="_top" xlink:title=" ">
<polygon fill="white" stroke="#666666" points="121.75,-74.5 30,-74.5 30,-55.25 121.75,-55.25 121.75,-74.5"/>
<text text-anchor="middle" x="75.88" y="-61" font-family="Helvetica,sans-Serif" font-size="10.00">renderingAmap_c</text>
</a>
</g>
</g>
<!-- Node8&#45;&gt;Node9 -->
<g id="edge8_Node000008_Node000009" class="edge">
<title>Node8&#45;&gt;Node9</title>
<g id="a_edge8_Node000008_Node000009"><a xlink:title=" ">
<path fill="none" stroke="#63b8ff" d="M75.88,-98.88C75.88,-90.59 75.88,-81.42 75.88,-74.86"/>
<polygon fill="#63b8ff" stroke="#63b8ff" points="72.38,-98.82 75.88,-108.82 79.38,-98.82 72.38,-98.82"/>
</a>
</g>
</g>
<!-- Node10 -->
<g id="Node000010" class="node">
<title>Node10</title>
<g id="a_Node000010"><a xlink:href="classdMap__c.html" target="_top" xlink:title=" ">
<polygon fill="white" stroke="#666666" points="101.12,-19.25 50.62,-19.25 50.62,0 101.12,0 101.12,-19.25"/>
<text text-anchor="middle" x="75.88" y="-5.75" font-family="Helvetica,sans-Serif" font-size="10.00">dMap_c</text>
</a>
</g>
</g>
<!-- Node9&#45;&gt;Node10 -->
<g id="edge9_Node000009_Node000010" class="edge">
<title>Node9&#45;&gt;Node10</title>
<g id="a_edge9_Node000009_Node000010"><a xlink:title=" ">
<path fill="none" stroke="#63b8ff" d="M75.88,-43.63C75.88,-35.34 75.88,-26.17 75.88,-19.61"/>
<polygon fill="#63b8ff" stroke="#63b8ff" points="72.38,-43.57 75.88,-53.57 79.38,-43.57 72.38,-43.57"/>
</a>
</g>
</g>
<!-- Node12 -->
<g id="Node000012" class="node">
<title>Node12</title>
<g id="a_Node000012"><a xlink:href="classdMenu__FmapMap__c.html" target="_top" xlink:title=" ">
<polygon fill="white" stroke="#666666" points="251.12,-185 146.62,-185 146.62,-165.75 251.12,-165.75 251.12,-185"/>
<text text-anchor="middle" x="198.88" y="-171.5" font-family="Helvetica,sans-Serif" font-size="10.00">dMenu_FmapMap_c</text>
</a>
</g>
</g>
<!-- Node11&#45;&gt;Node12 -->
<g id="edge11_Node000011_Node000012" class="edge">
<title>Node11&#45;&gt;Node12</title>
<g id="a_edge11_Node000011_Node000012"><a xlink:title=" ">
<path fill="none" stroke="#63b8ff" d="M197.02,-209.38C197.48,-201.09 198,-191.92 198.37,-185.36"/>
<polygon fill="#63b8ff" stroke="#63b8ff" points="193.52,-209.14 196.46,-219.32 200.51,-209.53 193.52,-209.14"/>
</a>
</g>
</g>
</g>
</svg>
