<?xml version="1.0" encoding="UTF-8" standalone="no"?>
<!DOCTYPE svg PUBLIC "-//W3C//DTD SVG 1.1//EN"
 "http://www.w3.org/Graphics/SVG/1.1/DTD/svg11.dtd">
<!-- Generated by graphviz version 9.0.0 (20230911.1827)
 -->
<!-- Title: Vec Pages: 1 -->
<svg width="399pt" height="94pt"
 viewBox="0.00 0.00 398.62 93.75" xmlns="http://www.w3.org/2000/svg" xmlns:xlink="http://www.w3.org/1999/xlink">

<svg id="main" version="1.1" xmlns="http://www.w3.org/2000/svg" xmlns:xlink="http://www.w3.org/1999/xlink" xml:space="preserve" onload="init(evt)">
<style type="text/css"><![CDATA[
.node, .edge {opacity: 0.7;}
.node.selected, .edge.selected {opacity: 1;}
.edge:hover path { stroke: red; }
.edge:hover polygon { stroke: red; fill: red; }
]]></style>
<script type="application/ecmascript" xlink:href="svg.min.js"/>
<svg id="graph" class="graph">
<g id="graph0" class="graph" transform="scale(1 1) rotate(0) translate(4 89.75)">
<title>Vec</title>
<!-- Node1 -->
<g id="Node000001" class="node">
<title>Node1</title>
<g id="a_Node000001"><a xlink:title=" ">
<polygon fill="#999999" stroke="#666666" points="265.75,-85.75 232.5,-85.75 232.5,-66.5 265.75,-66.5 265.75,-85.75"/>
<text text-anchor="middle" x="249.12" y="-72.25" font-family="Helvetica,sans-Serif" font-size="10.00">Vec</text>
</a>
</g>
</g>
<!-- Node2 -->
<g id="Node000002" class="node">
<title>Node2</title>
<g id="a_Node000002"><a xlink:href="structJGeometry_1_1TVec3_3_01f32_01_4.html" target="_top" xlink:title=" ">
<polygon fill="white" stroke="#666666" points="126.25,-24.88 0,-24.88 0,-5.63 126.25,-5.63 126.25,-24.88"/>
<text text-anchor="middle" x="63.12" y="-11.38" font-family="Helvetica,sans-Serif" font-size="10.00">JGeometry::TVec3&lt; f32 &gt;</text>
</a>
</g>
</g>
<!-- Node1&#45;&gt;Node2 -->
<g id="edge1_Node000001_Node000002" class="edge">
<title>Node1&#45;&gt;Node2</title>
<g id="a_edge1_Node000001_Node000002"><a xlink:title=" ">
<path fill="none" stroke="#63b8ff" d="M221.5,-66.38C186.68,-55.36 127.11,-36.5 91.8,-25.33"/>
<polygon fill="#63b8ff" stroke="#63b8ff" points="220.26,-69.66 230.85,-69.34 222.37,-62.98 220.26,-69.66"/>
</a>
</g>
</g>
<!-- Node3 -->
<g id="Node000003" class="node">
<title>Node3</title>
<g id="a_Node000003"><a xlink:href="structJStudio_1_1TControl_1_1TTransform__position.html" target="_top" xlink:title=" ">
<polygon fill="white" stroke="#666666" points="249.75,-30.5 144.5,-30.5 144.5,0 249.75,0 249.75,-30.5"/>
<text text-anchor="start" x="152.5" y="-17" font-family="Helvetica,sans-Serif" font-size="10.00">JStudio::TControl::</text>
<text text-anchor="middle" x="197.12" y="-5.75" font-family="Helvetica,sans-Serif" font-size="10.00">TTransform_position</text>
</a>
</g>
</g>
<!-- Node1&#45;&gt;Node3 -->
<g id="edge2_Node000001_Node000003" class="edge">
<title>Node1&#45;&gt;Node3</title>
<g id="a_edge2_Node000001_Node000003"><a xlink:title=" ">
<path fill="none" stroke="#63b8ff" d="M233.74,-57.7C226.17,-49.13 217.15,-38.92 209.96,-30.78"/>
<polygon fill="#63b8ff" stroke="#63b8ff" points="230.98,-59.87 240.23,-65.05 236.23,-55.24 230.98,-59.87"/>
</a>
</g>
</g>
<!-- Node4 -->
<g id="Node000004" class="node">
<title>Node4</title>
<g id="a_Node000004"><a xlink:href="structcBgD__Vtx__t.html" target="_top" xlink:title=" ">
<polygon fill="white" stroke="#666666" points="336,-24.88 268.25,-24.88 268.25,-5.63 336,-5.63 336,-24.88"/>
<text text-anchor="middle" x="302.12" y="-11.38" font-family="Helvetica,sans-Serif" font-size="10.00">cBgD_Vtx_t</text>
</a>
</g>
</g>
<!-- Node1&#45;&gt;Node4 -->
<g id="edge3_Node000001_Node000004" class="edge">
<title>Node1&#45;&gt;Node4</title>
<g id="a_edge3_Node000001_Node000004"><a xlink:title=" ">
<path fill="none" stroke="#63b8ff" d="M264.85,-57.66C274.43,-47.02 286.27,-33.86 294,-25.28"/>
<polygon fill="#63b8ff" stroke="#63b8ff" points="262.28,-55.28 258.19,-65.06 267.48,-59.97 262.28,-55.28"/>
</a>
</g>
</g>
<!-- Node5 -->
<g id="Node000005" class="node">
<title>Node5</title>
<g id="a_Node000005"><a xlink:href="structcXyz.html" target="_top" xlink:title=" ">
<polygon fill="white" stroke="#666666" points="390.62,-24.88 353.62,-24.88 353.62,-5.63 390.62,-5.63 390.62,-24.88"/>
<text text-anchor="middle" x="372.12" y="-11.38" font-family="Helvetica,sans-Serif" font-size="10.00">cXyz</text>
</a>
</g>
</g>
<!-- Node1&#45;&gt;Node5 -->
<g id="edge4_Node000001_Node000005" class="edge">
<title>Node1&#45;&gt;Node5</title>
<g id="a_edge4_Node000001_Node000005"><a xlink:title=" ">
<path fill="none" stroke="#63b8ff" d="M276.71,-62.75C295.99,-53.99 322.28,-41.83 345.12,-30.5 348.45,-28.85 351.97,-27.04 355.34,-25.28"/>
<polygon fill="#63b8ff" stroke="#63b8ff" points="275.29,-59.55 267.62,-66.86 278.18,-65.93 275.29,-59.55"/>
</a>
</g>
</g>
</g>
</svg>
</svg>

<style type='text/css'>
<![CDATA[
[data-mouse-over-selected='false'] { opacity: 0.7; }
[data-mouse-over-selected='true']  { opacity: 1.0; }
]]>
</style>
<script type="application/ecmascript"><![CDATA[
document.addEventListener('DOMContentLoaded', (event) => {
  highlightEdges();
  highlightAdjacentNodes();
});
]]></script>
</svg>
