<?xml version="1.0" encoding="UTF-8" standalone="no"?>
<!DOCTYPE svg PUBLIC "-//W3C//DTD SVG 1.1//EN"
 "http://www.w3.org/Graphics/SVG/1.1/DTD/svg11.dtd">
<!-- Generated by graphviz version 9.0.0 (20230911.1827)
 -->
<!-- Title: dCcD_Stts Pages: 1 -->
<svg width="160pt" height="138pt"
 viewBox="0.00 0.00 160.00 137.75" xmlns="http://www.w3.org/2000/svg" xmlns:xlink="http://www.w3.org/1999/xlink">
<g id="graph0" class="graph" transform="scale(1 1) rotate(0) translate(4 133.75)">
<title>dCcD_Stts</title>
<!-- Node1 -->
<g id="Node000001" class="node">
<title>Node1</title>
<g id="a_Node000001"><a xlink:title=" ">
<polygon fill="#999999" stroke="#666666" points="105.25,-19.25 42,-19.25 42,0 105.25,0 105.25,-19.25"/>
<text text-anchor="middle" x="73.62" y="-5.75" font-family="Helvetica,sans-Serif" font-size="10.00">dCcD_Stts</text>
</a>
</g>
</g>
<!-- Node2 -->
<g id="Node000002" class="node">
<title>Node2</title>
<g id="a_Node000002"><a xlink:href="classcCcD__Stts.html" target="_top" xlink:title=" ">
<polygon fill="white" stroke="#666666" points="63.25,-74.5 0,-74.5 0,-55.25 63.25,-55.25 63.25,-74.5"/>
<text text-anchor="middle" x="31.62" y="-61" font-family="Helvetica,sans-Serif" font-size="10.00">cCcD_Stts</text>
</a>
</g>
</g>
<!-- Node2&#45;&gt;Node1 -->
<g id="edge1_Node000001_Node000002" class="edge">
<title>Node2&#45;&gt;Node1</title>
<g id="a_edge1_Node000001_Node000002"><a xlink:title=" ">
<path fill="none" stroke="#63b8ff" d="M45.55,-46.22C52.58,-37.31 60.81,-26.87 66.54,-19.61"/>
<polygon fill="#63b8ff" stroke="#63b8ff" points="42.94,-43.87 39.5,-53.89 48.44,-48.21 42.94,-43.87"/>
</a>
</g>
</g>
<!-- Node3 -->
<g id="Node000003" class="node">
<title>Node3</title>
<g id="a_Node000003"><a xlink:href="structdCcD__GStts.html" target="_top" xlink:title=" ">
<polygon fill="white" stroke="#666666" points="152,-74.5 81.25,-74.5 81.25,-55.25 152,-55.25 152,-74.5"/>
<text text-anchor="middle" x="116.62" y="-61" font-family="Helvetica,sans-Serif" font-size="10.00">dCcD_GStts</text>
</a>
</g>
</g>
<!-- Node3&#45;&gt;Node1 -->
<g id="edge2_Node000001_Node000003" class="edge">
<title>Node3&#45;&gt;Node1</title>
<g id="a_edge2_Node000001_Node000003"><a xlink:title=" ">
<path fill="none" stroke="#63b8ff" d="M102.37,-46.22C95.17,-37.31 86.74,-26.87 80.88,-19.61"/>
<polygon fill="#63b8ff" stroke="#63b8ff" points="99.57,-48.32 108.57,-53.9 105.01,-43.93 99.57,-48.32"/>
</a>
</g>
</g>
<!-- Node4 -->
<g id="Node000004" class="node">
<title>Node4</title>
<g id="a_Node000004"><a xlink:href="structcCcD__GStts.html" target="_top" xlink:title=" ">
<polygon fill="white" stroke="#666666" points="152,-129.75 81.25,-129.75 81.25,-110.5 152,-110.5 152,-129.75"/>
<text text-anchor="middle" x="116.62" y="-116.25" font-family="Helvetica,sans-Serif" font-size="10.00">cCcD_GStts</text>
</a>
</g>
</g>
<!-- Node4&#45;&gt;Node3 -->
<g id="edge3_Node000003_Node000004" class="edge">
<title>Node4&#45;&gt;Node3</title>
<g id="a_edge3_Node000003_Node000004"><a xlink:title=" ">
<path fill="none" stroke="#63b8ff" d="M116.62,-98.88C116.62,-90.59 116.62,-81.42 116.62,-74.86"/>
<polygon fill="#63b8ff" stroke="#63b8ff" points="113.13,-98.82 116.63,-108.82 120.13,-98.82 113.13,-98.82"/>
</a>
</g>
</g>
</g>
</svg>
