<?xml version="1.0" encoding="UTF-8" standalone="no"?>
<!DOCTYPE svg PUBLIC "-//W3C//DTD SVG 1.1//EN"
 "http://www.w3.org/Graphics/SVG/1.1/DTD/svg11.dtd">
<!-- Generated by graphviz version 9.0.0 (20230911.1827)
 -->
<!-- Title: dBgS_AcchCir Pages: 1 -->
<svg width="166pt" height="150pt"
 viewBox="0.00 0.00 166.00 150.00" xmlns="http://www.w3.org/2000/svg" xmlns:xlink="http://www.w3.org/1999/xlink">
<g id="graph0" class="graph" transform="scale(1 1) rotate(0) translate(4 146)">
<title>dBgS_AcchCir</title>
<!-- Node1 -->
<g id="Node000001" class="node">
<title>Node1</title>
<g id="a_Node000001"><a xlink:title=" ">
<polygon fill="#999999" stroke="#666666" points="110.12,-19.25 30.38,-19.25 30.38,0 110.12,0 110.12,-19.25"/>
<text text-anchor="middle" x="70.25" y="-5.75" font-family="Helvetica,sans-Serif" font-size="10.00">dBgS_AcchCir</text>
</a>
</g>
</g>
<!-- Node2 -->
<g id="Node000002" class="node">
<title>Node2</title>
<g id="a_Node000002"><a xlink:href="structcBgS__PolyInfo.html" target="_top" xlink:title=" ">
<polygon fill="white" stroke="#666666" points="80.5,-85.75 0,-85.75 0,-66.5 80.5,-66.5 80.5,-85.75"/>
<text text-anchor="middle" x="40.25" y="-72.25" font-family="Helvetica,sans-Serif" font-size="10.00">cBgS_PolyInfo</text>
</a>
</g>
</g>
<!-- Node2&#45;&gt;Node1 -->
<g id="edge1_Node000001_Node000002" class="edge">
<title>Node2&#45;&gt;Node1</title>
<g id="a_edge1_Node000001_Node000002"><a xlink:title=" ">
<path fill="none" stroke="#63b8ff" d="M49.25,-55.77C54.85,-43.73 61.78,-28.83 66.11,-19.52"/>
<polygon fill="#63b8ff" stroke="#63b8ff" points="46.1,-54.24 45.06,-64.78 52.45,-57.19 46.1,-54.24"/>
</a>
</g>
</g>
<!-- Node3 -->
<g id="Node000003" class="node">
<title>Node3</title>
<g id="a_Node000003"><a xlink:href="structcM3dGCir.html" target="_top" xlink:title=" ">
<polygon fill="white" stroke="#666666" points="158,-85.75 98.5,-85.75 98.5,-66.5 158,-66.5 158,-85.75"/>
<text text-anchor="middle" x="128.25" y="-72.25" font-family="Helvetica,sans-Serif" font-size="10.00">cM3dGCir</text>
</a>
</g>
</g>
<!-- Node3&#45;&gt;Node1 -->
<g id="edge2_Node000001_Node000003" class="edge">
<title>Node3&#45;&gt;Node1</title>
<g id="a_edge2_Node000001_Node000003"><a xlink:title=" ">
<path fill="none" stroke="#9a32cd" stroke-dasharray="5,2" d="M112.5,-57.61C101.42,-45.28 87.05,-29.31 78.25,-19.52"/>
<polygon fill="#9a32cd" stroke="#9a32cd" points="109.88,-59.94 119.17,-65.03 115.09,-55.26 109.88,-59.94"/>
</a>
</g>
<text text-anchor="middle" x="115.38" y="-39" font-family="Helvetica,sans-Serif" font-size="10.00" fill="grey"> m_cir</text>
</g>
<!-- Node4 -->
<g id="Node000004" class="node">
<title>Node4</title>
<g id="a_Node000004"><a xlink:href="classcM2dGCir.html" target="_top" xlink:title=" ">
<polygon fill="white" stroke="#666666" points="158,-142 98.5,-142 98.5,-122.75 158,-122.75 158,-142"/>
<text text-anchor="middle" x="128.25" y="-128.5" font-family="Helvetica,sans-Serif" font-size="10.00">cM2dGCir</text>
</a>
</g>
</g>
<!-- Node4&#45;&gt;Node3 -->
<g id="edge3_Node000003_Node000004" class="edge">
<title>Node4&#45;&gt;Node3</title>
<g id="a_edge3_Node000003_Node000004"><a xlink:title=" ">
<path fill="none" stroke="#63b8ff" d="M128.25,-111.19C128.25,-102.48 128.25,-92.74 128.25,-85.92"/>
<polygon fill="#63b8ff" stroke="#63b8ff" points="124.75,-110.9 128.25,-120.9 131.75,-110.9 124.75,-110.9"/>
</a>
</g>
</g>
</g>
</svg>
