<?xml version="1.0" encoding="UTF-8" standalone="no"?>
<!DOCTYPE svg PUBLIC "-//W3C//DTD SVG 1.1//EN"
 "http://www.w3.org/Graphics/SVG/1.1/DTD/svg11.dtd">
<!-- Generated by graphviz version 9.0.0 (20230911.1827)
 -->
<!-- Title: JStudio_JAudio2::TAdaptor_sound Pages: 1 -->
<svg width="1554pt" height="727pt"
 viewBox="0.00 0.00 1554.25 726.88" xmlns="http://www.w3.org/2000/svg" xmlns:xlink="http://www.w3.org/1999/xlink">
<g id="graph0" class="graph" transform="scale(1 1) rotate(0) translate(4 722.88)">
<title>JStudio_JAudio2::TAdaptor_sound</title>
<!-- Node1 -->
<g id="Node000001" class="node">
<title>Node1</title>
<g id="a_Node000001"><a xlink:title=" ">
<polygon fill="#999999" stroke="#666666" points="1546.25,-312.88 1412.5,-312.88 1412.5,-282.38 1546.25,-282.38 1546.25,-312.88"/>
<text text-anchor="start" x="1420.5" y="-299.38" font-family="Helvetica,sans-Serif" font-size="10.00">JStudio_JAudio2::TAdaptor</text>
<text text-anchor="middle" x="1479.38" y="-288.12" font-family="Helvetica,sans-Serif" font-size="10.00">_sound</text>
</a>
</g>
</g>
<!-- Node2 -->
<g id="Node000002" class="node">
<title>Node2</title>
<g id="a_Node000002"><a xlink:href="structJStudio_1_1TAdaptor__sound.html" target="_top" xlink:title=" ">
<polygon fill="white" stroke="#666666" points="1280.5,-362.25 1155.75,-362.25 1155.75,-343 1280.5,-343 1280.5,-362.25"/>
<text text-anchor="middle" x="1218.12" y="-348.75" font-family="Helvetica,sans-Serif" font-size="10.00">JStudio::TAdaptor_sound</text>
</a>
</g>
</g>
<!-- Node2&#45;&gt;Node1 -->
<g id="edge1_Node000001_Node000002" class="edge">
<title>Node2&#45;&gt;Node1</title>
<g id="a_edge1_Node000001_Node000002"><a xlink:title=" ">
<path fill="none" stroke="#63b8ff" d="M1292.24,-343.5C1323.9,-338.9 1361.25,-332.58 1394.5,-324.62 1407.44,-321.53 1421.28,-317.42 1433.9,-313.34"/>
<polygon fill="#63b8ff" stroke="#63b8ff" points="1291.76,-340.04 1282.35,-344.91 1292.75,-346.97 1291.76,-340.04"/>
</a>
</g>
</g>
<!-- Node3 -->
<g id="Node000003" class="node">
<title>Node3</title>
<g id="a_Node000003"><a xlink:href="structJStudio_1_1TAdaptor.html" target="_top" xlink:title=" ">
<polygon fill="white" stroke="#666666" points="1016.25,-410.25 923,-410.25 923,-391 1016.25,-391 1016.25,-410.25"/>
<text text-anchor="middle" x="969.62" y="-396.75" font-family="Helvetica,sans-Serif" font-size="10.00">JStudio::TAdaptor</text>
</a>
</g>
</g>
<!-- Node3&#45;&gt;Node2 -->
<g id="edge2_Node000002_Node000003" class="edge">
<title>Node3&#45;&gt;Node2</title>
<g id="a_edge2_Node000002_Node000003"><a xlink:title=" ">
<path fill="none" stroke="#63b8ff" d="M1027.74,-389.5C1069.28,-381.41 1125.06,-370.55 1165.31,-362.72"/>
<polygon fill="#63b8ff" stroke="#63b8ff" points="1027.33,-386.02 1018.19,-391.36 1028.67,-392.89 1027.33,-386.02"/>
</a>
</g>
</g>
<!-- Node4 -->
<g id="Node000004" class="node">
<title>Node4</title>
<g id="a_Node000004"><a xlink:href="classJStudio_1_1TObject.html" target="_top" xlink:title=" ">
<polygon fill="white" stroke="#666666" points="1262.12,-454.25 1174.12,-454.25 1174.12,-435 1262.12,-435 1262.12,-454.25"/>
<text text-anchor="middle" x="1218.12" y="-440.75" font-family="Helvetica,sans-Serif" font-size="10.00">JStudio::TObject</text>
</a>
</g>
</g>
<!-- Node3&#45;&gt;Node4 -->
<g id="edge16_Node000004_Node000003" class="edge">
<title>Node3&#45;&gt;Node4</title>
<g id="a_edge16_Node000004_Node000003"><a xlink:title=" ">
<path fill="none" stroke="#9a32cd" stroke-dasharray="5,2" d="M1013.19,-413.86C1024.58,-417.07 1036.94,-420.25 1048.5,-422.62 1090.72,-431.3 1139.63,-437.23 1173.87,-440.73"/>
<polygon fill="#9a32cd" stroke="#9a32cd" points="1014.23,-410.51 1003.65,-411.09 1012.28,-417.24 1014.23,-410.51"/>
</a>
</g>
<text text-anchor="middle" x="1090.88" y="-437.38" font-family="Helvetica,sans-Serif" font-size="10.00" fill="grey"> mpAdaptor</text>
</g>
<!-- Node4&#45;&gt;Node3 -->
<g id="edge3_Node000003_Node000004" class="edge">
<title>Node4&#45;&gt;Node3</title>
<g id="a_edge3_Node000003_Node000004"><a xlink:title=" ">
<path fill="none" stroke="#9a32cd" stroke-dasharray="5,2" d="M1171.36,-430.9C1164.51,-428.41 1157.62,-425.63 1151.25,-422.62 1142.72,-418.6 1142.23,-414.27 1133.25,-411.38 1095.28,-399.12 1049.81,-397.1 1016.61,-397.76"/>
<polygon fill="#9a32cd" stroke="#9a32cd" points="1169.97,-434.13 1180.56,-434.1 1172.26,-427.51 1169.97,-434.13"/>
</a>
</g>
<text text-anchor="middle" x="1090.88" y="-412.38" font-family="Helvetica,sans-Serif" font-size="10.00" fill="grey"> pObject_</text>
</g>
<!-- Node5 -->
<g id="Node000005" class="node">
<title>Node5</title>
<g id="a_Node000005"><a xlink:href="classJStudio_1_1stb_1_1TObject.html" target="_top" xlink:title=" ">
<polygon fill="white" stroke="#666666" points="1022.62,-678.25 916.62,-678.25 916.62,-659 1022.62,-659 1022.62,-678.25"/>
<text text-anchor="middle" x="969.62" y="-664.75" font-family="Helvetica,sans-Serif" font-size="10.00">JStudio::stb::TObject</text>
</a>
</g>
</g>
<!-- Node5&#45;&gt;Node4 -->
<g id="edge4_Node000004_Node000005" class="edge">
<title>Node5&#45;&gt;Node4</title>
<g id="a_edge4_Node000004_Node000005"><a xlink:title=" ">
<path fill="none" stroke="#63b8ff" d="M1003.9,-653.62C1040.47,-635.53 1098.63,-601.84 1133.25,-556.62 1147.86,-537.54 1138.05,-525.71 1151.25,-505.62 1165.12,-484.53 1187.82,-465.7 1202.61,-454.72"/>
<polygon fill="#63b8ff" stroke="#63b8ff" points="1002.59,-650.36 995.1,-657.86 1005.63,-656.67 1002.59,-650.36"/>
</a>
</g>
</g>
<!-- Node13 -->
<g id="Node000013" class="node">
<title>Node13</title>
<g id="a_Node000013"><a xlink:href="classJStudio_1_1stb_1_1TObject__control.html" target="_top" xlink:title=" ">
<polygon fill="white" stroke="#666666" points="1271.12,-690.88 1165.12,-690.88 1165.12,-660.38 1271.12,-660.38 1271.12,-690.88"/>
<text text-anchor="start" x="1173.12" y="-677.38" font-family="Helvetica,sans-Serif" font-size="10.00">JStudio::stb::TObject</text>
<text text-anchor="middle" x="1218.12" y="-666.12" font-family="Helvetica,sans-Serif" font-size="10.00">_control</text>
</a>
</g>
</g>
<!-- Node5&#45;&gt;Node13 -->
<g id="edge15_Node000013_Node000005" class="edge">
<title>Node5&#45;&gt;Node13</title>
<g id="a_edge15_Node000013_Node000005"><a xlink:title=" ">
<path fill="none" stroke="#63b8ff" d="M1034.29,-670.43C1074.87,-671.59 1126.79,-673.06 1164.92,-674.14"/>
<polygon fill="#63b8ff" stroke="#63b8ff" points="1034.51,-666.94 1024.41,-670.15 1034.31,-673.94 1034.51,-666.94"/>
</a>
</g>
</g>
<!-- Node6 -->
<g id="Node000006" class="node">
<title>Node6</title>
<g id="a_Node000006"><a xlink:href="structJStudio_1_1object_1_1TObject__ID.html" target="_top" xlink:title=" ">
<polygon fill="white" stroke="#666666" points="826.25,-678.25 692.5,-678.25 692.5,-659 826.25,-659 826.25,-678.25"/>
<text text-anchor="middle" x="759.38" y="-664.75" font-family="Helvetica,sans-Serif" font-size="10.00">JStudio::object::TObject_ID</text>
</a>
</g>
</g>
<!-- Node6&#45;&gt;Node5 -->
<g id="edge5_Node000005_Node000006" class="edge">
<title>Node6&#45;&gt;Node5</title>
<g id="a_edge5_Node000005_Node000006"><a xlink:title=" ">
<path fill="none" stroke="#63b8ff" d="M837.95,-668.62C864.02,-668.62 892.47,-668.62 916.15,-668.62"/>
<polygon fill="#63b8ff" stroke="#63b8ff" points="838.07,-665.13 828.07,-668.63 838.07,-672.13 838.07,-665.13"/>
</a>
</g>
</g>
<!-- Node7 -->
<g id="Node000007" class="node">
<title>Node7</title>
<g id="a_Node000007"><a xlink:href="structJStudio_1_1object_1_1TIDData.html" target="_top" xlink:title=" ">
<polygon fill="white" stroke="#666666" points="604.75,-678.25 484.5,-678.25 484.5,-659 604.75,-659 604.75,-678.25"/>
<text text-anchor="middle" x="544.62" y="-664.75" font-family="Helvetica,sans-Serif" font-size="10.00">JStudio::object::TIDData</text>
</a>
</g>
</g>
<!-- Node7&#45;&gt;Node6 -->
<g id="edge6_Node000006_Node000007" class="edge">
<title>Node7&#45;&gt;Node6</title>
<g id="a_edge6_Node000006_Node000007"><a xlink:title=" ">
<path fill="none" stroke="#63b8ff" d="M616.52,-668.62C640.91,-668.62 668.11,-668.62 692.11,-668.62"/>
<polygon fill="#63b8ff" stroke="#63b8ff" points="616.68,-665.13 606.68,-668.63 616.68,-672.13 616.68,-665.13"/>
</a>
</g>
</g>
<!-- Node8 -->
<g id="Node000008" class="node">
<title>Node8</title>
<g id="a_Node000008"><a xlink:href="structJGadget_1_1TLinkListNode.html" target="_top" xlink:title=" ">
<polygon fill="white" stroke="#666666" points="820.25,-598.25 698.5,-598.25 698.5,-579 820.25,-579 820.25,-598.25"/>
<text text-anchor="middle" x="759.38" y="-584.75" font-family="Helvetica,sans-Serif" font-size="10.00">JGadget::TLinkListNode</text>
</a>
</g>
</g>
<!-- Node8&#45;&gt;Node5 -->
<g id="edge7_Node000005_Node000008" class="edge">
<title>Node8&#45;&gt;Node5</title>
<g id="a_edge7_Node000005_Node000008"><a xlink:title=" ">
<path fill="none" stroke="#9a32cd" stroke-dasharray="5,2" d="M796.84,-602.63C838.46,-618.62 905.53,-644.39 942.34,-658.53"/>
<polygon fill="#9a32cd" stroke="#9a32cd" points="798.33,-599.46 787.74,-599.14 795.82,-605.99 798.33,-599.46"/>
</a>
</g>
<text text-anchor="middle" x="867.5" y="-639.38" font-family="Helvetica,sans-Serif" font-size="10.00" fill="grey"> ocObject_</text>
</g>
<!-- Node8&#45;&gt;Node8 -->
<g id="edge8_Node000008_Node000008" class="edge">
<title>Node8&#45;&gt;Node8</title>
<g id="a_edge8_Node000008_Node000008"><a xlink:title=" ">
<path fill="none" stroke="#9a32cd" stroke-dasharray="5,2" d="M740.18,-609.65C742.58,-613.53 748.98,-616.25 759.38,-616.25 778.38,-616.25 784.02,-607.15 776.3,-598.54"/>
<polygon fill="#9a32cd" stroke="#9a32cd" points="743.58,-610.52 742.15,-600.02 736.72,-609.12 743.58,-610.52"/>
</a>
</g>
<text text-anchor="middle" x="759.38" y="-629.25" font-family="Helvetica,sans-Serif" font-size="10.00" fill="grey"> mNext</text>
<text text-anchor="middle" x="759.38" y="-618" font-family="Helvetica,sans-Serif" font-size="10.00" fill="grey">mPrev</text>
</g>
<!-- Node12 -->
<g id="Node000012" class="node">
<title>Node12</title>
<g id="a_Node000012"><a xlink:href="structJGadget_1_1TNodeLinkList.html" target="_top" xlink:title=" ">
<polygon fill="white" stroke="#666666" points="1030.5,-598.25 908.75,-598.25 908.75,-579 1030.5,-579 1030.5,-598.25"/>
<text text-anchor="middle" x="969.62" y="-584.75" font-family="Helvetica,sans-Serif" font-size="10.00">JGadget::TNodeLinkList</text>
</a>
</g>
</g>
<!-- Node8&#45;&gt;Node12 -->
<g id="edge13_Node000012_Node000008" class="edge">
<title>Node8&#45;&gt;Node12</title>
<g id="a_edge13_Node000012_Node000008"><a xlink:title=" ">
<path fill="none" stroke="#9a32cd" stroke-dasharray="5,2" d="M831.86,-588.62C856.83,-588.62 884.58,-588.62 908.53,-588.62"/>
<polygon fill="#9a32cd" stroke="#9a32cd" points="832.12,-585.13 822.12,-588.63 832.12,-592.13 832.12,-585.13"/>
</a>
</g>
<text text-anchor="middle" x="867.5" y="-590.38" font-family="Helvetica,sans-Serif" font-size="10.00" fill="grey"> ocObject_</text>
</g>
<!-- Node33 -->
<g id="Node000033" class="node">
<title>Node33</title>
<g id="a_Node000033"><a xlink:href="structJStudio_1_1TCreateObject.html" target="_top" xlink:title=" ">
<polygon fill="white" stroke="#666666" points="1027.88,-491.25 911.38,-491.25 911.38,-472 1027.88,-472 1027.88,-491.25"/>
<text text-anchor="middle" x="969.62" y="-477.75" font-family="Helvetica,sans-Serif" font-size="10.00">JStudio::TCreateObject</text>
</a>
</g>
</g>
<!-- Node8&#45;&gt;Node33 -->
<g id="edge41_Node000033_Node000008" class="edge">
<title>Node8&#45;&gt;Node33</title>
<g id="a_edge41_Node000033_Node000008"><a xlink:title=" ">
<path fill="none" stroke="#9a32cd" stroke-dasharray="5,2" d="M789.12,-573.16C818.9,-557.21 866.87,-531.77 908.75,-510.62 921.54,-504.17 935.98,-497.16 947.48,-491.66"/>
<polygon fill="#9a32cd" stroke="#9a32cd" points="787.5,-570.05 780.34,-577.86 790.81,-576.22 787.5,-570.05"/>
</a>
</g>
<text text-anchor="middle" x="867.5" y="-543.38" font-family="Helvetica,sans-Serif" font-size="10.00" fill="grey"> mNode</text>
</g>
<!-- Node9 -->
<g id="Node000009" class="node">
<title>Node9</title>
<g id="a_Node000009"><a xlink:href="classJStudio_1_1stb_1_1TControl.html" target="_top" xlink:title=" ">
<polygon fill="white" stroke="#666666" points="1533.5,-661.25 1425.25,-661.25 1425.25,-642 1533.5,-642 1533.5,-661.25"/>
<text text-anchor="middle" x="1479.38" y="-647.75" font-family="Helvetica,sans-Serif" font-size="10.00">JStudio::stb::TControl</text>
</a>
</g>
</g>
<!-- Node9&#45;&gt;Node5 -->
<g id="edge9_Node000005_Node000009" class="edge">
<title>Node9&#45;&gt;Node5</title>
<g id="a_edge9_Node000005_Node000009"><a xlink:title=" ">
<path fill="none" stroke="#9a32cd" stroke-dasharray="5,2" d="M1443.06,-665.86C1428.25,-671.41 1410.73,-677.43 1394.5,-681.62 1245.62,-720.15 1199.93,-712.43 1048.5,-685.62 1037.19,-683.62 1025.03,-681.13 1013.75,-678.68"/>
<polygon fill="#9a32cd" stroke="#9a32cd" points="1444.29,-669.14 1452.37,-662.29 1441.78,-662.6 1444.29,-669.14"/>
</a>
</g>
<text text-anchor="middle" x="1218.12" y="-709.38" font-family="Helvetica,sans-Serif" font-size="10.00" fill="grey"> pControl</text>
</g>
<!-- Node10 -->
<g id="Node000010" class="node">
<title>Node10</title>
<g id="a_Node000010"><a xlink:href="classJStudio_1_1stb_1_1TFactory.html" target="_top" xlink:title=" ">
<polygon fill="white" stroke="#666666" points="1273,-642.25 1163.25,-642.25 1163.25,-623 1273,-623 1273,-642.25"/>
<text text-anchor="middle" x="1218.12" y="-628.75" font-family="Helvetica,sans-Serif" font-size="10.00">JStudio::stb::TFactory</text>
</a>
</g>
</g>
<!-- Node10&#45;&gt;Node9 -->
<g id="edge10_Node000009_Node000010" class="edge">
<title>Node10&#45;&gt;Node9</title>
<g id="a_edge10_Node000009_Node000010"><a xlink:title=" ">
<path fill="none" stroke="#9a32cd" stroke-dasharray="5,2" d="M1284.69,-632.85C1317.69,-633.45 1358.28,-634.93 1394.5,-638.38 1404.33,-639.31 1414.76,-640.66 1424.81,-642.15"/>
<polygon fill="#9a32cd" stroke="#9a32cd" points="1284.92,-629.35 1274.87,-632.7 1284.81,-636.35 1284.92,-629.35"/>
</a>
</g>
<text text-anchor="middle" x="1348.75" y="-639.38" font-family="Helvetica,sans-Serif" font-size="10.00" fill="grey"> pFactory</text>
</g>
<!-- Node11 -->
<g id="Node000011" class="node">
<title>Node11</title>
<g id="a_Node000011"><a xlink:href="structJGadget_1_1TLinkList.html" target="_top" xlink:title=" ">
<polygon fill="white" stroke="#666666" points="1276.75,-604.5 1159.5,-604.5 1159.5,-562.75 1276.75,-562.75 1276.75,-604.5"/>
<text text-anchor="start" x="1167.5" y="-591" font-family="Helvetica,sans-Serif" font-size="10.00">JGadget::TLinkList</text>
<text text-anchor="start" x="1167.5" y="-579.75" font-family="Helvetica,sans-Serif" font-size="10.00">&lt; JStudio::stb::TObject,</text>
<text text-anchor="middle" x="1218.12" y="-568.5" font-family="Helvetica,sans-Serif" font-size="10.00"> &#45;12 &gt;</text>
</a>
</g>
</g>
<!-- Node11&#45;&gt;Node9 -->
<g id="edge11_Node000009_Node000011" class="edge">
<title>Node11&#45;&gt;Node9</title>
<g id="a_edge11_Node000009_Node000011"><a xlink:title=" ">
<path fill="none" stroke="#9a32cd" stroke-dasharray="5,2" d="M1288.31,-593.7C1320.89,-599.26 1360.07,-607.14 1394.5,-617.38 1416.36,-623.87 1440.37,-634 1457.07,-641.56"/>
<polygon fill="#9a32cd" stroke="#9a32cd" points="1289.01,-590.26 1278.57,-592.07 1287.86,-597.17 1289.01,-590.26"/>
</a>
</g>
<text text-anchor="middle" x="1348.75" y="-618.38" font-family="Helvetica,sans-Serif" font-size="10.00" fill="grey"> mObjectContainer</text>
</g>
<!-- Node12&#45;&gt;Node11 -->
<g id="edge12_Node000011_Node000012" class="edge">
<title>Node12&#45;&gt;Node11</title>
<g id="a_edge12_Node000011_Node000012"><a xlink:title=" ">
<path fill="none" stroke="#63b8ff" d="M1042.19,-587.17C1079.36,-586.42 1124.18,-585.51 1159.14,-584.8"/>
<polygon fill="#63b8ff" stroke="#63b8ff" points="1042.37,-583.67 1032.44,-587.37 1042.51,-590.67 1042.37,-583.67"/>
</a>
</g>
</g>
<!-- Node13&#45;&gt;Node9 -->
<g id="edge14_Node000009_Node000013" class="edge">
<title>Node13&#45;&gt;Node9</title>
<g id="a_edge14_Node000009_Node000013"><a xlink:title=" ">
<path fill="none" stroke="#9a32cd" stroke-dasharray="5,2" d="M1282.95,-669.72C1326.63,-665.67 1383.87,-660.37 1425.1,-656.56"/>
<polygon fill="#9a32cd" stroke="#9a32cd" points="1282.73,-666.22 1273.1,-670.63 1283.38,-673.19 1282.73,-666.22"/>
</a>
</g>
<text text-anchor="middle" x="1348.75" y="-668.38" font-family="Helvetica,sans-Serif" font-size="10.00" fill="grey"> mObject_control</text>
</g>
<!-- Node14 -->
<g id="Node000014" class="node">
<title>Node14</title>
<g id="a_Node000014"><a xlink:href="structJStudio_1_1TVariableValue.html" target="_top" xlink:title=" ">
<polygon fill="white" stroke="#666666" points="819.12,-366.25 699.62,-366.25 699.62,-347 819.12,-347 819.12,-366.25"/>
<text text-anchor="middle" x="759.38" y="-352.75" font-family="Helvetica,sans-Serif" font-size="10.00">JStudio::TVariableValue</text>
</a>
</g>
</g>
<!-- Node14&#45;&gt;Node2 -->
<g id="edge20_Node000002_Node000014" class="edge">
<title>Node14&#45;&gt;Node2</title>
<g id="a_edge20_Node000002_Node000014"><a xlink:title=" ">
<path fill="none" stroke="#9a32cd" stroke-dasharray="5,2" d="M830.93,-356.01C919.78,-355.23 1070.99,-353.9 1155.43,-353.17"/>
<polygon fill="#9a32cd" stroke="#9a32cd" points="831.1,-352.51 821.13,-356.09 831.16,-359.51 831.1,-352.51"/>
</a>
</g>
<text text-anchor="middle" x="969.62" y="-356.38" font-family="Helvetica,sans-Serif" font-size="10.00" fill="grey"> mValue</text>
</g>
<!-- Node14&#45;&gt;Node3 -->
<g id="edge17_Node000003_Node000014" class="edge">
<title>Node14&#45;&gt;Node3</title>
<g id="a_edge17_Node000003_Node000014"><a xlink:title=" ">
<path fill="none" stroke="#9a32cd" stroke-dasharray="5,2" d="M819.38,-369.09C852.07,-376 892.12,-384.46 922.5,-390.88"/>
<polygon fill="#9a32cd" stroke="#9a32cd" points="820.14,-365.68 809.63,-367.03 818.69,-372.52 820.14,-365.68"/>
</a>
</g>
<text text-anchor="middle" x="867.5" y="-385.38" font-family="Helvetica,sans-Serif" font-size="10.00" fill="grey"> pValue_</text>
</g>
<!-- Node15 -->
<g id="Node000015" class="node">
<title>Node15</title>
<g id="a_Node000015"><a xlink:href="classJStudio_1_1TFunctionValue.html" target="_top" xlink:title=" ">
<polygon fill="white" stroke="#666666" points="605.5,-366.25 483.75,-366.25 483.75,-347 605.5,-347 605.5,-366.25"/>
<text text-anchor="middle" x="544.62" y="-352.75" font-family="Helvetica,sans-Serif" font-size="10.00">JStudio::TFunctionValue</text>
</a>
</g>
</g>
<!-- Node15&#45;&gt;Node14 -->
<g id="edge18_Node000014_Node000015" class="edge">
<title>Node15&#45;&gt;Node14</title>
<g id="a_edge18_Node000014_Node000015"><a xlink:title=" ">
<path fill="none" stroke="#9a32cd" stroke-dasharray="5,2" d="M616.95,-356.62C643.65,-356.62 673.66,-356.62 699.15,-356.62"/>
<polygon fill="#9a32cd" stroke="#9a32cd" points="617.25,-353.13 607.25,-356.63 617.25,-360.13 617.25,-353.13"/>
</a>
</g>
<text text-anchor="middle" x="651.25" y="-358.38" font-family="Helvetica,sans-Serif" font-size="10.00" fill="grey"> fv</text>
</g>
<!-- Node16 -->
<g id="Node000016" class="node">
<title>Node16</title>
<g id="a_Node000016"><a xlink:href="structJStudio_1_1TVariableValue_1_1TOutput.html" target="_top" xlink:title=" ">
<polygon fill="white" stroke="#666666" points="604.38,-289.88 484.88,-289.88 484.88,-259.38 604.38,-259.38 604.38,-289.88"/>
<text text-anchor="start" x="492.88" y="-276.38" font-family="Helvetica,sans-Serif" font-size="10.00">JStudio::TVariableValue</text>
<text text-anchor="middle" x="544.62" y="-265.12" font-family="Helvetica,sans-Serif" font-size="10.00">::TOutput</text>
</a>
</g>
</g>
<!-- Node16&#45;&gt;Node14 -->
<g id="edge19_Node000014_Node000016" class="edge">
<title>Node16&#45;&gt;Node14</title>
<g id="a_edge19_Node000014_Node000016"><a xlink:title=" ">
<path fill="none" stroke="#9a32cd" stroke-dasharray="5,2" d="M597.14,-294.48C639.78,-310.92 698.63,-333.6 732.17,-346.52"/>
<polygon fill="#9a32cd" stroke="#9a32cd" points="598.4,-291.21 587.81,-290.88 595.88,-297.75 598.4,-291.21"/>
</a>
</g>
<text text-anchor="middle" x="651.25" y="-324.38" font-family="Helvetica,sans-Serif" font-size="10.00" fill="grey"> pOutput_</text>
</g>
<!-- Node17 -->
<g id="Node000017" class="node">
<title>Node17</title>
<g id="a_Node000017"><a xlink:href="structJStudio__JAudio2_1_1TAdaptor__sound_1_1TVVOSetValue__.html" target="_top" xlink:title=" ">
<polygon fill="white" stroke="#666666" points="1285,-249.88 1151.25,-249.88 1151.25,-219.38 1285,-219.38 1285,-249.88"/>
<text text-anchor="start" x="1159.25" y="-236.38" font-family="Helvetica,sans-Serif" font-size="10.00">JStudio_JAudio2::TAdaptor</text>
<text text-anchor="middle" x="1218.12" y="-225.12" font-family="Helvetica,sans-Serif" font-size="10.00">_sound::TVVOSetValue_</text>
</a>
</g>
</g>
<!-- Node16&#45;&gt;Node17 -->
<g id="edge22_Node000017_Node000016" class="edge">
<title>Node16&#45;&gt;Node17</title>
<g id="a_edge22_Node000017_Node000016"><a xlink:title=" ">
<path fill="none" stroke="#63b8ff" d="M616.02,-270.43C746.4,-262.67 1023.7,-246.15 1150.88,-238.57"/>
<polygon fill="#63b8ff" stroke="#63b8ff" points="615.91,-266.93 606.14,-271.02 616.33,-273.92 615.91,-266.93"/>
</a>
</g>
</g>
<!-- Node17&#45;&gt;Node1 -->
<g id="edge21_Node000001_Node000017" class="edge">
<title>Node17&#45;&gt;Node1</title>
<g id="a_edge21_Node000001_Node000017"><a xlink:title=" ">
<path fill="none" stroke="#9a32cd" stroke-dasharray="5,2" d="M1294.84,-253.02C1332.64,-262.21 1377.89,-273.21 1414,-281.98"/>
<polygon fill="#9a32cd" stroke="#9a32cd" points="1295.89,-249.68 1285.35,-250.72 1294.24,-256.48 1295.89,-249.68"/>
</a>
</g>
<text text-anchor="middle" x="1348.75" y="-276.38" font-family="Helvetica,sans-Serif" font-size="10.00" fill="grey"> saoVVOSetValue_</text>
</g>
<!-- Node18 -->
<g id="Node000018" class="node">
<title>Node18</title>
<g id="a_Node000018"><a xlink:href="classJAISound.html" target="_top" xlink:title=" ">
<polygon fill="white" stroke="#666666" points="999,-152.25 940.25,-152.25 940.25,-133 999,-133 999,-152.25"/>
<text text-anchor="middle" x="969.62" y="-138.75" font-family="Helvetica,sans-Serif" font-size="10.00">JAISound</text>
</a>
</g>
</g>
<!-- Node18&#45;&gt;Node17 -->
<g id="edge23_Node000017_Node000018" class="edge">
<title>Node18&#45;&gt;Node17</title>
<g id="a_edge23_Node000017_Node000018"><a xlink:title=" ">
<path fill="none" stroke="#9a32cd" stroke-dasharray="5,2" d="M1001.07,-157.67C1015.32,-164.45 1032.61,-172.34 1048.5,-178.62 1086.94,-193.84 1131.33,-208.47 1164.92,-218.96"/>
<polygon fill="#9a32cd" stroke="#9a32cd" points="1002.74,-154.58 992.21,-153.39 999.7,-160.89 1002.74,-154.58"/>
</a>
</g>
<text text-anchor="middle" x="1090.88" y="-210.38" font-family="Helvetica,sans-Serif" font-size="10.00" fill="grey"> field_0x08</text>
</g>
<!-- Node19 -->
<g id="Node000019" class="node">
<title>Node19</title>
<g id="a_Node000019"><a xlink:href="classJAISoundHandle.html" target="_top" xlink:title=" ">
<polygon fill="white" stroke="#666666" points="1262.88,-184.25 1173.38,-184.25 1173.38,-165 1262.88,-165 1262.88,-184.25"/>
<text text-anchor="middle" x="1218.12" y="-170.75" font-family="Helvetica,sans-Serif" font-size="10.00">JAISoundHandle</text>
</a>
</g>
</g>
<!-- Node18&#45;&gt;Node19 -->
<g id="edge25_Node000019_Node000018" class="edge">
<title>Node18&#45;&gt;Node19</title>
<g id="a_edge25_Node000019_Node000018"><a xlink:title=" ">
<path fill="none" stroke="#9a32cd" stroke-dasharray="5,2" d="M1010.65,-147.82C1055.23,-153.61 1127.09,-162.94 1173.2,-168.92"/>
<polygon fill="#9a32cd" stroke="#9a32cd" points="1011.25,-144.37 1000.89,-146.55 1010.35,-151.31 1011.25,-144.37"/>
</a>
</g>
<text text-anchor="middle" x="1090.88" y="-165.38" font-family="Helvetica,sans-Serif" font-size="10.00" fill="grey"> sound_</text>
</g>
<!-- Node19&#45;&gt;Node1 -->
<g id="edge47_Node000001_Node000019" class="edge">
<title>Node19&#45;&gt;Node1</title>
<g id="a_edge47_Node000001_Node000019"><a xlink:title=" ">
<path fill="none" stroke="#9a32cd" stroke-dasharray="5,2" d="M1261.72,-188.22C1297.94,-200.44 1350.85,-219.89 1394.5,-242.38 1416.98,-253.95 1440.9,-270.14 1457.42,-282"/>
<polygon fill="#9a32cd" stroke="#9a32cd" points="1263.08,-184.98 1252.49,-185.14 1260.87,-191.62 1263.08,-184.98"/>
</a>
</g>
<text text-anchor="middle" x="1348.75" y="-244.38" font-family="Helvetica,sans-Serif" font-size="10.00" fill="grey"> opJAISoundHandle_</text>
</g>
<!-- Node19&#45;&gt;Node18 -->
<g id="edge24_Node000018_Node000019" class="edge">
<title>Node19&#45;&gt;Node18</title>
<g id="a_edge24_Node000018_Node000019"><a xlink:title=" ">
<path fill="none" stroke="#9a32cd" stroke-dasharray="5,2" d="M1187.62,-159.76C1171.91,-152.66 1152,-144.96 1133.25,-141.38 1087.07,-132.56 1032.17,-135.74 999.43,-139.04"/>
<polygon fill="#9a32cd" stroke="#9a32cd" points="1185.85,-162.79 1196.39,-163.87 1188.82,-156.45 1185.85,-162.79"/>
</a>
</g>
<text text-anchor="middle" x="1090.88" y="-143.38" font-family="Helvetica,sans-Serif" font-size="10.00" fill="grey"> handle_</text>
</g>
<!-- Node20 -->
<g id="Node000020" class="node">
<title>Node20</title>
<g id="a_Node000020"><a xlink:href="classJAIAudible.html" target="_top" xlink:title=" ">
<polygon fill="white" stroke="#666666" points="791,-93.25 727.75,-93.25 727.75,-74 791,-74 791,-93.25"/>
<text text-anchor="middle" x="759.38" y="-79.75" font-family="Helvetica,sans-Serif" font-size="10.00">JAIAudible</text>
</a>
</g>
</g>
<!-- Node20&#45;&gt;Node18 -->
<g id="edge26_Node000018_Node000020" class="edge">
<title>Node20&#45;&gt;Node18</title>
<g id="a_edge26_Node000018_Node000020"><a xlink:title=" ">
<path fill="none" stroke="#9a32cd" stroke-dasharray="5,2" d="M802.42,-90.38C828.43,-95.32 862.19,-103.14 890.75,-114.38 899.32,-117.74 900.29,-121 908.75,-124.62 918.63,-128.86 929.82,-132.51 939.83,-135.39"/>
<polygon fill="#9a32cd" stroke="#9a32cd" points="803.38,-86.99 792.91,-88.64 802.12,-93.88 803.38,-86.99"/>
</a>
</g>
<text text-anchor="middle" x="867.5" y="-116.38" font-family="Helvetica,sans-Serif" font-size="10.00" fill="grey"> audible_</text>
</g>
<!-- Node21 -->
<g id="Node000021" class="node">
<title>Node21</title>
<g id="a_Node000021"><a xlink:href="structJGeometry_1_1TVec3.html" target="_top" xlink:title=" ">
<polygon fill="white" stroke="#666666" points="610,-56.25 479.25,-56.25 479.25,-37 610,-37 610,-56.25"/>
<text text-anchor="middle" x="544.62" y="-42.75" font-family="Helvetica,sans-Serif" font-size="10.00">JGeometry::TVec3&lt; float &gt;</text>
</a>
</g>
</g>
<!-- Node21&#45;&gt;Node20 -->
<g id="edge27_Node000020_Node000021" class="edge">
<title>Node21&#45;&gt;Node20</title>
<g id="a_edge27_Node000020_Node000021"><a xlink:title=" ">
<path fill="none" stroke="#9a32cd" stroke-dasharray="5,2" d="M621.49,-40.44C639.34,-41.26 657.96,-44.04 674.5,-50.38 684.29,-54.13 683.22,-60.74 692.5,-65.62 703.3,-71.32 716.08,-75.34 727.49,-78.12"/>
<polygon fill="#9a32cd" stroke="#9a32cd" points="621.8,-36.95 611.72,-40.21 621.64,-43.95 621.8,-36.95"/>
</a>
</g>
<text text-anchor="middle" x="651.25" y="-52.38" font-family="Helvetica,sans-Serif" font-size="10.00" fill="grey"> mPos</text>
</g>
<!-- Node22 -->
<g id="Node000022" class="node">
<title>Node22</title>
<g id="a_Node000022"><a xlink:href="structJAIAudience.html" target="_top" xlink:title=" ">
<polygon fill="white" stroke="#666666" points="795.12,-56.25 723.62,-56.25 723.62,-37 795.12,-37 795.12,-56.25"/>
<text text-anchor="middle" x="759.38" y="-42.75" font-family="Helvetica,sans-Serif" font-size="10.00">JAIAudience</text>
</a>
</g>
</g>
<!-- Node22&#45;&gt;Node18 -->
<g id="edge28_Node000018_Node000022" class="edge">
<title>Node22&#45;&gt;Node18</title>
<g id="a_edge28_Node000018_Node000022"><a xlink:title=" ">
<path fill="none" stroke="#9a32cd" stroke-dasharray="5,2" d="M806.39,-58.92C813.06,-60.78 819.84,-62.72 826.25,-64.62 855.11,-73.21 868.23,-65.38 890.75,-85.38 905.1,-98.12 894.28,-112.02 908.75,-124.62 917.43,-132.18 929.18,-136.57 939.98,-139.11"/>
<polygon fill="#9a32cd" stroke="#9a32cd" points="807.36,-55.55 796.79,-56.27 805.5,-62.3 807.36,-55.55"/>
</a>
</g>
<text text-anchor="middle" x="867.5" y="-87.38" font-family="Helvetica,sans-Serif" font-size="10.00" fill="grey"> audience_</text>
</g>
<!-- Node23 -->
<g id="Node000023" class="node">
<title>Node23</title>
<g id="a_Node000023"><a xlink:href="structJAISoundID.html" target="_top" xlink:title=" ">
<polygon fill="white" stroke="#666666" points="793.62,-19.25 725.12,-19.25 725.12,0 793.62,0 793.62,-19.25"/>
<text text-anchor="middle" x="759.38" y="-5.75" font-family="Helvetica,sans-Serif" font-size="10.00">JAISoundID</text>
</a>
</g>
</g>
<!-- Node23&#45;&gt;Node18 -->
<g id="edge29_Node000018_Node000023" class="edge">
<title>Node23&#45;&gt;Node18</title>
<g id="a_edge29_Node000018_Node000023"><a xlink:title=" ">
<path fill="none" stroke="#9a32cd" stroke-dasharray="5,2" d="M805.21,-13.33C833.78,-18.09 869.32,-28.91 890.75,-53.38 912.27,-77.95 886.18,-101.02 908.75,-124.62 916.85,-133.1 928.78,-137.62 939.85,-140.03"/>
<polygon fill="#9a32cd" stroke="#9a32cd" points="805.75,-9.87 795.36,-11.9 804.75,-16.79 805.75,-9.87"/>
</a>
</g>
<text text-anchor="middle" x="867.5" y="-55.38" font-family="Helvetica,sans-Serif" font-size="10.00" fill="grey"> soundID</text>
</g>
<!-- Node24 -->
<g id="Node000024" class="node">
<title>Node24</title>
<g id="a_Node000024"><a xlink:href="structJAISoundStatus__.html" target="_top" xlink:title=" ">
<polygon fill="white" stroke="#666666" points="805.62,-206.25 713.12,-206.25 713.12,-187 805.62,-187 805.62,-206.25"/>
<text text-anchor="middle" x="759.38" y="-192.75" font-family="Helvetica,sans-Serif" font-size="10.00">JAISoundStatus_</text>
</a>
</g>
</g>
<!-- Node24&#45;&gt;Node18 -->
<g id="edge30_Node000018_Node000024" class="edge">
<title>Node24&#45;&gt;Node18</title>
<g id="a_edge30_Node000018_Node000024"><a xlink:title=" ">
<path fill="none" stroke="#9a32cd" stroke-dasharray="5,2" d="M817.42,-188.48C840.42,-184.59 867.06,-179.31 890.75,-172.62 909.71,-167.28 930.51,-159.14 945.83,-152.7"/>
<polygon fill="#9a32cd" stroke="#9a32cd" points="816.9,-185.02 807.6,-190.09 818.03,-191.93 816.9,-185.02"/>
</a>
</g>
<text text-anchor="middle" x="867.5" y="-185.38" font-family="Helvetica,sans-Serif" font-size="10.00" fill="grey"> status_</text>
</g>
<!-- Node25 -->
<g id="Node000025" class="node">
<title>Node25</title>
<g id="a_Node000025"><a xlink:href="structJAISoundFader.html" target="_top" xlink:title=" ">
<polygon fill="white" stroke="#666666" points="461.25,-168.25 377.75,-168.25 377.75,-149 461.25,-149 461.25,-168.25"/>
<text text-anchor="middle" x="419.5" y="-154.75" font-family="Helvetica,sans-Serif" font-size="10.00">JAISoundFader</text>
</a>
</g>
</g>
<!-- Node25&#45;&gt;Node18 -->
<g id="edge31_Node000018_Node000025" class="edge">
<title>Node25&#45;&gt;Node18</title>
<g id="a_edge31_Node000018_Node000025"><a xlink:title=" ">
<path fill="none" stroke="#9a32cd" stroke-dasharray="5,2" d="M473.18,-157.09C586.87,-153.77 852.03,-146.03 939.82,-143.47"/>
<polygon fill="#9a32cd" stroke="#9a32cd" points="473.1,-153.59 463.21,-157.38 473.31,-160.58 473.1,-153.59"/>
</a>
</g>
<text text-anchor="middle" x="651.25" y="-154.38" font-family="Helvetica,sans-Serif" font-size="10.00" fill="grey"> fader</text>
</g>
<!-- Node26 -->
<g id="Node000026" class="node">
<title>Node26</title>
<g id="a_Node000026"><a xlink:href="structJAISoundParamsTransition_1_1TTransition.html" target="_top" xlink:title=" ">
<polygon fill="white" stroke="#666666" points="135.25,-134.88 0,-134.88 0,-104.38 135.25,-104.38 135.25,-134.88"/>
<text text-anchor="start" x="8" y="-121.38" font-family="Helvetica,sans-Serif" font-size="10.00">JAISoundParamsTransition</text>
<text text-anchor="middle" x="67.62" y="-110.12" font-family="Helvetica,sans-Serif" font-size="10.00">::TTransition</text>
</a>
</g>
</g>
<!-- Node26&#45;&gt;Node25 -->
<g id="edge32_Node000025_Node000026" class="edge">
<title>Node26&#45;&gt;Node25</title>
<g id="a_edge32_Node000025_Node000026"><a xlink:title=" ">
<path fill="none" stroke="#9a32cd" stroke-dasharray="5,2" d="M146.66,-136.61C148.87,-136.97 151.08,-137.31 153.25,-137.62 232.11,-149.08 325.13,-154.63 377.42,-157.04"/>
<polygon fill="#9a32cd" stroke="#9a32cd" points="147.4,-133.19 136.95,-134.94 146.21,-140.09 147.4,-133.19"/>
</a>
</g>
<text text-anchor="middle" x="179.88" y="-146.38" font-family="Helvetica,sans-Serif" font-size="10.00" fill="grey"> mTransition</text>
</g>
<!-- Node31 -->
<g id="Node000031" class="node">
<title>Node31</title>
<g id="a_Node000031"><a xlink:href="structJAISoundParamsTransition.html" target="_top" xlink:title=" ">
<polygon fill="white" stroke="#666666" points="359.75,-91.25 224.5,-91.25 224.5,-72 359.75,-72 359.75,-91.25"/>
<text text-anchor="middle" x="292.12" y="-77.75" font-family="Helvetica,sans-Serif" font-size="10.00">JAISoundParamsTransition</text>
</a>
</g>
</g>
<!-- Node26&#45;&gt;Node31 -->
<g id="edge38_Node000031_Node000026" class="edge">
<title>Node26&#45;&gt;Node31</title>
<g id="a_edge38_Node000031_Node000026"><a xlink:title=" ">
<path fill="none" stroke="#9a32cd" stroke-dasharray="5,2" d="M105.44,-98.88C119.88,-91.86 136.89,-84.9 153.25,-81.38 176.06,-76.46 201.5,-75.32 224.25,-75.8"/>
<polygon fill="#9a32cd" stroke="#9a32cd" points="104.12,-95.63 96.78,-103.27 107.28,-101.87 104.12,-95.63"/>
</a>
</g>
<text text-anchor="middle" x="179.88" y="-128.38" font-family="Helvetica,sans-Serif" font-size="10.00" fill="grey"> mDolby</text>
<text text-anchor="middle" x="179.88" y="-117.12" font-family="Helvetica,sans-Serif" font-size="10.00" fill="grey">mFxMix</text>
<text text-anchor="middle" x="179.88" y="-105.88" font-family="Helvetica,sans-Serif" font-size="10.00" fill="grey">mPan</text>
<text text-anchor="middle" x="179.88" y="-94.62" font-family="Helvetica,sans-Serif" font-size="10.00" fill="grey">mPitch</text>
<text text-anchor="middle" x="179.88" y="-83.38" font-family="Helvetica,sans-Serif" font-size="10.00" fill="grey">mVolume</text>
</g>
<!-- Node27 -->
<g id="Node000027" class="node">
<title>Node27</title>
<g id="a_Node000027"><a xlink:href="structJAISoundParams.html" target="_top" xlink:title=" ">
<polygon fill="white" stroke="#666666" points="805.62,-130.25 713.12,-130.25 713.12,-111 805.62,-111 805.62,-130.25"/>
<text text-anchor="middle" x="759.38" y="-116.75" font-family="Helvetica,sans-Serif" font-size="10.00">JAISoundParams</text>
</a>
</g>
</g>
<!-- Node27&#45;&gt;Node18 -->
<g id="edge33_Node000018_Node000027" class="edge">
<title>Node27&#45;&gt;Node18</title>
<g id="a_edge33_Node000018_Node000027"><a xlink:title=" ">
<path fill="none" stroke="#9a32cd" stroke-dasharray="5,2" d="M817.19,-125.92C840.06,-128.12 866.67,-130.77 890.75,-133.38 906.99,-135.13 925.12,-137.28 939.79,-139.06"/>
<polygon fill="#9a32cd" stroke="#9a32cd" points="817.75,-122.46 807.46,-124.99 817.08,-129.43 817.75,-122.46"/>
</a>
</g>
<text text-anchor="middle" x="867.5" y="-135.38" font-family="Helvetica,sans-Serif" font-size="10.00" fill="grey"> params</text>
</g>
<!-- Node28 -->
<g id="Node000028" class="node">
<title>Node28</title>
<g id="a_Node000028"><a xlink:href="structJAISoundParamsProperty.html" target="_top" xlink:title=" ">
<polygon fill="white" stroke="#666666" points="608.88,-93.25 480.38,-93.25 480.38,-74 608.88,-74 608.88,-93.25"/>
<text text-anchor="middle" x="544.62" y="-79.75" font-family="Helvetica,sans-Serif" font-size="10.00">JAISoundParamsProperty</text>
</a>
</g>
</g>
<!-- Node28&#45;&gt;Node27 -->
<g id="edge34_Node000027_Node000028" class="edge">
<title>Node28&#45;&gt;Node27</title>
<g id="a_edge34_Node000027_Node000028"><a xlink:title=" ">
<path fill="none" stroke="#9a32cd" stroke-dasharray="5,2" d="M617.63,-95.61C636.17,-98.74 656.08,-102.15 674.5,-105.38 686.89,-107.55 700.3,-109.96 712.69,-112.21"/>
<polygon fill="#9a32cd" stroke="#9a32cd" points="618.23,-92.16 607.79,-93.95 617.07,-99.07 618.23,-92.16"/>
</a>
</g>
<text text-anchor="middle" x="651.25" y="-107.38" font-family="Helvetica,sans-Serif" font-size="10.00" fill="grey"> mProperty</text>
</g>
<!-- Node29 -->
<g id="Node000029" class="node">
<title>Node29</title>
<g id="a_Node000029"><a xlink:href="structJAISoundParamsMove.html" target="_top" xlink:title=" ">
<polygon fill="white" stroke="#666666" points="602.88,-130.25 486.38,-130.25 486.38,-111 602.88,-111 602.88,-130.25"/>
<text text-anchor="middle" x="544.62" y="-116.75" font-family="Helvetica,sans-Serif" font-size="10.00">JAISoundParamsMove</text>
</a>
</g>
</g>
<!-- Node29&#45;&gt;Node27 -->
<g id="edge35_Node000027_Node000029" class="edge">
<title>Node29&#45;&gt;Node27</title>
<g id="a_edge35_Node000027_Node000029"><a xlink:title=" ">
<path fill="none" stroke="#9a32cd" stroke-dasharray="5,2" d="M614.37,-120.62C646.64,-120.62 684.21,-120.62 712.89,-120.62"/>
<polygon fill="#9a32cd" stroke="#9a32cd" points="614.71,-117.13 604.71,-120.63 614.71,-124.13 614.71,-117.13"/>
</a>
</g>
<text text-anchor="middle" x="651.25" y="-122.38" font-family="Helvetica,sans-Serif" font-size="10.00" fill="grey"> mMove</text>
</g>
<!-- Node30 -->
<g id="Node000030" class="node">
<title>Node30</title>
<g id="a_Node000030"><a xlink:href="structJASSoundParams.html" target="_top" xlink:title=" ">
<polygon fill="white" stroke="#666666" points="340.25,-130.25 244,-130.25 244,-111 340.25,-111 340.25,-130.25"/>
<text text-anchor="middle" x="292.12" y="-116.75" font-family="Helvetica,sans-Serif" font-size="10.00">JASSoundParams</text>
</a>
</g>
</g>
<!-- Node30&#45;&gt;Node29 -->
<g id="edge36_Node000029_Node000030" class="edge">
<title>Node30&#45;&gt;Node29</title>
<g id="a_edge36_Node000029_Node000030"><a xlink:title=" ">
<path fill="none" stroke="#9a32cd" stroke-dasharray="5,2" d="M351.87,-120.62C392.42,-120.62 446.06,-120.62 486.3,-120.62"/>
<polygon fill="#9a32cd" stroke="#9a32cd" points="352.05,-117.13 342.05,-120.63 352.05,-124.13 352.05,-117.13"/>
</a>
</g>
<text text-anchor="middle" x="419.5" y="-122.38" font-family="Helvetica,sans-Serif" font-size="10.00" fill="grey"> mParams</text>
</g>
<!-- Node31&#45;&gt;Node29 -->
<g id="edge37_Node000029_Node000031" class="edge">
<title>Node31&#45;&gt;Node29</title>
<g id="a_edge37_Node000029_Node000031"><a xlink:title=" ">
<path fill="none" stroke="#9a32cd" stroke-dasharray="5,2" d="M371.01,-91.92C399.45,-95.87 431.84,-100.58 461.25,-105.38 470.87,-106.94 481.09,-108.74 490.95,-110.53"/>
<polygon fill="#9a32cd" stroke="#9a32cd" points="371.79,-88.5 361.4,-90.6 370.83,-95.43 371.79,-88.5"/>
</a>
</g>
<text text-anchor="middle" x="419.5" y="-107.38" font-family="Helvetica,sans-Serif" font-size="10.00" fill="grey"> mTransition</text>
</g>
<!-- Node32 -->
<g id="Node000032" class="node">
<title>Node32</title>
<g id="a_Node000032"><a xlink:href="structJStudio__JAudio2_1_1TCreateObject.html" target="_top" xlink:title=" ">
<polygon fill="white" stroke="#666666" points="1282.38,-413.88 1153.88,-413.88 1153.88,-383.38 1282.38,-383.38 1282.38,-413.88"/>
<text text-anchor="start" x="1161.88" y="-400.38" font-family="Helvetica,sans-Serif" font-size="10.00">JStudio_JAudio2::TCreate</text>
<text text-anchor="middle" x="1218.12" y="-389.12" font-family="Helvetica,sans-Serif" font-size="10.00">Object</text>
</a>
</g>
</g>
<!-- Node32&#45;&gt;Node1 -->
<g id="edge39_Node000001_Node000032" class="edge">
<title>Node32&#45;&gt;Node1</title>
<g id="a_edge39_Node000001_Node000032"><a xlink:title=" ">
<path fill="none" stroke="#9a32cd" stroke-dasharray="5,2" d="M1293.5,-380.83C1325.23,-372.15 1362.3,-360.56 1394.5,-346.62 1415.86,-337.38 1438.56,-323.86 1454.96,-313.37"/>
<polygon fill="#9a32cd" stroke="#9a32cd" points="1292.72,-377.41 1283.97,-383.38 1294.54,-384.17 1292.72,-377.41"/>
</a>
</g>
<text text-anchor="middle" x="1348.75" y="-378.38" font-family="Helvetica,sans-Serif" font-size="10.00" fill="grey"> pCreateObject_</text>
</g>
<!-- Node33&#45;&gt;Node32 -->
<g id="edge40_Node000032_Node000033" class="edge">
<title>Node33&#45;&gt;Node32</title>
<g id="a_edge40_Node000032_Node000033"><a xlink:title=" ">
<path fill="none" stroke="#63b8ff" d="M1039.36,-479.89C1070.07,-476.38 1105.51,-468.31 1133.25,-450.62 1144.79,-443.26 1140.5,-434.1 1151.25,-425.62 1156.78,-421.26 1163.12,-417.5 1169.62,-414.3"/>
<polygon fill="#63b8ff" stroke="#63b8ff" points="1039.4,-476.37 1029.79,-480.84 1040.09,-483.34 1039.4,-476.37"/>
</a>
</g>
</g>
<!-- Node34 -->
<g id="Node000034" class="node">
<title>Node34</title>
<g id="a_Node000034"><a xlink:href="structJAISoundStarter.html" target="_top" xlink:title=" ">
<polygon fill="white" stroke="#666666" points="1013.62,-539.25 925.62,-539.25 925.62,-520 1013.62,-520 1013.62,-539.25"/>
<text text-anchor="middle" x="969.62" y="-525.75" font-family="Helvetica,sans-Serif" font-size="10.00">JAISoundStarter</text>
</a>
</g>
</g>
<!-- Node34&#45;&gt;Node32 -->
<g id="edge42_Node000032_Node000034" class="edge">
<title>Node34&#45;&gt;Node32</title>
<g id="a_edge42_Node000032_Node000034"><a xlink:title=" ">
<path fill="none" stroke="#9a32cd" stroke-dasharray="5,2" d="M1024.71,-517.84C1065.7,-507.92 1117.56,-492.94 1133.25,-477.62 1150.75,-460.54 1134.45,-443.39 1151.25,-425.62 1155.5,-421.14 1160.6,-417.37 1166.06,-414.22"/>
<polygon fill="#9a32cd" stroke="#9a32cd" points="1024.14,-514.38 1015.22,-520.09 1025.75,-521.19 1024.14,-514.38"/>
</a>
</g>
<text text-anchor="middle" x="1090.88" y="-512.38" font-family="Helvetica,sans-Serif" font-size="10.00" fill="grey"> pJAISoundStarter_</text>
</g>
<!-- Node35 -->
<g id="Node000035" class="node">
<title>Node35</title>
<g id="a_Node000035"><a xlink:href="classJASGlobalInstance.html" target="_top" xlink:title=" ">
<polygon fill="white" stroke="#666666" points="1271.12,-544.88 1165.12,-544.88 1165.12,-514.38 1271.12,-514.38 1271.12,-544.88"/>
<text text-anchor="start" x="1173.12" y="-531.38" font-family="Helvetica,sans-Serif" font-size="10.00">JASGlobalInstance&lt;</text>
<text text-anchor="middle" x="1218.12" y="-520.12" font-family="Helvetica,sans-Serif" font-size="10.00"> JAISoundStarter &gt;</text>
</a>
</g>
</g>
<!-- Node34&#45;&gt;Node35 -->
<g id="edge44_Node000035_Node000034" class="edge">
<title>Node34&#45;&gt;Node35</title>
<g id="a_edge44_Node000035_Node000034"><a xlink:title=" ">
<path fill="none" stroke="#9a32cd" stroke-dasharray="5,2" d="M1025.08,-538.31C1032.92,-539.27 1040.9,-540.09 1048.5,-540.62 1086.07,-543.27 1095.66,-543.08 1133.25,-540.62 1143.51,-539.96 1154.43,-538.83 1164.88,-537.55"/>
<polygon fill="#9a32cd" stroke="#9a32cd" points="1025.63,-534.85 1015.26,-537.01 1024.72,-541.79 1025.63,-534.85"/>
</a>
</g>
<text text-anchor="middle" x="1090.88" y="-543.38" font-family="Helvetica,sans-Serif" font-size="10.00" fill="grey"> sInstance</text>
</g>
<!-- Node35&#45;&gt;Node34 -->
<g id="edge43_Node000034_Node000035" class="edge">
<title>Node35&#45;&gt;Node34</title>
<g id="a_edge43_Node000034_Node000035"><a xlink:title=" ">
<path fill="none" stroke="#63b8ff" d="M1153.54,-529.62C1109.67,-529.62 1052.5,-529.62 1013.84,-529.62"/>
<polygon fill="#63b8ff" stroke="#63b8ff" points="1153.45,-533.13 1163.45,-529.63 1153.45,-526.13 1153.45,-533.13"/>
</a>
</g>
</g>
<!-- Node36 -->
<g id="Node000036" class="node">
<title>Node36</title>
<g id="a_Node000036"><a xlink:href="structJStage_1_1TSystem.html" target="_top" xlink:title=" ">
<polygon fill="white" stroke="#666666" points="1014.75,-282.25 924.5,-282.25 924.5,-263 1014.75,-263 1014.75,-282.25"/>
<text text-anchor="middle" x="969.62" y="-268.75" font-family="Helvetica,sans-Serif" font-size="10.00">JStage::TSystem</text>
</a>
</g>
</g>
<!-- Node36&#45;&gt;Node32 -->
<g id="edge45_Node000032_Node000036" class="edge">
<title>Node36&#45;&gt;Node32</title>
<g id="a_edge45_Node000032_Node000036"><a xlink:title=" ">
<path fill="none" stroke="#9a32cd" stroke-dasharray="5,2" d="M1015.4,-260.1C1051.46,-252.95 1101.24,-250.1 1133.25,-277.38 1165.71,-305.03 1124.26,-338.61 1151.25,-371.62 1154.93,-376.12 1159.47,-379.88 1164.45,-383.01"/>
<polygon fill="#9a32cd" stroke="#9a32cd" points="1014.72,-256.67 1005.69,-262.22 1016.21,-263.51 1014.72,-256.67"/>
</a>
</g>
<text text-anchor="middle" x="1090.88" y="-278.38" font-family="Helvetica,sans-Serif" font-size="10.00" fill="grey"> pJSGSystem_</text>
</g>
<!-- Node37 -->
<g id="Node000037" class="node">
<title>Node37</title>
<g id="a_Node000037"><a xlink:href="structJStage_1_1TObject.html" target="_top" xlink:title=" ">
<polygon fill="white" stroke="#666666" points="802.25,-304.25 716.5,-304.25 716.5,-285 802.25,-285 802.25,-304.25"/>
<text text-anchor="middle" x="759.38" y="-290.75" font-family="Helvetica,sans-Serif" font-size="10.00">JStage::TObject</text>
</a>
</g>
</g>
<!-- Node37&#45;&gt;Node1 -->
<g id="edge50_Node000001_Node000037" class="edge">
<title>Node37&#45;&gt;Node1</title>
<g id="a_edge50_Node000001_Node000037"><a xlink:title=" ">
<path fill="none" stroke="#9a32cd" stroke-dasharray="5,2" d="M813.81,-296.08C823.92,-296.3 834.41,-296.5 844.25,-296.62 1051.48,-299.26 1296.83,-298.56 1412.19,-298.01"/>
<polygon fill="#9a32cd" stroke="#9a32cd" points="814.2,-292.59 804.12,-295.85 814.04,-299.58 814.2,-292.59"/>
</a>
</g>
<text text-anchor="middle" x="1090.88" y="-299.38" font-family="Helvetica,sans-Serif" font-size="10.00" fill="grey"> field_0x13c</text>
</g>
<!-- Node37&#45;&gt;Node36 -->
<g id="edge46_Node000036_Node000037" class="edge">
<title>Node37&#45;&gt;Node36</title>
<g id="a_edge46_Node000036_Node000037"><a xlink:title=" ">
<path fill="none" stroke="#63b8ff" d="M813.7,-288.99C847.87,-285.38 891.71,-280.75 924.03,-277.34"/>
<polygon fill="#63b8ff" stroke="#63b8ff" points="813.6,-285.48 804.02,-290.01 814.34,-292.44 813.6,-285.48"/>
</a>
</g>
</g>
<!-- Node38 -->
<g id="Node000038" class="node">
<title>Node38</title>
<g id="a_Node000038"><a xlink:href="structJGeometry_1_1TVec3_3_01f32_01_4.html" target="_top" xlink:title=" ">
<polygon fill="white" stroke="#666666" points="1281.25,-132.25 1155,-132.25 1155,-113 1281.25,-113 1281.25,-132.25"/>
<text text-anchor="middle" x="1218.12" y="-118.75" font-family="Helvetica,sans-Serif" font-size="10.00">JGeometry::TVec3&lt; f32 &gt;</text>
</a>
</g>
</g>
<!-- Node38&#45;&gt;Node1 -->
<g id="edge48_Node000001_Node000038" class="edge">
<title>Node38&#45;&gt;Node1</title>
<g id="a_edge48_Node000001_Node000038"><a xlink:title=" ">
<path fill="none" stroke="#9a32cd" stroke-dasharray="5,2" d="M1292.78,-134.73C1326.18,-142.9 1364.77,-156.32 1394.5,-178.12 1432.52,-206 1459.57,-256.45 1471.52,-281.96"/>
<polygon fill="#9a32cd" stroke="#9a32cd" points="1293.68,-131.34 1283.15,-132.5 1292.1,-138.16 1293.68,-131.34"/>
</a>
</g>
<text text-anchor="middle" x="1348.75" y="-191.62" font-family="Helvetica,sans-Serif" font-size="10.00" fill="grey"> field_0x12c</text>
<text text-anchor="middle" x="1348.75" y="-180.38" font-family="Helvetica,sans-Serif" font-size="10.00" fill="grey">field_0x130</text>
</g>
<!-- Node39 -->
<g id="Node000039" class="node">
<title>Node39</title>
<g id="a_Node000039"><a xlink:href="structVec.html" target="_top" xlink:title=" ">
<polygon fill="white" stroke="#666666" points="986.25,-115.25 953,-115.25 953,-96 986.25,-96 986.25,-115.25"/>
<text text-anchor="middle" x="969.62" y="-101.75" font-family="Helvetica,sans-Serif" font-size="10.00">Vec</text>
</a>
</g>
</g>
<!-- Node39&#45;&gt;Node38 -->
<g id="edge49_Node000038_Node000039" class="edge">
<title>Node39&#45;&gt;Node38</title>
<g id="a_edge49_Node000038_Node000039"><a xlink:title=" ">
<path fill="none" stroke="#63b8ff" d="M997.89,-107.51C1035.46,-110.1 1104.21,-114.84 1154.73,-118.32"/>
<polygon fill="#63b8ff" stroke="#63b8ff" points="998.15,-104.01 987.93,-106.82 997.67,-111 998.15,-104.01"/>
</a>
</g>
</g>
</g>
</svg>
