<?xml version="1.0" encoding="UTF-8" standalone="no"?>
<!DOCTYPE svg PUBLIC "-//W3C//DTD SVG 1.1//EN"
 "http://www.w3.org/Graphics/SVG/1.1/DTD/svg11.dtd">
<!-- Generated by graphviz version 9.0.0 (20230911.1827)
 -->
<!-- Title: J3DAnmTexPattern Pages: 1 -->
<svg width="360pt" height="227pt"
 viewBox="0.00 0.00 359.75 226.75" xmlns="http://www.w3.org/2000/svg" xmlns:xlink="http://www.w3.org/1999/xlink">
<g id="graph0" class="graph" transform="scale(1 1) rotate(0) translate(4 222.75)">
<title>J3DAnmTexPattern</title>
<!-- Node1 -->
<g id="Node000001" class="node">
<title>Node1</title>
<g id="a_Node000001"><a xlink:title=" ">
<polygon fill="#999999" stroke="#666666" points="214.38,-19.25 113.62,-19.25 113.62,0 214.38,0 214.38,-19.25"/>
<text text-anchor="middle" x="164" y="-5.75" font-family="Helvetica,sans-Serif" font-size="10.00">J3DAnmTexPattern</text>
</a>
</g>
</g>
<!-- Node2 -->
<g id="Node000002" class="node">
<title>Node2</title>
<g id="a_Node000002"><a xlink:href="classJ3DAnmBase.html" target="_top" xlink:title=" ">
<polygon fill="white" stroke="#666666" points="76,-85.75 0,-85.75 0,-66.5 76,-66.5 76,-85.75"/>
<text text-anchor="middle" x="38" y="-72.25" font-family="Helvetica,sans-Serif" font-size="10.00">J3DAnmBase</text>
</a>
</g>
</g>
<!-- Node2&#45;&gt;Node1 -->
<g id="edge1_Node000001_Node000002" class="edge">
<title>Node2&#45;&gt;Node1</title>
<g id="a_edge1_Node000001_Node000002"><a xlink:title=" ">
<path fill="none" stroke="#63b8ff" d="M65.92,-60.83C90.46,-48.27 125.43,-30.37 146.3,-19.68"/>
<polygon fill="#63b8ff" stroke="#63b8ff" points="64.44,-57.66 57.13,-65.33 67.63,-63.89 64.44,-57.66"/>
</a>
</g>
</g>
<!-- Node3 -->
<g id="Node000003" class="node">
<title>Node3</title>
<g id="a_Node000003"><a xlink:href="structJ3DAnmTexPatternFullTable.html" target="_top" xlink:title=" ">
<polygon fill="white" stroke="#666666" points="234.25,-85.75 93.75,-85.75 93.75,-66.5 234.25,-66.5 234.25,-85.75"/>
<text text-anchor="middle" x="164" y="-72.25" font-family="Helvetica,sans-Serif" font-size="10.00">J3DAnmTexPatternFullTable</text>
</a>
</g>
</g>
<!-- Node3&#45;&gt;Node1 -->
<g id="edge2_Node000001_Node000003" class="edge">
<title>Node3&#45;&gt;Node1</title>
<g id="a_edge2_Node000001_Node000003"><a xlink:title=" ">
<path fill="none" stroke="#9a32cd" stroke-dasharray="5,2" d="M164,-54.65C164,-42.82 164,-28.54 164,-19.52"/>
<polygon fill="#9a32cd" stroke="#9a32cd" points="160.5,-54.64 164,-64.64 167.5,-54.64 160.5,-54.64"/>
</a>
</g>
<text text-anchor="middle" x="191.38" y="-39" font-family="Helvetica,sans-Serif" font-size="10.00" fill="grey"> mAnmTable</text>
</g>
<!-- Node4 -->
<g id="Node000004" class="node">
<title>Node4</title>
<g id="a_Node000004"><a xlink:href="structJUTNameTab.html" target="_top" xlink:title=" ">
<polygon fill="white" stroke="#666666" points="329.75,-85.75 252.25,-85.75 252.25,-66.5 329.75,-66.5 329.75,-85.75"/>
<text text-anchor="middle" x="291" y="-72.25" font-family="Helvetica,sans-Serif" font-size="10.00">JUTNameTab</text>
</a>
</g>
</g>
<!-- Node4&#45;&gt;Node1 -->
<g id="edge3_Node000001_Node000004" class="edge">
<title>Node4&#45;&gt;Node1</title>
<g id="a_edge3_Node000001_Node000004"><a xlink:title=" ">
<path fill="none" stroke="#9a32cd" stroke-dasharray="5,2" d="M265.68,-60.36C253,-53.13 237.34,-44.46 223,-37.25 210.65,-31.04 196.55,-24.65 185.23,-19.69"/>
<polygon fill="#9a32cd" stroke="#9a32cd" points="263.81,-63.32 274.22,-65.27 267.3,-57.25 263.81,-63.32"/>
</a>
</g>
<text text-anchor="middle" x="294.38" y="-39" font-family="Helvetica,sans-Serif" font-size="10.00" fill="grey"> mUpdateMaterialName</text>
</g>
<!-- Node5 -->
<g id="Node000005" class="node">
<title>Node5</title>
<g id="a_Node000005"><a xlink:href="structResNTAB.html" target="_top" xlink:title=" ">
<polygon fill="white" stroke="#666666" points="321.12,-152.25 260.88,-152.25 260.88,-133 321.12,-133 321.12,-152.25"/>
<text text-anchor="middle" x="291" y="-138.75" font-family="Helvetica,sans-Serif" font-size="10.00">ResNTAB</text>
</a>
</g>
</g>
<!-- Node5&#45;&gt;Node4 -->
<g id="edge4_Node000004_Node000005" class="edge">
<title>Node5&#45;&gt;Node4</title>
<g id="a_edge4_Node000004_Node000005"><a xlink:title=" ">
<path fill="none" stroke="#9a32cd" stroke-dasharray="5,2" d="M291,-121.15C291,-109.32 291,-95.04 291,-86.02"/>
<polygon fill="#9a32cd" stroke="#9a32cd" points="287.5,-121.14 291,-131.14 294.5,-121.14 287.5,-121.14"/>
</a>
</g>
<text text-anchor="middle" x="321.38" y="-105.5" font-family="Helvetica,sans-Serif" font-size="10.00" fill="grey"> mNameTable</text>
</g>
<!-- Node6 -->
<g id="Node000006" class="node">
<title>Node6</title>
<g id="a_Node000006"><a xlink:href="structResNTAB_1_1Entry.html" target="_top" xlink:title=" ">
<polygon fill="white" stroke="#666666" points="334.25,-218.75 247.75,-218.75 247.75,-199.5 334.25,-199.5 334.25,-218.75"/>
<text text-anchor="middle" x="291" y="-205.25" font-family="Helvetica,sans-Serif" font-size="10.00">ResNTAB::Entry</text>
</a>
</g>
</g>
<!-- Node6&#45;&gt;Node5 -->
<g id="edge5_Node000005_Node000006" class="edge">
<title>Node6&#45;&gt;Node5</title>
<g id="a_edge5_Node000005_Node000006"><a xlink:title=" ">
<path fill="none" stroke="#9a32cd" stroke-dasharray="5,2" d="M291,-187.65C291,-175.82 291,-161.54 291,-152.52"/>
<polygon fill="#9a32cd" stroke="#9a32cd" points="287.5,-187.64 291,-197.64 294.5,-187.64 287.5,-187.64"/>
</a>
</g>
<text text-anchor="middle" x="311.25" y="-172" font-family="Helvetica,sans-Serif" font-size="10.00" fill="grey"> mEntries</text>
</g>
</g>
</svg>
