<?xml version="1.0" encoding="UTF-8" standalone="no"?>
<!DOCTYPE svg PUBLIC "-//W3C//DTD SVG 1.1//EN"
 "http://www.w3.org/Graphics/SVG/1.1/DTD/svg11.dtd">
<!-- Generated by graphviz version 9.0.0 (20230911.1827)
 -->
<!-- Title: leafdraw_class Pages: 1 -->
<!--zoomable 1581 -->

<svg id="main" version="1.1" xmlns="http://www.w3.org/2000/svg" xmlns:xlink="http://www.w3.org/1999/xlink" xml:space="preserve" onload="init(evt)">
<style type="text/css"><![CDATA[
.node, .edge {opacity: 0.7;}
.node.selected, .edge.selected {opacity: 1;}
.edge:hover path { stroke: red; }
.edge:hover polygon { stroke: red; fill: red; }
]]></style>

<defs>
  <circle id="rim" cx="0" cy="0" r="7"/>
  <circle id="rim2" cx="0" cy="0" r="3.5"/>
  <g id="zoomPlus">
    <use xlink:href="#rim" fill="#404040"><set attributeName="fill" to="#808080" begin="zoomplus.mouseover" end="zoomplus.mouseout"/></use>
    <path d="M-4,0h8M0,-4v8" fill="none" stroke="white" stroke-width="1.5" pointer-events="none"/>
  </g>
  <g id="zoomMin">
    <use xlink:href="#rim" fill="#404040"><set attributeName="fill" to="#808080" begin="zoomminus.mouseover" end="zoomminus.mouseout"/></use>
    <path d="M-4,0h8" fill="none" stroke="white" stroke-width="1.5" pointer-events="none"/>
  </g>
  <g id="arrowUp" transform="translate(30 24)">
    <use xlink:href="#rim"/>
    <path pointer-events="none" fill="none" stroke="white" stroke-width="1.5" d="M0,-3.0v7 M-2.5,-0.5L0,-3.0L2.5,-0.5"/>
  </g>
  <g id="arrowRight" transform="rotate(90) translate(36 -43)">
    <use xlink:href="#rim"/>
    <path pointer-events="none" fill="none" stroke="white" stroke-width="1.5" d="M0,-3.0v7 M-2.5,-0.5L0,-3.0L2.5,-0.5"/>
  </g>
  <g id="arrowDown" transform="rotate(180) translate(-30 -48)">
    <use xlink:href="#rim"/>
    <path pointer-events="none" fill="none" stroke="white" stroke-width="1.5" d="M0,-3.0v7 M-2.5,-0.5L0,-3.0L2.5,-0.5"/>
  </g>
  <g id="arrowLeft" transform="rotate(270) translate(-36 17)">
    <use xlink:href="#rim"/>
    <path pointer-events="none" fill="none" stroke="white" stroke-width="1.5" d="M0,-3.0v7 M-2.5,-0.5L0,-3.0L2.5,-0.5"/>
  </g>
  <g id="resetDef">
    <use xlink:href="#rim2" fill="#404040"><set attributeName="fill" to="#808080" begin="reset.mouseover" end="reset.mouseout"/></use>
  </g>
</defs>
<script type="application/ecmascript">
var viewWidth = 387;
var viewHeight = 1581;
var sectionId = 'dynsection-0';
</script>
<script type="application/ecmascript" xlink:href="svg.min.js"/>
<svg id="graph" class="graph">
<g id="viewport">
<title>leafdraw_class</title>
<!-- Node1 -->
<g id="Node000001" class="node">
<title>Node1</title>
<g id="a_Node000001"><a xlink:title=" ">
<polygon fill="#999999" stroke="#666666" points="81.25,-722.25 0,-722.25 0,-703 81.25,-703 81.25,-722.25"/>
<text text-anchor="middle" x="40.62" y="-708.75" font-family="Helvetica,sans-Serif" font-size="10.00">leafdraw_class</text>
</a>
</g>
</g>
<!-- Node2 -->
<g id="Node000002" class="node">
<title>Node2</title>
<g id="a_Node000002"><a xlink:href="structfopAc__ac__c.html" target="_top" xlink:title=" ">
<polygon fill="#fff0f0" stroke="red" points="201.12,-796.25 133.38,-796.25 133.38,-777 201.12,-777 201.12,-796.25"/>
<text text-anchor="middle" x="167.25" y="-782.75" font-family="Helvetica,sans-Serif" font-size="10.00">fopAc_ac_c</text>
</a>
</g>
</g>
<!-- Node1&#45;&gt;Node2 -->
<g id="edge1_Node000001_Node000002" class="edge">
<title>Node1&#45;&gt;Node2</title>
<g id="a_edge1_Node000001_Node000002"><a xlink:title=" ">
<path fill="none" stroke="#63b8ff" d="M61.39,-729.73C76.07,-741.79 96.96,-757.68 117.25,-768.62 122.75,-771.59 128.85,-774.27 134.82,-776.6"/>
<polygon fill="#63b8ff" stroke="#63b8ff" points="63.79,-727.17 53.88,-723.42 59.29,-732.53 63.79,-727.17"/>
</a>
</g>
</g>
<!-- Node771 -->
<g id="Node000771" class="node">
<title>Node771</title>
<g id="a_Node000771"><a xlink:href="classkankyo__class.html" target="_top" xlink:title=" ">
<polygon fill="#fff0f0" stroke="red" points="204.88,-759.25 129.62,-759.25 129.62,-740 204.88,-740 204.88,-759.25"/>
<text text-anchor="middle" x="167.25" y="-745.75" font-family="Helvetica,sans-Serif" font-size="10.00">kankyo_class</text>
</a>
</g>
</g>
<!-- Node1&#45;&gt;Node771 -->
<g id="edge45_Node000001_Node000771" class="edge">
<title>Node1&#45;&gt;Node771</title>
<g id="a_edge45_Node000001_Node000771"><a xlink:title=" ">
<path fill="none" stroke="#63b8ff" d="M86.36,-725.91C101.48,-730.39 118.09,-735.33 132.24,-739.53"/>
<polygon fill="#63b8ff" stroke="#63b8ff" points="87.71,-722.66 77.13,-723.17 85.72,-729.37 87.71,-722.66"/>
</a>
</g>
</g>
<!-- Node778 -->
<g id="Node000778" class="node">
<title>Node778</title>
<g id="a_Node000778"><a xlink:href="classmsg__class.html" target="_top" xlink:title=" ">
<polygon fill="#fff0f0" stroke="red" points="198.88,-722.25 135.62,-722.25 135.62,-703 198.88,-703 198.88,-722.25"/>
<text text-anchor="middle" x="167.25" y="-708.75" font-family="Helvetica,sans-Serif" font-size="10.00">msg_class</text>
</a>
</g>
</g>
<!-- Node1&#45;&gt;Node778 -->
<g id="edge46_Node000001_Node000778" class="edge">
<title>Node1&#45;&gt;Node778</title>
<g id="a_edge46_Node000001_Node000778"><a xlink:title=" ">
<path fill="none" stroke="#63b8ff" d="M93.02,-712.62C107.38,-712.62 122.53,-712.62 135.3,-712.62"/>
<polygon fill="#63b8ff" stroke="#63b8ff" points="93.26,-709.13 83.26,-712.63 93.26,-716.13 93.26,-709.13"/>
</a>
</g>
</g>
<!-- Node784 -->
<g id="Node000784" class="node">
<title>Node784</title>
<g id="a_Node000784"><a xlink:href="classoverlap__task__class.html" target="_top" xlink:title=" ">
<polygon fill="#fff0f0" stroke="red" points="217.25,-685.25 117.25,-685.25 117.25,-666 217.25,-666 217.25,-685.25"/>
<text text-anchor="middle" x="167.25" y="-671.75" font-family="Helvetica,sans-Serif" font-size="10.00">overlap_task_class</text>
</a>
</g>
</g>
<!-- Node1&#45;&gt;Node784 -->
<g id="edge47_Node000001_Node000784" class="edge">
<title>Node1&#45;&gt;Node784</title>
<g id="a_edge47_Node000001_Node000784"><a xlink:title=" ">
<path fill="none" stroke="#63b8ff" d="M86.36,-699.34C101.48,-694.86 118.09,-689.92 132.24,-685.72"/>
<polygon fill="#63b8ff" stroke="#63b8ff" points="85.72,-695.88 77.13,-702.08 87.71,-702.59 85.72,-695.88"/>
</a>
</g>
</g>
<!-- Node788 -->
<g id="Node000788" class="node">
<title>Node788</title>
<g id="a_Node000788"><a xlink:href="structview__class.html" target="_top" xlink:title=" ">
<polygon fill="#fff0f0" stroke="red" points="199.62,-648.25 134.88,-648.25 134.88,-629 199.62,-629 199.62,-648.25"/>
<text text-anchor="middle" x="167.25" y="-634.75" font-family="Helvetica,sans-Serif" font-size="10.00">view_class</text>
</a>
</g>
</g>
<!-- Node1&#45;&gt;Node788 -->
<g id="edge48_Node000001_Node000788" class="edge">
<title>Node1&#45;&gt;Node788</title>
<g id="a_edge48_Node000001_Node000788"><a xlink:title=" ">
<path fill="none" stroke="#63b8ff" d="M61.39,-695.52C76.07,-683.46 96.96,-667.57 117.25,-656.62 122.75,-653.66 128.85,-650.98 134.82,-648.65"/>
<polygon fill="#63b8ff" stroke="#63b8ff" points="59.29,-692.72 53.88,-701.83 63.79,-698.08 59.29,-692.72"/>
</a>
</g>
</g>
<!-- Node3 -->
<g id="Node000003" class="node">
<title>Node3</title>
<g id="a_Node000003"><a xlink:href="class__Fairy__Feather__c.html" target="_top" xlink:title=" ">
<polygon fill="white" stroke="#666666" points="361.5,-1573.25 270.5,-1573.25 270.5,-1554 361.5,-1554 361.5,-1573.25"/>
<text text-anchor="middle" x="316" y="-1559.75" font-family="Helvetica,sans-Serif" font-size="10.00">_Fairy_Feather_c</text>
</a>
</g>
</g>
<!-- Node2&#45;&gt;Node3 -->
<g id="edge2_Node000002_Node000003" class="edge">
<title>Node2&#45;&gt;Node3</title>
<g id="a_edge2_Node000002_Node000003"><a xlink:title=" ">
<path fill="none" stroke="#63b8ff" d="M169.24,-807.99C174.89,-925.25 204.35,-1487.49 253.25,-1545.62 257.71,-1550.92 263.63,-1554.71 270.04,-1557.41"/>
<polygon fill="#63b8ff" stroke="#63b8ff" points="172.75,-808.06 168.78,-798.24 165.76,-808.39 172.75,-808.06"/>
</a>
</g>
</g>
<!-- Node4 -->
<g id="Node000004" class="node">
<title>Node4</title>
<g id="a_Node000004"><a xlink:href="class__ZraMark__Hahen__Mng__c.html" target="_top" xlink:title=" ">
<polygon fill="white" stroke="#666666" points="378.75,-1536.25 253.25,-1536.25 253.25,-1517 378.75,-1517 378.75,-1536.25"/>
<text text-anchor="middle" x="316" y="-1522.75" font-family="Helvetica,sans-Serif" font-size="10.00">_ZraMark_Hahen_Mng_c</text>
</a>
</g>
</g>
<!-- Node2&#45;&gt;Node4 -->
<g id="edge3_Node000002_Node000004" class="edge">
<title>Node2&#45;&gt;Node4</title>
<g id="a_edge3_Node000002_Node000004"><a xlink:title=" ">
<path fill="none" stroke="#63b8ff" d="M169.37,-807.99C175.54,-921.8 206.69,-1453.59 253.25,-1508.62 255.92,-1511.78 259.11,-1514.4 262.61,-1516.57"/>
<polygon fill="#63b8ff" stroke="#63b8ff" points="172.87,-807.81 168.84,-798.01 165.88,-808.18 172.87,-807.81"/>
</a>
</g>
</g>
<!-- Node5 -->
<g id="Node000005" class="node">
<title>Node5</title>
<g id="a_Node000005"><a xlink:href="class__ZraMark__Hahen__c.html" target="_top" xlink:title=" ">
<polygon fill="white" stroke="#666666" points="366.75,-1499.25 265.25,-1499.25 265.25,-1480 366.75,-1480 366.75,-1499.25"/>
<text text-anchor="middle" x="316" y="-1485.75" font-family="Helvetica,sans-Serif" font-size="10.00">_ZraMark_Hahen_c</text>
</a>
</g>
</g>
<!-- Node2&#45;&gt;Node5 -->
<g id="edge4_Node000002_Node000005" class="edge">
<title>Node2&#45;&gt;Node5</title>
<g id="a_edge4_Node000002_Node000005"><a xlink:title=" ">
<path fill="none" stroke="#63b8ff" d="M167.87,-807.95C166.43,-912.31 165.34,-1368.37 253.25,-1471.62 256.51,-1475.45 260.53,-1478.49 264.94,-1480.9"/>
<polygon fill="#63b8ff" stroke="#63b8ff" points="171.37,-808.11 168.02,-798.06 164.37,-808 171.37,-808.11"/>
</a>
</g>
</g>
<!-- Node6 -->
<g id="Node000006" class="node">
<title>Node6</title>
<g id="a_Node000006"><a xlink:href="classdBgS__MoveBgActor.html" target="_top" xlink:title=" ">
<polygon fill="#fff0f0" stroke="red" points="368.25,-1462.25 263.75,-1462.25 263.75,-1443 368.25,-1443 368.25,-1462.25"/>
<text text-anchor="middle" x="316" y="-1448.75" font-family="Helvetica,sans-Serif" font-size="10.00">dBgS_MoveBgActor</text>
</a>
</g>
</g>
<!-- Node2&#45;&gt;Node6 -->
<g id="edge5_Node000002_Node000006" class="edge">
<title>Node2&#45;&gt;Node6</title>
<g id="a_edge5_Node000002_Node000006"><a xlink:title=" ">
<path fill="none" stroke="#63b8ff" d="M168.04,-807.74C167.45,-908.27 169.94,-1337.46 253.25,-1434.62 256.16,-1438.02 259.66,-1440.79 263.51,-1443.05"/>
<polygon fill="#63b8ff" stroke="#63b8ff" points="171.53,-808.01 168.11,-797.99 164.54,-807.96 171.53,-808.01"/>
</a>
</g>
</g>
<!-- Node68 -->
<g id="Node000068" class="node">
<title>Node68</title>
<g id="a_Node000068"><a xlink:href="classdBomb__c.html" target="_top" xlink:title=" ">
<polygon fill="#fff0f0" stroke="red" points="344.62,-1425.25 287.38,-1425.25 287.38,-1406 344.62,-1406 344.62,-1425.25"/>
<text text-anchor="middle" x="316" y="-1411.75" font-family="Helvetica,sans-Serif" font-size="10.00">dBomb_c</text>
</a>
</g>
</g>
<!-- Node2&#45;&gt;Node68 -->
<g id="edge6_Node000002_Node000068" class="edge">
<title>Node2&#45;&gt;Node68</title>
<g id="a_edge6_Node000002_Node000068"><a xlink:title=" ">
<path fill="none" stroke="#63b8ff" d="M168.22,-807.75C168.53,-904.74 174.58,-1306.6 253.25,-1397.62 261.65,-1407.34 274.96,-1411.96 287.08,-1414.1"/>
<polygon fill="#63b8ff" stroke="#63b8ff" points="171.72,-807.87 168.21,-797.88 164.72,-807.88 171.72,-807.87"/>
</a>
</g>
</g>
<!-- Node70 -->
<g id="Node000070" class="node">
<title>Node70</title>
<g id="a_Node000070"><a xlink:href="classdInsect__c.html" target="_top" xlink:title=" ">
<polygon fill="#fff0f0" stroke="red" points="345.38,-1388.25 286.62,-1388.25 286.62,-1369 345.38,-1369 345.38,-1388.25"/>
<text text-anchor="middle" x="316" y="-1374.75" font-family="Helvetica,sans-Serif" font-size="10.00">dInsect_c</text>
</a>
</g>
</g>
<!-- Node2&#45;&gt;Node70 -->
<g id="edge7_Node000002_Node000070" class="edge">
<title>Node2&#45;&gt;Node70</title>
<g id="a_edge7_Node000002_Node000070"><a xlink:title=" ">
<path fill="none" stroke="#63b8ff" d="M168.43,-807.94C169.68,-901.61 179.27,-1275.78 253.25,-1360.62 261.47,-1370.05 274.32,-1374.68 286.17,-1376.89"/>
<polygon fill="#63b8ff" stroke="#63b8ff" points="171.94,-808.12 168.33,-798.16 164.94,-808.2 171.94,-808.12"/>
</a>
</g>
</g>
<!-- Node78 -->
<g id="Node000078" class="node">
<title>Node78</title>
<g id="a_Node000078"><a xlink:href="classd__a__npc__henna0.html" target="_top" xlink:title="Henna 0 (unused?)">
<polygon fill="white" stroke="#666666" points="360.75,-1351.25 271.25,-1351.25 271.25,-1332 360.75,-1332 360.75,-1351.25"/>
<text text-anchor="middle" x="316" y="-1337.75" font-family="Helvetica,sans-Serif" font-size="10.00">d_a_npc_henna0</text>
</a>
</g>
</g>
<!-- Node2&#45;&gt;Node78 -->
<g id="edge8_Node000002_Node000078" class="edge">
<title>Node2&#45;&gt;Node78</title>
<g id="a_edge8_Node000002_Node000078"><a xlink:title=" ">
<path fill="none" stroke="#63b8ff" d="M168.67,-807.69C170.87,-897.18 183.83,-1244.8 253.25,-1323.62 257.97,-1328.99 264.19,-1332.79 270.87,-1335.49"/>
<polygon fill="#63b8ff" stroke="#63b8ff" points="172.17,-807.86 168.45,-797.94 165.18,-808.01 172.17,-807.86"/>
</a>
</g>
</g>
<!-- Node79 -->
<g id="Node000079" class="node">
<title>Node79</title>
<g id="a_Node000079"><a xlink:href="classdaAlldie__c.html" target="_top" xlink:title=" ">
<polygon fill="white" stroke="#666666" points="346.5,-1314.25 285.5,-1314.25 285.5,-1295 346.5,-1295 346.5,-1314.25"/>
<text text-anchor="middle" x="316" y="-1300.75" font-family="Helvetica,sans-Serif" font-size="10.00">daAlldie_c</text>
</a>
</g>
</g>
<!-- Node2&#45;&gt;Node79 -->
<g id="edge9_Node000002_Node000079" class="edge">
<title>Node2&#45;&gt;Node79</title>
<g id="a_edge9_Node000002_Node000079"><a xlink:title=" ">
<path fill="none" stroke="#63b8ff" d="M168.95,-807.86C172.18,-893.71 188.48,-1213.93 253.25,-1286.62 261.35,-1295.71 273.74,-1300.33 285.31,-1302.63"/>
<polygon fill="#63b8ff" stroke="#63b8ff" points="172.45,-807.94 168.6,-798.07 165.46,-808.19 172.45,-807.94"/>
</a>
</g>
</g>
<!-- Node80 -->
<g id="Node000080" class="node">
<title>Node80</title>
<g id="a_Node000080"><a xlink:href="classdaAmiShutter__c.html" target="_top" xlink:title="Drain Gate.">
<polygon fill="white" stroke="#666666" points="358.88,-1277.25 273.12,-1277.25 273.12,-1258 358.88,-1258 358.88,-1277.25"/>
<text text-anchor="middle" x="316" y="-1263.75" font-family="Helvetica,sans-Serif" font-size="10.00">daAmiShutter_c</text>
</a>
</g>
</g>
<!-- Node2&#45;&gt;Node80 -->
<g id="edge10_Node000002_Node000080" class="edge">
<title>Node2&#45;&gt;Node80</title>
<g id="a_edge10_Node000002_Node000080"><a xlink:title=" ">
<path fill="none" stroke="#63b8ff" d="M169.27,-808.1C173.62,-890.21 193.14,-1183.04 253.25,-1249.62 258.49,-1255.43 265.48,-1259.4 272.87,-1262.11"/>
<polygon fill="#63b8ff" stroke="#63b8ff" points="172.77,-807.93 168.77,-798.12 165.78,-808.28 172.77,-807.93"/>
</a>
</g>
</g>
<!-- Node81 -->
<g id="Node000081" class="node">
<title>Node81</title>
<g id="a_Node000081"><a xlink:href="classdaAndsw2__c.html" target="_top" xlink:title=" ">
<polygon fill="white" stroke="#666666" points="352.12,-1240.25 279.88,-1240.25 279.88,-1221 352.12,-1221 352.12,-1240.25"/>
<text text-anchor="middle" x="316" y="-1226.75" font-family="Helvetica,sans-Serif" font-size="10.00">daAndsw2_c</text>
</a>
</g>
</g>
<!-- Node2&#45;&gt;Node81 -->
<g id="edge11_Node000002_Node000081" class="edge">
<title>Node2&#45;&gt;Node81</title>
<g id="a_edge11_Node000002_Node000081"><a xlink:title=" ">
<path fill="none" stroke="#63b8ff" d="M169.61,-807.63C175.05,-884.88 197.61,-1151.94 253.25,-1212.62 260.12,-1220.12 269.9,-1224.55 279.67,-1227.17"/>
<polygon fill="#63b8ff" stroke="#63b8ff" points="173.14,-807.81 168.97,-798.07 166.15,-808.28 173.14,-807.81"/>
</a>
</g>
</g>
<!-- Node82 -->
<g id="Node000082" class="node">
<title>Node82</title>
<g id="a_Node000082"><a xlink:href="classdaAndsw__c.html" target="_top" xlink:title=" ">
<polygon fill="white" stroke="#666666" points="349.5,-1203.25 282.5,-1203.25 282.5,-1184 349.5,-1184 349.5,-1203.25"/>
<text text-anchor="middle" x="316" y="-1189.75" font-family="Helvetica,sans-Serif" font-size="10.00">daAndsw_c</text>
</a>
</g>
</g>
<!-- Node2&#45;&gt;Node82 -->
<g id="edge12_Node000002_Node000082" class="edge">
<title>Node2&#45;&gt;Node82</title>
<g id="a_edge12_Node000002_Node000082"><a xlink:title=" ">
<path fill="none" stroke="#63b8ff" d="M170.05,-807.64C176.7,-880.53 202.18,-1120.93 253.25,-1175.62 260.72,-1183.62 271.52,-1188.14 282,-1190.66"/>
<polygon fill="#63b8ff" stroke="#63b8ff" points="173.56,-807.56 169.19,-797.91 166.58,-808.18 173.56,-807.56"/>
</a>
</g>
</g>
<!-- Node83 -->
<g id="Node000083" class="node">
<title>Node83</title>
<g id="a_Node000083"><a xlink:href="classdaArrow__c.html" target="_top" xlink:title="Arrow.">
<polygon fill="white" stroke="#666666" points="347.25,-1166.25 284.75,-1166.25 284.75,-1147 347.25,-1147 347.25,-1166.25"/>
<text text-anchor="middle" x="316" y="-1152.75" font-family="Helvetica,sans-Serif" font-size="10.00">daArrow_c</text>
</a>
</g>
</g>
<!-- Node2&#45;&gt;Node83 -->
<g id="edge13_Node000002_Node000083" class="edge">
<title>Node2&#45;&gt;Node83</title>
<g id="a_edge13_Node000002_Node000083"><a xlink:title=" ">
<path fill="none" stroke="#63b8ff" d="M170.59,-807.82C178.56,-876.29 206.77,-1089.92 253.25,-1138.62 261.35,-1147.11 273.19,-1151.66 284.34,-1154.08"/>
<polygon fill="#63b8ff" stroke="#63b8ff" points="174.08,-807.52 169.47,-797.98 167.12,-808.31 174.08,-807.52"/>
</a>
</g>
</g>
<!-- Node84 -->
<g id="Node000084" class="node">
<title>Node84</title>
<g id="a_Node000084"><a xlink:href="classdaAttp__c.html" target="_top" xlink:title=" ">
<polygon fill="white" stroke="#666666" points="343.5,-1129.25 288.5,-1129.25 288.5,-1110 343.5,-1110 343.5,-1129.25"/>
<text text-anchor="middle" x="316" y="-1115.75" font-family="Helvetica,sans-Serif" font-size="10.00">daAttp_c</text>
</a>
</g>
</g>
<!-- Node2&#45;&gt;Node84 -->
<g id="edge14_Node000002_Node000084" class="edge">
<title>Node2&#45;&gt;Node84</title>
<g id="a_edge14_Node000002_Node000084"><a xlink:title=" ">
<path fill="none" stroke="#63b8ff" d="M167.38,-807.72C166.26,-863.79 171.22,-1017.93 253.25,-1101.62 262.4,-1110.96 276.08,-1115.52 288.24,-1117.72"/>
<polygon fill="#63b8ff" stroke="#63b8ff" points="170.87,-808.09 167.67,-797.99 163.87,-807.88 170.87,-808.09"/>
</a>
</g>
</g>
<!-- Node85 -->
<g id="Node000085" class="node">
<title>Node85</title>
<g id="a_Node000085"><a xlink:href="classdaB__ZANTS__c.html" target="_top" xlink:title="Zant (Goron Mines Phase)">
<polygon fill="white" stroke="#666666" points="357,-1092.25 275,-1092.25 275,-1073 357,-1073 357,-1092.25"/>
<text text-anchor="middle" x="316" y="-1078.75" font-family="Helvetica,sans-Serif" font-size="10.00">daB_ZANTS_c</text>
</a>
</g>
</g>
<!-- Node2&#45;&gt;Node85 -->
<g id="edge15_Node000002_Node000085" class="edge">
<title>Node2&#45;&gt;Node85</title>
<g id="a_edge15_Node000002_Node000085"><a xlink:title=" ">
<path fill="none" stroke="#63b8ff" d="M168.29,-807.97C169.58,-859.66 180.23,-992.56 253.25,-1064.62 259.13,-1070.43 266.77,-1074.38 274.66,-1077.07"/>
<polygon fill="#63b8ff" stroke="#63b8ff" points="171.79,-808.13 168.15,-798.18 164.79,-808.23 171.79,-808.13"/>
</a>
</g>
</g>
<!-- Node86 -->
<g id="Node000086" class="node">
<title>Node86</title>
<g id="a_Node000086"><a xlink:href="classdaBalloon2D__c.html" target="_top" xlink:title="???">
<polygon fill="white" stroke="#666666" points="356.62,-1055.25 275.38,-1055.25 275.38,-1036 356.62,-1036 356.62,-1055.25"/>
<text text-anchor="middle" x="316" y="-1041.75" font-family="Helvetica,sans-Serif" font-size="10.00">daBalloon2D_c</text>
</a>
</g>
</g>
<!-- Node2&#45;&gt;Node86 -->
<g id="edge16_Node000002_Node000086" class="edge">
<title>Node2&#45;&gt;Node86</title>
<g id="a_edge16_Node000002_Node000086"><a xlink:title=" ">
<path fill="none" stroke="#63b8ff" d="M169.46,-807.94C173.28,-854.68 189.03,-966.87 253.25,-1027.62 259.33,-1033.38 267.15,-1037.31 275.17,-1039.99"/>
<polygon fill="#63b8ff" stroke="#63b8ff" points="172.96,-807.83 168.77,-798.1 165.98,-808.31 172.96,-807.83"/>
</a>
</g>
</g>
<!-- Node87 -->
<g id="Node000087" class="node">
<title>Node87</title>
<g id="a_Node000087"><a xlink:href="classdaBaseNpc__c.html" target="_top" xlink:title=" ">
<polygon fill="#fff0f0" stroke="red" points="354.75,-1018.25 277.25,-1018.25 277.25,-999 354.75,-999 354.75,-1018.25"/>
<text text-anchor="middle" x="316" y="-1004.75" font-family="Helvetica,sans-Serif" font-size="10.00">daBaseNpc_c</text>
</a>
</g>
</g>
<!-- Node2&#45;&gt;Node87 -->
<g id="edge17_Node000002_Node000087" class="edge">
<title>Node2&#45;&gt;Node87</title>
<g id="a_edge17_Node000002_Node000087"><a xlink:title=" ">
<path fill="none" stroke="#63b8ff" d="M170.99,-807.72C177.48,-849.03 197.65,-940.89 253.25,-990.62 259.91,-996.58 268.43,-1000.57 277.01,-1003.25"/>
<polygon fill="#63b8ff" stroke="#63b8ff" points="174.46,-807.31 169.58,-797.91 167.54,-808.31 174.46,-807.31"/>
</a>
</g>
</g>
<!-- Node89 -->
<g id="Node000089" class="node">
<title>Node89</title>
<g id="a_Node000089"><a xlink:href="classdaBdoorL1__c.html" target="_top" xlink:title="Boss Door.">
<polygon fill="white" stroke="#666666" points="352.88,-981.25 279.12,-981.25 279.12,-962 352.88,-962 352.88,-981.25"/>
<text text-anchor="middle" x="316" y="-967.75" font-family="Helvetica,sans-Serif" font-size="10.00">daBdoorL1_c</text>
</a>
</g>
</g>
<!-- Node2&#45;&gt;Node89 -->
<g id="edge18_Node000002_Node000089" class="edge">
<title>Node2&#45;&gt;Node89</title>
<g id="a_edge18_Node000002_Node000089"><a xlink:title=" ">
<path fill="none" stroke="#63b8ff" d="M173.11,-807.54C182.42,-842.95 206.19,-914.64 253.25,-953.62 260.56,-959.68 269.82,-963.7 278.94,-966.37"/>
<polygon fill="#63b8ff" stroke="#63b8ff" points="176.57,-806.97 170.77,-798.11 169.78,-808.66 176.57,-806.97"/>
</a>
</g>
</g>
<!-- Node90 -->
<g id="Node000090" class="node">
<title>Node90</title>
<g id="a_Node000090"><a xlink:href="classdaBdoorL5__c.html" target="_top" xlink:title="Snowpeak Ruins Boss Door.">
<polygon fill="white" stroke="#666666" points="352.88,-944.25 279.12,-944.25 279.12,-925 352.88,-925 352.88,-944.25"/>
<text text-anchor="middle" x="316" y="-930.75" font-family="Helvetica,sans-Serif" font-size="10.00">daBdoorL5_c</text>
</a>
</g>
</g>
<!-- Node2&#45;&gt;Node90 -->
<g id="edge19_Node000002_Node000090" class="edge">
<title>Node2&#45;&gt;Node90</title>
<g id="a_edge19_Node000002_Node000090"><a xlink:title=" ">
<path fill="none" stroke="#63b8ff" d="M176.11,-806.89C188.28,-835.61 214.4,-887.84 253.25,-916.62 260.7,-922.14 269.81,-925.97 278.72,-928.63"/>
<polygon fill="#63b8ff" stroke="#63b8ff" points="179.45,-805.83 172.45,-797.89 172.97,-808.47 179.45,-805.83"/>
</a>
</g>
</g>
<!-- Node91 -->
<g id="Node000091" class="node">
<title>Node91</title>
<g id="a_Node000091"><a xlink:href="classdaBdoor__c.html" target="_top" xlink:title="Boss Door (Unused?)">
<polygon fill="white" stroke="#666666" points="347.25,-907.25 284.75,-907.25 284.75,-888 347.25,-888 347.25,-907.25"/>
<text text-anchor="middle" x="316" y="-893.75" font-family="Helvetica,sans-Serif" font-size="10.00">daBdoor_c</text>
</a>
</g>
</g>
<!-- Node2&#45;&gt;Node91 -->
<g id="edge20_Node000002_Node000091" class="edge">
<title>Node2&#45;&gt;Node91</title>
<g id="a_edge20_Node000002_Node000091"><a xlink:title=" ">
<path fill="none" stroke="#63b8ff" d="M180.99,-805.96C195.88,-827.08 222.45,-860.45 253.25,-879.62 262.63,-885.47 274,-889.48 284.4,-892.21"/>
<polygon fill="#63b8ff" stroke="#63b8ff" points="184.04,-804.22 175.5,-797.94 178.26,-808.17 184.04,-804.22"/>
</a>
</g>
</g>
<!-- Node92 -->
<g id="Node000092" class="node">
<title>Node92</title>
<g id="a_Node000092"><a xlink:href="classdaBg__c.html" target="_top" xlink:title="Background.">
<polygon fill="white" stroke="#666666" points="340.5,-870.25 291.5,-870.25 291.5,-851 340.5,-851 340.5,-870.25"/>
<text text-anchor="middle" x="316" y="-856.75" font-family="Helvetica,sans-Serif" font-size="10.00">daBg_c</text>
</a>
</g>
</g>
<!-- Node2&#45;&gt;Node92 -->
<g id="edge21_Node000002_Node000092" class="edge">
<title>Node2&#45;&gt;Node92</title>
<g id="a_edge21_Node000002_Node000092"><a xlink:title=" ">
<path fill="none" stroke="#63b8ff" d="M189.64,-803.33C206.22,-815.61 230.19,-831.96 253.25,-842.62 265.31,-848.2 279.5,-852.48 291.24,-855.47"/>
<polygon fill="#63b8ff" stroke="#63b8ff" points="192.08,-800.79 182,-797.55 187.86,-806.37 192.08,-800.79"/>
</a>
</g>
</g>
<!-- Node93 -->
<g id="Node000093" class="node">
<title>Node93</title>
<g id="a_Node000093"><a xlink:href="classdaBkLeaf__c.html" target="_top" xlink:title="Baba Stem Leaf.">
<polygon fill="white" stroke="#666666" points="350.25,-833.25 281.75,-833.25 281.75,-814 350.25,-814 350.25,-833.25"/>
<text text-anchor="middle" x="316" y="-819.75" font-family="Helvetica,sans-Serif" font-size="10.00">daBkLeaf_c</text>
</a>
</g>
</g>
<!-- Node2&#45;&gt;Node93 -->
<g id="edge22_Node000002_Node000093" class="edge">
<title>Node2&#45;&gt;Node93</title>
<g id="a_edge22_Node000002_Node000093"><a xlink:title=" ">
<path fill="none" stroke="#63b8ff" d="M212.65,-797.82C234.72,-803.38 260.94,-810 281.32,-815.13"/>
<polygon fill="#63b8ff" stroke="#63b8ff" points="213.57,-794.44 203.02,-795.39 211.86,-801.23 213.57,-794.44"/>
</a>
</g>
</g>
<!-- Node94 -->
<g id="Node000094" class="node">
<title>Node94</title>
<g id="a_Node000094"><a xlink:href="classdaBkyRock__c.html" target="_top" xlink:title="Bomb Shack Rock.">
<polygon fill="white" stroke="#666666" points="354,-796.25 278,-796.25 278,-777 354,-777 354,-796.25"/>
<text text-anchor="middle" x="316" y="-782.75" font-family="Helvetica,sans-Serif" font-size="10.00">daBkyRock_c</text>
</a>
</g>
</g>
<!-- Node2&#45;&gt;Node94 -->
<g id="edge23_Node000002_Node000094" class="edge">
<title>Node2&#45;&gt;Node94</title>
<g id="a_edge23_Node000002_Node000094"><a xlink:title=" ">
<path fill="none" stroke="#63b8ff" d="M212.95,-786.62C233.66,-786.62 257.99,-786.62 277.7,-786.62"/>
<polygon fill="#63b8ff" stroke="#63b8ff" points="213.06,-783.13 203.06,-786.63 213.06,-790.13 213.06,-783.13"/>
</a>
</g>
</g>
<!-- Node95 -->
<g id="Node000095" class="node">
<title>Node95</title>
<g id="a_Node000095"><a xlink:href="classdaBoomerang__c.html" target="_top" xlink:title="Gale Boomerang.">
<polygon fill="white" stroke="#666666" points="359.25,-759.25 272.75,-759.25 272.75,-740 359.25,-740 359.25,-759.25"/>
<text text-anchor="middle" x="316" y="-745.75" font-family="Helvetica,sans-Serif" font-size="10.00">daBoomerang_c</text>
</a>
</g>
</g>
<!-- Node2&#45;&gt;Node95 -->
<g id="edge24_Node000002_Node000095" class="edge">
<title>Node2&#45;&gt;Node95</title>
<g id="a_edge24_Node000002_Node000095"><a xlink:title=" ">
<path fill="none" stroke="#63b8ff" d="M212.51,-775.47C232.4,-770.45 255.7,-764.58 275.05,-759.7"/>
<polygon fill="#63b8ff" stroke="#63b8ff" points="211.86,-772.02 203.02,-777.86 213.57,-778.81 211.86,-772.02"/>
</a>
</g>
</g>
<!-- Node96 -->
<g id="Node000096" class="node">
<title>Node96</title>
<g id="a_Node000096"><a xlink:href="classdaBubbPilar__c.html" target="_top" xlink:title="Bubble Pillar.">
<polygon fill="white" stroke="#666666" points="355.5,-722.25 276.5,-722.25 276.5,-703 355.5,-703 355.5,-722.25"/>
<text text-anchor="middle" x="316" y="-708.75" font-family="Helvetica,sans-Serif" font-size="10.00">daBubbPilar_c</text>
</a>
</g>
</g>
<!-- Node2&#45;&gt;Node96 -->
<g id="edge25_Node000002_Node000096" class="edge">
<title>Node2&#45;&gt;Node96</title>
<g id="a_edge25_Node000002_Node000096"><a xlink:title=" ">
<path fill="none" stroke="#63b8ff" d="M211.56,-772.02C213.53,-770.95 215.43,-769.82 217.25,-768.62 236.68,-755.83 233.39,-742.75 253.25,-730.62 260.21,-726.38 268.22,-723.09 276.12,-720.56"/>
<polygon fill="#63b8ff" stroke="#63b8ff" points="210.33,-768.73 202.79,-776.17 213.32,-775.06 210.33,-768.73"/>
</a>
</g>
</g>
<!-- Node97 -->
<g id="Node000097" class="node">
<title>Node97</title>
<g id="a_Node000097"><a xlink:href="classdaCanoe__c.html" target="_top" xlink:title="Canoe.">
<polygon fill="white" stroke="#666666" points="348.38,-685.25 283.62,-685.25 283.62,-666 348.38,-666 348.38,-685.25"/>
<text text-anchor="middle" x="316" y="-671.75" font-family="Helvetica,sans-Serif" font-size="10.00">daCanoe_c</text>
</a>
</g>
</g>
<!-- Node2&#45;&gt;Node97 -->
<g id="edge26_Node000002_Node000097" class="edge">
<title>Node2&#45;&gt;Node97</title>
<g id="a_edge26_Node000002_Node000097"><a xlink:title=" ">
<path fill="none" stroke="#63b8ff" d="M211.33,-773.17C213.43,-771.79 215.42,-770.28 217.25,-768.62 244.61,-743.76 225.05,-717.54 253.25,-693.62 261.68,-686.47 272.83,-682.16 283.32,-679.56"/>
<polygon fill="#63b8ff" stroke="#63b8ff" points="210.11,-769.85 202.93,-777.64 213.4,-776.03 210.11,-769.85"/>
</a>
</g>
</g>
<!-- Node98 -->
<g id="Node000098" class="node">
<title>Node98</title>
<g id="a_Node000098"><a xlink:href="classdaCoach2D__c.html" target="_top" xlink:title="Coach 2D.">
<polygon fill="white" stroke="#666666" points="354.38,-648.25 277.62,-648.25 277.62,-629 354.38,-629 354.38,-648.25"/>
<text text-anchor="middle" x="316" y="-634.75" font-family="Helvetica,sans-Serif" font-size="10.00">daCoach2D_c</text>
</a>
</g>
</g>
<!-- Node2&#45;&gt;Node98 -->
<g id="edge27_Node000002_Node000098" class="edge">
<title>Node2&#45;&gt;Node98</title>
<g id="a_edge27_Node000002_Node000098"><a xlink:title=" ">
<path fill="none" stroke="#63b8ff" d="M211.43,-773.59C213.53,-772.11 215.49,-770.46 217.25,-768.62 253.46,-730.9 215.78,-693.09 253.25,-656.62 259.81,-650.24 268.51,-646.1 277.29,-643.42"/>
<polygon fill="#63b8ff" stroke="#63b8ff" points="209.93,-770.42 202.88,-778.33 213.32,-776.54 209.93,-770.42"/>
</a>
</g>
</g>
<!-- Node99 -->
<g id="Node000099" class="node">
<title>Node99</title>
<g id="a_Node000099"><a xlink:href="classdaCoachFire__c.html" target="_top" xlink:title="Coach Fire.">
<polygon fill="white" stroke="#666666" points="356.62,-611.25 275.38,-611.25 275.38,-592 356.62,-592 356.62,-611.25"/>
<text text-anchor="middle" x="316" y="-597.75" font-family="Helvetica,sans-Serif" font-size="10.00">daCoachFire_c</text>
</a>
</g>
</g>
<!-- Node2&#45;&gt;Node99 -->
<g id="edge28_Node000002_Node000099" class="edge">
<title>Node2&#45;&gt;Node99</title>
<g id="a_edge28_Node000002_Node000099"><a xlink:title=" ">
<path fill="none" stroke="#63b8ff" d="M211.51,-773.8C213.6,-772.27 215.54,-770.55 217.25,-768.62 262.58,-717.76 206.21,-668.91 253.25,-619.62 259.11,-613.49 266.93,-609.41 275.04,-606.7"/>
<polygon fill="#63b8ff" stroke="#63b8ff" points="209.87,-770.71 202.9,-778.68 213.32,-776.8 209.87,-770.71"/>
</a>
</g>
</g>
<!-- Node100 -->
<g id="Node000100" class="node">
<title>Node100</title>
<g id="a_Node000100"><a xlink:href="classdaCow__c.html" target="_top" xlink:title="Ordon Goat.">
<polygon fill="white" stroke="#666666" points="344.25,-574.25 287.75,-574.25 287.75,-555 344.25,-555 344.25,-574.25"/>
<text text-anchor="middle" x="316" y="-560.75" font-family="Helvetica,sans-Serif" font-size="10.00">daCow_c</text>
</a>
</g>
</g>
<!-- Node2&#45;&gt;Node100 -->
<g id="edge29_Node000002_Node000100" class="edge">
<title>Node2&#45;&gt;Node100</title>
<g id="a_edge29_Node000002_Node000100"><a xlink:title=" ">
<path fill="none" stroke="#63b8ff" d="M211.04,-774.32C213.32,-772.66 215.43,-770.77 217.25,-768.62 271.81,-704.49 196.53,-644.85 253.25,-582.62 261.9,-573.13 275.24,-568.54 287.31,-566.35"/>
<polygon fill="#63b8ff" stroke="#63b8ff" points="209.82,-770.99 202.82,-778.95 213.25,-777.09 209.82,-770.99"/>
</a>
</g>
</g>
<!-- Node101 -->
<g id="Node000101" class="node">
<title>Node101</title>
<g id="a_Node000101"><a xlink:href="classdaCrod__c.html" target="_top" xlink:title="Dominion Rod.">
<polygon fill="white" stroke="#666666" points="344.62,-537.25 287.38,-537.25 287.38,-518 344.62,-518 344.62,-537.25"/>
<text text-anchor="middle" x="316" y="-523.75" font-family="Helvetica,sans-Serif" font-size="10.00">daCrod_c</text>
</a>
</g>
</g>
<!-- Node2&#45;&gt;Node101 -->
<g id="edge30_Node000002_Node000101" class="edge">
<title>Node2&#45;&gt;Node101</title>
<g id="a_edge30_Node000002_Node000101"><a xlink:title=" ">
<path fill="none" stroke="#63b8ff" d="M211.11,-774.39C213.38,-772.71 215.46,-770.8 217.25,-768.62 281.11,-691.16 186.78,-620.86 253.25,-545.62 261.75,-536 275.08,-531.39 287.18,-529.23"/>
<polygon fill="#63b8ff" stroke="#63b8ff" points="209.9,-771.05 202.94,-779.04 213.36,-777.14 209.9,-771.05"/>
</a>
</g>
</g>
<!-- Node102 -->
<g id="Node000102" class="node">
<title>Node102</title>
<g id="a_Node000102"><a xlink:href="classdaCstatue__c.html" target="_top" xlink:title="Dominion Rod Statue (small?)">
<polygon fill="white" stroke="#666666" points="351.38,-500.25 280.62,-500.25 280.62,-481 351.38,-481 351.38,-500.25"/>
<text text-anchor="middle" x="316" y="-486.75" font-family="Helvetica,sans-Serif" font-size="10.00">daCstatue_c</text>
</a>
</g>
</g>
<!-- Node2&#45;&gt;Node102 -->
<g id="edge31_Node000002_Node000102" class="edge">
<title>Node2&#45;&gt;Node102</title>
<g id="a_edge31_Node000002_Node000102"><a xlink:title=" ">
<path fill="none" stroke="#63b8ff" d="M211.07,-774.5C213.37,-772.8 215.46,-770.85 217.25,-768.62 290.44,-677.78 177,-596.91 253.25,-508.62 260.11,-500.68 270.26,-496.14 280.35,-493.58"/>
<polygon fill="#63b8ff" stroke="#63b8ff" points="209.74,-771.24 202.77,-779.22 213.2,-777.32 209.74,-771.24"/>
</a>
</g>
</g>
<!-- Node103 -->
<g id="Node000103" class="node">
<title>Node103</title>
<g id="a_Node000103"><a xlink:href="classdaDbDoor00__c.html" target="_top" xlink:title="Double Door.">
<polygon fill="white" stroke="#666666" points="355.88,-463.25 276.12,-463.25 276.12,-444 355.88,-444 355.88,-463.25"/>
<text text-anchor="middle" x="316" y="-449.75" font-family="Helvetica,sans-Serif" font-size="10.00">daDbDoor00_c</text>
</a>
</g>
</g>
<!-- Node2&#45;&gt;Node103 -->
<g id="edge32_Node000002_Node000103" class="edge">
<title>Node2&#45;&gt;Node103</title>
<g id="a_edge32_Node000002_Node000103"><a xlink:title=" ">
<path fill="none" stroke="#63b8ff" d="M211.12,-774.54C213.4,-772.82 215.48,-770.86 217.25,-768.62 299.79,-664.38 167.2,-572.99 253.25,-471.62 259.03,-464.81 267.23,-460.5 275.77,-457.79"/>
<polygon fill="#63b8ff" stroke="#63b8ff" points="209.78,-771.27 202.84,-779.27 213.26,-777.35 209.78,-771.27"/>
</a>
</g>
</g>
<!-- Node104 -->
<g id="Node000104" class="node">
<title>Node104</title>
<g id="a_Node000104"><a xlink:href="classdaDemo00__c.html" target="_top" xlink:title="Cutscene.">
<polygon fill="white" stroke="#666666" points="352.5,-426.25 279.5,-426.25 279.5,-407 352.5,-407 352.5,-426.25"/>
<text text-anchor="middle" x="316" y="-412.75" font-family="Helvetica,sans-Serif" font-size="10.00">daDemo00_c</text>
</a>
</g>
</g>
<!-- Node2&#45;&gt;Node104 -->
<g id="edge33_Node000002_Node000104" class="edge">
<title>Node2&#45;&gt;Node104</title>
<g id="a_edge33_Node000002_Node000104"><a xlink:title=" ">
<path fill="none" stroke="#63b8ff" d="M211.15,-774.57C213.43,-772.84 215.49,-770.87 217.25,-768.62 309.15,-650.96 157.38,-549.08 253.25,-434.62 259.78,-426.84 269.46,-422.31 279.24,-419.71"/>
<polygon fill="#63b8ff" stroke="#63b8ff" points="209.82,-771.3 202.89,-779.31 213.3,-777.37 209.82,-771.3"/>
</a>
</g>
</g>
<!-- Node105 -->
<g id="Node000105" class="node">
<title>Node105</title>
<g id="a_Node000105"><a xlink:href="classdaDitem__c.html" target="_top" xlink:title="Cutscene Item.">
<polygon fill="white" stroke="#666666" points="347.25,-389.25 284.75,-389.25 284.75,-370 347.25,-370 347.25,-389.25"/>
<text text-anchor="middle" x="316" y="-375.75" font-family="Helvetica,sans-Serif" font-size="10.00">daDitem_c</text>
</a>
</g>
</g>
<!-- Node2&#45;&gt;Node105 -->
<g id="edge34_Node000002_Node000105" class="edge">
<title>Node2&#45;&gt;Node105</title>
<g id="a_edge34_Node000002_Node000105"><a xlink:title=" ">
<path fill="none" stroke="#63b8ff" d="M211.18,-774.59C213.45,-772.86 215.5,-770.88 217.25,-768.62 318.53,-637.52 147.55,-525.19 253.25,-397.62 260.87,-388.42 272.91,-383.77 284.34,-381.47"/>
<polygon fill="#63b8ff" stroke="#63b8ff" points="209.85,-771.32 202.93,-779.34 213.34,-777.38 209.85,-771.32"/>
</a>
</g>
</g>
<!-- Node106 -->
<g id="Node000106" class="node">
<title>Node106</title>
<g id="a_Node000106"><a xlink:href="classdaDmidna__c.html" target="_top" xlink:title="Dying Midna (White Midna)">
<polygon fill="white" stroke="#666666" points="351,-352.25 281,-352.25 281,-333 351,-333 351,-352.25"/>
<text text-anchor="middle" x="316" y="-338.75" font-family="Helvetica,sans-Serif" font-size="10.00">daDmidna_c</text>
</a>
</g>
</g>
<!-- Node2&#45;&gt;Node106 -->
<g id="edge35_Node000002_Node000106" class="edge">
<title>Node2&#45;&gt;Node106</title>
<g id="a_edge35_Node000002_Node000106"><a xlink:title=" ">
<path fill="none" stroke="#63b8ff" d="M211.11,-774.68C213.41,-772.93 215.49,-770.92 217.25,-768.62 272.58,-696.35 195.48,-430.96 253.25,-360.62 260.05,-352.34 270.44,-347.74 280.76,-345.22"/>
<polygon fill="#63b8ff" stroke="#63b8ff" points="209.66,-771.48 202.72,-779.48 213.13,-777.55 209.66,-771.48"/>
</a>
</g>
</g>
<!-- Node107 -->
<g id="Node000107" class="node">
<title>Node107</title>
<g id="a_Node000107"><a xlink:href="classdaDoor20__c.html" target="_top" xlink:title="Sliding Door.">
<polygon fill="white" stroke="#666666" points="349.88,-315.25 282.12,-315.25 282.12,-296 349.88,-296 349.88,-315.25"/>
<text text-anchor="middle" x="316" y="-301.75" font-family="Helvetica,sans-Serif" font-size="10.00">daDoor20_c</text>
</a>
</g>
</g>
<!-- Node2&#45;&gt;Node107 -->
<g id="edge36_Node000002_Node000107" class="edge">
<title>Node2&#45;&gt;Node107</title>
<g id="a_edge36_Node000002_Node000107"><a xlink:title=" ">
<path fill="none" stroke="#63b8ff" d="M211.13,-774.69C213.42,-772.94 215.5,-770.93 217.25,-768.62 277.27,-689.63 190.56,-400.52 253.25,-323.62 260.24,-315.06 271.05,-310.42 281.69,-307.96"/>
<polygon fill="#63b8ff" stroke="#63b8ff" points="209.68,-771.49 202.75,-779.5 213.16,-777.56 209.68,-771.49"/>
</a>
</g>
</g>
<!-- Node108 -->
<g id="Node000108" class="node">
<title>Node108</title>
<g id="a_Node000108"><a xlink:href="classdaDr__c.html" target="_top" xlink:title=" ">
<polygon fill="white" stroke="#666666" points="339.38,-278.25 292.62,-278.25 292.62,-259 339.38,-259 339.38,-278.25"/>
<text text-anchor="middle" x="316" y="-264.75" font-family="Helvetica,sans-Serif" font-size="10.00">daDr_c</text>
</a>
</g>
</g>
<!-- Node2&#45;&gt;Node108 -->
<g id="edge37_Node000002_Node000108" class="edge">
<title>Node2&#45;&gt;Node108</title>
<g id="a_edge37_Node000002_Node000108"><a xlink:title=" ">
<path fill="none" stroke="#63b8ff" d="M211.14,-774.7C213.43,-772.95 215.51,-770.94 217.25,-768.62 281.97,-682.9 185.64,-370.09 253.25,-286.62 262.6,-275.08 278.9,-270.68 292.41,-269.11"/>
<polygon fill="#63b8ff" stroke="#63b8ff" points="209.69,-771.5 202.77,-779.52 213.18,-777.57 209.69,-771.5"/>
</a>
</g>
</g>
<!-- Node109 -->
<g id="Node000109" class="node">
<title>Node109</title>
<g id="a_Node000109"><a xlink:href="classdaE__YM__TAG__c.html" target="_top" xlink:title="Twilight Insect Tag.">
<polygon fill="white" stroke="#666666" points="360.38,-241.25 271.62,-241.25 271.62,-222 360.38,-222 360.38,-241.25"/>
<text text-anchor="middle" x="316" y="-227.75" font-family="Helvetica,sans-Serif" font-size="10.00">daE_YM_TAG_c</text>
</a>
</g>
</g>
<!-- Node2&#45;&gt;Node109 -->
<g id="edge38_Node000002_Node000109" class="edge">
<title>Node2&#45;&gt;Node109</title>
<g id="a_edge38_Node000002_Node000109"><a xlink:title=" ">
<path fill="none" stroke="#63b8ff" d="M211.16,-774.72C213.45,-772.96 215.51,-770.94 217.25,-768.62 286.66,-676.17 180.72,-339.65 253.25,-249.62 257.94,-243.8 264.41,-239.79 271.4,-237.05"/>
<polygon fill="#63b8ff" stroke="#63b8ff" points="209.71,-771.51 202.79,-779.54 213.2,-777.58 209.71,-771.51"/>
</a>
</g>
</g>
<!-- Node110 -->
<g id="Node000110" class="node">
<title>Node110</title>
<g id="a_Node000110"><a xlink:href="classdaFireWood2__c.html" target="_top" xlink:title="Torch Stand.">
<polygon fill="white" stroke="#666666" points="357.75,-204.25 274.25,-204.25 274.25,-185 357.75,-185 357.75,-204.25"/>
<text text-anchor="middle" x="316" y="-190.75" font-family="Helvetica,sans-Serif" font-size="10.00">daFireWood2_c</text>
</a>
</g>
</g>
<!-- Node2&#45;&gt;Node110 -->
<g id="edge39_Node000002_Node000110" class="edge">
<title>Node2&#45;&gt;Node110</title>
<g id="a_edge39_Node000002_Node000110"><a xlink:title=" ">
<path fill="none" stroke="#63b8ff" d="M211.17,-774.72C213.45,-772.96 215.52,-770.94 217.25,-768.62 291.36,-669.44 175.79,-309.22 253.25,-212.62 258.49,-206.09 265.96,-201.84 273.9,-199.1"/>
<polygon fill="#63b8ff" stroke="#63b8ff" points="209.72,-771.52 202.81,-779.55 213.22,-777.58 209.72,-771.52"/>
</a>
</g>
</g>
<!-- Node111 -->
<g id="Node000111" class="node">
<title>Node111</title>
<g id="a_Node000111"><a xlink:href="classdaFireWood__c.html" target="_top" xlink:title="Kakariko Stove Flame?">
<polygon fill="white" stroke="#666666" points="355.12,-167.25 276.88,-167.25 276.88,-148 355.12,-148 355.12,-167.25"/>
<text text-anchor="middle" x="316" y="-153.75" font-family="Helvetica,sans-Serif" font-size="10.00">daFireWood_c</text>
</a>
</g>
</g>
<!-- Node2&#45;&gt;Node111 -->
<g id="edge40_Node000002_Node000111" class="edge">
<title>Node2&#45;&gt;Node111</title>
<g id="a_edge40_Node000002_Node000111"><a xlink:title=" ">
<path fill="none" stroke="#63b8ff" d="M211.18,-774.73C213.46,-772.97 215.52,-770.95 217.25,-768.62 296.06,-662.71 170.86,-278.79 253.25,-175.62 259.03,-168.38 267.56,-163.94 276.44,-161.25"/>
<polygon fill="#63b8ff" stroke="#63b8ff" points="209.73,-771.53 202.83,-779.56 213.23,-777.59 209.73,-771.53"/>
</a>
</g>
</g>
<!-- Node112 -->
<g id="Node000112" class="node">
<title>Node112</title>
<g id="a_Node000112"><a xlink:href="structdaFmtMng__c.html" target="_top" xlink:title=" ">
<polygon fill="white" stroke="#666666" points="352.5,-130.25 279.5,-130.25 279.5,-111 352.5,-111 352.5,-130.25"/>
<text text-anchor="middle" x="316" y="-116.75" font-family="Helvetica,sans-Serif" font-size="10.00">daFmtMng_c</text>
</a>
</g>
</g>
<!-- Node2&#45;&gt;Node112 -->
<g id="edge41_Node000002_Node000112" class="edge">
<title>Node2&#45;&gt;Node112</title>
<g id="a_edge41_Node000002_Node000112"><a xlink:title=" ">
<path fill="none" stroke="#63b8ff" d="M211.19,-774.74C213.47,-772.98 215.53,-770.95 217.25,-768.62 300.76,-655.97 165.94,-248.35 253.25,-138.62 259.65,-130.59 269.42,-126 279.32,-123.42"/>
<polygon fill="#63b8ff" stroke="#63b8ff" points="209.74,-771.53 202.84,-779.57 213.25,-777.59 209.74,-771.53"/>
</a>
</g>
</g>
<!-- Node113 -->
<g id="Node000113" class="node">
<title>Node113</title>
<g id="a_Node000113"><a xlink:href="classdaGlwSph__c.html" target="_top" xlink:title="STAR Game Glow Sphere.">
<polygon fill="white" stroke="#666666" points="351.75,-93.25 280.25,-93.25 280.25,-74 351.75,-74 351.75,-93.25"/>
<text text-anchor="middle" x="316" y="-79.75" font-family="Helvetica,sans-Serif" font-size="10.00">daGlwSph_c</text>
</a>
</g>
</g>
<!-- Node2&#45;&gt;Node113 -->
<g id="edge42_Node000002_Node000113" class="edge">
<title>Node2&#45;&gt;Node113</title>
<g id="a_edge42_Node000002_Node000113"><a xlink:title=" ">
<path fill="none" stroke="#63b8ff" d="M211.2,-774.75C213.48,-772.98 215.53,-770.95 217.25,-768.62 305.46,-649.24 161.01,-217.92 253.25,-101.62 259.77,-93.4 269.83,-88.79 279.95,-86.25"/>
<polygon fill="#63b8ff" stroke="#63b8ff" points="209.75,-771.54 202.85,-779.58 213.26,-777.6 209.75,-771.54"/>
</a>
</g>
</g>
<!-- Node114 -->
<g id="Node000114" class="node">
<title>Node114</title>
<g id="a_Node000114"><a xlink:href="classdaGoGate__c.html" target="_top" xlink:title="Goron Gate.">
<polygon fill="white" stroke="#666666" points="351.38,-56.25 280.62,-56.25 280.62,-37 351.38,-37 351.38,-56.25"/>
<text text-anchor="middle" x="316" y="-42.75" font-family="Helvetica,sans-Serif" font-size="10.00">daGoGate_c</text>
</a>
</g>
</g>
<!-- Node2&#45;&gt;Node114 -->
<g id="edge43_Node000002_Node000114" class="edge">
<title>Node2&#45;&gt;Node114</title>
<g id="a_edge43_Node000002_Node000114"><a xlink:title=" ">
<path fill="none" stroke="#63b8ff" d="M211.21,-774.75C213.48,-772.98 215.53,-770.96 217.25,-768.62 310.16,-642.5 156.08,-187.49 253.25,-64.62 259.83,-56.3 270.03,-51.68 280.26,-49.16"/>
<polygon fill="#63b8ff" stroke="#63b8ff" points="209.76,-771.54 202.86,-779.59 213.27,-777.6 209.76,-771.54"/>
</a>
</g>
</g>
<!-- Node115 -->
<g id="Node000115" class="node">
<title>Node115</title>
<g id="a_Node000115"><a xlink:href="classdaGpTaru__c.html" target="_top" xlink:title="Gunpowder Barrel.">
<polygon fill="white" stroke="#666666" points="350.62,-19.25 281.38,-19.25 281.38,0 350.62,0 350.62,-19.25"/>
<text text-anchor="middle" x="316" y="-5.75" font-family="Helvetica,sans-Serif" font-size="10.00">daGpTaru_c</text>
</a>
</g>
</g>
<!-- Node2&#45;&gt;Node115 -->
<g id="edge44_Node000002_Node000115" class="edge">
<title>Node2&#45;&gt;Node115</title>
<g id="a_edge44_Node000002_Node000115"><a xlink:title=" ">
<path fill="none" stroke="#63b8ff" d="M211.21,-774.76C213.49,-772.99 215.54,-770.96 217.25,-768.62 314.86,-635.77 151.15,-157.07 253.25,-27.62 259.96,-19.12 270.45,-14.48 280.89,-11.99"/>
<polygon fill="#63b8ff" stroke="#63b8ff" points="209.77,-771.55 202.87,-779.59 213.28,-777.6 209.77,-771.55"/>
</a>
</g>
</g>
</g>
</svg>

<g id="navigator" transform="translate(0 0)" fill="#404254">
  <rect fill="#f2f5e9" fill-opacity="0.5" stroke="#606060" stroke-width=".5" x="0" y="0" width="60" height="60"/>
  <use id="zoomplus" xlink:href="#zoomPlus" x="17" y="9" onmousedown="handleZoom(evt,'in')"/>
  <use id="zoomminus" xlink:href="#zoomMin" x="42" y="9" onmousedown="handleZoom(evt,'out')"/>
  <use id="reset" xlink:href="#resetDef" x="30" y="36" onmousedown="handleReset()"/>
   <use id="arrowup" xlink:href="#arrowUp" x="0" y="0" onmousedown="handlePan(0,-1)"/>
  <use id="arrowright" xlink:href="#arrowRight" x="0" y="0" onmousedown="handlePan(1,0)"/>
  <use id="arrowdown" xlink:href="#arrowDown" x="0" y="0" onmousedown="handlePan(0,1)"/>
  <use id="arrowleft" xlink:href="#arrowLeft" x="0" y="0" onmousedown="handlePan(-1,0)"/>
</g>
<svg viewBox="0 0 15 15" width="100%" height="30px" preserveAspectRatio="xMaxYMin meet">
 <g id="arrow_out" transform="scale(0.3 0.3)">
  <a xlink:href="structleafdraw__class__inherit__graph_org.svg" target="_base">
   <rect id="button" ry="5" rx="5" y="6" x="6" height="38" width="38"
        fill="#f2f5e9" fill-opacity="0.5" stroke="#606060" stroke-width="1.0"/>
   <path id="arrow"
     d="M 11.500037,31.436501 C 11.940474,20.09759 22.043105,11.32322 32.158766,21.979434 L 37.068811,17.246167 C 37.068811,17.246167 37.088388,32 37.088388,32 L 22.160133,31.978069 C 22.160133,31.978069 26.997745,27.140456 26.997745,27.140456 C 18.528582,18.264221 13.291696,25.230495 11.500037,31.436501 z"
     style="fill:#404040;"/>
  </a>
 </g>
</svg>

<style type='text/css'>
<![CDATA[
[data-mouse-over-selected='false'] { opacity: 0.7; }
[data-mouse-over-selected='true']  { opacity: 1.0; }
]]>
</style>
<script type="application/ecmascript"><![CDATA[
document.addEventListener('DOMContentLoaded', (event) => {
  highlightEdges();
  highlightAdjacentNodes();
});
]]></script>
</svg>
