<?xml version="1.0" encoding="UTF-8" standalone="no"?>
<!DOCTYPE svg PUBLIC "-//W3C//DTD SVG 1.1//EN"
 "http://www.w3.org/Graphics/SVG/1.1/DTD/svg11.dtd">
<!-- Generated by graphviz version 9.0.0 (20230911.1827)
 -->
<!-- Title: mDoExt_MtxCalcOldFrame Pages: 1 -->
<svg width="264pt" height="172pt"
 viewBox="0.00 0.00 264.12 171.50" xmlns="http://www.w3.org/2000/svg" xmlns:xlink="http://www.w3.org/1999/xlink">
<g id="graph0" class="graph" transform="scale(1 1) rotate(0) translate(4 167.5)">
<title>mDoExt_MtxCalcOldFrame</title>
<!-- Node1 -->
<g id="Node000001" class="node">
<title>Node1</title>
<g id="a_Node000001"><a xlink:title=" ">
<polygon fill="#999999" stroke="#666666" points="178.12,-19.25 45.12,-19.25 45.12,0 178.12,0 178.12,-19.25"/>
<text text-anchor="middle" x="111.62" y="-5.75" font-family="Helvetica,sans-Serif" font-size="10.00">mDoExt_MtxCalcOldFrame</text>
</a>
</g>
</g>
<!-- Node2 -->
<g id="Node000002" class="node">
<title>Node2</title>
<g id="a_Node000002"><a xlink:href="structJ3DTransformInfo.html" target="_top" xlink:title=" ">
<polygon fill="white" stroke="#666666" points="99.62,-85.75 5.62,-85.75 5.62,-66.5 99.62,-66.5 99.62,-85.75"/>
<text text-anchor="middle" x="52.62" y="-72.25" font-family="Helvetica,sans-Serif" font-size="10.00">J3DTransformInfo</text>
</a>
</g>
</g>
<!-- Node2&#45;&gt;Node1 -->
<g id="edge1_Node000001_Node000002" class="edge">
<title>Node2&#45;&gt;Node1</title>
<g id="a_edge1_Node000001_Node000002"><a xlink:title=" ">
<path fill="none" stroke="#9a32cd" stroke-dasharray="5,2" d="M49.54,-55.21C49.55,-49.02 50.65,-42.45 54.12,-37.25 59.44,-29.29 67.78,-23.66 76.48,-19.71"/>
<polygon fill="#9a32cd" stroke="#9a32cd" points="46.01,-55.06 50.39,-64.7 52.99,-54.43 46.01,-55.06"/>
</a>
</g>
<text text-anchor="middle" x="101.88" y="-39" font-family="Helvetica,sans-Serif" font-size="10.00" fill="grey"> mOldFrameTransInfo</text>
</g>
<!-- Node3 -->
<g id="Node000003" class="node">
<title>Node3</title>
<g id="a_Node000003"><a xlink:href="structVec.html" target="_top" xlink:title=" ">
<polygon fill="white" stroke="#666666" points="33.25,-163.5 0,-163.5 0,-144.25 33.25,-144.25 33.25,-163.5"/>
<text text-anchor="middle" x="16.62" y="-150" font-family="Helvetica,sans-Serif" font-size="10.00">Vec</text>
</a>
</g>
</g>
<!-- Node3&#45;&gt;Node2 -->
<g id="edge2_Node000002_Node000003" class="edge">
<title>Node3&#45;&gt;Node2</title>
<g id="a_edge2_Node000002_Node000003"><a xlink:title=" ">
<path fill="none" stroke="#9a32cd" stroke-dasharray="5,2" d="M13.3,-132.66C12.71,-123.39 13.4,-112.53 17.88,-103.75 21.6,-96.44 28.37,-90.55 34.95,-86.2"/>
<polygon fill="#9a32cd" stroke="#9a32cd" points="9.81,-132.97 14.48,-142.48 16.76,-132.13 9.81,-132.97"/>
</a>
</g>
<text text-anchor="middle" x="43" y="-116.75" font-family="Helvetica,sans-Serif" font-size="10.00" fill="grey"> mScale</text>
<text text-anchor="middle" x="43" y="-105.5" font-family="Helvetica,sans-Serif" font-size="10.00" fill="grey">mTranslate</text>
</g>
<!-- Node4 -->
<g id="Node000004" class="node">
<title>Node4</title>
<g id="a_Node000004"><a xlink:href="structSVec.html" target="_top" xlink:title=" ">
<polygon fill="white" stroke="#666666" points="108.62,-163.5 68.62,-163.5 68.62,-144.25 108.62,-144.25 108.62,-163.5"/>
<text text-anchor="middle" x="88.62" y="-150" font-family="Helvetica,sans-Serif" font-size="10.00">SVec</text>
</a>
</g>
</g>
<!-- Node4&#45;&gt;Node2 -->
<g id="edge3_Node000002_Node000004" class="edge">
<title>Node4&#45;&gt;Node2</title>
<g id="a_edge3_Node000002_Node000004"><a xlink:title=" ">
<path fill="none" stroke="#9a32cd" stroke-dasharray="5,2" d="M80.41,-133.78C76.39,-124.64 71.39,-113.56 66.62,-103.75 63.7,-97.74 60.2,-91.08 57.43,-85.93"/>
<polygon fill="#9a32cd" stroke="#9a32cd" points="77.09,-134.94 84.29,-142.71 83.51,-132.15 77.09,-134.94"/>
</a>
</g>
<text text-anchor="middle" x="98.88" y="-111.12" font-family="Helvetica,sans-Serif" font-size="10.00" fill="grey"> mRotation</text>
</g>
<!-- Node5 -->
<g id="Node000005" class="node">
<title>Node5</title>
<g id="a_Node000005"><a xlink:href="structQuaternion.html" target="_top" xlink:title=" ">
<polygon fill="white" stroke="#666666" points="202.25,-85.75 139,-85.75 139,-66.5 202.25,-66.5 202.25,-85.75"/>
<text text-anchor="middle" x="170.62" y="-72.25" font-family="Helvetica,sans-Serif" font-size="10.00">Quaternion</text>
</a>
</g>
</g>
<!-- Node5&#45;&gt;Node1 -->
<g id="edge4_Node000001_Node000005" class="edge">
<title>Node5&#45;&gt;Node1</title>
<g id="a_edge4_Node000001_Node000005"><a xlink:title=" ">
<path fill="none" stroke="#9a32cd" stroke-dasharray="5,2" d="M161.62,-56.09C158.09,-49.71 153.66,-42.81 148.62,-37.25 142.46,-30.45 134.28,-24.35 127.19,-19.7"/>
<polygon fill="#9a32cd" stroke="#9a32cd" points="158.33,-57.34 165.99,-64.66 164.57,-54.16 158.33,-57.34"/>
</a>
</g>
<text text-anchor="middle" x="205.88" y="-39" font-family="Helvetica,sans-Serif" font-size="10.00" fill="grey"> mOldFrameQuaternion</text>
</g>
</g>
</svg>
