<?xml version="1.0" encoding="UTF-8" standalone="no"?>
<!DOCTYPE svg PUBLIC "-//W3C//DTD SVG 1.1//EN"
 "http://www.w3.org/Graphics/SVG/1.1/DTD/svg11.dtd">
<!-- Generated by graphviz version 9.0.0 (20230911.1827)
 -->
<!-- Title: CallbackArgs Pages: 1 -->
<!--zoomable 554 -->

<svg id="main" version="1.1" xmlns="http://www.w3.org/2000/svg" xmlns:xlink="http://www.w3.org/1999/xlink" xml:space="preserve" onload="init(evt)">
<style type="text/css"><![CDATA[
.node, .edge {opacity: 0.7;}
.node.selected, .edge.selected {opacity: 1;}
.edge:hover path { stroke: red; }
.edge:hover polygon { stroke: red; fill: red; }
]]></style>

<defs>
  <circle id="rim" cx="0" cy="0" r="7"/>
  <circle id="rim2" cx="0" cy="0" r="3.5"/>
  <g id="zoomPlus">
    <use xlink:href="#rim" fill="#404040"><set attributeName="fill" to="#808080" begin="zoomplus.mouseover" end="zoomplus.mouseout"/></use>
    <path d="M-4,0h8M0,-4v8" fill="none" stroke="white" stroke-width="1.5" pointer-events="none"/>
  </g>
  <g id="zoomMin">
    <use xlink:href="#rim" fill="#404040"><set attributeName="fill" to="#808080" begin="zoomminus.mouseover" end="zoomminus.mouseout"/></use>
    <path d="M-4,0h8" fill="none" stroke="white" stroke-width="1.5" pointer-events="none"/>
  </g>
  <g id="arrowUp" transform="translate(30 24)">
    <use xlink:href="#rim"/>
    <path pointer-events="none" fill="none" stroke="white" stroke-width="1.5" d="M0,-3.0v7 M-2.5,-0.5L0,-3.0L2.5,-0.5"/>
  </g>
  <g id="arrowRight" transform="rotate(90) translate(36 -43)">
    <use xlink:href="#rim"/>
    <path pointer-events="none" fill="none" stroke="white" stroke-width="1.5" d="M0,-3.0v7 M-2.5,-0.5L0,-3.0L2.5,-0.5"/>
  </g>
  <g id="arrowDown" transform="rotate(180) translate(-30 -48)">
    <use xlink:href="#rim"/>
    <path pointer-events="none" fill="none" stroke="white" stroke-width="1.5" d="M0,-3.0v7 M-2.5,-0.5L0,-3.0L2.5,-0.5"/>
  </g>
  <g id="arrowLeft" transform="rotate(270) translate(-36 17)">
    <use xlink:href="#rim"/>
    <path pointer-events="none" fill="none" stroke="white" stroke-width="1.5" d="M0,-3.0v7 M-2.5,-0.5L0,-3.0L2.5,-0.5"/>
  </g>
  <g id="resetDef">
    <use xlink:href="#rim2" fill="#404040"><set attributeName="fill" to="#808080" begin="reset.mouseover" end="reset.mouseout"/></use>
  </g>
</defs>
<script type="application/ecmascript">
var viewWidth = 1393;
var viewHeight = 554;
var sectionId = 'dynsection-0';
</script>
<script type="application/ecmascript" xlink:href="svg.min.js"/>
<svg id="graph" class="graph">
<g id="viewport">
<title>CallbackArgs</title>
<!-- Node1 -->
<g id="Node000001" class="node">
<title>Node1</title>
<g id="a_Node000001"><a xlink:title=" ">
<polygon fill="#999999" stroke="#666666" points="1384.5,-317.73 1310.75,-317.73 1310.75,-298.48 1384.5,-298.48 1384.5,-317.73"/>
<text text-anchor="middle" x="1347.62" y="-304.23" font-family="Helvetica,sans-Serif" font-size="10.00">CallbackArgs</text>
</a>
</g>
</g>
<!-- Node2 -->
<g id="Node000002" class="node">
<title>Node2</title>
<g id="a_Node000002"><a xlink:href="classJKRArchive.html" target="_top" xlink:title=" ">
<polygon fill="white" stroke="#666666" points="1215.88,-359.73 1148.12,-359.73 1148.12,-340.48 1215.88,-340.48 1215.88,-359.73"/>
<text text-anchor="middle" x="1182" y="-346.23" font-family="Helvetica,sans-Serif" font-size="10.00">JKRArchive</text>
</a>
</g>
</g>
<!-- Node2&#45;&gt;Node1 -->
<g id="edge1_Node000001_Node000002" class="edge">
<title>Node2&#45;&gt;Node1</title>
<g id="a_edge1_Node000001_Node000002"><a xlink:title=" ">
<path fill="none" stroke="#9a32cd" stroke-dasharray="5,2" d="M1227.22,-338.76C1253.3,-332.06 1285.89,-323.7 1310.44,-317.4"/>
<polygon fill="#9a32cd" stroke="#9a32cd" points="1226.39,-335.35 1217.58,-341.23 1228.13,-342.13 1226.39,-335.35"/>
</a>
</g>
<text text-anchor="middle" x="1271" y="-334.86" font-family="Helvetica,sans-Serif" font-size="10.00" fill="grey"> mArchive</text>
</g>
<!-- Node3 -->
<g id="Node000003" class="node">
<title>Node3</title>
<g id="a_Node000003"><a xlink:href="classJKRFileLoader.html" target="_top" xlink:title=" ">
<polygon fill="white" stroke="#666666" points="1001.12,-478.73 920.62,-478.73 920.62,-459.48 1001.12,-459.48 1001.12,-478.73"/>
<text text-anchor="middle" x="960.88" y="-465.23" font-family="Helvetica,sans-Serif" font-size="10.00">JKRFileLoader</text>
</a>
</g>
</g>
<!-- Node3&#45;&gt;Node2 -->
<g id="edge2_Node000002_Node000003" class="edge">
<title>Node3&#45;&gt;Node2</title>
<g id="a_edge2_Node000002_Node000003"><a xlink:title=" ">
<path fill="none" stroke="#63b8ff" d="M1012.29,-455.86C1016.31,-454.4 1020.25,-452.81 1024,-451.11 1081.53,-424.94 1142.51,-380.04 1168.3,-360.12"/>
<polygon fill="#63b8ff" stroke="#63b8ff" points="1011.4,-452.47 1003.04,-458.98 1013.63,-459.1 1011.4,-452.47"/>
</a>
</g>
</g>
<!-- Node3&#45;&gt;Node3 -->
<g id="edge34_Node000003_Node000003" class="edge">
<title>Node3&#45;&gt;Node3</title>
<g id="a_edge34_Node000003_Node000003"><a xlink:title=" ">
<path fill="none" stroke="#9a32cd" stroke-dasharray="5,2" d="M940.02,-490.13C942.63,-494.01 949.58,-496.73 960.88,-496.73 981.53,-496.73 987.66,-487.63 979.27,-479.02"/>
<polygon fill="#9a32cd" stroke="#9a32cd" points="943.41,-491.02 942.15,-480.5 936.57,-489.5 943.41,-491.02"/>
</a>
</g>
<text text-anchor="middle" x="960.88" y="-498.48" font-family="Helvetica,sans-Serif" font-size="10.00" fill="grey"> sCurrentVolume</text>
</g>
<!-- Node4 -->
<g id="Node000004" class="node">
<title>Node4</title>
<g id="a_Node000004"><a xlink:href="classJKRDisposer.html" target="_top" xlink:title=" ">
<polygon fill="white" stroke="#666666" points="755.25,-438.73 682.25,-438.73 682.25,-419.48 755.25,-419.48 755.25,-438.73"/>
<text text-anchor="middle" x="718.75" y="-425.23" font-family="Helvetica,sans-Serif" font-size="10.00">JKRDisposer</text>
</a>
</g>
</g>
<!-- Node4&#45;&gt;Node3 -->
<g id="edge3_Node000003_Node000004" class="edge">
<title>Node4&#45;&gt;Node3</title>
<g id="a_edge3_Node000003_Node000004"><a xlink:title=" ">
<path fill="none" stroke="#63b8ff" d="M766.88,-436.96C811.72,-444.43 878.4,-455.53 920.48,-462.54"/>
<polygon fill="#63b8ff" stroke="#63b8ff" points="767.63,-433.53 757.19,-435.34 766.48,-440.44 767.63,-433.53"/>
</a>
</g>
</g>
<!-- Node5 -->
<g id="Node000005" class="node">
<title>Node5</title>
<g id="a_Node000005"><a xlink:href="structJKRHeap.html" target="_top" xlink:title=" ">
<polygon fill="white" stroke="#666666" points="989.88,-378.73 931.88,-378.73 931.88,-359.48 989.88,-359.48 989.88,-378.73"/>
<text text-anchor="middle" x="960.88" y="-365.23" font-family="Helvetica,sans-Serif" font-size="10.00">JKRHeap</text>
</a>
</g>
</g>
<!-- Node4&#45;&gt;Node5 -->
<g id="edge5_Node000005_Node000004" class="edge">
<title>Node4&#45;&gt;Node5</title>
<g id="a_edge5_Node000005_Node000004"><a xlink:title=" ">
<path fill="none" stroke="#63b8ff" d="M764.67,-415.95C774.17,-413.27 784.15,-410.53 793.5,-408.11 841.74,-395.59 898.32,-382.71 931.51,-375.33"/>
<polygon fill="#63b8ff" stroke="#63b8ff" points="763.92,-412.52 755.26,-418.63 765.84,-419.26 763.92,-412.52"/>
</a>
</g>
</g>
<!-- Node5&#45;&gt;Node2 -->
<g id="edge37_Node000002_Node000005" class="edge">
<title>Node5&#45;&gt;Node2</title>
<g id="a_edge37_Node000002_Node000005"><a xlink:title=" ">
<path fill="none" stroke="#9a32cd" stroke-dasharray="5,2" d="M1001.48,-365.67C1043.36,-362.04 1108.67,-356.38 1147.9,-352.98"/>
<polygon fill="#9a32cd" stroke="#9a32cd" points="1001.24,-362.18 991.58,-366.53 1001.85,-369.15 1001.24,-362.18"/>
</a>
</g>
<text text-anchor="middle" x="1078.38" y="-363.86" font-family="Helvetica,sans-Serif" font-size="10.00" fill="grey"> mHeap</text>
</g>
<!-- Node5&#45;&gt;Node4 -->
<g id="edge4_Node000004_Node000005" class="edge">
<title>Node5&#45;&gt;Node4</title>
<g id="a_edge4_Node000004_Node000005"><a xlink:title=" ">
<path fill="none" stroke="#9a32cd" stroke-dasharray="5,2" d="M931.19,-384.3C916.23,-391.62 897.41,-399.92 879.75,-405.11 838.11,-417.33 788.45,-423.54 755.62,-426.54"/>
<polygon fill="#9a32cd" stroke="#9a32cd" points="932.62,-387.5 939.98,-379.88 929.47,-381.25 932.62,-387.5"/>
</a>
</g>
<text text-anchor="middle" x="836.62" y="-423.86" font-family="Helvetica,sans-Serif" font-size="10.00" fill="grey"> mHeap</text>
</g>
<!-- Node5&#45;&gt;Node5 -->
<g id="edge29_Node000005_Node000005" class="edge">
<title>Node5&#45;&gt;Node5</title>
<g id="a_edge29_Node000005_Node000005"><a xlink:title=" ">
<path fill="none" stroke="#9a32cd" stroke-dasharray="5,2" d="M940.02,-390.13C942.63,-394.01 949.58,-396.73 960.88,-396.73 981.53,-396.73 987.66,-387.63 979.27,-379.02"/>
<polygon fill="#9a32cd" stroke="#9a32cd" points="943.41,-391.02 942.15,-380.5 936.57,-389.5 943.41,-391.02"/>
</a>
</g>
<text text-anchor="middle" x="960.88" y="-432.23" font-family="Helvetica,sans-Serif" font-size="10.00" fill="grey"> sCurrentHeap</text>
<text text-anchor="middle" x="960.88" y="-420.98" font-family="Helvetica,sans-Serif" font-size="10.00" fill="grey">sRootHeap</text>
<text text-anchor="middle" x="960.88" y="-409.73" font-family="Helvetica,sans-Serif" font-size="10.00" fill="grey">sRootHeap2</text>
<text text-anchor="middle" x="960.88" y="-398.48" font-family="Helvetica,sans-Serif" font-size="10.00" fill="grey">sSystemHeap</text>
</g>
<!-- Node6 -->
<g id="Node000006" class="node">
<title>Node6</title>
<g id="a_Node000006"><a xlink:href="structOSMutex.html" target="_top" xlink:title=" ">
<polygon fill="white" stroke="#666666" points="196.25,-179.73 139.75,-179.73 139.75,-160.48 196.25,-160.48 196.25,-179.73"/>
<text text-anchor="middle" x="168" y="-166.23" font-family="Helvetica,sans-Serif" font-size="10.00">OSMutex</text>
</a>
</g>
</g>
<!-- Node6&#45;&gt;Node5 -->
<g id="edge6_Node000005_Node000006" class="edge">
<title>Node6&#45;&gt;Node5</title>
<g id="a_edge6_Node000005_Node000006"><a xlink:title=" ">
<path fill="none" stroke="#9a32cd" stroke-dasharray="5,2" d="M176.94,-190.54C184.9,-208.1 198.96,-232.54 219.5,-245.11 431.81,-375 529.06,-277.18 775.5,-312.11 821.98,-318.69 839.09,-305.64 879.75,-329.11 890.69,-335.42 887.21,-344.15 897.75,-351.11 907.78,-357.73 920.28,-361.96 931.43,-364.64"/>
<polygon fill="#9a32cd" stroke="#9a32cd" points="180.27,-189.43 173.16,-181.57 173.82,-192.14 180.27,-189.43"/>
</a>
</g>
<text text-anchor="middle" x="576.38" y="-314.86" font-family="Helvetica,sans-Serif" font-size="10.00" fill="grey"> mMutex</text>
</g>
<!-- Node8 -->
<g id="Node000008" class="node">
<title>Node8</title>
<g id="a_Node000008"><a xlink:href="structOSThread.html" target="_top" xlink:title=" ">
<polygon fill="white" stroke="#666666" points="748.88,-160.73 688.62,-160.73 688.62,-141.48 748.88,-141.48 748.88,-160.73"/>
<text text-anchor="middle" x="718.75" y="-147.23" font-family="Helvetica,sans-Serif" font-size="10.00">OSThread</text>
</a>
</g>
</g>
<!-- Node6&#45;&gt;Node8 -->
<g id="edge13_Node000008_Node000006" class="edge">
<title>Node6&#45;&gt;Node8</title>
<g id="a_edge13_Node000008_Node000006"><a xlink:title=" ">
<path fill="none" stroke="#9a32cd" stroke-dasharray="5,2" d="M200.82,-155.37C238.56,-138.77 303.81,-112.82 363,-102.86 486.61,-82.04 522.12,-97.82 644,-127.11 659.58,-130.85 676.61,-136.3 690.38,-141.06"/>
<polygon fill="#9a32cd" stroke="#9a32cd" points="199.57,-152.09 191.87,-159.37 202.42,-158.48 199.57,-152.09"/>
</a>
</g>
<text text-anchor="middle" x="426.88" y="-104.86" font-family="Helvetica,sans-Serif" font-size="10.00" fill="grey"> mutex</text>
</g>
<!-- Node11 -->
<g id="Node000011" class="node">
<title>Node11</title>
<g id="a_Node000011"><a xlink:href="structOSMutexQueue.html" target="_top" xlink:title=" ">
<polygon fill="white" stroke="#666666" points="469.38,-179.73 384.38,-179.73 384.38,-160.48 469.38,-160.48 469.38,-179.73"/>
<text text-anchor="middle" x="426.88" y="-166.23" font-family="Helvetica,sans-Serif" font-size="10.00">OSMutexQueue</text>
</a>
</g>
</g>
<!-- Node6&#45;&gt;Node11 -->
<g id="edge15_Node000011_Node000006" class="edge">
<title>Node6&#45;&gt;Node11</title>
<g id="a_edge15_Node000011_Node000006"><a xlink:title=" ">
<path fill="none" stroke="#9a32cd" stroke-dasharray="5,2" d="M207.83,-170.11C255.33,-170.11 335.45,-170.11 384.21,-170.11"/>
<polygon fill="#9a32cd" stroke="#9a32cd" points="208,-166.61 198,-170.11 208,-173.61 208,-166.61"/>
</a>
</g>
<text text-anchor="middle" x="282.25" y="-183.11" font-family="Helvetica,sans-Serif" font-size="10.00" fill="grey"> head</text>
<text text-anchor="middle" x="282.25" y="-171.86" font-family="Helvetica,sans-Serif" font-size="10.00" fill="grey">tail</text>
</g>
<!-- Node12 -->
<g id="Node000012" class="node">
<title>Node12</title>
<g id="a_Node000012"><a xlink:href="structOSMutexLink.html" target="_top" xlink:title=" ">
<polygon fill="white" stroke="#666666" points="464.5,-44.73 389.25,-44.73 389.25,-25.48 464.5,-25.48 464.5,-44.73"/>
<text text-anchor="middle" x="426.88" y="-31.23" font-family="Helvetica,sans-Serif" font-size="10.00">OSMutexLink</text>
</a>
</g>
</g>
<!-- Node6&#45;&gt;Node12 -->
<g id="edge18_Node000012_Node000006" class="edge">
<title>Node6&#45;&gt;Node12</title>
<g id="a_edge18_Node000012_Node000006"><a xlink:title=" ">
<path fill="none" stroke="#9a32cd" stroke-dasharray="5,2" d="M168.99,-148.98C170.26,-115.3 178.25,-50.21 219.5,-20.61 275.23,19.39 362.68,-8.36 403.5,-25.04"/>
<polygon fill="#9a32cd" stroke="#9a32cd" points="165.5,-148.64 168.81,-158.7 172.5,-148.77 165.5,-148.64"/>
</a>
</g>
<text text-anchor="middle" x="282.25" y="-34.11" font-family="Helvetica,sans-Serif" font-size="10.00" fill="grey"> next</text>
<text text-anchor="middle" x="282.25" y="-22.86" font-family="Helvetica,sans-Serif" font-size="10.00" fill="grey">prev</text>
</g>
<!-- Node7 -->
<g id="Node000007" class="node">
<title>Node7</title>
<g id="a_Node000007"><a xlink:href="structOSThreadQueue.html" target="_top" xlink:title=" ">
<polygon fill="white" stroke="#666666" points="1005.25,-234.73 916.5,-234.73 916.5,-215.48 1005.25,-215.48 1005.25,-234.73"/>
<text text-anchor="middle" x="960.88" y="-221.23" font-family="Helvetica,sans-Serif" font-size="10.00">OSThreadQueue</text>
</a>
</g>
</g>
<!-- Node7&#45;&gt;Node6 -->
<g id="edge7_Node000006_Node000007" class="edge">
<title>Node7&#45;&gt;Node6</title>
<g id="a_edge7_Node000006_Node000007"><a xlink:title=" ">
<path fill="none" stroke="#9a32cd" stroke-dasharray="5,2" d="M906,-237.37C897.27,-238.92 888.29,-240.26 879.75,-241.11 841.6,-244.88 831.83,-241.28 793.5,-241.11 602.16,-240.22 554.03,-247.95 363,-237.11 298.98,-233.47 277.18,-250.12 219.5,-222.11 200.03,-212.65 183.93,-192.43 175.45,-180.17"/>
<polygon fill="#9a32cd" stroke="#9a32cd" points="906.62,-240.82 915.79,-235.51 905.31,-233.94 906.62,-240.82"/>
</a>
</g>
<text text-anchor="middle" x="576.38" y="-244.86" font-family="Helvetica,sans-Serif" font-size="10.00" fill="grey"> queue</text>
</g>
<!-- Node7&#45;&gt;Node8 -->
<g id="edge10_Node000008_Node000007" class="edge">
<title>Node7&#45;&gt;Node8</title>
<g id="a_edge10_Node000008_Node000007"><a xlink:title=" ">
<path fill="none" stroke="#9a32cd" stroke-dasharray="5,2" d="M941,-207.58C925.71,-194.48 902.95,-177.38 879.75,-168.61 836.36,-152.2 781.97,-149.71 749.08,-149.99"/>
<polygon fill="#9a32cd" stroke="#9a32cd" points="938.56,-210.09 948.37,-214.1 943.2,-204.85 938.56,-210.09"/>
</a>
</g>
<text text-anchor="middle" x="836.62" y="-182.11" font-family="Helvetica,sans-Serif" font-size="10.00" fill="grey"> join_queue</text>
<text text-anchor="middle" x="836.62" y="-170.86" font-family="Helvetica,sans-Serif" font-size="10.00" fill="grey">queue</text>
</g>
<!-- Node25 -->
<g id="Node000025" class="node">
<title>Node25</title>
<g id="a_Node000025"><a xlink:href="structOSMessageQueue.html" target="_top" xlink:title=" ">
<polygon fill="white" stroke="#666666" points="1231.25,-291.73 1132.75,-291.73 1132.75,-272.48 1231.25,-272.48 1231.25,-291.73"/>
<text text-anchor="middle" x="1182" y="-278.23" font-family="Helvetica,sans-Serif" font-size="10.00">OSMessageQueue</text>
</a>
</g>
</g>
<!-- Node7&#45;&gt;Node25 -->
<g id="edge42_Node000025_Node000007" class="edge">
<title>Node7&#45;&gt;Node25</title>
<g id="a_edge42_Node000025_Node000007"><a xlink:title=" ">
<path fill="none" stroke="#9a32cd" stroke-dasharray="5,2" d="M1011.81,-238.1C1051.47,-248.41 1106.1,-262.62 1142.44,-272.08"/>
<polygon fill="#9a32cd" stroke="#9a32cd" points="1012.82,-234.74 1002.26,-235.61 1011.06,-241.52 1012.82,-234.74"/>
</a>
</g>
<text text-anchor="middle" x="1078.38" y="-277.11" font-family="Helvetica,sans-Serif" font-size="10.00" fill="grey"> receiving_queue</text>
<text text-anchor="middle" x="1078.38" y="-265.86" font-family="Helvetica,sans-Serif" font-size="10.00" fill="grey">sending_queue</text>
</g>
<!-- Node8&#45;&gt;Node6 -->
<g id="edge16_Node000006_Node000008" class="edge">
<title>Node8&#45;&gt;Node6</title>
<g id="a_edge16_Node000006_Node000008"><a xlink:title=" ">
<path fill="none" stroke="#9a32cd" stroke-dasharray="5,2" d="M687.07,-165.68C674.07,-171.19 658.59,-176.89 644,-180.11 459.61,-220.69 402.99,-240.57 219.5,-196.11 206.66,-192.99 193.42,-186.02 183.73,-180.07"/>
<polygon fill="#9a32cd" stroke="#9a32cd" points="688.2,-169.01 695.94,-161.78 685.37,-162.61 688.2,-169.01"/>
</a>
</g>
<text text-anchor="middle" x="426.88" y="-223.86" font-family="Helvetica,sans-Serif" font-size="10.00" fill="grey"> thread</text>
</g>
<!-- Node8&#45;&gt;Node7 -->
<g id="edge8_Node000007_Node000008" class="edge">
<title>Node8&#45;&gt;Node7</title>
<g id="a_edge8_Node000007_Node000008"><a xlink:title=" ">
<path fill="none" stroke="#9a32cd" stroke-dasharray="5,2" d="M742.45,-167.57C756.51,-177.01 775.3,-188.29 793.5,-195.11 833.63,-210.13 882.1,-217.77 916.35,-221.57"/>
<polygon fill="#9a32cd" stroke="#9a32cd" points="744.59,-164.8 734.37,-161.98 740.6,-170.55 744.59,-164.8"/>
</a>
</g>
<text text-anchor="middle" x="836.62" y="-230.11" font-family="Helvetica,sans-Serif" font-size="10.00" fill="grey"> head</text>
<text text-anchor="middle" x="836.62" y="-218.86" font-family="Helvetica,sans-Serif" font-size="10.00" fill="grey">tail</text>
</g>
<!-- Node10 -->
<g id="Node000010" class="node">
<title>Node10</title>
<g id="a_Node000010"><a xlink:href="structOSThreadLink.html" target="_top" xlink:title=" ">
<polygon fill="white" stroke="#666666" points="1000.38,-111.73 921.38,-111.73 921.38,-92.48 1000.38,-92.48 1000.38,-111.73"/>
<text text-anchor="middle" x="960.88" y="-98.23" font-family="Helvetica,sans-Serif" font-size="10.00">OSThreadLink</text>
</a>
</g>
</g>
<!-- Node8&#45;&gt;Node10 -->
<g id="edge12_Node000010_Node000008" class="edge">
<title>Node8&#45;&gt;Node10</title>
<g id="a_edge12_Node000010_Node000008"><a xlink:title=" ">
<path fill="none" stroke="#9a32cd" stroke-dasharray="5,2" d="M733.79,-132.32C747.12,-116.21 768.75,-94.12 793.5,-84.61 840.27,-66.63 899.55,-80.83 933.25,-92"/>
<polygon fill="#9a32cd" stroke="#9a32cd" points="731.34,-129.78 727.88,-139.8 736.83,-134.12 731.34,-129.78"/>
</a>
</g>
<text text-anchor="middle" x="836.62" y="-98.11" font-family="Helvetica,sans-Serif" font-size="10.00" fill="grey"> next</text>
<text text-anchor="middle" x="836.62" y="-86.86" font-family="Helvetica,sans-Serif" font-size="10.00" fill="grey">prev</text>
</g>
<!-- Node9 -->
<g id="Node000009" class="node">
<title>Node9</title>
<g id="a_Node000009"><a xlink:href="structOSContext.html" target="_top" xlink:title=" ">
<polygon fill="white" stroke="#666666" points="458.5,-142.73 395.25,-142.73 395.25,-123.48 458.5,-123.48 458.5,-142.73"/>
<text text-anchor="middle" x="426.88" y="-129.23" font-family="Helvetica,sans-Serif" font-size="10.00">OSContext</text>
</a>
</g>
</g>
<!-- Node9&#45;&gt;Node8 -->
<g id="edge9_Node000008_Node000009" class="edge">
<title>Node9&#45;&gt;Node8</title>
<g id="a_edge9_Node000008_Node000009"><a xlink:title=" ">
<path fill="none" stroke="#9a32cd" stroke-dasharray="5,2" d="M470.08,-131.27C513.75,-129.92 583.86,-129.32 644,-135.86 658.69,-137.45 674.78,-140.61 688.17,-143.64"/>
<polygon fill="#9a32cd" stroke="#9a32cd" points="470.15,-127.76 460.28,-131.6 470.39,-134.76 470.15,-127.76"/>
</a>
</g>
<text text-anchor="middle" x="576.38" y="-137.86" font-family="Helvetica,sans-Serif" font-size="10.00" fill="grey"> context</text>
</g>
<!-- Node10&#45;&gt;Node8 -->
<g id="edge11_Node000008_Node000010" class="edge">
<title>Node10&#45;&gt;Node8</title>
<g id="a_edge11_Node000008_Node000010"><a xlink:title=" ">
<path fill="none" stroke="#9a32cd" stroke-dasharray="5,2" d="M909.92,-107.16C876.65,-111.08 832.12,-117.42 793.5,-126.61 777.62,-130.38 760.27,-136.06 746.4,-141"/>
<polygon fill="#9a32cd" stroke="#9a32cd" points="910.14,-110.65 919.68,-106.04 909.35,-103.7 910.14,-110.65"/>
</a>
</g>
<text text-anchor="middle" x="836.62" y="-140.11" font-family="Helvetica,sans-Serif" font-size="10.00" fill="grey"> active_threads_link</text>
<text text-anchor="middle" x="836.62" y="-128.86" font-family="Helvetica,sans-Serif" font-size="10.00" fill="grey">link</text>
</g>
<!-- Node11&#45;&gt;Node8 -->
<g id="edge14_Node000008_Node000011" class="edge">
<title>Node11&#45;&gt;Node8</title>
<g id="a_edge14_Node000008_Node000011"><a xlink:title=" ">
<path fill="none" stroke="#9a32cd" stroke-dasharray="5,2" d="M481.01,-166.62C541.93,-162.63 639.63,-156.23 688.26,-153.04"/>
<polygon fill="#9a32cd" stroke="#9a32cd" points="480.98,-163.12 471.23,-167.26 481.43,-170.1 480.98,-163.12"/>
</a>
</g>
<text text-anchor="middle" x="576.38" y="-166.86" font-family="Helvetica,sans-Serif" font-size="10.00" fill="grey"> owned_mutexes</text>
</g>
<!-- Node12&#45;&gt;Node6 -->
<g id="edge17_Node000006_Node000012" class="edge">
<title>Node12&#45;&gt;Node6</title>
<g id="a_edge17_Node000006_Node000012"><a xlink:title=" ">
<path fill="none" stroke="#9a32cd" stroke-dasharray="5,2" d="M377.78,-41.85C318.81,-50.28 225.85,-64.17 219.5,-68.86 188.35,-91.81 175.24,-139.4 170.85,-160.11"/>
<polygon fill="#9a32cd" stroke="#9a32cd" points="378.18,-45.33 387.58,-40.45 377.19,-38.4 378.18,-45.33"/>
</a>
</g>
<text text-anchor="middle" x="282.25" y="-70.86" font-family="Helvetica,sans-Serif" font-size="10.00" fill="grey"> link</text>
</g>
<!-- Node13 -->
<g id="Node000013" class="node">
<title>Node13</title>
<g id="a_Node000013"><a xlink:href="classJSUTree.html" target="_top" xlink:title=" ">
<polygon fill="white" stroke="#666666" points="775.5,-340.73 662,-340.73 662,-321.48 775.5,-321.48 775.5,-340.73"/>
<text text-anchor="middle" x="718.75" y="-327.23" font-family="Helvetica,sans-Serif" font-size="10.00">JSUTree&lt; JKRHeap &gt;</text>
</a>
</g>
</g>
<!-- Node13&#45;&gt;Node5 -->
<g id="edge19_Node000005_Node000013" class="edge">
<title>Node13&#45;&gt;Node5</title>
<g id="a_edge19_Node000005_Node000013"><a xlink:title=" ">
<path fill="none" stroke="#9a32cd" stroke-dasharray="5,2" d="M787.12,-331.95C815.96,-333.47 849.82,-336.81 879.75,-343.86 888.15,-345.83 889.6,-348.29 897.75,-351.11 908.68,-354.88 920.87,-358.53 931.54,-361.55"/>
<polygon fill="#9a32cd" stroke="#9a32cd" points="787.59,-328.47 777.44,-331.5 787.27,-335.46 787.59,-328.47"/>
</a>
</g>
<text text-anchor="middle" x="836.62" y="-345.86" font-family="Helvetica,sans-Serif" font-size="10.00" fill="grey"> mChildTree</text>
</g>
<!-- Node14 -->
<g id="Node000014" class="node">
<title>Node14</title>
<g id="a_Node000014"><a xlink:href="classJSUList.html" target="_top" xlink:title=" ">
<polygon fill="white" stroke="#666666" points="319.5,-340.73 245,-340.73 245,-321.48 319.5,-321.48 319.5,-340.73"/>
<text text-anchor="middle" x="282.25" y="-327.23" font-family="Helvetica,sans-Serif" font-size="10.00">JSUList&lt; T &gt;</text>
</a>
</g>
</g>
<!-- Node14&#45;&gt;Node13 -->
<g id="edge20_Node000013_Node000014" class="edge">
<title>Node14&#45;&gt;Node13</title>
<g id="a_edge20_Node000013_Node000014"><a xlink:title=" ">
<path fill="none" stroke="#63b8ff" d="M331.26,-331.11C412.3,-331.11 575.79,-331.11 661.85,-331.11"/>
<polygon fill="#63b8ff" stroke="#63b8ff" points="331.43,-327.61 321.43,-331.11 331.43,-334.61 331.43,-327.61"/>
</a>
</g>
</g>
<!-- Node15 -->
<g id="Node000015" class="node">
<title>Node15</title>
<g id="a_Node000015"><a xlink:href="classJSUPtrList.html" target="_top" xlink:title=" ">
<polygon fill="white" stroke="#666666" points="64.75,-411.73 0,-411.73 0,-392.48 64.75,-392.48 64.75,-411.73"/>
<text text-anchor="middle" x="32.38" y="-398.23" font-family="Helvetica,sans-Serif" font-size="10.00">JSUPtrList</text>
</a>
</g>
</g>
<!-- Node15&#45;&gt;Node14 -->
<g id="edge21_Node000014_Node000015" class="edge">
<title>Node15&#45;&gt;Node14</title>
<g id="a_edge21_Node000014_Node000015"><a xlink:title=" ">
<path fill="none" stroke="#63b8ff" d="M74.83,-388.53C77.51,-387.7 80.17,-386.88 82.75,-386.11 138.92,-369.23 204.58,-351.41 244.53,-340.77"/>
<polygon fill="#63b8ff" stroke="#63b8ff" points="73.78,-385.19 65.31,-391.54 75.9,-391.86 73.78,-385.19"/>
</a>
</g>
</g>
<!-- Node16 -->
<g id="Node000016" class="node">
<title>Node16</title>
<g id="a_Node000016"><a xlink:href="classJSUPtrLink.html" target="_top" xlink:title=" ">
<polygon fill="white" stroke="#666666" points="201.5,-453.73 134.5,-453.73 134.5,-434.48 201.5,-434.48 201.5,-453.73"/>
<text text-anchor="middle" x="168" y="-440.23" font-family="Helvetica,sans-Serif" font-size="10.00">JSUPtrLink</text>
</a>
</g>
</g>
<!-- Node15&#45;&gt;Node16 -->
<g id="edge23_Node000016_Node000015" class="edge">
<title>Node15&#45;&gt;Node16</title>
<g id="a_edge23_Node000016_Node000015"><a xlink:title=" ">
<path fill="none" stroke="#9a32cd" stroke-dasharray="5,2" d="M61.4,-417.18C68.25,-420.45 75.65,-423.66 82.75,-426.11 99.3,-431.8 118.32,-436.05 134.09,-438.99"/>
<polygon fill="#9a32cd" stroke="#9a32cd" points="63.08,-414.1 52.57,-412.76 59.95,-420.36 63.08,-414.1"/>
</a>
</g>
<text text-anchor="middle" x="99.62" y="-435.86" font-family="Helvetica,sans-Serif" font-size="10.00" fill="grey"> mList</text>
</g>
<!-- Node18 -->
<g id="Node000018" class="node">
<title>Node18</title>
<g id="a_Node000018"><a xlink:href="classJSUList.html" target="_top" xlink:title=" ">
<polygon fill="white" stroke="#666666" points="345,-378.73 219.5,-378.73 219.5,-359.48 345,-359.48 345,-378.73"/>
<text text-anchor="middle" x="282.25" y="-365.23" font-family="Helvetica,sans-Serif" font-size="10.00">JSUList&lt; JKRDisposer &gt;</text>
</a>
</g>
</g>
<!-- Node15&#45;&gt;Node18 -->
<g id="edge28_Node000018_Node000015" class="edge">
<title>Node15&#45;&gt;Node18</title>
<g id="a_edge28_Node000018_Node000015"><a xlink:title=" ">
<path fill="none" stroke="#63b8ff" d="M76.52,-395.02C78.63,-394.71 80.71,-394.4 82.75,-394.11 128.3,-387.55 179.88,-381.08 219.04,-376.37"/>
<polygon fill="#63b8ff" stroke="#63b8ff" points="76.06,-391.55 66.72,-396.54 77.14,-398.47 76.06,-391.55"/>
</a>
</g>
</g>
<!-- Node21 -->
<g id="Node000021" class="node">
<title>Node21</title>
<g id="a_Node000021"><a xlink:href="classJSUList.html" target="_top" xlink:title=" ">
<polygon fill="white" stroke="#666666" points="642.88,-533.73 509.88,-533.73 509.88,-514.48 642.88,-514.48 642.88,-533.73"/>
<text text-anchor="middle" x="576.38" y="-520.23" font-family="Helvetica,sans-Serif" font-size="10.00">JSUList&lt; JKRFileLoader &gt;</text>
</a>
</g>
</g>
<!-- Node15&#45;&gt;Node21 -->
<g id="edge36_Node000021_Node000015" class="edge">
<title>Node15&#45;&gt;Node21</title>
<g id="a_edge36_Node000021_Node000015"><a xlink:title=" ">
<path fill="none" stroke="#63b8ff" d="M45.89,-421.45C62.73,-445.57 95.16,-485.72 134.5,-503.11 261.36,-559.18 429.22,-546.46 516.69,-534.19"/>
<polygon fill="#63b8ff" stroke="#63b8ff" points="48.8,-419.52 40.31,-413.18 43,-423.43 48.8,-419.52"/>
</a>
</g>
</g>
<!-- Node16&#45;&gt;Node15 -->
<g id="edge22_Node000015_Node000016" class="edge">
<title>Node16&#45;&gt;Node15</title>
<g id="a_edge22_Node000015_Node000016"><a xlink:title=" ">
<path fill="none" stroke="#9a32cd" stroke-dasharray="5,2" d="M150.46,-426.16C141.37,-417.61 129.34,-408.25 116.5,-403.61 100.21,-397.72 80.93,-397.02 65.04,-397.94"/>
<polygon fill="#9a32cd" stroke="#9a32cd" points="147.9,-428.55 157.43,-433.17 152.86,-423.61 147.9,-428.55"/>
</a>
</g>
<text text-anchor="middle" x="99.62" y="-416.11" font-family="Helvetica,sans-Serif" font-size="10.00" fill="grey"> mHead</text>
<text text-anchor="middle" x="99.62" y="-404.86" font-family="Helvetica,sans-Serif" font-size="10.00" fill="grey">mTail</text>
</g>
<!-- Node16&#45;&gt;Node16 -->
<g id="edge24_Node000016_Node000016" class="edge">
<title>Node16&#45;&gt;Node16</title>
<g id="a_edge24_Node000016_Node000016"><a xlink:title=" ">
<path fill="none" stroke="#9a32cd" stroke-dasharray="5,2" d="M155.86,-465.13C157.38,-469.01 161.43,-471.73 168,-471.73 180.02,-471.73 183.59,-462.63 178.7,-454.02"/>
<polygon fill="#9a32cd" stroke="#9a32cd" points="159.3,-465.89 157.1,-455.52 152.35,-464.99 159.3,-465.89"/>
</a>
</g>
<text text-anchor="middle" x="168" y="-484.73" font-family="Helvetica,sans-Serif" font-size="10.00" fill="grey"> mNext</text>
<text text-anchor="middle" x="168" y="-473.48" font-family="Helvetica,sans-Serif" font-size="10.00" fill="grey">mPrev</text>
</g>
<!-- Node17 -->
<g id="Node000017" class="node">
<title>Node17</title>
<g id="a_Node000017"><a xlink:href="classJSULink.html" target="_top" xlink:title=" ">
<polygon fill="white" stroke="#666666" points="465.25,-416.73 388.5,-416.73 388.5,-397.48 465.25,-397.48 465.25,-416.73"/>
<text text-anchor="middle" x="426.88" y="-403.23" font-family="Helvetica,sans-Serif" font-size="10.00">JSULink&lt; T &gt;</text>
</a>
</g>
</g>
<!-- Node16&#45;&gt;Node17 -->
<g id="edge26_Node000017_Node000016" class="edge">
<title>Node16&#45;&gt;Node17</title>
<g id="a_edge26_Node000017_Node000016"><a xlink:title=" ">
<path fill="none" stroke="#63b8ff" d="M213.07,-437.76C262.45,-430.64 341.7,-419.23 388.28,-412.52"/>
<polygon fill="#63b8ff" stroke="#63b8ff" points="212.69,-434.28 203.29,-439.17 213.69,-441.2 212.69,-434.28"/>
</a>
</g>
</g>
<!-- Node19 -->
<g id="Node000019" class="node">
<title>Node19</title>
<g id="a_Node000019"><a xlink:href="classJSULink.html" target="_top" xlink:title=" ">
<polygon fill="white" stroke="#666666" points="490.75,-453.73 363,-453.73 363,-434.48 490.75,-434.48 490.75,-453.73"/>
<text text-anchor="middle" x="426.88" y="-440.23" font-family="Helvetica,sans-Serif" font-size="10.00">JSULink&lt; JKRDisposer &gt;</text>
</a>
</g>
</g>
<!-- Node16&#45;&gt;Node19 -->
<g id="edge31_Node000019_Node000016" class="edge">
<title>Node16&#45;&gt;Node19</title>
<g id="a_edge31_Node000019_Node000016"><a xlink:title=" ">
<path fill="none" stroke="#63b8ff" d="M213.08,-444.11C254.23,-444.11 316.1,-444.11 362.54,-444.11"/>
<polygon fill="#63b8ff" stroke="#63b8ff" points="213.31,-440.61 203.31,-444.11 213.31,-447.61 213.31,-440.61"/>
</a>
</g>
</g>
<!-- Node20 -->
<g id="Node000020" class="node">
<title>Node20</title>
<g id="a_Node000020"><a xlink:href="classJSULink.html" target="_top" xlink:title=" ">
<polygon fill="white" stroke="#666666" points="644,-489.73 508.75,-489.73 508.75,-470.48 644,-470.48 644,-489.73"/>
<text text-anchor="middle" x="576.38" y="-476.23" font-family="Helvetica,sans-Serif" font-size="10.00">JSULink&lt; JKRFileLoader &gt;</text>
</a>
</g>
</g>
<!-- Node16&#45;&gt;Node20 -->
<g id="edge33_Node000020_Node000016" class="edge">
<title>Node16&#45;&gt;Node20</title>
<g id="a_edge33_Node000020_Node000016"><a xlink:title=" ">
<path fill="none" stroke="#63b8ff" d="M212.84,-456.85C215.08,-457.32 217.31,-457.74 219.5,-458.11 319.16,-474.81 436.44,-479.16 508.33,-480.11"/>
<polygon fill="#63b8ff" stroke="#63b8ff" points="213.66,-453.44 203.12,-454.57 212.06,-460.26 213.66,-453.44"/>
</a>
</g>
</g>
<!-- Node17&#45;&gt;Node13 -->
<g id="edge25_Node000013_Node000017" class="edge">
<title>Node17&#45;&gt;Node13</title>
<g id="a_edge25_Node000013_Node000017"><a xlink:title=" ">
<path fill="none" stroke="#63b8ff" d="M477.02,-408.93C521.93,-408.98 589.47,-404.92 644,-384.11 669.63,-374.32 694.49,-353.35 707.79,-340.92"/>
<polygon fill="#63b8ff" stroke="#63b8ff" points="477.09,-405.43 467.06,-408.84 477.02,-412.43 477.09,-405.43"/>
</a>
</g>
</g>
<!-- Node18&#45;&gt;Node5 -->
<g id="edge27_Node000005_Node000018" class="edge">
<title>Node18&#45;&gt;Node5</title>
<g id="a_edge27_Node000005_Node000018"><a xlink:title=" ">
<path fill="none" stroke="#9a32cd" stroke-dasharray="5,2" d="M356.59,-369.11C504.63,-369.11 833.46,-369.11 931.66,-369.11"/>
<polygon fill="#9a32cd" stroke="#9a32cd" points="356.9,-365.61 346.9,-369.11 356.9,-372.61 356.9,-365.61"/>
</a>
</g>
<text text-anchor="middle" x="576.38" y="-370.86" font-family="Helvetica,sans-Serif" font-size="10.00" fill="grey"> mDisposerList</text>
</g>
<!-- Node19&#45;&gt;Node4 -->
<g id="edge30_Node000004_Node000019" class="edge">
<title>Node19&#45;&gt;Node4</title>
<g id="a_edge30_Node000004_Node000019"><a xlink:title=" ">
<path fill="none" stroke="#9a32cd" stroke-dasharray="5,2" d="M502.39,-440.25C560.06,-437.27 637.38,-433.26 681.96,-430.96"/>
<polygon fill="#9a32cd" stroke="#9a32cd" points="502.45,-436.74 492.64,-440.75 502.81,-443.73 502.45,-436.74"/>
</a>
</g>
<text text-anchor="middle" x="576.38" y="-440.86" font-family="Helvetica,sans-Serif" font-size="10.00" fill="grey"> mLink</text>
</g>
<!-- Node20&#45;&gt;Node3 -->
<g id="edge32_Node000003_Node000020" class="edge">
<title>Node20&#45;&gt;Node3</title>
<g id="a_edge32_Node000003_Node000020"><a xlink:title=" ">
<path fill="none" stroke="#9a32cd" stroke-dasharray="5,2" d="M655.49,-477.86C735.86,-475.55 857.83,-472.04 920.16,-470.25"/>
<polygon fill="#9a32cd" stroke="#9a32cd" points="655.85,-474.35 645.95,-478.13 656.05,-481.34 655.85,-474.35"/>
</a>
</g>
<text text-anchor="middle" x="718.75" y="-478.86" font-family="Helvetica,sans-Serif" font-size="10.00" fill="grey"> mFileLoaderLink</text>
</g>
<!-- Node21&#45;&gt;Node3 -->
<g id="edge35_Node000003_Node000021" class="edge">
<title>Node21&#45;&gt;Node3</title>
<g id="a_edge35_Node000003_Node000021"><a xlink:title=" ">
<path fill="none" stroke="#9a32cd" stroke-dasharray="5,2" d="M654.2,-516.25C715.47,-509.56 803.38,-498.98 879.75,-486.11 893.07,-483.86 907.54,-480.94 920.47,-478.15"/>
<polygon fill="#9a32cd" stroke="#9a32cd" points="654.15,-512.74 644.58,-517.3 654.9,-519.7 654.15,-512.74"/>
</a>
</g>
<text text-anchor="middle" x="718.75" y="-516.86" font-family="Helvetica,sans-Serif" font-size="10.00" fill="grey"> sVolumeList</text>
</g>
<!-- Node22 -->
<g id="Node000022" class="node">
<title>Node22</title>
<g id="a_Node000022"><a xlink:href="structSArcDataInfo.html" target="_top" xlink:title=" ">
<polygon fill="white" stroke="#666666" points="998.12,-341.73 923.62,-341.73 923.62,-322.48 998.12,-322.48 998.12,-341.73"/>
<text text-anchor="middle" x="960.88" y="-328.23" font-family="Helvetica,sans-Serif" font-size="10.00">SArcDataInfo</text>
</a>
</g>
</g>
<!-- Node22&#45;&gt;Node2 -->
<g id="edge38_Node000002_Node000022" class="edge">
<title>Node22&#45;&gt;Node2</title>
<g id="a_edge38_Node000002_Node000022"><a xlink:title=" ">
<path fill="none" stroke="#9a32cd" stroke-dasharray="5,2" d="M1009.96,-330.42C1040.16,-329.99 1079.86,-330.57 1114.75,-334.86 1125.64,-336.19 1137.37,-338.57 1147.88,-341.06"/>
<polygon fill="#9a32cd" stroke="#9a32cd" points="1009.92,-326.92 999.99,-330.61 1010.05,-333.92 1009.92,-326.92"/>
</a>
</g>
<text text-anchor="middle" x="1078.38" y="-336.86" font-family="Helvetica,sans-Serif" font-size="10.00" fill="grey"> mArcInfoBlock</text>
</g>
<!-- Node23 -->
<g id="Node000023" class="node">
<title>Node23</title>
<g id="a_Node000023"><a xlink:href="structJKRArchive_1_1SDIDirEntry.html" target="_top" xlink:title=" ">
<polygon fill="white" stroke="#666666" points="1022.12,-304.73 899.62,-304.73 899.62,-285.48 1022.12,-285.48 1022.12,-304.73"/>
<text text-anchor="middle" x="960.88" y="-291.23" font-family="Helvetica,sans-Serif" font-size="10.00">JKRArchive::SDIDirEntry</text>
</a>
</g>
</g>
<!-- Node23&#45;&gt;Node2 -->
<g id="edge39_Node000002_Node000023" class="edge">
<title>Node23&#45;&gt;Node2</title>
<g id="a_edge39_Node000002_Node000023"><a xlink:title=" ">
<path fill="none" stroke="#9a32cd" stroke-dasharray="5,2" d="M1033.73,-299.75C1059.69,-302.75 1088.94,-307.7 1114.75,-315.86 1133.02,-321.63 1152.31,-332.17 1165.33,-340.04"/>
<polygon fill="#9a32cd" stroke="#9a32cd" points="1034.27,-296.29 1023.95,-298.7 1033.52,-303.25 1034.27,-296.29"/>
</a>
</g>
<text text-anchor="middle" x="1078.38" y="-317.86" font-family="Helvetica,sans-Serif" font-size="10.00" fill="grey"> mNodes</text>
</g>
<!-- Node24 -->
<g id="Node000024" class="node">
<title>Node24</title>
<g id="a_Node000024"><a xlink:href="structJKRArchive_1_1SDIFileEntry.html" target="_top" xlink:title=" ">
<polygon fill="white" stroke="#666666" points="1024,-545.73 897.75,-545.73 897.75,-526.48 1024,-526.48 1024,-545.73"/>
<text text-anchor="middle" x="960.88" y="-532.23" font-family="Helvetica,sans-Serif" font-size="10.00">JKRArchive::SDIFileEntry</text>
</a>
</g>
</g>
<!-- Node24&#45;&gt;Node2 -->
<g id="edge40_Node000002_Node000024" class="edge">
<title>Node24&#45;&gt;Node2</title>
<g id="a_edge40_Node000002_Node000024"><a xlink:title=" ">
<path fill="none" stroke="#9a32cd" stroke-dasharray="5,2" d="M1014.12,-522.01C1017.53,-520.52 1020.86,-518.89 1024,-517.11 1097.04,-475.69 1156.33,-389.1 1174.92,-359.93"/>
<polygon fill="#9a32cd" stroke="#9a32cd" points="1013.15,-518.63 1005.11,-525.53 1015.69,-525.15 1013.15,-518.63"/>
</a>
</g>
<text text-anchor="middle" x="1078.38" y="-504.86" font-family="Helvetica,sans-Serif" font-size="10.00" fill="grey"> mFiles</text>
</g>
<!-- Node25&#45;&gt;Node1 -->
<g id="edge41_Node000001_Node000025" class="edge">
<title>Node25&#45;&gt;Node1</title>
<g id="a_edge41_Node000001_Node000025"><a xlink:title=" ">
<path fill="none" stroke="#9a32cd" stroke-dasharray="5,2" d="M1242.88,-291.62C1265.51,-295.22 1290.56,-299.2 1310.38,-302.35"/>
<polygon fill="#9a32cd" stroke="#9a32cd" points="1243.57,-288.19 1233.14,-290.07 1242.47,-295.1 1243.57,-288.19"/>
</a>
</g>
<text text-anchor="middle" x="1271" y="-300.86" font-family="Helvetica,sans-Serif" font-size="10.00" fill="grey"> mQueue</text>
</g>
</g>
</svg>

<g id="navigator" transform="translate(0 0)" fill="#404254">
  <rect fill="#f2f5e9" fill-opacity="0.5" stroke="#606060" stroke-width=".5" x="0" y="0" width="60" height="60"/>
  <use id="zoomplus" xlink:href="#zoomPlus" x="17" y="9" onmousedown="handleZoom(evt,'in')"/>
  <use id="zoomminus" xlink:href="#zoomMin" x="42" y="9" onmousedown="handleZoom(evt,'out')"/>
  <use id="reset" xlink:href="#resetDef" x="30" y="36" onmousedown="handleReset()"/>
   <use id="arrowup" xlink:href="#arrowUp" x="0" y="0" onmousedown="handlePan(0,-1)"/>
  <use id="arrowright" xlink:href="#arrowRight" x="0" y="0" onmousedown="handlePan(1,0)"/>
  <use id="arrowdown" xlink:href="#arrowDown" x="0" y="0" onmousedown="handlePan(0,1)"/>
  <use id="arrowleft" xlink:href="#arrowLeft" x="0" y="0" onmousedown="handlePan(-1,0)"/>
</g>
<svg viewBox="0 0 15 15" width="100%" height="30px" preserveAspectRatio="xMaxYMin meet">
 <g id="arrow_out" transform="scale(0.3 0.3)">
  <a xlink:href="structCallbackArgs__coll__graph_org.svg" target="_base">
   <rect id="button" ry="5" rx="5" y="6" x="6" height="38" width="38"
        fill="#f2f5e9" fill-opacity="0.5" stroke="#606060" stroke-width="1.0"/>
   <path id="arrow"
     d="M 11.500037,31.436501 C 11.940474,20.09759 22.043105,11.32322 32.158766,21.979434 L 37.068811,17.246167 C 37.068811,17.246167 37.088388,32 37.088388,32 L 22.160133,31.978069 C 22.160133,31.978069 26.997745,27.140456 26.997745,27.140456 C 18.528582,18.264221 13.291696,25.230495 11.500037,31.436501 z"
     style="fill:#404040;"/>
  </a>
 </g>
</svg>

<style type='text/css'>
<![CDATA[
[data-mouse-over-selected='false'] { opacity: 0.7; }
[data-mouse-over-selected='true']  { opacity: 1.0; }
]]>
</style>
<script type="application/ecmascript"><![CDATA[
document.addEventListener('DOMContentLoaded', (event) => {
  highlightEdges();
  highlightAdjacentNodes();
});
]]></script>
</svg>
