<?xml version="1.0" encoding="UTF-8" standalone="no"?>
<!DOCTYPE svg PUBLIC "-//W3C//DTD SVG 1.1//EN"
 "http://www.w3.org/Graphics/SVG/1.1/DTD/svg11.dtd">
<!-- Generated by graphviz version 9.0.0 (20230911.1827)
 -->
<!-- Title: dMpath_c Pages: 1 -->
<svg width="274pt" height="382pt"
 viewBox="0.00 0.00 273.62 382.25" xmlns="http://www.w3.org/2000/svg" xmlns:xlink="http://www.w3.org/1999/xlink">

<svg id="main" version="1.1" xmlns="http://www.w3.org/2000/svg" xmlns:xlink="http://www.w3.org/1999/xlink" xml:space="preserve" onload="init(evt)">
<style type="text/css"><![CDATA[
.node, .edge {opacity: 0.7;}
.node.selected, .edge.selected {opacity: 1;}
.edge:hover path { stroke: red; }
.edge:hover polygon { stroke: red; fill: red; }
]]></style>
<script type="application/ecmascript" xlink:href="svg.min.js"/>
<svg id="graph" class="graph">
<g id="graph0" class="graph" transform="scale(1 1) rotate(0) translate(4 378.25)">
<title>dMpath_c</title>
<!-- Node1 -->
<g id="Node000001" class="node">
<title>Node1</title>
<g id="a_Node000001"><a xlink:title=" ">
<polygon fill="#999999" stroke="#666666" points="161.62,-19.25 102.88,-19.25 102.88,0 161.62,0 161.62,-19.25"/>
<text text-anchor="middle" x="132.25" y="-5.75" font-family="Helvetica,sans-Serif" font-size="10.00">dMpath_c</text>
</a>
</g>
</g>
<!-- Node2 -->
<g id="Node000002" class="node">
<title>Node2</title>
<g id="a_Node000002"><a xlink:href="structdDrawPath__c_1_1layer__data.html" target="_top" xlink:title=" ">
<polygon fill="white" stroke="#666666" points="193.88,-85.75 70.62,-85.75 70.62,-66.5 193.88,-66.5 193.88,-85.75"/>
<text text-anchor="middle" x="132.25" y="-72.25" font-family="Helvetica,sans-Serif" font-size="10.00">dDrawPath_c::layer_data</text>
</a>
</g>
</g>
<!-- Node2&#45;&gt;Node1 -->
<g id="edge1_Node000001_Node000002" class="edge">
<title>Node2&#45;&gt;Node1</title>
<g id="a_edge1_Node000001_Node000002"><a xlink:title=" ">
<path fill="none" stroke="#9a32cd" stroke-dasharray="5,2" d="M132.25,-54.65C132.25,-42.82 132.25,-28.54 132.25,-19.52"/>
<polygon fill="#9a32cd" stroke="#9a32cd" points="128.75,-54.64 132.25,-64.64 135.75,-54.64 128.75,-54.64"/>
</a>
</g>
<text text-anchor="middle" x="157.75" y="-39" font-family="Helvetica,sans-Serif" font-size="10.00" fill="grey"> mLayerList</text>
</g>
<!-- Node3 -->
<g id="Node000003" class="node">
<title>Node3</title>
<g id="a_Node000003"><a xlink:href="structdDrawPath__c_1_1room__class.html" target="_top" xlink:title=" ">
<polygon fill="white" stroke="#666666" points="196.88,-152.25 67.62,-152.25 67.62,-133 196.88,-133 196.88,-152.25"/>
<text text-anchor="middle" x="132.25" y="-138.75" font-family="Helvetica,sans-Serif" font-size="10.00">dDrawPath_c::room_class</text>
</a>
</g>
</g>
<!-- Node3&#45;&gt;Node2 -->
<g id="edge2_Node000002_Node000003" class="edge">
<title>Node3&#45;&gt;Node2</title>
<g id="a_edge2_Node000002_Node000003"><a xlink:title=" ">
<path fill="none" stroke="#9a32cd" stroke-dasharray="5,2" d="M132.25,-121.15C132.25,-109.32 132.25,-95.04 132.25,-86.02"/>
<polygon fill="#9a32cd" stroke="#9a32cd" points="128.75,-121.14 132.25,-131.14 135.75,-121.14 128.75,-121.14"/>
</a>
</g>
<text text-anchor="middle" x="152.88" y="-105.5" font-family="Helvetica,sans-Serif" font-size="10.00" fill="grey"> mRooms</text>
</g>
<!-- Node4 -->
<g id="Node000004" class="node">
<title>Node4</title>
<g id="a_Node000004"><a xlink:href="structdDrawPath__c_1_1floor__class.html" target="_top" xlink:title=" ">
<polygon fill="white" stroke="#666666" points="180.75,-230 83.75,-230 83.75,-199.5 180.75,-199.5 180.75,-230"/>
<text text-anchor="start" x="91.75" y="-216.5" font-family="Helvetica,sans-Serif" font-size="10.00">dDrawPath_c::floor</text>
<text text-anchor="middle" x="132.25" y="-205.25" font-family="Helvetica,sans-Serif" font-size="10.00">_class</text>
</a>
</g>
</g>
<!-- Node4&#45;&gt;Node3 -->
<g id="edge3_Node000003_Node000004" class="edge">
<title>Node4&#45;&gt;Node3</title>
<g id="a_edge3_Node000003_Node000004"><a xlink:title=" ">
<path fill="none" stroke="#9a32cd" stroke-dasharray="5,2" d="M132.25,-187.98C132.25,-175.48 132.25,-161.27 132.25,-152.38"/>
<polygon fill="#9a32cd" stroke="#9a32cd" points="128.75,-187.71 132.25,-197.71 135.75,-187.71 128.75,-187.71"/>
</a>
</g>
<text text-anchor="middle" x="151" y="-172" font-family="Helvetica,sans-Serif" font-size="10.00" fill="grey"> mpFloor</text>
</g>
<!-- Node5 -->
<g id="Node000005" class="node">
<title>Node5</title>
<g id="a_Node000005"><a xlink:href="structdDrawPath__c_1_1group__class.html" target="_top" xlink:title=" ">
<polygon fill="white" stroke="#666666" points="183.75,-307.75 80.75,-307.75 80.75,-277.25 183.75,-277.25 183.75,-307.75"/>
<text text-anchor="start" x="88.75" y="-294.25" font-family="Helvetica,sans-Serif" font-size="10.00">dDrawPath_c::group</text>
<text text-anchor="middle" x="132.25" y="-283" font-family="Helvetica,sans-Serif" font-size="10.00">_class</text>
</a>
</g>
</g>
<!-- Node5&#45;&gt;Node4 -->
<g id="edge4_Node000004_Node000005" class="edge">
<title>Node5&#45;&gt;Node4</title>
<g id="a_edge4_Node000004_Node000005"><a xlink:title=" ">
<path fill="none" stroke="#9a32cd" stroke-dasharray="5,2" d="M132.25,-265.47C132.25,-253.71 132.25,-240.26 132.25,-230.31"/>
<polygon fill="#9a32cd" stroke="#9a32cd" points="128.75,-265.38 132.25,-275.38 135.75,-265.38 128.75,-265.38"/>
</a>
</g>
<text text-anchor="middle" x="153.25" y="-249.75" font-family="Helvetica,sans-Serif" font-size="10.00" fill="grey"> mpGroup</text>
</g>
<!-- Node6 -->
<g id="Node000006" class="node">
<title>Node6</title>
<g id="a_Node000006"><a xlink:href="structdDrawPath__c_1_1line__class.html" target="_top" xlink:title=" ">
<polygon fill="white" stroke="#666666" points="122.5,-374.25 0,-374.25 0,-355 122.5,-355 122.5,-374.25"/>
<text text-anchor="middle" x="61.25" y="-360.75" font-family="Helvetica,sans-Serif" font-size="10.00">dDrawPath_c::line_class</text>
</a>
</g>
</g>
<!-- Node6&#45;&gt;Node5 -->
<g id="edge5_Node000005_Node000006" class="edge">
<title>Node6&#45;&gt;Node5</title>
<g id="a_edge5_Node000005_Node000006"><a xlink:title=" ">
<path fill="none" stroke="#9a32cd" stroke-dasharray="5,2" d="M78.13,-346.96C90.07,-335.16 105.94,-319.49 117.4,-308.17"/>
<polygon fill="#9a32cd" stroke="#9a32cd" points="75.97,-344.16 71.32,-353.68 80.89,-349.14 75.97,-344.16"/>
</a>
</g>
<text text-anchor="middle" x="116.5" y="-327.5" font-family="Helvetica,sans-Serif" font-size="10.00" fill="grey"> mpLine</text>
</g>
<!-- Node7 -->
<g id="Node000007" class="node">
<title>Node7</title>
<g id="a_Node000007"><a xlink:href="structdDrawPath__c_1_1poly__class.html" target="_top" xlink:title=" ">
<polygon fill="white" stroke="#666666" points="265.62,-374.25 140.88,-374.25 140.88,-355 265.62,-355 265.62,-374.25"/>
<text text-anchor="middle" x="203.25" y="-360.75" font-family="Helvetica,sans-Serif" font-size="10.00">dDrawPath_c::poly_class</text>
</a>
</g>
</g>
<!-- Node7&#45;&gt;Node5 -->
<g id="edge6_Node000005_Node000007" class="edge">
<title>Node7&#45;&gt;Node5</title>
<g id="a_edge6_Node000005_Node000007"><a xlink:title=" ">
<path fill="none" stroke="#9a32cd" stroke-dasharray="5,2" d="M186.37,-346.96C174.43,-335.16 158.56,-319.49 147.1,-308.17"/>
<polygon fill="#9a32cd" stroke="#9a32cd" points="183.61,-349.14 193.18,-353.68 188.53,-344.16 183.61,-349.14"/>
</a>
</g>
<text text-anchor="middle" x="192.5" y="-327.5" font-family="Helvetica,sans-Serif" font-size="10.00" fill="grey"> mpPoly</text>
</g>
</g>
</svg>
</svg>

<style type='text/css'>
<![CDATA[
[data-mouse-over-selected='false'] { opacity: 0.7; }
[data-mouse-over-selected='true']  { opacity: 1.0; }
]]>
</style>
<script type="application/ecmascript"><![CDATA[
document.addEventListener('DOMContentLoaded', (event) => {
  highlightEdges();
  highlightAdjacentNodes();
});
]]></script>
</svg>
