<?xml version="1.0" encoding="UTF-8" standalone="no"?>
<!DOCTYPE svg PUBLIC "-//W3C//DTD SVG 1.1//EN"
 "http://www.w3.org/Graphics/SVG/1.1/DTD/svg11.dtd">
<!-- Generated by graphviz version 9.0.0 (20230911.1827)
 -->
<!-- Title: J3DMatColorAnm Pages: 1 -->
<svg width="209pt" height="293pt"
 viewBox="0.00 0.00 208.75 293.25" xmlns="http://www.w3.org/2000/svg" xmlns:xlink="http://www.w3.org/1999/xlink">
<g id="graph0" class="graph" transform="scale(1 1) rotate(0) translate(4 289.25)">
<title>J3DMatColorAnm</title>
<!-- Node1 -->
<g id="Node000001" class="node">
<title>Node1</title>
<g id="a_Node000001"><a xlink:title=" ">
<polygon fill="#999999" stroke="#666666" points="100.25,-19.25 7.75,-19.25 7.75,0 100.25,0 100.25,-19.25"/>
<text text-anchor="middle" x="54" y="-5.75" font-family="Helvetica,sans-Serif" font-size="10.00">J3DMatColorAnm</text>
</a>
</g>
</g>
<!-- Node2 -->
<g id="Node000002" class="node">
<title>Node2</title>
<g id="a_Node000002"><a xlink:href="classJ3DAnmColor.html" target="_top" xlink:title=" ">
<polygon fill="white" stroke="#666666" points="92,-85.75 16,-85.75 16,-66.5 92,-66.5 92,-85.75"/>
<text text-anchor="middle" x="54" y="-72.25" font-family="Helvetica,sans-Serif" font-size="10.00">J3DAnmColor</text>
</a>
</g>
</g>
<!-- Node2&#45;&gt;Node1 -->
<g id="edge1_Node000001_Node000002" class="edge">
<title>Node2&#45;&gt;Node1</title>
<g id="a_edge1_Node000001_Node000002"><a xlink:title=" ">
<path fill="none" stroke="#9a32cd" stroke-dasharray="5,2" d="M54,-54.65C54,-42.82 54,-28.54 54,-19.52"/>
<polygon fill="#9a32cd" stroke="#9a32cd" points="50.5,-54.64 54,-64.64 57.5,-54.64 50.5,-54.64"/>
</a>
</g>
<text text-anchor="middle" x="80.62" y="-39" font-family="Helvetica,sans-Serif" font-size="10.00" fill="grey"> mAnmColor</text>
</g>
<!-- Node3 -->
<g id="Node000003" class="node">
<title>Node3</title>
<g id="a_Node000003"><a xlink:href="classJ3DAnmBase.html" target="_top" xlink:title=" ">
<polygon fill="white" stroke="#666666" points="76,-152.25 0,-152.25 0,-133 76,-133 76,-152.25"/>
<text text-anchor="middle" x="38" y="-138.75" font-family="Helvetica,sans-Serif" font-size="10.00">J3DAnmBase</text>
</a>
</g>
</g>
<!-- Node3&#45;&gt;Node2 -->
<g id="edge2_Node000002_Node000003" class="edge">
<title>Node3&#45;&gt;Node2</title>
<g id="a_edge2_Node000002_Node000003"><a xlink:title=" ">
<path fill="none" stroke="#63b8ff" d="M42.99,-121.52C45.94,-109.62 49.53,-95.13 51.79,-86.02"/>
<polygon fill="#63b8ff" stroke="#63b8ff" points="39.6,-120.64 40.59,-131.19 46.39,-122.32 39.6,-120.64"/>
</a>
</g>
</g>
<!-- Node4 -->
<g id="Node000004" class="node">
<title>Node4</title>
<g id="a_Node000004"><a xlink:href="structJUTNameTab.html" target="_top" xlink:title=" ">
<polygon fill="white" stroke="#666666" points="171.75,-152.25 94.25,-152.25 94.25,-133 171.75,-133 171.75,-152.25"/>
<text text-anchor="middle" x="133" y="-138.75" font-family="Helvetica,sans-Serif" font-size="10.00">JUTNameTab</text>
</a>
</g>
</g>
<!-- Node4&#45;&gt;Node2 -->
<g id="edge3_Node000002_Node000004" class="edge">
<title>Node4&#45;&gt;Node2</title>
<g id="a_edge3_Node000002_Node000004"><a xlink:title=" ">
<path fill="none" stroke="#9a32cd" stroke-dasharray="5,2" d="M113.35,-125.58C98.15,-113.17 77.64,-96.43 65.15,-86.23"/>
<polygon fill="#9a32cd" stroke="#9a32cd" points="110.88,-128.09 120.84,-131.7 115.31,-122.66 110.88,-128.09"/>
</a>
</g>
<text text-anchor="middle" x="149.38" y="-105.5" font-family="Helvetica,sans-Serif" font-size="10.00" fill="grey"> mUpdateMaterialName</text>
</g>
<!-- Node5 -->
<g id="Node000005" class="node">
<title>Node5</title>
<g id="a_Node000005"><a xlink:href="structResNTAB.html" target="_top" xlink:title=" ">
<polygon fill="white" stroke="#666666" points="163.12,-218.75 102.88,-218.75 102.88,-199.5 163.12,-199.5 163.12,-218.75"/>
<text text-anchor="middle" x="133" y="-205.25" font-family="Helvetica,sans-Serif" font-size="10.00">ResNTAB</text>
</a>
</g>
</g>
<!-- Node5&#45;&gt;Node4 -->
<g id="edge4_Node000004_Node000005" class="edge">
<title>Node5&#45;&gt;Node4</title>
<g id="a_edge4_Node000004_Node000005"><a xlink:title=" ">
<path fill="none" stroke="#9a32cd" stroke-dasharray="5,2" d="M133,-187.65C133,-175.82 133,-161.54 133,-152.52"/>
<polygon fill="#9a32cd" stroke="#9a32cd" points="129.5,-187.64 133,-197.64 136.5,-187.64 129.5,-187.64"/>
</a>
</g>
<text text-anchor="middle" x="163.38" y="-172" font-family="Helvetica,sans-Serif" font-size="10.00" fill="grey"> mNameTable</text>
</g>
<!-- Node6 -->
<g id="Node000006" class="node">
<title>Node6</title>
<g id="a_Node000006"><a xlink:href="structResNTAB_1_1Entry.html" target="_top" xlink:title=" ">
<polygon fill="white" stroke="#666666" points="176.25,-285.25 89.75,-285.25 89.75,-266 176.25,-266 176.25,-285.25"/>
<text text-anchor="middle" x="133" y="-271.75" font-family="Helvetica,sans-Serif" font-size="10.00">ResNTAB::Entry</text>
</a>
</g>
</g>
<!-- Node6&#45;&gt;Node5 -->
<g id="edge5_Node000005_Node000006" class="edge">
<title>Node6&#45;&gt;Node5</title>
<g id="a_edge5_Node000005_Node000006"><a xlink:title=" ">
<path fill="none" stroke="#9a32cd" stroke-dasharray="5,2" d="M133,-254.15C133,-242.32 133,-228.04 133,-219.02"/>
<polygon fill="#9a32cd" stroke="#9a32cd" points="129.5,-254.14 133,-264.14 136.5,-254.14 129.5,-254.14"/>
</a>
</g>
<text text-anchor="middle" x="153.25" y="-238.5" font-family="Helvetica,sans-Serif" font-size="10.00" fill="grey"> mEntries</text>
</g>
</g>
</svg>
