<?xml version="1.0" encoding="UTF-8" standalone="no"?>
<!DOCTYPE svg PUBLIC "-//W3C//DTD SVG 1.1//EN"
 "http://www.w3.org/Graphics/SVG/1.1/DTD/svg11.dtd">
<!-- Generated by graphviz version 9.0.0 (20230911.1827)
 -->
<!-- Title: Z2Creature Pages: 1 -->
<svg width="1114pt" height="302pt"
 viewBox="0.00 0.00 1114.25 301.88" xmlns="http://www.w3.org/2000/svg" xmlns:xlink="http://www.w3.org/1999/xlink">
<g id="graph0" class="graph" transform="scale(1 1) rotate(0) translate(4 297.88)">
<title>Z2Creature</title>
<!-- Node1 -->
<g id="Node000001" class="node">
<title>Node1</title>
<g id="a_Node000001"><a xlink:title=" ">
<polygon fill="#999999" stroke="#666666" points="1106.25,-248.25 1042.25,-248.25 1042.25,-229 1106.25,-229 1106.25,-248.25"/>
<text text-anchor="middle" x="1074.25" y="-234.75" font-family="Helvetica,sans-Serif" font-size="10.00">Z2Creature</text>
</a>
</g>
</g>
<!-- Node2 -->
<g id="Node000002" class="node">
<title>Node2</title>
<g id="a_Node000002"><a xlink:href="structVec.html" target="_top" xlink:title=" ">
<polygon fill="white" stroke="#666666" points="230,-273.25 196.75,-273.25 196.75,-254 230,-254 230,-273.25"/>
<text text-anchor="middle" x="213.38" y="-259.75" font-family="Helvetica,sans-Serif" font-size="10.00">Vec</text>
</a>
</g>
</g>
<!-- Node2&#45;&gt;Node1 -->
<g id="edge1_Node000001_Node000002" class="edge">
<title>Node2&#45;&gt;Node1</title>
<g id="a_edge1_Node000001_Node000002"><a xlink:title=" ">
<path fill="none" stroke="#9a32cd" stroke-dasharray="5,2" d="M241.74,-267.38C284.5,-272.92 369.8,-282.62 442.5,-282.62 442.5,-282.62 442.5,-282.62 868.75,-282.62 938.27,-282.62 957.96,-286.59 1024.25,-265.62 1036.66,-261.7 1049.5,-254.49 1058.93,-248.5"/>
<polygon fill="#9a32cd" stroke="#9a32cd" points="242.25,-263.92 231.88,-266.08 241.33,-270.86 242.25,-263.92"/>
</a>
</g>
<text text-anchor="middle" x="669.12" y="-284.38" font-family="Helvetica,sans-Serif" font-size="10.00" fill="grey"> mpPos</text>
</g>
<!-- Node13 -->
<g id="Node000013" class="node">
<title>Node13</title>
<g id="a_Node000013"><a xlink:href="structJGeometry_1_1TVec3_3_01f32_01_4.html" target="_top" xlink:title=" ">
<polygon fill="white" stroke="#666666" points="506.62,-254.25 380.38,-254.25 380.38,-235 506.62,-235 506.62,-254.25"/>
<text text-anchor="middle" x="443.5" y="-240.75" font-family="Helvetica,sans-Serif" font-size="10.00">JGeometry::TVec3&lt; f32 &gt;</text>
</a>
</g>
</g>
<!-- Node2&#45;&gt;Node13 -->
<g id="edge17_Node000013_Node000002" class="edge">
<title>Node2&#45;&gt;Node13</title>
<g id="a_edge17_Node000013_Node000002"><a xlink:title=" ">
<path fill="none" stroke="#63b8ff" d="M241.72,-261.35C275.69,-258.52 334.66,-253.61 379.94,-249.84"/>
<polygon fill="#63b8ff" stroke="#63b8ff" points="241.6,-257.85 231.92,-262.16 242.18,-264.82 241.6,-257.85"/>
</a>
</g>
</g>
<!-- Node3 -->
<g id="Node000003" class="node">
<title>Node3</title>
<g id="a_Node000003"><a xlink:href="classZ2SoundObjAnime.html" target="_top" xlink:title=" ">
<polygon fill="white" stroke="#666666" points="916.62,-211.25 818.88,-211.25 818.88,-192 916.62,-192 916.62,-211.25"/>
<text text-anchor="middle" x="867.75" y="-197.75" font-family="Helvetica,sans-Serif" font-size="10.00">Z2SoundObjAnime</text>
</a>
</g>
</g>
<!-- Node3&#45;&gt;Node1 -->
<g id="edge2_Node000001_Node000003" class="edge">
<title>Node3&#45;&gt;Node1</title>
<g id="a_edge2_Node000001_Node000003"><a xlink:title=" ">
<path fill="none" stroke="#9a32cd" stroke-dasharray="5,2" d="M928.34,-207.66C957.46,-211.19 992.9,-216.35 1024.25,-223.38 1030.6,-224.8 1037.31,-226.65 1043.66,-228.57"/>
<polygon fill="#9a32cd" stroke="#9a32cd" points="928.94,-204.2 918.6,-206.51 928.12,-211.16 928.94,-204.2"/>
</a>
</g>
<text text-anchor="middle" x="980" y="-224.38" font-family="Helvetica,sans-Serif" font-size="10.00" fill="grey"> mSoundObjAnime</text>
</g>
<!-- Node4 -->
<g id="Node000004" class="node">
<title>Node4</title>
<g id="a_Node000004"><a xlink:href="classZ2SoundObjBase.html" target="_top" xlink:title=" ">
<polygon fill="white" stroke="#666666" points="715.38,-217.25 622.88,-217.25 622.88,-198 715.38,-198 715.38,-217.25"/>
<text text-anchor="middle" x="669.12" y="-203.75" font-family="Helvetica,sans-Serif" font-size="10.00">Z2SoundObjBase</text>
</a>
</g>
</g>
<!-- Node4&#45;&gt;Node3 -->
<g id="edge3_Node000003_Node000004" class="edge">
<title>Node4&#45;&gt;Node3</title>
<g id="a_edge3_Node000003_Node000004"><a xlink:title=" ">
<path fill="none" stroke="#63b8ff" d="M726.95,-205.89C756,-205 790.96,-203.94 818.65,-203.09"/>
<polygon fill="#63b8ff" stroke="#63b8ff" points="727.13,-202.38 717.24,-206.19 727.34,-209.38 727.13,-202.38"/>
</a>
</g>
</g>
<!-- Node18 -->
<g id="Node000018" class="node">
<title>Node18</title>
<g id="a_Node000018"><a xlink:href="classZ2SoundObjSimple.html" target="_top" xlink:title=" ">
<polygon fill="white" stroke="#666666" points="917.75,-248.25 817.75,-248.25 817.75,-229 917.75,-229 917.75,-248.25"/>
<text text-anchor="middle" x="867.75" y="-234.75" font-family="Helvetica,sans-Serif" font-size="10.00">Z2SoundObjSimple</text>
</a>
</g>
</g>
<!-- Node4&#45;&gt;Node18 -->
<g id="edge23_Node000018_Node000004" class="edge">
<title>Node4&#45;&gt;Node18</title>
<g id="a_edge23_Node000018_Node000004"><a xlink:title=" ">
<path fill="none" stroke="#63b8ff" d="M726.78,-216.56C755.38,-221.07 789.74,-226.48 817.26,-230.82"/>
<polygon fill="#63b8ff" stroke="#63b8ff" points="727.65,-213.15 717.22,-215.05 726.56,-220.07 727.65,-213.15"/>
</a>
</g>
</g>
<!-- Node5 -->
<g id="Node000005" class="node">
<title>Node5</title>
<g id="a_Node000005"><a xlink:href="classZ2SoundHandles.html" target="_top" xlink:title=" ">
<polygon fill="white" stroke="#666666" points="489,-217.25 398,-217.25 398,-198 489,-198 489,-217.25"/>
<text text-anchor="middle" x="443.5" y="-203.75" font-family="Helvetica,sans-Serif" font-size="10.00">Z2SoundHandles</text>
</a>
</g>
</g>
<!-- Node5&#45;&gt;Node4 -->
<g id="edge4_Node000004_Node000005" class="edge">
<title>Node5&#45;&gt;Node4</title>
<g id="a_edge4_Node000004_Node000005"><a xlink:title=" ">
<path fill="none" stroke="#63b8ff" d="M500.77,-207.62C538.38,-207.62 587.24,-207.62 622.44,-207.62"/>
<polygon fill="#63b8ff" stroke="#63b8ff" points="501,-204.13 491,-207.63 501,-211.13 501,-204.13"/>
</a>
</g>
</g>
<!-- Node6 -->
<g id="Node000006" class="node">
<title>Node6</title>
<g id="a_Node000006"><a xlink:href="classJSUList.html" target="_top" xlink:title=" ">
<polygon fill="white" stroke="#666666" points="292.25,-201.25 134.5,-201.25 134.5,-182 292.25,-182 292.25,-201.25"/>
<text text-anchor="middle" x="213.38" y="-187.75" font-family="Helvetica,sans-Serif" font-size="10.00">JSUList&lt; Z2SoundHandlePool &gt;</text>
</a>
</g>
</g>
<!-- Node6&#45;&gt;Node5 -->
<g id="edge5_Node000005_Node000006" class="edge">
<title>Node6&#45;&gt;Node5</title>
<g id="a_edge5_Node000005_Node000006"><a xlink:title=" ">
<path fill="none" stroke="darkgreen" d="M303.81,-197.9C336,-200.16 370.92,-202.6 397.68,-204.48"/>
<polygon fill="darkgreen" stroke="darkgreen" points="304.29,-194.42 294.07,-197.21 303.8,-201.41 304.29,-194.42"/>
</a>
</g>
</g>
<!-- Node7 -->
<g id="Node000007" class="node">
<title>Node7</title>
<g id="a_Node000007"><a xlink:href="classJSUPtrList.html" target="_top" xlink:title=" ">
<polygon fill="white" stroke="#666666" points="64.75,-53.25 0,-53.25 0,-34 64.75,-34 64.75,-53.25"/>
<text text-anchor="middle" x="32.38" y="-39.75" font-family="Helvetica,sans-Serif" font-size="10.00">JSUPtrList</text>
</a>
</g>
</g>
<!-- Node7&#45;&gt;Node6 -->
<g id="edge6_Node000006_Node000007" class="edge">
<title>Node7&#45;&gt;Node6</title>
<g id="a_edge6_Node000006_Node000007"><a xlink:title=" ">
<path fill="none" stroke="#63b8ff" d="M46.27,-63.08C63.7,-88.09 96.96,-131.53 134.5,-158.62 148.19,-168.51 165.3,-176.17 179.99,-181.61"/>
<polygon fill="#63b8ff" stroke="#63b8ff" points="49.18,-61.13 40.65,-54.84 43.39,-65.07 49.18,-61.13"/>
</a>
</g>
</g>
<!-- Node8 -->
<g id="Node000008" class="node">
<title>Node8</title>
<g id="a_Node000008"><a xlink:href="classJSUPtrLink.html" target="_top" xlink:title=" ">
<polygon fill="white" stroke="#666666" points="246.88,-19.25 179.88,-19.25 179.88,0 246.88,0 246.88,-19.25"/>
<text text-anchor="middle" x="213.38" y="-5.75" font-family="Helvetica,sans-Serif" font-size="10.00">JSUPtrLink</text>
</a>
</g>
</g>
<!-- Node7&#45;&gt;Node8 -->
<g id="edge8_Node000008_Node000007" class="edge">
<title>Node7&#45;&gt;Node8</title>
<g id="a_edge8_Node000008_Node000007"><a xlink:title=" ">
<path fill="none" stroke="#9a32cd" stroke-dasharray="5,2" d="M55.42,-27.38C63.6,-22.24 73.21,-17.18 82.75,-14.38 114.62,-5.01 152.8,-4.86 179.43,-6.42"/>
<polygon fill="#9a32cd" stroke="#9a32cd" points="53.55,-24.43 47.21,-32.92 57.46,-30.23 53.55,-24.43"/>
</a>
</g>
<text text-anchor="middle" x="99.62" y="-16.38" font-family="Helvetica,sans-Serif" font-size="10.00" fill="grey"> mList</text>
</g>
<!-- Node8&#45;&gt;Node7 -->
<g id="edge7_Node000007_Node000008" class="edge">
<title>Node8&#45;&gt;Node7</title>
<g id="a_edge7_Node000007_Node000008"><a xlink:title=" ">
<path fill="none" stroke="#9a32cd" stroke-dasharray="5,2" d="M168.31,-18C136.27,-24.08 93.66,-32.17 64.96,-37.62"/>
<polygon fill="#9a32cd" stroke="#9a32cd" points="168.93,-21.44 178.1,-16.14 167.62,-14.56 168.93,-21.44"/>
</a>
</g>
<text text-anchor="middle" x="99.62" y="-46.62" font-family="Helvetica,sans-Serif" font-size="10.00" fill="grey"> mHead</text>
<text text-anchor="middle" x="99.62" y="-35.38" font-family="Helvetica,sans-Serif" font-size="10.00" fill="grey">mTail</text>
</g>
<!-- Node8&#45;&gt;Node8 -->
<g id="edge9_Node000008_Node000008" class="edge">
<title>Node8&#45;&gt;Node8</title>
<g id="a_edge9_Node000008_Node000008"><a xlink:title=" ">
<path fill="none" stroke="#9a32cd" stroke-dasharray="5,2" d="M193.18,-30.65C195.71,-34.53 202.44,-37.25 213.38,-37.25 233.37,-37.25 239.31,-28.15 231.18,-19.54"/>
<polygon fill="#9a32cd" stroke="#9a32cd" points="196.58,-31.53 195.25,-21.02 189.73,-30.06 196.58,-31.53"/>
</a>
</g>
<text text-anchor="middle" x="213.38" y="-50.25" font-family="Helvetica,sans-Serif" font-size="10.00" fill="grey"> mNext</text>
<text text-anchor="middle" x="213.38" y="-39" font-family="Helvetica,sans-Serif" font-size="10.00" fill="grey">mPrev</text>
</g>
<!-- Node9 -->
<g id="Node000009" class="node">
<title>Node9</title>
<g id="a_Node000009"><a xlink:href="structZ2SoundStarter.html" target="_top" xlink:title=" ">
<polygon fill="white" stroke="#666666" points="485.62,-57.25 401.38,-57.25 401.38,-38 485.62,-38 485.62,-57.25"/>
<text text-anchor="middle" x="443.5" y="-43.75" font-family="Helvetica,sans-Serif" font-size="10.00">Z2SoundStarter</text>
</a>
</g>
</g>
<!-- Node9&#45;&gt;Node4 -->
<g id="edge10_Node000004_Node000009" class="edge">
<title>Node9&#45;&gt;Node4</title>
<g id="a_edge10_Node000004_Node000009"><a xlink:title=" ">
<path fill="none" stroke="#9a32cd" stroke-dasharray="5,2" d="M496.8,-60.22C502.12,-62.11 507.36,-64.24 512.25,-66.62 554.63,-87.27 570.59,-90.85 597.75,-129.38 613.85,-152.22 596.39,-169.47 615.75,-189.62 618.81,-192.82 622.47,-195.44 626.4,-197.6"/>
<polygon fill="#9a32cd" stroke="#9a32cd" points="497.89,-56.9 487.3,-57.14 495.73,-63.56 497.89,-56.9"/>
</a>
</g>
<text text-anchor="middle" x="564" y="-130.38" font-family="Helvetica,sans-Serif" font-size="10.00" fill="grey"> mSoundStarter</text>
</g>
<!-- Node12 -->
<g id="Node000012" class="node">
<title>Node12</title>
<g id="a_Node000012"><a xlink:href="classJASGlobalInstance.html" target="_top" xlink:title=" ">
<polygon fill="white" stroke="#666666" points="722.12,-54.88 616.12,-54.88 616.12,-24.38 722.12,-24.38 722.12,-54.88"/>
<text text-anchor="start" x="624.12" y="-41.38" font-family="Helvetica,sans-Serif" font-size="10.00">JASGlobalInstance&lt;</text>
<text text-anchor="middle" x="669.12" y="-30.12" font-family="Helvetica,sans-Serif" font-size="10.00"> Z2SoundStarter &gt;</text>
</a>
</g>
</g>
<!-- Node9&#45;&gt;Node12 -->
<g id="edge15_Node000012_Node000009" class="edge">
<title>Node9&#45;&gt;Node12</title>
<g id="a_edge15_Node000012_Node000009"><a xlink:title=" ">
<path fill="none" stroke="#9a32cd" stroke-dasharray="5,2" d="M489.81,-34.86C502.76,-31.77 516.97,-28.92 530.25,-27.38 560.05,-23.9 567.86,-24.79 597.75,-27.38 603.68,-27.89 609.86,-28.64 615.99,-29.52"/>
<polygon fill="#9a32cd" stroke="#9a32cd" points="489.13,-31.42 480.27,-37.23 490.82,-38.21 489.13,-31.42"/>
</a>
</g>
<text text-anchor="middle" x="564" y="-29.38" font-family="Helvetica,sans-Serif" font-size="10.00" fill="grey"> sInstance</text>
</g>
<!-- Node10 -->
<g id="Node000010" class="node">
<title>Node10</title>
<g id="a_Node000010"><a xlink:href="structJAISoundStarter.html" target="_top" xlink:title=" ">
<polygon fill="white" stroke="#666666" points="257.38,-97.25 169.38,-97.25 169.38,-78 257.38,-78 257.38,-97.25"/>
<text text-anchor="middle" x="213.38" y="-83.75" font-family="Helvetica,sans-Serif" font-size="10.00">JAISoundStarter</text>
</a>
</g>
</g>
<!-- Node10&#45;&gt;Node9 -->
<g id="edge11_Node000009_Node000010" class="edge">
<title>Node10&#45;&gt;Node9</title>
<g id="a_edge11_Node000009_Node000010"><a xlink:title=" ">
<path fill="none" stroke="#63b8ff" d="M269.14,-78.02C309.71,-70.91 364.16,-61.36 401.14,-54.88"/>
<polygon fill="#63b8ff" stroke="#63b8ff" points="268.56,-74.57 259.31,-79.75 269.77,-81.47 268.56,-74.57"/>
</a>
</g>
</g>
<!-- Node11 -->
<g id="Node000011" class="node">
<title>Node11</title>
<g id="a_Node000011"><a xlink:href="classJASGlobalInstance.html" target="_top" xlink:title=" ">
<polygon fill="white" stroke="#666666" points="496.5,-105.88 390.5,-105.88 390.5,-75.38 496.5,-75.38 496.5,-105.88"/>
<text text-anchor="start" x="398.5" y="-92.38" font-family="Helvetica,sans-Serif" font-size="10.00">JASGlobalInstance&lt;</text>
<text text-anchor="middle" x="443.5" y="-81.12" font-family="Helvetica,sans-Serif" font-size="10.00"> JAISoundStarter &gt;</text>
</a>
</g>
</g>
<!-- Node10&#45;&gt;Node11 -->
<g id="edge13_Node000011_Node000010" class="edge">
<title>Node10&#45;&gt;Node11</title>
<g id="a_edge13_Node000011_Node000010"><a xlink:title=" ">
<path fill="none" stroke="#9a32cd" stroke-dasharray="5,2" d="M269.3,-88.35C305.95,-88.83 353.86,-89.46 390.01,-89.93"/>
<polygon fill="#9a32cd" stroke="#9a32cd" points="269.38,-84.85 259.33,-88.22 269.29,-91.85 269.38,-84.85"/>
</a>
</g>
<text text-anchor="middle" x="333.5" y="-91.38" font-family="Helvetica,sans-Serif" font-size="10.00" fill="grey"> sInstance</text>
</g>
<!-- Node11&#45;&gt;Node10 -->
<g id="edge12_Node000010_Node000011" class="edge">
<title>Node11&#45;&gt;Node10</title>
<g id="a_edge12_Node000010_Node000011"><a xlink:title=" ">
<path fill="none" stroke="#63b8ff" d="M379.05,-87.33C371.53,-87.04 363.97,-86.79 356.75,-86.62 323.51,-85.85 285.9,-86.17 257.68,-86.64"/>
<polygon fill="#63b8ff" stroke="#63b8ff" points="378.72,-90.82 388.85,-87.74 379.01,-83.83 378.72,-90.82"/>
</a>
</g>
</g>
<!-- Node12&#45;&gt;Node9 -->
<g id="edge14_Node000009_Node000012" class="edge">
<title>Node12&#45;&gt;Node9</title>
<g id="a_edge14_Node000009_Node000012"><a xlink:title=" ">
<path fill="none" stroke="#63b8ff" d="M604.3,-41.91C566.33,-43.27 519.23,-44.95 486.04,-46.14"/>
<polygon fill="#63b8ff" stroke="#63b8ff" points="604.39,-45.41 614.26,-41.55 604.14,-38.41 604.39,-45.41"/>
</a>
</g>
</g>
<!-- Node13&#45;&gt;Node4 -->
<g id="edge16_Node000004_Node000013" class="edge">
<title>Node13&#45;&gt;Node4</title>
<g id="a_edge16_Node000004_Node000013"><a xlink:title=" ">
<path fill="none" stroke="#9a32cd" stroke-dasharray="5,2" d="M518.18,-233.5C543.44,-229.58 571.85,-225.04 597.75,-220.62 605.83,-219.25 614.43,-217.71 622.73,-216.2"/>
<polygon fill="#9a32cd" stroke="#9a32cd" points="517.67,-230.04 508.32,-235.03 518.74,-236.96 517.67,-230.04"/>
</a>
</g>
<text text-anchor="middle" x="564" y="-232.38" font-family="Helvetica,sans-Serif" font-size="10.00" fill="grey"> mSoundPos</text>
</g>
<!-- Node14 -->
<g id="Node000014" class="node">
<title>Node14</title>
<g id="a_Node000014"><a xlink:href="classJAUSoundAnimation.html" target="_top" xlink:title=" ">
<polygon fill="white" stroke="#666666" points="722.5,-180.25 615.75,-180.25 615.75,-161 722.5,-161 722.5,-180.25"/>
<text text-anchor="middle" x="669.12" y="-166.75" font-family="Helvetica,sans-Serif" font-size="10.00">JAUSoundAnimation</text>
</a>
</g>
</g>
<!-- Node14&#45;&gt;Node3 -->
<g id="edge18_Node000003_Node000014" class="edge">
<title>Node14&#45;&gt;Node3</title>
<g id="a_edge18_Node000003_Node000014"><a xlink:title=" ">
<path fill="none" stroke="#9a32cd" stroke-dasharray="5,2" d="M734.24,-178.64C755.17,-181.46 778.48,-184.82 799.75,-188.38 805.83,-189.39 812.21,-190.54 818.51,-191.73"/>
<polygon fill="#9a32cd" stroke="#9a32cd" points="734.77,-175.18 724.39,-177.33 733.85,-182.12 734.77,-175.18"/>
</a>
</g>
<text text-anchor="middle" x="770.12" y="-189.38" font-family="Helvetica,sans-Serif" font-size="10.00" fill="grey"> mpAnimation</text>
</g>
<!-- Node15 -->
<g id="Node000015" class="node">
<title>Node15</title>
<g id="a_Node000015"><a xlink:href="classJAUSoundAnimationControl.html" target="_top" xlink:title=" ">
<polygon fill="white" stroke="#666666" points="512.25,-180.25 374.75,-180.25 374.75,-161 512.25,-161 512.25,-180.25"/>
<text text-anchor="middle" x="443.5" y="-166.75" font-family="Helvetica,sans-Serif" font-size="10.00">JAUSoundAnimationControl</text>
</a>
</g>
</g>
<!-- Node15&#45;&gt;Node14 -->
<g id="edge19_Node000014_Node000015" class="edge">
<title>Node15&#45;&gt;Node14</title>
<g id="a_edge19_Node000014_Node000015"><a xlink:title=" ">
<path fill="none" stroke="#9a32cd" stroke-dasharray="5,2" d="M523.94,-170.62C554.28,-170.62 588.09,-170.62 615.35,-170.62"/>
<polygon fill="#9a32cd" stroke="#9a32cd" points="524.02,-167.13 514.02,-170.63 524.02,-174.13 524.02,-167.13"/>
</a>
</g>
<text text-anchor="middle" x="564" y="-172.38" font-family="Helvetica,sans-Serif" font-size="10.00" fill="grey"> mControl</text>
</g>
<!-- Node16 -->
<g id="Node000016" class="node">
<title>Node16</title>
<g id="a_Node000016"><a xlink:href="classJAUSoundAnimationSound.html" target="_top" xlink:title=" ">
<polygon fill="white" stroke="#666666" points="510.75,-143.25 376.25,-143.25 376.25,-124 510.75,-124 510.75,-143.25"/>
<text text-anchor="middle" x="443.5" y="-129.75" font-family="Helvetica,sans-Serif" font-size="10.00">JAUSoundAnimationSound</text>
</a>
</g>
</g>
<!-- Node16&#45;&gt;Node14 -->
<g id="edge20_Node000014_Node000016" class="edge">
<title>Node16&#45;&gt;Node14</title>
<g id="a_edge20_Node000014_Node000016"><a xlink:title=" ">
<path fill="none" stroke="#9a32cd" stroke-dasharray="5,2" d="M522.34,-143.56C546.56,-146.95 573.32,-151 597.75,-155.38 606.24,-156.9 615.27,-158.7 623.92,-160.54"/>
<polygon fill="#9a32cd" stroke="#9a32cd" points="522.93,-140.11 512.55,-142.21 521.98,-147.04 522.93,-140.11"/>
</a>
</g>
<text text-anchor="middle" x="564" y="-156.38" font-family="Helvetica,sans-Serif" font-size="10.00" fill="grey"> mSounds</text>
</g>
<!-- Node17 -->
<g id="Node000017" class="node">
<title>Node17</title>
<g id="a_Node000017"><a xlink:href="structJAISoundID.html" target="_top" xlink:title=" ">
<polygon fill="white" stroke="#666666" points="247.62,-149.25 179.12,-149.25 179.12,-130 247.62,-130 247.62,-149.25"/>
<text text-anchor="middle" x="213.38" y="-135.75" font-family="Helvetica,sans-Serif" font-size="10.00">JAISoundID</text>
</a>
</g>
</g>
<!-- Node17&#45;&gt;Node16 -->
<g id="edge21_Node000016_Node000017" class="edge">
<title>Node17&#45;&gt;Node16</title>
<g id="a_edge21_Node000016_Node000017"><a xlink:title=" ">
<path fill="none" stroke="#9a32cd" stroke-dasharray="5,2" d="M259.26,-138.44C292.58,-137.57 338.56,-136.36 376.13,-135.37"/>
<polygon fill="#9a32cd" stroke="#9a32cd" points="259.45,-134.94 249.55,-138.7 259.64,-141.94 259.45,-134.94"/>
</a>
</g>
<text text-anchor="middle" x="333.5" y="-138.38" font-family="Helvetica,sans-Serif" font-size="10.00" fill="grey"> mSoundId</text>
</g>
<!-- Node18&#45;&gt;Node1 -->
<g id="edge22_Node000001_Node000018" class="edge">
<title>Node18&#45;&gt;Node1</title>
<g id="a_edge22_Node000001_Node000018"><a xlink:title=" ">
<path fill="none" stroke="#9a32cd" stroke-dasharray="5,2" d="M929.17,-238.62C966.18,-238.62 1012.02,-238.62 1041.92,-238.62"/>
<polygon fill="#9a32cd" stroke="#9a32cd" points="929.51,-235.13 919.51,-238.63 929.51,-242.13 929.51,-235.13"/>
</a>
</g>
<text text-anchor="middle" x="980" y="-251.62" font-family="Helvetica,sans-Serif" font-size="10.00" fill="grey"> mSoundObjSimple1</text>
<text text-anchor="middle" x="980" y="-240.38" font-family="Helvetica,sans-Serif" font-size="10.00" fill="grey">mSoundObjSimple2</text>
</g>
</g>
</svg>
