<?xml version="1.0" encoding="UTF-8" standalone="no"?>
<!DOCTYPE svg PUBLIC "-//W3C//DTD SVG 1.1//EN"
 "http://www.w3.org/Graphics/SVG/1.1/DTD/svg11.dtd">
<!-- Generated by graphviz version 9.0.0 (20230911.1827)
 -->
<!-- Title: cBgS_PolyInfo Pages: 1 -->
<!--zoomable 397 -->

<svg id="main" version="1.1" xmlns="http://www.w3.org/2000/svg" xmlns:xlink="http://www.w3.org/1999/xlink" xml:space="preserve" onload="init(evt)">
<style type="text/css"><![CDATA[
.node, .edge {opacity: 0.7;}
.node.selected, .edge.selected {opacity: 1;}
.edge:hover path { stroke: red; }
.edge:hover polygon { stroke: red; fill: red; }
]]></style>

<defs>
  <circle id="rim" cx="0" cy="0" r="7"/>
  <circle id="rim2" cx="0" cy="0" r="3.5"/>
  <g id="zoomPlus">
    <use xlink:href="#rim" fill="#404040"><set attributeName="fill" to="#808080" begin="zoomplus.mouseover" end="zoomplus.mouseout"/></use>
    <path d="M-4,0h8M0,-4v8" fill="none" stroke="white" stroke-width="1.5" pointer-events="none"/>
  </g>
  <g id="zoomMin">
    <use xlink:href="#rim" fill="#404040"><set attributeName="fill" to="#808080" begin="zoomminus.mouseover" end="zoomminus.mouseout"/></use>
    <path d="M-4,0h8" fill="none" stroke="white" stroke-width="1.5" pointer-events="none"/>
  </g>
  <g id="arrowUp" transform="translate(30 24)">
    <use xlink:href="#rim"/>
    <path pointer-events="none" fill="none" stroke="white" stroke-width="1.5" d="M0,-3.0v7 M-2.5,-0.5L0,-3.0L2.5,-0.5"/>
  </g>
  <g id="arrowRight" transform="rotate(90) translate(36 -43)">
    <use xlink:href="#rim"/>
    <path pointer-events="none" fill="none" stroke="white" stroke-width="1.5" d="M0,-3.0v7 M-2.5,-0.5L0,-3.0L2.5,-0.5"/>
  </g>
  <g id="arrowDown" transform="rotate(180) translate(-30 -48)">
    <use xlink:href="#rim"/>
    <path pointer-events="none" fill="none" stroke="white" stroke-width="1.5" d="M0,-3.0v7 M-2.5,-0.5L0,-3.0L2.5,-0.5"/>
  </g>
  <g id="arrowLeft" transform="rotate(270) translate(-36 17)">
    <use xlink:href="#rim"/>
    <path pointer-events="none" fill="none" stroke="white" stroke-width="1.5" d="M0,-3.0v7 M-2.5,-0.5L0,-3.0L2.5,-0.5"/>
  </g>
  <g id="resetDef">
    <use xlink:href="#rim2" fill="#404040"><set attributeName="fill" to="#808080" begin="reset.mouseover" end="reset.mouseout"/></use>
  </g>
</defs>
<script type="application/ecmascript">
var viewWidth = 684;
var viewHeight = 397;
var sectionId = 'dynsection-0';
</script>
<script type="application/ecmascript" xlink:href="svg.min.js"/>
<svg id="graph" class="graph">
<g id="viewport">
<title>cBgS_PolyInfo</title>
<!-- Node1 -->
<g id="Node000001" class="node">
<title>Node1</title>
<g id="a_Node000001"><a xlink:title=" ">
<polygon fill="#999999" stroke="#666666" points="80.5,-121.25 0,-121.25 0,-102 80.5,-102 80.5,-121.25"/>
<text text-anchor="middle" x="40.25" y="-107.75" font-family="Helvetica,sans-Serif" font-size="10.00">cBgS_PolyInfo</text>
</a>
</g>
</g>
<!-- Node2 -->
<g id="Node000002" class="node">
<title>Node2</title>
<g id="a_Node000002"><a xlink:href="structcBgS__GndChk.html" target="_top" xlink:title=" ">
<polygon fill="white" stroke="#666666" points="203,-273.25 122.5,-273.25 122.5,-254 203,-254 203,-273.25"/>
<text text-anchor="middle" x="162.75" y="-259.75" font-family="Helvetica,sans-Serif" font-size="10.00">cBgS_GndChk</text>
</a>
</g>
</g>
<!-- Node1&#45;&gt;Node2 -->
<g id="edge1_Node000001_Node000002" class="edge">
<title>Node1&#45;&gt;Node2</title>
<g id="a_edge1_Node000001_Node000002"><a xlink:title=" ">
<path fill="none" stroke="#63b8ff" d="M56.28,-130.59C82.17,-163.24 134.28,-228.97 153.97,-253.81"/>
<polygon fill="#63b8ff" stroke="#63b8ff" points="59.05,-128.45 50.1,-122.78 53.57,-132.79 59.05,-128.45"/>
</a>
</g>
</g>
<!-- Node11 -->
<g id="Node000011" class="node">
<title>Node11</title>
<g id="a_Node000011"><a xlink:href="structcBgS__LinChk.html" target="_top" xlink:title=" ">
<polygon fill="white" stroke="#666666" points="200.75,-177.25 124.75,-177.25 124.75,-158 200.75,-158 200.75,-177.25"/>
<text text-anchor="middle" x="162.75" y="-163.75" font-family="Helvetica,sans-Serif" font-size="10.00">cBgS_LinChk</text>
</a>
</g>
</g>
<!-- Node1&#45;&gt;Node11 -->
<g id="edge10_Node000001_Node000011" class="edge">
<title>Node1&#45;&gt;Node11</title>
<g id="a_edge10_Node000001_Node000011"><a xlink:title=" ">
<path fill="none" stroke="#63b8ff" d="M69.85,-126.82C83.79,-134.03 100.87,-142.59 116.5,-149.62 122.51,-152.33 129.06,-155.06 135.26,-157.55"/>
<polygon fill="#63b8ff" stroke="#63b8ff" points="71.72,-123.85 61.23,-122.32 68.48,-130.05 71.72,-123.85"/>
</a>
</g>
</g>
<!-- Node22 -->
<g id="Node000022" class="node">
<title>Node22</title>
<g id="a_Node000022"><a xlink:href="structdBgS__AcchCir.html" target="_top" xlink:title=" ">
<polygon fill="white" stroke="#666666" points="202.62,-140.25 122.88,-140.25 122.88,-121 202.62,-121 202.62,-140.25"/>
<text text-anchor="middle" x="162.75" y="-126.75" font-family="Helvetica,sans-Serif" font-size="10.00">dBgS_AcchCir</text>
</a>
</g>
</g>
<!-- Node1&#45;&gt;Node22 -->
<g id="edge21_Node000001_Node000022" class="edge">
<title>Node1&#45;&gt;Node22</title>
<g id="a_edge21_Node000001_Node000022"><a xlink:title=" ">
<path fill="none" stroke="#63b8ff" d="M92.03,-119.63C102.26,-121.24 112.86,-122.92 122.62,-124.45"/>
<polygon fill="#63b8ff" stroke="#63b8ff" points="92.62,-116.18 82.2,-118.08 91.53,-123.1 92.62,-116.18"/>
</a>
</g>
</g>
<!-- Node23 -->
<g id="Node000023" class="node">
<title>Node23</title>
<g id="a_Node000023"><a xlink:href="classdBgS__RoofChk.html" target="_top" xlink:title=" ">
<polygon fill="white" stroke="#666666" points="204.12,-103.25 121.38,-103.25 121.38,-84 204.12,-84 204.12,-103.25"/>
<text text-anchor="middle" x="162.75" y="-89.75" font-family="Helvetica,sans-Serif" font-size="10.00">dBgS_RoofChk</text>
</a>
</g>
</g>
<!-- Node1&#45;&gt;Node23 -->
<g id="edge22_Node000001_Node000023" class="edge">
<title>Node1&#45;&gt;Node23</title>
<g id="a_edge22_Node000001_Node000023"><a xlink:title=" ">
<path fill="none" stroke="#63b8ff" d="M91.88,-104.06C101.58,-102.61 111.62,-101.11 120.96,-99.72"/>
<polygon fill="#63b8ff" stroke="#63b8ff" points="91.58,-100.57 82.2,-105.51 92.61,-107.49 91.58,-100.57"/>
</a>
</g>
</g>
<!-- Node26 -->
<g id="Node000026" class="node">
<title>Node26</title>
<g id="a_Node000026"><a xlink:href="classdBgS__SphChk.html" target="_top" xlink:title=" ">
<polygon fill="white" stroke="#666666" points="202.62,-66.25 122.88,-66.25 122.88,-47 202.62,-47 202.62,-66.25"/>
<text text-anchor="middle" x="162.75" y="-52.75" font-family="Helvetica,sans-Serif" font-size="10.00">dBgS_SphChk</text>
</a>
</g>
</g>
<!-- Node1&#45;&gt;Node26 -->
<g id="edge25_Node000001_Node000026" class="edge">
<title>Node1&#45;&gt;Node26</title>
<g id="a_edge25_Node000001_Node000026"><a xlink:title=" ">
<path fill="none" stroke="#63b8ff" d="M70.46,-96.6C84.3,-89.65 101.13,-81.45 116.5,-74.62 122.53,-71.95 129.08,-69.23 135.28,-66.75"/>
<polygon fill="#63b8ff" stroke="#63b8ff" points="69.23,-93.3 61.89,-100.94 72.39,-99.54 69.23,-93.3"/>
</a>
</g>
</g>
<!-- Node27 -->
<g id="Node000027" class="node">
<title>Node27</title>
<g id="a_Node000027"><a xlink:href="classdBgS__SplGrpChk.html" target="_top" xlink:title=" ">
<polygon fill="white" stroke="#666666" points="209,-29.25 116.5,-29.25 116.5,-10 209,-10 209,-29.25"/>
<text text-anchor="middle" x="162.75" y="-15.75" font-family="Helvetica,sans-Serif" font-size="10.00">dBgS_SplGrpChk</text>
</a>
</g>
</g>
<!-- Node1&#45;&gt;Node27 -->
<g id="edge26_Node000001_Node000027" class="edge">
<title>Node1&#45;&gt;Node27</title>
<g id="a_edge26_Node000001_Node000027"><a xlink:title=" ">
<path fill="none" stroke="#63b8ff" d="M56.36,-93.02C70.49,-76.63 92.89,-53.02 116.5,-37.62 121.17,-34.58 126.45,-31.9 131.7,-29.62"/>
<polygon fill="#63b8ff" stroke="#63b8ff" points="53.78,-90.66 50.03,-100.57 59.14,-95.16 53.78,-90.66"/>
</a>
</g>
</g>
<!-- Node3 -->
<g id="Node000003" class="node">
<title>Node3</title>
<g id="a_Node000003"><a xlink:href="structdBgS__GndChk.html" target="_top" xlink:title=" ">
<polygon fill="white" stroke="#666666" points="336,-333.25 255.5,-333.25 255.5,-314 336,-314 336,-333.25"/>
<text text-anchor="middle" x="295.75" y="-319.75" font-family="Helvetica,sans-Serif" font-size="10.00">dBgS_GndChk</text>
</a>
</g>
</g>
<!-- Node2&#45;&gt;Node3 -->
<g id="edge2_Node000002_Node000003" class="edge">
<title>Node2&#45;&gt;Node3</title>
<g id="a_edge2_Node000002_Node000003"><a xlink:title=" ">
<path fill="none" stroke="#63b8ff" d="M196.01,-278.4C219.88,-289.33 251.76,-303.93 272.75,-313.55"/>
<polygon fill="#63b8ff" stroke="#63b8ff" points="197.6,-275.28 187.05,-274.3 194.69,-281.64 197.6,-275.28"/>
</a>
</g>
</g>
<!-- Node4 -->
<g id="Node000004" class="node">
<title>Node4</title>
<g id="a_Node000004"><a xlink:href="classdBgS__CamGndChk.html" target="_top" xlink:title=" ">
<polygon fill="white" stroke="#666666" points="495.62,-389.25 394.88,-389.25 394.88,-370 495.62,-370 495.62,-389.25"/>
<text text-anchor="middle" x="445.25" y="-375.75" font-family="Helvetica,sans-Serif" font-size="10.00">dBgS_CamGndChk</text>
</a>
</g>
</g>
<!-- Node3&#45;&gt;Node4 -->
<g id="edge3_Node000003_Node000004" class="edge">
<title>Node3&#45;&gt;Node4</title>
<g id="a_edge3_Node000003_Node000004"><a xlink:title=" ">
<path fill="none" stroke="#63b8ff" d="M327.21,-338.31C343.42,-345.82 363.81,-354.79 382.5,-361.62 390.26,-364.46 398.7,-367.16 406.76,-369.57"/>
<polygon fill="#63b8ff" stroke="#63b8ff" points="329.14,-335.35 318.6,-334.27 326.16,-341.69 329.14,-335.35"/>
</a>
</g>
</g>
<!-- Node6 -->
<g id="Node000006" class="node">
<title>Node6</title>
<g id="a_Node000006"><a xlink:href="classdBgS__LinkGndChk.html" target="_top" xlink:title=" ">
<polygon fill="white" stroke="#666666" points="494.88,-352.25 395.62,-352.25 395.62,-333 494.88,-333 494.88,-352.25"/>
<text text-anchor="middle" x="445.25" y="-338.75" font-family="Helvetica,sans-Serif" font-size="10.00">dBgS_LinkGndChk</text>
</a>
</g>
</g>
<!-- Node3&#45;&gt;Node6 -->
<g id="edge5_Node000003_Node000006" class="edge">
<title>Node3&#45;&gt;Node6</title>
<g id="a_edge5_Node000003_Node000006"><a xlink:title=" ">
<path fill="none" stroke="#63b8ff" d="M347.29,-330.14C362.85,-332.14 379.94,-334.34 395.39,-336.33"/>
<polygon fill="#63b8ff" stroke="#63b8ff" points="348.14,-326.72 337.78,-328.91 347.25,-333.66 348.14,-326.72"/>
</a>
</g>
</g>
<!-- Node7 -->
<g id="Node000007" class="node">
<title>Node7</title>
<g id="a_Node000007"><a xlink:href="structdBgS__ObjGndChk.html" target="_top" xlink:title=" ">
<polygon fill="white" stroke="#666666" points="493,-315.25 397.5,-315.25 397.5,-296 493,-296 493,-315.25"/>
<text text-anchor="middle" x="445.25" y="-301.75" font-family="Helvetica,sans-Serif" font-size="10.00">dBgS_ObjGndChk</text>
</a>
</g>
</g>
<!-- Node3&#45;&gt;Node7 -->
<g id="edge6_Node000003_Node000007" class="edge">
<title>Node3&#45;&gt;Node7</title>
<g id="a_edge6_Node000003_Node000007"><a xlink:title=" ">
<path fill="none" stroke="#63b8ff" d="M347.61,-317.42C363.63,-315.46 381.25,-313.31 397,-311.39"/>
<polygon fill="#63b8ff" stroke="#63b8ff" points="347.28,-313.93 337.78,-318.62 348.13,-320.88 347.28,-313.93"/>
</a>
</g>
</g>
<!-- Node5 -->
<g id="Node000005" class="node">
<title>Node5</title>
<g id="a_Node000005"><a xlink:href="classdBgS__CamGndChk__Wtr.html" target="_top" xlink:title=" ">
<polygon fill="white" stroke="#666666" points="670.62,-389.25 549.62,-389.25 549.62,-370 670.62,-370 670.62,-389.25"/>
<text text-anchor="middle" x="610.12" y="-375.75" font-family="Helvetica,sans-Serif" font-size="10.00">dBgS_CamGndChk_Wtr</text>
</a>
</g>
</g>
<!-- Node4&#45;&gt;Node5 -->
<g id="edge4_Node000004_Node000005" class="edge">
<title>Node4&#45;&gt;Node5</title>
<g id="a_edge4_Node000004_Node000005"><a xlink:title=" ">
<path fill="none" stroke="#63b8ff" d="M507.32,-379.62C521.08,-379.62 535.66,-379.62 549.36,-379.62"/>
<polygon fill="#63b8ff" stroke="#63b8ff" points="507.52,-376.13 497.52,-379.63 507.52,-383.13 507.52,-376.13"/>
</a>
</g>
</g>
<!-- Node8 -->
<g id="Node000008" class="node">
<title>Node8</title>
<g id="a_Node000008"><a xlink:href="classdBgS__ObjGndChk__All.html" target="_top" xlink:title=" ">
<polygon fill="white" stroke="#666666" points="666.12,-352.25 554.12,-352.25 554.12,-333 666.12,-333 666.12,-352.25"/>
<text text-anchor="middle" x="610.12" y="-338.75" font-family="Helvetica,sans-Serif" font-size="10.00">dBgS_ObjGndChk_All</text>
</a>
</g>
</g>
<!-- Node7&#45;&gt;Node8 -->
<g id="edge7_Node000007_Node000008" class="edge">
<title>Node7&#45;&gt;Node8</title>
<g id="a_edge7_Node000007_Node000008"><a xlink:title=" ">
<path fill="none" stroke="#63b8ff" d="M501.86,-318.26C522.35,-322.91 545.29,-328.12 564.67,-332.53"/>
<polygon fill="#63b8ff" stroke="#63b8ff" points="502.76,-314.87 492.23,-316.07 501.21,-321.7 502.76,-314.87"/>
</a>
</g>
</g>
<!-- Node9 -->
<g id="Node000009" class="node">
<title>Node9</title>
<g id="a_Node000009"><a xlink:href="structdBgS__ObjGndChk__Spl.html" target="_top" xlink:title=" ">
<polygon fill="white" stroke="#666666" points="667.62,-315.25 552.62,-315.25 552.62,-296 667.62,-296 667.62,-315.25"/>
<text text-anchor="middle" x="610.12" y="-301.75" font-family="Helvetica,sans-Serif" font-size="10.00">dBgS_ObjGndChk_Spl</text>
</a>
</g>
</g>
<!-- Node7&#45;&gt;Node9 -->
<g id="edge8_Node000007_Node000009" class="edge">
<title>Node7&#45;&gt;Node9</title>
<g id="a_edge8_Node000007_Node000009"><a xlink:title=" ">
<path fill="none" stroke="#63b8ff" d="M504.44,-305.62C520.01,-305.62 536.82,-305.62 552.31,-305.62"/>
<polygon fill="#63b8ff" stroke="#63b8ff" points="504.87,-302.13 494.87,-305.63 504.87,-309.13 504.87,-302.13"/>
</a>
</g>
</g>
<!-- Node10 -->
<g id="Node000010" class="node">
<title>Node10</title>
<g id="a_Node000010"><a xlink:href="classdBgS__ObjGndChk__Wtr.html" target="_top" xlink:title=" ">
<polygon fill="white" stroke="#666666" points="668,-278.25 552.25,-278.25 552.25,-259 668,-259 668,-278.25"/>
<text text-anchor="middle" x="610.12" y="-264.75" font-family="Helvetica,sans-Serif" font-size="10.00">dBgS_ObjGndChk_Wtr</text>
</a>
</g>
</g>
<!-- Node7&#45;&gt;Node10 -->
<g id="edge9_Node000007_Node000010" class="edge">
<title>Node7&#45;&gt;Node10</title>
<g id="a_edge9_Node000007_Node000010"><a xlink:title=" ">
<path fill="none" stroke="#63b8ff" d="M501.86,-292.99C522.35,-288.34 545.29,-283.13 564.67,-278.72"/>
<polygon fill="#63b8ff" stroke="#63b8ff" points="501.21,-289.55 492.23,-295.18 502.76,-296.38 501.21,-289.55"/>
</a>
</g>
</g>
<!-- Node12 -->
<g id="Node000012" class="node">
<title>Node12</title>
<g id="a_Node000012"><a xlink:href="structdBgS__LinChk.html" target="_top" xlink:title=" ">
<polygon fill="white" stroke="#666666" points="333.75,-167.25 257.75,-167.25 257.75,-148 333.75,-148 333.75,-167.25"/>
<text text-anchor="middle" x="295.75" y="-153.75" font-family="Helvetica,sans-Serif" font-size="10.00">dBgS_LinChk</text>
</a>
</g>
</g>
<!-- Node11&#45;&gt;Node12 -->
<g id="edge11_Node000011_Node000012" class="edge">
<title>Node11&#45;&gt;Node12</title>
<g id="a_edge11_Node000011_Node000012"><a xlink:title=" ">
<path fill="none" stroke="#63b8ff" d="M212.09,-163.93C227.08,-162.79 243.35,-161.55 257.47,-160.47"/>
<polygon fill="#63b8ff" stroke="#63b8ff" points="212.15,-160.42 202.45,-164.67 212.69,-167.4 212.15,-160.42"/>
</a>
</g>
</g>
<!-- Node13 -->
<g id="Node000013" class="node">
<title>Node13</title>
<g id="a_Node000013"><a xlink:href="classdBgS__ArrowLinChk.html" target="_top" xlink:title=" ">
<polygon fill="white" stroke="#666666" points="496,-278.25 394.5,-278.25 394.5,-259 496,-259 496,-278.25"/>
<text text-anchor="middle" x="445.25" y="-264.75" font-family="Helvetica,sans-Serif" font-size="10.00">dBgS_ArrowLinChk</text>
</a>
</g>
</g>
<!-- Node12&#45;&gt;Node13 -->
<g id="edge12_Node000012_Node000013" class="edge">
<title>Node12&#45;&gt;Node13</title>
<g id="a_edge12_Node000012_Node000013"><a xlink:title=" ">
<path fill="none" stroke="#63b8ff" d="M309.64,-176.96C324.7,-198.08 351.54,-231.44 382.5,-250.62 387.53,-253.74 393.13,-256.34 398.83,-258.5"/>
<polygon fill="#63b8ff" stroke="#63b8ff" points="312.66,-175.17 304.09,-168.94 306.9,-179.15 312.66,-175.17"/>
</a>
</g>
</g>
<!-- Node14 -->
<g id="Node000014" class="node">
<title>Node14</title>
<g id="a_Node000014"><a xlink:href="classdBgS__BombLinChk.html" target="_top" xlink:title=" ">
<polygon fill="white" stroke="#666666" points="496,-241.25 394.5,-241.25 394.5,-222 496,-222 496,-241.25"/>
<text text-anchor="middle" x="445.25" y="-227.75" font-family="Helvetica,sans-Serif" font-size="10.00">dBgS_BombLinChk</text>
</a>
</g>
</g>
<!-- Node12&#45;&gt;Node14 -->
<g id="edge13_Node000012_Node000014" class="edge">
<title>Node12&#45;&gt;Node14</title>
<g id="a_edge13_Node000012_Node000014"><a xlink:title=" ">
<path fill="none" stroke="#63b8ff" d="M318.35,-174.31C335.09,-186.59 359.27,-202.94 382.5,-213.62 389.09,-216.66 396.32,-219.31 403.43,-221.58"/>
<polygon fill="#63b8ff" stroke="#63b8ff" points="320.73,-171.73 310.63,-168.54 316.53,-177.33 320.73,-171.73"/>
</a>
</g>
</g>
<!-- Node15 -->
<g id="Node000015" class="node">
<title>Node15</title>
<g id="a_Node000015"><a xlink:href="classdBgS__BoomerangLinChk.html" target="_top" xlink:title=" ">
<polygon fill="white" stroke="#666666" points="508,-204.25 382.5,-204.25 382.5,-185 508,-185 508,-204.25"/>
<text text-anchor="middle" x="445.25" y="-190.75" font-family="Helvetica,sans-Serif" font-size="10.00">dBgS_BoomerangLinChk</text>
</a>
</g>
</g>
<!-- Node12&#45;&gt;Node15 -->
<g id="edge14_Node000012_Node000015" class="edge">
<title>Node12&#45;&gt;Node15</title>
<g id="a_edge14_Node000012_Node000015"><a xlink:title=" ">
<path fill="none" stroke="#63b8ff" d="M345.13,-169.76C364.17,-174.54 385.77,-179.95 403.93,-184.51"/>
<polygon fill="#63b8ff" stroke="#63b8ff" points="345.99,-166.37 335.44,-167.33 344.29,-173.16 345.99,-166.37"/>
</a>
</g>
</g>
<!-- Node16 -->
<g id="Node000016" class="node">
<title>Node16</title>
<g id="a_Node000016"><a xlink:href="classdBgS__CamLinChk.html" target="_top" xlink:title=" ">
<polygon fill="white" stroke="#666666" points="493.38,-167.25 397.12,-167.25 397.12,-148 493.38,-148 493.38,-167.25"/>
<text text-anchor="middle" x="445.25" y="-153.75" font-family="Helvetica,sans-Serif" font-size="10.00">dBgS_CamLinChk</text>
</a>
</g>
</g>
<!-- Node12&#45;&gt;Node16 -->
<g id="edge15_Node000012_Node000016" class="edge">
<title>Node12&#45;&gt;Node16</title>
<g id="a_edge15_Node000012_Node000016"><a xlink:title=" ">
<path fill="none" stroke="#63b8ff" d="M345.08,-157.62C361.66,-157.62 380.19,-157.62 396.7,-157.62"/>
<polygon fill="#63b8ff" stroke="#63b8ff" points="345.48,-154.13 335.48,-157.63 345.48,-161.13 345.48,-154.13"/>
</a>
</g>
</g>
<!-- Node18 -->
<g id="Node000018" class="node">
<title>Node18</title>
<g id="a_Node000018"><a xlink:href="classdBgS__HorseLinChk.html" target="_top" xlink:title=" ">
<polygon fill="white" stroke="#666666" points="496.38,-130.25 394.12,-130.25 394.12,-111 496.38,-111 496.38,-130.25"/>
<text text-anchor="middle" x="445.25" y="-116.75" font-family="Helvetica,sans-Serif" font-size="10.00">dBgS_HorseLinChk</text>
</a>
</g>
</g>
<!-- Node12&#45;&gt;Node18 -->
<g id="edge17_Node000012_Node000018" class="edge">
<title>Node12&#45;&gt;Node18</title>
<g id="a_edge17_Node000012_Node000018"><a xlink:title=" ">
<path fill="none" stroke="#63b8ff" d="M345.13,-145.49C364.17,-140.71 385.77,-135.3 403.93,-130.74"/>
<polygon fill="#63b8ff" stroke="#63b8ff" points="344.29,-142.09 335.44,-147.92 345.99,-148.88 344.29,-142.09"/>
</a>
</g>
</g>
<!-- Node19 -->
<g id="Node000019" class="node">
<title>Node19</title>
<g id="a_Node000019"><a xlink:href="classdBgS__LinkLinChk.html" target="_top" xlink:title=" ">
<polygon fill="white" stroke="#666666" points="492.62,-93.25 397.88,-93.25 397.88,-74 492.62,-74 492.62,-93.25"/>
<text text-anchor="middle" x="445.25" y="-79.75" font-family="Helvetica,sans-Serif" font-size="10.00">dBgS_LinkLinChk</text>
</a>
</g>
</g>
<!-- Node12&#45;&gt;Node19 -->
<g id="edge18_Node000012_Node000019" class="edge">
<title>Node12&#45;&gt;Node19</title>
<g id="a_edge18_Node000012_Node000019"><a xlink:title=" ">
<path fill="none" stroke="#63b8ff" d="M327.04,-142.32C333.59,-138.7 340.38,-134.7 346.5,-130.62 363.6,-119.23 364.28,-111.13 382.5,-101.62 388.44,-98.53 394.99,-95.89 401.53,-93.67"/>
<polygon fill="#63b8ff" stroke="#63b8ff" points="325.58,-139.13 318.42,-146.94 328.89,-145.3 325.58,-139.13"/>
</a>
</g>
</g>
<!-- Node20 -->
<g id="Node000020" class="node">
<title>Node20</title>
<g id="a_Node000020"><a xlink:href="classdBgS__ObjLinChk.html" target="_top" xlink:title=" ">
<polygon fill="white" stroke="#666666" points="490.75,-56.25 399.75,-56.25 399.75,-37 490.75,-37 490.75,-56.25"/>
<text text-anchor="middle" x="445.25" y="-42.75" font-family="Helvetica,sans-Serif" font-size="10.00">dBgS_ObjLinChk</text>
</a>
</g>
</g>
<!-- Node12&#45;&gt;Node20 -->
<g id="edge19_Node000012_Node000020" class="edge">
<title>Node12&#45;&gt;Node20</title>
<g id="a_edge19_Node000012_Node000020"><a xlink:title=" ">
<path fill="none" stroke="#63b8ff" d="M331.44,-142.2C336.86,-138.87 342.11,-135.01 346.5,-130.62 370.15,-107.02 356.47,-85.57 382.5,-64.62 387.46,-60.63 393.27,-57.53 399.31,-55.11"/>
<polygon fill="#63b8ff" stroke="#63b8ff" points="330.03,-138.98 322.98,-146.89 333.42,-145.11 330.03,-138.98"/>
</a>
</g>
</g>
<!-- Node21 -->
<g id="Node000021" class="node">
<title>Node21</title>
<g id="a_Node000021"><a xlink:href="classdBgS__RopeLinChk.html" target="_top" xlink:title=" ">
<polygon fill="white" stroke="#666666" points="494.5,-19.25 396,-19.25 396,0 494.5,0 494.5,-19.25"/>
<text text-anchor="middle" x="445.25" y="-5.75" font-family="Helvetica,sans-Serif" font-size="10.00">dBgS_RopeLinChk</text>
</a>
</g>
</g>
<!-- Node12&#45;&gt;Node21 -->
<g id="edge20_Node000012_Node000021" class="edge">
<title>Node12&#45;&gt;Node21</title>
<g id="a_edge20_Node000012_Node000021"><a xlink:title=" ">
<path fill="none" stroke="#63b8ff" d="M333.24,-142.03C338.15,-138.79 342.77,-135 346.5,-130.62 377.92,-93.69 347.32,-61 382.5,-27.62 386.31,-24.01 390.8,-21.12 395.59,-18.8"/>
<polygon fill="#63b8ff" stroke="#63b8ff" points="331.82,-138.81 324.91,-146.83 335.32,-144.87 331.82,-138.81"/>
</a>
</g>
</g>
<!-- Node17 -->
<g id="Node000017" class="node">
<title>Node17</title>
<g id="a_Node000017"><a xlink:href="classdBgS__CamLinChk__NorWtr.html" target="_top" xlink:title=" ">
<polygon fill="white" stroke="#666666" points="676.25,-167.25 544,-167.25 544,-148 676.25,-148 676.25,-167.25"/>
<text text-anchor="middle" x="610.12" y="-153.75" font-family="Helvetica,sans-Serif" font-size="10.00">dBgS_CamLinChk_NorWtr</text>
</a>
</g>
</g>
<!-- Node16&#45;&gt;Node17 -->
<g id="edge16_Node000016_Node000017" class="edge">
<title>Node16&#45;&gt;Node17</title>
<g id="a_edge16_Node000016_Node000017"><a xlink:title=" ">
<path fill="none" stroke="#63b8ff" d="M505.05,-157.62C517.58,-157.62 530.9,-157.62 543.66,-157.62"/>
<polygon fill="#63b8ff" stroke="#63b8ff" points="505.31,-154.13 495.31,-157.63 505.31,-161.13 505.31,-154.13"/>
</a>
</g>
</g>
<!-- Node24 -->
<g id="Node000024" class="node">
<title>Node24</title>
<g id="a_Node000024"><a xlink:href="classdBgS__LinkRoofChk.html" target="_top" xlink:title=" ">
<polygon fill="white" stroke="#666666" points="346.5,-121.25 245,-121.25 245,-102 346.5,-102 346.5,-121.25"/>
<text text-anchor="middle" x="295.75" y="-107.75" font-family="Helvetica,sans-Serif" font-size="10.00">dBgS_LinkRoofChk</text>
</a>
</g>
</g>
<!-- Node23&#45;&gt;Node24 -->
<g id="edge23_Node000023_Node000024" class="edge">
<title>Node23&#45;&gt;Node24</title>
<g id="a_edge23_Node000023_Node000024"><a xlink:title=" ">
<path fill="none" stroke="#63b8ff" d="M215.87,-100.79C225.41,-102.1 235.34,-103.46 244.82,-104.76"/>
<polygon fill="#63b8ff" stroke="#63b8ff" points="216.36,-97.32 205.98,-99.43 215.41,-104.26 216.36,-97.32"/>
</a>
</g>
</g>
<!-- Node25 -->
<g id="Node000025" class="node">
<title>Node25</title>
<g id="a_Node000025"><a xlink:href="classdBgS__ObjRoofChk.html" target="_top" xlink:title=" ">
<polygon fill="white" stroke="#666666" points="344.62,-84.25 246.88,-84.25 246.88,-65 344.62,-65 344.62,-84.25"/>
<text text-anchor="middle" x="295.75" y="-70.75" font-family="Helvetica,sans-Serif" font-size="10.00">dBgS_ObjRoofChk</text>
</a>
</g>
</g>
<!-- Node23&#45;&gt;Node25 -->
<g id="edge24_Node000023_Node000025" class="edge">
<title>Node23&#45;&gt;Node25</title>
<g id="a_edge24_Node000023_Node000025"><a xlink:title=" ">
<path fill="none" stroke="#63b8ff" d="M215.75,-86.08C225.96,-84.6 236.62,-83.06 246.69,-81.59"/>
<polygon fill="#63b8ff" stroke="#63b8ff" points="215.37,-82.6 205.98,-87.5 216.38,-89.53 215.37,-82.6"/>
</a>
</g>
</g>
<!-- Node28 -->
<g id="Node000028" class="node">
<title>Node28</title>
<g id="a_Node000028"><a xlink:href="classdBgS__WtrChk.html" target="_top" xlink:title=" ">
<polygon fill="white" stroke="#666666" points="334.5,-29.25 257,-29.25 257,-10 334.5,-10 334.5,-29.25"/>
<text text-anchor="middle" x="295.75" y="-15.75" font-family="Helvetica,sans-Serif" font-size="10.00">dBgS_WtrChk</text>
</a>
</g>
</g>
<!-- Node27&#45;&gt;Node28 -->
<g id="edge27_Node000027_Node000028" class="edge">
<title>Node27&#45;&gt;Node28</title>
<g id="a_edge27_Node000027_Node000028"><a xlink:title=" ">
<path fill="none" stroke="#63b8ff" d="M220.71,-19.62C232.9,-19.62 245.5,-19.62 256.77,-19.62"/>
<polygon fill="#63b8ff" stroke="#63b8ff" points="220.71,-16.13 210.71,-19.63 220.71,-23.13 220.71,-16.13"/>
</a>
</g>
</g>
</g>
</svg>

<g id="navigator" transform="translate(0 0)" fill="#404254">
  <rect fill="#f2f5e9" fill-opacity="0.5" stroke="#606060" stroke-width=".5" x="0" y="0" width="60" height="60"/>
  <use id="zoomplus" xlink:href="#zoomPlus" x="17" y="9" onmousedown="handleZoom(evt,'in')"/>
  <use id="zoomminus" xlink:href="#zoomMin" x="42" y="9" onmousedown="handleZoom(evt,'out')"/>
  <use id="reset" xlink:href="#resetDef" x="30" y="36" onmousedown="handleReset()"/>
   <use id="arrowup" xlink:href="#arrowUp" x="0" y="0" onmousedown="handlePan(0,-1)"/>
  <use id="arrowright" xlink:href="#arrowRight" x="0" y="0" onmousedown="handlePan(1,0)"/>
  <use id="arrowdown" xlink:href="#arrowDown" x="0" y="0" onmousedown="handlePan(0,1)"/>
  <use id="arrowleft" xlink:href="#arrowLeft" x="0" y="0" onmousedown="handlePan(-1,0)"/>
</g>
<svg viewBox="0 0 15 15" width="100%" height="30px" preserveAspectRatio="xMaxYMin meet">
 <g id="arrow_out" transform="scale(0.3 0.3)">
  <a xlink:href="structcBgS__PolyInfo__inherit__graph_org.svg" target="_base">
   <rect id="button" ry="5" rx="5" y="6" x="6" height="38" width="38"
        fill="#f2f5e9" fill-opacity="0.5" stroke="#606060" stroke-width="1.0"/>
   <path id="arrow"
     d="M 11.500037,31.436501 C 11.940474,20.09759 22.043105,11.32322 32.158766,21.979434 L 37.068811,17.246167 C 37.068811,17.246167 37.088388,32 37.088388,32 L 22.160133,31.978069 C 22.160133,31.978069 26.997745,27.140456 26.997745,27.140456 C 18.528582,18.264221 13.291696,25.230495 11.500037,31.436501 z"
     style="fill:#404040;"/>
  </a>
 </g>
</svg>

<style type='text/css'>
<![CDATA[
[data-mouse-over-selected='false'] { opacity: 0.7; }
[data-mouse-over-selected='true']  { opacity: 1.0; }
]]>
</style>
<script type="application/ecmascript"><![CDATA[
document.addEventListener('DOMContentLoaded', (event) => {
  highlightEdges();
  highlightAdjacentNodes();
});
]]></script>
</svg>
