<?xml version="1.0" encoding="UTF-8" standalone="no"?>
<!DOCTYPE svg PUBLIC "-//W3C//DTD SVG 1.1//EN"
 "http://www.w3.org/Graphics/SVG/1.1/DTD/svg11.dtd">
<!-- Generated by graphviz version 9.0.0 (20230911.1827)
 -->
<!-- Title: cM3dGSph Pages: 1 -->
<svg width="184pt" height="138pt"
 viewBox="0.00 0.00 184.00 137.75" xmlns="http://www.w3.org/2000/svg" xmlns:xlink="http://www.w3.org/1999/xlink">
<g id="graph0" class="graph" transform="scale(1 1) rotate(0) translate(4 133.75)">
<title>cM3dGSph</title>
<!-- Node1 -->
<g id="Node000001" class="node">
<title>Node1</title>
<g id="a_Node000001"><a xlink:title=" ">
<polygon fill="#999999" stroke="#666666" points="119.5,-129.75 54.75,-129.75 54.75,-110.5 119.5,-110.5 119.5,-129.75"/>
<text text-anchor="middle" x="87.12" y="-116.25" font-family="Helvetica,sans-Serif" font-size="10.00">cM3dGSph</text>
</a>
</g>
</g>
<!-- Node2 -->
<g id="Node000002" class="node">
<title>Node2</title>
<g id="a_Node000002"><a xlink:href="classcCcD__SphAttr.html" target="_top" xlink:title=" ">
<polygon fill="white" stroke="#666666" points="78.25,-74.5 0,-74.5 0,-55.25 78.25,-55.25 78.25,-74.5"/>
<text text-anchor="middle" x="39.12" y="-61" font-family="Helvetica,sans-Serif" font-size="10.00">cCcD_SphAttr</text>
</a>
</g>
</g>
<!-- Node1&#45;&gt;Node2 -->
<g id="edge1_Node000001_Node000002" class="edge">
<title>Node1&#45;&gt;Node2</title>
<g id="a_edge1_Node000001_Node000002"><a xlink:title=" ">
<path fill="none" stroke="#63b8ff" d="M71.73,-102.04C63.58,-93 53.91,-82.27 47.22,-74.86"/>
<polygon fill="#63b8ff" stroke="#63b8ff" points="68.89,-104.12 78.19,-109.21 74.09,-99.44 68.89,-104.12"/>
</a>
</g>
</g>
<!-- Node4 -->
<g id="Node000004" class="node">
<title>Node4</title>
<g id="a_Node000004"><a xlink:href="classdBgS__SphChk.html" target="_top" xlink:title=" ">
<polygon fill="white" stroke="#666666" points="176,-74.5 96.25,-74.5 96.25,-55.25 176,-55.25 176,-74.5"/>
<text text-anchor="middle" x="136.12" y="-61" font-family="Helvetica,sans-Serif" font-size="10.00">dBgS_SphChk</text>
</a>
</g>
</g>
<!-- Node1&#45;&gt;Node4 -->
<g id="edge3_Node000001_Node000004" class="edge">
<title>Node1&#45;&gt;Node4</title>
<g id="a_edge3_Node000001_Node000004"><a xlink:title=" ">
<path fill="none" stroke="#63b8ff" d="M102.84,-102.04C111.16,-93 121.04,-82.27 127.86,-74.86"/>
<polygon fill="#63b8ff" stroke="#63b8ff" points="100.44,-99.49 96.24,-109.22 105.59,-104.23 100.44,-99.49"/>
</a>
</g>
</g>
<!-- Node3 -->
<g id="Node000003" class="node">
<title>Node3</title>
<g id="a_Node000003"><a xlink:href="classdCcD__Sph.html" target="_top" xlink:title=" ">
<polygon fill="white" stroke="#666666" points="70.38,-19.25 7.88,-19.25 7.88,0 70.38,0 70.38,-19.25"/>
<text text-anchor="middle" x="39.12" y="-5.75" font-family="Helvetica,sans-Serif" font-size="10.00">dCcD_Sph</text>
</a>
</g>
</g>
<!-- Node2&#45;&gt;Node3 -->
<g id="edge2_Node000002_Node000003" class="edge">
<title>Node2&#45;&gt;Node3</title>
<g id="a_edge2_Node000002_Node000003"><a xlink:title=" ">
<path fill="none" stroke="#63b8ff" d="M39.12,-43.63C39.12,-35.34 39.12,-26.17 39.12,-19.61"/>
<polygon fill="#63b8ff" stroke="#63b8ff" points="35.63,-43.57 39.13,-53.57 42.63,-43.57 35.63,-43.57"/>
</a>
</g>
</g>
</g>
</svg>
