<?xml version="1.0" encoding="UTF-8" standalone="no"?>
<!DOCTYPE svg PUBLIC "-//W3C//DTD SVG 1.1//EN"
 "http://www.w3.org/Graphics/SVG/1.1/DTD/svg11.dtd">
<!-- Generated by graphviz version 9.0.0 (20230911.1827)
 -->
<!-- Title: Z2SpeechMgr2 Pages: 1 -->
<!--zoomable 454 -->

<svg id="main" version="1.1" xmlns="http://www.w3.org/2000/svg" xmlns:xlink="http://www.w3.org/1999/xlink" xml:space="preserve" onload="init(evt)">
<style type="text/css"><![CDATA[
.node, .edge {opacity: 0.7;}
.node.selected, .edge.selected {opacity: 1;}
.edge:hover path { stroke: red; }
.edge:hover polygon { stroke: red; fill: red; }
]]></style>

<defs>
  <circle id="rim" cx="0" cy="0" r="7"/>
  <circle id="rim2" cx="0" cy="0" r="3.5"/>
  <g id="zoomPlus">
    <use xlink:href="#rim" fill="#404040"><set attributeName="fill" to="#808080" begin="zoomplus.mouseover" end="zoomplus.mouseout"/></use>
    <path d="M-4,0h8M0,-4v8" fill="none" stroke="white" stroke-width="1.5" pointer-events="none"/>
  </g>
  <g id="zoomMin">
    <use xlink:href="#rim" fill="#404040"><set attributeName="fill" to="#808080" begin="zoomminus.mouseover" end="zoomminus.mouseout"/></use>
    <path d="M-4,0h8" fill="none" stroke="white" stroke-width="1.5" pointer-events="none"/>
  </g>
  <g id="arrowUp" transform="translate(30 24)">
    <use xlink:href="#rim"/>
    <path pointer-events="none" fill="none" stroke="white" stroke-width="1.5" d="M0,-3.0v7 M-2.5,-0.5L0,-3.0L2.5,-0.5"/>
  </g>
  <g id="arrowRight" transform="rotate(90) translate(36 -43)">
    <use xlink:href="#rim"/>
    <path pointer-events="none" fill="none" stroke="white" stroke-width="1.5" d="M0,-3.0v7 M-2.5,-0.5L0,-3.0L2.5,-0.5"/>
  </g>
  <g id="arrowDown" transform="rotate(180) translate(-30 -48)">
    <use xlink:href="#rim"/>
    <path pointer-events="none" fill="none" stroke="white" stroke-width="1.5" d="M0,-3.0v7 M-2.5,-0.5L0,-3.0L2.5,-0.5"/>
  </g>
  <g id="arrowLeft" transform="rotate(270) translate(-36 17)">
    <use xlink:href="#rim"/>
    <path pointer-events="none" fill="none" stroke="white" stroke-width="1.5" d="M0,-3.0v7 M-2.5,-0.5L0,-3.0L2.5,-0.5"/>
  </g>
  <g id="resetDef">
    <use xlink:href="#rim2" fill="#404040"><set attributeName="fill" to="#808080" begin="reset.mouseover" end="reset.mouseout"/></use>
  </g>
</defs>
<script type="application/ecmascript">
var viewWidth = 1169;
var viewHeight = 454;
var sectionId = 'dynsection-1';
</script>
<script type="application/ecmascript" xlink:href="svg.min.js"/>
<svg id="graph" class="graph">
<g id="viewport">
<title>Z2SpeechMgr2</title>
<!-- Node1 -->
<g id="Node000001" class="node">
<title>Node1</title>
<g id="a_Node000001"><a xlink:title=" ">
<polygon fill="#999999" stroke="#666666" points="973.5,-120.88 891.5,-120.88 891.5,-101.62 973.5,-101.62 973.5,-120.88"/>
<text text-anchor="middle" x="932.5" y="-107.38" font-family="Helvetica,sans-Serif" font-size="10.00">Z2SpeechMgr2</text>
</a>
</g>
</g>
<!-- Node2 -->
<g id="Node000002" class="node">
<title>Node2</title>
<g id="a_Node000002"><a xlink:href="classJASGlobalInstance.html" target="_top" xlink:title=" ">
<polygon fill="white" stroke="#666666" points="1160.5,-126.5 1054.5,-126.5 1054.5,-96 1160.5,-96 1160.5,-126.5"/>
<text text-anchor="start" x="1062.5" y="-113" font-family="Helvetica,sans-Serif" font-size="10.00">JASGlobalInstance&lt;</text>
<text text-anchor="middle" x="1107.5" y="-101.75" font-family="Helvetica,sans-Serif" font-size="10.00"> Z2SpeechMgr2 &gt;</text>
</a>
</g>
</g>
<!-- Node1&#45;&gt;Node2 -->
<g id="edge2_Node000002_Node000001" class="edge">
<title>Node1&#45;&gt;Node2</title>
<g id="a_edge2_Node000002_Node000001"><a xlink:title=" ">
<path fill="none" stroke="#9a32cd" stroke-dasharray="5,2" d="M985,-111.25C1006.82,-111.25 1032.21,-111.25 1054.12,-111.25"/>
<polygon fill="#9a32cd" stroke="#9a32cd" points="985.14,-107.75 975.14,-111.25 985.14,-114.75 985.14,-107.75"/>
</a>
</g>
<text text-anchor="middle" x="1014" y="-113" font-family="Helvetica,sans-Serif" font-size="10.00" fill="grey"> sInstance</text>
</g>
<!-- Node2&#45;&gt;Node1 -->
<g id="edge1_Node000001_Node000002" class="edge">
<title>Node2&#45;&gt;Node1</title>
<g id="a_edge1_Node000001_Node000002"><a xlink:title=" ">
<path fill="none" stroke="#63b8ff" d="M1042.75,-109.35C1040.64,-109.31 1038.55,-109.28 1036.5,-109.25 1016.5,-108.96 1011.5,-108.91 991.5,-109.25 985.76,-109.35 979.7,-109.5 973.74,-109.68"/>
<polygon fill="#63b8ff" stroke="#63b8ff" points="1042.55,-112.85 1052.62,-109.56 1042.7,-105.85 1042.55,-112.85"/>
</a>
</g>
</g>
<!-- Node3 -->
<g id="Node000003" class="node">
<title>Node3</title>
<g id="a_Node000003"><a xlink:href="classJAISoundHandle.html" target="_top" xlink:title=" ">
<polygon fill="white" stroke="#666666" points="795.5,-200.88 706,-200.88 706,-181.62 795.5,-181.62 795.5,-200.88"/>
<text text-anchor="middle" x="750.75" y="-187.38" font-family="Helvetica,sans-Serif" font-size="10.00">JAISoundHandle</text>
</a>
</g>
</g>
<!-- Node3&#45;&gt;Node1 -->
<g id="edge3_Node000001_Node000003" class="edge">
<title>Node3&#45;&gt;Node1</title>
<g id="a_edge3_Node000001_Node000003"><a xlink:title=" ">
<path fill="none" stroke="#9a32cd" stroke-dasharray="5,2" d="M776.15,-175.07C790.55,-165.98 809.35,-154.86 827,-146.75 849.29,-136.51 875.41,-127.63 895.96,-121.32"/>
<polygon fill="#9a32cd" stroke="#9a32cd" points="774.32,-172.09 767.8,-180.45 778.11,-177.98 774.32,-172.09"/>
</a>
</g>
<text text-anchor="middle" x="850.25" y="-159.25" font-family="Helvetica,sans-Serif" font-size="10.00" fill="grey"> field_0x0</text>
<text text-anchor="middle" x="850.25" y="-148" font-family="Helvetica,sans-Serif" font-size="10.00" fill="grey">field_0x4</text>
</g>
<!-- Node4 -->
<g id="Node000004" class="node">
<title>Node4</title>
<g id="a_Node000004"><a xlink:href="classJAISound.html" target="_top" xlink:title=" ">
<polygon fill="white" stroke="#666666" points="961.88,-313.88 903.12,-313.88 903.12,-294.62 961.88,-294.62 961.88,-313.88"/>
<text text-anchor="middle" x="932.5" y="-300.38" font-family="Helvetica,sans-Serif" font-size="10.00">JAISound</text>
</a>
</g>
</g>
<!-- Node3&#45;&gt;Node4 -->
<g id="edge5_Node000004_Node000003" class="edge">
<title>Node3&#45;&gt;Node4</title>
<g id="a_edge5_Node000004_Node000003"><a xlink:title=" ">
<path fill="none" stroke="#9a32cd" stroke-dasharray="5,2" d="M806.8,-203.1C828.84,-209.57 853.67,-219.17 873.5,-233 897.44,-249.7 916.79,-278.93 925.88,-294.25"/>
<polygon fill="#9a32cd" stroke="#9a32cd" points="807.93,-199.78 797.35,-200.48 806.06,-206.52 807.93,-199.78"/>
</a>
</g>
<text text-anchor="middle" x="850.25" y="-234" font-family="Helvetica,sans-Serif" font-size="10.00" fill="grey"> handle_</text>
</g>
<!-- Node4&#45;&gt;Node3 -->
<g id="edge4_Node000003_Node000004" class="edge">
<title>Node4&#45;&gt;Node3</title>
<g id="a_edge4_Node000003_Node000004"><a xlink:title=" ">
<path fill="none" stroke="#9a32cd" stroke-dasharray="5,2" d="M927.52,-283.39C921.21,-256.83 906.11,-211.99 873.5,-192 850.16,-177.69 819.28,-177.67 794.46,-181.14"/>
<polygon fill="#9a32cd" stroke="#9a32cd" points="924.05,-283.94 929.57,-292.99 930.9,-282.47 924.05,-283.94"/>
</a>
</g>
<text text-anchor="middle" x="850.25" y="-193" font-family="Helvetica,sans-Serif" font-size="10.00" fill="grey"> sound_</text>
</g>
<!-- Node5 -->
<g id="Node000005" class="node">
<title>Node5</title>
<g id="a_Node000005"><a xlink:href="classJAIAudible.html" target="_top" xlink:title=" ">
<polygon fill="white" stroke="#666666" points="782.38,-443.88 719.12,-443.88 719.12,-424.62 782.38,-424.62 782.38,-443.88"/>
<text text-anchor="middle" x="750.75" y="-430.38" font-family="Helvetica,sans-Serif" font-size="10.00">JAIAudible</text>
</a>
</g>
</g>
<!-- Node5&#45;&gt;Node4 -->
<g id="edge6_Node000004_Node000005" class="edge">
<title>Node5&#45;&gt;Node4</title>
<g id="a_edge6_Node000004_Node000005"><a xlink:title=" ">
<path fill="none" stroke="#9a32cd" stroke-dasharray="5,2" d="M793.87,-427.08C819.05,-421.12 850.51,-410.54 873.5,-392.25 900.85,-370.49 919.67,-332.21 927.47,-314.18"/>
<polygon fill="#9a32cd" stroke="#9a32cd" points="793.3,-423.63 784.28,-429.19 794.79,-430.47 793.3,-423.63"/>
</a>
</g>
<text text-anchor="middle" x="850.25" y="-418" font-family="Helvetica,sans-Serif" font-size="10.00" fill="grey"> audible_</text>
</g>
<!-- Node6 -->
<g id="Node000006" class="node">
<title>Node6</title>
<g id="a_Node000006"><a xlink:href="structJGeometry_1_1TVec3.html" target="_top" xlink:title=" ">
<polygon fill="white" stroke="#666666" points="610,-443.88 479.25,-443.88 479.25,-424.62 610,-424.62 610,-443.88"/>
<text text-anchor="middle" x="544.62" y="-430.38" font-family="Helvetica,sans-Serif" font-size="10.00">JGeometry::TVec3&lt; float &gt;</text>
</a>
</g>
</g>
<!-- Node6&#45;&gt;Node5 -->
<g id="edge7_Node000005_Node000006" class="edge">
<title>Node6&#45;&gt;Node5</title>
<g id="a_edge7_Node000005_Node000006"><a xlink:title=" ">
<path fill="none" stroke="#9a32cd" stroke-dasharray="5,2" d="M621.72,-434.25C655.35,-434.25 693.01,-434.25 718.72,-434.25"/>
<polygon fill="#9a32cd" stroke="#9a32cd" points="622.01,-430.75 612.01,-434.25 622.01,-437.75 622.01,-430.75"/>
</a>
</g>
<text text-anchor="middle" x="651.25" y="-436" font-family="Helvetica,sans-Serif" font-size="10.00" fill="grey"> mPos</text>
</g>
<!-- Node7 -->
<g id="Node000007" class="node">
<title>Node7</title>
<g id="a_Node000007"><a xlink:href="structJAIAudience.html" target="_top" xlink:title=" ">
<polygon fill="white" stroke="#666666" points="786.5,-406.88 715,-406.88 715,-387.62 786.5,-387.62 786.5,-406.88"/>
<text text-anchor="middle" x="750.75" y="-393.38" font-family="Helvetica,sans-Serif" font-size="10.00">JAIAudience</text>
</a>
</g>
</g>
<!-- Node7&#45;&gt;Node4 -->
<g id="edge8_Node000004_Node000007" class="edge">
<title>Node7&#45;&gt;Node4</title>
<g id="a_edge8_Node000004_Node000007"><a xlink:title=" ">
<path fill="none" stroke="#9a32cd" stroke-dasharray="5,2" d="M797.61,-387.24C821.32,-380.84 850.11,-371.1 873.5,-357.25 893.45,-345.44 912.48,-325.94 923.02,-314.18"/>
<polygon fill="#9a32cd" stroke="#9a32cd" points="797.05,-383.77 788.24,-389.65 798.79,-390.55 797.05,-383.77"/>
</a>
</g>
<text text-anchor="middle" x="850.25" y="-379" font-family="Helvetica,sans-Serif" font-size="10.00" fill="grey"> audience_</text>
</g>
<!-- Node8 -->
<g id="Node000008" class="node">
<title>Node8</title>
<g id="a_Node000008"><a xlink:href="structJAISoundID.html" target="_top" xlink:title=" ">
<polygon fill="white" stroke="#666666" points="785,-369.88 716.5,-369.88 716.5,-350.62 785,-350.62 785,-369.88"/>
<text text-anchor="middle" x="750.75" y="-356.38" font-family="Helvetica,sans-Serif" font-size="10.00">JAISoundID</text>
</a>
</g>
</g>
<!-- Node8&#45;&gt;Node4 -->
<g id="edge9_Node000004_Node000008" class="edge">
<title>Node8&#45;&gt;Node4</title>
<g id="a_edge9_Node000004_Node000008"><a xlink:title=" ">
<path fill="none" stroke="#9a32cd" stroke-dasharray="5,2" d="M796.43,-350.66C819.67,-345.22 848.39,-337.8 873.5,-329.25 885.96,-325.01 899.48,-319.25 910.33,-314.33"/>
<polygon fill="#9a32cd" stroke="#9a32cd" points="795.94,-347.18 786.97,-352.82 797.5,-354 795.94,-347.18"/>
</a>
</g>
<text text-anchor="middle" x="850.25" y="-344" font-family="Helvetica,sans-Serif" font-size="10.00" fill="grey"> soundID</text>
</g>
<!-- Node9 -->
<g id="Node000009" class="node">
<title>Node9</title>
<g id="a_Node000009"><a xlink:href="structJAISoundStatus__.html" target="_top" xlink:title=" ">
<polygon fill="white" stroke="#666666" points="797,-332.88 704.5,-332.88 704.5,-313.62 797,-313.62 797,-332.88"/>
<text text-anchor="middle" x="750.75" y="-319.38" font-family="Helvetica,sans-Serif" font-size="10.00">JAISoundStatus_</text>
</a>
</g>
</g>
<!-- Node9&#45;&gt;Node4 -->
<g id="edge10_Node000004_Node000009" class="edge">
<title>Node9&#45;&gt;Node4</title>
<g id="a_edge10_Node000004_Node000009"><a xlink:title=" ">
<path fill="none" stroke="#9a32cd" stroke-dasharray="5,2" d="M808.35,-317.27C839.73,-313.95 877.4,-309.97 902.75,-307.29"/>
<polygon fill="#9a32cd" stroke="#9a32cd" points="808.19,-313.76 798.61,-318.3 808.93,-320.73 808.19,-313.76"/>
</a>
</g>
<text text-anchor="middle" x="850.25" y="-316" font-family="Helvetica,sans-Serif" font-size="10.00" fill="grey"> status_</text>
</g>
<!-- Node10 -->
<g id="Node000010" class="node">
<title>Node10</title>
<g id="a_Node000010"><a xlink:href="structJAISoundFader.html" target="_top" xlink:title=" ">
<polygon fill="white" stroke="#666666" points="461.25,-294.88 377.75,-294.88 377.75,-275.62 461.25,-275.62 461.25,-294.88"/>
<text text-anchor="middle" x="419.5" y="-281.38" font-family="Helvetica,sans-Serif" font-size="10.00">JAISoundFader</text>
</a>
</g>
</g>
<!-- Node10&#45;&gt;Node4 -->
<g id="edge11_Node000004_Node000010" class="edge">
<title>Node10&#45;&gt;Node4</title>
<g id="a_edge11_Node000004_Node000010"><a xlink:title=" ">
<path fill="none" stroke="#9a32cd" stroke-dasharray="5,2" d="M472.91,-287.2C579.87,-291.18 820.22,-300.11 902.91,-303.19"/>
<polygon fill="#9a32cd" stroke="#9a32cd" points="473.09,-283.7 462.97,-286.83 472.83,-290.7 473.09,-283.7"/>
</a>
</g>
<text text-anchor="middle" x="651.25" y="-296" font-family="Helvetica,sans-Serif" font-size="10.00" fill="grey"> fader</text>
</g>
<!-- Node11 -->
<g id="Node000011" class="node">
<title>Node11</title>
<g id="a_Node000011"><a xlink:href="structJAISoundParamsTransition_1_1TTransition.html" target="_top" xlink:title=" ">
<polygon fill="white" stroke="#666666" points="135.25,-260.5 0,-260.5 0,-230 135.25,-230 135.25,-260.5"/>
<text text-anchor="start" x="8" y="-247" font-family="Helvetica,sans-Serif" font-size="10.00">JAISoundParamsTransition</text>
<text text-anchor="middle" x="67.62" y="-235.75" font-family="Helvetica,sans-Serif" font-size="10.00">::TTransition</text>
</a>
</g>
</g>
<!-- Node11&#45;&gt;Node10 -->
<g id="edge12_Node000010_Node000011" class="edge">
<title>Node11&#45;&gt;Node10</title>
<g id="a_edge12_Node000010_Node000011"><a xlink:title=" ">
<path fill="none" stroke="#9a32cd" stroke-dasharray="5,2" d="M146.66,-262.23C148.88,-262.59 151.08,-262.93 153.25,-263.25 232.11,-274.86 325.13,-280.81 377.42,-283.46"/>
<polygon fill="#9a32cd" stroke="#9a32cd" points="147.41,-258.8 136.95,-260.54 146.21,-265.7 147.41,-258.8"/>
</a>
</g>
<text text-anchor="middle" x="179.88" y="-271" font-family="Helvetica,sans-Serif" font-size="10.00" fill="grey"> mTransition</text>
</g>
<!-- Node16 -->
<g id="Node000016" class="node">
<title>Node16</title>
<g id="a_Node000016"><a xlink:href="structJAISoundParamsTransition.html" target="_top" xlink:title=" ">
<polygon fill="white" stroke="#666666" points="359.75,-216.88 224.5,-216.88 224.5,-197.62 359.75,-197.62 359.75,-216.88"/>
<text text-anchor="middle" x="292.12" y="-203.38" font-family="Helvetica,sans-Serif" font-size="10.00">JAISoundParamsTransition</text>
</a>
</g>
</g>
<!-- Node11&#45;&gt;Node16 -->
<g id="edge18_Node000016_Node000011" class="edge">
<title>Node11&#45;&gt;Node16</title>
<g id="a_edge18_Node000016_Node000011"><a xlink:title=" ">
<path fill="none" stroke="#9a32cd" stroke-dasharray="5,2" d="M105.44,-224.51C119.88,-217.48 136.89,-210.53 153.25,-207 176.06,-202.08 201.5,-200.95 224.25,-201.43"/>
<polygon fill="#9a32cd" stroke="#9a32cd" points="104.12,-221.25 96.78,-228.9 107.28,-227.5 104.12,-221.25"/>
</a>
</g>
<text text-anchor="middle" x="179.88" y="-253" font-family="Helvetica,sans-Serif" font-size="10.00" fill="grey"> mDolby</text>
<text text-anchor="middle" x="179.88" y="-241.75" font-family="Helvetica,sans-Serif" font-size="10.00" fill="grey">mFxMix</text>
<text text-anchor="middle" x="179.88" y="-230.5" font-family="Helvetica,sans-Serif" font-size="10.00" fill="grey">mPan</text>
<text text-anchor="middle" x="179.88" y="-219.25" font-family="Helvetica,sans-Serif" font-size="10.00" fill="grey">mPitch</text>
<text text-anchor="middle" x="179.88" y="-208" font-family="Helvetica,sans-Serif" font-size="10.00" fill="grey">mVolume</text>
</g>
<!-- Node12 -->
<g id="Node000012" class="node">
<title>Node12</title>
<g id="a_Node000012"><a xlink:href="structJAISoundParams.html" target="_top" xlink:title=" ">
<polygon fill="white" stroke="#666666" points="797,-255.88 704.5,-255.88 704.5,-236.62 797,-236.62 797,-255.88"/>
<text text-anchor="middle" x="750.75" y="-242.38" font-family="Helvetica,sans-Serif" font-size="10.00">JAISoundParams</text>
</a>
</g>
</g>
<!-- Node12&#45;&gt;Node4 -->
<g id="edge13_Node000004_Node000012" class="edge">
<title>Node12&#45;&gt;Node4</title>
<g id="a_edge13_Node000004_Node000012"><a xlink:title=" ">
<path fill="none" stroke="#9a32cd" stroke-dasharray="5,2" d="M808.74,-246.38C829.71,-248.05 853.27,-251.87 873.5,-260 892.77,-267.74 911.16,-283.73 921.88,-294.21"/>
<polygon fill="#9a32cd" stroke="#9a32cd" points="809.11,-242.9 798.91,-245.76 808.67,-249.89 809.11,-242.9"/>
</a>
</g>
<text text-anchor="middle" x="850.25" y="-261" font-family="Helvetica,sans-Serif" font-size="10.00" fill="grey"> params</text>
</g>
<!-- Node13 -->
<g id="Node000013" class="node">
<title>Node13</title>
<g id="a_Node000013"><a xlink:href="structJAISoundParamsProperty.html" target="_top" xlink:title=" ">
<polygon fill="white" stroke="#666666" points="608.88,-255.88 480.38,-255.88 480.38,-236.62 608.88,-236.62 608.88,-255.88"/>
<text text-anchor="middle" x="544.62" y="-242.38" font-family="Helvetica,sans-Serif" font-size="10.00">JAISoundParamsProperty</text>
</a>
</g>
</g>
<!-- Node13&#45;&gt;Node12 -->
<g id="edge14_Node000012_Node000013" class="edge">
<title>Node13&#45;&gt;Node12</title>
<g id="a_edge14_Node000012_Node000013"><a xlink:title=" ">
<path fill="none" stroke="#9a32cd" stroke-dasharray="5,2" d="M620.76,-246.25C648.78,-246.25 679.72,-246.25 704.27,-246.25"/>
<polygon fill="#9a32cd" stroke="#9a32cd" points="620.89,-242.75 610.89,-246.25 620.89,-249.75 620.89,-242.75"/>
</a>
</g>
<text text-anchor="middle" x="651.25" y="-248" font-family="Helvetica,sans-Serif" font-size="10.00" fill="grey"> mProperty</text>
</g>
<!-- Node14 -->
<g id="Node000014" class="node">
<title>Node14</title>
<g id="a_Node000014"><a xlink:href="structJAISoundParamsMove.html" target="_top" xlink:title=" ">
<polygon fill="white" stroke="#666666" points="602.88,-216.88 486.38,-216.88 486.38,-197.62 602.88,-197.62 602.88,-216.88"/>
<text text-anchor="middle" x="544.62" y="-203.38" font-family="Helvetica,sans-Serif" font-size="10.00">JAISoundParamsMove</text>
</a>
</g>
</g>
<!-- Node14&#45;&gt;Node12 -->
<g id="edge15_Node000012_Node000014" class="edge">
<title>Node14&#45;&gt;Node12</title>
<g id="a_edge15_Node000012_Node000014"><a xlink:title=" ">
<path fill="none" stroke="#9a32cd" stroke-dasharray="5,2" d="M612.65,-219.37C632.57,-223.03 654.43,-227.12 674.5,-231 684.05,-232.85 694.28,-234.88 704.01,-236.85"/>
<polygon fill="#9a32cd" stroke="#9a32cd" points="613.44,-215.96 602.98,-217.6 612.18,-222.84 613.44,-215.96"/>
</a>
</g>
<text text-anchor="middle" x="651.25" y="-232" font-family="Helvetica,sans-Serif" font-size="10.00" fill="grey"> mMove</text>
</g>
<!-- Node15 -->
<g id="Node000015" class="node">
<title>Node15</title>
<g id="a_Node000015"><a xlink:href="structJASSoundParams.html" target="_top" xlink:title=" ">
<polygon fill="white" stroke="#666666" points="340.25,-179.88 244,-179.88 244,-160.62 340.25,-160.62 340.25,-179.88"/>
<text text-anchor="middle" x="292.12" y="-166.38" font-family="Helvetica,sans-Serif" font-size="10.00">JASSoundParams</text>
</a>
</g>
</g>
<!-- Node15&#45;&gt;Node14 -->
<g id="edge16_Node000014_Node000015" class="edge">
<title>Node15&#45;&gt;Node14</title>
<g id="a_edge16_Node000014_Node000015"><a xlink:title=" ">
<path fill="none" stroke="#9a32cd" stroke-dasharray="5,2" d="M351.76,-177.04C384.11,-180.99 424.97,-186.3 461.25,-192 471.02,-193.54 481.41,-195.33 491.41,-197.14"/>
<polygon fill="#9a32cd" stroke="#9a32cd" points="352.54,-173.61 342.19,-175.89 351.7,-180.56 352.54,-173.61"/>
</a>
</g>
<text text-anchor="middle" x="419.5" y="-193" font-family="Helvetica,sans-Serif" font-size="10.00" fill="grey"> mParams</text>
</g>
<!-- Node16&#45;&gt;Node14 -->
<g id="edge17_Node000014_Node000016" class="edge">
<title>Node16&#45;&gt;Node14</title>
<g id="a_edge17_Node000014_Node000016"><a xlink:title=" ">
<path fill="none" stroke="#9a32cd" stroke-dasharray="5,2" d="M371.22,-207.25C408.32,-207.25 451.89,-207.25 485.95,-207.25"/>
<polygon fill="#9a32cd" stroke="#9a32cd" points="371.44,-203.75 361.44,-207.25 371.44,-210.75 371.44,-203.75"/>
</a>
</g>
<text text-anchor="middle" x="419.5" y="-209" font-family="Helvetica,sans-Serif" font-size="10.00" fill="grey"> mTransition</text>
</g>
<!-- Node17 -->
<g id="Node000017" class="node">
<title>Node17</title>
<g id="a_Node000017"><a xlink:href="structJMath_1_1TRandom__fast__.html" target="_top" xlink:title=" ">
<polygon fill="white" stroke="#666666" points="809,-85.88 692.5,-85.88 692.5,-66.62 809,-66.62 809,-85.88"/>
<text text-anchor="middle" x="750.75" y="-72.38" font-family="Helvetica,sans-Serif" font-size="10.00">JMath::TRandom_fast_</text>
</a>
</g>
</g>
<!-- Node17&#45;&gt;Node1 -->
<g id="edge19_Node000001_Node000017" class="edge">
<title>Node17&#45;&gt;Node1</title>
<g id="a_edge19_Node000001_Node000017"><a xlink:title=" ">
<path fill="none" stroke="#9a32cd" stroke-dasharray="5,2" d="M820.46,-86.21C837.83,-89.05 856.4,-92.37 873.5,-96 880.63,-97.51 888.2,-99.34 895.43,-101.19"/>
<polygon fill="#9a32cd" stroke="#9a32cd" points="821.17,-82.78 810.75,-84.65 820.07,-89.69 821.17,-82.78"/>
</a>
</g>
<text text-anchor="middle" x="850.25" y="-97" font-family="Helvetica,sans-Serif" font-size="10.00" fill="grey"> random</text>
</g>
<!-- Node18 -->
<g id="Node000018" class="node">
<title>Node18</title>
<g id="a_Node000018"><a xlink:href="structZ2SpeechStarter.html" target="_top" xlink:title=" ">
<polygon fill="white" stroke="#666666" points="795.5,-122.88 706,-122.88 706,-103.62 795.5,-103.62 795.5,-122.88"/>
<text text-anchor="middle" x="750.75" y="-109.38" font-family="Helvetica,sans-Serif" font-size="10.00">Z2SpeechStarter</text>
</a>
</g>
</g>
<!-- Node18&#45;&gt;Node1 -->
<g id="edge20_Node000001_Node000018" class="edge">
<title>Node18&#45;&gt;Node1</title>
<g id="a_edge20_Node000001_Node000018"><a xlink:title=" ">
<path fill="none" stroke="#9a32cd" stroke-dasharray="5,2" d="M807.09,-112.27C813.8,-112.17 820.56,-112.08 827,-112 848.23,-111.75 871.88,-111.57 891.3,-111.45"/>
<polygon fill="#9a32cd" stroke="#9a32cd" points="807.37,-108.77 797.43,-112.42 807.48,-115.77 807.37,-108.77"/>
</a>
</g>
<text text-anchor="middle" x="850.25" y="-113" font-family="Helvetica,sans-Serif" font-size="10.00" fill="grey"> mSpeech</text>
</g>
<!-- Node19 -->
<g id="Node000019" class="node">
<title>Node19</title>
<g id="a_Node000019"><a xlink:href="structZ2SoundStarter.html" target="_top" xlink:title=" ">
<polygon fill="white" stroke="#666666" points="586.75,-75.88 502.5,-75.88 502.5,-56.62 586.75,-56.62 586.75,-75.88"/>
<text text-anchor="middle" x="544.62" y="-62.38" font-family="Helvetica,sans-Serif" font-size="10.00">Z2SoundStarter</text>
</a>
</g>
</g>
<!-- Node19&#45;&gt;Node18 -->
<g id="edge21_Node000018_Node000019" class="edge">
<title>Node19&#45;&gt;Node18</title>
<g id="a_edge21_Node000018_Node000019"><a xlink:title=" ">
<path fill="none" stroke="#63b8ff" d="M597.9,-78.29C631.39,-86 674.36,-95.89 706.03,-103.18"/>
<polygon fill="#63b8ff" stroke="#63b8ff" points="598.94,-74.93 588.41,-76.1 597.37,-81.76 598.94,-74.93"/>
</a>
</g>
</g>
<!-- Node22 -->
<g id="Node000022" class="node">
<title>Node22</title>
<g id="a_Node000022"><a xlink:href="classJASGlobalInstance.html" target="_top" xlink:title=" ">
<polygon fill="white" stroke="#666666" points="803.75,-48.5 697.75,-48.5 697.75,-18 803.75,-18 803.75,-48.5"/>
<text text-anchor="start" x="705.75" y="-35" font-family="Helvetica,sans-Serif" font-size="10.00">JASGlobalInstance&lt;</text>
<text text-anchor="middle" x="750.75" y="-23.75" font-family="Helvetica,sans-Serif" font-size="10.00"> Z2SoundStarter &gt;</text>
</a>
</g>
</g>
<!-- Node19&#45;&gt;Node22 -->
<g id="edge26_Node000022_Node000019" class="edge">
<title>Node19&#45;&gt;Node22</title>
<g id="a_edge26_Node000022_Node000019"><a xlink:title=" ">
<path fill="none" stroke="#9a32cd" stroke-dasharray="5,2" d="M598.23,-57.75C628.78,-52.81 667.13,-46.61 697.61,-41.68"/>
<polygon fill="#9a32cd" stroke="#9a32cd" points="597.74,-54.28 588.43,-59.33 598.86,-61.19 597.74,-54.28"/>
</a>
</g>
<text text-anchor="middle" x="651.25" y="-54" font-family="Helvetica,sans-Serif" font-size="10.00" fill="grey"> sInstance</text>
</g>
<!-- Node20 -->
<g id="Node000020" class="node">
<title>Node20</title>
<g id="a_Node000020"><a xlink:href="structJAISoundStarter.html" target="_top" xlink:title=" ">
<polygon fill="white" stroke="#666666" points="336.12,-49.88 248.12,-49.88 248.12,-30.62 336.12,-30.62 336.12,-49.88"/>
<text text-anchor="middle" x="292.12" y="-36.38" font-family="Helvetica,sans-Serif" font-size="10.00">JAISoundStarter</text>
</a>
</g>
</g>
<!-- Node20&#45;&gt;Node19 -->
<g id="edge22_Node000019_Node000020" class="edge">
<title>Node20&#45;&gt;Node19</title>
<g id="a_edge22_Node000019_Node000020"><a xlink:title=" ">
<path fill="none" stroke="#63b8ff" d="M347.83,-45.93C394.25,-50.75 459.84,-57.55 502.06,-61.94"/>
<polygon fill="#63b8ff" stroke="#63b8ff" points="348.29,-42.46 337.98,-44.91 347.56,-49.42 348.29,-42.46"/>
</a>
</g>
</g>
<!-- Node21 -->
<g id="Node000021" class="node">
<title>Node21</title>
<g id="a_Node000021"><a xlink:href="classJASGlobalInstance.html" target="_top" xlink:title=" ">
<polygon fill="white" stroke="#666666" points="597.62,-30.5 491.62,-30.5 491.62,0 597.62,0 597.62,-30.5"/>
<text text-anchor="start" x="499.62" y="-17" font-family="Helvetica,sans-Serif" font-size="10.00">JASGlobalInstance&lt;</text>
<text text-anchor="middle" x="544.62" y="-5.75" font-family="Helvetica,sans-Serif" font-size="10.00"> JAISoundStarter &gt;</text>
</a>
</g>
</g>
<!-- Node20&#45;&gt;Node21 -->
<g id="edge24_Node000021_Node000020" class="edge">
<title>Node20&#45;&gt;Node21</title>
<g id="a_edge24_Node000021_Node000020"><a xlink:title=" ">
<path fill="none" stroke="#9a32cd" stroke-dasharray="5,2" d="M347.76,-34.8C390.39,-30.54 449.23,-24.67 491.27,-20.48"/>
<polygon fill="#9a32cd" stroke="#9a32cd" points="347.58,-31.3 337.98,-35.77 348.28,-38.26 347.58,-31.3"/>
</a>
</g>
<text text-anchor="middle" x="419.5" y="-34" font-family="Helvetica,sans-Serif" font-size="10.00" fill="grey"> sInstance</text>
</g>
<!-- Node21&#45;&gt;Node20 -->
<g id="edge23_Node000020_Node000021" class="edge">
<title>Node21&#45;&gt;Node20</title>
<g id="a_edge23_Node000020_Node000021"><a xlink:title=" ">
<path fill="none" stroke="#63b8ff" d="M479.63,-14.81C448.74,-15.3 411.2,-16.93 377.75,-21.25 362.37,-23.24 345.67,-26.7 331.19,-30.13"/>
<polygon fill="#63b8ff" stroke="#63b8ff" points="479.65,-18.31 489.61,-14.7 479.57,-11.31 479.65,-18.31"/>
</a>
</g>
</g>
<!-- Node22&#45;&gt;Node19 -->
<g id="edge25_Node000019_Node000022" class="edge">
<title>Node22&#45;&gt;Node19</title>
<g id="a_edge25_Node000019_Node000022"><a xlink:title=" ">
<path fill="none" stroke="#63b8ff" d="M686.01,-39.22C667.26,-41.34 646.75,-44.02 628,-47.25 613.97,-49.67 598.75,-52.98 585.25,-56.16"/>
<polygon fill="#63b8ff" stroke="#63b8ff" points="686.36,-42.7 695.92,-38.13 685.6,-35.74 686.36,-42.7"/>
</a>
</g>
</g>
</g>
</svg>

<g id="navigator" transform="translate(0 0)" fill="#404254">
  <rect fill="#f2f5e9" fill-opacity="0.5" stroke="#606060" stroke-width=".5" x="0" y="0" width="60" height="60"/>
  <use id="zoomplus" xlink:href="#zoomPlus" x="17" y="9" onmousedown="handleZoom(evt,'in')"/>
  <use id="zoomminus" xlink:href="#zoomMin" x="42" y="9" onmousedown="handleZoom(evt,'out')"/>
  <use id="reset" xlink:href="#resetDef" x="30" y="36" onmousedown="handleReset()"/>
   <use id="arrowup" xlink:href="#arrowUp" x="0" y="0" onmousedown="handlePan(0,-1)"/>
  <use id="arrowright" xlink:href="#arrowRight" x="0" y="0" onmousedown="handlePan(1,0)"/>
  <use id="arrowdown" xlink:href="#arrowDown" x="0" y="0" onmousedown="handlePan(0,1)"/>
  <use id="arrowleft" xlink:href="#arrowLeft" x="0" y="0" onmousedown="handlePan(-1,0)"/>
</g>
<svg viewBox="0 0 15 15" width="100%" height="30px" preserveAspectRatio="xMaxYMin meet">
 <g id="arrow_out" transform="scale(0.3 0.3)">
  <a xlink:href="structZ2SpeechMgr2__coll__graph_org.svg" target="_base">
   <rect id="button" ry="5" rx="5" y="6" x="6" height="38" width="38"
        fill="#f2f5e9" fill-opacity="0.5" stroke="#606060" stroke-width="1.0"/>
   <path id="arrow"
     d="M 11.500037,31.436501 C 11.940474,20.09759 22.043105,11.32322 32.158766,21.979434 L 37.068811,17.246167 C 37.068811,17.246167 37.088388,32 37.088388,32 L 22.160133,31.978069 C 22.160133,31.978069 26.997745,27.140456 26.997745,27.140456 C 18.528582,18.264221 13.291696,25.230495 11.500037,31.436501 z"
     style="fill:#404040;"/>
  </a>
 </g>
</svg>

<style type='text/css'>
<![CDATA[
[data-mouse-over-selected='false'] { opacity: 0.7; }
[data-mouse-over-selected='true']  { opacity: 1.0; }
]]>
</style>
<script type="application/ecmascript"><![CDATA[
document.addEventListener('DOMContentLoaded', (event) => {
  highlightEdges();
  highlightAdjacentNodes();
});
]]></script>
</svg>
