<?xml version="1.0" encoding="UTF-8" standalone="no"?>
<!DOCTYPE svg PUBLIC "-//W3C//DTD SVG 1.1//EN"
 "http://www.w3.org/Graphics/SVG/1.1/DTD/svg11.dtd">
<!-- Generated by graphviz version 9.0.0 (20230911.1827)
 -->
<!-- Title: stage_tgsc_data_class Pages: 1 -->
<svg width="205pt" height="277pt"
 viewBox="0.00 0.00 205.38 277.00" xmlns="http://www.w3.org/2000/svg" xmlns:xlink="http://www.w3.org/1999/xlink">

<svg id="main" version="1.1" xmlns="http://www.w3.org/2000/svg" xmlns:xlink="http://www.w3.org/1999/xlink" xml:space="preserve" onload="init(evt)">
<style type="text/css"><![CDATA[
.node, .edge {opacity: 0.7;}
.node.selected, .edge.selected {opacity: 1;}
.edge:hover path { stroke: red; }
.edge:hover polygon { stroke: red; fill: red; }
]]></style>
<script type="application/ecmascript" xlink:href="svg.min.js"/>
<svg id="graph" class="graph">
<g id="graph0" class="graph" transform="scale(1 1) rotate(0) translate(4 273)">
<title>stage_tgsc_data_class</title>
<!-- Node1 -->
<g id="Node000001" class="node">
<title>Node1</title>
<g id="a_Node000001"><a xlink:title=" ">
<polygon fill="#999999" stroke="#666666" points="134.75,-19.25 18.25,-19.25 18.25,0 134.75,0 134.75,-19.25"/>
<text text-anchor="middle" x="76.5" y="-5.75" font-family="Helvetica,sans-Serif" font-size="10.00">stage_tgsc_data_class</text>
</a>
</g>
</g>
<!-- Node2 -->
<g id="Node000002" class="node">
<title>Node2</title>
<g id="a_Node000002"><a xlink:href="classstage__actor__data__class.html" target="_top" xlink:title=" ">
<polygon fill="white" stroke="#666666" points="136.25,-75.5 16.75,-75.5 16.75,-56.25 136.25,-56.25 136.25,-75.5"/>
<text text-anchor="middle" x="76.5" y="-62" font-family="Helvetica,sans-Serif" font-size="10.00">stage_actor_data_class</text>
</a>
</g>
</g>
<!-- Node2&#45;&gt;Node1 -->
<g id="edge1_Node000001_Node000002" class="edge">
<title>Node2&#45;&gt;Node1</title>
<g id="a_edge1_Node000001_Node000002"><a xlink:title=" ">
<path fill="none" stroke="#63b8ff" d="M76.5,-44.69C76.5,-35.98 76.5,-26.24 76.5,-19.42"/>
<polygon fill="#63b8ff" stroke="#63b8ff" points="73,-44.4 76.5,-54.4 80,-44.4 73,-44.4"/>
</a>
</g>
</g>
<!-- Node3 -->
<g id="Node000003" class="node">
<title>Node3</title>
<g id="a_Node000003"><a xlink:href="structcXyz.html" target="_top" xlink:title=" ">
<polygon fill="white" stroke="#666666" points="37,-177.38 0,-177.38 0,-158.12 37,-158.12 37,-177.38"/>
<text text-anchor="middle" x="18.5" y="-163.88" font-family="Helvetica,sans-Serif" font-size="10.00">cXyz</text>
</a>
</g>
</g>
<!-- Node3&#45;&gt;Node2 -->
<g id="edge2_Node000002_Node000003" class="edge">
<title>Node3&#45;&gt;Node2</title>
<g id="a_edge2_Node000002_Node000003"><a xlink:title=" ">
<path fill="none" stroke="#9a32cd" stroke-dasharray="5,2" d="M23.33,-147.11C27.76,-131.62 35.38,-109.96 46.75,-93.5 51.4,-86.77 58.08,-80.59 63.94,-75.88"/>
<polygon fill="#9a32cd" stroke="#9a32cd" points="20.01,-145.97 20.84,-156.53 26.78,-147.76 20.01,-145.97"/>
</a>
</g>
<text text-anchor="middle" x="76.38" y="-95.25" font-family="Helvetica,sans-Serif" font-size="10.00" fill="grey"> mSpawnPos</text>
</g>
<!-- Node3&#45;&gt;Node3 -->
<g id="edge4_Node000003_Node000003" class="edge">
<title>Node3&#45;&gt;Node3</title>
<g id="a_edge4_Node000003_Node000003"><a xlink:title=" ">
<path fill="none" stroke="#9a32cd" stroke-dasharray="5,2" d="M43.27,-179.57C49.93,-178.93 55,-174.99 55,-167.75 55,-156.71 43.24,-153.35 31.98,-157.66"/>
<polygon fill="#9a32cd" stroke="#9a32cd" points="43.89,-176.12 33.47,-178.07 42.83,-183.04 43.89,-176.12"/>
</a>
</g>
<text text-anchor="middle" x="76" y="-203.25" font-family="Helvetica,sans-Serif" font-size="10.00" fill="grey"> BaseX</text>
<text text-anchor="middle" x="76" y="-192" font-family="Helvetica,sans-Serif" font-size="10.00" fill="grey">BaseXY</text>
<text text-anchor="middle" x="76" y="-180.75" font-family="Helvetica,sans-Serif" font-size="10.00" fill="grey">BaseXYZ</text>
<text text-anchor="middle" x="76" y="-169.5" font-family="Helvetica,sans-Serif" font-size="10.00" fill="grey">BaseXZ</text>
<text text-anchor="middle" x="76" y="-158.25" font-family="Helvetica,sans-Serif" font-size="10.00" fill="grey">BaseY</text>
<text text-anchor="middle" x="76" y="-147" font-family="Helvetica,sans-Serif" font-size="10.00" fill="grey">BaseYZ</text>
<text text-anchor="middle" x="76" y="-135.75" font-family="Helvetica,sans-Serif" font-size="10.00" fill="grey">BaseZ</text>
<text text-anchor="middle" x="76" y="-124.5" font-family="Helvetica,sans-Serif" font-size="10.00" fill="grey">Zero</text>
</g>
<!-- Node4 -->
<g id="Node000004" class="node">
<title>Node4</title>
<g id="a_Node000004"><a xlink:href="structVec.html" target="_top" xlink:title=" ">
<polygon fill="white" stroke="#666666" points="35.12,-269 1.88,-269 1.88,-249.75 35.12,-249.75 35.12,-269"/>
<text text-anchor="middle" x="18.5" y="-255.5" font-family="Helvetica,sans-Serif" font-size="10.00">Vec</text>
</a>
</g>
</g>
<!-- Node4&#45;&gt;Node3 -->
<g id="edge3_Node000003_Node000004" class="edge">
<title>Node4&#45;&gt;Node3</title>
<g id="a_edge3_Node000003_Node000004"><a xlink:title=" ">
<path fill="none" stroke="#63b8ff" d="M18.5,-238.19C18.5,-219.19 18.5,-191.64 18.5,-177.64"/>
<polygon fill="#63b8ff" stroke="#63b8ff" points="15,-237.94 18.5,-247.94 22,-237.94 15,-237.94"/>
</a>
</g>
</g>
<!-- Node5 -->
<g id="Node000005" class="node">
<title>Node5</title>
<g id="a_Node000005"><a xlink:href="structcsXyz.html" target="_top" xlink:title=" ">
<polygon fill="white" stroke="#666666" points="157.62,-177.38 115.38,-177.38 115.38,-158.12 157.62,-158.12 157.62,-177.38"/>
<text text-anchor="middle" x="136.5" y="-163.88" font-family="Helvetica,sans-Serif" font-size="10.00">csXyz</text>
</a>
</g>
</g>
<!-- Node5&#45;&gt;Node2 -->
<g id="edge5_Node000002_Node000005" class="edge">
<title>Node5&#45;&gt;Node2</title>
<g id="a_edge5_Node000002_Node000005"><a xlink:title=" ">
<path fill="none" stroke="#9a32cd" stroke-dasharray="5,2" d="M130.38,-147.23C124.99,-131.81 116.19,-110.18 104.5,-93.5 99.88,-86.91 93.44,-80.65 87.9,-75.85"/>
<polygon fill="#9a32cd" stroke="#9a32cd" points="127.02,-148.22 133.48,-156.62 133.67,-146.03 127.02,-148.22"/>
</a>
</g>
<text text-anchor="middle" x="129.12" y="-95.25" font-family="Helvetica,sans-Serif" font-size="10.00" fill="grey"> mAngle</text>
</g>
<!-- Node5&#45;&gt;Node5 -->
<g id="edge7_Node000005_Node000005" class="edge">
<title>Node5&#45;&gt;Node5</title>
<g id="a_edge7_Node000005_Node000005"><a xlink:title=" ">
<path fill="none" stroke="#9a32cd" stroke-dasharray="5,2" d="M162.28,-179.62C169.8,-179.21 175.62,-175.25 175.62,-167.75 175.62,-156.71 163.01,-153.35 150.95,-157.66"/>
<polygon fill="#9a32cd" stroke="#9a32cd" points="162.86,-176.17 152.44,-178.07 161.78,-183.08 162.86,-176.17"/>
</a>
</g>
<text text-anchor="middle" x="186.5" y="-163.88" font-family="Helvetica,sans-Serif" font-size="10.00" fill="grey"> Zero</text>
</g>
<!-- Node6 -->
<g id="Node000006" class="node">
<title>Node6</title>
<g id="a_Node000006"><a xlink:href="structSVec.html" target="_top" xlink:title=" ">
<polygon fill="white" stroke="#666666" points="156.5,-269 116.5,-269 116.5,-249.75 156.5,-249.75 156.5,-269"/>
<text text-anchor="middle" x="136.5" y="-255.5" font-family="Helvetica,sans-Serif" font-size="10.00">SVec</text>
</a>
</g>
</g>
<!-- Node6&#45;&gt;Node5 -->
<g id="edge6_Node000005_Node000006" class="edge">
<title>Node6&#45;&gt;Node5</title>
<g id="a_edge6_Node000005_Node000006"><a xlink:title=" ">
<path fill="none" stroke="#63b8ff" d="M136.5,-238.19C136.5,-219.19 136.5,-191.64 136.5,-177.64"/>
<polygon fill="#63b8ff" stroke="#63b8ff" points="133,-237.94 136.5,-247.94 140,-237.94 133,-237.94"/>
</a>
</g>
</g>
</g>
</svg>
</svg>

<style type='text/css'>
<![CDATA[
[data-mouse-over-selected='false'] { opacity: 0.7; }
[data-mouse-over-selected='true']  { opacity: 1.0; }
]]>
</style>
<script type="application/ecmascript"><![CDATA[
document.addEventListener('DOMContentLoaded', (event) => {
  highlightEdges();
  highlightAdjacentNodes();
});
]]></script>
</svg>
