<?xml version="1.0" encoding="UTF-8" standalone="no"?>
<!DOCTYPE svg PUBLIC "-//W3C//DTD SVG 1.1//EN"
 "http://www.w3.org/Graphics/SVG/1.1/DTD/svg11.dtd">
<!-- Generated by graphviz version 9.0.0 (20230911.1827)
 -->
<!-- Title: J3DAnmTransformKey Pages: 1 -->
<svg width="262pt" height="183pt"
 viewBox="0.00 0.00 262.00 182.75" xmlns="http://www.w3.org/2000/svg" xmlns:xlink="http://www.w3.org/1999/xlink">
<g id="graph0" class="graph" transform="scale(1 1) rotate(0) translate(4 178.75)">
<title>J3DAnmTransformKey</title>
<!-- Node1 -->
<g id="Node000001" class="node">
<title>Node1</title>
<g id="a_Node000001"><a xlink:title=" ">
<polygon fill="#999999" stroke="#666666" points="173,-19.25 58.75,-19.25 58.75,0 173,0 173,-19.25"/>
<text text-anchor="middle" x="115.88" y="-5.75" font-family="Helvetica,sans-Serif" font-size="10.00">J3DAnmTransformKey</text>
</a>
</g>
</g>
<!-- Node2 -->
<g id="Node000002" class="node">
<title>Node2</title>
<g id="a_Node000002"><a xlink:href="structJ3DAnmTransform.html" target="_top" xlink:title=" ">
<polygon fill="white" stroke="#666666" points="97.75,-85.75 0,-85.75 0,-66.5 97.75,-66.5 97.75,-85.75"/>
<text text-anchor="middle" x="48.88" y="-72.25" font-family="Helvetica,sans-Serif" font-size="10.00">J3DAnmTransform</text>
</a>
</g>
</g>
<!-- Node2&#45;&gt;Node1 -->
<g id="edge1_Node000001_Node000002" class="edge">
<title>Node2&#45;&gt;Node1</title>
<g id="a_edge1_Node000001_Node000002"><a xlink:title=" ">
<path fill="none" stroke="#63b8ff" d="M66.32,-58.33C79.22,-45.91 96.27,-29.5 106.64,-19.52"/>
<polygon fill="#63b8ff" stroke="#63b8ff" points="64.06,-55.65 59.28,-65.11 68.91,-60.69 64.06,-55.65"/>
</a>
</g>
</g>
<!-- Node3 -->
<g id="Node000003" class="node">
<title>Node3</title>
<g id="a_Node000003"><a xlink:href="classJ3DAnmBase.html" target="_top" xlink:title=" ">
<polygon fill="white" stroke="#666666" points="86.88,-174.75 10.88,-174.75 10.88,-155.5 86.88,-155.5 86.88,-174.75"/>
<text text-anchor="middle" x="48.88" y="-161.25" font-family="Helvetica,sans-Serif" font-size="10.00">J3DAnmBase</text>
</a>
</g>
</g>
<!-- Node3&#45;&gt;Node2 -->
<g id="edge2_Node000002_Node000003" class="edge">
<title>Node3&#45;&gt;Node2</title>
<g id="a_edge2_Node000002_Node000003"><a xlink:title=" ">
<path fill="none" stroke="#63b8ff" d="M48.88,-143.76C48.88,-125.55 48.88,-99.72 48.88,-86.19"/>
<polygon fill="#63b8ff" stroke="#63b8ff" points="45.38,-143.63 48.88,-153.63 52.38,-143.63 45.38,-143.63"/>
</a>
</g>
</g>
<!-- Node4 -->
<g id="Node000004" class="node">
<title>Node4</title>
<g id="a_Node000004"><a xlink:href="structJ3DAnmTransformKeyTable.html" target="_top" xlink:title=" ">
<polygon fill="white" stroke="#666666" points="254,-85.75 115.75,-85.75 115.75,-66.5 254,-66.5 254,-85.75"/>
<text text-anchor="middle" x="184.88" y="-72.25" font-family="Helvetica,sans-Serif" font-size="10.00">J3DAnmTransformKeyTable</text>
</a>
</g>
</g>
<!-- Node4&#45;&gt;Node1 -->
<g id="edge3_Node000001_Node000004" class="edge">
<title>Node4&#45;&gt;Node1</title>
<g id="a_edge3_Node000001_Node000004"><a xlink:title=" ">
<path fill="none" stroke="#9a32cd" stroke-dasharray="5,2" d="M166.91,-58.33C153.63,-45.91 136.06,-29.5 125.39,-19.52"/>
<polygon fill="#9a32cd" stroke="#9a32cd" points="164.48,-60.85 174.18,-65.12 169.26,-55.74 164.48,-60.85"/>
</a>
</g>
<text text-anchor="middle" x="181.25" y="-39" font-family="Helvetica,sans-Serif" font-size="10.00" fill="grey"> mAnmTable</text>
</g>
<!-- Node5 -->
<g id="Node000005" class="node">
<title>Node5</title>
<g id="a_Node000005"><a xlink:href="structJ3DAnmKeyTableBase.html" target="_top" xlink:title=" ">
<polygon fill="white" stroke="#666666" points="243.12,-174.75 126.62,-174.75 126.62,-155.5 243.12,-155.5 243.12,-174.75"/>
<text text-anchor="middle" x="184.88" y="-161.25" font-family="Helvetica,sans-Serif" font-size="10.00">J3DAnmKeyTableBase</text>
</a>
</g>
</g>
<!-- Node5&#45;&gt;Node4 -->
<g id="edge4_Node000004_Node000005" class="edge">
<title>Node5&#45;&gt;Node4</title>
<g id="a_edge4_Node000004_Node000005"><a xlink:title=" ">
<path fill="none" stroke="#9a32cd" stroke-dasharray="5,2" d="M184.88,-143.76C184.88,-125.55 184.88,-99.72 184.88,-86.19"/>
<polygon fill="#9a32cd" stroke="#9a32cd" points="181.38,-143.63 184.88,-153.63 188.38,-143.63 181.38,-143.63"/>
</a>
</g>
<text text-anchor="middle" x="217.5" y="-128" font-family="Helvetica,sans-Serif" font-size="10.00" fill="grey"> mRotationInfo</text>
<text text-anchor="middle" x="217.5" y="-116.75" font-family="Helvetica,sans-Serif" font-size="10.00" fill="grey">mScaleInfo</text>
<text text-anchor="middle" x="217.5" y="-105.5" font-family="Helvetica,sans-Serif" font-size="10.00" fill="grey">mTranslateInfo</text>
</g>
</g>
</svg>
