<?xml version="1.0" encoding="UTF-8" standalone="no"?>
<!DOCTYPE svg PUBLIC "-//W3C//DTD SVG 1.1//EN"
 "http://www.w3.org/Graphics/SVG/1.1/DTD/svg11.dtd">
<!-- Generated by graphviz version 9.0.0 (20230911.1827)
 -->
<!-- Title: cCcD_Obj Pages: 1 -->
<svg width="304pt" height="248pt"
 viewBox="0.00 0.00 303.50 248.25" xmlns="http://www.w3.org/2000/svg" xmlns:xlink="http://www.w3.org/1999/xlink">
<g id="graph0" class="graph" transform="scale(1 1) rotate(0) translate(4 244.25)">
<title>cCcD_Obj</title>
<!-- Node1 -->
<g id="Node000001" class="node">
<title>Node1</title>
<g id="a_Node000001"><a xlink:title=" ">
<polygon fill="#999999" stroke="#666666" points="179.38,-185 119.12,-185 119.12,-165.75 179.38,-165.75 179.38,-185"/>
<text text-anchor="middle" x="149.25" y="-171.5" font-family="Helvetica,sans-Serif" font-size="10.00">cCcD_Obj</text>
</a>
</g>
</g>
<!-- Node3 -->
<g id="Node000003" class="node">
<title>Node3</title>
<g id="a_Node000003"><a xlink:href="classcCcD__GObjInf.html" target="_top" xlink:title=" ">
<polygon fill="white" stroke="#666666" points="188.75,-129.75 109.75,-129.75 109.75,-110.5 188.75,-110.5 188.75,-129.75"/>
<text text-anchor="middle" x="149.25" y="-116.25" font-family="Helvetica,sans-Serif" font-size="10.00">cCcD_GObjInf</text>
</a>
</g>
</g>
<!-- Node1&#45;&gt;Node3 -->
<g id="edge2_Node000001_Node000003" class="edge">
<title>Node1&#45;&gt;Node3</title>
<g id="a_edge2_Node000001_Node000003"><a xlink:title=" ">
<path fill="none" stroke="#63b8ff" d="M149.25,-154.13C149.25,-145.84 149.25,-136.67 149.25,-130.11"/>
<polygon fill="#63b8ff" stroke="#63b8ff" points="145.75,-154.07 149.25,-164.07 152.75,-154.07 145.75,-154.07"/>
</a>
</g>
</g>
<!-- Node2 -->
<g id="Node000002" class="node">
<title>Node2</title>
<g id="a_Node000002"><a xlink:href="classcCcD__ObjHitInf.html" target="_top" xlink:title=" ">
<polygon fill="white" stroke="#666666" points="191.38,-240.25 107.12,-240.25 107.12,-221 191.38,-221 191.38,-240.25"/>
<text text-anchor="middle" x="149.25" y="-226.75" font-family="Helvetica,sans-Serif" font-size="10.00">cCcD_ObjHitInf</text>
</a>
</g>
</g>
<!-- Node2&#45;&gt;Node1 -->
<g id="edge1_Node000001_Node000002" class="edge">
<title>Node2&#45;&gt;Node1</title>
<g id="a_edge1_Node000001_Node000002"><a xlink:title=" ">
<path fill="none" stroke="#63b8ff" d="M149.25,-209.38C149.25,-201.09 149.25,-191.92 149.25,-185.36"/>
<polygon fill="#63b8ff" stroke="#63b8ff" points="145.75,-209.32 149.25,-219.32 152.75,-209.32 145.75,-209.32"/>
</a>
</g>
</g>
<!-- Node4 -->
<g id="Node000004" class="node">
<title>Node4</title>
<g id="a_Node000004"><a xlink:href="structdCcD__GObjInf.html" target="_top" xlink:title=" ">
<polygon fill="white" stroke="#666666" points="188.75,-74.5 109.75,-74.5 109.75,-55.25 188.75,-55.25 188.75,-74.5"/>
<text text-anchor="middle" x="149.25" y="-61" font-family="Helvetica,sans-Serif" font-size="10.00">dCcD_GObjInf</text>
</a>
</g>
</g>
<!-- Node3&#45;&gt;Node4 -->
<g id="edge3_Node000003_Node000004" class="edge">
<title>Node3&#45;&gt;Node4</title>
<g id="a_edge3_Node000003_Node000004"><a xlink:title=" ">
<path fill="none" stroke="#63b8ff" d="M149.25,-98.88C149.25,-90.59 149.25,-81.42 149.25,-74.86"/>
<polygon fill="#63b8ff" stroke="#63b8ff" points="145.75,-98.82 149.25,-108.82 152.75,-98.82 145.75,-98.82"/>
</a>
</g>
</g>
<!-- Node5 -->
<g id="Node000005" class="node">
<title>Node5</title>
<g id="a_Node000005"><a xlink:href="classdCcD__Cps.html" target="_top" xlink:title=" ">
<polygon fill="white" stroke="#666666" points="62.5,-19.25 0,-19.25 0,0 62.5,0 62.5,-19.25"/>
<text text-anchor="middle" x="31.25" y="-5.75" font-family="Helvetica,sans-Serif" font-size="10.00">dCcD_Cps</text>
</a>
</g>
</g>
<!-- Node4&#45;&gt;Node5 -->
<g id="edge4_Node000004_Node000005" class="edge">
<title>Node4&#45;&gt;Node5</title>
<g id="a_edge4_Node000004_Node000005"><a xlink:title=" ">
<path fill="none" stroke="#63b8ff" d="M118.81,-50.14C97.59,-40.56 69.88,-28.06 51.37,-19.7"/>
<polygon fill="#63b8ff" stroke="#63b8ff" points="117.3,-53.3 127.85,-54.22 120.18,-46.92 117.3,-53.3"/>
</a>
</g>
</g>
<!-- Node6 -->
<g id="Node000006" class="node">
<title>Node6</title>
<g id="a_Node000006"><a xlink:href="structdCcD__Cyl.html" target="_top" xlink:title=" ">
<polygon fill="white" stroke="#666666" points="139.62,-19.25 80.88,-19.25 80.88,0 139.62,0 139.62,-19.25"/>
<text text-anchor="middle" x="110.25" y="-5.75" font-family="Helvetica,sans-Serif" font-size="10.00">dCcD_Cyl</text>
</a>
</g>
</g>
<!-- Node4&#45;&gt;Node6 -->
<g id="edge5_Node000004_Node000006" class="edge">
<title>Node4&#45;&gt;Node6</title>
<g id="a_edge5_Node000004_Node000006"><a xlink:title=" ">
<path fill="none" stroke="#63b8ff" d="M136.11,-45.94C129.63,-37.09 122.09,-26.79 116.83,-19.61"/>
<polygon fill="#63b8ff" stroke="#63b8ff" points="133.18,-47.86 141.92,-53.86 138.83,-43.73 133.18,-47.86"/>
</a>
</g>
</g>
<!-- Node7 -->
<g id="Node000007" class="node">
<title>Node7</title>
<g id="a_Node000007"><a xlink:href="classdCcD__Sph.html" target="_top" xlink:title=" ">
<polygon fill="white" stroke="#666666" points="220.5,-19.25 158,-19.25 158,0 220.5,0 220.5,-19.25"/>
<text text-anchor="middle" x="189.25" y="-5.75" font-family="Helvetica,sans-Serif" font-size="10.00">dCcD_Sph</text>
</a>
</g>
</g>
<!-- Node4&#45;&gt;Node7 -->
<g id="edge6_Node000004_Node000007" class="edge">
<title>Node4&#45;&gt;Node7</title>
<g id="a_edge6_Node000004_Node000007"><a xlink:title=" ">
<path fill="none" stroke="#63b8ff" d="M162.72,-45.94C169.37,-37.09 177.11,-26.79 182.5,-19.61"/>
<polygon fill="#63b8ff" stroke="#63b8ff" points="159.97,-43.77 156.76,-53.87 165.57,-47.98 159.97,-43.77"/>
</a>
</g>
</g>
<!-- Node8 -->
<g id="Node000008" class="node">
<title>Node8</title>
<g id="a_Node000008"><a xlink:href="classdCcD__Tri.html" target="_top" xlink:title=" ">
<polygon fill="white" stroke="#666666" points="295.5,-19.25 239,-19.25 239,0 295.5,0 295.5,-19.25"/>
<text text-anchor="middle" x="267.25" y="-5.75" font-family="Helvetica,sans-Serif" font-size="10.00">dCcD_Tri</text>
</a>
</g>
</g>
<!-- Node4&#45;&gt;Node8 -->
<g id="edge7_Node000004_Node000008" class="edge">
<title>Node4&#45;&gt;Node8</title>
<g id="a_edge7_Node000004_Node000008"><a xlink:title=" ">
<path fill="none" stroke="#63b8ff" d="M179.69,-50.14C200.91,-40.56 228.62,-28.06 247.13,-19.7"/>
<polygon fill="#63b8ff" stroke="#63b8ff" points="178.32,-46.92 170.65,-54.22 181.2,-53.3 178.32,-46.92"/>
</a>
</g>
</g>
</g>
</svg>
